<?xml version="1.0" encoding="UTF-8" standalone="no"?>
<svg
   width="45"
   height="380"
   viewBox="0 0 45 380"
   version="1.1"
   id="svg100"
   sodipodi:docname="CloneMerge_Ivory.svg"
   inkscape:version="1.1.1 (3bf5ae0d25, 2021-09-20)"
   xmlns:inkscape="http://www.inkscape.org/namespaces/inkscape"
   xmlns:sodipodi="http://sodipodi.sourceforge.net/DTD/sodipodi-0.dtd"
   xmlns="http://www.w3.org/2000/svg"
   xmlns:svg="http://www.w3.org/2000/svg"
   xmlns:rdf="http://www.w3.org/1999/02/22-rdf-syntax-ns#"
   xmlns:cc="http://creativecommons.org/ns#"
   xmlns:dc="http://purl.org/dc/elements/1.1/">
  <metadata
     id="metadata104">
    <rdf:RDF>
      <cc:Work
         rdf:about="">
        <dc:format>image/svg+xml</dc:format>
        <dc:type
           rdf:resource="http://purl.org/dc/dcmitype/StillImage" />
      </cc:Work>
    </rdf:RDF>
  </metadata>
  <sodipodi:namedview
     pagecolor="#ffffff"
     bordercolor="#666666"
     borderopacity="1"
     objecttolerance="1"
     gridtolerance="1"
     guidetolerance="1"
     inkscape:pageopacity="0"
     inkscape:pageshadow="2"
     inkscape:window-width="1920"
     inkscape:window-height="1057"
     id="namedview102"
     showgrid="false"
     inkscape:zoom="2.2342105"
     inkscape:cx="22.37927"
     inkscape:cy="190"
     inkscape:window-x="1592"
     inkscape:window-y="-8"
     inkscape:window-maximized="1"
     inkscape:current-layer="layer6"
     inkscape:pagecheckerboard="0">
    <inkscape:grid
       type="xygrid"
       id="grid1285" />
  </sodipodi:namedview>
  <defs
     id="defs7">
    <linearGradient
       id="a8e142bb-541b-4903-be63-d5d069028a5d"
       x1="22.5"
       x2="22.5"
       y2="380"
       gradientUnits="userSpaceOnUse">
      <stop
         offset="0"
         stop-color="#ebebeb"
         id="stop2" />
      <stop
         offset="1"
         stop-color="#e1e1e1"
         id="stop4" />
    </linearGradient>
  </defs>
  <g
     inkscape:groupmode="layer"
     id="layer5"
     inkscape:label="Faceplate"
     style="display:inline">
    <g
       id="aea613ef-74be-49bf-be45-c0734aee674b"
       data-name="FND BG"
       style="fill:#ede7dc;fill-opacity:1">
      <rect
         width="45"
         height="380"
         fill="url(#a8e142bb-541b-4903-be63-d5d069028a5d)"
         id="rect9"
         style="fill:#ede7dc;fill-opacity:1"
         x="0"
         y="0" />
    </g>
  </g>
  <g
     inkscape:groupmode="layer"
     id="layer8"
     inkscape:label="Brand"
     style="display:inline">
    <g
       id="g42796"
       transform="matrix(0.30458296,0,0,0.30458296,-0.33695794,-12.68508)"
       style="fill:#ff0000">
      <g
         aria-label="enom"
         id="text4270-27"
         style="font-size:49.3889px;line-height:1.25;font-family:'NECK ROMANCER';-inkscape-font-specification:'NECK ROMANCER, Normal';font-variant-ligatures:none;text-align:center;text-anchor:middle;fill:#ff0000;stroke-width:2.64583">
        <path
           d="m 46.609141,1249.244 q 0,1.1576 0,3.4245 3.183269,0 9.453344,0 -1.639866,0.5787 -2.990343,1.2058 -1.350478,0.627 -2.363337,1.688 -1.350477,0 -4.051433,0 0,1.4952 0.434082,2.5563 0.385851,1.1093 1.832792,1.1093 2.266873,0 6.80062,0 0.482313,-0.1447 0.868164,-0.627 0.337619,-0.5305 0.627007,-1.7363 0,2.0257 0,6.1254 -3.520888,0 -10.562665,0 -1.543403,0 -2.652724,-2.2187 -1.109321,-2.1704 -1.109321,-6.3183 0,-1.9775 0,-5.836 -0.385851,-1.3504 -1.881023,-2.1221 -1.495171,-0.7235 -3.569119,-1.2058 6.607694,0 19.774852,0 0,2.9421 0,8.7781 -1.205783,-2.701 -2.218642,-3.6656 -1.012858,-0.9646 -2.700955,-1.1093 -0.916396,-0.097 -2.170411,-0.097 -1.205783,0.048 -2.845649,0.048 -0.241157,0 -0.675239,0 z"
           id="path42762"
           style="fill:#ff0000" />
        <path
           d="m 81.576869,1245.2891 q 0,5.8842 0,17.7009 0,3.0868 -0.144694,6.0771 -0.09646,3.0386 -0.337619,5.9325 -0.385851,-3.7138 -0.964627,-6.9936 -0.530545,-3.3279 -2.025717,-5.016 0,-2.9904 0,-8.9228 -0.241157,-1.3505 -0.72347,-2.2187 -0.482314,-0.8681 -1.06109,-1.3987 -1.109321,-1.0128 -2.411567,-1.1093 -1.350478,-0.097 -2.266874,-0.097 -0.482313,0 -1.44694,0 0,4.582 0,13.746 0,3.0868 -0.09646,6.0771 -0.144694,3.0386 -0.385851,5.9325 -0.38585,-3.7138 -0.916395,-6.9936 -0.578776,-3.3279 -2.025717,-5.016 0,-4.8232 0,-14.373 -0.385851,-1.3504 -1.881022,-2.1221 -1.495172,-0.7235 -3.56912,-1.2058 6.752389,0 20.257166,0 z"
           id="path42764"
           style="fill:#ff0000" />
        <path
           d="m 104.19737,1249.0511 q 0,3.3762 0,10.1768 0,1.5434 -1.92925,2.6528 -1.92926,1.1093 -6.077152,1.1093 -4.196128,0 -6.125382,-1.1093 -1.929254,-1.1094 -1.929254,-2.6528 0,-3.3762 0,-10.1768 0,-1.5434 1.929254,-2.6527 1.929254,-1.1093 6.125382,-1.1093 4.147892,0 6.077152,1.1093 1.92925,1.1093 1.92925,2.6527 z m -3.76204,7.91 q 0,-1.8811 0,-5.6431 0,-1.6881 -1.254019,-1.9775 -1.205783,-0.2894 -2.990343,-0.2894 -1.832792,0 -3.038575,0.2894 -1.254015,0.2894 -1.254015,1.9775 0,1.881 0,5.6431 0,1.6881 1.254015,1.9774 1.205783,0.2894 3.038575,0.2894 1.78456,0 2.990343,-0.2894 1.254019,-0.2893 1.254019,-1.9774 z"
           id="path42766"
           style="fill:#ff0000" />
        <path
           d="m 142.34837,1245.2891 q -2.02572,0.4823 -3.52089,1.2058 -1.5434,0.7717 -1.88102,2.1221 0,4.7749 0,14.373 -1.49517,1.6881 -2.02572,5.016 -0.57878,3.2798 -0.96463,6.9936 -0.24115,-2.8939 -0.33762,-5.9325 -0.14469,-2.9903 -0.14469,-6.0771 0,-4.582 0,-13.746 -0.48231,0 -1.39871,0 -0.53054,0 -1.15755,0 -0.62701,0 -1.30225,0.1447 -1.25401,0.2412 -2.41157,1.2058 -1.15755,0.9646 -1.63986,3.4727 0,2.9903 0,8.9228 -0.1447,0.627 -0.28939,1.1093 -0.0965,0.4823 -0.19292,0.8199 -0.53055,1.9775 -0.38586,1.3505 0.19293,-0.627 -0.28938,1.1576 -0.0965,0.3376 -0.24116,0.8681 -0.14469,0.5306 -0.33762,1.3023 -0.14469,-0.6753 -0.28939,-1.2058 -0.14469,-0.4823 -0.24115,-0.8199 -0.53055,-2.0258 -0.33762,-1.3023 0.19292,0.7717 -0.43409,-1.6881 -0.0482,-0.2894 -0.19292,-0.7235 -0.0965,-0.3858 -0.19293,-0.8681 0,-2.9904 0,-8.9228 -0.28939,-1.3505 -0.7717,-2.2187 -0.48231,-0.8681 -1.06109,-1.3987 -1.10932,-1.0128 -2.41157,-1.1093 -1.30224,-0.097 -2.26687,-0.097 -0.48231,0 -1.39871,0 0,4.582 0,13.746 0,3.0868 -0.14469,6.0771 -0.0965,3.0386 -0.33762,5.9325 -0.38585,-3.7138 -0.96463,-6.9936 -0.53054,-3.3279 -2.02572,-5.016 0,-4.8232 0,-14.373 -0.38585,-1.3504 -1.88102,-2.1221 -1.49517,-0.7235 -3.56912,-1.2058 3.95497,0 11.76845,0 1.15755,0.3858 3.47266,1.1575 0.7717,0.2894 1.59163,0.4341 0.81994,0.1447 1.6881,0.1447 0.86816,0 1.73633,-0.1447 0.81993,-0.1447 1.59163,-0.4341 1.15756,-0.3858 3.42443,-1.1575 3.95497,0 11.76845,0 z"
           id="path42768"
           style="fill:#ff0000" />
      </g>
      <g
         aria-label="V"
         transform="matrix(1.2363173,0,0,0.80885384,-497.88086,123.48586)"
         id="text4270-3-5-2"
         style="font-size:78.5061px;line-height:1.25;font-family:Nosferotica;-inkscape-font-specification:'Nosferotica, Normal';font-variant-ligatures:none;text-align:center;text-anchor:middle;fill:#ff0000;stroke-width:3.27108">
        <path
           d="m 431.64994,1360.6864 8.57428,-0.1022 c 0,0 -4.4079,1.0878 -5.59925,3.7285 -1.88083,4.1689 -3.64217,14.6628 -3.64217,14.6628 l -2.23339,11.5191 -1.83311,11.8311 -1.71824,21.3112 -1.69514,-21.3112 -1.92196,-11.5208 -2.5009,-11.8294 c 0,0 -1.52027,-10.287 -3.38278,-14.4832 -1.14458,-2.5787 -5.63367,-3.8059 -5.63367,-3.8059 h 8.4657 l 6.66875,29.1569 z"
           id="path30410"
           sodipodi:nodetypes="ccscccccccscccc"
           style="fill:#ff0000" />
      </g>
    </g>
  </g>
  <g
     inkscape:groupmode="layer"
     id="layer6"
     inkscape:label="Solid">
    <g
       id="g29969"
       transform="translate(122.7612,90.9619)"
       style="display:inline">
      <g
         aria-label="G"
         id="text20640"
         style="font-weight:bold;font-size:5.33333px;line-height:1.25;font-family:Arial;-inkscape-font-specification:'Arial, Bold';font-variant-ligatures:none;text-align:center;text-anchor:middle;fill:#252525">
        <path
           d="m -116.72995,204.03805 v -0.64323 h 1.66146 v 1.52083 q -0.24219,0.23438 -0.70313,0.41407 -0.45833,0.17708 -0.92968,0.17708 -0.59896,0 -1.04427,-0.25 -0.44532,-0.2526 -0.66927,-0.71875 -0.22396,-0.46875 -0.22396,-1.01823 0,-0.59635 0.25,-1.05989 0.25,-0.46354 0.73177,-0.71094 0.36718,-0.1901 0.91406,-0.1901 0.71094,0 1.10937,0.29947 0.40104,0.29688 0.51563,0.82292 l -0.76563,0.14323 q -0.0807,-0.28125 -0.30468,-0.44271 -0.22136,-0.16406 -0.55469,-0.16406 -0.50521,0 -0.80469,0.32031 -0.29687,0.32031 -0.29687,0.95052 0,0.67969 0.30208,1.02084 0.30208,0.33854 0.79167,0.33854 0.24218,0 0.48437,-0.0937 0.24479,-0.0964 0.41927,-0.23177 v -0.48438 z"
           id="path29936" />
      </g>
      <g
         aria-label="R"
         id="text20640-7"
         style="font-weight:bold;font-size:5.33333px;line-height:1.25;font-family:Arial;-inkscape-font-specification:'Arial, Bold';font-variant-ligatures:none;text-align:center;text-anchor:middle;display:inline;fill:#252525">
        <path
           d="m -118.31589,210.12126 v -3.8177 h 1.6224 q 0.61198,0 0.88802,0.10416 0.27864,0.10156 0.44531,0.36459 0.16667,0.26302 0.16667,0.60156 0,0.42968 -0.25261,0.71093 -0.2526,0.27865 -0.7552,0.35157 0.25,0.14583 0.41145,0.32031 0.16407,0.17448 0.44011,0.61979 l 0.46614,0.74479 h -0.92187 l -0.55729,-0.83073 q -0.29688,-0.44531 -0.40625,-0.55989 -0.10938,-0.11719 -0.23177,-0.15886 -0.1224,-0.0443 -0.38802,-0.0443 h -0.15625 v 1.59375 z m 0.77084,-2.20312 h 0.57031 q 0.55469,0 0.69271,-0.0469 0.13802,-0.0469 0.21614,-0.16146 0.0781,-0.11458 0.0781,-0.28645 0,-0.19271 -0.10417,-0.3099 -0.10156,-0.11979 -0.28906,-0.15104 -0.0937,-0.013 -0.5625,-0.013 h -0.60156 z"
           id="path29939" />
      </g>
      <g
         aria-label="P"
         id="text20640-2"
         style="font-weight:bold;font-size:5.33333px;line-height:1.25;font-family:Arial;-inkscape-font-specification:'Arial, Bold';font-variant-ligatures:none;text-align:center;text-anchor:middle;display:inline;fill:#252525">
        <path
           d="m -118.31589,214.7357 v -3.8177 h 1.23698 q 0.70313,0 0.91667,0.0573 0.32812,0.0859 0.54948,0.375 0.22135,0.28646 0.22135,0.74218 0,0.35157 -0.1276,0.59115 -0.12761,0.23958 -0.32552,0.3776 -0.19532,0.13542 -0.39844,0.17969 -0.27604,0.0547 -0.79948,0.0547 h -0.5026 v 1.4401 z m 0.77084,-3.17187 v 1.08333 h 0.42187 q 0.45573,0 0.60938,-0.0599 0.15364,-0.0599 0.23958,-0.1875 0.0885,-0.12761 0.0885,-0.29688 0,-0.20833 -0.1224,-0.34375 -0.12239,-0.13541 -0.30989,-0.16927 -0.13802,-0.026 -0.55469,-0.026 z"
           id="path29942" />
      </g>
    </g>
    <rect
       x="8.2242203"
       y="315.96207"
       width="28.55155"
       height="39.15691"
       rx="2.83465"
       fill="#1f1f1f"
       id="rect56"
       style="fill:#252525;fill-opacity:1" />
    <g
       aria-label="CLONE MERGE"
       id="text20034"
       style="font-weight:bold;font-size:10.6667px;line-height:1.05;font-family:Arial;-inkscape-font-specification:'Arial, Bold';font-variant-ligatures:none;text-align:center;text-anchor:middle;fill:#252525;fill-opacity:1"
       transform="translate(0.61187767,3.31362)">
      <path
         d="m 9.3358494,9.6715126 1.4947966,0.4739594 q -0.343751,1.250004 -1.1458372,1.859381 -0.7968775,0.604169 -2.0260481,0.604169 -1.5208381,0 -2.5000079,-1.036462 -0.9791697,-1.04167 -0.9791697,-2.8437587 0,-1.906256 0.9843781,-2.9583427 0.9843781,-1.057295 2.5885498,-1.057295 1.4010461,0 2.276049,0.8281277 0.520835,0.4895848 0.781252,1.4062544 L 9.2837659,7.3121302 Q 9.1483488,6.7183783 8.7160557,6.3746272 8.2889711,6.0308761 7.6743858,6.0308761 q -0.848961,0 -1.3802127,0.609377 -0.5260433,0.6093769 -0.5260433,1.9739645 0,1.4479214 0.5208349,2.0625064 0.520835,0.614585 1.354171,0.614585 0.6145853,0 1.057295,-0.390626 0.4427097,-0.390626 0.6354187,-1.2291704 z"
         id="path27598"
         style="fill:#252525;fill-opacity:1" />
      <path
         d="M 12.195233,12.478813 V 4.9058726 h 1.541672 v 6.2864784 h 3.833345 v 1.286462 z"
         id="path27600"
         style="fill:#252525;fill-opacity:1" />
      <path
         d="m 18.356711,8.7079679 q 0,-1.1666703 0.34896,-1.9583395 0.260417,-0.5833352 0.708335,-1.0468783 0.453127,-0.4635431 0.989587,-0.6875022 0.713543,-0.3020843 1.645838,-0.3020843 1.687505,0 2.697925,1.0468783 1.015629,1.0468784 1.015629,2.9114676 0,1.8489645 -1.005212,2.8958425 -1.005212,1.04167 -2.687508,1.04167 -1.703131,0 -2.708342,-1.036462 -1.005212,-1.04167 -1.005212,-2.8645921 z m 1.588547,-0.052084 q 0,1.2968791 0.59896,1.9687571 0.59896,0.666668 1.520838,0.666668 0.921878,0 1.510422,-0.66146 0.593751,-0.6666693 0.593751,-1.9947985 0,-1.3125041 -0.578126,-1.9583395 -0.572919,-0.6458354 -1.526047,-0.6458354 -0.953128,0 -1.536463,0.6562521 -0.583335,0.6510437 -0.583335,1.9687562 z"
         id="path27602"
         style="fill:#252525;fill-opacity:1" />
      <path
         d="M 26.981738,12.478813 V 4.8433724 h 1.500005 l 3.125009,5.0989744 V 4.8433724 h 1.432297 v 7.6354406 h -1.54688 L 28.414034,7.4996308 v 4.9791822 z"
         id="path27604"
         style="fill:#252525;fill-opacity:1" />
      <path
         d="M 34.669263,12.478813 V 4.8433724 h 5.661476 v 1.2916707 h -4.119805 v 1.6927137 h 3.833346 v 1.2864624 h -3.833346 v 2.0781318 h 4.265639 v 1.286462 z"
         id="path27606"
         style="fill:#252525;fill-opacity:1" />
      <path
         d="M 3.5389561,23.678848 V 16.043407 H 5.846255 l 1.3854211,5.20835 1.3697959,-5.20835 h 2.312507 v 7.635441 H 9.4816832 V 17.668412 L 7.9660534,23.678848 H 6.4816737 L 4.9712522,17.668412 v 6.010436 z"
         id="path27608"
         style="fill:#252525;fill-opacity:1" />
      <path
         d="m 12.445234,23.678848 v -7.635441 h 5.661476 v 1.291671 h -4.119804 v 1.692714 h 3.833345 v 1.286462 h -3.833345 v 2.078132 h 4.265638 v 1.286462 z"
         id="path27610"
         style="fill:#252525;fill-opacity:1" />
      <path
         d="m 19.565047,23.678848 v -7.635441 h 3.244802 q 1.223963,0 1.776048,0.208334 0.557293,0.203126 0.890627,0.729169 0.333335,0.526044 0.333335,1.203129 0,0.859378 -0.50521,1.42188 -0.50521,0.557293 -1.510422,0.703127 0.500002,0.291667 0.82292,0.640627 0.328126,0.348959 0.880211,1.239587 l 0.932294,1.489588 H 24.585897 L 23.47131,22.017384 Q 22.877558,21.126757 22.658807,20.897589 22.440056,20.663214 22.195264,20.57988 21.950472,20.49134 21.41922,20.49134 h -0.312501 v 3.18751 z m 1.541672,-4.406264 h 1.140629 q 1.109378,0 1.385421,-0.09375 0.276042,-0.09375 0.432293,-0.322918 0.15625,-0.229167 0.15625,-0.572918 0,-0.385418 -0.208334,-0.619794 -0.203126,-0.239584 -0.578127,-0.302084 -0.1875,-0.02604 -1.125003,-0.02604 h -1.203129 z"
         id="path27612"
         style="fill:#252525;fill-opacity:1" />
      <path
         d="m 30.815083,20.871548 v -1.286463 h 3.322928 v 3.041676 q -0.484377,0.468752 -1.406255,0.828128 -0.916669,0.354168 -1.859381,0.354168 -1.19792,0 -2.088548,-0.500002 -0.890628,-0.50521 -1.338546,-1.437504 -0.447918,-0.937503 -0.447918,-2.036465 0,-1.192712 0.500002,-2.119798 0.500001,-0.927087 1.463546,-1.42188 0.734377,-0.380209 1.828131,-0.380209 1.421879,0 2.218757,0.59896 0.802086,0.593752 1.031253,1.645838 l -1.531255,0.28646 q -0.161459,-0.562502 -0.609377,-0.88542 -0.44271,-0.328126 -1.109378,-0.328126 -1.01042,0 -1.60938,0.640627 -0.593752,0.640627 -0.593752,1.901048 0,1.359379 0.604168,2.041673 0.604169,0.677085 1.583339,0.677085 0.484376,0 0.968753,-0.1875 0.489585,-0.192709 0.838544,-0.463543 v -0.968753 z"
         id="path27614"
         style="fill:#252525;fill-opacity:1" />
      <path
         d="m 35.559889,23.678848 v -7.635441 h 5.661476 v 1.291671 H 37.10156 v 1.692714 h 3.833346 v 1.286462 H 37.10156 v 2.078132 h 4.265639 v 1.286462 z"
         id="path27616"
         style="fill:#252525;fill-opacity:1" />
    </g>
    <g
       aria-label="CLONE"
       id="text4254"
       style="font-weight:bold;font-size:8px;line-height:1.25;font-family:Arial;-inkscape-font-specification:'Arial, Bold';font-variant-ligatures:none;text-align:center;text-anchor:middle;fill:#252525;fill-opacity:1"
       transform="translate(0.42696067,0.898705)">
      <path
         d="m 12.687832,36.753639 1.121094,0.355469 q -0.257813,0.9375 -0.859375,1.394531 -0.597657,0.453125 -1.519532,0.453125 -1.140625,0 -1.8749996,-0.777344 -0.734375,-0.78125 -0.734375,-2.132812 0,-1.429688 0.7382812,-2.21875 0.7382814,-0.792969 1.9414064,-0.792969 1.050781,0 1.707031,0.621094 0.390625,0.367187 0.585938,1.054687 l -1.144532,0.273438 q -0.101562,-0.445313 -0.425781,-0.703125 -0.320312,-0.257813 -0.78125,-0.257813 -0.636719,0 -1.035156,0.457032 -0.394531,0.457031 -0.394531,1.480468 0,1.085938 0.390625,1.546875 0.390625,0.460938 1.015625,0.460938 0.460937,0 0.792968,-0.292969 0.332032,-0.292969 0.476563,-0.921875 z"
         id="path13729"
         style="fill:#252525;fill-opacity:1" />
      <path
         d="M 14.832363,38.859108 V 33.17942 h 1.15625 v 4.714844 h 2.875 v 0.964844 z"
         id="path13731"
         style="fill:#252525;fill-opacity:1" />
      <path
         d="m 19.453457,36.030983 q 0,-0.875 0.261719,-1.46875 0.195312,-0.4375 0.53125,-0.785156 0.339843,-0.347657 0.742187,-0.515625 0.535156,-0.226563 1.234375,-0.226563 1.265625,0 2.023438,0.785156 0.761718,0.785157 0.761718,2.183594 0,1.386719 -0.753906,2.171875 -0.753906,0.78125 -2.015625,0.78125 -1.277344,0 -2.03125,-0.777344 -0.753906,-0.78125 -0.753906,-2.148437 z m 1.191406,-0.03906 q 0,0.972657 0.449219,1.476563 0.449219,0.5 1.140625,0.5 0.691406,0 1.132812,-0.496094 0.445313,-0.5 0.445313,-1.496094 0,-0.984375 -0.433594,-1.46875 -0.429687,-0.484375 -1.144531,-0.484375 -0.714844,0 -1.152344,0.492188 -0.4375,0.488281 -0.4375,1.476562 z"
         id="path13733"
         style="fill:#252525;fill-opacity:1" />
      <path
         d="m 25.922207,38.859108 v -5.726563 h 1.125 l 2.34375,3.824219 v -3.824219 h 1.074219 v 5.726563 h -1.160157 l -2.308593,-3.734375 v 3.734375 z"
         id="path13735"
         style="fill:#252525;fill-opacity:1" />
      <path
         d="m 31.687832,38.859108 v -5.726563 h 4.246094 v 0.96875 h -3.089844 v 1.269532 h 2.875 v 0.964843 h -2.875 v 1.558594 h 3.199219 v 0.964844 z"
         id="path13737"
         style="fill:#252525;fill-opacity:1" />
    </g>
    <g
       aria-label="MONO"
       id="text4254-8"
       style="font-weight:bold;font-size:8px;line-height:1.25;font-family:Arial;-inkscape-font-specification:'Arial, Bold';font-variant-ligatures:none;text-align:center;text-anchor:middle;fill:#252525;fill-opacity:1"
       transform="translate(0,8)">
      <path
         d="m 10.761728,69.049698 v -5.726563 h 1.730469 l 1.039063,3.90625 1.027343,-3.90625 h 1.734375 v 5.726563 H 15.21876 v -4.507813 l -1.136719,4.507813 H 12.96876 l -1.132813,-4.507813 v 4.507813 z"
         id="path13720"
         style="fill:#252525;fill-opacity:1" />
      <path
         d="m 17.207041,66.221573 q 0,-0.875 0.261719,-1.46875 0.195312,-0.4375 0.53125,-0.785156 0.339843,-0.347657 0.742187,-0.515625 0.535156,-0.226563 1.234375,-0.226563 1.265625,0 2.023438,0.785156 0.761718,0.785157 0.761718,2.183594 0,1.386719 -0.753906,2.171875 -0.753906,0.78125 -2.015625,0.78125 -1.277344,0 -2.03125,-0.777344 -0.753906,-0.78125 -0.753906,-2.148437 z m 1.191406,-0.03906 q 0,0.972657 0.449219,1.476563 0.449219,0.5 1.140625,0.5 0.691406,0 1.132812,-0.496094 0.445313,-0.5 0.445313,-1.496094 0,-0.984375 -0.433594,-1.46875 -0.429687,-0.484375 -1.144531,-0.484375 -0.714844,0 -1.152344,0.492188 -0.4375,0.488281 -0.4375,1.476562 z"
         id="path13722"
         style="fill:#252525;fill-opacity:1" />
      <path
         d="m 23.675791,69.049698 v -5.726563 h 1.125 l 2.34375,3.824219 v -3.824219 h 1.074219 v 5.726563 H 27.058603 L 24.75001,65.315323 v 3.734375 z"
         id="path13724"
         style="fill:#252525;fill-opacity:1" />
      <path
         d="m 29.207041,66.221573 q 0,-0.875 0.261719,-1.46875 0.195312,-0.4375 0.53125,-0.785156 0.339843,-0.347657 0.742187,-0.515625 0.535156,-0.226563 1.234375,-0.226563 1.265625,0 2.023438,0.785156 0.761718,0.785157 0.761718,2.183594 0,1.386719 -0.753906,2.171875 -0.753906,0.78125 -2.015625,0.78125 -1.277344,0 -2.03125,-0.777344 -0.753906,-0.78125 -0.753906,-2.148437 z m 1.191406,-0.03906 q 0,0.972657 0.449219,1.476563 0.449219,0.5 1.140625,0.5 0.691406,0 1.132812,-0.496094 0.445313,-0.5 0.445313,-1.496094 0,-0.984375 -0.433594,-1.46875 -0.429687,-0.484375 -1.144531,-0.484375 -0.714844,0 -1.152344,0.492188 -0.4375,0.488281 -0.4375,1.476562 z"
         id="path13726"
         style="fill:#252525;fill-opacity:1" />
    </g>
  </g>
  <g
     inkscape:groupmode="layer"
     id="layer7"
     inkscape:label="Reverse"
     style="display:inline">
    <g
       aria-label="POLY"
       id="text12393"
       style="font-weight:bold;font-size:8px;line-height:1.25;font-family:Arial;-inkscape-font-specification:'Arial, Bold';font-variant-ligatures:none;text-align:center;text-anchor:middle;fill:#ede7dc;fill-opacity:1"
       transform="translate(0.031847,6.31461)">
      <path
         d="m 12.600965,319.68539 v -5.72656 h 1.855469 q 1.054688,0 1.375,0.0859 0.492188,0.12891 0.824219,0.5625 0.332031,0.42969 0.332031,1.11328 0,0.52734 -0.191406,0.88672 -0.191406,0.35937 -0.488281,0.56641 -0.292969,0.20312 -0.597657,0.26953 -0.414062,0.082 -1.199218,0.082 h -0.753907 v 2.16015 z m 1.15625,-4.75781 v 1.625 h 0.632813 q 0.683594,0 0.914062,-0.0898 0.230469,-0.0899 0.359375,-0.28125 0.132813,-0.19141 0.132813,-0.44531 0,-0.3125 -0.183594,-0.51563 -0.183594,-0.20312 -0.464844,-0.25391 -0.207031,-0.0391 -0.832031,-0.0391 z"
         id="path14271"
         style="fill:#ede7dc;fill-opacity:1" />
      <path
         d="m 17.702528,316.85727 q 0,-0.875 0.261719,-1.46875 0.195312,-0.4375 0.53125,-0.78516 0.339843,-0.34765 0.742187,-0.51562 0.535156,-0.22656 1.234375,-0.22656 1.265625,0 2.023438,0.78515 0.761718,0.78516 0.761718,2.1836 0,1.38671 -0.753906,2.17187 -0.753906,0.78125 -2.015625,0.78125 -1.277344,0 -2.03125,-0.77734 -0.753906,-0.78125 -0.753906,-2.14844 z m 1.191406,-0.0391 q 0,0.97265 0.449219,1.47656 0.449219,0.5 1.140625,0.5 0.691406,0 1.132812,-0.49609 0.445313,-0.5 0.445313,-1.4961 0,-0.98437 -0.433594,-1.46875 -0.429687,-0.48437 -1.144531,-0.48437 -0.714844,0 -1.152344,0.49218 -0.4375,0.48829 -0.4375,1.47657 z"
         id="path14273"
         style="fill:#ede7dc;fill-opacity:1" />
      <path
         d="m 24.190809,319.68539 v -5.67968 h 1.15625 v 4.71484 h 2.875 v 0.96484 z"
         id="path14275"
         style="fill:#ede7dc;fill-opacity:1" />
      <path
         d="m 29.815809,319.68539 v -2.41015 l -2.097656,-3.31641 h 1.355469 l 1.347656,2.26563 1.320312,-2.26563 h 1.332032 l -2.105469,3.32422 v 2.40234 z"
         id="path14277"
         style="fill:#ede7dc;fill-opacity:1" />
    </g>
  </g>
  <g
     id="f45e0130-37b7-4f8b-95b3-6408baa23eb1"
     data-name="components"
     style="display:none"
     inkscape:groupmode="layer"
     inkscape:label="Widgets">
    <circle
       id="a1c23d66-c252-4515-96a1-917337e8bedb"
       data-name="In1#PJ301MPort"
       cx="22.5"
       cy="226"
       r="5"
       style="fill:#00ff00" />
    <circle
       id="a63e68d2-1ca8-4e05-b0d1-8b6f332b0e37"
       data-name="Lev1#RoundBlackKnob"
       cx="22.5"
       cy="72.999901"
       r="5"
       style="fill:#ff0000" />
    <circle
       id="a36d22f7-2d0f-442d-90d7-0667ecca8733"
       data-name="Lev2#RoundBlackKnob"
       cx="22.5"
       cy="122.02957"
       r="5"
       style="fill:#ff0000" />
    <circle
       id="b2ee54e9-17bb-44a2-8fa9-f1f5dfd502d3"
       data-name="Lev3#RoundBlackKnob"
       cx="22.5"
       cy="171.02957"
       r="5"
       style="fill:#ff0000" />
    <circle
       id="a2b06e69-ffb0-4881-82df-d087f66de86e"
       data-name="In2#PJ301MPort"
       cx="22.5"
       cy="256"
       r="5"
       style="fill:#00ff00" />
    <circle
       id="b27f5a6d-d286-4c64-8b15-5bc216721daf"
       data-name="In3#PJ301MPort"
       cx="22.5"
       cy="286"
       r="5"
       style="fill:#00ff00" />
    <circle
       id="b27f5a6d-d286-4c64-8b15-5bc216721daf-2"
       data-name="In3#PJ301MPort"
       cx="6"
       cy="311.5"
       r="5"
       style="display:inline;fill:#00ff00" />
    <circle
       id="be215e83-67fa-4d0f-a299-89c18bd912d3"
       data-name="Mix#PJ301MPort"
       cx="22.5"
       cy="334"
       r="5"
       style="fill:#0000ff"
       inkscape:label="be215e83-67fa-4d0f-a299-89c18bd912d3" />
  </g>
</svg>
