<?xml version="1.0" encoding="UTF-8" standalone="no"?>
<!-- Created with Inkscape (http://www.inkscape.org/) -->

<svg
   width="15.24mm"
   height="128.5mm"
   viewBox="0 0 152.4 1285"
   version="1.1"
   id="svg5"
   inkscape:version="1.1.1 (3bf5ae0d25, 2021-09-20)"
   sodipodi:docname="HQ_Ivory.svg"
   xmlns:inkscape="http://www.inkscape.org/namespaces/inkscape"
   xmlns:sodipodi="http://sodipodi.sourceforge.net/DTD/sodipodi-0.dtd"
   xmlns="http://www.w3.org/2000/svg"
   xmlns:svg="http://www.w3.org/2000/svg">
  <sodipodi:namedview
     id="namedview7"
     pagecolor="#ffffff"
     bordercolor="#666666"
     borderopacity="1.0"
     inkscape:pageshadow="2"
     inkscape:pageopacity="0.0"
     inkscape:pagecheckerboard="0"
     inkscape:document-units="mm"
     showgrid="true"
     scale-x="10"
     inkscape:showpageshadow="false"
     viewbox-x="0"
     showguides="true"
     objecttolerance="1"
     gridtolerance="1"
     guidetolerance="1"
     inkscape:zoom="2.8284271"
     inkscape:cx="31.996582"
     inkscape:cy="247.3106"
     inkscape:window-width="1600"
     inkscape:window-height="837"
     inkscape:window-x="-8"
     inkscape:window-y="-8"
     inkscape:window-maximized="1"
     inkscape:current-layer="layer1">
    <inkscape:grid
       type="xygrid"
       id="grid832"
       units="mm"
       spacingx="5.0000001"
       spacingy="5.0000001"
       originx="1.2"
       empspacing="5" />
    <sodipodi:guide
       position="0,1285"
       orientation="0,57.599999"
       id="guide880" />
    <sodipodi:guide
       position="152.4,1285"
       orientation="485.66929,0"
       id="guide882" />
    <sodipodi:guide
       position="152.4,0"
       orientation="0,-57.599999"
       id="guide884" />
    <sodipodi:guide
       position="0,0"
       orientation="-485.66929,0"
       id="guide886" />
  </sodipodi:namedview>
  <defs
     id="defs2" />
  <g
     inkscape:label="Layer 1"
     inkscape:groupmode="layer"
     id="layer1">
    <rect
       style="vector-effect:non-scaling-stroke;fill:#ede7dc;fill-opacity:1;stroke-width:0.186761;-inkscape-stroke:hairline"
       id="rect910"
       width="152.39999"
       height="1285"
       x="0"
       y="3.0689771e-05" />
    <rect
       style="vector-effect:non-scaling-stroke;fill:#252525;fill-opacity:1;stroke-width:0.0257847;-inkscape-stroke:hairline"
       id="rect76101"
       width="119.9874"
       height="150"
       x="16.212614"
       y="1050"
       ry="21.166668" />
    <path
       style="fill:none;stroke:#252525;stroke-width:3.19000007;stroke-linecap:butt;stroke-linejoin:miter;stroke-miterlimit:4;stroke-dasharray:none;stroke-opacity:1"
       d="m 76.200002,590.87501 -10e-7,57.95128"
       id="path83215"
       sodipodi:nodetypes="cc" />
    <g
       aria-label="OUT"
       id="text92761"
       style="font-weight:bold;font-size:28.2223px;font-family:Arial;-inkscape-font-specification:'Arial, Bold';fill:#ede7dc;fill-opacity:1;stroke-width:2.64583">
      <path
         d="m 47.197813,1069.8537 q 0,-3.0868 0.923288,-5.1815 0.689021,-1.5434 1.874137,-2.7698 1.198897,-1.2265 2.61828,-1.8191 1.887917,-0.7992 4.354612,-0.7992 4.464856,0 7.138258,2.7698 2.687182,2.7699 2.687182,7.7033 0,4.8921 -2.659621,7.6619 -2.659621,2.7561 -7.110697,2.7561 -4.506197,0 -7.165818,-2.7423 -2.659621,-2.7561 -2.659621,-7.5792 z m 4.203028,-0.1378 q 0,3.4313 1.584748,5.209 1.584748,1.7639 4.023883,1.7639 2.439134,0 3.996321,-1.7502 1.570968,-1.7639 1.570968,-5.2779 0,-3.4726 -1.529626,-5.1814 -1.515847,-1.7088 -4.037663,-1.7088 -2.521817,0 -4.065224,1.7364 -1.543407,1.7225 -1.543407,5.209 z"
         id="path95721"
         style="fill:#ede7dc;fill-opacity:1" />
      <path
         d="m 69.949287,1059.6286 h 4.079004 v 10.9416 q 0,2.6045 0.151584,3.3762 0.261828,1.2403 1.240238,1.9982 0.99219,0.7442 2.700962,0.7442 1.736333,0 2.61828,-0.7028 0.881947,-0.7166 1.061093,-1.7502 0.179145,-1.0335 0.179145,-3.4313 v -11.1759 h 4.079004 v 10.6109 q 0,3.638 -0.33073,5.1401 -0.33073,1.5021 -1.226457,2.5356 -0.881947,1.0335 -2.370232,1.6537 -1.488286,0.6063 -3.886079,0.6063 -2.893888,0 -4.395954,-0.6615 -1.488285,-0.6752 -2.356451,-1.7363 -0.868167,-1.0749 -1.143775,-2.2462 -0.399632,-1.7363 -0.399632,-5.1263 z"
         id="path95723"
         style="fill:#ede7dc;fill-opacity:1" />
      <path
         d="m 94.905627,1079.8307 v -16.7846 h -5.994483 v -3.4175 h 16.054186 v 3.4175 h -5.980699 v 16.7846 z"
         id="path95725"
         style="fill:#ede7dc;fill-opacity:1" />
    </g>
    <g
       id="g12837"
       style="fill:#252525;fill-opacity:1">
      <g
         id="g97380"
         transform="translate(-3.1759675,-6.6855868)"
         style="fill:#252525;fill-opacity:1">
        <g
           id="g20271"
           transform="translate(0,-3.722599)"
           style="fill:#252525;fill-opacity:1">
          <path
             d="M 23.94544,36.049249 H 39.551733 V 53.7226 H 56.604967 V 36.049249 H 72.280162 V 86.554382 H 56.604967 V 66.124952 H 39.551733 v 20.42943 H 23.94544 Z"
             id="path20258"
             style="font-weight:900;font-size:70.5556px;font-family:Arial;-inkscape-font-specification:'Arial, Heavy';fill:#252525;fill-opacity:1;stroke-width:2.64583" />
          <path
             d="m 129.37597,116.59961 q 2.92833,2.03261 3.82406,2.54937 1.34359,0.75792 3.61735,1.757 l -4.34082,8.75055 q -3.27285,-1.58475 -6.47679,-3.78961 -3.20394,-2.17041 -4.47862,-3.27284 -5.16765,2.23931 -12.95357,2.23931 -11.506631,0 -18.155669,-5.99447 -7.854823,-7.0969 -7.854823,-19.947115 0,-12.471254 6.855744,-19.361449 6.890196,-6.924647 19.223648,-6.924647 12.57461,0 19.3959,6.752392 6.85575,6.752391 6.85575,19.326998 0,11.196571 -5.51216,17.914511 z m -11.95449,-7.99263 q 1.86035,-3.34174 1.86035,-9.990783 0,-7.648117 -2.85943,-10.92096 -2.82498,-3.272842 -7.82037,-3.272842 -4.65088,0 -7.54477,3.341744 -2.893879,3.341745 -2.893879,10.438647 0,8.268234 2.824979,11.609974 2.82498,3.34175 7.75147,3.34175 1.58475,0 2.99724,-0.31006 -1.96371,-1.8948 -6.20118,-3.5829 l 2.44602,-5.61551 q 2.06706,0.37896 3.20394,0.93018 1.17134,0.55121 4.51308,2.89388 0.79237,0.55121 1.72255,1.13688 z"
             id="path20260"
             style="font-weight:900;font-size:70.5556px;font-family:Arial;-inkscape-font-specification:'Arial, Heavy';fill:#252525;fill-opacity:1;stroke-width:2.64583" />
        </g>
      </g>
      <g
         aria-label="PARTIAL"
         id="text22013"
         style="font-weight:bold;font-size:28.2222px;font-family:Arial;-inkscape-font-specification:'Arial, Bold';fill:#252525;fill-opacity:1;stroke-width:2.64583"
         transform="translate(0.7255827,56.481523)">
        <path
           d="m 18.189685,314.30899 v -20.20202 h 6.545676 q 3.720701,0 4.850691,0.30316 1.736327,0.45476 2.907658,1.98438 1.171332,1.51584 1.171332,3.9274 0,1.86035 -0.675238,3.12815 -0.675238,1.26779 -1.722547,1.99815 -1.033527,0.71658 -2.108396,0.95085 -1.46072,0.28939 -4.230574,0.28939 h -2.659612 v 7.62054 z m 4.07899,-16.78449 v 5.73263 h 2.23242 q 2.411565,0 3.224607,-0.31695 0.813042,-0.31694 1.267794,-0.99218 0.468533,-0.67524 0.468533,-1.57096 0,-1.10243 -0.647678,-1.81901 -0.647677,-0.71658 -1.639864,-0.89573 -0.73036,-0.1378 -2.935219,-0.1378 z"
           id="path95769"
           style="fill:#252525;fill-opacity:1" />
        <path
           d="m 53.136706,314.30899 h -4.43728 l -1.763887,-4.58886 h -8.075298 l -1.667425,4.58886 H 32.86578 l 7.868592,-20.20202 h 4.313256 z m -7.510302,-7.99261 -2.783635,-7.49653 -2.728514,7.49653 z"
           id="path95771"
           style="fill:#252525;fill-opacity:1" />
        <path
           d="m 55.314004,314.30899 v -20.20202 h 8.585171 q 3.238387,0 4.699107,0.55121 1.4745,0.53744 2.356443,1.92925 0.881944,1.39182 0.881944,3.18327 0,2.27376 -1.336696,3.76204 -1.336696,1.4745 -3.996308,1.86035 1.322916,0.7717 2.177299,1.69499 0.868163,0.92328 2.328883,3.27972 l 2.466686,3.94119 h -4.878251 l -2.949,-4.39594 q -1.570962,-2.35644 -2.149738,-2.96278 -0.578775,-0.62011 -1.226453,-0.8406 -0.647677,-0.23427 -2.053275,-0.23427 h -0.826822 v 8.43359 z m 4.07899,-11.65819 h 3.017901 q 2.935219,0 3.665579,-0.24805 0.73036,-0.24805 1.143771,-0.85438 0.413411,-0.60634 0.413411,-1.51584 0,-1.01975 -0.551215,-1.63987 -0.537434,-0.6339 -1.529621,-0.79926 -0.496094,-0.0689 -2.97656,-0.0689 h -3.183266 z"
           id="path95773"
           style="fill:#252525;fill-opacity:1" />
        <path
           d="M 80.228914,314.30899 V 297.5245 h -5.994461 v -3.41753 h 16.054132 v 3.41753 h -5.980681 v 16.78449 z"
           id="path95775"
           style="fill:#252525;fill-opacity:1" />
        <path
           d="m 92.796611,314.30899 v -20.20202 h 4.07899 v 20.20202 z"
           id="path95777"
           style="fill:#252525;fill-opacity:1" />
        <path
           d="m 118.97932,314.30899 h -4.43728 l -1.76389,-4.58886 h -8.0753 l -1.66742,4.58886 h -4.327037 l 7.868597,-20.20202 h 4.31325 z m -7.5103,-7.99261 -2.78364,-7.49653 -2.72851,7.49653 z"
           id="path95779"
           style="fill:#252525;fill-opacity:1" />
        <path
           d="m 121.25308,314.30899 v -20.03666 h 4.07899 v 16.63291 h 10.14235 v 3.40375 z"
           id="path95781"
           style="fill:#252525;fill-opacity:1" />
      </g>
      <g
         aria-label="CV"
         id="text79639"
         style="font-weight:bold;font-size:28.2222px;font-family:Arial;-inkscape-font-specification:'Arial, Bold';fill:#252525;fill-opacity:1;stroke-width:2.64583"
         transform="translate(-0.5268766,48.78208)">
        <path
           d="m 71.864682,472.46044 3.954966,1.25402 q -0.909504,3.30728 -3.031682,4.91959 -2.108396,1.59852 -5.360564,1.59852 -4.023868,0 -6.614578,-2.74229 -2.59071,-2.75608 -2.59071,-7.52409 0,-5.04361 2.60449,-7.82725 2.60449,-2.79741 6.848845,-2.79741 3.70692,0 6.022022,2.19108 1.378037,1.29535 2.067056,3.7207 l -4.037649,0.96462 q -0.35829,-1.57096 -1.502061,-2.48046 -1.12999,-0.90951 -2.756074,-0.90951 -2.2462,0 -3.651798,1.61231 -1.391818,1.6123 -1.391818,5.22276 0,3.83094 1.378037,5.45702 1.378037,1.62609 3.582897,1.62609 1.626084,0 2.797415,-1.03353 1.171332,-1.03353 1.681206,-3.25217 z"
           id="path95760"
           style="fill:#252525;fill-opacity:1" />
        <path
           d="m 84.47372,479.88806 -7.220914,-20.20202 h 4.423499 l 5.112518,14.9517 4.947153,-14.9517 h 4.327037 l -7.234695,20.20202 z"
           id="path95762"
           style="fill:#252525;fill-opacity:1" />
      </g>
      <g
         aria-label="ROOT"
         id="text85697"
         style="font-weight:bold;font-size:28.2222px;font-family:Arial;-inkscape-font-specification:'Arial, Bold';fill:#252525;fill-opacity:1;stroke-width:2.64583">
        <path
           d="m 36.132161,780.19006 v -20.20202 h 8.585171 q 3.238388,0 4.699107,0.55121 1.4745,0.53744 2.356444,1.92926 0.881943,1.39181 0.881943,3.18326 0,2.27376 -1.336696,3.76204 -1.336696,1.4745 -3.996307,1.86035 1.322915,0.7717 2.177298,1.69499 0.868164,0.92328 2.328883,3.27973 l 2.466686,3.94118 h -4.878251 l -2.948999,-4.39593 q -1.570963,-2.35645 -2.149738,-2.96278 -0.578776,-0.62012 -1.226453,-0.84061 -0.647678,-0.23426 -2.053276,-0.23426 h -0.826822 v 8.43358 z m 4.07899,-11.65819 h 3.017901 q 2.935219,0 3.665579,-0.24805 0.73036,-0.24804 1.143771,-0.85438 0.413411,-0.60634 0.413411,-1.51584 0,-1.01975 -0.551215,-1.63987 -0.537434,-0.63389 -1.529621,-0.79926 -0.496093,-0.0689 -2.97656,-0.0689 h -3.183266 z"
           id="path95743"
           style="fill:#252525;fill-opacity:1" />
        <path
           d="m 55.672727,770.21307 q 0,-3.0868 0.923285,-5.18141 0.689018,-1.54341 1.87413,-2.76986 1.198893,-1.22645 2.618271,-1.81901 1.887911,-0.79926 4.354597,-0.79926 4.46484,0 7.138232,2.76985 2.687173,2.76986 2.687173,7.70323 0,4.89203 -2.659612,7.66189 -2.659611,2.75607 -7.110671,2.75607 -4.506182,0 -7.165793,-2.74229 -2.659612,-2.75608 -2.659612,-7.57921 z m 4.203013,-0.1378 q 0,3.43131 1.584743,5.20898 1.584742,1.76389 4.023868,1.76389 2.439126,0 3.996308,-1.75011 1.570962,-1.76389 1.570962,-5.27788 0,-3.47265 -1.529621,-5.18142 -1.515841,-1.70877 -4.037649,-1.70877 -2.521808,0 -4.065209,1.73633 -1.543402,1.72255 -1.543402,5.20898 z"
           id="path95745"
           style="fill:#252525;fill-opacity:1" />
        <path
           d="m 77.624856,770.21307 q 0,-3.0868 0.923285,-5.18141 0.689019,-1.54341 1.874131,-2.76986 1.198892,-1.22645 2.61827,-1.81901 1.887911,-0.79926 4.354597,-0.79926 4.464841,0 7.138233,2.76985 2.687172,2.76986 2.687172,7.70323 0,4.89203 -2.659611,7.66189 -2.659612,2.75607 -7.110672,2.75607 -4.506181,0 -7.165793,-2.74229 -2.659612,-2.75608 -2.659612,-7.57921 z m 4.203013,-0.1378 q 0,3.43131 1.584743,5.20898 1.584743,1.76389 4.023869,1.76389 2.439125,0 3.996307,-1.75011 1.570963,-1.76389 1.570963,-5.27788 0,-3.47265 -1.529622,-5.18142 -1.51584,-1.70877 -4.037648,-1.70877 -2.521808,0 -4.06521,1.73633 -1.543402,1.72255 -1.543402,5.20898 z"
           id="path95747"
           style="fill:#252525;fill-opacity:1" />
        <path
           d="m 104.95133,780.19006 v -16.78449 h -5.994457 v -3.41753 h 16.054137 v 3.41753 h -5.98069 v 16.78449 z"
           id="path95749"
           style="fill:#252525;fill-opacity:1" />
      </g>
      <g
         aria-label="IN"
         id="text90171"
         style="font-weight:bold;font-size:28.2223px;font-family:Arial;-inkscape-font-specification:'Arial, Bold';fill:#252525;fill-opacity:1;stroke-width:2.64583">
        <path
           d="m 64.437071,930.34119 v -20.2021 h 4.079004 v 20.2021 z"
           id="path95734"
           style="fill:#252525;fill-opacity:1" />
        <path
           d="m 72.443495,930.34119 v -20.2021 h 3.968761 l 8.268252,13.49103 v -13.49103 h 3.789615 v 20.2021 H 84.377339 L 76.23311,917.16711 v 13.17408 z"
           id="path95736"
           style="fill:#252525;fill-opacity:1" />
      </g>
      <g
         aria-label="A"
         id="text100247"
         style="font-size:21.1667px;font-family:Arial;-inkscape-font-specification:'Arial, Normal';fill:#252525;fill-opacity:1;stroke-width:2.64583"
         transform="translate(5.245899,0.4011865)">
        <path
           d="m 31.774067,324.59882 5.818775,-15.15156 h 2.160079 l 6.201181,15.15156 h -2.284101 l -1.767337,-4.58888 h -6.335541 l -1.663984,4.58888 z m 4.371833,-6.22186 h 5.136646 l -1.581302,-4.19613 q -0.723471,-1.91203 -1.074871,-3.14193 -0.289389,1.45728 -0.816489,2.89388 z"
           id="path110965"
           style="fill:#252525;fill-opacity:1" />
      </g>
      <g
         aria-label="O"
         id="text100247-8"
         style="font-size:21.1667px;font-family:Arial;-inkscape-font-specification:'Arial, Normal';fill:#252525;fill-opacity:1;stroke-width:2.64583">
        <path
           d="m 68.799654,316.84395 q 0,-3.77238 2.025719,-5.90146 2.025719,-2.1394 5.229663,-2.1394 2.098067,0 3.782721,1.00252 1.684655,1.00252 2.563155,2.80087 0.888836,1.78801 0.888836,4.06177 0,2.30477 -0.930177,4.12379 -0.930177,1.81901 -2.635502,2.75952 -1.705325,0.93018 -3.679368,0.93018 -2.139408,0 -3.824062,-1.03353 -1.684654,-1.03353 -2.55282,-2.82154 -0.868165,-1.788 -0.868165,-3.78272 z m 2.06706,0.031 q 0,2.73885 1.467613,4.32015 1.477949,1.57097 3.700039,1.57097 2.263431,0 3.720709,-1.59164 1.467613,-1.59163 1.467613,-4.51652 0,-1.85002 -0.630454,-3.22462 -0.620118,-1.38493 -1.829348,-2.13941 -1.198895,-0.76481 -2.697514,-0.76481 -2.129073,0 -3.669033,1.46761 -1.529625,1.45728 -1.529625,4.87827 z"
           id="path110970"
           style="fill:#252525;fill-opacity:1" />
      </g>
      <g
         aria-label="E"
         id="text100247-2"
         style="font-size:21.1667px;font-family:Arial;-inkscape-font-specification:'Arial, Normal';fill:#252525;fill-opacity:1;stroke-width:2.64583"
         transform="translate(-7.892048,0.4011865)">
        <path
           d="m 109.09205,324.59882 v -15.15156 h 10.95542 v 1.78801 h -8.95037 v 4.64055 h 8.38193 v 1.77767 h -8.38193 v 5.15732 h 9.30177 v 1.78801 z"
           id="path110975"
           style="fill:#252525;fill-opacity:1" />
      </g>
    </g>
    <g
       id="g42796"
       transform="matrix(1.0155387,0,0,1.0155387,-1.6196697,-25.072081)"
       style="fill:#ff0000">
      <g
         aria-label="enom"
         id="text4270-27"
         style="font-size:49.3889px;line-height:1.25;font-family:'NECK ROMANCER';-inkscape-font-specification:'NECK ROMANCER, Normal';font-variant-ligatures:none;text-align:center;text-anchor:middle;fill:#ff0000;stroke-width:2.64583">
        <path
           d="m 46.609141,1249.244 q 0,1.1576 0,3.4245 3.183269,0 9.453344,0 -1.639866,0.5787 -2.990343,1.2058 -1.350478,0.627 -2.363337,1.688 -1.350477,0 -4.051433,0 0,1.4952 0.434082,2.5563 0.385851,1.1093 1.832792,1.1093 2.266873,0 6.80062,0 0.482313,-0.1447 0.868164,-0.627 0.337619,-0.5305 0.627007,-1.7363 0,2.0257 0,6.1254 -3.520888,0 -10.562665,0 -1.543403,0 -2.652724,-2.2187 -1.109321,-2.1704 -1.109321,-6.3183 0,-1.9775 0,-5.836 -0.385851,-1.3504 -1.881023,-2.1221 -1.495171,-0.7235 -3.569119,-1.2058 6.607694,0 19.774852,0 0,2.9421 0,8.7781 -1.205783,-2.701 -2.218642,-3.6656 -1.012858,-0.9646 -2.700955,-1.1093 -0.916396,-0.097 -2.170411,-0.097 -1.205783,0.048 -2.845649,0.048 -0.241157,0 -0.675239,0 z"
           id="path42762"
           style="fill:#ff0000" />
        <path
           d="m 81.576869,1245.2891 q 0,5.8842 0,17.7009 0,3.0868 -0.144694,6.0771 -0.09646,3.0386 -0.337619,5.9325 -0.385851,-3.7138 -0.964627,-6.9936 -0.530545,-3.3279 -2.025717,-5.016 0,-2.9904 0,-8.9228 -0.241157,-1.3505 -0.72347,-2.2187 -0.482314,-0.8681 -1.06109,-1.3987 -1.109321,-1.0128 -2.411567,-1.1093 -1.350478,-0.097 -2.266874,-0.097 -0.482313,0 -1.44694,0 0,4.582 0,13.746 0,3.0868 -0.09646,6.0771 -0.144694,3.0386 -0.385851,5.9325 -0.38585,-3.7138 -0.916395,-6.9936 -0.578776,-3.3279 -2.025717,-5.016 0,-4.8232 0,-14.373 -0.385851,-1.3504 -1.881022,-2.1221 -1.495172,-0.7235 -3.56912,-1.2058 6.752389,0 20.257166,0 z"
           id="path42764"
           style="fill:#ff0000" />
        <path
           d="m 104.19737,1249.0511 q 0,3.3762 0,10.1768 0,1.5434 -1.92925,2.6528 -1.92926,1.1093 -6.077152,1.1093 -4.196128,0 -6.125382,-1.1093 -1.929254,-1.1094 -1.929254,-2.6528 0,-3.3762 0,-10.1768 0,-1.5434 1.929254,-2.6527 1.929254,-1.1093 6.125382,-1.1093 4.147892,0 6.077152,1.1093 1.92925,1.1093 1.92925,2.6527 z m -3.76204,7.91 q 0,-1.8811 0,-5.6431 0,-1.6881 -1.254019,-1.9775 -1.205783,-0.2894 -2.990343,-0.2894 -1.832792,0 -3.038575,0.2894 -1.254015,0.2894 -1.254015,1.9775 0,1.881 0,5.6431 0,1.6881 1.254015,1.9774 1.205783,0.2894 3.038575,0.2894 1.78456,0 2.990343,-0.2894 1.254019,-0.2893 1.254019,-1.9774 z"
           id="path42766"
           style="fill:#ff0000" />
        <path
           d="m 142.34837,1245.2891 q -2.02572,0.4823 -3.52089,1.2058 -1.5434,0.7717 -1.88102,2.1221 0,4.7749 0,14.373 -1.49517,1.6881 -2.02572,5.016 -0.57878,3.2798 -0.96463,6.9936 -0.24115,-2.8939 -0.33762,-5.9325 -0.14469,-2.9903 -0.14469,-6.0771 0,-4.582 0,-13.746 -0.48231,0 -1.39871,0 -0.53054,0 -1.15755,0 -0.62701,0 -1.30225,0.1447 -1.25401,0.2412 -2.41157,1.2058 -1.15755,0.9646 -1.63986,3.4727 0,2.9903 0,8.9228 -0.1447,0.627 -0.28939,1.1093 -0.0965,0.4823 -0.19292,0.8199 -0.53055,1.9775 -0.38586,1.3505 0.19293,-0.627 -0.28938,1.1576 -0.0965,0.3376 -0.24116,0.8681 -0.14469,0.5306 -0.33762,1.3023 -0.14469,-0.6753 -0.28939,-1.2058 -0.14469,-0.4823 -0.24115,-0.8199 -0.53055,-2.0258 -0.33762,-1.3023 0.19292,0.7717 -0.43409,-1.6881 -0.0482,-0.2894 -0.19292,-0.7235 -0.0965,-0.3858 -0.19293,-0.8681 0,-2.9904 0,-8.9228 -0.28939,-1.3505 -0.7717,-2.2187 -0.48231,-0.8681 -1.06109,-1.3987 -1.10932,-1.0128 -2.41157,-1.1093 -1.30224,-0.097 -2.26687,-0.097 -0.48231,0 -1.39871,0 0,4.582 0,13.746 0,3.0868 -0.14469,6.0771 -0.0965,3.0386 -0.33762,5.9325 -0.38585,-3.7138 -0.96463,-6.9936 -0.53054,-3.3279 -2.02572,-5.016 0,-4.8232 0,-14.373 -0.38585,-1.3504 -1.88102,-2.1221 -1.49517,-0.7235 -3.56912,-1.2058 3.95497,0 11.76845,0 1.15755,0.3858 3.47266,1.1575 0.7717,0.2894 1.59163,0.4341 0.81994,0.1447 1.6881,0.1447 0.86816,0 1.73633,-0.1447 0.81993,-0.1447 1.59163,-0.4341 1.15756,-0.3858 3.42443,-1.1575 3.95497,0 11.76845,0 z"
           id="path42768"
           style="fill:#ff0000" />
      </g>
      <g
         aria-label="V"
         transform="matrix(1.2363173,0,0,0.80885384,-497.88086,123.48586)"
         id="text4270-3-5-2"
         style="font-size:78.5061px;line-height:1.25;font-family:Nosferotica;-inkscape-font-specification:'Nosferotica, Normal';font-variant-ligatures:none;text-align:center;text-anchor:middle;fill:#ff0000;stroke-width:3.27108">
        <path
           d="m 431.64994,1360.6864 8.57428,-0.1022 c 0,0 -4.4079,1.0878 -5.59925,3.7285 -1.88083,4.1689 -3.64217,14.6628 -3.64217,14.6628 l -2.23339,11.5191 -1.83311,11.8311 -1.71824,21.3112 -1.69514,-21.3112 -1.92196,-11.5208 -2.5009,-11.8294 c 0,0 -1.52027,-10.287 -3.38278,-14.4832 -1.14458,-2.5787 -5.63367,-3.8059 -5.63367,-3.8059 h 8.4657 l 6.66875,29.1569 z"
           id="path30410"
           sodipodi:nodetypes="ccscccccccscccc"
           style="fill:#ff0000" />
      </g>
    </g>
  </g>
</svg>
