<?xml version="1.0" encoding="UTF-8" standalone="no"?>
<svg
   width="60"
   height="380"
   viewBox="0 0 60 380"
   version="1.1"
   id="svg100"
   sodipodi:docname="MixFade2_Ivory.svg"
   inkscape:version="1.1.1 (3bf5ae0d25, 2021-09-20)"
   xmlns:inkscape="http://www.inkscape.org/namespaces/inkscape"
   xmlns:sodipodi="http://sodipodi.sourceforge.net/DTD/sodipodi-0.dtd"
   xmlns="http://www.w3.org/2000/svg"
   xmlns:svg="http://www.w3.org/2000/svg"
   xmlns:rdf="http://www.w3.org/1999/02/22-rdf-syntax-ns#"
   xmlns:cc="http://creativecommons.org/ns#"
   xmlns:dc="http://purl.org/dc/elements/1.1/">
  <metadata
     id="metadata104">
    <rdf:RDF>
      <cc:Work
         rdf:about="">
        <dc:format>image/svg+xml</dc:format>
        <dc:type
           rdf:resource="http://purl.org/dc/dcmitype/StillImage" />
      </cc:Work>
    </rdf:RDF>
  </metadata>
  <sodipodi:namedview
     pagecolor="#ffffff"
     bordercolor="#666666"
     borderopacity="1"
     objecttolerance="1"
     gridtolerance="1"
     guidetolerance="1"
     inkscape:pageopacity="0"
     inkscape:pageshadow="2"
     inkscape:window-width="1920"
     inkscape:window-height="1057"
     id="namedview102"
     showgrid="true"
     inkscape:zoom="2.2342105"
     inkscape:cx="-28.869258"
     inkscape:cy="182.39105"
     inkscape:window-x="1592"
     inkscape:window-y="-8"
     inkscape:window-maximized="1"
     inkscape:current-layer="f45e0130-37b7-4f8b-95b3-6408baa23eb1"
     inkscape:pagecheckerboard="0"
     units="px"
     inkscape:showpageshadow="false"
     showborder="true">
    <inkscape:grid
       type="xygrid"
       id="grid1285" />
  </sodipodi:namedview>
  <defs
     id="defs7">
    <rect
       x="85"
       y="10"
       width="51.058132"
       height="25"
       id="rect29906" />
    <linearGradient
       id="a8e142bb-541b-4903-be63-d5d069028a5d"
       x1="22.5"
       x2="22.5"
       y2="380"
       gradientUnits="userSpaceOnUse">
      <stop
         offset="0"
         stop-color="#ebebeb"
         id="stop2" />
      <stop
         offset="1"
         stop-color="#e1e1e1"
         id="stop4" />
    </linearGradient>
  </defs>
  <g
     id="aea613ef-74be-49bf-be45-c0734aee674b"
     data-name="FND BG"
     style="fill:#ede7dc;fill-opacity:1"
     transform="scale(1.3333333,1)">
    <rect
       width="45"
       height="380"
       fill="url(#a8e142bb-541b-4903-be63-d5d069028a5d)"
       id="rect9"
       style="fill:#ede7dc;fill-opacity:1"
       x="0"
       y="0" />
  </g>
  <g
     id="f45e0130-37b7-4f8b-95b3-6408baa23eb1"
     data-name="components"
     style="display:inline"
     inkscape:groupmode="layer">
    <g
       id="g61025">
      <g
         aria-label="FADE 2"
         id="text5138"
         style="font-weight:bold;font-size:10.6667px;line-height:1.25;font-family:Arial;-inkscape-font-specification:'Arial, Bold';font-variant-ligatures:none;text-align:center;text-anchor:middle">
        <path
           d="M 11.989525,15.475034 V 7.839593 h 5.234391 v 1.2916707 h -3.69272 v 1.8072973 h 3.187511 v 1.291671 h -3.187511 v 3.244802 z"
           id="path58754" />
        <path
           d="M 24.791649,15.475034 H 23.11456 l -0.666669,-1.734381 h -3.052093 l -0.63021,1.734381 h -1.635422 l 2.973968,-7.635441 h 1.630213 z M 21.953098,12.454191 20.901011,9.6208486 19.869758,12.454191 Z"
           id="path58756" />
        <path
           d="m 25.604151,7.839593 h 2.817717 q 0.953128,0 1.45313,0.1458338 0.671877,0.1979173 1.151045,0.7031272 0.479168,0.5052099 0.729169,1.2395872 0.250001,0.7291688 0.250001,1.8020888 0,0.942712 -0.234376,1.625005 -0.286459,0.833336 -0.817711,1.348963 -0.401043,0.390626 -1.083337,0.609377 -0.510418,0.161459 -1.364587,0.161459 h -2.901051 z m 1.541671,1.2916707 v 5.0573073 h 1.151046 q 0.645835,0 0.932294,-0.07292 0.375001,-0.09375 0.619794,-0.317709 0.250001,-0.223959 0.406251,-0.734377 0.156251,-0.515627 0.156251,-1.401046 0,-0.88542 -0.156251,-1.35938 Q 30.098957,9.8291826 29.817706,9.5635568 29.536455,9.2979309 29.104162,9.2041806 28.781244,9.1312637 27.838533,9.1312637 Z"
           id="path58758" />
        <path
           d="M 33.312509,15.475034 V 7.839593 h 5.661476 V 9.1312637 H 34.85418 v 1.6927133 h 3.833346 V 12.11044 H 34.85418 v 2.078131 h 4.265639 v 1.286463 z"
           id="path58760" />
        <path
           d="m 48.010473,14.115654 v 1.35938 h -5.130225 q 0.08333,-0.770836 0.500002,-1.458338 0.416668,-0.692711 1.645838,-1.833339 0.989587,-0.921878 1.213546,-1.250004 0.302084,-0.453127 0.302084,-0.895836 0,-0.4895853 -0.265626,-0.7500028 -0.260417,-0.2656258 -0.72396,-0.2656258 -0.458335,0 -0.729169,0.2760425 -0.270835,0.2760426 -0.312501,0.9166691 l -1.458338,-0.145833 q 0.130208,-1.2083375 0.817711,-1.7343808 0.687502,-0.5260433 1.718755,-0.5260433 1.130212,0 1.776047,0.6093769 0.645836,0.6093769 0.645836,1.5156298 0,0.5156264 -0.187501,0.9843784 -0.182292,0.463543 -0.583335,0.973961 -0.265626,0.338543 -0.958336,0.973962 -0.692711,0.635418 -0.880212,0.843752 -0.182292,0.208334 -0.296876,0.406251 z"
           id="path58762" />
      </g>
      <rect
         style="opacity:0.98;fill:#252525;fill-opacity:1;stroke:none;stroke-width:0.380376;stroke-miterlimit:4;stroke-dasharray:none"
         id="rect39619"
         width="40.501133"
         height="168.38423"
         x="9.7494326"
         y="186.11633"
         ry="3.8210986" />
      <g
         aria-label="MIX"
         id="text9323"
         style="font-weight:bold;font-size:8px;line-height:1.25;font-family:Arial;-inkscape-font-specification:'Arial, Bold';font-variant-ligatures:none;text-align:center;text-anchor:middle;fill:#252525;fill-opacity:1"
         transform="translate(7.6627398,27.75499)">
        <path
           d="m 15.514994,151.97157 v -5.72656 h 1.730468 l 1.039063,3.90625 1.027344,-3.90625 h 1.734375 v 5.72656 h -1.074219 v -4.50781 l -1.136719,4.50781 h -1.113281 l -1.132813,-4.50781 v 4.50781 z"
           id="path79773"
           style="fill:#252525;fill-opacity:1" />
        <path
           d="m 22.159525,151.97157 v -5.72656 h 1.15625 v 5.72656 z"
           id="path79775"
           style="fill:#252525;fill-opacity:1" />
        <path
           d="m 23.835306,151.97157 1.957031,-2.98828 -1.773437,-2.73828 h 1.351562 l 1.148438,1.83984 1.125,-1.83984 h 1.339844 l -1.78125,2.78125 1.957031,2.94531 h -1.394531 l -1.269532,-1.98047 -1.273437,1.98047 z"
           id="path79777"
           style="fill:#252525;fill-opacity:1" />
      </g>
      <g
         id="g151718"
         transform="translate(23.945312,8.5375247)">
        <g
           aria-label="1"
           id="text9323-6"
           style="font-weight:bold;font-size:8px;line-height:1.25;font-family:Arial;-inkscape-font-specification:'Arial, Bold';font-variant-ligatures:none;text-align:center;text-anchor:middle;fill:#252525;fill-opacity:1"
           transform="translate(-4.1072622,18.003054)">
          <path
             d="m 11.419762,27.167337 h -1.097657 v -4.136718 q -0.6015621,0.5625 -1.4179683,0.832031 v -0.996094 q 0.4296875,-0.140625 0.9335937,-0.53125 0.5039066,-0.394531 0.6914066,-0.917969 h 0.890625 z"
             id="path79761"
             style="fill:#252525;fill-opacity:1" />
        </g>
        <g
           aria-label="2"
           id="text9323-6-3"
           style="font-weight:bold;font-size:8px;line-height:1.25;font-family:Arial;-inkscape-font-specification:'Arial, Bold';font-variant-ligatures:none;text-align:center;text-anchor:middle;fill:#252525;fill-opacity:1"
           transform="translate(-4.1072628,16.503048)">
          <path
             d="m 12.085778,58.387432 v 1.019531 H 8.238122 q 0.0625,-0.578125 0.375,-1.09375 0.3125,-0.519531 1.234375,-1.375 0.742187,-0.691406 0.910156,-0.9375 0.226563,-0.339843 0.226563,-0.671875 0,-0.367187 -0.199219,-0.5625 -0.195313,-0.199218 -0.542969,-0.199218 -0.3437498,0 -0.5468748,0.207031 -0.203125,0.207031 -0.234375,0.6875 l -1.09375,-0.109375 q 0.097656,-0.90625 0.6132813,-1.300781 0.515625,-0.394532 1.2890625,-0.394532 0.847656,0 1.332031,0.457032 0.484375,0.457031 0.484375,1.136718 0,0.386719 -0.140625,0.738282 -0.136719,0.347656 -0.4375,0.730468 -0.199219,0.253907 -0.71875,0.730469 -0.519531,0.476563 -0.660156,0.632813 -0.1367188,0.15625 -0.2226563,0.304687 z"
             id="path79764"
             style="fill:#252525;fill-opacity:1" />
        </g>
        <g
           aria-label="3"
           id="text9323-6-3-4"
           style="font-weight:bold;font-size:8px;line-height:1.25;font-family:Arial;-inkscape-font-specification:'Arial, Bold';font-variant-ligatures:none;text-align:center;text-anchor:middle;fill:#252525;fill-opacity:1"
           transform="translate(-4.107262,15.003044)">
          <path
             d="m 8.2596054,90.078224 1.0625,-0.128906 q 0.050781,0.40625 0.2734375,0.621094 0.2226563,0.214843 0.5390621,0.214843 0.339844,0 0.570313,-0.257812 0.234375,-0.257813 0.234375,-0.695313 0,-0.414062 -0.222656,-0.65625 -0.222657,-0.242187 -0.542969,-0.242187 -0.2109376,0 -0.5039063,0.08203 l 0.1210937,-0.894531 q 0.4453126,0.01172 0.6796876,-0.191406 0.234375,-0.207032 0.234375,-0.546875 0,-0.289063 -0.171875,-0.460938 -0.171875,-0.171875 -0.457031,-0.171875 -0.2812503,0 -0.4804691,0.195313 -0.1992187,0.195312 -0.2421875,0.570312 L 8.3416367,87.343849 q 0.1054687,-0.519531 0.3164062,-0.828125 0.2148438,-0.3125 0.59375,-0.488281 0.3828125,-0.179688 0.8554691,-0.179688 0.808593,0 1.296875,0.515625 0.402343,0.421875 0.402343,0.953125 0,0.753907 -0.824218,1.203125 0.492187,0.105469 0.785156,0.472657 0.296875,0.367187 0.296875,0.886718 0,0.753907 -0.550781,1.285157 -0.550782,0.53125 -1.371094,0.53125 -0.7773438,0 -1.2890626,-0.445313 -0.5117187,-0.449219 -0.59375,-1.171875 z"
             id="path79767"
             style="fill:#252525;fill-opacity:1" />
        </g>
        <g
           aria-label="4"
           id="text9323-6-3-4-7"
           style="font-weight:bold;font-size:8px;line-height:1.25;font-family:Arial;-inkscape-font-specification:'Arial, Bold';font-variant-ligatures:none;text-align:center;text-anchor:middle;fill:#252525;fill-opacity:1"
           transform="translate(-4.107263,13.503052)">
          <path
             d="m 10.447106,123.8862 v -1.15234 H 8.1033564 v -0.96094 l 2.4843746,-3.63672 h 0.921875 v 3.63281 h 0.710938 v 0.96485 h -0.710938 v 1.15234 z m 0,-2.11719 v -1.95703 l -1.3164059,1.95703 z"
             id="path79770"
             style="fill:#252525;fill-opacity:1" />
        </g>
      </g>
      <g
         aria-label="RISE"
         id="text21732"
         style="font-weight:bold;font-size:5.33333px;line-height:1.25;font-family:Arial;-inkscape-font-specification:'Arial, Bold';font-variant-ligatures:none;text-align:center;text-anchor:middle">
        <path
           d="m 4.8338292,37.223129 v -3.817706 h 1.6223949 q 0.6119788,0 0.8880203,0.104167 0.2786457,0.101562 0.4453122,0.364583 0.1666666,0.263021 0.1666666,0.601562 0,0.429687 -0.252604,0.710937 -0.252604,0.278646 -0.7552079,0.351562 0.2499998,0.145834 0.4114581,0.320313 0.1640624,0.174479 0.4401039,0.619791 l 0.4661455,0.744791 H 7.3442444 L 6.7869531,36.392401 Q 6.4900782,35.947088 6.3807033,35.832505 6.2713284,35.715318 6.1489326,35.673651 6.0265368,35.62938 5.760912,35.62938 H 5.6046621 v 1.593749 z m 0.7708329,-2.203123 h 0.5703122 q 0.5546871,0 0.6927079,-0.04687 0.1380207,-0.04687 0.2161457,-0.161459 0.078125,-0.114583 0.078125,-0.286458 0,-0.192708 -0.1041666,-0.309895 Q 6.9562239,34.095532 6.768724,34.064282 6.674974,34.051262 6.2062243,34.051262 H 5.6046621 Z"
           id="path58765" />
        <path
           d="m 8.6593477,37.223129 v -3.817706 h 0.7708329 v 3.817706 z"
           id="path58767" />
        <path
           d="m 9.9692428,35.980943 0.7499992,-0.07292 q 0.06771,0.377604 0.273438,0.554687 0.208333,0.177083 0.559895,0.177083 0.372396,0 0.559896,-0.15625 0.190104,-0.158854 0.190104,-0.369791 0,-0.135417 -0.08073,-0.229167 -0.07813,-0.09635 -0.276042,-0.166666 -0.135416,-0.04687 -0.617187,-0.166667 -0.619791,-0.153645 -0.869791,-0.377604 -0.351562,-0.315104 -0.351562,-0.768228 0,-0.291667 0.164062,-0.544271 0.166667,-0.255208 0.476562,-0.38802 0.3125,-0.132813 0.752604,-0.132813 0.718749,0 1.080728,0.315104 0.364584,0.315104 0.382813,0.841145 L 12.1932,34.530423 Q 12.143721,34.236152 11.979658,34.108548 11.8182,33.97834 11.492679,33.97834 q -0.335937,0 -0.526041,0.13802 -0.122396,0.08854 -0.122396,0.236979 0,0.135417 0.114584,0.231771 0.145833,0.122396 0.708332,0.255208 0.5625,0.132813 0.830729,0.276042 0.270833,0.140625 0.421875,0.38802 0.153646,0.244792 0.153646,0.606771 0,0.328125 -0.182292,0.614583 -0.182291,0.286458 -0.515625,0.427083 -0.333333,0.138021 -0.830728,0.138021 -0.723958,0 -1.111979,-0.333334 -0.38802,-0.335937 -0.4635412,-0.976561 z"
           id="path58769" />
        <path
           d="m 13.721844,37.223129 v -3.817706 h 2.830728 v 0.645833 h -2.059895 v 0.846354 h 1.916666 v 0.643229 H 14.492677 V 36.5799 h 2.132811 v 0.643229 z"
           id="path58771" />
      </g>
      <g
         aria-label="FALL"
         id="text21732-4"
         style="font-weight:bold;font-size:5.33333px;line-height:1.25;font-family:Arial;-inkscape-font-specification:'Arial, Bold';font-variant-ligatures:none;text-align:center;text-anchor:middle;display:inline">
        <path
           d="m 42.882322,37.22443 v -3.817706 h 2.617186 v 0.645833 h -1.846354 v 0.903645 h 1.59375 v 0.645833 h -1.59375 v 1.622395 z"
           id="path58785" />
        <path
           d="M 49.283359,37.22443 H 48.444818 L 48.111485,36.357243 H 46.585444 L 46.27034,37.22443 h -0.817707 l 1.486978,-3.817706 h 0.815103 z m -1.41927,-1.510416 -0.526041,-1.416666 -0.515625,1.416666 z"
           id="path58787" />
        <path
           d="m 49.713046,37.22443 v -3.786456 h 0.770833 v 3.143227 h 1.916666 v 0.643229 z"
           id="path58789" />
        <path
           d="m 52.970857,37.22443 v -3.786456 h 0.770833 v 3.143227 h 1.916665 v 0.643229 z"
           id="path58791" />
      </g>
      <g
         aria-label="SHAPE"
         id="text21732-0"
         style="font-weight:bold;font-size:5.33333px;line-height:1.25;font-family:Arial;-inkscape-font-specification:'Arial, Bold';font-variant-ligatures:none;text-align:center;text-anchor:middle;display:inline">
        <path
           d="m 21.041671,26.433697 0.749999,-0.07292 q 0.06771,0.377604 0.273438,0.554687 0.208333,0.177083 0.559895,0.177083 0.372396,0 0.559896,-0.15625 0.190104,-0.158854 0.190104,-0.369791 0,-0.135417 -0.08073,-0.229167 -0.07813,-0.09635 -0.276042,-0.166666 -0.135417,-0.04687 -0.617187,-0.166667 -0.619791,-0.153645 -0.869791,-0.377604 -0.351562,-0.315104 -0.351562,-0.768228 0,-0.291667 0.164062,-0.544271 0.166666,-0.255208 0.476562,-0.388021 0.3125,-0.132812 0.752604,-0.132812 0.718749,0 1.080728,0.315104 0.364583,0.315104 0.382813,0.841145 l -0.770833,0.03385 q -0.04948,-0.294271 -0.213542,-0.421875 -0.161458,-0.130208 -0.486979,-0.130208 -0.335937,0 -0.526041,0.13802 -0.122396,0.08854 -0.122396,0.236979 0,0.135417 0.114583,0.231771 0.145834,0.122396 0.708333,0.255208 0.5625,0.132813 0.830729,0.276042 0.270833,0.140625 0.421875,0.38802 0.153646,0.244792 0.153646,0.606771 0,0.328125 -0.182292,0.614583 -0.182292,0.286458 -0.515625,0.427083 -0.333333,0.138021 -0.830728,0.138021 -0.723958,0 -1.111979,-0.333334 -0.38802,-0.335937 -0.463541,-0.976562 z"
           id="path58774" />
        <path
           d="m 24.796877,27.675884 v -3.817706 h 0.770833 v 1.502603 h 1.510416 v -1.502603 h 0.770832 v 3.817706 h -0.770832 v -1.66927 H 25.56771 v 1.66927 z"
           id="path58776" />
        <path
           d="m 32.088539,27.675884 h -0.838541 l -0.333333,-0.867187 h -1.526041 l -0.315104,0.867187 h -0.817708 l 1.486979,-3.817706 h 0.815103 z m -1.41927,-1.510416 -0.526041,-1.416665 -0.515625,1.416665 z"
           id="path58778" />
        <path
           d="m 32.497393,27.675884 v -3.817706 h 1.236979 q 0.703124,0 0.916666,0.05729 0.328125,0.08594 0.549479,0.375 0.221354,0.286458 0.221354,0.742187 0,0.351562 -0.127604,0.591145 -0.127604,0.239583 -0.325521,0.377604 -0.195312,0.135417 -0.398437,0.179687 -0.276042,0.05469 -0.799479,0.05469 h -0.502604 v 1.440103 z m 0.770833,-3.171873 v 1.083333 h 0.421875 q 0.455729,0 0.609375,-0.0599 0.153645,-0.0599 0.239583,-0.1875 0.08854,-0.127604 0.08854,-0.296875 0,-0.208333 -0.122396,-0.343749 -0.122396,-0.135417 -0.309896,-0.169271 -0.138021,-0.02604 -0.554687,-0.02604 z"
           id="path58780" />
        <path
           d="m 36.054683,27.675884 v -3.817706 h 2.830727 v 0.645833 h -2.059895 v 0.846354 h 1.916666 v 0.643229 h -1.916666 v 1.039061 h 2.132812 v 0.643229 z"
           id="path58782" />
      </g>
    </g>
    <g
       id="g61046">
      <g
         aria-label="MIX"
         id="text9323-7"
         style="font-weight:bold;font-size:8px;line-height:1.25;font-family:Arial;-inkscape-font-specification:'Arial, Bold';font-variant-ligatures:none;text-align:center;text-anchor:middle;display:inline;fill:#ede7dc;fill-opacity:1"
         transform="translate(-4.159525,176.75499)">
        <path
           d="m 15.514994,151.97157 v -5.72656 h 1.730468 l 1.039063,3.90625 1.027344,-3.90625 h 1.734375 v 5.72656 h -1.074219 v -4.50781 l -1.136719,4.50781 h -1.113281 l -1.132813,-4.50781 v 4.50781 z"
           id="path79773-0"
           style="fill:#ede7dc;fill-opacity:1" />
        <path
           d="m 22.159525,151.97157 v -5.72656 h 1.15625 v 5.72656 z"
           id="path79775-5"
           style="fill:#ede7dc;fill-opacity:1" />
        <path
           d="m 23.835306,151.97157 1.957031,-2.98828 -1.773437,-2.73828 h 1.351562 l 1.148438,1.83984 1.125,-1.83984 h 1.339844 l -1.78125,2.78125 1.957031,2.94531 h -1.394531 l -1.269532,-1.98047 -1.273437,1.98047 z"
           id="path79777-8"
           style="fill:#ede7dc;fill-opacity:1" />
      </g>
      <g
         id="g151728"
         transform="translate(8.8691408,-7.8232233)"
         style="fill:#ede7dc;fill-opacity:1">
        <g
           aria-label="1"
           id="text9323-6-6"
           style="font-weight:bold;font-size:8px;line-height:1.25;font-family:Arial;-inkscape-font-specification:'Arial, Bold';font-variant-ligatures:none;text-align:center;text-anchor:middle;fill:#ede7dc;fill-opacity:1"
           transform="translate(-4.1072622,17.410017)">
          <path
             d="m 11.419762,194.86545 h -1.097657 v -4.13672 q -0.6015621,0.5625 -1.4179683,0.83203 v -0.99609 q 0.4296875,-0.14063 0.9335937,-0.53125 0.5039066,-0.39453 0.6914066,-0.91797 h 0.890625 z"
             id="path79780"
             style="fill:#ede7dc;fill-opacity:1" />
        </g>
        <g
           aria-label="2"
           id="text9323-6-3-6"
           style="font-weight:bold;font-size:8px;line-height:1.25;font-family:Arial;-inkscape-font-specification:'Arial, Bold';font-variant-ligatures:none;text-align:center;text-anchor:middle;fill:#ede7dc;fill-opacity:1"
           transform="translate(-4.1072628,16.089464)">
          <path
             d="m 12.085778,227.08554 v 1.01953 H 8.238122 q 0.0625,-0.57812 0.375,-1.09375 0.3125,-0.51953 1.234375,-1.375 0.742187,-0.6914 0.910156,-0.9375 0.226563,-0.33984 0.226563,-0.67187 0,-0.36719 -0.199219,-0.5625 -0.195313,-0.19922 -0.542969,-0.19922 -0.3437498,0 -0.5468748,0.20703 -0.203125,0.20703 -0.234375,0.6875 l -1.09375,-0.10938 q 0.097656,-0.90625 0.6132813,-1.30078 0.515625,-0.39453 1.2890625,-0.39453 0.847656,0 1.332031,0.45703 0.484375,0.45703 0.484375,1.13672 0,0.38672 -0.140625,0.73828 -0.136719,0.34766 -0.4375,0.73047 -0.199219,0.25391 -0.71875,0.73047 -0.519531,0.47656 -0.660156,0.63281 -0.1367188,0.15625 -0.2226563,0.30469 z"
             id="path79783"
             style="fill:#ede7dc;fill-opacity:1" />
        </g>
        <g
           aria-label="3"
           id="text9323-6-3-4-2"
           style="font-weight:bold;font-size:8px;line-height:1.25;font-family:Arial;-inkscape-font-specification:'Arial, Bold';font-variant-ligatures:none;text-align:center;text-anchor:middle;fill:#ede7dc;fill-opacity:1"
           transform="translate(-4.107262,14.768952)">
          <path
             d="m 8.2596054,259.77634 1.0625,-0.12891 q 0.050781,0.40625 0.2734375,0.62109 0.2226563,0.21485 0.5390621,0.21485 0.339844,0 0.570313,-0.25781 0.234375,-0.25782 0.234375,-0.69532 0,-0.41406 -0.222656,-0.65625 -0.222657,-0.24218 -0.542969,-0.24218 -0.2109376,0 -0.5039063,0.082 l 0.1210937,-0.89453 q 0.4453126,0.0117 0.6796876,-0.19141 0.234375,-0.20703 0.234375,-0.54688 0,-0.28906 -0.171875,-0.46093 -0.171875,-0.17188 -0.457031,-0.17188 -0.2812503,0 -0.4804691,0.19531 -0.1992187,0.19532 -0.2421875,0.57032 l -1.0117187,-0.17188 q 0.1054687,-0.51953 0.3164062,-0.82812 0.2148438,-0.3125 0.59375,-0.48828 0.3828125,-0.17969 0.8554691,-0.17969 0.808593,0 1.296875,0.51562 0.402343,0.42188 0.402343,0.95313 0,0.7539 -0.824218,1.20312 0.492187,0.10547 0.785156,0.47266 0.296875,0.36719 0.296875,0.88672 0,0.7539 -0.550781,1.28515 -0.550782,0.53125 -1.371094,0.53125 -0.7773438,0 -1.2890626,-0.44531 -0.5117187,-0.44922 -0.59375,-1.17187 z"
             id="path79786"
             style="fill:#ede7dc;fill-opacity:1" />
        </g>
        <g
           aria-label="4"
           id="text9323-6-3-4-7-9"
           style="font-weight:bold;font-size:8px;line-height:1.25;font-family:Arial;-inkscape-font-specification:'Arial, Bold';font-variant-ligatures:none;text-align:center;text-anchor:middle;fill:#ede7dc;fill-opacity:1"
           transform="translate(-4.107263,13.448364)">
          <path
             d="m 10.447106,294.58432 v -1.15234 H 8.1033564 v -0.96094 l 2.4843746,-3.63672 h 0.921875 v 3.63281 h 0.710938 v 0.96485 h -0.710938 v 1.15234 z m 0,-2.11719 v -1.95703 l -1.3164059,1.95703 z"
             id="path79789"
             style="fill:#ede7dc;fill-opacity:1" />
        </g>
      </g>
      <g
         aria-label="LEVEL"
         id="text34969"
         style="font-weight:bold;font-size:8px;line-height:1.25;font-family:Arial;-inkscape-font-specification:'Arial, Bold';font-variant-ligatures:none;text-align:center;text-anchor:middle;fill:#ede7dc"
         transform="translate(0,-2)">
        <path
           d="m 17.537109,197.21625 v -5.67969 h 1.15625 v 4.71484 h 2.875 v 0.96485 z"
           id="path58812" />
        <path
           d="m 22.392578,197.21625 v -5.72656 h 4.246094 v 0.96875 h -3.089844 v 1.26953 h 2.875 v 0.96484 h -2.875 v 1.55859 h 3.199219 v 0.96485 z"
           id="path58814" />
        <path
           d="m 29.189453,197.21625 -2.046875,-5.72656 h 1.253906 l 1.449219,4.23828 1.402344,-4.23828 h 1.226562 l -2.050781,5.72656 z"
           id="path58816" />
        <path
           d="m 33.064453,197.21625 v -5.72656 h 4.246094 v 0.96875 h -3.089844 v 1.26953 h 2.875 v 0.96484 h -2.875 v 1.55859 h 3.199219 v 0.96485 z"
           id="path58818" />
        <path
           d="m 38.431641,197.21625 v -5.67969 h 1.15625 v 4.71484 h 2.875 v 0.96485 z"
           id="path58820" />
      </g>
    </g>
  </g>
  <g
     id="g42796"
     transform="matrix(0.30458296,0,0,0.30458296,6.9375494,-12.68508)"
     style="fill:#ff0000">
    <g
       aria-label="enom"
       id="text4270-27"
       style="font-size:49.3889px;line-height:1.25;font-family:'NECK ROMANCER';-inkscape-font-specification:'NECK ROMANCER, Normal';font-variant-ligatures:none;text-align:center;text-anchor:middle;fill:#ff0000;stroke-width:2.64583">
      <path
         d="m 46.609141,1249.244 q 0,1.1576 0,3.4245 3.183269,0 9.453344,0 -1.639866,0.5787 -2.990343,1.2058 -1.350478,0.627 -2.363337,1.688 -1.350477,0 -4.051433,0 0,1.4952 0.434082,2.5563 0.385851,1.1093 1.832792,1.1093 2.266873,0 6.80062,0 0.482313,-0.1447 0.868164,-0.627 0.337619,-0.5305 0.627007,-1.7363 0,2.0257 0,6.1254 -3.520888,0 -10.562665,0 -1.543403,0 -2.652724,-2.2187 -1.109321,-2.1704 -1.109321,-6.3183 0,-1.9775 0,-5.836 -0.385851,-1.3504 -1.881023,-2.1221 -1.495171,-0.7235 -3.569119,-1.2058 6.607694,0 19.774852,0 0,2.9421 0,8.7781 -1.205783,-2.701 -2.218642,-3.6656 -1.012858,-0.9646 -2.700955,-1.1093 -0.916396,-0.097 -2.170411,-0.097 -1.205783,0.048 -2.845649,0.048 -0.241157,0 -0.675239,0 z"
         id="path42762"
         style="fill:#ff0000" />
      <path
         d="m 81.576869,1245.2891 q 0,5.8842 0,17.7009 0,3.0868 -0.144694,6.0771 -0.09646,3.0386 -0.337619,5.9325 -0.385851,-3.7138 -0.964627,-6.9936 -0.530545,-3.3279 -2.025717,-5.016 0,-2.9904 0,-8.9228 -0.241157,-1.3505 -0.72347,-2.2187 -0.482314,-0.8681 -1.06109,-1.3987 -1.109321,-1.0128 -2.411567,-1.1093 -1.350478,-0.097 -2.266874,-0.097 -0.482313,0 -1.44694,0 0,4.582 0,13.746 0,3.0868 -0.09646,6.0771 -0.144694,3.0386 -0.385851,5.9325 -0.38585,-3.7138 -0.916395,-6.9936 -0.578776,-3.3279 -2.025717,-5.016 0,-4.8232 0,-14.373 -0.385851,-1.3504 -1.881022,-2.1221 -1.495172,-0.7235 -3.56912,-1.2058 6.752389,0 20.257166,0 z"
         id="path42764"
         style="fill:#ff0000" />
      <path
         d="m 104.19737,1249.0511 q 0,3.3762 0,10.1768 0,1.5434 -1.92925,2.6528 -1.92926,1.1093 -6.077152,1.1093 -4.196128,0 -6.125382,-1.1093 -1.929254,-1.1094 -1.929254,-2.6528 0,-3.3762 0,-10.1768 0,-1.5434 1.929254,-2.6527 1.929254,-1.1093 6.125382,-1.1093 4.147892,0 6.077152,1.1093 1.92925,1.1093 1.92925,2.6527 z m -3.76204,7.91 q 0,-1.8811 0,-5.6431 0,-1.6881 -1.254019,-1.9775 -1.205783,-0.2894 -2.990343,-0.2894 -1.832792,0 -3.038575,0.2894 -1.254015,0.2894 -1.254015,1.9775 0,1.881 0,5.6431 0,1.6881 1.254015,1.9774 1.205783,0.2894 3.038575,0.2894 1.78456,0 2.990343,-0.2894 1.254019,-0.2893 1.254019,-1.9774 z"
         id="path42766"
         style="fill:#ff0000" />
      <path
         d="m 142.34837,1245.2891 q -2.02572,0.4823 -3.52089,1.2058 -1.5434,0.7717 -1.88102,2.1221 0,4.7749 0,14.373 -1.49517,1.6881 -2.02572,5.016 -0.57878,3.2798 -0.96463,6.9936 -0.24115,-2.8939 -0.33762,-5.9325 -0.14469,-2.9903 -0.14469,-6.0771 0,-4.582 0,-13.746 -0.48231,0 -1.39871,0 -0.53054,0 -1.15755,0 -0.62701,0 -1.30225,0.1447 -1.25401,0.2412 -2.41157,1.2058 -1.15755,0.9646 -1.63986,3.4727 0,2.9903 0,8.9228 -0.1447,0.627 -0.28939,1.1093 -0.0965,0.4823 -0.19292,0.8199 -0.53055,1.9775 -0.38586,1.3505 0.19293,-0.627 -0.28938,1.1576 -0.0965,0.3376 -0.24116,0.8681 -0.14469,0.5306 -0.33762,1.3023 -0.14469,-0.6753 -0.28939,-1.2058 -0.14469,-0.4823 -0.24115,-0.8199 -0.53055,-2.0258 -0.33762,-1.3023 0.19292,0.7717 -0.43409,-1.6881 -0.0482,-0.2894 -0.19292,-0.7235 -0.0965,-0.3858 -0.19293,-0.8681 0,-2.9904 0,-8.9228 -0.28939,-1.3505 -0.7717,-2.2187 -0.48231,-0.8681 -1.06109,-1.3987 -1.10932,-1.0128 -2.41157,-1.1093 -1.30224,-0.097 -2.26687,-0.097 -0.48231,0 -1.39871,0 0,4.582 0,13.746 0,3.0868 -0.14469,6.0771 -0.0965,3.0386 -0.33762,5.9325 -0.38585,-3.7138 -0.96463,-6.9936 -0.53054,-3.3279 -2.02572,-5.016 0,-4.8232 0,-14.373 -0.38585,-1.3504 -1.88102,-2.1221 -1.49517,-0.7235 -3.56912,-1.2058 3.95497,0 11.76845,0 1.15755,0.3858 3.47266,1.1575 0.7717,0.2894 1.59163,0.4341 0.81994,0.1447 1.6881,0.1447 0.86816,0 1.73633,-0.1447 0.81993,-0.1447 1.59163,-0.4341 1.15756,-0.3858 3.42443,-1.1575 3.95497,0 11.76845,0 z"
         id="path42768"
         style="fill:#ff0000" />
    </g>
    <g
       aria-label="V"
       transform="matrix(1.2363173,0,0,0.80885384,-497.88086,123.48586)"
       id="text4270-3-5-2"
       style="font-size:78.5061px;line-height:1.25;font-family:Nosferotica;-inkscape-font-specification:'Nosferotica, Normal';font-variant-ligatures:none;text-align:center;text-anchor:middle;fill:#ff0000;stroke-width:3.27108">
      <path
         d="m 431.64994,1360.6864 8.57428,-0.1022 c 0,0 -4.4079,1.0878 -5.59925,3.7285 -1.88083,4.1689 -3.64217,14.6628 -3.64217,14.6628 l -2.23339,11.5191 -1.83311,11.8311 -1.71824,21.3112 -1.69514,-21.3112 -1.92196,-11.5208 -2.5009,-11.8294 c 0,0 -1.52027,-10.287 -3.38278,-14.4832 -1.14458,-2.5787 -5.63367,-3.8059 -5.63367,-3.8059 h 8.4657 l 6.66875,29.1569 z"
         id="path30410"
         sodipodi:nodetypes="ccscccccccscccc"
         style="fill:#ff0000" />
    </g>
  </g>
  <text
     xml:space="preserve"
     id="text29904"
     style="font-weight:bold;font-size:8px;line-height:1.25;font-family:Arial;-inkscape-font-specification:'Arial, Bold';font-variant-ligatures:none;text-align:center;white-space:pre;shape-inside:url(#rect29906)"
     transform="translate(-2.6024628e-4)" />
  <g
     inkscape:groupmode="layer"
     id="layer1"
     inkscape:label="Widgets"
     style="display:none">
    <circle
       style="display:inline;fill:#ff0000;stroke:#ff0000;stroke-width:1.94925;stroke-opacity:1"
       id="path1065-7-2-3-2-2"
       cx="30"
       cy="209.77763"
       r="10.525375" />
    <circle
       style="display:inline;fill:#ff0000;stroke:#ff0000;stroke-width:1.94925;stroke-opacity:1"
       id="path1065-7-2-3-2-2-7"
       cx="30"
       cy="241.31953"
       r="10.525375" />
    <circle
       style="display:inline;fill:#ff0000;stroke:#ff0000;stroke-width:1.94925;stroke-opacity:1"
       id="path1065-7-2-3-2-2-6"
       cx="30"
       cy="273.23862"
       r="10.525375" />
    <circle
       style="display:inline;fill:#ff0000;stroke:#ff0000;stroke-width:1.94925;stroke-opacity:1"
       id="path1065-7-2-3-2-2-3"
       cx="30"
       cy="305.15768"
       r="10.525375" />
    <circle
       style="display:inline;fill:#ff0000;stroke:#ff0000;stroke-width:1.94925;stroke-opacity:1"
       id="path1065-7-2-3-2-2-2"
       cx="30"
       cy="340.43411"
       r="10.525375" />
    <circle
       style="display:inline;fill:#ff0000;stroke:#ff0000;stroke-width:1.44075;stroke-opacity:1"
       id="path1065-7-2-3-2-9"
       cx="29.999998"
       cy="37.545391"
       r="7.7796249" />
    <circle
       style="display:inline;fill:#ff0000;stroke:#ff0000;stroke-width:1.44075;stroke-opacity:1"
       id="path1065-7-2-3-2-4-2"
       cx="10.729659"
       cy="47.045391"
       r="7.7796249" />
    <circle
       style="display:inline;fill:#ff0000;stroke:#ff0000;stroke-width:1.44075;stroke-opacity:1"
       id="path1065-7-2-3-2-8-6-9"
       cx="49.27034"
       cy="47.045391"
       r="7.7796249" />
    <circle
       style="display:inline;fill:#ff0000;stroke:#ff0000;stroke-width:1.44075;stroke-opacity:1"
       id="path1065-7-2-3-2-9-1"
       cx="29.999998"
       cy="68.285011"
       r="7.7796249" />
    <circle
       style="display:inline;fill:#ff0000;stroke:#ff0000;stroke-width:1.44075;stroke-opacity:1"
       id="path1065-7-2-3-2-4-2-1"
       cx="10.729659"
       cy="77.785011"
       r="7.7796249" />
    <circle
       style="display:inline;fill:#ff0000;stroke:#ff0000;stroke-width:1.44075;stroke-opacity:1"
       id="path1065-7-2-3-2-8-6-9-7"
       cx="49.27034"
       cy="77.785011"
       r="7.7796249" />
    <circle
       style="display:inline;fill:#ff0000;stroke:#ff0000;stroke-width:1.44075;stroke-opacity:1"
       id="path1065-7-2-3-2-9-7"
       cx="29.999998"
       cy="99.024628"
       r="7.7796249" />
    <circle
       style="display:inline;fill:#ff0000;stroke:#ff0000;stroke-width:1.44075;stroke-opacity:1"
       id="path1065-7-2-3-2-4-2-9"
       cx="10.729659"
       cy="108.52463"
       r="7.7796249" />
    <circle
       style="display:inline;fill:#ff0000;stroke:#ff0000;stroke-width:1.44075;stroke-opacity:1"
       id="path1065-7-2-3-2-8-6-9-6"
       cx="49.27034"
       cy="108.52463"
       r="7.7796249" />
    <circle
       style="display:inline;fill:#ff0000;stroke:#ff0000;stroke-width:1.44075;stroke-opacity:1"
       id="path1065-7-2-3-2-9-9"
       cx="29.999998"
       cy="129.76425"
       r="7.7796249" />
    <circle
       style="display:inline;fill:#ff0000;stroke:#ff0000;stroke-width:1.44075;stroke-opacity:1"
       id="path1065-7-2-3-2-4-2-7"
       cx="10.729659"
       cy="139.26425"
       r="7.7796249" />
    <circle
       style="display:inline;fill:#ff0000;stroke:#ff0000;stroke-width:1.44075;stroke-opacity:1"
       id="path1065-7-2-3-2-8-6-9-65"
       cx="49.27034"
       cy="139.26425"
       r="7.7796249" />
    <circle
       style="display:inline;fill:#ff0000;stroke:#ff0000;stroke-width:1.44075;stroke-opacity:1"
       id="path1065-7-2-3-2-9-16"
       cx="29.999998"
       cy="163.50388"
       r="7.7796249" />
    <circle
       style="display:inline;fill:#ff0000;stroke:#ff0000;stroke-width:1.44075;stroke-opacity:1"
       id="path1065-7-2-3-2-4-2-4"
       cx="10.729659"
       cy="173.00388"
       r="7.7796249" />
    <circle
       style="display:inline;fill:#ff0000;stroke:#ff0000;stroke-width:1.44075;stroke-opacity:1"
       id="path1065-7-2-3-2-8-6-9-5"
       cx="49.27034"
       cy="173.00388"
       r="7.7796249" />
  </g>
  <g
     inkscape:groupmode="layer"
     id="layer2"
     inkscape:label="Text Labels"
     style="display:none" />
</svg>
