<?xml version="1.0" encoding="UTF-8" standalone="no"?>
<svg
   width="105"
   height="380"
   viewBox="0 0 105 380"
   version="1.1"
   id="svg100"
   sodipodi:docname="MultiSplit2_Ivory.svg"
   inkscape:version="1.1.1 (3bf5ae0d25, 2021-09-20)"
   xmlns:inkscape="http://www.inkscape.org/namespaces/inkscape"
   xmlns:sodipodi="http://sodipodi.sourceforge.net/DTD/sodipodi-0.dtd"
   xmlns="http://www.w3.org/2000/svg"
   xmlns:svg="http://www.w3.org/2000/svg"
   xmlns:rdf="http://www.w3.org/1999/02/22-rdf-syntax-ns#"
   xmlns:cc="http://creativecommons.org/ns#"
   xmlns:dc="http://purl.org/dc/elements/1.1/">
  <metadata
     id="metadata104">
    <rdf:RDF>
      <cc:Work
         rdf:about="">
        <dc:format>image/svg+xml</dc:format>
        <dc:type
           rdf:resource="http://purl.org/dc/dcmitype/StillImage" />
      </cc:Work>
    </rdf:RDF>
  </metadata>
  <sodipodi:namedview
     pagecolor="#ffffff"
     bordercolor="#666666"
     borderopacity="1"
     objecttolerance="1"
     gridtolerance="1"
     guidetolerance="1"
     inkscape:pageopacity="0"
     inkscape:pageshadow="2"
     inkscape:window-width="1920"
     inkscape:window-height="1057"
     id="namedview102"
     showgrid="true"
     inkscape:zoom="2.2342105"
     inkscape:cx="10.742049"
     inkscape:cy="191.79034"
     inkscape:window-x="1592"
     inkscape:window-y="-8"
     inkscape:window-maximized="1"
     inkscape:current-layer="layer4"
     inkscape:pagecheckerboard="0"
     units="px"
     inkscape:showpageshadow="false"
     showborder="true">
    <inkscape:grid
       type="xygrid"
       id="grid1285"
       visible="false" />
  </sodipodi:namedview>
  <defs
     id="defs7">
    <rect
       x="85"
       y="10"
       width="51.058132"
       height="25"
       id="rect29906" />
    <linearGradient
       id="a8e142bb-541b-4903-be63-d5d069028a5d"
       x1="22.5"
       x2="22.5"
       y2="380"
       gradientUnits="userSpaceOnUse">
      <stop
         offset="0"
         stop-color="#ebebeb"
         id="stop2" />
      <stop
         offset="1"
         stop-color="#e1e1e1"
         id="stop4" />
    </linearGradient>
  </defs>
  <g
     inkscape:groupmode="layer"
     id="layer2"
     inkscape:label="Faceplate"
     style="display:inline">
    <g
       id="aea613ef-74be-49bf-be45-c0734aee674b"
       data-name="FND BG"
       style="fill:#ede7dc;fill-opacity:1;stroke-width:0.654654"
       transform="scale(2.3333333,1)">
      <rect
         width="45"
         height="380"
         fill="url(#a8e142bb-541b-4903-be63-d5d069028a5d)"
         id="rect9"
         style="fill:#ede7dc;fill-opacity:1;stroke-width:0.654654"
         x="0"
         y="0" />
    </g>
  </g>
  <g
     inkscape:groupmode="layer"
     id="layer3"
     inkscape:label="Brand"
     style="display:inline">
    <g
       id="g42796"
       transform="matrix(0.30458296,0,0,0.30458296,29.437549,-12.68508)"
       style="fill:#ff0000">
      <g
         aria-label="enom"
         id="text4270-27"
         style="font-size:49.3889px;line-height:1.25;font-family:'NECK ROMANCER';-inkscape-font-specification:'NECK ROMANCER, Normal';font-variant-ligatures:none;text-align:center;text-anchor:middle;fill:#ff0000;stroke-width:2.64583">
        <path
           d="m 46.609141,1249.244 q 0,1.1576 0,3.4245 3.183269,0 9.453344,0 -1.639866,0.5787 -2.990343,1.2058 -1.350478,0.627 -2.363337,1.688 -1.350477,0 -4.051433,0 0,1.4952 0.434082,2.5563 0.385851,1.1093 1.832792,1.1093 2.266873,0 6.80062,0 0.482313,-0.1447 0.868164,-0.627 0.337619,-0.5305 0.627007,-1.7363 0,2.0257 0,6.1254 -3.520888,0 -10.562665,0 -1.543403,0 -2.652724,-2.2187 -1.109321,-2.1704 -1.109321,-6.3183 0,-1.9775 0,-5.836 -0.385851,-1.3504 -1.881023,-2.1221 -1.495171,-0.7235 -3.569119,-1.2058 6.607694,0 19.774852,0 0,2.9421 0,8.7781 -1.205783,-2.701 -2.218642,-3.6656 -1.012858,-0.9646 -2.700955,-1.1093 -0.916396,-0.097 -2.170411,-0.097 -1.205783,0.048 -2.845649,0.048 -0.241157,0 -0.675239,0 z"
           id="path42762"
           style="fill:#ff0000" />
        <path
           d="m 81.576869,1245.2891 q 0,5.8842 0,17.7009 0,3.0868 -0.144694,6.0771 -0.09646,3.0386 -0.337619,5.9325 -0.385851,-3.7138 -0.964627,-6.9936 -0.530545,-3.3279 -2.025717,-5.016 0,-2.9904 0,-8.9228 -0.241157,-1.3505 -0.72347,-2.2187 -0.482314,-0.8681 -1.06109,-1.3987 -1.109321,-1.0128 -2.411567,-1.1093 -1.350478,-0.097 -2.266874,-0.097 -0.482313,0 -1.44694,0 0,4.582 0,13.746 0,3.0868 -0.09646,6.0771 -0.144694,3.0386 -0.385851,5.9325 -0.38585,-3.7138 -0.916395,-6.9936 -0.578776,-3.3279 -2.025717,-5.016 0,-4.8232 0,-14.373 -0.385851,-1.3504 -1.881022,-2.1221 -1.495172,-0.7235 -3.56912,-1.2058 6.752389,0 20.257166,0 z"
           id="path42764"
           style="fill:#ff0000" />
        <path
           d="m 104.19737,1249.0511 q 0,3.3762 0,10.1768 0,1.5434 -1.92925,2.6528 -1.92926,1.1093 -6.077152,1.1093 -4.196128,0 -6.125382,-1.1093 -1.929254,-1.1094 -1.929254,-2.6528 0,-3.3762 0,-10.1768 0,-1.5434 1.929254,-2.6527 1.929254,-1.1093 6.125382,-1.1093 4.147892,0 6.077152,1.1093 1.92925,1.1093 1.92925,2.6527 z m -3.76204,7.91 q 0,-1.8811 0,-5.6431 0,-1.6881 -1.254019,-1.9775 -1.205783,-0.2894 -2.990343,-0.2894 -1.832792,0 -3.038575,0.2894 -1.254015,0.2894 -1.254015,1.9775 0,1.881 0,5.6431 0,1.6881 1.254015,1.9774 1.205783,0.2894 3.038575,0.2894 1.78456,0 2.990343,-0.2894 1.254019,-0.2893 1.254019,-1.9774 z"
           id="path42766"
           style="fill:#ff0000" />
        <path
           d="m 142.34837,1245.2891 q -2.02572,0.4823 -3.52089,1.2058 -1.5434,0.7717 -1.88102,2.1221 0,4.7749 0,14.373 -1.49517,1.6881 -2.02572,5.016 -0.57878,3.2798 -0.96463,6.9936 -0.24115,-2.8939 -0.33762,-5.9325 -0.14469,-2.9903 -0.14469,-6.0771 0,-4.582 0,-13.746 -0.48231,0 -1.39871,0 -0.53054,0 -1.15755,0 -0.62701,0 -1.30225,0.1447 -1.25401,0.2412 -2.41157,1.2058 -1.15755,0.9646 -1.63986,3.4727 0,2.9903 0,8.9228 -0.1447,0.627 -0.28939,1.1093 -0.0965,0.4823 -0.19292,0.8199 -0.53055,1.9775 -0.38586,1.3505 0.19293,-0.627 -0.28938,1.1576 -0.0965,0.3376 -0.24116,0.8681 -0.14469,0.5306 -0.33762,1.3023 -0.14469,-0.6753 -0.28939,-1.2058 -0.14469,-0.4823 -0.24115,-0.8199 -0.53055,-2.0258 -0.33762,-1.3023 0.19292,0.7717 -0.43409,-1.6881 -0.0482,-0.2894 -0.19292,-0.7235 -0.0965,-0.3858 -0.19293,-0.8681 0,-2.9904 0,-8.9228 -0.28939,-1.3505 -0.7717,-2.2187 -0.48231,-0.8681 -1.06109,-1.3987 -1.10932,-1.0128 -2.41157,-1.1093 -1.30224,-0.097 -2.26687,-0.097 -0.48231,0 -1.39871,0 0,4.582 0,13.746 0,3.0868 -0.14469,6.0771 -0.0965,3.0386 -0.33762,5.9325 -0.38585,-3.7138 -0.96463,-6.9936 -0.53054,-3.3279 -2.02572,-5.016 0,-4.8232 0,-14.373 -0.38585,-1.3504 -1.88102,-2.1221 -1.49517,-0.7235 -3.56912,-1.2058 3.95497,0 11.76845,0 1.15755,0.3858 3.47266,1.1575 0.7717,0.2894 1.59163,0.4341 0.81994,0.1447 1.6881,0.1447 0.86816,0 1.73633,-0.1447 0.81993,-0.1447 1.59163,-0.4341 1.15756,-0.3858 3.42443,-1.1575 3.95497,0 11.76845,0 z"
           id="path42768"
           style="fill:#ff0000" />
      </g>
      <g
         aria-label="V"
         transform="matrix(1.2363173,0,0,0.80885384,-497.88086,123.48586)"
         id="text4270-3-5-2"
         style="font-size:78.5061px;line-height:1.25;font-family:Nosferotica;-inkscape-font-specification:'Nosferotica, Normal';font-variant-ligatures:none;text-align:center;text-anchor:middle;fill:#ff0000;stroke-width:3.27108">
        <path
           d="m 431.64994,1360.6864 8.57428,-0.1022 c 0,0 -4.4079,1.0878 -5.59925,3.7285 -1.88083,4.1689 -3.64217,14.6628 -3.64217,14.6628 l -2.23339,11.5191 -1.83311,11.8311 -1.71824,21.3112 -1.69514,-21.3112 -1.92196,-11.5208 -2.5009,-11.8294 c 0,0 -1.52027,-10.287 -3.38278,-14.4832 -1.14458,-2.5787 -5.63367,-3.8059 -5.63367,-3.8059 h 8.4657 l 6.66875,29.1569 z"
           id="path30410"
           sodipodi:nodetypes="ccscccccccscccc"
           style="fill:#ff0000" />
      </g>
    </g>
  </g>
  <g
     inkscape:groupmode="layer"
     id="layer4"
     inkscape:label="Solid"
     style="display:inline">
    <rect
       style="opacity:0.995935;fill:#252525;fill-opacity:1;stroke:none;stroke-width:0.623622"
       id="rect1737"
       width="48"
       height="339.63199"
       x="54.75"
       y="19.013329"
       rx="5.0075512"
       ry="5.2661171" />
    <g
       aria-label="MULTI SPLIT"
       id="text4033"
       style="font-weight:bold;font-size:10.6667px;line-height:1.25;font-family:Arial;-inkscape-font-specification:'Arial, Bold';font-variant-ligatures:none;text-align:center;text-anchor:middle"
       transform="translate(7.4999998)">
      <path
         d="M 12.997294,13.875147 V 6.2397061 h 2.307299 l 1.385421,5.2083499 1.369796,-5.2083499 h 2.312508 V 13.875147 H 18.940021 V 7.8647112 l -1.515629,6.0104358 h -1.48438 L 14.429591,7.8647112 v 6.0104358 z"
         id="path17518" />
      <path
         d="m 21.893156,6.2397061 h 1.541671 v 4.1354299 q 0,0.984378 0.05729,1.276046 0.09896,0.468751 0.468752,0.75521 0.375001,0.281251 1.020836,0.281251 0.656252,0 0.989587,-0.265626 0.333334,-0.270834 0.401042,-0.66146 0.06771,-0.390626 0.06771,-1.296879 V 6.2397061 h 1.541672 v 4.0104289 q 0,1.375005 -0.125001,1.942715 -0.125,0.56771 -0.463543,0.958336 -0.333334,0.390626 -0.895836,0.625002 -0.562502,0.229168 -1.468755,0.229168 -1.093753,0 -1.661463,-0.250001 -0.562502,-0.255209 -0.890628,-0.656252 -0.328126,-0.406252 -0.432293,-0.848961 -0.151042,-0.656252 -0.151042,-1.937506 z"
         id="path17520" />
      <path
         d="M 29.648389,13.875147 V 6.3022063 h 1.541671 v 6.2864777 h 3.833346 v 1.286463 z"
         id="path17522" />
      <path
         d="M 37.049454,13.875147 V 7.5313768 H 34.783822 V 6.2397061 h 6.067727 v 1.2916707 h -2.260424 v 6.3437702 z"
         id="path17524" />
      <path
         d="M 41.799469,13.875147 V 6.2397061 h 1.541672 v 7.6354409 z"
         id="path17526" />
      <path
         d="m 47.382819,11.390764 1.500005,-0.145834 q 0.135417,0.755211 0.546877,1.109379 0.416668,0.354168 1.119795,0.354168 0.744794,0 1.119795,-0.312501 0.38021,-0.31771 0.38021,-0.739586 0,-0.270834 -0.161459,-0.458335 -0.156251,-0.192709 -0.552085,-0.333334 -0.270835,-0.09375 -1.234379,-0.333335 -1.239587,-0.307292 -1.739589,-0.7552104 -0.703127,-0.6302103 -0.703127,-1.5364632 0,-0.5833352 0.328126,-1.0885451 0.333334,-0.5104183 0.953128,-0.7760441 0.625002,-0.2656259 1.505213,-0.2656259 1.437504,0 2.161465,0.6302104 0.729169,0.6302103 0.765627,1.6822969 L 51.83075,8.4897132 Q 51.731791,7.9011697 51.403665,7.6459605 51.080748,7.385543 50.429704,7.385543 q -0.671877,0 -1.052087,0.2760426 -0.244792,0.1770839 -0.244792,0.4739598 0,0.2708342 0.229167,0.4635431 0.291668,0.2447925 1.416671,0.5104183 1.125004,0.2656259 1.661464,0.5520851 0.541668,0.2812509 0.843752,0.7760441 0.307293,0.489585 0.307293,1.213546 0,0.656252 -0.364584,1.22917 -0.364585,0.572919 -1.031254,0.854169 -0.666668,0.276043 -1.661463,0.276043 -1.447921,0 -2.223966,-0.666669 -0.776044,-0.671877 -0.927086,-1.953131 z"
         id="path17528" />
      <path
         d="M 54.88805,13.875147 V 6.2397061 h 2.473966 q 1.406255,0 1.83334,0.1145837 0.656252,0.1718755 1.098961,0.7500023 0.44271,0.5729185 0.44271,1.4843797 0,0.7031273 -0.255209,1.1822954 -0.255209,0.4791678 -0.651044,0.7552108 -0.390626,0.270834 -0.796877,0.359376 -0.552085,0.109375 -1.598964,0.109375 h -1.005211 v 2.880218 z m 1.541672,-6.3437702 v 2.1666735 h 0.843753 q 0.911461,0 1.218753,-0.119792 0.307293,-0.1197921 0.479169,-0.3750012 0.177083,-0.2552091 0.177083,-0.5937519 0,-0.416668 -0.244792,-0.6875021 -0.244792,-0.2708342 -0.619794,-0.3385428 -0.276042,-0.052083 -1.109378,-0.052083 z"
         id="path17530" />
      <path
         d="M 62.044326,13.875147 V 6.3022063 h 1.541671 v 6.2864777 h 3.833346 v 1.286463 z"
         id="path17532" />
      <path
         d="M 68.471428,13.875147 V 6.2397061 H 70.0131 v 7.6354409 z"
         id="path17534" />
      <path
         d="M 73.200609,13.875147 V 7.5313768 H 70.934977 V 6.2397061 h 6.067728 v 1.2916707 h -2.260424 v 6.3437702 z"
         id="path17536" />
    </g>
    <text
       xml:space="preserve"
       style="font-style:normal;font-variant:normal;font-weight:bold;font-stretch:normal;font-size:8px;line-height:1.25;font-family:Arial;-inkscape-font-specification:'Arial, Bold';font-variant-ligatures:none;font-variant-caps:normal;font-variant-numeric:normal;font-variant-east-asian:normal;text-align:center;text-anchor:middle;display:inline;fill:#252525;fill-opacity:1"
       x="26.558594"
       y="28.596638"
       id="text12421-5"><tspan
         sodipodi:role="line"
         id="tspan17216"
         x="26.558594"
         y="28.596638">INPUT</tspan></text>
  </g>
  <g
     inkscape:groupmode="layer"
     id="layer5"
     inkscape:label="Reverse"
     style="display:inline">
    <text
       xml:space="preserve"
       style="font-style:normal;font-variant:normal;font-weight:bold;font-stretch:normal;font-size:8px;line-height:1.25;font-family:Arial;-inkscape-font-specification:'Arial, Bold';font-variant-ligatures:none;font-variant-caps:normal;font-variant-numeric:normal;font-variant-east-asian:normal;text-align:center;text-anchor:middle;display:inline;fill:#ede7dc;fill-opacity:1"
       x="78.658203"
       y="28.645466"
       id="text12421"><tspan
         sodipodi:role="line"
         id="tspan12419"
         x="78.658203"
         y="28.645466">OUTPUT</tspan></text>
  </g>
  <text
     xml:space="preserve"
     id="text29904"
     style="font-weight:bold;font-size:8px;line-height:1.25;font-family:Arial;-inkscape-font-specification:'Arial, Bold';font-variant-ligatures:none;text-align:center;white-space:pre;shape-inside:url(#rect29906)"
     transform="translate(-2.6024628e-4)" />
  <g
     inkscape:groupmode="layer"
     id="layer1"
     inkscape:label="Widgets"
     style="display:inline">
    <g
       id="g17680"
       transform="translate(2.2499996)">
      <ellipse
         style="display:inline;fill:#ff0000;stroke:#ff0000;stroke-width:1.77975;stroke-opacity:1"
         id="path1065-7-2-3-4-5"
         cx="14.5"
         cy="123.5"
         rx="10.610125"
         ry="10.610126" />
      <circle
         style="display:inline;fill:#ff0000;stroke:#ff0000;stroke-width:1.77975;stroke-opacity:1"
         id="path1065-7-2-3-4-1"
         cx="14.500001"
         cy="83.5"
         r="10.610126" />
      <circle
         style="display:inline;fill:#ff0000;stroke:#ff0000;stroke-width:1.77975;stroke-opacity:1"
         id="path1065-7-2-3-4-2"
         cx="14.500001"
         cy="163.5"
         r="10.610126" />
      <circle
         style="display:inline;fill:#ff0000;stroke:#ff0000;stroke-width:1.94925;stroke-opacity:1"
         id="path1065-7-2-3-2-2"
         cx="14.500001"
         cy="203.5"
         r="10.525375" />
      <circle
         style="display:inline;fill:#ff0000;stroke:#ff0000;stroke-width:1.94925;stroke-opacity:1"
         id="path1065-7-2-3-2-2-7"
         cx="14.500001"
         cy="243.5"
         r="10.525375" />
      <circle
         style="display:inline;fill:#ff0000;stroke:#ff0000;stroke-width:1.94925;stroke-opacity:1"
         id="path1065-7-2-3-2-2-6"
         cx="14.500001"
         cy="283.5"
         r="10.525375" />
      <circle
         style="display:inline;fill:#ff0000;stroke:#ff0000;stroke-width:1.94925;stroke-opacity:1"
         id="path1065-7-2-3-2-2-3"
         cx="14.500001"
         cy="323.5"
         r="10.525375" />
      <ellipse
         style="display:inline;fill:#ff0000;stroke:#ff0000;stroke-width:1.77975;stroke-opacity:1"
         id="path1065-7-2-3-4-5-8"
         cx="34.5"
         cy="143.5"
         rx="10.610124"
         ry="10.610126" />
      <ellipse
         style="display:inline;fill:#ff0000;stroke:#ff0000;stroke-width:1.77975;stroke-opacity:1"
         id="path1065-7-2-3-4-1-5"
         cx="34.5"
         cy="103.5"
         rx="10.610125"
         ry="10.610126" />
      <circle
         style="display:inline;fill:#ff0000;stroke:#ff0000;stroke-width:1.77975;stroke-opacity:1"
         id="path1065-7-2-3-4-0"
         cx="14.500001"
         cy="43.5"
         r="10.610126" />
      <ellipse
         style="display:inline;fill:#ff0000;stroke:#ff0000;stroke-width:1.77975;stroke-opacity:1"
         id="path1065-7-2-3-4-0-6"
         cx="34.5"
         cy="63.5"
         rx="10.610125"
         ry="10.610126" />
      <ellipse
         style="display:inline;fill:#ff0000;stroke:#ff0000;stroke-width:1.77975;stroke-opacity:1"
         id="path1065-7-2-3-4-2-0"
         cx="34.5"
         cy="183.5"
         rx="10.610125"
         ry="10.610126" />
      <ellipse
         style="display:inline;fill:#ff0000;stroke:#ff0000;stroke-width:1.94925;stroke-opacity:1"
         id="path1065-7-2-3-2-2-1"
         cx="34.5"
         cy="223.5"
         rx="10.525374"
         ry="10.525375" />
      <ellipse
         style="display:inline;fill:#ff0000;stroke:#ff0000;stroke-width:1.94925;stroke-opacity:1"
         id="path1065-7-2-3-2-2-7-9"
         cx="34.5"
         cy="263.5"
         rx="10.525374"
         ry="10.525375" />
      <ellipse
         style="display:inline;fill:#ff0000;stroke:#ff0000;stroke-width:1.94925;stroke-opacity:1"
         id="path1065-7-2-3-2-2-6-8"
         cx="34.5"
         cy="303.5"
         rx="10.525374"
         ry="10.525375" />
      <ellipse
         style="display:inline;fill:#ff0000;stroke:#ff0000;stroke-width:1.94925;stroke-opacity:1"
         id="path1065-7-2-3-2-2-3-5"
         cx="34.5"
         cy="343.5"
         rx="10.525374"
         ry="10.525375" />
    </g>
    <ellipse
       style="display:inline;fill:#ff0000;stroke:#ff0000;stroke-width:1.77975;stroke-opacity:1"
       id="path1065-7-2-3-4-5-9"
       cx="68.75"
       cy="123.50001"
       rx="10.610125"
       ry="10.610126" />
    <circle
       style="display:inline;fill:#ff0000;stroke:#ff0000;stroke-width:1.77975;stroke-opacity:1"
       id="path1065-7-2-3-4-1-0"
       cx="68.75"
       cy="83.5"
       r="10.610126" />
    <circle
       style="display:inline;fill:#ff0000;stroke:#ff0000;stroke-width:1.77975;stroke-opacity:1"
       id="path1065-7-2-3-4-0-7"
       cx="68.75"
       cy="43.5"
       r="10.610126" />
    <circle
       style="display:inline;fill:#ff0000;stroke:#ff0000;stroke-width:1.77975;stroke-opacity:1"
       id="path1065-7-2-3-4-2-5"
       cx="68.75"
       cy="163.50002"
       r="10.610126" />
    <circle
       style="display:inline;fill:#ff0000;stroke:#ff0000;stroke-width:1.94925;stroke-opacity:1"
       id="path1065-7-2-3-2-2-2"
       cx="68.75"
       cy="203.50002"
       r="10.525375" />
    <circle
       style="display:inline;fill:#ff0000;stroke:#ff0000;stroke-width:1.94925;stroke-opacity:1"
       id="path1065-7-2-3-2-2-7-6"
       cx="68.75"
       cy="243.50002"
       r="10.525375" />
    <circle
       style="display:inline;fill:#ff0000;stroke:#ff0000;stroke-width:1.94925;stroke-opacity:1"
       id="path1065-7-2-3-2-2-6-5"
       cx="68.75"
       cy="283.5"
       r="10.525375" />
    <circle
       style="display:inline;fill:#ff0000;stroke:#ff0000;stroke-width:1.94925;stroke-opacity:1"
       id="path1065-7-2-3-2-2-3-6"
       cx="68.75"
       cy="323.5"
       r="10.525375" />
    <ellipse
       style="display:inline;fill:#ff0000;stroke:#ff0000;stroke-width:1.77975;stroke-opacity:1"
       id="path1065-7-2-3-4-5-8-8"
       cx="88.75"
       cy="143.50002"
       rx="10.610124"
       ry="10.610126" />
    <ellipse
       style="display:inline;fill:#ff0000;stroke:#ff0000;stroke-width:1.77975;stroke-opacity:1"
       id="path1065-7-2-3-4-1-5-2"
       cx="88.75"
       cy="103.5"
       rx="10.610125"
       ry="10.610126" />
    <ellipse
       style="display:inline;fill:#ff0000;stroke:#ff0000;stroke-width:1.77975;stroke-opacity:1"
       id="path1065-7-2-3-4-0-6-6"
       cx="88.75"
       cy="63.5"
       rx="10.610125"
       ry="10.610126" />
    <ellipse
       style="display:inline;fill:#ff0000;stroke:#ff0000;stroke-width:1.77975;stroke-opacity:1"
       id="path1065-7-2-3-4-2-0-7"
       cx="88.75"
       cy="183.50002"
       rx="10.610125"
       ry="10.610126" />
    <ellipse
       style="display:inline;fill:#ff0000;stroke:#ff0000;stroke-width:1.94925;stroke-opacity:1"
       id="path1065-7-2-3-2-2-1-7"
       cx="88.75"
       cy="223.50002"
       rx="10.525374"
       ry="10.525375" />
    <ellipse
       style="display:inline;fill:#ff0000;stroke:#ff0000;stroke-width:1.94925;stroke-opacity:1"
       id="path1065-7-2-3-2-2-7-9-2"
       cx="88.75"
       cy="263.5"
       rx="10.525374"
       ry="10.525375" />
    <ellipse
       style="display:inline;fill:#ff0000;stroke:#ff0000;stroke-width:1.94925;stroke-opacity:1"
       id="path1065-7-2-3-2-2-6-8-3"
       cx="88.75"
       cy="303.5"
       rx="10.525374"
       ry="10.525375" />
    <ellipse
       style="display:inline;fill:#ff0000;stroke:#ff0000;stroke-width:1.94925;stroke-opacity:1"
       id="path1065-7-2-3-2-2-3-5-7"
       cx="88.75"
       cy="343.5"
       rx="10.525374"
       ry="10.525375" />
  </g>
</svg>
