<?xml version="1.0" encoding="UTF-8" standalone="no"?>
<svg
   width="75"
   height="380"
   viewBox="0 0 75 380"
   version="1.1"
   id="svg100"
   sodipodi:docname="Octaver_Ivory.svg"
   inkscape:version="1.1.1 (3bf5ae0d25, 2021-09-20)"
   xmlns:inkscape="http://www.inkscape.org/namespaces/inkscape"
   xmlns:sodipodi="http://sodipodi.sourceforge.net/DTD/sodipodi-0.dtd"
   xmlns="http://www.w3.org/2000/svg"
   xmlns:svg="http://www.w3.org/2000/svg"
   xmlns:rdf="http://www.w3.org/1999/02/22-rdf-syntax-ns#"
   xmlns:cc="http://creativecommons.org/ns#"
   xmlns:dc="http://purl.org/dc/elements/1.1/">
  <metadata
     id="metadata104">
    <rdf:RDF>
      <cc:Work
         rdf:about="">
        <dc:format>image/svg+xml</dc:format>
        <dc:type
           rdf:resource="http://purl.org/dc/dcmitype/StillImage" />
      </cc:Work>
    </rdf:RDF>
  </metadata>
  <sodipodi:namedview
     pagecolor="#ffffff"
     bordercolor="#666666"
     borderopacity="1"
     objecttolerance="1"
     gridtolerance="1"
     guidetolerance="1"
     inkscape:pageopacity="0"
     inkscape:pageshadow="2"
     inkscape:window-width="1920"
     inkscape:window-height="1057"
     id="namedview102"
     showgrid="true"
     inkscape:zoom="2.2342105"
     inkscape:cx="13.427562"
     inkscape:cy="190"
     inkscape:window-x="1592"
     inkscape:window-y="-8"
     inkscape:window-maximized="1"
     inkscape:current-layer="layer2"
     inkscape:pagecheckerboard="0"
     units="px"
     inkscape:showpageshadow="false"
     showguides="true">
    <inkscape:grid
       type="xygrid"
       id="grid1285"
       visible="false" />
  </sodipodi:namedview>
  <defs
     id="defs7">
    <rect
       x="85"
       y="10"
       width="51.058132"
       height="25"
       id="rect29906" />
    <linearGradient
       id="a8e142bb-541b-4903-be63-d5d069028a5d"
       x1="22.5"
       x2="22.5"
       y2="380"
       gradientUnits="userSpaceOnUse">
      <stop
         offset="0"
         stop-color="#ebebeb"
         id="stop2" />
      <stop
         offset="1"
         stop-color="#e1e1e1"
         id="stop4" />
    </linearGradient>
  </defs>
  <text
     xml:space="preserve"
     id="text29904"
     style="font-weight:bold;font-size:8px;line-height:1.25;font-family:Arial;-inkscape-font-specification:'Arial, Bold';font-variant-ligatures:none;text-align:center;white-space:pre;shape-inside:url(#rect29906)" />
  <g
     inkscape:groupmode="layer"
     id="layer6"
     inkscape:label="Faceplate"
     style="display:inline">
    <g
       id="aea613ef-74be-49bf-be45-c0734aee674b"
       data-name="FND BG"
       style="fill:#ede7dc;fill-opacity:1;stroke:none;stroke-width:1.48324;stroke-opacity:1"
       transform="scale(1.6666667,1)">
      <rect
         width="45"
         height="380"
         fill="url(#a8e142bb-541b-4903-be63-d5d069028a5d)"
         id="rect9"
         style="fill:#ede7dc;fill-opacity:1;stroke:none;stroke-width:1.48324;stroke-opacity:1"
         x="0"
         y="0" />
    </g>
  </g>
  <g
     inkscape:groupmode="layer"
     id="layer5"
     inkscape:label="Brand"
     style="display:inline">
    <g
       id="g42796"
       transform="matrix(0.30458296,0,0,0.30458296,14.437551,-12.68508)"
       style="fill:#ff0000">
      <g
         aria-label="enom"
         id="text4270-27"
         style="font-size:49.3889px;line-height:1.25;font-family:'NECK ROMANCER';-inkscape-font-specification:'NECK ROMANCER, Normal';font-variant-ligatures:none;text-align:center;text-anchor:middle;fill:#ff0000;stroke-width:2.64583">
        <path
           d="m 46.609141,1249.244 q 0,1.1576 0,3.4245 3.183269,0 9.453344,0 -1.639866,0.5787 -2.990343,1.2058 -1.350478,0.627 -2.363337,1.688 -1.350477,0 -4.051433,0 0,1.4952 0.434082,2.5563 0.385851,1.1093 1.832792,1.1093 2.266873,0 6.80062,0 0.482313,-0.1447 0.868164,-0.627 0.337619,-0.5305 0.627007,-1.7363 0,2.0257 0,6.1254 -3.520888,0 -10.562665,0 -1.543403,0 -2.652724,-2.2187 -1.109321,-2.1704 -1.109321,-6.3183 0,-1.9775 0,-5.836 -0.385851,-1.3504 -1.881023,-2.1221 -1.495171,-0.7235 -3.569119,-1.2058 6.607694,0 19.774852,0 0,2.9421 0,8.7781 -1.205783,-2.701 -2.218642,-3.6656 -1.012858,-0.9646 -2.700955,-1.1093 -0.916396,-0.097 -2.170411,-0.097 -1.205783,0.048 -2.845649,0.048 -0.241157,0 -0.675239,0 z"
           id="path42762"
           style="fill:#ff0000" />
        <path
           d="m 81.576869,1245.2891 q 0,5.8842 0,17.7009 0,3.0868 -0.144694,6.0771 -0.09646,3.0386 -0.337619,5.9325 -0.385851,-3.7138 -0.964627,-6.9936 -0.530545,-3.3279 -2.025717,-5.016 0,-2.9904 0,-8.9228 -0.241157,-1.3505 -0.72347,-2.2187 -0.482314,-0.8681 -1.06109,-1.3987 -1.109321,-1.0128 -2.411567,-1.1093 -1.350478,-0.097 -2.266874,-0.097 -0.482313,0 -1.44694,0 0,4.582 0,13.746 0,3.0868 -0.09646,6.0771 -0.144694,3.0386 -0.385851,5.9325 -0.38585,-3.7138 -0.916395,-6.9936 -0.578776,-3.3279 -2.025717,-5.016 0,-4.8232 0,-14.373 -0.385851,-1.3504 -1.881022,-2.1221 -1.495172,-0.7235 -3.56912,-1.2058 6.752389,0 20.257166,0 z"
           id="path42764"
           style="fill:#ff0000" />
        <path
           d="m 104.19737,1249.0511 q 0,3.3762 0,10.1768 0,1.5434 -1.92925,2.6528 -1.92926,1.1093 -6.077152,1.1093 -4.196128,0 -6.125382,-1.1093 -1.929254,-1.1094 -1.929254,-2.6528 0,-3.3762 0,-10.1768 0,-1.5434 1.929254,-2.6527 1.929254,-1.1093 6.125382,-1.1093 4.147892,0 6.077152,1.1093 1.92925,1.1093 1.92925,2.6527 z m -3.76204,7.91 q 0,-1.8811 0,-5.6431 0,-1.6881 -1.254019,-1.9775 -1.205783,-0.2894 -2.990343,-0.2894 -1.832792,0 -3.038575,0.2894 -1.254015,0.2894 -1.254015,1.9775 0,1.881 0,5.6431 0,1.6881 1.254015,1.9774 1.205783,0.2894 3.038575,0.2894 1.78456,0 2.990343,-0.2894 1.254019,-0.2893 1.254019,-1.9774 z"
           id="path42766"
           style="fill:#ff0000" />
        <path
           d="m 142.34837,1245.2891 q -2.02572,0.4823 -3.52089,1.2058 -1.5434,0.7717 -1.88102,2.1221 0,4.7749 0,14.373 -1.49517,1.6881 -2.02572,5.016 -0.57878,3.2798 -0.96463,6.9936 -0.24115,-2.8939 -0.33762,-5.9325 -0.14469,-2.9903 -0.14469,-6.0771 0,-4.582 0,-13.746 -0.48231,0 -1.39871,0 -0.53054,0 -1.15755,0 -0.62701,0 -1.30225,0.1447 -1.25401,0.2412 -2.41157,1.2058 -1.15755,0.9646 -1.63986,3.4727 0,2.9903 0,8.9228 -0.1447,0.627 -0.28939,1.1093 -0.0965,0.4823 -0.19292,0.8199 -0.53055,1.9775 -0.38586,1.3505 0.19293,-0.627 -0.28938,1.1576 -0.0965,0.3376 -0.24116,0.8681 -0.14469,0.5306 -0.33762,1.3023 -0.14469,-0.6753 -0.28939,-1.2058 -0.14469,-0.4823 -0.24115,-0.8199 -0.53055,-2.0258 -0.33762,-1.3023 0.19292,0.7717 -0.43409,-1.6881 -0.0482,-0.2894 -0.19292,-0.7235 -0.0965,-0.3858 -0.19293,-0.8681 0,-2.9904 0,-8.9228 -0.28939,-1.3505 -0.7717,-2.2187 -0.48231,-0.8681 -1.06109,-1.3987 -1.10932,-1.0128 -2.41157,-1.1093 -1.30224,-0.097 -2.26687,-0.097 -0.48231,0 -1.39871,0 0,4.582 0,13.746 0,3.0868 -0.14469,6.0771 -0.0965,3.0386 -0.33762,5.9325 -0.38585,-3.7138 -0.96463,-6.9936 -0.53054,-3.3279 -2.02572,-5.016 0,-4.8232 0,-14.373 -0.38585,-1.3504 -1.88102,-2.1221 -1.49517,-0.7235 -3.56912,-1.2058 3.95497,0 11.76845,0 1.15755,0.3858 3.47266,1.1575 0.7717,0.2894 1.59163,0.4341 0.81994,0.1447 1.6881,0.1447 0.86816,0 1.73633,-0.1447 0.81993,-0.1447 1.59163,-0.4341 1.15756,-0.3858 3.42443,-1.1575 3.95497,0 11.76845,0 z"
           id="path42768"
           style="fill:#ff0000" />
      </g>
      <g
         aria-label="V"
         transform="matrix(1.2363173,0,0,0.80885384,-497.88086,123.48586)"
         id="text4270-3-5-2"
         style="font-size:78.5061px;line-height:1.25;font-family:Nosferotica;-inkscape-font-specification:'Nosferotica, Normal';font-variant-ligatures:none;text-align:center;text-anchor:middle;fill:#ff0000;stroke-width:3.27108">
        <path
           d="m 431.64994,1360.6864 8.57428,-0.1022 c 0,0 -4.4079,1.0878 -5.59925,3.7285 -1.88083,4.1689 -3.64217,14.6628 -3.64217,14.6628 l -2.23339,11.5191 -1.83311,11.8311 -1.71824,21.3112 -1.69514,-21.3112 -1.92196,-11.5208 -2.5009,-11.8294 c 0,0 -1.52027,-10.287 -3.38278,-14.4832 -1.14458,-2.5787 -5.63367,-3.8059 -5.63367,-3.8059 h 8.4657 l 6.66875,29.1569 z"
           id="path30410"
           sodipodi:nodetypes="ccscccccccscccc"
           style="fill:#ff0000" />
      </g>
    </g>
  </g>
  <g
     inkscape:groupmode="layer"
     id="layer2"
     inkscape:label="Solids"
     style="display:inline">
    <rect
       x="39.5"
       y="317.35336"
       width="32"
       height="40.025871"
       rx="6.7336397"
       fill="#1f1f1f"
       id="rect56-3-2-4"
       style="display:inline;fill:#252525;fill-opacity:1;stroke-width:3.01385"
       ry="6.7336383" />
    <g
       aria-label="+1"
       id="text55750"
       style="font-weight:bold;font-size:8px;line-height:1.25;font-family:Arial;-inkscape-font-specification:'Arial, Bold';font-variant-ligatures:none;text-align:center;text-anchor:middle;display:inline;fill:#252525;fill-opacity:1">
      <path
         d="m 17.018492,30.110622 v -1.488281 h -1.5 v -1.027344 h 1.5 v -1.488281 h 1 v 1.488281 h 1.503906 v 1.027344 h -1.503906 v 1.488281 z"
         id="path58923"
         style="fill:#252525;fill-opacity:1" />
      <path
         d="m 23.006773,30.934841 h -1.097656 v -4.136719 q -0.601563,0.5625 -1.417969,0.832032 V 26.63406 q 0.429687,-0.140625 0.933594,-0.53125 0.503906,-0.394531 0.691406,-0.917969 h 0.890625 z"
         id="path58925"
         style="fill:#252525;fill-opacity:1" />
    </g>
    <g
       aria-label="0"
       id="text55750-4"
       style="font-weight:bold;font-size:8px;line-height:1.25;font-family:Arial;-inkscape-font-specification:'Arial, Bold';font-variant-ligatures:none;text-align:center;text-anchor:middle;display:inline;fill:#252525;fill-opacity:1">
      <path
         d="m 55.5,25.136013 q 0.832031,0 1.300781,0.59375 0.558594,0.703125 0.558594,2.332031 0,1.625 -0.5625,2.335938 -0.464844,0.585937 -1.296875,0.585937 -0.835938,0 -1.347656,-0.640625 -0.511719,-0.644531 -0.511719,-2.292968 0,-1.617188 0.5625,-2.328125 Q 54.667969,25.136013 55.5,25.136013 Z m 0,0.910156 q -0.199219,0 -0.355469,0.128907 -0.15625,0.125 -0.242187,0.453125 -0.113282,0.425781 -0.113282,1.433593 0,1.007813 0.101563,1.386719 0.101562,0.375 0.253906,0.5 0.15625,0.125 0.355469,0.125 0.199219,0 0.355469,-0.125 0.15625,-0.128906 0.242187,-0.457031 0.113281,-0.421875 0.113281,-1.429688 0,-1.007812 -0.101562,-1.382812 Q 56.007812,26.300076 55.851562,26.175076 55.699219,26.046169 55.5,26.046169 Z"
         id="path58928"
         style="fill:#252525;fill-opacity:1" />
    </g>
    <g
       aria-label="OCTAVER"
       id="text49243"
       style="font-weight:bold;font-size:13.3333px;line-height:1.25;font-family:Arial;-inkscape-font-specification:'Arial, Bold';font-variant-ligatures:none;text-align:center;text-anchor:middle;display:inline;fill:#252525;fill-opacity:1">
      <path
         d="m 6.2207815,11.875398 q 0,-1.458329 0.4361968,-2.44791 Q 6.9824984,8.6983232 7.5423928,8.1188975 8.1087976,7.5394719 8.7793688,7.2595247 9.6712936,6.8819215 10.836655,6.8819215 q 2.10937,0 3.372388,1.3085904 1.269528,1.3085905 1.269528,3.6393141 0,2.311192 -1.256508,3.619782 -1.256507,1.30208 -3.359366,1.30208 -2.128901,0 -3.3854082,-1.295569 -1.2565073,-1.30208 -1.2565073,-3.580721 z m 1.9856721,-0.0651 q 0,1.62109 0.748696,2.460932 0.748696,0.833331 1.9010364,0.833331 1.152341,0 1.888017,-0.826821 0.742185,-0.833331 0.742185,-2.493483 0,-1.640621 -0.722654,-2.4479106 -0.716144,-0.8072896 -1.907548,-0.8072896 -1.1914028,0 -1.9205676,0.8203104 -0.7291648,0.8137998 -0.7291648,2.4609308 z"
         id="path58931"
         style="fill:#252525;fill-opacity:1" />
      <path
         d="m 23.089229,13.079823 1.868485,0.592446 q -0.429687,1.562496 -1.432288,2.324213 -0.996091,0.755206 -2.532546,0.755206 -1.901037,0 -3.124992,-1.295569 -1.223955,-1.30208 -1.223955,-3.554679 0,-2.3828064 1.230465,-3.6979073 1.230466,-1.3216112 3.235669,-1.3216112 1.751298,0 2.845045,1.0351536 0.65104,0.6119777 0.97656,1.7578081 l -1.907547,0.4557278 q -0.16927,-0.7421854 -0.709634,-1.1718718 -0.533852,-0.4296864 -1.30208,-0.4296864 -1.061195,0 -1.725256,0.7617168 -0.65755,0.7617164 -0.65755,2.4674414 0,1.809892 0.65104,2.578119 0.65104,0.768227 1.692704,0.768227 0.768227,0 1.321611,-0.48828 0.553384,-0.48828 0.794269,-1.536454 z"
         id="path58933"
         style="fill:#252525;fill-opacity:1" />
      <path
         d="M 28.759788,16.588928 V 8.6592608 H 25.927764 V 7.0446815 h 7.584616 v 1.6145793 h -2.825514 v 7.9296672 z"
         id="path58935"
         style="fill:#252525;fill-opacity:1" />
      <path
         d="M 42.373033,16.588928 H 40.276684 L 39.443353,14.420965 H 35.628259 L 34.8405,16.588928 h -2.044265 l 3.717438,-9.5442465 h 2.037755 z M 38.824865,12.812896 37.509764,9.2712384 36.220705,12.812896 Z"
         id="path58937"
         style="fill:#252525;fill-opacity:1" />
      <path
         d="m 44.840477,16.588928 -3.41145,-9.5442465 h 2.089839 l 2.415358,7.0637845 2.337234,-7.0637845 h 2.044266 l -3.41796,9.5442465 z"
         id="path58939"
         style="fill:#252525;fill-opacity:1" />
      <path
         d="M 51.298791,16.588928 V 7.0446815 h 7.076805 V 8.6592608 H 53.22587 v 2.1158802 h 4.791654 V 12.38321 H 53.22587 v 2.597649 h 5.332017 v 1.608069 z"
         id="path58941"
         style="fill:#252525;fill-opacity:1" />
      <path
         d="M 60.198509,16.588928 V 7.0446815 h 4.055979 q 1.529944,0 2.220047,0.260416 0.696613,0.2539056 1.113278,0.911456 0.416666,0.6575505 0.416666,1.5039025 0,1.074216 -0.631509,1.777339 -0.631509,0.696613 -1.888016,0.878904 0.624998,0.364583 1.028643,0.80078 0.410155,0.436196 1.100258,1.549475 l 1.165362,1.861974 H 66.474535 L 65.081309,14.512111 Q 64.339124,13.398832 64.065687,13.112375 63.79225,12.819406 63.486261,12.71524 63.180272,12.604563 62.516212,12.604563 h -0.390624 v 3.984365 z m 1.927079,-5.507798 h 1.425777 q 1.386715,0 1.731767,-0.117188 0.345051,-0.117187 0.540363,-0.403644 0.195312,-0.286458 0.195312,-0.7161444 0,-0.4817696 -0.260416,-0.7747376 Q 65.504485,8.7699376 65.035736,8.6918128 64.801362,8.6592608 63.62949,8.6592608 h -1.503902 z"
         id="path58943"
         style="fill:#252525;fill-opacity:1" />
    </g>
    <g
       aria-label="-1"
       id="text55750-3"
       style="font-weight:bold;font-size:8px;line-height:1.25;font-family:Arial;-inkscape-font-specification:'Arial, Bold';font-variant-ligatures:none;text-align:center;text-anchor:middle;display:inline;fill:#252525;fill-opacity:1">
      <path
         d="m 16.818361,127.4838 v -1.09766 h 2.15625 v 1.09766 z"
         id="path58946"
         style="fill:#252525;fill-opacity:1" />
      <path
         d="m 22.181643,129.01114 h -1.097657 v -4.13672 q -0.601562,0.5625 -1.417968,0.83203 v -0.99609 q 0.429687,-0.14063 0.933593,-0.53125 0.503907,-0.39453 0.691407,-0.91797 h 0.890625 z"
         id="path58948"
         style="fill:#252525;fill-opacity:1" />
    </g>
    <g
       aria-label="-2"
       id="text55750-1"
       style="font-weight:bold;font-size:8px;line-height:1.25;font-family:Arial;-inkscape-font-specification:'Arial, Bold';font-variant-ligatures:none;text-align:center;text-anchor:middle;display:inline;fill:#252525;fill-opacity:1">
      <path
         d="m 52.034042,127.4838 v -1.09766 h 2.15625 v 1.09766 z"
         id="path58951"
         style="fill:#252525;fill-opacity:1" />
      <path
         d="m 58.295761,127.99161 v 1.01953 h -3.847656 q 0.0625,-0.57813 0.375,-1.09375 0.3125,-0.51953 1.234375,-1.375 0.742187,-0.69141 0.910156,-0.9375 0.226563,-0.33984 0.226563,-0.67188 0,-0.36718 -0.199219,-0.5625 -0.195313,-0.19921 -0.542969,-0.19921 -0.34375,0 -0.546875,0.20703 -0.203125,0.20703 -0.234375,0.6875 l -1.09375,-0.10938 q 0.09766,-0.90625 0.613281,-1.30078 0.515625,-0.39453 1.289063,-0.39453 0.847656,0 1.332031,0.45703 0.484375,0.45703 0.484375,1.13672 0,0.38672 -0.140625,0.73828 -0.136719,0.34766 -0.4375,0.73047 -0.199219,0.25391 -0.71875,0.73047 -0.519531,0.47656 -0.660156,0.63281 -0.136719,0.15625 -0.222656,0.30469 z"
         id="path58953"
         style="fill:#252525;fill-opacity:1" />
    </g>
    <g
       aria-label="TONE"
       id="text55750-33"
       style="font-weight:bold;font-size:8px;line-height:1.25;font-family:Arial;-inkscape-font-specification:'Arial, Bold';font-variant-ligatures:none;text-align:center;text-anchor:middle;display:inline;fill:#252525;fill-opacity:1">
      <path
         d="m 10.445314,226.903 v -4.75781 H 8.7460957 v -0.96875 h 4.5507813 v 0.96875 h -1.695313 v 4.75781 z"
         id="path58956"
         style="fill:#252525;fill-opacity:1" />
      <path
         d="m 13.664064,224.07487 q 0,-0.875 0.261719,-1.46875 0.195313,-0.4375 0.53125,-0.78515 0.339844,-0.34766 0.742188,-0.51563 0.535156,-0.22656 1.234375,-0.22656 1.265625,0 2.023437,0.78516 0.761719,0.78515 0.761719,2.18359 0,1.38672 -0.753906,2.17188 -0.753907,0.78125 -2.015625,0.78125 -1.277344,0 -2.03125,-0.77735 -0.753907,-0.78125 -0.753907,-2.14844 z m 1.191407,-0.0391 q 0,0.97266 0.449218,1.47656 0.449219,0.5 1.140625,0.5 0.691407,0 1.132813,-0.49609 0.445312,-0.5 0.445312,-1.49609 0,-0.98438 -0.433593,-1.46875 -0.429688,-0.48438 -1.144532,-0.48438 -0.714843,0 -1.152343,0.49219 -0.4375,0.48828 -0.4375,1.47656 z"
         id="path58958"
         style="fill:#252525;fill-opacity:1" />
      <path
         d="m 20.132814,226.903 v -5.72656 h 1.125 l 2.34375,3.82422 v -3.82422 h 1.074219 v 5.72656 h -1.160156 l -2.308594,-3.73438 v 3.73438 z"
         id="path58960"
         style="fill:#252525;fill-opacity:1" />
      <path
         d="m 25.898439,226.903 v -5.72656 h 4.246094 v 0.96875 h -3.089844 v 1.26953 h 2.875 v 0.96484 h -2.875 v 1.5586 h 3.199219 v 0.96484 z"
         id="path58962"
         style="fill:#252525;fill-opacity:1" />
    </g>
    <g
       aria-label="DRIVE"
       id="text55750-7"
       style="font-weight:bold;font-size:8px;line-height:1.25;font-family:Arial;-inkscape-font-specification:'Arial, Bold';font-variant-ligatures:none;text-align:center;text-anchor:middle;display:inline;fill:#252525;fill-opacity:1">
      <path
         d="m 43.428574,221.17644 h 2.113281 q 0.714844,0 1.089844,0.10937 0.503906,0.14844 0.863281,0.52735 0.359375,0.3789 0.546875,0.92968 0.1875,0.54688 0.1875,1.35157 0,0.70703 -0.175781,1.21875 -0.214844,0.625 -0.613282,1.01171 -0.300781,0.29297 -0.8125,0.45704 -0.382812,0.12109 -1.023437,0.12109 h -2.175781 z m 1.15625,0.96875 v 3.79297 h 0.863281 q 0.484375,0 0.699219,-0.0547 0.28125,-0.0703 0.464843,-0.23828 0.1875,-0.16797 0.304688,-0.55078 0.117187,-0.38672 0.117187,-1.05079 0,-0.66406 -0.117187,-1.01953 -0.117188,-0.35547 -0.328125,-0.55468 -0.210938,-0.19922 -0.535156,-0.26954 -0.242188,-0.0547 -0.949219,-0.0547 z"
         id="path58965"
         style="fill:#252525;fill-opacity:1" />
      <path
         d="m 49.21373,226.903 v -5.72656 h 2.433594 q 0.917968,0 1.332031,0.15625 0.417969,0.15234 0.667969,0.54687 0.25,0.39453 0.25,0.90235 0,0.64453 -0.378907,1.0664 -0.378906,0.41797 -1.132812,0.52735 0.375,0.21875 0.617187,0.48046 0.246094,0.26172 0.660157,0.92969 l 0.699218,1.11719 h -1.382812 l -0.835938,-1.24609 q -0.445312,-0.66797 -0.609375,-0.83985 -0.164062,-0.17578 -0.347656,-0.23828 -0.183594,-0.0664 -0.582031,-0.0664 H 50.36998 v 2.39063 z m 1.15625,-3.30469 h 0.855469 q 0.832031,0 1.039062,-0.0703 0.207031,-0.0703 0.324219,-0.24219 0.117187,-0.17187 0.117187,-0.42969 0,-0.28906 -0.15625,-0.46484 -0.152343,-0.17969 -0.433593,-0.22656 -0.140625,-0.0195 -0.84375,-0.0195 H 50.36998 Z"
         id="path58967"
         style="fill:#252525;fill-opacity:1" />
      <path
         d="m 54.952011,226.903 v -5.72656 h 1.15625 v 5.72656 z"
         id="path58969"
         style="fill:#252525;fill-opacity:1" />
      <path
         d="m 58.670761,226.903 -2.046875,-5.72656 h 1.253906 l 1.449219,4.23828 1.402344,-4.23828 h 1.226562 l -2.050781,5.72656 z"
         id="path58971"
         style="fill:#252525;fill-opacity:1" />
      <path
         d="m 62.545761,226.903 v -5.72656 h 4.246094 v 0.96875 h -3.089844 v 1.26953 h 2.875 v 0.96484 h -2.875 v 1.5586 h 3.199219 v 0.96484 z"
         id="path58973"
         style="fill:#252525;fill-opacity:1" />
    </g>
    <g
       aria-label="IN"
       id="text55750-33-6"
       style="font-weight:bold;font-size:8px;line-height:1.25;font-family:Arial;-inkscape-font-specification:'Arial, Bold';font-variant-ligatures:none;text-align:center;text-anchor:middle;display:inline;fill:#252525;fill-opacity:1">
      <path
         d="m 16.353914,326.92923 v -5.72656 h 1.15625 v 5.72656 z"
         id="path58976"
         style="fill:#252525;fill-opacity:1" />
      <path
         d="m 18.623446,326.92923 v -5.72656 h 1.125 l 2.34375,3.82422 v -3.82422 h 1.074218 v 5.72656 h -1.160156 l -2.308594,-3.73438 v 3.73438 z"
         id="path58978"
         style="fill:#252525;fill-opacity:1" />
    </g>
    <path
       style="color:#000000;fill:#252525;fill-opacity:1;stroke-dasharray:2, 2;-inkscape-stroke:none"
       d="m 19,45.5 v 2 h 1 v -2 z m 0,4 v 2 h 1 v -2 z m 0,4 v 2 h 1 v -2 z m 0,4 v 2 h 1 v -2 z m 0,4 v 2 h 1 v -2 z m 0,4 v 2 h 1 v -2 z m 0,4 v 2 h 1 v -2 z"
       id="path58669" />
    <path
       style="color:#000000;fill:#252525;fill-opacity:1;stroke-dasharray:2, 2;-inkscape-stroke:none"
       d="m 54.777344,45.5 v 2 h 1 v -2 z m 0,4 v 2 h 1 v -2 z m 0,4 v 2 h 1 v -2 z m 0,4 v 2 h 1 v -2 z m 0,4 v 2 h 1 v -2 z m 0,4 v 2 h 1 v -2 z m 0,4 v 2 h 1 v -2 z"
       id="path58669-9" />
    <path
       style="color:#000000;fill:#252525;fill-opacity:1;stroke-dasharray:2, 2;-inkscape-stroke:none"
       d="m 19,143.5 v 2 h 1 v -2 z m 0,4 v 2 h 1 v -2 z m 0,4 v 2 h 1 v -2 z m 0,4 v 2 h 1 v -2 z m 0,4 v 2 h 1 v -2 z m 0,4 v 2 h 1 v -2 z m 0,4 v 2 h 1 v -2 z"
       id="path58669-8" />
    <path
       style="color:#000000;fill:#252525;fill-opacity:1;stroke-dasharray:2, 2;-inkscape-stroke:none"
       d="m 54.664062,143.5 v 2 h 1 v -2 z m 0,4 v 2 h 1 v -2 z m 0,4 v 2 h 1 v -2 z m 0,4 v 2 h 1 v -2 z m 0,4 v 2 h 1 v -2 z m 0,4 v 2 h 1 v -2 z m 0,4 v 2 h 1 v -2 z"
       id="path58669-2" />
    <path
       style="color:#000000;fill:#252525;fill-opacity:1;stroke-dasharray:2, 2;-inkscape-stroke:none"
       d="m 19,241.5 v 2 h 1 v -2 z m 0,4 v 2 h 1 v -2 z m 0,4 v 2 h 1 v -2 z m 0,4 v 2 h 1 v -2 z m 0,4 v 2 h 1 v -2 z m 0,4 v 2 h 1 v -2 z m 0,4 v 2 h 1 v -2 z"
       id="path58669-5" />
    <path
       style="color:#000000;fill:#252525;fill-opacity:1;stroke-dasharray:2, 2;-inkscape-stroke:none"
       d="m 54.664062,241.5 v 2 h 1 v -2 z m 0,4 v 2 h 1 v -2 z m 0,4 v 2 h 1 v -2 z m 0,4 v 2 h 1 v -2 z m 0,4 v 2 h 1 v -2 z m 0,4 v 2 h 1 v -2 z m 0,4 v 2 h 1 v -2 z"
       id="path58669-7" />
    <path
       style="color:#000000;fill:#252525;fill-opacity:1;-inkscape-stroke:none"
       d="m 19,73 v 30 h 1 V 73 Z"
       id="path58669-4" />
    <path
       style="color:#000000;fill:#252525;fill-opacity:1;-inkscape-stroke:none"
       d="M 54.664062,73.000002 V 103 h 1 V 73.000002 Z"
       id="path58669-4-6" />
    <path
       style="color:#000000;fill:#252525;fill-opacity:1;-inkscape-stroke:none"
       d="m 19,171.18164 v 30 h 1 v -30 z"
       id="path58669-4-0" />
    <path
       style="color:#000000;fill:#252525;fill-opacity:1;-inkscape-stroke:none"
       d="m 54.664062,171.18164 v 30 h 1 v -30 z"
       id="path58669-4-3" />
    <path
       style="color:#000000;fill:#252525;fill-opacity:1;-inkscape-stroke:none"
       d="m 19,269.31445 v 30 h 1 v -30 z"
       id="path58669-4-62" />
    <path
       style="color:#000000;fill:#252525;fill-opacity:1;-inkscape-stroke:none"
       d="m 54.664062,269.31445 v 30 h 1 v -30 z"
       id="path58669-4-8" />
  </g>
  <g
     inkscape:groupmode="layer"
     id="layer3"
     inkscape:label="Faceplate Mask"
     style="display:inline" />
  <g
     inkscape:groupmode="layer"
     id="layer4"
     inkscape:label="Inverse Solids"
     style="display:inline">
    <g
       aria-label="OUT"
       id="text55750-7-4"
       style="font-weight:bold;font-size:8px;line-height:1.25;font-family:Arial;-inkscape-font-specification:'Arial, Bold';font-variant-ligatures:none;text-align:center;text-anchor:middle;display:inline;fill:#ede7dc">
      <path
         d="m 47.3125,324.1011 q 0,-0.875 0.261719,-1.46875 0.195312,-0.4375 0.53125,-0.78515 0.339843,-0.34766 0.742187,-0.51563 0.535156,-0.22656 1.234375,-0.22656 1.265625,0 2.023438,0.78516 0.761718,0.78515 0.761718,2.18359 0,1.38672 -0.753906,2.17188 -0.753906,0.78125 -2.015625,0.78125 -1.277344,0 -2.03125,-0.77735 Q 47.3125,325.46829 47.3125,324.1011 Z m 1.191406,-0.0391 q 0,0.97266 0.449219,1.47656 0.449219,0.5 1.140625,0.5 0.691406,0 1.132812,-0.49609 0.445313,-0.5 0.445313,-1.49609 0,-0.98438 -0.433594,-1.46875 -0.429687,-0.48438 -1.144531,-0.48438 -0.714844,0 -1.152344,0.49219 -0.4375,0.48828 -0.4375,1.47656 z"
         id="path58981" />
      <path
         d="m 53.761719,321.20267 h 1.15625 v 3.10156 q 0,0.73828 0.04297,0.95703 0.07422,0.35156 0.351563,0.56641 0.28125,0.21093 0.765625,0.21093 0.492187,0 0.742187,-0.19921 0.25,-0.20313 0.300782,-0.4961 0.05078,-0.29297 0.05078,-0.97265 v -3.16797 h 1.15625 v 3.00781 q 0,1.03125 -0.09375,1.45703 -0.09375,0.42578 -0.347656,0.71875 -0.25,0.29297 -0.671875,0.46875 -0.421875,0.17188 -1.101563,0.17188 -0.820312,0 -1.246094,-0.1875 -0.421875,-0.19141 -0.667968,-0.49219 -0.246094,-0.30469 -0.324219,-0.63672 -0.113281,-0.49219 -0.113281,-1.45313 z"
         id="path58983" />
      <path
         d="m 60.835937,326.92923 v -4.75781 h -1.699218 v -0.96875 H 63.6875 v 0.96875 h -1.695313 v 4.75781 z"
         id="path58985" />
    </g>
  </g>
  <g
     inkscape:groupmode="layer"
     id="layer1"
     inkscape:label="Widgets"
     style="display:none">
    <circle
       style="display:inline;fill:#ff0000;stroke:#ff0000;stroke-width:1.94925;stroke-opacity:1"
       id="path1065-72-8-6-3-8-6-6"
       cx="19.5"
       cy="102.5"
       r="10.525375" />
    <circle
       style="display:inline;fill:#ff0000;stroke:#ff0000;stroke-width:1.94925;stroke-opacity:1"
       id="path1065-72-8-6-3-8-6-6-4"
       cx="55.5"
       cy="102.5"
       r="10.525375" />
    <circle
       style="display:inline;fill:#ff0000;stroke:#ff0000;stroke-width:1.94925;stroke-opacity:1"
       id="path1065-72-8-6-3-8-6-5"
       cx="19.5"
       cy="45.000362"
       r="10.025375" />
    <circle
       style="display:inline;fill:#ff0000;stroke:#ff0000;stroke-width:1.94925;stroke-opacity:1"
       id="path1065-72-8-6-3-8-6-5-8"
       cx="19.5"
       cy="73.5"
       r="7.5253749" />
    <circle
       style="display:inline;fill:#ff0000;stroke:#ff0000;stroke-width:1.94925;stroke-opacity:1"
       id="path1065-72-8-6-3-8-6-5-8-9"
       cx="55.5"
       cy="73.5"
       r="7.5253749" />
    <circle
       style="display:inline;fill:#ff0000;stroke:#ff0000;stroke-width:1.94925;stroke-opacity:1"
       id="path1065-72-8-6-3-8-6-3"
       cx="55.5"
       cy="45.000362"
       r="10.025375" />
    <circle
       style="display:inline;fill:#ff0000;stroke:#ff0000;stroke-width:1.94925;stroke-opacity:1"
       id="path1065-72-8-6-3-8-6-6-2"
       cx="19.5"
       cy="200.5"
       r="10.525375" />
    <circle
       style="display:inline;fill:#ff0000;stroke:#ff0000;stroke-width:1.94925;stroke-opacity:1"
       id="path1065-72-8-6-3-8-6-6-4-3"
       cx="55.5"
       cy="200.5"
       r="10.525375" />
    <circle
       style="display:inline;fill:#ff0000;stroke:#ff0000;stroke-width:1.94925;stroke-opacity:1"
       id="path1065-72-8-6-3-8-6-5-0"
       cx="19.5"
       cy="142.99995"
       r="10.025375" />
    <circle
       style="display:inline;fill:#ff0000;stroke:#ff0000;stroke-width:1.94925;stroke-opacity:1"
       id="path1065-72-8-6-3-8-6-5-8-3"
       cx="19.5"
       cy="171.5"
       r="7.5253749" />
    <circle
       style="display:inline;fill:#ff0000;stroke:#ff0000;stroke-width:1.94925;stroke-opacity:1"
       id="path1065-72-8-6-3-8-6-5-8-9-3"
       cx="55.5"
       cy="171.5"
       r="7.5253749" />
    <circle
       style="display:inline;fill:#ff0000;stroke:#ff0000;stroke-width:1.94925;stroke-opacity:1"
       id="path1065-72-8-6-3-8-6-3-7"
       cx="55.5"
       cy="142.99995"
       r="10.025375" />
    <circle
       style="display:inline;fill:#ff0000;stroke:#ff0000;stroke-width:1.94925;stroke-opacity:1"
       id="path1065-72-8-6-3-8-6-6-2-6"
       cx="19.5"
       cy="298.5"
       r="10.525375" />
    <circle
       style="display:inline;fill:#ff0000;stroke:#ff0000;stroke-width:1.94925;stroke-opacity:1"
       id="path1065-72-8-6-3-8-6-6-4-3-8"
       cx="55.5"
       cy="298.5"
       r="10.525375" />
    <circle
       style="display:inline;fill:#ff0000;stroke:#ff0000;stroke-width:1.94925;stroke-opacity:1"
       id="path1065-72-8-6-3-8-6-5-0-4"
       cx="19.5"
       cy="241.0002"
       r="10.025375" />
    <circle
       style="display:inline;fill:#ff0000;stroke:#ff0000;stroke-width:1.94925;stroke-opacity:1"
       id="path1065-72-8-6-3-8-6-5-8-3-0"
       cx="19.5"
       cy="269.5"
       r="7.5253749" />
    <circle
       style="display:inline;fill:#ff0000;stroke:#ff0000;stroke-width:1.94925;stroke-opacity:1"
       id="path1065-72-8-6-3-8-6-5-8-9-3-3"
       cx="55.5"
       cy="269.5"
       r="7.5253749" />
    <circle
       style="display:inline;fill:#ff0000;stroke:#ff0000;stroke-width:1.94925;stroke-opacity:1"
       id="path1065-72-8-6-3-8-6-3-7-4"
       cx="55.5"
       cy="241.0002"
       r="10.025375" />
    <circle
       style="display:inline;fill:#ff0000;stroke:#ff0000;stroke-width:1.94925;stroke-opacity:1"
       id="path1065-72-8-6-3-8-61"
       cx="19.5"
       cy="341.5"
       r="10.525375" />
    <circle
       style="display:inline;fill:#ff0000;stroke:#ff0000;stroke-width:1.94925;stroke-opacity:1"
       id="path1065-72-8-6-3-8-6-4"
       cx="55.5"
       cy="341.5"
       r="10.525375" />
  </g>
</svg>
