<?xml version="1.0" encoding="UTF-8" standalone="no"?>
<svg
   width="45"
   height="380"
   viewBox="0 0 45 380"
   version="1.1"
   id="svg100"
   sodipodi:docname="Offset_Ivory.svg"
   inkscape:version="1.1.1 (3bf5ae0d25, 2021-09-20)"
   xmlns:inkscape="http://www.inkscape.org/namespaces/inkscape"
   xmlns:sodipodi="http://sodipodi.sourceforge.net/DTD/sodipodi-0.dtd"
   xmlns="http://www.w3.org/2000/svg"
   xmlns:svg="http://www.w3.org/2000/svg"
   xmlns:rdf="http://www.w3.org/1999/02/22-rdf-syntax-ns#"
   xmlns:cc="http://creativecommons.org/ns#"
   xmlns:dc="http://purl.org/dc/elements/1.1/">
  <metadata
     id="metadata104">
    <rdf:RDF>
      <cc:Work
         rdf:about="">
        <dc:format>image/svg+xml</dc:format>
        <dc:type
           rdf:resource="http://purl.org/dc/dcmitype/StillImage" />
      </cc:Work>
    </rdf:RDF>
  </metadata>
  <sodipodi:namedview
     pagecolor="#ffffff"
     bordercolor="#666666"
     borderopacity="1"
     objecttolerance="1"
     gridtolerance="1"
     guidetolerance="1"
     inkscape:pageopacity="0"
     inkscape:pageshadow="2"
     inkscape:window-width="1600"
     inkscape:window-height="837"
     id="namedview102"
     showgrid="true"
     inkscape:zoom="2.2342105"
     inkscape:cx="25.73616"
     inkscape:cy="117.04358"
     inkscape:window-x="-8"
     inkscape:window-y="-8"
     inkscape:window-maximized="1"
     inkscape:current-layer="f45e0130-37b7-4f8b-95b3-6408baa23eb1"
     inkscape:pagecheckerboard="0"
     units="px"
     inkscape:showpageshadow="false"
     showborder="true">
    <inkscape:grid
       type="xygrid"
       id="grid1285" />
  </sodipodi:namedview>
  <defs
     id="defs7">
    <rect
       x="85"
       y="10"
       width="51.058132"
       height="25"
       id="rect29906" />
    <linearGradient
       id="a8e142bb-541b-4903-be63-d5d069028a5d"
       x1="22.5"
       x2="22.5"
       y2="380"
       gradientUnits="userSpaceOnUse">
      <stop
         offset="0"
         stop-color="#ebebeb"
         id="stop2" />
      <stop
         offset="1"
         stop-color="#e1e1e1"
         id="stop4" />
    </linearGradient>
  </defs>
  <g
     id="aea613ef-74be-49bf-be45-c0734aee674b"
     data-name="FND BG"
     style="fill:#ede7dc;fill-opacity:1">
    <rect
       width="45"
       height="380"
       fill="url(#a8e142bb-541b-4903-be63-d5d069028a5d)"
       id="rect9"
       style="fill:#ede7dc;fill-opacity:1"
       x="0"
       y="0" />
  </g>
  <g
     id="f45e0130-37b7-4f8b-95b3-6408baa23eb1"
     data-name="components"
     style="display:inline"
     inkscape:groupmode="layer">
    <g
       id="g39194">
      <g
         aria-label="MIX"
         id="text9323"
         style="font-weight:bold;font-size:8px;line-height:1.25;font-family:Arial;-inkscape-font-specification:'Arial, Bold';font-variant-ligatures:none;text-align:center;text-anchor:middle;fill:#252525;fill-opacity:1"
         transform="translate(-12.837259,3.3210526)">
        <path
           d="m 15.514994,151.97157 v -5.72656 h 1.730468 l 1.039063,3.90625 1.027344,-3.90625 h 1.734375 v 5.72656 h -1.074219 v -4.50781 l -1.136719,4.50781 h -1.113281 l -1.132813,-4.50781 v 4.50781 z"
           id="path79773"
           style="fill:#252525;fill-opacity:1" />
        <path
           d="m 22.159525,151.97157 v -5.72656 h 1.15625 v 5.72656 z"
           id="path79775"
           style="fill:#252525;fill-opacity:1" />
        <path
           d="m 23.835306,151.97157 1.957031,-2.98828 -1.773437,-2.73828 h 1.351562 l 1.148438,1.83984 1.125,-1.83984 h 1.339844 l -1.78125,2.78125 1.957031,2.94531 h -1.394531 l -1.269532,-1.98047 -1.273437,1.98047 z"
           id="path79777"
           style="fill:#252525;fill-opacity:1" />
      </g>
      <g
         aria-label="MIX"
         id="text9323-7"
         style="font-weight:bold;font-size:8px;line-height:1.25;font-family:Arial;-inkscape-font-specification:'Arial, Bold';font-variant-ligatures:none;text-align:center;text-anchor:middle;display:inline;fill:#252525;fill-opacity:1"
         transform="translate(-12.837259,173.20973)">
        <path
           d="m 15.514994,151.97157 v -5.72656 h 1.730468 l 1.039063,3.90625 1.027344,-3.90625 h 1.734375 v 5.72656 h -1.074219 v -4.50781 l -1.136719,4.50781 h -1.113281 l -1.132813,-4.50781 v 4.50781 z"
           id="path79773-0"
           style="fill:#252525;fill-opacity:1" />
        <path
           d="m 22.159525,151.97157 v -5.72656 h 1.15625 v 5.72656 z"
           id="path79775-5"
           style="fill:#252525;fill-opacity:1" />
        <path
           d="m 23.835306,151.97157 1.957031,-2.98828 -1.773437,-2.73828 h 1.351562 l 1.148438,1.83984 1.125,-1.83984 h 1.339844 l -1.78125,2.78125 1.957031,2.94531 h -1.394531 l -1.269532,-1.98047 -1.273437,1.98047 z"
           id="path79777-8"
           style="fill:#252525;fill-opacity:1" />
      </g>
      <g
         id="g151718"
         transform="translate(2,-8)">
        <g
           aria-label="1"
           id="text9323-6"
           style="font-weight:bold;font-size:8px;line-height:1.25;font-family:Arial;-inkscape-font-specification:'Arial, Bold';font-variant-ligatures:none;text-align:center;text-anchor:middle;fill:#252525;fill-opacity:1"
           transform="translate(-4.1072622,18.003054)">
          <path
             d="m 11.419762,27.167337 h -1.097657 v -4.136718 q -0.6015621,0.5625 -1.4179683,0.832031 v -0.996094 q 0.4296875,-0.140625 0.9335937,-0.53125 0.5039066,-0.394531 0.6914066,-0.917969 h 0.890625 z"
             id="path79761"
             style="fill:#252525;fill-opacity:1" />
        </g>
        <g
           aria-label="2"
           id="text9323-6-3"
           style="font-weight:bold;font-size:8px;line-height:1.25;font-family:Arial;-inkscape-font-specification:'Arial, Bold';font-variant-ligatures:none;text-align:center;text-anchor:middle;fill:#252525;fill-opacity:1"
           transform="translate(-4.1072628,16.503048)">
          <path
             d="m 12.085778,58.387432 v 1.019531 H 8.238122 q 0.0625,-0.578125 0.375,-1.09375 0.3125,-0.519531 1.234375,-1.375 0.742187,-0.691406 0.910156,-0.9375 0.226563,-0.339843 0.226563,-0.671875 0,-0.367187 -0.199219,-0.5625 -0.195313,-0.199218 -0.542969,-0.199218 -0.3437498,0 -0.5468748,0.207031 -0.203125,0.207031 -0.234375,0.6875 l -1.09375,-0.109375 q 0.097656,-0.90625 0.6132813,-1.300781 0.515625,-0.394532 1.2890625,-0.394532 0.847656,0 1.332031,0.457032 0.484375,0.457031 0.484375,1.136718 0,0.386719 -0.140625,0.738282 -0.136719,0.347656 -0.4375,0.730468 -0.199219,0.253907 -0.71875,0.730469 -0.519531,0.476563 -0.660156,0.632813 -0.1367188,0.15625 -0.2226563,0.304687 z"
             id="path79764"
             style="fill:#252525;fill-opacity:1" />
        </g>
        <g
           aria-label="3"
           id="text9323-6-3-4"
           style="font-weight:bold;font-size:8px;line-height:1.25;font-family:Arial;-inkscape-font-specification:'Arial, Bold';font-variant-ligatures:none;text-align:center;text-anchor:middle;fill:#252525;fill-opacity:1"
           transform="translate(-4.107262,15.003044)">
          <path
             d="m 8.2596054,90.078224 1.0625,-0.128906 q 0.050781,0.40625 0.2734375,0.621094 0.2226563,0.214843 0.5390621,0.214843 0.339844,0 0.570313,-0.257812 0.234375,-0.257813 0.234375,-0.695313 0,-0.414062 -0.222656,-0.65625 -0.222657,-0.242187 -0.542969,-0.242187 -0.2109376,0 -0.5039063,0.08203 l 0.1210937,-0.894531 q 0.4453126,0.01172 0.6796876,-0.191406 0.234375,-0.207032 0.234375,-0.546875 0,-0.289063 -0.171875,-0.460938 -0.171875,-0.171875 -0.457031,-0.171875 -0.2812503,0 -0.4804691,0.195313 -0.1992187,0.195312 -0.2421875,0.570312 L 8.3416367,87.343849 q 0.1054687,-0.519531 0.3164062,-0.828125 0.2148438,-0.3125 0.59375,-0.488281 0.3828125,-0.179688 0.8554691,-0.179688 0.808593,0 1.296875,0.515625 0.402343,0.421875 0.402343,0.953125 0,0.753907 -0.824218,1.203125 0.492187,0.105469 0.785156,0.472657 0.296875,0.367187 0.296875,0.886718 0,0.753907 -0.550781,1.285157 -0.550782,0.53125 -1.371094,0.53125 -0.7773438,0 -1.2890626,-0.445313 -0.5117187,-0.449219 -0.59375,-1.171875 z"
             id="path79767"
             style="fill:#252525;fill-opacity:1" />
        </g>
        <g
           aria-label="4"
           id="text9323-6-3-4-7"
           style="font-weight:bold;font-size:8px;line-height:1.25;font-family:Arial;-inkscape-font-specification:'Arial, Bold';font-variant-ligatures:none;text-align:center;text-anchor:middle;fill:#252525;fill-opacity:1"
           transform="translate(-4.107263,13.503052)">
          <path
             d="m 10.447106,123.8862 v -1.15234 H 8.1033564 v -0.96094 l 2.4843746,-3.63672 h 0.921875 v 3.63281 h 0.710938 v 0.96485 h -0.710938 v 1.15234 z m 0,-2.11719 v -1.95703 l -1.3164059,1.95703 z"
             id="path79770"
             style="fill:#252525;fill-opacity:1" />
        </g>
      </g>
      <g
         id="g151728"
         transform="translate(2,-8)">
        <g
           aria-label="1"
           id="text9323-6-6"
           style="font-weight:bold;font-size:8px;line-height:1.25;font-family:Arial;-inkscape-font-specification:'Arial, Bold';font-variant-ligatures:none;text-align:center;text-anchor:middle;fill:#252525;fill-opacity:1"
           transform="translate(-4.1072622,17.410017)">
          <path
             d="m 11.419762,194.86545 h -1.097657 v -4.13672 q -0.6015621,0.5625 -1.4179683,0.83203 v -0.99609 q 0.4296875,-0.14063 0.9335937,-0.53125 0.5039066,-0.39453 0.6914066,-0.91797 h 0.890625 z"
             id="path79780"
             style="fill:#252525;fill-opacity:1" />
        </g>
        <g
           aria-label="2"
           id="text9323-6-3-6"
           style="font-weight:bold;font-size:8px;line-height:1.25;font-family:Arial;-inkscape-font-specification:'Arial, Bold';font-variant-ligatures:none;text-align:center;text-anchor:middle;fill:#252525;fill-opacity:1"
           transform="translate(-4.1072628,16.089464)">
          <path
             d="m 12.085778,227.08554 v 1.01953 H 8.238122 q 0.0625,-0.57812 0.375,-1.09375 0.3125,-0.51953 1.234375,-1.375 0.742187,-0.6914 0.910156,-0.9375 0.226563,-0.33984 0.226563,-0.67187 0,-0.36719 -0.199219,-0.5625 -0.195313,-0.19922 -0.542969,-0.19922 -0.3437498,0 -0.5468748,0.20703 -0.203125,0.20703 -0.234375,0.6875 l -1.09375,-0.10938 q 0.097656,-0.90625 0.6132813,-1.30078 0.515625,-0.39453 1.2890625,-0.39453 0.847656,0 1.332031,0.45703 0.484375,0.45703 0.484375,1.13672 0,0.38672 -0.140625,0.73828 -0.136719,0.34766 -0.4375,0.73047 -0.199219,0.25391 -0.71875,0.73047 -0.519531,0.47656 -0.660156,0.63281 -0.1367188,0.15625 -0.2226563,0.30469 z"
             id="path79783"
             style="fill:#252525;fill-opacity:1" />
        </g>
        <g
           aria-label="3"
           id="text9323-6-3-4-2"
           style="font-weight:bold;font-size:8px;line-height:1.25;font-family:Arial;-inkscape-font-specification:'Arial, Bold';font-variant-ligatures:none;text-align:center;text-anchor:middle;fill:#252525;fill-opacity:1"
           transform="translate(-4.107262,14.768952)">
          <path
             d="m 8.2596054,259.77634 1.0625,-0.12891 q 0.050781,0.40625 0.2734375,0.62109 0.2226563,0.21485 0.5390621,0.21485 0.339844,0 0.570313,-0.25781 0.234375,-0.25782 0.234375,-0.69532 0,-0.41406 -0.222656,-0.65625 -0.222657,-0.24218 -0.542969,-0.24218 -0.2109376,0 -0.5039063,0.082 l 0.1210937,-0.89453 q 0.4453126,0.0117 0.6796876,-0.19141 0.234375,-0.20703 0.234375,-0.54688 0,-0.28906 -0.171875,-0.46093 -0.171875,-0.17188 -0.457031,-0.17188 -0.2812503,0 -0.4804691,0.19531 -0.1992187,0.19532 -0.2421875,0.57032 l -1.0117187,-0.17188 q 0.1054687,-0.51953 0.3164062,-0.82812 0.2148438,-0.3125 0.59375,-0.48828 0.3828125,-0.17969 0.8554691,-0.17969 0.808593,0 1.296875,0.51562 0.402343,0.42188 0.402343,0.95313 0,0.7539 -0.824218,1.20312 0.492187,0.10547 0.785156,0.47266 0.296875,0.36719 0.296875,0.88672 0,0.7539 -0.550781,1.28515 -0.550782,0.53125 -1.371094,0.53125 -0.7773438,0 -1.2890626,-0.44531 -0.5117187,-0.44922 -0.59375,-1.17187 z"
             id="path79786"
             style="fill:#252525;fill-opacity:1" />
        </g>
        <g
           aria-label="4"
           id="text9323-6-3-4-7-9"
           style="font-weight:bold;font-size:8px;line-height:1.25;font-family:Arial;-inkscape-font-specification:'Arial, Bold';font-variant-ligatures:none;text-align:center;text-anchor:middle;fill:#252525;fill-opacity:1"
           transform="translate(-4.107263,13.448364)">
          <path
             d="m 10.447106,294.58432 v -1.15234 H 8.1033564 v -0.96094 l 2.4843746,-3.63672 h 0.921875 v 3.63281 h 0.710938 v 0.96485 h -0.710938 v 1.15234 z m 0,-2.11719 v -1.95703 l -1.3164059,1.95703 z"
             id="path79789"
             style="fill:#252525;fill-opacity:1" />
        </g>
      </g>
      <g
         aria-label="OFFSET"
         id="text9977"
         style="font-weight:bold;font-size:10.6667px;line-height:1.25;font-family:Arial;-inkscape-font-specification:'Arial, Bold';font-variant-ligatures:none;text-align:center;text-anchor:middle">
        <path
           d="m 1.9217159,11.769791 q 0,-1.166671 0.3489594,-1.9583397 Q 2.5310928,9.2281161 2.9790109,8.764573 3.4321374,8.3010299 3.9685974,8.0770708 4.6821413,7.7749865 5.6144359,7.7749865 q 1.6875053,0 2.6979252,1.0468783 1.0156282,1.0468783 1.0156282,2.9114672 0,1.848965 -1.0052115,2.895843 -1.0052115,1.04167 -2.6875085,1.04167 -1.7031304,0 -2.7083419,-1.036462 -1.0052115,-1.04167 -1.0052115,-2.864592 z m 1.5885467,-0.05208 q 0,1.296879 0.5989602,1.968757 0.5989602,0.666668 1.5208382,0.666668 0.9218779,0 1.5104214,-0.66146 0.5937519,-0.666669 0.5937519,-1.994798 0,-1.312504 -0.5781269,-1.9583396 Q 6.583189,9.092699 5.630061,9.092699 q -0.953128,0 -1.5364632,0.6562521 -0.5833352,0.6510439 -0.5833352,1.9687559 z"
           id="path39105" />
        <path
           d="M 10.541534,15.540636 V 7.9051953 h 5.234392 V 9.196866 h -3.69272 v 1.807297 h 3.18751 v 1.291671 h -3.18751 v 3.244802 z"
           id="path39107" />
        <path
           d="M 17.057179,15.540636 V 7.9051953 h 5.234392 V 9.196866 h -3.69272 v 1.807297 h 3.18751 v 1.291671 h -3.18751 v 3.244802 z"
           id="path39109" />
        <path
           d="m 23.171782,13.056253 1.500005,-0.145834 q 0.135417,0.755211 0.546877,1.109379 0.416668,0.354168 1.119795,0.354168 0.744794,0 1.119795,-0.312501 0.38021,-0.31771 0.38021,-0.739586 0,-0.270834 -0.161459,-0.458335 -0.156251,-0.192709 -0.552085,-0.333334 -0.270834,-0.09375 -1.234379,-0.333335 -1.239587,-0.307292 -1.739589,-0.75521 -0.703127,-0.630211 -0.703127,-1.5364634 0,-0.5833352 0.328126,-1.0885451 0.333334,-0.5104183 0.953128,-0.7760441 0.625002,-0.2656259 1.505213,-0.2656259 1.437505,0 2.161465,0.6302104 0.729169,0.6302103 0.765628,1.6822971 l -1.541672,0.06771 Q 27.520754,9.5666589 27.192628,9.3114497 26.869711,9.0510322 26.218667,9.0510322 q -0.671877,0 -1.052087,0.2760426 -0.244792,0.1770839 -0.244792,0.4739598 0,0.2708344 0.229167,0.4635434 0.291668,0.244792 1.416671,0.510418 1.125004,0.265626 1.661464,0.552085 0.541668,0.281251 0.843753,0.776044 0.307292,0.489585 0.307292,1.213546 0,0.656252 -0.364584,1.22917 -0.364585,0.572919 -1.031253,0.85417 -0.666669,0.276042 -1.661464,0.276042 -1.447921,0 -2.223965,-0.666669 -0.776044,-0.671877 -0.927087,-1.953131 z"
           id="path39111" />
        <path
           d="M 30.677016,15.540636 V 7.9051953 h 5.661476 V 9.196866 h -4.119805 v 1.692714 h 3.833345 v 1.286462 h -3.833345 v 2.078132 h 4.265639 v 1.286462 z"
           id="path39113" />
        <path
           d="M 39.510376,15.540636 V 9.196866 H 37.244744 V 7.9051953 h 6.067727 V 9.196866 h -2.260424 v 6.34377 z"
           id="path39115" />
      </g>
      <g
         aria-label="PRE"
         id="text17681"
         style="font-weight:bold;font-size:8px;line-height:1.25;font-family:Arial;-inkscape-font-specification:'Arial, Bold';font-variant-ligatures:none;text-align:center;text-anchor:middle">
        <path
           d="m 14.765625,28.248926 v -5.726562 h 1.855469 q 1.054687,0 1.375,0.08594 0.492187,0.128906 0.824218,0.5625 0.332032,0.429688 0.332032,1.113281 0,0.527344 -0.191407,0.886719 -0.191406,0.359375 -0.488281,0.566406 -0.292969,0.203125 -0.597656,0.269532 -0.414063,0.08203 -1.199219,0.08203 h -0.753906 v 2.160156 z m 1.15625,-4.757812 v 1.625 h 0.632812 q 0.683594,0 0.914063,-0.08984 0.230469,-0.08984 0.359375,-0.28125 0.132812,-0.191406 0.132812,-0.445313 0,-0.3125 -0.183593,-0.515625 Q 17.59375,23.580961 17.3125,23.53018 17.105469,23.49112 16.480469,23.49112 Z"
           id="path39118" />
        <path
           d="m 20.105469,28.248926 v -5.726562 h 2.433593 q 0.917969,0 1.332032,0.15625 0.417968,0.152343 0.667968,0.546875 0.25,0.394531 0.25,0.902343 0,0.644532 -0.378906,1.066407 -0.378906,0.417968 -1.132812,0.527343 0.375,0.21875 0.617187,0.480469 0.246094,0.261719 0.660156,0.929688 l 0.699219,1.117187 h -1.382812 l -0.835938,-1.246094 q -0.445312,-0.667968 -0.609375,-0.839843 -0.164062,-0.175782 -0.347656,-0.238282 -0.183594,-0.06641 -0.582031,-0.06641 h -0.234375 v 2.390625 z m 1.15625,-3.304687 h 0.855468 q 0.832032,0 1.039063,-0.07031 0.207031,-0.07031 0.324219,-0.242187 0.117187,-0.171875 0.117187,-0.429688 0,-0.289062 -0.15625,-0.464844 -0.152344,-0.179687 -0.433594,-0.226562 -0.140625,-0.01953 -0.84375,-0.01953 h -0.902343 z"
           id="path39120" />
        <path
           d="M 25.878906,28.248926 V 22.522364 H 30.125 v 0.96875 h -3.089844 v 1.269531 h 2.875 v 0.964844 h -2.875 v 1.558593 h 3.199219 v 0.964844 z"
           id="path39122" />
      </g>
      <g
         aria-label="POST"
         id="text17681-8"
         style="font-weight:bold;font-size:8px;line-height:1.25;font-family:Arial;-inkscape-font-specification:'Arial, Bold';font-variant-ligatures:none;text-align:center;text-anchor:middle;display:inline">
        <path
           d="m 11.982422,195.36142 v -5.72656 h 1.855469 q 1.054687,0 1.375,0.0859 0.492187,0.12891 0.824218,0.5625 0.332032,0.42969 0.332032,1.11329 0,0.52734 -0.191407,0.88671 -0.191406,0.35938 -0.488281,0.56641 -0.292969,0.20313 -0.597656,0.26953 -0.414063,0.082 -1.199219,0.082 h -0.753906 v 2.16016 z m 1.15625,-4.75781 v 1.625 h 0.632812 q 0.683594,0 0.914063,-0.0899 0.230469,-0.0898 0.359375,-0.28125 0.132812,-0.1914 0.132812,-0.44531 0,-0.3125 -0.183593,-0.51562 -0.183594,-0.20313 -0.464844,-0.25391 -0.207031,-0.0391 -0.832031,-0.0391 z"
           id="path39125" />
        <path
           d="m 17.083984,192.53329 q 0,-0.875 0.261719,-1.46875 0.195313,-0.4375 0.53125,-0.78515 0.339844,-0.34766 0.742188,-0.51563 0.535156,-0.22656 1.234375,-0.22656 1.265625,0 2.023437,0.78516 0.761719,0.78515 0.761719,2.18359 0,1.38672 -0.753906,2.17188 -0.753907,0.78125 -2.015625,0.78125 -1.277344,0 -2.03125,-0.77735 -0.753907,-0.78125 -0.753907,-2.14844 z m 1.191407,-0.0391 q 0,0.97266 0.449218,1.47656 0.449219,0.5 1.140625,0.5 0.691407,0 1.132813,-0.49609 0.445312,-0.5 0.445312,-1.49609 0,-0.98438 -0.433593,-1.46875 -0.429688,-0.48438 -1.144532,-0.48438 -0.714843,0 -1.152343,0.49219 -0.4375,0.48828 -0.4375,1.47656 z"
           id="path39127" />
        <path
           d="m 23.248047,193.49814 1.125,-0.10938 q 0.101562,0.56641 0.410156,0.83203 0.3125,0.26563 0.839844,0.26563 0.558594,0 0.839844,-0.23438 0.285156,-0.23828 0.285156,-0.55468 0,-0.20313 -0.121094,-0.34375 -0.117187,-0.14453 -0.414062,-0.25 -0.203125,-0.0703 -0.925782,-0.25 -0.929687,-0.23047 -1.304687,-0.56641 -0.527344,-0.47266 -0.527344,-1.15234 0,-0.4375 0.246094,-0.81641 0.25,-0.38281 0.714844,-0.58203 0.46875,-0.19922 1.128906,-0.19922 1.078125,0 1.621094,0.47266 0.546875,0.47265 0.574218,1.26172 l -1.15625,0.0508 q -0.07422,-0.44141 -0.320312,-0.63282 -0.242188,-0.19531 -0.730469,-0.19531 -0.503906,0 -0.789062,0.20703 -0.183594,0.13282 -0.183594,0.35547 0,0.20313 0.171875,0.34766 0.21875,0.18359 1.0625,0.38281 0.84375,0.19922 1.246094,0.41406 0.40625,0.21094 0.632812,0.58203 0.230469,0.36719 0.230469,0.91016 0,0.49219 -0.273438,0.92188 -0.273437,0.42968 -0.773437,0.64062 -0.5,0.20703 -1.246094,0.20703 -1.085937,0 -1.667969,-0.5 -0.582031,-0.5039 -0.695312,-1.46484 z"
           id="path39129" />
        <path
           d="m 30.166016,195.36142 v -4.75781 h -1.699219 v -0.96875 h 4.550781 v 0.96875 h -1.695312 v 4.75781 z"
           id="path39131" />
      </g>
    </g>
  </g>
  <g
     id="g42796"
     transform="matrix(0.30458296,0,0,0.30458296,-0.5624499,-12.68508)"
     style="fill:#ff0000">
    <g
       aria-label="enom"
       id="text4270-27"
       style="font-size:49.3889px;line-height:1.25;font-family:'NECK ROMANCER';-inkscape-font-specification:'NECK ROMANCER, Normal';font-variant-ligatures:none;text-align:center;text-anchor:middle;fill:#ff0000;stroke-width:2.64583">
      <path
         d="m 46.609141,1249.244 q 0,1.1576 0,3.4245 3.183269,0 9.453344,0 -1.639866,0.5787 -2.990343,1.2058 -1.350478,0.627 -2.363337,1.688 -1.350477,0 -4.051433,0 0,1.4952 0.434082,2.5563 0.385851,1.1093 1.832792,1.1093 2.266873,0 6.80062,0 0.482313,-0.1447 0.868164,-0.627 0.337619,-0.5305 0.627007,-1.7363 0,2.0257 0,6.1254 -3.520888,0 -10.562665,0 -1.543403,0 -2.652724,-2.2187 -1.109321,-2.1704 -1.109321,-6.3183 0,-1.9775 0,-5.836 -0.385851,-1.3504 -1.881023,-2.1221 -1.495171,-0.7235 -3.569119,-1.2058 6.607694,0 19.774852,0 0,2.9421 0,8.7781 -1.205783,-2.701 -2.218642,-3.6656 -1.012858,-0.9646 -2.700955,-1.1093 -0.916396,-0.097 -2.170411,-0.097 -1.205783,0.048 -2.845649,0.048 -0.241157,0 -0.675239,0 z"
         id="path42762"
         style="fill:#ff0000" />
      <path
         d="m 81.576869,1245.2891 q 0,5.8842 0,17.7009 0,3.0868 -0.144694,6.0771 -0.09646,3.0386 -0.337619,5.9325 -0.385851,-3.7138 -0.964627,-6.9936 -0.530545,-3.3279 -2.025717,-5.016 0,-2.9904 0,-8.9228 -0.241157,-1.3505 -0.72347,-2.2187 -0.482314,-0.8681 -1.06109,-1.3987 -1.109321,-1.0128 -2.411567,-1.1093 -1.350478,-0.097 -2.266874,-0.097 -0.482313,0 -1.44694,0 0,4.582 0,13.746 0,3.0868 -0.09646,6.0771 -0.144694,3.0386 -0.385851,5.9325 -0.38585,-3.7138 -0.916395,-6.9936 -0.578776,-3.3279 -2.025717,-5.016 0,-4.8232 0,-14.373 -0.385851,-1.3504 -1.881022,-2.1221 -1.495172,-0.7235 -3.56912,-1.2058 6.752389,0 20.257166,0 z"
         id="path42764"
         style="fill:#ff0000" />
      <path
         d="m 104.19737,1249.0511 q 0,3.3762 0,10.1768 0,1.5434 -1.92925,2.6528 -1.92926,1.1093 -6.077152,1.1093 -4.196128,0 -6.125382,-1.1093 -1.929254,-1.1094 -1.929254,-2.6528 0,-3.3762 0,-10.1768 0,-1.5434 1.929254,-2.6527 1.929254,-1.1093 6.125382,-1.1093 4.147892,0 6.077152,1.1093 1.92925,1.1093 1.92925,2.6527 z m -3.76204,7.91 q 0,-1.8811 0,-5.6431 0,-1.6881 -1.254019,-1.9775 -1.205783,-0.2894 -2.990343,-0.2894 -1.832792,0 -3.038575,0.2894 -1.254015,0.2894 -1.254015,1.9775 0,1.881 0,5.6431 0,1.6881 1.254015,1.9774 1.205783,0.2894 3.038575,0.2894 1.78456,0 2.990343,-0.2894 1.254019,-0.2893 1.254019,-1.9774 z"
         id="path42766"
         style="fill:#ff0000" />
      <path
         d="m 142.34837,1245.2891 q -2.02572,0.4823 -3.52089,1.2058 -1.5434,0.7717 -1.88102,2.1221 0,4.7749 0,14.373 -1.49517,1.6881 -2.02572,5.016 -0.57878,3.2798 -0.96463,6.9936 -0.24115,-2.8939 -0.33762,-5.9325 -0.14469,-2.9903 -0.14469,-6.0771 0,-4.582 0,-13.746 -0.48231,0 -1.39871,0 -0.53054,0 -1.15755,0 -0.62701,0 -1.30225,0.1447 -1.25401,0.2412 -2.41157,1.2058 -1.15755,0.9646 -1.63986,3.4727 0,2.9903 0,8.9228 -0.1447,0.627 -0.28939,1.1093 -0.0965,0.4823 -0.19292,0.8199 -0.53055,1.9775 -0.38586,1.3505 0.19293,-0.627 -0.28938,1.1576 -0.0965,0.3376 -0.24116,0.8681 -0.14469,0.5306 -0.33762,1.3023 -0.14469,-0.6753 -0.28939,-1.2058 -0.14469,-0.4823 -0.24115,-0.8199 -0.53055,-2.0258 -0.33762,-1.3023 0.19292,0.7717 -0.43409,-1.6881 -0.0482,-0.2894 -0.19292,-0.7235 -0.0965,-0.3858 -0.19293,-0.8681 0,-2.9904 0,-8.9228 -0.28939,-1.3505 -0.7717,-2.2187 -0.48231,-0.8681 -1.06109,-1.3987 -1.10932,-1.0128 -2.41157,-1.1093 -1.30224,-0.097 -2.26687,-0.097 -0.48231,0 -1.39871,0 0,4.582 0,13.746 0,3.0868 -0.14469,6.0771 -0.0965,3.0386 -0.33762,5.9325 -0.38585,-3.7138 -0.96463,-6.9936 -0.53054,-3.3279 -2.02572,-5.016 0,-4.8232 0,-14.373 -0.38585,-1.3504 -1.88102,-2.1221 -1.49517,-0.7235 -3.56912,-1.2058 3.95497,0 11.76845,0 1.15755,0.3858 3.47266,1.1575 0.7717,0.2894 1.59163,0.4341 0.81994,0.1447 1.6881,0.1447 0.86816,0 1.73633,-0.1447 0.81993,-0.1447 1.59163,-0.4341 1.15756,-0.3858 3.42443,-1.1575 3.95497,0 11.76845,0 z"
         id="path42768"
         style="fill:#ff0000" />
    </g>
    <g
       aria-label="V"
       transform="matrix(1.2363173,0,0,0.80885384,-497.88086,123.48586)"
       id="text4270-3-5-2"
       style="font-size:78.5061px;line-height:1.25;font-family:Nosferotica;-inkscape-font-specification:'Nosferotica, Normal';font-variant-ligatures:none;text-align:center;text-anchor:middle;fill:#ff0000;stroke-width:3.27108">
      <path
         d="m 431.64994,1360.6864 8.57428,-0.1022 c 0,0 -4.4079,1.0878 -5.59925,3.7285 -1.88083,4.1689 -3.64217,14.6628 -3.64217,14.6628 l -2.23339,11.5191 -1.83311,11.8311 -1.71824,21.3112 -1.69514,-21.3112 -1.92196,-11.5208 -2.5009,-11.8294 c 0,0 -1.52027,-10.287 -3.38278,-14.4832 -1.14458,-2.5787 -5.63367,-3.8059 -5.63367,-3.8059 h 8.4657 l 6.66875,29.1569 z"
         id="path30410"
         sodipodi:nodetypes="ccscccccccscccc"
         style="fill:#ff0000" />
    </g>
  </g>
  <text
     xml:space="preserve"
     id="text29904"
     style="font-weight:bold;font-size:8px;line-height:1.25;font-family:Arial;-inkscape-font-specification:'Arial, Bold';font-variant-ligatures:none;text-align:center;white-space:pre;shape-inside:url(#rect29906)"
     transform="translate(-2.6024628e-4)" />
  <g
     inkscape:groupmode="layer"
     id="layer1"
     inkscape:label="Widgets"
     style="display:none">
    <circle
       style="fill:#ff0000;stroke:#ff0000;stroke-width:1.8645;stroke-opacity:1"
       id="path1065-77"
       cx="22.5"
       cy="134.51425"
       r="10.06775" />
    <circle
       style="fill:#ff0000;stroke:#ff0000;stroke-width:2.373;stroke-opacity:1"
       id="path1065-77-3"
       cx="22.5"
       cy="168.25388"
       r="12.8135" />
    <circle
       style="fill:#ff0000;stroke:#ff0000;stroke-width:1.8645;stroke-opacity:1"
       id="path1065-7-3"
       cx="22.5"
       cy="103.77463"
       r="10.06775" />
    <circle
       style="fill:#ff0000;stroke:#ff0000;stroke-width:1.8645;stroke-opacity:1"
       id="path1065-7-1-6"
       cx="22.5"
       cy="73.035011"
       r="10.06775" />
    <circle
       style="fill:#ff0000;stroke:#ff0000;stroke-width:1.8645;stroke-opacity:1"
       id="path1065-7-2-3"
       cx="22.5"
       cy="42.295391"
       r="10.06775" />
    <circle
       style="display:inline;fill:#ff0000;stroke:#ff0000;stroke-width:1.8645;stroke-opacity:1"
       id="path1065-77-1"
       cx="22.5"
       cy="305.15768"
       r="10.06775" />
    <circle
       style="display:inline;fill:#ff0000;stroke:#ff0000;stroke-width:2.373;stroke-opacity:1"
       id="path1065-77-3-0"
       cx="22.5"
       cy="338.43411"
       r="12.8135" />
    <circle
       style="display:inline;fill:#ff0000;stroke:#ff0000;stroke-width:1.8645;stroke-opacity:1"
       id="path1065-7-3-2"
       cx="22.5"
       cy="273.23862"
       r="10.06775" />
    <circle
       style="display:inline;fill:#ff0000;stroke:#ff0000;stroke-width:1.8645;stroke-opacity:1"
       id="path1065-7-1-6-8"
       cx="22.5"
       cy="241.31953"
       r="10.06775" />
    <circle
       style="display:inline;fill:#ff0000;stroke:#ff0000;stroke-width:1.8645;stroke-opacity:1"
       id="path1065-7-2-3-2"
       cx="22.5"
       cy="209.77763"
       r="10.06775" />
  </g>
  <g
     inkscape:groupmode="layer"
     id="layer2"
     inkscape:label="Text Labels"
     style="display:none" />
</svg>
