<?xml version="1.0" encoding="UTF-8" standalone="no"?>
<svg
   width="75"
   height="380"
   viewBox="0 0 75 380"
   version="1.1"
   id="svg100"
   sodipodi:docname="PolyMute_Ivory.svg"
   inkscape:version="1.1.1 (3bf5ae0d25, 2021-09-20)"
   xmlns:inkscape="http://www.inkscape.org/namespaces/inkscape"
   xmlns:sodipodi="http://sodipodi.sourceforge.net/DTD/sodipodi-0.dtd"
   xmlns="http://www.w3.org/2000/svg"
   xmlns:svg="http://www.w3.org/2000/svg"
   xmlns:rdf="http://www.w3.org/1999/02/22-rdf-syntax-ns#"
   xmlns:cc="http://creativecommons.org/ns#"
   xmlns:dc="http://purl.org/dc/elements/1.1/">
  <metadata
     id="metadata104">
    <rdf:RDF>
      <cc:Work
         rdf:about="">
        <dc:format>image/svg+xml</dc:format>
        <dc:type
           rdf:resource="http://purl.org/dc/dcmitype/StillImage" />
      </cc:Work>
    </rdf:RDF>
  </metadata>
  <sodipodi:namedview
     pagecolor="#ffffff"
     bordercolor="#666666"
     borderopacity="1"
     objecttolerance="1"
     gridtolerance="1"
     guidetolerance="1"
     inkscape:pageopacity="0"
     inkscape:pageshadow="2"
     inkscape:window-width="1920"
     inkscape:window-height="1057"
     id="namedview102"
     showgrid="false"
     inkscape:zoom="2.2342105"
     inkscape:cx="37.597173"
     inkscape:cy="190"
     inkscape:window-x="1592"
     inkscape:window-y="-8"
     inkscape:window-maximized="1"
     inkscape:current-layer="layer3"
     inkscape:pagecheckerboard="0"
     units="px"
     inkscape:showpageshadow="false">
    <inkscape:grid
       type="xygrid"
       id="grid1285"
       visible="true" />
  </sodipodi:namedview>
  <defs
     id="defs7">
    <rect
       x="85"
       y="10"
       width="51.058132"
       height="25"
       id="rect29906" />
    <linearGradient
       id="a8e142bb-541b-4903-be63-d5d069028a5d"
       x1="22.5"
       x2="22.5"
       y2="380"
       gradientUnits="userSpaceOnUse">
      <stop
         offset="0"
         stop-color="#ebebeb"
         id="stop2" />
      <stop
         offset="1"
         stop-color="#e1e1e1"
         id="stop4" />
    </linearGradient>
  </defs>
  <g
     id="f45e0130-37b7-4f8b-95b3-6408baa23eb1"
     data-name="components"
     style="display:inline"
     inkscape:groupmode="layer"
     inkscape:label="Faceplate">
    <g
       id="aea613ef-74be-49bf-be45-c0734aee674b"
       data-name="FND BG"
       style="fill:#ede7dc;fill-opacity:1"
       transform="scale(1.6666667,1)">
      <rect
         width="45"
         height="380"
         fill="url(#a8e142bb-541b-4903-be63-d5d069028a5d)"
         id="rect9"
         style="fill:#ede7dc;fill-opacity:1"
         x="0"
         y="0" />
    </g>
  </g>
  <g
     inkscape:groupmode="layer"
     id="layer2"
     inkscape:label="Brand">
    <g
       id="g42796"
       transform="matrix(0.30458296,0,0,0.30458296,14.437551,-12.68508)"
       style="fill:#ff0000">
      <g
         aria-label="enom"
         id="text4270-27"
         style="font-size:49.3889px;line-height:1.25;font-family:'NECK ROMANCER';-inkscape-font-specification:'NECK ROMANCER, Normal';font-variant-ligatures:none;text-align:center;text-anchor:middle;fill:#ff0000;stroke-width:2.64583">
        <path
           d="m 46.609141,1249.244 q 0,1.1576 0,3.4245 3.183269,0 9.453344,0 -1.639866,0.5787 -2.990343,1.2058 -1.350478,0.627 -2.363337,1.688 -1.350477,0 -4.051433,0 0,1.4952 0.434082,2.5563 0.385851,1.1093 1.832792,1.1093 2.266873,0 6.80062,0 0.482313,-0.1447 0.868164,-0.627 0.337619,-0.5305 0.627007,-1.7363 0,2.0257 0,6.1254 -3.520888,0 -10.562665,0 -1.543403,0 -2.652724,-2.2187 -1.109321,-2.1704 -1.109321,-6.3183 0,-1.9775 0,-5.836 -0.385851,-1.3504 -1.881023,-2.1221 -1.495171,-0.7235 -3.569119,-1.2058 6.607694,0 19.774852,0 0,2.9421 0,8.7781 -1.205783,-2.701 -2.218642,-3.6656 -1.012858,-0.9646 -2.700955,-1.1093 -0.916396,-0.097 -2.170411,-0.097 -1.205783,0.048 -2.845649,0.048 -0.241157,0 -0.675239,0 z"
           id="path42762"
           style="fill:#ff0000" />
        <path
           d="m 81.576869,1245.2891 q 0,5.8842 0,17.7009 0,3.0868 -0.144694,6.0771 -0.09646,3.0386 -0.337619,5.9325 -0.385851,-3.7138 -0.964627,-6.9936 -0.530545,-3.3279 -2.025717,-5.016 0,-2.9904 0,-8.9228 -0.241157,-1.3505 -0.72347,-2.2187 -0.482314,-0.8681 -1.06109,-1.3987 -1.109321,-1.0128 -2.411567,-1.1093 -1.350478,-0.097 -2.266874,-0.097 -0.482313,0 -1.44694,0 0,4.582 0,13.746 0,3.0868 -0.09646,6.0771 -0.144694,3.0386 -0.385851,5.9325 -0.38585,-3.7138 -0.916395,-6.9936 -0.578776,-3.3279 -2.025717,-5.016 0,-4.8232 0,-14.373 -0.385851,-1.3504 -1.881022,-2.1221 -1.495172,-0.7235 -3.56912,-1.2058 6.752389,0 20.257166,0 z"
           id="path42764"
           style="fill:#ff0000" />
        <path
           d="m 104.19737,1249.0511 q 0,3.3762 0,10.1768 0,1.5434 -1.92925,2.6528 -1.92926,1.1093 -6.077152,1.1093 -4.196128,0 -6.125382,-1.1093 -1.929254,-1.1094 -1.929254,-2.6528 0,-3.3762 0,-10.1768 0,-1.5434 1.929254,-2.6527 1.929254,-1.1093 6.125382,-1.1093 4.147892,0 6.077152,1.1093 1.92925,1.1093 1.92925,2.6527 z m -3.76204,7.91 q 0,-1.8811 0,-5.6431 0,-1.6881 -1.254019,-1.9775 -1.205783,-0.2894 -2.990343,-0.2894 -1.832792,0 -3.038575,0.2894 -1.254015,0.2894 -1.254015,1.9775 0,1.881 0,5.6431 0,1.6881 1.254015,1.9774 1.205783,0.2894 3.038575,0.2894 1.78456,0 2.990343,-0.2894 1.254019,-0.2893 1.254019,-1.9774 z"
           id="path42766"
           style="fill:#ff0000" />
        <path
           d="m 142.34837,1245.2891 q -2.02572,0.4823 -3.52089,1.2058 -1.5434,0.7717 -1.88102,2.1221 0,4.7749 0,14.373 -1.49517,1.6881 -2.02572,5.016 -0.57878,3.2798 -0.96463,6.9936 -0.24115,-2.8939 -0.33762,-5.9325 -0.14469,-2.9903 -0.14469,-6.0771 0,-4.582 0,-13.746 -0.48231,0 -1.39871,0 -0.53054,0 -1.15755,0 -0.62701,0 -1.30225,0.1447 -1.25401,0.2412 -2.41157,1.2058 -1.15755,0.9646 -1.63986,3.4727 0,2.9903 0,8.9228 -0.1447,0.627 -0.28939,1.1093 -0.0965,0.4823 -0.19292,0.8199 -0.53055,1.9775 -0.38586,1.3505 0.19293,-0.627 -0.28938,1.1576 -0.0965,0.3376 -0.24116,0.8681 -0.14469,0.5306 -0.33762,1.3023 -0.14469,-0.6753 -0.28939,-1.2058 -0.14469,-0.4823 -0.24115,-0.8199 -0.53055,-2.0258 -0.33762,-1.3023 0.19292,0.7717 -0.43409,-1.6881 -0.0482,-0.2894 -0.19292,-0.7235 -0.0965,-0.3858 -0.19293,-0.8681 0,-2.9904 0,-8.9228 -0.28939,-1.3505 -0.7717,-2.2187 -0.48231,-0.8681 -1.06109,-1.3987 -1.10932,-1.0128 -2.41157,-1.1093 -1.30224,-0.097 -2.26687,-0.097 -0.48231,0 -1.39871,0 0,4.582 0,13.746 0,3.0868 -0.14469,6.0771 -0.0965,3.0386 -0.33762,5.9325 -0.38585,-3.7138 -0.96463,-6.9936 -0.53054,-3.3279 -2.02572,-5.016 0,-4.8232 0,-14.373 -0.38585,-1.3504 -1.88102,-2.1221 -1.49517,-0.7235 -3.56912,-1.2058 3.95497,0 11.76845,0 1.15755,0.3858 3.47266,1.1575 0.7717,0.2894 1.59163,0.4341 0.81994,0.1447 1.6881,0.1447 0.86816,0 1.73633,-0.1447 0.81993,-0.1447 1.59163,-0.4341 1.15756,-0.3858 3.42443,-1.1575 3.95497,0 11.76845,0 z"
           id="path42768"
           style="fill:#ff0000" />
      </g>
      <g
         aria-label="V"
         transform="matrix(1.2363173,0,0,0.80885384,-497.88086,123.48586)"
         id="text4270-3-5-2"
         style="font-size:78.5061px;line-height:1.25;font-family:Nosferotica;-inkscape-font-specification:'Nosferotica, Normal';font-variant-ligatures:none;text-align:center;text-anchor:middle;fill:#ff0000;stroke-width:3.27108">
        <path
           d="m 431.64994,1360.6864 8.57428,-0.1022 c 0,0 -4.4079,1.0878 -5.59925,3.7285 -1.88083,4.1689 -3.64217,14.6628 -3.64217,14.6628 l -2.23339,11.5191 -1.83311,11.8311 -1.71824,21.3112 -1.69514,-21.3112 -1.92196,-11.5208 -2.5009,-11.8294 c 0,0 -1.52027,-10.287 -3.38278,-14.4832 -1.14458,-2.5787 -5.63367,-3.8059 -5.63367,-3.8059 h 8.4657 l 6.66875,29.1569 z"
           id="path30410"
           sodipodi:nodetypes="ccscccccccscccc"
           style="fill:#ff0000" />
      </g>
    </g>
  </g>
  <g
     inkscape:groupmode="layer"
     id="layer3"
     inkscape:label="Solid"
     style="display:inline">
    <g
       aria-label="POLY MUTE"
       id="text26442"
       style="font-weight:bold;font-size:10.6667px;line-height:1.25;font-family:Arial;-inkscape-font-specification:'Arial, Bold';font-variant-ligatures:none;text-align:center;text-anchor:middle;fill:#252525">
      <path
         d="M 7.6275115,17.455832 V 9.8203907 h 2.4739665 q 1.406254,0 1.833339,0.1145837 0.656252,0.1718756 1.098962,0.7500026 0.442709,0.572918 0.442709,1.484379 0,0.703128 -0.255209,1.182296 -0.255209,0.479168 -0.651044,0.755211 -0.390626,0.270834 -0.796877,0.359376 -0.552085,0.109375 -1.598963,0.109375 H 9.169183 v 2.880218 z M 9.169183,11.112061 v 2.166674 h 0.843753 q 0.911461,0 1.218754,-0.119792 0.307292,-0.119792 0.479168,-0.375001 0.177084,-0.255209 0.177084,-0.593752 0,-0.416668 -0.244793,-0.687502 -0.244792,-0.270834 -0.619793,-0.338543 -0.276043,-0.05208 -1.109379,-0.05208 z"
         id="path41817" />
      <path
         d="m 14.429616,13.684986 q 0,-1.16667 0.34896,-1.958339 0.260417,-0.583335 0.708335,-1.046879 0.453127,-0.463543 0.989587,-0.6875017 0.713544,-0.3020843 1.645838,-0.3020843 1.687506,0 2.697926,1.046878 1.015628,1.046879 1.015628,2.911468 0,1.848964 -1.005212,2.895842 -1.005211,1.04167 -2.687508,1.04167 -1.703131,0 -2.708342,-1.036461 -1.005212,-1.04167 -1.005212,-2.864593 z m 1.588547,-0.05208 q 0,1.296879 0.59896,1.968756 0.598961,0.666669 1.520838,0.666669 0.921878,0 1.510422,-0.661461 0.593752,-0.666668 0.593752,-1.994798 0,-1.312504 -0.578127,-1.958339 -0.572919,-0.645836 -1.526047,-0.645836 -0.953128,0 -1.536463,0.656253 -0.583335,0.651043 -0.583335,1.968756 z"
         id="path41819" />
      <path
         d="M 23.080685,17.455832 V 9.8828909 h 1.541671 v 6.2864781 h 3.833346 v 1.286463 z"
         id="path41821" />
      <path
         d="M 30.580709,17.455832 V 14.24228 L 27.783825,9.8203907 h 1.807297 l 1.796881,3.0208433 1.760422,-3.0208433 h 1.776048 l -2.807301,4.4323053 v 3.203136 z"
         id="path41823" />
      <path
         d="M 38.440109,17.455832 V 9.8203907 h 2.307299 l 1.385421,5.2083503 1.369796,-5.2083503 h 2.312508 v 7.6354413 h -1.432297 v -6.010436 l -1.515629,6.010436 h -1.48438 l -1.510422,-6.010436 v 6.010436 z"
         id="path41825" />
      <path
         d="m 47.335971,9.8203907 h 1.541671 V 13.95582 q 0,0.984379 0.05729,1.276046 0.09896,0.468752 0.468752,0.755211 0.375001,0.281251 1.020836,0.281251 0.656252,0 0.989587,-0.265626 0.333334,-0.270834 0.401042,-0.66146 0.06771,-0.390627 0.06771,-1.29688 V 9.8203907 h 1.541672 V 13.83082 q 0,1.375004 -0.125001,1.942715 -0.125,0.56771 -0.463543,0.958336 -0.333334,0.390626 -0.895836,0.625002 -0.562502,0.229167 -1.468755,0.229167 -1.093753,0 -1.661463,-0.250001 Q 48.247432,17.08083 47.919306,16.679787 47.59118,16.273536 47.487013,15.830826 47.335971,15.174574 47.335971,13.89332 Z"
         id="path41827" />
      <path
         d="M 56.768291,17.455832 V 11.112061 H 54.502659 V 9.8203907 h 6.067727 v 1.2916703 h -2.260424 v 6.343771 z"
         id="path41829" />
      <path
         d="M 61.565179,17.455832 V 9.8203907 h 5.661477 v 1.2916703 h -4.119805 v 1.692714 h 3.833345 v 1.286463 h -3.833345 v 2.078131 h 4.265638 v 1.286463 z"
         id="path41831" />
    </g>
    <rect
       x="3.9130371"
       y="317.05457"
       width="67.173927"
       height="39.86451"
       rx="5.9569097"
       fill="#1f1f1f"
       id="rect56"
       style="display:inline;fill:#252525;fill-opacity:1;stroke-width:1.44964"
       ry="5.9569097" />
    <g
       aria-label="1 - 8"
       id="text33986"
       style="font-weight:bold;font-size:8px;line-height:1.25;font-family:Arial;-inkscape-font-specification:'Arial, Bold';font-variant-ligatures:none;text-align:center;text-anchor:middle;display:inline;fill:#252525">
      <path
         d="m 15.507813,30.995291 h -1.097657 v -4.136719 q -0.601562,0.5625 -1.417968,0.832031 V 26.69451 q 0.429687,-0.140625 0.933593,-0.53125 0.503907,-0.394532 0.691407,-0.917969 h 0.890625 z"
         id="path41834" />
      <path
         d="m 19.480469,29.467947 v -1.097656 h 2.15625 v 1.097656 z"
         id="path41836" />
      <path
         d="m 25.199219,27.905447 q -0.425782,-0.179687 -0.621094,-0.492187 -0.191406,-0.316407 -0.191406,-0.691407 0,-0.640625 0.445312,-1.058593 0.449219,-0.417969 1.273438,-0.417969 0.816406,0 1.265625,0.417969 0.453125,0.417968 0.453125,1.058593 0,0.398438 -0.207032,0.710938 -0.207031,0.308594 -0.582031,0.472656 0.476563,0.191406 0.722656,0.558594 0.25,0.367187 0.25,0.847656 0,0.792969 -0.507812,1.289063 -0.503906,0.496093 -1.34375,0.496093 -0.78125,0 -1.300781,-0.410156 -0.613282,-0.484375 -0.613282,-1.328125 0,-0.464844 0.230469,-0.851562 0.230469,-0.390625 0.726563,-0.601563 z m 0.226562,-1.105469 q 0,0.328125 0.183594,0.511719 0.1875,0.183594 0.496094,0.183594 0.3125,0 0.5,-0.183594 0.1875,-0.1875 0.1875,-0.515625 0,-0.308594 -0.1875,-0.492187 -0.183594,-0.1875 -0.488282,-0.1875 -0.316406,0 -0.503906,0.1875 -0.1875,0.1875 -0.1875,0.496093 z m -0.101562,2.453125 q 0,0.453125 0.230468,0.707032 0.234375,0.253906 0.582032,0.253906 0.339843,0 0.5625,-0.242188 0.222656,-0.246093 0.222656,-0.707031 0,-0.402344 -0.226563,-0.644531 -0.226562,-0.246094 -0.574218,-0.246094 -0.402344,0 -0.601563,0.277344 -0.195312,0.277344 -0.195312,0.601562 z"
         id="path41838" />
    </g>
    <g
       aria-label="9 - 16"
       id="text33986-6"
       style="font-weight:bold;font-size:8px;line-height:1.25;font-family:Arial;-inkscape-font-specification:'Arial, Bold';font-variant-ligatures:none;text-align:center;text-anchor:middle;display:inline;fill:#252525">
      <path
         d="m 44.650391,29.671072 1.0625,-0.117187 q 0.03906,0.324218 0.203125,0.480468 0.164062,0.15625 0.433593,0.15625 0.339844,0 0.578125,-0.3125 0.238282,-0.3125 0.304688,-1.296875 -0.414063,0.480469 -1.035156,0.480469 -0.675782,0 -1.167969,-0.519531 -0.488281,-0.523438 -0.488281,-1.359375 0,-0.871094 0.515625,-1.402344 0.519531,-0.535156 1.320312,-0.535156 0.871094,0 1.429688,0.675781 0.558593,0.671875 0.558593,2.214844 0,1.570312 -0.582031,2.265625 -0.582031,0.695312 -1.515625,0.695312 -0.671875,0 -1.085937,-0.355468 -0.414063,-0.359375 -0.53125,-1.070313 z m 2.484375,-2.398437 q 0,-0.53125 -0.246094,-0.824219 -0.242188,-0.292969 -0.5625,-0.292969 -0.304688,0 -0.507813,0.242188 -0.199218,0.238281 -0.199218,0.785156 0,0.554687 0.21875,0.816406 0.21875,0.257813 0.546875,0.257813 0.316406,0 0.53125,-0.25 0.21875,-0.25 0.21875,-0.734375 z"
         id="path41841" />
      <path
         d="m 51.408203,29.467947 v -1.097656 h 2.15625 v 1.097656 z"
         id="path41843" />
      <path
         d="m 58.994141,30.995291 h -1.097657 v -4.136719 q -0.601562,0.5625 -1.417968,0.832031 V 26.69451 q 0.429687,-0.140625 0.933593,-0.53125 0.503907,-0.394532 0.691407,-0.917969 h 0.890625 z"
         id="path41845" />
      <path
         d="m 64.353516,26.671072 -1.0625,0.117188 q -0.03906,-0.328125 -0.203125,-0.484375 -0.164063,-0.15625 -0.425782,-0.15625 -0.347656,0 -0.589843,0.3125 -0.238282,0.3125 -0.300782,1.300781 0.410157,-0.484375 1.019532,-0.484375 0.6875,0 1.175781,0.523437 0.492187,0.523438 0.492187,1.351563 0,0.878906 -0.515625,1.410156 -0.515625,0.53125 -1.324218,0.53125 -0.867188,0 -1.425782,-0.671875 -0.558593,-0.675781 -0.558593,-2.210937 0,-1.574219 0.582031,-2.269532 0.582031,-0.695312 1.511719,-0.695312 0.652343,0 1.078125,0.367187 0.429687,0.363282 0.546875,1.058594 z m -2.488282,2.394531 q 0,0.535157 0.246094,0.828125 0.246094,0.289063 0.5625,0.289063 0.304688,0 0.507813,-0.238281 0.203125,-0.238282 0.203125,-0.78125 0,-0.558594 -0.21875,-0.816407 -0.21875,-0.261718 -0.546875,-0.261718 -0.316407,0 -0.535157,0.25 -0.21875,0.246093 -0.21875,0.730468 z"
         id="path41847" />
    </g>
    <g
       aria-label="GATES"
       id="text33986-6-7"
       style="font-weight:bold;font-size:8px;line-height:1.25;font-family:Arial;-inkscape-font-specification:'Arial, Bold';font-variant-ligatures:none;text-align:center;text-anchor:middle;display:inline;fill:#252525">
      <path
         d="m 27.267578,252.79294 v -0.96485 h 2.492188 v 2.28125 q -0.363282,0.35157 -1.054688,0.6211 -0.6875,0.26562 -1.394531,0.26562 -0.898438,0 -1.566406,-0.375 -0.667969,-0.3789 -1.003907,-1.07812 -0.335937,-0.70313 -0.335937,-1.52735 0,-0.89453 0.375,-1.58984 0.375,-0.69531 1.097656,-1.06641 0.550781,-0.28515 1.371094,-0.28515 1.066406,0 1.664062,0.44922 0.601563,0.44531 0.773438,1.23437 l -1.148438,0.21485 q -0.121093,-0.42188 -0.457031,-0.66407 -0.332031,-0.24609 -0.832031,-0.24609 -0.757813,0 -1.207031,0.48047 -0.445313,0.48047 -0.445313,1.42578 0,1.01953 0.453125,1.53125 0.453125,0.50781 1.1875,0.50781 0.363281,0 0.726563,-0.14062 0.367187,-0.14453 0.628906,-0.34766 v -0.72656 z"
         id="path41850" />
      <path
         d="m 35.990234,254.89841 h -1.257812 l -0.5,-1.30078 h -2.289063 l -0.472656,1.30078 h -1.226562 l 2.230468,-5.72657 h 1.222657 z m -2.128906,-2.26563 -0.789062,-2.125 -0.773438,2.125 z"
         id="path41852" />
      <path
         d="m 37.298828,254.89841 v -4.75782 h -1.699219 v -0.96875 h 4.550782 v 0.96875 h -1.695313 v 4.75782 z"
         id="path41854" />
      <path
         d="m 40.896484,254.89841 v -5.72657 h 4.246094 v 0.96875 h -3.089844 v 1.26954 h 2.875 v 0.96484 h -2.875 v 1.55859 h 3.199219 v 0.96485 z"
         id="path41856" />
      <path
         d="m 45.939453,253.03513 1.125,-0.10938 q 0.101563,0.56641 0.410156,0.83203 0.3125,0.26563 0.839844,0.26563 0.558594,0 0.839844,-0.23438 0.285156,-0.23828 0.285156,-0.55469 0,-0.20312 -0.121094,-0.34375 -0.117187,-0.14453 -0.414062,-0.25 -0.203125,-0.0703 -0.925781,-0.25 -0.929688,-0.23046 -1.304688,-0.5664 -0.527344,-0.47266 -0.527344,-1.15235 0,-0.4375 0.246094,-0.8164 0.25,-0.38281 0.714844,-0.58203 0.46875,-0.19922 1.128906,-0.19922 1.078125,0 1.621094,0.47265 0.546875,0.47266 0.574219,1.26172 l -1.15625,0.0508 q -0.07422,-0.4414 -0.320313,-0.63281 -0.242187,-0.19531 -0.730469,-0.19531 -0.503906,0 -0.789062,0.20703 -0.183594,0.13281 -0.183594,0.35547 0,0.20312 0.171875,0.34766 0.21875,0.18359 1.0625,0.38281 0.84375,0.19922 1.246094,0.41406 0.40625,0.21094 0.632812,0.58203 0.230469,0.36719 0.230469,0.91016 0,0.49219 -0.273437,0.92187 -0.273438,0.42969 -0.773438,0.64063 -0.5,0.20703 -1.246094,0.20703 -1.085937,0 -1.667968,-0.5 -0.582032,-0.50391 -0.695313,-1.46484 z"
         id="path41858" />
    </g>
    <g
       aria-label="IN 1"
       id="text33986-6-7-1"
       style="font-weight:bold;font-size:8px;line-height:1.25;font-family:Arial;-inkscape-font-specification:'Arial, Bold';font-variant-ligatures:none;text-align:center;text-anchor:middle;display:inline;fill:#252525">
      <path
         d="m 14.087891,288.92435 v -5.72657 h 1.15625 v 5.72657 z"
         id="path41861" />
      <path
         d="m 16.357422,288.92435 v -5.72657 h 1.125 l 2.34375,3.82422 v -3.82422 h 1.074219 v 5.72657 h -1.160157 l -2.308593,-3.73438 v 3.73438 z"
         id="path41863" />
      <path
         d="m 26.912109,288.92435 h -1.097656 v -4.13672 q -0.601562,0.5625 -1.417969,0.83203 v -0.99609 q 0.429688,-0.14063 0.933594,-0.53125 0.503906,-0.39454 0.691406,-0.91797 h 0.890625 z"
         id="path41865" />
    </g>
    <g
       aria-label="IN 2"
       id="text33986-6-7-1-9"
       style="font-weight:bold;font-size:8px;line-height:1.25;font-family:Arial;-inkscape-font-specification:'Arial, Bold';font-variant-ligatures:none;text-align:center;text-anchor:middle;display:inline;fill:#252525">
      <path
         d="m 47.638672,288.92435 v -5.72657 h 1.15625 v 5.72657 z"
         id="path41868" />
      <path
         d="m 49.908203,288.92435 v -5.72657 h 1.125 l 2.34375,3.82422 v -3.82422 h 1.074219 v 5.72657 h -1.160156 l -2.308594,-3.73438 v 3.73438 z"
         id="path41870" />
      <path
         d="m 61.361328,287.90482 v 1.01953 h -3.847656 q 0.0625,-0.57813 0.375,-1.09375 0.3125,-0.51953 1.234375,-1.375 0.742187,-0.69141 0.910156,-0.9375 0.226563,-0.33985 0.226563,-0.67188 0,-0.36719 -0.199219,-0.5625 -0.195313,-0.19922 -0.542969,-0.19922 -0.34375,0 -0.546875,0.20703 -0.203125,0.20704 -0.234375,0.6875 l -1.09375,-0.10937 q 0.09766,-0.90625 0.613281,-1.30078 0.515625,-0.39453 1.289063,-0.39453 0.847656,0 1.332031,0.45703 0.484375,0.45703 0.484375,1.13672 0,0.38672 -0.140625,0.73828 -0.136719,0.34765 -0.4375,0.73047 -0.199219,0.2539 -0.71875,0.73047 -0.519531,0.47656 -0.660156,0.63281 -0.136719,0.15625 -0.222656,0.30469 z"
         id="path41872" />
    </g>
    <g
       aria-label="MODE"
       id="text46170"
       style="font-weight:bold;font-size:6.66667px;line-height:1.25;font-family:Arial;-inkscape-font-specification:'Arial, Bold';font-variant-ligatures:none;text-align:center;text-anchor:middle;display:inline;fill:#252525">
      <path
         d="m 52.902012,262.95642 v -4.77214 h 1.442058 l 0.865886,3.25521 0.85612,-3.25521 h 1.445314 v 4.77214 h -0.895183 v -3.75651 l -0.947266,3.75651 h -0.927735 l -0.944011,-3.75651 v 3.75651 z"
         id="path49390" />
      <path
         d="m 58.273109,260.59965 q 0,-0.72917 0.218099,-1.22396 0.16276,-0.36458 0.442708,-0.6543 0.283204,-0.28971 0.61849,-0.42968 0.445964,-0.18881 1.028647,-0.18881 1.054688,0 1.686198,0.6543 0.634766,0.6543 0.634766,1.81966 0,1.1556 -0.628255,1.8099 -0.628256,0.65104 -1.679689,0.65104 -1.064453,0 -1.692709,-0.64779 -0.628255,-0.65104 -0.628255,-1.79036 z m 0.992839,-0.0326 q 0,0.81054 0.374349,1.23047 0.374349,0.41666 0.950521,0.41666 0.576172,0 0.944011,-0.41341 0.371094,-0.41667 0.371094,-1.24674 0,-0.82032 -0.361328,-1.22396 -0.358073,-0.40365 -0.953777,-0.40365 -0.595703,0 -0.960287,0.41016 -0.364583,0.4069 -0.364583,1.23047 z"
         id="path49392" />
      <path
         d="m 63.650715,258.18428 h 1.761069 q 0.595703,0 0.908204,0.0911 0.419922,0.1237 0.719401,0.43945 0.299479,0.31576 0.455729,0.77474 0.15625,0.45573 0.15625,1.1263 0,0.5892 -0.146484,1.01563 -0.179037,0.52083 -0.511068,0.8431 -0.250651,0.24414 -0.677084,0.38086 -0.31901,0.10091 -0.852865,0.10091 h -1.813152 z m 0.963543,0.8073 v 3.1608 h 0.719401 q 0.403646,0 0.582683,-0.0456 0.234375,-0.0586 0.387369,-0.19857 0.156251,-0.13997 0.253907,-0.45898 0.09766,-0.32227 0.09766,-0.87565 0,-0.55339 -0.09766,-0.84961 -0.09766,-0.29623 -0.273438,-0.46224 -0.175781,-0.16602 -0.445964,-0.22461 -0.201823,-0.0456 -0.791016,-0.0456 z"
         id="path49394" />
      <path
         d="m 68.468426,262.95642 v -4.77214 h 3.538413 v 0.8073 h -2.574871 v 1.05794 h 2.395834 v 0.80404 h -2.395834 v 1.29882 h 2.666017 v 0.80404 z"
         id="path49396" />
    </g>
    <g
       aria-label="SOFT"
       id="text74313"
       style="font-weight:bold;font-size:6.66667px;line-height:1.25;font-family:Arial;-inkscape-font-specification:'Arial, Bold';font-variant-ligatures:none;text-align:center;text-anchor:middle;display:inline;fill:#252525">
      <path
         d="m 3.8004519,261.40207 0.9375005,-0.0911 q 0.084635,0.47201 0.341797,0.69336 0.2604168,0.22136 0.6998701,0.22136 0.465495,0 0.6998702,-0.19532 0.2376303,-0.19856 0.2376303,-0.46224 0,-0.16927 -0.1009115,-0.28645 -0.097656,-0.12045 -0.3450523,-0.20834 -0.1692709,-0.0586 -0.7714847,-0.20833 -0.77474,-0.19206 -1.0872401,-0.47201 -0.4394534,-0.39388 -0.4394534,-0.96028 0,-0.36459 0.2050783,-0.68034 0.2083334,-0.31901 0.5957034,-0.48503 0.3906252,-0.16601 0.9407556,-0.16601 0.898438,0 1.3509121,0.39388 0.4557294,0.39388 0.4785159,1.05143 l -0.9635421,0.0423 q -0.061849,-0.36784 -0.2669272,-0.52735 -0.2018231,-0.16276 -0.6087243,-0.16276 -0.4199221,0 -0.6575524,0.17253 -0.1529949,0.11068 -0.1529949,0.29622 0,0.16927 0.1432293,0.28972 0.1822917,0.15299 0.8854171,0.31901 0.7031253,0.16601 1.0384119,0.34505 0.3385419,0.17578 0.527344,0.48502 0.1920574,0.30599 0.1920574,0.75847 0,0.41016 -0.2278647,0.76823 -0.2278647,0.35807 -0.6445315,0.53385 -0.4166669,0.17253 -1.038412,0.17253 -0.9049483,0 -1.3899746,-0.41667 -0.4850263,-0.41992 -0.5794274,-1.2207 z"
         id="path80863" />
      <path
         d="m 8.2958967,260.59803 q 0,-0.72917 0.2180991,-1.22396 0.1627605,-0.36458 0.4427085,-0.65429 0.2832033,-0.28972 0.6184899,-0.42969 0.4459638,-0.1888 1.0286468,-0.1888 1.054688,0 1.686198,0.65429 0.634766,0.6543 0.634766,1.81967 0,1.15559 -0.628255,1.80989 -0.628256,0.65104 -1.679689,0.65104 -1.0644533,0 -1.6927088,-0.64778 -0.6282555,-0.65105 -0.6282555,-1.79037 z m 0.992839,-0.0326 q 0,0.81055 0.3743492,1.23047 0.3743491,0.41667 0.9505211,0.41667 0.576172,0 0.944011,-0.41342 0.371094,-0.41666 0.371094,-1.24674 0,-0.82031 -0.361328,-1.22396 -0.358073,-0.40365 -0.953777,-0.40365 -0.595703,0 -0.9602868,0.41016 -0.3645835,0.4069 -0.3645835,1.23047 z"
         id="path80865" />
      <path
         d="m 13.683269,262.9548 v -4.77213 h 3.271486 v 0.80729 h -2.307944 v 1.12956 H 16.639 v 0.80729 h -1.992189 v 2.02799 z"
         id="path80867" />
      <path
         d="m 18.823245,262.9548 v -3.96484 h -1.416016 v -0.80729 h 3.79232 v 0.80729 h -1.412762 v 3.96484 z"
         id="path80869" />
    </g>
  </g>
  <g
     inkscape:groupmode="layer"
     id="layer5"
     inkscape:label="Alt Solid"
     style="display:inline">
    <path
       style="color:#000000;fill:#ff0000;stroke-dasharray:1.6, 1.6;-inkscape-stroke:none"
       d="m 10,138.59961 v 0.80078 h 1.599609 v -0.80078 z m 3.199219,0 v 0.80078 h 1.601562 v -0.80078 z m 3.201172,0 v 0.80078 H 18 v -0.80078 z m 3.199218,0 v 0.80078 h 1.59961 v -0.80078 z m 3.201172,0 v 0.80078 h 1.59961 v -0.80078 z m 3.199219,0 v 0.80078 h 1.599609 v -0.80078 z m 3.199219,0 v 0.80078 h 1.601562 v -0.80078 z"
       id="path39553" />
    <path
       style="color:#000000;fill:#ff0000;stroke-dasharray:1.6, 1.6;-inkscape-stroke:none"
       d="m 44,138.59961 v 0.80078 h 1.599609 v -0.80078 z m 3.199219,0 v 0.80078 h 1.601562 v -0.80078 z m 3.201172,0 v 0.80078 H 52 v -0.80078 z m 3.199218,0 v 0.80078 h 1.59961 v -0.80078 z m 3.201172,0 v 0.80078 h 1.59961 v -0.80078 z m 3.199219,0 v 0.80078 h 1.599609 v -0.80078 z m 3.199219,0 v 0.80078 h 1.601562 v -0.80078 z"
       id="path39553-6" />
    <g
       id="g41815"
       transform="translate(0.12676)">
      <path
         sodipodi:type="star"
         style="display:inline;fill:#ff0000;fill-opacity:1;stroke:none;stroke-width:0.24208;stroke-opacity:1"
         id="path19226-9-2"
         inkscape:flatsided="true"
         sodipodi:sides="3"
         sodipodi:cx="471"
         sodipodi:cy="264"
         sodipodi:r1="1.6249992"
         sodipodi:r2="0.81249964"
         sodipodi:arg1="0"
         sodipodi:arg2="1.0471976"
         inkscape:rounded="0"
         inkscape:randomized="0"
         inkscape:transform-center-x="0.18914757"
         transform="matrix(1.3151381,1.1447787,-1.0280993,1.1810951,-303.85445,-558.4656)"
         inkscape:transform-center-y="-0.36600706"
         d="m 472.625,264 -2.4375,1.40729 v -2.81458 z" />
      <path
         sodipodi:type="star"
         style="display:inline;fill:#ff0000;fill-opacity:1;stroke:none;stroke-width:0.24208;stroke-opacity:1"
         id="path19226-9-2-2"
         inkscape:flatsided="true"
         sodipodi:sides="3"
         sodipodi:cx="471"
         sodipodi:cy="264"
         sodipodi:r1="1.6249992"
         sodipodi:r2="0.81249964"
         sodipodi:arg1="0"
         sodipodi:arg2="1.0471976"
         inkscape:rounded="0"
         inkscape:randomized="0"
         inkscape:transform-center-x="-0.18914305"
         transform="matrix(-1.3151381,1.1447787,1.0280993,1.1810951,378.60093,-558.4656)"
         inkscape:transform-center-y="-0.36600706"
         d="m 472.625,264 -2.4375,1.40729 v -2.81458 z" />
      <g
         aria-label="10V"
         id="text33986-6-7-1-3"
         style="font-weight:bold;font-size:6px;line-height:1.25;font-family:Arial;-inkscape-font-specification:'Arial, Bold';font-variant-ligatures:none;text-align:center;text-anchor:middle;display:inline;fill:#ff0000">
        <path
           d="m 34.162304,291.34393 h -0.823242 v -3.10254 q -0.451172,0.42188 -1.063477,0.62403 v -0.74707 q 0.322266,-0.10547 0.700195,-0.39844 0.37793,-0.2959 0.518555,-0.68848 h 0.667969 z"
           id="path41784" />
        <path
           d="m 36.784374,287.03143 q 0.624024,0 0.975586,0.44532 0.418945,0.52734 0.418945,1.74902 0,1.21875 -0.421875,1.75195 -0.348632,0.43946 -0.972656,0.43946 -0.626953,0 -1.010742,-0.48047 -0.383789,-0.4834 -0.383789,-1.71973 0,-1.21289 0.421875,-1.74609 0.348633,-0.43946 0.972656,-0.43946 z m 0,0.68262 q -0.149414,0 -0.266601,0.0967 -0.117188,0.0937 -0.181641,0.33984 -0.08496,0.31934 -0.08496,1.0752 0,0.75586 0.07617,1.04004 0.07617,0.28125 0.19043,0.375 0.117187,0.0937 0.266601,0.0937 0.149414,0 0.266602,-0.0937 0.117187,-0.0967 0.18164,-0.34278 0.08496,-0.3164 0.08496,-1.07226 0,-0.75586 -0.07617,-1.03711 -0.07617,-0.28418 -0.193359,-0.37793 -0.114258,-0.0967 -0.263672,-0.0967 z"
           id="path41786" />
        <path
           d="m 40.00703,291.34393 -1.535156,-4.29492 h 0.94043 l 1.086914,3.17871 1.051758,-3.17871 h 0.919922 l -1.538086,4.29492 z"
           id="path41788" />
      </g>
    </g>
  </g>
  <g
     inkscape:groupmode="layer"
     id="layer4"
     inkscape:label="Invert Solid"
     style="display:inline">
    <g
       aria-label="OUT 1"
       id="text33986-6-7-1-5"
       style="font-weight:bold;font-size:8px;line-height:1.25;font-family:Arial;-inkscape-font-specification:'Arial, Bold';font-variant-ligatures:none;text-align:center;text-anchor:middle;display:inline;fill:#ede7dc">
      <path
         d="m 9.5449219,323.53952 q 0,-0.875 0.2617187,-1.46875 0.1953124,-0.4375 0.5312504,-0.78516 0.339843,-0.34765 0.742187,-0.51562 0.535156,-0.22656 1.234375,-0.22656 1.265625,0 2.023438,0.78515 0.761718,0.78516 0.761718,2.1836 0,1.38672 -0.753906,2.17187 -0.753906,0.78125 -2.015625,0.78125 -1.277344,0 -2.03125,-0.77734 -0.7539061,-0.78125 -0.7539061,-2.14844 z m 1.1914061,-0.0391 q 0,0.97265 0.449219,1.47656 0.449219,0.5 1.140625,0.5 0.691406,0 1.132812,-0.49609 0.445313,-0.5 0.445313,-1.4961 0,-0.98437 -0.433594,-1.46875 -0.429687,-0.48437 -1.144531,-0.48437 -0.714844,0 -1.152344,0.49219 -0.4375,0.48828 -0.4375,1.47656 z"
         id="path41875" />
      <path
         d="m 15.994141,320.64108 h 1.15625 v 3.10157 q 0,0.73828 0.04297,0.95703 0.07422,0.35156 0.351563,0.5664 0.28125,0.21094 0.765625,0.21094 0.492187,0 0.742187,-0.19922 0.25,-0.20312 0.300782,-0.49609 0.05078,-0.29297 0.05078,-0.97266 v -3.16797 h 1.15625 v 3.00782 q 0,1.03125 -0.09375,1.45703 -0.09375,0.42578 -0.347656,0.71875 -0.25,0.29297 -0.671875,0.46875 -0.421875,0.17187 -1.101563,0.17187 -0.820312,0 -1.246094,-0.1875 -0.421875,-0.1914 -0.667968,-0.49219 -0.246094,-0.30468 -0.324219,-0.63671 -0.113281,-0.49219 -0.113281,-1.45313 z"
         id="path41877" />
      <path
         d="m 23.068359,326.36765 v -4.75782 h -1.699218 v -0.96875 h 4.550781 v 0.96875 h -1.695313 v 4.75782 z"
         id="path41879" />
      <path
         d="m 31.455078,326.36765 h -1.097656 v -4.13672 q -0.601563,0.5625 -1.417969,0.83203 v -0.9961 q 0.429688,-0.14062 0.933594,-0.53125 0.503906,-0.39453 0.691406,-0.91796 h 0.890625 z"
         id="path41881" />
    </g>
    <g
       aria-label="OUT 2"
       id="text33986-6-7-1-5-3"
       style="font-weight:bold;font-size:8px;line-height:1.25;font-family:Arial;-inkscape-font-specification:'Arial, Bold';font-variant-ligatures:none;text-align:center;text-anchor:middle;display:inline;fill:#ede7dc">
      <path
         d="m 43.095703,323.53952 q 0,-0.875 0.261719,-1.46875 0.195312,-0.4375 0.53125,-0.78516 0.339844,-0.34765 0.742187,-0.51562 0.535157,-0.22656 1.234375,-0.22656 1.265625,0 2.023438,0.78515 0.761719,0.78516 0.761719,2.1836 0,1.38672 -0.753907,2.17187 -0.753906,0.78125 -2.015625,0.78125 -1.277343,0 -2.03125,-0.77734 -0.753906,-0.78125 -0.753906,-2.14844 z m 1.191406,-0.0391 q 0,0.97265 0.449219,1.47656 0.449219,0.5 1.140625,0.5 0.691406,0 1.132813,-0.49609 0.445312,-0.5 0.445312,-1.4961 0,-0.98437 -0.433594,-1.46875 -0.429687,-0.48437 -1.144531,-0.48437 -0.714844,0 -1.152344,0.49219 -0.4375,0.48828 -0.4375,1.47656 z"
         id="path41884" />
      <path
         d="m 49.544922,320.64108 h 1.15625 v 3.10157 q 0,0.73828 0.04297,0.95703 0.07422,0.35156 0.351562,0.5664 0.28125,0.21094 0.765625,0.21094 0.492188,0 0.742188,-0.19922 0.25,-0.20312 0.300781,-0.49609 0.05078,-0.29297 0.05078,-0.97266 v -3.16797 h 1.15625 v 3.00782 q 0,1.03125 -0.09375,1.45703 -0.09375,0.42578 -0.347656,0.71875 -0.25,0.29297 -0.671875,0.46875 -0.421875,0.17187 -1.101563,0.17187 -0.820312,0 -1.246093,-0.1875 -0.421875,-0.1914 -0.667969,-0.49219 -0.246094,-0.30468 -0.324219,-0.63671 -0.113281,-0.49219 -0.113281,-1.45313 z"
         id="path41886" />
      <path
         d="m 56.619141,326.36765 v -4.75782 h -1.699219 v -0.96875 h 4.550781 v 0.96875 h -1.695312 v 4.75782 z"
         id="path41888" />
      <path
         d="m 65.904297,325.34811 v 1.01954 h -3.847656 q 0.0625,-0.57813 0.375,-1.09375 0.3125,-0.51954 1.234375,-1.375 0.742187,-0.69141 0.910156,-0.9375 0.226562,-0.33985 0.226562,-0.67188 0,-0.36719 -0.199218,-0.5625 -0.195313,-0.19922 -0.542969,-0.19922 -0.34375,0 -0.546875,0.20703 -0.203125,0.20703 -0.234375,0.6875 l -1.09375,-0.10937 q 0.09766,-0.90625 0.613281,-1.30078 0.515625,-0.39453 1.289063,-0.39453 0.847656,0 1.332031,0.45703 0.484375,0.45703 0.484375,1.13672 0,0.38671 -0.140625,0.73828 -0.136719,0.34765 -0.4375,0.73047 -0.199219,0.2539 -0.71875,0.73046 -0.519531,0.47657 -0.660156,0.63282 -0.136719,0.15625 -0.222657,0.30468 z"
         id="path41890" />
    </g>
  </g>
  <text
     xml:space="preserve"
     id="text29904"
     style="font-weight:bold;font-size:8px;line-height:1.25;font-family:Arial;-inkscape-font-specification:'Arial, Bold';font-variant-ligatures:none;text-align:center;white-space:pre;shape-inside:url(#rect29906)" />
  <g
     inkscape:groupmode="layer"
     id="layer1"
     inkscape:label="Widgets"
     style="display:none">
    <circle
       style="display:inline;fill:#ff0000;stroke:#ff0000;stroke-width:1.94925;stroke-opacity:1"
       id="path1065"
       cx="20.5"
       cy="303.5"
       r="10.525375" />
    <circle
       style="display:inline;fill:#ff0000;stroke:#ff0000;stroke-width:1.94925;stroke-opacity:1"
       id="path1065-3"
       cx="54.5"
       cy="303.5"
       r="10.525375" />
    <circle
       style="display:inline;fill:#ff0000;stroke:#ff0000;stroke-width:1.94925;stroke-opacity:1"
       id="path1065-2"
       cx="54.5"
       cy="341"
       r="10.525375" />
    <circle
       style="display:inline;fill:#ff0000;stroke:#ff0000;stroke-width:1.94925;stroke-opacity:1"
       id="path1065-36"
       cx="37.5"
       cy="269.5"
       r="10.525375" />
    <circle
       style="display:inline;fill:#ff0000;stroke:#ff0000;stroke-width:1.77975;stroke-opacity:1"
       id="path1065-7-1-15-4"
       cx="54.5"
       cy="44.5"
       r="9.6101246" />
    <circle
       style="display:inline;fill:#ff0000;stroke:#ff0000;stroke-width:1.94925;stroke-opacity:1"
       id="path1065-1"
       cx="20.5"
       cy="341"
       r="10.525375" />
    <circle
       style="display:inline;fill:#ff0000;stroke:#ff0000;stroke-width:1.77975;stroke-opacity:1"
       id="path1065-7-1-15-4-9"
       cx="54.5"
       cy="233.5"
       r="9.6101246" />
    <circle
       style="display:inline;fill:#ff0000;stroke:#ff0000;stroke-width:1.77975;stroke-opacity:1"
       id="path1065-7-1-15-4-4"
       cx="54.5"
       cy="206.5"
       r="9.6101246" />
    <circle
       style="display:inline;fill:#ff0000;stroke:#ff0000;stroke-width:1.77975;stroke-opacity:1"
       id="path1065-7-1-15-4-6"
       cx="54.5"
       cy="179.5"
       r="9.6101246" />
    <circle
       style="display:inline;fill:#ff0000;stroke:#ff0000;stroke-width:1.77975;stroke-opacity:1"
       id="path1065-7-1-15-4-2"
       cx="54.5"
       cy="152.5"
       r="9.6101246" />
    <circle
       style="display:inline;fill:#ff0000;stroke:#ff0000;stroke-width:1.77975;stroke-opacity:1"
       id="path1065-7-1-15-4-46"
       cx="54.5"
       cy="125.5"
       r="9.6101246" />
    <circle
       style="display:inline;fill:#ff0000;stroke:#ff0000;stroke-width:1.77975;stroke-opacity:1"
       id="path1065-7-1-15-4-7"
       cx="54.5"
       cy="98.5"
       r="9.6101246" />
    <circle
       style="display:inline;fill:#ff0000;stroke:#ff0000;stroke-width:1.77975;stroke-opacity:1"
       id="path1065-7-1-15-4-58"
       cx="54.5"
       cy="71.5"
       r="9.6101246" />
    <circle
       style="display:inline;fill:#ff0000;stroke:#ff0000;stroke-width:1.77975;stroke-opacity:1"
       id="path1065-7-1-15-4-77"
       cx="20.5"
       cy="44.5"
       r="9.6101246" />
    <circle
       style="display:inline;fill:#ff0000;stroke:#ff0000;stroke-width:1.77975;stroke-opacity:1"
       id="path1065-7-1-15-4-9-7"
       cx="20.5"
       cy="233.5"
       r="9.6101246" />
    <circle
       style="display:inline;fill:#ff0000;stroke:#ff0000;stroke-width:1.77975;stroke-opacity:1"
       id="path1065-7-1-15-4-4-0"
       cx="20.5"
       cy="206.5"
       r="9.6101246" />
    <circle
       style="display:inline;fill:#ff0000;stroke:#ff0000;stroke-width:1.77975;stroke-opacity:1"
       id="path1065-7-1-15-4-6-1"
       cx="20.5"
       cy="179.5"
       r="9.6101246" />
    <circle
       style="display:inline;fill:#ff0000;stroke:#ff0000;stroke-width:1.77975;stroke-opacity:1"
       id="path1065-7-1-15-4-2-0"
       cx="20.5"
       cy="152.5"
       r="9.6101246" />
    <circle
       style="display:inline;fill:#ff0000;stroke:#ff0000;stroke-width:1.77975;stroke-opacity:1"
       id="path1065-7-1-15-4-46-0"
       cx="20.5"
       cy="125.5"
       r="9.6101246" />
    <circle
       style="display:inline;fill:#ff0000;stroke:#ff0000;stroke-width:1.77975;stroke-opacity:1"
       id="path1065-7-1-15-4-7-0"
       cx="20.5"
       cy="98.5"
       r="9.6101246" />
    <circle
       style="display:inline;fill:#ff0000;stroke:#ff0000;stroke-width:1.77975;stroke-opacity:1"
       id="path1065-7-1-15-4-58-6"
       cx="20.5"
       cy="71.5"
       r="9.6101246" />
    <circle
       style="display:inline;fill:#ff0000;stroke:#ff0000;stroke-width:1.94925;stroke-opacity:1"
       id="path1065-36-9"
       cx="62.5"
       cy="269.5"
       r="3.5253751" />
    <circle
       style="display:inline;fill:#ff0000;stroke:#ff0000;stroke-width:1.94925;stroke-opacity:1"
       id="path1065-36-9-9"
       cx="12.5"
       cy="269.5"
       r="3.5253751" />
  </g>
</svg>
