<?xml version="1.0" encoding="UTF-8" standalone="no"?>
<!-- Created with Inkscape (http://www.inkscape.org/) -->

<svg
   width="150"
   height="380"
   viewBox="0 0 396.875 1005.4167"
   version="1.1"
   id="svg5"
   inkscape:version="1.1.1 (3bf5ae0d25, 2021-09-20)"
   sodipodi:docname="PolyFade_Ivory.svg"
   xmlns:inkscape="http://www.inkscape.org/namespaces/inkscape"
   xmlns:sodipodi="http://sodipodi.sourceforge.net/DTD/sodipodi-0.dtd"
   xmlns="http://www.w3.org/2000/svg"
   xmlns:svg="http://www.w3.org/2000/svg">
  <sodipodi:namedview
     id="namedview7"
     pagecolor="#ffffff"
     bordercolor="#666666"
     borderopacity="1.0"
     inkscape:pageshadow="2"
     inkscape:pageopacity="0.0"
     inkscape:pagecheckerboard="0"
     inkscape:document-units="px"
     showgrid="true"
     scale-x="10"
     inkscape:showpageshadow="false"
     viewbox-x="0"
     showguides="false"
     objecttolerance="1"
     gridtolerance="1"
     guidetolerance="1"
     inkscape:zoom="2.2342105"
     inkscape:cx="75.194346"
     inkscape:cy="190"
     inkscape:window-width="1920"
     inkscape:window-height="1057"
     inkscape:window-x="1592"
     inkscape:window-y="-8"
     inkscape:window-maximized="1"
     inkscape:current-layer="layer2"
     units="px">
    <inkscape:grid
       type="xygrid"
       id="grid832"
       units="px"
       spacingx="2.6458334"
       spacingy="2.6458334"
       originx="0"
       empspacing="5"
       dotted="false"
       visible="false"
       enabled="true" />
    <inkscape:grid
       type="xygrid"
       id="grid15270"
       visible="false" />
  </sodipodi:namedview>
  <defs
     id="defs2" />
  <g
     inkscape:groupmode="layer"
     id="layer3"
     inkscape:label="Faceplate"
     style="display:inline">
    <rect
       style="display:inline;vector-effect:non-scaling-stroke;fill:#ede7dc;fill-opacity:1;stroke-width:0.186761;-inkscape-stroke:hairline"
       id="rect910-6-1-4"
       width="396.875"
       height="1005.4167"
       x="-1.1368684e-13"
       y="-1.7763568e-15" />
  </g>
  <g
     inkscape:groupmode="layer"
     id="layer4"
     inkscape:label="Brand"
     style="display:inline">
    <g
       id="g42796-0-7-2"
       transform="matrix(0.79338965,0,0,0.79458332,138.36363,-19.617974)"
       style="display:inline;fill:#ff0000;stroke-width:1.27904">
      <g
         aria-label="enom"
         id="text4270-27-8-9-0"
         style="font-size:49.3889px;line-height:1.25;font-family:'NECK ROMANCER';-inkscape-font-specification:'NECK ROMANCER, Normal';font-variant-ligatures:none;text-align:center;text-anchor:middle;fill:#ff0000;stroke-width:3.38412">
        <path
           d="m 46.609141,1249.244 q 0,1.1576 0,3.4245 3.183269,0 9.453344,0 -1.639866,0.5787 -2.990343,1.2058 -1.350478,0.627 -2.363337,1.688 -1.350477,0 -4.051433,0 0,1.4952 0.434082,2.5563 0.385851,1.1093 1.832792,1.1093 2.266873,0 6.80062,0 0.482313,-0.1447 0.868164,-0.627 0.337619,-0.5305 0.627007,-1.7363 0,2.0257 0,6.1254 -3.520888,0 -10.562665,0 -1.543403,0 -2.652724,-2.2187 -1.109321,-2.1704 -1.109321,-6.3183 0,-1.9775 0,-5.836 -0.385851,-1.3504 -1.881023,-2.1221 -1.495171,-0.7235 -3.569119,-1.2058 6.607694,0 19.774852,0 0,2.9421 0,8.7781 -1.205783,-2.701 -2.218642,-3.6656 -1.012858,-0.9646 -2.700955,-1.1093 -0.916396,-0.097 -2.170411,-0.097 -1.205783,0.048 -2.845649,0.048 -0.241157,0 -0.675239,0 z"
           id="path42762-2-5-2"
           style="fill:#ff0000;stroke-width:3.38412" />
        <path
           d="m 81.576869,1245.2891 q 0,5.8842 0,17.7009 0,3.0868 -0.144694,6.0771 -0.09646,3.0386 -0.337619,5.9325 -0.385851,-3.7138 -0.964627,-6.9936 -0.530545,-3.3279 -2.025717,-5.016 0,-2.9904 0,-8.9228 -0.241157,-1.3505 -0.72347,-2.2187 -0.482314,-0.8681 -1.06109,-1.3987 -1.109321,-1.0128 -2.411567,-1.1093 -1.350478,-0.097 -2.266874,-0.097 -0.482313,0 -1.44694,0 0,4.582 0,13.746 0,3.0868 -0.09646,6.0771 -0.144694,3.0386 -0.385851,5.9325 -0.38585,-3.7138 -0.916395,-6.9936 -0.578776,-3.3279 -2.025717,-5.016 0,-4.8232 0,-14.373 -0.385851,-1.3504 -1.881022,-2.1221 -1.495172,-0.7235 -3.56912,-1.2058 6.752389,0 20.257166,0 z"
           id="path42764-5-7-3"
           style="fill:#ff0000;stroke-width:3.38412" />
        <path
           d="m 104.19737,1249.0511 q 0,3.3762 0,10.1768 0,1.5434 -1.92925,2.6528 -1.92926,1.1093 -6.077152,1.1093 -4.196128,0 -6.125382,-1.1093 -1.929254,-1.1094 -1.929254,-2.6528 0,-3.3762 0,-10.1768 0,-1.5434 1.929254,-2.6527 1.929254,-1.1093 6.125382,-1.1093 4.147892,0 6.077152,1.1093 1.92925,1.1093 1.92925,2.6527 z m -3.76204,7.91 q 0,-1.8811 0,-5.6431 0,-1.6881 -1.254019,-1.9775 -1.205783,-0.2894 -2.990343,-0.2894 -1.832792,0 -3.038575,0.2894 -1.254015,0.2894 -1.254015,1.9775 0,1.881 0,5.6431 0,1.6881 1.254015,1.9774 1.205783,0.2894 3.038575,0.2894 1.78456,0 2.990343,-0.2894 1.254019,-0.2893 1.254019,-1.9774 z"
           id="path42766-8-9-0"
           style="fill:#ff0000;stroke-width:3.38412" />
        <path
           d="m 142.34837,1245.2891 q -2.02572,0.4823 -3.52089,1.2058 -1.5434,0.7717 -1.88102,2.1221 0,4.7749 0,14.373 -1.49517,1.6881 -2.02572,5.016 -0.57878,3.2798 -0.96463,6.9936 -0.24115,-2.8939 -0.33762,-5.9325 -0.14469,-2.9903 -0.14469,-6.0771 0,-4.582 0,-13.746 -0.48231,0 -1.39871,0 -0.53054,0 -1.15755,0 -0.62701,0 -1.30225,0.1447 -1.25401,0.2412 -2.41157,1.2058 -1.15755,0.9646 -1.63986,3.4727 0,2.9903 0,8.9228 -0.1447,0.627 -0.28939,1.1093 -0.0965,0.4823 -0.19292,0.8199 -0.53055,1.9775 -0.38586,1.3505 0.19293,-0.627 -0.28938,1.1576 -0.0965,0.3376 -0.24116,0.8681 -0.14469,0.5306 -0.33762,1.3023 -0.14469,-0.6753 -0.28939,-1.2058 -0.14469,-0.4823 -0.24115,-0.8199 -0.53055,-2.0258 -0.33762,-1.3023 0.19292,0.7717 -0.43409,-1.6881 -0.0482,-0.2894 -0.19292,-0.7235 -0.0965,-0.3858 -0.19293,-0.8681 0,-2.9904 0,-8.9228 -0.28939,-1.3505 -0.7717,-2.2187 -0.48231,-0.8681 -1.06109,-1.3987 -1.10932,-1.0128 -2.41157,-1.1093 -1.30224,-0.097 -2.26687,-0.097 -0.48231,0 -1.39871,0 0,4.582 0,13.746 0,3.0868 -0.14469,6.0771 -0.0965,3.0386 -0.33762,5.9325 -0.38585,-3.7138 -0.96463,-6.9936 -0.53054,-3.3279 -2.02572,-5.016 0,-4.8232 0,-14.373 -0.38585,-1.3504 -1.88102,-2.1221 -1.49517,-0.7235 -3.56912,-1.2058 3.95497,0 11.76845,0 1.15755,0.3858 3.47266,1.1575 0.7717,0.2894 1.59163,0.4341 0.81994,0.1447 1.6881,0.1447 0.86816,0 1.73633,-0.1447 0.81993,-0.1447 1.59163,-0.4341 1.15756,-0.3858 3.42443,-1.1575 3.95497,0 11.76845,0 z"
           id="path42768-1-5-9"
           style="fill:#ff0000;stroke-width:3.38412" />
      </g>
      <g
         aria-label="V"
         transform="matrix(1.2363173,0,0,0.80885384,-497.88086,123.48586)"
         id="text4270-3-5-2-4-0-7"
         style="font-size:78.5061px;line-height:1.25;font-family:Nosferotica;-inkscape-font-specification:'Nosferotica, Normal';font-variant-ligatures:none;text-align:center;text-anchor:middle;fill:#ff0000;stroke-width:4.18383">
        <path
           d="m 431.64994,1360.6864 8.57428,-0.1022 c 0,0 -4.4079,1.0878 -5.59925,3.7285 -1.88083,4.1689 -3.64217,14.6628 -3.64217,14.6628 l -2.23339,11.5191 -1.83311,11.8311 -1.71824,21.3112 -1.69514,-21.3112 -1.92196,-11.5208 -2.5009,-11.8294 c 0,0 -1.52027,-10.287 -3.38278,-14.4832 -1.14458,-2.5787 -5.63367,-3.8059 -5.63367,-3.8059 h 8.4657 l 6.66875,29.1569 z"
           id="path30410-2-3-0"
           sodipodi:nodetypes="ccscccccccscccc"
           style="fill:#ff0000;stroke-width:4.18383" />
      </g>
    </g>
  </g>
  <g
     inkscape:groupmode="layer"
     id="layer5"
     inkscape:label="Solid"
     style="display:inline">
    <g
       aria-label="POLY FADE"
       id="text6865-9-4-9-1"
       style="font-weight:bold;font-size:35.2778px;line-height:1.25;font-family:Arial;-inkscape-font-specification:'Arial, Bold';font-variant-ligatures:none;text-align:center;text-anchor:middle;display:inline;fill:#252525;stroke-width:2.64583">
      <path
         d="M 102.56912,52.582726 V 27.330159 h 8.1821 q 4.65089,0 6.06338,0.37896 2.17041,0.568442 3.63457,2.480471 1.46417,1.894804 1.46417,4.909264 0,2.325441 -0.84405,3.910186 -0.84405,1.584745 -2.15319,2.497696 -1.29191,0.895726 -2.6355,1.188559 -1.8259,0.361735 -5.28822,0.361735 h -3.32452 v 9.525696 z m 5.09874,-20.980646 v 7.165803 h 2.79053 q 3.01446,0 4.03076,-0.396186 1.01631,-0.396186 1.58475,-1.240235 0.58567,-0.844049 0.58567,-1.963706 0,-1.378039 -0.8096,-2.273764 -0.8096,-0.895726 -2.04984,-1.119657 -0.91295,-0.172255 -3.66902,-0.172255 z"
         id="path1610" />
      <path
         d="m 125.0656,40.111471 q 0,-3.858509 1.15411,-6.476783 0.86128,-1.929255 2.34267,-3.462324 1.49862,-1.533068 3.27284,-2.273764 2.35989,-0.999079 5.44326,-0.999079 5.58105,0 8.9228,3.462324 3.35897,3.462323 3.35897,9.629048 0,6.115049 -3.32452,9.577372 -3.32452,3.445098 -8.88835,3.445098 -5.63274,0 -8.95726,-3.427873 -3.32452,-3.445097 -3.32452,-9.474019 z m 5.25378,-0.172254 q 0,4.289146 1.98093,6.511234 1.98093,2.204863 5.02984,2.204863 3.04891,0 4.99539,-2.187637 1.96371,-2.204863 1.96371,-6.597362 0,-4.340824 -1.91203,-6.476784 -1.8948,-2.135961 -5.04707,-2.135961 -3.15226,0 -5.08152,2.170412 -1.92925,2.153186 -1.92925,6.511235 z"
         id="path1612" />
      <path
         d="M 153.67714,52.582726 V 27.536864 h 5.09875 V 48.32803 h 12.67796 v 4.254696 z"
         id="path1614" />
      <path
         d="M 178.48184,52.582726 V 41.954599 l -9.25008,-14.62444 h 5.97724 l 5.94279,9.990783 5.82222,-9.990783 h 5.87389 l -9.28454,14.658891 v 10.593676 z"
         id="path1616" />
      <path
         d="M 204.57847,52.582726 V 27.330159 h 17.31161 v 4.271921 h -12.21287 v 5.977245 h 10.542 v 4.271921 h -10.542 v 10.73148 z"
         id="path1618" />
      <path
         d="m 246.91871,52.582726 h -5.54661 l -2.20486,-5.736088 H 229.0731 l -2.08428,5.736088 h -5.4088 l 9.83575,-25.252567 h 5.39158 z m -9.38789,-9.990784 -3.47955,-9.370666 -3.41065,9.370666 z"
         id="path1620" />
      <path
         d="m 249.60589,27.330159 h 9.31899 q 3.15227,0 4.80591,0.482313 2.22209,0.654569 3.80684,2.325441 1.58474,1.670873 2.41156,4.099667 0.82683,2.411568 0.82683,5.960019 0,3.117813 -0.77515,5.374352 -0.9474,2.756079 -2.7044,4.461402 -1.32636,1.291912 -3.5829,2.015382 -1.6881,0.533991 -4.51308,0.533991 h -9.5946 z m 5.09875,4.271921 v 16.72595 h 3.80683 q 2.13596,0 3.08336,-0.241157 1.24024,-0.310059 2.04983,-1.050755 0.82683,-0.740696 1.34359,-2.428794 0.51677,-1.705323 0.51677,-4.633656 0,-2.928334 -0.51677,-4.495853 -0.51676,-1.56752 -1.44694,-2.44602 -0.93017,-0.878499 -2.35989,-1.188558 -1.06798,-0.241157 -4.18579,-0.241157 z"
         id="path1622" />
      <path
         d="M 275.09962,52.582726 V 27.330159 h 18.7241 v 4.271921 h -13.62536 v 5.598284 h 12.67796 v 4.254696 h -12.67796 v 6.87297 h 14.10768 v 4.254696 z"
         id="path1624" />
    </g>
    <g
       aria-label="PHASOR"
       id="text6865-2-3-4-4-7"
       style="font-weight:bold;font-size:21.1667px;line-height:1.25;font-family:Arial;-inkscape-font-specification:'Arial, Bold';font-variant-ligatures:none;text-align:center;text-anchor:middle;display:inline;fill:#252525;stroke-width:2.64583"
       transform="translate(-22.197704)">
      <path
         d="m 39.92265,722.37372 v -15.15156 h 4.909269 q 2.790531,0 3.638026,0.22738 1.302248,0.34107 2.180749,1.48828 0.878501,1.13689 0.878501,2.94557 0,1.39526 -0.50643,2.34611 -0.50643,0.95085 -1.291913,1.49862 -0.775148,0.53743 -1.581301,0.71313 -1.095542,0.21705 -3.172938,0.21705 h -1.994714 v 5.71542 z m 3.059249,-12.5884 v 4.29949 h 1.674319 q 1.808678,0 2.418461,-0.23772 0.609783,-0.23771 0.950848,-0.74414 0.3514,-0.50643 0.3514,-1.17822 0,-0.82683 -0.485759,-1.36426 -0.485759,-0.53744 -1.229901,-0.6718 -0.547771,-0.10335 -2.201419,-0.10335 z"
         id="path1627" />
      <path
         d="m 54.051009,722.37372 v -15.15156 h 3.05925 v 5.96347 h 5.994475 v -5.96347 h 3.05925 v 15.15156 h -3.05925 v -6.62493 h -5.994475 v 6.62493 z"
         id="path1629" />
      <path
         d="m 82.989858,722.37372 h -3.327967 l -1.322919,-3.44166 h -6.056487 l -1.250572,3.44166 h -3.245285 l 5.901458,-15.15156 h 3.23495 z m -5.63274,-5.99448 -2.087731,-5.6224 -2.04639,5.6224 z"
         id="path1631" />
      <path
         d="m 83.837352,717.44378 2.976567,-0.28939 q 0.268718,1.49862 1.085207,2.20142 0.826824,0.7028 2.22209,0.7028 1.477948,0 2.22209,-0.62012 0.754477,-0.63045 0.754477,-1.46761 0,-0.53744 -0.320394,-0.90951 -0.310059,-0.3824 -1.095542,-0.66146 -0.537436,-0.18603 -2.449467,-0.66146 -2.459802,-0.60978 -3.451991,-1.49862 -1.395266,-1.25057 -1.395266,-3.04891 0,-1.15755 0.651124,-2.16008 0.661459,-1.01286 1.89136,-1.53996 1.240237,-0.5271 2.986903,-0.5271 2.852544,0 4.289151,1.25057 1.446942,1.25057 1.519289,3.33831 l -3.059249,0.13436 q -0.196371,-1.16789 -0.847495,-1.67432 -0.640789,-0.51677 -1.932702,-0.51677 -1.333254,0 -2.087731,0.54777 -0.485759,0.3514 -0.485759,0.94051 0,0.53744 0.454753,0.91985 0.578777,0.48576 2.811202,1.01286 2.232426,0.5271 3.296962,1.09554 1.074871,0.5581 1.674319,1.53996 0.609783,0.97152 0.609783,2.40812 0,1.30225 -0.723471,2.43914 -0.723472,1.13688 -2.04639,1.69499 -1.322919,0.54777 -3.296962,0.54777 -2.873214,0 -4.413174,-1.32292 -1.53996,-1.33326 -1.839684,-3.87574 z"
         id="path1633" />
      <path
         d="m 98.110408,714.89096 q 0,-2.31511 0.692465,-3.88607 0.516766,-1.15756 1.405597,-2.0774 0.89918,-0.91984 1.96371,-1.36426 1.41594,-0.59945 3.26596,-0.59945 3.34864,0 5.35368,2.0774 2.01539,2.07739 2.01539,5.77743 0,3.66903 -1.99471,5.74643 -1.99472,2.06706 -5.33302,2.06706 -3.37964,0 -5.37436,-2.05672 -1.994712,-2.06707 -1.994712,-5.68442 z m 3.152272,-0.10335 q 0,2.57349 1.18856,3.90674 1.18856,1.32292 3.0179,1.32292 1.82935,0 2.99724,-1.31258 1.17823,-1.32292 1.17823,-3.95843 0,-2.60449 -1.14722,-3.88607 -1.13689,-1.28158 -3.02825,-1.28158 -1.89136,0 -3.04891,1.30225 -1.15755,1.29191 -1.15755,3.90675 z"
         id="path1635" />
      <path
         d="m 115.205,722.37372 v -15.15156 h 6.43889 q 2.4288,0 3.52434,0.41342 1.10588,0.40307 1.76733,1.44694 0.66146,1.04386 0.66146,2.38745 0,1.70533 -1.00252,2.82154 -1.00252,1.10588 -2.99724,1.39527 0.99219,0.57877 1.63298,1.27124 0.65112,0.69246 1.74667,2.4598 l 1.85002,2.9559 h -3.6587 l -2.21176,-3.29696 q -1.17822,-1.76734 -1.6123,-2.22209 -0.43409,-0.46509 -0.91985,-0.63046 -0.48576,-0.1757 -1.53996,-0.1757 h -0.62011 v 6.32521 z m 3.05925,-8.74367 h 2.26343 q 2.20142,0 2.74919,-0.18603 0.54777,-0.18604 0.85783,-0.64079 0.31006,-0.45476 0.31006,-1.13689 0,-0.76481 -0.41342,-1.2299 -0.40307,-0.47542 -1.14721,-0.59944 -0.37208,-0.0517 -2.23243,-0.0517 h -2.38745 z"
         id="path1637" />
    </g>
    <g
       aria-label="IN"
       id="text6865-2-68-7-2-8"
       style="font-weight:bold;font-size:21.1667px;line-height:1.25;font-family:Arial;-inkscape-font-specification:'Arial, Bold';font-variant-ligatures:none;text-align:center;text-anchor:middle;display:inline;fill:#252525;stroke-width:2.64583"
       transform="translate(45.420166)">
      <path
         d="m 189.42512,722.37891 v -15.15156 h 3.05925 v 15.15156 z"
         id="path1640" />
      <path
         d="m 195.42993,722.37891 v -15.15156 h 2.97656 l 6.20119,10.11826 v -10.11826 h 2.8422 v 15.15156 h -3.06958 l -6.10817,-9.88055 v 9.88055 z"
         id="path1642" />
    </g>
    <g
       aria-label="RESET"
       id="text6865-2-31-4-2-0"
       style="font-weight:bold;font-size:21.1667px;line-height:1.25;font-family:Arial;-inkscape-font-specification:'Arial, Bold';font-variant-ligatures:none;text-align:center;text-anchor:middle;display:inline;fill:#252525;stroke-width:2.64583"
       transform="translate(-160.51433)">
      <path
         d="m 279.23917,722.37372 v -15.15156 h 6.4389 q 2.42879,0 3.52434,0.41342 1.10587,0.40307 1.76733,1.44694 0.66146,1.04386 0.66146,2.38745 0,1.70533 -1.00252,2.82154 -1.00253,1.10588 -2.99724,1.39527 0.99219,0.57877 1.63298,1.27124 0.65112,0.69246 1.74666,2.4598 l 1.85002,2.9559 h -3.65869 l -2.21176,-3.29696 q -1.17822,-1.76734 -1.61231,-2.22209 -0.43408,-0.46509 -0.91984,-0.63046 -0.48576,-0.1757 -1.53996,-0.1757 h -0.62012 v 6.32521 z m 3.05925,-8.74367 h 2.26343 q 2.20142,0 2.7492,-0.18603 0.54777,-0.18604 0.85783,-0.64079 0.31005,-0.45476 0.31005,-1.13689 0,-0.76481 -0.41341,-1.2299 -0.40307,-0.47542 -1.14722,-0.59944 -0.37207,-0.0517 -2.23242,-0.0517 h -2.38746 z"
         id="path1645" />
      <path
         d="m 294.51475,722.37372 v -15.15156 h 11.23448 v 2.56316 H 297.574 v 3.35897 h 7.60678 v 2.55282 H 297.574 v 4.12379 h 8.46461 v 2.55282 z"
         id="path1647" />
      <path
         d="m 307.85763,717.44378 2.97657,-0.28939 q 0.26871,1.49862 1.0852,2.20142 0.82683,0.7028 2.22209,0.7028 1.47795,0 2.22209,-0.62012 0.75448,-0.63045 0.75448,-1.46761 0,-0.53744 -0.32039,-0.90951 -0.31006,-0.3824 -1.09555,-0.66146 -0.53743,-0.18603 -2.44946,-0.66146 -2.45981,-0.60978 -3.45199,-1.49862 -1.39527,-1.25057 -1.39527,-3.04891 0,-1.15755 0.65112,-2.16008 0.66146,-1.01286 1.89136,-1.53996 1.24024,-0.5271 2.98691,-0.5271 2.85254,0 4.28915,1.25057 1.44694,1.25057 1.51929,3.33831 l -3.05925,0.13436 q -0.19637,-1.16789 -0.8475,-1.67432 -0.64079,-0.51677 -1.9327,-0.51677 -1.33325,0 -2.08773,0.54777 -0.48576,0.3514 -0.48576,0.94051 0,0.53744 0.45475,0.91985 0.57878,0.48576 2.81121,1.01286 2.23242,0.5271 3.29696,1.09554 1.07487,0.5581 1.67432,1.53996 0.60978,0.97152 0.60978,2.40812 0,1.30225 -0.72347,2.43914 -0.72347,1.13688 -2.04639,1.69499 -1.32292,0.54777 -3.29696,0.54777 -2.87322,0 -4.41318,-1.32292 -1.53996,-1.33326 -1.83968,-3.87574 z"
         id="path1649" />
      <path
         d="m 322.7508,722.37372 v -15.15156 h 11.23447 v 2.56316 h -8.17522 v 3.35897 h 7.60678 v 2.55282 h -7.60678 v 4.12379 h 8.46461 v 2.55282 z"
         id="path1651" />
      <path
         d="m 340.27947,722.37372 v -12.5884 h -4.49585 v -2.56316 h 12.04062 v 2.56316 h -4.48552 v 12.5884 z"
         id="path1653" />
    </g>
    <g
       aria-label="RISE"
       id="text6865-4-5-5-8"
       style="font-weight:bold;font-size:21.1667px;line-height:1.25;font-family:Arial;-inkscape-font-specification:'Arial, Bold';font-variant-ligatures:none;text-align:center;text-anchor:middle;display:inline;fill:#252525;stroke-width:2.64583"
       transform="translate(-62.176674)">
      <path
         d="M 112.86151,92.551163 V 77.399609 h 6.43889 q 2.4288,0 3.52434,0.413412 1.10588,0.403077 1.76734,1.446942 0.66146,1.043866 0.66146,2.387455 0,1.705325 -1.00253,2.821538 -1.00252,1.105877 -2.99723,1.395266 0.99219,0.578777 1.63297,1.271242 0.65113,0.692465 1.74667,2.459802 l 1.85002,2.955897 h -3.6587 l -2.21175,-3.296962 q -1.17823,-1.767337 -1.61231,-2.22209 -0.43408,-0.465089 -0.91984,-0.630454 -0.48576,-0.1757 -1.53996,-0.1757 h -0.62012 v 6.325206 z m 3.05925,-8.743667 h 2.26343 q 2.20142,0 2.74919,-0.186035 0.54777,-0.186035 0.85783,-0.640789 0.31006,-0.454753 0.31006,-1.136883 0,-0.764813 -0.41341,-1.229901 -0.40308,-0.475424 -1.14722,-0.599448 -0.37207,-0.05168 -2.23243,-0.05168 h -2.38745 z"
         id="path1656" />
      <path
         d="M 128.04407,92.551163 V 77.399609 h 3.05925 v 15.151554 z"
         id="path1658" />
      <path
         d="m 133.24273,87.621223 2.97656,-0.289388 q 0.26872,1.498619 1.08521,2.201419 0.82683,0.702801 2.22209,0.702801 1.47795,0 2.22209,-0.620118 0.75448,-0.630454 0.75448,-1.467613 0,-0.537436 -0.3204,-0.909507 -0.31005,-0.382406 -1.09554,-0.661459 -0.53743,-0.186036 -2.44946,-0.66146 -2.45981,-0.609783 -3.452,-1.498619 -1.39526,-1.250571 -1.39526,-3.048914 0,-1.157554 0.65112,-2.160078 0.66146,-1.01286 1.89136,-1.53996 1.24024,-0.527101 2.98691,-0.527101 2.85254,0 4.28915,1.250572 1.44694,1.250571 1.51929,3.338303 l -3.05925,0.134359 q -0.19637,-1.16789 -0.8475,-1.67432 -0.64079,-0.516765 -1.9327,-0.516765 -1.33325,0 -2.08773,0.547771 -0.48576,0.351401 -0.48576,0.940513 0,0.537436 0.45475,0.919842 0.57878,0.485759 2.8112,1.01286 2.23243,0.5271 3.29697,1.095542 1.07487,0.558106 1.67432,1.53996 0.60978,0.971518 0.60978,2.408125 0,1.302249 -0.72347,2.439132 -0.72347,1.136883 -2.04639,1.69499 -1.32292,0.547771 -3.29696,0.547771 -2.87322,0 -4.41318,-1.322919 -1.53996,-1.333254 -1.83968,-3.875739 z"
         id="path1660" />
      <path
         d="M 148.1359,92.551163 V 77.399609 h 11.23447 v 2.563155 h -8.17522 v 3.358973 h 7.60678 v 2.55282 h -7.60678 v 4.123786 h 8.46461 v 2.55282 z"
         id="path1662" />
    </g>
    <g
       aria-label="FALL"
       id="text6865-76-0-5-6"
       style="font-weight:bold;font-size:21.1667px;line-height:1.25;font-family:Arial;-inkscape-font-specification:'Arial, Bold';font-variant-ligatures:none;text-align:center;text-anchor:middle;display:inline;fill:#252525;stroke-width:2.64583"
       transform="translate(-62.176872)">
      <path
         d="M 235.26206,92.556328 V 77.404774 h 10.38697 v 2.563155 h -7.32772 v 3.58635 h 6.3252 v 2.563155 h -6.3252 v 6.438894 z"
         id="path1665" />
      <path
         d="m 260.66623,92.556328 h -3.32797 l -1.32292,-3.441656 h -6.05648 l -1.25058,3.441656 H 245.463 l 5.90146,-15.151554 h 3.23495 z m -5.63274,-5.994476 -2.08773,-5.622405 -2.04639,5.622405 z"
         id="path1667" />
      <path
         d="M 262.37156,92.556328 V 77.528797 h 3.05925 v 12.474711 h 7.60678 v 2.55282 z"
         id="path1669" />
      <path
         d="M 275.30102,92.556328 V 77.528797 h 3.05925 v 12.474711 h 7.60678 v 2.55282 z"
         id="path1671" />
    </g>
    <g
       aria-label="WIDTH"
       id="text6865-71-0-3"
       style="font-weight:bold;font-size:21.1667px;line-height:1.25;font-family:Arial;-inkscape-font-specification:'Arial, Bold';font-variant-ligatures:none;text-align:center;text-anchor:middle;display:inline;fill:#252525;stroke-width:2.64583">
      <path
         d="m 43.868519,276.51123 -3.617356,-15.15155 h 3.131597 l 2.284102,10.40765 2.769861,-10.40765 h 3.638027 l 2.656172,10.58335 2.325444,-10.58335 h 3.07992 l -3.679368,15.15155 h -3.245285 l -3.017909,-11.32749 -3.007573,11.32749 z"
         id="path1674" />
      <path
         d="m 61.603898,276.51123 v -15.15155 h 3.05925 v 15.15155 z"
         id="path1676" />
      <path
         d="m 67.567368,261.35968 h 5.591398 q 1.891361,0 2.88355,0.28938 1.333254,0.39275 2.284102,1.39527 0.950848,1.00253 1.446942,2.4598 0.496095,1.44695 0.496095,3.57602 0,1.87069 -0.465089,3.22461 -0.568441,1.65365 -1.622642,2.67685 -0.795819,0.77514 -2.149743,1.20923 -1.01286,0.32039 -2.70785,0.32039 h -5.756763 z m 3.059249,2.56315 v 10.03558 h 2.284102 q 1.281578,0 1.850019,-0.14469 0.744142,-0.18604 1.229901,-0.63046 0.496095,-0.44442 0.806154,-1.45727 0.310059,-1.0232 0.310059,-2.7802 0,-1.757 -0.310059,-2.69752 -0.310059,-0.94051 -0.868165,-1.46761 -0.558107,-0.5271 -1.415937,-0.71313 -0.640789,-0.1447 -2.511479,-0.1447 z"
         id="path1678" />
      <path
         d="m 86.274266,276.51123 v -12.5884 H 81.77841 v -2.56315 h 12.040627 v 2.56315 h -4.485521 v 12.5884 z"
         id="path1680" />
      <path
         d="m 95.803418,276.51123 v -15.15155 h 3.05925 v 5.96347 h 5.994472 v -5.96347 h 3.05925 v 15.15155 h -3.05925 v -6.62493 h -5.994472 v 6.62493 z"
         id="path1682" />
    </g>
    <g
       aria-label="SKEW"
       id="text6865-2-8-1-6"
       style="font-weight:bold;font-size:21.1667px;line-height:1.25;font-family:Arial;-inkscape-font-specification:'Arial, Bold';font-variant-ligatures:none;text-align:center;text-anchor:middle;display:inline;fill:#252525;stroke-width:2.64583">
      <path
         d="m 292.75774,271.57613 2.97657,-0.28938 q 0.26872,1.49861 1.08521,2.20141 0.82682,0.70281 2.22209,0.70281 1.47795,0 2.22209,-0.62012 0.75447,-0.63046 0.75447,-1.46762 0,-0.53743 -0.32039,-0.9095 -0.31006,-0.38241 -1.09554,-0.66146 -0.53744,-0.18604 -2.44947,-0.66146 -2.4598,-0.60978 -3.45199,-1.49862 -1.39527,-1.25057 -1.39527,-3.04891 0,-1.15756 0.65113,-2.16008 0.66146,-1.01286 1.89136,-1.53996 1.24023,-0.5271 2.9869,-0.5271 2.85254,0 4.28915,1.25057 1.44694,1.25057 1.51929,3.3383 l -3.05925,0.13436 q -0.19637,-1.16789 -0.84749,-1.67432 -0.64079,-0.51676 -1.9327,-0.51676 -1.33326,0 -2.08774,0.54777 -0.48576,0.3514 -0.48576,0.94051 0,0.53743 0.45476,0.91984 0.57877,0.48576 2.8112,1.01286 2.23243,0.5271 3.29696,1.09554 1.07487,0.55811 1.67432,1.53996 0.60978,0.97152 0.60978,2.40813 0,1.30225 -0.72347,2.43913 -0.72347,1.13688 -2.04639,1.69499 -1.32292,0.54777 -3.29696,0.54777 -2.87321,0 -4.41317,-1.32292 -1.53996,-1.33325 -1.83969,-3.87574 z"
         id="path1685" />
      <path
         d="m 307.69226,276.50607 v -15.15155 h 3.05925 v 6.72828 l 6.18051,-6.72828 h 4.11345 l -5.70509,5.90146 6.01515,9.25009 h -3.95842 l -4.16513,-7.11069 -2.48047,2.53215 v 4.57854 z"
         id="path1687" />
      <path
         d="m 322.93683,276.50607 v -15.15155 h 11.23447 v 2.56315 h -8.17522 v 3.35898 h 7.60678 v 2.55282 h -7.60678 v 4.12378 h 8.46461 v 2.55282 z"
         id="path1689" />
      <path
         d="m 339.20459,276.50607 -3.61735,-15.15155 h 3.1316 l 2.2841,10.40765 2.76986,-10.40765 h 3.63803 l 2.65617,10.58335 2.32544,-10.58335 h 3.07992 l -3.67937,15.15155 h -3.24528 l -3.01791,-11.32749 -3.00757,11.32749 z"
         id="path1691" />
    </g>
    <g
       aria-label="HOLD"
       id="text6865-7-4-6-2"
       style="font-weight:bold;font-size:21.1667px;line-height:1.25;font-family:Arial;-inkscape-font-specification:'Arial, Bold';font-variant-ligatures:none;text-align:center;text-anchor:middle;display:inline;fill:#252525;stroke-width:2.64583">
      <path
         d="m 169.75703,276.51123 v -15.15155 h 3.05925 v 5.96347 h 5.99448 v -5.96347 h 3.05925 v 15.15155 h -3.05925 v -6.62493 h -5.99448 v 6.62493 z"
         id="path1694" />
      <path
         d="m 184.41249,269.02847 q 0,-2.31511 0.69247,-3.88607 0.51677,-1.15756 1.4056,-2.0774 0.89917,-0.91984 1.96371,-1.36426 1.41594,-0.59945 3.26595,-0.59945 3.34864,0 5.35369,2.0774 2.01539,2.0774 2.01539,5.77743 0,3.66904 -1.99472,5.74643 -1.99471,2.06706 -5.33301,2.06706 -3.37965,0 -5.37436,-2.05672 -1.99472,-2.06706 -1.99472,-5.68442 z m 3.15227,-0.10335 q 0,2.57349 1.18856,3.90674 1.18856,1.32292 3.01791,1.32292 1.82935,0 2.99724,-1.31258 1.17822,-1.32292 1.17822,-3.95842 0,-2.6045 -1.14722,-3.88608 -1.13688,-1.28157 -3.02824,-1.28157 -1.89136,0 -3.04891,1.30224 -1.15756,1.29192 -1.15756,3.90675 z"
         id="path1696" />
      <path
         d="M 201.57943,276.51123 V 261.4837 h 3.05925 v 12.47471 h 7.60679 v 2.55282 z"
         id="path1698" />
      <path
         d="m 214.41588,261.35968 h 5.5914 q 1.89136,0 2.88355,0.28938 1.33325,0.39275 2.2841,1.39527 0.95085,1.00253 1.44694,2.4598 0.4961,1.44695 0.4961,3.57602 0,1.87069 -0.46509,3.22461 -0.56844,1.65365 -1.62264,2.67685 -0.79582,0.77514 -2.14975,1.20923 -1.01286,0.32039 -2.70785,0.32039 h -5.75676 z m 3.05925,2.56315 v 10.03558 h 2.2841 q 1.28158,0 1.85002,-0.14469 0.74414,-0.18604 1.2299,-0.63046 0.4961,-0.44442 0.80616,-1.45727 0.31005,-1.0232 0.31005,-2.7802 0,-1.757 -0.31005,-2.69752 -0.31006,-0.94051 -0.86817,-1.46761 -0.55811,-0.5271 -1.41594,-0.71313 -0.64079,-0.1447 -2.51148,-0.1447 z"
         id="path1700" />
    </g>
    <g
       aria-label="START"
       id="text6865-2-9-4-8-8"
       style="font-weight:bold;font-size:21.1667px;line-height:1.25;font-family:Arial;-inkscape-font-specification:'Arial, Bold';font-variant-ligatures:none;text-align:center;text-anchor:middle;display:inline;fill:#252525;stroke-width:2.64583">
      <path
         d="m 300.80847,515.08807 2.97657,-0.28939 q 0.26871,1.49862 1.0852,2.20142 0.82683,0.7028 2.22209,0.7028 1.47795,0 2.22209,-0.62012 0.75448,-0.63045 0.75448,-1.46761 0,-0.53744 -0.32039,-0.90951 -0.31006,-0.38241 -1.09555,-0.66146 -0.53743,-0.18604 -2.44946,-0.66146 -2.45981,-0.60978 -3.45199,-1.49862 -1.39527,-1.25057 -1.39527,-3.04891 0,-1.15756 0.65112,-2.16008 0.66146,-1.01286 1.89136,-1.53996 1.24024,-0.5271 2.98691,-0.5271 2.85254,0 4.28915,1.25057 1.44694,1.25057 1.51929,3.3383 l -3.05925,0.13436 q -0.19637,-1.16789 -0.8475,-1.67432 -0.64079,-0.51676 -1.9327,-0.51676 -1.33325,0 -2.08773,0.54777 -0.48576,0.3514 -0.48576,0.94051 0,0.53744 0.45475,0.91984 0.57878,0.48576 2.81121,1.01286 2.23242,0.5271 3.29696,1.09555 1.07487,0.5581 1.67432,1.53996 0.60978,0.97151 0.60978,2.40812 0,1.30225 -0.72347,2.43913 -0.72347,1.13689 -2.04639,1.69499 -1.32292,0.54777 -3.29696,0.54777 -2.87322,0 -4.41318,-1.32292 -1.53996,-1.33325 -1.83968,-3.87573 z"
         id="path1703" />
      <path
         d="m 319.11229,520.01801 v -12.5884 h -4.49586 v -2.56316 h 12.04063 v 2.56316 h -4.48552 v 12.5884 z"
         id="path1705" />
      <path
         d="m 340.72341,520.01801 h -3.32797 l -1.32292,-3.44166 h -6.05649 l -1.25057,3.44166 h -3.24528 l 5.90145,-15.15156 h 3.23495 z m -5.63274,-5.99448 -2.08773,-5.62241 -2.04639,5.62241 z"
         id="path1707" />
      <path
         d="m 342.35639,520.01801 v -15.15156 h 6.43889 q 2.4288,0 3.52434,0.41341 1.10588,0.40308 1.76734,1.44695 0.66146,1.04386 0.66146,2.38745 0,1.70533 -1.00253,2.82154 -1.00252,1.10588 -2.99724,1.39526 0.99219,0.57878 1.63298,1.27125 0.65113,0.69246 1.74667,2.4598 l 1.85002,2.9559 h -3.6587 l -2.21176,-3.29697 q -1.17822,-1.76733 -1.6123,-2.22209 -0.43409,-0.46509 -0.91984,-0.63045 -0.48576,-0.1757 -1.53996,-0.1757 h -0.62012 v 6.32521 z m 3.05925,-8.74367 h 2.26343 q 2.20142,0 2.74919,-0.18604 0.54777,-0.18603 0.85783,-0.64079 0.31006,-0.45475 0.31006,-1.13688 0,-0.76481 -0.41341,-1.2299 -0.40308,-0.47542 -1.14722,-0.59945 -0.37207,-0.0517 -2.23243,-0.0517 h -2.38745 z"
         id="path1709" />
      <path
         d="m 361.04261,520.01801 v -12.5884 h -4.49585 v -2.56316 h 12.04063 v 2.56316 h -4.48553 v 12.5884 z"
         id="path1711" />
    </g>
    <g
       aria-label="CHAN"
       id="text6865-2-6-1-1-6"
       style="font-weight:bold;font-size:21.1667px;line-height:1.25;font-family:Arial;-inkscape-font-specification:'Arial, Bold';font-variant-ligatures:none;text-align:center;text-anchor:middle;display:inline;fill:#252525;stroke-width:2.64583">
      <path
         d="m 224.86655,514.45247 2.96623,0.94051 q -0.68213,2.48047 -2.27376,3.6897 -1.5813,1.1989 -4.02044,1.1989 -3.0179,0 -4.96094,-2.05673 -1.94304,-2.06706 -1.94304,-5.64307 0,-3.78273 1.95337,-5.87046 1.95338,-2.09806 5.13665,-2.09806 2.7802,0 4.51653,1.64331 1.03353,0.97152 1.55029,2.79053 l -3.02824,0.72347 q -0.26872,-1.17822 -1.12655,-1.86035 -0.84749,-0.68213 -2.06706,-0.68213 -1.68465,0 -2.73886,1.20923 -1.04386,1.20923 -1.04386,3.91708 0,2.87321 1.03353,4.09278 1.03353,1.21956 2.68718,1.21956 1.21956,0 2.09806,-0.77514 0.87851,-0.77515 1.26091,-2.43913 z"
         id="path1714" />
      <path
         d="m 230.46829,520.02319 v -15.15155 h 3.05925 v 5.96347 h 5.99447 v -5.96347 h 3.05925 v 15.15155 h -3.05925 v -6.62493 h -5.99447 v 6.62493 z"
         id="path1716" />
      <path
         d="m 259.40713,520.02319 h -3.32796 l -1.32292,-3.44165 h -6.05649 l -1.25057,3.44165 h -3.24529 l 5.90146,-15.15155 h 3.23495 z m -5.63274,-5.99447 -2.08773,-5.62241 -2.04639,5.62241 z"
         id="path1718" />
      <path
         d="m 261.06079,520.02319 v -15.15155 h 2.97656 l 6.20118,10.11826 v -10.11826 h 2.84221 v 15.15155 h -3.06958 l -6.10817,-9.88055 v 9.88055 z"
         id="path1720" />
    </g>
    <g
       aria-label="DIR"
       id="text6865-2-5-7-3-0"
       style="font-weight:bold;font-size:21.1667px;line-height:1.25;font-family:Arial;-inkscape-font-specification:'Arial, Bold';font-variant-ligatures:none;text-align:center;text-anchor:middle;display:inline;fill:#252525;stroke-width:2.64583">
      <path
         d="m 135.61274,504.87164 h 5.59139 q 1.89137,0 2.88355,0.28939 1.33326,0.39274 2.28411,1.39526 0.95084,1.00253 1.44694,2.45981 0.49609,1.44694 0.49609,3.57601 0,1.87069 -0.46509,3.22462 -0.56844,1.65364 -1.62264,2.67684 -0.79582,0.77515 -2.14974,1.20923 -1.01286,0.32039 -2.70785,0.32039 h -5.75676 z m 3.05925,2.56315 v 10.03558 h 2.2841 q 1.28158,0 1.85002,-0.14469 0.74414,-0.18604 1.2299,-0.63045 0.49609,-0.44442 0.80615,-1.45728 0.31006,-1.0232 0.31006,-2.7802 0,-1.757 -0.31006,-2.69751 -0.31006,-0.94051 -0.86816,-1.46762 -0.55811,-0.5271 -1.41594,-0.71313 -0.64079,-0.1447 -2.51148,-0.1447 z"
         id="path1723" />
      <path
         d="m 150.81597,520.02319 v -15.15155 h 3.05925 v 15.15155 z"
         id="path1725" />
      <path
         d="m 156.80011,520.02319 v -15.15155 h 6.43889 q 2.4288,0 3.52434,0.41341 1.10588,0.40308 1.76734,1.44694 0.66146,1.04387 0.66146,2.38746 0,1.70532 -1.00253,2.82154 -1.00252,1.10587 -2.99724,1.39526 0.99219,0.57878 1.63298,1.27124 0.65112,0.69247 1.74667,2.45981 l 1.85002,2.95589 h -3.6587 l -2.21176,-3.29696 q -1.17822,-1.76734 -1.6123,-2.22209 -0.43409,-0.46509 -0.91985,-0.63045 -0.48575,-0.1757 -1.53996,-0.1757 h -0.62011 v 6.3252 z m 3.05925,-8.74366 h 2.26343 q 2.20142,0 2.74919,-0.18604 0.54777,-0.18603 0.85783,-0.64079 0.31006,-0.45475 0.31006,-1.13688 0,-0.76481 -0.41341,-1.2299 -0.40308,-0.47543 -1.14722,-0.59945 -0.37207,-0.0517 -2.23243,-0.0517 h -2.38745 z"
         id="path1727" />
    </g>
    <g
       aria-label="RATE"
       id="text6865-2-66-1-1-7"
       style="font-weight:bold;font-size:21.1667px;line-height:1.25;font-family:Arial;-inkscape-font-specification:'Arial, Bold';font-variant-ligatures:none;text-align:center;text-anchor:middle;display:inline;fill:#252525;stroke-width:2.64583">
      <path
         d="m 35.455161,520.02319 v -15.15155 h 6.438893 q 2.428796,0 3.524339,0.41341 1.105877,0.40308 1.767336,1.44694 0.66146,1.04387 0.66146,2.38746 0,1.70532 -1.002525,2.82154 -1.002524,1.10587 -2.997237,1.39526 0.992189,0.57878 1.632977,1.27124 0.651125,0.69247 1.746667,2.45981 l 1.850019,2.95589 h -3.658697 l -2.211755,-3.29696 q -1.178225,-1.76734 -1.612307,-2.22209 -0.434083,-0.46509 -0.919842,-0.63045 -0.48576,-0.1757 -1.539961,-0.1757 H 38.51441 v 6.3252 z m 3.059249,-8.74366 h 2.263432 q 2.201419,0 2.74919,-0.18604 0.547771,-0.18603 0.85783,-0.64079 0.310059,-0.45475 0.310059,-1.13688 0,-0.76481 -0.413412,-1.2299 -0.403077,-0.47543 -1.147218,-0.59945 -0.372071,-0.0517 -2.232426,-0.0517 H 38.51441 Z"
         id="path1730" />
      <path
         d="m 64.394009,520.02319 h -3.327967 l -1.322919,-3.44165 h -6.056488 l -1.250571,3.44165 h -3.245285 l 5.901458,-15.15155 h 3.234949 z m -5.63274,-5.99447 -2.087731,-5.62241 -2.04639,5.62241 z"
         id="path1732" />
      <path
         d="m 67.856335,520.02319 v -12.5884 h -4.495856 v -2.56315 h 12.040628 v 2.56315 h -4.485522 v 12.5884 z"
         id="path1734" />
      <path
         d="m 77.37515,520.02319 v -15.15155 h 11.234474 v 2.56315 H 80.4344 v 3.35898 h 7.606782 v 2.55282 H 80.4344 v 4.12378 h 8.464613 v 2.55282 z"
         id="path1736" />
    </g>
    <g
       aria-label="LEVEL"
       id="text9312"
       style="font-weight:bold;font-size:21.1667px;line-height:1.25;font-family:Arial;-inkscape-font-specification:'Arial, Bold';font-variant-ligatures:none;text-align:center;text-anchor:middle;fill:#252525;stroke-width:2.64583">
      <path
         d="M 291.14026,92.556328 V 77.528797 h 3.05925 v 12.474711 h 7.60678 v 2.55282 z"
         id="path11672" />
      <path
         d="M 303.98704,92.556328 V 77.404774 h 11.23447 v 2.563155 h -8.17522 v 3.358973 h 7.60678 v 2.55282 h -7.60678 v 4.123786 h 8.46461 v 2.55282 z"
         id="path11674" />
      <path
         d="m 321.97047,92.556328 -5.4157,-15.151554 h 3.31763 l 3.8344,11.213803 3.71037,-11.213803 h 3.24529 l -5.42604,15.151554 z"
         id="path11676" />
      <path
         d="M 332.22309,92.556328 V 77.404774 h 11.23447 v 2.563155 h -8.17522 v 3.358973 h 7.60678 v 2.55282 h -7.60678 v 4.123786 h 8.46461 v 2.55282 z"
         id="path11678" />
      <path
         d="M 346.42379,92.556328 V 77.528797 h 3.05925 v 12.474711 h 7.60679 v 2.55282 z"
         id="path11680" />
    </g>
    <g
       id="g14543">
      <rect
         style="display:inline;vector-effect:non-scaling-stroke;fill:#252525;fill-opacity:1;stroke-width:0.0257848;-inkscape-stroke:hairline"
         id="rect76101-3-4-0"
         width="116.51856"
         height="378.31229"
         x="-930.60315"
         y="9.2813568"
         ry="12.391612"
         rx="11.207398"
         transform="rotate(-90)" />
      <rect
         style="display:inline;vector-effect:non-scaling-stroke;fill:#252525;fill-opacity:1;stroke-width:0.0257849;-inkscape-stroke:hairline"
         id="rect76101-3-4-0-9"
         width="237.32227"
         height="103.9163"
         x="-930.60315"
         y="283.67734"
         ry="12.391612"
         rx="11.207398"
         transform="rotate(-90)" />
      <path
         style="fill:#252525;fill-opacity:1;stroke:none;stroke-width:2.64583px;stroke-linecap:butt;stroke-linejoin:miter;stroke-opacity:1"
         d="m 271.58955,816.87809 c 4.54339,-1.22173 9.27651,-3.36866 10.61866,-4.73841 1.67087,-1.61778 1.94103,-7.58932 2.69929,-10.32283 0.62803,3.61921 1.57474,10.65134 2.06912,14.00326 z"
         id="path11753"
         sodipodi:nodetypes="ccccc" />
    </g>
  </g>
  <g
     inkscape:groupmode="layer"
     id="layer7"
     inkscape:label="Alternate Solid"
     style="display:inline" />
  <g
     inkscape:groupmode="layer"
     id="layer6"
     inkscape:label="Line"
     style="display:inline">
    <path
       style="display:inline;fill:none;stroke:#252525;stroke-width:2.64583;stroke-linecap:butt;stroke-linejoin:miter;stroke-miterlimit:4;stroke-dasharray:none;stroke-opacity:1"
       d="m 198.26619,195.00949 27.6656,-69.32355"
       id="path1270-33-3-5"
       sodipodi:nodetypes="cc" />
    <path
       style="display:inline;fill:none;stroke:#252525;stroke-width:2.64583;stroke-linecap:butt;stroke-linejoin:miter;stroke-miterlimit:4;stroke-dasharray:none;stroke-opacity:1"
       d="m 322.62035,195.00949 27.6656,-69.32355"
       id="path1270-33-3-5-8"
       sodipodi:nodetypes="cc" />
    <path
       style="display:inline;fill:none;stroke:#252525;stroke-width:2.64583;stroke-linecap:butt;stroke-linejoin:miter;stroke-miterlimit:4;stroke-dasharray:none;stroke-opacity:1"
       d="M 73.912527,195.00944 101.57813,125.68589"
       id="path1270-3-6-5-5"
       sodipodi:nodetypes="cc" />
    <path
       style="display:inline;fill:none;stroke:#252525;stroke-width:2.64583;stroke-linecap:butt;stroke-linejoin:miter;stroke-miterlimit:4;stroke-dasharray:none;stroke-opacity:1"
       d="m 322.62035,378.89461 27.6656,-69.32355"
       id="path1270-8-2-5-8"
       sodipodi:nodetypes="cc" />
    <path
       style="display:inline;fill:none;stroke:#252525;stroke-width:2.64583;stroke-linecap:butt;stroke-linejoin:miter;stroke-miterlimit:4;stroke-dasharray:none;stroke-opacity:1"
       d="m 198.26619,378.89467 27.6656,-69.32355"
       id="path1270-1-6-2-2"
       sodipodi:nodetypes="cc" />
    <path
       style="display:inline;fill:none;stroke:#252525;stroke-width:2.64583;stroke-linecap:butt;stroke-linejoin:miter;stroke-miterlimit:4;stroke-dasharray:none;stroke-opacity:1"
       d="M 73.912525,378.89463 101.57813,309.57108"
       id="path1270-1-1-8-6-4"
       sodipodi:nodetypes="cc" />
    <path
       style="display:inline;fill:none;stroke:#252525;stroke-width:1.32292;stroke-linecap:butt;stroke-linejoin:miter;stroke-miterlimit:4;stroke-dasharray:none;stroke-opacity:1"
       d="m 198.4375,449.79167 v 23.8125"
       id="path2234-2-1-7" />
    <path
       style="display:inline;fill:none;stroke:#252525;stroke-width:1.32292;stroke-linecap:butt;stroke-linejoin:miter;stroke-miterlimit:4;stroke-dasharray:none;stroke-opacity:1"
       d="m 295.09864,449.79167 v 23.8125"
       id="path2234-4-0-3-2" />
    <path
       style="display:inline;fill:none;stroke:#252525;stroke-width:1.32292;stroke-linecap:butt;stroke-linejoin:miter;stroke-miterlimit:4;stroke-dasharray:none;stroke-opacity:1"
       d="m 101.77638,449.79167 v 23.8125"
       id="path2234-8-2-0-9" />
  </g>
  <g
     inkscape:groupmode="layer"
     id="layer1"
     inkscape:label="Inverse Solid"
     style="display:inline">
    <g
       aria-label="SUM"
       id="text6865-2-31-1-0-1-4"
       style="font-weight:bold;font-size:21.1667px;line-height:1.25;font-family:Arial;-inkscape-font-specification:'Arial, Bold';font-variant-ligatures:none;text-align:center;text-anchor:middle;display:inline;fill:#ede7dc;stroke-width:2.64583"
       transform="translate(22.489127,-124.12669)">
      <path
         d="m 289.82254,841.57049 2.97657,-0.28939 q 0.26872,1.49862 1.08521,2.20142 0.82682,0.7028 2.22209,0.7028 1.47795,0 2.22209,-0.62012 0.75448,-0.63045 0.75448,-1.46761 0,-0.53744 -0.3204,-0.90951 -0.31006,-0.3824 -1.09554,-0.66146 -0.53744,-0.18603 -2.44947,-0.66146 -2.4598,-0.60978 -3.45199,-1.49862 -1.39526,-1.25057 -1.39526,-3.04891 0,-1.15755 0.65112,-2.16008 0.66146,-1.01286 1.89136,-1.53996 1.24024,-0.5271 2.9869,-0.5271 2.85255,0 4.28915,1.25057 1.44695,1.25057 1.51929,3.33831 l -3.05925,0.13435 q -0.19637,-1.16789 -0.84749,-1.67432 -0.64079,-0.51676 -1.9327,-0.51676 -1.33326,0 -2.08773,0.54777 -0.48576,0.3514 -0.48576,0.94051 0,0.53744 0.45475,0.91985 0.57878,0.48575 2.8112,1.01286 2.23243,0.5271 3.29696,1.09554 1.07488,0.5581 1.67432,1.53996 0.60979,0.97152 0.60979,2.40812 0,1.30225 -0.72348,2.43913 -0.72347,1.13689 -2.04639,1.69499 -1.32291,0.54778 -3.29696,0.54778 -2.87321,0 -4.41317,-1.32292 -1.53996,-1.33326 -1.83969,-3.87574 z"
         id="path3541" />
      <path
         d="m 304.69505,831.34887 h 3.05925 v 8.20623 q 0,1.95338 0.11368,2.53215 0.19637,0.93018 0.93018,1.49862 0.74414,0.55811 2.02572,0.55811 1.30225,0 1.96371,-0.5271 0.66146,-0.53744 0.79582,-1.31259 0.13436,-0.77514 0.13436,-2.57349 v -8.38193 h 3.05924 v 7.95819 q 0,2.72852 -0.24804,3.85506 -0.24805,1.12655 -0.91984,1.9017 -0.66146,0.77515 -1.77768,1.24024 -1.11621,0.45475 -2.91455,0.45475 -2.17042,0 -3.29696,-0.49609 -1.11622,-0.50643 -1.76734,-1.30225 -0.65112,-0.80616 -0.85783,-1.68466 -0.29972,-1.30225 -0.29972,-3.84473 z"
         id="path3543" />
      <path
         d="m 319.96029,846.50043 v -15.15156 h 4.57854 l 2.74919,10.33531 2.71818,-10.33531 h 4.58888 v 15.15156 h -2.84221 v -11.92694 l -3.00757,11.92694 h -2.94556 l -2.99724,-11.92694 v 11.92694 z"
         id="path3545" />
    </g>
    <g
       aria-label="OUT"
       id="text6865-2-31-1-4-7-6-1"
       style="font-weight:bold;font-size:21.1667px;line-height:1.25;font-family:Arial;-inkscape-font-specification:'Arial, Bold';font-variant-ligatures:none;text-align:center;text-anchor:middle;display:inline;fill:#ede7dc;stroke-width:2.64583"
       transform="translate(136.26043)">
      <path
         d="m 176.77471,839.02798 q 0,-2.3151 0.69247,-3.88607 0.51676,-1.15755 1.4056,-2.0774 0.89917,-0.91984 1.9637,-1.36426 1.41594,-0.59944 3.26596,-0.59944 3.34864,0 5.35369,2.07739 2.01538,2.0774 2.01538,5.77744 0,3.66903 -1.99471,5.74642 -1.99472,2.06706 -5.33302,2.06706 -3.37964,0 -5.37436,-2.05672 -1.99471,-2.06706 -1.99471,-5.68442 z m 3.15227,-0.10335 q 0,2.57349 1.18856,3.90674 1.18856,1.32292 3.01791,1.32292 1.82934,0 2.99723,-1.31258 1.17823,-1.32292 1.17823,-3.95842 0,-2.6045 -1.14722,-3.88608 -1.13688,-1.28157 -3.02824,-1.28157 -1.89136,0 -3.04892,1.30225 -1.15755,1.29191 -1.15755,3.90674 z"
         id="path3534" />
      <path
         d="m 193.8383,831.35919 h 3.05925 v 8.20623 q 0,1.95337 0.11368,2.53215 0.19637,0.93018 0.93018,1.49862 0.74414,0.5581 2.02572,0.5581 1.30225,0 1.96371,-0.5271 0.66146,-0.53743 0.79582,-1.31258 0.13436,-0.77515 0.13436,-2.57349 v -8.38193 h 3.05925 v 7.95818 q 0,2.72852 -0.24805,3.85507 -0.24805,1.12655 -0.91984,1.9017 -0.66146,0.77514 -1.77768,1.24023 -1.11621,0.45475 -2.91455,0.45475 -2.17042,0 -3.29696,-0.49609 -1.11622,-0.50643 -1.76734,-1.30225 -0.65112,-0.80615 -0.85783,-1.68465 -0.29972,-1.30225 -0.29972,-3.84474 z"
         id="path3536" />
      <path
         d="m 212.55553,846.51074 v -12.5884 h -4.49586 v -2.56315 h 12.04063 v 2.56315 h -4.48552 v 12.5884 z"
         id="path3538" />
    </g>
    <g
       aria-label="GATES"
       id="text6865-2-31-1-3-3-5-3"
       style="font-weight:bold;font-size:21.1667px;line-height:1.25;font-family:Arial;-inkscape-font-specification:'Arial, Bold';font-variant-ligatures:none;text-align:center;text-anchor:middle;display:inline;fill:#ede7dc;stroke-width:2.64583"
       transform="translate(68.350263)">
      <path
         d="m 57.593791,840.9297 v -2.55282 h 6.593923 v 6.03582 q -0.961183,0.93017 -2.790532,1.64331 -1.819013,0.7028 -3.689703,0.7028 -2.37712,0 -4.144456,-0.99219 -1.767337,-1.00252 -2.656173,-2.85254 -0.888836,-1.86036 -0.888836,-4.04111 0,-2.36678 0.992189,-4.20646 0.992189,-1.83969 2.90422,-2.82154 1.457278,-0.75448 3.627691,-0.75448 2.821538,0 4.402839,1.18856 1.591637,1.17822 2.04639,3.26596 l -3.038579,0.56844 q -0.320394,-1.11621 -1.20923,-1.757 -0.878501,-0.65113 -2.20142,-0.65113 -2.005048,0 -3.193608,1.27124 -1.178225,1.27125 -1.178225,3.77239 0,2.69751 1.198895,4.05144 1.198895,1.34359 3.141932,1.34359 0.961184,0 1.922367,-0.37207 0.971518,-0.38241 1.663983,-0.91984 v -1.92237 z"
         id="path3523" />
      <path
         d="m 80.672523,846.50043 h -3.327968 l -1.322919,-3.44166 h -6.056487 l -1.250572,3.44166 h -3.245285 l 5.901458,-15.15156 h 3.23495 z m -5.63274,-5.99448 -2.087732,-5.6224 -2.04639,5.6224 z"
         id="path3525" />
      <path
         d="m 84.134849,846.50043 v -12.5884 h -4.495857 v -2.56316 H 91.67962 v 2.56316 h -4.485521 v 12.5884 z"
         id="path3527" />
      <path
         d="m 93.653665,846.50043 v -15.15156 h 11.234475 v 2.56316 h -8.175225 v 3.35897 h 7.606785 v 2.55282 h -7.606785 v 4.12379 h 8.464615 v 2.55282 z"
         id="path3529" />
      <path
         d="m 106.99654,841.57049 2.97657,-0.28939 q 0.26872,1.49862 1.0852,2.20142 0.82683,0.7028 2.22209,0.7028 1.47795,0 2.22209,-0.62012 0.75448,-0.63045 0.75448,-1.46761 0,-0.53744 -0.32039,-0.90951 -0.31006,-0.3824 -1.09554,-0.66146 -0.53744,-0.18603 -2.44947,-0.66146 -2.4598,-0.60978 -3.45199,-1.49862 -1.39527,-1.25057 -1.39527,-3.04891 0,-1.15755 0.65113,-2.16008 0.66145,-1.01286 1.89136,-1.53996 1.24023,-0.5271 2.9869,-0.5271 2.85254,0 4.28915,1.25057 1.44694,1.25057 1.51929,3.33831 l -3.05925,0.13435 q -0.19637,-1.16789 -0.8475,-1.67432 -0.64078,-0.51676 -1.9327,-0.51676 -1.33325,0 -2.08773,0.54777 -0.48576,0.3514 -0.48576,0.94051 0,0.53744 0.45476,0.91985 0.57877,0.48575 2.8112,1.01286 2.23242,0.5271 3.29696,1.09554 1.07487,0.5581 1.67432,1.53996 0.60978,0.97152 0.60978,2.40812 0,1.30225 -0.72347,2.43913 -0.72347,1.13689 -2.04639,1.69499 -1.32292,0.54778 -3.29696,0.54778 -2.87322,0 -4.41318,-1.32292 -1.53996,-1.33326 -1.83968,-3.87574 z"
         id="path3531" />
    </g>
    <g
       aria-label="PHASOR"
       id="text6865-2-3-4-4-7-4"
       style="font-weight:bold;font-size:21.1667px;line-height:1.25;font-family:Arial;-inkscape-font-specification:'Arial, Bold';font-variant-ligatures:none;text-align:center;text-anchor:middle;display:inline;fill:#ede7dc;fill-opacity:1;stroke-width:2.64583"
       transform="translate(-22.197704,124.12671)">
      <path
         d="m 39.92265,722.37372 v -15.15156 h 4.909269 q 2.790531,0 3.638026,0.22738 1.302248,0.34107 2.180749,1.48828 0.878501,1.13689 0.878501,2.94557 0,1.39526 -0.50643,2.34611 -0.50643,0.95085 -1.291913,1.49862 -0.775148,0.53743 -1.581301,0.71313 -1.095542,0.21705 -3.172938,0.21705 h -1.994714 v 5.71542 z m 3.059249,-12.5884 v 4.29949 h 1.674319 q 1.808678,0 2.418461,-0.23772 0.609783,-0.23771 0.950848,-0.74414 0.3514,-0.50643 0.3514,-1.17822 0,-0.82683 -0.485759,-1.36426 -0.485759,-0.53744 -1.229901,-0.6718 -0.547771,-0.10335 -2.201419,-0.10335 z"
         id="path1627-6"
         style="fill:#ede7dc;fill-opacity:1" />
      <path
         d="m 54.051009,722.37372 v -15.15156 h 3.05925 v 5.96347 h 5.994475 v -5.96347 h 3.05925 v 15.15156 h -3.05925 v -6.62493 h -5.994475 v 6.62493 z"
         id="path1629-9"
         style="fill:#ede7dc;fill-opacity:1" />
      <path
         d="m 82.989858,722.37372 h -3.327967 l -1.322919,-3.44166 h -6.056487 l -1.250572,3.44166 h -3.245285 l 5.901458,-15.15156 h 3.23495 z m -5.63274,-5.99448 -2.087731,-5.6224 -2.04639,5.6224 z"
         id="path1631-5"
         style="fill:#ede7dc;fill-opacity:1" />
      <path
         d="m 83.837352,717.44378 2.976567,-0.28939 q 0.268718,1.49862 1.085207,2.20142 0.826824,0.7028 2.22209,0.7028 1.477948,0 2.22209,-0.62012 0.754477,-0.63045 0.754477,-1.46761 0,-0.53744 -0.320394,-0.90951 -0.310059,-0.3824 -1.095542,-0.66146 -0.537436,-0.18603 -2.449467,-0.66146 -2.459802,-0.60978 -3.451991,-1.49862 -1.395266,-1.25057 -1.395266,-3.04891 0,-1.15755 0.651124,-2.16008 0.661459,-1.01286 1.89136,-1.53996 1.240237,-0.5271 2.986903,-0.5271 2.852544,0 4.289151,1.25057 1.446942,1.25057 1.519289,3.33831 l -3.059249,0.13436 q -0.196371,-1.16789 -0.847495,-1.67432 -0.640789,-0.51677 -1.932702,-0.51677 -1.333254,0 -2.087731,0.54777 -0.485759,0.3514 -0.485759,0.94051 0,0.53744 0.454753,0.91985 0.578777,0.48576 2.811202,1.01286 2.232426,0.5271 3.296962,1.09554 1.074871,0.5581 1.674319,1.53996 0.609783,0.97152 0.609783,2.40812 0,1.30225 -0.723471,2.43914 -0.723472,1.13688 -2.04639,1.69499 -1.322919,0.54777 -3.296962,0.54777 -2.873214,0 -4.413174,-1.32292 -1.53996,-1.33326 -1.839684,-3.87574 z"
         id="path1633-2"
         style="fill:#ede7dc;fill-opacity:1" />
      <path
         d="m 98.110408,714.89096 q 0,-2.31511 0.692465,-3.88607 0.516766,-1.15756 1.405597,-2.0774 0.89918,-0.91984 1.96371,-1.36426 1.41594,-0.59945 3.26596,-0.59945 3.34864,0 5.35368,2.0774 2.01539,2.07739 2.01539,5.77743 0,3.66903 -1.99471,5.74643 -1.99472,2.06706 -5.33302,2.06706 -3.37964,0 -5.37436,-2.05672 -1.994712,-2.06707 -1.994712,-5.68442 z m 3.152272,-0.10335 q 0,2.57349 1.18856,3.90674 1.18856,1.32292 3.0179,1.32292 1.82935,0 2.99724,-1.31258 1.17823,-1.32292 1.17823,-3.95843 0,-2.60449 -1.14722,-3.88607 -1.13689,-1.28158 -3.02825,-1.28158 -1.89136,0 -3.04891,1.30225 -1.15755,1.29191 -1.15755,3.90675 z"
         id="path1635-8"
         style="fill:#ede7dc;fill-opacity:1" />
      <path
         d="m 115.205,722.37372 v -15.15156 h 6.43889 q 2.4288,0 3.52434,0.41342 1.10588,0.40307 1.76733,1.44694 0.66146,1.04386 0.66146,2.38745 0,1.70533 -1.00252,2.82154 -1.00252,1.10588 -2.99724,1.39527 0.99219,0.57877 1.63298,1.27124 0.65112,0.69246 1.74667,2.4598 l 1.85002,2.9559 h -3.6587 l -2.21176,-3.29696 q -1.17822,-1.76734 -1.6123,-2.22209 -0.43409,-0.46509 -0.91985,-0.63046 -0.48576,-0.1757 -1.53996,-0.1757 h -0.62011 v 6.32521 z m 3.05925,-8.74367 h 2.26343 q 2.20142,0 2.74919,-0.18603 0.54777,-0.18604 0.85783,-0.64079 0.31006,-0.45476 0.31006,-1.13689 0,-0.76481 -0.41342,-1.2299 -0.40307,-0.47542 -1.14721,-0.59944 -0.37208,-0.0517 -2.23243,-0.0517 h -2.38745 z"
         id="path1637-4"
         style="fill:#ede7dc;fill-opacity:1" />
    </g>
    <g
       aria-label="ENVS"
       id="text21956"
       style="font-weight:bold;font-size:21.1667px;line-height:1.25;font-family:Arial;-inkscape-font-specification:'Arial, Bold';font-variant-ligatures:none;text-align:center;text-anchor:middle;display:inline;fill:#ede7dc;fill-opacity:1;stroke-width:2.64583"
       transform="translate(-26.401439,81.48371)">
      <path
         d="m 242.7259,765.01672 v -15.15153 h 11.23446 v 2.56315 h -8.17522 v 3.35897 h 7.60678 v 2.55282 h -7.60678 v 4.12378 h 8.4646 v 2.55281 z"
         style="font-size:21.1667px;fill:#ede7dc;fill-opacity:1"
         id="path30296" />
      <path
         d="m 256.87491,765.01672 v -15.15153 h 2.97656 l 6.20117,10.11825 v -10.11825 h 2.84221 v 15.15153 h -3.06958 l -6.10816,-9.88053 v 9.88053 z"
         style="font-size:21.1667px;fill:#ede7dc;fill-opacity:1"
         id="path30298" />
      <path
         d="m 275.99519,765.01672 -5.41569,-15.15153 h 3.31763 l 3.83439,11.21379 3.71037,-11.21379 h 3.24528 l -5.42603,15.15153 z"
         style="font-size:21.1667px;fill:#ede7dc;fill-opacity:1"
         id="path30300" />
      <path
         d="m 285.47265,760.08679 2.97656,-0.28939 q 0.26872,1.49862 1.0852,2.20142 0.82683,0.7028 2.22209,0.7028 1.47795,0 2.22209,-0.62012 0.75447,-0.63045 0.75447,-1.46761 0,-0.53743 -0.32039,-0.9095 -0.31006,-0.38241 -1.09554,-0.66146 -0.53744,-0.18604 -2.44946,-0.66146 -2.4598,-0.60978 -3.45199,-1.49862 -1.39526,-1.25057 -1.39526,-3.04891 0,-1.15755 0.65112,-2.16007 0.66146,-1.01286 1.89136,-1.53996 1.24023,-0.5271 2.98689,-0.5271 2.85254,0 4.28915,1.25057 1.44694,1.25057 1.51929,3.3383 l -3.05925,0.13436 q -0.19637,-1.16789 -0.84749,-1.67432 -0.64079,-0.51676 -1.9327,-0.51676 -1.33325,0 -2.08773,0.54777 -0.48576,0.3514 -0.48576,0.94051 0,0.53743 0.45475,0.91984 0.57878,0.48576 2.8112,1.01286 2.23242,0.5271 3.29696,1.09554 1.07487,0.5581 1.67432,1.53995 0.60978,0.97152 0.60978,2.40813 0,1.30224 -0.72347,2.43912 -0.72347,1.13689 -2.04639,1.69499 -1.32292,0.54777 -3.29696,0.54777 -2.87321,0 -4.41316,-1.32292 -1.53996,-1.33325 -1.83968,-3.87573 z"
         style="font-size:21.1667px;fill:#ede7dc;fill-opacity:1"
         id="path30302" />
    </g>
  </g>
  <g
     inkscape:groupmode="layer"
     id="layer8"
     inkscape:label="Inverse Line"
     style="display:inline" />
  <g
     inkscape:groupmode="layer"
     id="layer2"
     inkscape:label="Widget"
     style="display:none">
    <circle
       style="display:inline;fill:#ff0000;stroke:#ff0000;stroke-width:5.15744;stroke-opacity:1"
       id="path1065-7-2-8-1-2-9-9"
       cx="334.69794"
       cy="887.67749"
       r="27.848814" />
    <circle
       style="display:inline;fill:#ff0000;stroke:#ff0000;stroke-width:5.15744;stroke-opacity:1"
       id="path1065-7-2-8-1-2-9-9-2"
       cx="334.69794"
       cy="763.3233"
       r="27.848814" />
    <circle
       style="display:inline;fill:#ff0000;stroke:#ff0000;stroke-width:5.15744;stroke-opacity:1"
       id="path1065-7-2-8-1-11-6-8-9"
       cx="243.85767"
       cy="887.67749"
       r="27.848814" />
    <circle
       style="display:inline;fill:#ff0000;stroke:#ff0000;stroke-width:5.15744;stroke-opacity:1"
       id="path1065-7-2-8-1-110-3-0-0"
       cx="153.01738"
       cy="887.67749"
       r="27.848814" />
    <circle
       style="display:inline;fill:#ff0000;stroke:#ff0000;stroke-width:5.15744;stroke-opacity:1"
       id="path1065-7-2-8-1-110-3-0-0-6"
       cx="62.177086"
       cy="887.67749"
       r="27.848814" />
    <circle
       style="display:inline;fill:#ff0000;stroke:#ff0000;stroke-width:5.15744;stroke-opacity:1"
       id="path1065-7-2-8-1-13-1-9-1"
       cx="153.01738"
       cy="763.3233"
       r="27.848814" />
    <circle
       style="display:inline;fill:#ff0000;stroke:#ff0000;stroke-width:5.15744;stroke-opacity:1"
       id="path1065-7-2-8-1-13-9-9-0-8"
       cx="243.85767"
       cy="763.3233"
       r="27.848814" />
    <circle
       style="display:inline;fill:#ff0000;stroke:#ff0000;stroke-width:5.15744;stroke-opacity:1"
       id="path1065-7-2-8-1-13-6-9-7-5"
       cx="62.177086"
       cy="763.3233"
       r="27.848814" />
    <circle
       style="display:inline;fill:#ff0000;stroke:#ff0000;stroke-width:5.15744;stroke-opacity:1"
       id="path1065-7-2-8-1-6-8-5-1"
       cx="198.43768"
       cy="194.46942"
       r="27.848814" />
    <circle
       style="display:inline;fill:#ff0000;stroke:#ff0000;stroke-width:5.15744;stroke-opacity:1"
       id="path1065-7-2-8-1-6-8-5-1-5"
       cx="322.79178"
       cy="194.46942"
       r="27.848814" />
    <ellipse
       style="display:inline;fill:#ff0000;stroke:#ff0000;stroke-width:3.81201;stroke-opacity:1"
       id="path1065-7-2-8-1-1-3-1-4-8-7"
       cx="170.65631"
       cy="125.67709"
       rx="20.583578"
       ry="20.583576" />
    <ellipse
       style="display:inline;fill:#ff0000;stroke:#ff0000;stroke-width:3.81201;stroke-opacity:1"
       id="path1065-7-2-8-1-1-3-1-4-8-7-4"
       cx="350.57278"
       cy="125.67709"
       rx="20.583578"
       ry="20.583576" />
    <ellipse
       style="display:inline;fill:#ff0000;stroke:#ff0000;stroke-width:3.81201;stroke-opacity:1"
       id="path1065-7-2-8-1-1-3-1-4-8-7-3"
       cx="295.01041"
       cy="125.67709"
       rx="20.583578"
       ry="20.583576" />
    <ellipse
       style="display:inline;fill:#ff0000;stroke:#ff0000;stroke-width:3.81201;stroke-opacity:1"
       id="path1065-7-2-8-1-1-3-1-5-77-8-8"
       cx="226.21869"
       cy="125.67709"
       rx="20.583578"
       ry="20.583576" />
    <circle
       style="display:inline;fill:#ff0000;stroke:#ff0000;stroke-width:5.15744;stroke-opacity:1"
       id="path1065-7-2-8-1-6-2-2-8-5"
       cx="74.083961"
       cy="194.46933"
       r="27.848814" />
    <ellipse
       style="display:inline;fill:#ff0000;stroke:#ff0000;stroke-width:3.81201;stroke-opacity:1"
       id="path1065-7-2-8-1-1-3-1-7-0-9-7"
       cx="46.302593"
       cy="125.67719"
       rx="20.583578"
       ry="20.583576" />
    <ellipse
       style="display:inline;fill:#ff0000;stroke:#ff0000;stroke-width:3.81201;stroke-opacity:1"
       id="path1065-7-2-8-1-1-3-1-5-7-6-4-6"
       cx="101.86497"
       cy="125.67719"
       rx="20.583578"
       ry="20.583576" />
    <circle
       style="display:inline;fill:#ff0000;stroke:#ff0000;stroke-width:5.15744;stroke-opacity:1"
       id="path1065-7-2-8-1-6-0-2-4-3"
       cx="322.79178"
       cy="378.35464"
       r="27.848814" />
    <ellipse
       style="display:inline;fill:#ff0000;stroke:#ff0000;stroke-width:3.81201;stroke-opacity:1"
       id="path1065-7-2-8-1-1-3-1-9-3-2-5"
       cx="295.01041"
       cy="309.56219"
       rx="20.583578"
       ry="20.583576" />
    <ellipse
       style="display:inline;fill:#ff0000;stroke:#ff0000;stroke-width:3.81201;stroke-opacity:1"
       id="path1065-7-2-8-1-1-3-1-5-6-7-3-4"
       cx="350.57278"
       cy="309.56219"
       rx="20.583578"
       ry="20.583576" />
    <circle
       style="display:inline;fill:#ff0000;stroke:#ff0000;stroke-width:5.15744;stroke-opacity:1"
       id="path1065-7-2-8-1-6-3-2-8-6"
       cx="198.43768"
       cy="378.35458"
       r="27.848814" />
    <ellipse
       style="display:inline;fill:#ff0000;stroke:#ff0000;stroke-width:3.81201;stroke-opacity:1"
       id="path1065-7-2-8-1-1-3-1-95-8-8-5"
       cx="170.65631"
       cy="309.56223"
       rx="20.583578"
       ry="20.583576" />
    <ellipse
       style="display:inline;fill:#ff0000;stroke:#ff0000;stroke-width:3.81201;stroke-opacity:1"
       id="path1065-7-2-8-1-1-3-1-5-5-5-1-6"
       cx="226.21869"
       cy="309.56223"
       rx="20.583578"
       ry="20.583576" />
    <circle
       style="display:inline;fill:#ff0000;stroke:#ff0000;stroke-width:5.15744;stroke-opacity:1"
       id="path1065-7-2-8-1-6-3-4-6-1-4"
       cx="74.083961"
       cy="378.35461"
       r="27.848814" />
    <ellipse
       style="display:inline;fill:#ff0000;stroke:#ff0000;stroke-width:3.81201;stroke-opacity:1"
       id="path1065-7-2-8-1-1-3-1-95-3-2-8-9"
       cx="46.302593"
       cy="309.56226"
       rx="20.583578"
       ry="20.583576" />
    <ellipse
       style="display:inline;fill:#ff0000;stroke:#ff0000;stroke-width:3.81201;stroke-opacity:1"
       id="path1065-7-2-8-1-1-3-1-5-5-2-2-5-5"
       cx="101.86497"
       cy="309.56226"
       rx="20.583578"
       ry="20.583576" />
    <circle
       style="display:inline;fill:#ff0000;stroke:#ff0000;stroke-width:5.15744;stroke-opacity:1"
       id="path1065-7-2-8-1-13-64-5-9-2"
       cx="153.01738"
       cy="640.29266"
       r="27.848814" />
    <ellipse
       style="display:inline;fill:#ff0000;stroke:#ff0000;stroke-width:5.15744;stroke-opacity:1"
       id="path1065-7-2-8-1-80-86-5-5"
       cx="62.177086"
       cy="640.29266"
       rx="27.848364"
       ry="27.848814" />
    <circle
       style="display:inline;fill:#ff0000;stroke:#ff0000;stroke-width:5.15744;stroke-opacity:1"
       id="path1065-7-2-8-1-0-1-2-0"
       cx="62.177086"
       cy="559.5943"
       r="26.525448" />
    <ellipse
       style="display:inline;fill:#ff0000;stroke:#ff0000;stroke-width:5.15744;stroke-opacity:1"
       id="path1065-7-2-8-1-80-8-9-2-7"
       cx="334.69794"
       cy="640.29266"
       rx="27.848364"
       ry="27.848814" />
    <circle
       style="display:inline;fill:#ff0000;stroke:#ff0000;stroke-width:5.15744;stroke-opacity:1"
       id="path1065-7-2-8-1-0-6-7-3-1"
       cx="334.69794"
       cy="559.5943"
       r="26.525448" />
    <ellipse
       style="display:inline;fill:#ff0000;stroke:#ff0000;stroke-width:5.15744;stroke-opacity:1"
       id="path1065-7-2-8-1-80-5-1-2-5"
       cx="243.85767"
       cy="640.29266"
       rx="27.848364"
       ry="27.848814" />
    <circle
       style="display:inline;fill:#ff0000;stroke:#ff0000;stroke-width:5.15744;stroke-opacity:1"
       id="path1065-7-2-8-1-0-2-1-1-4"
       cx="243.85767"
       cy="559.5943"
       r="26.525448" />
    <rect
       style="display:inline;opacity:0.995935;fill:#ff0000;stroke:none;stroke-width:2.64583"
       id="rect6025-3-3-3"
       width="63.500004"
       height="63.5"
       x="121.26738"
       y="530.49011"
       ry="14.210836"
       rx="14.210836" />
    <ellipse
       style="display:inline;fill:#ff0000;stroke:#ff0000;stroke-width:5.15744;stroke-opacity:1"
       id="path1065-7-2-8-1-28-75-5-8-1"
       cx="17.197914"
       cy="461.69791"
       rx="6.681694"
       ry="6.6816969" />
    <ellipse
       style="display:inline;fill:#ff0000;stroke:#ff0000;stroke-width:5.15744;stroke-opacity:1"
       id="path1065-7-2-8-1-28-75-2-0-8-1"
       cx="41.363194"
       cy="461.69791"
       rx="6.681694"
       ry="6.6816969" />
    <ellipse
       style="display:inline;fill:#ff0000;stroke:#ff0000;stroke-width:5.15744;stroke-opacity:1"
       id="path1065-7-2-8-1-28-75-23-7-6-0"
       cx="65.528473"
       cy="461.69791"
       rx="6.681694"
       ry="6.6816969" />
    <ellipse
       style="display:inline;fill:#ff0000;stroke:#ff0000;stroke-width:5.15744;stroke-opacity:1"
       id="path1065-7-2-8-1-28-75-1-0-8-3"
       cx="89.693748"
       cy="461.69791"
       rx="6.681694"
       ry="6.6816969" />
    <ellipse
       style="display:inline;fill:#ff0000;stroke:#ff0000;stroke-width:5.15744;stroke-opacity:1"
       id="path1065-7-2-8-1-28-75-232-2-7-2"
       cx="138.02429"
       cy="461.69791"
       rx="6.681694"
       ry="6.6816969" />
    <ellipse
       style="display:inline;fill:#ff0000;stroke:#ff0000;stroke-width:5.15744;stroke-opacity:1"
       id="path1065-7-2-8-1-28-75-8-2-3-0"
       cx="113.85902"
       cy="461.69791"
       rx="6.681694"
       ry="6.6816969" />
    <ellipse
       style="display:inline;fill:#ff0000;stroke:#ff0000;stroke-width:5.15744;stroke-opacity:1"
       id="path1065-7-2-8-1-28-75-29-7-6-2"
       cx="162.18959"
       cy="461.69791"
       rx="6.681694"
       ry="6.6816969" />
    <ellipse
       style="display:inline;fill:#ff0000;stroke:#ff0000;stroke-width:5.15744;stroke-opacity:1"
       id="path1065-7-2-8-1-28-75-7-8-2-5"
       cx="186.35486"
       cy="461.69791"
       rx="6.681694"
       ry="6.6816969" />
    <ellipse
       style="display:inline;fill:#ff0000;stroke:#ff0000;stroke-width:5.15744;stroke-opacity:1"
       id="path1065-7-2-8-1-28-75-78-1-2-3"
       cx="258.85068"
       cy="461.69791"
       rx="6.681694"
       ry="6.6816969" />
    <ellipse
       style="display:inline;fill:#ff0000;stroke:#ff0000;stroke-width:5.15744;stroke-opacity:1"
       id="path1065-7-2-8-1-28-75-0-7-1-7"
       cx="210.52014"
       cy="461.69791"
       rx="6.681694"
       ry="6.6816969" />
    <ellipse
       style="display:inline;fill:#ff0000;stroke:#ff0000;stroke-width:5.15744;stroke-opacity:1"
       id="path1065-7-2-8-1-28-75-6-0-8-5"
       cx="283.01599"
       cy="461.69791"
       rx="6.681694"
       ry="6.6816969" />
    <ellipse
       style="display:inline;fill:#ff0000;stroke:#ff0000;stroke-width:5.15744;stroke-opacity:1"
       id="path1065-7-2-8-1-28-75-3-5-4-5"
       cx="307.18124"
       cy="461.69791"
       rx="6.681694"
       ry="6.6816969" />
    <ellipse
       style="display:inline;fill:#ff0000;stroke:#ff0000;stroke-width:5.15744;stroke-opacity:1"
       id="path1065-7-2-8-1-28-75-09-1-5-5"
       cx="331.34653"
       cy="461.69791"
       rx="6.681694"
       ry="6.6816969" />
    <ellipse
       style="display:inline;fill:#ff0000;stroke:#ff0000;stroke-width:5.15744;stroke-opacity:1"
       id="path1065-7-2-8-1-28-75-63-5-2-3"
       cx="355.51181"
       cy="461.69791"
       rx="6.681694"
       ry="6.6816969" />
    <circle
       style="display:inline;fill:#ff0000;stroke:#ff0000;stroke-width:5.15744;stroke-opacity:1"
       id="path1065-7-2-8-1-28-75-9-4-1-6"
       cx="379.67709"
       cy="461.69791"
       r="6.6816969" />
    <circle
       style="display:inline;fill:#ff0000;stroke:#ff0000;stroke-width:5.15744;stroke-opacity:1"
       id="path1065-7-2-8-1-28-75-9-5-4-8-3"
       cx="234.68541"
       cy="461.69791"
       r="6.6816969" />
    <ellipse
       style="display:inline;fill:#ff0000;stroke:#ff0000;stroke-width:5.15744;stroke-opacity:1"
       id="path1065-7-2-8-1-28-75-5-8-1-4"
       cx="17.197914"
       cy="440.53125"
       rx="2.7129467"
       ry="2.7129483" />
    <ellipse
       style="display:inline;fill:#ff0000;stroke:#ff0000;stroke-width:5.15744;stroke-opacity:1"
       id="path1065-7-2-8-1-28-75-5-8-1-4-2"
       cx="65.528465"
       cy="440.53125"
       rx="2.7129467"
       ry="2.7129483" />
    <ellipse
       style="display:inline;fill:#ff0000;stroke:#ff0000;stroke-width:5.15744;stroke-opacity:1"
       id="path1065-7-2-8-1-28-75-5-8-1-4-5"
       cx="41.363194"
       cy="440.53125"
       rx="2.7129467"
       ry="2.7129483" />
    <ellipse
       style="display:inline;fill:#ff0000;stroke:#ff0000;stroke-width:5.15744;stroke-opacity:1"
       id="path1065-7-2-8-1-28-75-5-8-1-4-7"
       cx="113.85903"
       cy="440.53125"
       rx="2.7129467"
       ry="2.7129483" />
    <ellipse
       style="display:inline;fill:#ff0000;stroke:#ff0000;stroke-width:5.15744;stroke-opacity:1"
       id="path1065-7-2-8-1-28-75-5-8-1-4-6"
       cx="89.693748"
       cy="440.53125"
       rx="2.7129467"
       ry="2.7129483" />
    <ellipse
       style="display:inline;fill:#ff0000;stroke:#ff0000;stroke-width:5.15744;stroke-opacity:1"
       id="path1065-7-2-8-1-28-75-5-8-1-4-65"
       cx="138.02431"
       cy="440.53125"
       rx="2.7129467"
       ry="2.7129483" />
    <ellipse
       style="display:inline;fill:#ff0000;stroke:#ff0000;stroke-width:5.15744;stroke-opacity:1"
       id="path1065-7-2-8-1-28-75-5-8-1-4-9"
       cx="162.18958"
       cy="440.53125"
       rx="2.7129467"
       ry="2.7129483" />
    <ellipse
       style="display:inline;fill:#ff0000;stroke:#ff0000;stroke-width:5.15744;stroke-opacity:1"
       id="path1065-7-2-8-1-28-75-5-8-1-4-0"
       cx="186.35484"
       cy="440.53125"
       rx="2.7129467"
       ry="2.7129483" />
    <ellipse
       style="display:inline;fill:#ff0000;stroke:#ff0000;stroke-width:5.15744;stroke-opacity:1"
       id="path1065-7-2-8-1-28-75-5-8-1-4-4"
       cx="210.52013"
       cy="440.53125"
       rx="2.7129467"
       ry="2.7129483" />
    <ellipse
       style="display:inline;fill:#ff0000;stroke:#ff0000;stroke-width:5.15744;stroke-opacity:1"
       id="path1065-7-2-8-1-28-75-5-8-1-4-47"
       cx="234.68539"
       cy="440.53125"
       rx="2.7129467"
       ry="2.7129483" />
    <ellipse
       style="display:inline;fill:#ff0000;stroke:#ff0000;stroke-width:5.15744;stroke-opacity:1"
       id="path1065-7-2-8-1-28-75-5-8-1-4-43"
       cx="258.85068"
       cy="440.53125"
       rx="2.7129467"
       ry="2.7129483" />
    <ellipse
       style="display:inline;fill:#ff0000;stroke:#ff0000;stroke-width:5.15744;stroke-opacity:1"
       id="path1065-7-2-8-1-28-75-5-8-1-4-72"
       cx="283.01593"
       cy="440.53125"
       rx="2.7129467"
       ry="2.7129483" />
    <ellipse
       style="display:inline;fill:#ff0000;stroke:#ff0000;stroke-width:5.15744;stroke-opacity:1"
       id="path1065-7-2-8-1-28-75-5-8-1-4-53"
       cx="307.18121"
       cy="440.53125"
       rx="2.7129467"
       ry="2.7129483" />
    <ellipse
       style="display:inline;fill:#ff0000;stroke:#ff0000;stroke-width:5.15744;stroke-opacity:1"
       id="path1065-7-2-8-1-28-75-5-8-1-4-77"
       cx="331.3465"
       cy="440.53125"
       rx="2.7129467"
       ry="2.7129483" />
    <ellipse
       style="display:inline;fill:#ff0000;stroke:#ff0000;stroke-width:5.15744;stroke-opacity:1"
       id="path1065-7-2-8-1-28-75-5-8-1-4-70"
       cx="355.51178"
       cy="440.53125"
       rx="2.7129467"
       ry="2.7129483" />
    <ellipse
       style="display:inline;fill:#ff0000;stroke:#ff0000;stroke-width:5.15744;stroke-opacity:1"
       id="path1065-7-2-8-1-28-75-5-8-1-4-03"
       cx="379.67706"
       cy="440.53125"
       rx="2.7129467"
       ry="2.7129483" />
  </g>
</svg>
