<?xml version="1.0" encoding="UTF-8" standalone="no"?>
<svg
   width="45"
   height="380"
   viewBox="0 0 45 380"
   version="1.1"
   id="svg100"
   sodipodi:docname="PolyClone_Ivory.svg"
   inkscape:version="1.1.1 (3bf5ae0d25, 2021-09-20)"
   xmlns:inkscape="http://www.inkscape.org/namespaces/inkscape"
   xmlns:sodipodi="http://sodipodi.sourceforge.net/DTD/sodipodi-0.dtd"
   xmlns="http://www.w3.org/2000/svg"
   xmlns:svg="http://www.w3.org/2000/svg"
   xmlns:rdf="http://www.w3.org/1999/02/22-rdf-syntax-ns#"
   xmlns:cc="http://creativecommons.org/ns#"
   xmlns:dc="http://purl.org/dc/elements/1.1/">
  <metadata
     id="metadata104">
    <rdf:RDF>
      <cc:Work
         rdf:about="">
        <dc:format>image/svg+xml</dc:format>
        <dc:type
           rdf:resource="http://purl.org/dc/dcmitype/StillImage" />
      </cc:Work>
    </rdf:RDF>
  </metadata>
  <sodipodi:namedview
     pagecolor="#ffffff"
     bordercolor="#666666"
     borderopacity="1"
     objecttolerance="1"
     gridtolerance="1"
     guidetolerance="1"
     inkscape:pageopacity="0"
     inkscape:pageshadow="2"
     inkscape:window-width="1920"
     inkscape:window-height="1057"
     id="namedview102"
     showgrid="false"
     inkscape:zoom="2.2342105"
     inkscape:cx="22.37927"
     inkscape:cy="190"
     inkscape:window-x="1592"
     inkscape:window-y="-8"
     inkscape:window-maximized="1"
     inkscape:current-layer="layer3"
     inkscape:pagecheckerboard="0"
     units="px">
    <inkscape:grid
       type="xygrid"
       id="grid1285" />
  </sodipodi:namedview>
  <defs
     id="defs7">
    <linearGradient
       id="a8e142bb-541b-4903-be63-d5d069028a5d"
       x1="22.5"
       x2="22.5"
       y2="380"
       gradientUnits="userSpaceOnUse">
      <stop
         offset="0"
         stop-color="#ebebeb"
         id="stop2" />
      <stop
         offset="1"
         stop-color="#e1e1e1"
         id="stop4" />
    </linearGradient>
  </defs>
  <g
     inkscape:groupmode="layer"
     id="layer1"
     inkscape:label="Faceplate"
     style="display:inline">
    <g
       id="aea613ef-74be-49bf-be45-c0734aee674b"
       data-name="FND BG"
       style="fill:#ede7dc;fill-opacity:1">
      <rect
         width="45"
         height="380"
         fill="url(#a8e142bb-541b-4903-be63-d5d069028a5d)"
         id="rect9"
         style="fill:#ede7dc;fill-opacity:1"
         x="0"
         y="0" />
    </g>
  </g>
  <g
     inkscape:groupmode="layer"
     id="layer2"
     inkscape:label="Brand"
     style="display:inline">
    <g
       id="g42796"
       transform="matrix(0.30458296,0,0,0.30458296,-0.33695794,-12.68508)"
       style="fill:#ff0000">
      <g
         aria-label="enom"
         id="text4270-27"
         style="font-size:49.3889px;line-height:1.25;font-family:'NECK ROMANCER';-inkscape-font-specification:'NECK ROMANCER, Normal';font-variant-ligatures:none;text-align:center;text-anchor:middle;fill:#ff0000;stroke-width:2.64583">
        <path
           d="m 46.609141,1249.244 q 0,1.1576 0,3.4245 3.183269,0 9.453344,0 -1.639866,0.5787 -2.990343,1.2058 -1.350478,0.627 -2.363337,1.688 -1.350477,0 -4.051433,0 0,1.4952 0.434082,2.5563 0.385851,1.1093 1.832792,1.1093 2.266873,0 6.80062,0 0.482313,-0.1447 0.868164,-0.627 0.337619,-0.5305 0.627007,-1.7363 0,2.0257 0,6.1254 -3.520888,0 -10.562665,0 -1.543403,0 -2.652724,-2.2187 -1.109321,-2.1704 -1.109321,-6.3183 0,-1.9775 0,-5.836 -0.385851,-1.3504 -1.881023,-2.1221 -1.495171,-0.7235 -3.569119,-1.2058 6.607694,0 19.774852,0 0,2.9421 0,8.7781 -1.205783,-2.701 -2.218642,-3.6656 -1.012858,-0.9646 -2.700955,-1.1093 -0.916396,-0.097 -2.170411,-0.097 -1.205783,0.048 -2.845649,0.048 -0.241157,0 -0.675239,0 z"
           id="path42762"
           style="fill:#ff0000" />
        <path
           d="m 81.576869,1245.2891 q 0,5.8842 0,17.7009 0,3.0868 -0.144694,6.0771 -0.09646,3.0386 -0.337619,5.9325 -0.385851,-3.7138 -0.964627,-6.9936 -0.530545,-3.3279 -2.025717,-5.016 0,-2.9904 0,-8.9228 -0.241157,-1.3505 -0.72347,-2.2187 -0.482314,-0.8681 -1.06109,-1.3987 -1.109321,-1.0128 -2.411567,-1.1093 -1.350478,-0.097 -2.266874,-0.097 -0.482313,0 -1.44694,0 0,4.582 0,13.746 0,3.0868 -0.09646,6.0771 -0.144694,3.0386 -0.385851,5.9325 -0.38585,-3.7138 -0.916395,-6.9936 -0.578776,-3.3279 -2.025717,-5.016 0,-4.8232 0,-14.373 -0.385851,-1.3504 -1.881022,-2.1221 -1.495172,-0.7235 -3.56912,-1.2058 6.752389,0 20.257166,0 z"
           id="path42764"
           style="fill:#ff0000" />
        <path
           d="m 104.19737,1249.0511 q 0,3.3762 0,10.1768 0,1.5434 -1.92925,2.6528 -1.92926,1.1093 -6.077152,1.1093 -4.196128,0 -6.125382,-1.1093 -1.929254,-1.1094 -1.929254,-2.6528 0,-3.3762 0,-10.1768 0,-1.5434 1.929254,-2.6527 1.929254,-1.1093 6.125382,-1.1093 4.147892,0 6.077152,1.1093 1.92925,1.1093 1.92925,2.6527 z m -3.76204,7.91 q 0,-1.8811 0,-5.6431 0,-1.6881 -1.254019,-1.9775 -1.205783,-0.2894 -2.990343,-0.2894 -1.832792,0 -3.038575,0.2894 -1.254015,0.2894 -1.254015,1.9775 0,1.881 0,5.6431 0,1.6881 1.254015,1.9774 1.205783,0.2894 3.038575,0.2894 1.78456,0 2.990343,-0.2894 1.254019,-0.2893 1.254019,-1.9774 z"
           id="path42766"
           style="fill:#ff0000" />
        <path
           d="m 142.34837,1245.2891 q -2.02572,0.4823 -3.52089,1.2058 -1.5434,0.7717 -1.88102,2.1221 0,4.7749 0,14.373 -1.49517,1.6881 -2.02572,5.016 -0.57878,3.2798 -0.96463,6.9936 -0.24115,-2.8939 -0.33762,-5.9325 -0.14469,-2.9903 -0.14469,-6.0771 0,-4.582 0,-13.746 -0.48231,0 -1.39871,0 -0.53054,0 -1.15755,0 -0.62701,0 -1.30225,0.1447 -1.25401,0.2412 -2.41157,1.2058 -1.15755,0.9646 -1.63986,3.4727 0,2.9903 0,8.9228 -0.1447,0.627 -0.28939,1.1093 -0.0965,0.4823 -0.19292,0.8199 -0.53055,1.9775 -0.38586,1.3505 0.19293,-0.627 -0.28938,1.1576 -0.0965,0.3376 -0.24116,0.8681 -0.14469,0.5306 -0.33762,1.3023 -0.14469,-0.6753 -0.28939,-1.2058 -0.14469,-0.4823 -0.24115,-0.8199 -0.53055,-2.0258 -0.33762,-1.3023 0.19292,0.7717 -0.43409,-1.6881 -0.0482,-0.2894 -0.19292,-0.7235 -0.0965,-0.3858 -0.19293,-0.8681 0,-2.9904 0,-8.9228 -0.28939,-1.3505 -0.7717,-2.2187 -0.48231,-0.8681 -1.06109,-1.3987 -1.10932,-1.0128 -2.41157,-1.1093 -1.30224,-0.097 -2.26687,-0.097 -0.48231,0 -1.39871,0 0,4.582 0,13.746 0,3.0868 -0.14469,6.0771 -0.0965,3.0386 -0.33762,5.9325 -0.38585,-3.7138 -0.96463,-6.9936 -0.53054,-3.3279 -2.02572,-5.016 0,-4.8232 0,-14.373 -0.38585,-1.3504 -1.88102,-2.1221 -1.49517,-0.7235 -3.56912,-1.2058 3.95497,0 11.76845,0 1.15755,0.3858 3.47266,1.1575 0.7717,0.2894 1.59163,0.4341 0.81994,0.1447 1.6881,0.1447 0.86816,0 1.73633,-0.1447 0.81993,-0.1447 1.59163,-0.4341 1.15756,-0.3858 3.42443,-1.1575 3.95497,0 11.76845,0 z"
           id="path42768"
           style="fill:#ff0000" />
      </g>
      <g
         aria-label="V"
         transform="matrix(1.2363173,0,0,0.80885384,-497.88086,123.48586)"
         id="text4270-3-5-2"
         style="font-size:78.5061px;line-height:1.25;font-family:Nosferotica;-inkscape-font-specification:'Nosferotica, Normal';font-variant-ligatures:none;text-align:center;text-anchor:middle;fill:#ff0000;stroke-width:3.27108">
        <path
           d="m 431.64994,1360.6864 8.57428,-0.1022 c 0,0 -4.4079,1.0878 -5.59925,3.7285 -1.88083,4.1689 -3.64217,14.6628 -3.64217,14.6628 l -2.23339,11.5191 -1.83311,11.8311 -1.71824,21.3112 -1.69514,-21.3112 -1.92196,-11.5208 -2.5009,-11.8294 c 0,0 -1.52027,-10.287 -3.38278,-14.4832 -1.14458,-2.5787 -5.63367,-3.8059 -5.63367,-3.8059 h 8.4657 l 6.66875,29.1569 z"
           id="path30410"
           sodipodi:nodetypes="ccscccccccscccc"
           style="fill:#ff0000" />
      </g>
    </g>
  </g>
  <g
     inkscape:groupmode="layer"
     id="layer3"
     inkscape:label="Solid">
    <rect
       x="3.9716845"
       y="315.96207"
       width="36.930145"
       height="39.15691"
       rx="3.6664922"
       fill="#1f1f1f"
       id="rect56"
       style="fill:#252525;fill-opacity:1;stroke-width:1.1373" />
    <g
       aria-label="INPUT"
       id="text24380"
       style="font-weight:bold;font-size:8px;line-height:1.25;font-family:Arial;-inkscape-font-specification:'Arial, Bold';font-variant-ligatures:none;text-align:center;text-anchor:middle;fill:#252525;fill-opacity:1"
       transform="translate(0.18669,-9.20605)">
      <path
         d="m 10.883623,282.93262 v -5.72657 h 1.15625 v 5.72657 z"
         id="path34269"
         style="fill:#252525;fill-opacity:1" />
      <path
         d="m 13.153154,282.93262 v -5.72657 h 1.125 l 2.34375,3.82422 v -3.82422 h 1.074219 v 5.72657 h -1.160156 l -2.308594,-3.73438 v 3.73438 z"
         id="path34271"
         style="fill:#252525;fill-opacity:1" />
      <path
         d="m 18.918779,282.93262 v -5.72657 h 1.855469 q 1.054688,0 1.375,0.0859 0.492188,0.12891 0.824219,0.5625 0.332031,0.42969 0.332031,1.11328 0,0.52735 -0.191406,0.88672 -0.191406,0.35938 -0.488281,0.56641 -0.292969,0.20312 -0.597657,0.26953 -0.414062,0.082 -1.199218,0.082 h -0.753907 v 2.16016 z m 1.15625,-4.75782 v 1.625 h 0.632813 q 0.683594,0 0.914062,-0.0898 0.230469,-0.0898 0.359375,-0.28125 0.132813,-0.19141 0.132813,-0.44531 0,-0.3125 -0.183594,-0.51563 -0.183594,-0.20312 -0.464844,-0.2539 -0.207031,-0.0391 -0.832031,-0.0391 z"
         id="path34273"
         style="fill:#252525;fill-opacity:1" />
      <path
         d="m 24.246904,277.20605 h 1.15625 v 3.10157 q 0,0.73828 0.04297,0.95703 0.07422,0.35156 0.351563,0.5664 0.28125,0.21094 0.765625,0.21094 0.492187,0 0.742187,-0.19922 0.25,-0.20312 0.300781,-0.49609 0.05078,-0.29297 0.05078,-0.97266 v -3.16797 h 1.15625 v 3.00782 q 0,1.03125 -0.09375,1.45703 -0.09375,0.42578 -0.347657,0.71875 -0.25,0.29297 -0.671875,0.46875 -0.421875,0.17187 -1.101562,0.17187 -0.820313,0 -1.246094,-0.1875 -0.421875,-0.1914 -0.667969,-0.49218 -0.246093,-0.30469 -0.324218,-0.63672 -0.113282,-0.49219 -0.113282,-1.45313 z"
         id="path34275"
         style="fill:#252525;fill-opacity:1" />
      <path
         d="m 31.321123,282.93262 v -4.75782 h -1.699219 v -0.96875 h 4.550782 v 0.96875 h -1.695313 v 4.75782 z"
         id="path34277"
         style="fill:#252525;fill-opacity:1" />
    </g>
    <g
       aria-label="CLONE"
       id="text24380-2"
       style="font-weight:bold;font-size:8px;line-height:1.25;font-family:Arial;-inkscape-font-specification:'Arial, Bold';font-variant-ligatures:none;text-align:center;text-anchor:middle;fill:#252525;fill-opacity:1"
       transform="translate(0,6)">
      <path
         d="m 12.825933,90.499405 1.121094,0.355469 q -0.257812,0.9375 -0.859375,1.394531 -0.597656,0.453125 -1.519531,0.453125 -1.140625,0 -1.875,-0.777344 -0.734375,-0.78125 -0.734375,-2.132812 0,-1.429688 0.7382812,-2.21875 0.7382808,-0.792969 1.9414058,-0.792969 1.050782,0 1.707032,0.621094 0.390625,0.367187 0.585937,1.054687 l -1.144531,0.273438 q -0.101563,-0.445313 -0.425781,-0.703125 -0.320313,-0.257813 -0.78125,-0.257813 -0.636719,0 -1.035157,0.457031 -0.394531,0.457032 -0.394531,1.480469 0,1.085938 0.390625,1.546875 0.390625,0.460938 1.015625,0.460938 0.460938,0 0.792969,-0.292969 0.332031,-0.292969 0.476562,-0.921875 z"
         id="path34610"
         style="fill:#252525;fill-opacity:1" />
      <path
         d="m 14.970465,92.604874 v -5.679688 h 1.15625 v 4.714844 h 2.875 v 0.964844 z"
         id="path34612"
         style="fill:#252525;fill-opacity:1" />
      <path
         d="m 19.591558,89.776749 q 0,-0.875 0.261719,-1.46875 0.195313,-0.4375 0.53125,-0.785157 0.339844,-0.347656 0.742188,-0.515625 0.535156,-0.226562 1.234375,-0.226562 1.265625,0 2.023437,0.785156 0.761719,0.785156 0.761719,2.183594 0,1.386719 -0.753906,2.171875 -0.753907,0.78125 -2.015625,0.78125 -1.277344,0 -2.03125,-0.777344 -0.753907,-0.78125 -0.753907,-2.148437 z m 1.191407,-0.03906 q 0,0.972656 0.449218,1.476563 0.449219,0.5 1.140625,0.5 0.691407,0 1.132813,-0.496094 0.445312,-0.5 0.445312,-1.496094 0,-0.984375 -0.433593,-1.46875 -0.429688,-0.484375 -1.144532,-0.484375 -0.714843,0 -1.152343,0.492188 -0.4375,0.488281 -0.4375,1.476562 z"
         id="path34614"
         style="fill:#252525;fill-opacity:1" />
      <path
         d="m 26.060308,92.604874 v -5.726563 h 1.125 l 2.34375,3.824219 v -3.824219 h 1.074219 v 5.726563 h -1.160156 l -2.308594,-3.734375 v 3.734375 z"
         id="path34616"
         style="fill:#252525;fill-opacity:1" />
      <path
         d="m 31.825933,92.604874 v -5.726563 h 4.246094 v 0.96875 h -3.089844 v 1.269531 h 2.875 v 0.964844 h -2.875 v 1.558594 h 3.199219 v 0.964844 z"
         id="path34618"
         style="fill:#252525;fill-opacity:1" />
    </g>
    <g
       aria-label="POLY CLONE"
       id="text38336"
       style="font-weight:bold;font-size:12px;line-height:1.05;font-family:Arial;-inkscape-font-specification:'Arial, Bold';font-variant-ligatures:none;text-align:center;text-anchor:middle;fill:#252525">
      <path
         d="m 7.9544163,27.272245 v -8.589843 h 2.7832027 q 1.582032,0 2.0625,0.128906 0.738282,0.193359 1.236329,0.84375 0.498046,0.644531 0.498046,1.669922 0,0.791015 -0.287109,1.330078 -0.287109,0.539062 -0.732422,0.849609 -0.439453,0.304688 -0.896484,0.404297 -0.621094,0.123047 -1.798828,0.123047 H 9.6887913 v 3.240234 z m 1.734375,-7.136718 v 2.4375 H 10.63801 q 1.025391,0 1.371094,-0.134766 0.345703,-0.134766 0.539062,-0.421875 0.199219,-0.287109 0.199219,-0.667969 0,-0.46875 -0.275391,-0.773437 -0.27539,-0.304688 -0.697265,-0.38086 -0.310547,-0.05859 -1.248047,-0.05859 z"
         id="path48655" />
      <path
         d="m 15.60676,23.030058 q 0,-1.3125 0.392578,-2.203125 0.292969,-0.65625 0.796875,-1.177734 0.509766,-0.521485 1.113281,-0.773438 0.802735,-0.339844 1.851563,-0.339844 1.898437,0 3.035156,1.177735 1.142578,1.177734 1.142578,3.27539 0,2.080078 -1.130859,3.257813 -1.130859,1.171875 -3.023438,1.171875 -1.916015,0 -3.046875,-1.166016 -1.130859,-1.171875 -1.130859,-3.222656 z m 1.787109,-0.05859 q 0,1.458985 0.673829,2.214844 0.673828,0.75 1.710937,0.75 1.037109,0 1.699219,-0.744141 0.667969,-0.75 0.667969,-2.24414 0,-1.476563 -0.650391,-2.203125 -0.644531,-0.726563 -1.716797,-0.726563 -1.072266,0 -1.728516,0.738281 -0.65625,0.732422 -0.65625,2.214844 z"
         id="path48657" />
      <path
         d="m 25.339182,27.272245 v -8.519531 h 1.734375 v 7.072266 h 4.3125 v 1.447265 z"
         id="path48659" />
      <path
         d="m 33.776682,27.272245 v -3.615234 l -3.146484,-4.974609 h 2.033203 l 2.021484,3.398437 1.980469,-3.398437 h 1.998047 l -3.158203,4.986328 v 3.603515 z"
         id="path48661" />
      <path
         d="m 8.2356663,36.714042 1.6816406,0.533203 q -0.3867187,1.40625 -1.2890625,2.091797 -0.8964844,0.679687 -2.2792969,0.679687 -1.7109375,0 -2.8125,-1.166015 -1.1015625,-1.171875 -1.1015625,-3.199219 0,-2.144531 1.1074219,-3.328125 1.1074219,-1.189453 2.9121094,-1.189453 1.5761719,0 2.5605469,0.93164 0.5859375,0.550782 0.8789062,1.582032 L 8.1770725,34.059745 Q 8.0247288,33.391776 7.5384007,33.005057 7.0579319,32.618339 6.3665257,32.618339 q -0.9550782,0 -1.5527344,0.685546 -0.5917969,0.685547 -0.5917969,2.220704 0,1.628906 0.5859375,2.320312 0.5859375,0.691406 1.5234375,0.691406 0.6914063,0 1.1894531,-0.439453 0.4980469,-0.439453 0.7148438,-1.382812 z"
         id="path48663" />
      <path
         d="m 11.452463,39.872245 v -8.519531 h 1.734375 v 7.072265 h 4.3125 v 1.447266 z"
         id="path48665" />
      <path
         d="m 18.384104,35.630057 q 0,-1.3125 0.392578,-2.203125 0.292969,-0.65625 0.796875,-1.177734 0.509766,-0.521484 1.113281,-0.773438 0.802735,-0.339843 1.851563,-0.339843 1.898437,0 3.035156,1.177734 1.142578,1.177734 1.142578,3.275391 0,2.080078 -1.130859,3.257812 -1.13086,1.171875 -3.023438,1.171875 -1.916015,0 -3.046875,-1.166015 -1.130859,-1.171875 -1.130859,-3.222657 z m 1.787109,-0.05859 q 0,1.458984 0.673828,2.214843 0.673828,0.75 1.710938,0.75 1.037109,0 1.699219,-0.74414 0.667968,-0.75 0.667968,-2.244141 0,-1.476562 -0.65039,-2.203125 -0.644532,-0.726562 -1.716797,-0.726562 -1.072266,0 -1.728516,0.738281 -0.65625,0.732422 -0.65625,2.214844 z"
         id="path48667" />
      <path
         d="m 28.087229,39.872245 v -8.589844 h 1.6875 l 3.515625,5.736328 v -5.736328 h 1.611328 v 8.589844 h -1.740234 l -3.462891,-5.601563 v 5.601563 z"
         id="path48669" />
      <path
         d="m 36.735666,39.872245 v -8.589844 h 6.369141 v 1.453125 h -4.634766 v 1.904297 h 4.3125 v 1.447266 h -4.3125 v 2.33789 h 4.798828 v 1.447266 z"
         id="path48671" />
    </g>
    <g
       aria-label="GRP"
       id="text8508"
       style="font-weight:bold;font-size:5.33333px;line-height:1.25;font-family:Arial;-inkscape-font-specification:'Arial, Bold';font-variant-ligatures:none;text-align:center;text-anchor:middle;display:inline;fill:#252525"
       transform="translate(-26.589505,269.70485)">
      <path
         d="m 32.880212,38.300361 v -0.643229 h 1.661457 v 1.520833 q -0.242187,0.234375 -0.703124,0.414062 -0.458334,0.177083 -0.929687,0.177083 -0.598958,0 -1.044271,-0.25 -0.445312,-0.252604 -0.66927,-0.718749 -0.223958,-0.46875 -0.223958,-1.018229 0,-0.596353 0.25,-1.059895 0.249999,-0.463541 0.73177,-0.710937 0.367187,-0.190104 0.914062,-0.190104 0.710937,0 1.109374,0.299479 0.401042,0.296875 0.515625,0.822916 l -0.765625,0.143229 q -0.08073,-0.28125 -0.304687,-0.442708 -0.221354,-0.164062 -0.554687,-0.164062 -0.505208,0 -0.804687,0.320312 -0.296875,0.320312 -0.296875,0.95052 0,0.679687 0.302083,1.020833 0.302083,0.338542 0.791666,0.338542 0.242188,0 0.484375,-0.09375 0.244792,-0.09635 0.419271,-0.231771 v -0.484375 z"
         id="path13528" />
      <path
         d="M 35.25521,39.704006 V 35.8863 h 1.622395 q 0.611979,0 0.888021,0.104167 0.278645,0.101562 0.445312,0.364583 0.166666,0.263021 0.166666,0.601562 0,0.429687 -0.252604,0.710937 -0.252604,0.278646 -0.755207,0.351562 0.249999,0.145834 0.411458,0.320313 0.164062,0.174479 0.440103,0.619791 l 0.466146,0.744791 h -0.921874 l -0.557292,-0.830728 q -0.296875,-0.445313 -0.406249,-0.559896 -0.109375,-0.117187 -0.231771,-0.158854 -0.122396,-0.04427 -0.388021,-0.04427 h -0.15625 v 1.593749 z m 0.770833,-2.203123 h 0.570312 q 0.554688,0 0.692708,-0.04687 0.138021,-0.04687 0.216146,-0.161459 0.07813,-0.114583 0.07813,-0.286458 0,-0.192708 -0.104167,-0.309896 -0.101562,-0.119791 -0.289062,-0.151041 -0.09375,-0.01302 -0.5625,-0.01302 h -0.601562 z"
         id="path13530" />
      <path
         d="M 39.104166,39.704006 V 35.8863 h 1.236979 q 0.703124,0 0.916666,0.05729 0.328125,0.08594 0.549479,0.375 0.221354,0.286458 0.221354,0.742187 0,0.351562 -0.127604,0.591145 -0.127604,0.239583 -0.325521,0.377604 -0.195312,0.135417 -0.398437,0.179687 -0.276042,0.05469 -0.799479,0.05469 h -0.502604 v 1.440103 z m 0.770833,-3.171873 v 1.083333 h 0.421875 q 0.455729,0 0.609375,-0.0599 0.153645,-0.0599 0.239583,-0.1875 0.08854,-0.127604 0.08854,-0.296875 0,-0.208333 -0.122395,-0.34375 -0.122396,-0.135416 -0.309896,-0.16927 -0.138021,-0.02604 -0.554687,-0.02604 z"
         id="path13532" />
    </g>
  </g>
  <g
     inkscape:groupmode="layer"
     id="layer4"
     inkscape:label="Reverse"
     style="display:inline">
    <g
       aria-label="OUTPUT"
       id="text13729"
       style="font-weight:bold;font-size:8px;line-height:1.25;font-family:Arial;-inkscape-font-specification:'Arial, Bold';font-variant-ligatures:none;text-align:center;text-anchor:middle;fill:#ede7dc;fill-opacity:1">
      <path
         d="m 6.1776028,323.29687 q 0,-0.875 0.2617187,-1.46875 0.1953125,-0.4375 0.53125,-0.78515 0.3398438,-0.34766 0.7421875,-0.51563 0.5351563,-0.22656 1.234375,-0.22656 1.265625,0 2.023438,0.78516 0.761718,0.78515 0.761718,2.18359 0,1.38672 -0.753906,2.17188 -0.753906,0.78125 -2.015625,0.78125 -1.2773437,0 -2.03125,-0.77735 -0.7539062,-0.78125 -0.7539062,-2.14844 z m 1.1914062,-0.0391 q 0,0.97266 0.4492188,1.47656 0.4492187,0.5 1.140625,0.5 0.6914062,0 1.1328122,-0.49609 0.445313,-0.5 0.445313,-1.49609 0,-0.98438 -0.433594,-1.46875 -0.4296875,-0.48438 -1.1445312,-0.48438 -0.7148438,0 -1.1523438,0.49219 -0.4375,0.48828 -0.4375,1.47656 z"
         id="path19031"
         style="fill:#ede7dc;fill-opacity:1" />
      <path
         d="m 12.626822,320.39844 h 1.15625 V 323.5 q 0,0.73828 0.04297,0.95703 0.07422,0.35156 0.351563,0.56641 0.28125,0.21093 0.765625,0.21093 0.492187,0 0.742187,-0.19921 0.25,-0.20313 0.300782,-0.4961 0.05078,-0.29297 0.05078,-0.97265 v -3.16797 h 1.15625 v 3.00781 q 0,1.03125 -0.09375,1.45703 -0.09375,0.42578 -0.347656,0.71875 -0.25,0.29297 -0.671875,0.46875 -0.421875,0.17188 -1.101563,0.17188 -0.820312,0 -1.246094,-0.1875 -0.421875,-0.19141 -0.667968,-0.49219 -0.246094,-0.30469 -0.324219,-0.63672 -0.113281,-0.49219 -0.113281,-1.45313 z"
         id="path19033"
         style="fill:#ede7dc;fill-opacity:1" />
      <path
         d="m 19.70104,326.125 v -4.75781 h -1.699218 v -0.96875 h 4.550781 v 0.96875 H 20.85729 v 4.75781 z"
         id="path19035"
         style="fill:#ede7dc;fill-opacity:1" />
      <path
         d="m 23.298697,326.125 v -5.72656 h 1.855468 q 1.054688,0 1.375,0.0859 0.492188,0.12891 0.824219,0.5625 0.332031,0.42969 0.332031,1.11329 0,0.52734 -0.191406,0.88671 -0.191406,0.35938 -0.488281,0.56641 -0.292969,0.20313 -0.597656,0.26953 -0.414063,0.082 -1.199219,0.082 h -0.753906 v 2.16016 z m 1.15625,-4.75781 v 1.625 h 0.632812 q 0.683594,0 0.914063,-0.0899 0.230468,-0.0898 0.359375,-0.28125 0.132812,-0.1914 0.132812,-0.44531 0,-0.3125 -0.183594,-0.51562 -0.183593,-0.20313 -0.464843,-0.25391 -0.207032,-0.0391 -0.832032,-0.0391 z"
         id="path19037"
         style="fill:#ede7dc;fill-opacity:1" />
      <path
         d="m 28.626822,320.39844 h 1.15625 V 323.5 q 0,0.73828 0.04297,0.95703 0.07422,0.35156 0.351563,0.56641 0.28125,0.21093 0.765625,0.21093 0.492187,0 0.742187,-0.19921 0.25,-0.20313 0.300782,-0.4961 0.05078,-0.29297 0.05078,-0.97265 v -3.16797 h 1.15625 v 3.00781 q 0,1.03125 -0.09375,1.45703 -0.09375,0.42578 -0.347656,0.71875 -0.25,0.29297 -0.671875,0.46875 -0.421875,0.17188 -1.101563,0.17188 -0.820312,0 -1.246094,-0.1875 -0.421875,-0.19141 -0.667968,-0.49219 -0.246094,-0.30469 -0.324219,-0.63672 -0.113281,-0.49219 -0.113281,-1.45313 z"
         id="path19039"
         style="fill:#ede7dc;fill-opacity:1" />
      <path
         d="m 35.70104,326.125 v -4.75781 h -1.699218 v -0.96875 h 4.550781 v 0.96875 H 36.85729 v 4.75781 z"
         id="path19041"
         style="fill:#ede7dc;fill-opacity:1" />
    </g>
  </g>
  <g
     id="f45e0130-37b7-4f8b-95b3-6408baa23eb1"
     data-name="components"
     style="display:none"
     inkscape:groupmode="layer"
     inkscape:label="Widgets">
    <circle
       id="a1c23d66-c252-4515-96a1-917337e8bedb"
       data-name="In1#PJ301MPort"
       cx="22.5"
       cy="226"
       r="5"
       style="fill:#00ff00" />
    <circle
       id="a63e68d2-1ca8-4e05-b0d1-8b6f332b0e37"
       data-name="Lev1#RoundBlackKnob"
       cx="22.5"
       cy="72.999901"
       r="5"
       style="fill:#ff0000" />
    <circle
       id="a36d22f7-2d0f-442d-90d7-0667ecca8733"
       data-name="Lev2#RoundBlackKnob"
       cx="22.5"
       cy="122.02957"
       r="5"
       style="fill:#ff0000" />
    <circle
       id="b2ee54e9-17bb-44a2-8fa9-f1f5dfd502d3"
       data-name="Lev3#RoundBlackKnob"
       cx="22.5"
       cy="171.02957"
       r="5"
       style="fill:#ff0000" />
    <circle
       id="a2b06e69-ffb0-4881-82df-d087f66de86e"
       data-name="In2#PJ301MPort"
       cx="22.5"
       cy="256"
       r="5"
       style="fill:#00ff00" />
    <circle
       id="a2b06e69-ffb0-4881-82df-d087f66de86e-8"
       data-name="In2#PJ301MPort"
       cx="22.5"
       cy="307.5"
       r="5.5"
       style="display:inline;fill:#00ff00;stroke-width:1" />
    <circle
       id="b27f5a6d-d286-4c64-8b15-5bc216721daf"
       data-name="In3#PJ301MPort"
       cx="22.5"
       cy="286.633"
       r="11.5"
       style="fill:#00ff00;stroke-width:1" />
    <circle
       id="be215e83-67fa-4d0f-a299-89c18bd912d3"
       data-name="Mix#PJ301MPort"
       cx="22.5"
       cy="334"
       r="5"
       style="fill:#0000ff"
       inkscape:label="be215e83-67fa-4d0f-a299-89c18bd912d3" />
  </g>
</svg>
