<?xml version="1.0" encoding="UTF-8" standalone="no"?>
<!-- Created with Inkscape (http://www.inkscape.org/) -->

<svg
   width="45"
   height="380"
   viewBox="0 0 119.0625 1005.4167"
   version="1.1"
   id="svg5"
   inkscape:version="1.1.1 (3bf5ae0d25, 2021-09-20)"
   sodipodi:docname="PolyScale_Ivory.svg"
   xmlns:inkscape="http://www.inkscape.org/namespaces/inkscape"
   xmlns:sodipodi="http://sodipodi.sourceforge.net/DTD/sodipodi-0.dtd"
   xmlns="http://www.w3.org/2000/svg"
   xmlns:svg="http://www.w3.org/2000/svg">
  <sodipodi:namedview
     id="namedview7"
     pagecolor="#ffffff"
     bordercolor="#666666"
     borderopacity="1.0"
     inkscape:pageshadow="2"
     inkscape:pageopacity="0.0"
     inkscape:pagecheckerboard="0"
     inkscape:document-units="mm"
     showgrid="true"
     scale-x="10"
     inkscape:showpageshadow="false"
     viewbox-x="0"
     showguides="false"
     objecttolerance="1"
     gridtolerance="1"
     guidetolerance="1"
     inkscape:zoom="2.2342105"
     inkscape:cx="22.37927"
     inkscape:cy="190"
     inkscape:window-width="1920"
     inkscape:window-height="1057"
     inkscape:window-x="1592"
     inkscape:window-y="-8"
     inkscape:window-maximized="1"
     inkscape:current-layer="layer5"
     units="px">
    <inkscape:grid
       type="xygrid"
       id="grid832"
       units="px"
       spacingx="2.6458334"
       spacingy="2.6458334"
       originx="0"
       empspacing="5"
       dotted="false"
       visible="false"
       enabled="false"
       snapvisiblegridlinesonly="false" />
    <inkscape:grid
       type="xygrid"
       id="grid15270"
       visible="false"
       snapvisiblegridlinesonly="false"
       enabled="false" />
  </sodipodi:namedview>
  <defs
     id="defs2" />
  <g
     inkscape:groupmode="layer"
     id="layer3"
     inkscape:label="Faceplate"
     style="display:inline">
    <rect
       style="vector-effect:non-scaling-stroke;fill:#ede7dc;fill-opacity:1;stroke-width:0.186761;-inkscape-stroke:hairline"
       id="rect910"
       width="119.0625"
       height="1005.4167"
       x="0"
       y="3.0735944e-05" />
  </g>
  <g
     inkscape:groupmode="layer"
     id="layer4"
     inkscape:label="Brand"
     style="display:inline">
    <g
       id="g42796"
       transform="matrix(0.79338965,0,0,0.79458332,-1.265367,-19.617028)"
       style="fill:#ff0000;stroke-width:1.27904">
      <g
         aria-label="enom"
         id="text4270-27"
         style="font-size:49.3889px;line-height:1.25;font-family:'NECK ROMANCER';-inkscape-font-specification:'NECK ROMANCER, Normal';font-variant-ligatures:none;text-align:center;text-anchor:middle;fill:#ff0000;stroke-width:3.38412">
        <path
           d="m 46.609141,1249.244 q 0,1.1576 0,3.4245 3.183269,0 9.453344,0 -1.639866,0.5787 -2.990343,1.2058 -1.350478,0.627 -2.363337,1.688 -1.350477,0 -4.051433,0 0,1.4952 0.434082,2.5563 0.385851,1.1093 1.832792,1.1093 2.266873,0 6.80062,0 0.482313,-0.1447 0.868164,-0.627 0.337619,-0.5305 0.627007,-1.7363 0,2.0257 0,6.1254 -3.520888,0 -10.562665,0 -1.543403,0 -2.652724,-2.2187 -1.109321,-2.1704 -1.109321,-6.3183 0,-1.9775 0,-5.836 -0.385851,-1.3504 -1.881023,-2.1221 -1.495171,-0.7235 -3.569119,-1.2058 6.607694,0 19.774852,0 0,2.9421 0,8.7781 -1.205783,-2.701 -2.218642,-3.6656 -1.012858,-0.9646 -2.700955,-1.1093 -0.916396,-0.097 -2.170411,-0.097 -1.205783,0.048 -2.845649,0.048 -0.241157,0 -0.675239,0 z"
           id="path42762"
           style="fill:#ff0000;stroke-width:3.38412" />
        <path
           d="m 81.576869,1245.2891 q 0,5.8842 0,17.7009 0,3.0868 -0.144694,6.0771 -0.09646,3.0386 -0.337619,5.9325 -0.385851,-3.7138 -0.964627,-6.9936 -0.530545,-3.3279 -2.025717,-5.016 0,-2.9904 0,-8.9228 -0.241157,-1.3505 -0.72347,-2.2187 -0.482314,-0.8681 -1.06109,-1.3987 -1.109321,-1.0128 -2.411567,-1.1093 -1.350478,-0.097 -2.266874,-0.097 -0.482313,0 -1.44694,0 0,4.582 0,13.746 0,3.0868 -0.09646,6.0771 -0.144694,3.0386 -0.385851,5.9325 -0.38585,-3.7138 -0.916395,-6.9936 -0.578776,-3.3279 -2.025717,-5.016 0,-4.8232 0,-14.373 -0.385851,-1.3504 -1.881022,-2.1221 -1.495172,-0.7235 -3.56912,-1.2058 6.752389,0 20.257166,0 z"
           id="path42764"
           style="fill:#ff0000;stroke-width:3.38412" />
        <path
           d="m 104.19737,1249.0511 q 0,3.3762 0,10.1768 0,1.5434 -1.92925,2.6528 -1.92926,1.1093 -6.077152,1.1093 -4.196128,0 -6.125382,-1.1093 -1.929254,-1.1094 -1.929254,-2.6528 0,-3.3762 0,-10.1768 0,-1.5434 1.929254,-2.6527 1.929254,-1.1093 6.125382,-1.1093 4.147892,0 6.077152,1.1093 1.92925,1.1093 1.92925,2.6527 z m -3.76204,7.91 q 0,-1.8811 0,-5.6431 0,-1.6881 -1.254019,-1.9775 -1.205783,-0.2894 -2.990343,-0.2894 -1.832792,0 -3.038575,0.2894 -1.254015,0.2894 -1.254015,1.9775 0,1.881 0,5.6431 0,1.6881 1.254015,1.9774 1.205783,0.2894 3.038575,0.2894 1.78456,0 2.990343,-0.2894 1.254019,-0.2893 1.254019,-1.9774 z"
           id="path42766"
           style="fill:#ff0000;stroke-width:3.38412" />
        <path
           d="m 142.34837,1245.2891 q -2.02572,0.4823 -3.52089,1.2058 -1.5434,0.7717 -1.88102,2.1221 0,4.7749 0,14.373 -1.49517,1.6881 -2.02572,5.016 -0.57878,3.2798 -0.96463,6.9936 -0.24115,-2.8939 -0.33762,-5.9325 -0.14469,-2.9903 -0.14469,-6.0771 0,-4.582 0,-13.746 -0.48231,0 -1.39871,0 -0.53054,0 -1.15755,0 -0.62701,0 -1.30225,0.1447 -1.25401,0.2412 -2.41157,1.2058 -1.15755,0.9646 -1.63986,3.4727 0,2.9903 0,8.9228 -0.1447,0.627 -0.28939,1.1093 -0.0965,0.4823 -0.19292,0.8199 -0.53055,1.9775 -0.38586,1.3505 0.19293,-0.627 -0.28938,1.1576 -0.0965,0.3376 -0.24116,0.8681 -0.14469,0.5306 -0.33762,1.3023 -0.14469,-0.6753 -0.28939,-1.2058 -0.14469,-0.4823 -0.24115,-0.8199 -0.53055,-2.0258 -0.33762,-1.3023 0.19292,0.7717 -0.43409,-1.6881 -0.0482,-0.2894 -0.19292,-0.7235 -0.0965,-0.3858 -0.19293,-0.8681 0,-2.9904 0,-8.9228 -0.28939,-1.3505 -0.7717,-2.2187 -0.48231,-0.8681 -1.06109,-1.3987 -1.10932,-1.0128 -2.41157,-1.1093 -1.30224,-0.097 -2.26687,-0.097 -0.48231,0 -1.39871,0 0,4.582 0,13.746 0,3.0868 -0.14469,6.0771 -0.0965,3.0386 -0.33762,5.9325 -0.38585,-3.7138 -0.96463,-6.9936 -0.53054,-3.3279 -2.02572,-5.016 0,-4.8232 0,-14.373 -0.38585,-1.3504 -1.88102,-2.1221 -1.49517,-0.7235 -3.56912,-1.2058 3.95497,0 11.76845,0 1.15755,0.3858 3.47266,1.1575 0.7717,0.2894 1.59163,0.4341 0.81994,0.1447 1.6881,0.1447 0.86816,0 1.73633,-0.1447 0.81993,-0.1447 1.59163,-0.4341 1.15756,-0.3858 3.42443,-1.1575 3.95497,0 11.76845,0 z"
           id="path42768"
           style="fill:#ff0000;stroke-width:3.38412" />
      </g>
      <g
         aria-label="V"
         transform="matrix(1.2363173,0,0,0.80885384,-497.88086,123.48586)"
         id="text4270-3-5-2"
         style="font-size:78.5061px;line-height:1.25;font-family:Nosferotica;-inkscape-font-specification:'Nosferotica, Normal';font-variant-ligatures:none;text-align:center;text-anchor:middle;fill:#ff0000;stroke-width:4.18383">
        <path
           d="m 431.64994,1360.6864 8.57428,-0.1022 c 0,0 -4.4079,1.0878 -5.59925,3.7285 -1.88083,4.1689 -3.64217,14.6628 -3.64217,14.6628 l -2.23339,11.5191 -1.83311,11.8311 -1.71824,21.3112 -1.69514,-21.3112 -1.92196,-11.5208 -2.5009,-11.8294 c 0,0 -1.52027,-10.287 -3.38278,-14.4832 -1.14458,-2.5787 -5.63367,-3.8059 -5.63367,-3.8059 h 8.4657 l 6.66875,29.1569 z"
           id="path30410"
           sodipodi:nodetypes="ccscccccccscccc"
           style="fill:#ff0000;stroke-width:4.18383" />
      </g>
    </g>
  </g>
  <g
     inkscape:groupmode="layer"
     id="layer5"
     inkscape:label="Solid"
     style="display:inline">
    <rect
       style="vector-effect:non-scaling-stroke;fill:#252525;fill-opacity:1;stroke-width:0.0257847;-inkscape-stroke:hairline"
       id="rect76101"
       width="78.327255"
       height="97.896446"
       x="20.367867"
       y="838.73041"
       ry="12.391612"
       rx="11.207397" />
    <g
       aria-label="IN"
       id="text90171"
       style="font-weight:bold;font-size:28.2223px;font-family:Arial;-inkscape-font-specification:'Arial, Bold';fill:#252525;fill-opacity:1;stroke-width:3.3841"
       transform="matrix(0.78125487,0,0,0.78243029,-0.19825288,31.359379)">
      <path
         d="m 64.437071,930.34119 v -20.2021 h 4.079004 v 20.2021 z"
         id="path95734"
         style="fill:#252525;fill-opacity:1;stroke-width:3.3841" />
      <path
         d="m 72.443495,930.34119 v -20.2021 h 3.968761 l 8.268252,13.49103 v -13.49103 h 3.789615 v 20.2021 H 84.377339 L 76.23311,917.16711 v 13.17408 z"
         id="path95736"
         style="fill:#252525;fill-opacity:1;stroke-width:3.3841" />
    </g>
    <g
       aria-label="POLY"
       id="text5414"
       style="font-weight:bold;font-size:28.2222px;line-height:1.25;font-family:Arial;-inkscape-font-specification:'Arial, Bold';font-variant-ligatures:none;text-align:center;text-anchor:middle;fill:#252525;stroke-width:2.64583">
      <path
         d="M 24.671566,41.13723 V 20.935206 h 6.545676 q 3.720701,0 4.850691,0.303168 1.736327,0.454752 2.907658,1.984373 1.171332,1.515841 1.171332,3.927406 0,1.86035 -0.675238,3.128144 -0.675238,1.267795 -1.722547,1.998154 -1.033527,0.716579 -2.108396,0.950846 -1.46072,0.289388 -4.230574,0.289388 h -2.659612 v 7.620545 z m 4.07899,-16.784492 v 5.732634 h 2.23242 q 2.411565,0 3.224607,-0.316948 0.813042,-0.316949 1.267794,-0.992187 0.468533,-0.675238 0.468533,-1.570962 0,-1.10243 -0.647678,-1.819009 -0.647677,-0.71658 -1.639864,-0.895725 -0.73036,-0.137803 -2.935219,-0.137803 z"
         id="path22330" />
      <path
         d="m 42.668732,31.160241 q 0,-3.086803 0.923285,-5.181419 0.689018,-1.543402 1.87413,-2.769855 1.198892,-1.226453 2.618271,-1.819009 1.88791,-0.799262 4.354597,-0.799262 4.46484,0 7.138232,2.769855 2.687173,2.769855 2.687173,7.703228 0,4.892031 -2.659612,7.661886 -2.659612,2.756074 -7.110672,2.756074 -4.506181,0 -7.165793,-2.742294 -2.659611,-2.756074 -2.659611,-7.579204 z m 4.203013,-0.137804 q 0,3.431313 1.584743,5.208981 1.584742,1.763887 4.023868,1.763887 2.439126,0 3.996308,-1.750107 1.570962,-1.763887 1.570962,-5.277882 0,-3.472654 -1.529621,-5.18142 -1.515841,-1.708766 -4.037649,-1.708766 -2.521808,0 -4.065209,1.736327 -1.543402,1.722546 -1.543402,5.20898 z"
         id="path22332" />
      <path
         d="M 65.557928,41.13723 V 21.10057 h 4.07899 v 16.632908 h 10.142353 v 3.403752 z"
         id="path22334" />
      <path
         d="M 85.401661,41.13723 V 32.634741 L 78.001602,20.935206 h 4.781789 l 4.754228,7.992615 4.657765,-7.992615 h 4.699107 l -7.42762,11.727096 v 8.474928 z"
         id="path22336" />
    </g>
    <g
       id="g22403">
      <path
         d="M 26.254211,140.28668 H 24.07605 v -8.2088 q -1.193726,1.11621 -2.813782,1.65106 v -1.97662 q 0.852661,-0.27905 1.8526,-1.0542 0.999939,-0.7829 1.372009,-1.82159 h 1.767334 z"
         id="path22339"
         style="font-weight:bold;font-size:15.875px;line-height:1.25;font-family:Arial;-inkscape-font-specification:'Arial, Bold';font-variant-ligatures:none;text-align:center;text-anchor:middle;fill:#252525;stroke-width:2.64583" />
      <path
         d="m 28.370362,137.25586 v -2.17816 h 4.278808 v 2.17816 z"
         id="path22341"
         style="font-weight:bold;font-size:15.875px;line-height:1.25;font-family:Arial;-inkscape-font-specification:'Arial, Bold';font-variant-ligatures:none;text-align:center;text-anchor:middle;fill:#252525;stroke-width:2.64583" />
      <path
         d="m 36.664429,134.15527 q -0.84491,-0.35656 -1.232483,-0.97668 -0.379822,-0.62787 -0.379822,-1.37201 0,-1.27124 0.883667,-2.10065 0.891418,-0.8294 2.526978,-0.8294 1.620056,0 2.511474,0.8294 0.89917,0.82941 0.89917,2.10065 0,0.79065 -0.410828,1.41077 -0.410827,0.61236 -1.154968,0.93792 0.945679,0.37983 1.434021,1.10846 0.496094,0.72864 0.496094,1.68207 0,1.57355 -1.00769,2.55798 -0.999939,0.98444 -2.666504,0.98444 -1.550293,0 -2.581238,-0.8139 -1.21698,-0.96119 -1.21698,-2.6355 0,-0.92243 0.457336,-1.68982 0.457337,-0.77515 1.441773,-1.19373 z m 0.449585,-2.19366 q 0,0.65112 0.364319,1.01544 0.37207,0.36432 0.984436,0.36432 0.620117,0 0.992187,-0.36432 0.37207,-0.37207 0.37207,-1.02319 0,-0.61237 -0.37207,-0.97669 -0.364319,-0.37207 -0.968933,-0.37207 -0.627869,0 -0.999939,0.37207 -0.37207,0.37207 -0.37207,0.98444 z m -0.201538,4.86792 q 0,0.89917 0.457336,1.40301 0.465088,0.50385 1.154968,0.50385 0.674378,0 1.116211,-0.48059 0.441834,-0.48834 0.441834,-1.40302 0,-0.7984 -0.449585,-1.27899 -0.449585,-0.48834 -1.139466,-0.48834 -0.7984,0 -1.193725,0.55035 -0.387573,0.55036 -0.387573,1.19373 z"
         id="path22343"
         style="font-weight:bold;font-size:15.875px;line-height:1.25;font-family:Arial;-inkscape-font-specification:'Arial, Bold';font-variant-ligatures:none;text-align:center;text-anchor:middle;fill:#252525;stroke-width:2.64583" />
    </g>
    <g
       aria-label="9-16"
       id="text5414-7-7-7-6-9"
       style="font-weight:bold;font-size:15.875px;line-height:1.25;font-family:Arial;-inkscape-font-specification:'Arial, Bold';font-variant-ligatures:none;text-align:center;text-anchor:middle;display:inline;fill:#252525;stroke-width:2.64583">
      <path
         d="m 72.177765,137.65894 2.108398,-0.23255 q 0.07751,0.64337 0.403077,0.95343 0.325561,0.31006 0.860412,0.31006 0.674378,0 1.147217,-0.62012 0.472839,-0.62011 0.604614,-2.57348 -0.821655,0.95343 -2.054138,0.95343 -1.341003,0 -2.317688,-1.03095 -0.968933,-1.03869 -0.968933,-2.69751 0,-1.72857 1.023193,-2.78277 1.030945,-1.06195 2.619995,-1.06195 1.728577,0 2.837036,1.341 1.10846,1.33325 1.10846,4.39508 0,3.11609 -1.154968,4.49585 -1.154969,1.37976 -3.007569,1.37976 -1.333252,0 -2.154907,-0.70538 -0.821655,-0.71314 -1.054199,-2.1239 z m 4.929932,-4.7594 q 0,-1.0542 -0.488343,-1.63556 -0.480591,-0.58136 -1.116211,-0.58136 -0.604614,0 -1.00769,0.48059 -0.395325,0.47284 -0.395325,1.55804 0,1.10071 0.434082,1.62006 0.434082,0.5116 1.085205,0.5116 0.627869,0 1.0542,-0.4961 0.434082,-0.49609 0.434082,-1.45727 z"
         id="path22346" />
      <path
         d="m 81.177216,137.25586 v -2.17816 h 4.278808 v 2.17816 z"
         id="path22348" />
      <path
         d="m 91.819977,140.28668 h -2.178162 v -8.2088 q -1.193725,1.11621 -2.813782,1.65106 v -1.97662 q 0.852662,-0.27905 1.852601,-1.0542 0.999939,-0.7829 1.372009,-1.82159 h 1.767334 z"
         id="path22350" />
      <path
         d="m 102.45499,131.70581 -2.1084,0.23254 q -0.0775,-0.65112 -0.403078,-0.96118 -0.325562,-0.31006 -0.84491,-0.31006 -0.68988,0 -1.170471,0.62012 -0.472839,0.62012 -0.596863,2.58124 0.813904,-0.96118 2.023133,-0.96118 1.364259,0 2.333189,1.03869 0.97669,1.0387 0.97669,2.68201 0,1.74408 -1.0232,2.79828 -1.02319,1.0542 -2.627744,1.0542 -1.720825,0 -2.829284,-1.33325 -1.10846,-1.34101 -1.10846,-4.38733 0,-3.12384 1.154968,-4.5036 1.154969,-1.37976 2.999817,-1.37976 1.294493,0 2.139403,0.72863 0.85266,0.72089 1.08521,2.10065 z m -4.937687,4.75165 q 0,1.06195 0.488343,1.64331 0.488342,0.57361 1.116211,0.57361 0.604614,0 1.007693,-0.47284 0.40307,-0.47284 0.40307,-1.55029 0,-1.10846 -0.43408,-1.62006 -0.434081,-0.51935 -1.085204,-0.51935 -0.627868,0 -1.061951,0.49609 -0.434082,0.48835 -0.434082,1.44953 z"
         id="path22352" />
    </g>
    <g
       aria-label="SCALE"
       id="text5414-9"
       style="font-weight:bold;font-size:28.2222px;line-height:1.25;font-family:Arial;-inkscape-font-specification:'Arial, Bold';font-variant-ligatures:none;text-align:center;text-anchor:middle;display:inline;fill:#252525;stroke-width:2.64583">
      <path
         d="m 11.89714,66.855108 3.968747,-0.385851 q 0.35829,1.998154 1.446939,2.935219 1.10243,0.937066 2.96278,0.937066 1.970593,0 2.96278,-0.826823 1.005967,-0.840602 1.005967,-1.956812 0,-0.71658 -0.427192,-1.212673 Q 23.40375,65.83536 22.356442,65.46329 21.639863,65.215243 19.090494,64.581346 15.810766,63.768304 14.48785,62.583193 12.6275,60.915768 12.6275,58.517983 q 0,-1.543402 0.868163,-2.880098 0.881944,-1.350476 2.521808,-2.053275 1.653645,-0.702799 3.982528,-0.702799 3.803382,0 5.718854,1.667425 1.929252,1.667425 2.025714,4.45106 l -4.07899,0.179145 q -0.261827,-1.557182 -1.12999,-2.23242 -0.854383,-0.689019 -2.57693,-0.689019 -1.777667,0 -2.783635,0.73036 -0.647677,0.468532 -0.647677,1.254014 0,0.716579 0.606336,1.226453 0.771701,0.647677 3.748261,1.350476 2.976561,0.702799 4.395939,1.460719 1.433158,0.74414 2.23242,2.053276 0.813042,1.295355 0.813042,3.210826 0,1.736327 -0.964626,3.252168 -0.964626,1.515841 -2.728514,2.259981 -1.763887,0.730359 -4.395938,0.730359 -3.830943,0 -5.884219,-1.763887 -2.053275,-1.777668 -2.452906,-5.167639 z"
         id="path22355" />
      <path
         d="m 44.680644,66.000725 3.954967,1.254013 q -0.909505,3.307289 -3.031682,4.919593 -2.108397,1.598523 -5.360564,1.598523 -4.023869,0 -6.614578,-2.742294 -2.59071,-2.756074 -2.59071,-7.524083 0,-5.043615 2.60449,-7.82725 2.60449,-2.797416 6.848844,-2.797416 3.70692,0 6.022023,2.191079 1.378037,1.295355 2.067055,3.7207 l -4.037648,0.964626 q -0.35829,-1.570962 -1.502061,-2.480466 -1.12999,-0.909505 -2.756074,-0.909505 -2.246201,0 -3.651799,1.612304 -1.391817,1.612303 -1.391817,5.22276 0,3.830943 1.378037,5.457027 1.378037,1.626084 3.582897,1.626084 1.626083,0 2.797415,-1.033528 1.171332,-1.033528 1.681205,-3.252167 z"
         id="path22357" />
      <path
         d="m 70.353473,73.428345 h -4.437279 l -1.763888,-4.588864 h -8.075297 l -1.667425,4.588864 H 50.082547 L 57.951139,53.22632 h 4.313256 z m -7.510302,-7.992616 -2.783635,-7.496522 -2.728514,7.496522 z"
         id="path22359" />
      <path
         d="m 72.627238,73.428345 v -20.03666 h 4.07899 v 16.632908 h 10.142353 v 3.403752 z"
         id="path22361" />
      <path
         d="M 89.756237,73.428345 V 53.22632 H 104.7355 v 3.417533 H 93.835227 v 4.47862 h 10.142353 v 3.403752 H 93.835227 v 5.498368 h 11.286123 v 3.403752 z"
         id="path22363" />
    </g>
    <g
       aria-label="LEVELS"
       id="text29105"
       style="font-weight:bold;font-size:21.1667px;line-height:1.25;font-family:Arial;-inkscape-font-specification:'Arial, Bold';font-variant-ligatures:none;text-align:center;text-anchor:middle;fill:#252525;stroke-width:2.64583"
       transform="translate(399.11255,-13.501095)">
      <path
         d="m -379.41872,131.45024 v -15.02753 h 3.05925 v 12.47471 h 7.60678 v 2.55282 z"
         id="path40013" />
      <path
         d="m -366.57194,131.45024 v -15.15155 h 11.23447 v 2.56315 h -8.17522 v 3.35898 h 7.60678 v 2.55282 h -7.60678 v 4.12378 h 8.46461 v 2.55282 z"
         id="path40015" />
      <path
         d="m -348.58851,131.45024 -5.4157,-15.15155 h 3.31763 l 3.8344,11.2138 3.71037,-11.2138 h 3.24529 l -5.42604,15.15155 z"
         id="path40017" />
      <path
         d="m -338.33589,131.45024 v -15.15155 h 11.23447 v 2.56315 h -8.17522 v 3.35898 h 7.60678 v 2.55282 h -7.60678 v 4.12378 h 8.46461 v 2.55282 z"
         id="path40019" />
      <path
         d="m -324.13519,131.45024 v -15.02753 h 3.05925 v 12.47471 h 7.60678 v 2.55282 z"
         id="path40021" />
      <path
         d="m -312.06356,126.5203 2.97657,-0.28939 q 0.26872,1.49862 1.08521,2.20142 0.82682,0.7028 2.22209,0.7028 1.47795,0 2.22209,-0.62011 0.75448,-0.63046 0.75448,-1.46762 0,-0.53743 -0.3204,-0.9095 -0.31006,-0.38241 -1.09554,-0.66146 -0.53744,-0.18604 -2.44947,-0.66146 -2.4598,-0.60979 -3.45199,-1.49862 -1.39527,-1.25057 -1.39527,-3.04892 0,-1.15755 0.65113,-2.16007 0.66146,-1.01286 1.89136,-1.53997 1.24024,-0.5271 2.9869,-0.5271 2.85255,0 4.28915,1.25058 1.44695,1.25057 1.51929,3.3383 l -3.05925,0.13436 q -0.19637,-1.16789 -0.84749,-1.67432 -0.64079,-0.51677 -1.9327,-0.51677 -1.33326,0 -2.08774,0.54777 -0.48575,0.35141 -0.48575,0.94052 0,0.53743 0.45475,0.91984 0.57878,0.48576 2.8112,1.01286 2.23243,0.5271 3.29696,1.09554 1.07487,0.55811 1.67432,1.53996 0.60978,0.97152 0.60978,2.40813 0,1.30224 -0.72347,2.43913 -0.72347,1.13688 -2.04639,1.69499 -1.32292,0.54777 -3.29696,0.54777 -2.87321,0 -4.41317,-1.32292 -1.53996,-1.33325 -1.83969,-3.87574 z"
         id="path40023" />
    </g>
  </g>
  <g
     inkscape:groupmode="layer"
     id="layer6"
     inkscape:label="Line"
     style="display:none" />
  <g
     inkscape:groupmode="layer"
     id="layer7"
     inkscape:label="Inverse Solid"
     style="display:inline">
    <g
       aria-label="OUT"
       id="text92761"
       style="font-weight:bold;font-size:28.2223px;font-family:Arial;-inkscape-font-specification:'Arial, Bold';fill:#ede7dc;fill-opacity:1;stroke-width:3.38413"
       transform="matrix(0.78123938,0,0,0.78243029,0.09312513,17.851938)">
      <path
         d="m 47.197813,1069.8537 q 0,-3.0868 0.923288,-5.1815 0.689021,-1.5434 1.874137,-2.7698 1.198897,-1.2265 2.61828,-1.8191 1.887917,-0.7992 4.354612,-0.7992 4.464856,0 7.138258,2.7698 2.687182,2.7699 2.687182,7.7033 0,4.8921 -2.659621,7.6619 -2.659621,2.7561 -7.110697,2.7561 -4.506197,0 -7.165818,-2.7423 -2.659621,-2.7561 -2.659621,-7.5792 z m 4.203028,-0.1378 q 0,3.4313 1.584748,5.209 1.584748,1.7639 4.023883,1.7639 2.439134,0 3.996321,-1.7502 1.570968,-1.7639 1.570968,-5.2779 0,-3.4726 -1.529626,-5.1814 -1.515847,-1.7088 -4.037663,-1.7088 -2.521817,0 -4.065224,1.7364 -1.543407,1.7225 -1.543407,5.209 z"
         id="path95721"
         style="fill:#ede7dc;fill-opacity:1;stroke-width:3.38413" />
      <path
         d="m 69.949287,1059.6286 h 4.079004 v 10.9416 q 0,2.6045 0.151584,3.3762 0.261828,1.2403 1.240238,1.9982 0.99219,0.7442 2.700962,0.7442 1.736333,0 2.61828,-0.7028 0.881947,-0.7166 1.061093,-1.7502 0.179145,-1.0335 0.179145,-3.4313 v -11.1759 h 4.079004 v 10.6109 q 0,3.638 -0.33073,5.1401 -0.33073,1.5021 -1.226457,2.5356 -0.881947,1.0335 -2.370232,1.6537 -1.488286,0.6063 -3.886079,0.6063 -2.893888,0 -4.395954,-0.6615 -1.488285,-0.6752 -2.356451,-1.7363 -0.868167,-1.0749 -1.143775,-2.2462 -0.399632,-1.7363 -0.399632,-5.1263 z"
         id="path95723"
         style="fill:#ede7dc;fill-opacity:1;stroke-width:3.38413" />
      <path
         d="m 94.905627,1079.8307 v -16.7846 h -5.994483 v -3.4175 h 16.054186 v 3.4175 h -5.980699 v 16.7846 z"
         id="path95725"
         style="fill:#ede7dc;fill-opacity:1;stroke-width:3.38413" />
    </g>
  </g>
  <g
     inkscape:groupmode="layer"
     id="layer8"
     inkscape:label="Inverse Line"
     style="display:none" />
  <g
     inkscape:groupmode="layer"
     id="layer2"
     inkscape:label="Widget"
     style="display:none">
    <circle
       style="display:inline;fill:#ff0000;stroke:#ff0000;stroke-width:5.15744;stroke-opacity:1"
       id="path1065-7-2-8-1"
       cx="59.531494"
       cy="898.26227"
       r="27.848814" />
    <circle
       style="display:inline;fill:#ff0000;stroke:#ff0000;stroke-width:5.15744;stroke-opacity:1"
       id="path1065-7-2-8-1-6"
       cx="59.531494"
       cy="795.07404"
       r="27.848814" />
    <ellipse
       style="display:inline;fill:#ff0000;stroke:#ff0000;stroke-width:3.81201;stroke-opacity:1"
       id="path1065-7-2-8-1-1-3-1"
       cx="31.75"
       cy="615.15625"
       rx="20.583578"
       ry="20.583576" />
    <ellipse
       style="display:inline;fill:#ff0000;stroke:#ff0000;stroke-width:3.81201;stroke-opacity:1"
       id="path1065-7-2-8-1-1-3-1-5"
       cx="87.3125"
       cy="615.15625"
       rx="20.583578"
       ry="20.583576" />
    <rect
       style="display:inline;opacity:0.98;fill:#ff0000;fill-opacity:1;stroke:none;stroke-width:0.636789"
       id="rect4114"
       width="64.471596"
       height="64.471024"
       x="27.295696"
       y="667.8913"
       rx="0"
       ry="0" />
    <ellipse
       style="display:inline;fill:#ff0000;stroke:#ff0000;stroke-width:3.81201;stroke-opacity:1"
       id="path1065-7-2-8-1-1-3-1-4"
       cx="31.75"
       cy="551.65625"
       rx="20.583578"
       ry="20.583576" />
    <ellipse
       style="display:inline;fill:#ff0000;stroke:#ff0000;stroke-width:3.81201;stroke-opacity:1"
       id="path1065-7-2-8-1-1-3-1-5-2"
       cx="87.3125"
       cy="551.65625"
       rx="20.583578"
       ry="20.583576" />
    <ellipse
       style="display:inline;fill:#ff0000;stroke:#ff0000;stroke-width:3.81201;stroke-opacity:1"
       id="path1065-7-2-8-1-1-3-1-3"
       cx="31.75"
       cy="488.15625"
       rx="20.583578"
       ry="20.583576" />
    <ellipse
       style="display:inline;fill:#ff0000;stroke:#ff0000;stroke-width:3.81201;stroke-opacity:1"
       id="path1065-7-2-8-1-1-3-1-5-4"
       cx="87.3125"
       cy="488.15625"
       rx="20.583578"
       ry="20.583576" />
    <ellipse
       style="display:inline;fill:#ff0000;stroke:#ff0000;stroke-width:3.81201;stroke-opacity:1"
       id="path1065-7-2-8-1-1-3-1-34"
       cx="31.75"
       cy="424.65625"
       rx="20.583578"
       ry="20.583576" />
    <ellipse
       style="display:inline;fill:#ff0000;stroke:#ff0000;stroke-width:3.81201;stroke-opacity:1"
       id="path1065-7-2-8-1-1-3-1-5-1"
       cx="87.3125"
       cy="424.65625"
       rx="20.583578"
       ry="20.583576" />
    <ellipse
       style="display:inline;fill:#ff0000;stroke:#ff0000;stroke-width:3.81201;stroke-opacity:1"
       id="path1065-7-2-8-1-1-3-1-1"
       cx="31.75"
       cy="361.15625"
       rx="20.583578"
       ry="20.583576" />
    <ellipse
       style="display:inline;fill:#ff0000;stroke:#ff0000;stroke-width:3.81201;stroke-opacity:1"
       id="path1065-7-2-8-1-1-3-1-5-15"
       cx="87.3125"
       cy="361.15625"
       rx="20.583578"
       ry="20.583576" />
    <ellipse
       style="display:inline;fill:#ff0000;stroke:#ff0000;stroke-width:3.81201;stroke-opacity:1"
       id="path1065-7-2-8-1-1-3-1-348"
       cx="31.75"
       cy="297.65625"
       rx="20.583578"
       ry="20.583576" />
    <ellipse
       style="display:inline;fill:#ff0000;stroke:#ff0000;stroke-width:3.81201;stroke-opacity:1"
       id="path1065-7-2-8-1-1-3-1-5-7"
       cx="87.3125"
       cy="297.65625"
       rx="20.583578"
       ry="20.583576" />
    <ellipse
       style="display:inline;fill:#ff0000;stroke:#ff0000;stroke-width:3.81201;stroke-opacity:1"
       id="path1065-7-2-8-1-1-3-1-8"
       cx="31.75"
       cy="234.15625"
       rx="20.583578"
       ry="20.583576" />
    <ellipse
       style="display:inline;fill:#ff0000;stroke:#ff0000;stroke-width:3.81201;stroke-opacity:1"
       id="path1065-7-2-8-1-1-3-1-5-9"
       cx="87.3125"
       cy="234.15625"
       rx="20.583578"
       ry="20.583576" />
    <ellipse
       style="display:inline;fill:#ff0000;stroke:#ff0000;stroke-width:3.81201;stroke-opacity:1"
       id="path1065-7-2-8-1-1-3-1-7"
       cx="31.75"
       cy="170.65625"
       rx="20.583578"
       ry="20.583576" />
    <ellipse
       style="display:inline;fill:#ff0000;stroke:#ff0000;stroke-width:3.81201;stroke-opacity:1"
       id="path1065-7-2-8-1-1-3-1-5-44"
       cx="87.3125"
       cy="170.65625"
       rx="20.583578"
       ry="20.583576" />
  </g>
</svg>
