<?xml version="1.0" encoding="UTF-8" standalone="no"?>
<svg
   width="45"
   height="379.99997"
   viewBox="0 0 45 380"
   version="1.1"
   id="svg100"
   sodipodi:docname="PolyUnison_Ivory.svg"
   inkscape:version="1.1.1 (3bf5ae0d25, 2021-09-20)"
   xmlns:inkscape="http://www.inkscape.org/namespaces/inkscape"
   xmlns:sodipodi="http://sodipodi.sourceforge.net/DTD/sodipodi-0.dtd"
   xmlns="http://www.w3.org/2000/svg"
   xmlns:svg="http://www.w3.org/2000/svg"
   xmlns:rdf="http://www.w3.org/1999/02/22-rdf-syntax-ns#"
   xmlns:cc="http://creativecommons.org/ns#"
   xmlns:dc="http://purl.org/dc/elements/1.1/">
  <metadata
     id="metadata104">
    <rdf:RDF>
      <cc:Work
         rdf:about="">
        <dc:format>image/svg+xml</dc:format>
        <dc:type
           rdf:resource="http://purl.org/dc/dcmitype/StillImage" />
      </cc:Work>
    </rdf:RDF>
  </metadata>
  <sodipodi:namedview
     pagecolor="#ffffff"
     bordercolor="#666666"
     borderopacity="1"
     objecttolerance="1"
     gridtolerance="1"
     guidetolerance="1"
     inkscape:pageopacity="0"
     inkscape:pageshadow="2"
     inkscape:window-width="1920"
     inkscape:window-height="1057"
     id="namedview102"
     showgrid="false"
     inkscape:zoom="2.2342105"
     inkscape:cx="22.37927"
     inkscape:cy="190"
     inkscape:window-x="1592"
     inkscape:window-y="-8"
     inkscape:window-maximized="1"
     inkscape:current-layer="f45e0130-37b7-4f8b-95b3-6408baa23eb1"
     inkscape:pagecheckerboard="0"
     units="px"
     inkscape:showpageshadow="false">
    <inkscape:grid
       type="xygrid"
       id="grid1285"
       units="mm"
       spacingx="0.75590554"
       spacingy="0.75590554" />
  </sodipodi:namedview>
  <defs
     id="defs7">
    <rect
       x="85"
       y="10"
       width="51.058132"
       height="25"
       id="rect29906" />
    <linearGradient
       id="a8e142bb-541b-4903-be63-d5d069028a5d"
       x1="22.5"
       x2="22.5"
       y2="380"
       gradientUnits="userSpaceOnUse">
      <stop
         offset="0"
         stop-color="#ebebeb"
         id="stop2" />
      <stop
         offset="1"
         stop-color="#e1e1e1"
         id="stop4" />
    </linearGradient>
  </defs>
  <g
     id="f45e0130-37b7-4f8b-95b3-6408baa23eb1"
     data-name="components"
     style="display:inline"
     inkscape:groupmode="layer"
     inkscape:label="Faceplate">
    <g
       id="aea613ef-74be-49bf-be45-c0734aee674b"
       data-name="FND BG"
       style="fill:#ede7dc;fill-opacity:1">
      <rect
         width="45"
         height="380"
         fill="url(#a8e142bb-541b-4903-be63-d5d069028a5d)"
         id="rect9"
         style="fill:#ede7dc;fill-opacity:1"
         x="0"
         y="0" />
    </g>
  </g>
  <g
     inkscape:groupmode="layer"
     id="layer3"
     inkscape:label="Brand">
    <g
       id="g42796"
       transform="matrix(0.30458296,0,0,0.30458296,-0.5624499,-12.68508)"
       style="fill:#ff0000">
      <g
         aria-label="enom"
         id="text4270-27"
         style="font-size:49.3889px;line-height:1.25;font-family:'NECK ROMANCER';-inkscape-font-specification:'NECK ROMANCER, Normal';font-variant-ligatures:none;text-align:center;text-anchor:middle;fill:#ff0000;stroke-width:2.64583">
        <path
           d="m 46.609141,1249.244 q 0,1.1576 0,3.4245 3.183269,0 9.453344,0 -1.639866,0.5787 -2.990343,1.2058 -1.350478,0.627 -2.363337,1.688 -1.350477,0 -4.051433,0 0,1.4952 0.434082,2.5563 0.385851,1.1093 1.832792,1.1093 2.266873,0 6.80062,0 0.482313,-0.1447 0.868164,-0.627 0.337619,-0.5305 0.627007,-1.7363 0,2.0257 0,6.1254 -3.520888,0 -10.562665,0 -1.543403,0 -2.652724,-2.2187 -1.109321,-2.1704 -1.109321,-6.3183 0,-1.9775 0,-5.836 -0.385851,-1.3504 -1.881023,-2.1221 -1.495171,-0.7235 -3.569119,-1.2058 6.607694,0 19.774852,0 0,2.9421 0,8.7781 -1.205783,-2.701 -2.218642,-3.6656 -1.012858,-0.9646 -2.700955,-1.1093 -0.916396,-0.097 -2.170411,-0.097 -1.205783,0.048 -2.845649,0.048 -0.241157,0 -0.675239,0 z"
           id="path42762"
           style="fill:#ff0000" />
        <path
           d="m 81.576869,1245.2891 q 0,5.8842 0,17.7009 0,3.0868 -0.144694,6.0771 -0.09646,3.0386 -0.337619,5.9325 -0.385851,-3.7138 -0.964627,-6.9936 -0.530545,-3.3279 -2.025717,-5.016 0,-2.9904 0,-8.9228 -0.241157,-1.3505 -0.72347,-2.2187 -0.482314,-0.8681 -1.06109,-1.3987 -1.109321,-1.0128 -2.411567,-1.1093 -1.350478,-0.097 -2.266874,-0.097 -0.482313,0 -1.44694,0 0,4.582 0,13.746 0,3.0868 -0.09646,6.0771 -0.144694,3.0386 -0.385851,5.9325 -0.38585,-3.7138 -0.916395,-6.9936 -0.578776,-3.3279 -2.025717,-5.016 0,-4.8232 0,-14.373 -0.385851,-1.3504 -1.881022,-2.1221 -1.495172,-0.7235 -3.56912,-1.2058 6.752389,0 20.257166,0 z"
           id="path42764"
           style="fill:#ff0000" />
        <path
           d="m 104.19737,1249.0511 q 0,3.3762 0,10.1768 0,1.5434 -1.92925,2.6528 -1.92926,1.1093 -6.077152,1.1093 -4.196128,0 -6.125382,-1.1093 -1.929254,-1.1094 -1.929254,-2.6528 0,-3.3762 0,-10.1768 0,-1.5434 1.929254,-2.6527 1.929254,-1.1093 6.125382,-1.1093 4.147892,0 6.077152,1.1093 1.92925,1.1093 1.92925,2.6527 z m -3.76204,7.91 q 0,-1.8811 0,-5.6431 0,-1.6881 -1.254019,-1.9775 -1.205783,-0.2894 -2.990343,-0.2894 -1.832792,0 -3.038575,0.2894 -1.254015,0.2894 -1.254015,1.9775 0,1.881 0,5.6431 0,1.6881 1.254015,1.9774 1.205783,0.2894 3.038575,0.2894 1.78456,0 2.990343,-0.2894 1.254019,-0.2893 1.254019,-1.9774 z"
           id="path42766"
           style="fill:#ff0000" />
        <path
           d="m 142.34837,1245.2891 q -2.02572,0.4823 -3.52089,1.2058 -1.5434,0.7717 -1.88102,2.1221 0,4.7749 0,14.373 -1.49517,1.6881 -2.02572,5.016 -0.57878,3.2798 -0.96463,6.9936 -0.24115,-2.8939 -0.33762,-5.9325 -0.14469,-2.9903 -0.14469,-6.0771 0,-4.582 0,-13.746 -0.48231,0 -1.39871,0 -0.53054,0 -1.15755,0 -0.62701,0 -1.30225,0.1447 -1.25401,0.2412 -2.41157,1.2058 -1.15755,0.9646 -1.63986,3.4727 0,2.9903 0,8.9228 -0.1447,0.627 -0.28939,1.1093 -0.0965,0.4823 -0.19292,0.8199 -0.53055,1.9775 -0.38586,1.3505 0.19293,-0.627 -0.28938,1.1576 -0.0965,0.3376 -0.24116,0.8681 -0.14469,0.5306 -0.33762,1.3023 -0.14469,-0.6753 -0.28939,-1.2058 -0.14469,-0.4823 -0.24115,-0.8199 -0.53055,-2.0258 -0.33762,-1.3023 0.19292,0.7717 -0.43409,-1.6881 -0.0482,-0.2894 -0.19292,-0.7235 -0.0965,-0.3858 -0.19293,-0.8681 0,-2.9904 0,-8.9228 -0.28939,-1.3505 -0.7717,-2.2187 -0.48231,-0.8681 -1.06109,-1.3987 -1.10932,-1.0128 -2.41157,-1.1093 -1.30224,-0.097 -2.26687,-0.097 -0.48231,0 -1.39871,0 0,4.582 0,13.746 0,3.0868 -0.14469,6.0771 -0.0965,3.0386 -0.33762,5.9325 -0.38585,-3.7138 -0.96463,-6.9936 -0.53054,-3.3279 -2.02572,-5.016 0,-4.8232 0,-14.373 -0.38585,-1.3504 -1.88102,-2.1221 -1.49517,-0.7235 -3.56912,-1.2058 3.95497,0 11.76845,0 1.15755,0.3858 3.47266,1.1575 0.7717,0.2894 1.59163,0.4341 0.81994,0.1447 1.6881,0.1447 0.86816,0 1.73633,-0.1447 0.81993,-0.1447 1.59163,-0.4341 1.15756,-0.3858 3.42443,-1.1575 3.95497,0 11.76845,0 z"
           id="path42768"
           style="fill:#ff0000" />
      </g>
      <g
         aria-label="V"
         transform="matrix(1.2363173,0,0,0.80885384,-497.88086,123.48586)"
         id="text4270-3-5-2"
         style="font-size:78.5061px;line-height:1.25;font-family:Nosferotica;-inkscape-font-specification:'Nosferotica, Normal';font-variant-ligatures:none;text-align:center;text-anchor:middle;fill:#ff0000;stroke-width:3.27108">
        <path
           d="m 431.64994,1360.6864 8.57428,-0.1022 c 0,0 -4.4079,1.0878 -5.59925,3.7285 -1.88083,4.1689 -3.64217,14.6628 -3.64217,14.6628 l -2.23339,11.5191 -1.83311,11.8311 -1.71824,21.3112 -1.69514,-21.3112 -1.92196,-11.5208 -2.5009,-11.8294 c 0,0 -1.52027,-10.287 -3.38278,-14.4832 -1.14458,-2.5787 -5.63367,-3.8059 -5.63367,-3.8059 h 8.4657 l 6.66875,29.1569 z"
           id="path30410"
           sodipodi:nodetypes="ccscccccccscccc"
           style="fill:#ff0000" />
      </g>
    </g>
  </g>
  <g
     inkscape:groupmode="layer"
     id="layer4"
     inkscape:label="Solid"
     style="display:inline">
    <path
       style="color:#000000;fill:#252525;-inkscape-stroke:none"
       d="m 21.896484,92.292969 v 32.902341 h 1.207032 V 92.292969 Z"
       id="path4611" />
    <path
       style="color:#000000;fill:#252525;-inkscape-stroke:none"
       d="m 21.896484,192.18945 v 32.90235 h 1.207032 v -32.90235 z"
       id="path4611-9" />
    <rect
       x="8.224225"
       y="315.96207"
       width="28.55155"
       height="39.15691"
       rx="2.83465"
       fill="#1f1f1f"
       id="rect56"
       style="fill:#252525;fill-opacity:1" />
    <g
       aria-label="DETUNE"
       id="text9323-7"
       style="font-weight:bold;font-size:8px;line-height:1.25;font-family:Arial;-inkscape-font-specification:'Arial, Bold';font-variant-ligatures:none;text-align:center;text-anchor:middle;display:inline;fill:#252525;fill-opacity:1"
       transform="translate(0,-8)">
      <path
         d="M 6.5429687,169.45471 H 8.65625 q 0.7148438,0 1.0898438,0.10938 0.5039062,0.14843 0.8632812,0.52734 0.359375,0.37891 0.546875,0.92969 0.1875,0.54687 0.1875,1.35156 0,0.70703 -0.175781,1.21875 -0.214844,0.625 -0.613281,1.01172 -0.300782,0.29297 -0.8125005,0.45703 -0.3828125,0.12109 -1.0234375,0.12109 H 6.5429687 Z m 1.15625,0.96875 v 3.79297 H 8.5625 q 0.484375,0 0.6992188,-0.0547 0.28125,-0.0703 0.4648437,-0.23828 0.1875,-0.16797 0.3046875,-0.55078 0.117188,-0.38672 0.117188,-1.05078 0,-0.66406 -0.117188,-1.01953 -0.1171875,-0.35547 -0.328125,-0.55469 -0.2109375,-0.19922 -0.5351562,-0.26953 -0.2421875,-0.0547 -0.9492188,-0.0547 z"
         id="path6371"
         style="fill:#252525;fill-opacity:1" />
      <path
         d="m 12.324219,175.18127 v -5.72656 h 4.246093 v 0.96875 h -3.089843 v 1.26953 h 2.875 v 0.96485 h -2.875 v 1.55859 h 3.199218 v 0.96484 z"
         id="path6373"
         style="fill:#252525;fill-opacity:1" />
      <path
         d="m 18.949219,175.18127 v -4.75781 H 17.25 v -0.96875 h 4.550781 v 0.96875 h -1.695312 v 4.75781 z"
         id="path6375"
         style="fill:#252525;fill-opacity:1" />
      <path
         d="m 22.539062,169.45471 h 1.15625 v 3.10156 q 0,0.73829 0.04297,0.95704 0.07422,0.35156 0.351563,0.5664 0.28125,0.21094 0.765625,0.21094 0.492187,0 0.742187,-0.19922 0.25,-0.20312 0.300781,-0.49609 0.05078,-0.29297 0.05078,-0.97266 v -3.16797 h 1.15625 v 3.00781 q 0,1.03125 -0.09375,1.45704 -0.09375,0.42578 -0.347657,0.71875 -0.25,0.29296 -0.671875,0.46875 -0.421875,0.17187 -1.101562,0.17187 -0.820313,0 -1.246094,-0.1875 -0.421875,-0.19141 -0.667969,-0.49219 -0.246093,-0.30468 -0.324218,-0.63672 -0.113282,-0.49218 -0.113282,-1.45312 z"
         id="path6377"
         style="fill:#252525;fill-opacity:1" />
      <path
         d="m 28.335937,175.18127 v -5.72656 h 1.125 l 2.34375,3.82422 v -3.82422 h 1.074219 v 5.72656 H 31.71875 l -2.308594,-3.73437 v 3.73437 z"
         id="path6379"
         style="fill:#252525;fill-opacity:1" />
      <path
         d="m 34.101562,175.18127 v -5.72656 h 4.246094 v 0.96875 h -3.089844 v 1.26953 h 2.875 v 0.96485 h -2.875 v 1.55859 h 3.199219 v 0.96484 z"
         id="path6381"
         style="fill:#252525;fill-opacity:1" />
    </g>
    <g
       aria-label="COUNT"
       id="text9323-6-3-7"
       style="font-weight:bold;font-size:8px;line-height:1.25;font-family:Arial;-inkscape-font-specification:'Arial, Bold';font-variant-ligatures:none;text-align:center;text-anchor:middle;display:inline;fill:#252525;fill-opacity:1">
      <path
         d="m 12.417969,72.990067 1.121094,0.355468 q -0.257813,0.9375 -0.859375,1.394532 -0.597657,0.453125 -1.519532,0.453125 -1.140625,0 -1.8749997,-0.777344 -0.734375,-0.78125 -0.734375,-2.132813 0,-1.429687 0.7382812,-2.21875 0.7382815,-0.792968 1.9414065,-0.792968 1.050781,0 1.707031,0.621093 0.390625,0.367188 0.585938,1.054688 l -1.144532,0.273437 q -0.101562,-0.445312 -0.425781,-0.703125 -0.320312,-0.257812 -0.78125,-0.257812 -0.636719,0 -1.035156,0.457031 -0.3945315,0.457031 -0.3945315,1.480469 0,1.085937 0.3906255,1.546875 0.390625,0.460937 1.015625,0.460937 0.460937,0 0.792968,-0.292968 0.332032,-0.292969 0.476563,-0.921875 z"
         id="path6346"
         style="fill:#252525;fill-opacity:1" />
      <path
         d="m 14.296875,72.26741 q 0,-0.875 0.261719,-1.46875 0.195312,-0.4375 0.53125,-0.785156 0.339844,-0.347656 0.742187,-0.515625 0.535156,-0.226562 1.234375,-0.226562 1.265625,0 2.023438,0.785156 0.761718,0.785156 0.761718,2.183594 0,1.386718 -0.753906,2.171875 -0.753906,0.78125 -2.015625,0.78125 -1.277343,0 -2.03125,-0.777344 -0.753906,-0.78125 -0.753906,-2.148438 z m 1.191406,-0.03906 q 0,0.972656 0.449219,1.476562 0.449219,0.5 1.140625,0.5 0.691406,0 1.132812,-0.496093 0.445313,-0.5 0.445313,-1.496094 0,-0.984375 -0.433594,-1.46875 -0.429687,-0.484375 -1.144531,-0.484375 -0.714844,0 -1.152344,0.492187 -0.4375,0.488282 -0.4375,1.476563 z"
         id="path6348"
         style="fill:#252525;fill-opacity:1" />
      <path
         d="m 20.746094,69.368973 h 1.15625 v 3.101562 q 0,0.738282 0.04297,0.957032 0.07422,0.351562 0.351563,0.566406 0.28125,0.210937 0.765625,0.210937 0.492187,0 0.742187,-0.199218 0.25,-0.203125 0.300782,-0.496094 0.05078,-0.292969 0.05078,-0.972656 v -3.167969 h 1.15625 v 3.007812 q 0,1.03125 -0.09375,1.457032 -0.09375,0.425781 -0.347656,0.71875 -0.25,0.292968 -0.671875,0.46875 -0.421875,0.171875 -1.101563,0.171875 -0.820312,0 -1.246094,-0.1875 Q 21.429687,74.814285 21.183594,74.513504 20.9375,74.208817 20.859375,73.876785 20.746094,73.384598 20.746094,72.42366 Z"
         id="path6350"
         style="fill:#252525;fill-opacity:1" />
      <path
         d="m 26.542969,75.095535 v -5.726562 h 1.125 l 2.34375,3.824219 v -3.824219 h 1.074218 v 5.726562 H 29.925781 L 27.617187,71.36116 v 3.734375 z"
         id="path6352"
         style="fill:#252525;fill-opacity:1" />
      <path
         d="m 33.597656,75.095535 v -4.757812 h -1.699219 v -0.96875 h 4.550782 v 0.96875 h -1.695313 v 4.757812 z"
         id="path6354"
         style="fill:#252525;fill-opacity:1" />
    </g>
    <g
       aria-label="IN"
       id="text9323-6-3-4-7-9-7"
       style="font-weight:bold;font-size:8px;line-height:1.25;font-family:Arial;-inkscape-font-specification:'Arial, Bold';font-variant-ligatures:none;text-align:center;text-anchor:middle;display:inline;fill:#252525;fill-opacity:1"
       transform="translate(0,-14)">
      <path
         d="m 19.09375,287.5571 v -5.72656 H 20.25 v 5.72656 z"
         id="path6384"
         style="fill:#252525;fill-opacity:1" />
      <path
         d="m 21.363281,287.5571 v -5.72656 h 1.125 l 2.34375,3.82421 v -3.82421 h 1.074219 v 5.72656 H 24.746094 L 22.4375,283.82272 v 3.73438 z"
         id="path6386"
         style="fill:#252525;fill-opacity:1" />
    </g>
    <g
       aria-label="POLY"
       id="text9323-12-5"
       style="font-weight:bold;font-size:10.6667px;line-height:1.25;font-family:Arial;-inkscape-font-specification:'Arial, Bold';font-variant-ligatures:none;text-align:center;text-anchor:middle;display:inline;fill:#252525;fill-opacity:1">
      <path
         d="M 8.8515194,14.700585 V 7.0651446 h 2.4739666 q 1.406254,0 1.833339,0.1145837 0.656252,0.1718755 1.098961,0.7500023 0.44271,0.5729185 0.44271,1.4843797 0,0.7031277 -0.255209,1.1822957 -0.255209,0.479168 -0.651044,0.75521 -0.390626,0.270835 -0.796877,0.359377 -0.552085,0.109375 -1.598964,0.109375 h -1.005211 v 2.880217 z M 10.393191,8.3568153 v 2.1666737 h 0.843753 q 0.911461,0 1.218753,-0.119792 0.307293,-0.119792 0.479169,-0.375001 0.177083,-0.2552095 0.177083,-0.5937523 0,-0.416668 -0.244792,-0.6875021 -0.244792,-0.2708342 -0.619794,-0.3385428 -0.276042,-0.052084 -1.109378,-0.052084 z"
         id="path6324"
         style="fill:#252525;fill-opacity:1" />
      <path
         d="m 15.653624,10.92974 q 0,-1.1666702 0.34896,-1.9583394 0.260417,-0.5833352 0.708335,-1.0468783 0.453127,-0.4635431 0.989587,-0.6875022 0.713544,-0.3020843 1.645838,-0.3020843 1.687506,0 2.697925,1.0468783 1.015629,1.0468783 1.015629,2.9114679 0,1.848964 -1.005212,2.895842 -1.005211,1.04167 -2.687508,1.04167 -1.703131,0 -2.708342,-1.036461 -1.005212,-1.04167 -1.005212,-2.864593 z m 1.588547,-0.05208 q 0,1.296879 0.59896,1.968756 0.59896,0.666669 1.520838,0.666669 0.921878,0 1.510422,-0.661461 0.593752,-0.666669 0.593752,-1.994798 0,-1.3125039 -0.578127,-1.9583393 -0.572919,-0.6458354 -1.526047,-0.6458354 -0.953128,0 -1.536463,0.6562521 -0.583335,0.6510437 -0.583335,1.9687566 z"
         id="path6326"
         style="fill:#252525;fill-opacity:1" />
      <path
         d="M 24.304693,14.700585 V 7.1276448 h 1.541671 v 6.2864782 h 3.833346 v 1.286462 z"
         id="path6328"
         style="fill:#252525;fill-opacity:1" />
      <path
         d="M 31.804717,14.700585 V 11.487034 L 29.007833,7.0651446 h 1.807297 l 1.796881,3.0208424 1.760422,-3.0208424 h 1.776048 L 33.34118,11.49745 v 3.203135 z"
         id="path6330"
         style="fill:#252525;fill-opacity:1" />
    </g>
    <g
       aria-label="UNISON"
       id="text9323-12-5-7"
       style="font-weight:bold;font-size:10.6667px;line-height:1.25;font-family:Arial;-inkscape-font-specification:'Arial, Bold';font-variant-ligatures:none;text-align:center;text-anchor:middle;display:inline;fill:#252525;fill-opacity:1">
      <path
         d="m 2.5676459,18.721308 h 1.5416715 v 4.13543 q 0,0.984378 0.057292,1.276045 0.098959,0.468752 0.4687515,0.755211 0.3750012,0.281251 1.0208366,0.281251 0.6562521,0 0.9895864,-0.265626 0.3333344,-0.270834 0.401043,-0.66146 0.067708,-0.390627 0.067708,-1.29688 v -4.223971 h 1.5416716 v 4.010429 q 0,1.375004 -0.1250004,1.942715 -0.1250004,0.56771 -0.4635432,0.958336 -0.3333343,0.390626 -0.8958361,0.625002 -0.5625018,0.229167 -1.4687547,0.229167 -1.0937534,0 -1.6614635,-0.25 Q 3.4791071,25.981747 3.150981,25.580704 2.822855,25.174453 2.718688,24.731743 2.5676459,24.075491 2.5676459,22.794237 Z"
         id="path6333"
         style="fill:#252525;fill-opacity:1" />
      <path
         d="m 10.296837,26.356749 v -7.635441 h 1.500005 l 3.12501,5.098974 v -5.098974 h 1.432296 v 7.635441 h -1.54688 l -3.078135,-4.979183 v 4.979183 z"
         id="path6335"
         style="fill:#252525;fill-opacity:1" />
      <path
         d="m 17.937486,26.356749 v -7.635441 h 1.541672 v 7.635441 z"
         id="path6337"
         style="fill:#252525;fill-opacity:1" />
      <path
         d="m 20.557286,23.872366 1.500005,-0.145834 q 0.135417,0.755211 0.546877,1.109378 0.416668,0.354168 1.119795,0.354168 0.744794,0 1.119795,-0.312501 0.38021,-0.317709 0.38021,-0.739585 0,-0.270835 -0.161459,-0.458335 -0.15625,-0.192709 -0.552085,-0.333335 -0.270834,-0.09375 -1.234379,-0.333334 -1.239587,-0.307293 -1.739589,-0.755211 -0.703127,-0.63021 -0.703127,-1.536463 0,-0.583335 0.328126,-1.088545 0.333334,-0.510418 0.953128,-0.776044 0.625002,-0.265626 1.505213,-0.265626 1.437505,0 2.161465,0.63021 0.729169,0.630211 0.765628,1.682297 l -1.541672,0.06771 q -0.09896,-0.588544 -0.427084,-0.843753 -0.322918,-0.260417 -0.973962,-0.260417 -0.671877,0 -1.052087,0.276042 -0.244792,0.177084 -0.244792,0.47396 0,0.270834 0.229167,0.463543 0.291668,0.244793 1.416672,0.510419 1.125003,0.265625 1.661463,0.552085 0.541669,0.28125 0.843753,0.776044 0.307292,0.489585 0.307292,1.213545 0,0.656252 -0.364584,1.229171 -0.364585,0.572918 -1.031253,0.854169 -0.666669,0.276043 -1.661464,0.276043 -1.447921,0 -2.223965,-0.666669 -0.776044,-0.671877 -0.927087,-1.953131 z"
         id="path6339"
         style="fill:#252525;fill-opacity:1" />
      <path
         d="m 27.750017,22.585903 q 0,-1.16667 0.348959,-1.958339 0.260418,-0.583335 0.708336,-1.046878 0.453126,-0.463544 0.989586,-0.687503 0.713544,-0.302084 1.645839,-0.302084 1.687505,0 2.697925,1.046878 1.015628,1.046879 1.015628,2.911468 0,1.848964 -1.005211,2.895842 -1.005212,1.04167 -2.687509,1.04167 -1.70313,0 -2.708342,-1.036461 -1.005211,-1.04167 -1.005211,-2.864593 z m 1.588546,-0.05208 q 0,1.296879 0.598961,1.968756 0.59896,0.666669 1.520838,0.666669 0.921878,0 1.510421,-0.661461 0.593752,-0.666668 0.593752,-1.994798 0,-1.312504 -0.578127,-1.958339 -0.572918,-0.645835 -1.526046,-0.645835 -0.953128,0 -1.536463,0.656252 -0.583336,0.651043 -0.583336,1.968756 z"
         id="path6341"
         style="fill:#252525;fill-opacity:1" />
      <path
         d="m 36.375044,26.356749 v -7.635441 h 1.500005 l 3.12501,5.098974 v -5.098974 h 1.432296 v 7.635441 h -1.54688 l -3.078134,-4.979183 v 4.979183 z"
         id="path6343"
         style="fill:#252525;fill-opacity:1" />
    </g>
    <g
       aria-label="DIR"
       id="text9323-7-5"
       style="font-weight:bold;font-size:5.33333px;line-height:1.25;font-family:Arial;-inkscape-font-specification:'Arial, Bold';font-variant-ligatures:none;text-align:center;text-anchor:middle;display:inline;fill:#252525;fill-opacity:1"
       transform="translate(0,-8)">
      <path
         d="m 8.6260115,150.75564 h 1.4088535 q 0.476562,0 0.726562,0.0729 0.335937,0.099 0.57552,0.35156 0.239584,0.25261 0.364583,0.61979 0.125,0.36459 0.125,0.90104 0,0.47136 -0.117187,0.8125 -0.143229,0.41667 -0.408854,0.67448 -0.200521,0.19531 -0.541666,0.30469 -0.255208,0.0807 -0.682292,0.0807 H 8.6260115 Z m 0.7708329,0.64584 v 2.52864 h 0.5755205 q 0.3229161,0 0.4661451,-0.0365 0.1875,-0.0469 0.309896,-0.15885 0.125,-0.11198 0.203125,-0.36719 0.07813,-0.25781 0.07813,-0.70052 0,-0.44271 -0.07813,-0.67969 -0.07813,-0.23698 -0.21875,-0.36979 -0.140625,-0.13281 -0.356771,-0.17969 -0.161458,-0.0365 -0.6328117,-0.0365 z"
         id="path6357"
         style="fill:#252525;fill-opacity:1" />
      <path
         d="m 12.456738,154.57335 v -3.81771 h 0.770833 v 3.81771 z"
         id="path6359"
         style="fill:#252525;fill-opacity:1" />
      <path
         d="m 13.96455,154.57335 v -3.81771 h 1.622395 q 0.611979,0 0.88802,0.10417 0.278646,0.10156 0.445312,0.36458 0.166667,0.26302 0.166667,0.60156 0,0.42969 -0.252604,0.71094 -0.252604,0.27865 -0.755208,0.35156 0.25,0.14584 0.411458,0.32032 0.164063,0.17448 0.440104,0.61979 l 0.466146,0.74479 h -0.921875 l -0.557291,-0.83073 q -0.296875,-0.44531 -0.40625,-0.5599 -0.109375,-0.11718 -0.231771,-0.15885 -0.122395,-0.0443 -0.38802,-0.0443 h -0.15625 v 1.59375 z m 0.770833,-2.20312 h 0.570312 q 0.554687,0 0.692708,-0.0469 0.138021,-0.0469 0.216146,-0.16146 0.07813,-0.11458 0.07813,-0.28646 0,-0.1927 -0.104167,-0.30989 -0.101562,-0.11979 -0.289062,-0.15104 -0.09375,-0.013 -0.5625,-0.013 h -0.601562 z"
         id="path6361"
         style="fill:#252525;fill-opacity:1" />
    </g>
    <g
       aria-label="RNG"
       id="text9323-7-5-2"
       style="font-weight:bold;font-size:5.33333px;line-height:1.25;font-family:Arial;-inkscape-font-specification:'Arial, Bold';font-variant-ligatures:none;text-align:center;text-anchor:middle;display:inline;fill:#252525;fill-opacity:1"
       transform="translate(0,-8)">
      <path
         d="m 26.419569,154.57335 v -3.81771 h 1.622394 q 0.611979,0 0.888021,0.10417 0.278645,0.10156 0.445312,0.36458 0.166666,0.26302 0.166666,0.60156 0,0.42969 -0.252604,0.71094 -0.252604,0.27865 -0.755207,0.35156 0.249999,0.14584 0.411458,0.32032 0.164062,0.17448 0.440104,0.61979 l 0.466145,0.74479 h -0.921874 l -0.557292,-0.83073 q -0.296874,-0.44531 -0.406249,-0.5599 -0.109375,-0.11718 -0.231771,-0.15885 -0.122396,-0.0443 -0.388021,-0.0443 h -0.15625 v 1.59375 z m 0.770832,-2.20312 h 0.570313 q 0.554687,0 0.692707,-0.0469 0.138021,-0.0469 0.216146,-0.16146 0.07813,-0.11458 0.07813,-0.28646 0,-0.1927 -0.104166,-0.30989 -0.101563,-0.11979 -0.289063,-0.15104 -0.09375,-0.013 -0.562499,-0.013 h -0.601563 z"
         id="path6364"
         style="fill:#252525;fill-opacity:1" />
      <path
         d="m 30.276337,154.57335 v -3.81771 h 0.749999 l 1.5625,2.54948 v -2.54948 h 0.716145 v 3.81771 h -0.773437 l -1.539062,-2.48958 v 2.48958 z"
         id="path6366"
         style="fill:#252525;fill-opacity:1" />
      <path
         d="m 35.896125,153.1697 v -0.64322 h 1.661458 v 1.52083 q -0.242188,0.23437 -0.703125,0.41406 -0.458333,0.17708 -0.929687,0.17708 -0.598958,0 -1.04427,-0.25 -0.445312,-0.2526 -0.669271,-0.71875 -0.223958,-0.46875 -0.223958,-1.01822 0,-0.59636 0.25,-1.0599 0.25,-0.46354 0.73177,-0.71094 0.367188,-0.1901 0.914062,-0.1901 0.710937,0 1.109375,0.29948 0.401041,0.29687 0.515624,0.82291 l -0.765624,0.14323 q -0.08073,-0.28125 -0.304687,-0.44271 -0.221355,-0.16406 -0.554688,-0.16406 -0.505208,0 -0.804687,0.32031 -0.296874,0.32032 -0.296874,0.95053 0,0.67968 0.302083,1.02083 0.302083,0.33854 0.791666,0.33854 0.242187,0 0.484375,-0.0937 0.244791,-0.0964 0.41927,-0.23177 v -0.48438 z"
         id="path6368"
         style="fill:#252525;fill-opacity:1" />
    </g>
  </g>
  <text
     xml:space="preserve"
     id="text29904"
     style="font-weight:bold;font-size:8px;line-height:1.25;font-family:Arial;-inkscape-font-specification:'Arial, Bold';font-variant-ligatures:none;text-align:center;white-space:pre;shape-inside:url(#rect29906)" />
  <g
     inkscape:groupmode="layer"
     id="layer2"
     inkscape:label="Inverse Solid"
     style="display:inline">
    <g
       aria-label="OUT"
       id="text9323-1-7"
       style="font-weight:bold;font-size:8px;line-height:1.25;font-family:Arial;-inkscape-font-specification:'Arial, Bold';font-variant-ligatures:none;text-align:center;text-anchor:middle;display:inline;fill:#ede7dc">
      <path
         d="m 14.3125,323.07385 q 0,-0.875 0.261719,-1.46875 0.195312,-0.4375 0.53125,-0.78515 0.339844,-0.34766 0.742187,-0.51563 0.535156,-0.22656 1.234375,-0.22656 1.265625,0 2.023438,0.78516 0.761718,0.78515 0.761718,2.18359 0,1.38672 -0.753906,2.17187 -0.753906,0.78125 -2.015625,0.78125 -1.277343,0 -2.03125,-0.77734 -0.753906,-0.78125 -0.753906,-2.14844 z m 1.191406,-0.0391 q 0,0.97266 0.449219,1.47656 0.449219,0.5 1.140625,0.5 0.691406,0 1.132812,-0.49609 0.445313,-0.5 0.445313,-1.49609 0,-0.98438 -0.433594,-1.46875 -0.429687,-0.48438 -1.144531,-0.48438 -0.714844,0 -1.152344,0.49219 -0.4375,0.48828 -0.4375,1.47656 z"
         id="path6389" />
      <path
         d="m 20.761719,320.17542 h 1.15625 v 3.10156 q 0,0.73828 0.04297,0.95703 0.07422,0.35156 0.351563,0.56641 0.28125,0.21093 0.765625,0.21093 0.492187,0 0.742187,-0.19922 0.25,-0.20312 0.300782,-0.49609 0.05078,-0.29297 0.05078,-0.97266 v -3.16796 h 1.15625 v 3.00781 q 0,1.03125 -0.09375,1.45703 -0.09375,0.42578 -0.347656,0.71875 -0.25,0.29297 -0.671875,0.46875 -0.421875,0.17187 -1.101563,0.17187 -0.820312,0 -1.246094,-0.1875 -0.421875,-0.1914 -0.667968,-0.49218 -0.246094,-0.30469 -0.324219,-0.63672 -0.113281,-0.49219 -0.113281,-1.45313 z"
         id="path6391" />
      <path
         d="m 27.835937,325.90198 v -4.75781 h -1.699218 v -0.96875 H 30.6875 v 0.96875 h -1.695313 v 4.75781 z"
         id="path6393" />
    </g>
  </g>
  <g
     inkscape:groupmode="layer"
     id="layer1"
     inkscape:label="Widgets"
     style="display:inline">
    <circle
       style="fill:#ff0000;stroke:#ff0000;stroke-width:1.94925;stroke-opacity:1"
       id="path1065"
       cx="22.5"
       cy="287.71237"
       r="10.525375" />
    <circle
       style="fill:#ff0000;stroke:#ff0000;stroke-width:1.94925;stroke-opacity:1"
       id="path1065-7"
       cx="22.5"
       cy="124.97427"
       r="10.525375" />
    <circle
       style="fill:#ff0000;stroke:#ff0000;stroke-width:1.94925;stroke-opacity:1"
       id="path1065-7-2"
       cx="22.5"
       cy="217.07857"
       r="10.525375" />
    <circle
       style="fill:#ff0000;stroke:#ff0000;stroke-width:2.373;stroke-opacity:1"
       id="path1065-77-3"
       cx="22.5"
       cy="184.02644"
       r="12.8135" />
    <circle
       style="fill:#ff0000;stroke:#ff0000;stroke-width:2.37289;stroke-opacity:1"
       id="path1065-7-1-6"
       cx="22.5"
       cy="91.940826"
       r="12.812923" />
    <circle
       style="display:inline;fill:#ff0000;stroke:#ff0000;stroke-width:0.64063;stroke-opacity:1"
       id="path1065-7-2-3-2-8"
       cx="31.988577"
       cy="153.10509"
       r="5.1796851" />
    <circle
       style="display:inline;fill:#ff0000;stroke:#ff0000;stroke-width:0.64063;stroke-opacity:1"
       id="path1065-7-2-3-2-8-1"
       cx="22.5"
       cy="308"
       r="5.1796851" />
    <circle
       style="display:inline;fill:#ff0000;stroke:#ff0000;stroke-width:0.64063;stroke-opacity:1"
       id="path1065-7-2-3-2-8-4"
       cx="13.011426"
       cy="153.10509"
       r="5.1796851" />
    <circle
       style="fill:#ff0000;stroke:#ff0000;stroke-width:1.94925;stroke-opacity:1"
       id="path1065-72"
       cx="22.5"
       cy="340.43411"
       r="10.525375" />
    <g
       id="g3910"
       transform="translate(1.7124391,-12.40901)">
      <g
         id="g3888"
         transform="translate(0,2.3782253e-5)">
        <circle
           style="display:inline;fill:#ff0000;stroke:#ff0000;stroke-width:0.320315;stroke-opacity:1"
           id="path1065-7-2-3-2"
           cx="9.4486418"
           cy="274.00122"
           r="1.7296063" />
        <circle
           style="display:inline;fill:#ff0000;stroke:#ff0000;stroke-width:0.320315;stroke-opacity:1"
           id="path1065-7-2-3-2-3"
           cx="17.007919"
           cy="274.00122"
           r="1.7296063" />
        <circle
           style="display:inline;fill:#ff0000;stroke:#ff0000;stroke-width:0.320315;stroke-opacity:1"
           id="path1065-7-2-3-2-7"
           cx="24.5672"
           cy="274.00122"
           r="1.7296063" />
        <circle
           style="display:inline;fill:#ff0000;stroke:#ff0000;stroke-width:0.320315;stroke-opacity:1"
           id="path1065-7-2-3-2-6"
           cx="32.12648"
           cy="274.00122"
           r="1.7296063" />
      </g>
      <g
         id="g3882"
         transform="translate(0,0.00881284)">
        <circle
           style="display:inline;fill:#ff0000;stroke:#ff0000;stroke-width:0.320315;stroke-opacity:1"
           id="path1065-7-2-3-2-1"
           cx="9.4486418"
           cy="266.43649"
           r="1.7296063" />
        <circle
           style="display:inline;fill:#ff0000;stroke:#ff0000;stroke-width:0.320315;stroke-opacity:1"
           id="path1065-7-2-3-2-3-6"
           cx="17.007919"
           cy="266.43649"
           r="1.7296063" />
        <circle
           style="display:inline;fill:#ff0000;stroke:#ff0000;stroke-width:0.320315;stroke-opacity:1"
           id="path1065-7-2-3-2-7-7"
           cx="24.5672"
           cy="266.43649"
           r="1.7296063" />
        <circle
           style="display:inline;fill:#ff0000;stroke:#ff0000;stroke-width:0.320315;stroke-opacity:1"
           id="path1065-7-2-3-2-6-2"
           cx="32.12648"
           cy="266.43649"
           r="1.7296063" />
      </g>
      <g
         id="g3876"
         transform="translate(0,-0.03855044)">
        <circle
           style="display:inline;fill:#ff0000;stroke:#ff0000;stroke-width:0.320315;stroke-opacity:1"
           id="path1065-7-2-3-2-78"
           cx="9.4486418"
           cy="258.92792"
           r="1.7296063" />
        <circle
           style="display:inline;fill:#ff0000;stroke:#ff0000;stroke-width:0.320315;stroke-opacity:1"
           id="path1065-7-2-3-2-3-0"
           cx="17.007919"
           cy="258.92792"
           r="1.7296063" />
        <circle
           style="display:inline;fill:#ff0000;stroke:#ff0000;stroke-width:0.320315;stroke-opacity:1"
           id="path1065-7-2-3-2-7-4"
           cx="24.5672"
           cy="258.92792"
           r="1.7296063" />
        <circle
           style="display:inline;fill:#ff0000;stroke:#ff0000;stroke-width:0.320315;stroke-opacity:1"
           id="path1065-7-2-3-2-6-8"
           cx="32.12648"
           cy="258.92792"
           r="1.7296063" />
      </g>
      <g
         id="g3870"
         transform="translate(0,-0.06629126)">
        <circle
           style="display:inline;fill:#ff0000;stroke:#ff0000;stroke-width:0.320315;stroke-opacity:1"
           id="path1065-7-2-3-2-79"
           cx="9.4486418"
           cy="251.39975"
           r="1.7296063" />
        <circle
           style="display:inline;fill:#ff0000;stroke:#ff0000;stroke-width:0.320315;stroke-opacity:1"
           id="path1065-7-2-3-2-3-7"
           cx="17.007919"
           cy="251.39975"
           r="1.7296063" />
        <circle
           style="display:inline;fill:#ff0000;stroke:#ff0000;stroke-width:0.320315;stroke-opacity:1"
           id="path1065-7-2-3-2-7-9"
           cx="24.5672"
           cy="251.39975"
           r="1.7296063" />
        <circle
           style="display:inline;fill:#ff0000;stroke:#ff0000;stroke-width:0.320315;stroke-opacity:1"
           id="path1065-7-2-3-2-6-26"
           cx="32.12648"
           cy="251.39975"
           r="1.7296063" />
      </g>
    </g>
    <rect
       style="display:inline;opacity:0.98;fill:#ff0000;fill-opacity:1;stroke:none;stroke-width:0.240676"
       id="rect4114"
       width="24.367218"
       height="24.367001"
       x="10.316391"
       y="38.431343"
       rx="0"
       ry="0" />
    <text
       xml:space="preserve"
       style="font-style:normal;font-variant:normal;font-weight:bold;font-stretch:normal;font-size:6px;line-height:1.25;font-family:Arial;-inkscape-font-specification:'Arial, Bold';font-variant-ligatures:none;font-variant-caps:normal;font-variant-numeric:normal;font-variant-east-asian:normal;text-align:center;text-anchor:middle"
       x="9.2433729"
       y="310.14746"
       id="text7057"><tspan
         sodipodi:role="line"
         id="tspan7055"
         x="9.2433729"
         y="310.14746">GRP</tspan></text>
  </g>
</svg>
