<?xml version="1.0" encoding="UTF-8" standalone="no"?>
<svg
   width="75"
   height="380"
   viewBox="0 0 75 380"
   version="1.1"
   id="svg100"
   sodipodi:docname="VCAMix4_Ivory.svg"
   inkscape:version="1.1.1 (3bf5ae0d25, 2021-09-20)"
   xmlns:inkscape="http://www.inkscape.org/namespaces/inkscape"
   xmlns:sodipodi="http://sodipodi.sourceforge.net/DTD/sodipodi-0.dtd"
   xmlns="http://www.w3.org/2000/svg"
   xmlns:svg="http://www.w3.org/2000/svg"
   xmlns:rdf="http://www.w3.org/1999/02/22-rdf-syntax-ns#"
   xmlns:cc="http://creativecommons.org/ns#"
   xmlns:dc="http://purl.org/dc/elements/1.1/">
  <metadata
     id="metadata104">
    <rdf:RDF>
      <cc:Work
         rdf:about="">
        <dc:format>image/svg+xml</dc:format>
        <dc:type
           rdf:resource="http://purl.org/dc/dcmitype/StillImage" />
      </cc:Work>
    </rdf:RDF>
  </metadata>
  <sodipodi:namedview
     pagecolor="#ffffff"
     bordercolor="#666666"
     borderopacity="1"
     objecttolerance="1"
     gridtolerance="1"
     guidetolerance="1"
     inkscape:pageopacity="0"
     inkscape:pageshadow="2"
     inkscape:window-width="1920"
     inkscape:window-height="1057"
     id="namedview102"
     showgrid="true"
     inkscape:zoom="2.2342105"
     inkscape:cx="37.37338"
     inkscape:cy="190"
     inkscape:window-x="1592"
     inkscape:window-y="-8"
     inkscape:window-maximized="1"
     inkscape:current-layer="f45e0130-37b7-4f8b-95b3-6408baa23eb1"
     inkscape:pagecheckerboard="0"
     units="px"
     inkscape:showpageshadow="false">
    <inkscape:grid
       type="xygrid"
       id="grid1285" />
  </sodipodi:namedview>
  <defs
     id="defs7">
    <rect
       x="85"
       y="10"
       width="51.058132"
       height="25"
       id="rect29906" />
    <linearGradient
       id="a8e142bb-541b-4903-be63-d5d069028a5d"
       x1="22.5"
       x2="22.5"
       y2="380"
       gradientUnits="userSpaceOnUse">
      <stop
         offset="0"
         stop-color="#ebebeb"
         id="stop2" />
      <stop
         offset="1"
         stop-color="#e1e1e1"
         id="stop4" />
    </linearGradient>
  </defs>
  <g
     id="aea613ef-74be-49bf-be45-c0734aee674b"
     data-name="FND BG"
     style="fill:#ede7dc;fill-opacity:1"
     transform="scale(1.6666667,1)">
    <rect
       width="45"
       height="380"
       fill="url(#a8e142bb-541b-4903-be63-d5d069028a5d)"
       id="rect9"
       style="fill:#ede7dc;fill-opacity:1"
       x="0"
       y="0" />
  </g>
  <g
     id="f45e0130-37b7-4f8b-95b3-6408baa23eb1"
     data-name="components"
     style="display:inline"
     inkscape:groupmode="layer">
    <g
       aria-label="MIX"
       id="text9323"
       style="font-weight:bold;font-size:8px;line-height:1.25;font-family:Arial;-inkscape-font-specification:'Arial, Bold';font-variant-ligatures:none;text-align:center;text-anchor:middle;fill:#252525;fill-opacity:1"
       transform="translate(15.162741,3.3210526)">
      <path
         d="m 15.514994,151.97157 v -5.72656 h 1.730468 l 1.039063,3.90625 1.027344,-3.90625 h 1.734375 v 5.72656 h -1.074219 v -4.50781 l -1.136719,4.50781 h -1.113281 l -1.132813,-4.50781 v 4.50781 z"
         id="path79773"
         style="fill:#252525;fill-opacity:1" />
      <path
         d="m 22.159525,151.97157 v -5.72656 h 1.15625 v 5.72656 z"
         id="path79775"
         style="fill:#252525;fill-opacity:1" />
      <path
         d="m 23.835306,151.97157 1.957031,-2.98828 -1.773437,-2.73828 h 1.351562 l 1.148438,1.83984 1.125,-1.83984 h 1.339844 l -1.78125,2.78125 1.957031,2.94531 h -1.394531 l -1.269532,-1.98047 -1.273437,1.98047 z"
         id="path79777"
         style="fill:#252525;fill-opacity:1" />
    </g>
    <g
       id="g79506">
      <rect
         x="38.880062"
         y="186.0267"
         width="29.582067"
         height="170.35832"
         rx="2.9369619"
         fill="#1f1f1f"
         id="rect56"
         style="fill:#252525;fill-opacity:1;stroke-width:2.12313" />
      <path
         d="m 66.084231,54.464254 v -3.817706 h 0.760416 l 0.903646,2.703124 q 0.125,0.377604 0.182291,0.565103 0.0651,-0.208333 0.203125,-0.611978 l 0.914062,-2.656249 h 0.679687 v 3.817706 h -0.486979 v -3.19531 l -1.109374,3.19531 H 67.675376 L 66.57121,51.214256 v 3.249998 z"
         id="path97921"
         style="font-size:5.33333px;line-height:1.25;font-family:Arial;-inkscape-font-specification:'Arial, Normal';font-variant-ligatures:none;text-align:center;text-anchor:middle;fill:#252525" />
      <path
         d="m 69.088137,145.34344 0.505208,0.1276 q -0.158854,0.62239 -0.572916,0.95052 -0.411459,0.32552 -1.007812,0.32552 -0.617187,0 -1.005208,-0.25 -0.385417,-0.2526 -0.588541,-0.72917 -0.200521,-0.47656 -0.200521,-1.02343 0,-0.59636 0.226562,-1.03907 0.229167,-0.44531 0.648437,-0.67447 0.421875,-0.23177 0.927083,-0.23177 0.572916,0 0.963541,0.29166 0.390625,0.29167 0.544271,0.82031 l -0.497396,0.11719 q -0.132812,-0.41667 -0.385416,-0.60677 -0.252604,-0.1901 -0.635416,-0.1901 -0.440104,0 -0.736979,0.21093 -0.294271,0.21094 -0.414062,0.56771 -0.119792,0.35417 -0.119792,0.73177 0,0.48698 0.140625,0.85156 0.143229,0.36198 0.442708,0.54167 0.299479,0.17969 0.648437,0.17969 0.424479,0 0.71875,-0.24479 0.29427,-0.2448 0.398437,-0.72656 z"
         id="path97930-6"
         style="font-size:5.33333px;line-height:1.25;font-family:Arial;-inkscape-font-specification:'Arial, Normal';font-variant-ligatures:none;text-align:center;text-anchor:middle;display:inline;fill:#252525" />
      <path
         d="m 66.327722,115.77083 v -3.8177 h 1.315103 q 0.445313,0 0.679687,0.0547 0.328125,0.0755 0.559896,0.27343 0.302083,0.25521 0.45052,0.65365 0.151042,0.39583 0.151042,0.90625 0,0.4349 -0.101562,0.77083 -0.101563,0.33594 -0.260417,0.55729 -0.158854,0.21875 -0.348958,0.34636 -0.1875,0.125 -0.455729,0.1901 -0.265625,0.0651 -0.611979,0.0651 z m 0.505208,-0.45052 h 0.815104 q 0.377604,0 0.591145,-0.0703 0.216146,-0.0703 0.34375,-0.19791 0.179687,-0.17969 0.278646,-0.48177 0.101562,-0.30469 0.101562,-0.73698 0,-0.59896 -0.197917,-0.91927 -0.195312,-0.32292 -0.476562,-0.4323 -0.203125,-0.0781 -0.653645,-0.0781 H 66.83293 Z"
         id="path87000-2"
         style="font-size:5.33333px;line-height:1.25;font-family:Arial;-inkscape-font-specification:'Arial, Normal';font-variant-ligatures:none;text-align:center;text-anchor:middle;display:inline;fill:#252525" />
      <g
         aria-label="VCA MIX 4"
         id="text114603"
         style="font-weight:bold;font-size:12px;line-height:1.25;font-family:Arial;-inkscape-font-specification:'Arial, Bold';font-variant-ligatures:none;text-align:center;text-anchor:middle;fill:#252525">
        <path
           d="M 10.921875,15.354781 7.8515625,6.7649374 H 9.7324219 L 11.90625,13.122359 14.009766,6.7649374 h 1.839843 l -3.076171,8.5898436 z"
           id="path152665" />
        <path
           d="m 22.230469,12.196578 1.68164,0.533203 q -0.386718,1.40625 -1.289062,2.091797 -0.896485,0.679688 -2.279297,0.679688 -1.710938,0 -2.8125,-1.166016 -1.101563,-1.171875 -1.101563,-3.199219 0,-2.1445311 1.107422,-3.3281248 1.107422,-1.1894532 2.91211,-1.1894532 1.576172,0 2.560547,0.9316407 0.585937,0.5507812 0.878906,1.5820312 L 22.171875,9.5422812 Q 22.019531,8.8743124 21.533203,8.4875937 21.052734,8.1008749 20.361328,8.1008749 q -0.955078,0 -1.552734,0.6855469 -0.591797,0.6855469 -0.591797,2.2207032 0,1.628906 0.585937,2.320312 0.585938,0.691407 1.523438,0.691407 0.691406,0 1.189453,-0.439453 0.498047,-0.439454 0.714844,-1.382813 z"
           id="path152667" />
        <path
           d="m 33.146484,15.354781 h -1.886718 l -0.75,-1.951172 h -3.433594 l -0.708985,1.951172 h -1.839843 l 3.345703,-8.5898436 h 1.833984 z M 29.953125,11.956344 28.769531,8.7688437 27.609375,11.956344 Z"
           id="path152669" />
        <path
           d="M 36.931641,15.354781 V 6.7649374 h 2.595703 l 1.558593,5.8593746 1.541016,-5.8593746 h 2.601563 V 15.354781 H 43.617187 V 8.5930624 L 41.912109,15.354781 H 40.242187 L 38.542969,8.5930624 v 6.7617186 z"
           id="path152671" />
        <path
           d="M 46.898437,15.354781 V 6.7649374 h 1.734375 v 8.5898436 z"
           id="path152673" />
        <path
           d="M 49.412109,15.354781 52.347656,10.872359 49.6875,6.7649374 h 2.027344 L 53.4375,9.524703 55.125,6.7649374 h 2.009766 l -2.671875,4.1718746 2.935546,4.417969 h -2.091796 l -1.904297,-2.970703 -1.910157,2.970703 z"
           id="path152675" />
        <path
           d="m 64.488281,15.354781 v -1.728515 h -3.515625 v -1.441407 l 3.726563,-5.4550778 h 1.382812 V 12.179 h 1.066406 v 1.447266 h -1.066406 v 1.728515 z m 0,-3.175781 V 9.243453 L 62.513672,12.179 Z"
           id="path152677" />
      </g>
      <g
         id="g151718">
        <g
           aria-label="1"
           id="text9323-6"
           style="font-weight:bold;font-size:8px;line-height:1.25;font-family:Arial;-inkscape-font-specification:'Arial, Bold';font-variant-ligatures:none;text-align:center;text-anchor:middle;fill:#252525;fill-opacity:1"
           transform="translate(-4.1072622,18.003054)">
          <path
             d="m 11.419762,27.167337 h -1.097657 v -4.136718 q -0.6015621,0.5625 -1.4179683,0.832031 v -0.996094 q 0.4296875,-0.140625 0.9335937,-0.53125 0.5039066,-0.394531 0.6914066,-0.917969 h 0.890625 z"
             id="path79761"
             style="fill:#252525;fill-opacity:1" />
        </g>
        <g
           aria-label="2"
           id="text9323-6-3"
           style="font-weight:bold;font-size:8px;line-height:1.25;font-family:Arial;-inkscape-font-specification:'Arial, Bold';font-variant-ligatures:none;text-align:center;text-anchor:middle;fill:#252525;fill-opacity:1"
           transform="translate(-4.1072628,16.503048)">
          <path
             d="m 12.085778,58.387432 v 1.019531 H 8.238122 q 0.0625,-0.578125 0.375,-1.09375 0.3125,-0.519531 1.234375,-1.375 0.742187,-0.691406 0.910156,-0.9375 0.226563,-0.339843 0.226563,-0.671875 0,-0.367187 -0.199219,-0.5625 -0.195313,-0.199218 -0.542969,-0.199218 -0.3437498,0 -0.5468748,0.207031 -0.203125,0.207031 -0.234375,0.6875 l -1.09375,-0.109375 q 0.097656,-0.90625 0.6132813,-1.300781 0.515625,-0.394532 1.2890625,-0.394532 0.847656,0 1.332031,0.457032 0.484375,0.457031 0.484375,1.136718 0,0.386719 -0.140625,0.738282 -0.136719,0.347656 -0.4375,0.730468 -0.199219,0.253907 -0.71875,0.730469 -0.519531,0.476563 -0.660156,0.632813 -0.1367188,0.15625 -0.2226563,0.304687 z"
             id="path79764"
             style="fill:#252525;fill-opacity:1" />
        </g>
        <g
           aria-label="3"
           id="text9323-6-3-4"
           style="font-weight:bold;font-size:8px;line-height:1.25;font-family:Arial;-inkscape-font-specification:'Arial, Bold';font-variant-ligatures:none;text-align:center;text-anchor:middle;fill:#252525;fill-opacity:1"
           transform="translate(-4.107262,15.003044)">
          <path
             d="m 8.2596054,90.078224 1.0625,-0.128906 q 0.050781,0.40625 0.2734375,0.621094 0.2226563,0.214843 0.5390621,0.214843 0.339844,0 0.570313,-0.257812 0.234375,-0.257813 0.234375,-0.695313 0,-0.414062 -0.222656,-0.65625 -0.222657,-0.242187 -0.542969,-0.242187 -0.2109376,0 -0.5039063,0.08203 l 0.1210937,-0.894531 q 0.4453126,0.01172 0.6796876,-0.191406 0.234375,-0.207032 0.234375,-0.546875 0,-0.289063 -0.171875,-0.460938 -0.171875,-0.171875 -0.457031,-0.171875 -0.2812503,0 -0.4804691,0.195313 -0.1992187,0.195312 -0.2421875,0.570312 L 8.3416367,87.343849 q 0.1054687,-0.519531 0.3164062,-0.828125 0.2148438,-0.3125 0.59375,-0.488281 0.3828125,-0.179688 0.8554691,-0.179688 0.808593,0 1.296875,0.515625 0.402343,0.421875 0.402343,0.953125 0,0.753907 -0.824218,1.203125 0.492187,0.105469 0.785156,0.472657 0.296875,0.367187 0.296875,0.886718 0,0.753907 -0.550781,1.285157 -0.550782,0.53125 -1.371094,0.53125 -0.7773438,0 -1.2890626,-0.445313 -0.5117187,-0.449219 -0.59375,-1.171875 z"
             id="path79767"
             style="fill:#252525;fill-opacity:1" />
        </g>
        <g
           aria-label="4"
           id="text9323-6-3-4-7"
           style="font-weight:bold;font-size:8px;line-height:1.25;font-family:Arial;-inkscape-font-specification:'Arial, Bold';font-variant-ligatures:none;text-align:center;text-anchor:middle;fill:#252525;fill-opacity:1"
           transform="translate(-4.107263,13.503052)">
          <path
             d="m 10.447106,123.8862 v -1.15234 H 8.1033564 v -0.96094 l 2.4843746,-3.63672 h 0.921875 v 3.63281 h 0.710938 v 0.96485 h -0.710938 v 1.15234 z m 0,-2.11719 v -1.95703 l -1.3164059,1.95703 z"
             id="path79770"
             style="fill:#252525;fill-opacity:1" />
        </g>
      </g>
      <g
         id="g151728">
        <g
           aria-label="1"
           id="text9323-6-6"
           style="font-weight:bold;font-size:8px;line-height:1.25;font-family:Arial;-inkscape-font-specification:'Arial, Bold';font-variant-ligatures:none;text-align:center;text-anchor:middle;fill:#252525;fill-opacity:1"
           transform="translate(-4.1072622,17.410017)">
          <path
             d="m 11.419762,194.86545 h -1.097657 v -4.13672 q -0.6015621,0.5625 -1.4179683,0.83203 v -0.99609 q 0.4296875,-0.14063 0.9335937,-0.53125 0.5039066,-0.39453 0.6914066,-0.91797 h 0.890625 z"
             id="path79780"
             style="fill:#252525;fill-opacity:1" />
        </g>
        <g
           aria-label="2"
           id="text9323-6-3-6"
           style="font-weight:bold;font-size:8px;line-height:1.25;font-family:Arial;-inkscape-font-specification:'Arial, Bold';font-variant-ligatures:none;text-align:center;text-anchor:middle;fill:#252525;fill-opacity:1"
           transform="translate(-4.1072628,16.089464)">
          <path
             d="m 12.085778,227.08554 v 1.01953 H 8.238122 q 0.0625,-0.57812 0.375,-1.09375 0.3125,-0.51953 1.234375,-1.375 0.742187,-0.6914 0.910156,-0.9375 0.226563,-0.33984 0.226563,-0.67187 0,-0.36719 -0.199219,-0.5625 -0.195313,-0.19922 -0.542969,-0.19922 -0.3437498,0 -0.5468748,0.20703 -0.203125,0.20703 -0.234375,0.6875 l -1.09375,-0.10938 q 0.097656,-0.90625 0.6132813,-1.30078 0.515625,-0.39453 1.2890625,-0.39453 0.847656,0 1.332031,0.45703 0.484375,0.45703 0.484375,1.13672 0,0.38672 -0.140625,0.73828 -0.136719,0.34766 -0.4375,0.73047 -0.199219,0.25391 -0.71875,0.73047 -0.519531,0.47656 -0.660156,0.63281 -0.1367188,0.15625 -0.2226563,0.30469 z"
             id="path79783"
             style="fill:#252525;fill-opacity:1" />
        </g>
        <g
           aria-label="3"
           id="text9323-6-3-4-2"
           style="font-weight:bold;font-size:8px;line-height:1.25;font-family:Arial;-inkscape-font-specification:'Arial, Bold';font-variant-ligatures:none;text-align:center;text-anchor:middle;fill:#252525;fill-opacity:1"
           transform="translate(-4.107262,14.768952)">
          <path
             d="m 8.2596054,259.77634 1.0625,-0.12891 q 0.050781,0.40625 0.2734375,0.62109 0.2226563,0.21485 0.5390621,0.21485 0.339844,0 0.570313,-0.25781 0.234375,-0.25782 0.234375,-0.69532 0,-0.41406 -0.222656,-0.65625 -0.222657,-0.24218 -0.542969,-0.24218 -0.2109376,0 -0.5039063,0.082 l 0.1210937,-0.89453 q 0.4453126,0.0117 0.6796876,-0.19141 0.234375,-0.20703 0.234375,-0.54688 0,-0.28906 -0.171875,-0.46093 -0.171875,-0.17188 -0.457031,-0.17188 -0.2812503,0 -0.4804691,0.19531 -0.1992187,0.19532 -0.2421875,0.57032 l -1.0117187,-0.17188 q 0.1054687,-0.51953 0.3164062,-0.82812 0.2148438,-0.3125 0.59375,-0.48828 0.3828125,-0.17969 0.8554691,-0.17969 0.808593,0 1.296875,0.51562 0.402343,0.42188 0.402343,0.95313 0,0.7539 -0.824218,1.20312 0.492187,0.10547 0.785156,0.47266 0.296875,0.36719 0.296875,0.88672 0,0.7539 -0.550781,1.28515 -0.550782,0.53125 -1.371094,0.53125 -0.7773438,0 -1.2890626,-0.44531 -0.5117187,-0.44922 -0.59375,-1.17187 z"
             id="path79786"
             style="fill:#252525;fill-opacity:1" />
        </g>
        <g
           aria-label="4"
           id="text9323-6-3-4-7-9"
           style="font-weight:bold;font-size:8px;line-height:1.25;font-family:Arial;-inkscape-font-specification:'Arial, Bold';font-variant-ligatures:none;text-align:center;text-anchor:middle;fill:#252525;fill-opacity:1"
           transform="translate(-4.107263,13.448364)">
          <path
             d="m 10.447106,294.58432 v -1.15234 H 8.1033564 v -0.96094 l 2.4843746,-3.63672 h 0.921875 v 3.63281 h 0.710938 v 0.96485 h -0.710938 v 1.15234 z m 0,-2.11719 v -1.95703 l -1.3164059,1.95703 z"
             id="path79789"
             style="fill:#252525;fill-opacity:1" />
        </g>
      </g>
      <g
         aria-label="LEVEL"
         id="text125273"
         style="font-weight:bold;font-size:8px;line-height:1.25;font-family:Arial;-inkscape-font-specification:'Arial, Bold';font-variant-ligatures:none;text-align:center;text-anchor:middle;fill:#252525">
        <path
           d="m 41.208206,28.346582 v -5.679687 h 1.15625 v 4.714844 h 2.875 v 0.964843 z"
           id="path152685" />
        <path
           d="M 46.063675,28.346582 V 22.62002 h 4.246094 v 0.96875 h -3.089844 v 1.269531 h 2.875 v 0.964844 h -2.875 v 1.558594 h 3.199219 v 0.964843 z"
           id="path152687" />
        <path
           d="M 52.86055,28.346582 50.813675,22.62002 h 1.253906 l 1.449219,4.238281 1.402344,-4.238281 h 1.226562 l -2.050781,5.726562 z"
           id="path152689" />
        <path
           d="M 56.73555,28.346582 V 22.62002 h 4.246094 v 0.96875 H 57.8918 v 1.269531 h 2.875 v 0.964844 h -2.875 v 1.558594 h 3.199219 v 0.964843 z"
           id="path152691" />
        <path
           d="m 62.102737,28.346582 v -5.679687 h 1.15625 v 4.714844 h 2.875 v 0.964843 z"
           id="path152693" />
      </g>
      <g
         aria-label="CV"
         id="text125273-9"
         style="font-weight:bold;font-size:8px;line-height:1.25;font-family:Arial;-inkscape-font-specification:'Arial, Bold';font-variant-ligatures:none;text-align:center;text-anchor:middle;fill:#252525">
        <path
           d="m 19.832811,26.143457 1.121094,0.355469 q -0.257812,0.9375 -0.859375,1.394531 -0.597656,0.453125 -1.519531,0.453125 -1.140625,0 -1.875,-0.777343 -0.734375,-0.78125 -0.734375,-2.132813 0,-1.429687 0.738281,-2.21875 0.738281,-0.792969 1.941406,-0.792969 1.050782,0 1.707032,0.621094 0.390625,0.367188 0.585937,1.054688 l -1.144531,0.273437 q -0.101563,-0.445312 -0.425781,-0.703125 -0.320313,-0.257812 -0.78125,-0.257812 -0.636719,0 -1.035157,0.457031 -0.394531,0.457031 -0.394531,1.480469 0,1.085937 0.390625,1.546875 0.390625,0.460937 1.015625,0.460937 0.460938,0 0.792969,-0.292969 0.332031,-0.292968 0.476562,-0.921875 z"
           id="path152680" />
        <path
           d="m 23.40703,28.248926 -2.046875,-5.726562 h 1.253906 l 1.449219,4.238281 1.402344,-4.238281 h 1.226562 l -2.050781,5.726562 z"
           id="path152682" />
      </g>
      <g
         aria-label="IN"
         id="text125273-9-1-2"
         style="font-weight:bold;font-size:8px;line-height:1.25;font-family:Arial;-inkscape-font-specification:'Arial, Bold';font-variant-ligatures:none;text-align:center;text-anchor:middle;fill:#252525">
        <path
           d="m 17.922655,195.36337 v -5.72656 h 1.15625 v 5.72656 z"
           id="path152696" />
        <path
           d="m 20.192186,195.36337 v -5.72656 h 1.125 l 2.34375,3.82422 v -3.82422 h 1.074219 v 5.72656 H 23.574999 L 21.266405,191.629 v 3.73437 z"
           id="path152698" />
      </g>
      <g
         aria-label="CHAIN"
         id="text125273-9-1-2-6"
         style="font-weight:bold;font-size:8px;line-height:1.25;font-family:Arial;-inkscape-font-specification:'Arial, Bold';font-variant-ligatures:none;text-align:center;text-anchor:middle;fill:#252525">
        <path
           d="m 13.039843,324.26321 1.121093,0.35547 q -0.257812,0.9375 -0.859375,1.39453 -0.597656,0.45313 -1.519531,0.45313 -1.140625,0 -1.8749999,-0.77734 -0.734375,-0.78125 -0.734375,-2.13282 0,-1.42968 0.7382813,-2.21875 0.7382816,-0.79297 1.9414066,-0.79297 1.050781,0 1.707031,0.6211 0.390625,0.36719 0.585937,1.05469 l -1.144531,0.27343 q -0.101562,-0.44531 -0.425781,-0.70312 -0.320313,-0.25781 -0.78125,-0.25781 -0.636719,0 -1.035156,0.45703 -0.394532,0.45703 -0.394532,1.48047 0,1.08593 0.390625,1.54687 0.390625,0.46094 1.015625,0.46094 0.460938,0 0.792969,-0.29297 0.332031,-0.29297 0.476563,-0.92188 z"
           id="path152708" />
        <path
           d="m 15.15703,326.36868 v -5.72656 h 1.15625 v 2.25391 h 2.265625 v -2.25391 h 1.15625 v 5.72656 h -1.15625 v -2.5039 H 16.31328 v 2.5039 z"
           id="path152710" />
        <path
           d="m 26.09453,326.36868 h -1.257812 l -0.5,-1.30078 h -2.289063 l -0.472656,1.30078 h -1.226563 l 2.230469,-5.72656 h 1.222656 z m -2.128906,-2.26562 -0.789063,-2.125 -0.773437,2.125 z"
           id="path152712" />
        <path
           d="m 26.672655,326.36868 v -5.72656 h 1.15625 v 5.72656 z"
           id="path152714" />
        <path
           d="m 28.942186,326.36868 v -5.72656 h 1.125 l 2.34375,3.82422 v -3.82422 h 1.074219 v 5.72656 h -1.160156 l -2.308594,-3.73437 v 3.73437 z"
           id="path152716" />
      </g>
      <g
         aria-label="V"
         id="text153957-4"
         style="font-size:5.33333px;line-height:1.25;font-family:Arial;-inkscape-font-specification:'Arial, Normal';font-variant-ligatures:none;text-align:center;text-anchor:middle;display:inline;fill:#252525;fill-opacity:1"
         transform="translate(-64.122729,-76.03236)">
        <path
           d="m 131.76165,161.13074 -1.47917,-3.81771 h 0.54688 l 0.99218,2.77344 q 0.1198,0.33333 0.20052,0.625 0.0885,-0.3125 0.20573,-0.625 l 1.03125,-2.77344 h 0.51563 l -1.49479,3.81771 z"
           id="path156987-6"
           style="fill:#252525;fill-opacity:1" />
      </g>
      <g
         aria-label="X"
         id="text9325"
         style="font-size:5.33333px;line-height:1.25;font-family:Arial;-inkscape-font-specification:'Arial, Normal';font-variant-ligatures:none;text-align:center;text-anchor:middle;display:inline;fill:#252525"
         transform="translate(-60.632981,-218.59347)">
        <path
           d="m 66.155849,365.27545 1.476562,-1.98958 -1.302083,-1.82812 h 0.601562 l 0.692708,0.97916 q 0.216146,0.30469 0.307292,0.46875 0.127604,-0.20833 0.302083,-0.43489 l 0.768229,-1.01302 h 0.549479 l -1.341145,1.79947 1.445311,2.01823 h -0.624999 l -0.960937,-1.36198 q -0.08073,-0.11718 -0.166667,-0.2552 -0.127604,0.20833 -0.182292,0.28645 l -0.958332,1.33073 z"
           id="path13481" />
      </g>
    </g>
  </g>
  <g
     id="g42796"
     transform="matrix(0.30458296,0,0,0.30458296,14.437551,-12.68508)"
     style="fill:#ff0000">
    <g
       aria-label="enom"
       id="text4270-27"
       style="font-size:49.3889px;line-height:1.25;font-family:'NECK ROMANCER';-inkscape-font-specification:'NECK ROMANCER, Normal';font-variant-ligatures:none;text-align:center;text-anchor:middle;fill:#ff0000;stroke-width:2.64583">
      <path
         d="m 46.609141,1249.244 q 0,1.1576 0,3.4245 3.183269,0 9.453344,0 -1.639866,0.5787 -2.990343,1.2058 -1.350478,0.627 -2.363337,1.688 -1.350477,0 -4.051433,0 0,1.4952 0.434082,2.5563 0.385851,1.1093 1.832792,1.1093 2.266873,0 6.80062,0 0.482313,-0.1447 0.868164,-0.627 0.337619,-0.5305 0.627007,-1.7363 0,2.0257 0,6.1254 -3.520888,0 -10.562665,0 -1.543403,0 -2.652724,-2.2187 -1.109321,-2.1704 -1.109321,-6.3183 0,-1.9775 0,-5.836 -0.385851,-1.3504 -1.881023,-2.1221 -1.495171,-0.7235 -3.569119,-1.2058 6.607694,0 19.774852,0 0,2.9421 0,8.7781 -1.205783,-2.701 -2.218642,-3.6656 -1.012858,-0.9646 -2.700955,-1.1093 -0.916396,-0.097 -2.170411,-0.097 -1.205783,0.048 -2.845649,0.048 -0.241157,0 -0.675239,0 z"
         id="path42762"
         style="fill:#ff0000" />
      <path
         d="m 81.576869,1245.2891 q 0,5.8842 0,17.7009 0,3.0868 -0.144694,6.0771 -0.09646,3.0386 -0.337619,5.9325 -0.385851,-3.7138 -0.964627,-6.9936 -0.530545,-3.3279 -2.025717,-5.016 0,-2.9904 0,-8.9228 -0.241157,-1.3505 -0.72347,-2.2187 -0.482314,-0.8681 -1.06109,-1.3987 -1.109321,-1.0128 -2.411567,-1.1093 -1.350478,-0.097 -2.266874,-0.097 -0.482313,0 -1.44694,0 0,4.582 0,13.746 0,3.0868 -0.09646,6.0771 -0.144694,3.0386 -0.385851,5.9325 -0.38585,-3.7138 -0.916395,-6.9936 -0.578776,-3.3279 -2.025717,-5.016 0,-4.8232 0,-14.373 -0.385851,-1.3504 -1.881022,-2.1221 -1.495172,-0.7235 -3.56912,-1.2058 6.752389,0 20.257166,0 z"
         id="path42764"
         style="fill:#ff0000" />
      <path
         d="m 104.19737,1249.0511 q 0,3.3762 0,10.1768 0,1.5434 -1.92925,2.6528 -1.92926,1.1093 -6.077152,1.1093 -4.196128,0 -6.125382,-1.1093 -1.929254,-1.1094 -1.929254,-2.6528 0,-3.3762 0,-10.1768 0,-1.5434 1.929254,-2.6527 1.929254,-1.1093 6.125382,-1.1093 4.147892,0 6.077152,1.1093 1.92925,1.1093 1.92925,2.6527 z m -3.76204,7.91 q 0,-1.8811 0,-5.6431 0,-1.6881 -1.254019,-1.9775 -1.205783,-0.2894 -2.990343,-0.2894 -1.832792,0 -3.038575,0.2894 -1.254015,0.2894 -1.254015,1.9775 0,1.881 0,5.6431 0,1.6881 1.254015,1.9774 1.205783,0.2894 3.038575,0.2894 1.78456,0 2.990343,-0.2894 1.254019,-0.2893 1.254019,-1.9774 z"
         id="path42766"
         style="fill:#ff0000" />
      <path
         d="m 142.34837,1245.2891 q -2.02572,0.4823 -3.52089,1.2058 -1.5434,0.7717 -1.88102,2.1221 0,4.7749 0,14.373 -1.49517,1.6881 -2.02572,5.016 -0.57878,3.2798 -0.96463,6.9936 -0.24115,-2.8939 -0.33762,-5.9325 -0.14469,-2.9903 -0.14469,-6.0771 0,-4.582 0,-13.746 -0.48231,0 -1.39871,0 -0.53054,0 -1.15755,0 -0.62701,0 -1.30225,0.1447 -1.25401,0.2412 -2.41157,1.2058 -1.15755,0.9646 -1.63986,3.4727 0,2.9903 0,8.9228 -0.1447,0.627 -0.28939,1.1093 -0.0965,0.4823 -0.19292,0.8199 -0.53055,1.9775 -0.38586,1.3505 0.19293,-0.627 -0.28938,1.1576 -0.0965,0.3376 -0.24116,0.8681 -0.14469,0.5306 -0.33762,1.3023 -0.14469,-0.6753 -0.28939,-1.2058 -0.14469,-0.4823 -0.24115,-0.8199 -0.53055,-2.0258 -0.33762,-1.3023 0.19292,0.7717 -0.43409,-1.6881 -0.0482,-0.2894 -0.19292,-0.7235 -0.0965,-0.3858 -0.19293,-0.8681 0,-2.9904 0,-8.9228 -0.28939,-1.3505 -0.7717,-2.2187 -0.48231,-0.8681 -1.06109,-1.3987 -1.10932,-1.0128 -2.41157,-1.1093 -1.30224,-0.097 -2.26687,-0.097 -0.48231,0 -1.39871,0 0,4.582 0,13.746 0,3.0868 -0.14469,6.0771 -0.0965,3.0386 -0.33762,5.9325 -0.38585,-3.7138 -0.96463,-6.9936 -0.53054,-3.3279 -2.02572,-5.016 0,-4.8232 0,-14.373 -0.38585,-1.3504 -1.88102,-2.1221 -1.49517,-0.7235 -3.56912,-1.2058 3.95497,0 11.76845,0 1.15755,0.3858 3.47266,1.1575 0.7717,0.2894 1.59163,0.4341 0.81994,0.1447 1.6881,0.1447 0.86816,0 1.73633,-0.1447 0.81993,-0.1447 1.59163,-0.4341 1.15756,-0.3858 3.42443,-1.1575 3.95497,0 11.76845,0 z"
         id="path42768"
         style="fill:#ff0000" />
    </g>
    <g
       aria-label="V"
       transform="matrix(1.2363173,0,0,0.80885384,-497.88086,123.48586)"
       id="text4270-3-5-2"
       style="font-size:78.5061px;line-height:1.25;font-family:Nosferotica;-inkscape-font-specification:'Nosferotica, Normal';font-variant-ligatures:none;text-align:center;text-anchor:middle;fill:#ff0000;stroke-width:3.27108">
      <path
         d="m 431.64994,1360.6864 8.57428,-0.1022 c 0,0 -4.4079,1.0878 -5.59925,3.7285 -1.88083,4.1689 -3.64217,14.6628 -3.64217,14.6628 l -2.23339,11.5191 -1.83311,11.8311 -1.71824,21.3112 -1.69514,-21.3112 -1.92196,-11.5208 -2.5009,-11.8294 c 0,0 -1.52027,-10.287 -3.38278,-14.4832 -1.14458,-2.5787 -5.63367,-3.8059 -5.63367,-3.8059 h 8.4657 l 6.66875,29.1569 z"
         id="path30410"
         sodipodi:nodetypes="ccscccccccscccc"
         style="fill:#ff0000" />
    </g>
  </g>
  <text
     xml:space="preserve"
     id="text29904"
     style="font-weight:bold;font-size:8px;line-height:1.25;font-family:Arial;-inkscape-font-specification:'Arial, Bold';font-variant-ligatures:none;text-align:center;white-space:pre;shape-inside:url(#rect29906)"
     transform="translate(-2.6024628e-4)" />
  <g
     id="g1595">
    <path
       style="fill:none;stroke:#252525;stroke-width:1;stroke-linecap:butt;stroke-linejoin:miter;stroke-miterlimit:4;stroke-dasharray:none;stroke-opacity:1"
       d="m 21.604686,42.295391 h 27.062813 4.727817"
       id="path150236" />
    <path
       style="fill:none;stroke:#252525;stroke-width:1;stroke-linecap:butt;stroke-linejoin:miter;stroke-miterlimit:4;stroke-dasharray:none;stroke-opacity:1"
       d="m 21.604686,73.035011 h 27.062813 4.727817"
       id="path150236-5" />
    <path
       style="fill:none;stroke:#252525;stroke-width:1;stroke-linecap:butt;stroke-linejoin:miter;stroke-miterlimit:4;stroke-dasharray:none;stroke-opacity:1"
       d="m 21.604686,103.77463 h 27.062813 4.727817"
       id="path150236-51" />
    <path
       style="fill:none;stroke:#252525;stroke-width:1;stroke-linecap:butt;stroke-linejoin:miter;stroke-miterlimit:4;stroke-dasharray:none;stroke-opacity:1"
       d="m 21.604686,134.51425 h 27.062813 4.727817"
       id="path150236-6" />
    <path
       style="fill:none;stroke:#252525;stroke-width:1;stroke-linecap:butt;stroke-linejoin:miter;stroke-miterlimit:4;stroke-dasharray:none;stroke-opacity:1"
       d="m 21.604686,168.25388 h 27.062813 4.727817"
       id="path150236-50" />
  </g>
  <g
     inkscape:groupmode="layer"
     id="layer1"
     inkscape:label="Widgets"
     style="display:none">
    <circle
       style="fill:#ff0000;stroke:#ff0000;stroke-width:1.8645;stroke-opacity:1"
       id="path1065-77"
       cx="53.671097"
       cy="134.51425"
       r="10.06775" />
    <circle
       style="fill:#ff0000;stroke:#ff0000;stroke-width:2.373;stroke-opacity:1"
       id="path1065-77-3"
       cx="53.671097"
       cy="168.25388"
       r="12.8135" />
    <circle
       style="fill:#ff0000;stroke:#ff0000;stroke-width:1.8645;stroke-opacity:1"
       id="path1065-7-3"
       cx="53.671097"
       cy="103.77463"
       r="10.06775" />
    <circle
       style="fill:#ff0000;stroke:#ff0000;stroke-width:1.8645;stroke-opacity:1"
       id="path1065-7-1-6"
       cx="53.671097"
       cy="73.035011"
       r="10.06775" />
    <circle
       style="fill:#ff0000;stroke:#ff0000;stroke-width:1.8645;stroke-opacity:1"
       id="path1065-7-2-3"
       cx="53.671097"
       cy="42.295391"
       r="10.06775" />
    <circle
       style="fill:#ff0000;stroke:#ff0000;stroke-width:1.94925;stroke-opacity:1"
       id="path1065"
       cx="21.328905"
       cy="305.15768"
       r="10.525375" />
    <circle
       style="fill:#ff0000;stroke:#ff0000;stroke-width:1.94925;stroke-opacity:1"
       id="path1065-7"
       cx="21.328905"
       cy="273.23862"
       r="10.525375" />
    <circle
       style="fill:#ff0000;stroke:#ff0000;stroke-width:1.94925;stroke-opacity:1"
       id="path1065-7-1"
       cx="21.328905"
       cy="241.31953"
       r="10.525375" />
    <circle
       style="display:inline;fill:#ff0000;stroke:#ff0000;stroke-width:1.94925;stroke-opacity:1"
       id="path1065-2"
       cx="21.328905"
       cy="134.51425"
       r="10.525375" />
    <circle
       style="display:inline;fill:#ff0000;stroke:#ff0000;stroke-width:1.94925;stroke-opacity:1"
       id="path1065-2-8"
       cx="21.328905"
       cy="168.25388"
       r="10.525375" />
    <circle
       style="display:inline;fill:#ff0000;stroke:#ff0000;stroke-width:1.94925;stroke-opacity:1"
       id="path1065-7-20"
       cx="21.328905"
       cy="103.77463"
       r="10.525375" />
    <circle
       style="display:inline;fill:#ff0000;stroke:#ff0000;stroke-width:1.94925;stroke-opacity:1"
       id="path1065-7-1-9"
       cx="21.328905"
       cy="73.035011"
       r="10.525375" />
    <circle
       style="display:inline;fill:#ff0000;stroke:#ff0000;stroke-width:1.94925;stroke-opacity:1"
       id="path1065-7-2-0"
       cx="21.328905"
       cy="42.295391"
       r="10.525375" />
    <circle
       style="display:inline;fill:#ff0000;stroke:#ff0000;stroke-width:1.94925;stroke-opacity:1"
       id="path1065-9"
       cx="53.671097"
       cy="305.15768"
       r="10.525375" />
    <circle
       style="display:inline;fill:#ff0000;stroke:#ff0000;stroke-width:1.94925;stroke-opacity:1"
       id="path1065-7-38"
       cx="53.671097"
       cy="273.23862"
       r="10.525375" />
    <circle
       style="display:inline;fill:#ff0000;stroke:#ff0000;stroke-width:1.94925;stroke-opacity:1"
       id="path1065-7-1-1"
       cx="53.671097"
       cy="241.31953"
       r="10.525375" />
    <circle
       style="fill:#ff0000;stroke:#ff0000;stroke-width:1.94925;stroke-opacity:1"
       id="path1065-7-2"
       cx="21.328905"
       cy="209.40047"
       r="10.525375" />
    <circle
       style="display:inline;fill:#ff0000;stroke:#ff0000;stroke-width:1.94925;stroke-opacity:1"
       id="path1065-7-2-8"
       cx="53.671097"
       cy="209.40047"
       r="10.525375" />
    <circle
       style="display:inline;fill:#ff0000;stroke:#ff0000;stroke-width:0.64063;stroke-opacity:1"
       id="path1065-7-2-3-6"
       cx="67.905846"
       cy="59.665199"
       r="3.4592125" />
    <circle
       style="display:inline;fill:#ff0000;stroke:#ff0000;stroke-width:0.64063;stroke-opacity:1"
       id="path1065-7-2-3-6-2"
       cx="67.905846"
       cy="90.404816"
       r="3.4592125" />
    <circle
       style="display:inline;fill:#ff0000;stroke:#ff0000;stroke-width:0.64063;stroke-opacity:1"
       id="path1065-7-2-3-6-2-5"
       cx="67.905846"
       cy="121.14444"
       r="3.4592125" />
    <circle
       style="display:inline;fill:#ff0000;stroke:#ff0000;stroke-width:0.64063;stroke-opacity:1"
       id="path1065-7-2-3-6-2-5-1"
       cx="67.905846"
       cy="151.88406"
       r="3.4592125" />
    <circle
       style="fill:#ff0000;stroke:#ff0000;stroke-width:1.94925;stroke-opacity:1"
       id="path1065-72"
       cx="21.328905"
       cy="340.43411"
       r="10.525375" />
    <circle
       style="display:inline;fill:#ff0000;stroke:#ff0000;stroke-width:1.94925;stroke-opacity:1"
       id="path1065-72-2"
       cx="53.671097"
       cy="340.43411"
       r="10.525375" />
    <circle
       style="display:inline;fill:#ff0000;stroke:#ff0000;stroke-width:0.64063;stroke-opacity:1"
       id="path1065-7-2-3-6-2-5-1-4"
       cx="7.2728643"
       cy="151.88406"
       r="3.4592125" />
  </g>
  <g
     inkscape:groupmode="layer"
     id="layer2"
     inkscape:label="Text Labels"
     style="display:none" />
  <g
     id="g152800">
    <g
       aria-label="MIX"
       id="text9323-1"
       style="font-weight:bold;font-size:8px;line-height:1.25;font-family:Arial;-inkscape-font-specification:'Arial, Bold';font-variant-ligatures:none;text-align:center;text-anchor:middle;fill:#ede7dc;fill-opacity:1"
       transform="translate(31.333837,0.38680801)">
      <path
         d="m 15.514994,325.90234 v -5.72656 h 1.730468 l 1.039063,3.90625 1.027344,-3.90625 h 1.734375 v 5.72656 h -1.074219 v -4.50781 l -1.136719,4.50781 h -1.113281 l -1.132813,-4.50781 v 4.50781 z"
         id="path79792"
         style="fill:#ede7dc;fill-opacity:1" />
      <path
         d="m 22.159525,325.90234 v -5.72656 h 1.15625 v 5.72656 z"
         id="path79794"
         style="fill:#ede7dc;fill-opacity:1" />
      <path
         d="m 23.835306,325.90234 1.957031,-2.98828 -1.773437,-2.73828 h 1.351562 l 1.148438,1.83984 1.125,-1.83984 h 1.339844 l -1.78125,2.78125 1.957031,2.94531 h -1.394531 l -1.269532,-1.98047 -1.273437,1.98047 z"
         id="path79796"
         style="fill:#ede7dc;fill-opacity:1" />
    </g>
    <g
       aria-label="OUT"
       id="text125273-9-1"
       style="font-weight:bold;font-size:8px;line-height:1.25;font-family:Arial;-inkscape-font-specification:'Arial, Bold';font-variant-ligatures:none;text-align:center;text-anchor:middle;fill:#ede7dc">
      <path
         d="m 45.483597,192.43759 q 0,-0.875 0.261719,-1.46875 0.195312,-0.4375 0.53125,-0.78515 0.339843,-0.34766 0.742187,-0.51563 0.535156,-0.22656 1.234375,-0.22656 1.265625,0 2.023438,0.78515 0.761718,0.78516 0.761718,2.1836 0,1.38672 -0.753906,2.17187 -0.753906,0.78125 -2.015625,0.78125 -1.277344,0 -2.03125,-0.77734 -0.753906,-0.78125 -0.753906,-2.14844 z m 1.191406,-0.0391 q 0,0.97266 0.449219,1.47656 0.449219,0.5 1.140625,0.5 0.691406,0 1.132812,-0.49609 0.445313,-0.5 0.445313,-1.4961 0,-0.98437 -0.433594,-1.46875 -0.429687,-0.48437 -1.144531,-0.48437 -0.714844,0 -1.152344,0.49219 -0.4375,0.48828 -0.4375,1.47656 z"
         id="path152701" />
      <path
         d="m 51.932816,189.53915 h 1.15625 v 3.10157 q 0,0.73828 0.04297,0.95703 0.07422,0.35156 0.351563,0.5664 0.28125,0.21094 0.765625,0.21094 0.492187,0 0.742187,-0.19922 0.25,-0.20312 0.300782,-0.49609 0.05078,-0.29297 0.05078,-0.97266 v -3.16797 h 1.15625 v 3.00782 q 0,1.03125 -0.09375,1.45703 -0.09375,0.42578 -0.347656,0.71875 -0.25,0.29297 -0.671875,0.46875 -0.421875,0.17187 -1.101563,0.17187 -0.820312,0 -1.246094,-0.1875 -0.421875,-0.1914 -0.667968,-0.49218 -0.246094,-0.30469 -0.324219,-0.63672 -0.113281,-0.49219 -0.113281,-1.45313 z"
         id="path152703" />
      <path
         d="m 59.007034,195.26572 v -4.75782 h -1.699218 v -0.96875 h 4.550781 v 0.96875 h -1.695313 v 4.75782 z"
         id="path152705" />
    </g>
  </g>
</svg>
