<?xml version="1.0" encoding="UTF-8" standalone="no"?>
<svg
   width="120"
   height="380"
   version="1.1"
   id="svg131"
   sodipodi:docname="VCO_Bright.svg"
   inkscape:version="1.1.1 (3bf5ae0d25, 2021-09-20)"
   xmlns:inkscape="http://www.inkscape.org/namespaces/inkscape"
   xmlns:sodipodi="http://sodipodi.sourceforge.net/DTD/sodipodi-0.dtd"
   xmlns="http://www.w3.org/2000/svg"
   xmlns:svg="http://www.w3.org/2000/svg">
  <sodipodi:namedview
     id="namedview133"
     pagecolor="#ffffff"
     bordercolor="#666666"
     borderopacity="1.0"
     inkscape:pageshadow="2"
     inkscape:pageopacity="0.0"
     inkscape:pagecheckerboard="0"
     showgrid="true"
     inkscape:zoom="1.7157895"
     inkscape:cx="61.487729"
     inkscape:cy="231.67178"
     inkscape:window-width="1920"
     inkscape:window-height="1057"
     inkscape:window-x="1592"
     inkscape:window-y="-8"
     inkscape:window-maximized="1"
     inkscape:current-layer="svg131">
    <inkscape:grid
       type="xygrid"
       id="grid5695" />
    <sodipodi:guide
       position="0,380"
       orientation="0,120"
       id="guide48225" />
    <sodipodi:guide
       position="120,380"
       orientation="380,0"
       id="guide48227" />
    <sodipodi:guide
       position="120,0"
       orientation="0,-120"
       id="guide48229" />
    <sodipodi:guide
       position="0,0"
       orientation="-380,0"
       id="guide48231" />
  </sodipodi:namedview>
  <defs
     id="defs74">
    <clipPath
       id="_clipPath_sMzPIcrS2sD3lKhajQrdaiSEc399lqzM">
      <rect
         height="380"
         id="svg_1"
         width="120" />
    </clipPath>
  </defs>
  <rect
     fill="#ff0000"
     height="380"
     id="svg_3"
     stroke="#000000"
     stroke-width="5"
     width="120"
     x="0"
     y="0"
     style="fill:#ede7dc;stroke:none;stroke-opacity:1;fill-opacity:1">PITC</rect>
  <g
     id="g15129"
     style="fill:#252525;fill-opacity:1">
    <path
       d="m 12,306 h 96 c 3.31,0 6,2.69 6,6 v 32 c 0,3.31 -2.69,6 -6,6 H 12 c -3.31,0 -6,-2.69 -6,-6 v -32 c 0,-3.31 2.69,-6 6,-6 z"
       fill="#4d9a4d"
       id="svg_4"
       stroke-miterlimit="10"
       style="fill:#252525;fill-opacity:1" />
    <path
       d="m 45.87,263.97 h 28.25 c 1.59,0 2.87,2.69 2.87,6 v 47.35 c 0,3.32 -1.29,6 -2.87,6 H 45.87 c -1.59,0 -2.87,-2.68 -2.87,-6 v -47.35 c 0,-3.31 1.29,-6 2.87,-6 z"
       fill="#4d9a4d"
       id="svg_5"
       stroke-miterlimit="10"
       style="fill:#252525;fill-opacity:1" />
  </g>
  <g
     id="g15125"
     style="stroke:none;stroke-opacity:1;fill:#ede7dc;fill-opacity:1">
    <g
       aria-label="SIN"
       id="text27263"
       style="font-weight:bold;font-size:8px;line-height:1.25;font-family:Arial;-inkscape-font-specification:'Arial, Bold';fill:#ede7dc;stroke:none;stroke-opacity:1;fill-opacity:1">
      <path
         d="m 90.62648,313.44348 1.125,-0.10937 q 0.101563,0.5664 0.410156,0.83203 0.3125,0.26562 0.839844,0.26562 0.558594,0 0.839844,-0.23437 0.285156,-0.23828 0.285156,-0.55469 0,-0.20312 -0.121094,-0.34375 -0.117187,-0.14453 -0.414062,-0.25 -0.203125,-0.0703 -0.925781,-0.25 -0.929688,-0.23047 -1.304688,-0.56641 -0.527344,-0.47265 -0.527344,-1.15234 0,-0.4375 0.246094,-0.81641 0.25,-0.38281 0.714844,-0.58203 0.46875,-0.19922 1.128906,-0.19922 1.078125,0 1.621094,0.47266 0.546875,0.47266 0.574219,1.26172 l -1.15625,0.0508 q -0.07422,-0.44141 -0.320313,-0.63281 -0.242187,-0.19531 -0.730469,-0.19531 -0.503906,0 -0.789062,0.20703 -0.183594,0.13281 -0.183594,0.35547 0,0.20312 0.171875,0.34765 0.21875,0.1836 1.0625,0.38281 0.84375,0.19922 1.246094,0.41407 0.40625,0.21093 0.632812,0.58203 0.230469,0.36719 0.230469,0.91015 0,0.49219 -0.273437,0.92188 -0.273438,0.42969 -0.773438,0.64062 -0.5,0.20704 -1.246094,0.20704 -1.085937,0 -1.667968,-0.5 -0.582032,-0.50391 -0.695313,-1.46485 z"
         id="path32179"
         style="stroke:none;stroke-opacity:1;fill:#ede7dc;fill-opacity:1" />
      <path
         d="m 96.22023,315.30676 v -5.72656 h 1.15625 v 5.72656 z"
         id="path32181"
         style="stroke:none;stroke-opacity:1;fill:#ede7dc;fill-opacity:1" />
      <path
         d="m 98.489761,315.30676 v -5.72656 h 1.125 l 2.343749,3.82422 v -3.82422 h 1.07422 v 5.72656 h -1.16016 l -2.30859,-3.73437 v 3.73437 z"
         id="path32183"
         style="stroke:none;stroke-opacity:1;fill:#ede7dc;fill-opacity:1" />
    </g>
    <g
       aria-label="SQR"
       id="text20237"
       style="font-weight:bold;font-size:8px;line-height:1.25;font-family:Arial;-inkscape-font-specification:'Arial, Bold';fill:#ede7dc;stroke:none;stroke-opacity:1;fill-opacity:1">
      <path
         d="m 14.859613,313.44345 1.125,-0.10937 q 0.101563,0.5664 0.410157,0.83203 0.3125,0.26562 0.839843,0.26562 0.558594,0 0.839844,-0.23437 0.285156,-0.23828 0.285156,-0.55469 0,-0.20313 -0.121093,-0.34375 -0.117188,-0.14453 -0.414063,-0.25 -0.203125,-0.0703 -0.925781,-0.25 -0.929688,-0.23047 -1.304688,-0.56641 -0.527343,-0.47265 -0.527343,-1.15234 0,-0.4375 0.246093,-0.81641 0.25,-0.38281 0.714844,-0.58203 0.46875,-0.19922 1.128906,-0.19922 1.078125,0 1.621094,0.47266 0.546875,0.47266 0.574219,1.26172 l -1.15625,0.0508 q -0.07422,-0.44141 -0.320313,-0.63281 -0.242187,-0.19532 -0.730468,-0.19532 -0.503907,0 -0.789063,0.20704 -0.183594,0.13281 -0.183594,0.35546 0,0.20313 0.171875,0.34766 0.21875,0.18359 1.0625,0.38281 0.84375,0.19922 1.246094,0.41407 0.40625,0.21093 0.632813,0.58203 0.230468,0.36718 0.230468,0.91015 0,0.49219 -0.273437,0.92188 -0.273438,0.42969 -0.773438,0.64062 -0.5,0.20703 -1.246093,0.20703 -1.085938,0 -1.667969,-0.5 -0.582031,-0.5039 -0.695313,-1.46484 z"
         id="path32165"
         style="stroke:none;stroke-opacity:1;fill:#ede7dc;fill-opacity:1" />
      <path
         d="m 25.097895,314.58017 q 0.425781,0.30469 0.925781,0.48437 l -0.425781,0.81641 q -0.261719,-0.0781 -0.511719,-0.21484 -0.05469,-0.0274 -0.769531,-0.50782 -0.5625,0.2461 -1.246094,0.2461 -1.320313,0 -2.070313,-0.77735 -0.746093,-0.77734 -0.746093,-2.18359 0,-1.40234 0.75,-2.17969 0.75,-0.78125 2.035156,-0.78125 1.273437,0 2.019531,0.78125 0.746094,0.77735 0.746094,2.17969 0,0.74219 -0.207031,1.30469 -0.15625,0.42969 -0.5,0.83203 z m -0.929688,-0.65234 q 0.222656,-0.26172 0.332031,-0.63282 0.113282,-0.37109 0.113282,-0.85156 0,-0.99219 -0.4375,-1.48047 -0.4375,-0.49219 -1.144532,-0.49219 -0.707031,0 -1.148437,0.49219 -0.4375,0.49219 -0.4375,1.48047 0,1.00391 0.4375,1.50391 0.441406,0.49609 1.113281,0.49609 0.25,0 0.472656,-0.082 -0.351562,-0.23047 -0.714843,-0.35938 l 0.324218,-0.66015 q 0.570313,0.19531 1.089844,0.58594 z"
         id="path32167"
         style="stroke:none;stroke-opacity:1;fill:#ede7dc;fill-opacity:1" />
      <path
         d="m 26.715082,315.30673 v -5.72656 h 2.433594 q 0.917969,0 1.332031,0.15625 0.417969,0.15234 0.667969,0.54687 0.25,0.39454 0.25,0.90235 0,0.64453 -0.378906,1.0664 -0.378907,0.41797 -1.132813,0.52735 0.375,0.21875 0.617188,0.48047 0.246093,0.26172 0.660156,0.92968 l 0.699219,1.11719 h -1.382813 l -0.835937,-1.24609 q -0.445313,-0.66797 -0.609375,-0.83985 -0.164063,-0.17578 -0.347657,-0.23828 -0.183593,-0.0664 -0.582031,-0.0664 h -0.234375 v 2.39062 z m 1.15625,-3.30469 h 0.855469 q 0.832031,0 1.039062,-0.0703 0.207032,-0.0703 0.324219,-0.24219 0.117188,-0.17187 0.117188,-0.42968 0,-0.28907 -0.15625,-0.46485 -0.152344,-0.17968 -0.433594,-0.22656 -0.140625,-0.0195 -0.84375,-0.0195 h -0.902344 z"
         id="path32169"
         style="stroke:none;stroke-opacity:1;fill:#ede7dc;fill-opacity:1" />
    </g>
    <g
       aria-label="TRI"
       id="text25081"
       style="font-weight:bold;font-size:8px;line-height:1.25;font-family:Arial;-inkscape-font-specification:'Arial, Bold';fill:#ede7dc;stroke:none;stroke-opacity:1;fill-opacity:1">
      <path
         d="m 54.907913,314.72391 v -4.75782 h -1.699219 v -0.96875 h 4.550782 v 0.96875 h -1.695313 v 4.75782 z"
         id="path32172"
         style="stroke:none;stroke-opacity:1;fill:#ede7dc;fill-opacity:1" />
      <path
         d="m 58.509476,314.72391 v -5.72657 h 2.433593 q 0.917969,0 1.332032,0.15625 0.417968,0.15235 0.667968,0.54688 0.25,0.39453 0.25,0.90234 0,0.64453 -0.378906,1.06641 -0.378906,0.41797 -1.132812,0.52734 0.375,0.21875 0.617187,0.48047 0.246094,0.26172 0.660156,0.92969 l 0.699219,1.11719 h -1.382812 l -0.835938,-1.2461 q -0.445312,-0.66797 -0.609375,-0.83984 -0.164062,-0.17578 -0.347656,-0.23828 -0.183594,-0.0664 -0.582031,-0.0664 h -0.234375 v 2.39063 z m 1.15625,-3.30469 h 0.855468 q 0.832032,0 1.039063,-0.0703 0.207031,-0.0703 0.324219,-0.24219 0.117187,-0.17188 0.117187,-0.42969 0,-0.28906 -0.15625,-0.46484 -0.152344,-0.17969 -0.433594,-0.22656 -0.140625,-0.0195 -0.84375,-0.0195 h -0.902343 z"
         id="path32174"
         style="stroke:none;stroke-opacity:1;fill:#ede7dc;fill-opacity:1" />
      <path
         d="m 64.247757,314.72391 v -5.72657 h 1.15625 v 5.72657 z"
         id="path32176"
         style="stroke:none;stroke-opacity:1;fill:#ede7dc;fill-opacity:1" />
    </g>
    <g
       aria-label="SAW"
       id="text10435"
       style="font-weight:bold;font-size:8px;line-height:1.25;font-family:Arial;-inkscape-font-specification:'Arial, Bold';fill:#ede7dc;stroke:none;stroke-opacity:1;fill-opacity:1">
      <path
         d="m 50.411758,271.48029 1.125,-0.10938 q 0.101563,0.56641 0.410157,0.83203 0.3125,0.26563 0.839843,0.26563 0.558594,0 0.839844,-0.23438 0.285156,-0.23828 0.285156,-0.55469 0,-0.20312 -0.121093,-0.34375 -0.117188,-0.14453 -0.414063,-0.25 -0.203125,-0.0703 -0.925781,-0.25 -0.929688,-0.23046 -1.304688,-0.5664 -0.527343,-0.47266 -0.527343,-1.15235 0,-0.4375 0.246093,-0.8164 0.25,-0.38281 0.714844,-0.58203 0.46875,-0.19922 1.128906,-0.19922 1.078125,0 1.621094,0.47265 0.546875,0.47266 0.574219,1.26172 l -1.15625,0.0508 q -0.07422,-0.4414 -0.320313,-0.63281 -0.242187,-0.19531 -0.730468,-0.19531 -0.503907,0 -0.789063,0.20703 -0.183594,0.13281 -0.183594,0.35547 0,0.20312 0.171875,0.34766 0.21875,0.18359 1.0625,0.38281 0.84375,0.19922 1.246094,0.41406 0.40625,0.21094 0.632813,0.58203 0.230468,0.36719 0.230468,0.91016 0,0.49219 -0.273437,0.92187 -0.273438,0.42969 -0.773438,0.64063 -0.5,0.20703 -1.246093,0.20703 -1.085938,0 -1.667969,-0.5 -0.582031,-0.50391 -0.695313,-1.46484 z"
         id="path32158"
         style="stroke:none;stroke-opacity:1;fill:#ede7dc;fill-opacity:1" />
      <path
         d="m 61.204727,273.34357 h -1.257812 l -0.5,-1.30078 h -2.289063 l -0.472656,1.30078 h -1.226563 l 2.230469,-5.72657 h 1.222656 z m -2.128906,-2.26563 -0.789063,-2.125 -0.773437,2.125 z"
         id="path32160"
         style="stroke:none;stroke-opacity:1;fill:#ede7dc;fill-opacity:1" />
      <path
         d="M 62.189102,273.34357 60.821915,267.617 h 1.183593 l 0.863282,3.9336 1.046875,-3.9336 h 1.375 l 1.003906,4 0.878906,-4 h 1.164063 l -1.390625,5.72657 h -1.226563 l -1.140625,-4.28125 -1.136719,4.28125 z"
         id="path32162"
         style="stroke:none;stroke-opacity:1;fill:#ede7dc;fill-opacity:1" />
    </g>
  </g>
  <g
     id="g15107"
     style="stroke:#252525;stroke-opacity:1">
    <path
       d="M 22.98,222.7 23,216.9 c 0,-0.55 0.32,-1.32 0.7,-1.71 l 7.6,-7.68 c 0.38,-0.39 0.7,-1.16 0.7,-1.71 V 200"
       fill="none"
       id="svg_21"
       stroke="#202020"
       stroke-dasharray="none"
       stroke-linecap="square"
       stroke-miterlimit="3"
       stroke-width="0.8"
       style="stroke:#252525;stroke-opacity:1" />
    <path
       d="m 96.88,222.7 0.02,-5.8 c 0,-0.55 -0.32,-1.32 -0.7,-1.71 l -7.59,-7.68 c -0.39,-0.39 -0.7,-1.16 -0.71,-1.71 L 87.85,200"
       fill="none"
       id="svg_22"
       stroke="#202020"
       stroke-dasharray="none"
       stroke-linecap="square"
       stroke-miterlimit="3"
       stroke-width="0.8"
       style="stroke:#252525;stroke-opacity:1" />
  </g>
  <text
     fill="#000000"
     font-family="Helvetica"
     font-size="8px"
     font-weight="bold"
     id="svg_58"
     stroke="#000000"
     stroke-width="0"
     text-anchor="middle"
     x="1032.76"
     xml:space="preserve"
     y="216.64">PWM</text>
  <g
     id="g15103"
     style="fill:#252525;fill-opacity:1">
    <path
       d="m 52.55,226.19 h 1.12 l -2.12,4.9 h -1.12 l -2.11,-4.9 h 1.22 l 1.49,3.5 z m 0.82,5.6 2.31,-6.59 h 0.97 l -2.31,6.59 z m 5.93,-0.61 v 0 q -0.76,0 -1.38,-0.33 v 0 0 q -0.61,-0.33 -0.95,-0.91 v 0 0 q -0.35,-0.57 -0.35,-1.3 v 0 0 q 0,-0.72 0.35,-1.29 v 0 0 q 0.34,-0.58 0.95,-0.91 v 0 0 q 0.62,-0.33 1.38,-0.33 v 0 0 q 0.76,0 1.37,0.33 v 0 0 q 0.61,0.33 0.96,0.91 v 0 0 q 0.35,0.57 0.35,1.29 v 0 0 q 0,0.73 -0.35,1.3 v 0 0 q -0.35,0.58 -0.96,0.91 v 0 0 q -0.61,0.33 -1.37,0.33 z m 0,-0.97 v 0 q 0.43,0 0.78,-0.2 v 0 0 q 0.35,-0.2 0.55,-0.55 v 0 0 q 0.2,-0.36 0.2,-0.82 v 0 0 q 0,-0.45 -0.2,-0.81 v 0 0 q -0.2,-0.36 -0.55,-0.55 v 0 0 q -0.35,-0.2 -0.78,-0.2 v 0 0 q -0.43,0 -0.78,0.2 v 0 0 q -0.35,0.19 -0.55,0.55 v 0 0 q -0.2,0.36 -0.2,0.81 v 0 0 q 0,0.46 0.2,0.82 v 0 0 q 0.2,0.35 0.55,0.55 v 0 0 q 0.35,0.2 0.78,0.2 z m 5.88,0.97 v 0 q -0.75,0 -1.35,-0.33 v 0 0 q -0.61,-0.32 -0.96,-0.9 v 0 0 q -0.34,-0.58 -0.34,-1.31 v 0 0 q 0,-0.72 0.34,-1.3 v 0 0 q 0.35,-0.58 0.96,-0.9 v 0 0 q 0.6,-0.33 1.36,-0.33 v 0 0 q 0.63,0 1.15,0.22 v 0 0 q 0.51,0.23 0.86,0.65 v 0 l -0.73,0.67 v 0 q -0.49,-0.57 -1.23,-0.57 v 0 0 q -0.45,0 -0.81,0.2 v 0 0 q -0.36,0.19 -0.56,0.55 v 0 0 q -0.2,0.36 -0.2,0.81 v 0 0 q 0,0.46 0.2,0.82 v 0 0 q 0.2,0.35 0.56,0.55 v 0 0 q 0.36,0.2 0.81,0.2 v 0 0 q 0.74,0 1.23,-0.58 v 0 l 0.73,0.67 v 0 q -0.35,0.43 -0.87,0.65 v 0 0 q -0.51,0.23 -1.15,0.23 z m 3.8,-0.09 v -3.97 h -1.57 v -0.93 h 4.27 v 0.93 h -1.57 v 3.97 z"
       fill="#202020"
       fill-rule="evenodd"
       id="svg_19"
       style="fill:#252525;fill-opacity:1" />
    <path
       d="m 45.89,96.97 v 0 q -0.87,0 -1.57,-0.37 v 0 0 q -0.7,-0.38 -1.1,-1.04 v 0 0 Q 42.83,94.9 42.83,94.08 v 0 0 q 0,-0.83 0.39,-1.49 v 0 0 q 0.4,-0.66 1.1,-1.03 v 0 0 q 0.7,-0.38 1.57,-0.38 v 0 0 q 0.87,0 1.57,0.38 v 0 0 q 0.7,0.37 1.1,1.03 v 0 0 q 0.4,0.66 0.4,1.49 v 0 0 q 0,0.82 -0.4,1.48 v 0 0 q -0.4,0.66 -1.1,1.04 v 0 0 q -0.7,0.37 -1.57,0.37 z m 0,-1.1 v 0 q 0.5,0 0.9,-0.23 v 0 0 q 0.4,-0.23 0.63,-0.64 v 0 0 q 0.22,-0.4 0.22,-0.92 v 0 0 q 0,-0.52 -0.22,-0.93 v 0 0 q -0.23,-0.41 -0.63,-0.64 v 0 0 q -0.4,-0.23 -0.9,-0.23 v 0 0 q -0.49,0 -0.89,0.23 v 0 0 q -0.4,0.23 -0.63,0.64 v 0 0 q -0.23,0.41 -0.23,0.93 v 0 0 q 0,0.52 0.23,0.92 v 0 0 q 0.23,0.41 0.63,0.64 v 0 0 q 0.4,0.23 0.89,0.23 z m 6.72,1.1 v 0 q -0.85,0 -1.55,-0.37 v 0 0 q -0.69,-0.37 -1.08,-1.03 v 0 0 q -0.4,-0.66 -0.4,-1.49 v 0 0 q 0,-0.84 0.4,-1.5 v 0 0 q 0.39,-0.66 1.08,-1.03 v 0 0 q 0.7,-0.37 1.56,-0.37 v 0 0 q 0.73,0 1.32,0.26 v 0 0 q 0.58,0.25 0.98,0.73 v 0 l -0.83,0.77 v 0 q -0.57,-0.66 -1.41,-0.66 v 0 0 q -0.52,0 -0.92,0.23 v 0 0 q -0.41,0.23 -0.64,0.64 v 0 0 q -0.23,0.41 -0.23,0.93 v 0 0 q 0,0.52 0.23,0.92 v 0 0 q 0.23,0.41 0.64,0.64 v 0 0 q 0.4,0.23 0.92,0.23 v 0 0 q 0.84,0 1.41,-0.67 v 0 l 0.83,0.77 v 0 q -0.4,0.49 -0.99,0.75 v 0 0 q -0.59,0.25 -1.32,0.25 z m 4.35,-0.09 v -4.55 h -1.8 v -1.05 h 4.88 v 1.05 h -1.79 v 4.55 z m 7.96,0 -0.49,-1.2 h -2.6 l -0.5,1.2 H 60 l 2.5,-5.6 h 1.28 l 2.5,5.6 z m -2.68,-2.19 h 1.78 l -0.89,-2.14 z m 8.72,-3.41 h 1.29 l -2.42,5.6 h -1.28 l -2.42,-5.6 h 1.4 l 1.71,4 z m 3.16,4.56 h 3.05 v 1.04 h -4.33 v -5.6 h 4.23 v 1.04 h -2.95 v 1.21 h 2.6 v 1.01 h -2.6 z"
       fill="#202020"
       fill-rule="evenodd"
       id="svg_33"
       style="fill:#252525;fill-opacity:1" />
    <path
       d="m 30.11,226.96 v -0.91 H 26.4 v 4.9 h 1.14 v -1.79 h 2.26 v -0.91 h -2.26 v -1.29 z m 6.29,3.99 -0.02,-4.9 h -0.93 l -1.8,3.04 -1.84,-3.04 h -0.93 v 4.9 h 1.06 v -2.88 l 1.43,2.36 h 0.51 l 1.45,-2.42 v 2.94 z M 10.73,230.04 V 228.9 H 13 v -0.88 h -2.27 v -1.06 h 2.57 v -0.91 H 9.6 v 4.9 h 3.8 v -0.91 z m 7.97,0.91 -1.83,-2.54 1.71,-2.36 h -1.23 l -1.1,1.59 -1.13,-1.59 h -1.29 l 1.72,2.41 -1.81,2.49 h 1.3 l 1.16,-1.7 1.19,1.7 z m 2.72,-4.9 H 19.3 v 4.9 h 1.13 v -1.35 h 0.99 c 1.31,0 2.13,-0.68 2.13,-1.78 0,-1.09 -0.82,-1.77 -2.13,-1.77 z m -0.06,2.62 h -0.93 v -1.7 h 0.93 c 0.69,0 1.04,0.32 1.04,0.85 0,0.54 -0.35,0.85 -1.04,0.85 z"
       fill="#000000"
       fill-rule="evenodd"
       id="svg_55"
       style="fill:#252525;fill-opacity:1" />
    <path
       d="m 102.79,226.96 v -0.91 h -3.71 v 4.9 h 1.14 v -1.79 h 2.26 v -0.91 h -2.26 v -1.29 z m 6.29,3.99 -0.02,-4.9 h -0.93 l -1.8,3.04 -1.84,-3.04 h -0.93 v 4.9 h 1.06 v -2.88 l 1.43,2.36 h 0.51 l 1.45,-2.42 v 2.94 z m -24.16,0 h 3.59 v -0.93 h -2.45 v -3.97 h -1.14 z m 4.23,0 h 1.13 v -4.9 h -1.13 z m 5.67,-4.9 v 2.97 l -2.44,-2.97 h -0.94 v 4.9 h 1.12 v -2.98 l 2.45,2.98 h 0.93 v -4.9 z"
       fill="#000000"
       fill-rule="evenodd"
       id="svg_56"
       style="fill:#252525;fill-opacity:1" />
    <g
       aria-label="PWM"
       id="svg_57"
       style="font-weight:bold;font-size:8px;font-family:Helvetica;text-anchor:middle;stroke:#000000;stroke-width:0;fill:#252525;fill-opacity:1">
      <path
         d="m 88.826637,273.14001 v -5.72656 h 1.855469 q 1.054688,0 1.375,0.0859 0.492188,0.12891 0.824219,0.5625 0.332031,0.42969 0.332031,1.11328 0,0.52734 -0.191406,0.88672 -0.191406,0.35937 -0.488281,0.56641 -0.292969,0.20312 -0.597657,0.26953 -0.414062,0.082 -1.199218,0.082 h -0.753907 v 2.16015 z m 1.15625,-4.75781 v 1.625 H 90.6157 q 0.683594,0 0.914062,-0.0898 0.230469,-0.0898 0.359375,-0.28125 0.132813,-0.19141 0.132813,-0.44531 0,-0.3125 -0.183594,-0.51563 -0.183594,-0.20312 -0.464844,-0.25391 -0.207031,-0.0391 -0.832031,-0.0391 z"
         style="font-weight:bold;font-size:8px;font-family:Helvetica;text-anchor:middle;stroke:#000000;stroke-width:0;fill:#252525;fill-opacity:1"
         id="path423" />
      <path
         d="m 94.975075,273.14001 -1.367188,-5.72656 h 1.183594 l 0.863281,3.9336 1.046875,-3.9336 h 1.375 l 1.003907,4 0.878906,-4 h 1.16406 l -1.390623,5.72656 h -1.226562 l -1.140625,-4.28125 -1.136719,4.28125 z"
         style="font-weight:bold;font-size:8px;font-family:Helvetica;text-anchor:middle;stroke:#000000;stroke-width:0;fill:#252525;fill-opacity:1"
         id="path425" />
      <path
         d="m 101.69773,273.14001 v -5.72656 h 1.73047 l 1.03906,3.90625 1.02735,-3.90625 h 1.73437 v 5.72656 h -1.07422 v -4.50781 l -1.13672,4.50781 h -1.11328 l -1.13281,-4.50781 v 4.50781 z"
         style="font-weight:bold;font-size:8px;font-family:Helvetica;text-anchor:middle;stroke:#000000;stroke-width:0;fill:#252525;fill-opacity:1"
         id="path427" />
    </g>
    <g
       aria-label="PW"
       id="svg_59"
       style="font-weight:bold;font-size:8px;font-family:Helvetica;text-anchor:middle;stroke:#000000;stroke-width:0;fill:#252525;fill-opacity:1">
      <path
         d="m 82.158669,155.14 v -5.72656 h 1.855468 q 1.054688,0 1.375,0.0859 0.492188,0.12891 0.824219,0.5625 0.332031,0.42969 0.332031,1.11329 0,0.52734 -0.191406,0.88671 -0.191406,0.35938 -0.488281,0.56641 -0.292969,0.20313 -0.597656,0.26953 -0.414063,0.082 -1.199219,0.082 H 83.314919 V 155.14 Z m 1.15625,-4.75781 v 1.625 h 0.632812 q 0.683594,0 0.914063,-0.0899 0.230468,-0.0898 0.359375,-0.28125 0.132812,-0.1914 0.132812,-0.44531 0,-0.3125 -0.183594,-0.51562 -0.183593,-0.20313 -0.464843,-0.25391 -0.207032,-0.0391 -0.832032,-0.0391 z"
         style="font-weight:bold;font-size:8px;font-family:Helvetica;text-anchor:middle;stroke:#000000;stroke-width:0;fill:#252525;fill-opacity:1"
         id="path346" />
      <path
         d="m 88.307106,155.14 -1.367187,-5.72656 h 1.183593 l 0.863282,3.93359 1.046875,-3.93359 h 1.375 l 1.003906,4 0.878906,-4 h 1.164063 L 93.064919,155.14 h -1.226563 l -1.140625,-4.28125 -1.136719,4.28125 z"
         style="font-weight:bold;font-size:8px;font-family:Helvetica;text-anchor:middle;stroke:#000000;stroke-width:0;fill:#252525;fill-opacity:1"
         id="path348" />
    </g>
    <g
       aria-label="PITCH"
       id="svg_60"
       style="font-weight:bold;font-size:8px;font-family:Helvetica;text-anchor:middle;stroke:#000000;stroke-width:0;fill:#252525;fill-opacity:1">
      <path
         d="m 21.502029,156 v -5.72656 h 1.855469 q 1.054688,0 1.375,0.0859 0.492188,0.12891 0.824219,0.5625 0.332031,0.42969 0.332031,1.11329 0,0.52734 -0.191406,0.88671 -0.191406,0.35938 -0.488281,0.56641 -0.292969,0.20313 -0.597657,0.26953 -0.414062,0.082 -1.199218,0.082 H 22.658279 V 156 Z m 1.15625,-4.75781 v 1.625 h 0.632813 q 0.683594,0 0.914062,-0.0898 0.230469,-0.0898 0.359375,-0.28125 0.132813,-0.1914 0.132813,-0.44531 0,-0.3125 -0.183594,-0.51562 -0.183594,-0.20313 -0.464844,-0.25391 -0.207031,-0.0391 -0.832031,-0.0391 z"
         style="font-weight:bold;font-size:8px;font-family:Helvetica;text-anchor:middle;stroke:#000000;stroke-width:0;fill:#252525;fill-opacity:1"
         id="path369" />
      <path
         d="m 26.802811,156 v -5.72656 h 1.15625 V 156 Z"
         style="font-weight:bold;font-size:8px;font-family:Helvetica;text-anchor:middle;stroke:#000000;stroke-width:0;fill:#252525;fill-opacity:1"
         id="path371" />
      <path
         d="m 30.349686,156 v -4.75781 h -1.699219 v -0.96875 h 4.550781 v 0.96875 H 31.505936 V 156 Z"
         style="font-weight:bold;font-size:8px;font-family:Helvetica;text-anchor:middle;stroke:#000000;stroke-width:0;fill:#252525;fill-opacity:1"
         id="path373" />
      <path
         d="m 37.611404,153.89453 1.121094,0.35547 q -0.257812,0.9375 -0.859375,1.39453 -0.597656,0.45313 -1.519531,0.45313 -1.140625,0 -1.875,-0.77735 -0.734375,-0.78125 -0.734375,-2.13281 0,-1.42969 0.738281,-2.21875 0.738281,-0.79297 1.941406,-0.79297 1.050782,0 1.707032,0.62109 0.390625,0.36719 0.585937,1.05469 l -1.144531,0.27344 q -0.101563,-0.44531 -0.425781,-0.70313 -0.320313,-0.25781 -0.78125,-0.25781 -0.636719,0 -1.035157,0.45703 -0.394531,0.45703 -0.394531,1.48047 0,1.08594 0.390625,1.54688 0.390625,0.46093 1.015625,0.46093 0.460938,0 0.792969,-0.29296 0.332031,-0.29297 0.476562,-0.92188 z"
         style="font-weight:bold;font-size:8px;font-family:Helvetica;text-anchor:middle;stroke:#000000;stroke-width:0;fill:#252525;fill-opacity:1"
         id="path375" />
      <path
         d="m 39.728592,156 v -5.72656 h 1.15625 v 2.2539 h 2.265625 v -2.2539 h 1.15625 V 156 h -1.15625 v -2.50391 H 40.884842 V 156 Z"
         style="font-weight:bold;font-size:8px;font-family:Helvetica;text-anchor:middle;stroke:#000000;stroke-width:0;fill:#252525;fill-opacity:1"
         id="path377" />
    </g>
    <g
       aria-label="VCO"
       id="svg_61"
       style="font-weight:bold;font-size:13px;font-family:Helvetica;text-anchor:middle;stroke-width:0;fill:#252525;fill-opacity:1"
       transform="translate(0.58282208,-5.2453987)">
      <path
         d="m 48.254375,28 -3.326171,-9.305664 h 2.037597 l 2.354981,6.887207 2.278808,-6.887207 h 1.993164 L 50.260235,28 Z"
         style="font-weight:bold;font-size:13px;font-family:Helvetica;text-anchor:middle;stroke-width:0;fill:#252525;fill-opacity:1"
         id="path398" />
      <path
         d="m 60.505352,24.578613 1.821777,0.577637 q -0.418945,1.523437 -1.396484,2.266113 -0.971191,0.736328 -2.469238,0.736328 -1.853516,0 -3.046875,-1.263183 -1.19336,-1.269531 -1.19336,-3.465821 0,-2.323242 1.199707,-3.605468 1.199707,-1.288574 3.154786,-1.288574 1.707519,0 2.773925,1.009277 0.634766,0.59668 0.952149,1.713867 l -1.859864,0.444336 q -0.165039,-0.723633 -0.691894,-1.142578 -0.520508,-0.418945 -1.269531,-0.418945 -1.034668,0 -1.682129,0.742675 -0.641114,0.742676 -0.641114,2.405762 0,1.764648 0.634766,2.513672 0.634766,0.749023 1.650391,0.749023 0.749023,0 1.288574,-0.476074 0.539551,-0.476074 0.774414,-1.498047 z"
         style="font-weight:bold;font-size:13px;font-family:Helvetica;text-anchor:middle;stroke-width:0;fill:#252525;fill-opacity:1"
         id="path400" />
      <path
         d="m 63.558575,23.404297 q 0,-1.421875 0.425293,-2.386719 0.317382,-0.710937 0.863281,-1.275879 0.552246,-0.564941 1.206055,-0.83789 0.869628,-0.368164 2.005859,-0.368164 2.056641,0 3.288086,1.275878 1.237793,1.275879 1.237793,3.54834 0,2.253418 -1.225098,3.529297 -1.225097,1.269531 -3.27539,1.269531 -2.075684,0 -3.300782,-1.263183 -1.225097,-1.269531 -1.225097,-3.491211 z m 1.936035,-0.06348 q 0,1.580567 0.72998,2.399414 0.729981,0.8125 1.853516,0.8125 1.123535,0 1.84082,-0.806152 0.723633,-0.8125 0.723633,-2.431152 0,-1.59961 -0.70459,-2.386719 -0.698242,-0.787109 -1.859863,-0.787109 -1.161621,0 -1.872559,0.799804 -0.710937,0.793457 -0.710937,2.399414 z"
         style="font-weight:bold;font-size:13px;font-family:Helvetica;text-anchor:middle;stroke-width:0;fill:#252525;fill-opacity:1"
         id="path402" />
    </g>
    <g
       aria-label="RESET"
       id="text31127"
       style="font-weight:bold;font-size:8px;line-height:1.25;font-family:Arial;-inkscape-font-specification:'Arial, Bold';fill:#252525;fill-opacity:1">
      <path
         d="m 9.9111013,272.76074 v -5.72656 h 2.4335937 q 0.917969,0 1.332031,0.15625 0.417969,0.15234 0.667969,0.54687 0.25,0.39454 0.25,0.90235 0,0.64453 -0.378906,1.0664 -0.378906,0.41797 -1.132813,0.52735 0.375,0.21875 0.617188,0.48047 0.246094,0.26172 0.660156,0.92968 l 0.699219,1.11719 h -1.382813 l -0.835937,-1.24609 q -0.445313,-0.66797 -0.609375,-0.83985 -0.164063,-0.17578 -0.347656,-0.23828 -0.183594,-0.0664 -0.582032,-0.0664 h -0.234375 v 2.39062 z m 1.1562497,-3.30469 h 0.855469 q 0.832031,0 1.039063,-0.0703 0.207031,-0.0703 0.324218,-0.24219 0.117188,-0.17187 0.117188,-0.42968 0,-0.28907 -0.15625,-0.46485 -0.152344,-0.17968 -0.433594,-0.22656 -0.140625,-0.0195 -0.84375,-0.0195 h -0.902344 z"
         id="path32147"
         style="fill:#252525;fill-opacity:1" />
      <path
         d="m 15.684539,272.76074 v -5.72656 h 4.246094 v 0.96875 h -3.089844 v 1.26953 h 2.875 v 0.96484 h -2.875 v 1.5586 h 3.199219 v 0.96484 z"
         id="path32149"
         style="fill:#252525;fill-opacity:1" />
      <path
         d="m 20.727508,270.89746 1.125,-0.10937 q 0.101562,0.5664 0.410156,0.83203 0.3125,0.26562 0.839844,0.26562 0.558593,0 0.839843,-0.23437 0.285157,-0.23828 0.285157,-0.55469 0,-0.20313 -0.121094,-0.34375 -0.117188,-0.14453 -0.414063,-0.25 -0.203125,-0.0703 -0.925781,-0.25 -0.929687,-0.23047 -1.304687,-0.56641 -0.527344,-0.47265 -0.527344,-1.15234 0,-0.4375 0.246094,-0.81641 0.25,-0.38281 0.714843,-0.58203 0.46875,-0.19922 1.128907,-0.19922 1.078125,0 1.621093,0.47266 0.546875,0.47266 0.574219,1.26172 l -1.15625,0.0508 q -0.07422,-0.44141 -0.320312,-0.63281 -0.242188,-0.19532 -0.730469,-0.19532 -0.503906,0 -0.789063,0.20704 -0.183593,0.13281 -0.183593,0.35546 0,0.20313 0.171875,0.34766 0.21875,0.18359 1.0625,0.38281 0.84375,0.19922 1.246093,0.41407 0.40625,0.21093 0.632813,0.58203 0.230469,0.36718 0.230469,0.91015 0,0.49219 -0.273438,0.92188 -0.273437,0.42969 -0.773437,0.64062 -0.5,0.20703 -1.246094,0.20703 -1.085938,0 -1.667969,-0.5 -0.582031,-0.5039 -0.695312,-1.46484 z"
         id="path32151"
         style="fill:#252525;fill-opacity:1" />
      <path
         d="m 26.356414,272.76074 v -5.72656 h 4.246094 v 0.96875 h -3.089844 v 1.26953 h 2.875 v 0.96484 h -2.875 v 1.5586 h 3.199219 v 0.96484 z"
         id="path32153"
         style="fill:#252525;fill-opacity:1" />
      <path
         d="m 32.981414,272.76074 v -4.75781 h -1.699219 v -0.96875 h 4.550781 v 0.96875 h -1.695312 v 4.75781 z"
         id="path32155"
         style="fill:#252525;fill-opacity:1" />
    </g>
  </g>
  <g
     id="g42796"
     transform="matrix(0.30458296,0,0,0.30458296,36.265357,-15.307309)"
     inkscape:transform-center-x="3.2877745"
     inkscape:transform-center-y="-0.4696778"
     style="fill:#ff0000">
    <g
       aria-label="enom"
       id="text4270-27"
       style="font-size:49.3889px;line-height:1.25;font-family:'NECK ROMANCER';-inkscape-font-specification:'NECK ROMANCER, Normal';font-variant-ligatures:none;text-align:center;text-anchor:middle;stroke-width:2.64583;fill:#ff0000">
      <path
         d="m 46.609141,1249.244 q 0,1.1576 0,3.4245 3.183269,0 9.453344,0 -1.639866,0.5787 -2.990343,1.2058 -1.350478,0.627 -2.363337,1.688 -1.350477,0 -4.051433,0 0,1.4952 0.434082,2.5563 0.385851,1.1093 1.832792,1.1093 2.266873,0 6.80062,0 0.482313,-0.1447 0.868164,-0.627 0.337619,-0.5305 0.627007,-1.7363 0,2.0257 0,6.1254 -3.520888,0 -10.562665,0 -1.543403,0 -2.652724,-2.2187 -1.109321,-2.1704 -1.109321,-6.3183 0,-1.9775 0,-5.836 -0.385851,-1.3504 -1.881023,-2.1221 -1.495171,-0.7235 -3.569119,-1.2058 6.607694,0 19.774852,0 0,2.9421 0,8.7781 -1.205783,-2.701 -2.218642,-3.6656 -1.012858,-0.9646 -2.700955,-1.1093 -0.916396,-0.097 -2.170411,-0.097 -1.205783,0.048 -2.845649,0.048 -0.241157,0 -0.675239,0 z"
         id="path42762"
         style="fill:#ff0000" />
      <path
         d="m 81.576869,1245.2891 q 0,5.8842 0,17.7009 0,3.0868 -0.144694,6.0771 -0.09646,3.0386 -0.337619,5.9325 -0.385851,-3.7138 -0.964627,-6.9936 -0.530545,-3.3279 -2.025717,-5.016 0,-2.9904 0,-8.9228 -0.241157,-1.3505 -0.72347,-2.2187 -0.482314,-0.8681 -1.06109,-1.3987 -1.109321,-1.0128 -2.411567,-1.1093 -1.350478,-0.097 -2.266874,-0.097 -0.482313,0 -1.44694,0 0,4.582 0,13.746 0,3.0868 -0.09646,6.0771 -0.144694,3.0386 -0.385851,5.9325 -0.38585,-3.7138 -0.916395,-6.9936 -0.578776,-3.3279 -2.025717,-5.016 0,-4.8232 0,-14.373 -0.385851,-1.3504 -1.881022,-2.1221 -1.495172,-0.7235 -3.56912,-1.2058 6.752389,0 20.257166,0 z"
         id="path42764"
         style="fill:#ff0000" />
      <path
         d="m 104.19737,1249.0511 q 0,3.3762 0,10.1768 0,1.5434 -1.92925,2.6528 -1.92926,1.1093 -6.077152,1.1093 -4.196128,0 -6.125382,-1.1093 -1.929254,-1.1094 -1.929254,-2.6528 0,-3.3762 0,-10.1768 0,-1.5434 1.929254,-2.6527 1.929254,-1.1093 6.125382,-1.1093 4.147892,0 6.077152,1.1093 1.92925,1.1093 1.92925,2.6527 z m -3.76204,7.91 q 0,-1.8811 0,-5.6431 0,-1.6881 -1.254019,-1.9775 -1.205783,-0.2894 -2.990343,-0.2894 -1.832792,0 -3.038575,0.2894 -1.254015,0.2894 -1.254015,1.9775 0,1.881 0,5.6431 0,1.6881 1.254015,1.9774 1.205783,0.2894 3.038575,0.2894 1.78456,0 2.990343,-0.2894 1.254019,-0.2893 1.254019,-1.9774 z"
         id="path42766"
         style="fill:#ff0000" />
      <path
         d="m 142.34837,1245.2891 q -2.02572,0.4823 -3.52089,1.2058 -1.5434,0.7717 -1.88102,2.1221 0,4.7749 0,14.373 -1.49517,1.6881 -2.02572,5.016 -0.57878,3.2798 -0.96463,6.9936 -0.24115,-2.8939 -0.33762,-5.9325 -0.14469,-2.9903 -0.14469,-6.0771 0,-4.582 0,-13.746 -0.48231,0 -1.39871,0 -0.53054,0 -1.15755,0 -0.62701,0 -1.30225,0.1447 -1.25401,0.2412 -2.41157,1.2058 -1.15755,0.9646 -1.63986,3.4727 0,2.9903 0,8.9228 -0.1447,0.627 -0.28939,1.1093 -0.0965,0.4823 -0.19292,0.8199 -0.53055,1.9775 -0.38586,1.3505 0.19293,-0.627 -0.28938,1.1576 -0.0965,0.3376 -0.24116,0.8681 -0.14469,0.5306 -0.33762,1.3023 -0.14469,-0.6753 -0.28939,-1.2058 -0.14469,-0.4823 -0.24115,-0.8199 -0.53055,-2.0258 -0.33762,-1.3023 0.19292,0.7717 -0.43409,-1.6881 -0.0482,-0.2894 -0.19292,-0.7235 -0.0965,-0.3858 -0.19293,-0.8681 0,-2.9904 0,-8.9228 -0.28939,-1.3505 -0.7717,-2.2187 -0.48231,-0.8681 -1.06109,-1.3987 -1.10932,-1.0128 -2.41157,-1.1093 -1.30224,-0.097 -2.26687,-0.097 -0.48231,0 -1.39871,0 0,4.582 0,13.746 0,3.0868 -0.14469,6.0771 -0.0965,3.0386 -0.33762,5.9325 -0.38585,-3.7138 -0.96463,-6.9936 -0.53054,-3.3279 -2.02572,-5.016 0,-4.8232 0,-14.373 -0.38585,-1.3504 -1.88102,-2.1221 -1.49517,-0.7235 -3.56912,-1.2058 3.95497,0 11.76845,0 1.15755,0.3858 3.47266,1.1575 0.7717,0.2894 1.59163,0.4341 0.81994,0.1447 1.6881,0.1447 0.86816,0 1.73633,-0.1447 0.81993,-0.1447 1.59163,-0.4341 1.15756,-0.3858 3.42443,-1.1575 3.95497,0 11.76845,0 z"
         id="path42768"
         style="fill:#ff0000" />
    </g>
    <g
       aria-label="V"
       transform="matrix(1.2363173,0,0,0.80885384,-497.88086,123.48586)"
       id="text4270-3-5-2"
       style="font-size:78.5061px;line-height:1.25;font-family:Nosferotica;-inkscape-font-specification:'Nosferotica, Normal';font-variant-ligatures:none;text-align:center;text-anchor:middle;stroke-width:3.27108;fill:#ff0000">
      <path
         d="m 431.64994,1360.6864 8.57428,-0.1022 c 0,0 -4.4079,1.0878 -5.59925,3.7285 -1.88083,4.1689 -3.64217,14.6628 -3.64217,14.6628 l -2.23339,11.5191 -1.83311,11.8311 -1.71824,21.3112 -1.69514,-21.3112 -1.92196,-11.5208 -2.5009,-11.8294 c 0,0 -1.52027,-10.287 -3.38278,-14.4832 -1.14458,-2.5787 -5.63367,-3.8059 -5.63367,-3.8059 h 8.4657 l 6.66875,29.1569 z"
         id="path30410"
         sodipodi:nodetypes="ccscccccccscccc"
         style="fill:#ff0000" />
    </g>
  </g>
</svg>
