<?xml version="1.0" encoding="UTF-8" standalone="no"?>
<!-- Created with Inkscape (http://www.inkscape.org/) -->

<svg
   width="90"
   height="380"
   viewBox="0 0 238.125 1005.4167"
   version="1.1"
   id="svg5"
   inkscape:version="1.1.1 (3bf5ae0d25, 2021-09-20)"
   sodipodi:docname="WaveFolder_Ivory.svg"
   xmlns:inkscape="http://www.inkscape.org/namespaces/inkscape"
   xmlns:sodipodi="http://sodipodi.sourceforge.net/DTD/sodipodi-0.dtd"
   xmlns="http://www.w3.org/2000/svg"
   xmlns:svg="http://www.w3.org/2000/svg">
  <sodipodi:namedview
     id="namedview7"
     pagecolor="#ffffff"
     bordercolor="#666666"
     borderopacity="1.0"
     inkscape:pageshadow="2"
     inkscape:pageopacity="0.0"
     inkscape:pagecheckerboard="0"
     inkscape:document-units="px"
     showgrid="true"
     scale-x="10"
     inkscape:showpageshadow="false"
     viewbox-x="0"
     showguides="false"
     objecttolerance="1"
     gridtolerance="1"
     guidetolerance="1"
     inkscape:zoom="2.2342105"
     inkscape:cx="45.206125"
     inkscape:cy="190"
     inkscape:window-width="1920"
     inkscape:window-height="1057"
     inkscape:window-x="1592"
     inkscape:window-y="-8"
     inkscape:window-maximized="1"
     inkscape:current-layer="layer6"
     units="px">
    <inkscape:grid
       type="xygrid"
       id="grid832"
       units="px"
       spacingx="2.6458334"
       spacingy="2.6458334"
       originx="0"
       empspacing="5"
       dotted="false"
       visible="false"
       enabled="true" />
    <inkscape:grid
       type="xygrid"
       id="grid15270"
       visible="false" />
  </sodipodi:namedview>
  <defs
     id="defs2" />
  <g
     inkscape:groupmode="layer"
     id="layer3"
     inkscape:label="Faceplate"
     style="display:inline">
    <rect
       style="vector-effect:non-scaling-stroke;fill:#ede7dc;fill-opacity:1;stroke-width:0.186761;-inkscape-stroke:hairline"
       id="rect910"
       width="238.125"
       height="1005.4167"
       x="0"
       y="0" />
  </g>
  <g
     inkscape:groupmode="layer"
     id="layer4"
     inkscape:label="Brand"
     style="display:inline">
    <g
       id="g42796"
       transform="matrix(0.79338965,0,0,0.79458332,58.988525,-19.617969)"
       style="fill:#ff0000;stroke-width:1.27904">
      <g
         aria-label="enom"
         id="text4270-27"
         style="font-size:49.3889px;line-height:1.25;font-family:'NECK ROMANCER';-inkscape-font-specification:'NECK ROMANCER, Normal';font-variant-ligatures:none;text-align:center;text-anchor:middle;fill:#ff0000;stroke-width:3.38412">
        <path
           d="m 46.609141,1249.244 q 0,1.1576 0,3.4245 3.183269,0 9.453344,0 -1.639866,0.5787 -2.990343,1.2058 -1.350478,0.627 -2.363337,1.688 -1.350477,0 -4.051433,0 0,1.4952 0.434082,2.5563 0.385851,1.1093 1.832792,1.1093 2.266873,0 6.80062,0 0.482313,-0.1447 0.868164,-0.627 0.337619,-0.5305 0.627007,-1.7363 0,2.0257 0,6.1254 -3.520888,0 -10.562665,0 -1.543403,0 -2.652724,-2.2187 -1.109321,-2.1704 -1.109321,-6.3183 0,-1.9775 0,-5.836 -0.385851,-1.3504 -1.881023,-2.1221 -1.495171,-0.7235 -3.569119,-1.2058 6.607694,0 19.774852,0 0,2.9421 0,8.7781 -1.205783,-2.701 -2.218642,-3.6656 -1.012858,-0.9646 -2.700955,-1.1093 -0.916396,-0.097 -2.170411,-0.097 -1.205783,0.048 -2.845649,0.048 -0.241157,0 -0.675239,0 z"
           id="path42762"
           style="fill:#ff0000;stroke-width:3.38412" />
        <path
           d="m 81.576869,1245.2891 q 0,5.8842 0,17.7009 0,3.0868 -0.144694,6.0771 -0.09646,3.0386 -0.337619,5.9325 -0.385851,-3.7138 -0.964627,-6.9936 -0.530545,-3.3279 -2.025717,-5.016 0,-2.9904 0,-8.9228 -0.241157,-1.3505 -0.72347,-2.2187 -0.482314,-0.8681 -1.06109,-1.3987 -1.109321,-1.0128 -2.411567,-1.1093 -1.350478,-0.097 -2.266874,-0.097 -0.482313,0 -1.44694,0 0,4.582 0,13.746 0,3.0868 -0.09646,6.0771 -0.144694,3.0386 -0.385851,5.9325 -0.38585,-3.7138 -0.916395,-6.9936 -0.578776,-3.3279 -2.025717,-5.016 0,-4.8232 0,-14.373 -0.385851,-1.3504 -1.881022,-2.1221 -1.495172,-0.7235 -3.56912,-1.2058 6.752389,0 20.257166,0 z"
           id="path42764"
           style="fill:#ff0000;stroke-width:3.38412" />
        <path
           d="m 104.19737,1249.0511 q 0,3.3762 0,10.1768 0,1.5434 -1.92925,2.6528 -1.92926,1.1093 -6.077152,1.1093 -4.196128,0 -6.125382,-1.1093 -1.929254,-1.1094 -1.929254,-2.6528 0,-3.3762 0,-10.1768 0,-1.5434 1.929254,-2.6527 1.929254,-1.1093 6.125382,-1.1093 4.147892,0 6.077152,1.1093 1.92925,1.1093 1.92925,2.6527 z m -3.76204,7.91 q 0,-1.8811 0,-5.6431 0,-1.6881 -1.254019,-1.9775 -1.205783,-0.2894 -2.990343,-0.2894 -1.832792,0 -3.038575,0.2894 -1.254015,0.2894 -1.254015,1.9775 0,1.881 0,5.6431 0,1.6881 1.254015,1.9774 1.205783,0.2894 3.038575,0.2894 1.78456,0 2.990343,-0.2894 1.254019,-0.2893 1.254019,-1.9774 z"
           id="path42766"
           style="fill:#ff0000;stroke-width:3.38412" />
        <path
           d="m 142.34837,1245.2891 q -2.02572,0.4823 -3.52089,1.2058 -1.5434,0.7717 -1.88102,2.1221 0,4.7749 0,14.373 -1.49517,1.6881 -2.02572,5.016 -0.57878,3.2798 -0.96463,6.9936 -0.24115,-2.8939 -0.33762,-5.9325 -0.14469,-2.9903 -0.14469,-6.0771 0,-4.582 0,-13.746 -0.48231,0 -1.39871,0 -0.53054,0 -1.15755,0 -0.62701,0 -1.30225,0.1447 -1.25401,0.2412 -2.41157,1.2058 -1.15755,0.9646 -1.63986,3.4727 0,2.9903 0,8.9228 -0.1447,0.627 -0.28939,1.1093 -0.0965,0.4823 -0.19292,0.8199 -0.53055,1.9775 -0.38586,1.3505 0.19293,-0.627 -0.28938,1.1576 -0.0965,0.3376 -0.24116,0.8681 -0.14469,0.5306 -0.33762,1.3023 -0.14469,-0.6753 -0.28939,-1.2058 -0.14469,-0.4823 -0.24115,-0.8199 -0.53055,-2.0258 -0.33762,-1.3023 0.19292,0.7717 -0.43409,-1.6881 -0.0482,-0.2894 -0.19292,-0.7235 -0.0965,-0.3858 -0.19293,-0.8681 0,-2.9904 0,-8.9228 -0.28939,-1.3505 -0.7717,-2.2187 -0.48231,-0.8681 -1.06109,-1.3987 -1.10932,-1.0128 -2.41157,-1.1093 -1.30224,-0.097 -2.26687,-0.097 -0.48231,0 -1.39871,0 0,4.582 0,13.746 0,3.0868 -0.14469,6.0771 -0.0965,3.0386 -0.33762,5.9325 -0.38585,-3.7138 -0.96463,-6.9936 -0.53054,-3.3279 -2.02572,-5.016 0,-4.8232 0,-14.373 -0.38585,-1.3504 -1.88102,-2.1221 -1.49517,-0.7235 -3.56912,-1.2058 3.95497,0 11.76845,0 1.15755,0.3858 3.47266,1.1575 0.7717,0.2894 1.59163,0.4341 0.81994,0.1447 1.6881,0.1447 0.86816,0 1.73633,-0.1447 0.81993,-0.1447 1.59163,-0.4341 1.15756,-0.3858 3.42443,-1.1575 3.95497,0 11.76845,0 z"
           id="path42768"
           style="fill:#ff0000;stroke-width:3.38412" />
      </g>
      <g
         aria-label="V"
         transform="matrix(1.2363173,0,0,0.80885384,-497.88086,123.48586)"
         id="text4270-3-5-2"
         style="font-size:78.5061px;line-height:1.25;font-family:Nosferotica;-inkscape-font-specification:'Nosferotica, Normal';font-variant-ligatures:none;text-align:center;text-anchor:middle;fill:#ff0000;stroke-width:4.18383">
        <path
           d="m 431.64994,1360.6864 8.57428,-0.1022 c 0,0 -4.4079,1.0878 -5.59925,3.7285 -1.88083,4.1689 -3.64217,14.6628 -3.64217,14.6628 l -2.23339,11.5191 -1.83311,11.8311 -1.71824,21.3112 -1.69514,-21.3112 -1.92196,-11.5208 -2.5009,-11.8294 c 0,0 -1.52027,-10.287 -3.38278,-14.4832 -1.14458,-2.5787 -5.63367,-3.8059 -5.63367,-3.8059 h 8.4657 l 6.66875,29.1569 z"
           id="path30410"
           sodipodi:nodetypes="ccscccccccscccc"
           style="fill:#ff0000;stroke-width:4.18383" />
      </g>
    </g>
  </g>
  <g
     inkscape:groupmode="layer"
     id="layer5"
     inkscape:label="Solid"
     style="display:inline">
    <rect
       style="display:inline;vector-effect:non-scaling-stroke;fill:#252525;fill-opacity:1;stroke-width:0.0257847;-inkscape-stroke:hairline"
       id="rect76101"
       width="78.327255"
       height="101.52305"
       x="135.46138"
       y="824.51862"
       ry="12.391612"
       rx="11.207397" />
    <g
       aria-label="BIAS"
       id="text4513"
       style="font-weight:bold;font-size:21.1667px;line-height:1.25;font-family:Arial;-inkscape-font-specification:'Arial, Bold';font-variant-ligatures:none;text-align:center;text-anchor:middle;display:inline;fill:#252525;fill-opacity:1;stroke-width:2.64583">
      <path
         d="m 95.0691,378.8157 h 6.05649 q 1.79834,0 2.67684,0.15503 0.88884,0.14469 1.5813,0.62012 0.7028,0.47542 1.16789,1.27124 0.46509,0.78548 0.46509,1.76734 0,1.06453 -0.57878,1.95337 -0.56844,0.88884 -1.55029,1.33325 1.38493,0.40308 2.12907,1.3746 0.74414,0.97152 0.74414,2.2841 0,1.03353 -0.48576,2.01538 -0.47542,0.97152 -1.31258,1.56064 -0.82683,0.57877 -2.04639,0.71313 -0.76481,0.0827 -3.6897,0.10335 H 95.0691 Z m 3.059249,2.52181 v 3.50367 h 2.005051 q 1.78801,0 2.22209,-0.0517 0.78548,-0.093 1.2299,-0.53744 0.45475,-0.45475 0.45475,-1.18856 0,-0.7028 -0.39274,-1.13688 -0.38241,-0.44442 -1.14722,-0.53744 -0.45475,-0.0517 -2.614829,-0.0517 z m 0,6.02549 v 4.05143 h 2.831871 q 1.65365,0 2.09807,-0.093 0.68213,-0.12403 1.10588,-0.59945 0.43408,-0.48576 0.43408,-1.29191 0,-0.68213 -0.33073,-1.15756 -0.33073,-0.47542 -0.96118,-0.69246 -0.62012,-0.21704 -2.70785,-0.21704 z"
         id="path22850"
         style="fill:#252525;fill-opacity:1" />
      <path
         d="M 110.25166,393.96725 V 378.8157 h 3.05925 v 15.15155 z"
         id="path22852"
         style="fill:#252525;fill-opacity:1" />
      <path
         d="m 129.88874,393.96725 h -3.32797 l -1.32292,-3.44165 h -6.05649 l -1.25057,3.44165 h -3.24529 l 5.90146,-15.15155 h 3.23495 z m -5.63274,-5.99447 -2.08774,-5.62241 -2.04639,5.62241 z"
         id="path22854"
         style="fill:#252525;fill-opacity:1" />
      <path
         d="m 130.73623,389.03732 2.97657,-0.28939 q 0.26872,1.49862 1.0852,2.20142 0.82683,0.7028 2.22209,0.7028 1.47795,0 2.22209,-0.62012 0.75448,-0.63045 0.75448,-1.46761 0,-0.53744 -0.32039,-0.90951 -0.31006,-0.38241 -1.09554,-0.66146 -0.53744,-0.18604 -2.44947,-0.66146 -2.4598,-0.60978 -3.45199,-1.49862 -1.39527,-1.25057 -1.39527,-3.04891 0,-1.15756 0.65113,-2.16008 0.66146,-1.01286 1.89136,-1.53996 1.24023,-0.5271 2.9869,-0.5271 2.85254,0 4.28915,1.25057 1.44694,1.25057 1.51929,3.3383 l -3.05925,0.13436 q -0.19637,-1.16789 -0.8475,-1.67432 -0.64078,-0.51676 -1.9327,-0.51676 -1.33325,0 -2.08773,0.54777 -0.48576,0.3514 -0.48576,0.94051 0,0.53744 0.45476,0.91984 0.57877,0.48576 2.8112,1.01286 2.23242,0.5271 3.29696,1.09554 1.07487,0.55811 1.67432,1.53996 0.60978,0.97152 0.60978,2.40813 0,1.30225 -0.72347,2.43913 -0.72347,1.13689 -2.04639,1.69499 -1.32292,0.54777 -3.29696,0.54777 -2.87322,0 -4.41318,-1.32292 -1.53996,-1.33325 -1.83968,-3.87573 z"
         id="path22856"
         style="fill:#252525;fill-opacity:1" />
    </g>
    <g
       aria-label="PRE"
       id="text4513-5"
       style="font-weight:bold;font-size:21.1667px;line-height:1.25;font-family:Arial;-inkscape-font-specification:'Arial, Bold';font-variant-ligatures:none;text-align:center;text-anchor:middle;display:inline;fill:#252525;fill-opacity:1;stroke-width:2.64583">
      <path
         d="m 29.806934,282.59067 v -15.15156 h 4.909269 q 2.790532,0 3.638026,0.22738 1.302249,0.34107 2.180749,1.48828 0.878501,1.13689 0.878501,2.94557 0,1.39526 -0.50643,2.34611 -0.50643,0.95085 -1.291913,1.49862 -0.775147,0.53743 -1.581301,0.71313 -1.095542,0.21705 -3.172938,0.21705 h -1.994713 v 5.71542 z m 3.05925,-12.5884 v 4.29948 h 1.674319 q 1.808678,0 2.418461,-0.23771 0.609782,-0.23771 0.950847,-0.74414 0.351401,-0.50643 0.351401,-1.17822 0,-0.82683 -0.48576,-1.36426 -0.485759,-0.53744 -1.229901,-0.6718 -0.547771,-0.10335 -2.201419,-0.10335 z"
         id="path22843"
         style="fill:#252525;fill-opacity:1" />
      <path
         d="m 43.935293,282.59067 v -15.15156 h 6.438894 q 2.428796,0 3.524338,0.41342 1.105878,0.40307 1.767337,1.44694 0.661459,1.04386 0.661459,2.38745 0,1.70533 -1.002524,2.82154 -1.002524,1.10588 -2.997238,1.39527 0.992189,0.57877 1.632978,1.27124 0.651124,0.69246 1.746666,2.4598 l 1.850019,2.9559 h -3.658697 l -2.211755,-3.29696 q -1.178224,-1.76734 -1.612307,-2.22209 -0.434083,-0.46509 -0.919842,-0.63046 -0.485759,-0.1757 -1.53996,-0.1757 h -0.620118 v 6.32521 z m 3.05925,-8.74367 h 2.263431 q 2.20142,0 2.749191,-0.18603 0.547771,-0.18604 0.85783,-0.64079 0.310059,-0.45476 0.310059,-1.13689 0,-0.76481 -0.413412,-1.2299 -0.403077,-0.47542 -1.147219,-0.59944 -0.372071,-0.0517 -2.232425,-0.0517 h -2.387455 z"
         id="path22845"
         style="fill:#252525;fill-opacity:1" />
      <path
         d="m 59.210872,282.59067 v -15.15156 h 11.234475 v 2.56316 h -8.175225 v 3.35897 h 7.606783 v 2.55282 h -7.606783 v 4.12379 h 8.464613 v 2.55282 z"
         id="path22847"
         style="fill:#252525;fill-opacity:1" />
    </g>
    <g
       aria-label="IN"
       id="text4513-5-8"
       style="font-weight:bold;font-size:21.1667px;line-height:1.25;font-family:Arial;-inkscape-font-specification:'Arial, Bold';font-variant-ligatures:none;text-align:center;text-anchor:middle;display:inline;fill:#252525;fill-opacity:1;stroke-width:2.64583">
      <path
         d="m 54.487509,849.04724 v -15.15155 h 3.05925 v 15.15155 z"
         id="path22838"
         style="fill:#252525;fill-opacity:1" />
      <path
         d="m 60.49232,849.04724 v -15.15155 h 2.976567 l 6.201182,10.11826 v -10.11826 h 2.842208 v 15.15155 h -3.069585 l -6.108164,-9.88055 v 9.88055 z"
         id="path22840"
         style="fill:#252525;fill-opacity:1" />
    </g>
    <g
       aria-label="AMP"
       id="text4513-5-4"
       style="font-weight:bold;font-size:21.1667px;line-height:1.25;font-family:Arial;-inkscape-font-specification:'Arial, Bold';font-variant-ligatures:none;text-align:center;text-anchor:middle;display:inline;fill:#252525;fill-opacity:1;stroke-width:2.64583">
      <path
         d="m 42.441844,304.1116 h -3.327967 l -1.322919,-3.44165 h -6.056487 l -1.250572,3.44165 h -3.245285 l 5.901458,-15.15155 h 3.23495 z m -5.63274,-5.99447 -2.087731,-5.62241 -2.04639,5.62241 z"
         id="path22831"
         style="fill:#252525;fill-opacity:1" />
      <path
         d="m 44.023146,304.1116 v -15.15155 h 4.578539 l 2.749191,10.3353 2.718185,-10.3353 h 4.588874 v 15.15155 h -2.842208 v -11.92694 l -3.007573,11.92694 h -2.945562 l -2.997237,-11.92694 v 11.92694 z"
         id="path22833"
         style="fill:#252525;fill-opacity:1" />
      <path
         d="m 61.696512,304.1116 v -15.15155 h 4.909269 q 2.790532,0 3.638027,0.22738 1.302248,0.34106 2.180749,1.48828 0.8785,1.13688 0.8785,2.94556 0,1.39527 -0.506429,2.34611 -0.50643,0.95085 -1.291913,1.49862 -0.775148,0.53744 -1.581302,0.71314 -1.095542,0.21704 -3.172938,0.21704 h -1.994713 v 5.71542 z m 3.05925,-12.5884 v 4.29949 h 1.674319 q 1.808678,0 2.418461,-0.23771 0.609783,-0.23771 0.950848,-0.74414 0.3514,-0.50643 0.3514,-1.17823 0,-0.82682 -0.485759,-1.36426 -0.485759,-0.53743 -1.229901,-0.67179 -0.547771,-0.10336 -2.20142,-0.10336 z"
         id="path22835"
         style="fill:#252525;fill-opacity:1" />
    </g>
    <g
       aria-label="STAGE"
       id="text4513-5-9"
       style="font-weight:bold;font-size:21.1667px;line-height:1.25;font-family:Arial;-inkscape-font-specification:'Arial, Bold';font-variant-ligatures:none;text-align:center;text-anchor:middle;display:inline;fill:#252525;fill-opacity:1;stroke-width:2.64583">
      <path
         d="m 153.09139,277.65557 2.97656,-0.28939 q 0.26872,1.49862 1.08521,2.20142 0.82682,0.7028 2.22209,0.7028 1.47795,0 2.22209,-0.62012 0.75448,-0.63045 0.75448,-1.46761 0,-0.53743 -0.3204,-0.90951 -0.31006,-0.3824 -1.09554,-0.66145 -0.53744,-0.18604 -2.44947,-0.66146 -2.4598,-0.60979 -3.45199,-1.49862 -1.39526,-1.25057 -1.39526,-3.04892 0,-1.15755 0.65112,-2.16008 0.66146,-1.01286 1.89136,-1.53996 1.24024,-0.5271 2.9869,-0.5271 2.85255,0 4.28915,1.25058 1.44695,1.25057 1.51929,3.3383 l -3.05925,0.13436 q -0.19637,-1.16789 -0.84749,-1.67432 -0.64079,-0.51677 -1.9327,-0.51677 -1.33326,0 -2.08773,0.54777 -0.48576,0.3514 -0.48576,0.94052 0,0.53743 0.45475,0.91984 0.57878,0.48576 2.8112,1.01286 2.23243,0.5271 3.29696,1.09554 1.07488,0.55811 1.67432,1.53996 0.60979,0.97152 0.60979,2.40813 0,1.30224 -0.72347,2.43913 -0.72348,1.13688 -2.04639,1.69499 -1.32292,0.54777 -3.29697,0.54777 -2.87321,0 -4.41317,-1.32292 -1.53996,-1.33325 -1.83968,-3.87574 z"
         id="path22820"
         style="fill:#252525;fill-opacity:1" />
      <path
         d="m 171.39521,282.58551 v -12.5884 h -4.49586 v -2.56315 h 12.04063 v 2.56315 h -4.48552 v 12.5884 z"
         id="path22822"
         style="fill:#252525;fill-opacity:1" />
      <path
         d="m 193.00632,282.58551 h -3.32796 l -1.32292,-3.44166 h -6.05649 l -1.25057,3.44166 h -3.24529 l 5.90146,-15.15155 h 3.23495 z m -5.63274,-5.99448 -2.08773,-5.6224 -2.04639,5.6224 z"
         id="path22824"
         style="fill:#252525;fill-opacity:1" />
      <path
         d="m 201.67765,277.01478 v -2.55282 h 6.59392 v 6.03582 q -0.96118,0.93018 -2.79053,1.64331 -1.81902,0.7028 -3.68971,0.7028 -2.37712,0 -4.14445,-0.99219 -1.76734,-1.00252 -2.65618,-2.85254 -0.88883,-1.86035 -0.88883,-4.0411 0,-2.36679 0.99219,-4.20647 0.99219,-1.83969 2.90422,-2.82154 1.45728,-0.75448 3.62769,-0.75448 2.82154,0 4.40284,1.18856 1.59163,1.17823 2.04639,3.26596 l -3.03858,0.56844 q -0.3204,-1.11621 -1.20923,-1.757 -0.8785,-0.65112 -2.20142,-0.65112 -2.00505,0 -3.19361,1.27124 -1.17822,1.27124 -1.17822,3.77238 0,2.69752 1.19889,4.05144 1.1989,1.34359 3.14193,1.34359 0.96119,0 1.92237,-0.37207 0.97152,-0.38241 1.66398,-0.91984 v -1.92237 z"
         id="path22826"
         style="fill:#252525;fill-opacity:1" />
      <path
         d="m 211.09311,282.58551 v -15.15155 h 11.23447 v 2.56315 h -8.17522 v 3.35897 h 7.60678 v 2.55282 h -7.60678 v 4.12379 h 8.46461 v 2.55282 z"
         id="path22828"
         style="fill:#252525;fill-opacity:1" />
    </g>
    <g
       aria-label="STAGES"
       id="text4513-5-9-7"
       style="font-weight:bold;font-size:21.1667px;line-height:1.25;font-family:Arial;-inkscape-font-specification:'Arial, Bold';font-variant-ligatures:none;text-align:center;text-anchor:middle;display:inline;fill:#252525;fill-opacity:1;stroke-width:2.64583">
      <path
         d="m 21.667753,145.76031 2.976567,-0.28939 q 0.268718,1.49862 1.085207,2.20142 0.826824,0.7028 2.22209,0.7028 1.477949,0 2.22209,-0.62012 0.754478,-0.63045 0.754478,-1.46761 0,-0.53744 -0.320395,-0.90951 -0.310059,-0.38241 -1.095542,-0.66146 -0.537436,-0.18603 -2.449467,-0.66146 -2.459802,-0.60978 -3.451991,-1.49862 -1.395266,-1.25057 -1.395266,-3.04891 0,-1.15756 0.651124,-2.16008 0.66146,-1.01286 1.891361,-1.53996 1.240236,-0.5271 2.986902,-0.5271 2.852544,0 4.289151,1.25057 1.446942,1.25057 1.51929,3.3383 l -3.05925,0.13436 q -0.196371,-1.16789 -0.847495,-1.67432 -0.640789,-0.51676 -1.932702,-0.51676 -1.333254,0 -2.087731,0.54777 -0.485759,0.3514 -0.485759,0.94051 0,0.53744 0.454753,0.91984 0.578777,0.48576 2.811203,1.01286 2.232425,0.5271 3.296961,1.09555 1.074872,0.5581 1.674319,1.53996 0.609783,0.97152 0.609783,2.40812 0,1.30225 -0.723471,2.43913 -0.723471,1.13689 -2.04639,1.69499 -1.322919,0.54777 -3.296962,0.54777 -2.873214,0 -4.413174,-1.32291 -1.53996,-1.33326 -1.839684,-3.87574 z"
         id="path22807"
         style="fill:#252525;fill-opacity:1" />
      <path
         d="m 39.971575,150.69025 v -12.5884 h -4.495857 v -2.56316 h 12.040628 v 2.56316 h -4.485522 v 12.5884 z"
         id="path22809"
         style="fill:#252525;fill-opacity:1" />
      <path
         d="m 61.582692,150.69025 h -3.327968 l -1.322918,-3.44166 h -6.056488 l -1.250572,3.44166 h -3.245285 l 5.901458,-15.15156 h 3.23495 z m -5.63274,-5.99448 -2.087731,-5.6224 -2.04639,5.6224 z"
         id="path22811"
         style="fill:#252525;fill-opacity:1" />
      <path
         d="m 70.254013,145.11952 v -2.55282 h 6.593924 v 6.03582 q -0.961184,0.93017 -2.790532,1.64331 -1.819013,0.7028 -3.689703,0.7028 -2.37712,0 -4.144457,-0.99219 -1.767337,-1.00252 -2.656173,-2.85254 -0.888836,-1.86036 -0.888836,-4.04111 0,-2.36678 0.992189,-4.20647 0.99219,-1.83968 2.904221,-2.82153 1.457277,-0.75448 3.627691,-0.75448 2.821538,0 4.402839,1.18856 1.591637,1.17822 2.04639,3.26596 l -3.038579,0.56844 q -0.320395,-1.11622 -1.209231,-1.757 -0.8785,-0.65113 -2.201419,-0.65113 -2.005049,0 -3.193609,1.27124 -1.178224,1.27125 -1.178224,3.77239 0,2.69751 1.198895,4.05144 1.198895,1.34359 3.141932,1.34359 0.961183,0 1.922366,-0.37207 0.971519,-0.38241 1.663984,-0.91985 v -1.92236 z"
         id="path22813"
         style="fill:#252525;fill-opacity:1" />
      <path
         d="m 79.669475,150.69025 v -15.15156 h 11.234474 v 2.56316 h -8.175225 v 3.35897 h 7.606783 v 2.55282 h -7.606783 v 4.12379 h 8.464614 v 2.55282 z"
         id="path22815"
         style="fill:#252525;fill-opacity:1" />
      <path
         d="m 93.01235,145.76031 2.976567,-0.28939 q 0.268718,1.49862 1.085207,2.20142 0.826824,0.7028 2.22209,0.7028 1.477946,0 2.222086,-0.62012 0.75448,-0.63045 0.75448,-1.46761 0,-0.53744 -0.32039,-0.90951 -0.31006,-0.38241 -1.09555,-0.66146 -0.53743,-0.18603 -2.449462,-0.66146 -2.459802,-0.60978 -3.451991,-1.49862 -1.395266,-1.25057 -1.395266,-3.04891 0,-1.15756 0.651124,-2.16008 0.66146,-1.01286 1.891361,-1.53996 1.240236,-0.5271 2.986902,-0.5271 2.852542,0 4.289152,1.25057 1.44694,1.25057 1.51929,3.3383 l -3.05925,0.13436 q -0.19637,-1.16789 -0.8475,-1.67432 -0.64078,-0.51676 -1.932698,-0.51676 -1.333254,0 -2.087731,0.54777 -0.485759,0.3514 -0.485759,0.94051 0,0.53744 0.454753,0.91984 0.578777,0.48576 2.811203,1.01286 2.232422,0.5271 3.296962,1.09555 1.07487,0.5581 1.67432,1.53996 0.60978,0.97152 0.60978,2.40812 0,1.30225 -0.72347,2.43913 -0.72347,1.13689 -2.04639,1.69499 -1.32292,0.54777 -3.296962,0.54777 -2.873214,0 -4.413174,-1.32291 -1.53996,-1.33326 -1.839684,-3.87574 z"
         id="path22817"
         style="fill:#252525;fill-opacity:1" />
    </g>
    <g
       aria-label="SAMPLE"
       id="text4513-5-9-7-4"
       style="font-weight:bold;font-size:21.1667px;line-height:1.25;font-family:Arial;-inkscape-font-specification:'Arial, Bold';font-variant-ligatures:none;text-align:center;text-anchor:middle;display:inline;fill:#252525;fill-opacity:1;stroke-width:2.64583"
       transform="translate(0.26412691)">
      <path
         d="m 131.16964,145.76031 2.97657,-0.28939 q 0.26872,1.49862 1.08521,2.20142 0.82682,0.7028 2.22209,0.7028 1.47795,0 2.22209,-0.62012 0.75448,-0.63045 0.75448,-1.46761 0,-0.53744 -0.3204,-0.90951 -0.31006,-0.38241 -1.09554,-0.66146 -0.53744,-0.18603 -2.44947,-0.66146 -2.4598,-0.60978 -3.45199,-1.49862 -1.39526,-1.25057 -1.39526,-3.04891 0,-1.15756 0.65112,-2.16008 0.66146,-1.01286 1.89136,-1.53996 1.24024,-0.5271 2.9869,-0.5271 2.85255,0 4.28915,1.25057 1.44695,1.25057 1.51929,3.3383 l -3.05925,0.13436 q -0.19637,-1.16789 -0.84749,-1.67432 -0.64079,-0.51676 -1.9327,-0.51676 -1.33326,0 -2.08773,0.54777 -0.48576,0.3514 -0.48576,0.94051 0,0.53744 0.45475,0.91984 0.57878,0.48576 2.8112,1.01286 2.23243,0.5271 3.29696,1.09555 1.07487,0.5581 1.67432,1.53996 0.60979,0.97152 0.60979,2.40812 0,1.30225 -0.72348,2.43913 -0.72347,1.13689 -2.04639,1.69499 -1.32291,0.54777 -3.29696,0.54777 -2.87321,0 -4.41317,-1.32291 -1.53996,-1.33326 -1.83969,-3.87574 z"
         id="path22794"
         style="fill:#252525;fill-opacity:1" />
      <path
         d="m 159.72609,150.69025 h -3.32797 l -1.32292,-3.44166 h -6.05649 l -1.25057,3.44166 h -3.24528 l 5.90145,-15.15156 h 3.23495 z m -5.63274,-5.99448 -2.08773,-5.6224 -2.04639,5.6224 z"
         id="path22796"
         style="fill:#252525;fill-opacity:1" />
      <path
         d="m 161.30739,150.69025 v -15.15156 h 4.57854 l 2.74919,10.33531 2.71818,-10.33531 h 4.58888 v 15.15156 h -2.84221 v -11.92694 l -3.00757,11.92694 h -2.94556 l -2.99724,-11.92694 v 11.92694 z"
         id="path22798"
         style="fill:#252525;fill-opacity:1" />
      <path
         d="m 178.98076,150.69025 v -15.15156 h 4.90927 q 2.79053,0 3.63802,0.22738 1.30225,0.34106 2.18075,1.48828 0.8785,1.13689 0.8785,2.94556 0,1.39527 -0.50643,2.34612 -0.50643,0.95085 -1.29191,1.49862 -0.77515,0.53743 -1.5813,0.71313 -1.09554,0.21704 -3.17294,0.21704 h -1.99471 v 5.71543 z m 3.05925,-12.5884 v 4.29948 h 1.67432 q 1.80867,0 2.41846,-0.23771 0.60978,-0.23771 0.95084,-0.74414 0.3514,-0.50643 0.3514,-1.17822 0,-0.82683 -0.48575,-1.36426 -0.48576,-0.53744 -1.22991,-0.6718 -0.54777,-0.10335 -2.20141,-0.10335 z"
         id="path22800"
         style="fill:#252525;fill-opacity:1" />
      <path
         d="m 193.18146,150.69025 v -15.02753 h 3.05925 v 12.47471 h 7.60678 v 2.55282 z"
         id="path22802"
         style="fill:#252525;fill-opacity:1" />
      <path
         d="m 206.02824,150.69025 v -15.15156 h 11.23448 v 2.56316 h -8.17523 v 3.35897 h 7.60678 v 2.55282 h -7.60678 v 4.12379 h 8.46462 v 2.55282 z"
         id="path22804"
         style="fill:#252525;fill-opacity:1" />
    </g>
    <g
       aria-label="OVER"
       id="text4513-5-9-7-4-7"
       style="font-weight:bold;font-size:21.1667px;line-height:1.25;font-family:Arial;-inkscape-font-specification:'Arial, Bold';font-variant-ligatures:none;text-align:center;text-anchor:middle;display:inline;fill:#252525;fill-opacity:1;stroke-width:2.64583"
       transform="translate(0.26412691)">
      <path
         d="m 144.88459,121.78213 q 0,-2.3151 0.69246,-3.88607 0.51677,-1.15755 1.4056,-2.0774 0.89917,-0.91984 1.96371,-1.36426 1.41594,-0.59944 3.26596,-0.59944 3.34864,0 5.35368,2.07739 2.01539,2.0774 2.01539,5.77744 0,3.66903 -1.99472,5.74642 -1.99471,2.06707 -5.33301,2.06707 -3.37965,0 -5.37436,-2.05673 -1.99471,-2.06706 -1.99471,-5.68442 z m 3.15226,-0.10335 q 0,2.57349 1.18856,3.90674 1.18856,1.32292 3.01791,1.32292 1.82935,0 2.99724,-1.31258 1.17823,-1.32292 1.17823,-3.95842 0,-2.6045 -1.14722,-3.88607 -1.13689,-1.28158 -3.02825,-1.28158 -1.89136,0 -3.04891,1.30225 -1.15756,1.29191 -1.15756,3.90674 z"
         id="path22785"
         style="fill:#252525;fill-opacity:1" />
      <path
         d="m 165.83425,129.26489 -5.4157,-15.15155 h 3.31763 l 3.8344,11.2138 3.71037,-11.2138 h 3.24529 l -5.42604,15.15155 z"
         id="path22787"
         style="fill:#252525;fill-opacity:1" />
      <path
         d="m 176.08687,129.26489 v -15.15155 h 11.23447 v 2.56315 h -8.17522 v 3.35898 h 7.60678 v 2.55282 h -7.60678 v 4.12378 h 8.46461 v 2.55282 z"
         id="path22789"
         style="fill:#252525;fill-opacity:1" />
      <path
         d="m 190.21523,129.26489 v -15.15155 h 6.43889 q 2.4288,0 3.52434,0.41341 1.10588,0.40308 1.76734,1.44694 0.66146,1.04387 0.66146,2.38746 0,1.70532 -1.00253,2.82154 -1.00252,1.10587 -2.99724,1.39526 0.99219,0.57878 1.63298,1.27124 0.65113,0.69247 1.74667,2.45981 l 1.85002,2.95589 h -3.6587 l -2.21175,-3.29696 q -1.17823,-1.76734 -1.61231,-2.22209 -0.43408,-0.46509 -0.91984,-0.63045 -0.48576,-0.1757 -1.53996,-0.1757 h -0.62012 v 6.3252 z m 3.05925,-8.74366 h 2.26343 q 2.20142,0 2.74919,-0.18604 0.54777,-0.18603 0.85783,-0.64079 0.31006,-0.45475 0.31006,-1.13688 0,-0.76481 -0.41341,-1.2299 -0.40308,-0.47543 -1.14722,-0.59945 -0.37207,-0.0517 -2.23243,-0.0517 h -2.38745 z"
         id="path22791"
         style="fill:#252525;fill-opacity:1" />
    </g>
    <g
       aria-label="AMP"
       id="text4513-5-4-6"
       style="font-weight:bold;font-size:21.1667px;line-height:1.25;font-family:Arial;-inkscape-font-specification:'Arial, Bold';font-variant-ligatures:none;text-align:center;text-anchor:middle;display:inline;fill:#252525;fill-opacity:1;stroke-width:2.64583">
      <path
         d="m 180.02518,304.1116 h -3.32796 l -1.32292,-3.44165 h -6.05649 l -1.25057,3.44165 h -3.24529 l 5.90146,-15.15155 h 3.23495 z m -5.63274,-5.99447 -2.08773,-5.62241 -2.04639,5.62241 z"
         id="path22778"
         style="fill:#252525;fill-opacity:1" />
      <path
         d="m 181.60649,304.1116 v -15.15155 h 4.57854 l 2.74919,10.3353 2.71818,-10.3353 h 4.58887 v 15.15155 h -2.8422 v -11.92694 l -3.00758,11.92694 h -2.94556 l -2.99724,-11.92694 v 11.92694 z"
         id="path22780"
         style="fill:#252525;fill-opacity:1" />
      <path
         d="m 199.27985,304.1116 v -15.15155 h 4.90927 q 2.79053,0 3.63803,0.22738 1.30225,0.34106 2.18075,1.48828 0.8785,1.13688 0.8785,2.94556 0,1.39527 -0.50643,2.34611 -0.50643,0.95085 -1.29192,1.49862 -0.77514,0.53744 -1.5813,0.71314 -1.09554,0.21704 -3.17293,0.21704 h -1.99472 v 5.71542 z m 3.05925,-12.5884 v 4.29949 h 1.67432 q 1.80868,0 2.41846,-0.23771 0.60978,-0.23771 0.95085,-0.74414 0.3514,-0.50643 0.3514,-1.17823 0,-0.82682 -0.48576,-1.36426 -0.48576,-0.53743 -1.2299,-0.67179 -0.54777,-0.10336 -2.20142,-0.10336 z"
         id="path22782"
         style="fill:#252525;fill-opacity:1" />
    </g>
    <g
       aria-label="WAVE"
       id="text15335"
       style="font-weight:bold;font-size:31.75px;line-height:1.25;font-family:Arial;-inkscape-font-specification:'Arial, Bold';font-variant-ligatures:none;text-align:center;text-anchor:middle;display:inline;fill:#252525;fill-opacity:1;stroke-width:2.64583">
      <path
         d="M 79.762573,48.265507 74.336548,25.538212 h 4.697388 l 3.426147,15.61145 4.154785,-15.61145 h 5.457031 l 3.984253,15.875 3.48816,-15.875 h 4.619868 l -5.519038,22.727295 h -4.86792 L 89.250366,31.274296 84.739014,48.265507 Z"
         id="path22769"
         style="fill:#252525;fill-opacity:1" />
      <path
         d="m 125.24817,48.265507 h -4.99194 l -1.98438,-5.162476 h -9.08472 l -1.87585,5.162476 h -4.86792 l 8.85217,-22.727295 h 4.85242 z m -8.4491,-8.991699 -3.13159,-8.433594 -3.06958,8.433594 z"
         id="path22771"
         style="fill:#252525;fill-opacity:1" />
      <path
         d="m 131.12378,48.265507 -8.12354,-22.727295 h 4.97644 l 5.75159,16.820679 5.56555,-16.820679 h 4.86792 l -8.13903,22.727295 z"
         id="path22773"
         style="fill:#252525;fill-opacity:1" />
      <path
         d="M 146.50269,48.265507 V 25.538212 h 16.85168 v 3.844726 h -12.26282 v 5.038453 h 11.41016 v 3.829223 h -11.41016 v 6.185669 h 12.6969 v 3.829224 z"
         id="path22775"
         style="fill:#252525;fill-opacity:1" />
    </g>
    <g
       aria-label="FOLDER"
       id="text15335-2"
       style="font-weight:bold;font-size:31.75px;line-height:1.25;font-family:Arial;-inkscape-font-specification:'Arial, Bold';font-variant-ligatures:none;text-align:center;text-anchor:middle;display:inline;fill:#252525;fill-opacity:1;stroke-width:2.64583">
      <path
         d="M 55.058647,81.791862 V 59.064568 h 15.580444 v 3.844726 H 59.647514 v 5.379517 h 9.487793 v 3.844726 h -9.487793 v 9.658325 z"
         id="path22756"
         style="fill:#252525;fill-opacity:1" />
      <path
         d="m 73.491631,70.567741 q 0,-3.472656 1.038696,-5.829101 0.775146,-1.736328 2.108398,-3.116089 1.348755,-1.379761 2.945557,-2.046387 2.123901,-0.89917 4.898926,-0.89917 5.022949,0 8.030517,3.116089 3.023072,3.116089 3.023072,8.666138 0,5.50354 -2.992066,8.619629 -2.992065,3.100586 -7.999512,3.100586 -5.069458,0 -8.061523,-3.085083 -2.992065,-3.100586 -2.992065,-8.526612 z m 4.728393,-0.155029 q 0,3.86023 1.782837,5.860108 1.782837,1.984375 4.526855,1.984375 2.744019,0 4.49585,-1.968873 1.767334,-1.984375 1.767334,-5.937622 0,-3.906738 -1.720825,-5.829101 -1.705322,-1.922363 -4.542359,-1.922363 -2.837036,0 -4.573364,1.953369 -1.736328,1.937866 -1.736328,5.860107 z"
         id="path22758"
         style="fill:#252525;fill-opacity:1" />
      <path
         d="M 99.241997,81.791862 V 59.250603 h 4.588863 v 18.712036 h 11.41016 v 3.829223 z"
         id="path22760"
         style="fill:#252525;fill-opacity:1" />
      <path
         d="m 118.49664,59.064568 h 8.38708 q 2.83704,0 4.32532,0.434082 1.99988,0.589111 3.42615,2.092895 1.42626,1.503784 2.17041,3.689697 0.74414,2.170411 0.74414,5.364014 0,2.80603 -0.69764,4.836914 -0.85266,2.480469 -2.43396,4.015259 -1.19372,1.16272 -3.22461,1.813843 -1.51928,0.48059 -4.06176,0.48059 h -8.63513 z m 4.58886,3.844726 v 15.053345 h 3.42615 q 1.92236,0 2.77502,-0.217041 1.11622,-0.279053 1.84485,-0.945679 0.74414,-0.666626 1.20923,-2.185913 0.46509,-1.53479 0.46509,-4.170288 0,-2.635498 -0.46509,-4.046265 -0.46509,-1.410766 -1.30224,-2.201416 -0.83716,-0.790649 -2.12391,-1.069702 -0.96118,-0.217041 -3.76721,-0.217041 z"
         id="path22762"
         style="fill:#252525;fill-opacity:1" />
      <path
         d="M 141.44097,81.791862 V 59.064568 h 16.85169 v 3.844726 h -12.26282 v 5.038452 h 11.41015 v 3.829224 h -11.41015 v 6.185669 h 12.6969 v 3.829223 z"
         id="path22764"
         style="fill:#252525;fill-opacity:1" />
      <path
         d="M 162.63348,81.791862 V 59.064568 h 9.65832 q 3.64319,0 5.2865,0.620117 1.65881,0.604614 2.651,2.17041 0.99219,1.565796 0.99219,3.581177 0,2.557983 -1.50379,4.232299 -1.50378,1.658814 -4.49584,2.092896 1.48828,0.868164 2.44946,1.90686 0.97668,1.038697 2.61999,3.689698 l 2.77503,4.433837 h -5.48804 l -3.31763,-4.945434 q -1.76733,-2.651001 -2.41845,-3.33313 -0.65113,-0.697632 -1.37976,-0.945679 -0.72864,-0.263549 -2.30994,-0.263549 h -0.93018 v 9.487792 z m 4.58886,-13.115478 h 3.39515 q 3.30212,0 4.12377,-0.279053 0.82166,-0.279052 1.28675,-0.961181 0.46509,-0.682129 0.46509,-1.705323 0,-1.147216 -0.62012,-1.844848 -0.60462,-0.713135 -1.72083,-0.89917 -0.5581,-0.07751 -3.34863,-0.07751 h -3.58118 z"
         id="path22766"
         style="fill:#252525;fill-opacity:1" />
    </g>
  </g>
  <g
     inkscape:groupmode="layer"
     id="layer7"
     inkscape:label="Alternate Solid"
     style="display:inline" />
  <g
     inkscape:groupmode="layer"
     id="layer6"
     inkscape:label="Line"
     style="display:inline">
    <path
       style="display:inline;fill:none;stroke:#252525;stroke-width:2.64583px;stroke-linecap:butt;stroke-linejoin:miter;stroke-opacity:1"
       d="m 188.16504,523.87501 v 157.4271"
       id="path18049-6"
       sodipodi:nodetypes="cc" />
    <path
       style="display:inline;fill:none;stroke:#252525;stroke-width:2.64583px;stroke-linecap:butt;stroke-linejoin:miter;stroke-opacity:1"
       d="m 50.582031,523.87503 v 157.4271"
       id="path18049-6-1"
       sodipodi:nodetypes="cc" />
    <path
       style="color:#000000;fill:#252525;stroke-dasharray:5.29166, 5.29166;-inkscape-stroke:none"
       d="m 49.259766,349.25 v 5.29102 h 2.644531 V 349.25 Z m 0,10.58398 v 5.29102 h 2.644531 v -5.29102 z m 0,10.58204 v 5.29296 h 2.644531 v -5.29296 z m 0,10.58398 v 5.29102 h 2.644531 V 381 Z m 0,10.58398 v 5.29102 h 2.644531 v -5.29102 z m 0,10.58204 v 5.29296 h 2.644531 v -5.29296 z m 0,10.58398 v 5.29102 h 2.644531 V 412.75 Z m 0,10.58398 v 5.29102 h 2.644531 v -5.29102 z m 0,10.58204 v 5.29296 h 2.644531 v -5.29296 z m 0,10.58398 v 5.29102 h 2.644531 V 444.5 Z m 0,10.58398 v 5.29102 h 2.644531 v -5.29102 z m 0,10.58204 v 5.29296 h 2.644531 v -5.29296 z m 0,10.58398 v 5.29102 h 2.644531 V 476.25 Z m 0,10.58398 v 5.29102 h 2.644531 v -5.29102 z m 0,10.58204 v 5.29296 h 2.644531 v -5.29296 z m 0,10.58398 v 5.29102 h 2.644531 V 508 Z m 0,10.58398 v 5.29102 h 2.644531 v -5.29102 z"
       id="path18049-6-1-0" />
    <path
       style="color:#000000;fill:#252525;stroke-dasharray:5.29166, 5.29166;-inkscape-stroke:none"
       d="M 118.05078,439.20898 V 444.5 h 2.64649 v -5.29102 z m 0,10.58204 v 5.29296 h 2.64649 v -5.29296 z m 0,10.58398 v 5.29102 h 2.64649 V 460.375 Z m 0,10.58398 V 476.25 h 2.64649 v -5.29102 z m 0,10.58204 v 5.29296 h 2.64649 v -5.29296 z m 0,10.58398 v 5.29102 h 2.64649 V 492.125 Z m 0,10.58398 V 508 h 2.64649 v -5.29102 z m 0,10.58204 v 5.29296 h 2.64649 v -5.29296 z m 0,10.58398 v 5.29102 h 2.64649 V 523.875 Z m 0,10.58398 V 539.75 h 2.64649 v -5.29102 z m 0,10.58204 v 5.29296 h 2.64649 v -5.29296 z m 0,10.58398 v 5.29102 h 2.64649 V 555.625 Z m 0,10.58398 V 571.5 h 2.64649 v -5.29102 z m 0,10.58204 v 5.29296 h 2.64649 v -5.29296 z m 0,10.58398 v 5.29102 h 2.64649 V 587.375 Z m 0,10.58398 V 603.25 h 2.64649 v -5.29102 z m 0,10.58204 v 5.29296 h 2.64649 v -5.29296 z"
       id="path18049-6-1-7" />
    <path
       style="color:#000000;fill:#252525;stroke-dasharray:5.29166, 5.29166;-inkscape-stroke:none"
       d="m 186.8418,349.25 v 5.29102 h 2.64648 V 349.25 Z m 0,10.58398 v 5.29102 h 2.64648 v -5.29102 z m 0,10.58204 v 5.29296 h 2.64648 v -5.29296 z m 0,10.58398 v 5.29102 h 2.64648 V 381 Z m 0,10.58398 v 5.29102 h 2.64648 v -5.29102 z m 0,10.58204 v 5.29296 h 2.64648 v -5.29296 z m 0,10.58398 v 5.29102 h 2.64648 V 412.75 Z m 0,10.58398 v 5.29102 h 2.64648 v -5.29102 z m 0,10.58204 v 5.29296 h 2.64648 v -5.29296 z m 0,10.58398 v 5.29102 h 2.64648 V 444.5 Z m 0,10.58398 v 5.29102 h 2.64648 v -5.29102 z m 0,10.58204 v 5.29296 h 2.64648 v -5.29296 z m 0,10.58398 v 5.29102 h 2.64648 V 476.25 Z m 0,10.58398 v 5.29102 h 2.64648 v -5.29102 z m 0,10.58204 v 5.29296 h 2.64648 v -5.29296 z m 0,10.58398 v 5.29102 h 2.64648 V 508 Z m 0,10.58398 v 5.29102 h 2.64648 v -5.29102 z"
       id="path18049-6-1-06" />
    <path
       style="display:inline;fill:none;stroke:#252525;stroke-width:2.64583px;stroke-linecap:butt;stroke-linejoin:miter;stroke-opacity:1"
       d="M 119.37403,603.25001 V 760.6771"
       id="path18049-6-9"
       sodipodi:nodetypes="cc" />
  </g>
  <g
     inkscape:groupmode="layer"
     id="layer1"
     inkscape:label="Inverse Solid"
     style="display:inline">
    <g
       aria-label="OUT"
       id="text15809"
       style="font-weight:bold;font-size:21.1667px;line-height:1.25;font-family:Arial;-inkscape-font-specification:'Arial, Bold';font-variant-ligatures:none;text-align:center;text-anchor:middle;display:inline;fill:#ede7dc;stroke-width:2.64583"
       transform="translate(34.395962,-15.875001)">
      <path
         d="m 118.56624,857.18112 q 0,-2.31511 0.69247,-3.88607 0.51677,-1.15756 1.4056,-2.0774 0.89917,-0.91984 1.96371,-1.36426 1.41594,-0.59945 3.26595,-0.59945 3.34864,0 5.35369,2.0774 2.01539,2.07739 2.01539,5.77743 0,3.66904 -1.99472,5.74643 -1.99471,2.06706 -5.33301,2.06706 -3.37965,0 -5.37436,-2.05672 -1.99472,-2.06706 -1.99472,-5.68442 z m 3.15227,-0.10335 q 0,2.57349 1.18856,3.90674 1.18856,1.32292 3.01791,1.32292 1.82935,0 2.99724,-1.31258 1.17822,-1.32292 1.17822,-3.95842 0,-2.6045 -1.14722,-3.88608 -1.13688,-1.28158 -3.02824,-1.28158 -1.89136,0 -3.04891,1.30225 -1.15756,1.29192 -1.15756,3.90675 z"
         id="path1671" />
      <path
         d="m 135.62983,849.51233 h 3.05925 v 8.20623 q 0,1.95337 0.11369,2.53215 0.19637,0.93017 0.93018,1.49861 0.74414,0.55811 2.02572,0.55811 1.30224,0 1.9637,-0.5271 0.66146,-0.53744 0.79582,-1.31258 0.13436,-0.77515 0.13436,-2.57349 v -8.38193 h 3.05925 v 7.95818 q 0,2.72852 -0.24805,3.85507 -0.24804,1.12654 -0.91984,1.90169 -0.66146,0.77515 -1.77767,1.24024 -1.11621,0.45475 -2.91456,0.45475 -2.17041,0 -3.29696,-0.49609 -1.11621,-0.50643 -1.76734,-1.30225 -0.65112,-0.80615 -0.85783,-1.68466 -0.29972,-1.30224 -0.29972,-3.84473 z"
         id="path1673" />
      <path
         d="m 154.34706,864.66388 v -12.5884 h -4.49585 v -2.56315 h 12.04063 v 2.56315 h -4.48553 v 12.5884 z"
         id="path1675" />
    </g>
  </g>
  <g
     inkscape:groupmode="layer"
     id="layer8"
     inkscape:label="Inverse Line"
     style="display:inline" />
  <g
     inkscape:groupmode="layer"
     id="layer2"
     inkscape:label="Widget"
     style="display:none">
    <circle
       style="display:inline;fill:#ff0000;stroke:#ff0000;stroke-width:5.15744;stroke-opacity:1"
       id="path1065-7-2-8-1"
       cx="174.625"
       cy="887.67865"
       r="27.848814" />
    <circle
       style="display:inline;fill:#ff0000;stroke:#ff0000;stroke-width:5.15744;stroke-opacity:1"
       id="path1065-7-2-8-1-76"
       cx="50.270836"
       cy="681.30273"
       r="27.848814" />
    <circle
       style="display:inline;fill:#ff0000;stroke:#ff0000;stroke-width:5.15744;stroke-opacity:1"
       id="path1065-7-2-8-1-76-0"
       cx="119.0625"
       cy="760.67786"
       r="27.848814" />
    <circle
       style="display:inline;fill:#ff0000;stroke:#ff0000;stroke-width:5.15744;stroke-opacity:1"
       id="path1065-7-2-8-1-13"
       cx="63.499893"
       cy="887.67865"
       r="27.848814" />
    <circle
       style="display:inline;fill:#ff0000;stroke:#ff0000;stroke-width:5.15744;stroke-opacity:1"
       id="path1065-7-2-8-1-25"
       cx="187.85417"
       cy="681.30273"
       r="27.848814" />
    <circle
       style="display:inline;fill:#ff0000;stroke:#ff0000;stroke-width:5.15744;stroke-opacity:1"
       id="path1065-7-2-8-1-25-3"
       cx="119.0625"
       cy="604.57367"
       r="27.848814" />
    <circle
       style="display:inline;fill:#ff0000;stroke:#ff0000;stroke-width:5.15744;stroke-opacity:1"
       id="path1065-7-2-8-1-0"
       cx="119.0625"
       cy="439.20816"
       r="34.462948" />
    <circle
       style="display:inline;fill:#ff0000;stroke:#ff0000;stroke-width:5.15744;stroke-opacity:1"
       id="path1065-7-2-8-1-0-3"
       cx="50.270836"
       cy="349.24985"
       r="34.462948" />
    <circle
       style="display:inline;fill:#ff0000;stroke:#ff0000;stroke-width:5.15744;stroke-opacity:1"
       id="path1065-7-2-8-1-0-3-9"
       cx="187.85417"
       cy="349.24985"
       r="34.462948" />
    <circle
       style="display:inline;fill:#ff0000;stroke:#ff0000;stroke-width:5.15744;stroke-opacity:1"
       id="path1065-7-2-8-1-0-1"
       cx="50.270836"
       cy="523.87506"
       r="26.525448" />
    <circle
       style="display:inline;fill:#ff0000;stroke:#ff0000;stroke-width:5.15744;stroke-opacity:1"
       id="path1065-7-2-8-1-0-5"
       cx="187.85417"
       cy="523.87506"
       r="26.525448" />
    <rect
       style="display:inline;opacity:0.995935;fill:#ff0000;stroke:none;stroke-width:2.64583"
       id="rect6025"
       width="63.500004"
       height="63.5"
       x="142.875"
       y="158.74892"
       ry="14.210836"
       rx="14.210836" />
    <rect
       style="display:inline;opacity:0.995935;fill:#ff0000;stroke:none;stroke-width:2.64583"
       id="rect6025-8"
       width="63.500004"
       height="63.5"
       x="31.749891"
       y="158.74892"
       ry="14.210836"
       rx="14.210836" />
  </g>
</svg>
