<?xml version="1.0" encoding="UTF-8" standalone="no"?>
<svg
   width="75"
   height="380"
   viewBox="0 0 75 380"
   version="1.1"
   id="svg100"
   sodipodi:docname="AD_ASR_Earth.svg"
   inkscape:version="1.1.1 (3bf5ae0d25, 2021-09-20)"
   xmlns:inkscape="http://www.inkscape.org/namespaces/inkscape"
   xmlns:sodipodi="http://sodipodi.sourceforge.net/DTD/sodipodi-0.dtd"
   xmlns="http://www.w3.org/2000/svg"
   xmlns:svg="http://www.w3.org/2000/svg"
   xmlns:rdf="http://www.w3.org/1999/02/22-rdf-syntax-ns#"
   xmlns:cc="http://creativecommons.org/ns#"
   xmlns:dc="http://purl.org/dc/elements/1.1/">
  <metadata
     id="metadata104">
    <rdf:RDF>
      <cc:Work
         rdf:about="">
        <dc:format>image/svg+xml</dc:format>
        <dc:type
           rdf:resource="http://purl.org/dc/dcmitype/StillImage" />
      </cc:Work>
    </rdf:RDF>
  </metadata>
  <sodipodi:namedview
     pagecolor="#ffffff"
     bordercolor="#666666"
     borderopacity="1"
     objecttolerance="1"
     gridtolerance="1"
     guidetolerance="1"
     inkscape:pageopacity="0"
     inkscape:pageshadow="2"
     inkscape:window-width="1920"
     inkscape:window-height="1057"
     id="namedview102"
     showgrid="false"
     inkscape:zoom="2.2342105"
     inkscape:cx="37.597173"
     inkscape:cy="190"
     inkscape:window-x="1592"
     inkscape:window-y="-8"
     inkscape:window-maximized="1"
     inkscape:current-layer="f45e0130-37b7-4f8b-95b3-6408baa23eb1"
     inkscape:pagecheckerboard="0"
     units="px"
     inkscape:showpageshadow="false"
     showguides="true">
    <inkscape:grid
       type="xygrid"
       id="grid1285"
       visible="true" />
  </sodipodi:namedview>
  <defs
     id="defs7">
    <rect
       x="85"
       y="10"
       width="51.058132"
       height="25"
       id="rect29906" />
    <linearGradient
       id="a8e142bb-541b-4903-be63-d5d069028a5d"
       x1="22.5"
       x2="22.5"
       y2="380"
       gradientUnits="userSpaceOnUse">
      <stop
         offset="0"
         stop-color="#ebebeb"
         id="stop2" />
      <stop
         offset="1"
         stop-color="#e1e1e1"
         id="stop4" />
    </linearGradient>
  </defs>
  <g
     inkscape:groupmode="layer"
     id="layer3"
     inkscape:label="Faceplate">
    <g
       id="aea613ef-74be-49bf-be45-c0734aee674b"
       data-name="FND BG"
       style="fill:#423932;fill-opacity:1"
       transform="scale(1.6666667,1)">
      <rect
         width="45"
         height="380"
         fill="url(#a8e142bb-541b-4903-be63-d5d069028a5d)"
         id="rect9"
         style="fill:#423932;fill-opacity:1"
         x="0"
         y="0" />
    </g>
  </g>
  <g
     inkscape:groupmode="layer"
     id="layer2"
     inkscape:label="Brand">
    <g
       id="g42796"
       transform="matrix(0.30458296,0,0,0.30458296,14.437551,-12.68508)"
       style="fill:#ff0000">
      <g
         aria-label="enom"
         id="text4270-27"
         style="font-size:49.3889px;line-height:1.25;font-family:'NECK ROMANCER';-inkscape-font-specification:'NECK ROMANCER, Normal';font-variant-ligatures:none;text-align:center;text-anchor:middle;fill:#ff0000;stroke-width:2.64583">
        <path
           d="m 46.609141,1249.244 q 0,1.1576 0,3.4245 3.183269,0 9.453344,0 -1.639866,0.5787 -2.990343,1.2058 -1.350478,0.627 -2.363337,1.688 -1.350477,0 -4.051433,0 0,1.4952 0.434082,2.5563 0.385851,1.1093 1.832792,1.1093 2.266873,0 6.80062,0 0.482313,-0.1447 0.868164,-0.627 0.337619,-0.5305 0.627007,-1.7363 0,2.0257 0,6.1254 -3.520888,0 -10.562665,0 -1.543403,0 -2.652724,-2.2187 -1.109321,-2.1704 -1.109321,-6.3183 0,-1.9775 0,-5.836 -0.385851,-1.3504 -1.881023,-2.1221 -1.495171,-0.7235 -3.569119,-1.2058 6.607694,0 19.774852,0 0,2.9421 0,8.7781 -1.205783,-2.701 -2.218642,-3.6656 -1.012858,-0.9646 -2.700955,-1.1093 -0.916396,-0.097 -2.170411,-0.097 -1.205783,0.048 -2.845649,0.048 -0.241157,0 -0.675239,0 z"
           id="path42762"
           style="fill:#ff0000" />
        <path
           d="m 81.576869,1245.2891 q 0,5.8842 0,17.7009 0,3.0868 -0.144694,6.0771 -0.09646,3.0386 -0.337619,5.9325 -0.385851,-3.7138 -0.964627,-6.9936 -0.530545,-3.3279 -2.025717,-5.016 0,-2.9904 0,-8.9228 -0.241157,-1.3505 -0.72347,-2.2187 -0.482314,-0.8681 -1.06109,-1.3987 -1.109321,-1.0128 -2.411567,-1.1093 -1.350478,-0.097 -2.266874,-0.097 -0.482313,0 -1.44694,0 0,4.582 0,13.746 0,3.0868 -0.09646,6.0771 -0.144694,3.0386 -0.385851,5.9325 -0.38585,-3.7138 -0.916395,-6.9936 -0.578776,-3.3279 -2.025717,-5.016 0,-4.8232 0,-14.373 -0.385851,-1.3504 -1.881022,-2.1221 -1.495172,-0.7235 -3.56912,-1.2058 6.752389,0 20.257166,0 z"
           id="path42764"
           style="fill:#ff0000" />
        <path
           d="m 104.19737,1249.0511 q 0,3.3762 0,10.1768 0,1.5434 -1.92925,2.6528 -1.92926,1.1093 -6.077152,1.1093 -4.196128,0 -6.125382,-1.1093 -1.929254,-1.1094 -1.929254,-2.6528 0,-3.3762 0,-10.1768 0,-1.5434 1.929254,-2.6527 1.929254,-1.1093 6.125382,-1.1093 4.147892,0 6.077152,1.1093 1.92925,1.1093 1.92925,2.6527 z m -3.76204,7.91 q 0,-1.8811 0,-5.6431 0,-1.6881 -1.254019,-1.9775 -1.205783,-0.2894 -2.990343,-0.2894 -1.832792,0 -3.038575,0.2894 -1.254015,0.2894 -1.254015,1.9775 0,1.881 0,5.6431 0,1.6881 1.254015,1.9774 1.205783,0.2894 3.038575,0.2894 1.78456,0 2.990343,-0.2894 1.254019,-0.2893 1.254019,-1.9774 z"
           id="path42766"
           style="fill:#ff0000" />
        <path
           d="m 142.34837,1245.2891 q -2.02572,0.4823 -3.52089,1.2058 -1.5434,0.7717 -1.88102,2.1221 0,4.7749 0,14.373 -1.49517,1.6881 -2.02572,5.016 -0.57878,3.2798 -0.96463,6.9936 -0.24115,-2.8939 -0.33762,-5.9325 -0.14469,-2.9903 -0.14469,-6.0771 0,-4.582 0,-13.746 -0.48231,0 -1.39871,0 -0.53054,0 -1.15755,0 -0.62701,0 -1.30225,0.1447 -1.25401,0.2412 -2.41157,1.2058 -1.15755,0.9646 -1.63986,3.4727 0,2.9903 0,8.9228 -0.1447,0.627 -0.28939,1.1093 -0.0965,0.4823 -0.19292,0.8199 -0.53055,1.9775 -0.38586,1.3505 0.19293,-0.627 -0.28938,1.1576 -0.0965,0.3376 -0.24116,0.8681 -0.14469,0.5306 -0.33762,1.3023 -0.14469,-0.6753 -0.28939,-1.2058 -0.14469,-0.4823 -0.24115,-0.8199 -0.53055,-2.0258 -0.33762,-1.3023 0.19292,0.7717 -0.43409,-1.6881 -0.0482,-0.2894 -0.19292,-0.7235 -0.0965,-0.3858 -0.19293,-0.8681 0,-2.9904 0,-8.9228 -0.28939,-1.3505 -0.7717,-2.2187 -0.48231,-0.8681 -1.06109,-1.3987 -1.10932,-1.0128 -2.41157,-1.1093 -1.30224,-0.097 -2.26687,-0.097 -0.48231,0 -1.39871,0 0,4.582 0,13.746 0,3.0868 -0.14469,6.0771 -0.0965,3.0386 -0.33762,5.9325 -0.38585,-3.7138 -0.96463,-6.9936 -0.53054,-3.3279 -2.02572,-5.016 0,-4.8232 0,-14.373 -0.38585,-1.3504 -1.88102,-2.1221 -1.49517,-0.7235 -3.56912,-1.2058 3.95497,0 11.76845,0 1.15755,0.3858 3.47266,1.1575 0.7717,0.2894 1.59163,0.4341 0.81994,0.1447 1.6881,0.1447 0.86816,0 1.73633,-0.1447 0.81993,-0.1447 1.59163,-0.4341 1.15756,-0.3858 3.42443,-1.1575 3.95497,0 11.76845,0 z"
           id="path42768"
           style="fill:#ff0000" />
      </g>
      <g
         aria-label="V"
         transform="matrix(1.2363173,0,0,0.80885384,-497.88086,123.48586)"
         id="text4270-3-5-2"
         style="font-size:78.5061px;line-height:1.25;font-family:Nosferotica;-inkscape-font-specification:'Nosferotica, Normal';font-variant-ligatures:none;text-align:center;text-anchor:middle;fill:#ff0000;stroke-width:3.27108">
        <path
           d="m 431.64994,1360.6864 8.57428,-0.1022 c 0,0 -4.4079,1.0878 -5.59925,3.7285 -1.88083,4.1689 -3.64217,14.6628 -3.64217,14.6628 l -2.23339,11.5191 -1.83311,11.8311 -1.71824,21.3112 -1.69514,-21.3112 -1.92196,-11.5208 -2.5009,-11.8294 c 0,0 -1.52027,-10.287 -3.38278,-14.4832 -1.14458,-2.5787 -5.63367,-3.8059 -5.63367,-3.8059 h 8.4657 l 6.66875,29.1569 z"
           id="path30410"
           sodipodi:nodetypes="ccscccccccscccc"
           style="fill:#ff0000" />
      </g>
    </g>
  </g>
  <g
     id="f45e0130-37b7-4f8b-95b3-6408baa23eb1"
     data-name="components"
     style="display:inline"
     inkscape:groupmode="layer"
     inkscape:label="Solid">
    <rect
       style="fill:#d2ac95;fill-opacity:1;stroke:none;stroke-width:0.999998"
       id="rect1575"
       width="63.780922"
       height="76.024216"
       x="5.60954"
       y="281.10257"
       rx="5.0079999"
       ry="5.26612" />
    <path
       style="color:#000000;display:inline;fill:#d2ac95;fill-opacity:1;-inkscape-stroke:none"
       d="m 20.5,187.50488 v 32.49023 h 1 v -32.49023 z"
       id="path78542-33" />
    <path
       style="color:#000000;display:inline;fill:#d2ac95;fill-opacity:1;-inkscape-stroke:none"
       d="m 53.5,187.50488 v 32.49023 h 1 v -32.49023 z"
       id="path78542-33-6" />
    <path
       style="color:#000000;display:inline;fill:#d2ac95;fill-opacity:1;stroke-width:1;stroke-dasharray:2, 2;-inkscape-stroke:none"
       d="m 20.499212,153.53071 v 2 h 1.001575 v -2 z m 0,4 v 2 h 1.001575 v -2 z m 0,4 v 2 h 1.001575 v -2 z m 0,4 v 2 h 1.001575 v -2 z m 0,4 v 2 h 1.001575 v -2 z m 0,4 v 2 h 1.001575 v -2 z m 0,4 v 2 h 1.001575 v -2 z m 0,4 v 2 h 1.001575 v -2 z m 0,4 v 0.49024 h 1.001575 v -0.49024 z"
       id="path78542-3-0-5" />
    <path
       style="color:#000000;display:inline;fill:#d2ac95;fill-opacity:1;stroke-width:1;stroke-dasharray:2, 2;-inkscape-stroke:none"
       d="m 53.499212,153.53071 v 2 h 1.001576 v -2 z m 0,4 v 2 h 1.001576 v -2 z m 0,4 v 2 h 1.001576 v -2 z m 0,4 v 2 h 1.001576 v -2 z m 0,4 v 2 h 1.001576 v -2 z m 0,4 v 2 h 1.001576 v -2 z m 0,4 v 2 h 1.001576 v -2 z m 0,4 v 2 h 1.001576 v -2 z m 0,4 v 0.49024 h 1.001576 v -0.49024 z"
       id="path78542-3-0-5-4" />
    <g
       aria-label="ENV GEN"
       id="text25446-3"
       style="font-weight:bold;font-size:12px;line-height:1.25;font-family:Arial;-inkscape-font-specification:'Arial, Bold';font-variant-ligatures:none;text-align:center;text-anchor:middle;display:inline;fill:#d2ac95;fill-opacity:1"
       transform="translate(1.2572982)">
      <path
         d="m 10.153835,28.912119 v -8.589844 h 6.369141 V 21.7754 H 11.88821 v 1.904297 h 4.3125 v 1.447266 h -4.3125 v 2.33789 h 4.798828 v 1.447266 z"
         id="path3520"
         style="fill:#d2ac95;fill-opacity:1" />
      <path
         d="m 18.17532,28.912119 v -8.589844 h 1.6875 l 3.515625,5.736328 v -5.736328 h 1.611328 v 8.589844 h -1.740235 l -3.46289,-5.601563 v 5.601563 z"
         id="path3522"
         style="fill:#d2ac95;fill-opacity:1" />
      <path
         d="m 29.015163,28.912119 -3.070312,-8.589844 h 1.880859 l 2.173828,6.357422 2.103516,-6.357422 h 1.839844 l -3.076172,8.589844 z"
         id="path3524"
         style="fill:#d2ac95;fill-opacity:1" />
      <path
         d="M 42.157742,25.753916 V 24.30665 h 3.738281 v 3.421875 q -0.544922,0.527344 -1.582031,0.931641 -1.03125,0.398437 -2.091797,0.398437 -1.347657,0 -2.34961,-0.5625 -1.001953,-0.568359 -1.505859,-1.617187 -0.503906,-1.054688 -0.503906,-2.291016 0,-1.341797 0.5625,-2.384765 0.5625,-1.042969 1.646484,-1.59961 0.826172,-0.427734 2.056641,-0.427734 1.599609,0 2.496093,0.673828 0.902344,0.667969 1.160157,1.851562 l -1.722657,0.322266 q -0.18164,-0.632812 -0.685546,-0.996094 -0.498047,-0.36914 -1.248047,-0.36914 -1.136719,0 -1.810547,0.720703 -0.667969,0.720703 -0.667969,2.138672 0,1.529297 0.679688,2.296875 0.679687,0.761718 1.78125,0.761718 0.544921,0 1.089843,-0.210937 0.550782,-0.216797 0.94336,-0.521484 v -1.089844 z"
         id="path3526"
         style="fill:#d2ac95;fill-opacity:1" />
      <path
         d="m 47.495632,28.912119 v -8.589844 h 6.369141 V 21.7754 h -4.634766 v 1.904297 h 4.3125 v 1.447266 h -4.3125 v 2.33789 h 4.798828 v 1.447266 z"
         id="path3528"
         style="fill:#d2ac95;fill-opacity:1" />
      <path
         d="m 55.517117,28.912119 v -8.589844 h 1.6875 l 3.515625,5.736328 v -5.736328 h 1.611328 v 8.589844 h -1.740235 l -3.46289,-5.601563 v 5.601563 z"
         id="path3530"
         style="fill:#d2ac95;fill-opacity:1" />
    </g>
    <g
       aria-label="TRIG"
       id="text38542-49"
       style="font-weight:bold;font-size:8px;line-height:1.25;font-family:Arial;-inkscape-font-specification:'Arial, Bold';font-variant-ligatures:none;text-align:center;text-anchor:middle;display:inline;fill:#d2ac95;fill-opacity:1">
      <path
         d="m 13.472656,252.47421 v -4.75781 h -1.699218 v -0.96875 h 4.550781 v 0.96875 h -1.695313 v 4.75781 z"
         id="path3511"
         style="fill:#d2ac95;fill-opacity:1" />
      <path
         d="m 17.074219,252.47421 v -5.72656 h 2.433593 q 0.917969,0 1.332032,0.15625 0.417968,0.15234 0.667968,0.54688 0.25,0.39453 0.25,0.90234 0,0.64453 -0.378906,1.06641 -0.378906,0.41796 -1.132812,0.52734 0.375,0.21875 0.617187,0.48047 0.246094,0.26172 0.660156,0.92969 l 0.699219,1.11718 h -1.382812 l -0.835938,-1.24609 q -0.445312,-0.66797 -0.609375,-0.83984 -0.164062,-0.17579 -0.347656,-0.23829 -0.183594,-0.0664 -0.582031,-0.0664 h -0.234375 v 2.39062 z m 1.15625,-3.30468 h 0.855468 q 0.832032,0 1.039063,-0.0703 0.207031,-0.0703 0.324219,-0.24218 0.117187,-0.17188 0.117187,-0.42969 0,-0.28906 -0.15625,-0.46485 -0.152344,-0.17968 -0.433594,-0.22656 -0.140625,-0.0195 -0.84375,-0.0195 h -0.902343 z"
         id="path3513"
         style="fill:#d2ac95;fill-opacity:1" />
      <path
         d="m 22.8125,252.47421 v -5.72656 h 1.15625 v 5.72656 z"
         id="path3515"
         style="fill:#d2ac95;fill-opacity:1" />
      <path
         d="m 27.734375,250.36874 v -0.96484 h 2.492187 v 2.28125 q -0.363281,0.35156 -1.054687,0.62109 -0.6875,0.26563 -1.394531,0.26563 -0.898438,0 -1.566407,-0.375 -0.667968,-0.37891 -1.003906,-1.07813 -0.335937,-0.70312 -0.335937,-1.52734 0,-0.89453 0.375,-1.58984 0.375,-0.69532 1.097656,-1.06641 0.550781,-0.28516 1.371094,-0.28516 1.066406,0 1.664062,0.44922 0.601563,0.44532 0.773438,1.23438 l -1.148438,0.21484 q -0.121094,-0.42187 -0.457031,-0.66406 -0.332031,-0.24609 -0.832031,-0.24609 -0.757813,0 -1.207032,0.48046 -0.445312,0.48047 -0.445312,1.42579 0,1.01953 0.453125,1.53125 0.453125,0.50781 1.1875,0.50781 0.363281,0 0.726562,-0.14063 0.367188,-0.14453 0.628907,-0.34765 v -0.72657 z"
         id="path3517"
         style="fill:#d2ac95;fill-opacity:1" />
    </g>
    <g
       aria-label="GATE"
       id="text38542-1"
       style="font-weight:bold;font-size:8px;line-height:1.25;font-family:Arial;-inkscape-font-specification:'Arial, Bold';font-variant-ligatures:none;text-align:center;text-anchor:middle;display:inline;fill:#d2ac95;fill-opacity:1">
      <path
         d="m 46.439453,250.36874 v -0.96484 h 2.492188 v 2.28125 q -0.363282,0.35156 -1.054688,0.62109 -0.6875,0.26563 -1.394531,0.26563 -0.898438,0 -1.566406,-0.375 -0.667969,-0.37891 -1.003907,-1.07813 -0.335937,-0.70312 -0.335937,-1.52734 0,-0.89453 0.375,-1.58984 0.375,-0.69532 1.097656,-1.06641 0.550781,-0.28516 1.371094,-0.28516 1.066406,0 1.664062,0.44922 0.601563,0.44532 0.773438,1.23438 l -1.148438,0.21484 q -0.121093,-0.42187 -0.457031,-0.66406 -0.332031,-0.24609 -0.832031,-0.24609 -0.757813,0 -1.207031,0.48046 -0.445313,0.48047 -0.445313,1.42579 0,1.01953 0.453125,1.53125 0.453125,0.50781 1.1875,0.50781 0.363281,0 0.726563,-0.14063 0.367187,-0.14453 0.628906,-0.34765 v -0.72657 z"
         id="path3502"
         style="fill:#d2ac95;fill-opacity:1" />
      <path
         d="m 55.162109,252.47421 h -1.257812 l -0.5,-1.30078 h -2.289063 l -0.472656,1.30078 h -1.226562 l 2.230468,-5.72656 h 1.222657 z m -2.128906,-2.26562 -0.789062,-2.125 -0.773438,2.125 z"
         id="path3504"
         style="fill:#d2ac95;fill-opacity:1" />
      <path
         d="m 56.470703,252.47421 v -4.75781 h -1.699219 v -0.96875 h 4.550782 v 0.96875 h -1.695313 v 4.75781 z"
         id="path3506"
         style="fill:#d2ac95;fill-opacity:1" />
      <path
         d="m 60.068359,252.47421 v -5.72656 h 4.246094 v 0.96875 h -3.089844 v 1.26953 h 2.875 v 0.96485 h -2.875 v 1.55859 h 3.199219 v 0.96484 z"
         id="path3508"
         style="fill:#d2ac95;fill-opacity:1" />
    </g>
    <g
       aria-label="TRIG"
       id="text38542-3"
       style="font-weight:bold;font-size:8px;line-height:1.25;font-family:Arial;-inkscape-font-specification:'Arial, Bold';font-variant-ligatures:none;text-align:center;text-anchor:middle;display:inline;fill:#d2ac95;fill-opacity:1"
       transform="translate(0,0.20969)">
      <path
         d="M 13.472656,69.439842 V 64.68203 h -1.699218 v -0.96875 h 4.550781 v 0.96875 h -1.695313 v 4.757812 z"
         id="path3482"
         style="fill:#d2ac95;fill-opacity:1" />
      <path
         d="M 17.074219,69.439842 V 63.71328 h 2.433593 q 0.917969,0 1.332032,0.15625 0.417968,0.152343 0.667968,0.546875 0.25,0.394531 0.25,0.902343 0,0.644532 -0.378906,1.066407 Q 21,66.803123 20.246094,66.912498 q 0.375,0.21875 0.617187,0.480469 0.246094,0.261719 0.660156,0.929688 l 0.699219,1.117187 h -1.382812 l -0.835938,-1.246094 q -0.445312,-0.667968 -0.609375,-0.839843 -0.164062,-0.175782 -0.347656,-0.238282 -0.183594,-0.06641 -0.582031,-0.06641 h -0.234375 v 2.390625 z m 1.15625,-3.304687 h 0.855468 q 0.832032,0 1.039063,-0.07031 0.207031,-0.07031 0.324219,-0.242187 0.117187,-0.171875 0.117187,-0.429688 0,-0.289062 -0.15625,-0.464844 -0.152344,-0.179687 -0.433594,-0.226562 -0.140625,-0.01953 -0.84375,-0.01953 h -0.902343 z"
         id="path3484"
         style="fill:#d2ac95;fill-opacity:1" />
      <path
         d="M 22.8125,69.439842 V 63.71328 h 1.15625 v 5.726562 z"
         id="path3486"
         style="fill:#d2ac95;fill-opacity:1" />
      <path
         d="M 27.734375,67.334373 V 66.36953 h 2.492187 v 2.28125 q -0.363281,0.351562 -1.054687,0.621093 -0.6875,0.265625 -1.394531,0.265625 -0.898438,0 -1.566407,-0.375 -0.667968,-0.378906 -1.003906,-1.078125 -0.335937,-0.703125 -0.335937,-1.527343 0,-0.894532 0.375,-1.589844 0.375,-0.695313 1.097656,-1.066406 0.550781,-0.285157 1.371094,-0.285157 1.066406,0 1.664062,0.449219 0.601563,0.445313 0.773438,1.234375 l -1.148438,0.214844 q -0.121094,-0.421875 -0.457031,-0.664063 -0.332031,-0.246093 -0.832031,-0.246093 -0.757813,0 -1.207032,0.480468 -0.445312,0.480469 -0.445312,1.425782 0,1.019531 0.453125,1.53125 0.453125,0.507812 1.1875,0.507812 0.363281,0 0.726562,-0.140625 0.367188,-0.144531 0.628907,-0.347656 v -0.726563 z"
         id="path3488"
         style="fill:#d2ac95;fill-opacity:1" />
    </g>
    <g
       aria-label="GATE"
       id="text38542-6"
       style="font-weight:bold;font-size:8px;line-height:1.25;font-family:Arial;-inkscape-font-specification:'Arial, Bold';font-variant-ligatures:none;text-align:center;text-anchor:middle;display:inline;fill:#d2ac95;fill-opacity:1"
       transform="translate(0,0.20969)">
      <path
         d="M 46.439453,67.334373 V 66.36953 h 2.492188 v 2.28125 q -0.363282,0.351562 -1.054688,0.621093 -0.6875,0.265625 -1.394531,0.265625 -0.898438,0 -1.566406,-0.375 -0.667969,-0.378906 -1.003907,-1.078125 -0.335937,-0.703125 -0.335937,-1.527343 0,-0.894532 0.375,-1.589844 0.375,-0.695313 1.097656,-1.066406 0.550781,-0.285157 1.371094,-0.285157 1.066406,0 1.664062,0.449219 0.601563,0.445313 0.773438,1.234375 l -1.148438,0.214844 q -0.121093,-0.421875 -0.457031,-0.664063 -0.332031,-0.246093 -0.832031,-0.246093 -0.757813,0 -1.207031,0.480468 -0.445313,0.480469 -0.445313,1.425782 0,1.019531 0.453125,1.53125 0.453125,0.507812 1.1875,0.507812 0.363281,0 0.726563,-0.140625 0.367187,-0.144531 0.628906,-0.347656 v -0.726563 z"
         id="path3473"
         style="fill:#d2ac95;fill-opacity:1" />
      <path
         d="m 55.162109,69.439842 h -1.257812 l -0.5,-1.300781 h -2.289063 l -0.472656,1.300781 h -1.226562 l 2.230468,-5.726562 h 1.222657 z m -2.128906,-2.265625 -0.789062,-2.125 -0.773438,2.125 z"
         id="path3475"
         style="fill:#d2ac95;fill-opacity:1" />
      <path
         d="M 56.470703,69.439842 V 64.68203 h -1.699219 v -0.96875 h 4.550782 v 0.96875 h -1.695313 v 4.757812 z"
         id="path3477"
         style="fill:#d2ac95;fill-opacity:1" />
      <path
         d="M 60.068359,69.439842 V 63.71328 h 4.246094 v 0.96875 h -3.089844 v 1.269531 h 2.875 v 0.964844 h -2.875 v 1.558593 h 3.199219 v 0.964844 z"
         id="path3479"
         style="fill:#d2ac95;fill-opacity:1" />
    </g>
    <g
       aria-label="ATK"
       id="text38542-5"
       style="font-weight:bold;font-size:8px;line-height:1.25;font-family:Arial;-inkscape-font-specification:'Arial, Bold';font-variant-ligatures:none;text-align:center;text-anchor:middle;display:inline;fill:#d2ac95;fill-opacity:1"
       transform="translate(0,0.55385868)">
      <path
         d="m 18.830078,133.96458 h -1.257812 l -0.5,-1.30078 h -2.289063 l -0.472656,1.30078 h -1.226563 l 2.230469,-5.72656 h 1.222656 z m -2.128906,-2.26562 -0.789063,-2.125 -0.773437,2.125 z"
         id="path3466"
         style="fill:#d2ac95;fill-opacity:1" />
      <path
         d="m 20.138672,133.96458 v -4.75781 h -1.699219 v -0.96875 h 4.550781 v 0.96875 h -1.695312 v 4.75781 z"
         id="path3468"
         style="fill:#d2ac95;fill-opacity:1" />
      <path
         d="m 23.751953,133.96458 v -5.72656 h 1.15625 v 2.54297 l 2.335938,-2.54297 h 1.554687 l -2.15625,2.23047 2.273438,3.49609 h -1.496094 l -1.574219,-2.6875 -0.9375,0.95704 v 1.73046 z"
         id="path3470"
         style="fill:#d2ac95;fill-opacity:1" />
    </g>
    <g
       aria-label="DEC"
       id="text38542-8"
       style="font-weight:bold;font-size:8px;line-height:1.25;font-family:Arial;-inkscape-font-specification:'Arial, Bold';font-variant-ligatures:none;text-align:center;text-anchor:middle;display:inline;fill:#d2ac95;fill-opacity:1"
       transform="translate(0,0.55385368)">
      <path
         d="m 46.048828,128.23802 h 2.113281 q 0.714844,0 1.089844,0.10938 0.503906,0.14843 0.863281,0.52734 0.359375,0.37891 0.546875,0.92969 0.1875,0.54687 0.1875,1.35156 0,0.70703 -0.175781,1.21875 -0.214844,0.625 -0.613281,1.01172 -0.300781,0.29297 -0.8125,0.45703 -0.382813,0.12109 -1.023438,0.12109 h -2.175781 z m 1.15625,0.96875 v 3.79297 h 0.863281 q 0.484375,0 0.699219,-0.0547 0.28125,-0.0703 0.464844,-0.23828 0.1875,-0.16797 0.304687,-0.55078 0.117188,-0.38672 0.117188,-1.05078 0,-0.66406 -0.117188,-1.01953 -0.117187,-0.35547 -0.328125,-0.55469 -0.210937,-0.19922 -0.535156,-0.26953 -0.242187,-0.0547 -0.949219,-0.0547 z"
         id="path3459"
         style="fill:#d2ac95;fill-opacity:1" />
      <path
         d="m 51.830078,133.96458 v -5.72656 h 4.246094 v 0.96875 h -3.089844 v 1.26953 h 2.875 v 0.96485 h -2.875 v 1.55859 h 3.199219 v 0.96484 z"
         id="path3461"
         style="fill:#d2ac95;fill-opacity:1" />
      <path
         d="m 60.830078,131.85912 1.121094,0.35546 q -0.257813,0.9375 -0.859375,1.39454 -0.597656,0.45312 -1.519531,0.45312 -1.140625,0 -1.875,-0.77734 -0.734375,-0.78125 -0.734375,-2.13282 0,-1.42968 0.738281,-2.21875 0.738281,-0.79296 1.941406,-0.79296 1.050781,0 1.707031,0.62109 0.390625,0.36719 0.585938,1.05469 l -1.144531,0.27343 q -0.101563,-0.44531 -0.425782,-0.70312 -0.320312,-0.25781 -0.78125,-0.25781 -0.636718,0 -1.035156,0.45703 -0.394531,0.45703 -0.394531,1.48047 0,1.08593 0.390625,1.54687 0.390625,0.46094 1.015625,0.46094 0.460937,0 0.792969,-0.29297 0.332031,-0.29297 0.476562,-0.92187 z"
         id="path3463"
         style="fill:#d2ac95;fill-opacity:1" />
    </g>
    <g
       aria-label="AD"
       id="text38542-3-5"
       style="font-weight:bold;font-size:8px;line-height:1.25;font-family:Arial;-inkscape-font-specification:'Arial, Bold';font-variant-ligatures:none;text-align:center;text-anchor:middle;display:inline;fill:#d2ac95;fill-opacity:1"
       transform="translate(0,0.20969)">
      <path
         d="m 21.167969,61.565872 h -1.257813 l -0.5,-1.300781 h -2.289062 l -0.472657,1.300781 H 15.421875 L 17.652344,55.83931 H 18.875 Z m -2.128907,-2.265625 -0.789062,-2.125 -0.773438,2.125 z"
         id="path3454"
         style="fill:#d2ac95;fill-opacity:1" />
      <path
         d="m 21.777344,55.83931 h 2.113281 q 0.714844,0 1.089844,0.109375 0.503906,0.148437 0.863281,0.527343 0.359375,0.378907 0.546875,0.929688 0.1875,0.546875 0.1875,1.351562 0,0.707032 -0.175781,1.21875 -0.214844,0.625 -0.613282,1.011719 -0.300781,0.292969 -0.8125,0.457031 -0.382812,0.121094 -1.023437,0.121094 h -2.175781 z m 1.15625,0.96875 v 3.792968 h 0.863281 q 0.484375,0 0.699219,-0.05469 0.28125,-0.07031 0.464843,-0.238281 0.1875,-0.167969 0.304688,-0.550782 0.117187,-0.386718 0.117187,-1.050781 0,-0.664062 -0.117187,-1.019531 Q 25.148437,57.331497 24.9375,57.132278 24.726562,56.93306 24.402344,56.862747 24.160156,56.80806 23.453125,56.80806 Z"
         id="path3456"
         style="fill:#d2ac95;fill-opacity:1" />
    </g>
    <g
       aria-label="AD"
       id="text38542-3-5-0"
       style="font-weight:bold;font-size:8px;line-height:1.25;font-family:Arial;-inkscape-font-specification:'Arial, Bold';font-variant-ligatures:none;text-align:center;text-anchor:middle;display:inline;fill:#d2ac95;fill-opacity:1">
      <path
         d="m 21.167969,244.55939 h -1.257813 l -0.5,-1.30078 h -2.289062 l -0.472657,1.30078 h -1.226562 l 2.230469,-5.72657 H 18.875 Z m -2.128907,-2.26563 -0.789062,-2.125 -0.773438,2.125 z"
         id="path3444"
         style="fill:#d2ac95;fill-opacity:1" />
      <path
         d="m 21.777344,238.83282 h 2.113281 q 0.714844,0 1.089844,0.10938 0.503906,0.14844 0.863281,0.52734 0.359375,0.37891 0.546875,0.92969 0.1875,0.54688 0.1875,1.35156 0,0.70703 -0.175781,1.21875 -0.214844,0.625 -0.613282,1.01172 -0.300781,0.29297 -0.8125,0.45703 -0.382812,0.1211 -1.023437,0.1211 h -2.175781 z m 1.15625,0.96875 v 3.79297 h 0.863281 q 0.484375,0 0.699219,-0.0547 0.28125,-0.0703 0.464843,-0.23829 0.1875,-0.16796 0.304688,-0.55078 0.117187,-0.38672 0.117187,-1.05078 0,-0.66406 -0.117187,-1.01953 -0.117188,-0.35547 -0.328125,-0.55469 -0.210938,-0.19922 -0.535156,-0.26953 -0.242188,-0.0547 -0.949219,-0.0547 z"
         id="path3446"
         style="fill:#d2ac95;fill-opacity:1" />
    </g>
    <g
       aria-label="SPD"
       id="text4764"
       style="font-weight:bold;font-size:6.66667px;line-height:1.25;font-family:Arial;-inkscape-font-specification:'Arial, Bold';font-variant-ligatures:none;text-align:center;text-anchor:middle;display:inline;fill:#d2ac95;fill-opacity:1"
       transform="translate(-4)">
      <path
         d="m 14.432613,41.096057 0.937501,-0.09115 q 0.08464,0.472006 0.341797,0.69336 0.260417,0.221354 0.69987,0.221354 0.465495,0 0.69987,-0.195312 0.23763,-0.198568 0.23763,-0.46224 0,-0.169271 -0.100911,-0.286459 -0.09766,-0.120442 -0.345052,-0.208333 -0.169271,-0.05859 -0.771485,-0.208333 -0.77474,-0.192058 -1.08724,-0.472006 -0.439453,-0.39388 -0.439453,-0.960287 0,-0.364583 0.205078,-0.680339 0.208333,-0.31901 0.595703,-0.485026 0.390625,-0.166016 0.940756,-0.166016 0.898438,0 1.350912,0.393881 0.455729,0.39388 0.478516,1.051433 l -0.963542,0.04232 q -0.06185,-0.367838 -0.266928,-0.527344 -0.201823,-0.16276 -0.608724,-0.16276 -0.419922,0 -0.657552,0.172526 -0.152995,0.110677 -0.152995,0.296224 0,0.169271 0.143229,0.289714 0.182292,0.152995 0.885417,0.31901 0.703126,0.166016 1.038412,0.345052 0.338542,0.175782 0.527344,0.485027 0.192058,0.305989 0.192058,0.758464 0,0.410156 -0.227865,0.768229 -0.227865,0.358073 -0.644532,0.533855 -0.416667,0.172526 -1.038412,0.172526 -0.904948,0 -1.389974,-0.416667 -0.485027,-0.419922 -0.579428,-1.220703 z"
         id="path3432"
         style="fill:#d2ac95;fill-opacity:1" />
      <path
         d="m 19.123371,42.648792 v -4.772137 h 1.546224 q 0.878907,0 1.145834,0.07161 0.410157,0.107422 0.68685,0.46875 0.276692,0.358074 0.276692,0.927735 0,0.439454 -0.159505,0.738933 -0.159505,0.299479 -0.406901,0.472005 -0.244141,0.169271 -0.498047,0.22461 -0.345052,0.06836 -0.99935,0.06836 h -0.628255 v 1.800131 z m 0.963542,-3.964845 v 1.354167 h 0.527344 q 0.569662,0 0.761719,-0.07487 0.192057,-0.07487 0.299479,-0.234375 0.110677,-0.159505 0.110677,-0.371094 0,-0.260417 -0.152994,-0.429688 -0.152995,-0.169271 -0.38737,-0.211588 -0.172526,-0.03255 -0.69336,-0.03255 z"
         id="path3434"
         style="fill:#d2ac95;fill-opacity:1" />
      <path
         d="m 23.566732,37.876655 h 1.761069 q 0.595703,0 0.908203,0.09114 0.419922,0.123698 0.719402,0.439454 0.299479,0.315755 0.455729,0.77474 0.15625,0.455729 0.15625,1.126302 0,0.589193 -0.146484,1.015626 -0.179037,0.520833 -0.511068,0.843099 -0.250651,0.244141 -0.677084,0.38086 -0.31901,0.100911 -0.852865,0.100911 h -1.813152 z m 0.963542,0.807292 v 3.160808 h 0.719402 q 0.403646,0 0.582682,-0.04557 0.234375,-0.05859 0.38737,-0.198567 0.15625,-0.139974 0.253907,-0.458985 0.09766,-0.322266 0.09766,-0.875651 0,-0.553386 -0.09766,-0.84961 -0.09766,-0.296224 -0.273438,-0.46224 -0.175781,-0.166016 -0.445964,-0.224609 -0.201823,-0.04557 -0.791016,-0.04557 z"
         id="path3436"
         style="fill:#d2ac95;fill-opacity:1" />
    </g>
    <g
       aria-label="TGL"
       id="text4764-7"
       style="font-weight:bold;font-size:6.66667px;line-height:1.25;font-family:Arial;-inkscape-font-specification:'Arial, Bold';font-variant-ligatures:none;text-align:center;text-anchor:middle;display:inline;fill:#d2ac95;fill-opacity:1"
       transform="translate(4)">
      <path
         d="m 48.9235,42.648792 v -3.964845 h -1.416016 v -0.807292 h 3.792319 v 0.807292 h -1.412761 v 3.964845 z"
         id="path3425"
         style="fill:#d2ac95;fill-opacity:1" />
      <path
         d="m 54.141602,40.894234 v -0.804037 h 2.076823 v 1.901043 q -0.302734,0.292969 -0.878906,0.517578 -0.572917,0.221355 -1.16211,0.221355 -0.748698,0 -1.305339,-0.312501 -0.556641,-0.315755 -0.836589,-0.898438 -0.279948,-0.585937 -0.279948,-1.272787 0,-0.745443 0.3125,-1.32487 0.3125,-0.579427 0.914714,-0.888672 0.458984,-0.237631 1.142579,-0.237631 0.888672,0 1.386719,0.374349 0.501302,0.371094 0.644532,1.028647 l -0.957032,0.179036 q -0.100912,-0.351562 -0.38086,-0.553385 -0.276693,-0.205079 -0.693359,-0.205079 -0.631511,0 -1.00586,0.400391 -0.371094,0.400391 -0.371094,1.188152 0,0.84961 0.377604,1.276042 0.377604,0.423177 0.989584,0.423177 0.302734,0 0.605469,-0.117187 0.30599,-0.120443 0.524089,-0.289714 v -0.605469 z"
         id="path3427"
         style="fill:#d2ac95;fill-opacity:1" />
      <path
         d="m 57.133139,42.648792 v -4.733075 h 0.963542 v 3.929038 h 2.395835 v 0.804037 z"
         id="path3429"
         style="fill:#d2ac95;fill-opacity:1" />
    </g>
    <path
       style="color:#000000;display:inline;fill:#d2ac95;fill-opacity:1;-inkscape-stroke:none"
       d="m 13.56655,118.72197 c -0.0436,2.31233 -0.56961,3.36686 -1.30859,3.90234 -0.73899,0.53548 -1.86702,0.61638 -3.25196,0.60742 l -0.006,1 c 1.41545,0.009 2.77412,-0.0218 3.84375,-0.79687 1.06964,-0.77508 1.67422,-2.22983 1.72071,-4.69336 z"
       id="path12152" />
    <path
       style="color:#000000;display:inline;fill:#d2ac95;fill-opacity:1;-inkscape-stroke:none"
       d="m 31.025391,118.71011 c -2.877608,-0.0707 -4.39106,1.33812 -5.039061,2.74023 -0.648,1.40212 -0.53516,2.79688 -0.53516,2.79688 l 0.998049,-0.0742 c 0,0 -0.07753,-1.17143 0.445313,-2.30274 0.522845,-1.1313 1.541478,-2.22316 4.105468,-2.16015 z"
       id="path12152-9" />
    <g
       id="path13057"
       style="display:inline;fill:#d2ac95;fill-opacity:1"
       transform="translate(123.68262,-3.685879)">
      <path
         style="color:#000000;fill:#d2ac95;fill-opacity:1;-inkscape-stroke:none"
         d="m -105.18256,106.15065 4.9999,-5.00001"
         id="path2602" />
      <path
         style="color:#000000;fill:#d2ac95;fill-opacity:1;-inkscape-stroke:none"
         d="m -100.53711,100.79688 -4.99805,5 0.70703,0.70703 4.998052,-5 z"
         id="path2604" />
    </g>
    <path
       style="color:#000000;display:inline;fill:#d2ac95;fill-opacity:1;-inkscape-stroke:none"
       d="m 44.064792,118.69516 c -0.009,1.41544 0.0218,2.77411 0.79687,3.84375 0.77508,1.06963 2.22984,1.67421 4.69336,1.7207 l 0.0195,-1 c -2.31233,-0.0436 -3.36686,-0.56961 -3.90234,-1.30859 -0.53548,-0.73899 -0.61637,-1.86506 -0.60742,-3.25 z"
       id="path12152-5" />
    <path
       style="color:#000000;display:inline;fill:#d2ac95;fill-opacity:1;-inkscape-stroke:none"
       d="m 60.462912,118.69403 0.0742,0.99804 c 0,0 1.171421,-0.0775 2.302731,0.44532 1.131311,0.52284 2.223163,1.54148 2.160157,4.10546 l 1,0.0254 c 0.07071,-2.8776 -1.338117,-4.39105 -2.740235,-5.03906 -1.402118,-0.648 -2.796873,-0.53515 -2.796873,-0.53515 z"
       id="path12152-9-9" />
    <path
       style="color:#000000;display:inline;fill:#d2ac95;fill-opacity:1;-inkscape-stroke:none"
       d="m 51.853515,97.111 -0.70703,0.70703 5,5 0.70703,-0.70703 z"
       id="path13057-8" />
    <g
       aria-label="AD/ASR"
       id="text7787"
       style="font-weight:bold;font-size:12px;line-height:1.25;font-family:Arial;-inkscape-font-specification:'Arial, Bold';font-variant-ligatures:none;text-align:center;text-anchor:middle;fill:#d2ac95;fill-opacity:1"
       transform="translate(-65.188638,1.5636186)">
      <path
         d="m 88.339027,13.20377 h -1.886718 l -0.75,-1.951172 H 82.268715 L 81.559731,13.20377 H 79.719887 L 83.06559,4.6139259 h 1.833984 z m -3.193359,-3.3984378 -1.183594,-3.1875 -1.160156,3.1875 z"
         id="path40947"
         style="fill:#d2ac95;fill-opacity:1" />
      <path
         d="m 89.25309,4.6139259 h 3.169922 q 1.072265,0 1.634765,0.1640625 0.75586,0.2226563 1.294922,0.7910157 0.539063,0.5683593 0.820313,1.3945312 0.28125,0.8203125 0.28125,2.0273438 0,1.0605469 -0.263672,1.8281249 -0.322266,0.9375 -0.919922,1.517578 -0.451172,0.439453 -1.21875,0.685547 -0.574219,0.181641 -1.535156,0.181641 H 89.25309 Z m 1.734375,1.453125 v 5.6894531 h 1.294922 q 0.726562,0 1.048828,-0.08203 0.421875,-0.105469 0.697266,-0.357422 0.28125,-0.251953 0.457031,-0.826172 0.175781,-0.5800781 0.175781,-1.5761718 0,-0.9960938 -0.175781,-1.5292969 Q 94.309731,6.8522072 93.993324,6.5533791 93.676918,6.2545509 93.19059,6.1490822 92.827309,6.0670509 91.766762,6.0670509 Z"
         id="path40949"
         style="fill:#d2ac95;fill-opacity:1" />
      <path
         d="m 97.03434,13.350254 2.126953,-8.8828124 h 1.236327 l -2.150389,8.8828124 z"
         id="path40951"
         style="fill:#d2ac95;fill-opacity:1" />
      <path
         d="m 109.00504,13.20377 h -1.88672 l -0.75,-1.951172 h -3.43359 l -0.70898,1.951172 h -1.83985 l 3.34571,-8.5898441 h 1.83398 z m -3.19336,-3.3984378 -1.18359,-3.1875 -1.16016,3.1875 z"
         id="path40953"
         style="fill:#d2ac95;fill-opacity:1" />
      <path
         d="m 109.48551,10.408848 1.6875,-0.164063 q 0.15235,0.84961 0.61524,1.248047 0.46875,0.398438 1.25976,0.398438 0.83789,0 1.25977,-0.351563 0.42773,-0.357422 0.42773,-0.832031 0,-0.304688 -0.18164,-0.515625 -0.17578,-0.2167969 -0.62109,-0.3750001 -0.30469,-0.1054687 -1.38867,-0.375 -1.39454,-0.3457031 -1.95704,-0.8496093 -0.79101,-0.7089844 -0.79101,-1.7285157 0,-0.65625 0.36914,-1.2246093 0.375,-0.5742188 1.07226,-0.8730469 0.70313,-0.2988281 1.69336,-0.2988281 1.61719,0 2.43164,0.7089843 0.82032,0.7089844 0.86133,1.8925782 l -1.73437,0.076172 q -0.11133,-0.6621093 -0.48047,-0.9492187 -0.36328,-0.2929688 -1.0957,-0.2929688 -0.75586,0 -1.1836,0.3105469 -0.27539,0.1992188 -0.27539,0.5332031 0,0.3046875 0.25781,0.5214844 0.32813,0.2753906 1.59375,0.5742188 1.26563,0.2988281 1.86914,0.6210937 0.60938,0.3164063 0.94922,0.8730469 0.34571,0.5507812 0.34571,1.3652346 0,0.738281 -0.41016,1.382812 -0.41016,0.644531 -1.16016,0.960938 -0.75,0.310546 -1.86914,0.310546 -1.6289,0 -2.50195,-0.75 -0.87305,-0.755859 -1.04297,-2.197265 z"
         id="path40955"
         style="fill:#d2ac95;fill-opacity:1" />
      <path
         d="M 117.93473,13.20377 V 4.6139259 h 3.65039 q 1.37695,0 1.99805,0.234375 0.62695,0.2285157 1.00195,0.8203125 0.375,0.5917969 0.375,1.3535157 0,0.9667968 -0.56836,1.5996093 -0.56836,0.6269532 -1.69922,0.7910157 0.5625,0.328125 0.92578,0.7207029 0.36914,0.392578 0.99024,1.394531 l 1.04883,1.675782 h -2.07422 l -1.25391,-1.869141 q -0.66797,-1.001953 -0.91406,-1.259766 -0.24609,-0.2636714 -0.52149,-0.3574214 -0.27539,-0.099609 -0.87304,-0.099609 h -0.35156 V 13.20377 Z m 1.73438,-4.9570316 h 1.2832 q 1.24805,0 1.55859,-0.1054687 0.31055,-0.1054688 0.48633,-0.3632813 0.17578,-0.2578125 0.17578,-0.6445312 0,-0.4335938 -0.23437,-0.6972656 -0.22852,-0.2695313 -0.65039,-0.3398438 -0.21094,-0.029297 -1.26563,-0.029297 h -1.35351 z"
         id="path40957"
         style="fill:#d2ac95;fill-opacity:1" />
    </g>
    <g
       aria-label="ASR"
       id="text7787-2"
       style="font-weight:bold;font-size:8px;line-height:1.25;font-family:Arial;-inkscape-font-specification:'Arial, Bold';font-variant-ligatures:none;text-align:center;text-anchor:middle;display:inline;fill:#d2ac95;fill-opacity:1"
       transform="translate(-57.90709,-2.942409)">
      <path
         d="m 109.22935,64.716019 h -1.25781 l -0.5,-1.300782 h -2.28906 l -0.47266,1.300782 h -1.22656 l 2.23047,-5.726563 h 1.22266 z m -2.1289,-2.265625 -0.78906,-2.125 -0.77344,2.125 z"
         id="path40960"
         style="fill:#d2ac95;fill-opacity:1" />
      <path
         d="m 109.54967,62.852737 1.125,-0.109375 q 0.10156,0.566407 0.41015,0.832032 0.3125,0.265625 0.83985,0.265625 0.55859,0 0.83984,-0.234375 0.28516,-0.238282 0.28516,-0.554688 0,-0.203125 -0.1211,-0.34375 -0.11718,-0.144531 -0.41406,-0.25 -0.20312,-0.07031 -0.92578,-0.25 -0.92969,-0.230469 -1.30469,-0.566406 -0.52734,-0.472656 -0.52734,-1.152344 0,-0.4375 0.24609,-0.816406 0.25,-0.382813 0.71485,-0.582031 0.46875,-0.199219 1.1289,-0.199219 1.07813,0 1.6211,0.472656 0.54687,0.472656 0.57421,1.261719 l -1.15625,0.05078 q -0.0742,-0.441406 -0.32031,-0.632812 -0.24219,-0.195313 -0.73047,-0.195313 -0.5039,0 -0.78906,0.207031 -0.18359,0.132813 -0.18359,0.355469 0,0.203125 0.17187,0.347656 0.21875,0.183594 1.0625,0.382813 0.84375,0.199219 1.2461,0.414062 0.40625,0.210938 0.63281,0.582032 0.23047,0.367187 0.23047,0.910156 0,0.492187 -0.27344,0.921875 -0.27344,0.429687 -0.77344,0.640625 -0.5,0.207031 -1.24609,0.207031 -1.08594,0 -1.66797,-0.5 -0.58203,-0.503906 -0.69531,-1.464844 z"
         id="path40962"
         style="fill:#d2ac95;fill-opacity:1" />
      <path
         d="m 115.18248,64.716019 v -5.726563 h 2.43359 q 0.91797,0 1.33203,0.15625 0.41797,0.152344 0.66797,0.546875 0.25,0.394531 0.25,0.902344 0,0.644531 -0.3789,1.066406 -0.37891,0.417969 -1.13282,0.527344 0.375,0.21875 0.61719,0.480469 0.2461,0.261718 0.66016,0.929687 l 0.69922,1.117188 h -1.38282 l -0.83593,-1.246094 q -0.44532,-0.667969 -0.60938,-0.839844 -0.16406,-0.175781 -0.34765,-0.238281 -0.1836,-0.06641 -0.58204,-0.06641 h -0.23437 v 2.390625 z m 1.15625,-3.304688 h 0.85547 q 0.83203,0 1.03906,-0.07031 0.20703,-0.07031 0.32422,-0.242188 0.11719,-0.171875 0.11719,-0.429687 0,-0.289063 -0.15625,-0.464844 -0.15235,-0.179688 -0.4336,-0.226563 -0.14062,-0.01953 -0.84375,-0.01953 h -0.90234 z"
         id="path40964"
         style="fill:#d2ac95;fill-opacity:1" />
    </g>
    <g
       aria-label="ASR"
       id="text7787-2-93"
       style="font-weight:bold;font-size:8px;line-height:1.25;font-family:Arial;-inkscape-font-specification:'Arial, Bold';font-variant-ligatures:none;text-align:center;text-anchor:middle;display:inline;fill:#d2ac95;fill-opacity:1"
       transform="translate(-57.90709,179.84141)">
      <path
         d="m 109.22935,64.716019 h -1.25781 l -0.5,-1.300782 h -2.28906 l -0.47266,1.300782 h -1.22656 l 2.23047,-5.726563 h 1.22266 z m -2.1289,-2.265625 -0.78906,-2.125 -0.77344,2.125 z"
         id="path40960-7"
         style="fill:#d2ac95;fill-opacity:1" />
      <path
         d="m 109.54967,62.852737 1.125,-0.109375 q 0.10156,0.566407 0.41015,0.832032 0.3125,0.265625 0.83985,0.265625 0.55859,0 0.83984,-0.234375 0.28516,-0.238282 0.28516,-0.554688 0,-0.203125 -0.1211,-0.34375 -0.11718,-0.144531 -0.41406,-0.25 -0.20312,-0.07031 -0.92578,-0.25 -0.92969,-0.230469 -1.30469,-0.566406 -0.52734,-0.472656 -0.52734,-1.152344 0,-0.4375 0.24609,-0.816406 0.25,-0.382813 0.71485,-0.582031 0.46875,-0.199219 1.1289,-0.199219 1.07813,0 1.6211,0.472656 0.54687,0.472656 0.57421,1.261719 l -1.15625,0.05078 q -0.0742,-0.441406 -0.32031,-0.632812 -0.24219,-0.195313 -0.73047,-0.195313 -0.5039,0 -0.78906,0.207031 -0.18359,0.132813 -0.18359,0.355469 0,0.203125 0.17187,0.347656 0.21875,0.183594 1.0625,0.382813 0.84375,0.199219 1.2461,0.414062 0.40625,0.210938 0.63281,0.582032 0.23047,0.367187 0.23047,0.910156 0,0.492187 -0.27344,0.921875 -0.27344,0.429687 -0.77344,0.640625 -0.5,0.207031 -1.24609,0.207031 -1.08594,0 -1.66797,-0.5 -0.58203,-0.503906 -0.69531,-1.464844 z"
         id="path40962-2"
         style="fill:#d2ac95;fill-opacity:1" />
      <path
         d="m 115.18248,64.716019 v -5.726563 h 2.43359 q 0.91797,0 1.33203,0.15625 0.41797,0.152344 0.66797,0.546875 0.25,0.394531 0.25,0.902344 0,0.644531 -0.3789,1.066406 -0.37891,0.417969 -1.13282,0.527344 0.375,0.21875 0.61719,0.480469 0.2461,0.261718 0.66016,0.929687 l 0.69922,1.117188 h -1.38282 l -0.83593,-1.246094 q -0.44532,-0.667969 -0.60938,-0.839844 -0.16406,-0.175781 -0.34765,-0.238281 -0.1836,-0.06641 -0.58204,-0.06641 h -0.23437 v 2.390625 z m 1.15625,-3.304688 h 0.85547 q 0.83203,0 1.03906,-0.07031 0.20703,-0.07031 0.32422,-0.242188 0.11719,-0.171875 0.11719,-0.429687 0,-0.289063 -0.15625,-0.464844 -0.15235,-0.179688 -0.4336,-0.226563 -0.14062,-0.01953 -0.84375,-0.01953 h -0.90234 z"
         id="path40964-3"
         style="fill:#d2ac95;fill-opacity:1" />
    </g>
    <g
       aria-label="LOOP"
       id="text7787-2-1"
       style="font-weight:bold;font-size:6.66667px;line-height:1.25;font-family:Arial;-inkscape-font-specification:'Arial, Bold';font-variant-ligatures:none;text-align:center;text-anchor:middle;display:inline;fill:#d2ac95;fill-opacity:1">
      <path
         d="m 28.463537,42.648792 v -4.733075 h 0.963543 v 3.929038 h 2.395834 v 0.804037 z"
         id="path40938"
         style="fill:#d2ac95;fill-opacity:1" />
      <path
         d="m 32.314451,40.29202 q 0,-0.729167 0.218099,-1.223959 0.16276,-0.364583 0.442708,-0.654297 0.283204,-0.289713 0.61849,-0.429687 0.445964,-0.188803 1.028646,-0.188803 1.054688,0 1.686199,0.654298 0.634766,0.654297 0.634766,1.819662 0,1.155599 -0.628255,1.809897 -0.628256,0.651042 -1.679689,0.651042 -1.064453,0 -1.692709,-0.647787 -0.628255,-0.651042 -0.628255,-1.790366 z m 0.992839,-0.03255 q 0,0.810547 0.374349,1.23047 0.374349,0.416666 0.950521,0.416666 0.576172,0 0.944011,-0.413411 0.371094,-0.416667 0.371094,-1.246746 0,-0.820313 -0.361328,-1.223959 -0.358073,-0.403646 -0.953777,-0.403646 -0.595703,0 -0.960287,0.410157 -0.364583,0.406901 -0.364583,1.230469 z"
         id="path40940"
         style="fill:#d2ac95;fill-opacity:1" />
      <path
         d="m 37.499999,40.29202 q 0,-0.729167 0.2181,-1.223959 0.16276,-0.364583 0.442708,-0.654297 0.283203,-0.289713 0.61849,-0.429687 0.445964,-0.188803 1.028646,-0.188803 1.054688,0 1.686199,0.654298 0.634766,0.654297 0.634766,1.819662 0,1.155599 -0.628256,1.809897 -0.628255,0.651042 -1.679688,0.651042 -1.064454,0 -1.692709,-0.647787 -0.628256,-0.651042 -0.628256,-1.790366 z m 0.992839,-0.03255 q 0,0.810547 0.37435,1.23047 0.374349,0.416666 0.950521,0.416666 0.576172,0 0.944011,-0.413411 0.371094,-0.416667 0.371094,-1.246746 0,-0.820313 -0.361329,-1.223959 -0.358073,-0.403646 -0.953776,-0.403646 -0.595704,0 -0.960287,0.410157 -0.364584,0.406901 -0.364584,1.230469 z"
         id="path40942"
         style="fill:#d2ac95;fill-opacity:1" />
      <path
         d="m 42.880862,42.648792 v -4.772137 h 1.546224 q 0.878907,0 1.145834,0.07161 0.410157,0.107422 0.68685,0.46875 0.276692,0.358074 0.276692,0.927735 0,0.439454 -0.159505,0.738933 -0.159505,0.299479 -0.406901,0.472005 -0.244141,0.169271 -0.498047,0.22461 -0.345052,0.06836 -0.99935,0.06836 h -0.628255 v 1.800131 z m 0.963542,-3.964845 v 1.354167 h 0.527344 q 0.569662,0 0.761719,-0.07487 0.192057,-0.07487 0.299479,-0.234375 0.110677,-0.159505 0.110677,-0.371094 0,-0.260417 -0.152994,-0.429688 -0.152995,-0.169271 -0.38737,-0.211588 -0.172527,-0.03255 -0.69336,-0.03255 z"
         id="path40944"
         style="fill:#d2ac95;fill-opacity:1" />
    </g>
  </g>
  <g
     inkscape:groupmode="layer"
     id="layer4"
     inkscape:label="Reverse Solid"
     style="display:inline">
    <g
       aria-label="ATK"
       id="text38542-80"
       style="font-weight:bold;font-size:8px;line-height:1.25;font-family:Arial;-inkscape-font-specification:'Arial, Bold';font-variant-ligatures:none;text-align:center;text-anchor:middle;display:inline;fill:#423932;fill-opacity:1">
      <path
         d="m 18.988323,290.51254 h -1.257812 l -0.5,-1.30078 h -2.289063 l -0.472656,1.30078 h -1.226563 l 2.230469,-5.72656 h 1.222656 z m -2.128906,-2.26562 -0.789063,-2.125 -0.773437,2.125 z"
         id="path3544"
         style="fill:#423932;fill-opacity:1" />
      <path
         d="m 20.296917,290.51254 v -4.75781 h -1.699219 v -0.96875 h 4.550781 v 0.96875 h -1.695312 v 4.75781 z"
         id="path3546"
         style="fill:#423932;fill-opacity:1" />
      <path
         d="m 23.910198,290.51254 v -5.72656 h 1.15625 v 2.54297 l 2.335938,-2.54297 h 1.554687 l -2.15625,2.23047 2.273438,3.49609 h -1.496094 l -1.574219,-2.6875 -0.9375,0.95703 v 1.73047 z"
         id="path3548"
         style="fill:#423932;fill-opacity:1" />
    </g>
    <g
       aria-label="DEC"
       id="text38542-7"
       style="font-weight:bold;font-size:8px;line-height:1.25;font-family:Arial;-inkscape-font-specification:'Arial, Bold';font-variant-ligatures:none;text-align:center;text-anchor:middle;display:inline;fill:#423932;fill-opacity:1">
      <path
         d="m 46.048828,284.78598 h 2.113281 q 0.714844,0 1.089844,0.10938 0.503906,0.14843 0.863281,0.52734 0.359375,0.37891 0.546875,0.92969 0.1875,0.54687 0.1875,1.35156 0,0.70703 -0.175781,1.21875 -0.214844,0.625 -0.613281,1.01172 -0.300781,0.29297 -0.8125,0.45703 -0.382813,0.12109 -1.023438,0.12109 h -2.175781 z m 1.15625,0.96875 v 3.79297 h 0.863281 q 0.484375,0 0.699219,-0.0547 0.28125,-0.0703 0.464844,-0.23828 0.1875,-0.16797 0.304687,-0.55078 0.117188,-0.38672 0.117188,-1.05078 0,-0.66406 -0.117188,-1.01953 -0.117187,-0.35547 -0.328125,-0.55469 -0.210937,-0.19922 -0.535156,-0.26953 -0.242187,-0.0547 -0.949219,-0.0547 z"
         id="path3551"
         style="fill:#423932;fill-opacity:1" />
      <path
         d="m 51.830078,290.51254 v -5.72656 h 4.246094 v 0.96875 h -3.089844 v 1.26953 h 2.875 v 0.96485 h -2.875 v 1.55859 h 3.199219 v 0.96484 z"
         id="path3553"
         style="fill:#423932;fill-opacity:1" />
      <path
         d="m 60.830078,288.40707 1.121094,0.35547 q -0.257813,0.9375 -0.859375,1.39453 -0.597656,0.45313 -1.519531,0.45313 -1.140625,0 -1.875,-0.77734 -0.734375,-0.78125 -0.734375,-2.13282 0,-1.42968 0.738281,-2.21875 0.738281,-0.79297 1.941406,-0.79297 1.050781,0 1.707031,0.6211 0.390625,0.36719 0.585938,1.05469 l -1.144531,0.27343 q -0.101563,-0.44531 -0.425782,-0.70312 -0.320312,-0.25781 -0.78125,-0.25781 -0.636718,0 -1.035156,0.45703 -0.394531,0.45703 -0.394531,1.48047 0,1.08593 0.390625,1.54687 0.390625,0.46094 1.015625,0.46094 0.460937,0 0.792969,-0.29297 0.332031,-0.29297 0.476562,-0.92188 z"
         id="path3555"
         style="fill:#423932;fill-opacity:1" />
    </g>
    <g
       aria-label="ENV"
       id="text38542-0"
       style="font-weight:bold;font-size:8px;line-height:1.25;font-family:Arial;-inkscape-font-specification:'Arial, Bold';font-variant-ligatures:none;text-align:center;text-anchor:middle;display:inline;fill:#423932;fill-opacity:1"
       transform="translate(33)">
      <path
         d="m 13.070313,327.46899 v -5.72656 h 4.246093 v 0.96875 h -3.089843 v 1.26953 h 2.874999 v 0.96485 h -2.874999 v 1.55859 h 3.199218 v 0.96484 z"
         id="path3558"
         style="fill:#423932;fill-opacity:1" />
      <path
         d="m 18.417969,327.46899 v -5.72656 h 1.125 l 2.34375,3.82422 v -3.82422 h 1.074218 v 5.72656 h -1.160156 l -2.308594,-3.73437 v 3.73437 z"
         id="path3560"
         style="fill:#423932;fill-opacity:1" />
      <path
         d="m 25.644531,327.46899 -2.046875,-5.72656 h 1.253906 l 1.449219,4.23828 1.402344,-4.23828 h 1.226562 l -2.050781,5.72656 z"
         id="path3562"
         style="fill:#423932;fill-opacity:1" />
    </g>
    <g
       aria-label="SUS"
       id="text7787-2-9"
       style="font-weight:bold;font-size:8px;line-height:1.25;font-family:Arial;-inkscape-font-specification:'Arial, Bold';font-variant-ligatures:none;text-align:center;text-anchor:middle;display:inline;fill:#423932;fill-opacity:1"
       transform="translate(-94.223945,210.47142)">
      <path
         d="m 107.33918,115.13233 1.125,-0.10937 q 0.10156,0.5664 0.41016,0.83203 0.3125,0.26562 0.83984,0.26562 0.55859,0 0.83984,-0.23437 0.28516,-0.23828 0.28516,-0.55469 0,-0.20312 -0.12109,-0.34375 -0.11719,-0.14453 -0.41407,-0.25 -0.20312,-0.0703 -0.92578,-0.25 -0.92969,-0.23047 -1.30469,-0.56641 -0.52734,-0.47265 -0.52734,-1.15234 0,-0.4375 0.24609,-0.81641 0.25,-0.38281 0.71485,-0.58203 0.46875,-0.19922 1.1289,-0.19922 1.07813,0 1.6211,0.47266 0.54687,0.47266 0.57422,1.26172 l -1.15625,0.0508 q -0.0742,-0.44141 -0.32032,-0.63281 -0.24218,-0.19531 -0.73046,-0.19531 -0.50391,0 -0.78907,0.20703 -0.18359,0.13281 -0.18359,0.35547 0,0.20312 0.17187,0.34765 0.21875,0.1836 1.0625,0.38281 0.84375,0.19922 1.2461,0.41407 0.40625,0.21093 0.63281,0.58203 0.23047,0.36719 0.23047,0.91015 0,0.49219 -0.27344,0.92188 -0.27344,0.42969 -0.77344,0.64062 -0.5,0.20704 -1.24609,0.20704 -1.08594,0 -1.66797,-0.5 -0.58203,-0.50391 -0.69531,-1.46485 z"
         id="path40967"
         style="fill:#423932;fill-opacity:1" />
      <path
         d="m 112.96027,111.26905 h 1.15625 v 3.10156 q 0,0.73828 0.043,0.95703 0.0742,0.35157 0.35156,0.56641 0.28125,0.21094 0.76563,0.21094 0.49219,0 0.74219,-0.19922 0.25,-0.20313 0.30078,-0.49609 0.0508,-0.29297 0.0508,-0.97266 v -3.16797 h 1.15625 v 3.00781 q 0,1.03125 -0.0937,1.45703 -0.0937,0.42579 -0.34766,0.71875 -0.25,0.29297 -0.67187,0.46875 -0.42188,0.17188 -1.10156,0.17188 -0.82032,0 -1.2461,-0.1875 -0.42187,-0.19141 -0.66797,-0.49219 -0.24609,-0.30469 -0.32422,-0.63672 -0.11328,-0.49218 -0.11328,-1.45312 z"
         id="path40969"
         style="fill:#423932;fill-opacity:1" />
      <path
         d="m 118.45246,115.13233 1.125,-0.10937 q 0.10156,0.5664 0.41016,0.83203 0.3125,0.26562 0.83984,0.26562 0.55859,0 0.83984,-0.23437 0.28516,-0.23828 0.28516,-0.55469 0,-0.20312 -0.12109,-0.34375 -0.11719,-0.14453 -0.41407,-0.25 -0.20312,-0.0703 -0.92578,-0.25 -0.92968,-0.23047 -1.30468,-0.56641 -0.52735,-0.47265 -0.52735,-1.15234 0,-0.4375 0.2461,-0.81641 0.25,-0.38281 0.71484,-0.58203 0.46875,-0.19922 1.12891,-0.19922 1.07812,0 1.62109,0.47266 0.54687,0.47266 0.57422,1.26172 l -1.15625,0.0508 q -0.0742,-0.44141 -0.32031,-0.63281 -0.24219,-0.19531 -0.73047,-0.19531 -0.50391,0 -0.78907,0.20703 -0.18359,0.13281 -0.18359,0.35547 0,0.20312 0.17188,0.34765 0.21875,0.1836 1.0625,0.38281 0.84375,0.19922 1.24609,0.41407 0.40625,0.21093 0.63281,0.58203 0.23047,0.36719 0.23047,0.91015 0,0.49219 -0.27344,0.92188 -0.27343,0.42969 -0.77343,0.64062 -0.5,0.20704 -1.2461,0.20704 -1.08594,0 -1.66797,-0.5 -0.58203,-0.50391 -0.69531,-1.46485 z"
         id="path40971"
         style="fill:#423932;fill-opacity:1" />
    </g>
  </g>
  <text
     xml:space="preserve"
     id="text29904"
     style="font-weight:bold;font-size:8px;line-height:1.25;font-family:Arial;-inkscape-font-specification:'Arial, Bold';font-variant-ligatures:none;text-align:center;white-space:pre;shape-inside:url(#rect29906)" />
  <g
     inkscape:groupmode="layer"
     id="layer1"
     inkscape:label="Widgets"
     style="display:none">
    <circle
       style="fill:#ff0000;stroke:#ff0000;stroke-width:1.94925;stroke-opacity:1"
       id="path1065"
       cx="54"
       cy="341.5"
       r="10.525375" />
    <circle
       style="fill:#ff0000;stroke:#ff0000;stroke-width:1.94925;stroke-opacity:1"
       id="path1065-7"
       cx="21"
       cy="304.5"
       r="10.525375" />
    <circle
       style="fill:#ff0000;stroke:#ff0000;stroke-width:1.94925;stroke-opacity:1"
       id="path1065-7-1"
       cx="54"
       cy="304.5"
       r="10.525375" />
    <circle
       style="display:inline;fill:#ff0000;stroke:#ff0000;stroke-width:1.94925;stroke-opacity:1"
       id="path1065-7-1-8"
       cx="21"
       cy="266.49954"
       r="10.525375" />
    <circle
       style="display:inline;fill:#ff0000;stroke:#ff0000;stroke-width:1.94925;stroke-opacity:1"
       id="path1065-7-1-17"
       cx="54"
       cy="266.49954"
       r="10.525375" />
    <circle
       style="display:inline;fill:#ff0000;stroke:#ff0000;stroke-width:1.94925;stroke-opacity:1"
       id="path1065-7-1-89"
       cx="21"
       cy="220.5"
       r="10.525375" />
    <circle
       style="display:inline;fill:#ff0000;stroke:#ff0000;stroke-width:1.94925;stroke-opacity:1"
       id="path1065-7-1-2"
       cx="54"
       cy="220.5"
       r="10.525375" />
    <circle
       style="display:inline;fill:#ff0000;stroke:#ff0000;stroke-width:1.94925;stroke-opacity:1"
       id="path1065-7-1-7"
       cx="21"
       cy="187"
       r="10.025375" />
    <circle
       style="display:inline;fill:#ff0000;stroke:#ff0000;stroke-width:1.94925;stroke-opacity:1"
       id="path1065-7-1-7-7"
       cx="21"
       cy="112.49925"
       r="7.5253749" />
    <circle
       style="display:inline;fill:#ff0000;stroke:#ff0000;stroke-width:1.94925;stroke-opacity:1"
       id="path1065-7-1-7-4"
       cx="54"
       cy="112.49925"
       r="7.5253749" />
    <circle
       style="display:inline;fill:#ff0000;stroke:#ff0000;stroke-width:1.94925;stroke-opacity:1"
       id="path1065-7-1-7-0"
       cx="54"
       cy="187"
       r="10.025375" />
    <circle
       style="display:inline;fill:#ff0000;stroke:#ff0000;stroke-width:1.94925;stroke-opacity:1"
       id="path1065-7-1-15"
       cx="21"
       cy="151"
       r="13.025374" />
    <circle
       style="display:inline;fill:#ff0000;stroke:#ff0000;stroke-width:1.94925;stroke-opacity:1"
       id="path1065-7-1-15-7"
       cx="54"
       cy="151"
       r="13.025374" />
    <circle
       style="display:inline;fill:#ff0000;stroke:#ff0000;stroke-width:1.77975;stroke-opacity:1"
       id="path1065-7-1-15-4"
       cx="21"
       cy="82.500031"
       r="9.6101246" />
    <circle
       style="display:inline;fill:#ff0000;stroke:#ff0000;stroke-width:1.94925;stroke-opacity:1"
       id="path1065-1"
       cx="21"
       cy="341.5"
       r="10.525375" />
    <circle
       style="display:inline;fill:#ff0000;stroke:#ff0000;stroke-width:1.77975;stroke-opacity:1"
       id="path1065-7-1-15-4-58"
       cx="54"
       cy="82.500031"
       r="9.6101246" />
    <circle
       style="display:inline;fill:#ff0000;stroke:#ff0000;stroke-width:0.64063;stroke-opacity:1"
       id="path1065-7-2-3-2"
       cx="17"
       cy="48.076355"
       r="3.4592125" />
    <circle
       style="display:inline;fill:#ff0000;stroke:#ff0000;stroke-width:0.64063;stroke-opacity:1"
       id="path1065-7-2-3-2-3"
       cx="58"
       cy="48.076355"
       r="3.4592125" />
    <circle
       style="display:inline;fill:#ff0000;stroke:#ff0000;stroke-width:0.64063;stroke-opacity:1"
       id="path1065-7-2-3-2-3-2"
       cx="37.5"
       cy="48.076355"
       r="3.4592125" />
  </g>
</svg>
