<?xml version="1.0" encoding="UTF-8" standalone="no"?>
<svg
   width="45"
   height="380"
   viewBox="0 0 45 380"
   version="1.1"
   id="svg100"
   sodipodi:docname="BenjolinVoltsExpander_Earth.svg"
   inkscape:version="1.1.1 (3bf5ae0d25, 2021-09-20)"
   xmlns:inkscape="http://www.inkscape.org/namespaces/inkscape"
   xmlns:sodipodi="http://sodipodi.sourceforge.net/DTD/sodipodi-0.dtd"
   xmlns="http://www.w3.org/2000/svg"
   xmlns:svg="http://www.w3.org/2000/svg"
   xmlns:rdf="http://www.w3.org/1999/02/22-rdf-syntax-ns#"
   xmlns:cc="http://creativecommons.org/ns#"
   xmlns:dc="http://purl.org/dc/elements/1.1/">
  <metadata
     id="metadata104">
    <rdf:RDF>
      <cc:Work
         rdf:about="">
        <dc:format>image/svg+xml</dc:format>
        <dc:type
           rdf:resource="http://purl.org/dc/dcmitype/StillImage" />
      </cc:Work>
    </rdf:RDF>
  </metadata>
  <sodipodi:namedview
     pagecolor="#ffffff"
     bordercolor="#666666"
     borderopacity="1"
     objecttolerance="1"
     gridtolerance="1"
     guidetolerance="1"
     inkscape:pageopacity="0"
     inkscape:pageshadow="2"
     inkscape:window-width="1920"
     inkscape:window-height="1057"
     id="namedview102"
     showgrid="true"
     inkscape:zoom="2.2342105"
     inkscape:cx="-2.237927"
     inkscape:cy="190"
     inkscape:window-x="1592"
     inkscape:window-y="-8"
     inkscape:window-maximized="1"
     inkscape:current-layer="layer2"
     inkscape:pagecheckerboard="0"
     units="px"
     inkscape:showpageshadow="false"
     showborder="true">
    <inkscape:grid
       type="xygrid"
       id="grid1285"
       visible="false" />
  </sodipodi:namedview>
  <defs
     id="defs7">
    <rect
       x="85"
       y="10"
       width="51.058132"
       height="25"
       id="rect29906" />
    <linearGradient
       id="a8e142bb-541b-4903-be63-d5d069028a5d"
       x1="22.5"
       x2="22.5"
       y2="380"
       gradientUnits="userSpaceOnUse">
      <stop
         offset="0"
         stop-color="#ebebeb"
         id="stop2" />
      <stop
         offset="1"
         stop-color="#e1e1e1"
         id="stop4" />
    </linearGradient>
  </defs>
  <g
     inkscape:groupmode="layer"
     id="layer2"
     inkscape:label="Faceplate"
     style="display:inline">
    <g
       id="aea613ef-74be-49bf-be45-c0734aee674b"
       data-name="FND BG"
       style="fill:#423932;fill-opacity:1">
      <rect
         width="45"
         height="380"
         fill="url(#a8e142bb-541b-4903-be63-d5d069028a5d)"
         id="rect9"
         style="fill:#423932;fill-opacity:1"
         x="0"
         y="0" />
    </g>
  </g>
  <g
     inkscape:groupmode="layer"
     id="layer3"
     inkscape:label="Brand"
     style="display:inline">
    <g
       id="g42796"
       transform="matrix(0.30458296,0,0,0.30458296,-0.5624499,-12.68508)"
       style="fill:#ff0000">
      <g
         aria-label="enom"
         id="text4270-27"
         style="font-size:49.3889px;line-height:1.25;font-family:'NECK ROMANCER';-inkscape-font-specification:'NECK ROMANCER, Normal';font-variant-ligatures:none;text-align:center;text-anchor:middle;fill:#ff0000;stroke-width:2.64583">
        <path
           d="m 46.609141,1249.244 q 0,1.1576 0,3.4245 3.183269,0 9.453344,0 -1.639866,0.5787 -2.990343,1.2058 -1.350478,0.627 -2.363337,1.688 -1.350477,0 -4.051433,0 0,1.4952 0.434082,2.5563 0.385851,1.1093 1.832792,1.1093 2.266873,0 6.80062,0 0.482313,-0.1447 0.868164,-0.627 0.337619,-0.5305 0.627007,-1.7363 0,2.0257 0,6.1254 -3.520888,0 -10.562665,0 -1.543403,0 -2.652724,-2.2187 -1.109321,-2.1704 -1.109321,-6.3183 0,-1.9775 0,-5.836 -0.385851,-1.3504 -1.881023,-2.1221 -1.495171,-0.7235 -3.569119,-1.2058 6.607694,0 19.774852,0 0,2.9421 0,8.7781 -1.205783,-2.701 -2.218642,-3.6656 -1.012858,-0.9646 -2.700955,-1.1093 -0.916396,-0.097 -2.170411,-0.097 -1.205783,0.048 -2.845649,0.048 -0.241157,0 -0.675239,0 z"
           id="path42762"
           style="fill:#ff0000" />
        <path
           d="m 81.576869,1245.2891 q 0,5.8842 0,17.7009 0,3.0868 -0.144694,6.0771 -0.09646,3.0386 -0.337619,5.9325 -0.385851,-3.7138 -0.964627,-6.9936 -0.530545,-3.3279 -2.025717,-5.016 0,-2.9904 0,-8.9228 -0.241157,-1.3505 -0.72347,-2.2187 -0.482314,-0.8681 -1.06109,-1.3987 -1.109321,-1.0128 -2.411567,-1.1093 -1.350478,-0.097 -2.266874,-0.097 -0.482313,0 -1.44694,0 0,4.582 0,13.746 0,3.0868 -0.09646,6.0771 -0.144694,3.0386 -0.385851,5.9325 -0.38585,-3.7138 -0.916395,-6.9936 -0.578776,-3.3279 -2.025717,-5.016 0,-4.8232 0,-14.373 -0.385851,-1.3504 -1.881022,-2.1221 -1.495172,-0.7235 -3.56912,-1.2058 6.752389,0 20.257166,0 z"
           id="path42764"
           style="fill:#ff0000" />
        <path
           d="m 104.19737,1249.0511 q 0,3.3762 0,10.1768 0,1.5434 -1.92925,2.6528 -1.92926,1.1093 -6.077152,1.1093 -4.196128,0 -6.125382,-1.1093 -1.929254,-1.1094 -1.929254,-2.6528 0,-3.3762 0,-10.1768 0,-1.5434 1.929254,-2.6527 1.929254,-1.1093 6.125382,-1.1093 4.147892,0 6.077152,1.1093 1.92925,1.1093 1.92925,2.6527 z m -3.76204,7.91 q 0,-1.8811 0,-5.6431 0,-1.6881 -1.254019,-1.9775 -1.205783,-0.2894 -2.990343,-0.2894 -1.832792,0 -3.038575,0.2894 -1.254015,0.2894 -1.254015,1.9775 0,1.881 0,5.6431 0,1.6881 1.254015,1.9774 1.205783,0.2894 3.038575,0.2894 1.78456,0 2.990343,-0.2894 1.254019,-0.2893 1.254019,-1.9774 z"
           id="path42766"
           style="fill:#ff0000" />
        <path
           d="m 142.34837,1245.2891 q -2.02572,0.4823 -3.52089,1.2058 -1.5434,0.7717 -1.88102,2.1221 0,4.7749 0,14.373 -1.49517,1.6881 -2.02572,5.016 -0.57878,3.2798 -0.96463,6.9936 -0.24115,-2.8939 -0.33762,-5.9325 -0.14469,-2.9903 -0.14469,-6.0771 0,-4.582 0,-13.746 -0.48231,0 -1.39871,0 -0.53054,0 -1.15755,0 -0.62701,0 -1.30225,0.1447 -1.25401,0.2412 -2.41157,1.2058 -1.15755,0.9646 -1.63986,3.4727 0,2.9903 0,8.9228 -0.1447,0.627 -0.28939,1.1093 -0.0965,0.4823 -0.19292,0.8199 -0.53055,1.9775 -0.38586,1.3505 0.19293,-0.627 -0.28938,1.1576 -0.0965,0.3376 -0.24116,0.8681 -0.14469,0.5306 -0.33762,1.3023 -0.14469,-0.6753 -0.28939,-1.2058 -0.14469,-0.4823 -0.24115,-0.8199 -0.53055,-2.0258 -0.33762,-1.3023 0.19292,0.7717 -0.43409,-1.6881 -0.0482,-0.2894 -0.19292,-0.7235 -0.0965,-0.3858 -0.19293,-0.8681 0,-2.9904 0,-8.9228 -0.28939,-1.3505 -0.7717,-2.2187 -0.48231,-0.8681 -1.06109,-1.3987 -1.10932,-1.0128 -2.41157,-1.1093 -1.30224,-0.097 -2.26687,-0.097 -0.48231,0 -1.39871,0 0,4.582 0,13.746 0,3.0868 -0.14469,6.0771 -0.0965,3.0386 -0.33762,5.9325 -0.38585,-3.7138 -0.96463,-6.9936 -0.53054,-3.3279 -2.02572,-5.016 0,-4.8232 0,-14.373 -0.38585,-1.3504 -1.88102,-2.1221 -1.49517,-0.7235 -3.56912,-1.2058 3.95497,0 11.76845,0 1.15755,0.3858 3.47266,1.1575 0.7717,0.2894 1.59163,0.4341 0.81994,0.1447 1.6881,0.1447 0.86816,0 1.73633,-0.1447 0.81993,-0.1447 1.59163,-0.4341 1.15756,-0.3858 3.42443,-1.1575 3.95497,0 11.76845,0 z"
           id="path42768"
           style="fill:#ff0000" />
      </g>
      <g
         aria-label="V"
         transform="matrix(1.2363173,0,0,0.80885384,-497.88086,123.48586)"
         id="text4270-3-5-2"
         style="font-size:78.5061px;line-height:1.25;font-family:Nosferotica;-inkscape-font-specification:'Nosferotica, Normal';font-variant-ligatures:none;text-align:center;text-anchor:middle;fill:#ff0000;stroke-width:3.27108">
        <path
           d="m 431.64994,1360.6864 8.57428,-0.1022 c 0,0 -4.4079,1.0878 -5.59925,3.7285 -1.88083,4.1689 -3.64217,14.6628 -3.64217,14.6628 l -2.23339,11.5191 -1.83311,11.8311 -1.71824,21.3112 -1.69514,-21.3112 -1.92196,-11.5208 -2.5009,-11.8294 c 0,0 -1.52027,-10.287 -3.38278,-14.4832 -1.14458,-2.5787 -5.63367,-3.8059 -5.63367,-3.8059 h 8.4657 l 6.66875,29.1569 z"
           id="path30410"
           sodipodi:nodetypes="ccscccccccscccc"
           style="fill:#ff0000" />
      </g>
    </g>
  </g>
  <g
     inkscape:groupmode="layer"
     id="layer4"
     inkscape:label="Solid"
     style="display:inline">
    <rect
       style="fill:#d2ac95;fill-opacity:1;stroke:none;stroke-width:0.623622"
       id="rect17730"
       width="35"
       height="38.098999"
       x="5"
       y="316.48712"
       ry="6.2661963"
       rx="6.2661948" />
    <g
       aria-label="1"
       id="text16671"
       style="font-weight:bold;font-size:8.00058px;line-height:1.25;font-family:Arial;-inkscape-font-specification:'Arial, Bold';font-variant-ligatures:none;text-align:center;text-anchor:middle;display:inline;fill:#d2ac95;fill-opacity:1"
       transform="translate(-11.941282,14.000001)">
      <path
         d="m 23.757929,39.750416 h -1.097736 v -4.137019 q -0.601606,0.562541 -1.418071,0.832092 v -0.996166 q 0.429718,-0.140635 0.933661,-0.531289 0.503943,-0.39456 0.691456,-0.918035 h 0.89069 z"
         id="path19468"
         style="fill:#d2ac95;fill-opacity:1" />
    </g>
    <g
       aria-label="2"
       id="text16671-3"
       style="font-weight:bold;font-size:8.00058px;line-height:1.25;font-family:Arial;-inkscape-font-specification:'Arial, Bold';font-variant-ligatures:none;text-align:center;text-anchor:middle;display:inline;fill:#d2ac95;fill-opacity:1"
       transform="translate(-12.173532,8.00237)">
      <path
         d="m 24.656243,69.728442 v 1.019605 h -3.847935 q 0.0625,-0.578167 0.375027,-1.093829 0.312523,-0.519569 1.234464,-1.3751 0.742242,-0.691456 0.910223,-0.937568 0.226578,-0.339868 0.226578,-0.671924 0,-0.367214 -0.199233,-0.56254 -0.195326,-0.199234 -0.543008,-0.199234 -0.343775,0 -0.546914,0.207047 -0.20314,0.207046 -0.234392,0.687549 l -1.09383,-0.109383 q 0.09766,-0.906315 0.613326,-1.300875 0.515662,-0.39456 1.289156,-0.39456 0.847718,0 1.332128,0.457064 0.48441,0.457065 0.48441,1.136802 0,0.386746 -0.140635,0.738334 -0.136729,0.347682 -0.437532,0.730522 -0.199233,0.253925 -0.718802,0.730522 -0.519569,0.476597 -0.660204,0.632858 -0.136729,0.156261 -0.222673,0.30471 z"
         id="path19471"
         style="fill:#d2ac95;fill-opacity:1" />
    </g>
    <g
       aria-label="3"
       id="text16671-3-6"
       style="font-weight:bold;font-size:8.00058px;line-height:1.25;font-family:Arial;-inkscape-font-specification:'Arial, Bold';font-variant-ligatures:none;text-align:center;text-anchor:middle;display:inline;fill:#d2ac95;fill-opacity:1"
       transform="translate(-11.900459,2.004747)">
      <path
         d="m 20.556721,100.22603 1.062577,-0.12892 q 0.05078,0.40628 0.273457,0.62114 0.222672,0.21486 0.539101,0.21486 0.339869,0 0.570354,-0.25783 0.234392,-0.25783 0.234392,-0.695366 0,-0.414093 -0.222672,-0.656298 -0.222673,-0.242205 -0.543008,-0.242205 -0.210953,0 -0.503943,0.08204 l 0.121103,-0.894596 q 0.445344,0.01172 0.679736,-0.19142 0.234392,-0.207046 0.234392,-0.546915 0,-0.289083 -0.171887,-0.460971 -0.171888,-0.171887 -0.457065,-0.171887 -0.28127,0 -0.480503,0.195327 -0.199233,0.195326 -0.242205,0.570353 l -1.011792,-0.171887 q 0.105476,-0.519569 0.316429,-0.828185 0.214859,-0.312523 0.593793,-0.488317 0.38284,-0.1797 0.855531,-0.1797 0.808652,0 1.296969,0.515662 0.402373,0.421906 0.402373,0.953194 0,0.753961 -0.824279,1.203212 0.492223,0.105477 0.785213,0.472691 0.296897,0.367214 0.296897,0.886778 0,0.75396 -0.550821,1.28525 -0.550822,0.53129 -1.371194,0.53129 -0.7774,0 -1.289155,-0.44534 -0.511756,-0.44926 -0.593793,-1.17196 z"
         id="path19474"
         style="fill:#d2ac95;fill-opacity:1" />
    </g>
    <g
       aria-label="4"
       id="text16671-3-9"
       style="font-weight:bold;font-size:8.00058px;line-height:1.25;font-family:Arial;-inkscape-font-specification:'Arial, Bold';font-variant-ligatures:none;text-align:center;text-anchor:middle;display:inline;fill:#d2ac95;fill-opacity:1"
       transform="translate(-12.257523,-3.9929)">
      <path
         d="m 23.101443,132.74332 v -1.15243 h -2.34392 v -0.96101 l 2.484555,-3.63698 h 0.921942 v 3.63308 h 0.710989 v 0.96491 H 24.16402 v 1.15243 z m 0,-2.11734 v -1.95718 l -1.316502,1.95718 z"
         id="path19477"
         style="fill:#d2ac95;fill-opacity:1" />
    </g>
    <g
       aria-label="5"
       id="text16671-3-4"
       style="font-weight:bold;font-size:8.00058px;line-height:1.25;font-family:Arial;-inkscape-font-specification:'Arial, Bold';font-variant-ligatures:none;text-align:center;text-anchor:middle;display:inline;fill:#d2ac95;fill-opacity:1"
       transform="translate(-11.754813,-9.99067)">
      <path
         d="m 20.387636,162.16661 1.093829,-0.11329 q 0.04688,0.37112 0.277364,0.58989 0.230486,0.21486 0.531289,0.21486 0.343775,0 0.582073,-0.27737 0.238299,-0.28127 0.238299,-0.84381 0,-0.52738 -0.238299,-0.78912 -0.234392,-0.26564 -0.613326,-0.26564 -0.47269,0 -0.847717,0.418 l -0.89069,-0.12892 0.562541,-2.98068 h 2.902554 v 1.02742 h -2.070462 l -0.171888,0.97272 q 0.367214,-0.18361 0.750054,-0.18361 0.730522,0 1.238371,0.53129 0.50785,0.53129 0.50785,1.37901 0,0.70708 -0.410186,1.26181 -0.558634,0.75787 -1.550894,0.75787 -0.793026,0 -1.293062,-0.42582 -0.500037,-0.42581 -0.5977,-1.14461 z"
         id="path19480"
         style="fill:#d2ac95;fill-opacity:1" />
    </g>
    <g
       aria-label="6"
       id="text16671-3-8"
       style="font-weight:bold;font-size:8.00058px;line-height:1.25;font-family:Arial;-inkscape-font-specification:'Arial, Bold';font-variant-ligatures:none;text-align:center;text-anchor:middle;display:inline;fill:#d2ac95;fill-opacity:1"
       transform="translate(-11.725514,-15.98815)">
      <path
         d="m 24.09103,190.41404 -1.062577,0.11719 q -0.03907,-0.32814 -0.20314,-0.48441 -0.164075,-0.15626 -0.425812,-0.15626 -0.347682,0 -0.589887,0.31253 -0.238298,0.31252 -0.300803,1.30087 0.410186,-0.48441 1.019605,-0.48441 0.68755,0 1.175867,0.52348 0.492223,0.52347 0.492223,1.35166 0,0.87897 -0.515662,1.41026 -0.515663,0.53128 -1.324315,0.53128 -0.867251,0 -1.425885,-0.67192 -0.558634,-0.67583 -0.558634,-2.2111 0,-1.57433 0.582073,-2.26969 0.582074,-0.69537 1.511829,-0.69537 0.652391,0 1.078203,0.36722 0.429719,0.36331 0.546915,1.05867 z m -2.488462,2.3947 q 0,0.5352 0.246112,0.82819 0.246111,0.28908 0.56254,0.28908 0.30471,0 0.50785,-0.2383 0.203139,-0.23829 0.203139,-0.7813 0,-0.55864 -0.218766,-0.81647 -0.218765,-0.26174 -0.546914,-0.26174 -0.316429,0 -0.535195,0.25002 -0.218766,0.24611 -0.218766,0.73052 z"
         id="path19483"
         style="fill:#d2ac95;fill-opacity:1" />
    </g>
    <g
       aria-label="7"
       id="text16671-3-48"
       style="font-weight:bold;font-size:8.00058px;line-height:1.25;font-family:Arial;-inkscape-font-specification:'Arial, Bold';font-variant-ligatures:none;text-align:center;text-anchor:middle;display:inline;fill:#d2ac95;fill-opacity:1"
       transform="translate(-11.690355,-21.9858)">
      <path
         d="m 20.37201,221.0054 v -1.0196 h 3.754178 v 0.79693 q -0.464877,0.45706 -0.945381,1.31259 -0.480503,0.85554 -0.734428,1.82045 -0.250018,0.96101 -0.246111,1.71887 h -1.058671 q 0.02735,-1.18758 0.488317,-2.42205 0.464877,-1.23446 1.238371,-2.20719 z"
         id="path19486"
         style="fill:#d2ac95;fill-opacity:1" />
    </g>
    <g
       aria-label="8"
       id="text16671-3-2"
       style="font-weight:bold;font-size:8.00058px;line-height:1.25;font-family:Arial;-inkscape-font-specification:'Arial, Bold';font-variant-ligatures:none;text-align:center;text-anchor:middle;display:inline;fill:#d2ac95;fill-opacity:1"
       transform="translate(-11.904365,-27.98341)">
      <path
         d="m 21.53726,253.64376 q -0.425812,-0.1797 -0.621138,-0.49223 -0.191421,-0.31642 -0.191421,-0.69145 0,-0.64067 0.445345,-1.05867 0.449252,-0.418 1.27353,-0.418 0.816465,0 1.265717,0.418 0.453158,0.418 0.453158,1.05867 0,0.39846 -0.207047,0.71099 -0.207046,0.30861 -0.582073,0.47269 0.476597,0.19142 0.722709,0.55863 0.250018,0.36722 0.250018,0.84772 0,0.79303 -0.50785,1.28916 -0.503942,0.49613 -1.343847,0.49613 -0.781307,0 -1.300876,-0.41019 -0.613325,-0.48441 -0.613325,-1.32822 0,-0.46488 0.230485,-0.85163 0.230486,-0.39065 0.726615,-0.6016 z m 0.226579,-1.10555 q 0,0.32815 0.183607,0.51175 0.187514,0.18361 0.49613,0.18361 0.312523,0 0.500036,-0.18361 0.187514,-0.18751 0.187514,-0.51566 0,-0.30861 -0.187514,-0.49222 -0.183607,-0.18751 -0.488316,-0.18751 -0.31643,0 -0.503943,0.18751 -0.187514,0.18751 -0.187514,0.49613 z m -0.10157,2.4533 q 0,0.45316 0.230486,0.70708 0.234392,0.25393 0.582073,0.25393 0.339869,0 0.562541,-0.24221 0.222672,-0.24611 0.222672,-0.70708 0,-0.40237 -0.226578,-0.64458 -0.226579,-0.24611 -0.574261,-0.24611 -0.402373,0 -0.601606,0.27737 -0.195327,0.27736 -0.195327,0.6016 z"
         id="path19489"
         style="fill:#d2ac95;fill-opacity:1" />
    </g>
    <g
       id="g25703"
       style="fill:#d2ac95;fill-opacity:1">
      <g
         aria-label="BNJLN"
         id="text3264"
         style="font-weight:bold;font-size:10.6667px;line-height:1.25;font-family:Arial;-inkscape-font-specification:'Arial, Bold';font-variant-ligatures:none;text-align:center;text-anchor:middle;fill:#d2ac95;fill-opacity:1"
         transform="translate(160.80908,2)">
        <path
           d="m -155.27008,6.2397061 h 3.05209 q 0.90626,0 1.34897,0.078125 0.44792,0.072917 0.79687,0.312501 0.35417,0.2395841 0.58855,0.640627 0.23437,0.3958346 0.23437,0.8906278 0,0.5364601 -0.29166,0.9843782 -0.28646,0.447918 -0.78126,0.6718771 0.69792,0.2031258 1.07292,0.6927108 0.37501,0.489585 0.37501,1.151045 0,0.520835 -0.2448,1.015628 -0.23958,0.489585 -0.66146,0.786461 -0.41667,0.291668 -1.03125,0.359376 -0.38542,0.04167 -1.85938,0.05208 h -2.59897 z m 1.54167,1.2708373 V 9.276174 h 1.01042 q 0.90105,0 1.1198,-0.026042 0.39583,-0.046875 0.61979,-0.2708342 0.22917,-0.2291674 0.22917,-0.5989603 0,-0.3541677 -0.19792,-0.5729184 -0.19271,-0.2239591 -0.57812,-0.2708342 -0.22917,-0.026042 -1.31772,-0.026042 z m 0,3.0364676 v 2.041673 h 1.42709 q 0.83334,0 1.0573,-0.04687 0.34375,-0.0625 0.55729,-0.302084 0.21875,-0.244792 0.21875,-0.651044 0,-0.343751 -0.16667,-0.583335 -0.16666,-0.239584 -0.48437,-0.348959 -0.3125,-0.109376 -1.36459,-0.109376 z"
           id="path6857"
           style="fill:#d2ac95;fill-opacity:1" />
        <path
           d="M -147.55651,13.875147 V 6.2397061 h 1.5 l 3.12501,5.0989749 V 6.2397061 h 1.4323 v 7.6354409 h -1.54688 l -3.07814,-4.9791825 v 4.9791825 z"
           id="path6859"
           style="fill:#d2ac95;fill-opacity:1" />
        <path
           d="m -137.11377,6.2397061 h 1.53646 v 4.8333489 q 0,0.947919 -0.16666,1.458338 -0.22396,0.666668 -0.81251,1.07292 -0.58854,0.401043 -1.55209,0.401043 -1.13021,0 -1.73958,-0.630211 -0.60938,-0.635418 -0.61459,-1.859381 l 1.45313,-0.166667 q 0.026,0.656252 0.19271,0.927086 0.25,0.41146 0.76042,0.41146 0.51562,0 0.72917,-0.291667 0.21354,-0.296876 0.21354,-1.223963 z"
           id="path6861"
           style="fill:#d2ac95;fill-opacity:1" />
        <path
           d="M -133.89501,13.875147 V 6.3022063 h 1.54167 v 6.2864777 h 3.83335 v 1.286463 z"
           id="path6863"
           style="fill:#d2ac95;fill-opacity:1" />
        <path
           d="M -127.40541,13.875147 V 6.2397061 h 1.50001 l 3.12501,5.0989749 V 6.2397061 h 1.43229 v 7.6354409 h -1.54688 l -3.07813,-4.9791825 v 4.9791825 z"
           id="path6865"
           style="fill:#d2ac95;fill-opacity:1" />
      </g>
      <g
         aria-label="VOLTS"
         id="text6481"
         style="font-weight:bold;font-size:10.6667px;line-height:1.25;font-family:Arial;-inkscape-font-specification:'Arial, Bold';font-variant-ligatures:none;text-align:center;text-anchor:middle;display:inline;fill:#d2ac95;fill-opacity:1">
        <path
           d="M 8.1041115,27.062178 5.3749362,19.426737 h 1.6718803 l 1.9322977,5.651059 1.8697978,-5.651059 h 1.635422 L 9.74995,27.062178 Z"
           id="path19506"
           style="fill:#d2ac95;fill-opacity:1" />
        <path
           d="m 12.958294,23.291332 q 0,-1.16667 0.348959,-1.958339 0.260417,-0.583335 0.708336,-1.046878 0.453126,-0.463544 0.989586,-0.687503 0.713544,-0.302084 1.645839,-0.302084 1.687505,0 2.697925,1.046878 1.015628,1.046879 1.015628,2.911468 0,1.848964 -1.005212,2.895842 -1.005211,1.04167 -2.687508,1.04167 -1.70313,0 -2.708342,-1.036461 -1.005211,-1.04167 -1.005211,-2.864593 z m 1.588546,-0.05208 q 0,1.296879 0.59896,1.968756 0.598961,0.666669 1.520839,0.666669 0.921878,0 1.510421,-0.661461 0.593752,-0.666668 0.593752,-1.994797 0,-1.312505 -0.578127,-1.95834 -0.572918,-0.645835 -1.526046,-0.645835 -0.953128,0 -1.536464,0.656252 -0.583335,0.651043 -0.583335,1.968756 z"
           id="path19508"
           style="fill:#d2ac95;fill-opacity:1" />
        <path
           d="m 21.609362,27.062178 v -7.572941 h 1.541672 v 6.286478 h 3.833345 v 1.286463 z"
           id="path19510"
           style="fill:#d2ac95;fill-opacity:1" />
        <path
           d="m 29.010427,27.062178 v -6.34377 h -2.265632 v -1.291671 h 6.067727 v 1.291671 h -2.260424 v 6.34377 z"
           id="path19512"
           style="fill:#d2ac95;fill-opacity:1" />
        <path
           d="m 33.416691,24.577795 1.500005,-0.145834 q 0.135417,0.755211 0.546877,1.109379 0.416668,0.354167 1.119795,0.354167 0.744794,0 1.119795,-0.312501 0.38021,-0.317709 0.38021,-0.739585 0,-0.270835 -0.161459,-0.458335 -0.156251,-0.192709 -0.552085,-0.333335 -0.270835,-0.09375 -1.234379,-0.333334 -1.239587,-0.307293 -1.739589,-0.755211 -0.703127,-0.63021 -0.703127,-1.536463 0,-0.583335 0.328126,-1.088545 0.333334,-0.510418 0.953128,-0.776044 0.625002,-0.265626 1.505213,-0.265626 1.437504,0 2.161465,0.63021 0.729169,0.630211 0.765627,1.682297 l -1.541671,0.06771 q -0.09896,-0.588544 -0.427085,-0.843753 -0.322917,-0.260417 -0.973961,-0.260417 -0.671877,0 -1.052087,0.276042 -0.244792,0.177084 -0.244792,0.47396 0,0.270834 0.229167,0.463543 0.291668,0.244793 1.416671,0.510419 1.125004,0.265625 1.661464,0.552085 0.541668,0.281251 0.843752,0.776044 0.307293,0.489585 0.307293,1.213545 0,0.656252 -0.364584,1.229171 -0.364585,0.572918 -1.031254,0.854169 -0.666668,0.276043 -1.661463,0.276043 -1.447921,0 -2.223966,-0.666669 -0.776044,-0.671877 -0.927086,-1.953131 z"
           id="path19514"
           style="fill:#d2ac95;fill-opacity:1" />
      </g>
    </g>
    <g
       aria-label="BI"
       id="text27611"
       style="font-weight:bold;font-size:6.66667px;line-height:1.25;font-family:Arial;-inkscape-font-specification:'Arial, Bold';font-variant-ligatures:none;text-align:center;text-anchor:middle;fill:#d2ac95;fill-opacity:1"
       transform="translate(-2.9999946,-24.999999)">
      <path
         d="m 35.856942,57.999999 h 1.907553 q 0.566407,0 0.8431,0.04883 0.279948,0.04557 0.498047,0.195313 0.221354,0.149739 0.367839,0.400391 0.146484,0.247396 0.146484,0.55664 0,0.335287 -0.182292,0.615235 -0.179036,0.279948 -0.488281,0.419922 0.436198,0.126953 0.670573,0.432943 0.234375,0.30599 0.234375,0.719401 0,0.325521 -0.152995,0.634766 -0.149739,0.30599 -0.413411,0.491537 -0.260417,0.182292 -0.644532,0.22461 -0.240885,0.02604 -1.16211,0.03255 h -1.62435 z m 0.963543,0.794271 v 1.103516 h 0.63151 q 0.563152,0 0.69987,-0.01628 0.247396,-0.0293 0.38737,-0.169271 0.14323,-0.143229 0.14323,-0.374349 0,-0.221354 -0.123698,-0.358073 -0.120443,-0.139974 -0.361329,-0.169271 -0.143229,-0.01628 -0.823568,-0.01628 z m 0,1.897788 V 61.9681 h 0.891927 q 0.520834,0 0.660808,-0.0293 0.214844,-0.03906 0.348307,-0.188802 0.136719,-0.152995 0.136719,-0.406901 0,-0.214844 -0.104167,-0.364584 -0.104167,-0.14974 -0.302734,-0.218099 -0.195313,-0.06836 -0.852865,-0.06836 z"
         id="path33544"
         style="fill:#d2ac95;fill-opacity:1" />
      <path
         d="m 40.638846,62.772137 v -4.772138 h 0.963542 v 4.772138 z"
         id="path33546"
         style="fill:#d2ac95;fill-opacity:1" />
    </g>
    <g
       aria-label="RANGE"
       id="text38121"
       style="font-weight:bold;font-size:8px;line-height:1.25;font-family:Arial;-inkscape-font-specification:'Arial, Bold';font-variant-ligatures:none;text-align:center;text-anchor:middle;display:inline;fill:#d2ac95;fill-opacity:1"
       transform="translate(133.85501,11.02328)">
      <path
         d="m -125.30814,240.80093 v -5.72656 h 2.4336 q 0.91797,0 1.33203,0.15625 0.41797,0.15235 0.66797,0.54688 0.25,0.39453 0.25,0.90234 0,0.64453 -0.37891,1.06641 -0.3789,0.41797 -1.13281,0.52734 0.375,0.21875 0.61719,0.48047 0.24609,0.26172 0.66015,0.92969 l 0.69922,1.11718 h -1.38281 l -0.83594,-1.24609 q -0.44531,-0.66797 -0.60937,-0.83984 -0.16407,-0.17578 -0.34766,-0.23828 -0.18359,-0.0664 -0.58203,-0.0664 h -0.23438 v 2.39062 z m 1.15625,-3.30468 h 0.85547 q 0.83203,0 1.03907,-0.0703 0.20703,-0.0703 0.32421,-0.24218 0.11719,-0.17188 0.11719,-0.42969 0,-0.28906 -0.15625,-0.46484 -0.15234,-0.17969 -0.43359,-0.22657 -0.14063,-0.0195 -0.84375,-0.0195 h -0.90235 z"
         id="path45700"
         style="fill:#d2ac95;fill-opacity:1" />
      <path
         d="m -114.37064,240.80093 h -1.25781 l -0.5,-1.30078 h -2.28906 l -0.47266,1.30078 h -1.22656 l 2.23047,-5.72656 h 1.22266 z m -2.1289,-2.26562 -0.78906,-2.125 -0.77344,2.125 z"
         id="path45702"
         style="fill:#d2ac95;fill-opacity:1" />
      <path
         d="m -113.74564,240.80093 v -5.72656 h 1.125 l 2.34375,3.82422 v -3.82422 h 1.07422 v 5.72656 h -1.16015 l -2.3086,-3.73437 v 3.73437 z"
         id="path45704"
         style="fill:#d2ac95;fill-opacity:1" />
      <path
         d="m -105.31595,238.69547 v -0.96485 h 2.49219 v 2.28125 q -0.36328,0.35156 -1.05469,0.6211 -0.6875,0.26562 -1.39453,0.26562 -0.89844,0 -1.56641,-0.375 -0.66796,-0.37891 -1.0039,-1.07812 -0.33594,-0.70313 -0.33594,-1.52735 0,-0.89453 0.375,-1.58984 0.375,-0.69531 1.09766,-1.06641 0.55078,-0.28515 1.37109,-0.28515 1.06641,0 1.66406,0.44921 0.60157,0.44532 0.77344,1.23438 l -1.14844,0.21484 q -0.12109,-0.42187 -0.45703,-0.66406 -0.33203,-0.24609 -0.83203,-0.24609 -0.75781,0 -1.20703,0.48047 -0.44531,0.48046 -0.44531,1.42578 0,1.01953 0.45312,1.53125 0.45313,0.50781 1.1875,0.50781 0.36328,0 0.72656,-0.14063 0.36719,-0.14453 0.62891,-0.34765 v -0.72656 z"
         id="path45706"
         style="fill:#d2ac95;fill-opacity:1" />
      <path
         d="m -101.75735,240.80093 v -5.72656 h 4.246089 v 0.96875 h -3.089839 v 1.26953 h 2.874995 v 0.96485 h -2.874995 v 1.55859 h 3.199214 v 0.96484 z"
         id="path45708"
         style="fill:#d2ac95;fill-opacity:1" />
    </g>
    <g
       aria-label="OFFSET"
       id="text38121-7"
       style="font-weight:bold;font-size:8px;line-height:1.25;font-family:Arial;-inkscape-font-specification:'Arial, Bold';font-variant-ligatures:none;text-align:center;text-anchor:middle;display:inline;fill:#d2ac95;fill-opacity:1"
       transform="translate(133.85697,9.03867)">
      <path
         d="m -126.87846,273.95743 q 0,-0.875 0.26172,-1.46875 0.19532,-0.4375 0.53125,-0.78516 0.33985,-0.34765 0.74219,-0.51562 0.53516,-0.22657 1.23438,-0.22657 1.26562,0 2.02343,0.78516 0.76172,0.78516 0.76172,2.18359 0,1.38672 -0.7539,2.17188 -0.75391,0.78125 -2.01563,0.78125 -1.27734,0 -2.03125,-0.77734 -0.75391,-0.78125 -0.75391,-2.14844 z m 1.19141,-0.0391 q 0,0.97265 0.44922,1.47656 0.44922,0.5 1.14062,0.5 0.69141,0 1.13282,-0.4961 0.44531,-0.5 0.44531,-1.49609 0,-0.98437 -0.43359,-1.46875 -0.42969,-0.48437 -1.14454,-0.48437 -0.71484,0 -1.15234,0.49218 -0.4375,0.48828 -0.4375,1.47657 z"
         id="path45711"
         style="fill:#d2ac95;fill-opacity:1" />
      <path
         d="m -120.41361,276.78555 v -5.72656 h 3.92578 v 0.96875 h -2.76953 v 1.35547 h 2.39062 v 0.96875 h -2.39062 v 2.43359 z"
         id="path45713"
         style="fill:#d2ac95;fill-opacity:1" />
      <path
         d="m -115.52689,276.78555 v -5.72656 h 3.92578 v 0.96875 h -2.76953 v 1.35547 h 2.39062 v 0.96875 h -2.39062 v 2.43359 z"
         id="path45715"
         style="fill:#d2ac95;fill-opacity:1" />
      <path
         d="m -110.94096,274.92227 1.125,-0.10937 q 0.10157,0.5664 0.41016,0.83203 0.3125,0.26562 0.83984,0.26562 0.5586,0 0.83985,-0.23437 0.28515,-0.23828 0.28515,-0.55469 0,-0.20312 -0.12109,-0.34375 -0.11719,-0.14453 -0.41406,-0.25 -0.20313,-0.0703 -0.92578,-0.25 -0.92969,-0.23047 -1.30469,-0.56641 -0.52734,-0.47265 -0.52734,-1.15234 0,-0.4375 0.24609,-0.81641 0.25,-0.38281 0.71484,-0.58203 0.46875,-0.19922 1.12891,-0.19922 1.07812,0 1.62109,0.47266 0.54688,0.47266 0.57422,1.26172 l -1.15625,0.0508 q -0.0742,-0.44141 -0.32031,-0.63281 -0.24219,-0.19531 -0.73047,-0.19531 -0.50391,0 -0.78906,0.20703 -0.1836,0.13281 -0.1836,0.35547 0,0.20312 0.17188,0.34765 0.21875,0.1836 1.0625,0.38281 0.84375,0.19922 1.24609,0.41407 0.40625,0.21093 0.63282,0.58203 0.23046,0.36719 0.23046,0.91015 0,0.49219 -0.27343,0.92188 -0.27344,0.42969 -0.77344,0.64062 -0.5,0.20704 -1.24609,0.20704 -1.08594,0 -1.66797,-0.5 -0.58203,-0.50391 -0.69532,-1.46485 z"
         id="path45717"
         style="fill:#d2ac95;fill-opacity:1" />
      <path
         d="m -105.31205,276.78555 v -5.72656 h 4.24609 v 0.96875 h -3.08984 v 1.26953 h 2.875 v 0.96485 h -2.875 v 1.55859 h 3.19922 v 0.96484 z"
         id="path45719"
         style="fill:#d2ac95;fill-opacity:1" />
      <path
         d="m -98.68705,276.78555 v -4.75781 h -1.69922 v -0.96875 h 4.550783 v 0.96875 H -97.5308 v 4.75781 z"
         id="path45721"
         style="fill:#d2ac95;fill-opacity:1" />
    </g>
  </g>
  <g
     inkscape:groupmode="layer"
     id="layer5"
     inkscape:label="Reverse"
     style="display:inline">
    <g
       aria-label="OUT"
       id="text23861"
       style="font-weight:bold;font-size:8px;line-height:1.25;font-family:Arial;-inkscape-font-specification:'Arial, Bold';font-variant-ligatures:none;text-align:center;text-anchor:middle;display:inline;fill:#423932;fill-opacity:1">
      <path
         d="m 14.3125,322.99609 q 0,-0.875 0.261719,-1.46875 0.195312,-0.4375 0.53125,-0.78515 0.339844,-0.34766 0.742187,-0.51563 Q 16.382812,320 17.082031,320 q 1.265625,0 2.023438,0.78516 0.761718,0.78515 0.761718,2.18359 0,1.38672 -0.753906,2.17187 -0.753906,0.78125 -2.015625,0.78125 -1.277343,0 -2.03125,-0.77734 -0.753906,-0.78125 -0.753906,-2.14844 z m 1.191406,-0.0391 q 0,0.97266 0.449219,1.47656 0.449219,0.5 1.140625,0.5 0.691406,0 1.132812,-0.49609 0.445313,-0.5 0.445313,-1.49609 0,-0.98438 -0.433594,-1.46875 -0.429687,-0.48438 -1.144531,-0.48438 -0.714844,0 -1.152344,0.49219 -0.4375,0.48828 -0.4375,1.47656 z"
         id="path33648"
         style="fill:#423932;fill-opacity:1" />
      <path
         d="m 20.761719,320.09766 h 1.15625 v 3.10156 q 0,0.73828 0.04297,0.95703 0.07422,0.35156 0.351563,0.56641 0.28125,0.21093 0.765625,0.21093 0.492187,0 0.742187,-0.19922 0.25,-0.20312 0.300782,-0.49609 0.05078,-0.29297 0.05078,-0.97266 v -3.16796 h 1.15625 v 3.00781 q 0,1.03125 -0.09375,1.45703 -0.09375,0.42578 -0.347656,0.71875 -0.25,0.29297 -0.671875,0.46875 -0.421875,0.17187 -1.101563,0.17187 -0.820312,0 -1.246094,-0.1875 -0.421875,-0.1914 -0.667968,-0.49218 -0.246094,-0.30469 -0.324219,-0.63672 -0.113281,-0.49219 -0.113281,-1.45313 z"
         id="path33650"
         style="fill:#423932;fill-opacity:1" />
      <path
         d="m 27.835937,325.82422 v -4.75781 h -1.699218 v -0.96875 H 30.6875 v 0.96875 h -1.695313 v 4.75781 z"
         id="path33652"
         style="fill:#423932;fill-opacity:1" />
    </g>
  </g>
  <text
     xml:space="preserve"
     id="text29904"
     style="font-weight:bold;font-size:8px;line-height:1.25;font-family:Arial;-inkscape-font-specification:'Arial, Bold';font-variant-ligatures:none;text-align:center;white-space:pre;shape-inside:url(#rect29906)"
     transform="translate(-2.6024628e-4)" />
  <g
     inkscape:groupmode="layer"
     id="layer1"
     inkscape:label="Widgets"
     style="display:none">
    <circle
       style="display:inline;fill:#ff0000;stroke:#ff0000;stroke-width:1.94925;stroke-opacity:1"
       id="path1065-7-2-3-2-2-6-4"
       cx="22.5"
       cy="265"
       r="10.025375" />
    <circle
       style="display:inline;fill:#ff0000;stroke:#ff0000;stroke-width:1.94925;stroke-opacity:1"
       id="path1065-7-2-3-2-2-6-6"
       cx="22.5"
       cy="299"
       r="10.025375" />
    <circle
       style="display:inline;fill:#ff0000;stroke:#ff0000;stroke-width:1.94925;stroke-opacity:1"
       id="path1065-7-2-3-2-2-3"
       cx="22.5"
       cy="339.50027"
       r="10.525375" />
    <ellipse
       style="display:inline;fill:#ff0000;stroke:#ff0000;stroke-width:1.44076;stroke-opacity:1"
       id="path1065-7-2-8-1-1-3-1-5-9-7-9"
       cx="22.5"
       cy="58.5"
       rx="7.7796202"
       ry="7.7796192" />
    <ellipse
       style="display:inline;fill:#ff0000;stroke:#ff0000;stroke-width:1.44076;stroke-opacity:1"
       id="path1065-7-2-8-1-1-3-1-5-9-3-2"
       cx="22.5"
       cy="83.5"
       rx="7.7796202"
       ry="7.7796192" />
    <ellipse
       style="display:inline;fill:#ff0000;stroke:#ff0000;stroke-width:1.44076;stroke-opacity:1"
       id="path1065-7-2-8-1-1-3-1-5-9-1-4"
       cx="22.5"
       cy="108.5"
       rx="7.7796202"
       ry="7.7796192" />
    <ellipse
       style="display:inline;fill:#ff0000;stroke:#ff0000;stroke-width:1.44076;stroke-opacity:1"
       id="path1065-7-2-8-1-1-3-1-5-9-9-2"
       cx="22.5"
       cy="133.5"
       rx="7.7796202"
       ry="7.7796192" />
    <ellipse
       style="display:inline;fill:#ff0000;stroke:#ff0000;stroke-width:1.44076;stroke-opacity:1"
       id="path1065-7-2-8-1-1-3-1-5-9-8"
       cx="22.5"
       cy="158.5"
       rx="7.7796202"
       ry="7.7796192" />
    <ellipse
       style="display:inline;fill:#ff0000;stroke:#ff0000;stroke-width:1.44076;stroke-opacity:1"
       id="path1065-7-2-8-1-1-3-1-5-9-2"
       cx="22.5"
       cy="183.5"
       rx="7.7796202"
       ry="7.7796192" />
    <ellipse
       style="display:inline;fill:#ff0000;stroke:#ff0000;stroke-width:1.44076;stroke-opacity:1"
       id="path1065-7-2-8-1-1-3-1-5-9-33"
       cx="22.5"
       cy="208.5"
       rx="7.7796202"
       ry="7.7796192" />
    <ellipse
       style="display:inline;fill:#ff0000;stroke:#ff0000;stroke-width:1.44076;stroke-opacity:1"
       id="path1065-7-2-8-1-1-3-1-5-9-91"
       cx="22.5"
       cy="233.5"
       rx="7.7796202"
       ry="7.7796192" />
    <circle
       style="display:inline;fill:#ff0000;stroke:#ff0000;stroke-width:0.64063;stroke-opacity:1"
       id="path1065-7-2-3-2"
       cx="35.779526"
       cy="42.625443"
       r="3.4592125" />
  </g>
</svg>
