<?xml version="1.0" encoding="UTF-8" standalone="no"?>
<svg
   width="45"
   height="380"
   viewBox="0 0 45 380"
   version="1.1"
   id="svg100"
   sodipodi:docname="BenjolinGatesExpander_Earth.svg"
   inkscape:version="1.1.1 (3bf5ae0d25, 2021-09-20)"
   xmlns:inkscape="http://www.inkscape.org/namespaces/inkscape"
   xmlns:sodipodi="http://sodipodi.sourceforge.net/DTD/sodipodi-0.dtd"
   xmlns="http://www.w3.org/2000/svg"
   xmlns:svg="http://www.w3.org/2000/svg"
   xmlns:rdf="http://www.w3.org/1999/02/22-rdf-syntax-ns#"
   xmlns:cc="http://creativecommons.org/ns#"
   xmlns:dc="http://purl.org/dc/elements/1.1/">
  <metadata
     id="metadata104">
    <rdf:RDF>
      <cc:Work
         rdf:about="">
        <dc:format>image/svg+xml</dc:format>
        <dc:type
           rdf:resource="http://purl.org/dc/dcmitype/StillImage" />
      </cc:Work>
    </rdf:RDF>
  </metadata>
  <sodipodi:namedview
     pagecolor="#ffffff"
     bordercolor="#666666"
     borderopacity="1"
     objecttolerance="1"
     gridtolerance="1"
     guidetolerance="1"
     inkscape:pageopacity="0"
     inkscape:pageshadow="2"
     inkscape:window-width="1920"
     inkscape:window-height="1057"
     id="namedview102"
     showgrid="true"
     inkscape:zoom="2.2342105"
     inkscape:cx="5.5948175"
     inkscape:cy="190.89517"
     inkscape:window-x="1592"
     inkscape:window-y="-8"
     inkscape:window-maximized="1"
     inkscape:current-layer="layer4"
     inkscape:pagecheckerboard="0"
     units="px"
     inkscape:showpageshadow="false"
     showborder="true">
    <inkscape:grid
       type="xygrid"
       id="grid1285"
       visible="false" />
  </sodipodi:namedview>
  <defs
     id="defs7">
    <rect
       x="85"
       y="10"
       width="51.058132"
       height="25"
       id="rect29906" />
    <linearGradient
       id="a8e142bb-541b-4903-be63-d5d069028a5d"
       x1="22.5"
       x2="22.5"
       y2="380"
       gradientUnits="userSpaceOnUse">
      <stop
         offset="0"
         stop-color="#ebebeb"
         id="stop2" />
      <stop
         offset="1"
         stop-color="#e1e1e1"
         id="stop4" />
    </linearGradient>
  </defs>
  <g
     inkscape:groupmode="layer"
     id="layer2"
     inkscape:label="Faceplate"
     style="display:inline">
    <g
       id="aea613ef-74be-49bf-be45-c0734aee674b"
       data-name="FND BG"
       style="fill:#423932;fill-opacity:1">
      <rect
         width="45"
         height="380"
         fill="url(#a8e142bb-541b-4903-be63-d5d069028a5d)"
         id="rect9"
         style="fill:#423932;fill-opacity:1"
         x="0"
         y="0" />
    </g>
  </g>
  <g
     inkscape:groupmode="layer"
     id="layer3"
     inkscape:label="Brand"
     style="display:inline">
    <g
       id="g42796"
       transform="matrix(0.30458296,0,0,0.30458296,-0.5624499,-12.68508)"
       style="fill:#ff0000">
      <g
         aria-label="enom"
         id="text4270-27"
         style="font-size:49.3889px;line-height:1.25;font-family:'NECK ROMANCER';-inkscape-font-specification:'NECK ROMANCER, Normal';font-variant-ligatures:none;text-align:center;text-anchor:middle;fill:#ff0000;stroke-width:2.64583">
        <path
           d="m 46.609141,1249.244 q 0,1.1576 0,3.4245 3.183269,0 9.453344,0 -1.639866,0.5787 -2.990343,1.2058 -1.350478,0.627 -2.363337,1.688 -1.350477,0 -4.051433,0 0,1.4952 0.434082,2.5563 0.385851,1.1093 1.832792,1.1093 2.266873,0 6.80062,0 0.482313,-0.1447 0.868164,-0.627 0.337619,-0.5305 0.627007,-1.7363 0,2.0257 0,6.1254 -3.520888,0 -10.562665,0 -1.543403,0 -2.652724,-2.2187 -1.109321,-2.1704 -1.109321,-6.3183 0,-1.9775 0,-5.836 -0.385851,-1.3504 -1.881023,-2.1221 -1.495171,-0.7235 -3.569119,-1.2058 6.607694,0 19.774852,0 0,2.9421 0,8.7781 -1.205783,-2.701 -2.218642,-3.6656 -1.012858,-0.9646 -2.700955,-1.1093 -0.916396,-0.097 -2.170411,-0.097 -1.205783,0.048 -2.845649,0.048 -0.241157,0 -0.675239,0 z"
           id="path42762"
           style="fill:#ff0000" />
        <path
           d="m 81.576869,1245.2891 q 0,5.8842 0,17.7009 0,3.0868 -0.144694,6.0771 -0.09646,3.0386 -0.337619,5.9325 -0.385851,-3.7138 -0.964627,-6.9936 -0.530545,-3.3279 -2.025717,-5.016 0,-2.9904 0,-8.9228 -0.241157,-1.3505 -0.72347,-2.2187 -0.482314,-0.8681 -1.06109,-1.3987 -1.109321,-1.0128 -2.411567,-1.1093 -1.350478,-0.097 -2.266874,-0.097 -0.482313,0 -1.44694,0 0,4.582 0,13.746 0,3.0868 -0.09646,6.0771 -0.144694,3.0386 -0.385851,5.9325 -0.38585,-3.7138 -0.916395,-6.9936 -0.578776,-3.3279 -2.025717,-5.016 0,-4.8232 0,-14.373 -0.385851,-1.3504 -1.881022,-2.1221 -1.495172,-0.7235 -3.56912,-1.2058 6.752389,0 20.257166,0 z"
           id="path42764"
           style="fill:#ff0000" />
        <path
           d="m 104.19737,1249.0511 q 0,3.3762 0,10.1768 0,1.5434 -1.92925,2.6528 -1.92926,1.1093 -6.077152,1.1093 -4.196128,0 -6.125382,-1.1093 -1.929254,-1.1094 -1.929254,-2.6528 0,-3.3762 0,-10.1768 0,-1.5434 1.929254,-2.6527 1.929254,-1.1093 6.125382,-1.1093 4.147892,0 6.077152,1.1093 1.92925,1.1093 1.92925,2.6527 z m -3.76204,7.91 q 0,-1.8811 0,-5.6431 0,-1.6881 -1.254019,-1.9775 -1.205783,-0.2894 -2.990343,-0.2894 -1.832792,0 -3.038575,0.2894 -1.254015,0.2894 -1.254015,1.9775 0,1.881 0,5.6431 0,1.6881 1.254015,1.9774 1.205783,0.2894 3.038575,0.2894 1.78456,0 2.990343,-0.2894 1.254019,-0.2893 1.254019,-1.9774 z"
           id="path42766"
           style="fill:#ff0000" />
        <path
           d="m 142.34837,1245.2891 q -2.02572,0.4823 -3.52089,1.2058 -1.5434,0.7717 -1.88102,2.1221 0,4.7749 0,14.373 -1.49517,1.6881 -2.02572,5.016 -0.57878,3.2798 -0.96463,6.9936 -0.24115,-2.8939 -0.33762,-5.9325 -0.14469,-2.9903 -0.14469,-6.0771 0,-4.582 0,-13.746 -0.48231,0 -1.39871,0 -0.53054,0 -1.15755,0 -0.62701,0 -1.30225,0.1447 -1.25401,0.2412 -2.41157,1.2058 -1.15755,0.9646 -1.63986,3.4727 0,2.9903 0,8.9228 -0.1447,0.627 -0.28939,1.1093 -0.0965,0.4823 -0.19292,0.8199 -0.53055,1.9775 -0.38586,1.3505 0.19293,-0.627 -0.28938,1.1576 -0.0965,0.3376 -0.24116,0.8681 -0.14469,0.5306 -0.33762,1.3023 -0.14469,-0.6753 -0.28939,-1.2058 -0.14469,-0.4823 -0.24115,-0.8199 -0.53055,-2.0258 -0.33762,-1.3023 0.19292,0.7717 -0.43409,-1.6881 -0.0482,-0.2894 -0.19292,-0.7235 -0.0965,-0.3858 -0.19293,-0.8681 0,-2.9904 0,-8.9228 -0.28939,-1.3505 -0.7717,-2.2187 -0.48231,-0.8681 -1.06109,-1.3987 -1.10932,-1.0128 -2.41157,-1.1093 -1.30224,-0.097 -2.26687,-0.097 -0.48231,0 -1.39871,0 0,4.582 0,13.746 0,3.0868 -0.14469,6.0771 -0.0965,3.0386 -0.33762,5.9325 -0.38585,-3.7138 -0.96463,-6.9936 -0.53054,-3.3279 -2.02572,-5.016 0,-4.8232 0,-14.373 -0.38585,-1.3504 -1.88102,-2.1221 -1.49517,-0.7235 -3.56912,-1.2058 3.95497,0 11.76845,0 1.15755,0.3858 3.47266,1.1575 0.7717,0.2894 1.59163,0.4341 0.81994,0.1447 1.6881,0.1447 0.86816,0 1.73633,-0.1447 0.81993,-0.1447 1.59163,-0.4341 1.15756,-0.3858 3.42443,-1.1575 3.95497,0 11.76845,0 z"
           id="path42768"
           style="fill:#ff0000" />
      </g>
      <g
         aria-label="V"
         transform="matrix(1.2363173,0,0,0.80885384,-497.88086,123.48586)"
         id="text4270-3-5-2"
         style="font-size:78.5061px;line-height:1.25;font-family:Nosferotica;-inkscape-font-specification:'Nosferotica, Normal';font-variant-ligatures:none;text-align:center;text-anchor:middle;fill:#ff0000;stroke-width:3.27108">
        <path
           d="m 431.64994,1360.6864 8.57428,-0.1022 c 0,0 -4.4079,1.0878 -5.59925,3.7285 -1.88083,4.1689 -3.64217,14.6628 -3.64217,14.6628 l -2.23339,11.5191 -1.83311,11.8311 -1.71824,21.3112 -1.69514,-21.3112 -1.92196,-11.5208 -2.5009,-11.8294 c 0,0 -1.52027,-10.287 -3.38278,-14.4832 -1.14458,-2.5787 -5.63367,-3.8059 -5.63367,-3.8059 h 8.4657 l 6.66875,29.1569 z"
           id="path30410"
           sodipodi:nodetypes="ccscccccccscccc"
           style="fill:#ff0000" />
      </g>
    </g>
  </g>
  <g
     inkscape:groupmode="layer"
     id="layer4"
     inkscape:label="Solid"
     style="display:inline">
    <rect
       style="fill:#d2ac95;fill-opacity:1;stroke:none;stroke-width:0.623622"
       id="rect17730"
       width="37"
       height="285.16599"
       x="3.9999998"
       y="69.419998"
       ry="6.2661958"
       rx="6.2661948" />
    <g
       id="g6927"
       transform="translate(160.80908,2)"
       style="fill:#d2ac95;fill-opacity:1">
      <g
         aria-label="BNJLN"
         id="text3264"
         style="font-weight:bold;font-size:10.6667px;line-height:1.25;font-family:Arial;-inkscape-font-specification:'Arial, Bold';font-variant-ligatures:none;text-align:center;text-anchor:middle;fill:#d2ac95;fill-opacity:1">
        <path
           d="m -155.27008,6.2397061 h 3.05209 q 0.90626,0 1.34897,0.078125 0.44792,0.072917 0.79687,0.312501 0.35417,0.2395841 0.58855,0.640627 0.23437,0.3958346 0.23437,0.8906278 0,0.5364601 -0.29166,0.9843782 -0.28646,0.447918 -0.78126,0.6718771 0.69792,0.2031258 1.07292,0.6927108 0.37501,0.489585 0.37501,1.151045 0,0.520835 -0.2448,1.015628 -0.23958,0.489585 -0.66146,0.786461 -0.41667,0.291668 -1.03125,0.359376 -0.38542,0.04167 -1.85938,0.05208 h -2.59897 z m 1.54167,1.2708373 V 9.276174 h 1.01042 q 0.90105,0 1.1198,-0.026042 0.39583,-0.046875 0.61979,-0.2708342 0.22917,-0.2291674 0.22917,-0.5989603 0,-0.3541677 -0.19792,-0.5729184 -0.19271,-0.2239591 -0.57812,-0.2708342 -0.22917,-0.026042 -1.31772,-0.026042 z m 0,3.0364676 v 2.041673 h 1.42709 q 0.83334,0 1.0573,-0.04687 0.34375,-0.0625 0.55729,-0.302084 0.21875,-0.244792 0.21875,-0.651044 0,-0.343751 -0.16667,-0.583335 -0.16666,-0.239584 -0.48437,-0.348959 -0.3125,-0.109376 -1.36459,-0.109376 z"
           id="path6857"
           style="fill:#d2ac95;fill-opacity:1" />
        <path
           d="M -147.55651,13.875147 V 6.2397061 h 1.5 l 3.12501,5.0989749 V 6.2397061 h 1.4323 v 7.6354409 h -1.54688 l -3.07814,-4.9791825 v 4.9791825 z"
           id="path6859"
           style="fill:#d2ac95;fill-opacity:1" />
        <path
           d="m -137.11377,6.2397061 h 1.53646 v 4.8333489 q 0,0.947919 -0.16666,1.458338 -0.22396,0.666668 -0.81251,1.07292 -0.58854,0.401043 -1.55209,0.401043 -1.13021,0 -1.73958,-0.630211 -0.60938,-0.635418 -0.61459,-1.859381 l 1.45313,-0.166667 q 0.026,0.656252 0.19271,0.927086 0.25,0.41146 0.76042,0.41146 0.51562,0 0.72917,-0.291667 0.21354,-0.296876 0.21354,-1.223963 z"
           id="path6861"
           style="fill:#d2ac95;fill-opacity:1" />
        <path
           d="M -133.89501,13.875147 V 6.3022063 h 1.54167 v 6.2864777 h 3.83335 v 1.286463 z"
           id="path6863"
           style="fill:#d2ac95;fill-opacity:1" />
        <path
           d="M -127.40541,13.875147 V 6.2397061 h 1.50001 l 3.12501,5.0989749 V 6.2397061 h 1.43229 v 7.6354409 h -1.54688 l -3.07813,-4.9791825 v 4.9791825 z"
           id="path6865"
           style="fill:#d2ac95;fill-opacity:1" />
      </g>
      <g
         aria-label="GATES"
         id="text3264-0"
         style="font-weight:bold;font-size:10.6667px;line-height:1.25;font-family:Arial;-inkscape-font-specification:'Arial, Bold';font-variant-ligatures:none;text-align:center;text-anchor:middle;display:inline;fill:#d2ac95;fill-opacity:1">
        <path
           d="m -151.95236,22.254877 v -1.286462 h 3.32293 v 3.041676 q -0.48438,0.468751 -1.40626,0.828128 -0.91667,0.354167 -1.85938,0.354167 -1.19792,0 -2.08855,-0.500001 -0.89062,-0.50521 -1.33854,-1.437505 -0.44792,-0.937503 -0.44792,-2.036464 0,-1.192713 0.5,-2.119799 0.5,-0.927086 1.46355,-1.421879 0.73438,-0.38021 1.82813,-0.38021 1.42188,0 2.21876,0.59896 0.80208,0.593752 1.03125,1.645839 l -1.53126,0.286459 q -0.16145,-0.562502 -0.60937,-0.885419 -0.44271,-0.328126 -1.10938,-0.328126 -1.01042,0 -1.60938,0.640627 -0.59375,0.640627 -0.59375,1.901047 0,1.35938 0.60417,2.041673 0.60416,0.677086 1.58333,0.677086 0.48438,0 0.96876,-0.187501 0.48958,-0.192709 0.83854,-0.463543 v -0.968753 z"
           id="path6868"
           style="fill:#d2ac95;fill-opacity:1" />
        <path
           d="m -140.32211,25.062178 h -1.67709 l -0.66667,-1.734381 h -3.0521 l -0.63021,1.734381 h -1.63542 l 2.97397,-7.635441 h 1.63021 z m -2.83856,-3.020843 -1.05208,-2.833343 -1.03126,2.833343 z"
           id="path6870"
           style="fill:#d2ac95;fill-opacity:1" />
        <path
           d="m -138.57732,25.062178 v -6.34377 h -2.26563 v -1.291671 h 6.06773 v 1.291671 h -2.26043 v 6.34377 z"
           id="path6872"
           style="fill:#d2ac95;fill-opacity:1" />
        <path
           d="m -133.78043,25.062178 v -7.635441 h 5.66148 v 1.291671 h -4.11981 v 1.692713 h 3.83335 v 1.286463 h -3.83335 v 2.078131 h 4.26564 v 1.286463 z"
           id="path6874"
           style="fill:#d2ac95;fill-opacity:1" />
        <path
           d="m -127.05645,22.577795 1.50001,-0.145834 q 0.13541,0.755211 0.54687,1.109379 0.41667,0.354167 1.1198,0.354167 0.74479,0 1.11979,-0.312501 0.38021,-0.317709 0.38021,-0.739585 0,-0.270835 -0.16146,-0.458335 -0.15625,-0.192709 -0.55208,-0.333335 -0.27083,-0.09375 -1.23438,-0.333334 -1.23959,-0.307293 -1.73959,-0.755211 -0.70313,-0.63021 -0.70313,-1.536463 0,-0.583335 0.32813,-1.088545 0.33334,-0.510418 0.95313,-0.776044 0.625,-0.265626 1.50521,-0.265626 1.43751,0 2.16147,0.63021 0.72917,0.630211 0.76562,1.682297 l -1.54167,0.06771 q -0.099,-0.588544 -0.42708,-0.843753 -0.32292,-0.260417 -0.97396,-0.260417 -0.67188,0 -1.05209,0.276042 -0.24479,0.177084 -0.24479,0.47396 0,0.270834 0.22917,0.463543 0.29166,0.244793 1.41667,0.510419 1.125,0.265625 1.66146,0.552085 0.54167,0.281251 0.84375,0.776044 0.3073,0.489585 0.3073,1.213545 0,0.656252 -0.36459,1.229171 -0.36458,0.572918 -1.03125,0.854169 -0.66667,0.276043 -1.66147,0.276043 -1.44792,0 -2.22396,-0.666669 -0.77605,-0.671877 -0.92709,-1.953131 z"
           id="path6876"
           style="fill:#d2ac95;fill-opacity:1" />
      </g>
    </g>
    <g
       aria-label="MODE"
       id="text9598"
       style="font-weight:bold;font-size:5.33333px;line-height:1.25;font-family:Arial;-inkscape-font-specification:'Arial, Bold';font-variant-ligatures:none;text-align:center;text-anchor:middle;fill:#d2ac95;fill-opacity:1"
       transform="translate(0,11)">
      <path
         d="M 3.1196656,39.46381 V 35.646104 H 4.2733107 L 4.9660186,38.250269 5.650914,35.646104 H 6.8071634 V 39.46381 H 6.091018 V 36.458603 L 5.3332059,39.46381 H 4.5910188 L 3.835811,36.458603 v 3.005207 z"
         id="path22138"
         style="fill:#d2ac95;fill-opacity:1" />
      <path
         d="m 7.4165379,37.578394 q 0,-0.583333 0.1744791,-0.979166 Q 7.7212253,36.307562 7.9451835,36.075791 8.1717458,35.84402 8.4399748,35.732041 8.7967455,35.581 9.262891,35.581 q 0.84375,0 1.348958,0.523437 0.507812,0.523437 0.507812,1.455728 0,0.924479 -0.502604,1.447916 -0.502604,0.520833 -1.3437493,0.520833 -0.851562,0 -1.3541659,-0.518229 -0.5026039,-0.520833 -0.5026039,-1.432291 z m 0.7942704,-0.02604 q 0,0.648437 0.299479,0.984374 0.299479,0.333333 0.7604162,0.333333 0.4609372,0 0.7552075,-0.330729 0.296875,-0.333333 0.296875,-0.997395 0,-0.656249 -0.289062,-0.979166 -0.2864583,-0.322916 -0.7630205,-0.322916 -0.4765622,0 -0.7682287,0.328124 -0.2916665,0.325521 -0.2916665,0.984375 z"
         id="path22140"
         style="fill:#d2ac95;fill-opacity:1" />
      <path
         d="m 11.718619,35.646104 h 1.408853 q 0.476562,0 0.726562,0.07292 0.335937,0.09896 0.575521,0.351562 0.239583,0.252604 0.364583,0.619791 0.125,0.364583 0.125,0.901041 0,0.471354 -0.117188,0.8125 -0.143229,0.416666 -0.408854,0.674479 -0.20052,0.195312 -0.541666,0.304687 -0.255208,0.08073 -0.682291,0.08073 h -1.45052 z m 0.770833,0.645833 v 2.528644 h 0.57552 q 0.322917,0 0.466146,-0.03646 0.1875,-0.04687 0.309895,-0.158854 0.125,-0.111979 0.203125,-0.367187 0.07813,-0.257813 0.07813,-0.700521 0,-0.442708 -0.07813,-0.679687 -0.07813,-0.236979 -0.21875,-0.369791 -0.140625,-0.132813 -0.35677,-0.179688 -0.161458,-0.03646 -0.632812,-0.03646 z"
         id="path22142"
         style="fill:#d2ac95;fill-opacity:1" />
      <path
         d="m 15.572784,39.46381 v -3.817706 h 2.830727 v 0.645833 h -2.059895 v 0.846354 h 1.916666 v 0.643228 h -1.916666 v 1.039062 h 2.132812 v 0.643229 z"
         id="path22144"
         style="fill:#d2ac95;fill-opacity:1" />
    </g>
    <g
       aria-label="POLAR"
       id="text9598-5"
       style="font-weight:bold;font-size:5.33333px;line-height:1.25;font-family:Arial;-inkscape-font-specification:'Arial, Bold';font-variant-ligatures:none;text-align:center;text-anchor:middle;display:inline;fill:#d2ac95;fill-opacity:1"
       transform="translate(0,11)">
      <path
         d="m 24.095533,39.46381 v -3.817706 h 1.236978 q 0.703125,0 0.916667,0.05729 0.328124,0.08594 0.549478,0.374999 0.221354,0.286458 0.221354,0.742187 0,0.351563 -0.127604,0.591146 -0.127604,0.239583 -0.32552,0.377604 -0.195313,0.135416 -0.398438,0.179687 -0.276041,0.05469 -0.799478,0.05469 h -0.502604 v 1.440103 z m 0.770833,-3.171873 v 1.083333 h 0.421875 q 0.455728,0 0.609374,-0.0599 0.153646,-0.0599 0.239583,-0.1875 0.08854,-0.127604 0.08854,-0.296875 0,-0.208333 -0.122396,-0.34375 -0.122395,-0.135416 -0.309895,-0.16927 -0.138021,-0.02604 -0.554688,-0.02604 z"
         id="path22147"
         style="fill:#d2ac95;fill-opacity:1" />
      <path
         d="m 27.496573,37.578394 q 0,-0.583333 0.174479,-0.979166 0.130208,-0.291666 0.354166,-0.523437 0.226563,-0.231771 0.494792,-0.34375 0.35677,-0.151041 0.822916,-0.151041 0.843749,0 1.348957,0.523437 0.507812,0.523437 0.507812,1.455728 0,0.924479 -0.502603,1.447916 -0.502604,0.520833 -1.34375,0.520833 -0.851562,0 -1.354165,-0.518229 -0.502604,-0.520833 -0.502604,-1.432291 z m 0.79427,-0.02604 q 0,0.648437 0.299479,0.984374 0.299479,0.333333 0.760416,0.333333 0.460937,0 0.755208,-0.330729 0.296875,-0.333333 0.296875,-0.997395 0,-0.656249 -0.289062,-0.979166 -0.286459,-0.322916 -0.763021,-0.322916 -0.476562,0 -0.768228,0.328124 -0.291667,0.325521 -0.291667,0.984375 z"
         id="path22149"
         style="fill:#d2ac95;fill-opacity:1" />
      <path
         d="m 31.822091,39.46381 v -3.786456 h 0.770833 v 3.143227 h 1.916665 v 0.643229 z"
         id="path22151"
         style="fill:#d2ac95;fill-opacity:1" />
      <path
         d="M 38.501775,39.46381 H 37.663233 L 37.3299,38.596623 h -1.52604 l -0.315104,0.867187 h -0.817708 l 1.486978,-3.817706 h 0.815104 z m -1.41927,-1.510416 -0.526042,-1.416666 -0.515624,1.416666 z"
         id="path22153"
         style="fill:#d2ac95;fill-opacity:1" />
      <path
         d="m 38.913233,39.46381 v -3.817706 h 1.622395 q 0.611979,0 0.88802,0.104167 0.278646,0.101562 0.445312,0.364583 0.166667,0.26302 0.166667,0.601562 0,0.429687 -0.252604,0.710937 -0.252604,0.278646 -0.755208,0.351562 0.25,0.145833 0.411458,0.320312 0.164063,0.17448 0.440104,0.619792 l 0.466146,0.744791 h -0.921875 l -0.557291,-0.830729 q -0.296875,-0.445312 -0.40625,-0.559895 -0.109375,-0.117188 -0.231771,-0.158854 -0.122395,-0.04427 -0.38802,-0.04427 h -0.15625 v 1.593749 z m 0.770833,-2.203124 h 0.570312 q 0.554687,0 0.692708,-0.04687 0.138021,-0.04687 0.216146,-0.161458 0.07813,-0.114583 0.07813,-0.286458 0,-0.192708 -0.104167,-0.309896 -0.101562,-0.119791 -0.289062,-0.151041 -0.09375,-0.01302 -0.5625,-0.01302 h -0.601562 z"
         id="path22155"
         style="fill:#d2ac95;fill-opacity:1" />
    </g>
  </g>
  <g
     inkscape:groupmode="layer"
     id="layer5"
     inkscape:label="Reverse"
     style="display:inline" />
  <text
     xml:space="preserve"
     id="text29904"
     style="font-weight:bold;font-size:8px;line-height:1.25;font-family:Arial;-inkscape-font-specification:'Arial, Bold';font-variant-ligatures:none;text-align:center;white-space:pre;shape-inside:url(#rect29906)"
     transform="translate(-2.6024628e-4)" />
  <g
     inkscape:groupmode="layer"
     id="layer1"
     inkscape:label="Widgets"
     style="display:none">
    <ellipse
       style="display:inline;fill:#ff0000;stroke:#ff0000;stroke-width:1.77975;stroke-opacity:1"
       id="path1065-7-2-3-4-5"
       cx="22.5"
       cy="92.5"
       rx="10.610126"
       ry="10.610125" />
    <circle
       style="display:inline;fill:#ff0000;stroke:#ff0000;stroke-width:1.77975;stroke-opacity:1"
       id="path1065-7-2-3-4-1"
       cx="22.5"
       cy="127.5"
       r="10.610126" />
    <circle
       style="display:inline;fill:#ff0000;stroke:#ff0000;stroke-width:1.77975;stroke-opacity:1"
       id="path1065-7-2-3-4-0"
       cx="22.5"
       cy="162.5"
       r="10.610126" />
    <circle
       style="display:inline;fill:#ff0000;stroke:#ff0000;stroke-width:1.77975;stroke-opacity:1"
       id="path1065-7-2-3-4-2"
       cx="22.5"
       cy="197.5"
       r="10.610126" />
    <circle
       style="display:inline;fill:#ff0000;stroke:#ff0000;stroke-width:1.94925;stroke-opacity:1"
       id="path1065-7-2-3-2-2"
       cx="22.5"
       cy="232.5"
       r="10.525375" />
    <circle
       style="display:inline;fill:#ff0000;stroke:#ff0000;stroke-width:1.94925;stroke-opacity:1"
       id="path1065-7-2-3-2-2-7"
       cx="22.5"
       cy="267.5"
       r="10.525375" />
    <circle
       style="display:inline;fill:#ff0000;stroke:#ff0000;stroke-width:1.94925;stroke-opacity:1"
       id="path1065-7-2-3-2-2-6"
       cx="22.5"
       cy="302.5"
       r="10.525375" />
    <circle
       style="display:inline;fill:#ff0000;stroke:#ff0000;stroke-width:1.94925;stroke-opacity:1"
       id="path1065-7-2-3-2-2-3"
       cx="22.5"
       cy="337.50027"
       r="10.525375" />
    <circle
       style="display:inline;fill:#ff0000;stroke:#ff0000;stroke-width:0.64063;stroke-opacity:1"
       id="path1065-7-2-3-2"
       cx="11.779528"
       cy="55.414936"
       r="3.4592125" />
    <circle
       style="display:inline;fill:#ff0000;stroke:#ff0000;stroke-width:0.64063;stroke-opacity:1"
       id="path1065-7-2-3-2-1"
       cx="33.220528"
       cy="55.414936"
       r="3.4592125" />
  </g>
</svg>
