<?xml version="1.0" encoding="UTF-8" standalone="no"?>
<svg
   width="45"
   height="380"
   viewBox="0 0 45 380"
   version="1.1"
   id="svg100"
   sodipodi:docname="CVMix_Earth.svg"
   inkscape:version="1.1.1 (3bf5ae0d25, 2021-09-20)"
   xmlns:inkscape="http://www.inkscape.org/namespaces/inkscape"
   xmlns:sodipodi="http://sodipodi.sourceforge.net/DTD/sodipodi-0.dtd"
   xmlns="http://www.w3.org/2000/svg"
   xmlns:svg="http://www.w3.org/2000/svg"
   xmlns:rdf="http://www.w3.org/1999/02/22-rdf-syntax-ns#"
   xmlns:cc="http://creativecommons.org/ns#"
   xmlns:dc="http://purl.org/dc/elements/1.1/">
  <metadata
     id="metadata104">
    <rdf:RDF>
      <cc:Work
         rdf:about="">
        <dc:format>image/svg+xml</dc:format>
        <dc:type
           rdf:resource="http://purl.org/dc/dcmitype/StillImage" />
      </cc:Work>
    </rdf:RDF>
  </metadata>
  <sodipodi:namedview
     pagecolor="#ffffff"
     bordercolor="#666666"
     borderopacity="1"
     objecttolerance="1"
     gridtolerance="1"
     guidetolerance="1"
     inkscape:pageopacity="0"
     inkscape:pageshadow="2"
     inkscape:window-width="1920"
     inkscape:window-height="1057"
     id="namedview102"
     showgrid="true"
     inkscape:zoom="1.7566021"
     inkscape:cx="19.640191"
     inkscape:cy="151.14408"
     inkscape:window-x="1592"
     inkscape:window-y="-8"
     inkscape:window-maximized="1"
     inkscape:current-layer="svg100"
     inkscape:pagecheckerboard="0">
    <inkscape:grid
       type="xygrid"
       id="grid1285" />
  </sodipodi:namedview>
  <defs
     id="defs7">
    <linearGradient
       id="a8e142bb-541b-4903-be63-d5d069028a5d"
       x1="22.5"
       x2="22.5"
       y2="380"
       gradientUnits="userSpaceOnUse">
      <stop
         offset="0"
         stop-color="#ebebeb"
         id="stop2" />
      <stop
         offset="1"
         stop-color="#e1e1e1"
         id="stop4" />
    </linearGradient>
  </defs>
  <g
     id="aea613ef-74be-49bf-be45-c0734aee674b"
     data-name="FND BG"
     style="fill:#423932;fill-opacity:1">
    <rect
       width="45"
       height="380"
       fill="url(#a8e142bb-541b-4903-be63-d5d069028a5d)"
       id="rect9"
       style="fill:#423932;fill-opacity:1" />
  </g>
  <circle
     cx="22.5"
     cy="122"
     r="20.694189"
     fill="none"
     opacity="0.69"
     style="isolation:isolate"
     id="circle26" />
  <rect
     x="8.2242203"
     y="309.05634"
     width="28.55155"
     height="39.15691"
     rx="2.83465"
     fill="#1f1f1f"
     id="rect56"
     style="fill:#d2ac95;fill-opacity:1" />
  <g
     id="g89"
     style="fill:#423932;fill-opacity:1">
    <path
       d="m 16.38672,314.66113 a 0.51759,0.51759 0 0 1 0.52246,-0.52148 h 0.11523 a 0.534,0.534 0 0 1 0.47364,0.27051 l 1.26074,2.05273 1.2666,-2.05957 a 0.51151,0.51151 0 0 1 0.46777,-0.26367 h 0.11524 a 0.51738,0.51738 0 0 1 0.52148,0.52148 v 3.7666 a 0.51808,0.51808 0 1 1 -1.03613,0 v -2.36425 l -0.915,1.40918 a 0.48793,0.48793 0 0 1 -0.86719,0 l -0.90136,-1.38868 v 2.35743 a 0.51173,0.51173 0 0 1 -1.02344,0 z"
       fill="#f0f0f0"
       id="path83"
       style="fill:#423932;fill-opacity:1" />
    <path
       d="m 22.55273,314.64746 a 0.5215,0.5215 0 0 1 1.043,0 v 3.78027 a 0.5215,0.5215 0 1 1 -1.043,0 z"
       fill="#f0f0f0"
       id="path85"
       style="fill:#423932;fill-opacity:1" />
    <path
       d="m 24.8252,318.06885 1.28027,-1.57178 -1.20508,-1.47021 a 0.63294,0.63294 0 0 1 -0.15625,-0.38624 0.50213,0.50213 0 0 1 0.51465,-0.51464 0.54819,0.54819 0 0 1 0.48144,0.25732 l 1.03614,1.38232 1.03027,-1.35546 a 0.59581,0.59581 0 0 1 0.50781,-0.28418 0.47651,0.47651 0 0 1 0.47461,0.48095 0.62159,0.62159 0 0 1 -0.15625,0.39991 l -1.206,1.47656 1.27441,1.56543 a 0.6435,0.6435 0 0 1 0.15528,0.38574 0.50225,0.50225 0 0 1 -0.51465,0.51514 0.54926,0.54926 0 0 1 -0.48145,-0.25733 l -1.11035,-1.457 -1.09771,1.42962 a 0.5975,0.5975 0 0 1 -0.50781,0.28467 0.47684,0.47684 0 0 1 -0.47461,-0.481 0.61843,0.61843 0 0 1 0.15528,-0.39982 z"
       fill="#f0f0f0"
       id="path87"
       style="fill:#423932;fill-opacity:1" />
  </g>
  <g
     id="f45e0130-37b7-4f8b-95b3-6408baa23eb1"
     data-name="components"
     style="display:none"
     inkscape:groupmode="layer">
    <circle
       id="a1c23d66-c252-4515-96a1-917337e8bedb"
       data-name="In1#PJ301MPort"
       cx="22.5"
       cy="226"
       r="5"
       style="fill:#00ff00" />
    <circle
       id="a63e68d2-1ca8-4e05-b0d1-8b6f332b0e37"
       data-name="Lev1#RoundBlackKnob"
       cx="22.5"
       cy="72.999901"
       r="5"
       style="fill:#ff0000" />
    <circle
       id="a36d22f7-2d0f-442d-90d7-0667ecca8733"
       data-name="Lev2#RoundBlackKnob"
       cx="22.5"
       cy="122.02957"
       r="5"
       style="fill:#ff0000" />
    <circle
       id="b2ee54e9-17bb-44a2-8fa9-f1f5dfd502d3"
       data-name="Lev3#RoundBlackKnob"
       cx="22.5"
       cy="171.02957"
       r="5"
       style="fill:#ff0000" />
    <circle
       id="a2b06e69-ffb0-4881-82df-d087f66de86e"
       data-name="In2#PJ301MPort"
       cx="22.5"
       cy="256"
       r="5"
       style="fill:#00ff00" />
    <circle
       id="b27f5a6d-d286-4c64-8b15-5bc216721daf"
       data-name="In3#PJ301MPort"
       cx="22.5"
       cy="286"
       r="5"
       style="fill:#00ff00" />
    <circle
       id="be215e83-67fa-4d0f-a299-89c18bd912d3"
       data-name="Mix#PJ301MPort"
       cx="22.5"
       cy="334"
       r="5"
       style="fill:#0000ff"
       inkscape:label="be215e83-67fa-4d0f-a299-89c18bd912d3" />
  </g>
  <circle
     cx="22.5"
     cy="72.999901"
     r="20.694189"
     fill="none"
     opacity="0.69"
     style="isolation:isolate"
     id="circle18" />
  <circle
     cx="22.5"
     cy="171"
     r="20.694189"
     fill="none"
     opacity="0.69"
     style="isolation:isolate"
     id="circle34" />
  <g
     id="g12243"
     style="stroke:#d2ac95;stroke-opacity:1">
    <line
       x1="22.500019"
       y1="109.47655"
       x2="22.500019"
       y2="105.75329"
       fill="none"
       stroke="#1f1f1f"
       stroke-linecap="round"
       stroke-linejoin="round"
       stroke-width="0.8"
       id="line22"
       style="stroke:#d2ac95;stroke-opacity:1" />
    <path
       d="m 31.13564,136.30517 a 16.71231,16.71231 0 1 0 -17.21552,0.0458"
       fill="none"
       stroke="#1f1f1f"
       stroke-linecap="round"
       stroke-linejoin="round"
       stroke-width="0.8"
       id="path24"
       style="stroke:#d2ac95;stroke-opacity:1" />
    <line
       x1="22.500019"
       y1="60.476452"
       x2="22.500019"
       y2="56.753189"
       fill="none"
       stroke="#1f1f1f"
       stroke-linecap="round"
       stroke-linejoin="round"
       stroke-width="0.8"
       id="line14"
       style="stroke:#d2ac95;stroke-opacity:1" />
    <path
       d="M 31.13564,87.30507 A 16.71231,16.71231 0 1 0 13.92012,87.35085"
       fill="none"
       stroke="#1f1f1f"
       stroke-linecap="round"
       stroke-linejoin="round"
       stroke-width="0.8"
       id="path16"
       style="stroke:#d2ac95;stroke-opacity:1" />
    <line
       x1="22.500019"
       y1="158.47655"
       x2="22.500019"
       y2="154.7533"
       fill="none"
       stroke="#1f1f1f"
       stroke-linecap="round"
       stroke-linejoin="round"
       stroke-width="0.8"
       id="line30"
       style="stroke:#d2ac95;stroke-opacity:1" />
    <path
       d="m 31.13564,185.30517 a 16.71231,16.71231 0 1 0 -17.21552,0.0458"
       fill="none"
       stroke="#1f1f1f"
       stroke-linecap="round"
       stroke-linejoin="round"
       stroke-width="0.8"
       id="path32"
       style="stroke:#d2ac95;stroke-opacity:1" />
    <line
       x1="22.5"
       y1="43.956959"
       x2="22.5"
       y2="52.04472"
       fill="none"
       stroke="#1f1f1f"
       stroke-linecap="round"
       stroke-linejoin="round"
       stroke-width="0.8"
       id="line38"
       style="stroke:#d2ac95;stroke-opacity:1" />
    <line
       x1="22.5"
       y1="141.3302"
       x2="22.5"
       y2="148.91479"
       fill="none"
       stroke="#1f1f1f"
       stroke-linecap="round"
       stroke-linejoin="round"
       stroke-width="0.666"
       id="line40"
       style="stroke:#d2ac95;stroke-opacity:1" />
    <line
       x1="22.5"
       y1="92.330162"
       x2="22.5"
       y2="99.914757"
       fill="none"
       stroke="#1f1f1f"
       stroke-linecap="round"
       stroke-linejoin="round"
       stroke-width="0.666"
       id="line42"
       style="stroke:#d2ac95;stroke-opacity:1" />
    <line
       x1="7"
       y1="211"
       x2="7"
       y2="275"
       fill="none"
       stroke="#1f1f1f"
       stroke-linecap="round"
       stroke-linejoin="round"
       stroke-width="0.571507"
       id="line54"
       style="stroke:#d2ac95;stroke-opacity:1" />
    <path
       style="fill:none;stroke:#d2ac95;stroke-width:0.572;stroke-linecap:butt;stroke-linejoin:miter;stroke-miterlimit:4;stroke-dasharray:none;stroke-opacity:1"
       d="M 23,287 C 18,283 6.7890042,274.8312 7,275"
       id="path1532"
       sodipodi:nodetypes="cc" />
    <path
       style="fill:none;stroke:#d2ac95;stroke-width:0.572;stroke-linecap:butt;stroke-linejoin:miter;stroke-miterlimit:4;stroke-dasharray:none;stroke-opacity:1"
       d="M 23,257 7,245"
       id="path1532-5"
       sodipodi:nodetypes="cc" />
    <path
       style="fill:none;stroke:#d2ac95;stroke-width:0.572;stroke-linecap:butt;stroke-linejoin:miter;stroke-miterlimit:4;stroke-dasharray:none;stroke-opacity:1"
       d="M 23,227 7,215"
       id="path1532-4"
       sodipodi:nodetypes="cc" />
  </g>
  <g
     id="g81"
     style="fill:#d2ac95;fill-opacity:1">
    <path
       d="m 3.24023,23.93164 v -0.0249 a 4.45146,4.45146 0 0 1 4.56641,-4.5293 4.638,4.638 0 0 1 2.92871,0.88818 0.96478,0.96478 0 0 1 0.375,0.76368 0.93948,0.93948 0 0 1 -0.95019,0.93847 1.01258,1.01258 0 0 1 -0.57618,-0.188 2.88229,2.88229 0 0 0 -1.78906,-0.62549 2.59489,2.59489 0 0 0 -2.54,2.72754 v 0.0249 a 2.60137,2.60137 0 0 0 2.54,2.75293 2.81637,2.81637 0 0 0 1.90235,-0.688 0.892,0.892 0 1 1 1.15039,1.36335 4.39911,4.39911 0 0 1 -3.11524,1.10156 4.4212,4.4212 0 0 1 -4.49219,-4.50492 z"
       fill="#1f1f1f"
       id="path71"
       style="fill:#d2ac95;fill-opacity:1" />
    <path
       d="m 14.65234,27.66064 -2.84082,-6.79443 a 1.19644,1.19644 0 0 1 -0.1123,-0.46289 0.94531,0.94531 0 0 1 0.96289,-0.95068 1.00247,1.00247 0 0 1 0.97656,0.67529 l 2.18945,5.668 2.21488,-5.7305 a 0.99864,0.99864 0 0 1 0.92578,-0.61279 0.92974,0.92974 0 0 1 0.95117,0.92578 1.12328,1.12328 0 0 1 -0.10058,0.42529 l -2.86527,6.85693 a 1.13167,1.13167 0 0 1 -1.08887,0.76319 h -0.125 a 1.12955,1.12955 0 0 1 -1.08789,-0.76319 z"
       fill="#1f1f1f"
       id="path73"
       style="fill:#d2ac95;fill-opacity:1" />
    <path
       d="m 20.68945,20.44092 a 0.95618,0.95618 0 0 1 0.96387,-0.96338 h 0.21191 a 0.99092,0.99092 0 0 1 0.877,0.50049 l 2.32617,3.7915 2.33984,-3.80371 a 0.94508,0.94508 0 0 1 0.86328,-0.48828 h 0.2129 a 0.95557,0.95557 0 0 1 0.96386,0.96338 v 6.95654 a 0.95754,0.95754 0 1 1 -1.915,0 v -4.36621 l -1.68847,2.60254 a 0.9012,0.9012 0 0 1 -1.60157,0 L 22.5791,23.06836 v 4.35449 a 0.93972,0.93972 0 0 1 -0.95117,0.93848 0.92956,0.92956 0 0 1 -0.93848,-0.93848 z"
       fill="#1f1f1f"
       id="path75"
       style="fill:#d2ac95;fill-opacity:1" />
    <path
       d="m 31.14258,20.416 a 0.96387,0.96387 0 0 1 1.92773,0 v 6.98144 a 0.96387,0.96387 0 1 1 -1.92773,0 z"
       fill="#1f1f1f"
       id="path77"
       style="fill:#d2ac95;fill-opacity:1" />
    <path
       d="M 34.39844,26.73438 36.7627,23.832 34.53516,21.1167 a 1.1825,1.1825 0 0 1 -0.28711,-0.71338 0.92731,0.92731 0 0 1 0.95117,-0.95068 1.01094,1.01094 0 0 1 0.88769,0.47509 l 1.915,2.55274 1.90141,-2.50247 a 1.09963,1.09963 0 0 1 0.93848,-0.52539 0.87958,0.87958 0 0 1 0.876,0.88818 1.14583,1.14583 0 0 1 -0.28808,0.73828 l -2.22657,2.72754 2.35157,2.89063 a 1.175,1.175 0 0 1 0.28808,0.71289 0.92772,0.92772 0 0 1 -0.95117,0.95117 1.01025,1.01025 0 0 1 -0.88769,-0.47559 l -2.05274,-2.69043 -2.02734,2.64063 a 1.09681,1.09681 0 0 1 -0.9375,0.52539 0.88,0.88 0 0 1 -0.876,-0.88867 1.14683,1.14683 0 0 1 0.28808,-0.73825 z"
       fill="#1f1f1f"
       id="path79"
       style="fill:#d2ac95;fill-opacity:1" />
  </g>
  <g
     id="g28036"
     style="fill:#d2ac95;fill-opacity:1">
    <path
       d="M 7.3639898,210.7393 9.02199,207.86763 a 0.37186,0.37186 0 0 0 -0.3220002,-0.55779 h -3.316 a 0.37186,0.37186 0 0 0 -0.322,0.55779 l 1.658,2.87167 a 0.37186,0.37186 0 0 0 0.644,0 z"
       fill="#1f1f1f"
       id="path12"
       style="fill:#d2ac95;fill-opacity:1" />
    <g
       id="g27978"
       style="fill:#d2ac95;fill-opacity:1">
      <path
         d="m 15.207,47.981 a 0.47858,0.47858 0 0 1 0.4707,-0.4795 h 1.50391 a 0.47585,0.47585 0 0 1 0,0.95166 H 15.67773 A 0.47733,0.47733 0 0 1 15.207,47.981 Z"
         fill="#1f1f1f"
         id="path67"
         style="fill:#d2ac95;fill-opacity:1" />
      <path
         d="M 28.0918,48.44141 H 26.957 A 0.43762,0.43762 0 0 1 26.51755,48.00195 0.443,0.443 0 0 1 26.957,47.5625 h 1.1348 v -1.11182 a 0.45063,0.45063 0 0 1 0.45605,-0.45556 0.45614,0.45614 0 0 1 0.45606,0.45556 v 1.11182 h 1.13476 a 0.443,0.443 0 0 1 0.43945,0.43945 0.43761,0.43761 0 0 1 -0.43945,0.43946 h -1.13476 v 1.11181 a 0.45615,0.45615 0 0 1 -0.45606,0.45557 0.45063,0.45063 0 0 1 -0.45605,-0.45557 z"
         fill="#1f1f1f"
         id="path69"
         style="fill:#d2ac95;fill-opacity:1" />
      <g
         id="g65"
         transform="translate(-15.86227,0.69337)"
         style="fill:#d2ac95;fill-opacity:1">
        <path
           d="m 19.86227,201.30663 -0.48828,0.14892 a 0.59633,0.59633 0 0 1 -0.14941,0.0205 0.36047,0.36047 0 0 1 -0.08789,-0.71143 l 0.71777,-0.23047 a 1.45162,1.45162 0 0 1 0.40625,-0.0742 h 0.01367 a 0.40616,0.40616 0 0 1 0.41406,0.41308 v 4.01074 a 0.41309,0.41309 0 1 1 -0.82617,0 z"
           fill="#1f1f1f"
           id="path59"
           style="fill:#d2ac95;fill-opacity:1" />
        <path
           d="m 21.93259,202.90525 v -0.0132 a 2.22044,2.22044 0 0 1 2.07324,-2.45263 2.2028,2.2028 0 0 1 2.05957,2.439 v 0.0137 a 2.22045,2.22045 0 0 1 -2.07324,2.45264 2.19819,2.19819 0 0 1 -2.05957,-2.43949 z m 3.27246,0 v -0.0132 c 0,-0.935 -0.48145,-1.70068 -1.21289,-1.70068 -0.73144,0 -1.19922,0.74512 -1.19922,1.687 v 0.0137 c 0,0.93506 0.47363,1.70069 1.21289,1.70069 0.73828,2e-5 1.19922,-0.75877 1.19922,-1.68749 z"
           fill="#1f1f1f"
           id="path61"
           style="fill:#d2ac95;fill-opacity:1" />
        <path
           d="m 28.45407,204.99217 -1.65918,-3.90234 a 0.4637,0.4637 0 0 1 -0.04785,-0.19629 0.41134,0.41134 0 0 1 0.41992,-0.40674 0.43777,0.43777 0 0 1 0.42774,0.29834 l 1.36816,3.4209 1.38867,-3.44824 a 0.42988,0.42988 0 0 1 0.39941,-0.271 0.40428,0.40428 0 0 1 0.41407,0.3999 0.47424,0.47424 0 0 1 -0.041,0.17578 l -1.666,3.92969 a 0.49756,0.49756 0 0 1 -0.48145,0.33887 h -0.04785 a 0.49524,0.49524 0 0 1 -0.47464,-0.33887 z"
           fill="#1f1f1f"
           id="path63"
           style="fill:#d2ac95;fill-opacity:1" />
      </g>
      <g
         aria-label="1"
         id="text6531"
         style="font-weight:bold;font-size:10.6667px;font-family:Arial;-inkscape-font-specification:'Arial, Bold';fill:#d2ac95;fill-opacity:1">
        <path
           d="m 37.778439,57.542374 h -1.463546 v -5.515643 q -0.802086,0.750003 -1.890631,1.109379 v -1.328129 q 0.572918,-0.187501 1.244795,-0.708336 0.671878,-0.526043 0.921878,-1.223962 h 1.187504 z"
           id="path20906"
           style="fill:#d2ac95;fill-opacity:1" />
      </g>
      <g
         aria-label="1"
         id="text6531-6"
         style="font-weight:bold;font-size:10.6667px;font-family:Arial;-inkscape-font-specification:'Arial, Bold';fill:#d2ac95;fill-opacity:1"
         transform="translate(1.064246,-0.64168)">
        <path
           d="m 35.289931,218.37607 h -1.463546 v -5.51564 q -0.802086,0.75 -1.890631,1.10937 v -1.32812 q 0.572918,-0.18751 1.244795,-0.70834 0.671877,-0.52604 0.921878,-1.22396 h 1.187504 z"
           id="path20921"
           style="fill:#d2ac95;fill-opacity:1" />
      </g>
      <g
         aria-label="2"
         id="text6531-6-6"
         style="font-weight:bold;font-size:10.6667px;font-family:Arial;-inkscape-font-specification:'Arial, Bold';fill:#d2ac95;fill-opacity:1"
         transform="translate(0.727518,-0.92622101)">
        <path
           d="m 36.772493,247.17781 v 1.35938 h -5.130225 q 0.08333,-0.77084 0.500002,-1.45834 0.416668,-0.69271 1.645838,-1.83334 0.989587,-0.92188 1.213546,-1.25001 0.302084,-0.45312 0.302084,-0.89583 0,-0.48959 -0.265626,-0.75 -0.260417,-0.26563 -0.72396,-0.26563 -0.458335,0 -0.729169,0.27604 -0.270835,0.27605 -0.312501,0.91667 l -1.458338,-0.14583 q 0.130208,-1.20834 0.817711,-1.73438 0.687502,-0.52605 1.718755,-0.52605 1.130212,0 1.776047,0.60938 0.645836,0.60938 0.645836,1.51563 0,0.51563 -0.187501,0.98438 -0.182292,0.46354 -0.583335,0.97396 -0.265626,0.33854 -0.958337,0.97396 -0.69271,0.63542 -0.880211,0.84376 -0.182292,0.20833 -0.296876,0.40625 z"
           id="path20926"
           style="fill:#d2ac95;fill-opacity:1" />
      </g>
      <g
         aria-label="3"
         id="text6531-6-9"
         style="font-weight:bold;font-size:10.6667px;font-family:Arial;-inkscape-font-specification:'Arial, Bold';fill:#d2ac95;fill-opacity:1"
         transform="translate(0.6886114,-0.75944)">
        <path
           d="m 31.752415,276.36882 1.416671,-0.17188 q 0.06771,0.54167 0.364584,0.82813 0.296876,0.28646 0.718753,0.28646 0.453126,0 0.760419,-0.34375 0.312501,-0.34375 0.312501,-0.92709 0,-0.55208 -0.296876,-0.875 -0.296876,-0.32292 -0.723961,-0.32292 -0.281251,0 -0.671877,0.10938 l 0.161459,-1.19271 q 0.593752,0.0156 0.906253,-0.25521 0.312501,-0.27605 0.312501,-0.72917 0,-0.38542 -0.229168,-0.61459 -0.229167,-0.22917 -0.609377,-0.22917 -0.375001,0 -0.640627,0.26042 -0.265626,0.26042 -0.322917,0.76042 l -1.348963,-0.22917 q 0.140625,-0.69271 0.421876,-1.10417 0.28646,-0.41666 0.79167,-0.65104 0.510418,-0.23958 1.140628,-0.23958 1.078129,0 1.729172,0.6875 0.53646,0.5625 0.53646,1.27084 0,1.00521 -1.098961,1.60417 0.656252,0.14062 1.046878,0.63021 0.395834,0.48958 0.395834,1.18229 0,1.00521 -0.734377,1.71355 -0.734377,0.70834 -1.828131,0.70834 -1.036461,0 -1.718755,-0.59376 -0.682294,-0.59896 -0.791669,-1.5625 z"
           id="path20931"
           style="fill:#d2ac95;fill-opacity:1" />
      </g>
      <g
         aria-label="2"
         id="text9901"
         style="font-weight:bold;font-size:10.6667px;font-family:Arial;-inkscape-font-specification:'Arial, Bold';fill:#d2ac95;fill-opacity:1">
        <path
           d="m 38.171275,104.99655 v 1.35938 h -5.130224 q 0.08333,-0.77084 0.500001,-1.45834 0.416668,-0.69271 1.645839,-1.83334 0.989586,-0.92188 1.213545,-1.25 0.302085,-0.45313 0.302085,-0.89584 0,-0.48959 -0.265626,-0.75 -0.260418,-0.265629 -0.723961,-0.265629 -0.458335,0 -0.729169,0.276039 -0.270834,0.27605 -0.312501,0.91667 l -1.458338,-0.14583 q 0.130209,-1.208338 0.817711,-1.734381 0.687502,-0.526043 1.718756,-0.526043 1.130212,0 1.776047,0.609377 0.645835,0.609376 0.645835,1.515627 0,0.51563 -0.1875,0.98438 -0.182292,0.46354 -0.583335,0.97396 -0.265626,0.33854 -0.958337,0.97396 -0.69271,0.63542 -0.880211,0.84376 -0.182292,0.20833 -0.296876,0.40625 z"
           id="path20911"
           style="fill:#d2ac95;fill-opacity:1" />
      </g>
      <g
         aria-label="3"
         id="text12281"
         style="font-weight:bold;font-size:10.6667px;font-family:Arial;-inkscape-font-specification:'Arial, Bold';fill:#d2ac95;fill-opacity:1">
        <path
           d="m 33.416462,153.19229 1.416671,-0.17188 q 0.06771,0.54167 0.364585,0.82813 0.296876,0.28646 0.718752,0.28646 0.453126,0 0.760419,-0.34375 0.312501,-0.34375 0.312501,-0.92709 0,-0.55208 -0.296876,-0.875 -0.296876,-0.32292 -0.723961,-0.32292 -0.281251,0 -0.671877,0.10938 l 0.161459,-1.19271 q 0.593752,0.0156 0.906253,-0.25521 0.312501,-0.27604 0.312501,-0.72917 0,-0.38542 -0.229167,-0.61459 -0.229168,-0.22916 -0.609377,-0.22916 -0.375002,0 -0.640627,0.26041 -0.265626,0.26042 -0.322918,0.76042 l -1.348963,-0.22916 q 0.140626,-0.69272 0.421877,-1.10418 0.286459,-0.41666 0.791669,-0.65104 0.510418,-0.23958 1.140628,-0.23958 1.078129,0 1.729173,0.6875 0.53646,0.5625 0.53646,1.27084 0,1.00521 -1.098962,1.60417 0.656252,0.14062 1.046878,0.63021 0.395835,0.48958 0.395835,1.18229 0,1.00522 -0.734378,1.71355 -0.734377,0.70834 -1.82813,0.70834 -1.036462,0 -1.718756,-0.59376 -0.682294,-0.59896 -0.791669,-1.5625 z"
           id="path20916"
           style="fill:#d2ac95;fill-opacity:1" />
      </g>
    </g>
  </g>
  <g
     id="g42796"
     transform="matrix(0.30458296,0,0,0.30458296,-0.5908901,-15.852443)"
     style="fill:#ff0000">
    <g
       aria-label="enom"
       id="text4270-27"
       style="font-size:49.3889px;line-height:1.25;font-family:'NECK ROMANCER';-inkscape-font-specification:'NECK ROMANCER, Normal';font-variant-ligatures:none;text-align:center;text-anchor:middle;stroke-width:2.64583;fill:#ff0000">
      <path
         d="m 46.609141,1249.244 q 0,1.1576 0,3.4245 3.183269,0 9.453344,0 -1.639866,0.5787 -2.990343,1.2058 -1.350478,0.627 -2.363337,1.688 -1.350477,0 -4.051433,0 0,1.4952 0.434082,2.5563 0.385851,1.1093 1.832792,1.1093 2.266873,0 6.80062,0 0.482313,-0.1447 0.868164,-0.627 0.337619,-0.5305 0.627007,-1.7363 0,2.0257 0,6.1254 -3.520888,0 -10.562665,0 -1.543403,0 -2.652724,-2.2187 -1.109321,-2.1704 -1.109321,-6.3183 0,-1.9775 0,-5.836 -0.385851,-1.3504 -1.881023,-2.1221 -1.495171,-0.7235 -3.569119,-1.2058 6.607694,0 19.774852,0 0,2.9421 0,8.7781 -1.205783,-2.701 -2.218642,-3.6656 -1.012858,-0.9646 -2.700955,-1.1093 -0.916396,-0.097 -2.170411,-0.097 -1.205783,0.048 -2.845649,0.048 -0.241157,0 -0.675239,0 z"
         id="path42762"
         style="fill:#ff0000" />
      <path
         d="m 81.576869,1245.2891 q 0,5.8842 0,17.7009 0,3.0868 -0.144694,6.0771 -0.09646,3.0386 -0.337619,5.9325 -0.385851,-3.7138 -0.964627,-6.9936 -0.530545,-3.3279 -2.025717,-5.016 0,-2.9904 0,-8.9228 -0.241157,-1.3505 -0.72347,-2.2187 -0.482314,-0.8681 -1.06109,-1.3987 -1.109321,-1.0128 -2.411567,-1.1093 -1.350478,-0.097 -2.266874,-0.097 -0.482313,0 -1.44694,0 0,4.582 0,13.746 0,3.0868 -0.09646,6.0771 -0.144694,3.0386 -0.385851,5.9325 -0.38585,-3.7138 -0.916395,-6.9936 -0.578776,-3.3279 -2.025717,-5.016 0,-4.8232 0,-14.373 -0.385851,-1.3504 -1.881022,-2.1221 -1.495172,-0.7235 -3.56912,-1.2058 6.752389,0 20.257166,0 z"
         id="path42764"
         style="fill:#ff0000" />
      <path
         d="m 104.19737,1249.0511 q 0,3.3762 0,10.1768 0,1.5434 -1.92925,2.6528 -1.92926,1.1093 -6.077152,1.1093 -4.196128,0 -6.125382,-1.1093 -1.929254,-1.1094 -1.929254,-2.6528 0,-3.3762 0,-10.1768 0,-1.5434 1.929254,-2.6527 1.929254,-1.1093 6.125382,-1.1093 4.147892,0 6.077152,1.1093 1.92925,1.1093 1.92925,2.6527 z m -3.76204,7.91 q 0,-1.8811 0,-5.6431 0,-1.6881 -1.254019,-1.9775 -1.205783,-0.2894 -2.990343,-0.2894 -1.832792,0 -3.038575,0.2894 -1.254015,0.2894 -1.254015,1.9775 0,1.881 0,5.6431 0,1.6881 1.254015,1.9774 1.205783,0.2894 3.038575,0.2894 1.78456,0 2.990343,-0.2894 1.254019,-0.2893 1.254019,-1.9774 z"
         id="path42766"
         style="fill:#ff0000" />
      <path
         d="m 142.34837,1245.2891 q -2.02572,0.4823 -3.52089,1.2058 -1.5434,0.7717 -1.88102,2.1221 0,4.7749 0,14.373 -1.49517,1.6881 -2.02572,5.016 -0.57878,3.2798 -0.96463,6.9936 -0.24115,-2.8939 -0.33762,-5.9325 -0.14469,-2.9903 -0.14469,-6.0771 0,-4.582 0,-13.746 -0.48231,0 -1.39871,0 -0.53054,0 -1.15755,0 -0.62701,0 -1.30225,0.1447 -1.25401,0.2412 -2.41157,1.2058 -1.15755,0.9646 -1.63986,3.4727 0,2.9903 0,8.9228 -0.1447,0.627 -0.28939,1.1093 -0.0965,0.4823 -0.19292,0.8199 -0.53055,1.9775 -0.38586,1.3505 0.19293,-0.627 -0.28938,1.1576 -0.0965,0.3376 -0.24116,0.8681 -0.14469,0.5306 -0.33762,1.3023 -0.14469,-0.6753 -0.28939,-1.2058 -0.14469,-0.4823 -0.24115,-0.8199 -0.53055,-2.0258 -0.33762,-1.3023 0.19292,0.7717 -0.43409,-1.6881 -0.0482,-0.2894 -0.19292,-0.7235 -0.0965,-0.3858 -0.19293,-0.8681 0,-2.9904 0,-8.9228 -0.28939,-1.3505 -0.7717,-2.2187 -0.48231,-0.8681 -1.06109,-1.3987 -1.10932,-1.0128 -2.41157,-1.1093 -1.30224,-0.097 -2.26687,-0.097 -0.48231,0 -1.39871,0 0,4.582 0,13.746 0,3.0868 -0.14469,6.0771 -0.0965,3.0386 -0.33762,5.9325 -0.38585,-3.7138 -0.96463,-6.9936 -0.53054,-3.3279 -2.02572,-5.016 0,-4.8232 0,-14.373 -0.38585,-1.3504 -1.88102,-2.1221 -1.49517,-0.7235 -3.56912,-1.2058 3.95497,0 11.76845,0 1.15755,0.3858 3.47266,1.1575 0.7717,0.2894 1.59163,0.4341 0.81994,0.1447 1.6881,0.1447 0.86816,0 1.73633,-0.1447 0.81993,-0.1447 1.59163,-0.4341 1.15756,-0.3858 3.42443,-1.1575 3.95497,0 11.76845,0 z"
         id="path42768"
         style="fill:#ff0000" />
    </g>
    <g
       aria-label="V"
       transform="matrix(1.2363173,0,0,0.80885384,-497.88086,123.48586)"
       id="text4270-3-5-2"
       style="font-size:78.5061px;line-height:1.25;font-family:Nosferotica;-inkscape-font-specification:'Nosferotica, Normal';font-variant-ligatures:none;text-align:center;text-anchor:middle;stroke-width:3.27108;fill:#ff0000">
      <path
         d="m 431.64994,1360.6864 8.57428,-0.1022 c 0,0 -4.4079,1.0878 -5.59925,3.7285 -1.88083,4.1689 -3.64217,14.6628 -3.64217,14.6628 l -2.23339,11.5191 -1.83311,11.8311 -1.71824,21.3112 -1.69514,-21.3112 -1.92196,-11.5208 -2.5009,-11.8294 c 0,0 -1.52027,-10.287 -3.38278,-14.4832 -1.14458,-2.5787 -5.63367,-3.8059 -5.63367,-3.8059 h 8.4657 l 6.66875,29.1569 z"
         id="path30410"
         sodipodi:nodetypes="ccscccccccscccc"
         style="fill:#ff0000" />
    </g>
  </g>
</svg>
