<?xml version="1.0" encoding="UTF-8" standalone="no"?>
<svg
   width="75"
   height="380"
   viewBox="0 0 75 380"
   version="1.1"
   id="svg100"
   sodipodi:docname="LinearBeats_Earth.svg"
   inkscape:version="1.1.1 (3bf5ae0d25, 2021-09-20)"
   xmlns:inkscape="http://www.inkscape.org/namespaces/inkscape"
   xmlns:sodipodi="http://sodipodi.sourceforge.net/DTD/sodipodi-0.dtd"
   xmlns="http://www.w3.org/2000/svg"
   xmlns:svg="http://www.w3.org/2000/svg"
   xmlns:rdf="http://www.w3.org/1999/02/22-rdf-syntax-ns#"
   xmlns:cc="http://creativecommons.org/ns#"
   xmlns:dc="http://purl.org/dc/elements/1.1/">
  <metadata
     id="metadata104">
    <rdf:RDF>
      <cc:Work
         rdf:about="">
        <dc:format>image/svg+xml</dc:format>
        <dc:type
           rdf:resource="http://purl.org/dc/dcmitype/StillImage" />
      </cc:Work>
    </rdf:RDF>
  </metadata>
  <sodipodi:namedview
     pagecolor="#ffffff"
     bordercolor="#666666"
     borderopacity="1"
     objecttolerance="1"
     gridtolerance="1"
     guidetolerance="1"
     inkscape:pageopacity="0"
     inkscape:pageshadow="2"
     inkscape:window-width="1920"
     inkscape:window-height="1057"
     id="namedview102"
     showgrid="true"
     inkscape:zoom="2.2342105"
     inkscape:cx="-67.585395"
     inkscape:cy="189.55241"
     inkscape:window-x="1592"
     inkscape:window-y="-8"
     inkscape:window-maximized="1"
     inkscape:current-layer="layer2"
     inkscape:pagecheckerboard="0"
     units="px"
     inkscape:showpageshadow="false">
    <inkscape:grid
       type="xygrid"
       id="grid1285"
       visible="false" />
  </sodipodi:namedview>
  <defs
     id="defs7">
    <rect
       x="85"
       y="10"
       width="51.058132"
       height="25"
       id="rect29906" />
    <linearGradient
       id="a8e142bb-541b-4903-be63-d5d069028a5d"
       x1="22.5"
       x2="22.5"
       y2="380"
       gradientUnits="userSpaceOnUse">
      <stop
         offset="0"
         stop-color="#ebebeb"
         id="stop2" />
      <stop
         offset="1"
         stop-color="#e1e1e1"
         id="stop4" />
    </linearGradient>
  </defs>
  <g
     id="aea613ef-74be-49bf-be45-c0734aee674b"
     data-name="FND BG"
     style="fill:#423932;fill-opacity:1"
     transform="scale(1.6666667,1)">
    <rect
       width="45"
       height="380"
       fill="url(#a8e142bb-541b-4903-be63-d5d069028a5d)"
       id="rect9"
       style="fill:#423932;fill-opacity:1"
       x="0"
       y="0" />
  </g>
  <g
     id="f45e0130-37b7-4f8b-95b3-6408baa23eb1"
     data-name="components"
     style="display:inline"
     inkscape:groupmode="layer" />
  <g
     id="g42796"
     transform="matrix(0.30458296,0,0,0.30458296,14.27481,-12.68508)"
     style="fill:#ff0000">
    <g
       aria-label="enom"
       id="text4270-27"
       style="font-size:49.3889px;line-height:1.25;font-family:'NECK ROMANCER';-inkscape-font-specification:'NECK ROMANCER, Normal';font-variant-ligatures:none;text-align:center;text-anchor:middle;fill:#ff0000;stroke-width:2.64583">
      <path
         d="m 46.609141,1249.244 q 0,1.1576 0,3.4245 3.183269,0 9.453344,0 -1.639866,0.5787 -2.990343,1.2058 -1.350478,0.627 -2.363337,1.688 -1.350477,0 -4.051433,0 0,1.4952 0.434082,2.5563 0.385851,1.1093 1.832792,1.1093 2.266873,0 6.80062,0 0.482313,-0.1447 0.868164,-0.627 0.337619,-0.5305 0.627007,-1.7363 0,2.0257 0,6.1254 -3.520888,0 -10.562665,0 -1.543403,0 -2.652724,-2.2187 -1.109321,-2.1704 -1.109321,-6.3183 0,-1.9775 0,-5.836 -0.385851,-1.3504 -1.881023,-2.1221 -1.495171,-0.7235 -3.569119,-1.2058 6.607694,0 19.774852,0 0,2.9421 0,8.7781 -1.205783,-2.701 -2.218642,-3.6656 -1.012858,-0.9646 -2.700955,-1.1093 -0.916396,-0.097 -2.170411,-0.097 -1.205783,0.048 -2.845649,0.048 -0.241157,0 -0.675239,0 z"
         id="path42762"
         style="fill:#ff0000" />
      <path
         d="m 81.576869,1245.2891 q 0,5.8842 0,17.7009 0,3.0868 -0.144694,6.0771 -0.09646,3.0386 -0.337619,5.9325 -0.385851,-3.7138 -0.964627,-6.9936 -0.530545,-3.3279 -2.025717,-5.016 0,-2.9904 0,-8.9228 -0.241157,-1.3505 -0.72347,-2.2187 -0.482314,-0.8681 -1.06109,-1.3987 -1.109321,-1.0128 -2.411567,-1.1093 -1.350478,-0.097 -2.266874,-0.097 -0.482313,0 -1.44694,0 0,4.582 0,13.746 0,3.0868 -0.09646,6.0771 -0.144694,3.0386 -0.385851,5.9325 -0.38585,-3.7138 -0.916395,-6.9936 -0.578776,-3.3279 -2.025717,-5.016 0,-4.8232 0,-14.373 -0.385851,-1.3504 -1.881022,-2.1221 -1.495172,-0.7235 -3.56912,-1.2058 6.752389,0 20.257166,0 z"
         id="path42764"
         style="fill:#ff0000" />
      <path
         d="m 104.19737,1249.0511 q 0,3.3762 0,10.1768 0,1.5434 -1.92925,2.6528 -1.92926,1.1093 -6.077152,1.1093 -4.196128,0 -6.125382,-1.1093 -1.929254,-1.1094 -1.929254,-2.6528 0,-3.3762 0,-10.1768 0,-1.5434 1.929254,-2.6527 1.929254,-1.1093 6.125382,-1.1093 4.147892,0 6.077152,1.1093 1.92925,1.1093 1.92925,2.6527 z m -3.76204,7.91 q 0,-1.8811 0,-5.6431 0,-1.6881 -1.254019,-1.9775 -1.205783,-0.2894 -2.990343,-0.2894 -1.832792,0 -3.038575,0.2894 -1.254015,0.2894 -1.254015,1.9775 0,1.881 0,5.6431 0,1.6881 1.254015,1.9774 1.205783,0.2894 3.038575,0.2894 1.78456,0 2.990343,-0.2894 1.254019,-0.2893 1.254019,-1.9774 z"
         id="path42766"
         style="fill:#ff0000" />
      <path
         d="m 142.34837,1245.2891 q -2.02572,0.4823 -3.52089,1.2058 -1.5434,0.7717 -1.88102,2.1221 0,4.7749 0,14.373 -1.49517,1.6881 -2.02572,5.016 -0.57878,3.2798 -0.96463,6.9936 -0.24115,-2.8939 -0.33762,-5.9325 -0.14469,-2.9903 -0.14469,-6.0771 0,-4.582 0,-13.746 -0.48231,0 -1.39871,0 -0.53054,0 -1.15755,0 -0.62701,0 -1.30225,0.1447 -1.25401,0.2412 -2.41157,1.2058 -1.15755,0.9646 -1.63986,3.4727 0,2.9903 0,8.9228 -0.1447,0.627 -0.28939,1.1093 -0.0965,0.4823 -0.19292,0.8199 -0.53055,1.9775 -0.38586,1.3505 0.19293,-0.627 -0.28938,1.1576 -0.0965,0.3376 -0.24116,0.8681 -0.14469,0.5306 -0.33762,1.3023 -0.14469,-0.6753 -0.28939,-1.2058 -0.14469,-0.4823 -0.24115,-0.8199 -0.53055,-2.0258 -0.33762,-1.3023 0.19292,0.7717 -0.43409,-1.6881 -0.0482,-0.2894 -0.19292,-0.7235 -0.0965,-0.3858 -0.19293,-0.8681 0,-2.9904 0,-8.9228 -0.28939,-1.3505 -0.7717,-2.2187 -0.48231,-0.8681 -1.06109,-1.3987 -1.10932,-1.0128 -2.41157,-1.1093 -1.30224,-0.097 -2.26687,-0.097 -0.48231,0 -1.39871,0 0,4.582 0,13.746 0,3.0868 -0.14469,6.0771 -0.0965,3.0386 -0.33762,5.9325 -0.38585,-3.7138 -0.96463,-6.9936 -0.53054,-3.3279 -2.02572,-5.016 0,-4.8232 0,-14.373 -0.38585,-1.3504 -1.88102,-2.1221 -1.49517,-0.7235 -3.56912,-1.2058 3.95497,0 11.76845,0 1.15755,0.3858 3.47266,1.1575 0.7717,0.2894 1.59163,0.4341 0.81994,0.1447 1.6881,0.1447 0.86816,0 1.73633,-0.1447 0.81993,-0.1447 1.59163,-0.4341 1.15756,-0.3858 3.42443,-1.1575 3.95497,0 11.76845,0 z"
         id="path42768"
         style="fill:#ff0000" />
    </g>
    <g
       aria-label="V"
       transform="matrix(1.2363173,0,0,0.80885384,-497.88086,123.48586)"
       id="text4270-3-5-2"
       style="font-size:78.5061px;line-height:1.25;font-family:Nosferotica;-inkscape-font-specification:'Nosferotica, Normal';font-variant-ligatures:none;text-align:center;text-anchor:middle;fill:#ff0000;stroke-width:3.27108">
      <path
         d="m 431.64994,1360.6864 8.57428,-0.1022 c 0,0 -4.4079,1.0878 -5.59925,3.7285 -1.88083,4.1689 -3.64217,14.6628 -3.64217,14.6628 l -2.23339,11.5191 -1.83311,11.8311 -1.71824,21.3112 -1.69514,-21.3112 -1.92196,-11.5208 -2.5009,-11.8294 c 0,0 -1.52027,-10.287 -3.38278,-14.4832 -1.14458,-2.5787 -5.63367,-3.8059 -5.63367,-3.8059 h 8.4657 l 6.66875,29.1569 z"
         id="path30410"
         sodipodi:nodetypes="ccscccccccscccc"
         style="fill:#ff0000" />
    </g>
  </g>
  <text
     xml:space="preserve"
     id="text29904"
     style="font-weight:bold;font-size:8px;line-height:1.25;font-family:Arial;-inkscape-font-specification:'Arial, Bold';font-variant-ligatures:none;text-align:center;white-space:pre;shape-inside:url(#rect29906)" />
  <g
     inkscape:groupmode="layer"
     id="layer1"
     inkscape:label="Widgets"
     style="display:none">
    <circle
       style="fill:#ff0000;stroke:#ff0000;stroke-width:1.94925;stroke-opacity:1"
       id="path1065"
       cx="16.5"
       cy="308.94446"
       r="10.525375" />
    <circle
       style="fill:#ff0000;stroke:#ff0000;stroke-width:1.94925;stroke-opacity:1"
       id="path1065-7"
       cx="16.5"
       cy="277.38889"
       r="10.525375" />
    <circle
       style="fill:#ff0000;stroke:#ff0000;stroke-width:1.94925;stroke-opacity:1"
       id="path1065-7-1"
       cx="16.5"
       cy="245.83333"
       r="10.525375" />
    <circle
       style="display:inline;fill:#ff0000;stroke:#ff0000;stroke-width:1.94925;stroke-opacity:1"
       id="path1065-7-1-8"
       cx="16.5"
       cy="214.27777"
       r="10.525375" />
    <circle
       style="display:inline;fill:#ff0000;stroke:#ff0000;stroke-width:1.94925;stroke-opacity:1"
       id="path1065-7-1-17"
       cx="16.5"
       cy="182.72223"
       r="10.525375" />
    <circle
       style="display:inline;fill:#ff0000;stroke:#ff0000;stroke-width:1.94925;stroke-opacity:1"
       id="path1065-7-1-89"
       cx="16.5"
       cy="151.16666"
       r="10.525375" />
    <circle
       style="display:inline;fill:#ff0000;stroke:#ff0000;stroke-width:1.94925;stroke-opacity:1"
       id="path1065-7-1-2"
       cx="16.5"
       cy="119.61111"
       r="10.525375" />
    <circle
       style="display:inline;fill:#ff0000;stroke:#ff0000;stroke-width:1.94925;stroke-opacity:1"
       id="path1065-7-1-7"
       cx="16.5"
       cy="88.055557"
       r="10.525375" />
    <circle
       style="display:inline;fill:#ff0000;stroke:#ff0000;stroke-width:1.94925;stroke-opacity:1"
       id="path1065-7-1-15"
       cx="16.5"
       cy="56.5"
       r="10.525375" />
    <circle
       style="display:inline;fill:#ff0000;stroke:#ff0000;stroke-width:1.94925;stroke-opacity:1"
       id="path1065-9"
       cx="58.5"
       cy="308.94446"
       r="10.525375" />
    <circle
       style="display:inline;fill:#ff0000;stroke:#ff0000;stroke-width:1.94925;stroke-opacity:1"
       id="path1065-7-38"
       cx="58.5"
       cy="277.38889"
       r="10.525375" />
    <circle
       style="display:inline;fill:#ff0000;stroke:#ff0000;stroke-width:1.94925;stroke-opacity:1"
       id="path1065-7-1-1"
       cx="58.5"
       cy="245.83333"
       r="10.525375" />
    <circle
       style="display:inline;fill:#ff0000;stroke:#ff0000;stroke-width:1.94925;stroke-opacity:1"
       id="path1065-7-2-8"
       cx="58.5"
       cy="214.27777"
       r="10.525375" />
    <circle
       style="display:inline;fill:#ff0000;stroke:#ff0000;stroke-width:1.94925;stroke-opacity:1"
       id="path1065-7-2-8-8"
       cx="58.5"
       cy="182.72223"
       r="10.525375" />
    <circle
       style="display:inline;fill:#ff0000;stroke:#ff0000;stroke-width:1.94925;stroke-opacity:1"
       id="path1065-7-2-8-7"
       cx="58.5"
       cy="151.16666"
       r="10.525375" />
    <circle
       style="display:inline;fill:#ff0000;stroke:#ff0000;stroke-width:1.94925;stroke-opacity:1"
       id="path1065-7-2-8-6"
       cx="58.5"
       cy="119.61111"
       r="10.525375" />
    <circle
       style="display:inline;fill:#ff0000;stroke:#ff0000;stroke-width:1.94925;stroke-opacity:1"
       id="path1065-7-2-8-3"
       cx="58.5"
       cy="88.055557"
       r="10.525375" />
    <circle
       style="display:inline;fill:#ff0000;stroke:#ff0000;stroke-width:1.94925;stroke-opacity:1"
       id="path1065-7-2-8-2"
       cx="58.5"
       cy="56.5"
       r="10.525375" />
    <circle
       style="display:inline;fill:#ff0000;stroke:#ff0000;stroke-width:0.64063;stroke-opacity:1"
       id="path1065-7-2-3-6"
       cx="37.5"
       cy="340.5"
       r="3.4592125" />
    <circle
       style="display:inline;fill:#ff0000;stroke:#ff0000;stroke-width:0.64063;stroke-opacity:1"
       id="path1065-7-2-3-6-0"
       cx="37.5"
       cy="308.94446"
       r="3.4592125" />
    <circle
       style="display:inline;fill:#ff0000;stroke:#ff0000;stroke-width:0.64063;stroke-opacity:1"
       id="path1065-7-2-3-6-8"
       cx="37.5"
       cy="277.38889"
       r="3.4592125" />
    <circle
       style="display:inline;fill:#ff0000;stroke:#ff0000;stroke-width:0.64063;stroke-opacity:1"
       id="path1065-7-2-3-6-3"
       cx="37.5"
       cy="245.83333"
       r="3.4592125" />
    <circle
       style="display:inline;fill:#ff0000;stroke:#ff0000;stroke-width:0.64063;stroke-opacity:1"
       id="path1065-7-2-3-6-1"
       cx="37.5"
       cy="214.27777"
       r="3.4592125" />
    <circle
       style="display:inline;fill:#ff0000;stroke:#ff0000;stroke-width:0.64063;stroke-opacity:1"
       id="path1065-7-2-3-6-2"
       cx="37.5"
       cy="182.72223"
       r="3.4592125" />
    <circle
       style="display:inline;fill:#ff0000;stroke:#ff0000;stroke-width:0.64063;stroke-opacity:1"
       id="path1065-7-2-3-6-7"
       cx="37.5"
       cy="151.16666"
       r="3.4592125" />
    <circle
       style="display:inline;fill:#ff0000;stroke:#ff0000;stroke-width:0.64063;stroke-opacity:1"
       id="path1065-7-2-3-6-38"
       cx="37.5"
       cy="119.61111"
       r="3.4592125" />
    <circle
       style="display:inline;fill:#ff0000;stroke:#ff0000;stroke-width:0.64063;stroke-opacity:1"
       id="path1065-7-2-3-6-36"
       cx="37.5"
       cy="88.055557"
       r="3.4592125" />
    <circle
       style="display:inline;fill:#ff0000;stroke:#ff0000;stroke-width:0.64063;stroke-opacity:1"
       id="path1065-7-2-3-6-02"
       cx="37.5"
       cy="56.5"
       r="3.4592125" />
    <circle
       style="fill:#ff0000;stroke:#ff0000;stroke-width:1.94925;stroke-opacity:1"
       id="path1065-72"
       cx="16.5"
       cy="340.5"
       r="10.525375" />
    <circle
       style="display:inline;fill:#ff0000;stroke:#ff0000;stroke-width:1.94925;stroke-opacity:1"
       id="path1065-72-2"
       cx="58.5"
       cy="340.5"
       r="10.525375" />
  </g>
  <g
     inkscape:groupmode="layer"
     id="layer2"
     inkscape:label="Text Labels"
     style="display:inline">
    <g
       id="g31713"
       style="fill:#d2ac95;fill-opacity:1">
      <rect
         x="44.5"
         y="33.088097"
         width="27.998739"
         height="322.03098"
         rx="5.4654045"
         fill="#1f1f1f"
         id="rect56"
         style="display:inline;fill:#d2ac95;fill-opacity:1;stroke-width:2.83994" />
      <g
         aria-label="IN"
         id="text9323-7"
         style="font-weight:bold;font-size:8px;line-height:1.25;font-family:Arial;-inkscape-font-specification:'Arial, Bold';font-variant-ligatures:none;text-align:center;text-anchor:middle;display:inline;fill:#d2ac95;fill-opacity:1">
        <path
           d="M 13.09375,42.132851 V 36.406288 H 14.25 v 5.726563 z"
           id="path3387"
           style="fill:#d2ac95;fill-opacity:1" />
        <path
           d="m 15.363281,42.132851 v -5.726563 h 1.125 l 2.34375,3.824219 v -3.824219 h 1.074219 v 5.726563 H 18.746094 L 16.4375,38.398476 v 3.734375 z"
           id="path3389"
           style="fill:#d2ac95;fill-opacity:1" />
      </g>
      <g
         aria-label="A"
         id="text9323-6-3-6-1"
         style="font-weight:bold;font-size:8px;line-height:1.25;font-family:Arial;-inkscape-font-specification:'Arial, Bold';font-variant-ligatures:none;text-align:center;text-anchor:middle;display:inline;fill:#d2ac95;fill-opacity:1">
        <path
           d="m 40.373047,68 h -1.257813 l -0.5,-1.300781 H 36.326172 L 35.853516,68 h -1.226563 l 2.230469,-5.726563 h 1.222656 z m -2.128906,-2.265625 -0.789063,-2.125 -0.773437,2.125 z"
           id="path3404"
           style="fill:#d2ac95;fill-opacity:1" />
      </g>
      <g
         aria-label="B"
         id="text9323-6-3-6-1-45"
         style="font-weight:bold;font-size:8px;line-height:1.25;font-family:Arial;-inkscape-font-specification:'Arial, Bold';font-variant-ligatures:none;text-align:center;text-anchor:middle;display:inline;fill:#d2ac95;fill-opacity:1">
        <path
           d="m 35.101562,93.82357 h 2.289063 q 0.679687,0 1.011719,0.05859 0.335937,0.05469 0.597656,0.234375 0.265625,0.179688 0.441406,0.480469 0.175781,0.296875 0.175781,0.667969 0,0.402343 -0.21875,0.738281 -0.214843,0.335937 -0.585937,0.503906 0.523437,0.152344 0.804687,0.519531 0.28125,0.367188 0.28125,0.863282 0,0.390625 -0.183593,0.761718 -0.179688,0.367188 -0.496094,0.589844 -0.3125,0.21875 -0.773438,0.269531 -0.289062,0.03125 -1.394531,0.03906 h -1.949219 z m 1.15625,0.953125 v 1.324219 h 0.757813 q 0.675781,0 0.839844,-0.01953 0.296875,-0.03516 0.464843,-0.203125 0.171875,-0.171875 0.171875,-0.449219 0,-0.265625 -0.148437,-0.429687 -0.144531,-0.167969 -0.433594,-0.203125 -0.171875,-0.01953 -0.988281,-0.01953 z m 0,2.277344 v 1.53125 h 1.070313 q 0.625,0 0.792969,-0.03516 0.257812,-0.04687 0.417968,-0.226563 0.164063,-0.183593 0.164063,-0.488281 0,-0.257812 -0.125,-0.4375 -0.125,-0.179687 -0.363281,-0.261719 -0.234375,-0.08203 -1.023438,-0.08203 z"
           id="path3407"
           style="fill:#d2ac95;fill-opacity:1" />
      </g>
      <g
         aria-label="C"
         id="text9323-6-3-6-1-0"
         style="font-weight:bold;font-size:8px;line-height:1.25;font-family:Arial;-inkscape-font-specification:'Arial, Bold';font-variant-ligatures:none;text-align:center;text-anchor:middle;display:inline;fill:#d2ac95;fill-opacity:1">
        <path
           d="m 38.873047,128.9948 1.121094,0.35547 q -0.257813,0.9375 -0.859375,1.39453 -0.597657,0.45312 -1.519532,0.45312 -1.140625,0 -1.875,-0.77734 -0.734375,-0.78125 -0.734375,-2.13281 0,-1.42969 0.738282,-2.21875 0.738281,-0.79297 1.941406,-0.79297 1.050781,0 1.707031,0.62109 0.390625,0.36719 0.585938,1.05469 l -1.144532,0.27344 q -0.101562,-0.44532 -0.425781,-0.70313 -0.320312,-0.25781 -0.78125,-0.25781 -0.636719,0 -1.035156,0.45703 -0.394531,0.45703 -0.394531,1.48047 0,1.08594 0.390625,1.54687 0.390625,0.46094 1.015625,0.46094 0.460937,0 0.792968,-0.29297 0.332032,-0.29297 0.476563,-0.92187 z"
           id="path3410"
           style="fill:#d2ac95;fill-opacity:1" />
      </g>
      <g
         aria-label="D"
         id="text9323-6-3-6-1-2"
         style="font-weight:bold;font-size:8px;line-height:1.25;font-family:Arial;-inkscape-font-specification:'Arial, Bold';font-variant-ligatures:none;text-align:center;text-anchor:middle;display:inline;fill:#d2ac95;fill-opacity:1">
        <path
           d="m 35.099609,156.92383 h 2.113282 q 0.714843,0 1.089843,0.10937 0.503907,0.14844 0.863282,0.52735 0.359375,0.3789 0.546875,0.92968 0.1875,0.54688 0.1875,1.35157 0,0.70703 -0.175782,1.21875 -0.214843,0.625 -0.613281,1.01172 -0.300781,0.29296 -0.8125,0.45703 -0.382812,0.12109 -1.023437,0.12109 h -2.175782 z m 1.15625,0.96875 v 3.79297 h 0.863282 q 0.484375,0 0.699218,-0.0547 0.28125,-0.0703 0.464844,-0.23828 0.1875,-0.16797 0.304688,-0.55078 0.117187,-0.38672 0.117187,-1.05078 0,-0.66407 -0.117187,-1.01954 -0.117188,-0.35546 -0.328125,-0.55468 -0.210938,-0.19922 -0.535157,-0.26953 -0.242187,-0.0547 -0.949218,-0.0547 z"
           id="path3413"
           style="fill:#d2ac95;fill-opacity:1" />
      </g>
      <g
         aria-label="E"
         id="text9323-6-3-6-1-1"
         style="font-weight:bold;font-size:8px;line-height:1.25;font-family:Arial;-inkscape-font-specification:'Arial, Bold';font-variant-ligatures:none;text-align:center;text-anchor:middle;display:inline;fill:#d2ac95;fill-opacity:1">
        <path
           d="m 35.322266,194.20053 v -5.72656 h 4.246093 v 0.96875 h -3.089843 v 1.26953 h 2.875 v 0.96484 h -2.875 v 1.5586 h 3.199218 v 0.96484 z"
           id="path3416"
           style="fill:#d2ac95;fill-opacity:1" />
      </g>
      <g
         aria-label="F"
         id="text9323-6-3-6-1-7"
         style="font-weight:bold;font-size:8px;line-height:1.25;font-family:Arial;-inkscape-font-specification:'Arial, Bold';font-variant-ligatures:none;text-align:center;text-anchor:middle;display:inline;fill:#d2ac95;fill-opacity:1">
        <path
           d="m 35.537109,225.75066 v -5.72657 h 3.925782 v 0.96875 h -2.769532 v 1.35547 h 2.390625 v 0.96875 h -2.390625 v 2.4336 z"
           id="path3419"
           style="fill:#d2ac95;fill-opacity:1" />
      </g>
      <g
         aria-label="G"
         id="text9323-6-3-6-1-9"
         style="font-weight:bold;font-size:8px;line-height:1.25;font-family:Arial;-inkscape-font-specification:'Arial, Bold';font-variant-ligatures:none;text-align:center;text-anchor:middle;display:inline;fill:#d2ac95;fill-opacity:1">
        <path
           d="m 37.685547,255.19531 v -0.96484 h 2.492187 v 2.28125 q -0.363281,0.35156 -1.054687,0.62109 -0.6875,0.26563 -1.394531,0.26563 -0.898438,0 -1.566407,-0.375 -0.667968,-0.37891 -1.003906,-1.07813 -0.335937,-0.70312 -0.335937,-1.52734 0,-0.89453 0.375,-1.58985 0.375,-0.69531 1.097656,-1.0664 0.550781,-0.28516 1.371094,-0.28516 1.066406,0 1.664062,0.44922 0.601563,0.44531 0.773438,1.23438 l -1.148438,0.21484 q -0.121094,-0.42188 -0.457031,-0.66406 -0.332031,-0.2461 -0.832031,-0.2461 -0.757813,0 -1.207032,0.48047 -0.445312,0.48047 -0.445312,1.42578 0,1.01953 0.453125,1.53125 0.453125,0.50782 1.1875,0.50782 0.363281,0 0.726562,-0.14063 0.367188,-0.14453 0.628907,-0.34766 v -0.72656 z"
           id="path3422"
           style="fill:#d2ac95;fill-opacity:1" />
      </g>
      <g
         aria-label="H"
         id="text9323-6-3-6-1-74"
         style="font-weight:bold;font-size:8px;line-height:1.25;font-family:Arial;-inkscape-font-specification:'Arial, Bold';font-variant-ligatures:none;text-align:center;text-anchor:middle;display:inline;fill:#d2ac95;fill-opacity:1">
        <path
           d="m 35.210937,288.85092 v -5.72656 h 1.15625 v 2.25391 h 2.265625 v -2.25391 h 1.15625 v 5.72656 h -1.15625 v -2.5039 h -2.265625 v 2.5039 z"
           id="path3425"
           style="fill:#d2ac95;fill-opacity:1" />
      </g>
      <g
         aria-label="I"
         id="text9323-6-3-6-1-5"
         style="font-weight:bold;font-size:8px;line-height:1.25;font-family:Arial;-inkscape-font-specification:'Arial, Bold';font-variant-ligatures:none;text-align:center;text-anchor:middle;display:inline;fill:#d2ac95;fill-opacity:1">
        <path
           d="m 36.921875,320.40106 v -5.72656 h 1.15625 v 5.72656 z"
           id="path3428"
           style="fill:#d2ac95;fill-opacity:1" />
      </g>
      <g
         aria-label="J"
         id="text9323-6-3-6-1-22"
         style="font-weight:bold;font-size:8px;line-height:1.25;font-family:Arial;-inkscape-font-specification:'Arial, Bold';font-variant-ligatures:none;text-align:center;text-anchor:middle;display:inline;fill:#d2ac95;fill-opacity:1">
        <path
           d="m 38.179687,346.17578 h 1.152344 v 3.625 q 0,0.71094 -0.125,1.09375 -0.167969,0.5 -0.609375,0.80469 Q 38.15625,352 37.433594,352 q -0.847657,0 -1.304688,-0.47266 -0.457031,-0.47656 -0.460937,-1.39453 l 1.089843,-0.125 q 0.01953,0.49219 0.144532,0.69531 0.1875,0.3086 0.570312,0.3086 0.386719,0 0.546875,-0.21875 0.160156,-0.22266 0.160156,-0.91797 z"
           id="path3431"
           style="fill:#d2ac95;fill-opacity:1" />
      </g>
      <g
         id="g1648"
         transform="translate(153.25829,0.88103651)"
         style="display:inline;fill:#d2ac95;fill-opacity:1">
        <g
           aria-label="LINEAR"
           id="text9323-12-5"
           style="font-weight:bold;font-size:12px;line-height:1.25;font-family:Arial;-inkscape-font-specification:'Arial, Bold';font-variant-ligatures:none;text-align:center;text-anchor:middle;fill:#d2ac95;fill-opacity:1">
          <path
             d="M -137.59911,13.581659 V 5.0621281 h 1.73438 v 7.0722659 h 4.3125 v 1.447265 z"
             id="path3434"
             style="fill:#d2ac95;fill-opacity:1" />
          <path
             d="M -130.36864,13.581659 V 4.9918156 h 1.73438 v 8.5898434 z"
             id="path3436"
             style="fill:#d2ac95;fill-opacity:1" />
          <path
             d="M -126.96434,13.581659 V 4.9918156 h 1.6875 l 3.51562,5.7363284 V 4.9918156 h 1.61133 v 8.5898434 h -1.74023 l -3.46289,-5.6015622 v 5.6015622 z"
             id="path3438"
             style="fill:#d2ac95;fill-opacity:1" />
          <path
             d="M -118.3159,13.581659 V 4.9918156 h 6.36914 v 1.453125 h -4.63477 v 1.9042968 h 4.3125 v 1.4472657 h -4.3125 v 2.3378909 h 4.79883 v 1.447265 z"
             id="path3440"
             style="fill:#d2ac95;fill-opacity:1" />
          <path
             d="m -102.5659,13.581659 h -1.88672 l -0.75,-1.951172 h -3.4336 l -0.70898,1.951172 h -1.83984 l 3.3457,-8.5898434 h 1.83398 z m -3.19336,-3.398437 -1.1836,-3.1875002 -1.16015,3.1875002 z"
             id="path3442"
             style="fill:#d2ac95;fill-opacity:1" />
          <path
             d="M -101.64012,13.581659 V 4.9918156 h 3.650389 q 1.376953,0 1.998047,0.234375 0.626953,0.2285156 1.001953,0.8203125 0.375,0.5917968 0.375,1.3535156 0,0.9667969 -0.568359,1.5996094 -0.56836,0.6269531 -1.699219,0.7910156 0.5625,0.3281253 0.925781,0.7207033 0.369141,0.392578 0.990235,1.394531 l 1.048828,1.675781 h -2.074219 l -1.253906,-1.86914 q -0.667969,-1.001953 -0.914063,-1.259766 -0.246093,-0.263672 -0.521484,-0.357422 -0.275391,-0.099609 -0.873047,-0.099609 h -0.351562 v 3.585937 z m 1.734374,-4.9570309 h 1.283203 q 1.248047,0 1.558593,-0.1054688 0.310547,-0.1054687 0.486329,-0.3632812 0.175781,-0.2578125 0.175781,-0.6445313 0,-0.4335937 -0.234375,-0.6972656 -0.228516,-0.2695313 -0.650391,-0.3398438 -0.210937,-0.029297 -1.265625,-0.029297 h -1.353515 z"
             id="path3444"
             style="fill:#d2ac95;fill-opacity:1" />
        </g>
        <g
           aria-label="BEATS"
           id="text9323-12-5-2"
           style="font-weight:bold;font-size:12px;line-height:1.25;font-family:Arial;-inkscape-font-specification:'Arial, Bold';font-variant-ligatures:none;text-align:center;text-anchor:middle;display:inline;fill:#d2ac95;fill-opacity:1">
          <path
             d="m -134.91551,17.382862 h 3.43359 q 1.01953,0 1.51758,0.08789 0.50391,0.08203 0.89648,0.351562 0.39844,0.269531 0.66211,0.720703 0.26368,0.445313 0.26368,1.001953 0,0.603516 -0.32813,1.107422 -0.32227,0.503907 -0.87891,0.75586 0.78516,0.228515 1.20704,0.779297 0.42187,0.550781 0.42187,1.294921 0,0.585938 -0.27539,1.142579 -0.26953,0.550781 -0.74414,0.884765 -0.46875,0.328125 -1.16016,0.404297 -0.43359,0.04687 -2.09179,0.05859 h -2.92383 z m 1.73437,1.429688 v 1.986328 h 1.13672 q 1.01367,0 1.25977,-0.0293 0.44531,-0.05273 0.69726,-0.304688 0.25782,-0.257812 0.25782,-0.673828 0,-0.398437 -0.22266,-0.644531 -0.2168,-0.251953 -0.65039,-0.304688 -0.25781,-0.0293 -1.48242,-0.0293 z m 0,3.416015 v 2.296875 h 1.60547 q 0.9375,0 1.18945,-0.05273 0.38672,-0.07031 0.62696,-0.339844 0.24609,-0.275391 0.24609,-0.732422 0,-0.386719 -0.1875,-0.65625 -0.1875,-0.269531 -0.54492,-0.392578 -0.35156,-0.123047 -1.53516,-0.123047 z"
             id="path3447"
             style="fill:#d2ac95;fill-opacity:1" />
          <path
             d="m -126.25536,25.972706 v -8.589844 h 6.36914 v 1.453125 h -4.63476 v 1.904297 h 4.3125 v 1.447266 h -4.3125 v 2.33789 h 4.79883 v 1.447266 z"
             id="path3449"
             style="fill:#d2ac95;fill-opacity:1" />
          <path
             d="m -110.50536,25.972706 h -1.88671 l -0.75,-1.951172 h -3.4336 l -0.70898,1.951172 h -1.83985 l 3.34571,-8.589844 h 1.83398 z m -3.19336,-3.398438 -1.18359,-3.1875 -1.16016,3.1875 z"
             id="path3451"
             style="fill:#d2ac95;fill-opacity:1" />
          <path
             d="m -108.54247,25.972706 v -7.136719 h -2.54882 v -1.453125 h 6.82617 v 1.453125 h -2.54297 v 7.136719 z"
             id="path3453"
             style="fill:#d2ac95;fill-opacity:1" />
          <path
             d="m -103.58543,23.177784 1.6875,-0.164063 q 0.15234,0.84961 0.61523,1.248047 0.46875,0.398438 1.25977,0.398438 0.837887,0 1.259762,-0.351563 0.427734,-0.357422 0.427734,-0.832031 0,-0.304687 -0.181641,-0.515625 -0.175781,-0.216797 -0.621093,-0.375 -0.304688,-0.105469 -1.388672,-0.375 -1.39453,-0.345703 -1.95703,-0.849609 -0.79102,-0.708985 -0.79102,-1.728516 0,-0.65625 0.36914,-1.224609 0.375,-0.574219 1.07227,-0.873047 0.70312,-0.298828 1.69336,-0.298828 1.617186,0 2.431639,0.708984 0.820313,0.708984 0.861328,1.892578 l -1.734375,0.07617 q -0.111328,-0.662109 -0.480468,-0.949219 -0.363282,-0.292968 -1.095704,-0.292968 -0.75586,0 -1.18359,0.310546 -0.27539,0.199219 -0.27539,0.533204 0,0.304687 0.25781,0.521484 0.32812,0.275391 1.593749,0.574219 1.265625,0.298828 1.86914,0.621093 0.609375,0.316407 0.949219,0.873047 0.345703,0.550782 0.345703,1.365235 0,0.738281 -0.410156,1.382812 -0.410156,0.644531 -1.160156,0.960938 -0.75,0.310547 -1.869139,0.310547 -1.62891,0 -2.50196,-0.75 -0.87304,-0.75586 -1.04296,-2.197266 z"
             id="path3455"
             style="fill:#d2ac95;fill-opacity:1" />
        </g>
      </g>
      <g
         id="g30840"
         transform="translate(-5.4279185,-0.81168)"
         style="display:inline;fill:#d2ac95;fill-opacity:1">
        <g
           aria-label="M"
           id="text27253"
           style="font-size:5.33333px;line-height:1.25;font-family:Arial;-inkscape-font-specification:'Arial, Normal';font-variant-ligatures:none;text-align:center;text-anchor:middle;fill:#d2ac95;fill-opacity:1">
          <path
             d="M 41.106304,36.999996 V 33.18229 h 0.760416 l 0.903645,2.703124 q 0.125,0.377603 0.182292,0.565103 0.0651,-0.208333 0.203125,-0.611978 l 0.914062,-2.656249 h 0.679687 v 3.817706 h -0.486979 v -3.19531 l -1.109374,3.19531 h -0.455729 l -1.104166,-3.249998 v 3.249998 z"
             id="path30922"
             style="fill:#d2ac95;fill-opacity:1" />
        </g>
        <g
           aria-label="O"
           id="text27253-4"
           style="font-size:5.33333px;line-height:1.25;font-family:Arial;-inkscape-font-specification:'Arial, Normal';font-variant-ligatures:none;text-align:center;text-anchor:middle;display:inline;fill:#d2ac95;fill-opacity:1">
          <path
             d="m 41.102399,39.80388 q 0,-0.95052 0.510416,-1.486978 0.510417,-0.539063 1.317708,-0.539063 0.528645,0 0.953124,0.252604 0.424479,0.252604 0.645833,0.705729 0.223958,0.450521 0.223958,1.023437 0,0.580729 -0.234374,1.039062 -0.234375,0.458333 -0.664062,0.695312 -0.429688,0.234375 -0.927083,0.234375 -0.539062,0 -0.963541,-0.260417 -0.424479,-0.260416 -0.643229,-0.710937 -0.21875,-0.45052 -0.21875,-0.953124 z m 0.520833,0.0078 q 0,0.690104 0.369791,1.088541 0.372396,0.395834 0.932292,0.395834 0.570312,0 0.937499,-0.401042 0.369791,-0.401041 0.369791,-1.13802 0,-0.466146 -0.158854,-0.8125 -0.15625,-0.348958 -0.460937,-0.539062 -0.302083,-0.192708 -0.679687,-0.192708 -0.536458,0 -0.924479,0.369791 -0.385416,0.367188 -0.385416,1.229166 z"
             id="path30925"
             style="fill:#d2ac95;fill-opacity:1" />
        </g>
        <g
           aria-label="D"
           id="text27253-1"
           style="font-size:5.33333px;line-height:1.25;font-family:Arial;-inkscape-font-specification:'Arial, Normal';font-variant-ligatures:none;text-align:center;text-anchor:middle;display:inline;fill:#d2ac95;fill-opacity:1">
          <path
             d="m 41.349795,46.32391 v -3.817706 h 1.315103 q 0.445312,0 0.679687,0.05469 0.328125,0.07552 0.559896,0.273438 0.302083,0.255208 0.45052,0.653645 0.151042,0.395833 0.151042,0.906249 0,0.434896 -0.101563,0.770833 -0.101562,0.335938 -0.260416,0.557292 -0.158854,0.218749 -0.348958,0.346354 -0.1875,0.125 -0.455729,0.190104 -0.265625,0.0651 -0.611979,0.0651 z m 0.505208,-0.450521 h 0.815103 q 0.377604,0 0.591146,-0.07031 0.216146,-0.07031 0.34375,-0.197917 0.179687,-0.179687 0.278645,-0.48177 0.101563,-0.304688 0.101563,-0.736979 0,-0.598958 -0.197917,-0.91927 -0.195312,-0.322917 -0.476562,-0.432292 -0.203125,-0.07813 -0.653645,-0.07813 h -0.802083 z"
             id="path30928"
             style="fill:#d2ac95;fill-opacity:1" />
        </g>
        <g
           aria-label="E"
           id="text27253-5"
           style="font-size:5.33333px;line-height:1.25;font-family:Arial;-inkscape-font-specification:'Arial, Normal';font-variant-ligatures:none;text-align:center;text-anchor:middle;display:inline;fill:#d2ac95;fill-opacity:1">
          <path
             d="m 41.50344,50.91946 v -3.817706 h 2.760415 v 0.450521 h -2.255207 v 1.16927 h 2.111978 v 0.447916 h -2.111978 v 1.299479 h 2.343749 v 0.45052 z"
             id="path30931"
             style="fill:#d2ac95;fill-opacity:1" />
        </g>
      </g>
    </g>
    <g
       aria-label="OUT"
       id="text9323-1-7"
       style="font-weight:bold;font-size:8px;line-height:1.25;font-family:Arial;-inkscape-font-specification:'Arial, Bold';font-variant-ligatures:none;text-align:center;text-anchor:middle;fill:#423932;fill-opacity:1">
      <path
         d="m 50.311871,39.304726 q 0,-0.875 0.261718,-1.46875 0.195313,-0.4375 0.53125,-0.785157 0.339844,-0.347656 0.742188,-0.515625 0.535156,-0.226562 1.234375,-0.226562 1.265625,0 2.023437,0.785156 0.761719,0.785156 0.761719,2.183594 0,1.386719 -0.753906,2.171875 -0.753906,0.78125 -2.015625,0.78125 -1.277344,0 -2.03125,-0.777344 -0.753906,-0.78125 -0.753906,-2.148437 z m 1.191406,-0.03906 q 0,0.972656 0.449219,1.476563 0.449218,0.5 1.140625,0.5 0.691406,0 1.132812,-0.496094 0.445313,-0.5 0.445313,-1.496094 0,-0.984375 -0.433594,-1.46875 -0.429688,-0.484375 -1.144531,-0.484375 -0.714844,0 -1.152344,0.492188 -0.4375,0.488281 -0.4375,1.476562 z"
         id="path3458"
         style="fill:#423932;fill-opacity:1" />
      <path
         d="m 56.761089,36.406288 h 1.15625 v 3.101563 q 0,0.738281 0.04297,0.957031 0.07422,0.351562 0.351563,0.566406 0.28125,0.210938 0.765625,0.210938 0.492187,0 0.742187,-0.199219 0.25,-0.203125 0.300781,-0.496094 0.05078,-0.292969 0.05078,-0.972656 v -3.167969 h 1.15625 v 3.007813 q 0,1.03125 -0.09375,1.457031 -0.09375,0.425781 -0.347657,0.71875 -0.25,0.292969 -0.671875,0.46875 -0.421875,0.171875 -1.101562,0.171875 -0.820313,0 -1.246094,-0.1875 -0.421875,-0.191406 -0.667969,-0.492188 -0.246093,-0.304687 -0.324218,-0.636718 -0.113282,-0.492188 -0.113282,-1.453125 z"
         id="path3460"
         style="fill:#423932;fill-opacity:1" />
      <path
         d="m 63.835308,42.132851 v -4.757813 h -1.699219 v -0.96875 h 4.550782 v 0.96875 h -1.695313 v 4.757813 z"
         id="path3462"
         style="fill:#423932;fill-opacity:1" />
    </g>
  </g>
</svg>
