<?xml version="1.0" encoding="UTF-8" standalone="no"?>
<svg
   width="45"
   height="380"
   viewBox="0 0 45 380"
   version="1.1"
   id="svg100"
   sodipodi:docname="NORS_IQIntervals_Earth.svg"
   inkscape:version="1.1.1 (3bf5ae0d25, 2021-09-20)"
   xmlns:inkscape="http://www.inkscape.org/namespaces/inkscape"
   xmlns:sodipodi="http://sodipodi.sourceforge.net/DTD/sodipodi-0.dtd"
   xmlns="http://www.w3.org/2000/svg"
   xmlns:svg="http://www.w3.org/2000/svg"
   xmlns:rdf="http://www.w3.org/1999/02/22-rdf-syntax-ns#"
   xmlns:cc="http://creativecommons.org/ns#"
   xmlns:dc="http://purl.org/dc/elements/1.1/">
  <metadata
     id="metadata104">
    <rdf:RDF>
      <cc:Work
         rdf:about="">
        <dc:format>image/svg+xml</dc:format>
        <dc:type
           rdf:resource="http://purl.org/dc/dcmitype/StillImage" />
      </cc:Work>
    </rdf:RDF>
  </metadata>
  <sodipodi:namedview
     pagecolor="#ffffff"
     bordercolor="#666666"
     borderopacity="1"
     objecttolerance="1"
     gridtolerance="1"
     guidetolerance="1"
     inkscape:pageopacity="0"
     inkscape:pageshadow="2"
     inkscape:window-width="1920"
     inkscape:window-height="1057"
     id="namedview102"
     showgrid="false"
     inkscape:zoom="2"
     inkscape:cx="24.5"
     inkscape:cy="188.75"
     inkscape:window-x="1592"
     inkscape:window-y="-8"
     inkscape:window-maximized="1"
     inkscape:current-layer="layer6"
     inkscape:pagecheckerboard="0"
     units="px"
     inkscape:showpageshadow="false"
     showborder="true"
     showguides="true">
    <inkscape:grid
       type="xygrid"
       id="grid1285" />
  </sodipodi:namedview>
  <defs
     id="defs7">
    <rect
       x="85"
       y="10"
       width="51.058132"
       height="25"
       id="rect29906" />
    <linearGradient
       id="a8e142bb-541b-4903-be63-d5d069028a5d"
       x1="22.5"
       x2="22.5"
       y2="380"
       gradientUnits="userSpaceOnUse">
      <stop
         offset="0"
         stop-color="#ebebeb"
         id="stop2" />
      <stop
         offset="1"
         stop-color="#e1e1e1"
         id="stop4" />
    </linearGradient>
  </defs>
  <g
     inkscape:groupmode="layer"
     id="layer4"
     inkscape:label="Faceplate"
     style="display:inline">
    <g
       id="aea613ef-74be-49bf-be45-c0734aee674b"
       data-name="FND BG"
       style="fill:#423932;fill-opacity:1">
      <rect
         width="45"
         height="380"
         fill="url(#a8e142bb-541b-4903-be63-d5d069028a5d)"
         id="rect9"
         style="fill:#423932;fill-opacity:1"
         x="0"
         y="0" />
    </g>
  </g>
  <g
     inkscape:groupmode="layer"
     id="layer3"
     inkscape:label="Brand"
     style="display:inline">
    <g
       id="g42796"
       transform="matrix(0.30458296,0,0,0.30458296,-0.5624499,-12.68508)"
       style="fill:#ff0000">
      <g
         aria-label="enom"
         id="text4270-27"
         style="font-size:49.3889px;line-height:1.25;font-family:'NECK ROMANCER';-inkscape-font-specification:'NECK ROMANCER, Normal';font-variant-ligatures:none;text-align:center;text-anchor:middle;fill:#ff0000;stroke-width:2.64583">
        <path
           d="m 46.609141,1249.244 q 0,1.1576 0,3.4245 3.183269,0 9.453344,0 -1.639866,0.5787 -2.990343,1.2058 -1.350478,0.627 -2.363337,1.688 -1.350477,0 -4.051433,0 0,1.4952 0.434082,2.5563 0.385851,1.1093 1.832792,1.1093 2.266873,0 6.80062,0 0.482313,-0.1447 0.868164,-0.627 0.337619,-0.5305 0.627007,-1.7363 0,2.0257 0,6.1254 -3.520888,0 -10.562665,0 -1.543403,0 -2.652724,-2.2187 -1.109321,-2.1704 -1.109321,-6.3183 0,-1.9775 0,-5.836 -0.385851,-1.3504 -1.881023,-2.1221 -1.495171,-0.7235 -3.569119,-1.2058 6.607694,0 19.774852,0 0,2.9421 0,8.7781 -1.205783,-2.701 -2.218642,-3.6656 -1.012858,-0.9646 -2.700955,-1.1093 -0.916396,-0.097 -2.170411,-0.097 -1.205783,0.048 -2.845649,0.048 -0.241157,0 -0.675239,0 z"
           id="path42762"
           style="fill:#ff0000" />
        <path
           d="m 81.576869,1245.2891 q 0,5.8842 0,17.7009 0,3.0868 -0.144694,6.0771 -0.09646,3.0386 -0.337619,5.9325 -0.385851,-3.7138 -0.964627,-6.9936 -0.530545,-3.3279 -2.025717,-5.016 0,-2.9904 0,-8.9228 -0.241157,-1.3505 -0.72347,-2.2187 -0.482314,-0.8681 -1.06109,-1.3987 -1.109321,-1.0128 -2.411567,-1.1093 -1.350478,-0.097 -2.266874,-0.097 -0.482313,0 -1.44694,0 0,4.582 0,13.746 0,3.0868 -0.09646,6.0771 -0.144694,3.0386 -0.385851,5.9325 -0.38585,-3.7138 -0.916395,-6.9936 -0.578776,-3.3279 -2.025717,-5.016 0,-4.8232 0,-14.373 -0.385851,-1.3504 -1.881022,-2.1221 -1.495172,-0.7235 -3.56912,-1.2058 6.752389,0 20.257166,0 z"
           id="path42764"
           style="fill:#ff0000" />
        <path
           d="m 104.19737,1249.0511 q 0,3.3762 0,10.1768 0,1.5434 -1.92925,2.6528 -1.92926,1.1093 -6.077152,1.1093 -4.196128,0 -6.125382,-1.1093 -1.929254,-1.1094 -1.929254,-2.6528 0,-3.3762 0,-10.1768 0,-1.5434 1.929254,-2.6527 1.929254,-1.1093 6.125382,-1.1093 4.147892,0 6.077152,1.1093 1.92925,1.1093 1.92925,2.6527 z m -3.76204,7.91 q 0,-1.8811 0,-5.6431 0,-1.6881 -1.254019,-1.9775 -1.205783,-0.2894 -2.990343,-0.2894 -1.832792,0 -3.038575,0.2894 -1.254015,0.2894 -1.254015,1.9775 0,1.881 0,5.6431 0,1.6881 1.254015,1.9774 1.205783,0.2894 3.038575,0.2894 1.78456,0 2.990343,-0.2894 1.254019,-0.2893 1.254019,-1.9774 z"
           id="path42766"
           style="fill:#ff0000" />
        <path
           d="m 142.34837,1245.2891 q -2.02572,0.4823 -3.52089,1.2058 -1.5434,0.7717 -1.88102,2.1221 0,4.7749 0,14.373 -1.49517,1.6881 -2.02572,5.016 -0.57878,3.2798 -0.96463,6.9936 -0.24115,-2.8939 -0.33762,-5.9325 -0.14469,-2.9903 -0.14469,-6.0771 0,-4.582 0,-13.746 -0.48231,0 -1.39871,0 -0.53054,0 -1.15755,0 -0.62701,0 -1.30225,0.1447 -1.25401,0.2412 -2.41157,1.2058 -1.15755,0.9646 -1.63986,3.4727 0,2.9903 0,8.9228 -0.1447,0.627 -0.28939,1.1093 -0.0965,0.4823 -0.19292,0.8199 -0.53055,1.9775 -0.38586,1.3505 0.19293,-0.627 -0.28938,1.1576 -0.0965,0.3376 -0.24116,0.8681 -0.14469,0.5306 -0.33762,1.3023 -0.14469,-0.6753 -0.28939,-1.2058 -0.14469,-0.4823 -0.24115,-0.8199 -0.53055,-2.0258 -0.33762,-1.3023 0.19292,0.7717 -0.43409,-1.6881 -0.0482,-0.2894 -0.19292,-0.7235 -0.0965,-0.3858 -0.19293,-0.8681 0,-2.9904 0,-8.9228 -0.28939,-1.3505 -0.7717,-2.2187 -0.48231,-0.8681 -1.06109,-1.3987 -1.10932,-1.0128 -2.41157,-1.1093 -1.30224,-0.097 -2.26687,-0.097 -0.48231,0 -1.39871,0 0,4.582 0,13.746 0,3.0868 -0.14469,6.0771 -0.0965,3.0386 -0.33762,5.9325 -0.38585,-3.7138 -0.96463,-6.9936 -0.53054,-3.3279 -2.02572,-5.016 0,-4.8232 0,-14.373 -0.38585,-1.3504 -1.88102,-2.1221 -1.49517,-0.7235 -3.56912,-1.2058 3.95497,0 11.76845,0 1.15755,0.3858 3.47266,1.1575 0.7717,0.2894 1.59163,0.4341 0.81994,0.1447 1.6881,0.1447 0.86816,0 1.73633,-0.1447 0.81993,-0.1447 1.59163,-0.4341 1.15756,-0.3858 3.42443,-1.1575 3.95497,0 11.76845,0 z"
           id="path42768"
           style="fill:#ff0000" />
      </g>
      <g
         aria-label="V"
         transform="matrix(1.2363173,0,0,0.80885384,-497.88086,123.48586)"
         id="text4270-3-5-2"
         style="font-size:78.5061px;line-height:1.25;font-family:Nosferotica;-inkscape-font-specification:'Nosferotica, Normal';font-variant-ligatures:none;text-align:center;text-anchor:middle;fill:#ff0000;stroke-width:3.27108">
        <path
           d="m 431.64994,1360.6864 8.57428,-0.1022 c 0,0 -4.4079,1.0878 -5.59925,3.7285 -1.88083,4.1689 -3.64217,14.6628 -3.64217,14.6628 l -2.23339,11.5191 -1.83311,11.8311 -1.71824,21.3112 -1.69514,-21.3112 -1.92196,-11.5208 -2.5009,-11.8294 c 0,0 -1.52027,-10.287 -3.38278,-14.4832 -1.14458,-2.5787 -5.63367,-3.8059 -5.63367,-3.8059 h 8.4657 l 6.66875,29.1569 z"
           id="path30410"
           sodipodi:nodetypes="ccscccccccscccc"
           style="fill:#ff0000" />
      </g>
    </g>
  </g>
  <g
     inkscape:groupmode="layer"
     id="layer5"
     inkscape:label="Lines"
     style="display:inline" />
  <g
     inkscape:groupmode="layer"
     id="layer6"
     inkscape:label="Solids"
     style="display:inline">
    <g
       aria-label="NORSIQ"
       id="text7725"
       style="font-weight:bold;font-size:10px;line-height:1.25;font-family:Arial;-inkscape-font-specification:'Arial, Bold';font-variant-ligatures:none;text-align:center;text-anchor:middle;display:inline;fill:#d2ac95;fill-opacity:1">
      <path
         d="M 3.1925449,15.780273 V 8.6220703 h 1.40625 L 7.5284824,13.402344 V 8.6220703 H 8.8712559 V 15.780273 H 7.4210606 L 4.5353184,11.112305 v 4.667968 z"
         id="path17265"
         style="fill:#d2ac95;fill-opacity:1" />
      <path
         d="m 10.106607,12.245117 q 0,-1.09375 0.327149,-1.835937 0.24414,-0.5468753 0.664062,-0.9814456 Q 11.522623,8.9931641 12.025553,8.7832031 12.694498,8.5 13.568521,8.5 q 1.582032,0 2.529297,0.9814453 0.952149,0.9814457 0.952149,2.7294927 0,1.733398 -0.942383,2.714843 -0.942383,0.976563 -2.519531,0.976563 -1.59668,0 -2.539063,-0.97168 -0.942383,-0.976562 -0.942383,-2.685547 z m 1.489258,-0.04883 q 0,1.21582 0.561524,1.845703 0.561523,0.625 1.425781,0.625 0.864258,0 1.416016,-0.620117 0.55664,-0.625 0.55664,-1.870117 0,-1.230469 -0.541992,-1.835938 -0.537109,-0.6054684 -1.430664,-0.6054684 -0.893555,0 -1.44043,0.6152344 -0.546875,0.610352 -0.546875,1.845703 z"
         id="path17267"
         style="fill:#d2ac95;fill-opacity:1" />
      <path
         d="M 18.182779,15.780273 V 8.6220703 h 3.041992 q 1.147461,0 1.66504,0.1953125 0.52246,0.1904297 0.83496,0.6835938 0.3125,0.493164 0.3125,1.1279294 0,0.805664 -0.473632,1.333008 -0.473633,0.522461 -1.416016,0.65918 0.46875,0.273437 0.771484,0.600586 0.307618,0.327148 0.825196,1.162109 l 0.874023,1.396484 H 22.889811 L 21.844889,14.222656 Q 21.288248,13.387695 21.08317,13.172852 20.878092,12.953125 20.6486,12.875 20.419107,12.79199 19.921061,12.79199 h -0.292969 v 2.988281 z m 1.445313,-4.130859 h 1.069336 q 1.040039,0 1.298828,-0.08789 0.258789,-0.08789 0.405273,-0.302734 0.146485,-0.214844 0.146485,-0.537109 0,-0.361328 -0.195313,-0.581055 -0.19043,-0.2246094 -0.541992,-0.2832031 -0.175781,-0.024414 -1.054688,-0.024414 h -1.127929 z"
         id="path17269"
         style="fill:#d2ac95;fill-opacity:1" />
      <path
         d="m 25.033365,13.451172 1.40625,-0.136719 q 0.126953,0.708008 0.512696,1.040039 0.390625,0.332031 1.049804,0.332031 0.698242,0 1.049805,-0.292968 0.356445,-0.297852 0.356445,-0.69336 0,-0.253906 -0.151367,-0.429687 -0.146484,-0.180664 -0.517578,-0.3125 -0.253906,-0.08789 -1.157227,-0.3125 -1.162109,-0.288086 -1.630859,-0.708008 -0.65918,-0.59082 -0.65918,-1.44043 0,-0.5468747 0.307617,-1.0205075 0.3125,-0.4785156 0.893555,-0.7275391 Q 27.079264,8.5 27.904459,8.5 q 1.347656,0 2.026367,0.5908203 0.683594,0.5908203 0.717774,1.5771487 l -1.445313,0.06348 q -0.09277,-0.551757 -0.400391,-0.7910153 -0.302734,-0.2441406 -0.913085,-0.2441406 -0.629883,0 -0.986329,0.258789 -0.229492,0.1660159 -0.229492,0.4443359 0,0.253906 0.214844,0.43457 0.273437,0.229493 1.328125,0.478516 1.054687,0.249023 1.557617,0.517578 0.507813,0.263672 0.791016,0.727539 0.288086,0.458985 0.288086,1.137696 0,0.615234 -0.341797,1.152343 -0.341797,0.53711 -0.966797,0.800782 -0.625,0.258789 -1.557617,0.258789 -1.357422,0 -2.084961,-0.625 -0.727539,-0.629883 -0.869141,-1.831055 z"
         id="path17271"
         style="fill:#d2ac95;fill-opacity:1" />
      <path
         d="M 32.025553,15.780273 V 8.6220703 h 1.445312 v 7.1582027 z"
         id="path17273"
         style="fill:#d2ac95;fill-opacity:1" />
      <path
         d="m 40.609537,14.87207 q 0.532227,0.38086 1.157227,0.605469 l -0.532227,1.020508 q -0.327148,-0.09766 -0.639648,-0.268555 -0.06836,-0.03418 -0.961914,-0.634765 -0.703125,0.307617 -1.557618,0.307617 -1.65039,0 -2.58789,-0.97168 -0.932617,-0.97168 -0.932617,-2.729492 0,-1.75293 0.9375,-2.7246095 Q 36.42985,8.5 38.036295,8.5 q 1.591797,0 2.524414,0.9765625 0.932617,0.9716795 0.932617,2.7246095 0,0.927734 -0.258789,1.630859 -0.195312,0.53711 -0.625,1.040039 z m -1.162109,-0.815429 q 0.27832,-0.327149 0.415039,-0.791016 0.141601,-0.463867 0.141601,-1.064453 0,-1.240234 -0.546875,-1.850586 -0.546875,-0.6152344 -1.430664,-0.6152344 -0.883789,0 -1.435547,0.6152344 -0.546875,0.615234 -0.546875,1.850586 0,1.254883 0.546875,1.879883 0.551758,0.620117 1.391602,0.620117 0.3125,0 0.59082,-0.102539 -0.439453,-0.288086 -0.893554,-0.449219 l 0.405273,-0.825195 q 0.712891,0.24414 1.362305,0.732422 z"
         id="path17275"
         style="fill:#d2ac95;fill-opacity:1" />
    </g>
    <g
       aria-label="INTVLS"
       id="text7725-4"
       style="font-weight:bold;font-size:10px;line-height:1.25;font-family:Arial;-inkscape-font-specification:'Arial, Bold';font-variant-ligatures:none;text-align:center;text-anchor:middle;display:inline;fill:#d2ac95;fill-opacity:1">
      <path
         d="M 5.8745384,26.780273 V 19.62207 h 1.4453125 v 7.158203 z"
         id="path17278"
         style="fill:#d2ac95;fill-opacity:1" />
      <path
         d="M 8.7114525,26.780273 V 19.62207 h 1.4062495 l 2.929688,4.780274 V 19.62207 h 1.342773 v 7.158203 h -1.450195 l -2.885742,-4.667968 v 4.667968 z"
         id="path17280"
         style="fill:#d2ac95;fill-opacity:1" />
      <path
         d="M 17.529812,26.780273 V 20.833008 H 15.405788 V 19.62207 h 5.688477 v 1.210938 h -2.119141 v 5.947265 z"
         id="path17282"
         style="fill:#d2ac95;fill-opacity:1" />
      <path
         d="M 23.853054,26.780273 21.29446,19.62207 h 1.567383 l 1.811524,5.297852 1.752929,-5.297852 h 1.533203 l -2.563476,7.158203 z"
         id="path17284"
         style="fill:#d2ac95;fill-opacity:1" />
      <path
         d="m 28.735867,26.780273 v -7.099609 h 1.445312 v 5.893555 h 3.59375 v 1.206054 z"
         id="path17286"
         style="fill:#d2ac95;fill-opacity:1" />
      <path
         d="m 34.438992,24.451172 1.40625,-0.136719 q 0.126953,0.708008 0.512695,1.040039 0.390625,0.332031 1.049805,0.332031 0.698242,0 1.049804,-0.292968 0.356446,-0.297852 0.356446,-0.69336 0,-0.253906 -0.151368,-0.429687 -0.146484,-0.180664 -0.517578,-0.3125 -0.253906,-0.08789 -1.157226,-0.3125 -1.16211,-0.288086 -1.63086,-0.708008 -0.659179,-0.59082 -0.659179,-1.44043 0,-0.546875 0.307617,-1.020508 0.3125,-0.478515 0.893554,-0.727539 Q 36.48489,19.5 37.310085,19.5 q 1.347657,0 2.026367,0.59082 0.683594,0.590821 0.717774,1.577149 l -1.445313,0.06348 q -0.09277,-0.551758 -0.40039,-0.791015 -0.302735,-0.244141 -0.913086,-0.244141 -0.629883,0 -0.986328,0.258789 -0.229492,0.166016 -0.229492,0.444336 0,0.253906 0.214843,0.43457 0.273438,0.229493 1.328125,0.478516 1.054688,0.249023 1.557617,0.517578 0.507813,0.263672 0.791016,0.727539 0.288086,0.458985 0.288086,1.137695 0,0.615235 -0.341797,1.152344 -0.341797,0.53711 -0.966797,0.800781 -0.625,0.25879 -1.557617,0.25879 -1.357422,0 -2.084961,-0.625 -0.727539,-0.629883 -0.86914,-1.831055 z"
         id="path17288"
         style="fill:#d2ac95;fill-opacity:1" />
    </g>
    <g
       aria-label="OCTAVE"
       id="text12425"
       style="font-weight:bold;font-size:8px;line-height:1.25;font-family:Arial;-inkscape-font-specification:'Arial, Bold';font-variant-ligatures:none;text-align:center;text-anchor:middle;display:inline;fill:#d2ac95;fill-opacity:1">
      <path
         d="m 6.7988281,51.496094 q 0,-0.875 0.2617188,-1.46875 0.1953125,-0.4375 0.53125,-0.785157 Q 7.9316406,48.894531 8.3339844,48.726562 8.8691406,48.5 9.5683594,48.5 q 1.2656246,0 2.0234376,0.785156 0.761719,0.785156 0.761719,2.183594 0,1.386719 -0.753907,2.171875 -0.753906,0.78125 -2.0156246,0.78125 -1.2773438,0 -2.03125,-0.777344 -0.7539063,-0.78125 -0.7539063,-2.148437 z m 1.1914063,-0.03906 q 0,0.972656 0.4492187,1.476563 0.4492188,0.5 1.140625,0.5 0.6914059,0 1.1328129,-0.496094 0.445312,-0.5 0.445312,-1.496094 0,-0.984375 -0.433594,-1.46875 -0.429687,-0.484375 -1.1445309,-0.484375 -0.7148437,0 -1.1523437,0.492188 -0.4375,0.488281 -0.4375,1.476562 z"
         id="path17291"
         style="fill:#d2ac95;fill-opacity:1" />
      <path
         d="m 16.919922,52.21875 1.121094,0.355469 q -0.257813,0.9375 -0.859375,1.394531 -0.597657,0.453125 -1.519532,0.453125 -1.140625,0 -1.875,-0.777344 -0.734375,-0.78125 -0.734375,-2.132812 0,-1.429688 0.738282,-2.21875 Q 14.529297,48.5 15.732422,48.5 q 1.050781,0 1.707031,0.621094 0.390625,0.367187 0.585938,1.054687 l -1.144532,0.273438 q -0.101562,-0.445313 -0.425781,-0.703125 -0.320312,-0.257813 -0.78125,-0.257813 -0.636719,0 -1.035156,0.457031 -0.394531,0.457032 -0.394531,1.480469 0,1.085938 0.390625,1.546875 0.390625,0.460938 1.015625,0.460938 0.460937,0 0.792968,-0.292969 0.332032,-0.292969 0.476563,-0.921875 z"
         id="path17293"
         style="fill:#d2ac95;fill-opacity:1" />
      <path
         d="m 20.322266,54.324219 v -4.757813 h -1.699219 v -0.96875 h 4.550781 v 0.96875 h -1.695312 v 4.757813 z"
         id="path17295"
         style="fill:#d2ac95;fill-opacity:1" />
      <path
         d="m 28.490234,54.324219 h -1.257812 l -0.5,-1.300782 h -2.289063 l -0.472656,1.300782 h -1.226562 l 2.230468,-5.726563 h 1.222657 z m -2.128906,-2.265625 -0.789062,-2.125 -0.773438,2.125 z"
         id="path17297"
         style="fill:#d2ac95;fill-opacity:1" />
      <path
         d="m 29.970703,54.324219 -2.046875,-5.726563 h 1.253906 l 1.449219,4.238281 1.402344,-4.238281 h 1.226562 l -2.050781,5.726563 z"
         id="path17299"
         style="fill:#d2ac95;fill-opacity:1" />
      <path
         d="m 33.845703,54.324219 v -5.726563 h 4.246094 v 0.96875 h -3.089844 v 1.269531 h 2.875 v 0.964844 h -2.875 v 1.558594 h 3.199219 v 0.964844 z"
         id="path17301"
         style="fill:#d2ac95;fill-opacity:1" />
    </g>
    <g
       aria-label="TRIG"
       id="text12425-7"
       style="font-weight:bold;font-size:8px;line-height:1.25;font-family:Arial;-inkscape-font-specification:'Arial, Bold';font-variant-ligatures:none;text-align:center;text-anchor:middle;display:inline;fill:#d2ac95;fill-opacity:1">
      <path
         d="m 14.972656,105.82422 v -4.75781 h -1.699218 v -0.96875 h 4.550781 v 0.96875 h -1.695313 v 4.75781 z"
         id="path17304"
         style="fill:#d2ac95;fill-opacity:1" />
      <path
         d="m 18.574219,105.82422 v -5.72656 h 2.433593 q 0.917969,0 1.332032,0.15625 0.417968,0.15234 0.667968,0.54687 0.25,0.39453 0.25,0.90235 0,0.64453 -0.378906,1.0664 -0.378906,0.41797 -1.132812,0.52735 0.375,0.21875 0.617187,0.48046 0.246094,0.26172 0.660156,0.92969 l 0.699219,1.11719 h -1.382812 l -0.835938,-1.24609 q -0.445312,-0.66797 -0.609375,-0.83985 -0.164062,-0.17578 -0.347656,-0.23828 -0.183594,-0.0664 -0.582031,-0.0664 h -0.234375 v 2.39063 z m 1.15625,-3.30469 h 0.855468 q 0.832032,0 1.039063,-0.0703 0.207031,-0.0703 0.324219,-0.24219 0.117187,-0.17187 0.117187,-0.42969 0,-0.28906 -0.15625,-0.46484 -0.152344,-0.17969 -0.433594,-0.22656 -0.140625,-0.0195 -0.84375,-0.0195 h -0.902343 z"
         id="path17306"
         style="fill:#d2ac95;fill-opacity:1" />
      <path
         d="m 24.3125,105.82422 v -5.72656 h 1.15625 v 5.72656 z"
         id="path17308"
         style="fill:#d2ac95;fill-opacity:1" />
      <path
         d="m 29.234375,103.71875 v -0.96484 h 2.492187 v 2.28125 q -0.363281,0.35156 -1.054687,0.62109 -0.6875,0.26563 -1.394531,0.26563 -0.898438,0 -1.566407,-0.375 -0.667968,-0.37891 -1.003906,-1.07813 -0.335937,-0.70312 -0.335937,-1.52734 0,-0.89453 0.375,-1.58985 0.375,-0.69531 1.097656,-1.0664 Q 28.394531,100 29.214844,100 q 1.066406,0 1.664062,0.44922 0.601563,0.44531 0.773438,1.23437 l -1.148438,0.21485 q -0.121094,-0.42188 -0.457031,-0.66406 -0.332031,-0.2461 -0.832031,-0.2461 -0.757813,0 -1.207032,0.48047 -0.445312,0.48047 -0.445312,1.42578 0,1.01953 0.453125,1.53125 0.453125,0.50781 1.1875,0.50781 0.363281,0 0.726562,-0.14062 0.367188,-0.14453 0.628907,-0.34766 v -0.72656 z"
         id="path17310"
         style="fill:#d2ac95;fill-opacity:1" />
    </g>
    <g
       aria-label="CHORD"
       id="text12425-4"
       style="font-weight:bold;font-size:8px;line-height:1.25;font-family:Arial;-inkscape-font-specification:'Arial, Bold';font-variant-ligatures:none;text-align:center;text-anchor:middle;display:inline;fill:#d2ac95;fill-opacity:1">
      <path
         d="m 12.089844,143.71875 1.121094,0.35547 q -0.257813,0.9375 -0.859375,1.39453 -0.597657,0.45312 -1.519532,0.45312 -1.1406247,0 -1.8749997,-0.77734 -0.734375,-0.78125 -0.734375,-2.13281 0,-1.42969 0.7382812,-2.21875 Q 9.6992188,140 10.902344,140 q 1.050781,0 1.707031,0.62109 0.390625,0.36719 0.585938,1.05469 l -1.144532,0.27344 q -0.101562,-0.44531 -0.425781,-0.70313 -0.320312,-0.25781 -0.78125,-0.25781 -0.636719,0 -1.0351562,0.45703 -0.3945313,0.45703 -0.3945313,1.48047 0,1.08594 0.390625,1.54688 0.3906255,0.46093 1.0156255,0.46093 0.460937,0 0.792968,-0.29297 0.332032,-0.29296 0.476563,-0.92187 z"
         id="path17313"
         style="fill:#d2ac95;fill-opacity:1" />
      <path
         d="m 14.207031,145.82422 v -5.72656 h 1.15625 v 2.2539 h 2.265625 v -2.2539 h 1.15625 v 5.72656 h -1.15625 v -2.50391 h -2.265625 v 2.50391 z"
         id="path17315"
         style="fill:#d2ac95;fill-opacity:1" />
      <path
         d="m 19.746094,142.99609 q 0,-0.875 0.261718,-1.46875 0.195313,-0.4375 0.53125,-0.78515 0.339844,-0.34766 0.742188,-0.51563 Q 21.816406,140 22.515625,140 q 1.265625,0 2.023437,0.78516 0.761719,0.78515 0.761719,2.18359 0,1.38672 -0.753906,2.17187 -0.753906,0.78125 -2.015625,0.78125 -1.277344,0 -2.03125,-0.77734 -0.753906,-0.78125 -0.753906,-2.14844 z m 1.191406,-0.0391 q 0,0.97266 0.449219,1.47656 0.449218,0.5 1.140625,0.5 0.691406,0 1.132812,-0.49609 0.445313,-0.5 0.445313,-1.49609 0,-0.98438 -0.433594,-1.46875 -0.429688,-0.48438 -1.144531,-0.48438 -0.714844,0 -1.152344,0.49219 -0.4375,0.48828 -0.4375,1.47656 z"
         id="path17317"
         style="fill:#d2ac95;fill-opacity:1" />
      <path
         d="m 26.207031,145.82422 v -5.72656 h 2.433594 q 0.917969,0 1.332031,0.15625 0.417969,0.15234 0.667969,0.54687 0.25,0.39453 0.25,0.90234 0,0.64454 -0.378906,1.06641 -0.378907,0.41797 -1.132813,0.52734 0.375,0.21875 0.617188,0.48047 0.246093,0.26172 0.660156,0.92969 l 0.699219,1.11719 h -1.382813 l -0.835937,-1.2461 q -0.445313,-0.66796 -0.609375,-0.83984 -0.164063,-0.17578 -0.347657,-0.23828 -0.183593,-0.0664 -0.582031,-0.0664 h -0.234375 v 2.39063 z m 1.15625,-3.30469 h 0.855469 q 0.832031,0 1.039062,-0.0703 0.207032,-0.0703 0.324219,-0.24219 0.117188,-0.17187 0.117188,-0.42969 0,-0.28906 -0.15625,-0.46484 -0.152344,-0.17969 -0.433594,-0.22656 -0.140625,-0.0195 -0.84375,-0.0195 h -0.902344 z"
         id="path17319"
         style="fill:#d2ac95;fill-opacity:1" />
      <path
         d="m 31.976562,140.09766 h 2.113282 q 0.714843,0 1.089843,0.10937 0.503907,0.14844 0.863282,0.52734 0.359375,0.37891 0.546875,0.92969 0.1875,0.54688 0.1875,1.35156 0,0.70704 -0.175782,1.21875 -0.214843,0.625 -0.613281,1.01172 -0.300781,0.29297 -0.8125,0.45703 -0.382812,0.1211 -1.023437,0.1211 h -2.175782 z m 1.15625,0.96875 v 3.79296 h 0.863282 q 0.484375,0 0.699218,-0.0547 0.28125,-0.0703 0.464844,-0.23828 0.1875,-0.16797 0.304688,-0.55079 0.117187,-0.38671 0.117187,-1.05078 0,-0.66406 -0.117187,-1.01953 -0.117188,-0.35547 -0.328125,-0.55469 -0.210938,-0.19921 -0.535157,-0.26953 -0.242187,-0.0547 -0.949218,-0.0547 z"
         id="path17321"
         style="fill:#d2ac95;fill-opacity:1" />
    </g>
    <g
       aria-label="FOLD"
       id="text12425-1"
       style="font-weight:bold;font-size:8px;line-height:1.25;font-family:Arial;-inkscape-font-specification:'Arial, Bold';font-variant-ligatures:none;text-align:center;text-anchor:middle;display:inline;fill:#d2ac95;fill-opacity:1">
      <path
         d="m 12.228516,63.324219 v -5.726563 h 3.925781 v 0.96875 h -2.769531 v 1.355469 h 2.390625 v 0.96875 h -2.390625 v 2.433594 z"
         id="path17324"
         style="fill:#d2ac95;fill-opacity:1" />
      <path
         d="m 16.873047,60.496094 q 0,-0.875 0.261719,-1.46875 0.195312,-0.4375 0.53125,-0.785157 0.339843,-0.347656 0.742187,-0.515625 Q 18.943359,57.5 19.642578,57.5 q 1.265625,0 2.023438,0.785156 0.761718,0.785156 0.761718,2.183594 0,1.386719 -0.753906,2.171875 -0.753906,0.78125 -2.015625,0.78125 -1.277344,0 -2.03125,-0.777344 -0.753906,-0.78125 -0.753906,-2.148437 z m 1.191406,-0.03906 q 0,0.972656 0.449219,1.476563 0.449219,0.5 1.140625,0.5 0.691406,0 1.132812,-0.496094 0.445313,-0.5 0.445313,-1.496094 0,-0.984375 -0.433594,-1.46875 -0.429687,-0.484375 -1.144531,-0.484375 -0.714844,0 -1.152344,0.492188 -0.4375,0.488281 -0.4375,1.476562 z"
         id="path17326"
         style="fill:#d2ac95;fill-opacity:1" />
      <path
         d="m 23.361328,63.324219 v -5.679688 h 1.15625 v 4.714844 h 2.875 v 0.964844 z"
         id="path17328"
         style="fill:#d2ac95;fill-opacity:1" />
      <path
         d="m 28.212891,57.597656 h 2.113281 q 0.714844,0 1.089844,0.109375 0.503906,0.148438 0.863281,0.527344 0.359375,0.378906 0.546875,0.929687 0.1875,0.546875 0.1875,1.351563 0,0.707031 -0.175781,1.21875 -0.214844,0.625 -0.613282,1.011719 -0.300781,0.292968 -0.8125,0.457031 -0.382812,0.121094 -1.023437,0.121094 h -2.175781 z m 1.15625,0.96875 v 3.792969 h 0.863281 q 0.484375,0 0.699219,-0.05469 0.28125,-0.07031 0.464843,-0.238281 0.1875,-0.167969 0.304688,-0.550781 0.117187,-0.386719 0.117187,-1.050781 0,-0.664063 -0.117187,-1.019532 -0.117188,-0.355468 -0.328125,-0.554687 -0.210938,-0.199219 -0.535156,-0.269531 -0.242188,-0.05469 -0.949219,-0.05469 z"
         id="path17330"
         style="fill:#d2ac95;fill-opacity:1" />
    </g>
    <rect
       style="display:inline;opacity:0.98;fill:#d2ac95;fill-opacity:1;stroke:none;stroke-width:1.22534"
       id="rect16786"
       width="38.5"
       height="165.25932"
       x="3.25"
       y="187.241"
       ry="6" />
  </g>
  <g
     inkscape:groupmode="layer"
     id="layer7"
     inkscape:label="Inverse Solids"
     style="display:inline">
    <g
       aria-label="TRIG"
       id="text12425-7-6"
       style="font-weight:bold;font-size:8px;line-height:1.25;font-family:Arial;-inkscape-font-specification:'Arial, Bold';font-variant-ligatures:none;text-align:center;text-anchor:middle;display:inline;fill:#423932;fill-opacity:1">
      <path
         d="m 14.972656,200.82454 v -4.75781 h -1.699218 v -0.96875 h 4.550781 v 0.96875 h -1.695313 v 4.75781 z"
         id="path17333"
         style="fill:#423932;fill-opacity:1" />
      <path
         d="m 18.574219,200.82454 v -5.72656 h 2.433593 q 0.917969,0 1.332032,0.15625 0.417968,0.15234 0.667968,0.54687 0.25,0.39453 0.25,0.90235 0,0.64453 -0.378906,1.0664 -0.378906,0.41797 -1.132812,0.52735 0.375,0.21875 0.617187,0.48046 0.246094,0.26172 0.660156,0.92969 l 0.699219,1.11719 h -1.382812 l -0.835938,-1.24609 q -0.445312,-0.66797 -0.609375,-0.83985 -0.164062,-0.17578 -0.347656,-0.23828 -0.183594,-0.0664 -0.582031,-0.0664 h -0.234375 v 2.39063 z m 1.15625,-3.30469 h 0.855468 q 0.832032,0 1.039063,-0.0703 0.207031,-0.0703 0.324219,-0.24219 0.117187,-0.17187 0.117187,-0.42969 0,-0.28906 -0.15625,-0.46484 -0.152344,-0.17969 -0.433594,-0.22656 -0.140625,-0.0195 -0.84375,-0.0195 h -0.902343 z"
         id="path17335"
         style="fill:#423932;fill-opacity:1" />
      <path
         d="m 24.3125,200.82454 v -5.72656 h 1.15625 v 5.72656 z"
         id="path17337"
         style="fill:#423932;fill-opacity:1" />
      <path
         d="m 29.234375,198.71907 v -0.96484 h 2.492187 v 2.28125 q -0.363281,0.35156 -1.054687,0.62109 -0.6875,0.26563 -1.394531,0.26563 -0.898438,0 -1.566407,-0.375 -0.667968,-0.37891 -1.003906,-1.07813 -0.335937,-0.70312 -0.335937,-1.52734 0,-0.89453 0.375,-1.58985 0.375,-0.69531 1.097656,-1.0664 0.550781,-0.28516 1.371094,-0.28516 1.066406,0 1.664062,0.44922 0.601563,0.44531 0.773438,1.23437 l -1.148438,0.21485 q -0.121094,-0.42188 -0.457031,-0.66406 -0.332031,-0.2461 -0.832031,-0.2461 -0.757813,0 -1.207032,0.48047 -0.445312,0.48047 -0.445312,1.42578 0,1.01953 0.453125,1.53125 0.453125,0.50781 1.1875,0.50781 0.363281,0 0.726562,-0.14062 0.367188,-0.14453 0.628907,-0.34766 v -0.72656 z"
         id="path17339"
         style="fill:#423932;fill-opacity:1" />
    </g>
    <g
       aria-label="ROOT"
       id="text12425-7-7"
       style="font-weight:bold;font-size:8px;line-height:1.25;font-family:Arial;-inkscape-font-specification:'Arial, Bold';font-variant-ligatures:none;text-align:center;text-anchor:middle;display:inline;fill:#423932;fill-opacity:1">
      <path
         d="m 11.320313,240.82454 v -5.72656 h 2.433593 q 0.917969,0 1.332032,0.15625 0.417968,0.15234 0.667968,0.54687 0.25,0.39453 0.25,0.90235 0,0.64453 -0.378906,1.0664 -0.378906,0.41797 -1.132812,0.52735 0.375,0.21875 0.617187,0.48046 0.246094,0.26172 0.660156,0.92969 l 0.699219,1.11719 H 15.085938 L 14.25,239.57845 q -0.445312,-0.66797 -0.609375,-0.83985 -0.164062,-0.17578 -0.347656,-0.23828 -0.183594,-0.0664 -0.582031,-0.0664 h -0.234375 v 2.39063 z m 1.15625,-3.30469 h 0.855468 q 0.832032,0 1.039063,-0.0703 0.207031,-0.0703 0.324219,-0.24219 0.117187,-0.17187 0.117187,-0.42969 0,-0.28906 -0.15625,-0.46484 -0.152344,-0.17969 -0.433594,-0.22656 -0.140625,-0.0195 -0.84375,-0.0195 h -0.902343 z"
         id="path17342"
         style="fill:#423932;fill-opacity:1" />
      <path
         d="m 16.859375,237.99641 q 0,-0.875 0.261719,-1.46875 0.195312,-0.4375 0.53125,-0.78515 0.339843,-0.34766 0.742187,-0.51563 0.535156,-0.22656 1.234375,-0.22656 1.265625,0 2.023438,0.78516 0.761718,0.78515 0.761718,2.18359 0,1.38672 -0.753906,2.17188 -0.753906,0.78125 -2.015625,0.78125 -1.277344,0 -2.03125,-0.77735 -0.753906,-0.78125 -0.753906,-2.14844 z m 1.191406,-0.0391 q 0,0.97266 0.449219,1.47656 0.449219,0.5 1.140625,0.5 0.691406,0 1.132812,-0.49609 0.445313,-0.5 0.445313,-1.49609 0,-0.98438 -0.433594,-1.46875 -0.429687,-0.48438 -1.144531,-0.48438 -0.714844,0 -1.152344,0.49219 -0.4375,0.48828 -0.4375,1.47656 z"
         id="path17344"
         style="fill:#423932;fill-opacity:1" />
      <path
         d="m 23.082031,237.99641 q 0,-0.875 0.261719,-1.46875 0.195312,-0.4375 0.53125,-0.78515 0.339844,-0.34766 0.742187,-0.51563 0.535157,-0.22656 1.234375,-0.22656 1.265625,0 2.023438,0.78516 0.761719,0.78515 0.761719,2.18359 0,1.38672 -0.753907,2.17188 -0.753906,0.78125 -2.015625,0.78125 -1.277343,0 -2.03125,-0.77735 -0.753906,-0.78125 -0.753906,-2.14844 z m 1.191406,-0.0391 q 0,0.97266 0.449219,1.47656 0.449219,0.5 1.140625,0.5 0.691406,0 1.132813,-0.49609 0.445312,-0.5 0.445312,-1.49609 0,-0.98438 -0.433594,-1.46875 -0.429687,-0.48438 -1.144531,-0.48438 -0.714844,0 -1.152344,0.49219 -0.4375,0.48828 -0.4375,1.47656 z"
         id="path17346"
         style="fill:#423932;fill-opacity:1" />
      <path
         d="m 30.828125,240.82454 v -4.75781 h -1.699219 v -0.96875 h 4.550781 v 0.96875 h -1.695312 v 4.75781 z"
         id="path17348"
         style="fill:#423932;fill-opacity:1" />
    </g>
    <g
       aria-label="LENGTH"
       id="text12425-7-4"
       style="font-weight:bold;font-size:8px;line-height:1.25;font-family:Arial;-inkscape-font-specification:'Arial, Bold';font-variant-ligatures:none;text-align:center;text-anchor:middle;display:inline;fill:#423932;fill-opacity:1">
      <path
         d="m 6.6699219,280.82455 v -5.67968 h 1.15625 v 4.71484 h 2.8750001 v 0.96484 z"
         id="path17351"
         style="fill:#423932;fill-opacity:1" />
      <path
         d="m 11.525391,280.82455 v -5.72656 h 4.246093 v 0.96875 h -3.089843 v 1.26953 h 2.875 v 0.96485 h -2.875 v 1.55859 h 3.199218 v 0.96484 z"
         id="path17353"
         style="fill:#423932;fill-opacity:1" />
      <path
         d="m 16.873047,280.82455 v -5.72656 h 1.125 l 2.34375,3.82422 v -3.82422 h 1.074219 v 5.72656 h -1.160157 l -2.308593,-3.73437 v 3.73437 z"
         id="path17355"
         style="fill:#423932;fill-opacity:1" />
      <path
         d="m 25.302734,278.71909 v -0.96485 h 2.492188 v 2.28125 q -0.363281,0.35156 -1.054688,0.6211 -0.6875,0.26562 -1.394531,0.26562 -0.898437,0 -1.566406,-0.375 -0.667969,-0.37891 -1.003906,-1.07812 -0.335938,-0.70313 -0.335938,-1.52735 0,-0.89453 0.375,-1.58984 0.375,-0.69531 1.097656,-1.06641 0.550782,-0.28515 1.371094,-0.28515 1.066406,0 1.664063,0.44921 0.601562,0.44532 0.773437,1.23438 l -1.148437,0.21484 q -0.121094,-0.42187 -0.457032,-0.66406 -0.332031,-0.24609 -0.832031,-0.24609 -0.757812,0 -1.207031,0.48047 -0.445313,0.48046 -0.445313,1.42578 0,1.01953 0.453125,1.53125 0.453125,0.50781 1.1875,0.50781 0.363282,0 0.726563,-0.14063 0.367187,-0.14453 0.628906,-0.34765 v -0.72656 z"
         id="path17357"
         style="fill:#423932;fill-opacity:1" />
      <path
         d="m 30.150391,280.82455 v -4.75781 h -1.699219 v -0.96875 h 4.550781 v 0.96875 h -1.695312 v 4.75781 z"
         id="path17359"
         style="fill:#423932;fill-opacity:1" />
      <path
         d="m 33.751953,280.82455 v -5.72656 h 1.15625 v 2.25391 h 2.265625 v -2.25391 h 1.15625 v 5.72656 h -1.15625 v -2.5039 h -2.265625 v 2.5039 z"
         id="path17361"
         style="fill:#423932;fill-opacity:1" />
    </g>
    <g
       aria-label="INTVLS"
       id="text12425-7-3"
       style="font-weight:bold;font-size:8px;line-height:1.25;font-family:Arial;-inkscape-font-specification:'Arial, Bold';font-variant-ligatures:none;text-align:center;text-anchor:middle;display:inline;fill:#423932;fill-opacity:1">
      <path
         d="m 8.7460938,320.82455 v -5.72656 h 1.15625 v 5.72656 z"
         id="path17364"
         style="fill:#423932;fill-opacity:1" />
      <path
         d="m 11.015625,320.82455 v -5.72656 h 1.125 l 2.34375,3.82422 v -3.82422 h 1.074219 v 5.72656 h -1.160156 l -2.308594,-3.73437 v 3.73437 z"
         id="path17366"
         style="fill:#423932;fill-opacity:1" />
      <path
         d="m 18.070312,320.82455 v -4.75781 h -1.699218 v -0.96875 h 4.550781 v 0.96875 h -1.695313 v 4.75781 z"
         id="path17368"
         style="fill:#423932;fill-opacity:1" />
      <path
         d="m 23.128906,320.82455 -2.046875,-5.72656 h 1.253906 l 1.449219,4.23828 1.402344,-4.23828 h 1.226562 l -2.050781,5.72656 z"
         id="path17370"
         style="fill:#423932;fill-opacity:1" />
      <path
         d="m 27.035156,320.82455 v -5.67968 h 1.15625 v 4.71484 h 2.875 v 0.96484 z"
         id="path17372"
         style="fill:#423932;fill-opacity:1" />
      <path
         d="m 31.597656,318.96127 1.125,-0.10937 q 0.101563,0.5664 0.410156,0.83203 0.3125,0.26562 0.839844,0.26562 0.558594,0 0.839844,-0.23437 0.285156,-0.23828 0.285156,-0.55469 0,-0.20312 -0.121094,-0.34375 -0.117187,-0.14453 -0.414062,-0.25 -0.203125,-0.0703 -0.925781,-0.25 -0.929688,-0.23047 -1.304688,-0.5664 -0.527344,-0.47266 -0.527344,-1.15235 0,-0.4375 0.246094,-0.8164 0.25,-0.38282 0.714844,-0.58204 0.46875,-0.19921 1.128906,-0.19921 1.078125,0 1.621094,0.47265 0.546875,0.47266 0.574219,1.26172 l -1.15625,0.0508 q -0.07422,-0.4414 -0.320313,-0.63281 -0.242187,-0.19531 -0.730469,-0.19531 -0.503906,0 -0.789062,0.20703 -0.183594,0.13281 -0.183594,0.35547 0,0.20312 0.171875,0.34765 0.21875,0.1836 1.0625,0.38282 0.84375,0.19921 1.246094,0.41406 0.40625,0.21094 0.632812,0.58203 0.230469,0.36719 0.230469,0.91016 0,0.49218 -0.273437,0.92187 -0.273438,0.42969 -0.773438,0.64063 -0.5,0.20703 -1.246094,0.20703 -1.085937,0 -1.667968,-0.5 -0.582032,-0.50391 -0.695313,-1.46485 z"
         id="path17374"
         style="fill:#423932;fill-opacity:1" />
    </g>
  </g>
  <g
     inkscape:groupmode="layer"
     id="layer8"
     inkscape:label="Inverse Lines"
     style="display:inline" />
  <text
     xml:space="preserve"
     id="text29904"
     style="font-weight:bold;font-size:8px;line-height:1.25;font-family:Arial;-inkscape-font-specification:'Arial, Bold';font-variant-ligatures:none;text-align:center;white-space:pre;shape-inside:url(#rect29906)"
     transform="translate(-2.6024628e-4)" />
  <g
     inkscape:groupmode="layer"
     id="layer1"
     inkscape:label="Widgets"
     style="display:none">
    <circle
       style="display:inline;fill:#ff0000;stroke:#ff0000;stroke-width:1.94925;stroke-opacity:1"
       id="path1065-7-2-3-2-2"
       cx="22.5"
       cy="160"
       r="10.525375" />
    <circle
       style="display:inline;fill:#ff0000;stroke:#ff0000;stroke-width:1.94925;stroke-opacity:1"
       id="path1065-7-2-3-2-2-76"
       cx="22.5"
       cy="120"
       r="10.525375" />
    <circle
       style="display:inline;fill:#ff0000;stroke:#ff0000;stroke-width:1.5255;stroke-opacity:1"
       id="path1065-7-2-3-2-2-65-4"
       cx="22.5"
       cy="75"
       r="8.2372503" />
    <circle
       style="display:inline;fill:#ff0000;stroke:#ff0000;stroke-width:1.94925;stroke-opacity:1"
       id="path1065-7-2-3-2-2-7"
       cx="22.5"
       cy="215.00032"
       r="10.525375" />
    <circle
       style="display:inline;fill:#ff0000;stroke:#ff0000;stroke-width:1.94925;stroke-opacity:1"
       id="path1065-7-2-3-2-2-6"
       cx="22.5"
       cy="255.00032"
       r="10.525375" />
    <circle
       style="display:inline;fill:#ff0000;stroke:#ff0000;stroke-width:1.94925;stroke-opacity:1"
       id="path1065-7-2-3-2-2-3"
       cx="22.5"
       cy="295.00034"
       r="10.525375" />
    <circle
       style="display:inline;fill:#ff0000;stroke:#ff0000;stroke-width:1.94925;stroke-opacity:1"
       id="path1065-7-2-3-2-2-2"
       cx="22.5"
       cy="335.00034"
       r="10.525375" />
  </g>
</svg>
