<?xml version="1.0" encoding="UTF-8" standalone="no"?>
<!-- Created with Inkscape (http://www.inkscape.org/) -->

<svg
   width="135"
   height="380"
   viewBox="0 0 357.1875 1005.4167"
   version="1.1"
   id="svg5"
   inkscape:version="1.1.1 (3bf5ae0d25, 2021-09-20)"
   sodipodi:docname="Pan3D_Earth.svg"
   xmlns:inkscape="http://www.inkscape.org/namespaces/inkscape"
   xmlns:sodipodi="http://sodipodi.sourceforge.net/DTD/sodipodi-0.dtd"
   xmlns="http://www.w3.org/2000/svg"
   xmlns:svg="http://www.w3.org/2000/svg">
  <sodipodi:namedview
     id="namedview7"
     pagecolor="#ffffff"
     bordercolor="#666666"
     borderopacity="1.0"
     inkscape:pageshadow="2"
     inkscape:pageopacity="0.0"
     inkscape:pagecheckerboard="0"
     inkscape:document-units="px"
     showgrid="true"
     scale-x="10"
     inkscape:showpageshadow="false"
     viewbox-x="0"
     showguides="false"
     objecttolerance="1"
     gridtolerance="1"
     guidetolerance="1"
     inkscape:zoom="2.2342105"
     inkscape:cx="67.585395"
     inkscape:cy="190"
     inkscape:window-width="1920"
     inkscape:window-height="1057"
     inkscape:window-x="1592"
     inkscape:window-y="-8"
     inkscape:window-maximized="1"
     inkscape:current-layer="layer5"
     units="px">
    <inkscape:grid
       type="xygrid"
       id="grid832"
       units="px"
       spacingx="2.6458334"
       spacingy="2.6458334"
       originx="0"
       empspacing="5"
       dotted="false"
       visible="false"
       enabled="true" />
    <inkscape:grid
       type="xygrid"
       id="grid15270"
       visible="false" />
  </sodipodi:namedview>
  <defs
     id="defs2" />
  <g
     inkscape:groupmode="layer"
     id="layer3"
     inkscape:label="Faceplate"
     style="display:inline">
    <rect
       style="display:inline;vector-effect:non-scaling-stroke;fill:#423932;fill-opacity:1;stroke-width:0.186761;-inkscape-stroke:hairline"
       id="rect910-6-1-4"
       width="357.1875"
       height="1005.4167"
       x="-1.0231816e-13"
       y="-1.7763568e-15" />
  </g>
  <g
     inkscape:groupmode="layer"
     id="layer4"
     inkscape:label="Brand"
     style="display:inline">
    <g
       id="g42796-0-7-2"
       transform="matrix(0.79338965,0,0,0.79458332,118.51978,-19.617974)"
       style="display:inline;fill:#ff0000;stroke-width:1.27904">
      <g
         aria-label="enom"
         id="text4270-27-8-9-0"
         style="font-size:49.3889px;line-height:1.25;font-family:'NECK ROMANCER';-inkscape-font-specification:'NECK ROMANCER, Normal';font-variant-ligatures:none;text-align:center;text-anchor:middle;fill:#ff0000;stroke-width:3.38412">
        <path
           d="m 46.609141,1249.244 q 0,1.1576 0,3.4245 3.183269,0 9.453344,0 -1.639866,0.5787 -2.990343,1.2058 -1.350478,0.627 -2.363337,1.688 -1.350477,0 -4.051433,0 0,1.4952 0.434082,2.5563 0.385851,1.1093 1.832792,1.1093 2.266873,0 6.80062,0 0.482313,-0.1447 0.868164,-0.627 0.337619,-0.5305 0.627007,-1.7363 0,2.0257 0,6.1254 -3.520888,0 -10.562665,0 -1.543403,0 -2.652724,-2.2187 -1.109321,-2.1704 -1.109321,-6.3183 0,-1.9775 0,-5.836 -0.385851,-1.3504 -1.881023,-2.1221 -1.495171,-0.7235 -3.569119,-1.2058 6.607694,0 19.774852,0 0,2.9421 0,8.7781 -1.205783,-2.701 -2.218642,-3.6656 -1.012858,-0.9646 -2.700955,-1.1093 -0.916396,-0.097 -2.170411,-0.097 -1.205783,0.048 -2.845649,0.048 -0.241157,0 -0.675239,0 z"
           id="path42762-2-5-2"
           style="fill:#ff0000;stroke-width:3.38412" />
        <path
           d="m 81.576869,1245.2891 q 0,5.8842 0,17.7009 0,3.0868 -0.144694,6.0771 -0.09646,3.0386 -0.337619,5.9325 -0.385851,-3.7138 -0.964627,-6.9936 -0.530545,-3.3279 -2.025717,-5.016 0,-2.9904 0,-8.9228 -0.241157,-1.3505 -0.72347,-2.2187 -0.482314,-0.8681 -1.06109,-1.3987 -1.109321,-1.0128 -2.411567,-1.1093 -1.350478,-0.097 -2.266874,-0.097 -0.482313,0 -1.44694,0 0,4.582 0,13.746 0,3.0868 -0.09646,6.0771 -0.144694,3.0386 -0.385851,5.9325 -0.38585,-3.7138 -0.916395,-6.9936 -0.578776,-3.3279 -2.025717,-5.016 0,-4.8232 0,-14.373 -0.385851,-1.3504 -1.881022,-2.1221 -1.495172,-0.7235 -3.56912,-1.2058 6.752389,0 20.257166,0 z"
           id="path42764-5-7-3"
           style="fill:#ff0000;stroke-width:3.38412" />
        <path
           d="m 104.19737,1249.0511 q 0,3.3762 0,10.1768 0,1.5434 -1.92925,2.6528 -1.92926,1.1093 -6.077152,1.1093 -4.196128,0 -6.125382,-1.1093 -1.929254,-1.1094 -1.929254,-2.6528 0,-3.3762 0,-10.1768 0,-1.5434 1.929254,-2.6527 1.929254,-1.1093 6.125382,-1.1093 4.147892,0 6.077152,1.1093 1.92925,1.1093 1.92925,2.6527 z m -3.76204,7.91 q 0,-1.8811 0,-5.6431 0,-1.6881 -1.254019,-1.9775 -1.205783,-0.2894 -2.990343,-0.2894 -1.832792,0 -3.038575,0.2894 -1.254015,0.2894 -1.254015,1.9775 0,1.881 0,5.6431 0,1.6881 1.254015,1.9774 1.205783,0.2894 3.038575,0.2894 1.78456,0 2.990343,-0.2894 1.254019,-0.2893 1.254019,-1.9774 z"
           id="path42766-8-9-0"
           style="fill:#ff0000;stroke-width:3.38412" />
        <path
           d="m 142.34837,1245.2891 q -2.02572,0.4823 -3.52089,1.2058 -1.5434,0.7717 -1.88102,2.1221 0,4.7749 0,14.373 -1.49517,1.6881 -2.02572,5.016 -0.57878,3.2798 -0.96463,6.9936 -0.24115,-2.8939 -0.33762,-5.9325 -0.14469,-2.9903 -0.14469,-6.0771 0,-4.582 0,-13.746 -0.48231,0 -1.39871,0 -0.53054,0 -1.15755,0 -0.62701,0 -1.30225,0.1447 -1.25401,0.2412 -2.41157,1.2058 -1.15755,0.9646 -1.63986,3.4727 0,2.9903 0,8.9228 -0.1447,0.627 -0.28939,1.1093 -0.0965,0.4823 -0.19292,0.8199 -0.53055,1.9775 -0.38586,1.3505 0.19293,-0.627 -0.28938,1.1576 -0.0965,0.3376 -0.24116,0.8681 -0.14469,0.5306 -0.33762,1.3023 -0.14469,-0.6753 -0.28939,-1.2058 -0.14469,-0.4823 -0.24115,-0.8199 -0.53055,-2.0258 -0.33762,-1.3023 0.19292,0.7717 -0.43409,-1.6881 -0.0482,-0.2894 -0.19292,-0.7235 -0.0965,-0.3858 -0.19293,-0.8681 0,-2.9904 0,-8.9228 -0.28939,-1.3505 -0.7717,-2.2187 -0.48231,-0.8681 -1.06109,-1.3987 -1.10932,-1.0128 -2.41157,-1.1093 -1.30224,-0.097 -2.26687,-0.097 -0.48231,0 -1.39871,0 0,4.582 0,13.746 0,3.0868 -0.14469,6.0771 -0.0965,3.0386 -0.33762,5.9325 -0.38585,-3.7138 -0.96463,-6.9936 -0.53054,-3.3279 -2.02572,-5.016 0,-4.8232 0,-14.373 -0.38585,-1.3504 -1.88102,-2.1221 -1.49517,-0.7235 -3.56912,-1.2058 3.95497,0 11.76845,0 1.15755,0.3858 3.47266,1.1575 0.7717,0.2894 1.59163,0.4341 0.81994,0.1447 1.6881,0.1447 0.86816,0 1.73633,-0.1447 0.81993,-0.1447 1.59163,-0.4341 1.15756,-0.3858 3.42443,-1.1575 3.95497,0 11.76845,0 z"
           id="path42768-1-5-9"
           style="fill:#ff0000;stroke-width:3.38412" />
      </g>
      <g
         aria-label="V"
         transform="matrix(1.2363173,0,0,0.80885384,-497.88086,123.48586)"
         id="text4270-3-5-2-4-0-7"
         style="font-size:78.5061px;line-height:1.25;font-family:Nosferotica;-inkscape-font-specification:'Nosferotica, Normal';font-variant-ligatures:none;text-align:center;text-anchor:middle;fill:#ff0000;stroke-width:4.18383">
        <path
           d="m 431.64994,1360.6864 8.57428,-0.1022 c 0,0 -4.4079,1.0878 -5.59925,3.7285 -1.88083,4.1689 -3.64217,14.6628 -3.64217,14.6628 l -2.23339,11.5191 -1.83311,11.8311 -1.71824,21.3112 -1.69514,-21.3112 -1.92196,-11.5208 -2.5009,-11.8294 c 0,0 -1.52027,-10.287 -3.38278,-14.4832 -1.14458,-2.5787 -5.63367,-3.8059 -5.63367,-3.8059 h 8.4657 l 6.66875,29.1569 z"
           id="path30410-2-3-0"
           sodipodi:nodetypes="ccscccccccscccc"
           style="fill:#ff0000;stroke-width:4.18383" />
      </g>
    </g>
  </g>
  <g
     inkscape:groupmode="layer"
     id="layer5"
     inkscape:label="Solid"
     style="display:inline">
    <rect
       style="display:inline;vector-effect:non-scaling-stroke;fill:#d2ac95;fill-opacity:1;stroke-width:0.025785;-inkscape-stroke:hairline"
       id="rect76101-3-4-0-9"
       width="383.0011"
       height="331.89398"
       x="-938.6261"
       y="12.646759"
       ry="12.391613"
       rx="11.207399"
       transform="rotate(-90)" />
    <g
       aria-label="Y"
       id="text11170-1-8"
       style="font-weight:bold;font-size:21.1667px;line-height:1.25;font-family:Arial;-inkscape-font-specification:'Arial, Bold';font-variant-ligatures:none;text-align:center;text-anchor:middle;display:inline;fill:#d2ac95;fill-opacity:1;stroke-width:2.64583"
       transform="translate(0,2.36847)">
      <path
         d="m 177.05896,126.32976 v -6.37688 l -5.55006,-8.77468 h 3.58636 l 3.56567,5.99448 3.49334,-5.99448 h 3.52434 l -5.57073,8.79535 v 6.35621 z"
         id="path43187"
         style="fill:#d2ac95;fill-opacity:1" />
    </g>
    <g
       aria-label="X"
       id="text11170-6"
       style="font-weight:bold;font-size:21.1667px;line-height:1.25;font-family:Arial;-inkscape-font-specification:'Arial, Bold';font-variant-ligatures:none;text-align:center;text-anchor:middle;display:inline;fill:#d2ac95;fill-opacity:1;stroke-width:2.64583">
      <path
         d="m 64.393999,128.69823 5.177986,-7.90651 -4.692227,-7.24505 h 3.576015 l 3.038579,4.86793 2.976567,-4.86793 h 3.545009 l -4.712898,7.35874 5.177987,7.79282 h -3.689704 l -3.358973,-5.24 -3.369309,5.24 z"
         id="path43184"
         style="fill:#d2ac95;fill-opacity:1" />
    </g>
    <g
       aria-label="Z"
       id="text11170-7-4"
       style="font-weight:bold;font-size:21.1667px;line-height:1.25;font-family:Arial;-inkscape-font-specification:'Arial, Bold';font-variant-ligatures:none;text-align:center;text-anchor:middle;display:inline;fill:#d2ac95;fill-opacity:1;stroke-width:2.64583"
       transform="translate(0,1.18425)">
      <path
         d="m 279.59532,127.51398 v -2.75953 l 7.95818,-9.82887 h -7.05901 v -2.56316 h 11.08978 v 2.37712 l -8.29925,10.22162 h 8.61964 v 2.55282 z"
         id="path43190"
         style="fill:#d2ac95;fill-opacity:1" />
    </g>
    <g
       aria-label="L"
       id="text47531"
       style="font-weight:bold;font-size:17.6389px;line-height:1.25;font-family:Arial;-inkscape-font-specification:'Arial, Bold';font-variant-ligatures:none;text-align:center;text-anchor:middle;display:inline;fill:#d2ac95;fill-opacity:1;stroke-width:2.64583">
      <path
         d="m 34.395837,220.55658 v -12.52293 h 2.549373 v 10.39558 h 6.33898 v 2.12735 z"
         id="path57016"
         style="fill:#d2ac95;fill-opacity:1" />
    </g>
    <g
       aria-label="R"
       id="text47531-6"
       style="font-weight:bold;font-size:17.6389px;line-height:1.25;font-family:Arial;-inkscape-font-specification:'Arial, Bold';font-variant-ligatures:none;text-align:center;text-anchor:middle;display:inline;fill:#d2ac95;fill-opacity:1;stroke-width:2.64583">
      <path
         d="m 97.127591,220.60826 v -12.62628 h 5.365739 q 2.024,0 2.93695,0.34451 0.92156,0.33589 1.47278,1.20578 0.55121,0.86989 0.55121,1.98955 0,1.4211 -0.83543,2.35127 -0.83544,0.92157 -2.4977,1.16273 0.82682,0.48231 1.36081,1.05936 0.54261,0.57706 1.45556,2.04984 l 1.54168,2.46324 h -3.04891 l -1.84313,-2.74746 q -0.98185,-1.47278 -1.34359,-1.85174 -0.36173,-0.38758 -0.76653,-0.52538 -0.4048,-0.14642 -1.2833,-0.14642 h -0.516767 v 5.271 z m 2.549372,-7.28638 h 1.886187 q 1.83452,0 2.29099,-0.15503 0.45648,-0.15503 0.71486,-0.53399 0.25838,-0.37896 0.25838,-0.9474 0,-0.63735 -0.34451,-1.02492 -0.33589,-0.39619 -0.95601,-0.49954 -0.31006,-0.0431 -1.86035,-0.0431 h -1.989547 z"
         id="path57019"
         style="fill:#d2ac95;fill-opacity:1" />
    </g>
    <g
       aria-label="B"
       id="text47531-61"
       style="font-weight:bold;font-size:17.6389px;line-height:1.25;font-family:Arial;-inkscape-font-specification:'Arial, Bold';font-variant-ligatures:none;text-align:center;text-anchor:middle;display:inline;fill:#d2ac95;fill-opacity:1;stroke-width:2.64583">
      <path
         d="m 141.55207,207.98198 h 5.04707 q 1.49862,0 2.2307,0.12919 0.7407,0.12058 1.31775,0.51676 0.58567,0.39619 0.97324,1.05937 0.38758,0.65457 0.38758,1.47278 0,0.88711 -0.48232,1.62781 -0.4737,0.7407 -1.29191,1.11104 1.15411,0.3359 1.77423,1.1455 0.62012,0.8096 0.62012,1.90341 0,0.86128 -0.4048,1.67949 -0.39619,0.8096 -1.09382,1.30052 -0.68902,0.48232 -1.70533,0.59428 -0.63734,0.0689 -3.07475,0.0861 h -4.29776 z m 2.54938,2.10151 v 2.91972 h 1.67087 q 1.49,0 1.85174,-0.0431 0.65457,-0.0775 1.02492,-0.44786 0.37896,-0.37896 0.37896,-0.99046 0,-0.58567 -0.32729,-0.94741 -0.31867,-0.37034 -0.95601,-0.44786 -0.37896,-0.0431 -2.17903,-0.0431 z m 0,5.02123 v 3.37619 h 2.35989 q 1.37804,0 1.74839,-0.0775 0.56844,-0.10335 0.92156,-0.49954 0.36174,-0.4048 0.36174,-1.07659 0,-0.56844 -0.27561,-0.96463 -0.27561,-0.39619 -0.80099,-0.57705 -0.51676,-0.18087 -2.25654,-0.18087 z"
         id="path57022"
         style="fill:#d2ac95;fill-opacity:1" />
    </g>
    <g
       aria-label="T"
       id="text47531-4"
       style="font-weight:bold;font-size:17.6389px;line-height:1.25;font-family:Arial;-inkscape-font-specification:'Arial, Bold';font-variant-ligatures:none;text-align:center;text-anchor:middle;display:inline;fill:#d2ac95;fill-opacity:1;stroke-width:2.64583">
      <path
         d="m 209.34811,220.60826 v -10.49032 h -3.74654 v -2.13596 h 10.03384 v 2.13596 h -3.73793 v 10.49032 z"
         id="path57025"
         style="fill:#d2ac95;fill-opacity:1" />
    </g>
    <g
       aria-label="F"
       id="text47531-3"
       style="font-weight:bold;font-size:17.6389px;line-height:1.25;font-family:Arial;-inkscape-font-specification:'Arial, Bold';font-variant-ligatures:none;text-align:center;text-anchor:middle;display:inline;fill:#d2ac95;fill-opacity:1;stroke-width:2.64583">
      <path
         d="m 248.70833,220.60826 v -12.62628 h 8.65581 v 2.13596 h -6.10644 v 2.98862 h 5.271 v 2.13596 h -5.271 v 5.36574 z"
         id="path57028"
         style="fill:#d2ac95;fill-opacity:1" />
    </g>
    <g
       aria-label="B"
       id="text47531-5"
       style="font-weight:bold;font-size:17.6389px;line-height:1.25;font-family:Arial;-inkscape-font-specification:'Arial, Bold';font-variant-ligatures:none;text-align:center;text-anchor:middle;display:inline;fill:#d2ac95;fill-opacity:1;stroke-width:2.64583">
      <path
         d="m 312.21524,207.98198 h 5.04707 q 1.49861,0 2.2307,0.12919 0.74069,0.12058 1.31775,0.51676 0.58566,0.39619 0.97324,1.05937 0.38757,0.65457 0.38757,1.47278 0,0.88711 -0.48231,1.62781 -0.4737,0.7407 -1.29192,1.11104 1.15411,0.3359 1.77423,1.1455 0.62012,0.8096 0.62012,1.90341 0,0.86128 -0.4048,1.67949 -0.39619,0.8096 -1.09382,1.30052 -0.68902,0.48232 -1.70532,0.59428 -0.63735,0.0689 -3.07475,0.0861 h -4.29776 z m 2.54937,2.10151 v 2.91972 h 1.67087 q 1.49001,0 1.85174,-0.0431 0.65457,-0.0775 1.02492,-0.44786 0.37896,-0.37896 0.37896,-0.99046 0,-0.58567 -0.32728,-0.94741 -0.31868,-0.37034 -0.95602,-0.44786 -0.37896,-0.0431 -2.17902,-0.0431 z m 0,5.02123 v 3.37619 h 2.35989 q 1.37804,0 1.74839,-0.0775 0.56844,-0.10335 0.92156,-0.49954 0.36174,-0.4048 0.36174,-1.07659 0,-0.56844 -0.27561,-0.96463 -0.27561,-0.39619 -0.80099,-0.57705 -0.51676,-0.18087 -2.25653,-0.18087 z"
         id="path57031"
         style="fill:#d2ac95;fill-opacity:1" />
    </g>
    <g
       aria-label="PANNERS"
       id="text93837"
       style="font-weight:bold;font-size:26.4583px;line-height:1.25;font-family:Arial;-inkscape-font-specification:'Arial, Bold';font-variant-ligatures:none;text-align:center;text-anchor:middle;fill:#d2ac95;fill-opacity:1;stroke-width:2.64583"
       transform="translate(515.78458)">
      <path
         d="M -399.28645,98.282349 V 79.34296 h 6.13657 q 3.48815,0 4.54752,0.28422 1.6278,0.42633 2.72593,1.86035 1.09812,1.4211 1.09812,3.681941 0,1.744077 -0.63304,2.932633 -0.63303,1.188557 -1.61488,1.873269 -0.96893,0.671792 -1.97662,0.891417 -1.36943,0.271301 -3.96617,0.271301 h -2.49338 v 7.144258 z m 3.82405,-15.735454 v 5.374342 h 2.09289 q 2.26084,0 3.02307,-0.297139 0.76223,-0.297139 1.18856,-0.930175 0.43925,-0.633035 0.43925,-1.472776 0,-1.033527 -0.6072,-1.70532 -0.6072,-0.671793 -1.53737,-0.839741 -0.68471,-0.129191 -2.75177,-0.129191 z"
         id="path112942"
         style="fill:#d2ac95;fill-opacity:1" />
      <path
         d="m -366.52363,98.282349 h -4.15995 l -1.65365,-4.302058 h -7.57058 l -1.56321,4.302058 h -4.0566 l 7.3768,-18.939389 h 4.04368 z m -7.04091,-7.493074 -2.60966,-7.027985 -2.55798,7.027985 z"
         id="path112944"
         style="fill:#d2ac95;fill-opacity:1" />
      <path
         d="M -364.45658,98.282349 V 79.34296 h 3.7207 l 7.75145,12.647791 V 79.34296 h 3.55275 v 18.939389 h -3.83697 l -7.63518,-12.350652 v 12.350652 z"
         id="path112946"
         style="fill:#d2ac95;fill-opacity:1" />
      <path
         d="M -345.34924,98.282349 V 79.34296 h 3.72069 l 7.75146,12.647791 V 79.34296 h 3.55275 v 18.939389 h -3.83697 l -7.63518,-12.350652 v 12.350652 z"
         id="path112948"
         style="fill:#d2ac95;fill-opacity:1" />
      <path
         d="M -326.28067,98.282349 V 79.34296 h 14.04305 v 3.203935 h -10.219 V 86.7456 h 9.50845 v 3.191015 h -9.50845 v 5.154718 h 10.58074 v 3.191016 z"
         id="path112950"
         style="fill:#d2ac95;fill-opacity:1" />
      <path
         d="M -308.62026,98.282349 V 79.34296 h 8.04859 q 3.03599,0 4.40541,0.516764 1.38234,0.503845 2.20916,1.808673 0.82683,1.304828 0.82683,2.98431 0,2.13165 -1.25316,3.526912 -1.25315,1.382343 -3.74653,1.744077 1.24023,0.723469 2.04121,1.589049 0.81391,0.865579 2.18333,3.074743 l 2.31252,3.694861 h -4.57336 l -2.76469,-4.121191 q -1.47277,-2.209164 -2.01537,-2.777604 -0.54261,-0.581359 -1.1498,-0.788065 -0.6072,-0.219624 -1.92495,-0.219624 h -0.77514 v 7.906484 z m 3.82405,-10.929552 h 2.82928 q 2.75176,0 3.43648,-0.232544 0.68471,-0.232543 1.07228,-0.800983 0.38757,-0.56844 0.38757,-1.4211 0,-0.956013 -0.51676,-1.537372 -0.50385,-0.594278 -1.43402,-0.749308 -0.46509,-0.06459 -2.79052,-0.06459 h -2.98431 z"
         id="path112952"
         style="fill:#d2ac95;fill-opacity:1" />
      <path
         d="m -290.49478,92.119942 3.7207,-0.361735 q 0.3359,1.873269 1.35651,2.751767 1.03352,0.878498 2.7776,0.878498 1.84743,0 2.7776,-0.775145 0.9431,-0.788065 0.9431,-1.834511 0,-0.671793 -0.40049,-1.13688 -0.38758,-0.478007 -1.36943,-0.826822 -0.67179,-0.232544 -3.06182,-0.826822 -3.07475,-0.762227 -4.31498,-1.873268 -1.74408,-1.563211 -1.74408,-3.811132 0,-1.446939 0.81391,-2.700091 0.82682,-1.266071 2.36419,-1.924944 1.55029,-0.658874 3.73362,-0.658874 3.56567,0 5.36142,1.56321 1.80867,1.56321 1.89911,4.172867 l -3.82405,0.167948 q -0.24547,-1.459857 -1.05937,-2.092893 -0.80098,-0.645955 -2.41587,-0.645955 -1.66656,0 -2.60966,0.684712 -0.60719,0.439249 -0.60719,1.175638 0,0.671792 0.56844,1.149799 0.72347,0.607197 3.51399,1.266071 2.79052,0.658873 4.12119,1.369424 1.34359,0.69763 2.09289,1.924944 0.76223,1.214395 0.76223,3.010149 0,1.627805 -0.90434,3.048905 -0.90433,1.4211 -2.55798,2.118731 -1.65364,0.684712 -4.12119,0.684712 -3.5915,0 -5.51645,-1.653644 -1.92494,-1.666563 -2.2996,-4.844659 z"
         id="path112954"
         style="fill:#d2ac95;fill-opacity:1" />
    </g>
    <g
       aria-label="INPUT"
       id="text100385"
       style="font-weight:bold;font-size:21.1667px;line-height:1.25;font-family:Arial;-inkscape-font-specification:'Arial, Bold';font-variant-ligatures:none;text-align:center;text-anchor:middle;display:inline;fill:#d2ac95;fill-opacity:1;stroke-width:2.64583"
       transform="translate(388.43107,-1.3944256)">
      <path
         d="m -347.80311,462.25089 v -15.15156 h 3.05925 v 15.15156 z"
         id="path112957"
         style="fill:#d2ac95;fill-opacity:1" />
      <path
         d="m -341.7983,462.25089 v -15.15156 h 2.97657 l 6.20118,10.11826 v -10.11826 h 2.84221 v 15.15156 h -3.06958 l -6.10817,-9.88055 v 9.88055 z"
         id="path112959"
         style="fill:#d2ac95;fill-opacity:1" />
      <path
         d="m -326.54339,462.25089 v -15.15156 h 4.90927 q 2.79053,0 3.63803,0.22738 1.30224,0.34106 2.18074,1.48828 0.87851,1.13688 0.87851,2.94556 0,1.39527 -0.50643,2.34612 -0.50643,0.95084 -1.29192,1.49862 -0.77515,0.53743 -1.5813,0.71313 -1.09554,0.21704 -3.17294,0.21704 h -1.99471 v 5.71543 z m 3.05925,-12.5884 v 4.29948 h 1.67432 q 1.80868,0 2.41846,-0.23771 0.60978,-0.23771 0.95085,-0.74414 0.3514,-0.50643 0.3514,-1.17823 0,-0.82682 -0.48576,-1.36426 -0.48576,-0.53743 -1.2299,-0.67179 -0.54777,-0.10335 -2.20142,-0.10335 z"
         id="path112961"
         style="fill:#d2ac95;fill-opacity:1" />
      <path
         d="m -312.44604,447.09933 h 3.05925 v 8.20623 q 0,1.95337 0.11369,2.53215 0.19637,0.93018 0.93018,1.49862 0.74414,0.55811 2.02572,0.55811 1.30225,0 1.96371,-0.5271 0.66146,-0.53744 0.79581,-1.31259 0.13436,-0.77515 0.13436,-2.57349 v -8.38193 h 3.05925 v 7.95818 q 0,2.72852 -0.24804,3.85507 -0.24805,1.12655 -0.91985,1.9017 -0.66146,0.77515 -1.77767,1.24023 -1.11621,0.45476 -2.91455,0.45476 -2.17042,0 -3.29697,-0.4961 -1.11621,-0.50643 -1.76733,-1.30225 -0.65113,-0.80615 -0.85783,-1.68465 -0.29973,-1.30225 -0.29973,-3.84473 z"
         id="path112963"
         style="fill:#d2ac95;fill-opacity:1" />
      <path
         d="m -293.7288,462.25089 v -12.5884 h -4.49586 v -2.56316 h 12.04063 v 2.56316 h -4.48552 v 12.5884 z"
         id="path112965"
         style="fill:#d2ac95;fill-opacity:1" />
    </g>
    <g
       aria-label="OUTPUT"
       id="text118747"
       style="font-weight:bold;font-size:21.1667px;line-height:1.25;font-family:Arial;-inkscape-font-specification:'Arial, Bold';font-variant-ligatures:none;text-align:center;text-anchor:middle;display:inline;fill:#d2ac95;fill-opacity:1;stroke-width:2.64583">
      <path
         d="m 135.76426,425.46814 q 0,-2.31511 0.69247,-3.88608 0.51676,-1.15755 1.4056,-2.07739 0.89917,-0.91984 1.9637,-1.36426 1.41594,-0.59945 3.26596,-0.59945 3.34864,0 5.35369,2.0774 2.01538,2.07739 2.01538,5.77743 0,3.66903 -1.99471,5.74643 -1.99472,2.06706 -5.33302,2.06706 -3.37964,0 -5.37436,-2.05673 -1.99471,-2.06706 -1.99471,-5.68441 z m 3.15227,-0.10336 q 0,2.5735 1.18856,3.90675 1.18856,1.32292 3.01791,1.32292 1.82934,0 2.99723,-1.31259 1.17823,-1.32291 1.17823,-3.95842 0,-2.60449 -1.14722,-3.88607 -1.13688,-1.28158 -3.02824,-1.28158 -1.89136,0 -3.04892,1.30225 -1.15755,1.29191 -1.15755,3.90674 z"
         id="path126278"
         style="fill:#d2ac95;fill-opacity:1" />
      <path
         d="m 152.82785,417.79934 h 3.05925 v 8.20623 q 0,1.95338 0.11368,2.53215 0.19637,0.93018 0.93018,1.49862 0.74414,0.55811 2.02572,0.55811 1.30225,0 1.96371,-0.5271 0.66146,-0.53744 0.79582,-1.31259 0.13436,-0.77514 0.13436,-2.57349 v -8.38193 h 3.05924 v 7.95819 q 0,2.72852 -0.24804,3.85506 -0.24805,1.12655 -0.91984,1.9017 -0.66146,0.77515 -1.77768,1.24024 -1.11621,0.45475 -2.91455,0.45475 -2.17042,0 -3.29696,-0.49609 -1.11622,-0.50643 -1.76734,-1.30225 -0.65112,-0.80616 -0.85783,-1.68466 -0.29972,-1.30225 -0.29972,-3.84473 z"
         id="path126280"
         style="fill:#d2ac95;fill-opacity:1" />
      <path
         d="m 171.54508,432.9509 v -12.5884 h -4.49586 v -2.56316 h 12.04063 v 2.56316 h -4.48552 v 12.5884 z"
         id="path126282"
         style="fill:#d2ac95;fill-opacity:1" />
      <path
         d="m 181.06389,432.9509 v -15.15156 h 4.90927 q 2.79053,0 3.63803,0.22738 1.30225,0.34106 2.18075,1.48828 0.8785,1.13689 0.8785,2.94556 0,1.39527 -0.50643,2.34612 -0.50643,0.95085 -1.29191,1.49862 -0.77515,0.53743 -1.5813,0.71313 -1.09555,0.21704 -3.17294,0.21704 h -1.99472 v 5.71543 z m 3.05925,-12.5884 v 4.29948 h 1.67432 q 1.80868,0 2.41846,-0.23771 0.60979,-0.23771 0.95085,-0.74414 0.3514,-0.50643 0.3514,-1.17822 0,-0.82683 -0.48576,-1.36426 -0.48576,-0.53744 -1.2299,-0.6718 -0.54777,-0.10335 -2.20142,-0.10335 z"
         id="path126284"
         style="fill:#d2ac95;fill-opacity:1" />
      <path
         d="m 195.16125,417.79934 h 3.05925 v 8.20623 q 0,1.95338 0.11368,2.53215 0.19638,0.93018 0.93018,1.49862 0.74414,0.55811 2.02572,0.55811 1.30225,0 1.96371,-0.5271 0.66146,-0.53744 0.79582,-1.31259 0.13436,-0.77514 0.13436,-2.57349 v -8.38193 h 3.05925 v 7.95819 q 0,2.72852 -0.24805,3.85506 -0.24805,1.12655 -0.91984,1.9017 -0.66146,0.77515 -1.77768,1.24024 -1.11621,0.45475 -2.91455,0.45475 -2.17041,0 -3.29696,-0.49609 -1.11622,-0.50643 -1.76734,-1.30225 -0.65112,-0.80616 -0.85783,-1.68466 -0.29972,-1.30225 -0.29972,-3.84473 z"
         id="path126286"
         style="fill:#d2ac95;fill-opacity:1" />
      <path
         d="m 213.87848,432.9509 v -12.5884 h -4.49586 v -2.56316 h 12.04063 v 2.56316 h -4.48552 v 12.5884 z"
         id="path126288"
         style="fill:#d2ac95;fill-opacity:1" />
    </g>
    <g
       aria-label="MONO"
       id="text118747-6-0"
       style="font-weight:bold;font-size:19.4028px;line-height:1.25;font-family:Arial;-inkscape-font-specification:'Arial, Bold';font-variant-ligatures:none;text-align:center;text-anchor:middle;display:inline;fill:#d2ac95;fill-opacity:1;stroke-width:2.64583">
      <path
         d="M 256.6458,446.15372 V 432.2648 h 4.19699 l 2.52009,9.47402 2.49167,-9.47402 h 4.20647 v 13.88892 h -2.60536 v -10.93303 l -2.75694,10.93303 h -2.7001 l -2.74746,-10.93303 v 10.93303 z"
         id="path126291"
         style="fill:#d2ac95;fill-opacity:1" />
      <path
         d="m 272.27794,439.29452 q 0,-2.12218 0.63476,-3.56223 0.4737,-1.06109 1.28847,-1.90428 0.82424,-0.84319 1.80006,-1.25057 1.29794,-0.54949 2.99379,-0.54949 3.06959,0 4.90755,1.90428 1.84743,1.90428 1.84743,5.29598 0,3.36327 -1.82849,5.26755 -1.82848,1.89481 -4.88859,1.89481 -3.09801,0 -4.92649,-1.88533 -1.82849,-1.89481 -1.82849,-5.21072 z m 2.88958,-0.0947 q 0,2.35904 1.08951,3.58118 1.08951,1.21268 2.76641,1.21268 1.67691,0 2.74747,-1.2032 1.08004,-1.21268 1.08004,-3.62855 0,-2.38746 -1.05162,-3.56223 -1.04214,-1.17478 -2.77589,-1.17478 -1.73374,0 -2.79483,1.19372 -1.06109,1.18426 -1.06109,3.58118 z"
         id="path126293"
         style="fill:#d2ac95;fill-opacity:1" />
      <path
         d="M 287.96692,446.15372 V 432.2648 h 2.72852 l 5.68441,9.27507 v -9.27507 h 2.60536 v 13.88892 h -2.81378 l -5.59915,-9.05717 v 9.05717 z"
         id="path126295"
         style="fill:#d2ac95;fill-opacity:1" />
      <path
         d="m 301.38214,439.29452 q 0,-2.12218 0.63476,-3.56223 0.4737,-1.06109 1.28847,-1.90428 0.82424,-0.84319 1.80006,-1.25057 1.29794,-0.54949 2.99379,-0.54949 3.06959,0 4.90755,1.90428 1.84743,1.90428 1.84743,5.29598 0,3.36327 -1.82849,5.26755 -1.82848,1.89481 -4.88859,1.89481 -3.09801,0 -4.92649,-1.88533 -1.82849,-1.89481 -1.82849,-5.21072 z m 2.88958,-0.0947 q 0,2.35904 1.08951,3.58118 1.08951,1.21268 2.76641,1.21268 1.67691,0 2.74747,-1.2032 1.08004,-1.21268 1.08004,-3.62855 0,-2.38746 -1.05162,-3.56223 -1.04214,-1.17478 -2.77589,-1.17478 -1.73374,0 -2.79483,1.19372 -1.06109,1.18426 -1.06109,3.58118 z"
         id="path126297"
         style="fill:#d2ac95;fill-opacity:1" />
    </g>
    <g
       aria-label="LEVEL"
       id="text118747-2"
       style="font-weight:bold;font-size:21.1667px;line-height:1.25;font-family:Arial;-inkscape-font-specification:'Arial, Bold';font-variant-ligatures:none;text-align:center;text-anchor:middle;display:inline;fill:#d2ac95;fill-opacity:1;stroke-width:2.64583">
      <path
         d="m 145.61897,453.90158 v -15.02753 h 3.05925 v 12.47471 h 7.60678 v 2.55282 z"
         id="path126300"
         style="fill:#d2ac95;fill-opacity:1" />
      <path
         d="m 158.46575,453.90158 v -15.15155 h 11.23448 v 2.56315 H 161.525 v 3.35898 h 7.60679 v 2.55282 H 161.525 v 4.12378 h 8.46462 v 2.55282 z"
         id="path126302"
         style="fill:#d2ac95;fill-opacity:1" />
      <path
         d="m 176.44918,453.90158 -5.4157,-15.15155 h 3.31764 l 3.83439,11.2138 3.71038,-11.2138 h 3.24528 l -5.42603,15.15155 z"
         id="path126304"
         style="fill:#d2ac95;fill-opacity:1" />
      <path
         d="m 186.7018,453.90158 v -15.15155 h 11.23448 v 2.56315 h -8.17523 v 3.35898 h 7.60678 v 2.55282 h -7.60678 v 4.12378 h 8.46461 v 2.55282 z"
         id="path126306"
         style="fill:#d2ac95;fill-opacity:1" />
      <path
         d="m 200.90251,453.90158 v -15.02753 h 3.05925 v 12.47471 h 7.60678 v 2.55282 z"
         id="path126308"
         style="fill:#d2ac95;fill-opacity:1" />
    </g>
    <g
       aria-label="OUTPUT"
       id="text118747-2-9"
       style="font-weight:bold;font-size:19.4028px;line-height:1.25;font-family:Arial;-inkscape-font-specification:'Arial, Bold';font-variant-ligatures:none;text-align:center;text-anchor:middle;display:inline;fill:#d2ac95;fill-opacity:1;stroke-width:2.64583">
      <path
         d="m 246.48966,460.59048 q 0,-2.12218 0.63476,-3.56223 0.4737,-1.06109 1.28847,-1.90428 0.82424,-0.84319 1.80006,-1.25057 1.29794,-0.54949 2.99379,-0.54949 3.06959,0 4.90755,1.90428 1.84743,1.90428 1.84743,5.29598 0,3.36327 -1.82848,5.26755 -1.82849,1.89481 -4.8886,1.89481 -3.09801,0 -4.92649,-1.88533 -1.82849,-1.89481 -1.82849,-5.21072 z m 2.88958,-0.0947 q 0,2.35904 1.08951,3.58118 1.08951,1.21268 2.76642,1.21268 1.6769,0 2.74746,-1.2032 1.08004,-1.21268 1.08004,-3.62855 0,-2.38746 -1.05162,-3.56224 -1.04214,-1.17477 -2.77588,-1.17477 -1.73375,0 -2.79484,1.19372 -1.06109,1.18426 -1.06109,3.58118 z"
         id="path126311"
         style="fill:#d2ac95;fill-opacity:1" />
      <path
         d="m 262.13127,453.56076 h 2.80431 v 7.52237 q 0,1.79059 0.10422,2.32114 0.18001,0.85266 0.85266,1.37373 0.68213,0.5116 1.85691,0.5116 1.19373,0 1.80006,-0.48318 0.60634,-0.49265 0.7295,-1.2032 0.12317,-0.71055 0.12317,-2.35903 v -7.68343 h 2.80431 v 7.295 q 0,2.50114 -0.22738,3.53381 -0.22738,1.03267 -0.84319,1.74322 -0.60633,0.71055 -1.62953,1.13688 -1.02319,0.41686 -2.67167,0.41686 -1.98955,0 -3.02222,-0.45476 -1.02319,-0.46422 -1.62006,-1.19372 -0.59686,-0.73898 -0.78634,-1.54427 -0.27475,-1.19373 -0.27475,-3.52434 z"
         id="path126313"
         style="fill:#d2ac95;fill-opacity:1" />
      <path
         d="m 279.28873,467.44968 v -11.53936 h -4.1212 v -2.34956 h 11.03724 v 2.34956 h -4.11173 v 11.53936 z"
         id="path126315"
         style="fill:#d2ac95;fill-opacity:1" />
      <path
         d="m 288.01431,467.44968 v -13.88892 h 4.50016 q 2.55798,0 3.33485,0.20843 1.19373,0.31264 1.99902,1.36426 0.80529,1.04214 0.80529,2.70009 0,1.279 -0.46422,2.15061 -0.46423,0.87161 -1.18426,1.37373 -0.71055,0.49265 -1.44952,0.65371 -1.00425,0.19895 -2.90853,0.19895 h -1.82848 v 5.23914 z m 2.80431,-11.53936 v 3.94119 h 1.53479 q 1.65795,0 2.21692,-0.2179 0.55897,-0.21791 0.87161,-0.68213 0.32212,-0.46423 0.32212,-1.08004 0,-0.75792 -0.44528,-1.25057 -0.44528,-0.49265 -1.12741,-0.61581 -0.50212,-0.0947 -2.01797,-0.0947 z"
         id="path126317"
         style="fill:#d2ac95;fill-opacity:1" />
      <path
         d="m 300.93688,453.56076 h 2.80431 v 7.52237 q 0,1.79059 0.10421,2.32114 0.18001,0.85266 0.85266,1.37373 0.68213,0.5116 1.85691,0.5116 1.19373,0 1.80007,-0.48318 0.60633,-0.49265 0.7295,-1.2032 0.12316,-0.71055 0.12316,-2.35903 v -7.68343 h 2.80431 v 7.295 q 0,2.50114 -0.22738,3.53381 -0.22737,1.03267 -0.84319,1.74322 -0.60633,0.71055 -1.62953,1.13688 -1.02319,0.41686 -2.67167,0.41686 -1.98955,0 -3.02222,-0.45476 -1.02319,-0.46422 -1.62005,-1.19372 -0.59687,-0.73898 -0.78635,-1.54427 -0.27474,-1.19373 -0.27474,-3.52434 z"
         id="path126319"
         style="fill:#d2ac95;fill-opacity:1" />
      <path
         d="m 318.09433,467.44968 v -11.53936 h -4.1212 v -2.34956 h 11.03724 v 2.34956 h -4.11173 v 11.53936 z"
         id="path126321"
         style="fill:#d2ac95;fill-opacity:1" />
    </g>
    <path
       style="color:#000000;display:inline;fill:#d2ac95;fill-opacity:1;stroke-dasharray:7.9375, 7.9375;-inkscape-stroke:none"
       d="m 70.115234,171.97917 v 5.29102 h 2.646485 v -5.29102 z m 0,13.22852 v 7.9375 h 2.644532 l 0.002,-7.9375 z m 0,15.875 v 7.9375 h 2.644532 v -7.9375 z m 0,15.875 v 7.9375 h 2.644532 v -7.9375 z m 0,15.875 v 7.9375 h 2.644532 v -7.9375 z m 0,15.875 -0.002,7.9375 h 2.646485 v -7.9375 z m -0.002,15.875 v 7.9375 h 2.646485 v -7.9375 z"
       id="path1270-8-2-5-8-1-1-9-5" />
    <path
       style="color:#000000;display:inline;fill:#d2ac95;fill-opacity:1;-inkscape-stroke:none"
       d="m 70.115234,275.16602 -0.002,93.92773 h 2.646485 l 0.002,-93.92773 z"
       id="path1270-8-2-5-8-1-1-9-5-0" />
    <path
       style="color:#000000;display:inline;fill:#d2ac95;fill-opacity:1;-inkscape-stroke:none"
       d="m 177.27148,275.16602 -0.002,93.92773 h 2.64649 l 0.002,-93.92773 z"
       id="path1270-8-2-5-8-1-1-9-5-0-6" />
    <path
       style="color:#000000;display:inline;fill:#d2ac95;fill-opacity:1;-inkscape-stroke:none"
       d="m 284.42773,275.16602 -0.002,93.92773 h 2.64649 l 0.002,-93.92773 z"
       id="path1270-8-2-5-8-1-1-9-5-0-8" />
    <path
       style="color:#000000;display:inline;fill:#d2ac95;fill-opacity:1;stroke-dasharray:7.9375, 7.9375;-inkscape-stroke:none"
       d="m 177.27148,171.97917 v 5.29102 h 2.64649 v -5.29102 z m 0,13.22852 v 7.9375 h 2.64454 l 0.002,-7.9375 z m 0,15.875 v 7.9375 h 2.64454 v -7.9375 z m 0,15.875 v 7.9375 h 2.64454 v -7.9375 z m 0,15.875 v 7.9375 h 2.64454 v -7.9375 z m 0,15.875 -0.002,7.9375 h 2.64649 v -7.9375 z m -0.002,15.875 v 7.9375 h 2.64649 v -7.9375 z"
       id="path1270-8-2-5-8-1-1-9-5-6" />
    <path
       style="color:#000000;display:inline;fill:#d2ac95;fill-opacity:1;stroke-dasharray:7.9375, 7.9375;-inkscape-stroke:none"
       d="m 284.42773,171.97917 v 5.29102 h 2.64649 v -5.29102 z m 0,13.22852 v 7.9375 h 2.64454 l 0.002,-7.9375 z m 0,15.875 v 7.9375 h 2.64454 v -7.9375 z m 0,15.875 v 7.9375 h 2.64454 v -7.9375 z m 0,15.875 v 7.9375 h 2.64454 v -7.9375 z m 0,15.875 -0.002,7.9375 h 2.64649 v -7.9375 z m -0.002,15.875 v 7.9375 h 2.64649 v -7.9375 z"
       id="path1270-8-2-5-8-1-1-9-5-2" />
    <g
       aria-label="PAN 3D"
       id="text154630"
       style="font-weight:bold;font-size:31.75px;line-height:1.25;font-family:Arial;-inkscape-font-specification:'Arial, Bold';font-variant-ligatures:none;text-align:center;text-anchor:middle;fill:#d2ac95;stroke-width:2.64583">
      <path
         d="M 123.49634,51.467602 V 28.740307 h 7.36389 q 4.18579,0 5.45703,0.341064 1.95337,0.511597 3.27112,2.232422 1.31775,1.705322 1.31775,4.418335 0,2.092896 -0.75965,3.519165 -0.75964,1.42627 -1.93786,2.247925 -1.16272,0.806152 -2.37195,1.069702 -1.64331,0.325562 -4.7594,0.325562 h -2.99206 v 8.57312 z m 4.58887,-18.882569 v 6.449219 h 2.51147 q 2.71301,0 3.62769,-0.356567 0.91467,-0.356568 1.42626,-1.116211 0.5271,-0.759644 0.5271,-1.767334 0,-1.240235 -0.72863,-2.046387 -0.72864,-0.806152 -1.84485,-1.00769 -0.82166,-0.15503 -3.30213,-0.15503 z"
         id="path3117" />
      <path
         d="m 162.81177,51.467602 h -4.99195 l -1.98437,-5.162476 h -9.08472 l -1.87585,5.162476 h -4.86792 l 8.85217,-22.727295 h 4.85242 z m -8.4491,-8.991699 -3.13159,-8.433594 -3.06958,8.433594 z"
         id="path3119" />
      <path
         d="M 165.29224,51.467602 V 28.740307 h 4.46484 l 9.30176,15.177368 V 28.740307 h 4.2633 v 22.727295 h -4.60437 l -9.16223,-14.820801 v 14.820801 z"
         id="path3121" />
      <path
         d="m 195.87952,45.436962 4.21679,-0.511597 q 0.20154,1.612305 1.08521,2.464966 0.88367,0.852661 2.1394,0.852661 1.34876,0 2.26343,-1.023193 0.93018,-1.023193 0.93018,-2.759521 0,-1.643311 -0.88367,-2.604493 -0.88367,-0.961181 -2.15491,-0.961181 -0.83716,0 -1.99988,0.325561 l 0.4806,-3.550171 q 1.76733,0.04651 2.6975,-0.759643 0.93018,-0.821655 0.93018,-2.17041 0,-1.147217 -0.68213,-1.829346 -0.68213,-0.682129 -1.81384,-0.682129 -1.11621,0 -1.90686,0.775147 -0.79065,0.775146 -0.96118,2.263427 l -4.01526,-0.682129 q 0.41858,-2.061889 1.25574,-3.286621 0.85266,-1.240234 2.35644,-1.937866 1.51929,-0.713135 3.39514,-0.713135 3.20911,0 5.14697,2.046387 1.59681,1.674316 1.59681,3.782715 0,2.992065 -3.27112,4.774902 1.95337,0.418579 3.11609,1.875855 1.17822,1.457275 1.17822,3.519165 0,2.992065 -2.18591,5.100464 -2.18592,2.108398 -5.44153,2.108398 -3.08508,0 -5.11597,-1.767334 -2.03088,-1.782837 -2.35644,-4.650879 z"
         id="path3123" />
      <path
         d="m 214.63806,28.740307 h 8.38709 q 2.83703,0 4.32531,0.434082 1.99988,0.589111 3.42615,2.092895 1.42627,1.503785 2.17041,3.689698 0.74414,2.17041 0.74414,5.364013 0,2.806031 -0.69763,4.836914 -0.85266,2.480469 -2.43396,4.015259 -1.19373,1.16272 -3.22461,1.813843 -1.51929,0.480591 -4.06177,0.480591 h -8.63513 z m 4.58887,3.844726 v 15.053345 h 3.42615 q 1.92236,0 2.77502,-0.217041 1.11621,-0.279053 1.84485,-0.945679 0.74414,-0.666626 1.20923,-2.185913 0.46509,-1.53479 0.46509,-4.170288 0,-2.635498 -0.46509,-4.046264 -0.46509,-1.410767 -1.30225,-2.201416 -0.83716,-0.79065 -2.1239,-1.069703 -0.96118,-0.217041 -3.76721,-0.217041 z"
         id="path3125" />
    </g>
  </g>
  <g
     inkscape:groupmode="layer"
     id="layer7"
     inkscape:label="Alternate Solid"
     style="display:inline" />
  <g
     inkscape:groupmode="layer"
     id="layer6"
     inkscape:label="Line"
     style="display:inline" />
  <g
     inkscape:groupmode="layer"
     id="layer1"
     inkscape:label="Inverse Solid"
     style="display:inline">
    <g
       aria-label="X"
       id="text11170"
       style="font-weight:bold;font-size:21.1667px;line-height:1.25;font-family:Arial;-inkscape-font-specification:'Arial, Bold';font-variant-ligatures:none;text-align:center;text-anchor:middle;display:inline;fill:#423932;fill-opacity:1;stroke-width:2.64583">
      <path
         d="m 129.21682,922.5202 5.17799,-7.9065 -4.69223,-7.24505 h 3.57602 l 3.03857,4.86793 2.97657,-4.86793 h 3.54501 l -4.7129,7.35873 5.17799,7.79282 h -3.6897 l -3.35898,-5.24 -3.36931,5.24 z"
         id="path43110"
         style="fill:#423932;fill-opacity:1" />
    </g>
    <g
       aria-label="Y"
       id="text11170-1"
       style="font-weight:bold;font-size:21.1667px;line-height:1.25;font-family:Arial;-inkscape-font-specification:'Arial, Bold';font-variant-ligatures:none;text-align:center;text-anchor:middle;display:inline;fill:#423932;fill-opacity:1;stroke-width:2.64583">
      <path
         d="m 36.92583,821.16998 v -6.37688 l -5.550058,-8.77467 h 3.58635 l 3.56568,5.99447 3.493332,-5.99447 h 3.524338 l -5.570728,8.79534 v 6.35621 z"
         id="path43107"
         style="fill:#423932;fill-opacity:1" />
    </g>
    <g
       aria-label="Z"
       id="text11170-7"
       style="font-weight:bold;font-size:21.1667px;line-height:1.25;font-family:Arial;-inkscape-font-specification:'Arial, Bold';font-variant-ligatures:none;text-align:center;text-anchor:middle;display:inline;fill:#423932;fill-opacity:1;stroke-width:2.64583">
      <path
         d="m 272.07371,873.25256 v -2.75952 l 7.95818,-9.82888 h -7.05901 v -2.56315 h 11.08978 v 2.37712 l -8.29925,10.22161 h 8.61965 v 2.55282 z"
         id="path43113"
         style="fill:#423932;fill-opacity:1" />
    </g>
    <g
       aria-label="OUTPUTS"
       id="text108859"
       style="font-weight:bold;font-size:26.4583px;line-height:1.25;font-family:Arial;-inkscape-font-specification:'Arial, Bold';font-variant-ligatures:none;text-align:center;text-anchor:middle;display:inline;fill:#423932;fill-opacity:1;stroke-width:2.64583"
       transform="translate(505.51406)">
      <path
         d="m -388.9061,584.41934 q 0,-2.89387 0.86558,-4.85757 0.64595,-1.44694 1.757,-2.59674 1.12396,-1.1498 2.45462,-1.70532 1.76992,-0.74931 4.08244,-0.74931 4.18578,0 6.69209,2.59674 2.51922,2.59674 2.51922,7.22177 0,4.58628 -2.49339,7.18302 -2.49338,2.58381 -6.66625,2.58381 -4.22454,0 -6.71793,-2.5709 -2.49338,-2.58381 -2.49338,-7.1055 z m 3.94032,-0.12919 q 0,3.21686 1.4857,4.88342 1.48569,1.65364 3.77237,1.65364 2.28668,0 3.74654,-1.64072 1.47278,-1.65365 1.47278,-4.94801 0,-3.25561 -1.43402,-4.85758 -1.4211,-1.60197 -3.7853,-1.60197 -2.36419,0 -3.81113,1.62781 -1.44694,1.61488 -1.44694,4.88341 z"
         id="path112968"
         style="fill:#423932;fill-opacity:1" />
      <path
         d="m -367.57668,574.83338 h 3.82405 v 10.25776 q 0,2.4417 0.14211,3.16517 0.24546,1.16272 1.16272,1.87327 0.93017,0.69763 2.53214,0.69763 1.62781,0 2.45463,-0.65887 0.82682,-0.67179 0.99477,-1.64073 0.16795,-0.96893 0.16795,-3.21685 v -10.47738 h 3.82405 v 9.9477 q 0,3.41064 -0.31006,4.81882 -0.31006,1.40818 -1.1498,2.37711 -0.82682,0.96893 -2.22208,1.55029 -1.39526,0.56844 -3.64319,0.56844 -2.71301,0 -4.12119,-0.62011 -1.39526,-0.63304 -2.20916,-1.62781 -0.8139,-1.00769 -1.07229,-2.10581 -0.37465,-1.62781 -0.37465,-4.8059 z"
         id="path112970"
         style="fill:#423932;fill-opacity:1" />
      <path
         d="m -344.18021,593.77277 v -15.73546 h -5.6198 v -3.20393 h 15.05074 v 3.20393 h -5.60689 v 15.73546 z"
         id="path112972"
         style="fill:#423932;fill-opacity:1" />
      <path
         d="m -332.28172,593.77277 v -18.93939 h 6.13657 q 3.48815,0 4.54752,0.28422 1.6278,0.42633 2.72592,1.86035 1.09813,1.4211 1.09813,3.68194 0,1.74408 -0.63304,2.93263 -0.63303,1.18856 -1.61488,1.87327 -0.96894,0.67179 -1.97663,0.89142 -1.36942,0.2713 -3.96616,0.2713 h -2.49338 v 7.14426 z m 3.82405,-15.73546 v 5.37434 h 2.09289 q 2.26084,0 3.02307,-0.29713 0.76223,-0.29714 1.18856,-0.93018 0.43924,-0.63303 0.43924,-1.47278 0,-1.03352 -0.60719,-1.70532 -0.6072,-0.67179 -1.53737,-0.83974 -0.68472,-0.12919 -2.75177,-0.12919 z"
         id="path112974"
         style="fill:#423932;fill-opacity:1" />
      <path
         d="m -314.66008,574.83338 h 3.82405 v 10.25776 q 0,2.4417 0.14211,3.16517 0.24546,1.16272 1.16272,1.87327 0.93017,0.69763 2.53214,0.69763 1.62781,0 2.45463,-0.65887 0.82682,-0.67179 0.99477,-1.64073 0.16795,-0.96893 0.16795,-3.21685 v -10.47738 h 3.82405 v 9.9477 q 0,3.41064 -0.31006,4.81882 -0.31006,1.40818 -1.1498,2.37711 -0.82682,0.96893 -2.22208,1.55029 -1.39527,0.56844 -3.64319,0.56844 -2.71301,0 -4.12119,-0.62011 -1.39526,-0.63304 -2.20916,-1.62781 -0.81391,-1.00769 -1.07229,-2.10581 -0.37465,-1.62781 -0.37465,-4.8059 z"
         id="path112976"
         style="fill:#423932;fill-opacity:1" />
      <path
         d="m -291.2636,593.77277 v -15.73546 h -5.61981 v -3.20393 h 15.05074 v 3.20393 h -5.60688 v 15.73546 z"
         id="path112978"
         style="fill:#423932;fill-opacity:1" />
      <path
         d="m -280.33406,587.61036 3.7207,-0.36174 q 0.3359,1.87327 1.35651,2.75177 1.03353,0.8785 2.7776,0.8785 1.84743,0 2.77761,-0.77515 0.94309,-0.78806 0.94309,-1.83451 0,-0.67179 -0.40049,-1.13688 -0.38757,-0.478 -1.36942,-0.82682 -0.6718,-0.23254 -3.06183,-0.82682 -3.07474,-0.76223 -4.31498,-1.87327 -1.74407,-1.56321 -1.74407,-3.81113 0,-1.44694 0.8139,-2.70009 0.82682,-1.26607 2.36419,-1.92495 1.55029,-0.65887 3.73362,-0.65887 3.56567,0 5.36142,1.56321 1.80868,1.56321 1.89911,4.17287 l -3.82405,0.16795 q -0.24546,-1.45986 -1.05937,-2.0929 -0.80098,-0.64595 -2.41587,-0.64595 -1.66656,0 -2.60965,0.68471 -0.6072,0.43925 -0.6072,1.17564 0,0.67179 0.56844,1.1498 0.72347,0.60719 3.51399,1.26607 2.79053,0.65887 4.12119,1.36942 1.34359,0.69763 2.0929,1.92495 0.76222,1.21439 0.76222,3.01014 0,1.62781 -0.90433,3.04891 -0.90434,1.4211 -2.55798,2.11873 -1.65365,0.68471 -4.12119,0.68471 -3.59151,0 -5.51646,-1.65364 -1.92494,-1.66656 -2.2996,-4.84466 z"
         id="path112980"
         style="fill:#423932;fill-opacity:1" />
    </g>
    <path
       style="color:#000000;display:inline;fill:#423932;fill-opacity:1;-inkscape-stroke:none"
       d="M 50.271484,728.92773 V 898.26172 H 55.5625 l 0.002,-169.33399 z"
       id="path1270-8-2-5-8-1" />
    <path
       style="color:#000000;display:inline;fill:#423932;fill-opacity:1;-inkscape-stroke:none"
       d="m 218.28125,728.92773 v 169.33399 h 5.29102 l 0.002,-169.33399 z"
       id="path1270-8-2-5-8-1-1" />
    <path
       style="color:#000000;display:inline;fill:#423932;fill-opacity:1;-inkscape-stroke:none"
       d="m 51.59375,895.61523 v 5.29102 h 169.33398 v -5.29102 z"
       id="path1270-8-2-5-8-1-1-8" />
    <path
       style="color:#000000;display:inline;fill:#423932;fill-opacity:1;-inkscape-stroke:none"
       d="m 51.59375,726.28125 v 5.29297 h 169.33398 v -5.29297 z"
       id="path1270-8-2-5-8-1-1-8-7" />
    <path
       style="color:#000000;display:inline;fill:#423932;fill-opacity:1;-inkscape-stroke:none"
       d="m 134.42383,642.625 -83.248049,84.57617 3.771485,3.71094 83.248044,-84.57422 z"
       id="path1270-8-2-5-8-1-1-8-7-8" />
    <path
       style="color:#000000;display:inline;fill:#423932;fill-opacity:1;stroke-dasharray:7.93749, 7.93749;-inkscape-stroke:none"
       d="m 135.36719,812.88672 -5.56836,5.65625 1.88476,1.85547 5.56836,-5.65625 z m -11.13672,11.3125 -5.56836,5.6582 1.88672,1.85547 5.56836,-5.65625 z m -11.13672,11.31445 -5.56836,5.65625 1.88672,1.85742 5.56836,-5.6582 z m -11.13477,11.31445 -5.568355,5.65625 1.884766,1.85547 5.568359,-5.65625 z m -11.136714,11.3125 -5.56836,5.65821 1.884766,1.85547 5.568359,-5.65625 z m -11.136719,11.31446 -5.56836,5.65625 1.886719,1.85547 5.56836,-5.65625 z m -11.136719,11.31445 -5.566406,5.65625 1.884765,1.85547 5.56836,-5.65625 z m -11.134766,11.3125 -5.296875,5.38086 1.886719,1.85547 5.294922,-5.38086 z"
       id="path1270-8-2-5-8-1-1-8-7-8-5" />
    <path
       style="color:#000000;display:inline;fill:#423932;fill-opacity:1;-inkscape-stroke:none"
       d="m 303.75781,811.95898 -83.24804,84.57618 3.77148,3.71093 83.24805,-84.57617 z"
       id="path1270-8-2-5-8-1-1-8-7-8-5-2" />
    <path
       style="color:#000000;display:inline;fill:#423932;fill-opacity:1;-inkscape-stroke:none"
       d="m 303.75781,642.625 -83.24804,84.57617 3.77148,3.71094 83.24805,-84.57422 z"
       id="path1270-8-2-5-8-1-1-8-7-8-7" />
    <path
       style="color:#000000;display:inline;fill:#423932;fill-opacity:1;-inkscape-stroke:none"
       d="m 302.94922,644.26172 -0.002,169.33203 h 5.29296 V 644.26172 Z"
       id="path1270-8-2-5-8-1-1-5" />
    <path
       style="color:#000000;display:inline;fill:#423932;fill-opacity:1;stroke-dasharray:7.93749, 7.93749;-inkscape-stroke:none"
       d="m 134.9375,646.90625 v 7.9375 h 2.64648 v -7.9375 z m 0,15.875 v 7.9375 h 2.64648 v -7.9375 z m 0,15.875 v 7.9375 h 2.64648 v -7.9375 z m 0,15.875 v 7.9375 h 2.64648 v -7.9375 z m 0,15.875 v 7.9375 h 2.64648 v -7.9375 z m 0,15.875 v 7.9375 h 2.64648 v -7.9375 z m 0,15.875 v 7.9375 h 2.64648 v -7.9375 z m 0,15.875 v 7.9375 h 2.64648 v -7.9375 z m 0,15.875 v 7.9375 h 2.64453 v -7.9375 z m 0,15.875 v 7.9375 h 2.64453 v -7.9375 z m 0,15.875 v 7.9375 h 2.64453 v -7.9375 z"
       id="path1270-8-2-5-8-1-1-9" />
    <path
       style="color:#000000;display:inline;fill:#423932;fill-opacity:1;-inkscape-stroke:none"
       d="m 136.25977,641.61523 v 5.29102 h 169.33398 v -5.29102 z"
       id="path1270-8-2-5-8-1-1-8-3" />
    <path
       style="color:#000000;display:inline;fill:#423932;fill-opacity:1;stroke-dasharray:7.93749, 7.93749;-inkscape-stroke:none"
       d="m 138.90625,812.27148 v 2.64649 h 7.9375 v -2.64649 z m 15.875,0 v 2.64649 h 7.9375 v -2.64649 z m 15.875,0 v 2.64649 h 7.9375 v -2.64649 z m 15.875,0 v 2.64649 h 7.9375 v -2.64649 z m 15.875,0 v 2.64649 h 7.9375 v -2.64649 z m 15.875,0 v 2.64649 h 7.9375 v -2.64649 z m 15.875,0 v 2.64649 h 7.9375 v -2.64649 z m 15.875,0 v 2.64649 h 7.9375 v -2.64649 z m 15.875,0 v 2.64649 h 7.9375 v -2.64649 z m 15.875,0 v 2.64649 l 7.9375,-0.002 v -2.64454 z m 15.875,0 v 2.64454 h 7.9375 v -2.64454 z"
       id="path1270-8-2-5-8-1-1-8-3-9" />
  </g>
  <g
     inkscape:groupmode="layer"
     id="layer8"
     inkscape:label="Inverse Line"
     style="display:inline" />
  <g
     inkscape:groupmode="layer"
     id="layer2"
     inkscape:label="Widget"
     style="display:none">
    <circle
       style="display:inline;fill:#ff0000;stroke:#ff0000;stroke-width:5.15744;stroke-opacity:1"
       id="path1065-7-2-8-1-2-9-9-2"
       cx="285.75"
       cy="369.09415"
       r="27.848814" />
    <circle
       style="display:inline;fill:#ff0000;stroke:#ff0000;stroke-width:5.15744;stroke-opacity:1"
       id="path1065-7-2-8-1-2-9-9"
       cx="305.59399"
       cy="813.59424"
       r="27.848814" />
    <circle
       style="display:inline;fill:#ff0000;stroke:#ff0000;stroke-width:5.15744;stroke-opacity:1"
       id="path1065-7-2-8-1-11-6-8-9"
       cx="220.92715"
       cy="898.26086"
       r="27.848814" />
    <circle
       style="display:inline;fill:#ff0000;stroke:#ff0000;stroke-width:5.15744;stroke-opacity:1"
       id="path1065-7-2-8-1-110-3-0-0"
       cx="136.26033"
       cy="813.59424"
       r="27.848814" />
    <circle
       style="display:inline;fill:#ff0000;stroke:#ff0000;stroke-width:5.15744;stroke-opacity:1"
       id="path1065-7-2-8-1-110-3-0-0-6"
       cx="51.59351"
       cy="898.26086"
       r="27.848814" />
    <circle
       style="display:inline;fill:#ff0000;stroke:#ff0000;stroke-width:5.15744;stroke-opacity:1"
       id="path1065-7-2-8-1-13-1-9-1"
       cx="71.437508"
       cy="369.09415"
       r="27.848814" />
    <circle
       style="display:inline;fill:#ff0000;stroke:#ff0000;stroke-width:5.15744;stroke-opacity:1"
       id="path1065-7-2-8-1-13-6-9-7-5"
       cx="178.59375"
       cy="369.09415"
       r="27.848814" />
    <circle
       style="display:inline;fill:#ff0000;stroke:#ff0000;stroke-width:5.15744;stroke-opacity:1"
       id="path1065-7-2-8-1-6-0-2-4-3"
       cx="71.437508"
       cy="496.09421"
       r="27.848814" />
    <circle
       style="display:inline;fill:#ff0000;stroke:#ff0000;stroke-width:3.81202;stroke-opacity:1"
       id="path1065-7-2-8-1-1-3-1-5-6-7-3-4"
       cx="178.59375"
       cy="174.62502"
       r="35.135658" />
    <circle
       style="display:inline;fill:#ff0000;stroke:#ff0000;stroke-width:3.81202;stroke-opacity:1"
       id="path1065-7-2-8-1-1-3-1-5-6-7-3-4-0"
       cx="178.59375"
       cy="496.09421"
       r="35.135658" />
    <ellipse
       style="display:inline;fill:#ff0000;stroke:#ff0000;stroke-width:3.81202;stroke-opacity:1"
       id="path1065-7-2-8-1-1-3-1-5-6-7-3-4-2"
       cx="71.437508"
       cy="174.62502"
       rx="35.135662"
       ry="35.135658" />
    <ellipse
       style="display:inline;fill:#ff0000;stroke:#ff0000;stroke-width:3.81202;stroke-opacity:1"
       id="path1065-7-2-8-1-1-3-1-5-6-7-3-4-4"
       cx="285.75"
       cy="174.62502"
       rx="35.135662"
       ry="35.135658" />
    <circle
       style="display:inline;fill:#ff0000;stroke:#ff0000;stroke-width:5.15744;stroke-opacity:1"
       id="path1065-7-2-8-1-13-64-5-9-2"
       cx="136.26033"
       cy="644.26093"
       r="27.848814" />
    <ellipse
       style="display:inline;fill:#ff0000;stroke:#ff0000;stroke-width:5.15744;stroke-opacity:1"
       id="path1065-7-2-8-1-80-86-5-5"
       cx="51.59351"
       cy="728.92761"
       rx="27.848364"
       ry="27.848814" />
    <ellipse
       style="display:inline;fill:#ff0000;stroke:#ff0000;stroke-width:5.15744;stroke-opacity:1"
       id="path1065-7-2-8-1-80-8-9-2-7"
       cx="305.59399"
       cy="644.26093"
       rx="27.848364"
       ry="27.848814" />
    <circle
       style="display:inline;fill:#ff0000;stroke:#ff0000;stroke-width:5.15744;stroke-opacity:1"
       id="path1065-7-2-8-1-0-6-7-3-1"
       cx="178.59375"
       cy="275.16666"
       r="26.525448" />
    <circle
       style="display:inline;fill:#ff0000;stroke:#ff0000;stroke-width:5.15744;stroke-opacity:1"
       id="path1065-7-2-8-1-0-6-7-3-1-7"
       cx="285.75"
       cy="275.16666"
       r="26.525448" />
    <circle
       style="display:inline;fill:#ff0000;stroke:#ff0000;stroke-width:5.15744;stroke-opacity:1"
       id="path1065-7-2-8-1-0-6-7-3-1-0"
       cx="71.437508"
       cy="275.16666"
       r="26.525448" />
    <ellipse
       style="display:inline;fill:#ff0000;stroke:#ff0000;stroke-width:5.15744;stroke-opacity:1"
       id="path1065-7-2-8-1-80-5-1-2-5"
       cx="220.92715"
       cy="728.92761"
       rx="27.848364"
       ry="27.848814" />
    <circle
       style="display:inline;fill:#ff0000;stroke:#ff0000;stroke-width:4.03622;stroke-opacity:1"
       id="path1065-7-2-3-2-2-65-4"
       cx="285.75"
       cy="496.09421"
       r="21.794392" />
  </g>
</svg>
