<?xml version="1.0" encoding="UTF-8" standalone="no"?>
<svg
   width="105"
   height="380"
   viewBox="0 0 105 380"
   version="1.1"
   id="svg100"
   sodipodi:docname="REXCV_Earth.svg"
   inkscape:version="1.1.1 (3bf5ae0d25, 2021-09-20)"
   xmlns:inkscape="http://www.inkscape.org/namespaces/inkscape"
   xmlns:sodipodi="http://sodipodi.sourceforge.net/DTD/sodipodi-0.dtd"
   xmlns="http://www.w3.org/2000/svg"
   xmlns:svg="http://www.w3.org/2000/svg"
   xmlns:rdf="http://www.w3.org/1999/02/22-rdf-syntax-ns#"
   xmlns:cc="http://creativecommons.org/ns#"
   xmlns:dc="http://purl.org/dc/elements/1.1/">
  <metadata
     id="metadata104">
    <rdf:RDF>
      <cc:Work
         rdf:about="">
        <dc:format>image/svg+xml</dc:format>
        <dc:type
           rdf:resource="http://purl.org/dc/dcmitype/StillImage" />
      </cc:Work>
    </rdf:RDF>
  </metadata>
  <sodipodi:namedview
     pagecolor="#ffffff"
     bordercolor="#666666"
     borderopacity="1"
     objecttolerance="1"
     gridtolerance="1"
     guidetolerance="1"
     inkscape:pageopacity="0"
     inkscape:pageshadow="2"
     inkscape:window-width="1920"
     inkscape:window-height="1057"
     id="namedview102"
     showgrid="true"
     inkscape:zoom="2.2342105"
     inkscape:cx="40.282686"
     inkscape:cy="188.20966"
     inkscape:window-x="1592"
     inkscape:window-y="-8"
     inkscape:window-maximized="1"
     inkscape:current-layer="layer5"
     inkscape:pagecheckerboard="0"
     units="px"
     inkscape:showpageshadow="false">
    <inkscape:grid
       type="xygrid"
       id="grid1285"
       visible="false" />
  </sodipodi:namedview>
  <defs
     id="defs7">
    <rect
       x="85"
       y="10"
       width="51.058132"
       height="25"
       id="rect29906" />
    <linearGradient
       id="a8e142bb-541b-4903-be63-d5d069028a5d"
       x1="22.5"
       x2="22.5"
       y2="380"
       gradientUnits="userSpaceOnUse">
      <stop
         offset="0"
         stop-color="#ebebeb"
         id="stop2" />
      <stop
         offset="1"
         stop-color="#e1e1e1"
         id="stop4" />
    </linearGradient>
  </defs>
  <g
     inkscape:groupmode="layer"
     id="layer3"
     inkscape:label="Faceplate"
     style="display:inline">
    <g
       id="aea613ef-74be-49bf-be45-c0734aee674b"
       data-name="FND BG"
       style="fill:#423932;fill-opacity:1;stroke-width:0.845154"
       transform="scale(2.3333333,1)">
      <rect
         width="45"
         height="380"
         fill="url(#a8e142bb-541b-4903-be63-d5d069028a5d)"
         id="rect9"
         style="fill:#423932;fill-opacity:1;stroke-width:0.845154"
         x="0"
         y="0" />
    </g>
  </g>
  <g
     inkscape:groupmode="layer"
     id="layer4"
     inkscape:label="Brand"
     style="display:inline">
    <g
       id="g42796"
       transform="matrix(0.30458296,0,0,0.30458296,29.437549,-12.68508)"
       style="fill:#ff0000">
      <g
         aria-label="enom"
         id="text4270-27"
         style="font-size:49.3889px;line-height:1.25;font-family:'NECK ROMANCER';-inkscape-font-specification:'NECK ROMANCER, Normal';font-variant-ligatures:none;text-align:center;text-anchor:middle;fill:#ff0000;stroke-width:2.64583">
        <path
           d="m 46.609141,1249.244 q 0,1.1576 0,3.4245 3.183269,0 9.453344,0 -1.639866,0.5787 -2.990343,1.2058 -1.350478,0.627 -2.363337,1.688 -1.350477,0 -4.051433,0 0,1.4952 0.434082,2.5563 0.385851,1.1093 1.832792,1.1093 2.266873,0 6.80062,0 0.482313,-0.1447 0.868164,-0.627 0.337619,-0.5305 0.627007,-1.7363 0,2.0257 0,6.1254 -3.520888,0 -10.562665,0 -1.543403,0 -2.652724,-2.2187 -1.109321,-2.1704 -1.109321,-6.3183 0,-1.9775 0,-5.836 -0.385851,-1.3504 -1.881023,-2.1221 -1.495171,-0.7235 -3.569119,-1.2058 6.607694,0 19.774852,0 0,2.9421 0,8.7781 -1.205783,-2.701 -2.218642,-3.6656 -1.012858,-0.9646 -2.700955,-1.1093 -0.916396,-0.097 -2.170411,-0.097 -1.205783,0.048 -2.845649,0.048 -0.241157,0 -0.675239,0 z"
           id="path42762"
           style="fill:#ff0000" />
        <path
           d="m 81.576869,1245.2891 q 0,5.8842 0,17.7009 0,3.0868 -0.144694,6.0771 -0.09646,3.0386 -0.337619,5.9325 -0.385851,-3.7138 -0.964627,-6.9936 -0.530545,-3.3279 -2.025717,-5.016 0,-2.9904 0,-8.9228 -0.241157,-1.3505 -0.72347,-2.2187 -0.482314,-0.8681 -1.06109,-1.3987 -1.109321,-1.0128 -2.411567,-1.1093 -1.350478,-0.097 -2.266874,-0.097 -0.482313,0 -1.44694,0 0,4.582 0,13.746 0,3.0868 -0.09646,6.0771 -0.144694,3.0386 -0.385851,5.9325 -0.38585,-3.7138 -0.916395,-6.9936 -0.578776,-3.3279 -2.025717,-5.016 0,-4.8232 0,-14.373 -0.385851,-1.3504 -1.881022,-2.1221 -1.495172,-0.7235 -3.56912,-1.2058 6.752389,0 20.257166,0 z"
           id="path42764"
           style="fill:#ff0000" />
        <path
           d="m 104.19737,1249.0511 q 0,3.3762 0,10.1768 0,1.5434 -1.92925,2.6528 -1.92926,1.1093 -6.077152,1.1093 -4.196128,0 -6.125382,-1.1093 -1.929254,-1.1094 -1.929254,-2.6528 0,-3.3762 0,-10.1768 0,-1.5434 1.929254,-2.6527 1.929254,-1.1093 6.125382,-1.1093 4.147892,0 6.077152,1.1093 1.92925,1.1093 1.92925,2.6527 z m -3.76204,7.91 q 0,-1.8811 0,-5.6431 0,-1.6881 -1.254019,-1.9775 -1.205783,-0.2894 -2.990343,-0.2894 -1.832792,0 -3.038575,0.2894 -1.254015,0.2894 -1.254015,1.9775 0,1.881 0,5.6431 0,1.6881 1.254015,1.9774 1.205783,0.2894 3.038575,0.2894 1.78456,0 2.990343,-0.2894 1.254019,-0.2893 1.254019,-1.9774 z"
           id="path42766"
           style="fill:#ff0000" />
        <path
           d="m 142.34837,1245.2891 q -2.02572,0.4823 -3.52089,1.2058 -1.5434,0.7717 -1.88102,2.1221 0,4.7749 0,14.373 -1.49517,1.6881 -2.02572,5.016 -0.57878,3.2798 -0.96463,6.9936 -0.24115,-2.8939 -0.33762,-5.9325 -0.14469,-2.9903 -0.14469,-6.0771 0,-4.582 0,-13.746 -0.48231,0 -1.39871,0 -0.53054,0 -1.15755,0 -0.62701,0 -1.30225,0.1447 -1.25401,0.2412 -2.41157,1.2058 -1.15755,0.9646 -1.63986,3.4727 0,2.9903 0,8.9228 -0.1447,0.627 -0.28939,1.1093 -0.0965,0.4823 -0.19292,0.8199 -0.53055,1.9775 -0.38586,1.3505 0.19293,-0.627 -0.28938,1.1576 -0.0965,0.3376 -0.24116,0.8681 -0.14469,0.5306 -0.33762,1.3023 -0.14469,-0.6753 -0.28939,-1.2058 -0.14469,-0.4823 -0.24115,-0.8199 -0.53055,-2.0258 -0.33762,-1.3023 0.19292,0.7717 -0.43409,-1.6881 -0.0482,-0.2894 -0.19292,-0.7235 -0.0965,-0.3858 -0.19293,-0.8681 0,-2.9904 0,-8.9228 -0.28939,-1.3505 -0.7717,-2.2187 -0.48231,-0.8681 -1.06109,-1.3987 -1.10932,-1.0128 -2.41157,-1.1093 -1.30224,-0.097 -2.26687,-0.097 -0.48231,0 -1.39871,0 0,4.582 0,13.746 0,3.0868 -0.14469,6.0771 -0.0965,3.0386 -0.33762,5.9325 -0.38585,-3.7138 -0.96463,-6.9936 -0.53054,-3.3279 -2.02572,-5.016 0,-4.8232 0,-14.373 -0.38585,-1.3504 -1.88102,-2.1221 -1.49517,-0.7235 -3.56912,-1.2058 3.95497,0 11.76845,0 1.15755,0.3858 3.47266,1.1575 0.7717,0.2894 1.59163,0.4341 0.81994,0.1447 1.6881,0.1447 0.86816,0 1.73633,-0.1447 0.81993,-0.1447 1.59163,-0.4341 1.15756,-0.3858 3.42443,-1.1575 3.95497,0 11.76845,0 z"
           id="path42768"
           style="fill:#ff0000" />
      </g>
      <g
         aria-label="V"
         transform="matrix(1.2363173,0,0,0.80885384,-497.88086,123.48586)"
         id="text4270-3-5-2"
         style="font-size:78.5061px;line-height:1.25;font-family:Nosferotica;-inkscape-font-specification:'Nosferotica, Normal';font-variant-ligatures:none;text-align:center;text-anchor:middle;fill:#ff0000;stroke-width:3.27108">
        <path
           d="m 431.64994,1360.6864 8.57428,-0.1022 c 0,0 -4.4079,1.0878 -5.59925,3.7285 -1.88083,4.1689 -3.64217,14.6628 -3.64217,14.6628 l -2.23339,11.5191 -1.83311,11.8311 -1.71824,21.3112 -1.69514,-21.3112 -1.92196,-11.5208 -2.5009,-11.8294 c 0,0 -1.52027,-10.287 -3.38278,-14.4832 -1.14458,-2.5787 -5.63367,-3.8059 -5.63367,-3.8059 h 8.4657 l 6.66875,29.1569 z"
           id="path30410"
           sodipodi:nodetypes="ccscccccccscccc"
           style="fill:#ff0000" />
      </g>
    </g>
  </g>
  <g
     inkscape:groupmode="layer"
     id="layer5"
     inkscape:label="Solid"
     style="display:inline">
    <g
       aria-label="OFF3"
       id="text11936-6-1"
       style="font-weight:bold;font-size:8px;line-height:1.25;font-family:Arial;-inkscape-font-specification:'Arial, Bold';font-variant-ligatures:none;text-align:center;text-anchor:middle;display:inline;fill:#d2ac95;fill-opacity:1"
       transform="translate(0,0.334998)">
      <path
         d="m 74.623047,66.270096 q 0,-0.875 0.261719,-1.46875 0.195312,-0.4375 0.53125,-0.785156 0.339843,-0.347657 0.742187,-0.515625 0.535156,-0.226563 1.234375,-0.226563 1.265625,0 2.023438,0.785156 0.761718,0.785157 0.761718,2.183594 0,1.386719 -0.753906,2.171875 -0.753906,0.78125 -2.015625,0.78125 -1.277344,0 -2.03125,-0.777344 -0.753906,-0.78125 -0.753906,-2.148437 z m 1.191406,-0.03906 q 0,0.972657 0.449219,1.476563 0.449219,0.5 1.140625,0.5 0.691406,0 1.132812,-0.496094 0.445313,-0.5 0.445313,-1.496094 0,-0.984375 -0.433594,-1.46875 -0.429687,-0.484375 -1.144531,-0.484375 -0.714844,0 -1.152344,0.492188 -0.4375,0.488281 -0.4375,1.476562 z"
         id="path28686"
         style="fill:#d2ac95;fill-opacity:1" />
      <path
         d="m 81.087891,69.098221 v -5.726563 h 3.925781 v 0.96875 h -2.769531 v 1.355469 h 2.390625 v 0.96875 h -2.390625 v 2.433594 z"
         id="path28688"
         style="fill:#d2ac95;fill-opacity:1" />
      <path
         d="m 85.974609,69.098221 v -5.726563 h 3.925782 v 0.96875 h -2.769532 v 1.355469 h 2.390625 v 0.96875 h -2.390625 v 2.433594 z"
         id="path28690"
         style="fill:#d2ac95;fill-opacity:1" />
      <path
         d="m 90.572266,67.57869 1.0625,-0.128907 q 0.05078,0.40625 0.273437,0.621094 0.222656,0.214844 0.539063,0.214844 0.339843,0 0.570312,-0.257813 0.234375,-0.257812 0.234375,-0.695312 0,-0.414063 -0.222656,-0.65625 -0.222656,-0.242188 -0.542969,-0.242188 -0.210937,0 -0.503906,0.08203 l 0.121094,-0.894532 q 0.445312,0.01172 0.679687,-0.191406 0.234375,-0.207031 0.234375,-0.546875 0,-0.289062 -0.171875,-0.460937 -0.171875,-0.171875 -0.457031,-0.171875 -0.28125,0 -0.480469,0.195312 -0.199219,0.195313 -0.242187,0.570313 l -1.011719,-0.171875 q 0.105469,-0.519532 0.316406,-0.828125 0.214844,-0.3125 0.59375,-0.488282 0.382813,-0.179687 0.855469,-0.179687 0.808594,0 1.296875,0.515625 0.402344,0.421875 0.402344,0.953125 0,0.753906 -0.824219,1.203125 0.492187,0.105469 0.785156,0.472656 0.296875,0.367188 0.296875,0.886719 0,0.753906 -0.550781,1.285156 -0.550781,0.53125 -1.371094,0.53125 -0.777344,0 -1.289062,-0.445312 -0.511719,-0.449219 -0.59375,-1.171875 z"
         id="path28692"
         style="fill:#d2ac95;fill-opacity:1" />
    </g>
    <g
       aria-label="OFF2"
       id="text11936-6-1-8"
       style="font-weight:bold;font-size:8px;line-height:1.25;font-family:Arial;-inkscape-font-specification:'Arial, Bold';font-variant-ligatures:none;text-align:center;text-anchor:middle;display:inline;fill:#d2ac95;fill-opacity:1"
       transform="translate(0,0.334998)">
      <path
         d="m 42.652344,66.270096 q 0,-0.875 0.261718,-1.46875 0.195313,-0.4375 0.53125,-0.785156 0.339844,-0.347657 0.742188,-0.515625 0.535156,-0.226563 1.234375,-0.226563 1.265625,0 2.023437,0.785156 0.761719,0.785157 0.761719,2.183594 0,1.386719 -0.753906,2.171875 -0.753906,0.78125 -2.015625,0.78125 -1.277344,0 -2.03125,-0.777344 -0.753906,-0.78125 -0.753906,-2.148437 z m 1.191406,-0.03906 q 0,0.972657 0.449219,1.476563 0.449218,0.5 1.140625,0.5 0.691406,0 1.132812,-0.496094 0.445313,-0.5 0.445313,-1.496094 0,-0.984375 -0.433594,-1.46875 -0.429688,-0.484375 -1.144531,-0.484375 -0.714844,0 -1.152344,0.492188 -0.4375,0.488281 -0.4375,1.476562 z"
         id="path28695"
         style="fill:#d2ac95;fill-opacity:1" />
      <path
         d="m 49.117187,69.098221 v -5.726563 h 3.925782 v 0.96875 h -2.769532 v 1.355469 h 2.390625 v 0.96875 h -2.390625 v 2.433594 z"
         id="path28697"
         style="fill:#d2ac95;fill-opacity:1" />
      <path
         d="m 54.003906,69.098221 v -5.726563 h 3.925781 v 0.96875 h -2.769531 v 1.355469 h 2.390625 v 0.96875 h -2.390625 v 2.433594 z"
         id="path28699"
         style="fill:#d2ac95;fill-opacity:1" />
      <path
         d="m 62.347656,68.07869 v 1.019531 H 58.5 q 0.0625,-0.578125 0.375,-1.09375 0.3125,-0.519531 1.234375,-1.375 0.742187,-0.691406 0.910156,-0.9375 0.226563,-0.339844 0.226563,-0.671875 0,-0.367188 -0.199219,-0.5625 -0.195313,-0.199219 -0.542969,-0.199219 -0.34375,0 -0.546875,0.207031 -0.203125,0.207032 -0.234375,0.6875 l -1.09375,-0.109375 q 0.09766,-0.90625 0.613281,-1.300781 0.515625,-0.394531 1.289063,-0.394531 0.847656,0 1.332031,0.457031 0.484375,0.457031 0.484375,1.136719 0,0.386719 -0.140625,0.738281 -0.136719,0.347656 -0.4375,0.730469 -0.199219,0.253906 -0.71875,0.730469 -0.519531,0.476562 -0.660156,0.632812 -0.136719,0.15625 -0.222656,0.304688 z"
         id="path28701"
         style="fill:#d2ac95;fill-opacity:1" />
    </g>
    <g
       aria-label="OFF1"
       id="text11936-6-1-29"
       style="font-weight:bold;font-size:8px;line-height:1.25;font-family:Arial;-inkscape-font-specification:'Arial, Bold';font-variant-ligatures:none;text-align:center;text-anchor:middle;display:inline;fill:#d2ac95;fill-opacity:1"
       transform="translate(0,0.334998)">
      <path
         d="m 11.101563,66.270096 q 0,-0.875 0.261718,-1.46875 0.195313,-0.4375 0.53125,-0.785156 0.339844,-0.347657 0.742188,-0.515625 0.535156,-0.226563 1.234375,-0.226563 1.265625,0 2.023437,0.785156 0.761719,0.785157 0.761719,2.183594 0,1.386719 -0.753906,2.171875 -0.753906,0.78125 -2.015625,0.78125 -1.277344,0 -2.03125,-0.777344 -0.753906,-0.78125 -0.753906,-2.148437 z m 1.191406,-0.03906 q 0,0.972657 0.449219,1.476563 0.449218,0.5 1.140625,0.5 0.691406,0 1.132812,-0.496094 0.445313,-0.5 0.445313,-1.496094 0,-0.984375 -0.433594,-1.46875 -0.429688,-0.484375 -1.144531,-0.484375 -0.714844,0 -1.152344,0.492188 -0.4375,0.488281 -0.4375,1.476562 z"
         id="path28704"
         style="fill:#d2ac95;fill-opacity:1" />
      <path
         d="m 17.566406,69.098221 v -5.726563 h 3.925781 v 0.96875 h -2.769531 v 1.355469 h 2.390625 v 0.96875 h -2.390625 v 2.433594 z"
         id="path28706"
         style="fill:#d2ac95;fill-opacity:1" />
      <path
         d="m 22.453125,69.098221 v -5.726563 h 3.925781 v 0.96875 h -2.769531 v 1.355469 H 26 v 0.96875 h -2.390625 v 2.433594 z"
         id="path28708"
         style="fill:#d2ac95;fill-opacity:1" />
      <path
         d="m 29.898437,69.098221 h -1.097656 v -4.136719 q -0.601562,0.5625 -1.417969,0.832031 V 64.79744 q 0.429688,-0.140625 0.933594,-0.53125 0.503906,-0.394532 0.691406,-0.917969 h 0.890625 z"
         id="path28710"
         style="fill:#d2ac95;fill-opacity:1" />
    </g>
    <g
       aria-label="RNG3"
       id="text11936-6-1-2"
       style="font-weight:bold;font-size:8px;line-height:1.25;font-family:Arial;-inkscape-font-specification:'Arial, Bold';font-variant-ligatures:none;text-align:center;text-anchor:middle;display:inline;fill:#d2ac95;fill-opacity:1"
       transform="translate(5e-7,6.5113414)">
      <path
         d="M 73.851562,32.905243 V 27.17868 h 2.433594 q 0.917969,0 1.332031,0.15625 0.417969,0.152344 0.667969,0.546875 0.25,0.394532 0.25,0.902344 0,0.644531 -0.378906,1.066406 -0.378906,0.417969 -1.132813,0.527344 0.375,0.21875 0.617188,0.480469 0.246094,0.261719 0.660156,0.929687 L 79,32.905243 H 77.617187 L 76.78125,31.659149 q -0.445313,-0.667969 -0.609375,-0.839844 -0.164063,-0.175781 -0.347656,-0.238281 -0.183594,-0.06641 -0.582032,-0.06641 h -0.234375 v 2.390625 z m 1.15625,-3.304688 h 0.855469 q 0.832031,0 1.039063,-0.07031 0.207031,-0.07031 0.324218,-0.242188 0.117188,-0.171875 0.117188,-0.429687 0,-0.289063 -0.15625,-0.464844 -0.152344,-0.179687 -0.433594,-0.226562 -0.140625,-0.01953 -0.84375,-0.01953 h -0.902344 z"
         id="path28713"
         style="fill:#d2ac95;fill-opacity:1" />
      <path
         d="M 79.636719,32.905243 V 27.17868 h 1.125 l 2.34375,3.824219 V 27.17868 h 1.074218 v 5.726563 h -1.160156 l -2.308594,-3.734375 v 3.734375 z"
         id="path28715"
         style="fill:#d2ac95;fill-opacity:1" />
      <path
         d="M 88.066406,30.799774 V 29.83493 h 2.492188 v 2.28125 q -0.363282,0.351563 -1.054688,0.621094 -0.6875,0.265625 -1.394531,0.265625 -0.898438,0 -1.566406,-0.375 -0.667969,-0.378906 -1.003907,-1.078125 -0.335937,-0.703125 -0.335937,-1.527344 0,-0.894531 0.375,-1.589843 0.375,-0.695313 1.097656,-1.066407 0.550781,-0.285156 1.371094,-0.285156 1.066406,0 1.664062,0.449219 0.601563,0.445312 0.773438,1.234375 l -1.148438,0.214844 q -0.121093,-0.421875 -0.457031,-0.664063 -0.332031,-0.246094 -0.832031,-0.246094 -0.757813,0 -1.207031,0.480469 -0.445313,0.480469 -0.445313,1.425781 0,1.019532 0.453125,1.53125 0.453125,0.507813 1.1875,0.507813 0.363281,0 0.726563,-0.140625 0.367187,-0.144531 0.628906,-0.347656 v -0.726563 z"
         id="path28717"
         style="fill:#d2ac95;fill-opacity:1" />
      <path
         d="m 91.34375,31.385712 1.0625,-0.128907 q 0.05078,0.40625 0.273437,0.621094 0.222657,0.214844 0.539063,0.214844 0.339844,0 0.570312,-0.257813 0.234375,-0.257812 0.234375,-0.695312 0,-0.414063 -0.222656,-0.65625 -0.222656,-0.242188 -0.542969,-0.242188 -0.210937,0 -0.503906,0.08203 L 92.875,29.42868 q 0.445312,0.01172 0.679687,-0.191406 0.234375,-0.207031 0.234375,-0.546875 0,-0.289062 -0.171875,-0.460937 -0.171875,-0.171875 -0.457031,-0.171875 -0.28125,0 -0.480469,0.195312 -0.199218,0.195313 -0.242187,0.570313 l -1.011719,-0.171875 q 0.105469,-0.519532 0.316406,-0.828125 0.214844,-0.3125 0.59375,-0.488282 0.382813,-0.179687 0.855469,-0.179687 0.808594,0 1.296875,0.515625 0.402344,0.421875 0.402344,0.953125 0,0.753906 -0.824219,1.203125 0.492188,0.105469 0.785156,0.472656 0.296875,0.367188 0.296875,0.886719 0,0.753906 -0.550781,1.285156 -0.550781,0.53125 -1.371094,0.53125 -0.777343,0 -1.289062,-0.445312 -0.511719,-0.449219 -0.59375,-1.171875 z"
         id="path28719"
         style="fill:#d2ac95;fill-opacity:1" />
    </g>
    <g
       aria-label="RNG2"
       id="text11936-6-1-2-5"
       style="font-weight:bold;font-size:8px;line-height:1.25;font-family:Arial;-inkscape-font-specification:'Arial, Bold';font-variant-ligatures:none;text-align:center;text-anchor:middle;display:inline;fill:#d2ac95;fill-opacity:1"
       transform="translate(0,6.5113414)">
      <path
         d="M 42.118229,32.905243 V 27.17868 h 2.433594 q 0.917968,0 1.332031,0.15625 0.417969,0.152344 0.667969,0.546875 0.25,0.394532 0.25,0.902344 0,0.644531 -0.378907,1.066406 -0.378906,0.417969 -1.132812,0.527344 0.375,0.21875 0.617187,0.480469 0.246094,0.261719 0.660157,0.929687 l 0.699218,1.117188 h -1.382812 l -0.835938,-1.246094 q -0.445312,-0.667969 -0.609375,-0.839844 -0.164062,-0.175781 -0.347656,-0.238281 -0.183594,-0.06641 -0.582031,-0.06641 h -0.234375 v 2.390625 z m 1.15625,-3.304688 h 0.855469 q 0.832031,0 1.039062,-0.07031 0.207031,-0.07031 0.324219,-0.242188 0.117187,-0.171875 0.117187,-0.429687 0,-0.289063 -0.15625,-0.464844 -0.152343,-0.179687 -0.433593,-0.226562 -0.140625,-0.01953 -0.84375,-0.01953 h -0.902344 z"
         id="path28722"
         style="fill:#d2ac95;fill-opacity:1" />
      <path
         d="M 47.903385,32.905243 V 27.17868 h 1.125 l 2.34375,3.824219 V 27.17868 h 1.074219 v 5.726563 h -1.160156 l -2.308594,-3.734375 v 3.734375 z"
         id="path28724"
         style="fill:#d2ac95;fill-opacity:1" />
      <path
         d="M 56.333073,30.799774 V 29.83493 h 2.492187 v 2.28125 q -0.363281,0.351563 -1.054687,0.621094 -0.6875,0.265625 -1.394532,0.265625 -0.898437,0 -1.566406,-0.375 -0.667969,-0.378906 -1.003906,-1.078125 -0.335938,-0.703125 -0.335938,-1.527344 0,-0.894531 0.375,-1.589843 0.375,-0.695313 1.097657,-1.066407 0.550781,-0.285156 1.371093,-0.285156 1.066407,0 1.664063,0.449219 0.601562,0.445312 0.773437,1.234375 l -1.148437,0.214844 q -0.121094,-0.421875 -0.457031,-0.664063 -0.332032,-0.246094 -0.832032,-0.246094 -0.757812,0 -1.207031,0.480469 -0.445312,0.480469 -0.445312,1.425781 0,1.019532 0.453125,1.53125 0.453125,0.507813 1.1875,0.507813 0.363281,0 0.726562,-0.140625 0.367188,-0.144531 0.628906,-0.347656 v -0.726563 z"
         id="path28726"
         style="fill:#d2ac95;fill-opacity:1" />
      <path
         d="m 63.35651,31.885712 v 1.019531 h -3.847656 q 0.0625,-0.578125 0.375,-1.09375 0.3125,-0.519531 1.234375,-1.375 0.742187,-0.691406 0.910156,-0.9375 0.226563,-0.339844 0.226563,-0.671875 0,-0.367188 -0.199219,-0.5625 -0.195313,-0.199219 -0.542969,-0.199219 -0.34375,0 -0.546875,0.207031 -0.203125,0.207032 -0.234375,0.6875 l -1.09375,-0.109375 q 0.09766,-0.90625 0.613281,-1.300781 0.515625,-0.394531 1.289063,-0.394531 0.847656,0 1.332031,0.457031 0.484375,0.457031 0.484375,1.136719 0,0.386719 -0.140625,0.738281 -0.136719,0.347656 -0.4375,0.730469 -0.199219,0.253906 -0.71875,0.730469 -0.519531,0.476562 -0.660156,0.632812 -0.136719,0.15625 -0.222656,0.304688 z"
         id="path28728"
         style="fill:#d2ac95;fill-opacity:1" />
    </g>
    <g
       aria-label="RNG1"
       id="text11936-6-1-2-6"
       style="font-weight:bold;font-size:8px;line-height:1.25;font-family:Arial;-inkscape-font-specification:'Arial, Bold';font-variant-ligatures:none;text-align:center;text-anchor:middle;display:inline;fill:#d2ac95;fill-opacity:1"
       transform="translate(0,6.5113414)">
      <path
         d="M 10.330078,32.905243 V 27.17868 h 2.433594 q 0.917969,0 1.332031,0.15625 0.417969,0.152344 0.667969,0.546875 0.25,0.394532 0.25,0.902344 0,0.644531 -0.378906,1.066406 -0.378907,0.417969 -1.132813,0.527344 0.375,0.21875 0.617188,0.480469 0.246093,0.261719 0.660156,0.929687 l 0.699219,1.117188 h -1.382813 l -0.835937,-1.246094 q -0.445313,-0.667969 -0.609375,-0.839844 -0.164063,-0.175781 -0.347657,-0.238281 -0.183593,-0.06641 -0.582031,-0.06641 h -0.234375 v 2.390625 z m 1.15625,-3.304688 h 0.855469 q 0.832031,0 1.039062,-0.07031 0.207032,-0.07031 0.324219,-0.242188 0.117188,-0.171875 0.117188,-0.429687 0,-0.289063 -0.15625,-0.464844 -0.152344,-0.179687 -0.433594,-0.226562 -0.140625,-0.01953 -0.84375,-0.01953 h -0.902344 z"
         id="path28731"
         style="fill:#d2ac95;fill-opacity:1" />
      <path
         d="M 16.115234,32.905243 V 27.17868 h 1.125 l 2.34375,3.824219 V 27.17868 h 1.074219 v 5.726563 h -1.160156 l -2.308594,-3.734375 v 3.734375 z"
         id="path28733"
         style="fill:#d2ac95;fill-opacity:1" />
      <path
         d="M 24.544922,30.799774 V 29.83493 h 2.492187 v 2.28125 q -0.363281,0.351563 -1.054687,0.621094 -0.6875,0.265625 -1.394531,0.265625 -0.898438,0 -1.566407,-0.375 -0.667968,-0.378906 -1.003906,-1.078125 -0.335937,-0.703125 -0.335937,-1.527344 0,-0.894531 0.375,-1.589843 0.375,-0.695313 1.097656,-1.066407 0.550781,-0.285156 1.371094,-0.285156 1.066406,0 1.664062,0.449219 0.601563,0.445312 0.773438,1.234375 l -1.148438,0.214844 q -0.121094,-0.421875 -0.457031,-0.664063 -0.332031,-0.246094 -0.832031,-0.246094 -0.757813,0 -1.207032,0.480469 -0.445312,0.480469 -0.445312,1.425781 0,1.019532 0.453125,1.53125 0.453125,0.507813 1.1875,0.507813 0.363281,0 0.726562,-0.140625 0.367188,-0.144531 0.628907,-0.347656 v -0.726563 z"
         id="path28735"
         style="fill:#d2ac95;fill-opacity:1" />
      <path
         d="m 30.669922,32.905243 h -1.097656 v -4.136719 q -0.601563,0.5625 -1.417969,0.832031 v -0.996093 q 0.429687,-0.140625 0.933594,-0.53125 0.503906,-0.394532 0.691406,-0.917969 h 0.890625 z"
         id="path28737"
         style="fill:#d2ac95;fill-opacity:1" />
    </g>
    <g
       aria-label="REX CV EXPANDER"
       id="text20448"
       style="font-weight:bold;font-size:10px;line-height:1.25;font-family:Arial;-inkscape-font-specification:'Arial, Bold';font-variant-ligatures:none;text-align:center;text-anchor:middle;display:inline;fill:#d2ac95;fill-opacity:1">
      <path
         d="M 5.4760742,16.3312 V 9.1729965 h 3.0419922 q 1.1474609,0 1.6650386,0.1953125 0.522461,0.1904297 0.834961,0.683594 0.3125,0.493164 0.3125,1.127929 0,0.805665 -0.473632,1.333008 -0.473633,0.522461 -1.416016,0.65918 0.46875,0.273437 0.771484,0.600586 0.307618,0.327148 0.825196,1.162109 L 11.911621,16.3312 H 10.183105 L 9.1381836,14.773582 Q 8.581543,13.938622 8.3764648,13.723778 8.1713867,13.504051 7.9418945,13.425926 7.7124023,13.342918 7.2143555,13.342918 H 6.9213867 V 16.3312 Z m 1.4453125,-4.13086 h 1.069336 q 1.040039,0 1.2988281,-0.08789 0.258789,-0.08789 0.4052734,-0.302735 0.1464844,-0.214843 0.1464844,-0.537109 0,-0.361328 -0.1953125,-0.581055 Q 9.4555664,10.466942 9.1040039,10.408348 8.9282227,10.383934 8.0493164,10.383934 H 6.9213867 Z"
         id="path28740"
         style="fill:#d2ac95;fill-opacity:1" />
      <path
         d="M 12.692871,16.3312 V 9.1729965 h 5.307617 v 1.2109375 h -3.862304 v 1.586914 h 3.59375 v 1.206055 h -3.59375 v 1.948242 h 3.999023 V 16.3312 Z"
         id="path28742"
         style="fill:#d2ac95;fill-opacity:1" />
      <path
         d="m 18.635254,16.3312 2.446289,-3.735352 -2.216797,-3.4228515 h 1.689453 l 1.435547,2.2998045 1.40625,-2.2998045 h 1.674805 L 22.844238,12.649559 25.290527,16.3312 H 23.547363 L 21.960449,13.855614 20.368652,16.3312 Z"
         id="path28744"
         style="fill:#d2ac95;fill-opacity:1" />
      <path
         d="M 33.391113,13.699364 34.79248,14.1437 q -0.322265,1.171875 -1.074218,1.743164 -0.747071,0.566406 -1.899414,0.566406 -1.425782,0 -2.34375,-0.97168 -0.917969,-0.976562 -0.917969,-2.666015 0,-1.78711 0.922851,-2.773438 0.922852,-0.9912108 2.426758,-0.9912108 1.313477,0 2.133789,0.7763672 0.488282,0.4589846 0.732422,1.3183596 l -1.430664,0.341797 q -0.126953,-0.556641 -0.532226,-0.878907 -0.400391,-0.322265 -0.976563,-0.322265 -0.795898,0 -1.293945,0.571289 -0.493164,0.571289 -0.493164,1.850586 0,1.357422 0.488281,1.933594 0.488281,0.576171 1.269531,0.576171 0.576172,0 0.991211,-0.366211 0.415039,-0.36621 0.595703,-1.152343 z"
         id="path28746"
         style="fill:#d2ac95;fill-opacity:1" />
      <path
         d="M 37.858887,16.3312 35.300293,9.1729965 h 1.567383 l 1.811523,5.2978515 1.75293,-5.2978515 h 1.533203 L 39.401855,16.3312 Z"
         id="path28748"
         style="fill:#d2ac95;fill-opacity:1" />
      <path
         d="M 45.480957,16.3312 V 9.1729965 h 5.307617 V 10.383934 H 46.92627 v 1.586914 h 3.59375 v 1.206055 h -3.59375 v 1.948242 h 3.999023 V 16.3312 Z"
         id="path28750"
         style="fill:#d2ac95;fill-opacity:1" />
      <path
         d="m 51.42334,16.3312 2.446289,-3.735352 -2.216797,-3.4228515 h 1.689453 l 1.435547,2.2998045 1.40625,-2.2998045 h 1.674805 L 55.632324,12.649559 58.078613,16.3312 H 56.335449 L 54.748535,13.855614 53.156738,16.3312 Z"
         id="path28752"
         style="fill:#d2ac95;fill-opacity:1" />
      <path
         d="M 58.820801,16.3312 V 9.1729965 h 2.319336 q 1.318359,0 1.71875,0.1074219 0.615234,0.1611328 1.030273,0.703125 0.415039,0.5371096 0.415039,1.3916016 0,0.65918 -0.239258,1.108398 -0.239257,0.449219 -0.610351,0.708008 -0.366211,0.253906 -0.74707,0.336914 -0.517579,0.102539 -1.499024,0.102539 H 60.266113 V 16.3312 Z m 1.445312,-5.947266 v 2.03125 h 0.791016 q 0.854492,0 1.142578,-0.112305 0.288086,-0.112304 0.449219,-0.351562 0.166015,-0.239258 0.166015,-0.556641 0,-0.390625 -0.229492,-0.644531 -0.229492,-0.253906 -0.581054,-0.317383 -0.25879,-0.04883 -1.04004,-0.04883 z"
         id="path28754"
         style="fill:#d2ac95;fill-opacity:1" />
      <path
         d="m 71.203613,16.3312 h -1.572265 l -0.625,-1.625977 H 66.14502 L 65.554199,16.3312 h -1.533203 l 2.788086,-7.1582035 h 1.52832 z m -2.661133,-2.832032 -0.986328,-2.65625 -0.966797,2.65625 z"
         id="path28756"
         style="fill:#d2ac95;fill-opacity:1" />
      <path
         d="M 71.984863,16.3312 V 9.1729965 h 1.40625 L 76.320801,13.95327 V 9.1729965 h 1.342773 V 16.3312 H 76.213379 L 73.327637,11.663231 V 16.3312 Z"
         id="path28758"
         style="fill:#d2ac95;fill-opacity:1" />
      <path
         d="m 79.187012,9.1729965 h 2.641601 q 0.893555,0 1.362305,0.1367188 0.629883,0.1855468 1.079102,0.6591797 0.449218,0.473633 0.683593,1.162109 0.234375,0.683594 0.234375,1.689453 0,0.88379 -0.219726,1.523438 -0.268555,0.78125 -0.766602,1.264648 -0.375976,0.366211 -1.015625,0.571289 Q 82.70752,16.3312 81.906738,16.3312 h -2.719726 z m 1.445312,1.2109375 v 4.741211 h 1.079102 q 0.605469,0 0.874023,-0.06836 0.351563,-0.08789 0.581055,-0.297852 0.234375,-0.209961 0.380859,-0.688477 0.146485,-0.483398 0.146485,-1.313476 0,-0.830078 -0.146485,-1.274414 -0.146484,-0.444336 -0.410156,-0.69336 -0.263672,-0.249023 -0.668945,-0.336914 -0.302735,-0.06836 -1.186524,-0.06836 z"
         id="path28760"
         style="fill:#d2ac95;fill-opacity:1" />
      <path
         d="M 86.413574,16.3312 V 9.1729965 h 5.307617 v 1.2109375 h -3.862304 v 1.586914 h 3.59375 v 1.206055 h -3.59375 v 1.948242 H 91.85791 V 16.3312 Z"
         id="path28762"
         style="fill:#d2ac95;fill-opacity:1" />
      <path
         d="M 93.088379,16.3312 V 9.1729965 h 3.041992 q 1.147461,0 1.665039,0.1953125 0.522461,0.1904297 0.834961,0.683594 0.3125,0.493164 0.3125,1.127929 0,0.805665 -0.473633,1.333008 -0.473633,0.522461 -1.416015,0.65918 0.46875,0.273437 0.771484,0.600586 0.307617,0.327148 0.825195,1.162109 L 99.523926,16.3312 H 97.79541 l -1.044922,-1.557618 q -0.55664,-0.83496 -0.761718,-1.049804 -0.205079,-0.219727 -0.434571,-0.297852 -0.229492,-0.08301 -0.727539,-0.08301 H 94.533691 V 16.3312 Z m 1.445312,-4.13086 h 1.069336 q 1.040039,0 1.298828,-0.08789 0.25879,-0.08789 0.405274,-0.302735 0.146484,-0.214843 0.146484,-0.537109 0,-0.361328 -0.195312,-0.581055 -0.19043,-0.224609 -0.541992,-0.283203 -0.175782,-0.02441 -1.054688,-0.02441 h -1.12793 z"
         id="path28764"
         style="fill:#d2ac95;fill-opacity:1" />
    </g>
    <rect
       style="display:inline;fill:#d2ac95;fill-opacity:1;stroke:none;stroke-width:0.999996;stroke-dasharray:2, 2"
       id="rect28061-6-6"
       width="29"
       height="229"
       x="6"
       y="126.99956"
       rx="5"
       ry="5" />
    <rect
       style="display:inline;fill:#d2ac95;fill-opacity:1;stroke:none;stroke-width:0.999996;stroke-dasharray:2, 2"
       id="rect28061-6"
       width="29"
       height="229"
       x="70"
       y="127"
       rx="5"
       ry="5" />
    <g
       aria-label="RND3"
       id="text34407"
       style="font-weight:bold;font-size:8px;line-height:1.25;font-family:Arial;-inkscape-font-specification:'Arial, Bold';font-variant-ligatures:none;text-align:center;text-anchor:middle;display:inline;fill:#d2ac95;fill-opacity:1">
      <path
         d="m 74.074219,99.594444 v -5.726562 h 2.433593 q 0.917969,0 1.332032,0.15625 0.417968,0.152344 0.667968,0.546875 0.25,0.394531 0.25,0.902344 0,0.644531 -0.378906,1.066406 Q 78,96.957726 77.246094,97.067101 q 0.375,0.21875 0.617187,0.480468 0.246094,0.261719 0.660156,0.929688 l 0.699219,1.117187 h -1.382812 l -0.835938,-1.246093 q -0.445312,-0.667969 -0.609375,-0.839844 -0.164062,-0.175781 -0.347656,-0.238281 -0.183594,-0.06641 -0.582031,-0.06641 h -0.234375 v 2.390625 z m 1.15625,-3.304687 h 0.855468 q 0.832032,0 1.039063,-0.07031 0.207031,-0.07031 0.324219,-0.242187 0.117187,-0.171875 0.117187,-0.429688 0,-0.289062 -0.15625,-0.464843 -0.152344,-0.179688 -0.433594,-0.226563 -0.140625,-0.01953 -0.84375,-0.01953 h -0.902343 z"
         id="path39430"
         style="fill:#d2ac95;fill-opacity:1" />
      <path
         d="m 79.859375,99.594444 v -5.726562 h 1.125 l 2.34375,3.824219 v -3.824219 h 1.074219 v 5.726562 h -1.160157 l -2.308593,-3.734375 v 3.734375 z"
         id="path39432"
         style="fill:#d2ac95;fill-opacity:1" />
      <path
         d="m 85.621094,93.867882 h 2.113281 q 0.714844,0 1.089844,0.109375 0.503906,0.148437 0.863281,0.527344 0.359375,0.378906 0.546875,0.929687 0.1875,0.546875 0.1875,1.351563 0,0.707031 -0.175781,1.21875 -0.214844,0.625 -0.613282,1.011718 -0.300781,0.292969 -0.8125,0.457032 -0.382812,0.121093 -1.023437,0.121093 h -2.175781 z m 1.15625,0.96875 v 3.792969 h 0.863281 q 0.484375,0 0.699219,-0.05469 0.28125,-0.07031 0.464843,-0.238281 0.1875,-0.167969 0.304688,-0.550781 0.117187,-0.386719 0.117187,-1.050782 0,-0.664062 -0.117187,-1.019531 -0.117188,-0.355469 -0.328125,-0.554687 -0.210938,-0.199219 -0.535156,-0.269532 -0.242188,-0.05469 -0.949219,-0.05469 z"
         id="path39434"
         style="fill:#d2ac95;fill-opacity:1" />
      <path
         d="m 91.121094,98.074913 1.0625,-0.128906 q 0.05078,0.40625 0.273437,0.621094 0.222656,0.214843 0.539063,0.214843 0.339843,0 0.570312,-0.257812 0.234375,-0.257813 0.234375,-0.695313 0,-0.414062 -0.222656,-0.65625 -0.222656,-0.242187 -0.542969,-0.242187 -0.210937,0 -0.503906,0.08203 l 0.121094,-0.894531 q 0.445312,0.01172 0.679687,-0.191406 0.234375,-0.207032 0.234375,-0.546875 0,-0.289063 -0.171875,-0.460938 -0.171875,-0.171875 -0.457031,-0.171875 -0.28125,0 -0.480469,0.195313 -0.199219,0.195312 -0.242187,0.570312 l -1.011719,-0.171875 q 0.105469,-0.519531 0.316406,-0.828125 0.214844,-0.3125 0.59375,-0.488281 0.382813,-0.179688 0.855469,-0.179688 0.808594,0 1.296875,0.515625 0.402344,0.421875 0.402344,0.953125 0,0.753907 -0.824219,1.203125 0.492187,0.105469 0.785156,0.472657 0.296875,0.367187 0.296875,0.886718 0,0.753907 -0.550781,1.285157 -0.550781,0.53125 -1.371094,0.53125 -0.777344,0 -1.289062,-0.445313 -0.511719,-0.449219 -0.59375,-1.171874 z"
         id="path39436"
         style="fill:#d2ac95;fill-opacity:1" />
    </g>
    <rect
       style="display:inline;fill:#d2ac95;fill-opacity:1;stroke:none;stroke-width:0.999996;stroke-dasharray:2, 2"
       id="rect28061-6-0"
       width="29"
       height="229"
       x="38"
       y="126.99956"
       rx="5"
       ry="5" />
    <g
       aria-label="RND2"
       id="text34407-2"
       style="font-weight:bold;font-size:8px;line-height:1.25;font-family:Arial;-inkscape-font-specification:'Arial, Bold';font-variant-ligatures:none;text-align:center;text-anchor:middle;display:inline;fill:#d2ac95;fill-opacity:1">
      <path
         d="m 42.074219,99.594002 v -5.726563 h 2.433593 q 0.917969,0 1.332032,0.15625 0.417968,0.152344 0.667968,0.546875 0.25,0.394532 0.25,0.902344 0,0.644531 -0.378906,1.066406 Q 46,96.957283 45.246094,97.066658 q 0.375,0.21875 0.617187,0.480469 0.246094,0.261719 0.660156,0.929687 l 0.699219,1.117188 h -1.382812 l -0.835938,-1.246094 q -0.445312,-0.667969 -0.609375,-0.839844 -0.164062,-0.175781 -0.347656,-0.238281 -0.183594,-0.06641 -0.582031,-0.06641 h -0.234375 v 2.390625 z m 1.15625,-3.304688 h 0.855468 q 0.832032,0 1.039063,-0.07031 0.207031,-0.07031 0.324219,-0.242188 0.117187,-0.171875 0.117187,-0.429687 0,-0.289063 -0.15625,-0.464844 -0.152344,-0.179687 -0.433594,-0.226562 -0.140625,-0.01953 -0.84375,-0.01953 h -0.902343 z"
         id="path39421"
         style="fill:#d2ac95;fill-opacity:1" />
      <path
         d="m 47.859375,99.594002 v -5.726563 h 1.125 l 2.34375,3.824219 v -3.824219 h 1.074219 v 5.726563 h -1.160157 l -2.308593,-3.734375 v 3.734375 z"
         id="path39423"
         style="fill:#d2ac95;fill-opacity:1" />
      <path
         d="m 53.621094,93.867439 h 2.113281 q 0.714844,0 1.089844,0.109375 0.503906,0.148438 0.863281,0.527344 0.359375,0.378906 0.546875,0.929688 0.1875,0.546875 0.1875,1.351562 0,0.707031 -0.175781,1.21875 -0.214844,0.625 -0.613282,1.011719 -0.300781,0.292969 -0.8125,0.457031 -0.382812,0.121094 -1.023437,0.121094 h -2.175781 z m 1.15625,0.96875 v 3.792969 h 0.863281 q 0.484375,0 0.699219,-0.05469 0.28125,-0.07031 0.464843,-0.238282 0.1875,-0.167968 0.304688,-0.550781 0.117187,-0.386719 0.117187,-1.050781 0,-0.664063 -0.117187,-1.019531 -0.117188,-0.355469 -0.328125,-0.554688 -0.210938,-0.199219 -0.535156,-0.269531 -0.242188,-0.05469 -0.949219,-0.05469 z"
         id="path39425"
         style="fill:#d2ac95;fill-opacity:1" />
      <path
         d="m 62.867187,98.574471 v 1.019531 h -3.847656 q 0.0625,-0.578125 0.375,-1.09375 0.3125,-0.519531 1.234375,-1.375 0.742188,-0.691406 0.910156,-0.9375 0.226563,-0.339844 0.226563,-0.671875 0,-0.367188 -0.199219,-0.5625 -0.195312,-0.199219 -0.542969,-0.199219 -0.34375,0 -0.546875,0.207031 -0.203125,0.207032 -0.234375,0.6875 l -1.09375,-0.109375 q 0.09766,-0.90625 0.613282,-1.300781 0.515625,-0.394531 1.289062,-0.394531 0.847656,0 1.332031,0.457031 0.484375,0.457031 0.484375,1.136719 0,0.386719 -0.140625,0.738281 -0.136718,0.347656 -0.4375,0.730469 -0.199218,0.253906 -0.71875,0.730469 -0.519531,0.476562 -0.660156,0.632812 -0.136719,0.15625 -0.222656,0.304688 z"
         id="path39427"
         style="fill:#d2ac95;fill-opacity:1" />
    </g>
    <g
       aria-label="RND1"
       id="text34407-0"
       style="font-weight:bold;font-size:8px;line-height:1.25;font-family:Arial;-inkscape-font-specification:'Arial, Bold';font-variant-ligatures:none;text-align:center;text-anchor:middle;display:inline;fill:#d2ac95;fill-opacity:1">
      <path
         d="m 10.074219,99.594002 v -5.726563 h 2.433594 q 0.917968,0 1.332031,0.15625 0.417969,0.152344 0.667969,0.546875 0.25,0.394532 0.25,0.902344 0,0.644531 -0.378907,1.066406 Q 14,96.957283 13.246094,97.066658 q 0.375,0.21875 0.617187,0.480469 0.246094,0.261719 0.660157,0.929687 l 0.699218,1.117188 h -1.382812 l -0.835938,-1.246094 q -0.445312,-0.667969 -0.609375,-0.839844 -0.164062,-0.175781 -0.347656,-0.238281 -0.183594,-0.06641 -0.582031,-0.06641 h -0.234375 v 2.390625 z m 1.15625,-3.304688 h 0.855469 q 0.832031,0 1.039062,-0.07031 0.207031,-0.07031 0.324219,-0.242188 0.117187,-0.171875 0.117187,-0.429687 0,-0.289063 -0.15625,-0.464844 -0.152343,-0.179687 -0.433593,-0.226562 -0.140625,-0.01953 -0.84375,-0.01953 h -0.902344 z"
         id="path39412"
         style="fill:#d2ac95;fill-opacity:1" />
      <path
         d="m 15.859375,99.594002 v -5.726563 h 1.125 l 2.34375,3.824219 v -3.824219 h 1.074219 v 5.726563 h -1.160157 l -2.308593,-3.734375 v 3.734375 z"
         id="path39414"
         style="fill:#d2ac95;fill-opacity:1" />
      <path
         d="m 21.621094,93.867439 h 2.113281 q 0.714844,0 1.089844,0.109375 0.503906,0.148438 0.863281,0.527344 0.359375,0.378906 0.546875,0.929688 0.1875,0.546875 0.1875,1.351562 0,0.707031 -0.175781,1.21875 -0.214844,0.625 -0.613282,1.011719 -0.300781,0.292969 -0.8125,0.457031 -0.382812,0.121094 -1.023437,0.121094 h -2.175781 z m 1.15625,0.96875 v 3.792969 h 0.863281 q 0.484375,0 0.699219,-0.05469 0.28125,-0.07031 0.464843,-0.238282 0.1875,-0.167968 0.304688,-0.550781 0.117187,-0.386719 0.117187,-1.050781 0,-0.664063 -0.117187,-1.019531 -0.117188,-0.355469 -0.328125,-0.554688 -0.210938,-0.199219 -0.535156,-0.269531 -0.242188,-0.05469 -0.949219,-0.05469 z"
         id="path39416"
         style="fill:#d2ac95;fill-opacity:1" />
      <path
         d="m 29.96875,99.594002 h -1.097656 v -4.136719 q -0.601563,0.5625 -1.417969,0.832031 v -0.996093 q 0.429687,-0.140625 0.933594,-0.53125 0.503906,-0.394532 0.691406,-0.917969 h 0.890625 z"
         id="path39418"
         style="fill:#d2ac95;fill-opacity:1" />
    </g>
  </g>
  <g
     inkscape:groupmode="layer"
     id="layer7"
     inkscape:label="Reverse Solid"
     style="display:inline">
    <g
       aria-label="CV1"
       id="text34407-2-2-1"
       style="font-weight:bold;font-size:8px;line-height:1.25;font-family:Arial;-inkscape-font-specification:'Arial, Bold';font-variant-ligatures:none;text-align:center;text-anchor:middle;display:inline;fill:#423932;fill-opacity:1">
      <path
         d="m 17.425781,134.49643 1.121094,0.35547 q -0.257813,0.9375 -0.859375,1.39453 -0.597656,0.45312 -1.519531,0.45312 -1.140625,0 -1.875,-0.77734 -0.734375,-0.78125 -0.734375,-2.13281 0,-1.42969 0.738281,-2.21875 0.738281,-0.79297 1.941406,-0.79297 1.050781,0 1.707031,0.62109 0.390625,0.36719 0.585938,1.05469 l -1.144531,0.27344 q -0.101563,-0.44531 -0.425782,-0.70313 -0.320312,-0.25781 -0.78125,-0.25781 -0.636718,0 -1.035156,0.45703 -0.394531,0.45703 -0.394531,1.48047 0,1.08594 0.390625,1.54688 0.390625,0.46093 1.015625,0.46093 0.460937,0 0.792969,-0.29297 0.332031,-0.29296 0.476562,-0.92187 z"
         id="path39439"
         style="fill:#423932;fill-opacity:1" />
      <path
         d="m 21,136.6019 -2.046875,-5.72656 h 1.253906 l 1.449219,4.23828 1.402344,-4.23828 h 1.226562 l -2.050781,5.72656 z"
         id="path39441"
         style="fill:#423932;fill-opacity:1" />
      <path
         d="M 27.441406,136.6019 H 26.34375 v -4.13672 q -0.601563,0.5625 -1.417969,0.83203 v -0.99609 q 0.429688,-0.14063 0.933594,-0.53125 0.503906,-0.39453 0.691406,-0.91797 h 0.890625 z"
         id="path39443"
         style="fill:#423932;fill-opacity:1" />
    </g>
    <g
       aria-label="CV3"
       id="text11936-5"
       style="font-weight:bold;font-size:8px;line-height:1.25;font-family:Arial;-inkscape-font-specification:'Arial, Bold';font-variant-ligatures:none;text-align:center;text-anchor:middle;display:inline;fill:#423932;fill-opacity:1"
       transform="translate(0,29)">
      <path
         d="m 80.947266,105.49642 1.121093,0.35547 q -0.257812,0.9375 -0.859375,1.39453 -0.597656,0.45313 -1.519531,0.45313 -1.140625,0 -1.875,-0.77735 -0.734375,-0.78125 -0.734375,-2.13281 0,-1.42969 0.738281,-2.21875 0.738282,-0.79297 1.941407,-0.79297 1.050781,0 1.707031,0.6211 0.390625,0.36718 0.585937,1.05468 l -1.144531,0.27344 q -0.101562,-0.44531 -0.425781,-0.70312 -0.320313,-0.25782 -0.78125,-0.25782 -0.636719,0 -1.035156,0.45703 -0.394532,0.45704 -0.394532,1.48047 0,1.08594 0.390625,1.54688 0.390625,0.46094 1.015625,0.46094 0.460938,0 0.792969,-0.29297 0.332031,-0.29297 0.476563,-0.92188 z"
         id="path28767-4"
         style="fill:#423932;fill-opacity:1" />
      <path
         d="m 84.521484,107.60189 -2.046875,-5.72656 h 1.253907 l 1.449218,4.23828 1.402344,-4.23828 h 1.226563 l -2.050782,5.72656 z"
         id="path28769-2"
         style="fill:#423932;fill-opacity:1" />
      <path
         d="m 88.115234,106.08236 1.0625,-0.12891 q 0.05078,0.40625 0.273438,0.6211 0.222656,0.21484 0.539062,0.21484 0.339844,0 0.570313,-0.25781 0.234375,-0.25781 0.234375,-0.69531 0,-0.41407 -0.222656,-0.65625 -0.222657,-0.24219 -0.542969,-0.24219 -0.210938,0 -0.503906,0.082 l 0.121093,-0.89453 q 0.445313,0.0117 0.679688,-0.19141 0.234375,-0.20703 0.234375,-0.54687 0,-0.28907 -0.171875,-0.46094 -0.171875,-0.17188 -0.457031,-0.17188 -0.28125,0 -0.480469,0.19532 -0.199219,0.19531 -0.242188,0.57031 l -1.011718,-0.17188 q 0.105468,-0.51953 0.316406,-0.82812 0.214844,-0.3125 0.59375,-0.48828 0.382812,-0.17969 0.855469,-0.17969 0.808593,0 1.296875,0.51563 0.402343,0.42187 0.402343,0.95312 0,0.75391 -0.824218,1.20313 0.492187,0.10546 0.785156,0.47265 0.296875,0.36719 0.296875,0.88672 0,0.75391 -0.550781,1.28516 -0.550782,0.53125 -1.371094,0.53125 -0.777344,0 -1.289063,-0.44532 -0.511718,-0.44921 -0.59375,-1.17187 z"
         id="path28771-1"
         style="fill:#423932;fill-opacity:1" />
    </g>
    <g
       aria-label="CV2"
       id="text34407-2-2"
       style="font-weight:bold;font-size:8px;line-height:1.25;font-family:Arial;-inkscape-font-specification:'Arial, Bold';font-variant-ligatures:none;text-align:center;text-anchor:middle;display:inline;fill:#423932;fill-opacity:1">
      <path
         d="m 48.976562,134.49643 1.121094,0.35547 q -0.257812,0.9375 -0.859375,1.39453 -0.597656,0.45312 -1.519531,0.45312 -1.140625,0 -1.875,-0.77734 -0.734375,-0.78125 -0.734375,-2.13281 0,-1.42969 0.738281,-2.21875 0.738281,-0.79297 1.941406,-0.79297 1.050782,0 1.707032,0.62109 0.390625,0.36719 0.585937,1.05469 L 48.9375,132.7269 q -0.101563,-0.44531 -0.425781,-0.70313 -0.320313,-0.25781 -0.78125,-0.25781 -0.636719,0 -1.035157,0.45703 -0.394531,0.45703 -0.394531,1.48047 0,1.08594 0.390625,1.54688 0.390625,0.46093 1.015625,0.46093 0.460938,0 0.792969,-0.29297 0.332031,-0.29296 0.476562,-0.92187 z"
         id="path39446"
         style="fill:#423932;fill-opacity:1" />
      <path
         d="m 52.550781,136.6019 -2.046875,-5.72656 h 1.253906 l 1.449219,4.23828 1.402344,-4.23828 h 1.226562 l -2.050781,5.72656 z"
         id="path39448"
         style="fill:#423932;fill-opacity:1" />
      <path
         d="m 59.890625,135.58237 v 1.01953 h -3.847656 q 0.0625,-0.57813 0.375,-1.09375 0.3125,-0.51953 1.234375,-1.375 0.742187,-0.69141 0.910156,-0.9375 0.226562,-0.33985 0.226562,-0.67188 0,-0.36718 -0.199218,-0.5625 -0.195313,-0.19922 -0.542969,-0.19922 -0.34375,0 -0.546875,0.20704 -0.203125,0.20703 -0.234375,0.6875 l -1.09375,-0.10938 q 0.09766,-0.90625 0.613281,-1.30078 0.515625,-0.39453 1.289063,-0.39453 0.847656,0 1.332031,0.45703 0.484375,0.45703 0.484375,1.13672 0,0.38672 -0.140625,0.73828 -0.136719,0.34766 -0.4375,0.73047 -0.199219,0.2539 -0.71875,0.73047 -0.519531,0.47656 -0.660156,0.63281 -0.136719,0.15625 -0.222657,0.30469 z"
         id="path39450"
         style="fill:#423932;fill-opacity:1" />
    </g>
  </g>
  <g
     inkscape:groupmode="layer"
     id="layer9"
     inkscape:label="Contrast Solid"
     style="display:inline" />
  <text
     xml:space="preserve"
     id="text29904"
     style="font-weight:bold;font-size:8px;line-height:1.25;font-family:Arial;-inkscape-font-specification:'Arial, Bold';font-variant-ligatures:none;text-align:center;white-space:pre;shape-inside:url(#rect29906)" />
  <g
     inkscape:groupmode="layer"
     id="layer1"
     inkscape:label="Widgets"
     style="display:none">
    <circle
       style="display:inline;fill:#ff0000;stroke:#ff0000;stroke-width:1.94925;stroke-opacity:1"
       id="path1065-7-1-7"
       cx="52.5"
       cy="80"
       r="7.5253749" />
    <circle
       style="display:inline;fill:#ff0000;stroke:#ff0000;stroke-width:1.94925;stroke-opacity:1"
       id="path1065-7-1-15"
       cx="52.5"
       cy="50"
       r="7.5253749" />
    <circle
       style="display:inline;fill:#ff0000;stroke:#ff0000;stroke-width:1.94925;stroke-opacity:1"
       id="path1065-7-1-2-1-2"
       cx="84.5"
       cy="112.49963"
       r="10.525375" />
    <circle
       style="display:inline;fill:#ff0000;stroke:#ff0000;stroke-width:1.94925;stroke-opacity:1"
       id="path1065-7-1-7-2"
       cx="84.5"
       cy="80"
       r="7.5253749" />
    <circle
       style="display:inline;fill:#ff0000;stroke:#ff0000;stroke-width:1.94925;stroke-opacity:1"
       id="path1065-7-1-15-3"
       cx="84.5"
       cy="50"
       r="7.5253749" />
    <circle
       style="display:inline;fill:#ff0000;stroke:#ff0000;stroke-width:1.94925;stroke-opacity:1"
       id="path1065-5-2"
       cx="84.5"
       cy="313.50046"
       r="10.525375" />
    <circle
       style="display:inline;fill:#ff0000;stroke:#ff0000;stroke-width:1.94925;stroke-opacity:1"
       id="path1065-7-2-3"
       cx="84.5"
       cy="286.50046"
       r="10.525375" />
    <circle
       style="display:inline;fill:#ff0000;stroke:#ff0000;stroke-width:1.94925;stroke-opacity:1"
       id="path1065-7-1-1-00"
       cx="84.5"
       cy="259.50043"
       r="10.525375" />
    <circle
       style="display:inline;fill:#ff0000;stroke:#ff0000;stroke-width:1.94925;stroke-opacity:1"
       id="path1065-7-1-8-5-2"
       cx="84.5"
       cy="232.50044"
       r="10.525375" />
    <circle
       style="display:inline;fill:#ff0000;stroke:#ff0000;stroke-width:1.94925;stroke-opacity:1"
       id="path1065-7-1-17-4-0"
       cx="84.5"
       cy="205.05286"
       r="10.525375" />
    <circle
       style="display:inline;fill:#ff0000;stroke:#ff0000;stroke-width:1.94925;stroke-opacity:1"
       id="path1065-7-1-89-8-3"
       cx="84.5"
       cy="178.50044"
       r="10.525375" />
    <circle
       style="display:inline;fill:#ff0000;stroke:#ff0000;stroke-width:1.94925;stroke-opacity:1"
       id="path1065-7-1-2-1-6"
       cx="84.5"
       cy="151.50046"
       r="10.525375" />
    <circle
       style="display:inline;fill:#ff0000;stroke:#ff0000;stroke-width:1.94925;stroke-opacity:1"
       id="path1065-1-2-5"
       cx="84.5"
       cy="340.50046"
       r="10.525375" />
    <circle
       style="display:inline;fill:#ff0000;stroke:#ff0000;stroke-width:1.94925;stroke-opacity:1"
       id="path1065-7-1-7-2-3"
       cx="20.5"
       cy="80"
       r="7.5253749" />
    <circle
       style="display:inline;fill:#ff0000;stroke:#ff0000;stroke-width:1.94925;stroke-opacity:1"
       id="path1065-7-1-15-3-5"
       cx="20.5"
       cy="50"
       r="7.5253749" />
    <circle
       style="display:inline;fill:#ff0000;fill-opacity:1;stroke:none;stroke-width:0.999997;stroke-dasharray:1.99999, 1.99999"
       id="path29455"
       cx="6.5"
       cy="21.5"
       r="3" />
    <circle
       style="display:inline;fill:#ff0000;stroke:#ff0000;stroke-width:1.94925;stroke-opacity:1"
       id="path1065-7-1-2-1-2-5"
       cx="52.5"
       cy="112.49963"
       r="10.525375" />
    <circle
       style="display:inline;fill:#ff0000;stroke:#ff0000;stroke-width:1.94925;stroke-opacity:1"
       id="path1065-5-2-5"
       cx="52.5"
       cy="313.50003"
       r="10.525375" />
    <circle
       style="display:inline;fill:#ff0000;stroke:#ff0000;stroke-width:1.94925;stroke-opacity:1"
       id="path1065-7-2-3-7"
       cx="52.5"
       cy="286.50003"
       r="10.525375" />
    <circle
       style="display:inline;fill:#ff0000;stroke:#ff0000;stroke-width:1.94925;stroke-opacity:1"
       id="path1065-7-1-1-00-6"
       cx="52.5"
       cy="259.5"
       r="10.525375" />
    <circle
       style="display:inline;fill:#ff0000;stroke:#ff0000;stroke-width:1.94925;stroke-opacity:1"
       id="path1065-7-1-8-5-2-8"
       cx="52.5"
       cy="232.5"
       r="10.525375" />
    <circle
       style="display:inline;fill:#ff0000;stroke:#ff0000;stroke-width:1.94925;stroke-opacity:1"
       id="path1065-7-1-17-4-0-0"
       cx="52.5"
       cy="205.05241"
       r="10.525375" />
    <circle
       style="display:inline;fill:#ff0000;stroke:#ff0000;stroke-width:1.94925;stroke-opacity:1"
       id="path1065-7-1-89-8-3-3"
       cx="52.5"
       cy="178.5"
       r="10.525375" />
    <circle
       style="display:inline;fill:#ff0000;stroke:#ff0000;stroke-width:1.94925;stroke-opacity:1"
       id="path1065-7-1-2-1-6-7"
       cx="52.5"
       cy="151.50002"
       r="10.525375" />
    <circle
       style="display:inline;fill:#ff0000;stroke:#ff0000;stroke-width:1.94925;stroke-opacity:1"
       id="path1065-1-2-5-2"
       cx="52.5"
       cy="340.50003"
       r="10.525375" />
    <circle
       style="display:inline;fill:#ff0000;stroke:#ff0000;stroke-width:1.94925;stroke-opacity:1"
       id="path1065-7-1-2-1-2-7"
       cx="20.5"
       cy="112.49963"
       r="10.525375" />
    <circle
       style="display:inline;fill:#ff0000;stroke:#ff0000;stroke-width:1.94925;stroke-opacity:1"
       id="path1065-5-2-0"
       cx="20.5"
       cy="313.5"
       r="10.525375" />
    <circle
       style="display:inline;fill:#ff0000;stroke:#ff0000;stroke-width:1.94925;stroke-opacity:1"
       id="path1065-7-2-3-0"
       cx="20.5"
       cy="286.5"
       r="10.525375" />
    <circle
       style="display:inline;fill:#ff0000;stroke:#ff0000;stroke-width:1.94925;stroke-opacity:1"
       id="path1065-7-1-1-00-3"
       cx="20.5"
       cy="259.49997"
       r="10.525375" />
    <circle
       style="display:inline;fill:#ff0000;stroke:#ff0000;stroke-width:1.94925;stroke-opacity:1"
       id="path1065-7-1-8-5-2-6"
       cx="20.5"
       cy="232.49998"
       r="10.525375" />
    <circle
       style="display:inline;fill:#ff0000;stroke:#ff0000;stroke-width:1.94925;stroke-opacity:1"
       id="path1065-7-1-17-4-0-5"
       cx="20.5"
       cy="205.0524"
       r="10.525375" />
    <circle
       style="display:inline;fill:#ff0000;stroke:#ff0000;stroke-width:1.94925;stroke-opacity:1"
       id="path1065-7-1-89-8-3-8"
       cx="20.5"
       cy="178.49998"
       r="10.525375" />
    <circle
       style="display:inline;fill:#ff0000;stroke:#ff0000;stroke-width:1.94925;stroke-opacity:1"
       id="path1065-7-1-2-1-6-3"
       cx="20.5"
       cy="151.5"
       r="10.525375" />
    <circle
       style="display:inline;fill:#ff0000;stroke:#ff0000;stroke-width:1.94925;stroke-opacity:1"
       id="path1065-1-2-5-3"
       cx="20.5"
       cy="340.5"
       r="10.525375" />
    <circle
       style="display:inline;fill:#ff0000;fill-opacity:1;stroke:none;stroke-width:0.999997;stroke-dasharray:1.99999, 1.99999"
       id="path29455-6"
       cx="98.5"
       cy="21.5"
       r="3" />
    <circle
       style="display:inline;fill:#ff0000;fill-opacity:1;stroke:none;stroke-width:0.999998;stroke-dasharray:1.99998, 1.99998"
       id="path29455-7"
       cx="52.5"
       cy="23"
       r="4.5" />
  </g>
</svg>
