<?xml version="1.0" encoding="UTF-8" standalone="no"?>
<svg
   width="45"
   height="380"
   viewBox="0 0 45 380"
   version="1.1"
   id="svg100"
   sodipodi:docname="ShapedVCA_Earth.svg"
   inkscape:version="1.1.1 (3bf5ae0d25, 2021-09-20)"
   xmlns:inkscape="http://www.inkscape.org/namespaces/inkscape"
   xmlns:sodipodi="http://sodipodi.sourceforge.net/DTD/sodipodi-0.dtd"
   xmlns="http://www.w3.org/2000/svg"
   xmlns:svg="http://www.w3.org/2000/svg"
   xmlns:rdf="http://www.w3.org/1999/02/22-rdf-syntax-ns#"
   xmlns:cc="http://creativecommons.org/ns#"
   xmlns:dc="http://purl.org/dc/elements/1.1/">
  <metadata
     id="metadata104">
    <rdf:RDF>
      <cc:Work
         rdf:about="">
        <dc:format>image/svg+xml</dc:format>
        <dc:type
           rdf:resource="http://purl.org/dc/dcmitype/StillImage" />
      </cc:Work>
    </rdf:RDF>
  </metadata>
  <sodipodi:namedview
     pagecolor="#ffffff"
     bordercolor="#666666"
     borderopacity="1"
     objecttolerance="1"
     gridtolerance="1"
     guidetolerance="1"
     inkscape:pageopacity="0"
     inkscape:pageshadow="2"
     inkscape:window-width="1920"
     inkscape:window-height="1057"
     id="namedview102"
     showgrid="true"
     inkscape:zoom="2.2342105"
     inkscape:cx="22.603062"
     inkscape:cy="190"
     inkscape:window-x="1592"
     inkscape:window-y="-8"
     inkscape:window-maximized="1"
     inkscape:current-layer="f45e0130-37b7-4f8b-95b3-6408baa23eb1"
     inkscape:pagecheckerboard="0"
     units="px"
     inkscape:snap-perpendicular="false"
     showborder="false">
    <inkscape:grid
       type="xygrid"
       id="grid1285" />
  </sodipodi:namedview>
  <defs
     id="defs7">
    <rect
       x="85"
       y="10"
       width="51.058132"
       height="25"
       id="rect29906" />
    <linearGradient
       id="a8e142bb-541b-4903-be63-d5d069028a5d"
       x1="22.5"
       x2="22.5"
       y2="380"
       gradientUnits="userSpaceOnUse">
      <stop
         offset="0"
         stop-color="#ebebeb"
         id="stop2" />
      <stop
         offset="1"
         stop-color="#e1e1e1"
         id="stop4" />
    </linearGradient>
  </defs>
  <g
     id="aea613ef-74be-49bf-be45-c0734aee674b"
     data-name="FND BG"
     style="fill:#423932;fill-opacity:1;stroke:none;stroke-opacity:1">
    <rect
       width="45"
       height="380"
       fill="url(#a8e142bb-541b-4903-be63-d5d069028a5d)"
       id="rect9"
       style="fill:#423932;fill-opacity:1;stroke:none;stroke-opacity:1"
       x="0"
       y="0" />
  </g>
  <g
     id="f45e0130-37b7-4f8b-95b3-6408baa23eb1"
     data-name="components"
     style="display:inline"
     inkscape:groupmode="layer">
    <g
       id="g45995"
       style="fill:#d2ac95;fill-opacity:1">
      <g
         id="g45795"
         style="fill:#d2ac95;fill-opacity:1">
        <rect
           x="2.0370407"
           y="286.48944"
           width="40.925919"
           height="67.440842"
           rx="4.0632"
           fill="#1f1f1f"
           id="rect56"
           style="fill:#d2ac95;fill-opacity:1;stroke-width:1.57125" />
        <g
           aria-label="SHAPED"
           id="text4707"
           style="font-weight:bold;font-size:9.33333px;line-height:1.25;font-family:Arial;-inkscape-font-specification:'Arial, Bold';font-variant-ligatures:none;text-align:center;text-anchor:middle;display:inline;fill:#d2ac95;fill-opacity:1"
           transform="translate(0,-2)">
          <path
             d="m 3.4528066,12.826173 1.3124996,-0.127605 q 0.1184895,0.660808 0.4785154,0.970703 0.3645832,0.309896 0.9798174,0.309896 0.6516925,0 0.9798174,-0.273437 0.3326822,-0.277995 0.3326822,-0.647136 0,-0.236979 -0.141276,-0.401041 Q 7.2581439,12.488933 6.9117898,12.365886 6.6748107,12.283855 5.8317121,12.07422 4.747077,11.80534 4.3095772,11.413413 3.694343,10.861981 3.694343,10.069012 q 0,-0.5104164 0.2871093,-0.9524735 Q 4.2731188,8.669924 4.8154364,8.4375022 5.3623112,8.2050804 6.1324932,8.2050804 q 1.2578121,0 1.8912754,0.5514321 0.6380206,0.5514321 0.6699217,1.4720045 l -1.3489579,0.05925 Q 7.2581439,9.7727882 6.9710346,9.549481 6.6884826,9.3216165 6.1188213,9.3216165 q -0.5878904,0 -0.9205726,0.2415364 -0.2141926,0.1549479 -0.2141926,0.4147134 0,0.2369787 0.2005208,0.4055987 0.2552082,0.214193 1.2395829,0.446615 0.9843746,0.232421 1.4537755,0.483072 0.4739582,0.246094 0.738281,0.679037 0.2688801,0.428385 0.2688801,1.061848 0,0.574219 -0.3190103,1.075521 -0.3190103,0.501302 -0.9023434,0.747395 -0.5833331,0.241537 -1.4537756,0.241537 -1.2669266,0 -1.9459628,-0.583334 -0.6790363,-0.58789 -0.8111977,-1.708983 z"
             id="path15679"
             style="fill:#d2ac95;fill-opacity:1" />
          <path
             d="M 10.024419,15 V 8.3190127 h 1.348958 v 2.6295563 h 2.643228 V 8.3190127 h 1.348958 V 15 H 14.016605 V 12.078777 H 11.373377 V 15 Z"
             id="path15681"
             style="fill:#d2ac95;fill-opacity:1" />
          <path
             d="M 22.784831,15 H 21.317384 L 20.734051,13.482422 H 18.063479 L 17.512047,15 h -1.43099 L 18.68327,8.3190127 h 1.426432 z M 20.301108,12.356772 19.380536,9.8776059 18.478192,12.356772 Z"
             id="path15683"
             style="fill:#d2ac95;fill-opacity:1" />
          <path
             d="M 23.500326,15 V 8.3190127 h 2.164713 q 1.230468,0 1.604166,0.1002604 0.574219,0.1503905 0.961588,0.6562498 0.38737,0.5013019 0.38737,1.2988281 0,0.615234 -0.223307,1.034504 -0.223307,0.419271 -0.569661,0.660807 -0.341797,0.23698 -0.697266,0.314453 -0.483073,0.0957 -1.399088,0.0957 H 24.849284 V 15 Z m 1.348958,-5.5507794 v 1.8958324 h 0.738281 q 0.797526,0 1.066406,-0.104817 0.26888,-0.104818 0.419271,-0.328125 0.154948,-0.223307 0.154948,-0.519531 0,-0.364584 -0.214193,-0.6015626 -0.214193,-0.2369791 -0.542318,-0.2962239 -0.241536,-0.045573 -0.970702,-0.045573 z"
             id="path15685"
             style="fill:#d2ac95;fill-opacity:1" />
          <path
             d="M 29.725584,15 V 8.3190127 h 4.953774 V 9.4492206 H 31.074542 V 10.93034 h 3.354165 v 1.125651 h -3.354165 v 1.818358 h 3.732421 V 15 Z"
             id="path15687"
             style="fill:#d2ac95;fill-opacity:1" />
          <path
             d="m 35.946285,8.3190127 h 2.465494 q 0.833984,0 1.271484,0.1276041 0.58789,0.173177 1.007161,0.6152342 0.41927,0.4420571 0.63802,1.084635 0.21875,0.638021 0.21875,1.576822 0,0.82487 -0.205078,1.421875 -0.250651,0.729166 -0.715494,1.180338 -0.350912,0.341797 -0.947917,0.533203 Q 39.232091,15 38.484695,15 h -2.53841 z m 1.348958,1.1302079 v 4.4251284 h 1.007161 q 0.565104,0 0.815755,-0.0638 0.328124,-0.08203 0.542317,-0.277994 0.21875,-0.195964 0.355469,-0.642578 0.136718,-0.451172 0.136718,-1.225911 0,-0.77474 -0.136718,-1.189453 Q 39.879226,10.0599 39.633132,9.8274777 39.387039,9.5950559 39.008784,9.5130247 38.726232,9.4492227 37.901362,9.4492227 Z"
             id="path15689"
             style="fill:#d2ac95;fill-opacity:1" />
        </g>
        <g
           aria-label="VCA"
           id="text4707-2"
           style="font-weight:bold;font-size:9.33333px;line-height:1.25;font-family:Arial;-inkscape-font-specification:'Arial, Bold';font-variant-ligatures:none;text-align:center;text-anchor:middle;display:inline;fill:#d2ac95;fill-opacity:1"
           transform="translate(0,-2)">
          <path
             d="m 15.051109,26 -2.38802,-6.680987 h 1.46289 l 1.690755,4.944659 1.636067,-4.944659 H 18.88379 L 16.491213,26 Z"
             id="path15672"
             style="fill:#d2ac95;fill-opacity:1" />
          <path
             d="m 23.846679,23.543621 1.307943,0.414713 q -0.300782,1.09375 -1.002604,1.626953 -0.697266,0.528645 -1.772786,0.528645 -1.330729,0 -2.187499,-0.9069 -0.856771,-0.911459 -0.856771,-2.488281 0,-1.667968 0.861328,-2.588541 0.861328,-0.92513 2.264973,-0.92513 1.225911,0 1.991536,0.72461 0.455729,0.428385 0.683593,1.230468 l -1.335286,0.31901 q -0.118489,-0.519531 -0.496744,-0.820312 -0.373698,-0.300781 -0.911458,-0.300781 -0.742839,0 -1.207682,0.533203 -0.460286,0.533203 -0.460286,1.727213 0,1.266926 0.455729,1.804687 0.455729,0.53776 1.184895,0.53776 0.53776,0 0.92513,-0.341797 0.38737,-0.341797 0.555989,-1.07552 z"
             id="path15674"
             style="fill:#d2ac95;fill-opacity:1" />
          <path
             d="M 32.336911,26 H 30.869463 L 30.28613,24.482422 H 27.615558 L 27.064126,26 h -1.430989 l 2.602213,-6.680987 h 1.426431 z m -2.483723,-2.643228 -0.920573,-2.479166 -0.902343,2.479166 z"
             id="path15676"
             style="fill:#d2ac95;fill-opacity:1" />
        </g>
        <g
           aria-label="LEVEL"
           id="text10248"
           style="font-weight:bold;font-size:8px;line-height:1.25;font-family:Arial;-inkscape-font-specification:'Arial, Bold';font-variant-ligatures:none;text-align:center;text-anchor:middle;display:inline;fill:#d2ac95;fill-opacity:1"
           transform="matrix(1.0000177,0,0,1.000009,-1.6407892e-4,7.999614)">
          <path
             d="m 10.037109,48.726562 v -5.679687 h 1.15625 v 4.714844 h 2.875 v 0.964843 z"
             id="path15661"
             style="fill:#d2ac95;fill-opacity:1" />
          <path
             d="M 14.892578,48.726562 V 43 h 4.246094 v 0.96875 h -3.089844 v 1.269531 h 2.875 v 0.964844 h -2.875 v 1.558594 h 3.199219 v 0.964843 z"
             id="path15663"
             style="fill:#d2ac95;fill-opacity:1" />
          <path
             d="M 21.689453,48.726562 19.642578,43 h 1.253906 L 22.345703,47.238281 23.748047,43 h 1.226562 l -2.050781,5.726562 z"
             id="path15665"
             style="fill:#d2ac95;fill-opacity:1" />
          <path
             d="M 25.564453,48.726562 V 43 h 4.246094 v 0.96875 h -3.089844 v 1.269531 h 2.875 v 0.964844 h -2.875 v 1.558594 h 3.199219 v 0.964843 z"
             id="path15667"
             style="fill:#d2ac95;fill-opacity:1" />
          <path
             d="m 30.931641,48.726562 v -5.679687 h 1.15625 v 4.714844 h 2.875 v 0.964843 z"
             id="path15669"
             style="fill:#d2ac95;fill-opacity:1" />
        </g>
        <g
           aria-label="10V"
           id="text10248-7-62-6"
           style="font-weight:bold;font-size:5.33333px;line-height:1.25;font-family:Arial;-inkscape-font-specification:'Arial, Bold';font-variant-ligatures:none;text-align:center;text-anchor:middle;display:inline;fill:#d2ac95;fill-opacity:1"
           transform="matrix(1.000009,0,0,1.000009,0.53338649,4.874988)">
          <path
             d="m 35.635815,90.434929 h -0.73177 v -2.757811 q -0.401042,0.375 -0.945312,0.554687 v -0.664062 q 0.286458,-0.09375 0.622395,-0.354166 0.335937,-0.263021 0.460937,-0.611979 h 0.59375 z"
             id="path15654"
             style="fill:#d2ac95;fill-opacity:1" />
          <path
             d="m 37.966543,86.601598 q 0.554687,0 0.867187,0.395833 0.372395,0.46875 0.372395,1.554687 0,1.083332 -0.374999,1.55729 -0.309896,0.390625 -0.864583,0.390625 -0.557292,0 -0.898437,-0.427083 -0.341146,-0.429687 -0.341146,-1.528645 0,-1.078124 0.375,-1.552082 0.309896,-0.390625 0.864583,-0.390625 z m 0,0.60677 q -0.132813,0 -0.236979,0.08594 -0.104167,0.08333 -0.161458,0.302083 -0.07552,0.283854 -0.07552,0.955729 0,0.671874 0.06771,0.924478 0.06771,0.25 0.169271,0.333333 0.104166,0.08333 0.236979,0.08333 0.132812,0 0.236979,-0.08333 0.104166,-0.08594 0.161458,-0.304687 0.07552,-0.28125 0.07552,-0.953124 0,-0.671875 -0.06771,-0.921875 -0.06771,-0.252604 -0.171875,-0.335937 -0.101563,-0.08594 -0.234375,-0.08594 z"
             id="path15656"
             style="fill:#d2ac95;fill-opacity:1" />
          <path
             d="m 40.831124,90.434929 -1.364582,-3.817706 h 0.835937 l 0.966145,2.825519 0.934895,-2.825519 h 0.817708 l -1.367186,3.817706 z"
             id="path15658"
             style="fill:#d2ac95;fill-opacity:1" />
        </g>
        <path
           d="M 34.875237,97.000605 32.984178,94.27672 a 0.37187334,0.37187334 0 0 0 -0.641852,0.0535 l -1.413418,2.999707 a 0.37187334,0.37187334 0 0 0 0.367348,0.529055 l 3.304491,-0.275613 a 0.37186334,0.37186334 0 0 0 0.274509,-0.582555 z"
           fill="#1f1f1f"
           id="path26-0-2"
           style="display:inline;fill:#d2ac95;fill-opacity:1;stroke-width:1.00001" />
        <g
           aria-label="IN"
           id="text10248-1-2"
           style="font-weight:bold;font-size:8px;line-height:1.25;font-family:Arial;-inkscape-font-specification:'Arial, Bold';font-variant-ligatures:none;text-align:center;text-anchor:middle;display:inline;fill:#d2ac95;fill-opacity:1"
           transform="translate(0,15.90028)">
          <path
             d="m 19.09375,210.36328 v -5.72656 H 20.25 v 5.72656 z"
             id="path15642"
             style="fill:#d2ac95;fill-opacity:1" />
          <path
             d="m 21.363281,210.36328 v -5.72656 h 1.125 l 2.34375,3.82422 v -3.82422 h 1.074219 v 5.72656 H 24.746094 L 22.4375,206.62891 v 3.73437 z"
             id="path15644"
             style="fill:#d2ac95;fill-opacity:1" />
        </g>
        <g
           aria-label="L"
           id="text10248-7"
           style="font-weight:bold;font-size:8px;line-height:1.25;font-family:Arial;-inkscape-font-specification:'Arial, Bold';font-variant-ligatures:none;text-align:center;text-anchor:middle;display:inline;fill:#d2ac95;fill-opacity:1"
           transform="translate(0,14.99984)">
          <path
             d="m 5.3989697,227.83984 v -5.67968 h 1.15625 v 4.71484 h 2.875 v 0.96484 z"
             id="path15639"
             style="fill:#d2ac95;fill-opacity:1" />
        </g>
        <g
           aria-label="R"
           id="text10248-7-6"
           style="font-weight:bold;font-size:8px;line-height:1.25;font-family:Arial;-inkscape-font-specification:'Arial, Bold';font-variant-ligatures:none;text-align:center;text-anchor:middle;display:inline;fill:#d2ac95;fill-opacity:1"
           transform="translate(0,12)">
          <path
             d="m 4.8403759,260.86328 v -5.72656 h 2.4335938 q 0.9179687,0 1.3320312,0.15625 0.4179688,0.15234 0.6679688,0.54687 0.25,0.39453 0.25,0.90235 0,0.64453 -0.3789063,1.0664 -0.3789062,0.41797 -1.1328125,0.52735 0.375,0.21875 0.6171875,0.48047 0.2460938,0.26171 0.6601563,0.92968 l 0.6992187,1.11719 H 8.6060009 l -0.8359375,-1.24609 q -0.4453125,-0.66797 -0.609375,-0.83985 -0.1640625,-0.17578 -0.3476562,-0.23828 -0.1835938,-0.0664 -0.5820313,-0.0664 h -0.234375 v 2.39062 z m 1.15625,-3.30469 h 0.8554688 q 0.8320312,0 1.0390625,-0.0703 0.2070312,-0.0703 0.3242187,-0.24219 0.1171875,-0.17187 0.1171875,-0.42968 0,-0.28907 -0.15625,-0.46485 -0.1523437,-0.17969 -0.4335937,-0.22656 -0.140625,-0.0195 -0.84375,-0.0195 H 5.9966259 Z"
             id="path15636"
             style="fill:#d2ac95;fill-opacity:1" />
        </g>
        <g
           aria-label="10V"
           id="text10248-7-62"
           style="font-weight:bold;font-size:5.33333px;line-height:1.25;font-family:Arial;-inkscape-font-specification:'Arial, Bold';font-variant-ligatures:none;text-align:center;text-anchor:middle;display:inline;fill:#d2ac95;fill-opacity:1"
           transform="translate(0.620612,15.12537)">
          <path
             d="M 35.548661,213.41696 H 34.81689 v -2.75781 q -0.401041,0.375 -0.945312,0.55469 v -0.66406 q 0.286458,-0.0937 0.622396,-0.35417 0.335937,-0.26302 0.460937,-0.61198 h 0.59375 z"
             id="path15647"
             style="fill:#d2ac95;fill-opacity:1" />
          <path
             d="m 37.879388,209.58363 q 0.554688,0 0.867187,0.39583 0.372396,0.46875 0.372396,1.55469 0,1.08333 -0.375,1.55729 -0.309895,0.39063 -0.864583,0.39063 -0.557291,0 -0.898437,-0.42709 -0.341145,-0.42968 -0.341145,-1.52864 0,-1.07813 0.375,-1.55208 0.309895,-0.39063 0.864582,-0.39063 z m 0,0.60677 q -0.132812,0 -0.236979,0.0859 -0.104166,0.0833 -0.161458,0.30208 -0.07552,0.28386 -0.07552,0.95573 0,0.67187 0.06771,0.92448 0.06771,0.25 0.16927,0.33333 0.104167,0.0833 0.236979,0.0833 0.132813,0 0.236979,-0.0833 0.104167,-0.0859 0.161459,-0.30469 0.07552,-0.28125 0.07552,-0.95312 0,-0.67187 -0.06771,-0.92187 -0.06771,-0.25261 -0.171875,-0.33594 -0.101562,-0.0859 -0.234375,-0.0859 z"
             id="path15649"
             style="fill:#d2ac95;fill-opacity:1" />
          <path
             d="m 40.74397,213.41696 -1.364582,-3.8177 h 0.835937 l 0.966145,2.82551 0.934895,-2.82551 h 0.817708 l -1.367187,3.8177 z"
             id="path15651"
             style="fill:#d2ac95;fill-opacity:1" />
        </g>
        <path
           d="m 34.645913,230.08855 -1.891042,-2.72386 a 0.37187,0.37187 0 0 0 -0.641846,0.0535 l -1.413405,2.99968 a 0.37187,0.37187 0 0 0 0.367344,0.52905 l 3.304462,-0.27561 a 0.37186,0.37186 0 0 0 0.274506,-0.58255 z"
           fill="#1f1f1f"
           id="path26-0"
           style="display:inline;fill:#d2ac95;fill-opacity:1" />
        <path
           d="m 24.155143,253.186 -3.315849,0.0243 a 0.37187,0.37187 0 0 0 -0.317991,0.56008 l 1.679018,2.85949 a 0.37187,0.37187 0 0 0 0.644061,-0.004 l 1.63701,-2.88367 a 0.37186,0.37186 0 0 0 -0.326066,-0.5554 z"
           fill="#1f1f1f"
           id="path26-0-8"
           style="display:inline;fill:#d2ac95;fill-opacity:1"
           inkscape:transform-center-x="0.093648522"
           inkscape:transform-center-y="0.47312619" />
        <g
           aria-label="R"
           id="text42775"
           style="font-weight:bold;font-size:5.33333px;line-height:1.25;font-family:Arial;-inkscape-font-specification:'Arial, Bold';font-variant-ligatures:none;text-align:center;text-anchor:middle;display:inline;fill:#d2ac95;fill-opacity:1">
          <path
             d="m 4.9429192,35.536915 v -3.817706 h 1.6223949 q 0.6119788,0 0.8880203,0.104166 0.2786457,0.101563 0.4453122,0.364583 0.1666666,0.263021 0.1666666,0.601563 0,0.429687 -0.252604,0.710937 -0.252604,0.278645 -0.7552079,0.351562 0.2499998,0.145833 0.4114581,0.320312 0.1640624,0.174479 0.4401039,0.619792 l 0.4661455,0.744791 H 7.4533344 L 6.8960431,34.706186 Q 6.5991682,34.260874 6.4897933,34.146291 6.3804184,34.029103 6.2580226,33.987437 6.1356268,33.943166 5.870002,33.943166 H 5.7137521 v 1.593749 z m 0.7708329,-2.203124 h 0.5703121 q 0.5546872,0 0.692708,-0.04687 0.1380207,-0.04687 0.2161457,-0.161458 0.078125,-0.114583 0.078125,-0.286458 0,-0.192708 -0.1041666,-0.309896 Q 7.0653139,32.409318 6.877814,32.378068 6.784064,32.365048 6.3153143,32.365048 H 5.7137521 Z"
             id="path45685"
             style="fill:#d2ac95;fill-opacity:1" />
        </g>
        <g
           aria-label="M"
           id="text42775-4"
           style="font-weight:bold;font-size:5.33333px;line-height:1.25;font-family:Arial;-inkscape-font-specification:'Arial, Bold';font-variant-ligatures:none;text-align:center;text-anchor:middle;display:inline;fill:#d2ac95;fill-opacity:1">
          <path
             d="m 15.330798,35.536915 v -3.817706 h 1.153645 l 0.692708,2.604165 0.684896,-2.604165 h 1.156249 v 3.817706 h -0.716145 v -3.005207 l -0.757812,3.005207 h -0.742187 l -0.755208,-3.005207 v 3.005207 z"
             id="path45688"
             style="fill:#d2ac95;fill-opacity:1" />
        </g>
        <g
           aria-label="C"
           id="text42775-6"
           style="font-weight:bold;font-size:5.33333px;line-height:1.25;font-family:Arial;-inkscape-font-specification:'Arial, Bold';font-variant-ligatures:none;text-align:center;text-anchor:middle;display:inline;fill:#d2ac95;fill-opacity:1">
          <path
             d="m 28.605396,34.068164 0.747396,0.236979 q -0.171875,0.625 -0.572917,0.929687 -0.398437,0.302084 -1.01302,0.302084 -0.760416,0 -1.249999,-0.518229 -0.489583,-0.520833 -0.489583,-1.421874 0,-0.953125 0.492187,-1.479166 0.492187,-0.528646 1.29427,-0.528646 0.700521,0 1.13802,0.414062 0.260417,0.244792 0.390625,0.703125 l -0.76302,0.182292 q -0.06771,-0.296875 -0.283854,-0.46875 -0.213542,-0.171875 -0.520833,-0.171875 -0.424479,0 -0.690104,0.304687 -0.263021,0.304688 -0.263021,0.986979 0,0.723958 0.260417,1.031249 0.260416,0.307292 0.677083,0.307292 0.307291,0 0.528645,-0.195313 0.221354,-0.195312 0.317708,-0.614583 z"
             id="path45691"
             style="fill:#d2ac95;fill-opacity:1" />
        </g>
        <g
           aria-label="O"
           id="text42775-2"
           style="font-weight:bold;font-size:5.33333px;line-height:1.25;font-family:Arial;-inkscape-font-specification:'Arial, Bold';font-variant-ligatures:none;text-align:center;text-anchor:middle;display:inline;fill:#d2ac95;fill-opacity:1">
          <path
             d="m 36.353957,33.586394 q 0,-0.583333 0.174479,-0.979166 0.130208,-0.291667 0.354166,-0.523437 0.226563,-0.231771 0.494792,-0.34375 0.35677,-0.151042 0.822916,-0.151042 0.843749,0 1.348957,0.523437 0.507812,0.523438 0.507812,1.455729 0,0.924478 -0.502603,1.447915 -0.502604,0.520834 -1.34375,0.520834 -0.851562,0 -1.354165,-0.518229 -0.502604,-0.520833 -0.502604,-1.432291 z m 0.79427,-0.02604 q 0,0.648437 0.299479,0.984375 0.299479,0.333333 0.760416,0.333333 0.460937,0 0.755208,-0.330729 0.296875,-0.333333 0.296875,-0.997395 0,-0.65625 -0.289062,-0.979167 -0.286459,-0.322916 -0.763021,-0.322916 -0.476562,0 -0.768228,0.328125 -0.291667,0.32552 -0.291667,0.984374 z"
             id="path45694"
             style="fill:#d2ac95;fill-opacity:1" />
        </g>
      </g>
      <g
         id="g45938"
         style="display:inline;fill:#d2ac95;fill-opacity:1">
        <path
           d="m 13.617699,122.02366 h 2.289083 q 0.679694,0 1.011728,0.0586 0.335941,0.0547 0.597661,0.23438 0.265628,0.17969 0.441411,0.48048 0.175783,0.29687 0.175783,0.66796 0,0.40236 -0.218752,0.7383 -0.214846,0.33593 -0.585943,0.50391 0.523442,0.15235 0.804695,0.51953 0.281252,0.36719 0.281252,0.86329 0,0.39063 -0.183595,0.76172 -0.179689,0.3672 -0.496099,0.58986 -0.312502,0.21875 -0.773444,0.26953 -0.289065,0.0312 -1.394543,0.0391 h -1.949237 z m 1.156261,0.95313 v 1.32423 h 0.757818 q 0.675789,0 0.839852,-0.0195 0.296878,-0.0352 0.464848,-0.20312 0.171877,-0.17188 0.171877,-0.44922 0,-0.26564 -0.14844,-0.4297 -0.144532,-0.16797 -0.433596,-0.20313 -0.171877,-0.0195 -0.988291,-0.0195 z m 0,2.27737 v 1.53126 h 1.070321 q 0.625006,0 0.792976,-0.0352 0.257816,-0.0469 0.417973,-0.22656 0.164064,-0.1836 0.164064,-0.48828 0,-0.25783 -0.125001,-0.43751 -0.125002,-0.17969 -0.363285,-0.26172 -0.234377,-0.082 -1.023446,-0.082 z"
           id="path41338"
           style="font-weight:bold;font-size:8px;line-height:1.25;font-family:Arial;-inkscape-font-specification:'Arial, Bold';font-variant-ligatures:none;text-align:center;text-anchor:middle;fill:#d2ac95;fill-opacity:1;stroke-width:1.00001" />
        <path
           d="m 19.356032,127.75027 v -5.72661 h 1.15626 v 5.72661 z"
           id="path41340"
           style="font-weight:bold;font-size:8px;line-height:1.25;font-family:Arial;-inkscape-font-specification:'Arial, Bold';font-variant-ligatures:none;text-align:center;text-anchor:middle;fill:#d2ac95;fill-opacity:1;stroke-width:1.00001" />
        <path
           d="M 26.777974,127.75027 H 25.52015 l -0.500004,-1.30079 h -2.289084 l -0.47266,1.30079 h -1.226574 l 2.230489,-5.72661 h 1.222667 z m -2.128925,-2.26564 -0.789071,-2.12502 -0.773444,2.12502 z"
           id="path41342"
           style="font-weight:bold;font-size:8px;line-height:1.25;font-family:Arial;-inkscape-font-specification:'Arial, Bold';font-variant-ligatures:none;text-align:center;text-anchor:middle;fill:#d2ac95;fill-opacity:1;stroke-width:1.00001" />
        <path
           d="m 27.09829,125.88698 1.12501,-0.10939 q 0.101563,0.56642 0.410159,0.83205 0.312503,0.26562 0.839852,0.26562 0.558598,0 0.839851,-0.23437 0.285159,-0.23829 0.285159,-0.55469 0,-0.20313 -0.121095,-0.34376 -0.117189,-0.14453 -0.414067,-0.25 -0.203127,-0.0703 -0.925789,-0.25 -0.929695,-0.23047 -1.304699,-0.56642 -0.527349,-0.47265 -0.527349,-1.15235 0,-0.4375 0.246097,-0.81641 0.250002,-0.38282 0.714849,-0.58204 0.468754,-0.19922 1.128917,-0.19922 1.078135,0 1.621108,0.47266 0.54688,0.47266 0.574224,1.26174 l -1.15626,0.0508 q -0.07422,-0.44142 -0.320315,-0.63282 -0.24219,-0.19532 -0.730476,-0.19532 -0.50391,0 -0.78907,0.20703 -0.183595,0.13282 -0.183595,0.35547 0,0.20314 0.171877,0.34767 0.218752,0.18359 1.06251,0.38281 0.843757,0.19922 1.246104,0.41406 0.406253,0.21095 0.632818,0.58205 0.230471,0.36718 0.230471,0.91016 0,0.49219 -0.27344,0.92189 -0.273439,0.42968 -0.773444,0.64062 -0.500004,0.20703 -1.246105,0.20703 -1.085948,0 -1.667984,-0.5 -0.582036,-0.50391 -0.695318,-1.46485 z"
           id="path41344"
           style="font-weight:bold;font-size:8px;line-height:1.25;font-family:Arial;-inkscape-font-specification:'Arial, Bold';font-variant-ligatures:none;text-align:center;text-anchor:middle;fill:#d2ac95;fill-opacity:1;stroke-width:1.00001" />
      </g>
    </g>
    <g
       id="g45802"
       style="stroke:#d2ac95;stroke-opacity:1">
      <path
         style="display:inline;fill:none;stroke:#d2ac95;stroke-width:1.22768;stroke-linecap:butt;stroke-linejoin:miter;stroke-miterlimit:4;stroke-dasharray:none;stroke-opacity:1"
         d="m 22.5,169 v 35.5"
         id="path15497" />
      <path
         style="display:inline;fill:none;stroke:#d2ac95;stroke-width:1.22769;stroke-linecap:butt;stroke-linejoin:miter;stroke-miterlimit:4;stroke-dasharray:none;stroke-opacity:1"
         d="M 22.500126,73.000197 V 108.50052"
         id="path15497-0" />
      <path
         style="display:inline;fill:none;stroke:#d2ac95;stroke-width:1px;stroke-linecap:butt;stroke-linejoin:miter;stroke-opacity:1"
         d="m 9.9375,188 c 2.800386,0.0181 4.972375,-0.22414 5.0625,-5"
         id="path12152"
         sodipodi:nodetypes="cc" />
      <path
         style="display:inline;fill:none;stroke:#d2ac95;stroke-width:1px;stroke-linecap:butt;stroke-linejoin:miter;stroke-opacity:1"
         d="m 29.466791,188.46425 c 0,0 -0.379104,-5.13372 5.0625,-5"
         id="path12152-9"
         sodipodi:nodetypes="cc" />
      <path
         style="display:inline;fill:none;stroke:#d2ac95;stroke-width:0.999991px;stroke-linecap:butt;stroke-linejoin:miter;stroke-opacity:1"
         d="m 19.999997,158.22856 4.9999,-5.00001"
         id="path13057"
         sodipodi:nodetypes="cc" />
    </g>
    <g
       id="g1328"
       style="fill:#423932;fill-opacity:1">
      <g
         aria-label="L"
         id="text10248-7-9"
         style="font-weight:bold;font-size:8px;line-height:1.25;font-family:Arial;-inkscape-font-specification:'Arial, Bold';font-variant-ligatures:none;text-align:center;text-anchor:middle;display:inline;fill:#423932;fill-opacity:1"
         transform="translate(0,6.0000034)">
        <path
           d="m 5.3989697,305.83984 v -5.67968 h 1.15625 v 4.71484 h 2.875 v 0.96484 z"
           id="path15623"
           style="fill:#423932;fill-opacity:1" />
      </g>
      <g
         aria-label="R"
         id="text10248-7-9-5"
         style="font-weight:bold;font-size:8px;line-height:1.25;font-family:Arial;-inkscape-font-specification:'Arial, Bold';font-variant-ligatures:none;text-align:center;text-anchor:middle;display:inline;fill:#423932;fill-opacity:1"
         transform="translate(0,3.0000034)">
        <path
           d="m 4.8403759,338.86328 v -5.72656 h 2.4335938 q 0.9179687,0 1.3320312,0.15625 0.4179688,0.15234 0.6679688,0.54687 0.25,0.39453 0.25,0.90235 0,0.64453 -0.3789063,1.0664 -0.3789062,0.41797 -1.1328125,0.52735 0.375,0.21875 0.6171875,0.48047 0.2460938,0.26171 0.6601563,0.92968 l 0.6992187,1.11719 H 8.6060009 l -0.8359375,-1.24609 q -0.4453125,-0.66797 -0.609375,-0.83985 -0.1640625,-0.17578 -0.3476562,-0.23828 -0.1835938,-0.0664 -0.5820313,-0.0664 h -0.234375 v 2.39062 z m 1.15625,-3.30469 h 0.8554688 q 0.8320312,0 1.0390625,-0.0703 0.2070312,-0.0703 0.3242187,-0.24219 0.1171875,-0.17187 0.1171875,-0.42968 0,-0.28907 -0.15625,-0.46485 -0.1523437,-0.17969 -0.4335937,-0.22656 -0.140625,-0.0195 -0.84375,-0.0195 H 5.9966259 Z"
           id="path15626"
           style="fill:#423932;fill-opacity:1" />
      </g>
      <g
         aria-label="OUT"
         id="text10248-1-2-9"
         style="font-weight:bold;font-size:8px;line-height:1.25;font-family:Arial;-inkscape-font-specification:'Arial, Bold';font-variant-ligatures:none;text-align:center;text-anchor:middle;display:inline;fill:#423932;fill-opacity:1"
         transform="translate(0,6.99977)">
        <path
           d="m 14.3125,285.48633 q 0,-0.875 0.261719,-1.46875 0.195312,-0.4375 0.53125,-0.78516 0.339844,-0.34765 0.742187,-0.51562 0.535156,-0.22657 1.234375,-0.22657 1.265625,0 2.023438,0.78516 0.761718,0.78516 0.761718,2.18359 0,1.38672 -0.753906,2.17188 -0.753906,0.78125 -2.015625,0.78125 -1.277343,0 -2.03125,-0.77734 -0.753906,-0.78125 -0.753906,-2.14844 z m 1.191406,-0.0391 q 0,0.97265 0.449219,1.47656 0.449219,0.5 1.140625,0.5 0.691406,0 1.132812,-0.4961 0.445313,-0.5 0.445313,-1.49609 0,-0.98437 -0.433594,-1.46875 -0.429687,-0.48437 -1.144531,-0.48437 -0.714844,0 -1.152344,0.49218 -0.4375,0.48828 -0.4375,1.47657 z"
           id="path15629"
           style="fill:#423932;fill-opacity:1" />
        <path
           d="m 20.761719,282.58789 h 1.15625 v 3.10156 q 0,0.73828 0.04297,0.95703 0.07422,0.35157 0.351563,0.56641 0.28125,0.21094 0.765625,0.21094 0.492187,0 0.742187,-0.19922 0.25,-0.20313 0.300782,-0.49609 0.05078,-0.29297 0.05078,-0.97266 v -3.16797 h 1.15625 v 3.00781 q 0,1.03125 -0.09375,1.45703 -0.09375,0.42579 -0.347656,0.71875 -0.25,0.29297 -0.671875,0.46875 -0.421875,0.17188 -1.101563,0.17188 -0.820312,0 -1.246094,-0.1875 -0.421875,-0.19141 -0.667968,-0.49219 -0.246094,-0.30469 -0.324219,-0.63672 -0.113281,-0.49218 -0.113281,-1.45312 z"
           id="path15631"
           style="fill:#423932;fill-opacity:1" />
        <path
           d="m 27.835937,288.31445 v -4.75781 h -1.699218 v -0.96875 H 30.6875 v 0.96875 h -1.695313 v 4.75781 z"
           id="path15633"
           style="fill:#423932;fill-opacity:1" />
      </g>
      <g
         aria-label="O"
         id="text42775-2-6"
         style="font-weight:bold;font-size:5.33333px;line-height:1.25;font-family:Arial;-inkscape-font-specification:'Arial, Bold';font-variant-ligatures:none;text-align:center;text-anchor:middle;display:inline;fill:#423932;fill-opacity:1">
        <path
           d="m 35.678771,318.27697 q 0,-0.58333 0.174479,-0.97917 0.130208,-0.29166 0.354166,-0.52343 0.226562,-0.23178 0.494791,-0.34375 0.356771,-0.15105 0.822917,-0.15105 0.843749,0 1.348957,0.52344 0.507812,0.52344 0.507812,1.45573 0,0.92448 -0.502604,1.44792 -0.502603,0.52083 -1.343749,0.52083 -0.851562,0 -1.354166,-0.51823 -0.502603,-0.52083 -0.502603,-1.43229 z m 0.79427,-0.026 q 0,0.64843 0.299479,0.98437 0.299479,0.33333 0.760416,0.33333 0.460937,0 0.755208,-0.33072 0.296875,-0.33334 0.296875,-0.9974 0,-0.65625 -0.289063,-0.97917 -0.286458,-0.32291 -0.76302,-0.32291 -0.476562,0 -0.768229,0.32812 -0.291666,0.32552 -0.291666,0.98438 z"
           id="path45730"
           style="fill:#423932;fill-opacity:1" />
      </g>
    </g>
  </g>
  <g
     id="g42796"
     transform="matrix(0.30458296,0,0,0.30458296,-0.5624499,-12.68508)"
     style="fill:#ff0000">
    <g
       aria-label="enom"
       id="text4270-27"
       style="font-size:49.3889px;line-height:1.25;font-family:'NECK ROMANCER';-inkscape-font-specification:'NECK ROMANCER, Normal';font-variant-ligatures:none;text-align:center;text-anchor:middle;fill:#ff0000;stroke-width:2.64583">
      <path
         d="m 46.609141,1249.244 q 0,1.1576 0,3.4245 3.183269,0 9.453344,0 -1.639866,0.5787 -2.990343,1.2058 -1.350478,0.627 -2.363337,1.688 -1.350477,0 -4.051433,0 0,1.4952 0.434082,2.5563 0.385851,1.1093 1.832792,1.1093 2.266873,0 6.80062,0 0.482313,-0.1447 0.868164,-0.627 0.337619,-0.5305 0.627007,-1.7363 0,2.0257 0,6.1254 -3.520888,0 -10.562665,0 -1.543403,0 -2.652724,-2.2187 -1.109321,-2.1704 -1.109321,-6.3183 0,-1.9775 0,-5.836 -0.385851,-1.3504 -1.881023,-2.1221 -1.495171,-0.7235 -3.569119,-1.2058 6.607694,0 19.774852,0 0,2.9421 0,8.7781 -1.205783,-2.701 -2.218642,-3.6656 -1.012858,-0.9646 -2.700955,-1.1093 -0.916396,-0.097 -2.170411,-0.097 -1.205783,0.048 -2.845649,0.048 -0.241157,0 -0.675239,0 z"
         id="path42762"
         style="fill:#ff0000" />
      <path
         d="m 81.576869,1245.2891 q 0,5.8842 0,17.7009 0,3.0868 -0.144694,6.0771 -0.09646,3.0386 -0.337619,5.9325 -0.385851,-3.7138 -0.964627,-6.9936 -0.530545,-3.3279 -2.025717,-5.016 0,-2.9904 0,-8.9228 -0.241157,-1.3505 -0.72347,-2.2187 -0.482314,-0.8681 -1.06109,-1.3987 -1.109321,-1.0128 -2.411567,-1.1093 -1.350478,-0.097 -2.266874,-0.097 -0.482313,0 -1.44694,0 0,4.582 0,13.746 0,3.0868 -0.09646,6.0771 -0.144694,3.0386 -0.385851,5.9325 -0.38585,-3.7138 -0.916395,-6.9936 -0.578776,-3.3279 -2.025717,-5.016 0,-4.8232 0,-14.373 -0.385851,-1.3504 -1.881022,-2.1221 -1.495172,-0.7235 -3.56912,-1.2058 6.752389,0 20.257166,0 z"
         id="path42764"
         style="fill:#ff0000" />
      <path
         d="m 104.19737,1249.0511 q 0,3.3762 0,10.1768 0,1.5434 -1.92925,2.6528 -1.92926,1.1093 -6.077152,1.1093 -4.196128,0 -6.125382,-1.1093 -1.929254,-1.1094 -1.929254,-2.6528 0,-3.3762 0,-10.1768 0,-1.5434 1.929254,-2.6527 1.929254,-1.1093 6.125382,-1.1093 4.147892,0 6.077152,1.1093 1.92925,1.1093 1.92925,2.6527 z m -3.76204,7.91 q 0,-1.8811 0,-5.6431 0,-1.6881 -1.254019,-1.9775 -1.205783,-0.2894 -2.990343,-0.2894 -1.832792,0 -3.038575,0.2894 -1.254015,0.2894 -1.254015,1.9775 0,1.881 0,5.6431 0,1.6881 1.254015,1.9774 1.205783,0.2894 3.038575,0.2894 1.78456,0 2.990343,-0.2894 1.254019,-0.2893 1.254019,-1.9774 z"
         id="path42766"
         style="fill:#ff0000" />
      <path
         d="m 142.34837,1245.2891 q -2.02572,0.4823 -3.52089,1.2058 -1.5434,0.7717 -1.88102,2.1221 0,4.7749 0,14.373 -1.49517,1.6881 -2.02572,5.016 -0.57878,3.2798 -0.96463,6.9936 -0.24115,-2.8939 -0.33762,-5.9325 -0.14469,-2.9903 -0.14469,-6.0771 0,-4.582 0,-13.746 -0.48231,0 -1.39871,0 -0.53054,0 -1.15755,0 -0.62701,0 -1.30225,0.1447 -1.25401,0.2412 -2.41157,1.2058 -1.15755,0.9646 -1.63986,3.4727 0,2.9903 0,8.9228 -0.1447,0.627 -0.28939,1.1093 -0.0965,0.4823 -0.19292,0.8199 -0.53055,1.9775 -0.38586,1.3505 0.19293,-0.627 -0.28938,1.1576 -0.0965,0.3376 -0.24116,0.8681 -0.14469,0.5306 -0.33762,1.3023 -0.14469,-0.6753 -0.28939,-1.2058 -0.14469,-0.4823 -0.24115,-0.8199 -0.53055,-2.0258 -0.33762,-1.3023 0.19292,0.7717 -0.43409,-1.6881 -0.0482,-0.2894 -0.19292,-0.7235 -0.0965,-0.3858 -0.19293,-0.8681 0,-2.9904 0,-8.9228 -0.28939,-1.3505 -0.7717,-2.2187 -0.48231,-0.8681 -1.06109,-1.3987 -1.10932,-1.0128 -2.41157,-1.1093 -1.30224,-0.097 -2.26687,-0.097 -0.48231,0 -1.39871,0 0,4.582 0,13.746 0,3.0868 -0.14469,6.0771 -0.0965,3.0386 -0.33762,5.9325 -0.38585,-3.7138 -0.96463,-6.9936 -0.53054,-3.3279 -2.02572,-5.016 0,-4.8232 0,-14.373 -0.38585,-1.3504 -1.88102,-2.1221 -1.49517,-0.7235 -3.56912,-1.2058 3.95497,0 11.76845,0 1.15755,0.3858 3.47266,1.1575 0.7717,0.2894 1.59163,0.4341 0.81994,0.1447 1.6881,0.1447 0.86816,0 1.73633,-0.1447 0.81993,-0.1447 1.59163,-0.4341 1.15756,-0.3858 3.42443,-1.1575 3.95497,0 11.76845,0 z"
         id="path42768"
         style="fill:#ff0000" />
    </g>
    <g
       aria-label="V"
       transform="matrix(1.2363173,0,0,0.80885384,-497.88086,123.48586)"
       id="text4270-3-5-2"
       style="font-size:78.5061px;line-height:1.25;font-family:Nosferotica;-inkscape-font-specification:'Nosferotica, Normal';font-variant-ligatures:none;text-align:center;text-anchor:middle;fill:#ff0000;stroke-width:3.27108">
      <path
         d="m 431.64994,1360.6864 8.57428,-0.1022 c 0,0 -4.4079,1.0878 -5.59925,3.7285 -1.88083,4.1689 -3.64217,14.6628 -3.64217,14.6628 l -2.23339,11.5191 -1.83311,11.8311 -1.71824,21.3112 -1.69514,-21.3112 -1.92196,-11.5208 -2.5009,-11.8294 c 0,0 -1.52027,-10.287 -3.38278,-14.4832 -1.14458,-2.5787 -5.63367,-3.8059 -5.63367,-3.8059 h 8.4657 l 6.66875,29.1569 z"
         id="path30410"
         sodipodi:nodetypes="ccscccccccscccc"
         style="fill:#ff0000" />
    </g>
  </g>
  <text
     xml:space="preserve"
     id="text29904"
     style="line-height:1.25;font-family:Arial;font-size:8px;-inkscape-font-specification:'Arial, Bold';font-variant-ligatures:none;text-align:center;font-weight:bold;white-space:pre;shape-inside:url(#rect29906)" />
  <g
     inkscape:groupmode="layer"
     id="layer1"
     inkscape:label="Widgets"
     style="display:none">
    <circle
       style="fill:#ff0000;stroke:#ff0000;stroke-width:1.94925;stroke-opacity:1"
       id="path1065"
       cx="22.5"
       cy="309"
       r="10.525375" />
    <circle
       style="fill:#ff0000;stroke:#ff0000;stroke-width:1.94925;stroke-opacity:1"
       id="path1065-7-1"
       cx="22.5"
       cy="270.00003"
       r="10.525375" />
    <circle
       style="fill:#ff0000;stroke:#ff0000;stroke-width:1.94925;stroke-opacity:1"
       id="path1065-7-2"
       cx="22.5"
       cy="240"
       r="10.525375" />
    <circle
       style="display:inline;fill:#ff0000;stroke:#ff0000;stroke-width:1.94925;stroke-opacity:1"
       id="path1065-7-2-8"
       cx="22.5"
       cy="202.50029"
       r="10.525375" />
    <circle
       style="display:inline;fill:#ff0000;stroke:#ff0000;stroke-width:1.94927;stroke-opacity:1"
       id="path1065-7-2-8-1"
       cx="22.500126"
       cy="106.5005"
       r="10.52547" />
    <circle
       style="fill:#ff0000;stroke:#ff0000;stroke-width:1.8645;stroke-opacity:1"
       id="path1065-77-3"
       cx="22.5"
       cy="172"
       r="10.06775" />
    <circle
       style="display:inline;fill:#ff0000;stroke:#ff0000;stroke-width:2.37302;stroke-opacity:1"
       id="path1065-77-3-6"
       cx="22.500126"
       cy="73.000198"
       r="12.813616" />
    <circle
       style="fill:#ff0000;stroke:#ff0000;stroke-width:1.94925;stroke-opacity:1"
       id="path1065-72"
       cx="22.5"
       cy="339"
       r="10.525375" />
    <circle
       style="display:inline;fill:#ff0000;stroke:#ff0000;stroke-width:1.44076;stroke-opacity:1"
       id="path1065-7-2-8-1-1"
       cx="22.68614"
       cy="138.50008"
       r="7.7796946" />
    <circle
       style="display:inline;fill:#ff0000;stroke:#ff0000;stroke-width:0.64063;stroke-opacity:1"
       id="path1065-7-2-3-6"
       cx="6.7267733"
       cy="40.998363"
       r="3.4592125" />
    <circle
       style="display:inline;fill:#ff0000;stroke:#ff0000;stroke-width:0.64063;stroke-opacity:1"
       id="path1065-7-2-3-6-3"
       cx="27.757742"
       cy="40.998363"
       r="3.4592125" />
    <circle
       style="display:inline;fill:#ff0000;stroke:#ff0000;stroke-width:0.64063;stroke-opacity:1"
       id="path1065-7-2-3-6-3-8"
       cx="17.242256"
       cy="40.998363"
       r="3.4592125" />
    <circle
       style="display:inline;fill:#ff0000;stroke:#ff0000;stroke-width:0.64063;stroke-opacity:1"
       id="path1065-7-2-3-6-1"
       cx="38.273228"
       cy="40.998363"
       r="3.4592125" />
    <circle
       style="display:inline;fill:#ff0000;stroke:#ff0000;stroke-width:0.64063;stroke-opacity:1"
       id="path1065-7-2-3-6-1-1"
       cx="37.530331"
       cy="326.01257"
       r="3.4592125" />
  </g>
  <g
     inkscape:groupmode="layer"
     id="layer2"
     inkscape:label="Text Labels"
     style="display:none">
    <g
       id="g79750"
       transform="translate(110.00014,144.99964)">
      <text
         xml:space="preserve"
         style="font-weight:bold;font-size:8px;line-height:1.25;font-family:Arial;-inkscape-font-specification:'Arial, Bold';font-variant-ligatures:none;text-align:center;text-anchor:middle;fill:#252525;fill-opacity:1"
         x="-87.940086"
         y="6.9715729"
         id="text9323-7"><tspan
           sodipodi:role="line"
           id="tspan9321-1"
           x="-87.940086"
           y="6.9715729">MIX</tspan></text>
      <text
         xml:space="preserve"
         style="font-weight:bold;font-size:8px;line-height:1.25;font-family:Arial;-inkscape-font-specification:'Arial, Bold';font-variant-ligatures:none;text-align:center;text-anchor:middle;fill:#252525;fill-opacity:1"
         x="-99.504066"
         y="-117.83266"
         id="text9323-6-63"><tspan
           sodipodi:role="line"
           id="tspan9321-6-5"
           x="-99.504066"
           y="-117.83266">1</tspan></text>
      <text
         xml:space="preserve"
         style="font-weight:bold;font-size:8px;line-height:1.25;font-family:Arial;-inkscape-font-specification:'Arial, Bold';font-variant-ligatures:none;text-align:center;text-anchor:middle;fill:#252525;fill-opacity:1"
         x="-99.736488"
         y="-85.593033"
         id="text9323-6-3-7"><tspan
           sodipodi:role="line"
           id="tspan9321-6-1-8"
           x="-99.736488"
           y="-85.593033">2</tspan></text>
      <text
         xml:space="preserve"
         style="font-weight:bold;font-size:8px;line-height:1.25;font-family:Arial;-inkscape-font-specification:'Arial, Bold';font-variant-ligatures:none;text-align:center;text-anchor:middle;fill:#252525;fill-opacity:1"
         x="-99.816566"
         y="-53.402245"
         id="text9323-6-3-4-73"><tspan
           sodipodi:role="line"
           id="tspan9321-6-1-2-8"
           x="-99.816566"
           y="-53.402245">3</tspan></text>
      <text
         xml:space="preserve"
         style="font-weight:bold;font-size:8px;line-height:1.25;font-family:Arial;-inkscape-font-specification:'Arial, Bold';font-variant-ligatures:none;text-align:center;text-anchor:middle;fill:#252525;fill-opacity:1"
         x="-99.820473"
         y="-21.1138"
         id="text9323-6-3-4-7-92"><tspan
           sodipodi:role="line"
           id="tspan9321-6-1-2-1-0"
           x="-99.820473"
           y="-21.1138">4</tspan></text>
      <text
         xml:space="preserve"
         style="font-weight:bold;font-size:8px;line-height:1.25;font-family:Arial;-inkscape-font-specification:'Arial, Bold';font-variant-ligatures:none;text-align:center;text-anchor:middle;fill:#252525;fill-opacity:1"
         x="-99.504066"
         y="49.865448"
         id="text9323-6-6-4"><tspan
           sodipodi:role="line"
           id="tspan9321-6-6-6"
           x="-99.504066"
           y="49.865448">1</tspan></text>
      <text
         xml:space="preserve"
         style="font-weight:bold;font-size:8px;line-height:1.25;font-family:Arial;-inkscape-font-specification:'Arial, Bold';font-variant-ligatures:none;text-align:center;text-anchor:middle;fill:#252525;fill-opacity:1"
         x="-99.736488"
         y="83.105072"
         id="text9323-6-3-6-1"><tspan
           sodipodi:role="line"
           id="tspan9321-6-1-0-6"
           x="-99.736488"
           y="83.105072">2</tspan></text>
      <text
         xml:space="preserve"
         style="font-weight:bold;font-size:8px;line-height:1.25;font-family:Arial;-inkscape-font-specification:'Arial, Bold';font-variant-ligatures:none;text-align:center;text-anchor:middle;fill:#252525;fill-opacity:1"
         x="-99.816566"
         y="116.29587"
         id="text9323-6-3-4-2-0"><tspan
           sodipodi:role="line"
           id="tspan9321-6-1-2-5-7"
           x="-99.816566"
           y="116.29587">3</tspan></text>
      <text
         xml:space="preserve"
         style="font-weight:bold;font-size:8px;line-height:1.25;font-family:Arial;-inkscape-font-specification:'Arial, Bold';font-variant-ligatures:none;text-align:center;text-anchor:middle;fill:#252525;fill-opacity:1"
         x="-99.820473"
         y="149.58432"
         id="text9323-6-3-4-7-9-7"><tspan
           sodipodi:role="line"
           id="tspan9321-6-1-2-1-3-7"
           x="-99.820473"
           y="149.58432">4</tspan></text>
      <text
         xml:space="preserve"
         style="font-style:normal;font-variant:normal;font-weight:bold;font-stretch:normal;font-size:12px;line-height:1.25;font-family:Arial;-inkscape-font-specification:'Arial, Bold';font-variant-ligatures:none;font-variant-caps:normal;font-variant-numeric:normal;font-variant-east-asian:normal;text-align:center;text-anchor:middle;fill:#252525;fill-opacity:1"
         x="-87.949852"
         y="-129.62764"
         id="text9323-12-5"><tspan
           sodipodi:role="line"
           id="tspan9321-5-0"
           x="-87.949852"
           y="-129.62764">MIX 4</tspan></text>
      <text
         xml:space="preserve"
         style="font-weight:bold;font-size:8px;line-height:1.25;font-family:Arial;-inkscape-font-specification:'Arial, Bold';font-variant-ligatures:none;text-align:center;text-anchor:middle;fill:#ede7dc;fill-opacity:1"
         x="-87.940086"
         y="180.90234"
         id="text9323-1-7"><tspan
           sodipodi:role="line"
           id="tspan9321-0-3"
           x="-87.940086"
           y="180.90234">MIX</tspan></text>
    </g>
  </g>
</svg>
