<?xml version="1.0" encoding="UTF-8" standalone="no"?>
<!-- Created with Inkscape (http://www.inkscape.org/) -->

<svg
   width="135"
   height="380"
   viewBox="0 0 357.1875 1005.4167"
   version="1.1"
   id="svg5"
   inkscape:version="1.1.1 (3bf5ae0d25, 2021-09-20)"
   sodipodi:docname="SVF_Earth.svg"
   xmlns:inkscape="http://www.inkscape.org/namespaces/inkscape"
   xmlns:sodipodi="http://sodipodi.sourceforge.net/DTD/sodipodi-0.dtd"
   xmlns="http://www.w3.org/2000/svg"
   xmlns:svg="http://www.w3.org/2000/svg">
  <sodipodi:namedview
     id="namedview7"
     pagecolor="#ffffff"
     bordercolor="#666666"
     borderopacity="1.0"
     inkscape:pageshadow="2"
     inkscape:pageopacity="0.0"
     inkscape:pagecheckerboard="0"
     inkscape:document-units="px"
     showgrid="false"
     scale-x="10"
     inkscape:showpageshadow="false"
     viewbox-x="0"
     showguides="false"
     objecttolerance="1"
     gridtolerance="1"
     guidetolerance="1"
     inkscape:zoom="2.2342105"
     inkscape:cx="67.585395"
     inkscape:cy="190"
     inkscape:window-width="1920"
     inkscape:window-height="1057"
     inkscape:window-x="1592"
     inkscape:window-y="-8"
     inkscape:window-maximized="1"
     inkscape:current-layer="layer5"
     units="px">
    <inkscape:grid
       type="xygrid"
       id="grid832"
       units="px"
       spacingx="2.6458334"
       spacingy="2.6458334"
       originx="0"
       empspacing="5"
       dotted="false"
       visible="true"
       enabled="true" />
    <inkscape:grid
       type="xygrid"
       id="grid15270"
       visible="false" />
  </sodipodi:namedview>
  <defs
     id="defs2" />
  <g
     inkscape:groupmode="layer"
     id="layer3"
     inkscape:label="Faceplate"
     style="display:inline">
    <rect
       style="display:inline;vector-effect:non-scaling-stroke;fill:#423932;fill-opacity:1;stroke-width:0.186761;-inkscape-stroke:hairline"
       id="rect910-6-1-4"
       width="357.1875"
       height="1005.4167"
       x="-1.0231816e-13"
       y="-1.7763568e-15" />
  </g>
  <g
     inkscape:groupmode="layer"
     id="layer4"
     inkscape:label="Brand"
     style="display:inline">
    <g
       id="g42796-0-7-2"
       transform="matrix(0.79338965,0,0,0.79458332,118.51978,-19.617974)"
       style="display:inline;fill:#ff0000;stroke-width:1.27904">
      <g
         aria-label="enom"
         id="text4270-27-8-9-0"
         style="font-size:49.3889px;line-height:1.25;font-family:'NECK ROMANCER';-inkscape-font-specification:'NECK ROMANCER, Normal';font-variant-ligatures:none;text-align:center;text-anchor:middle;fill:#ff0000;stroke-width:3.38412">
        <path
           d="m 46.609141,1249.244 q 0,1.1576 0,3.4245 3.183269,0 9.453344,0 -1.639866,0.5787 -2.990343,1.2058 -1.350478,0.627 -2.363337,1.688 -1.350477,0 -4.051433,0 0,1.4952 0.434082,2.5563 0.385851,1.1093 1.832792,1.1093 2.266873,0 6.80062,0 0.482313,-0.1447 0.868164,-0.627 0.337619,-0.5305 0.627007,-1.7363 0,2.0257 0,6.1254 -3.520888,0 -10.562665,0 -1.543403,0 -2.652724,-2.2187 -1.109321,-2.1704 -1.109321,-6.3183 0,-1.9775 0,-5.836 -0.385851,-1.3504 -1.881023,-2.1221 -1.495171,-0.7235 -3.569119,-1.2058 6.607694,0 19.774852,0 0,2.9421 0,8.7781 -1.205783,-2.701 -2.218642,-3.6656 -1.012858,-0.9646 -2.700955,-1.1093 -0.916396,-0.097 -2.170411,-0.097 -1.205783,0.048 -2.845649,0.048 -0.241157,0 -0.675239,0 z"
           id="path42762-2-5-2"
           style="fill:#ff0000;stroke-width:3.38412" />
        <path
           d="m 81.576869,1245.2891 q 0,5.8842 0,17.7009 0,3.0868 -0.144694,6.0771 -0.09646,3.0386 -0.337619,5.9325 -0.385851,-3.7138 -0.964627,-6.9936 -0.530545,-3.3279 -2.025717,-5.016 0,-2.9904 0,-8.9228 -0.241157,-1.3505 -0.72347,-2.2187 -0.482314,-0.8681 -1.06109,-1.3987 -1.109321,-1.0128 -2.411567,-1.1093 -1.350478,-0.097 -2.266874,-0.097 -0.482313,0 -1.44694,0 0,4.582 0,13.746 0,3.0868 -0.09646,6.0771 -0.144694,3.0386 -0.385851,5.9325 -0.38585,-3.7138 -0.916395,-6.9936 -0.578776,-3.3279 -2.025717,-5.016 0,-4.8232 0,-14.373 -0.385851,-1.3504 -1.881022,-2.1221 -1.495172,-0.7235 -3.56912,-1.2058 6.752389,0 20.257166,0 z"
           id="path42764-5-7-3"
           style="fill:#ff0000;stroke-width:3.38412" />
        <path
           d="m 104.19737,1249.0511 q 0,3.3762 0,10.1768 0,1.5434 -1.92925,2.6528 -1.92926,1.1093 -6.077152,1.1093 -4.196128,0 -6.125382,-1.1093 -1.929254,-1.1094 -1.929254,-2.6528 0,-3.3762 0,-10.1768 0,-1.5434 1.929254,-2.6527 1.929254,-1.1093 6.125382,-1.1093 4.147892,0 6.077152,1.1093 1.92925,1.1093 1.92925,2.6527 z m -3.76204,7.91 q 0,-1.8811 0,-5.6431 0,-1.6881 -1.254019,-1.9775 -1.205783,-0.2894 -2.990343,-0.2894 -1.832792,0 -3.038575,0.2894 -1.254015,0.2894 -1.254015,1.9775 0,1.881 0,5.6431 0,1.6881 1.254015,1.9774 1.205783,0.2894 3.038575,0.2894 1.78456,0 2.990343,-0.2894 1.254019,-0.2893 1.254019,-1.9774 z"
           id="path42766-8-9-0"
           style="fill:#ff0000;stroke-width:3.38412" />
        <path
           d="m 142.34837,1245.2891 q -2.02572,0.4823 -3.52089,1.2058 -1.5434,0.7717 -1.88102,2.1221 0,4.7749 0,14.373 -1.49517,1.6881 -2.02572,5.016 -0.57878,3.2798 -0.96463,6.9936 -0.24115,-2.8939 -0.33762,-5.9325 -0.14469,-2.9903 -0.14469,-6.0771 0,-4.582 0,-13.746 -0.48231,0 -1.39871,0 -0.53054,0 -1.15755,0 -0.62701,0 -1.30225,0.1447 -1.25401,0.2412 -2.41157,1.2058 -1.15755,0.9646 -1.63986,3.4727 0,2.9903 0,8.9228 -0.1447,0.627 -0.28939,1.1093 -0.0965,0.4823 -0.19292,0.8199 -0.53055,1.9775 -0.38586,1.3505 0.19293,-0.627 -0.28938,1.1576 -0.0965,0.3376 -0.24116,0.8681 -0.14469,0.5306 -0.33762,1.3023 -0.14469,-0.6753 -0.28939,-1.2058 -0.14469,-0.4823 -0.24115,-0.8199 -0.53055,-2.0258 -0.33762,-1.3023 0.19292,0.7717 -0.43409,-1.6881 -0.0482,-0.2894 -0.19292,-0.7235 -0.0965,-0.3858 -0.19293,-0.8681 0,-2.9904 0,-8.9228 -0.28939,-1.3505 -0.7717,-2.2187 -0.48231,-0.8681 -1.06109,-1.3987 -1.10932,-1.0128 -2.41157,-1.1093 -1.30224,-0.097 -2.26687,-0.097 -0.48231,0 -1.39871,0 0,4.582 0,13.746 0,3.0868 -0.14469,6.0771 -0.0965,3.0386 -0.33762,5.9325 -0.38585,-3.7138 -0.96463,-6.9936 -0.53054,-3.3279 -2.02572,-5.016 0,-4.8232 0,-14.373 -0.38585,-1.3504 -1.88102,-2.1221 -1.49517,-0.7235 -3.56912,-1.2058 3.95497,0 11.76845,0 1.15755,0.3858 3.47266,1.1575 0.7717,0.2894 1.59163,0.4341 0.81994,0.1447 1.6881,0.1447 0.86816,0 1.73633,-0.1447 0.81993,-0.1447 1.59163,-0.4341 1.15756,-0.3858 3.42443,-1.1575 3.95497,0 11.76845,0 z"
           id="path42768-1-5-9"
           style="fill:#ff0000;stroke-width:3.38412" />
      </g>
      <g
         aria-label="V"
         transform="matrix(1.2363173,0,0,0.80885384,-497.88086,123.48586)"
         id="text4270-3-5-2-4-0-7"
         style="font-size:78.5061px;line-height:1.25;font-family:Nosferotica;-inkscape-font-specification:'Nosferotica, Normal';font-variant-ligatures:none;text-align:center;text-anchor:middle;fill:#ff0000;stroke-width:4.18383">
        <path
           d="m 431.64994,1360.6864 8.57428,-0.1022 c 0,0 -4.4079,1.0878 -5.59925,3.7285 -1.88083,4.1689 -3.64217,14.6628 -3.64217,14.6628 l -2.23339,11.5191 -1.83311,11.8311 -1.71824,21.3112 -1.69514,-21.3112 -1.92196,-11.5208 -2.5009,-11.8294 c 0,0 -1.52027,-10.287 -3.38278,-14.4832 -1.14458,-2.5787 -5.63367,-3.8059 -5.63367,-3.8059 h 8.4657 l 6.66875,29.1569 z"
           id="path30410-2-3-0"
           sodipodi:nodetypes="ccscccccccscccc"
           style="fill:#ff0000;stroke-width:4.18383" />
      </g>
    </g>
  </g>
  <g
     inkscape:groupmode="layer"
     id="layer5"
     inkscape:label="Solid"
     style="display:inline">
    <rect
       style="display:inline;vector-effect:non-scaling-stroke;fill:#d2ac95;fill-opacity:1;stroke-width:0.0257848;-inkscape-stroke:hairline"
       id="rect76101-3-4-0"
       width="105.84799"
       height="162.71875"
       x="-940.14587"
       y="9.9218616"
       ry="12.391613"
       rx="11.207398"
       transform="rotate(-90)" />
    <rect
       style="display:inline;vector-effect:non-scaling-stroke;fill:#d2ac95;fill-opacity:1;stroke-width:0.0257848;-inkscape-stroke:hairline"
       id="rect76101-3-4-0-9"
       width="105.84799"
       height="162.71875"
       x="-940.14587"
       y="184.54732"
       ry="12.391613"
       rx="11.207398"
       transform="rotate(-90)" />
    <g
       aria-label="V/OCT"
       id="text5660-3-3-1-6"
       style="font-weight:bold;font-size:21.1667px;line-height:1.25;font-family:Arial;-inkscape-font-specification:'Arial, Bold';font-variant-ligatures:none;text-align:center;text-anchor:middle;display:inline;fill:#d2ac95;fill-opacity:1;stroke-width:2.64583"
       transform="translate(246.06251,-733.11417)">
      <path
         d="m 32.820111,861.28424 -5.415699,-15.15155 h 3.317632 l 3.834398,11.2138 3.710373,-11.2138 H 41.5121 l -5.426034,15.15155 z"
         id="path1506"
         style="fill:#d2ac95;fill-opacity:1" />
      <path
         d="M 41.501765,861.54262 45.25348,845.8743 h 2.180749 l -3.793056,15.66832 z"
         id="path1508"
         style="fill:#d2ac95;fill-opacity:1" />
      <path
         d="m 48.333401,853.80148 q 0,-2.31511 0.692465,-3.88607 0.516765,-1.15756 1.405601,-2.0774 0.899172,-0.91984 1.963708,-1.36426 1.415936,-0.59945 3.265956,-0.59945 3.348638,0 5.353687,2.0774 2.015384,2.0774 2.015384,5.77743 0,3.66904 -1.994714,5.74643 -1.994713,2.06706 -5.333016,2.06706 -3.379644,0 -5.374358,-2.05672 -1.994713,-2.06706 -1.994713,-5.68442 z m 3.152267,-0.10335 q 0,2.57349 1.18856,3.90674 1.18856,1.32292 3.017909,1.32292 1.829348,0 2.997237,-1.31258 1.178225,-1.32292 1.178225,-3.95842 0,-2.6045 -1.147219,-3.88608 -1.136883,-1.28157 -3.028243,-1.28157 -1.891361,0 -3.048915,1.30224 -1.157554,1.29192 -1.157554,3.90675 z"
         id="path1510"
         style="fill:#d2ac95;fill-opacity:1" />
      <path
         d="m 75.112169,855.71351 2.966232,0.94052 q -0.68213,2.48047 -2.273766,3.6897 -1.581302,1.19889 -4.020433,1.19889 -3.017909,0 -4.960946,-2.05672 -1.943037,-2.06706 -1.943037,-5.64308 0,-3.78272 1.953373,-5.87045 1.953372,-2.09807 5.136645,-2.09807 2.780197,0 4.516528,1.64332 1.03353,0.97152 1.550295,2.79053 l -3.028244,0.72347 q -0.268718,-1.17822 -1.126548,-1.86035 -0.847495,-0.68213 -2.06706,-0.68213 -1.684655,0 -2.738856,1.20923 -1.043865,1.20923 -1.043865,3.91708 0,2.87321 1.03353,4.09278 1.03353,1.21956 2.687179,1.21956 1.219566,0 2.098066,-0.77515 0.878501,-0.77514 1.260907,-2.43913 z"
         id="path1512"
         style="fill:#d2ac95;fill-opacity:1" />
      <path
         d="m 84.114221,861.28424 v -12.5884 h -4.495857 v -2.56315 h 12.040628 v 2.56315 H 87.17347 v 12.5884 z"
         id="path1514"
         style="fill:#d2ac95;fill-opacity:1" />
    </g>
    <path
       style="color:#000000;display:inline;fill:#d2ac95;fill-opacity:1;stroke-width:0.999999;-inkscape-stroke:none"
       d="m 219.38291,244.73788 v 2.64844 l 84.66666,0.002 v -2.65039 z"
       id="path1270-8-2-5-8-1-4-8" />
    <path
       style="color:#000000;display:inline;fill:#d2ac95;fill-opacity:1;stroke-width:0.999999;-inkscape-stroke:none"
       d="m 219.38291,373.06088 v 2.64844 l 84.66666,0.002 v -2.65039 z"
       id="path1270-8-2-5-8-1-4-7" />
    <path
       style="color:#000000;display:inline;fill:#d2ac95;fill-opacity:1;stroke-width:0.999999;-inkscape-stroke:none"
       d="m 220.92754,531.80878 v 2.64844 l 84.66666,0.002 v -2.65039 z"
       id="path1270-8-2-5-8-1-4-4" />
    <g
       aria-label="CUTOFF"
       id="text24781"
       style="font-weight:bold;font-size:21.1667px;line-height:1.25;font-family:Arial;-inkscape-font-specification:'Arial, Bold';font-variant-ligatures:none;text-align:center;text-anchor:middle;display:inline;fill:#d2ac95;fill-opacity:1;stroke-width:2.64583"
       transform="translate(-2.6458416,-137.30699)">
      <path
         d="m 62.430248,269.443 2.966232,0.94052 q -0.68213,2.48047 -2.273767,3.6897 -1.581301,1.1989 -4.020433,1.1989 -3.017908,0 -4.960945,-2.05673 -1.943037,-2.06706 -1.943037,-5.64308 0,-3.78272 1.953372,-5.87045 1.953372,-2.09806 5.136646,-2.09806 2.780196,0 4.516527,1.64331 1.03353,0.97152 1.550295,2.79053 l -3.028243,0.72347 q -0.268718,-1.17822 -1.126548,-1.86035 -0.847495,-0.68213 -2.067061,-0.68213 -1.684654,0 -2.738855,1.20923 -1.043866,1.20923 -1.043866,3.91708 0,2.87321 1.033531,4.09278 1.03353,1.21956 2.687178,1.21956 1.219566,0 2.098067,-0.77514 0.878501,-0.77515 1.260907,-2.43914 z"
         id="path31953"
         style="fill:#d2ac95;fill-opacity:1" />
      <path
         d="m 68.000976,259.86218 h 3.05925 v 8.20623 q 0,1.95337 0.113688,2.53215 0.196371,0.93018 0.930178,1.49862 0.744142,0.5581 2.025719,0.5581 1.302248,0 1.963708,-0.5271 0.661459,-0.53743 0.795818,-1.31258 0.134359,-0.77515 0.134359,-2.57349 v -8.38193 h 3.05925 v 7.95818 q 0,2.72852 -0.248048,3.85507 -0.248047,1.12655 -0.919842,1.9017 -0.661459,0.77514 -1.777672,1.24023 -1.116212,0.45476 -2.914555,0.45476 -2.170414,0 -3.296962,-0.4961 -1.116213,-0.50643 -1.767337,-1.30225 -0.651124,-0.80615 -0.85783,-1.68465 -0.299724,-1.30225 -0.299724,-3.84473 z"
         id="path31955"
         style="fill:#d2ac95;fill-opacity:1" />
      <path
         d="m 86.71821,275.01373 v -12.5884 h -4.495856 v -2.56315 h 12.040628 v 2.56315 H 89.77746 v 12.5884 z"
         id="path31957"
         style="fill:#d2ac95;fill-opacity:1" />
      <path
         d="m 95.2345,267.53097 q 0,-2.3151 0.692466,-3.88607 0.516765,-1.15755 1.405601,-2.0774 0.899171,-0.91984 1.963708,-1.36426 1.415935,-0.59944 3.265955,-0.59944 3.34864,0 5.35369,2.07739 2.01538,2.0774 2.01538,5.77744 0,3.66903 -1.99471,5.74642 -1.99472,2.06707 -5.33302,2.06707 -3.379643,0 -5.374356,-2.05673 -1.994714,-2.06706 -1.994714,-5.68442 z m 3.152268,-0.10335 q 0,2.57349 1.18856,3.90675 1.188562,1.32291 3.017912,1.32291 1.82934,0 2.99723,-1.31258 1.17823,-1.32292 1.17823,-3.95842 0,-2.6045 -1.14722,-3.88607 -1.13688,-1.28158 -3.02824,-1.28158 -1.89136,0 -3.048918,1.30225 -1.157554,1.29191 -1.157554,3.90674 z"
         id="path31959"
         style="fill:#d2ac95;fill-opacity:1" />
      <path
         d="m 112.33943,275.01373 v -15.15155 h 10.38698 v 2.56315 h -7.32773 v 3.58635 h 6.3252 v 2.56316 h -6.3252 v 6.43889 z"
         id="path31961"
         style="fill:#d2ac95;fill-opacity:1" />
      <path
         d="m 125.26889,275.01373 v -15.15155 h 10.38698 v 2.56315 h -7.32773 v 3.58635 h 6.32521 v 2.56316 h -6.32521 v 6.43889 z"
         id="path31963"
         style="fill:#d2ac95;fill-opacity:1" />
    </g>
    <g
       aria-label="RESONANCE"
       id="text24781-9"
       style="font-weight:bold;font-size:21.1667px;line-height:1.25;font-family:Arial;-inkscape-font-specification:'Arial, Bold';font-variant-ligatures:none;text-align:center;text-anchor:middle;display:inline;fill:#d2ac95;fill-opacity:1;stroke-width:2.64583"
       transform="translate(-2.6458461,-161.30294)">
      <path
         d="m 27.605447,481.37643 v -15.15155 h 6.438894 q 2.428796,0 3.524338,0.41341 1.105878,0.40308 1.767337,1.44694 0.66146,1.04387 0.66146,2.38746 0,1.70532 -1.002525,2.82154 -1.002524,1.10587 -2.997238,1.39526 0.99219,0.57878 1.632978,1.27125 0.651124,0.69246 1.746667,2.4598 l 1.850019,2.95589 h -3.658698 l -2.211754,-3.29696 q -1.178225,-1.76733 -1.612308,-2.22209 -0.434082,-0.46509 -0.919842,-0.63045 -0.485759,-0.1757 -1.53996,-0.1757 h -0.620118 v 6.3252 z m 3.05925,-8.74366 h 2.263431 q 2.20142,0 2.749191,-0.18604 0.547771,-0.18603 0.85783,-0.64079 0.310059,-0.45475 0.310059,-1.13688 0,-0.76481 -0.413412,-1.2299 -0.403077,-0.47542 -1.147218,-0.59945 -0.372071,-0.0517 -2.232426,-0.0517 h -2.387455 z"
         id="path32028"
         style="fill:#d2ac95;fill-opacity:1" />
      <path
         d="M 42.881026,481.37643 V 466.22488 H 54.1155 v 2.56316 h -8.175225 v 3.35897 h 7.606783 v 2.55282 h -7.606783 v 4.12378 h 8.464613 v 2.55282 z"
         id="path32030"
         style="fill:#d2ac95;fill-opacity:1" />
      <path
         d="m 56.223903,476.44649 2.976567,-0.28938 q 0.268718,1.49862 1.085207,2.20142 0.826824,0.7028 2.22209,0.7028 1.477948,0 2.22209,-0.62012 0.754477,-0.63046 0.754477,-1.46761 0,-0.53744 -0.320394,-0.90951 -0.310059,-0.38241 -1.095542,-0.66146 -0.537436,-0.18604 -2.449467,-0.66146 -2.459802,-0.60978 -3.451991,-1.49862 -1.395266,-1.25057 -1.395266,-3.04891 0,-1.15756 0.651124,-2.16008 0.661459,-1.01286 1.89136,-1.53996 1.240237,-0.5271 2.986903,-0.5271 2.852543,0 4.289151,1.25057 1.446942,1.25057 1.519289,3.3383 l -3.05925,0.13436 q -0.19637,-1.16789 -0.847494,-1.67432 -0.640789,-0.51676 -1.932702,-0.51676 -1.333254,0 -2.087731,0.54777 -0.485759,0.3514 -0.485759,0.94051 0,0.53744 0.454753,0.91984 0.578777,0.48576 2.811202,1.01286 2.232426,0.5271 3.296962,1.09554 1.074871,0.55811 1.674319,1.53996 0.609783,0.97152 0.609783,2.40813 0,1.30225 -0.723471,2.43913 -0.723472,1.13688 -2.04639,1.69499 -1.322919,0.54777 -3.296962,0.54777 -2.873214,0 -4.413174,-1.32292 -1.53996,-1.33325 -1.839684,-3.87574 z"
         id="path32032"
         style="fill:#d2ac95;fill-opacity:1" />
      <path
         d="m 70.496955,473.89368 q 0,-2.31511 0.692466,-3.88608 0.516765,-1.15755 1.405601,-2.07739 0.899171,-0.91985 1.963707,-1.36426 1.415937,-0.59945 3.265956,-0.59945 3.348638,0 5.353687,2.07739 2.015384,2.0774 2.015384,5.77744 0,3.66903 -1.994714,5.74643 -1.994713,2.06706 -5.333016,2.06706 -3.379644,0 -5.374357,-2.05673 -1.994714,-2.06706 -1.994714,-5.68441 z m 3.152268,-0.10336 q 0,2.57349 1.188559,3.90675 1.18856,1.32292 3.017909,1.32292 1.829349,0 2.997238,-1.31259 1.178224,-1.32292 1.178224,-3.95842 0,-2.6045 -1.147218,-3.88607 -1.136884,-1.28158 -3.028244,-1.28158 -1.891361,0 -3.048914,1.30225 -1.157554,1.29191 -1.157554,3.90674 z"
         id="path32034"
         style="fill:#d2ac95;fill-opacity:1" />
      <path
         d="m 87.612217,481.37643 v -15.15155 h 2.976568 l 6.201181,10.11826 v -10.11826 h 2.842209 v 15.15155 H 96.56259 l -6.108164,-9.88055 v 9.88055 z"
         id="path32036"
         style="fill:#d2ac95;fill-opacity:1" />
      <path
         d="m 116.53039,481.37643 h -3.32796 l -1.32292,-3.44165 h -6.05649 l -1.25057,3.44165 h -3.24529 l 5.90146,-15.15155 h 3.23495 z m -5.63274,-5.99447 -2.08773,-5.62241 -2.04639,5.62241 z"
         id="path32038"
         style="fill:#d2ac95;fill-opacity:1" />
      <path
         d="m 118.18404,481.37643 v -15.15155 h 2.97657 l 6.20118,10.11826 v -10.11826 h 2.84221 v 15.15155 h -3.06959 l -6.10816,-9.88055 v 9.88055 z"
         id="path32040"
         style="fill:#d2ac95;fill-opacity:1" />
      <path
         d="m 143.13347,475.80571 2.96623,0.94051 q -0.68213,2.48047 -2.27377,3.6897 -1.5813,1.1989 -4.02043,1.1989 -3.01791,0 -4.96095,-2.05673 -1.94303,-2.06706 -1.94303,-5.64307 0,-3.78272 1.95337,-5.87046 1.95337,-2.09806 5.13665,-2.09806 2.78019,0 4.51652,1.64331 1.03353,0.97152 1.5503,2.79053 l -3.02825,0.72347 q -0.26871,-1.17822 -1.12654,-1.86035 -0.8475,-0.68213 -2.06706,-0.68213 -1.68466,0 -2.73886,1.20923 -1.04386,1.20923 -1.04386,3.91708 0,2.87321 1.03353,4.09278 1.03353,1.21957 2.68717,1.21957 1.21957,0 2.09807,-0.77515 0.8785,-0.77515 1.26091,-2.43913 z"
         id="path32042"
         style="fill:#d2ac95;fill-opacity:1" />
      <path
         d="m 148.72487,481.37643 v -15.15155 h 11.23447 v 2.56316 h -8.17523 v 3.35897 h 7.60679 v 2.55282 h -7.60679 v 4.12378 h 8.46462 v 2.55282 z"
         id="path32044"
         style="fill:#d2ac95;fill-opacity:1" />
    </g>
    <g
       aria-label="STATE VARIABLE"
       id="text24781-9-5"
       style="font-weight:bold;font-size:35.2778px;line-height:1.25;font-family:Arial;-inkscape-font-specification:'Arial, Bold';font-variant-ligatures:none;text-align:center;text-anchor:middle;display:inline;fill:#d2ac95;fill-opacity:1;stroke-width:2.64583">
      <path
         d="m 31.160798,40.802313 4.960941,-0.482314 q 0.447862,2.497696 1.808676,3.66903 1.378039,1.171333 3.70348,1.171333 2.463245,0 3.70348,-1.03353 1.257461,-1.050754 1.257461,-2.446019 0,-0.895725 -0.53399,-1.515843 -0.516765,-0.637343 -1.825902,-1.102431 -0.895725,-0.310059 -4.082441,-1.102432 -4.099666,-1.016303 -5.753313,-2.497696 -2.325441,-2.084284 -2.325441,-5.081519 0,-1.929255 1.085206,-3.600127 1.102431,-1.688098 3.152264,-2.566598 2.067059,-0.8785 4.978166,-0.8785 4.754235,0 7.148578,2.084284 2.411569,2.084285 2.532147,5.563833 l -5.098745,0.223932 q -0.327284,-1.946481 -1.41249,-2.79053 -1.06798,-0.861274 -3.221166,-0.861274 -2.222088,0 -3.479549,0.912951 -0.809598,0.585667 -0.809598,1.567519 0,0.895726 0.757922,1.533069 0.964627,0.809598 4.685333,1.688098 3.720705,0.8785 5.494931,1.825902 1.79145,0.930176 2.790529,2.566598 1.016304,1.619196 1.016304,4.013538 0,2.170412 -1.205785,4.065216 -1.205784,1.894804 -3.410646,2.82498 -2.204863,0.912951 -5.494931,0.912951 -4.788686,0 -7.355284,-2.204863 -2.566598,-2.222088 -3.066137,-6.459558 z"
         id="path31966"
         style="fill:#d2ac95;fill-opacity:1" />
      <path
         d="M 61.667139,49.018871 V 28.038226 h -7.493088 v -4.271922 h 20.067695 v 4.271922 h -7.475863 v 20.980645 z"
         id="path31968"
         style="fill:#d2ac95;fill-opacity:1" />
      <path
         d="M 97.685637,49.018871 H 92.139029 L 89.934167,43.282783 H 79.84003 l -2.084284,5.736088 h -5.408804 l 9.835755,-25.252567 h 5.391578 z m -9.387892,-9.990783 -3.479549,-9.370666 -3.410646,9.370666 z"
         id="path31970"
         style="fill:#d2ac95;fill-opacity:1" />
      <path
         d="M 103.45617,49.018871 V 28.038226 h -7.493083 v -4.271922 h 20.067693 v 4.271922 h -7.47586 v 20.980645 z"
         id="path31972"
         style="fill:#d2ac95;fill-opacity:1" />
      <path
         d="M 119.32085,49.018871 V 23.766304 h 18.72411 v 4.271922 H 124.4196 v 5.598284 h 12.67796 v 4.254695 H 124.4196 v 6.872971 h 14.10767 v 4.254695 z"
         id="path31974"
         style="fill:#d2ac95;fill-opacity:1" />
      <path
         d="m 159.09451,49.018871 -9.02616,-25.252567 h 5.52938 l 6.39066,18.689656 6.18395,-18.689656 h 5.4088 l -9.04338,25.252567 z"
         id="path31976"
         style="fill:#d2ac95;fill-opacity:1" />
      <path
         d="m 196.33601,49.018871 h -5.54661 l -2.20486,-5.736088 h -10.09413 l -2.08429,5.736088 h -5.4088 l 9.83575,-25.252567 h 5.39158 z m -9.38789,-9.990783 -3.47955,-9.370666 -3.41065,9.370666 z"
         id="path31978"
         style="fill:#d2ac95;fill-opacity:1" />
      <path
         d="M 199.05764,49.018871 V 23.766304 h 10.73148 q 4.04799,0 5.87389,0.68902 1.84313,0.671794 2.94556,2.411568 1.10243,1.739775 1.10243,3.979088 0,2.842206 -1.67087,4.702559 -1.67087,1.843127 -4.99539,2.325441 1.65365,0.964627 2.72163,2.118735 1.0852,1.154108 2.9111,4.099666 l 3.08337,4.92649 h -6.09783 l -3.68625,-5.494931 q -1.96371,-2.945558 -2.68718,-3.70348 -0.72347,-0.775147 -1.53307,-1.050755 -0.80959,-0.292833 -2.56659,-0.292833 h -1.03353 v 10.541999 z m 5.09875,-14.572763 h 3.77238 q 3.66903,0 4.58198,-0.310059 0.91295,-0.310059 1.42971,-1.067981 0.51677,-0.757921 0.51677,-1.894803 0,-1.274687 -0.68902,-2.049834 -0.67179,-0.792372 -1.91203,-0.999078 -0.62012,-0.08613 -3.7207,-0.08613 h -3.97909 z"
         id="path31980"
         style="fill:#d2ac95;fill-opacity:1" />
      <path
         d="M 224.36189,49.018871 V 23.766304 h 5.09874 v 25.252567 z"
         id="path31982"
         style="fill:#d2ac95;fill-opacity:1" />
      <path
         d="m 257.09031,49.018871 h -5.5466 l -2.20487,-5.736088 h -10.09413 l -2.08429,5.736088 h -5.4088 l 9.83575,-25.252567 h 5.39158 z m -9.38789,-9.990783 -3.47955,-9.370666 -3.41064,9.370666 z"
         id="path31984"
         style="fill:#d2ac95;fill-opacity:1" />
      <path
         d="m 259.81195,23.766304 h 10.09413 q 2.99724,0 4.4614,0.258383 1.4814,0.241157 2.6355,1.033529 1.17134,0.792373 1.94648,2.118735 0.77515,1.309137 0.77515,2.945559 0,1.774225 -0.96463,3.255617 -0.9474,1.481392 -2.58382,2.222088 2.30822,0.671794 3.54845,2.29099 1.24024,1.619196 1.24024,3.806833 0,1.722549 -0.8096,3.358971 -0.79237,1.619196 -2.18764,2.601049 -1.37804,0.964627 -3.41065,1.188558 -1.27468,0.137804 -6.1495,0.172255 h -8.59551 z m 5.09874,4.20302 v 5.839441 h 3.34175 q 2.98,0 3.70348,-0.08613 1.30913,-0.155029 2.04983,-0.895725 0.75792,-0.757922 0.75792,-1.980932 0,-1.171333 -0.65457,-1.894803 -0.63734,-0.740696 -1.91203,-0.895726 -0.75792,-0.08613 -4.35805,-0.08613 z m 0,10.04246 v 6.752392 h 4.71978 q 2.75608,0 3.49678,-0.15503 1.13688,-0.206706 1.84313,-0.999078 0.72347,-0.809598 0.72347,-2.153186 0,-1.136883 -0.55122,-1.929255 -0.55121,-0.792373 -1.60197,-1.154108 -1.03353,-0.361735 -4.51308,-0.361735 z"
         id="path31986"
         style="fill:#d2ac95;fill-opacity:1" />
      <path
         d="M 285.40901,49.018871 V 23.97301 h 5.09874 v 20.791166 h 12.67796 v 4.254695 z"
         id="path31988"
         style="fill:#d2ac95;fill-opacity:1" />
      <path
         d="M 306.82029,49.018871 V 23.766304 h 18.72411 v 4.271922 H 311.91904 V 33.63651 H 324.597 v 4.254695 h -12.67796 v 6.872971 h 14.10767 v 4.254695 z"
         id="path31990"
         style="fill:#d2ac95;fill-opacity:1" />
    </g>
    <g
       aria-label="FILTER"
       id="text24781-9-5-6"
       style="font-weight:bold;font-size:35.2778px;line-height:1.25;font-family:Arial;-inkscape-font-specification:'Arial, Bold';font-variant-ligatures:none;text-align:center;text-anchor:middle;display:inline;fill:#d2ac95;fill-opacity:1;stroke-width:2.64583">
      <path
         d="M 119.57062,89.593033 V 64.340466 h 17.31161 v 4.271921 h -12.21287 v 5.977245 h 10.542 v 4.271921 h -10.542 v 10.73148 z"
         id="path31993"
         style="fill:#d2ac95;fill-opacity:1" />
      <path
         d="M 140.93022,89.593033 V 64.340466 h 5.09875 v 25.252567 z"
         id="path31995"
         style="fill:#d2ac95;fill-opacity:1" />
      <path
         d="M 151.02436,89.593033 V 64.547172 h 5.09875 v 20.791165 h 12.67796 v 4.254696 z"
         id="path31997"
         style="fill:#d2ac95;fill-opacity:1" />
      <path
         d="M 175.50178,89.593033 V 68.612387 h -7.49309 v -4.271921 h 20.0677 v 4.271921 h -7.47586 v 20.980646 z"
         id="path31999"
         style="fill:#d2ac95;fill-opacity:1" />
      <path
         d="M 191.36646,89.593033 V 64.340466 h 18.7241 v 4.271921 H 196.4652 v 5.598284 h 12.67796 v 4.254696 H 196.4652 v 6.87297 h 14.10768 v 4.254696 z"
         id="path32001"
         style="fill:#d2ac95;fill-opacity:1" />
      <path
         d="M 214.9137,89.593033 V 64.340466 h 10.73148 q 4.04799,0 5.87389,0.689019 1.84313,0.671795 2.94556,2.411569 1.10243,1.739774 1.10243,3.979088 0,2.842206 -1.67087,4.702558 -1.67088,1.843128 -4.9954,2.325441 1.65365,0.964628 2.72163,2.118736 1.08521,1.154107 2.91111,4.099666 l 3.08336,4.92649 h -6.09782 l -3.68626,-5.494931 q -1.9637,-2.945559 -2.68717,-3.70348 -0.72347,-0.775147 -1.53307,-1.050755 -0.8096,-0.292833 -2.5666,-0.292833 h -1.03353 v 10.541999 z m 5.09874,-14.572764 h 3.77238 q 3.66903,0 4.58198,-0.310059 0.91295,-0.310058 1.42972,-1.06798 0.51676,-0.757922 0.51676,-1.894804 0,-1.274686 -0.68902,-2.049833 -0.67179,-0.792372 -1.91203,-0.999078 -0.62011,-0.08613 -3.7207,-0.08613 h -3.97909 z"
         id="path32003"
         style="fill:#d2ac95;fill-opacity:1" />
    </g>
    <g
       aria-label="RANGE"
       id="text24781-1"
       style="font-weight:bold;font-size:21.1667px;line-height:1.25;font-family:Arial;-inkscape-font-specification:'Arial, Bold';font-variant-ligatures:none;text-align:center;text-anchor:middle;display:inline;fill:#d2ac95;fill-opacity:1;stroke-width:2.64583"
       transform="translate(101.86458,485.51033)">
      <path
         d="m 76.853134,145.29379 v -15.15155 h 6.438894 q 2.428796,0 3.524338,0.41341 1.105878,0.40308 1.767337,1.44694 0.661459,1.04387 0.661459,2.38746 0,1.70532 -1.002524,2.82154 -1.002524,1.10587 -2.997238,1.39526 0.992189,0.57878 1.632978,1.27124 0.651124,0.69247 1.746666,2.45981 l 1.85002,2.95589 h -3.658698 l -2.211755,-3.29696 q -1.178224,-1.76734 -1.612307,-2.22209 -0.434083,-0.46509 -0.919842,-0.63045 -0.485759,-0.1757 -1.53996,-0.1757 h -0.620118 v 6.3252 z m 3.05925,-8.74366 h 2.263431 q 2.20142,0 2.749191,-0.18604 0.547771,-0.18603 0.85783,-0.64079 0.310059,-0.45475 0.310059,-1.13688 0,-0.76481 -0.413412,-1.2299 -0.403077,-0.47543 -1.147219,-0.59945 -0.372071,-0.0517 -2.232425,-0.0517 h -2.387455 z"
         id="path32006"
         style="fill:#d2ac95;fill-opacity:1" />
      <path
         d="m 105.79198,145.29379 h -3.32796 l -1.32292,-3.44165 h -6.056491 l -1.250572,3.44165 h -3.245285 l 5.901458,-15.15155 h 3.23495 z m -5.63274,-5.99447 -2.087728,-5.62241 -2.04639,5.62241 z"
         id="path32008"
         style="fill:#d2ac95;fill-opacity:1" />
      <path
         d="m 107.44563,145.29379 v -15.15155 h 2.97657 l 6.20118,10.11826 v -10.11826 h 2.84221 v 15.15155 H 116.396 l -6.10816,-9.88055 v 9.88055 z"
         id="path32010"
         style="fill:#d2ac95;fill-opacity:1" />
      <path
         d="m 129.74922,139.72306 v -2.55282 h 6.59392 v 6.03582 q -0.96118,0.93018 -2.79053,1.64331 -1.81901,0.70281 -3.6897,0.70281 -2.37712,0 -4.14446,-0.99219 -1.76734,-1.00253 -2.65617,-2.85255 -0.88884,-1.86035 -0.88884,-4.0411 0,-2.36679 0.99219,-4.20647 0.99219,-1.83968 2.90422,-2.82154 1.45728,-0.75447 3.62769,-0.75447 2.82154,0 4.40284,1.18856 1.59164,1.17822 2.04639,3.26595 l -3.03858,0.56844 q -0.32039,-1.11621 -1.20923,-1.757 -0.8785,-0.65112 -2.20142,-0.65112 -2.00505,0 -3.19361,1.27124 -1.17822,1.27124 -1.17822,3.77239 0,2.69751 1.19889,4.05143 1.1989,1.34359 3.14194,1.34359 0.96118,0 1.92236,-0.37207 0.97152,-0.3824 1.66399,-0.91984 v -1.92237 z"
         id="path32012"
         style="fill:#d2ac95;fill-opacity:1" />
      <path
         d="m 139.16468,145.29379 v -15.15155 h 11.23447 v 2.56315 h -8.17522 v 3.35898 h 7.60678 v 2.55282 h -7.60678 v 4.12378 h 8.46461 v 2.55282 z"
         id="path32014"
         style="fill:#d2ac95;fill-opacity:1" />
    </g>
    <path
       style="color:#000000;fill:#d2ac95;fill-opacity:1;stroke-dasharray:5.29166, 5.29166;-inkscape-stroke:none"
       d="m 127.66146,373.06251 v 2.64454 h 5.29102 v -2.64454 z m 10.58399,0 v 2.64454 h 5.29101 v -2.64454 z m 10.58203,0 v 2.64454 h 5.29297 v -2.64454 z m 10.58398,0 v 2.64454 h 5.29102 v -2.64454 z m 10.58399,0 v 2.64454 h 5.29101 v -2.64454 z m 10.58203,0 v 2.64454 h 5.29297 v -2.64454 z m 10.58398,0 v 2.64454 h 5.29102 v -2.64454 z m 10.58399,0 v 2.64454 h 5.29101 v -2.64454 z m 10.58203,0 v 2.64454 h 2.64648 v -2.64454 z"
       id="path30312" />
    <path
       style="color:#000000;fill:#d2ac95;fill-opacity:1;stroke-dasharray:5.29166, 5.29166;-inkscape-stroke:none"
       d="m 127.66146,531.81181 v 2.64453 h 5.29102 v -2.64453 z m 10.58399,0 v 2.64453 h 5.29101 v -2.64453 z m 10.58203,0 v 2.64453 h 5.29297 v -2.64453 z m 10.58398,0 v 2.64453 h 5.29102 v -2.64453 z m 10.58399,0 v 2.64453 h 5.29101 v -2.64453 z m 10.58203,0 v 2.64453 h 5.29297 v -2.64453 z m 10.58398,0 v 2.64453 h 5.29102 v -2.64453 z m 10.58399,0 v 2.64453 h 5.29101 v -2.64453 z m 10.58203,0 v 2.64453 h 2.64648 v -2.64453 z"
       id="path30312-7" />
    <g
       aria-label="INPUT"
       id="text36972"
       style="font-weight:bold;font-size:21.1667px;line-height:1.25;font-family:Arial;-inkscape-font-specification:'Arial, Bold';font-variant-ligatures:none;text-align:center;text-anchor:middle;display:inline;fill:#d2ac95;fill-opacity:1;stroke-width:2.64583"
       transform="translate(39.68704,-93.927112)">
      <path
         d="m 20.784664,724.60211 v -15.15155 h 3.05925 v 15.15155 z"
         id="path40090"
         style="fill:#d2ac95;fill-opacity:1" />
      <path
         d="m 26.789475,724.60211 v -15.15155 h 2.976567 l 6.201182,10.11826 v -10.11826 h 2.842209 v 15.15155 h -3.069585 l -6.108164,-9.88055 v 9.88055 z"
         id="path40092"
         style="fill:#d2ac95;fill-opacity:1" />
      <path
         d="m 42.044382,724.60211 v -15.15155 h 4.909269 q 2.790532,0 3.638027,0.22737 1.302248,0.34107 2.180749,1.48829 0.8785,1.13688 0.8785,2.94556 0,1.39527 -0.506429,2.34611 -0.50643,0.95085 -1.291913,1.49862 -0.775148,0.53744 -1.581302,0.71314 -1.095542,0.21704 -3.172938,0.21704 h -1.994713 v 5.71542 z m 3.05925,-12.5884 v 4.29949 h 1.674319 q 1.808678,0 2.418461,-0.23771 0.609783,-0.23772 0.950848,-0.74414 0.3514,-0.50643 0.3514,-1.17823 0,-0.82682 -0.485759,-1.36426 -0.485759,-0.53744 -1.229901,-0.67179 -0.547771,-0.10336 -2.20142,-0.10336 z"
         id="path40094"
         style="fill:#d2ac95;fill-opacity:1" />
      <path
         d="m 56.141737,709.45056 h 3.059249 v 8.20623 q 0,1.95337 0.113689,2.53215 0.19637,0.93017 0.930177,1.49862 0.744142,0.5581 2.025719,0.5581 1.302248,0 1.963708,-0.5271 0.661459,-0.53743 0.795818,-1.31258 0.134359,-0.77515 0.134359,-2.57349 v -8.38193 h 3.05925 v 7.95818 q 0,2.72852 -0.248048,3.85507 -0.248047,1.12655 -0.919842,1.90169 -0.661459,0.77515 -1.777672,1.24024 -1.116212,0.45475 -2.914555,0.45475 -2.170414,0 -3.296962,-0.49609 -1.116212,-0.50643 -1.767337,-1.30225 -0.651124,-0.80615 -0.85783,-1.68465 -0.299723,-1.30225 -0.299723,-3.84474 z"
         id="path40096"
         style="fill:#d2ac95;fill-opacity:1" />
      <path
         d="m 74.858969,724.60211 v -12.5884 h -4.495857 v -2.56315 H 82.40374 v 2.56315 h -4.485522 v 12.5884 z"
         id="path40098"
         style="fill:#d2ac95;fill-opacity:1" />
    </g>
    <g
       aria-label="SLOPE"
       id="text44763"
       style="font-weight:bold;font-size:21.1667px;line-height:1.25;font-family:Arial;-inkscape-font-specification:'Arial, Bold';font-variant-ligatures:none;text-align:center;text-anchor:middle;fill:#d2ac95;fill-opacity:1;stroke-width:2.64583"
       transform="translate(-139.6722,-88.032476)">
      <path
         d="m 408.97965,713.90155 2.97657,-0.28939 q 0.26871,1.49862 1.0852,2.20142 0.82682,0.7028 2.22209,0.7028 1.47794,0 2.22208,-0.62012 0.75448,-0.63045 0.75448,-1.46761 0,-0.53744 -0.32039,-0.90951 -0.31006,-0.3824 -1.09554,-0.66145 -0.53744,-0.18604 -2.44947,-0.66146 -2.4598,-0.60978 -3.45198,-1.49862 -1.39527,-1.25057 -1.39527,-3.04891 0,-1.15755 0.65113,-2.16007 0.66145,-1.01286 1.89135,-1.53996 1.24024,-0.5271 2.9869,-0.5271 2.85254,0 4.28915,1.25057 1.44694,1.25057 1.51928,3.3383 l -3.05924,0.13436 q -0.19637,-1.16789 -0.8475,-1.67432 -0.64078,-0.51677 -1.93269,-0.51677 -1.33326,0 -2.08773,0.54777 -0.48576,0.3514 -0.48576,0.94052 0,0.53743 0.45475,0.91984 0.57878,0.48575 2.8112,1.01285 2.23242,0.5271 3.29696,1.09554 1.07487,0.55811 1.67431,1.53996 0.60979,0.97152 0.60979,2.40812 0,1.30225 -0.72348,2.43913 -0.72347,1.13688 -2.04638,1.69499 -1.32292,0.54777 -3.29696,0.54777 -2.87321,0 -4.41317,-1.32292 -1.53995,-1.33325 -1.83968,-3.87573 z"
         style="font-size:21.1667px;fill:#d2ac95;fill-opacity:1"
         id="path51261" />
      <path
         d="m 423.95548,718.83148 v -15.02751 h 3.05925 v 12.4747 h 7.60677 v 2.55281 z"
         style="font-size:21.1667px;fill:#d2ac95;fill-opacity:1"
         id="path51263" />
      <path
         d="m 436.18213,711.34873 q 0,-2.3151 0.69246,-3.88606 0.51677,-1.15756 1.4056,-2.0774 0.89917,-0.91984 1.96371,-1.36425 1.41593,-0.59945 3.26595,-0.59945 3.34863,0 5.35368,2.07739 2.01538,2.07739 2.01538,5.77743 0,3.66902 -1.99471,5.74642 -1.99471,2.06705 -5.33301,2.06705 -3.37964,0 -5.37435,-2.05672 -1.99471,-2.06706 -1.99471,-5.68441 z m 3.15226,-0.10335 q 0,2.57349 1.18856,3.90674 1.18856,1.32292 3.0179,1.32292 1.82935,0 2.99724,-1.31258 1.17822,-1.32292 1.17822,-3.95842 0,-2.60449 -1.14722,-3.88607 -1.13688,-1.28157 -3.02824,-1.28157 -1.89135,0 -3.04891,1.30224 -1.15755,1.29191 -1.15755,3.90674 z"
         style="font-size:21.1667px;fill:#d2ac95;fill-opacity:1"
         id="path51265" />
      <path
         d="m 453.26636,718.83148 v -15.15153 h 4.90926 q 2.79053,0 3.63802,0.22738 1.30225,0.34106 2.18075,1.48828 0.8785,1.13688 0.8785,2.94556 0,1.39526 -0.50643,2.34611 -0.50643,0.95084 -1.29191,1.49861 -0.77515,0.53744 -1.5813,0.71314 -1.09554,0.21704 -3.17294,0.21704 h -1.99471 v 5.71541 z m 3.05924,-12.58838 v 4.29948 h 1.67432 q 1.80867,0 2.41846,-0.23771 0.60978,-0.23771 0.95084,-0.74414 0.3514,-0.50643 0.3514,-1.17822 0,-0.82683 -0.48576,-1.36426 -0.48575,-0.53744 -1.22989,-0.67179 -0.54778,-0.10336 -2.20142,-0.10336 z"
         style="font-size:21.1667px;fill:#d2ac95;fill-opacity:1"
         id="path51267" />
      <path
         d="m 467.38436,718.83148 v -15.15153 h 11.23446 v 2.56315 h -8.17521 v 3.35897 h 7.60677 v 2.55282 h -7.60677 v 4.12378 h 8.4646 v 2.55281 z"
         style="font-size:21.1667px;fill:#d2ac95;fill-opacity:1"
         id="path51269" />
    </g>
    <rect
       style="display:inline;vector-effect:non-scaling-stroke;fill:#d2ac95;fill-opacity:1;stroke-width:0.0257848;-inkscape-stroke:hairline"
       id="rect76101-3-4-0-7"
       width="105.84799"
       height="162.71875"
       x="-823.72876"
       y="9.9218616"
       ry="12.391612"
       rx="11.207398"
       transform="rotate(-90)" />
    <rect
       style="display:inline;vector-effect:non-scaling-stroke;fill:#d2ac95;fill-opacity:1;stroke-width:0.0257848;-inkscape-stroke:hairline"
       id="rect76101-3-4-0-9-3"
       width="105.84799"
       height="162.71875"
       x="-823.72876"
       y="184.54732"
       ry="12.391612"
       rx="11.207398"
       transform="rotate(-90)" />
    <path
       d="m 95.572267,668.54367 -7.597961,-4.38679 a 0.98390607,0.98390607 0 0 0 -1.475846,0.85196 v 8.77358 a 0.98390607,0.98390607 0 0 0 1.475846,0.85196 l 7.597961,-4.38679 a 0.98387961,0.98387961 0 0 0 0,-1.70392 z"
       fill="#1f1f1f"
       id="path26-8"
       style="display:inline;fill:#d2ac95;fill-opacity:1;stroke-width:2.64583" />
    <path
       style="color:#000000;fill:#d2ac95;fill-opacity:1;stroke-dasharray:5.29167, 5.29167;-inkscape-stroke:none"
       d="m 303.75391,163.73047 -5.25196,0.008 0.004,2.64453 5.25195,-0.008 z m -10.54297,0.0137 -5.29297,0.008 0.004,2.64649 5.29297,-0.008 z m -10.58399,0.0156 -5.29101,0.008 0.004,2.64648 5.29102,-0.008 z m -10.58398,0.0156 -5.29102,0.008 0.004,2.64453 5.29101,-0.006 z m -10.58203,0.0156 -5.29297,0.008 0.004,2.64453 5.29297,-0.008 z m -10.58399,0.0137 -5.29101,0.008 0.004,2.64648 5.29102,-0.008 z m -10.58398,0.0156 -5.29102,0.008 0.004,2.64649 5.29101,-0.008 z m -10.58203,0.0156 -5.29297,0.008 0.004,2.64453 5.29297,-0.008 z m -11.23828,0.2207 -4.57813,2.6543 1.32813,2.28906 4.57812,-2.6543 z m -9.1543,5.31055 -4.57813,2.65429 1.32618,2.28907 4.57812,-2.65625 z m -9.15625,5.30859 -4.57813,2.6543 1.32813,2.28906 4.57812,-2.6543 z m -9.1543,5.30859 -4.57812,2.6543 1.32617,2.28906 4.57812,-2.65429 z m -9.15625,5.31055 -4.57812,2.6543 1.32812,2.28906 4.57813,-2.65625 z m -9.15429,5.3086 -4.57813,2.65429 1.32617,2.28906 4.57813,-2.65429 z m -9.15625,5.30859 -4.57813,2.6543 1.32813,2.28906 4.57812,-2.6543 z m -9.1543,5.31055 -4.57813,2.65429 1.32618,2.28907 4.57812,-2.65625 z"
       id="path81584" />
    <path
       style="color:#000000;fill:#d2ac95;fill-opacity:1;stroke-dasharray:5.29167, 5.29167;-inkscape-stroke:none"
       d="m 151.0197,203.93758 -1.33984,2.28125 4.5625,2.67969 1.33984,-2.28125 z m 9.125,5.36133 -1.33984,2.28125 4.5625,2.67969 1.33984,-2.28125 z m 9.125,5.36133 -1.33984,2.28125 4.5625,2.67969 1.33984,-2.28125 z m 9.125,5.35938 -1.33984,2.28125 4.5625,2.68164 1.33984,-2.28125 z m 9.125,5.36132 -1.33984,2.28125 4.5625,2.68164 1.33984,-2.28125 z m 9.125,5.36133 -1.33984,2.28125 4.5625,2.67969 1.33984,-2.28125 z m 9.125,5.36133 -1.33984,2.28125 4.5625,2.67969 1.33984,-2.28125 z m 9.125,5.35937 -1.33984,2.28125 4.5625,2.68165 1.33984,-2.28125 z"
       id="path81586" />
    <g
       aria-label="GAIN"
       id="text97877"
       style="font-weight:bold;font-size:21.1667px;line-height:1.25;font-family:Arial;-inkscape-font-specification:'Arial, Bold';font-variant-ligatures:none;text-align:center;text-anchor:middle;fill:#d2ac95;fill-opacity:1;stroke-width:2.64583"
       transform="translate(281.10012,-7.825325)">
      <path
         d="m -207.34753,481.15044 v -2.55281 h 6.59392 v 6.0358 q -0.96118,0.93018 -2.79053,1.64331 -1.81901,0.7028 -3.6897,0.7028 -2.37711,0 -4.14445,-0.99218 -1.76733,-1.00253 -2.65617,-2.85254 -0.88883,-1.86036 -0.88883,-4.0411 0,-2.36678 0.99219,-4.20646 0.99218,-1.83968 2.90421,-2.82154 1.45728,-0.75447 3.62769,-0.75447 2.82153,0 4.40283,1.18856 1.59163,1.17822 2.04639,3.26595 l -3.03858,0.56844 q -0.32039,-1.11621 -1.20923,-1.757 -0.87849,-0.65112 -2.20141,-0.65112 -2.00505,0 -3.19361,1.27124 -1.17822,1.27124 -1.17822,3.77238 0,2.69751 1.1989,4.05143 1.19889,1.34359 3.14192,1.34359 0.96118,0 1.92237,-0.37207 0.97151,-0.38241 1.66398,-0.91985 v -1.92236 z"
         style="font-size:21.1667px;fill:#d2ac95;fill-opacity:1"
         id="path105637" />
      <path
         d="m -184.26883,486.72116 h -3.32796 l -1.32292,-3.44165 h -6.05648 l -1.25057,3.44165 h -3.24528 l 5.90145,-15.15153 h 3.23495 z m -5.63273,-5.99447 -2.08773,-5.62239 -2.04638,5.62239 z"
         style="font-size:21.1667px;fill:#d2ac95;fill-opacity:1"
         id="path105639" />
      <path
         d="m -182.7392,486.72116 v -15.15153 h 3.05924 v 15.15153 z"
         style="font-size:21.1667px;fill:#d2ac95;fill-opacity:1"
         id="path105641" />
      <path
         d="m -176.7344,486.72116 v -15.15153 h 2.97656 l 6.20117,10.11825 v -10.11825 h 2.84221 v 15.15153 h -3.06958 l -6.10816,-9.88053 v 9.88053 z"
         style="font-size:21.1667px;fill:#d2ac95;fill-opacity:1"
         id="path105643" />
    </g>
  </g>
  <g
     inkscape:groupmode="layer"
     id="layer1"
     inkscape:label="Inverse Solid"
     style="display:inline">
    <g
       aria-label="NOTCH"
       id="text24781-0-0"
       style="font-weight:bold;font-size:21.1667px;line-height:1.25;font-family:Arial;-inkscape-font-specification:'Arial, Bold';font-variant-ligatures:none;text-align:center;text-anchor:middle;display:inline;fill:#423932;fill-opacity:1;stroke-width:2.64583"
       transform="translate(-39.687527)">
      <path
         d="m 269.56535,859.62482 v -15.15156 h 2.97657 l 6.20118,10.11826 v -10.11826 h 2.84221 v 15.15156 h -3.06959 l -6.10816,-9.88055 v 9.88055 z"
         id="path32073"
         style="fill:#423932;fill-opacity:1" />
      <path
         d="m 284.20014,852.14206 q 0,-2.31511 0.69247,-3.88608 0.51676,-1.15755 1.4056,-2.07739 0.89917,-0.91984 1.96371,-1.36426 1.41593,-0.59945 3.26595,-0.59945 3.34864,0 5.35369,2.0774 2.01538,2.07739 2.01538,5.77743 0,3.66903 -1.99471,5.74643 -1.99471,2.06706 -5.33302,2.06706 -3.37964,0 -5.37436,-2.05673 -1.99471,-2.06706 -1.99471,-5.68441 z m 3.15227,-0.10336 q 0,2.57349 1.18856,3.90675 1.18856,1.32292 3.01791,1.32292 1.82935,0 2.99723,-1.31259 1.17823,-1.32291 1.17823,-3.95842 0,-2.60449 -1.14722,-3.88607 -1.13688,-1.28158 -3.02824,-1.28158 -1.89136,0 -3.04892,1.30225 -1.15755,1.29191 -1.15755,3.90674 z"
         id="path32075"
         style="fill:#423932;fill-opacity:1" />
      <path
         d="m 304.69505,859.62482 v -12.5884 h -4.49586 v -2.56316 h 12.04063 v 2.56316 h -4.48552 v 12.5884 z"
         id="path32077"
         style="fill:#423932;fill-opacity:1" />
      <path
         d="m 323.90838,854.05409 2.96623,0.94051 q -0.68213,2.48047 -2.27377,3.6897 -1.5813,1.1989 -4.02043,1.1989 -3.01791,0 -4.96095,-2.05673 -1.94303,-2.06706 -1.94303,-5.64307 0,-3.78272 1.95337,-5.87045 1.95337,-2.09807 5.13664,-2.09807 2.7802,0 4.51653,1.64331 1.03353,0.97152 1.5503,2.79054 l -3.02825,0.72347 q -0.26871,-1.17823 -1.12655,-1.86036 -0.84749,-0.68213 -2.06706,-0.68213 -1.68465,0 -2.73885,1.20923 -1.04387,1.20923 -1.04387,3.91708 0,2.87322 1.03353,4.09278 1.03353,1.21957 2.68718,1.21957 1.21957,0 2.09807,-0.77515 0.8785,-0.77515 1.26091,-2.43913 z"
         id="path32079"
         style="fill:#423932;fill-opacity:1" />
      <path
         d="m 329.51011,859.62482 v -15.15156 h 3.05925 v 5.96347 h 5.99448 v -5.96347 h 3.05925 v 15.15156 h -3.05925 v -6.62493 h -5.99448 v 6.62493 z"
         id="path32081"
         style="fill:#423932;fill-opacity:1" />
    </g>
    <g
       aria-label="BAND PASS"
       id="text55892"
       style="font-weight:bold;font-size:21.1667px;line-height:1.25;font-family:Arial;-inkscape-font-specification:'Arial, Bold';font-variant-ligatures:none;text-align:center;text-anchor:middle;display:inline;fill:#423932;fill-opacity:1;stroke-width:2.64583">
      <path
         d="m 31.026424,844.46807 h 6.056488 q 1.798342,0 2.676843,0.15503 0.888836,0.1447 1.581302,0.62012 0.7028,0.47543 1.167889,1.27124 0.465088,0.78549 0.465088,1.76734 0,1.06454 -0.578777,1.95337 -0.568441,0.88884 -1.550295,1.33326 1.384931,0.40307 2.129072,1.37459 0.744142,0.97152 0.744142,2.28411 0,1.03353 -0.485759,2.01538 -0.475424,0.97152 -1.312583,1.56063 -0.826825,0.57878 -2.04639,0.71314 -0.764813,0.0827 -3.689704,0.10335 h -5.157316 z m 3.05925,2.52182 v 3.50367 h 2.005049 q 1.788007,0 2.22209,-0.0517 0.785483,-0.093 1.229901,-0.53744 0.454753,-0.45475 0.454753,-1.18856 0,-0.7028 -0.392741,-1.13688 -0.382407,-0.44442 -1.147219,-0.53743 -0.454753,-0.0517 -2.614832,-0.0517 z m 0,6.02548 v 4.05144 h 2.831873 q 1.653648,0 2.098066,-0.093 0.68213,-0.12402 1.105878,-0.59945 0.434083,-0.48576 0.434083,-1.29191 0,-0.68213 -0.33073,-1.15755 -0.33073,-0.47543 -0.961183,-0.69247 -0.620118,-0.21704 -2.70785,-0.21704 z"
         id="path61095"
         style="fill:#423932;fill-opacity:1" />
      <path
         d="m 59.965273,859.61963 h -3.327968 l -1.322918,-3.44166 h -6.056488 l -1.250572,3.44166 H 44.762042 L 50.6635,844.46807 h 3.23495 z m -5.63274,-5.99448 -2.087731,-5.6224 -2.04639,5.6224 z"
         id="path61097"
         style="fill:#423932;fill-opacity:1" />
      <path
         d="m 61.618922,859.61963 v -15.15156 h 2.976567 l 6.201182,10.11827 v -10.11827 h 2.842208 v 15.15156 h -3.069585 l -6.108164,-9.88055 v 9.88055 z"
         id="path61099"
         style="fill:#423932;fill-opacity:1" />
      <path
         d="m 76.863496,844.46807 h 5.591399 q 1.89136,0 2.883549,0.28939 1.333254,0.39274 2.284102,1.39527 0.950848,1.00252 1.446943,2.4598 0.496094,1.44694 0.496094,3.57602 0,1.87069 -0.465088,3.22461 -0.568442,1.65365 -1.622643,2.67684 -0.795818,0.77515 -2.149743,1.20923 -1.01286,0.3204 -2.707849,0.3204 h -5.756764 z m 3.05925,2.56316 v 10.03558 h 2.284102 q 1.281577,0 1.850019,-0.1447 0.744142,-0.18603 1.229901,-0.63045 0.496094,-0.44442 0.806153,-1.45728 0.31006,-1.02319 0.31006,-2.78019 0,-1.757 -0.31006,-2.69752 -0.310059,-0.94051 -0.868165,-1.46761 -0.558106,-0.5271 -1.415936,-0.71314 -0.640789,-0.14469 -2.511479,-0.14469 z"
         id="path61101"
         style="fill:#423932;fill-opacity:1" />
      <path
         d="m 98.040534,859.61963 v -15.15156 h 4.909266 q 2.79053,0 3.63803,0.22738 1.30225,0.34107 2.18075,1.48829 0.8785,1.13688 0.8785,2.94556 0,1.39526 -0.50643,2.34611 -0.50643,0.95085 -1.29191,1.49862 -0.77515,0.53743 -1.58131,0.71314 -1.09554,0.21704 -3.17293,0.21704 h -1.99472 v 5.71542 z m 3.059246,-12.5884 v 4.29949 h 1.67432 q 1.80868,0 2.41846,-0.23772 0.60979,-0.23771 0.95085,-0.74414 0.3514,-0.50643 0.3514,-1.17822 0,-0.82683 -0.48576,-1.36426 -0.48576,-0.53744 -1.2299,-0.6718 -0.54777,-0.10335 -2.20142,-0.10335 z"
         id="path61103"
         style="fill:#423932;fill-opacity:1" />
      <path
         d="m 124.25086,859.61963 h -3.32797 l -1.32291,-3.44166 h -6.05649 l -1.25057,3.44166 h -3.24529 l 5.90146,-15.15156 h 3.23495 z m -5.63274,-5.99448 -2.08773,-5.6224 -2.04639,5.6224 z"
         id="path61105"
         style="fill:#423932;fill-opacity:1" />
      <path
         d="m 125.09836,854.68969 2.97656,-0.28939 q 0.26872,1.49862 1.08521,2.20142 0.82682,0.7028 2.22209,0.7028 1.47795,0 2.22209,-0.62012 0.75448,-0.63045 0.75448,-1.46761 0,-0.53744 -0.3204,-0.90951 -0.31006,-0.3824 -1.09554,-0.66146 -0.53744,-0.18603 -2.44947,-0.66146 -2.4598,-0.60978 -3.45199,-1.49861 -1.39526,-1.25058 -1.39526,-3.04892 0,-1.15755 0.65112,-2.16008 0.66146,-1.01286 1.89136,-1.53996 1.24024,-0.5271 2.9869,-0.5271 2.85255,0 4.28915,1.25057 1.44695,1.25058 1.51929,3.33831 l -3.05925,0.13436 q -0.19637,-1.16789 -0.84749,-1.67432 -0.64079,-0.51677 -1.9327,-0.51677 -1.33326,0 -2.08773,0.54777 -0.48576,0.3514 -0.48576,0.94052 0,0.53743 0.45475,0.91984 0.57878,0.48576 2.8112,1.01286 2.23243,0.5271 3.29696,1.09554 1.07488,0.55811 1.67432,1.53996 0.60979,0.97152 0.60979,2.40812 0,1.30225 -0.72347,2.43914 -0.72348,1.13688 -2.04639,1.69499 -1.32292,0.54777 -3.29697,0.54777 -2.87321,0 -4.41317,-1.32292 -1.53996,-1.33326 -1.83968,-3.87574 z"
         id="path61107"
         style="fill:#423932;fill-opacity:1" />
      <path
         d="m 139.21637,854.68969 2.97657,-0.28939 q 0.26872,1.49862 1.08521,2.20142 0.82682,0.7028 2.22209,0.7028 1.47795,0 2.22209,-0.62012 0.75448,-0.63045 0.75448,-1.46761 0,-0.53744 -0.3204,-0.90951 -0.31006,-0.3824 -1.09554,-0.66146 -0.53744,-0.18603 -2.44947,-0.66146 -2.4598,-0.60978 -3.45199,-1.49861 -1.39526,-1.25058 -1.39526,-3.04892 0,-1.15755 0.65112,-2.16008 0.66146,-1.01286 1.89136,-1.53996 1.24024,-0.5271 2.9869,-0.5271 2.85255,0 4.28915,1.25057 1.44695,1.25058 1.51929,3.33831 l -3.05925,0.13436 q -0.19637,-1.16789 -0.84749,-1.67432 -0.64079,-0.51677 -1.9327,-0.51677 -1.33326,0 -2.08773,0.54777 -0.48576,0.3514 -0.48576,0.94052 0,0.53743 0.45475,0.91984 0.57878,0.48576 2.8112,1.01286 2.23243,0.5271 3.29696,1.09554 1.07488,0.55811 1.67432,1.53996 0.60979,0.97152 0.60979,2.40812 0,1.30225 -0.72348,2.43914 -0.72347,1.13688 -2.04639,1.69499 -1.32291,0.54777 -3.29696,0.54777 -2.87321,0 -4.41317,-1.32292 -1.53996,-1.33326 -1.83969,-3.87574 z"
         id="path61109"
         style="fill:#423932;fill-opacity:1" />
    </g>
    <g
       aria-label="HIGH PASS"
       id="text55892-9"
       style="font-weight:bold;font-size:21.1667px;line-height:1.25;font-family:Arial;-inkscape-font-specification:'Arial, Bold';font-variant-ligatures:none;text-align:center;text-anchor:middle;display:inline;fill:#423932;fill-opacity:1;stroke-width:2.64583"
       transform="translate(0,2.6458271)">
      <path
         d="m 209.76533,740.5567 v -15.15155 h 3.05925 v 5.96347 h 5.99448 v -5.96347 h 3.05925 v 15.15155 h -3.05925 v -6.62493 h -5.99448 v 6.62493 z"
         id="path61078"
         style="fill:#423932;fill-opacity:1" />
      <path
         d="m 224.94789,740.5567 v -15.15155 h 3.05925 v 15.15155 z"
         id="path61080"
         style="fill:#423932;fill-opacity:1" />
      <path
         d="m 237.97037,734.98597 v -2.55282 h 6.59393 v 6.03582 q -0.96119,0.93018 -2.79053,1.64331 -1.81902,0.7028 -3.68971,0.7028 -2.37712,0 -4.14445,-0.99218 -1.76734,-1.00253 -2.65618,-2.85255 -0.88883,-1.86035 -0.88883,-4.0411 0,-2.36679 0.99219,-4.20647 0.99219,-1.83968 2.90422,-2.82154 1.45727,-0.75447 3.62769,-0.75447 2.82154,0 4.40284,1.18855 1.59163,1.17823 2.04639,3.26596 l -3.03858,0.56844 q -0.3204,-1.11621 -1.20923,-1.757 -0.8785,-0.65112 -2.20142,-0.65112 -2.00505,0 -3.19361,1.27124 -1.17823,1.27124 -1.17823,3.77238 0,2.69752 1.1989,4.05144 1.19889,1.34359 3.14193,1.34359 0.96118,0 1.92237,-0.37207 0.97152,-0.3824 1.66398,-0.91984 v -1.92237 z"
         id="path61082"
         style="fill:#423932;fill-opacity:1" />
      <path
         d="m 247.39617,740.5567 v -15.15155 h 3.05925 v 5.96347 h 5.99448 v -5.96347 h 3.05925 v 15.15155 h -3.05925 v -6.62493 h -5.99448 v 6.62493 z"
         id="path61084"
         style="fill:#423932;fill-opacity:1" />
      <path
         d="m 268.55254,740.5567 v -15.15155 h 4.90926 q 2.79054,0 3.63803,0.22737 1.30225,0.34107 2.18075,1.48829 0.8785,1.13688 0.8785,2.94556 0,1.39527 -0.50643,2.34611 -0.50643,0.95085 -1.29191,1.49862 -0.77515,0.53744 -1.5813,0.71314 -1.09554,0.21704 -3.17294,0.21704 h -1.99471 v 5.71542 z m 3.05925,-12.5884 v 4.29949 h 1.67431 q 1.80868,0 2.41847,-0.23771 0.60978,-0.23772 0.95084,-0.74415 0.3514,-0.50642 0.3514,-1.17822 0,-0.82682 -0.48576,-1.36426 -0.48575,-0.53744 -1.2299,-0.67179 -0.54777,-0.10336 -2.20142,-0.10336 z"
         id="path61086"
         style="fill:#423932;fill-opacity:1" />
      <path
         d="m 294.76286,740.5567 h -3.32796 l -1.32292,-3.44165 h -6.05649 l -1.25057,3.44165 h -3.24529 l 5.90146,-15.15155 h 3.23495 z m -5.63274,-5.99447 -2.08773,-5.62241 -2.04639,5.62241 z"
         id="path61088"
         style="fill:#423932;fill-opacity:1" />
      <path
         d="m 295.61036,735.62676 2.97657,-0.28939 q 0.26871,1.49862 1.0852,2.20142 0.82683,0.7028 2.22209,0.7028 1.47795,0 2.22209,-0.62011 0.75448,-0.63046 0.75448,-1.46762 0,-0.53743 -0.32039,-0.9095 -0.31006,-0.38241 -1.09555,-0.66146 -0.53743,-0.18604 -2.44946,-0.66146 -2.45981,-0.60979 -3.452,-1.49862 -1.39526,-1.25057 -1.39526,-3.04892 0,-1.15755 0.65112,-2.16007 0.66146,-1.01286 1.89136,-1.53996 1.24024,-0.5271 2.98691,-0.5271 2.85254,0 4.28915,1.25057 1.44694,1.25057 1.51929,3.3383 l -3.05925,0.13436 q -0.19637,-1.16789 -0.8475,-1.67432 -0.64079,-0.51677 -1.9327,-0.51677 -1.33325,0 -2.08773,0.54778 -0.48576,0.3514 -0.48576,0.94051 0,0.53743 0.45475,0.91984 0.57878,0.48576 2.81121,1.01286 2.23242,0.5271 3.29696,1.09554 1.07487,0.55811 1.67432,1.53996 0.60978,0.97152 0.60978,2.40813 0,1.30225 -0.72347,2.43913 -0.72347,1.13688 -2.04639,1.69499 -1.32292,0.54777 -3.29696,0.54777 -2.87322,0 -4.41318,-1.32292 -1.53996,-1.33325 -1.83968,-3.87574 z"
         id="path61090"
         style="fill:#423932;fill-opacity:1" />
      <path
         d="m 309.72838,735.62676 2.97657,-0.28939 q 0.26872,1.49862 1.08521,2.20142 0.82682,0.7028 2.22209,0.7028 1.47795,0 2.22209,-0.62011 0.75448,-0.63046 0.75448,-1.46762 0,-0.53743 -0.3204,-0.9095 -0.31006,-0.38241 -1.09554,-0.66146 -0.53744,-0.18604 -2.44947,-0.66146 -2.4598,-0.60979 -3.45199,-1.49862 -1.39526,-1.25057 -1.39526,-3.04892 0,-1.15755 0.65112,-2.16007 0.66146,-1.01286 1.89136,-1.53996 1.24024,-0.5271 2.9869,-0.5271 2.85255,0 4.28915,1.25057 1.44695,1.25057 1.51929,3.3383 l -3.05925,0.13436 q -0.19637,-1.16789 -0.84749,-1.67432 -0.64079,-0.51677 -1.9327,-0.51677 -1.33326,0 -2.08773,0.54778 -0.48576,0.3514 -0.48576,0.94051 0,0.53743 0.45475,0.91984 0.57878,0.48576 2.8112,1.01286 2.23243,0.5271 3.29696,1.09554 1.07488,0.55811 1.67432,1.53996 0.60979,0.97152 0.60979,2.40813 0,1.30225 -0.72348,2.43913 -0.72347,1.13688 -2.04639,1.69499 -1.32291,0.54777 -3.29696,0.54777 -2.87321,0 -4.41317,-1.32292 -1.53996,-1.33325 -1.83969,-3.87574 z"
         id="path61092"
         style="fill:#423932;fill-opacity:1" />
    </g>
    <g
       aria-label="LOW PASS"
       id="text55892-9-8"
       style="font-weight:bold;font-size:21.1667px;line-height:1.25;font-family:Arial;-inkscape-font-specification:'Arial, Bold';font-variant-ligatures:none;text-align:center;text-anchor:middle;display:inline;fill:#423932;fill-opacity:1;stroke-width:2.64583"
       transform="translate(0,2.6458271)">
      <path
         d="m 36.948548,740.5567 v -15.02753 h 3.059249 v 12.47471 h 7.606783 v 2.55282 z"
         id="path61063"
         style="fill:#423932;fill-opacity:1" />
      <path
         d="m 49.175212,733.07394 q 0,-2.31511 0.692465,-3.88607 0.516765,-1.15756 1.405601,-2.0774 0.899171,-0.91984 1.963708,-1.36426 1.415936,-0.59944 3.265955,-0.59944 3.348638,0 5.353687,2.07739 2.015384,2.0774 2.015384,5.77744 0,3.66903 -1.994713,5.74642 -1.994714,2.06706 -5.333016,2.06706 -3.379645,0 -5.374358,-2.05672 -1.994713,-2.06706 -1.994713,-5.68442 z m 3.152267,-0.10335 q 0,2.57349 1.18856,3.90674 1.18856,1.32292 3.017908,1.32292 1.829349,0 2.997238,-1.31258 1.178225,-1.32292 1.178225,-3.95842 0,-2.6045 -1.147219,-3.88608 -1.136883,-1.28157 -3.028244,-1.28157 -1.89136,0 -3.048914,1.30224 -1.157554,1.29192 -1.157554,3.90675 z"
         id="path61065"
         style="fill:#423932;fill-opacity:1" />
      <path
         d="m 68.409211,740.5567 -3.617356,-15.15155 h 3.131597 l 2.284101,10.40765 2.769862,-10.40765 h 3.638026 l 2.656173,10.58335 2.325443,-10.58335 h 3.079921 L 80.99761,740.5567 h -3.245285 l -3.017909,-11.32749 -3.007573,11.32749 z"
         id="path61067"
         style="fill:#423932;fill-opacity:1" />
      <path
         d="m 92.118395,740.5567 v -15.15155 h 4.909268 q 2.790532,0 3.638027,0.22737 1.30225,0.34107 2.18075,1.48829 0.8785,1.13688 0.8785,2.94556 0,1.39527 -0.50643,2.34611 -0.50643,0.95085 -1.29191,1.49862 -0.77515,0.53744 -1.5813,0.71314 -1.095546,0.21704 -3.172942,0.21704 h -1.994714 v 5.71542 z m 3.059249,-12.5884 v 4.29949 h 1.674319 q 1.808678,0 2.418461,-0.23771 0.609783,-0.23772 0.950846,-0.74415 0.3514,-0.50642 0.3514,-1.17822 0,-0.82682 -0.48576,-1.36426 -0.485756,-0.53744 -1.229898,-0.67179 -0.547771,-0.10336 -2.201419,-0.10336 z"
         id="path61069"
         style="fill:#423932;fill-opacity:1" />
      <path
         d="m 118.32873,740.5567 h -3.32797 l -1.32292,-3.44165 h -6.05649 l -1.25057,3.44165 h -3.24528 l 5.90145,-15.15155 h 3.23495 z m -5.63274,-5.99447 -2.08773,-5.62241 -2.04639,5.62241 z"
         id="path61071"
         style="fill:#423932;fill-opacity:1" />
      <path
         d="m 119.17622,735.62676 2.97657,-0.28939 q 0.26872,1.49862 1.0852,2.20142 0.82683,0.7028 2.22209,0.7028 1.47795,0 2.22209,-0.62011 0.75448,-0.63046 0.75448,-1.46762 0,-0.53743 -0.32039,-0.9095 -0.31006,-0.38241 -1.09554,-0.66146 -0.53744,-0.18604 -2.44947,-0.66146 -2.4598,-0.60979 -3.45199,-1.49862 -1.39527,-1.25057 -1.39527,-3.04892 0,-1.15755 0.65113,-2.16007 0.66145,-1.01286 1.89136,-1.53996 1.24023,-0.5271 2.9869,-0.5271 2.85254,0 4.28915,1.25057 1.44694,1.25057 1.51929,3.3383 l -3.05925,0.13436 q -0.19637,-1.16789 -0.8475,-1.67432 -0.64078,-0.51677 -1.9327,-0.51677 -1.33325,0 -2.08773,0.54778 -0.48576,0.3514 -0.48576,0.94051 0,0.53743 0.45476,0.91984 0.57877,0.48576 2.8112,1.01286 2.23242,0.5271 3.29696,1.09554 1.07487,0.55811 1.67432,1.53996 0.60978,0.97152 0.60978,2.40813 0,1.30225 -0.72347,2.43913 -0.72347,1.13688 -2.04639,1.69499 -1.32292,0.54777 -3.29696,0.54777 -2.87322,0 -4.41318,-1.32292 -1.53996,-1.33325 -1.83968,-3.87574 z"
         id="path61073"
         style="fill:#423932;fill-opacity:1" />
      <path
         d="m 133.29424,735.62676 2.97657,-0.28939 q 0.26871,1.49862 1.0852,2.20142 0.82683,0.7028 2.22209,0.7028 1.47795,0 2.22209,-0.62011 0.75448,-0.63046 0.75448,-1.46762 0,-0.53743 -0.32039,-0.9095 -0.31006,-0.38241 -1.09555,-0.66146 -0.53743,-0.18604 -2.44946,-0.66146 -2.4598,-0.60979 -3.45199,-1.49862 -1.39527,-1.25057 -1.39527,-3.04892 0,-1.15755 0.65112,-2.16007 0.66146,-1.01286 1.89136,-1.53996 1.24024,-0.5271 2.98691,-0.5271 2.85254,0 4.28915,1.25057 1.44694,1.25057 1.51929,3.3383 l -3.05925,0.13436 q -0.19637,-1.16789 -0.8475,-1.67432 -0.64079,-0.51677 -1.9327,-0.51677 -1.33325,0 -2.08773,0.54778 -0.48576,0.3514 -0.48576,0.94051 0,0.53743 0.45475,0.91984 0.57878,0.48576 2.81121,1.01286 2.23242,0.5271 3.29696,1.09554 1.07487,0.55811 1.67432,1.53996 0.60978,0.97152 0.60978,2.40813 0,1.30225 -0.72347,2.43913 -0.72347,1.13688 -2.04639,1.69499 -1.32292,0.54777 -3.29696,0.54777 -2.87322,0 -4.41318,-1.32292 -1.53996,-1.33325 -1.83968,-3.87574 z"
         id="path61075"
         style="fill:#423932;fill-opacity:1" />
    </g>
  </g>
  <g
     inkscape:groupmode="layer"
     id="layer7"
     inkscape:label="Alternate Solid"
     style="display:inline" />
  <g
     inkscape:groupmode="layer"
     id="layer2"
     inkscape:label="Widget"
     style="display:none">
    <circle
       style="display:inline;fill:#ff0000;stroke:#ff0000;stroke-width:5.15744;stroke-opacity:1"
       id="path1065-7-2-8-1-2-9-9"
       cx="305.59421"
       cy="898.26086"
       r="27.848814" />
    <circle
       style="display:inline;fill:#ff0000;stroke:#ff0000;stroke-width:5.15744;stroke-opacity:1"
       id="path1065-7-2-8-1-11-6-8-9"
       cx="226.21921"
       cy="898.26086"
       r="27.848814" />
    <circle
       style="display:inline;fill:#ff0000;stroke:#ff0000;stroke-width:5.15744;stroke-opacity:1"
       id="path1065-7-2-8-1-110-3-0-0"
       cx="130.96829"
       cy="898.26086"
       r="27.848814" />
    <circle
       style="display:inline;fill:#ff0000;stroke:#ff0000;stroke-width:5.15744;stroke-opacity:1"
       id="path1065-7-2-8-1-110-3-0-0-6"
       cx="51.5942"
       cy="898.26086"
       r="27.848814" />
    <circle
       style="display:inline;fill:#ff0000;stroke:#ff0000;stroke-width:5.15744;stroke-opacity:1"
       id="path1065-7-2-8-1-2-9-9-1"
       cx="305.59421"
       cy="781.84375"
       r="27.848814" />
    <circle
       style="display:inline;fill:#ff0000;stroke:#ff0000;stroke-width:5.15744;stroke-opacity:1"
       id="path1065-7-2-8-1-11-6-8-9-7"
       cx="226.21921"
       cy="781.84375"
       r="27.848814" />
    <circle
       style="display:inline;fill:#ff0000;stroke:#ff0000;stroke-width:5.15744;stroke-opacity:1"
       id="path1065-7-2-8-1-110-3-0-0-2"
       cx="130.96829"
       cy="781.84375"
       r="27.848814" />
    <circle
       style="display:inline;fill:#ff0000;stroke:#ff0000;stroke-width:5.15744;stroke-opacity:1"
       id="path1065-7-2-8-1-110-3-0-0-6-2"
       cx="51.5942"
       cy="781.84375"
       r="27.848814" />
    <circle
       style="display:inline;fill:#ff0000;stroke:#ff0000;stroke-width:5.15744;stroke-opacity:1"
       id="path1065-7-2-8-1-13-1-9-1"
       cx="305.59421"
       cy="374.38644"
       r="27.848814" />
    <circle
       style="display:inline;fill:#ff0000;stroke:#ff0000;stroke-width:5.15744;stroke-opacity:1"
       id="path1065-7-2-8-1-13-9-9-0-8"
       cx="305.59421"
       cy="244.74007"
       r="27.848814" />
    <circle
       style="display:inline;fill:#ff0000;stroke:#ff0000;stroke-width:5.15744;stroke-opacity:1"
       id="path1065-7-2-8-1-13-9-9-0-8-1"
       cx="305.59421"
       cy="165.36575"
       r="27.848814" />
    <circle
       style="display:inline;fill:#ff0000;stroke:#ff0000;stroke-width:5.15744;stroke-opacity:1"
       id="path1065-7-2-8-1-13-6-9-7-5"
       cx="305.59421"
       cy="533.13342"
       r="27.848814" />
    <circle
       style="display:inline;fill:#ff0000;stroke:#ff0000;stroke-width:5.15744;stroke-opacity:1"
       id="path1065-7-2-8-1-13-6-9-7-5-4"
       cx="91.281242"
       cy="205.05292"
       r="56.95253" />
    <circle
       style="display:inline;fill:#ff0000;stroke:#ff0000;stroke-width:5.15744;stroke-opacity:1"
       id="path1065-7-2-8-1-13-6-9-7-5-8"
       cx="91.281242"
       cy="374.38644"
       r="43.723366" />
    <circle
       style="display:inline;fill:#ff0000;stroke:#ff0000;stroke-width:5.15744;stroke-opacity:1"
       id="path1065-7-2-8-1-13-6-9-7-5-8-8"
       cx="91.281242"
       cy="533.13342"
       r="43.723366" />
    <circle
       style="display:inline;fill:#ff0000;stroke:#ff0000;stroke-width:5.15744;stroke-opacity:1"
       id="path1065-7-2-8-1-0-1-2-0"
       cx="215.63545"
       cy="533.13342"
       r="26.525448" />
    <circle
       style="display:inline;fill:#ff0000;stroke:#ff0000;stroke-width:5.15744;stroke-opacity:1"
       id="path1065-7-2-8-1-0-1-2-0-9"
       cx="215.63545"
       cy="374.38644"
       r="26.525448" />
    <circle
       style="display:inline;fill:#ff0000;stroke:#ff0000;stroke-width:5.15744;stroke-opacity:1"
       id="path1065-7-2-8-1-0-1-2-0-6"
       cx="215.63545"
       cy="246.06345"
       r="26.525448" />
    <rect
       style="display:inline;opacity:0.995935;fill:#ff0000;stroke:none;stroke-width:2.64583"
       id="rect6025-3-3-3"
       width="63.500004"
       height="63.5"
       x="183.88545"
       y="637.64563"
       ry="14.210836"
       rx="14.210836" />
    <rect
       style="display:inline;opacity:0.995935;fill:#ff0000;stroke:none;stroke-width:2.64583"
       id="rect6025-3-3-3-3"
       width="63.500004"
       height="63.5"
       x="272.52173"
       y="637.64563"
       ry="14.210836"
       rx="14.210836" />
    <circle
       style="display:inline;fill:#ff0000;stroke:#ff0000;stroke-width:5.15744;stroke-opacity:1"
       id="path1065-7-2-8-1-110-3-0-0-6-6"
       cx="51.5942"
       cy="669.39563"
       r="27.848814" />
    <circle
       style="display:inline;fill:#ff0000;stroke:#ff0000;stroke-width:5.15744;stroke-opacity:1"
       id="path1065-7-2-8-1-110-3-0-0-6-6-6"
       cx="130.96829"
       cy="669.39563"
       r="27.848814" />
  </g>
</svg>
