<?xml version="1.0" encoding="UTF-8" standalone="no"?>
<svg
   width="195"
   height="380"
   viewBox="0 0 195 380"
   version="1.1"
   id="svg100"
   sodipodi:docname="WaveMultiplier_Earth.svg"
   inkscape:version="1.1.1 (3bf5ae0d25, 2021-09-20)"
   xmlns:inkscape="http://www.inkscape.org/namespaces/inkscape"
   xmlns:sodipodi="http://sodipodi.sourceforge.net/DTD/sodipodi-0.dtd"
   xmlns="http://www.w3.org/2000/svg"
   xmlns:svg="http://www.w3.org/2000/svg"
   xmlns:rdf="http://www.w3.org/1999/02/22-rdf-syntax-ns#"
   xmlns:cc="http://creativecommons.org/ns#"
   xmlns:dc="http://purl.org/dc/elements/1.1/">
  <metadata
     id="metadata104">
    <rdf:RDF>
      <cc:Work
         rdf:about="">
        <dc:format>image/svg+xml</dc:format>
        <dc:type
           rdf:resource="http://purl.org/dc/dcmitype/StillImage" />
      </cc:Work>
    </rdf:RDF>
  </metadata>
  <sodipodi:namedview
     pagecolor="#ffffff"
     bordercolor="#666666"
     borderopacity="1"
     objecttolerance="1"
     gridtolerance="1"
     guidetolerance="1"
     inkscape:pageopacity="0"
     inkscape:pageshadow="2"
     inkscape:window-width="1920"
     inkscape:window-height="1057"
     id="namedview102"
     showgrid="false"
     inkscape:zoom="2.2342105"
     inkscape:cx="97.573616"
     inkscape:cy="190"
     inkscape:window-x="1592"
     inkscape:window-y="-8"
     inkscape:window-maximized="1"
     inkscape:current-layer="layer2"
     inkscape:pagecheckerboard="0"
     units="px"
     inkscape:showpageshadow="false"
     showguides="true">
    <inkscape:grid
       type="xygrid"
       id="grid1285"
       visible="true"
       dotted="false"
       snapvisiblegridlinesonly="true"
       enabled="true" />
  </sodipodi:namedview>
  <defs
     id="defs7">
    <rect
       x="85"
       y="10"
       width="51.058132"
       height="25"
       id="rect29906" />
    <linearGradient
       id="a8e142bb-541b-4903-be63-d5d069028a5d"
       x1="22.5"
       x2="22.5"
       y2="380"
       gradientUnits="userSpaceOnUse">
      <stop
         offset="0"
         stop-color="#ebebeb"
         id="stop2" />
      <stop
         offset="1"
         stop-color="#e1e1e1"
         id="stop4" />
    </linearGradient>
  </defs>
  <g
     inkscape:groupmode="layer"
     id="layer4"
     inkscape:label="Faceplate"
     style="display:inline">
    <g
       id="aea613ef-74be-49bf-be45-c0734aee674b"
       data-name="FND BG"
       style="fill:#423932;fill-opacity:1;stroke-width:0.919866"
       transform="scale(4.3333333,1)">
      <rect
         width="45"
         height="380"
         fill="url(#a8e142bb-541b-4903-be63-d5d069028a5d)"
         id="rect9"
         style="fill:#423932;fill-opacity:1;stroke-width:0.919866"
         x="0"
         y="0" />
    </g>
  </g>
  <g
     inkscape:groupmode="layer"
     id="layer3"
     inkscape:label="Brand"
     style="display:inline">
    <g
       id="g42796"
       transform="matrix(0.30458296,0,0,0.30458296,74.437549,-12.68508)"
       style="fill:#ff0000">
      <g
         aria-label="enom"
         id="text4270-27"
         style="font-size:49.3889px;line-height:1.25;font-family:'NECK ROMANCER';-inkscape-font-specification:'NECK ROMANCER, Normal';font-variant-ligatures:none;text-align:center;text-anchor:middle;fill:#ff0000;stroke-width:2.64583">
        <path
           d="m 46.609141,1249.244 q 0,1.1576 0,3.4245 3.183269,0 9.453344,0 -1.639866,0.5787 -2.990343,1.2058 -1.350478,0.627 -2.363337,1.688 -1.350477,0 -4.051433,0 0,1.4952 0.434082,2.5563 0.385851,1.1093 1.832792,1.1093 2.266873,0 6.80062,0 0.482313,-0.1447 0.868164,-0.627 0.337619,-0.5305 0.627007,-1.7363 0,2.0257 0,6.1254 -3.520888,0 -10.562665,0 -1.543403,0 -2.652724,-2.2187 -1.109321,-2.1704 -1.109321,-6.3183 0,-1.9775 0,-5.836 -0.385851,-1.3504 -1.881023,-2.1221 -1.495171,-0.7235 -3.569119,-1.2058 6.607694,0 19.774852,0 0,2.9421 0,8.7781 -1.205783,-2.701 -2.218642,-3.6656 -1.012858,-0.9646 -2.700955,-1.1093 -0.916396,-0.097 -2.170411,-0.097 -1.205783,0.048 -2.845649,0.048 -0.241157,0 -0.675239,0 z"
           id="path42762"
           style="fill:#ff0000" />
        <path
           d="m 81.576869,1245.2891 q 0,5.8842 0,17.7009 0,3.0868 -0.144694,6.0771 -0.09646,3.0386 -0.337619,5.9325 -0.385851,-3.7138 -0.964627,-6.9936 -0.530545,-3.3279 -2.025717,-5.016 0,-2.9904 0,-8.9228 -0.241157,-1.3505 -0.72347,-2.2187 -0.482314,-0.8681 -1.06109,-1.3987 -1.109321,-1.0128 -2.411567,-1.1093 -1.350478,-0.097 -2.266874,-0.097 -0.482313,0 -1.44694,0 0,4.582 0,13.746 0,3.0868 -0.09646,6.0771 -0.144694,3.0386 -0.385851,5.9325 -0.38585,-3.7138 -0.916395,-6.9936 -0.578776,-3.3279 -2.025717,-5.016 0,-4.8232 0,-14.373 -0.385851,-1.3504 -1.881022,-2.1221 -1.495172,-0.7235 -3.56912,-1.2058 6.752389,0 20.257166,0 z"
           id="path42764"
           style="fill:#ff0000" />
        <path
           d="m 104.19737,1249.0511 q 0,3.3762 0,10.1768 0,1.5434 -1.92925,2.6528 -1.92926,1.1093 -6.077152,1.1093 -4.196128,0 -6.125382,-1.1093 -1.929254,-1.1094 -1.929254,-2.6528 0,-3.3762 0,-10.1768 0,-1.5434 1.929254,-2.6527 1.929254,-1.1093 6.125382,-1.1093 4.147892,0 6.077152,1.1093 1.92925,1.1093 1.92925,2.6527 z m -3.76204,7.91 q 0,-1.8811 0,-5.6431 0,-1.6881 -1.254019,-1.9775 -1.205783,-0.2894 -2.990343,-0.2894 -1.832792,0 -3.038575,0.2894 -1.254015,0.2894 -1.254015,1.9775 0,1.881 0,5.6431 0,1.6881 1.254015,1.9774 1.205783,0.2894 3.038575,0.2894 1.78456,0 2.990343,-0.2894 1.254019,-0.2893 1.254019,-1.9774 z"
           id="path42766"
           style="fill:#ff0000" />
        <path
           d="m 142.34837,1245.2891 q -2.02572,0.4823 -3.52089,1.2058 -1.5434,0.7717 -1.88102,2.1221 0,4.7749 0,14.373 -1.49517,1.6881 -2.02572,5.016 -0.57878,3.2798 -0.96463,6.9936 -0.24115,-2.8939 -0.33762,-5.9325 -0.14469,-2.9903 -0.14469,-6.0771 0,-4.582 0,-13.746 -0.48231,0 -1.39871,0 -0.53054,0 -1.15755,0 -0.62701,0 -1.30225,0.1447 -1.25401,0.2412 -2.41157,1.2058 -1.15755,0.9646 -1.63986,3.4727 0,2.9903 0,8.9228 -0.1447,0.627 -0.28939,1.1093 -0.0965,0.4823 -0.19292,0.8199 -0.53055,1.9775 -0.38586,1.3505 0.19293,-0.627 -0.28938,1.1576 -0.0965,0.3376 -0.24116,0.8681 -0.14469,0.5306 -0.33762,1.3023 -0.14469,-0.6753 -0.28939,-1.2058 -0.14469,-0.4823 -0.24115,-0.8199 -0.53055,-2.0258 -0.33762,-1.3023 0.19292,0.7717 -0.43409,-1.6881 -0.0482,-0.2894 -0.19292,-0.7235 -0.0965,-0.3858 -0.19293,-0.8681 0,-2.9904 0,-8.9228 -0.28939,-1.3505 -0.7717,-2.2187 -0.48231,-0.8681 -1.06109,-1.3987 -1.10932,-1.0128 -2.41157,-1.1093 -1.30224,-0.097 -2.26687,-0.097 -0.48231,0 -1.39871,0 0,4.582 0,13.746 0,3.0868 -0.14469,6.0771 -0.0965,3.0386 -0.33762,5.9325 -0.38585,-3.7138 -0.96463,-6.9936 -0.53054,-3.3279 -2.02572,-5.016 0,-4.8232 0,-14.373 -0.38585,-1.3504 -1.88102,-2.1221 -1.49517,-0.7235 -3.56912,-1.2058 3.95497,0 11.76845,0 1.15755,0.3858 3.47266,1.1575 0.7717,0.2894 1.59163,0.4341 0.81994,0.1447 1.6881,0.1447 0.86816,0 1.73633,-0.1447 0.81993,-0.1447 1.59163,-0.4341 1.15756,-0.3858 3.42443,-1.1575 3.95497,0 11.76845,0 z"
           id="path42768"
           style="fill:#ff0000" />
      </g>
      <g
         aria-label="V"
         transform="matrix(1.2363173,0,0,0.80885384,-497.88086,123.48586)"
         id="text4270-3-5-2"
         style="font-size:78.5061px;line-height:1.25;font-family:Nosferotica;-inkscape-font-specification:'Nosferotica, Normal';font-variant-ligatures:none;text-align:center;text-anchor:middle;fill:#ff0000;stroke-width:3.27108">
        <path
           d="m 431.64994,1360.6864 8.57428,-0.1022 c 0,0 -4.4079,1.0878 -5.59925,3.7285 -1.88083,4.1689 -3.64217,14.6628 -3.64217,14.6628 l -2.23339,11.5191 -1.83311,11.8311 -1.71824,21.3112 -1.69514,-21.3112 -1.92196,-11.5208 -2.5009,-11.8294 c 0,0 -1.52027,-10.287 -3.38278,-14.4832 -1.14458,-2.5787 -5.63367,-3.8059 -5.63367,-3.8059 h 8.4657 l 6.66875,29.1569 z"
           id="path30410"
           sodipodi:nodetypes="ccscccccccscccc"
           style="fill:#ff0000" />
      </g>
    </g>
  </g>
  <g
     id="f45e0130-37b7-4f8b-95b3-6408baa23eb1"
     data-name="components"
     style="display:inline"
     inkscape:groupmode="layer"
     inkscape:label="Solid">
    <g
       aria-label="DC"
       id="text86274"
       style="font-weight:bold;font-size:6.66667px;line-height:1.25;font-family:Arial;-inkscape-font-specification:'Arial, Bold';font-variant-ligatures:none;text-align:center;text-anchor:middle;display:inline;fill:#d2ac95;fill-opacity:1">
      <path
         d="m 13.097329,233.45519 h 1.761069 q 0.595703,0 0.908203,0.0911 0.419922,0.1237 0.719402,0.43946 0.299479,0.31575 0.455729,0.77474 0.15625,0.45573 0.15625,1.1263 0,0.58919 -0.146484,1.01563 -0.179037,0.52083 -0.511068,0.84309 -0.250651,0.24415 -0.677084,0.38086 -0.31901,0.10092 -0.852865,0.10092 h -1.813152 z m 0.963542,0.80729 v 3.16081 h 0.719402 q 0.403646,0 0.582682,-0.0456 0.234375,-0.0586 0.38737,-0.19857 0.15625,-0.13998 0.253907,-0.45899 0.09766,-0.32226 0.09766,-0.87565 0,-0.55338 -0.09766,-0.84961 -0.09766,-0.29622 -0.273438,-0.46224 -0.175781,-0.16601 -0.445964,-0.22461 -0.201823,-0.0456 -0.791016,-0.0456 z"
         id="path89791"
         style="fill:#d2ac95;fill-opacity:1" />
      <path
         d="m 20.968427,236.47277 0.934245,0.29622 q -0.214844,0.78125 -0.716146,1.16211 -0.498047,0.37761 -1.266277,0.37761 -0.950521,0 -1.5625,-0.64779 -0.61198,-0.65104 -0.61198,-1.77735 0,-1.1914 0.615235,-1.84895 0.615234,-0.66081 1.617839,-0.66081 0.875652,0 1.422527,0.51758 0.325521,0.30599 0.488281,0.8789 l -0.953776,0.22787 q -0.08464,-0.3711 -0.354818,-0.58594 -0.266927,-0.21484 -0.651042,-0.21484 -0.530599,0 -0.862631,0.38086 -0.328776,0.38085 -0.328776,1.23372 0,0.90495 0.325521,1.28906 0.325521,0.38412 0.846355,0.38412 0.384114,0 0.660807,-0.24414 0.276693,-0.24414 0.397136,-0.76823 z"
         id="path89793"
         style="fill:#d2ac95;fill-opacity:1" />
    </g>
    <rect
       x="157.26007"
       y="318"
       width="30.479843"
       height="40"
       rx="3.0260944"
       fill="#1f1f1f"
       id="rect56"
       style="fill:#d2ac95;fill-opacity:1;stroke-width:1.04428"
       ry="3.0260944" />
    <rect
       x="42.280239"
       y="68.266426"
       width="145.72763"
       height="31.466885"
       rx="3.0260944"
       fill="#1f1f1f"
       id="rect56-1"
       style="display:inline;fill:#d2ac95;fill-opacity:1;stroke-width:1.04428"
       ry="3.0260944" />
    <rect
       x="31.426489"
       y="207.79623"
       width="156.58138"
       height="66.407532"
       rx="3.0260942"
       fill="#1f1f1f"
       id="rect56-6"
       style="display:inline;fill:#d2ac95;fill-opacity:1;stroke-width:1.04428"
       ry="3.0260944" />
    <g
       aria-label="IN"
       id="text38746-0-2"
       style="font-weight:bold;font-size:8px;line-height:1.25;font-family:Arial;-inkscape-font-specification:'Arial, Bold';font-variant-ligatures:none;text-align:center;text-anchor:middle;display:inline;fill:#d2ac95;fill-opacity:1"
       transform="translate(-17.25,2)">
      <path
         d="m 34.34375,325.90234 v -5.72656 H 35.5 v 5.72656 z"
         id="path97104"
         style="fill:#d2ac95;fill-opacity:1" />
      <path
         d="m 36.613281,325.90234 v -5.72656 h 1.125 L 40.082031,324 v -3.82422 h 1.074219 v 5.72656 H 39.996094 L 37.6875,322.16797 v 3.73437 z"
         id="path97106"
         style="fill:#d2ac95;fill-opacity:1" />
    </g>
    <g
       aria-label="FREQ"
       id="text41157"
       style="font-weight:bold;font-size:8px;line-height:1.25;font-family:Arial;-inkscape-font-specification:'Arial, Bold';font-variant-ligatures:none;text-align:center;text-anchor:middle;display:inline;fill:#d2ac95;fill-opacity:1">
      <path
         d="M 41.736328,51.125103 V 45.39854 h 3.925781 v 0.96875 h -2.769531 v 1.355469 h 2.390625 v 0.96875 h -2.390625 v 2.433594 z"
         id="path55054"
         style="fill:#d2ac95;fill-opacity:1" />
      <path
         d="M 46.619141,51.125103 V 45.39854 h 2.433593 q 0.917969,0 1.332032,0.15625 0.417968,0.152344 0.667968,0.546875 0.25,0.394532 0.25,0.902344 0,0.644531 -0.378906,1.066406 -0.378906,0.417969 -1.132812,0.527344 0.375,0.21875 0.617187,0.480469 0.246094,0.261719 0.660156,0.929687 l 0.699219,1.117188 h -1.382812 l -0.835938,-1.246094 q -0.445312,-0.667969 -0.609375,-0.839844 -0.164062,-0.175781 -0.347656,-0.238281 -0.183594,-0.06641 -0.582031,-0.06641 h -0.234375 v 2.390625 z m 1.15625,-3.304688 h 0.855468 q 0.832032,0 1.039063,-0.07031 0.207031,-0.07031 0.324219,-0.242188 0.117187,-0.171875 0.117187,-0.429687 0,-0.289063 -0.15625,-0.464844 -0.152344,-0.179687 -0.433594,-0.226562 -0.140625,-0.01953 -0.84375,-0.01953 h -0.902343 z"
         id="path55056"
         style="fill:#d2ac95;fill-opacity:1" />
      <path
         d="M 52.392578,51.125103 V 45.39854 h 4.246094 v 0.96875 h -3.089844 v 1.269532 h 2.875 v 0.964843 h -2.875 v 1.558594 h 3.199219 v 0.964844 z"
         id="path55058"
         style="fill:#d2ac95;fill-opacity:1" />
      <path
         d="m 62.337891,50.39854 q 0.425781,0.304688 0.925781,0.484375 l -0.425781,0.816407 q -0.261719,-0.07813 -0.511719,-0.214844 -0.05469,-0.02734 -0.769531,-0.507813 -0.5625,0.246094 -1.246094,0.246094 -1.320313,0 -2.070313,-0.777344 -0.746093,-0.777343 -0.746093,-2.183593 0,-1.402344 0.75,-2.179688 0.75,-0.78125 2.035156,-0.78125 1.273437,0 2.019531,0.78125 0.746094,0.777344 0.746094,2.179688 0,0.742187 -0.207031,1.304687 -0.15625,0.429688 -0.5,0.832031 z m -0.929688,-0.652343 q 0.222656,-0.261719 0.332031,-0.632813 0.113282,-0.371094 0.113282,-0.851562 0,-0.992188 -0.4375,-1.480469 -0.4375,-0.492188 -1.144532,-0.492188 -0.707031,0 -1.148437,0.492188 -0.4375,0.492187 -0.4375,1.480469 0,1.003906 0.4375,1.503906 0.441406,0.496094 1.113281,0.496094 0.25,0 0.472656,-0.08203 -0.351562,-0.230468 -0.714843,-0.359375 l 0.324218,-0.660156 q 0.570313,0.195313 1.089844,0.585938 z"
         id="path55060"
         style="fill:#d2ac95;fill-opacity:1" />
    </g>
    <g
       aria-label="MASTER"
       id="text41157-3"
       style="font-weight:bold;font-size:8px;line-height:1.25;font-family:Arial;-inkscape-font-specification:'Arial, Bold';font-variant-ligatures:none;text-align:center;text-anchor:middle;display:inline;fill:#d2ac95;fill-opacity:1">
      <path
         d="m 4.5393658,34.25922 v -5.726562 h 1.7304687 l 1.0390625,3.90625 1.0273438,-3.90625 H 10.070616 V 34.25922 H 8.996397 V 29.751408 L 7.8596783,34.25922 H 6.746397 L 5.6135845,29.751408 v 4.507812 z"
         id="path55029"
         style="fill:#d2ac95;fill-opacity:1" />
      <path
         d="m 16.383116,34.25922 h -1.257813 l -0.5,-1.300781 h -2.289062 l -0.472656,1.300781 h -1.226563 l 2.230469,-5.726562 h 1.222656 z m -2.128906,-2.265625 -0.789063,-2.125 -0.773437,2.125 z"
         id="path55031"
         style="fill:#d2ac95;fill-opacity:1" />
      <path
         d="m 16.703428,32.395939 1.125,-0.109375 q 0.101563,0.566406 0.410157,0.832031 0.3125,0.265625 0.839843,0.265625 0.558594,0 0.839844,-0.234375 0.285156,-0.238281 0.285156,-0.554687 0,-0.203125 -0.121093,-0.34375 -0.117188,-0.144532 -0.414063,-0.25 -0.203125,-0.07031 -0.925781,-0.25 -0.929688,-0.230469 -1.304688,-0.566407 -0.527343,-0.472656 -0.527343,-1.152343 0,-0.4375 0.246093,-0.816407 0.25,-0.382812 0.714844,-0.582031 0.46875,-0.199219 1.128906,-0.199219 1.078125,0 1.621094,0.472657 0.546875,0.472656 0.574219,1.261718 l -1.15625,0.05078 q -0.07422,-0.441407 -0.320313,-0.632813 -0.242187,-0.195312 -0.730468,-0.195312 -0.503907,0 -0.789063,0.207031 -0.183594,0.132812 -0.183594,0.355469 0,0.203125 0.171875,0.347656 0.21875,0.183594 1.0625,0.382812 0.84375,0.199219 1.246094,0.414063 0.40625,0.210937 0.632813,0.582031 0.230468,0.367188 0.230468,0.910156 0,0.492188 -0.273437,0.921875 -0.273438,0.429688 -0.773438,0.640625 -0.5,0.207032 -1.246093,0.207032 -1.085938,0 -1.667969,-0.5 -0.582031,-0.503907 -0.695313,-1.464844 z"
         id="path55033"
         style="fill:#d2ac95;fill-opacity:1" />
      <path
         d="m 23.621397,34.25922 v -4.757812 h -1.699219 v -0.96875 h 4.550782 v 0.96875 h -1.695313 v 4.757812 z"
         id="path55035"
         style="fill:#d2ac95;fill-opacity:1" />
      <path
         d="m 27.219053,34.25922 v -5.726562 h 4.246094 v 0.96875 h -3.089844 v 1.269531 h 2.875 v 0.964844 h -2.875 v 1.558593 h 3.199219 v 0.964844 z"
         id="path55037"
         style="fill:#d2ac95;fill-opacity:1" />
      <path
         d="m 32.558897,34.25922 v -5.726562 h 2.433594 q 0.917969,0 1.332031,0.15625 0.417969,0.152343 0.667969,0.546875 0.25,0.394531 0.25,0.902343 0,0.644532 -0.378906,1.066407 -0.378907,0.417968 -1.132813,0.527343 0.375,0.21875 0.617188,0.480469 0.246093,0.261719 0.660156,0.929688 l 0.699219,1.117187 h -1.382813 l -0.835937,-1.246094 q -0.445313,-0.667968 -0.609375,-0.839843 -0.164063,-0.175782 -0.347657,-0.238282 -0.183593,-0.06641 -0.582031,-0.06641 h -0.234375 v 2.390625 z m 1.15625,-3.304687 h 0.855469 q 0.832031,0 1.039062,-0.07031 0.207032,-0.07031 0.324219,-0.242187 0.117188,-0.171875 0.117188,-0.429688 0,-0.289062 -0.15625,-0.464844 -0.152344,-0.179687 -0.433594,-0.226562 -0.140625,-0.01953 -0.84375,-0.01953 h -0.902344 z"
         id="path55039"
         style="fill:#d2ac95;fill-opacity:1" />
    </g>
    <g
       aria-label="DEPTH"
       id="text41157-3-6"
       style="font-weight:bold;font-size:8px;line-height:1.25;font-family:Arial;-inkscape-font-specification:'Arial, Bold';font-variant-ligatures:none;text-align:center;text-anchor:middle;display:inline;fill:#d2ac95;fill-opacity:1">
      <path
         d="m 7.5390625,104.9067 h 2.1132813 q 0.7148442,0 1.0898442,0.10938 0.503906,0.14843 0.863281,0.52734 0.359375,0.37891 0.546875,0.92969 0.1875,0.54687 0.1875,1.35156 0,0.70703 -0.175781,1.21875 -0.214844,0.625 -0.613282,1.01172 -0.300781,0.29297 -0.8125,0.45703 -0.382812,0.12109 -1.0234372,0.12109 H 7.5390625 Z m 1.15625,0.96875 v 3.79297 h 0.8632813 q 0.4843752,0 0.6992192,-0.0547 0.28125,-0.0703 0.464843,-0.23828 0.1875,-0.16797 0.304688,-0.55078 0.117187,-0.38672 0.117187,-1.05078 0,-0.66406 -0.117187,-1.01953 -0.117188,-0.35547 -0.328125,-0.55469 -0.210938,-0.19922 -0.535156,-0.26953 -0.242188,-0.0547 -0.9492192,-0.0547 z"
         id="path55081"
         style="fill:#d2ac95;fill-opacity:1" />
      <path
         d="m 13.320313,110.63326 v -5.72656 h 4.246093 v 0.96875 h -3.089843 v 1.26953 h 2.874999 v 0.96485 h -2.874999 v 1.55859 h 3.199218 v 0.96484 z"
         id="path55083"
         style="fill:#d2ac95;fill-opacity:1" />
      <path
         d="m 18.65625,110.63326 v -5.72656 h 1.855469 q 1.054687,0 1.375,0.0859 0.492187,0.1289 0.824218,0.5625 0.332032,0.42969 0.332032,1.11328 0,0.52734 -0.191407,0.88672 -0.191406,0.35937 -0.488281,0.5664 -0.292969,0.20313 -0.597656,0.26954 -0.414063,0.082 -1.199219,0.082 H 19.8125 v 2.16015 z m 1.15625,-4.75781 v 1.625 h 0.632812 q 0.683594,0 0.914063,-0.0898 0.230469,-0.0898 0.359375,-0.28125 0.132812,-0.19141 0.132812,-0.44532 0,-0.3125 -0.183593,-0.51562 -0.183594,-0.20313 -0.464844,-0.25391 -0.207031,-0.0391 -0.832031,-0.0391 z"
         id="path55085"
         style="fill:#d2ac95;fill-opacity:1" />
      <path
         d="m 25.28125,110.63326 v -4.75781 h -1.699219 v -0.96875 h 4.550781 v 0.96875 H 26.4375 v 4.75781 z"
         id="path55087"
         style="fill:#d2ac95;fill-opacity:1" />
      <path
         d="m 28.882812,110.63326 v -5.72656 h 1.15625 v 2.25391 h 2.265625 v -2.25391 h 1.15625 v 5.72656 h -1.15625 v -2.5039 h -2.265625 v 2.5039 z"
         id="path55089"
         style="fill:#d2ac95;fill-opacity:1" />
    </g>
    <g
       aria-label="OVER"
       id="text41157-3-6-2"
       style="font-weight:bold;font-size:8px;line-height:1.25;font-family:Arial;-inkscape-font-specification:'Arial, Bold';font-variant-ligatures:none;text-align:center;text-anchor:middle;display:inline;fill:#d2ac95;fill-opacity:1"
       transform="translate(-0.25885005,-0.76489533)">
      <path
         d="m 9.6182251,282.01395 q 0,-0.875 0.2617187,-1.46875 0.1953122,-0.4375 0.5312502,-0.78516 0.339844,-0.34766 0.742187,-0.51562 0.535157,-0.22657 1.234375,-0.22657 1.265625,0 2.023438,0.78516 0.761719,0.78516 0.761719,2.18359 0,1.38672 -0.753907,2.17188 -0.753906,0.78125 -2.015625,0.78125 -1.277343,0 -2.03125,-0.77735 -0.7539059,-0.78125 -0.7539059,-2.14843 z m 1.1914059,-0.0391 q 0,0.97266 0.449219,1.47657 0.449219,0.5 1.140625,0.5 0.691406,0 1.132813,-0.4961 0.445312,-0.5 0.445312,-1.49609 0,-0.98438 -0.433594,-1.46875 -0.429687,-0.48438 -1.144531,-0.48438 -0.714844,0 -1.152344,0.49219 -0.4375,0.48828 -0.4375,1.47656 z"
         id="path55137"
         style="fill:#d2ac95;fill-opacity:1" />
      <path
         d="m 17.536194,284.84207 -2.046875,-5.72656 h 1.253906 l 1.449219,4.23828 1.402344,-4.23828 h 1.226562 l -2.050781,5.72656 z"
         id="path55139"
         style="fill:#d2ac95;fill-opacity:1" />
      <path
         d="m 21.411194,284.84207 v -5.72656 h 4.246094 v 0.96875 h -3.089844 v 1.26953 h 2.875 v 0.96484 h -2.875 v 1.5586 h 3.199219 v 0.96484 z"
         id="path55141"
         style="fill:#d2ac95;fill-opacity:1" />
      <path
         d="m 26.751038,284.84207 v -5.72656 h 2.433593 q 0.917969,0 1.332032,0.15625 0.417968,0.15234 0.667968,0.54687 0.25,0.39454 0.25,0.90235 0,0.64453 -0.378906,1.0664 -0.378906,0.41797 -1.132812,0.52735 0.375,0.21875 0.617187,0.48047 0.246094,0.26172 0.660156,0.92968 l 0.699219,1.11719 h -1.382812 l -0.835938,-1.24609 q -0.445312,-0.66797 -0.609375,-0.83985 -0.164062,-0.17578 -0.347656,-0.23828 -0.183594,-0.0664 -0.582031,-0.0664 h -0.234375 v 2.39062 z m 1.15625,-3.30469 h 0.855468 q 0.832032,0 1.039063,-0.0703 0.207031,-0.0703 0.324219,-0.24219 0.117187,-0.17187 0.117187,-0.42968 0,-0.28907 -0.15625,-0.46485 -0.152344,-0.17968 -0.433594,-0.22656 -0.140625,-0.0195 -0.84375,-0.0195 h -0.902343 z"
         id="path55143"
         style="fill:#d2ac95;fill-opacity:1" />
    </g>
    <g
       aria-label="V/OCT"
       id="text41157-6"
       style="font-weight:bold;font-size:8px;line-height:1.25;font-family:Arial;-inkscape-font-specification:'Arial, Bold';font-variant-ligatures:none;text-align:center;text-anchor:middle;display:inline;fill:#d2ac95;fill-opacity:1">
      <path
         d="M 10.998436,70.598221 8.951561,64.871658 h 1.253906 l 1.449219,4.238282 1.402344,-4.238282 h 1.226562 l -2.050781,5.726563 z"
         id="path55063"
         style="fill:#d2ac95;fill-opacity:1" />
      <path
         d="m 14.279686,70.695877 1.417969,-5.921875 h 0.824218 l -1.433593,5.921875 z"
         id="path55065"
         style="fill:#d2ac95;fill-opacity:1" />
      <path
         d="m 16.861717,67.770096 q 0,-0.875 0.261719,-1.46875 0.195312,-0.4375 0.53125,-0.785156 0.339844,-0.347657 0.742187,-0.515625 0.535157,-0.226563 1.234375,-0.226563 1.265625,0 2.023438,0.785156 0.761719,0.785157 0.761719,2.183594 0,1.386719 -0.753907,2.171875 -0.753906,0.78125 -2.015625,0.78125 -1.277343,0 -2.03125,-0.777344 -0.753906,-0.78125 -0.753906,-2.148437 z m 1.191406,-0.03906 q 0,0.972657 0.449219,1.476563 0.449219,0.5 1.140625,0.5 0.691406,0 1.132813,-0.496094 0.445312,-0.5 0.445312,-1.496094 0,-0.984375 -0.433594,-1.46875 -0.429687,-0.484375 -1.144531,-0.484375 -0.714844,0 -1.152344,0.492188 -0.4375,0.488281 -0.4375,1.476562 z"
         id="path55067"
         style="fill:#d2ac95;fill-opacity:1" />
      <path
         d="m 26.982811,68.492752 1.121094,0.355469 q -0.257813,0.9375 -0.859375,1.394531 -0.597657,0.453125 -1.519532,0.453125 -1.140625,0 -1.875,-0.777344 -0.734375,-0.78125 -0.734375,-2.132812 0,-1.429688 0.738282,-2.21875 0.738281,-0.792969 1.941406,-0.792969 1.050781,0 1.707031,0.621094 0.390625,0.367187 0.585938,1.054687 l -1.144532,0.273438 q -0.101562,-0.445313 -0.425781,-0.703125 -0.320312,-0.257813 -0.78125,-0.257813 -0.636719,0 -1.035156,0.457032 -0.394531,0.457031 -0.394531,1.480468 0,1.085938 0.390625,1.546875 0.390625,0.460938 1.015625,0.460938 0.460937,0 0.792968,-0.292969 0.332032,-0.292969 0.476563,-0.921875 z"
         id="path55069"
         style="fill:#d2ac95;fill-opacity:1" />
      <path
         d="m 30.385155,70.598221 v -4.757813 h -1.699219 v -0.96875 h 4.550781 v 0.96875 h -1.695312 v 4.757813 z"
         id="path55071"
         style="fill:#d2ac95;fill-opacity:1" />
    </g>
    <g
       aria-label="CV"
       id="text41157-6-5-1"
       style="font-weight:bold;font-size:8px;line-height:1.25;font-family:Arial;-inkscape-font-specification:'Arial, Bold';font-variant-ligatures:none;text-align:center;text-anchor:middle;display:inline;fill:#d2ac95;fill-opacity:1">
      <path
         d="m 51.003906,125.63612 1.121094,0.35547 q -0.257813,0.9375 -0.859375,1.39453 -0.597656,0.45313 -1.519531,0.45313 -1.140625,0 -1.875,-0.77735 -0.734375,-0.78125 -0.734375,-2.13281 0,-1.42969 0.738281,-2.21875 0.738281,-0.79297 1.941406,-0.79297 1.050781,0 1.707031,0.6211 0.390625,0.36718 0.585938,1.05468 l -1.144531,0.27344 q -0.101563,-0.44531 -0.425782,-0.70312 -0.320312,-0.25782 -0.78125,-0.25782 -0.636718,0 -1.035156,0.45704 -0.394531,0.45703 -0.394531,1.48046 0,1.08594 0.390625,1.54688 0.390625,0.46094 1.015625,0.46094 0.460937,0 0.792969,-0.29297 0.332031,-0.29297 0.476562,-0.92188 z"
         id="path55092"
         style="fill:#d2ac95;fill-opacity:1" />
      <path
         d="m 54.578125,127.74159 -2.046875,-5.72656 h 1.253906 l 1.449219,4.23828 1.402344,-4.23828 h 1.226562 l -2.050781,5.72656 z"
         id="path55094"
         style="fill:#d2ac95;fill-opacity:1" />
    </g>
    <g
       aria-label="1"
       id="text41157-6-5-1-0"
       style="font-weight:bold;font-size:8px;line-height:1.25;font-family:Arial;-inkscape-font-specification:'Arial, Bold';font-variant-ligatures:none;text-align:center;text-anchor:middle;display:inline;fill:#d2ac95;fill-opacity:1">
      <path
         d="M 83.025856,34.272892 H 81.9282 v -4.136719 q -0.601563,0.5625 -1.417969,0.832031 v -0.996093 q 0.429688,-0.140625 0.933594,-0.53125 0.503906,-0.394532 0.691406,-0.917969 h 0.890625 z"
         id="path55042"
         style="fill:#d2ac95;fill-opacity:1" />
    </g>
    <g
       aria-label="2"
       id="text41157-6-5-1-0-4"
       style="font-weight:bold;font-size:8px;line-height:1.25;font-family:Arial;-inkscape-font-specification:'Arial, Bold';font-variant-ligatures:none;text-align:center;text-anchor:middle;display:inline;fill:#d2ac95;fill-opacity:1">
      <path
         d="m 113.56097,33.253361 v 1.019531 h -3.84766 q 0.0625,-0.578125 0.375,-1.09375 0.3125,-0.519531 1.23438,-1.375 0.74218,-0.691406 0.91015,-0.9375 0.22656,-0.339844 0.22656,-0.671875 0,-0.367188 -0.19921,-0.5625 -0.19532,-0.199219 -0.54297,-0.199219 -0.34375,0 -0.54688,0.207031 -0.20312,0.207032 -0.23437,0.6875 l -1.09375,-0.109375 q 0.0977,-0.90625 0.61328,-1.300781 0.51562,-0.394531 1.28906,-0.394531 0.84766,0 1.33203,0.457031 0.48438,0.457031 0.48438,1.136719 0,0.386719 -0.14063,0.738281 -0.13672,0.347656 -0.4375,0.730469 -0.19922,0.253906 -0.71875,0.730469 -0.51953,0.476562 -0.66015,0.632812 -0.13672,0.15625 -0.22266,0.304688 z"
         id="path55045"
         style="fill:#d2ac95;fill-opacity:1" />
    </g>
    <g
       aria-label="3"
       id="text41157-6-5-1-0-42"
       style="font-weight:bold;font-size:8px;line-height:1.25;font-family:Arial;-inkscape-font-specification:'Arial, Bold';font-variant-ligatures:none;text-align:center;text-anchor:middle;display:inline;fill:#d2ac95;fill-opacity:1">
      <path
         d="m 140.51447,32.704533 1.0625,-0.128907 q 0.0508,0.40625 0.27343,0.621094 0.22266,0.214844 0.53907,0.214844 0.33984,0 0.57031,-0.257813 0.23437,-0.257812 0.23437,-0.695312 0,-0.414063 -0.22265,-0.65625 -0.22266,-0.242188 -0.54297,-0.242188 -0.21094,0 -0.50391,0.08203 l 0.1211,-0.894532 q 0.44531,0.01172 0.67968,-0.191406 0.23438,-0.207031 0.23438,-0.546875 0,-0.289062 -0.17188,-0.460937 -0.17187,-0.171875 -0.45703,-0.171875 -0.28125,0 -0.48047,0.195312 -0.19922,0.195313 -0.24218,0.570313 l -1.01172,-0.171875 q 0.10547,-0.519532 0.3164,-0.828125 0.21485,-0.3125 0.59375,-0.488282 0.38282,-0.179687 0.85547,-0.179687 0.8086,0 1.29688,0.515625 0.40234,0.421875 0.40234,0.953125 0,0.753906 -0.82422,1.203125 0.49219,0.105469 0.78516,0.472656 0.29687,0.367188 0.29687,0.886719 0,0.753906 -0.55078,1.285156 -0.55078,0.53125 -1.37109,0.53125 -0.77735,0 -1.28906,-0.445312 -0.51172,-0.449219 -0.59375,-1.171875 z"
         id="path55048"
         style="fill:#d2ac95;fill-opacity:1" />
    </g>
    <g
       aria-label="4"
       id="text41157-6-5-1-0-9"
       style="font-weight:bold;font-size:8px;line-height:1.25;font-family:Arial;-inkscape-font-specification:'Arial, Bold';font-variant-ligatures:none;text-align:center;text-anchor:middle;display:inline;fill:#d2ac95;fill-opacity:1">
      <path
         d="m 171.82301,34.272892 v -1.152344 h -2.34375 v -0.960937 l 2.48438,-3.636719 h 0.92187 v 3.632812 h 0.71094 v 0.964844 h -0.71094 v 1.152344 z m 0,-2.117188 v -1.957031 l -1.3164,1.957031 z"
         id="path55051"
         style="fill:#d2ac95;fill-opacity:1" />
    </g>
    <g
       aria-label="CV AMT"
       id="text41157-6-5-1-7"
       style="font-weight:bold;font-size:8px;line-height:1.25;font-family:Arial;-inkscape-font-specification:'Arial, Bold';font-variant-ligatures:none;text-align:center;text-anchor:middle;display:inline;fill:#d2ac95;fill-opacity:1">
      <path
         d="m 41.455078,157.75781 1.121094,0.35547 q -0.257813,0.9375 -0.859375,1.39453 -0.597656,0.45313 -1.519531,0.45313 -1.140625,0 -1.875,-0.77735 -0.734375,-0.78125 -0.734375,-2.13281 0,-1.42969 0.738281,-2.21875 0.738281,-0.79297 1.941406,-0.79297 1.050781,0 1.707031,0.6211 0.390625,0.36718 0.585938,1.05468 l -1.144531,0.27344 q -0.101563,-0.44531 -0.425782,-0.70312 -0.320312,-0.25782 -0.78125,-0.25782 -0.636718,0 -1.035156,0.45703 -0.394531,0.45704 -0.394531,1.48047 0,1.08594 0.390625,1.54688 0.390625,0.46094 1.015625,0.46094 0.460937,0 0.792969,-0.29297 0.332031,-0.29297 0.476562,-0.92188 z"
         id="path55097"
         style="fill:#d2ac95;fill-opacity:1" />
      <path
         d="m 45.029297,159.86328 -2.046875,-5.72656 h 1.253906 l 1.449219,4.23828 1.402344,-4.23828 h 1.226562 l -2.050781,5.72656 z"
         id="path55099"
         style="fill:#d2ac95;fill-opacity:1" />
      <path
         d="m 55.994141,159.86328 h -1.257813 l -0.5,-1.30078 h -2.289062 l -0.472657,1.30078 h -1.226562 l 2.230469,-5.72656 h 1.222656 z m -2.128907,-2.26562 -0.789062,-2.125 -0.773438,2.125 z"
         id="path55101"
         style="fill:#d2ac95;fill-opacity:1" />
      <path
         d="m 56.591797,159.86328 v -5.72656 h 1.730469 l 1.039062,3.90625 1.027344,-3.90625 h 1.734375 v 5.72656 h -1.074219 v -4.50781 l -1.136719,4.50781 h -1.113281 l -1.132812,-4.50781 v 4.50781 z"
         id="path55103"
         style="fill:#d2ac95;fill-opacity:1" />
      <path
         d="m 64.560547,159.86328 v -4.75781 h -1.699219 v -0.96875 h 4.550781 v 0.96875 h -1.695312 v 4.75781 z"
         id="path55105"
         style="fill:#d2ac95;fill-opacity:1" />
    </g>
    <g
       aria-label="OUTPUT LEVEL"
       id="text41157-6-5-1-7-3"
       style="font-weight:bold;font-size:8px;line-height:1.25;font-family:Arial;-inkscape-font-specification:'Arial, Bold';font-variant-ligatures:none;text-align:center;text-anchor:middle;display:inline;fill:#d2ac95;fill-opacity:1"
       transform="translate(-0.25000025)">
      <path
         d="m 67.599609,325.07422 q 0,-0.875 0.261719,-1.46875 0.195313,-0.4375 0.53125,-0.78516 0.339844,-0.34765 0.742188,-0.51562 0.535156,-0.22657 1.234375,-0.22657 1.265625,0 2.023437,0.78516 0.761719,0.78516 0.761719,2.18359 0,1.38672 -0.753906,2.17188 Q 71.646484,328 70.384766,328 q -1.277344,0 -2.03125,-0.77734 -0.753907,-0.78125 -0.753907,-2.14844 z m 1.191407,-0.0391 q 0,0.97265 0.449218,1.47656 0.449219,0.5 1.140625,0.5 0.691407,0 1.132813,-0.4961 0.445312,-0.5 0.445312,-1.49609 0,-0.98437 -0.433593,-1.46875 -0.429688,-0.48437 -1.144532,-0.48437 -0.714843,0 -1.152343,0.49218 -0.4375,0.48828 -0.4375,1.47657 z"
         id="path55190"
         style="fill:#d2ac95;fill-opacity:1" />
      <path
         d="m 74.048828,322.17578 h 1.15625 v 3.10156 q 0,0.73828 0.04297,0.95703 0.07422,0.35157 0.351562,0.56641 0.28125,0.21094 0.765625,0.21094 0.492188,0 0.742188,-0.19922 0.25,-0.20313 0.300781,-0.49609 0.05078,-0.29297 0.05078,-0.97266 v -3.16797 h 1.15625 v 3.00781 q 0,1.03125 -0.09375,1.45703 -0.09375,0.42579 -0.347656,0.71875 -0.25,0.29297 -0.671875,0.46875 Q 77.080078,328 76.400391,328 q -0.820313,0 -1.246094,-0.1875 -0.421875,-0.19141 -0.667969,-0.49219 -0.246094,-0.30469 -0.324219,-0.63672 -0.113281,-0.49218 -0.113281,-1.45312 z"
         id="path55192"
         style="fill:#d2ac95;fill-opacity:1" />
      <path
         d="m 81.123047,327.90234 v -4.75781 h -1.699219 v -0.96875 h 4.550781 v 0.96875 h -1.695312 v 4.75781 z"
         id="path55194"
         style="fill:#d2ac95;fill-opacity:1" />
      <path
         d="m 84.720703,327.90234 v -5.72656 h 1.855469 q 1.054687,0 1.375,0.0859 0.492187,0.1289 0.824219,0.5625 0.332031,0.42969 0.332031,1.11328 0,0.52734 -0.191406,0.88672 -0.191407,0.35937 -0.488282,0.5664 -0.292968,0.20313 -0.597656,0.26954 -0.414062,0.082 -1.199219,0.082 h -0.753906 v 2.16015 z m 1.15625,-4.75781 v 1.625 h 0.632813 q 0.683593,0 0.914062,-0.0898 0.230469,-0.0899 0.359375,-0.28125 0.132813,-0.19141 0.132813,-0.44532 0,-0.3125 -0.183594,-0.51562 -0.183594,-0.20313 -0.464844,-0.25391 -0.207031,-0.0391 -0.832031,-0.0391 z"
         id="path55196"
         style="fill:#d2ac95;fill-opacity:1" />
      <path
         d="m 90.048828,322.17578 h 1.15625 v 3.10156 q 0,0.73828 0.04297,0.95703 0.07422,0.35157 0.351562,0.56641 0.28125,0.21094 0.765625,0.21094 0.492188,0 0.742188,-0.19922 0.25,-0.20313 0.300781,-0.49609 0.05078,-0.29297 0.05078,-0.97266 v -3.16797 h 1.15625 v 3.00781 q 0,1.03125 -0.09375,1.45703 -0.09375,0.42579 -0.347656,0.71875 -0.25,0.29297 -0.671875,0.46875 Q 93.080078,328 92.400391,328 q -0.820313,0 -1.246094,-0.1875 -0.421875,-0.19141 -0.667969,-0.49219 -0.246094,-0.30469 -0.324219,-0.63672 -0.113281,-0.49218 -0.113281,-1.45312 z"
         id="path55198"
         style="fill:#d2ac95;fill-opacity:1" />
      <path
         d="m 97.123047,327.90234 v -4.75781 h -1.699219 v -0.96875 h 4.550781 v 0.96875 h -1.695312 v 4.75781 z"
         id="path55200"
         style="fill:#d2ac95;fill-opacity:1" />
      <path
         d="m 102.97461,327.90234 v -5.67968 h 1.15625 v 4.71484 h 2.875 v 0.96484 z"
         id="path55202"
         style="fill:#d2ac95;fill-opacity:1" />
      <path
         d="m 107.83008,327.90234 v -5.72656 h 4.24609 v 0.96875 h -3.08984 v 1.26953 h 2.875 v 0.96485 h -2.875 v 1.55859 h 3.19922 v 0.96484 z"
         id="path55204"
         style="fill:#d2ac95;fill-opacity:1" />
      <path
         d="m 114.62695,327.90234 -2.04687,-5.72656 h 1.2539 l 1.44922,4.23828 1.40235,-4.23828 h 1.22656 l -2.05078,5.72656 z"
         id="path55206"
         style="fill:#d2ac95;fill-opacity:1" />
      <path
         d="m 118.50195,327.90234 v -5.72656 h 4.2461 v 0.96875 h -3.08985 v 1.26953 h 2.875 v 0.96485 h -2.875 v 1.55859 h 3.19922 v 0.96484 z"
         id="path55208"
         style="fill:#d2ac95;fill-opacity:1" />
      <path
         d="m 123.86914,327.90234 v -5.67968 h 1.15625 v 4.71484 h 2.875 v 0.96484 z"
         id="path55210"
         style="fill:#d2ac95;fill-opacity:1" />
    </g>
    <g
       id="g53003"
       transform="translate(40.051872,-71.54982)"
       style="fill:#d2ac95;fill-opacity:1">
      <g
         aria-label="SHIFT"
         id="text41157-6-5-1-7-9"
         style="font-weight:bold;font-size:8px;line-height:1.25;font-family:Arial;-inkscape-font-specification:'Arial, Bold';font-variant-ligatures:none;text-align:center;text-anchor:middle;display:inline;fill:#d2ac95;fill-opacity:1">
        <path
           d="m 5.1980858,255.6893 1.125,-0.10937 q 0.1015625,0.5664 0.4101562,0.83203 0.3125,0.26562 0.8398438,0.26562 0.5585937,0 0.8398437,-0.23437 0.2851563,-0.23828 0.2851563,-0.55469 0,-0.20313 -0.1210938,-0.34375 -0.1171875,-0.14453 -0.4140625,-0.25 -0.203125,-0.0703 -0.9257812,-0.25 -0.9296875,-0.23047 -1.3046875,-0.56641 -0.5273438,-0.47265 -0.5273438,-1.15234 0,-0.4375 0.2460938,-0.81641 0.25,-0.38281 0.7148437,-0.58203 0.46875,-0.19922 1.1289063,-0.19922 1.078125,0 1.6210937,0.47266 0.546875,0.47266 0.5742188,1.26172 l -1.15625,0.0508 q -0.074219,-0.44141 -0.3203125,-0.63281 -0.2421875,-0.19532 -0.7304688,-0.19532 -0.5039062,0 -0.7890625,0.20704 -0.1835937,0.13281 -0.1835937,0.35546 0,0.20313 0.171875,0.34766 0.21875,0.18359 1.0625,0.38281 0.84375,0.19922 1.2460937,0.41407 0.40625,0.21093 0.6328125,0.58203 0.2304688,0.36718 0.2304688,0.91015 0,0.49219 -0.2734375,0.92188 -0.2734375,0.42969 -0.7734375,0.64062 -0.5,0.20703 -1.2460938,0.20703 -1.0859375,0 -1.6679687,-0.5 -0.5820313,-0.5039 -0.6953125,-1.46484 z"
           id="path55108"
           style="fill:#d2ac95;fill-opacity:1" />
        <path
           d="m 10.830898,257.55258 v -5.72656 h 1.15625 v 2.25391 h 2.265625 v -2.25391 h 1.15625 v 5.72656 h -1.15625 v -2.5039 h -2.265625 v 2.5039 z"
           id="path55110"
           style="fill:#d2ac95;fill-opacity:1" />
        <path
           d="m 16.56918,257.55258 v -5.72656 h 1.15625 v 5.72656 z"
           id="path55112"
           style="fill:#d2ac95;fill-opacity:1" />
        <path
           d="m 18.834805,257.55258 v -5.72656 h 3.925781 v 0.96875 h -2.769531 v 1.35547 h 2.390625 v 0.96875 h -2.390625 v 2.43359 z"
           id="path55114"
           style="fill:#d2ac95;fill-opacity:1" />
        <path
           d="m 25.002773,257.55258 v -4.75781 h -1.699218 v -0.96875 h 4.550781 v 0.96875 h -1.695313 v 4.75781 z"
           id="path55116"
           style="fill:#d2ac95;fill-opacity:1" />
      </g>
      <g
         aria-label="THRESH"
         id="text41157-6-5-1-7-9-69"
         style="font-weight:bold;font-size:8px;line-height:1.25;font-family:Arial;-inkscape-font-specification:'Arial, Bold';font-variant-ligatures:none;text-align:center;text-anchor:middle;display:inline;fill:#d2ac95;fill-opacity:1">
        <path
           d="M -2.5519142,267.26971 V 262.5119 H -4.251133 v -0.96875 h 4.55078128 v 0.96875 H -1.3956642 v 4.75781 z"
           id="path55119"
           style="fill:#d2ac95;fill-opacity:1" />
        <path
           d="m 1.0496483,267.26971 v -5.72656 h 1.15625 v 2.25391 h 2.265625 v -2.25391 h 1.15625 v 5.72656 h -1.15625 v -2.5039 h -2.265625 v 2.5039 z"
           id="path55121"
           style="fill:#d2ac95;fill-opacity:1" />
        <path
           d="m 6.826992,267.26971 v -5.72656 h 2.4335938 q 0.9179692,0 1.3320312,0.15625 0.417969,0.15235 0.667969,0.54688 0.25,0.39453 0.25,0.90234 0,0.64453 -0.378906,1.06641 -0.378907,0.41797 -1.132813,0.52734 0.375,0.21875 0.617188,0.48047 0.246093,0.26172 0.660156,0.92969 l 0.699219,1.11718 H 10.592617 L 9.7566795,266.02362 Q 9.311367,265.35565 9.1473045,265.18378 8.983242,265.008 8.7996483,264.9455 8.6160545,264.87909 8.217617,264.87909 H 7.983242 v 2.39062 z m 1.15625,-3.30468 h 0.8554688 q 0.8320312,0 1.0390625,-0.0703 0.2070317,-0.0703 0.3242187,-0.24218 0.117188,-0.17188 0.117188,-0.42969 0,-0.28906 -0.15625,-0.46484 -0.152344,-0.17969 -0.4335942,-0.22657 -0.140625,-0.0195 -0.84375,-0.0195 H 7.983242 Z"
           id="path55123"
           style="fill:#d2ac95;fill-opacity:1" />
        <path
           d="m 12.60043,267.26971 v -5.72656 h 4.246093 v 0.96875 H 13.75668 v 1.26953 h 2.875 v 0.96485 h -2.875 v 1.55859 h 3.199218 v 0.96484 z"
           id="path55125"
           style="fill:#d2ac95;fill-opacity:1" />
        <path
           d="m 17.643398,265.40643 1.125,-0.10937 q 0.101563,0.5664 0.410157,0.83203 0.3125,0.26562 0.839843,0.26562 0.558594,0 0.839844,-0.23437 0.285156,-0.23828 0.285156,-0.55469 0,-0.20312 -0.121093,-0.34375 -0.117188,-0.14453 -0.414063,-0.25 -0.203125,-0.0703 -0.925781,-0.25 -0.929688,-0.23047 -1.304688,-0.5664 -0.527343,-0.47266 -0.527343,-1.15235 0,-0.4375 0.246093,-0.8164 0.25,-0.38282 0.714844,-0.58204 0.46875,-0.19921 1.128906,-0.19921 1.078125,0 1.621094,0.47265 0.546875,0.47266 0.574219,1.26172 l -1.15625,0.0508 q -0.07422,-0.4414 -0.320313,-0.63281 -0.242187,-0.19531 -0.730468,-0.19531 -0.503907,0 -0.789063,0.20703 -0.183594,0.13281 -0.183594,0.35547 0,0.20312 0.171875,0.34765 0.21875,0.1836 1.0625,0.38282 0.84375,0.19921 1.246094,0.41406 0.40625,0.21094 0.632813,0.58203 0.230468,0.36719 0.230468,0.91016 0,0.49218 -0.273437,0.92187 -0.273438,0.42969 -0.773438,0.64063 -0.5,0.20703 -1.246093,0.20703 -1.085938,0 -1.667969,-0.5 -0.582031,-0.50391 -0.695313,-1.46485 z"
           id="path55127"
           style="fill:#d2ac95;fill-opacity:1" />
        <path
           d="m 23.276211,267.26971 v -5.72656 h 1.15625 v 2.25391 h 2.265625 v -2.25391 h 1.15625 v 5.72656 h -1.15625 v -2.5039 h -2.265625 v 2.5039 z"
           id="path55129"
           style="fill:#d2ac95;fill-opacity:1" />
      </g>
    </g>
    <g
       aria-label="MUTE"
       id="text41157-6-5-1-7-9-6"
       style="font-weight:bold;font-size:8px;line-height:1.25;font-family:Arial;-inkscape-font-specification:'Arial, Bold';font-variant-ligatures:none;text-align:center;text-anchor:middle;display:inline;fill:#d2ac95;fill-opacity:1">
      <path
         d="m 46.206989,300.31445 v -5.72656 h 1.730469 l 1.039063,3.90625 1.027343,-3.90625 h 1.734375 v 5.72656 h -1.074218 v -4.50781 l -1.136719,4.50781 h -1.113281 l -1.132813,-4.50781 v 4.50781 z"
         id="path55181"
         style="fill:#d2ac95;fill-opacity:1" />
      <path
         d="m 52.878864,294.58789 h 1.15625 v 3.10156 q 0,0.73828 0.04297,0.95703 0.07422,0.35157 0.351563,0.56641 0.28125,0.21094 0.765625,0.21094 0.492187,0 0.742187,-0.19922 0.25,-0.20313 0.300781,-0.49609 0.05078,-0.29297 0.05078,-0.97266 v -3.16797 h 1.15625 v 3.00781 q 0,1.03125 -0.09375,1.45703 -0.09375,0.42579 -0.347657,0.71875 -0.25,0.29297 -0.671875,0.46875 -0.421875,0.17188 -1.101562,0.17188 -0.820313,0 -1.246094,-0.1875 -0.421875,-0.19141 -0.667969,-0.49219 -0.246093,-0.30469 -0.324218,-0.63672 -0.113282,-0.49218 -0.113282,-1.45312 z"
         id="path55183"
         style="fill:#d2ac95;fill-opacity:1" />
      <path
         d="m 59.953083,300.31445 v -4.75781 h -1.699219 v -0.96875 h 4.550782 v 0.96875 h -1.695313 v 4.75781 z"
         id="path55185"
         style="fill:#d2ac95;fill-opacity:1" />
      <path
         d="m 63.550739,300.31445 v -5.72656 h 4.246094 v 0.96875 h -3.089844 v 1.26953 h 2.875 v 0.96485 h -2.875 v 1.55859 h 3.199219 v 0.96484 z"
         id="path55187"
         style="fill:#d2ac95;fill-opacity:1" />
    </g>
    <g
       aria-label="WAVE MULTIPLIER"
       id="text48146"
       style="font-weight:bold;font-size:12px;line-height:1.25;font-family:Arial;-inkscape-font-specification:'Arial, Bold';font-variant-ligatures:none;text-align:center;text-anchor:middle;fill:#d2ac95;fill-opacity:1">
      <path
         d="M 45.161133,17.406986 43.110352,8.8171425 h 1.77539 l 1.294922,5.9003905 1.570313,-5.9003905 h 2.0625 l 1.505859,5.9999995 1.318359,-5.9999995 h 1.746094 l -2.085937,8.5898435 h -1.839844 l -1.710938,-6.421875 -1.705078,6.421875 z"
         id="path55000"
         style="fill:#d2ac95;fill-opacity:1" />
      <path
         d="M 62.352539,17.406986 H 60.46582 l -0.75,-1.951172 h -3.433593 l -0.708985,1.951172 h -1.839844 l 3.345704,-8.5898435 h 1.833984 z m -3.193359,-3.398437 -1.183594,-3.1875 -1.160156,3.1875 z"
         id="path55002"
         style="fill:#d2ac95;fill-opacity:1" />
      <path
         d="M 64.573242,17.406986 61.50293,8.8171425 h 1.880859 l 2.173828,6.3574215 2.103516,-6.3574215 h 1.839844 l -3.076172,8.5898435 z"
         id="path55004"
         style="fill:#d2ac95;fill-opacity:1" />
      <path
         d="M 70.385742,17.406986 V 8.8171425 h 6.369141 v 1.4531245 h -4.634766 v 1.904297 h 4.3125 v 1.447266 h -4.3125 v 2.337891 h 4.798828 v 1.447265 z"
         id="path55006"
         style="fill:#d2ac95;fill-opacity:1" />
      <path
         d="M 81.700195,17.406986 V 8.8171425 h 2.595703 l 1.558594,5.8593745 1.541016,-5.8593745 h 2.601562 v 8.5898435 h -1.611328 v -6.761719 l -1.705078,6.761719 h -1.669922 l -1.699219,-6.761719 v 6.761719 z"
         id="path55008"
         style="fill:#d2ac95;fill-opacity:1" />
      <path
         d="m 91.708008,8.8171425 h 1.734375 v 4.6523435 q 0,1.107422 0.06445,1.435547 0.111328,0.527344 0.527344,0.849609 0.421875,0.316407 1.148437,0.316407 0.738281,0 1.113281,-0.298828 0.375,-0.304688 0.451172,-0.744141 0.07617,-0.439453 0.07617,-1.458984 V 8.8171425 h 1.734375 v 4.5117185 q 0,1.546875 -0.140625,2.185547 -0.140625,0.638672 -0.521484,1.078125 -0.375,0.439453 -1.007813,0.703125 -0.632812,0.257813 -1.652343,0.257813 -1.230469,0 -1.869141,-0.28125 -0.632813,-0.28711 -1.001953,-0.738282 -0.369141,-0.457031 -0.486328,-0.955078 -0.169922,-0.738281 -0.169922,-2.179687 z"
         id="path55010"
         style="fill:#d2ac95;fill-opacity:1" />
      <path
         d="M 100.43262,17.406986 V 8.887455 h 1.73437 v 7.072266 h 4.3125 v 1.447265 z"
         id="path55012"
         style="fill:#d2ac95;fill-opacity:1" />
      <path
         d="m 108.75879,17.406986 v -7.136719 h -2.54883 V 8.8171425 h 6.82617 v 1.4531245 h -2.54297 v 7.136719 z"
         id="path55014"
         style="fill:#d2ac95;fill-opacity:1" />
      <path
         d="M 114.10254,17.406986 V 8.8171425 h 1.73437 v 8.5898435 z"
         id="path55016"
         style="fill:#d2ac95;fill-opacity:1" />
      <path
         d="M 117.48926,17.406986 V 8.8171425 h 2.7832 q 1.58203,0 2.0625,0.1289062 0.73828,0.1933594 1.23633,0.84375 0.49805,0.6445313 0.49805,1.6699223 0,0.791015 -0.28711,1.330078 -0.28711,0.539062 -0.73243,0.849609 -0.43945,0.304688 -0.89648,0.404297 -0.62109,0.123047 -1.79883,0.123047 h -1.13086 v 3.240234 z m 1.73437,-7.136719 v 2.4375 h 0.94922 q 1.02539,0 1.3711,-0.134765 0.3457,-0.134766 0.53906,-0.421875 0.19922,-0.28711 0.19922,-0.667969 0,-0.46875 -0.27539,-0.773437 -0.27539,-0.304688 -0.69727,-0.38086 -0.31055,-0.05859 -1.24805,-0.05859 z"
         id="path55018"
         style="fill:#d2ac95;fill-opacity:1" />
      <path
         d="M 125.54004,17.406986 V 8.887455 h 1.73437 v 7.072266 h 4.3125 v 1.447265 z"
         id="path55020"
         style="fill:#d2ac95;fill-opacity:1" />
      <path
         d="M 132.77051,17.406986 V 8.8171425 h 1.73437 v 8.5898435 z"
         id="path55022"
         style="fill:#d2ac95;fill-opacity:1" />
      <path
         d="M 136.15723,17.406986 V 8.8171425 h 6.36914 v 1.4531245 h -4.63477 v 1.904297 h 4.3125 v 1.447266 h -4.3125 v 2.337891 h 4.79883 v 1.447265 z"
         id="path55024"
         style="fill:#d2ac95;fill-opacity:1" />
      <path
         d="M 144.16699,17.406986 V 8.8171425 h 3.65039 q 1.37696,0 1.99805,0.234375 0.62695,0.2285156 1.00195,0.8203125 0.375,0.591797 0.375,1.353516 0,0.966796 -0.56836,1.599609 -0.56836,0.626953 -1.69922,0.791016 0.5625,0.328125 0.92579,0.720703 0.36914,0.392578 0.99023,1.394531 l 1.04883,1.675781 h -2.07422 l -1.25391,-1.86914 q -0.66797,-1.001954 -0.91406,-1.259766 -0.24609,-0.263672 -0.52148,-0.357422 -0.27539,-0.09961 -0.87305,-0.09961 h -0.35156 v 3.585937 z m 1.73438,-4.957031 h 1.2832 q 1.24805,0 1.55859,-0.105469 0.31055,-0.105469 0.48633,-0.363281 0.17578,-0.257813 0.17578,-0.644531 0,-0.433594 -0.23437,-0.697266 -0.22852,-0.269531 -0.65039,-0.339844 -0.21094,-0.0293 -1.26563,-0.0293 h -1.35351 z"
         id="path55026"
         style="fill:#d2ac95;fill-opacity:1" />
    </g>
    <path
       d="m 84.155143,104.70886 -3.315849,0.0243 a 0.37187,0.37187 0 0 0 -0.317991,0.56008 l 1.679018,2.85949 a 0.37187,0.37187 0 0 0 0.644061,-0.004 l 1.63701,-2.88367 a 0.37186,0.37186 0 0 0 -0.326066,-0.5554 z"
       fill="#1f1f1f"
       id="path26-0-8"
       style="display:inline;fill:#d2ac95;fill-opacity:1"
       inkscape:transform-center-x="0.093648522"
       inkscape:transform-center-y="0.47312619" />
    <path
       d="m 114.15514,104.70886 -3.31585,0.0243 a 0.37187,0.37187 0 0 0 -0.31799,0.56008 l 1.67902,2.85949 a 0.37187,0.37187 0 0 0 0.64406,-0.004 l 1.63701,-2.88367 a 0.37186,0.37186 0 0 0 -0.32607,-0.5554 z"
       fill="#1f1f1f"
       id="path26-0-8-2"
       style="display:inline;fill:#d2ac95;fill-opacity:1"
       inkscape:transform-center-x="0.093648522"
       inkscape:transform-center-y="0.47312619" />
    <path
       d="m 144.15514,104.70886 -3.31584,0.0243 a 0.37187,0.37187 0 0 0 -0.318,0.56008 l 1.67902,2.85949 a 0.37187,0.37187 0 0 0 0.64406,-0.004 l 1.63701,-2.88367 a 0.37186,0.37186 0 0 0 -0.32606,-0.5554 z"
       fill="#1f1f1f"
       id="path26-0-8-5"
       style="display:inline;fill:#d2ac95;fill-opacity:1"
       inkscape:transform-center-x="0.093648522"
       inkscape:transform-center-y="0.47312619" />
    <path
       d="m 174.15514,104.70886 -3.31585,0.0243 a 0.37187,0.37187 0 0 0 -0.31799,0.56008 l 1.67902,2.85949 a 0.37187,0.37187 0 0 0 0.64406,-0.004 l 1.63701,-2.88367 a 0.37186,0.37186 0 0 0 -0.32607,-0.5554 z"
       fill="#1f1f1f"
       id="path26-0-8-6"
       style="display:inline;fill:#d2ac95;fill-opacity:1"
       inkscape:transform-center-x="0.093648522"
       inkscape:transform-center-y="0.47312619" />
    <path
       style="color:#000000;display:inline;fill:#d2ac95;fill-opacity:1;-inkscape-stroke:none"
       d="m 20,123.98633 v 32.49023 h 1 v -32.49023 z"
       id="path78542-33" />
    <path
       style="color:#000000;display:inline;fill:#d2ac95;fill-opacity:1;-inkscape-stroke:none"
       d="m 82,123.98633 v 32.49023 h 1 v -32.49023 z"
       id="path78542-66" />
    <path
       style="color:#000000;display:inline;fill:#d2ac95;fill-opacity:1;-inkscape-stroke:none"
       d="m 112,123.98633 v 32.49023 h 1 v -32.49023 z"
       id="path78542-7" />
    <path
       style="color:#000000;display:inline;fill:#d2ac95;fill-opacity:1;-inkscape-stroke:none"
       d="m 142,123.98633 v 32.49023 h 1 v -32.49023 z"
       id="path78542-30" />
    <path
       style="color:#000000;display:inline;fill:#d2ac95;fill-opacity:1;-inkscape-stroke:none"
       d="m 172,123.98633 v 32.49023 h 1 v -32.49023 z"
       id="path78542-39" />
    <path
       style="color:#000000;fill:#d2ac95;fill-opacity:1;-inkscape-stroke:none"
       d="m 66.003905,341.66504 v 1 h 32.49219 v -1 z"
       id="path78542-6" />
    <path
       style="color:#000000;display:inline;fill:#d2ac95;fill-opacity:1;stroke-dasharray:2, 2;-inkscape-stroke:none"
       d="m 82,158.63281 v 2 h 1 v -2 z m 0,4 v 2 h 1 v -2 z m 0,4 v 2 h 1 v -2 z m 0,4 v 2 h 1 v -2 z m 0,4 v 2 h 1 v -2 z m 0,4 v 2 h 1 v -2 z m 0,4 v 2 h 1 v -2 z m 0,4 v 2 h 1 v -2 z m 0,4 v 0.49024 h 1 v -0.49024 z"
       id="path78542-3-0" />
    <path
       style="color:#000000;display:inline;fill:#d2ac95;fill-opacity:1;stroke-dasharray:2, 2;-inkscape-stroke:none"
       d="m 20,158.63281 v 2 h 1 v -2 z m 0,4 v 2 h 1 v -2 z m 0,4 v 2 h 1 v -2 z m 0,4 v 2 h 1 v -2 z m 0,4 v 2 h 1 v -2 z m 0,4 v 2 h 1 v -2 z m 0,4 v 2 h 1 v -2 z m 0,4 v 2 h 1 v -2 z m 0,4 v 0.49024 h 1 v -0.49024 z"
       id="path78542-3-0-5" />
    <path
       style="color:#000000;display:inline;fill:#d2ac95;fill-opacity:1;stroke-dasharray:2, 2;-inkscape-stroke:none"
       d="m 112,158.63281 v 2 h 1 v -2 z m 0,4 v 2 h 1 v -2 z m 0,4 v 2 h 1 v -2 z m 0,4 v 2 h 1 v -2 z m 0,4 v 2 h 1 v -2 z m 0,4 v 2 h 1 v -2 z m 0,4 v 2 h 1 v -2 z m 0,4 v 2 h 1 v -2 z m 0,4 v 0.49024 h 1 v -0.49024 z"
       id="path78542-3-5" />
    <path
       style="color:#000000;display:inline;fill:#d2ac95;fill-opacity:1;stroke-dasharray:2, 2;-inkscape-stroke:none"
       d="m 142,158.63281 v 2 h 1 v -2 z m 0,4 v 2 h 1 v -2 z m 0,4 v 2 h 1 v -2 z m 0,4 v 2 h 1 v -2 z m 0,4 v 2 h 1 v -2 z m 0,4 v 2 h 1 v -2 z m 0,4 v 2 h 1 v -2 z m 0,4 v 2 h 1 v -2 z m 0,4 v 0.49024 h 1 v -0.49024 z"
       id="path78542-3-53" />
    <path
       style="color:#000000;display:inline;fill:#d2ac95;fill-opacity:1;stroke-dasharray:2, 2;-inkscape-stroke:none"
       d="m 172,158.63281 v 2 h 1 v -2 z m 0,4 v 2 h 1 v -2 z m 0,4 v 2 h 1 v -2 z m 0,4 v 2 h 1 v -2 z m 0,4 v 2 h 1 v -2 z m 0,4 v 2 h 1 v -2 z m 0,4 v 2 h 1 v -2 z m 0,4 v 2 h 1 v -2 z m 0,4 v 0.49024 h 1 v -0.49024 z"
       id="path78542-3-4" />
    <path
       style="color:#000000;fill:#d2ac95;fill-opacity:1;stroke-dasharray:2, 2;-inkscape-stroke:none"
       d="m 95.657246,341.66504 v 1 h 0.492188 v -1 z m 2.492188,0 v 1 h 2.000006 v -1 z m 4.000006,0 v 1 h 2 v -1 z m 4,0 v 1 h 2 v -1 z m 4,0 v 1 h 2 v -1 z m 4,0 v 1 h 2 v -1 z m 4,0 v 1 h 2 v -1 z m 4,0 v 1 h 2 v -1 z m 4,0 v 1 h 2 v -1 z"
       id="path78542-3-2" />
    <g
       aria-label="BLOCK"
       id="text86274-9"
       style="font-weight:bold;font-size:6.66667px;line-height:1.25;font-family:Arial;-inkscape-font-specification:'Arial, Bold';font-variant-ligatures:none;text-align:center;text-anchor:middle;display:inline;fill:#d2ac95;fill-opacity:1">
      <path
         d="M 5.9000591,241.01813 H 7.807612 q 0.5664066,0 0.8430994,0.0488 0.2799481,0.0456 0.4980471,0.19531 0.2213543,0.14974 0.3678387,0.40039 0.1464845,0.2474 0.1464845,0.55664 0,0.33529 -0.1822918,0.61524 -0.1790365,0.27995 -0.4882815,0.41992 0.4361982,0.12695 0.6705733,0.43294 0.2343751,0.30599 0.2343751,0.7194 0,0.32552 -0.1529949,0.63477 -0.1497396,0.30599 -0.4134116,0.49154 -0.2604168,0.18229 -0.6445316,0.22461 -0.2408855,0.026 -1.1621099,0.0325 H 5.9000591 Z m 0.9635421,0.79427 v 1.10352 h 0.6315107 q 0.5631513,0 0.6998701,-0.0163 0.247396,-0.0293 0.38737,-0.16927 0.1432292,-0.14323 0.1432292,-0.37435 0,-0.22135 -0.1236979,-0.35807 -0.1204428,-0.13998 -0.3613283,-0.16927 -0.1432293,-0.0163 -0.8235681,-0.0163 z m 0,1.89779 v 1.27604 h 0.8919275 q 0.5208336,0 0.6608076,-0.0293 0.2148438,-0.0391 0.3483074,-0.1888 0.1367189,-0.15299 0.1367189,-0.4069 0,-0.21484 -0.1041668,-0.36458 -0.1041667,-0.14974 -0.3027345,-0.2181 -0.1953126,-0.0684 -0.852865,-0.0684 z"
         id="path89796"
         style="fill:#d2ac95;fill-opacity:1" />
      <path
         d="m 10.737301,245.79027 v -4.73308 h 0.963542 v 3.92904 h 2.395835 v 0.80404 z"
         id="path89798"
         style="fill:#d2ac95;fill-opacity:1" />
      <path
         d="m 14.588214,243.4335 q 0,-0.72917 0.218099,-1.22396 0.16276,-0.36459 0.442708,-0.6543 0.283204,-0.28971 0.61849,-0.42969 0.445964,-0.1888 1.028647,-0.1888 1.054688,0 1.686198,0.6543 0.634766,0.65429 0.634766,1.81966 0,1.1556 -0.628255,1.8099 -0.628256,0.65104 -1.679689,0.65104 -1.064453,0 -1.692709,-0.64779 -0.628255,-0.65104 -0.628255,-1.79036 z m 0.992839,-0.0326 q 0,0.81055 0.374349,1.23047 0.374349,0.41667 0.950521,0.41667 0.576172,0 0.944011,-0.41341 0.371094,-0.41667 0.371094,-1.24675 0,-0.82031 -0.361328,-1.22396 -0.358073,-0.40364 -0.953777,-0.40364 -0.595703,0 -0.960287,0.41015 -0.364583,0.40691 -0.364583,1.23047 z"
         id="path89800"
         style="fill:#d2ac95;fill-opacity:1" />
      <path
         d="m 23.022463,244.03571 0.934245,0.29622 q -0.214844,0.78125 -0.716146,1.16211 -0.498047,0.37761 -1.266277,0.37761 -0.950521,0 -1.5625,-0.64779 -0.61198,-0.65104 -0.61198,-1.77734 0,-1.19141 0.615235,-1.84896 0.615235,-0.66081 1.617839,-0.66081 0.875652,0 1.422527,0.51758 0.325521,0.30599 0.488281,0.87891 l -0.953776,0.22786 q -0.08464,-0.37109 -0.354818,-0.58594 -0.266927,-0.21484 -0.651042,-0.21484 -0.530599,0 -0.862631,0.38086 -0.328776,0.38086 -0.328776,1.23372 0,0.90495 0.325521,1.28907 0.325521,0.38411 0.846355,0.38411 0.384115,0 0.660807,-0.24414 0.276693,-0.24414 0.397136,-0.76823 z"
         id="path89802"
         style="fill:#d2ac95;fill-opacity:1" />
      <path
         d="m 24.796553,245.79027 v -4.77214 h 0.963542 v 2.11914 l 1.946616,-2.11914 h 1.295573 l -1.796876,1.85873 1.894532,2.91341 h -1.246745 l -1.31185,-2.23959 -0.78125,0.79753 v 1.44206 z"
         id="path89804"
         style="fill:#d2ac95;fill-opacity:1" />
    </g>
  </g>
  <g
     inkscape:groupmode="layer"
     id="layer2"
     inkscape:label="Reverse Solid"
     style="display:inline">
    <g
       aria-label="LFO"
       id="text91124"
       style="font-weight:bold;font-size:8px;line-height:1.25;font-family:Arial;-inkscape-font-specification:'Arial, Bold';font-variant-ligatures:none;text-align:center;text-anchor:middle;display:inline;fill:#423932;fill-opacity:1">
      <path
         d="m 52.843708,85.711555 v -5.679687 h 1.15625 v 4.714844 h 2.875 v 0.964843 z"
         id="path103766"
         style="fill:#423932;fill-opacity:1" />
      <path
         d="m 57.706989,85.711555 v -5.726562 h 3.925782 v 0.96875 h -2.769532 v 1.355469 h 2.390625 v 0.96875 h -2.390625 v 2.433593 z"
         id="path103768"
         style="fill:#423932;fill-opacity:1" />
      <path
         d="m 62.351521,82.88343 q 0,-0.875 0.261718,-1.46875 0.195313,-0.4375 0.53125,-0.785156 0.339844,-0.347656 0.742188,-0.515625 0.535156,-0.226562 1.234375,-0.226562 1.265625,0 2.023437,0.785156 0.761719,0.785156 0.761719,2.183594 0,1.386718 -0.753906,2.171875 -0.753906,0.78125 -2.015625,0.78125 -1.277344,0 -2.03125,-0.777344 -0.753906,-0.78125 -0.753906,-2.148438 z m 1.191406,-0.03906 q 0,0.972656 0.449219,1.476562 0.449218,0.5 1.140625,0.5 0.691406,0 1.132812,-0.496093 0.445313,-0.5 0.445313,-1.496094 0,-0.984375 -0.433594,-1.46875 -0.429688,-0.484375 -1.144531,-0.484375 -0.714844,0 -1.152344,0.492187 -0.4375,0.488282 -0.4375,1.476563 z"
         id="path103770"
         style="fill:#423932;fill-opacity:1" />
    </g>
    <g
       aria-label="PULSE"
       id="text41157-6-5-1-7-9-8"
       style="font-weight:bold;font-size:8px;line-height:1.25;font-family:Arial;-inkscape-font-specification:'Arial, Bold';font-variant-ligatures:none;text-align:center;text-anchor:middle;display:inline;fill:#423932;fill-opacity:1">
      <path
         d="m 42.214802,226.90228 v -5.72656 h 1.855469 q 1.054687,0 1.375,0.0859 0.492187,0.1289 0.824218,0.5625 0.332032,0.42969 0.332032,1.11328 0,0.52734 -0.191407,0.88672 -0.191406,0.35937 -0.488281,0.5664 -0.292969,0.20313 -0.597656,0.26954 -0.414063,0.082 -1.199219,0.082 h -0.753906 v 2.16015 z m 1.15625,-4.75781 v 1.625 h 0.632812 q 0.683594,0 0.914063,-0.0898 0.230469,-0.0899 0.359375,-0.28125 0.132812,-0.19141 0.132812,-0.44532 0,-0.3125 -0.183593,-0.51562 -0.183594,-0.20313 -0.464844,-0.25391 -0.207031,-0.0391 -0.832031,-0.0391 z"
         id="path55146"
         style="fill:#423932;fill-opacity:1" />
      <path
         d="m 47.542927,221.17572 h 1.15625 v 3.10156 q 0,0.73828 0.04297,0.95703 0.07422,0.35157 0.351562,0.56641 0.28125,0.21094 0.765625,0.21094 0.492188,0 0.742188,-0.19922 0.25,-0.20313 0.300781,-0.49609 0.05078,-0.29297 0.05078,-0.97266 v -3.16797 h 1.15625 v 3.00781 q 0,1.03125 -0.09375,1.45703 -0.09375,0.42579 -0.347656,0.71875 -0.25,0.29297 -0.671875,0.46875 -0.421875,0.17188 -1.101563,0.17188 -0.820312,0 -1.246093,-0.1875 -0.421875,-0.19141 -0.667969,-0.49219 -0.246094,-0.30469 -0.324219,-0.63672 -0.113281,-0.49218 -0.113281,-1.45312 z"
         id="path55148"
         style="fill:#423932;fill-opacity:1" />
      <path
         d="m 53.359333,226.90228 v -5.67968 h 1.15625 v 4.71484 h 2.875 v 0.96484 z"
         id="path55150"
         style="fill:#423932;fill-opacity:1" />
      <path
         d="m 57.921833,225.039 1.125,-0.10937 q 0.101563,0.5664 0.410156,0.83203 0.3125,0.26562 0.839844,0.26562 0.558594,0 0.839844,-0.23437 0.285156,-0.23828 0.285156,-0.55469 0,-0.20312 -0.121094,-0.34375 -0.117187,-0.14453 -0.414062,-0.25 -0.203125,-0.0703 -0.925781,-0.25 -0.929688,-0.23047 -1.304688,-0.56641 -0.527344,-0.47265 -0.527344,-1.15234 0,-0.4375 0.246094,-0.81641 0.25,-0.38281 0.714844,-0.58203 0.46875,-0.19922 1.128906,-0.19922 1.078125,0 1.621094,0.47266 0.546875,0.47266 0.574219,1.26172 l -1.15625,0.0508 q -0.07422,-0.44141 -0.320313,-0.63281 -0.242187,-0.19531 -0.730469,-0.19531 -0.503906,0 -0.789062,0.20703 -0.183594,0.13281 -0.183594,0.35547 0,0.20312 0.171875,0.34765 0.21875,0.1836 1.0625,0.38281 0.84375,0.19922 1.246094,0.41407 0.40625,0.21093 0.632812,0.58203 0.230469,0.36719 0.230469,0.91015 0,0.49219 -0.273437,0.92188 -0.273438,0.42969 -0.773438,0.64062 -0.5,0.20704 -1.246094,0.20704 -1.085937,0 -1.667968,-0.5 -0.582032,-0.50391 -0.695313,-1.46485 z"
         id="path55152"
         style="fill:#423932;fill-opacity:1" />
      <path
         d="m 63.550739,226.90228 v -5.72656 h 4.246094 v 0.96875 h -3.089844 v 1.26953 h 2.875 v 0.96485 h -2.875 v 1.55859 h 3.199219 v 0.96484 z"
         id="path55154"
         style="fill:#423932;fill-opacity:1" />
    </g>
    <g
       aria-label="WAVE"
       id="text41157-6-5-1-7-9-8-1"
       style="font-weight:bold;font-size:8px;line-height:1.25;font-family:Arial;-inkscape-font-specification:'Arial, Bold';font-variant-ligatures:none;text-align:center;text-anchor:middle;display:inline;fill:#423932;fill-opacity:1">
      <path
         d="m 46.734333,265.27167 -1.367187,-5.72657 h 1.183593 l 0.863282,3.9336 1.046875,-3.9336 h 1.375 l 1.003906,4 0.878906,-4 h 1.164063 l -1.390625,5.72657 h -1.226563 l -1.140625,-4.28125 -1.136719,4.28125 z"
         id="path55172"
         style="fill:#423932;fill-opacity:1" />
      <path
         d="m 58.195271,265.27167 h -1.257813 l -0.5,-1.30078 h -2.289062 l -0.472657,1.30078 h -1.226562 l 2.230469,-5.72657 h 1.222656 z m -2.128907,-2.26563 -0.789062,-2.125 -0.773438,2.125 z"
         id="path55174"
         style="fill:#423932;fill-opacity:1" />
      <path
         d="m 59.675739,265.27167 -2.046875,-5.72657 h 1.253907 l 1.449218,4.23829 1.402344,-4.23829 h 1.226563 l -2.050782,5.72657 z"
         id="path55176"
         style="fill:#423932;fill-opacity:1" />
      <path
         d="m 63.550739,265.27167 v -5.72657 h 4.246094 v 0.96875 h -3.089844 v 1.26954 h 2.875 v 0.96484 h -2.875 v 1.55859 h 3.199219 v 0.96485 z"
         id="path55178"
         style="fill:#423932;fill-opacity:1" />
    </g>
    <g
       aria-label="SHIFTED"
       id="text41157-6-5-1-7-9-8-1-5"
       style="font-weight:bold;font-size:8px;line-height:1.25;font-family:Arial;-inkscape-font-specification:'Arial, Bold';font-variant-ligatures:none;text-align:center;text-anchor:middle;display:inline;fill:#423932;fill-opacity:1">
      <path
         d="m 34.371052,253.6893 1.125,-0.10937 q 0.101562,0.5664 0.410156,0.83203 0.3125,0.26562 0.839844,0.26562 0.558594,0 0.839844,-0.23437 0.285156,-0.23828 0.285156,-0.55469 0,-0.20313 -0.121094,-0.34375 -0.117187,-0.14453 -0.414062,-0.25 -0.203125,-0.0703 -0.925782,-0.25 -0.929687,-0.23047 -1.304687,-0.56641 -0.527344,-0.47265 -0.527344,-1.15234 0,-0.4375 0.246094,-0.81641 0.25,-0.38281 0.714844,-0.58203 0.46875,-0.19922 1.128906,-0.19922 1.078125,0 1.621094,0.47266 0.546875,0.47266 0.574218,1.26172 l -1.15625,0.0508 q -0.07422,-0.44141 -0.320312,-0.63281 -0.242188,-0.19532 -0.730469,-0.19532 -0.503906,0 -0.789062,0.20704 -0.183594,0.13281 -0.183594,0.35546 0,0.20313 0.171875,0.34766 0.21875,0.18359 1.0625,0.38281 0.84375,0.19922 1.246094,0.41407 0.40625,0.21093 0.632812,0.58203 0.230469,0.36718 0.230469,0.91015 0,0.49219 -0.273438,0.92188 -0.273437,0.42969 -0.773437,0.64062 -0.5,0.20703 -1.246094,0.20703 -1.085937,0 -1.667969,-0.5 -0.582031,-0.5039 -0.695312,-1.46484 z"
         id="path55157"
         style="fill:#423932;fill-opacity:1" />
      <path
         d="m 40.003864,255.55258 v -5.72656 h 1.15625 v 2.25391 h 2.265625 v -2.25391 h 1.15625 v 5.72656 h -1.15625 v -2.5039 h -2.265625 v 2.5039 z"
         id="path55159"
         style="fill:#423932;fill-opacity:1" />
      <path
         d="m 45.742146,255.55258 v -5.72656 h 1.15625 v 5.72656 z"
         id="path55161"
         style="fill:#423932;fill-opacity:1" />
      <path
         d="m 48.007771,255.55258 v -5.72656 h 3.925781 v 0.96875 h -2.769531 v 1.35547 h 2.390625 v 0.96875 h -2.390625 v 2.43359 z"
         id="path55163"
         style="fill:#423932;fill-opacity:1" />
      <path
         d="m 54.175739,255.55258 v -4.75781 h -1.699218 v -0.96875 h 4.550781 v 0.96875 h -1.695313 v 4.75781 z"
         id="path55165"
         style="fill:#423932;fill-opacity:1" />
      <path
         d="m 57.773396,255.55258 v -5.72656 h 4.246093 v 0.96875 h -3.089843 v 1.26953 h 2.875 v 0.96484 h -2.875 v 1.5586 h 3.199218 v 0.96484 z"
         id="path55167"
         style="fill:#423932;fill-opacity:1" />
      <path
         d="m 63.105427,249.82602 h 2.113281 q 0.714844,0 1.089844,0.10937 0.503906,0.14844 0.863281,0.52735 0.359375,0.3789 0.546875,0.92969 0.1875,0.54687 0.1875,1.35156 0,0.70703 -0.175781,1.21875 -0.214844,0.625 -0.613281,1.01172 -0.300782,0.29297 -0.8125,0.45703 -0.382813,0.12109 -1.023438,0.12109 h -2.175781 z m 1.15625,0.96875 v 3.79297 h 0.863281 q 0.484375,0 0.699219,-0.0547 0.28125,-0.0703 0.464844,-0.23828 0.1875,-0.16797 0.304687,-0.55078 0.117188,-0.38672 0.117188,-1.05078 0,-0.66407 -0.117188,-1.01953 -0.117187,-0.35547 -0.328125,-0.55469 -0.210937,-0.19922 -0.535156,-0.26953 -0.242188,-0.0547 -0.949219,-0.0547 z"
         id="path55169"
         style="fill:#423932;fill-opacity:1" />
    </g>
    <g
       aria-label="OUT"
       id="text33436-1"
       style="font-weight:bold;font-size:8px;line-height:1.25;font-family:Arial;-inkscape-font-specification:'Arial, Bold';font-variant-ligatures:none;text-align:center;text-anchor:middle;fill:#423932;fill-opacity:1"
       transform="translate(44.93555,2)">
      <path
         d="m 119.37695,323.07422 q 0,-0.875 0.26172,-1.46875 0.19531,-0.4375 0.53125,-0.78516 0.33985,-0.34765 0.74219,-0.51562 0.53516,-0.22657 1.23437,-0.22657 1.26563,0 2.02344,0.78516 0.76172,0.78516 0.76172,2.18359 0,1.38672 -0.75391,2.17188 Q 123.42383,326 122.16211,326 q -1.27734,0 -2.03125,-0.77734 -0.75391,-0.78125 -0.75391,-2.14844 z m 1.19141,-0.0391 q 0,0.97265 0.44922,1.47656 0.44922,0.5 1.14062,0.5 0.69141,0 1.13282,-0.4961 0.44531,-0.5 0.44531,-1.49609 0,-0.98437 -0.4336,-1.46875 -0.42968,-0.48437 -1.14453,-0.48437 -0.71484,0 -1.15234,0.49218 -0.4375,0.48828 -0.4375,1.47657 z"
         id="path97131"
         style="fill:#423932;fill-opacity:1" />
      <path
         d="m 125.82617,320.17578 h 1.15625 v 3.10156 q 0,0.73828 0.043,0.95703 0.0742,0.35157 0.35156,0.56641 0.28125,0.21094 0.76563,0.21094 0.49219,0 0.74219,-0.19922 0.25,-0.20313 0.30078,-0.49609 0.0508,-0.29297 0.0508,-0.97266 v -3.16797 h 1.15625 v 3.00781 q 0,1.03125 -0.0937,1.45703 -0.0937,0.42579 -0.34766,0.71875 -0.25,0.29297 -0.67187,0.46875 Q 128.85742,326 128.17773,326 q -0.82031,0 -1.24609,-0.1875 -0.42187,-0.19141 -0.66797,-0.49219 -0.24609,-0.30469 -0.32422,-0.63672 -0.11328,-0.49218 -0.11328,-1.45312 z"
         id="path97133"
         style="fill:#423932;fill-opacity:1" />
      <path
         d="m 132.90039,325.90234 v -4.75781 h -1.69922 v -0.96875 h 4.55078 v 0.96875 h -1.69531 v 4.75781 z"
         id="path97135"
         style="fill:#423932;fill-opacity:1" />
    </g>
  </g>
  <text
     xml:space="preserve"
     id="text29904"
     style="font-weight:bold;font-size:8px;line-height:1.25;font-family:Arial;-inkscape-font-specification:'Arial, Bold';font-variant-ligatures:none;text-align:center;white-space:pre;shape-inside:url(#rect29906)" />
  <g
     inkscape:groupmode="layer"
     id="layer1"
     inkscape:label="Widgets"
     style="display:none">
    <circle
       style="display:inline;fill:#ff0000;stroke:#ff0000;stroke-width:1.94925;stroke-opacity:1"
       id="path1065-7-4"
       cx="172.5"
       cy="297.5"
       r="9.5253754" />
    <circle
       style="display:inline;fill:#ff0000;stroke:#ff0000;stroke-width:1.94925;stroke-opacity:1"
       id="path1065-7-4-0"
       cx="142.5"
       cy="297.5"
       r="9.5253754" />
    <circle
       style="display:inline;fill:#ff0000;stroke:#ff0000;stroke-width:1.94925;stroke-opacity:1"
       id="path1065-7-4-4"
       cx="112.5"
       cy="297.5"
       r="9.5253754" />
    <circle
       style="display:inline;fill:#ff0000;stroke:#ff0000;stroke-width:1.94925;stroke-opacity:1"
       id="path1065-7-4-5"
       cx="82.5"
       cy="297.5"
       r="9.5253754" />
    <circle
       style="display:inline;fill:#ff0000;stroke:#ff0000;stroke-width:1.94925;stroke-opacity:1"
       id="path1065-7-1"
       cx="112.5"
       cy="257.5"
       r="10.525375" />
    <circle
       style="display:inline;fill:#ff0000;stroke:#ff0000;stroke-width:1.94925;stroke-opacity:1"
       id="path1065-7-2"
       cx="142.5"
       cy="257.5"
       r="10.525375" />
    <circle
       style="display:inline;fill:#ff0000;stroke:#ff0000;stroke-width:1.94925;stroke-opacity:1"
       id="path1065-7-2-9"
       cx="172.5"
       cy="257.5"
       r="10.525375" />
    <circle
       style="display:inline;fill:#ff0000;stroke:#ff0000;stroke-width:1.8645;stroke-opacity:1"
       id="path1065-77"
       cx="20.5"
       cy="157"
       r="7.56775" />
    <circle
       style="display:inline;fill:#ff0000;stroke:#ff0000;stroke-width:1.8645;stroke-opacity:1"
       id="path1065-7-2-6"
       cx="112.5"
       cy="157"
       r="7.56775" />
    <circle
       style="display:inline;fill:#ff0000;stroke:#ff0000;stroke-width:1.8645;stroke-opacity:1"
       id="path1065-7-2-5"
       cx="82.5"
       cy="157"
       r="7.56775" />
    <circle
       style="display:inline;fill:#ff0000;stroke:#ff0000;stroke-width:1.8645;stroke-opacity:1"
       id="path1065-7-2-7"
       cx="142.5"
       cy="157"
       r="7.56775" />
    <circle
       style="display:inline;fill:#ff0000;stroke:#ff0000;stroke-width:1.8645;stroke-opacity:1"
       id="path1065-7-2-58"
       cx="172.5"
       cy="157"
       r="7.56775" />
    <circle
       style="display:inline;fill:#ff0000;stroke:#ff0000;stroke-width:1.94925;stroke-opacity:1"
       id="path1065-7"
       cx="82.5"
       cy="257.5"
       r="10.525375" />
    <circle
       style="display:inline;fill:#ff0000;stroke:#ff0000;stroke-width:1.94925;stroke-opacity:1"
       id="path1065-7-10"
       cx="82.5"
       cy="224.5"
       r="10.525375" />
    <circle
       style="display:inline;fill:#ff0000;stroke:#ff0000;stroke-width:1.94925;stroke-opacity:1"
       id="path1065-7-10-9"
       cx="82.5"
       cy="124.5"
       r="10.525375" />
    <circle
       style="display:inline;fill:#ff0000;stroke:#ff0000;stroke-width:1.94925;stroke-opacity:1"
       id="path1065-7-10-8"
       cx="112.5"
       cy="124.5"
       r="10.525375" />
    <circle
       style="display:inline;fill:#ff0000;stroke:#ff0000;stroke-width:1.94925;stroke-opacity:1"
       id="path1065-7-10-96"
       cx="142.5"
       cy="124.5"
       r="10.525375" />
    <circle
       style="display:inline;fill:#ff0000;stroke:#ff0000;stroke-width:1.94925;stroke-opacity:1"
       id="path1065-7-10-6"
       cx="172.5"
       cy="124.5"
       r="10.525375" />
    <circle
       style="display:inline;fill:#ff0000;stroke:#ff0000;stroke-width:1.94925;stroke-opacity:1"
       id="path1065-7-1-3"
       cx="112.5"
       cy="224.5"
       r="10.525375" />
    <circle
       style="display:inline;fill:#ff0000;stroke:#ff0000;stroke-width:1.94925;stroke-opacity:1"
       id="path1065-7-2-2"
       cx="142.5"
       cy="224.5"
       r="10.525375" />
    <circle
       style="display:inline;fill:#ff0000;stroke:#ff0000;stroke-width:1.94925;stroke-opacity:1"
       id="path1065-7-2-9-7"
       cx="172.75"
       cy="224.5"
       r="10.525375" />
    <circle
       style="display:inline;fill:#ff0000;stroke:#ff0000;stroke-width:1.94925;stroke-opacity:1"
       id="path1065-9-4"
       cx="20.5"
       cy="124.5"
       r="10.525375" />
    <circle
       style="display:inline;fill:#ff0000;stroke:#ff0000;stroke-width:1.94925;stroke-opacity:1"
       id="path1065-9-1"
       cx="20.5"
       cy="83.99987"
       r="10.525375" />
    <circle
       style="display:inline;fill:#ff0000;stroke:#ff0000;stroke-width:1.94925;stroke-opacity:1"
       id="path1065-7-10-2"
       cx="82.5"
       cy="83.99987"
       r="10.525375" />
    <circle
       style="display:inline;fill:#ff0000;stroke:#ff0000;stroke-width:1.94925;stroke-opacity:1"
       id="path1065-7-1-3-8"
       cx="112.5"
       cy="83.99987"
       r="10.525375" />
    <circle
       style="display:inline;fill:#ff0000;stroke:#ff0000;stroke-width:1.94925;stroke-opacity:1"
       id="path1065-7-2-2-4"
       cx="142.5"
       cy="83.99987"
       r="10.525375" />
    <circle
       style="display:inline;fill:#ff0000;stroke:#ff0000;stroke-width:1.94925;stroke-opacity:1"
       id="path1065-7-2-9-7-2"
       cx="172.5"
       cy="83.99987"
       r="10.525375" />
    <circle
       style="display:inline;fill:#ff0000;stroke:#ff0000;stroke-width:1.8645;stroke-opacity:1"
       id="path1065-77-7"
       cx="20.5"
       cy="188"
       r="10.06775" />
    <circle
       style="display:inline;fill:#ff0000;stroke:#ff0000;stroke-width:1.8645;stroke-opacity:1"
       id="path1065-7-2-6-5"
       cx="112.5"
       cy="188"
       r="10.06775" />
    <circle
       style="display:inline;fill:#ff0000;stroke:#ff0000;stroke-width:1.8645;stroke-opacity:1"
       id="path1065-7-2-5-5"
       cx="82.5"
       cy="188"
       r="10.06775" />
    <circle
       style="display:inline;fill:#ff0000;stroke:#ff0000;stroke-width:1.8645;stroke-opacity:1"
       id="path1065-7-2-7-0"
       cx="142.5"
       cy="188"
       r="10.06775" />
    <circle
       style="display:inline;fill:#ff0000;stroke:#ff0000;stroke-width:1.8645;stroke-opacity:1"
       id="path1065-7-2-58-6"
       cx="172.5"
       cy="188"
       r="10.06775" />
    <circle
       style="display:inline;fill:#ff0000;stroke:#ff0000;stroke-width:1.8645;stroke-opacity:1"
       id="path1065-77-7-6"
       cx="20.5"
       cy="48.500103"
       r="10.06775" />
    <circle
       style="display:inline;fill:#ff0000;stroke:#ff0000;stroke-width:1.8645;stroke-opacity:1"
       id="path1065-7-2-6-5-6"
       cx="112.5"
       cy="48.500103"
       r="10.06775" />
    <circle
       style="display:inline;fill:#ff0000;stroke:#ff0000;stroke-width:1.8645;stroke-opacity:1"
       id="path1065-7-2-5-5-6"
       cx="82.5"
       cy="48.500103"
       r="10.06775" />
    <circle
       style="display:inline;fill:#ff0000;stroke:#ff0000;stroke-width:1.8645;stroke-opacity:1"
       id="path1065-7-2-7-0-0"
       cx="142.5"
       cy="48.500103"
       r="10.06775" />
    <circle
       style="display:inline;fill:#ff0000;stroke:#ff0000;stroke-width:1.8645;stroke-opacity:1"
       id="path1065-7-2-58-6-4"
       cx="172.5"
       cy="48.500103"
       r="10.06775" />
    <circle
       style="display:inline;fill:#ff0000;stroke:#ff0000;stroke-width:1.94925;stroke-opacity:1"
       id="path1065-72"
       cx="172.5"
       cy="342.5"
       r="10.525375" />
    <circle
       style="display:inline;fill:#ff0000;stroke:#ff0000;stroke-width:1.8645;stroke-opacity:1"
       id="path1065-7-2-5-5-9"
       cx="128"
       cy="342.5"
       r="10.06775" />
    <circle
       style="display:inline;fill:#ff0000;stroke:#ff0000;stroke-width:1.94925;stroke-opacity:1"
       id="path1065-72-2"
       cx="97.5"
       cy="342.5"
       r="7.5253749" />
    <circle
       style="display:inline;fill:#ff0000;stroke:#ff0000;stroke-width:1.94925;stroke-opacity:1"
       id="path1065-72-2-0"
       cx="17.5"
       cy="257.5"
       r="8.0253754" />
    <circle
       style="display:inline;fill:#ff0000;stroke:#ff0000;stroke-width:1.94925;stroke-opacity:1"
       id="path1065-72-6"
       cx="67"
       cy="342.5"
       r="10.525375" />
    <circle
       style="display:inline;fill:#ff0000;stroke:#ff0000;stroke-width:1.94925;stroke-opacity:1"
       id="path1065-72-3"
       cx="20.5"
       cy="342.5"
       r="10.525375" />
    <rect
       style="display:inline;opacity:0.995935;fill:#ff0000;stroke:none;stroke-width:0.999999"
       id="rect6025-8"
       width="24.000002"
       height="24"
       x="8.499999"
       y="287"
       ry="5.3710246"
       rx="5.3710246" />
  </g>
</svg>
