<?xml version="1.0" encoding="UTF-8" standalone="no"?>
<!-- Created with Inkscape (http://www.inkscape.org/) -->

<svg
   width="150"
   height="380"
   viewBox="0 0 396.875 1005.4167"
   version="1.1"
   id="svg5"
   inkscape:version="1.1.1 (3bf5ae0d25, 2021-09-20)"
   sodipodi:docname="XM_OP_Earth.svg"
   xmlns:inkscape="http://www.inkscape.org/namespaces/inkscape"
   xmlns:sodipodi="http://sodipodi.sourceforge.net/DTD/sodipodi-0.dtd"
   xmlns="http://www.w3.org/2000/svg"
   xmlns:svg="http://www.w3.org/2000/svg">
  <sodipodi:namedview
     id="namedview7"
     pagecolor="#ffffff"
     bordercolor="#666666"
     borderopacity="1.0"
     inkscape:pageshadow="2"
     inkscape:pageopacity="0.0"
     inkscape:pagecheckerboard="0"
     inkscape:document-units="px"
     showgrid="false"
     scale-x="10"
     inkscape:showpageshadow="false"
     viewbox-x="0"
     showguides="false"
     objecttolerance="1"
     gridtolerance="1"
     guidetolerance="1"
     inkscape:zoom="2.2342105"
     inkscape:cx="75.194347"
     inkscape:cy="190"
     inkscape:window-width="1920"
     inkscape:window-height="1057"
     inkscape:window-x="1592"
     inkscape:window-y="-8"
     inkscape:window-maximized="1"
     inkscape:current-layer="layer5"
     units="px">
    <inkscape:grid
       type="xygrid"
       id="grid832"
       units="px"
       spacingx="2.6458334"
       spacingy="2.6458334"
       originx="0"
       empspacing="5"
       dotted="false"
       visible="true"
       enabled="true" />
    <inkscape:grid
       type="xygrid"
       id="grid15270"
       visible="false" />
  </sodipodi:namedview>
  <defs
     id="defs2" />
  <g
     inkscape:groupmode="layer"
     id="layer3"
     inkscape:label="Faceplate"
     style="display:inline">
    <rect
       style="display:inline;vector-effect:non-scaling-stroke;fill:#423932;fill-opacity:1;stroke-width:0.186761;-inkscape-stroke:hairline"
       id="rect910-6-1-4"
       width="396.875"
       height="1005.4167"
       x="-1.1368684e-13"
       y="-1.7763568e-15" />
  </g>
  <g
     inkscape:groupmode="layer"
     id="layer4"
     inkscape:label="Brand"
     style="display:inline">
    <g
       id="g42796-0-7-2"
       transform="matrix(0.79338965,0,0,0.79458332,138.36363,-19.617974)"
       style="display:inline;fill:#ff0000;stroke-width:1.27904">
      <g
         aria-label="enom"
         id="text4270-27-8-9-0"
         style="font-size:49.3889px;line-height:1.25;font-family:'NECK ROMANCER';-inkscape-font-specification:'NECK ROMANCER, Normal';font-variant-ligatures:none;text-align:center;text-anchor:middle;fill:#ff0000;stroke-width:3.38412">
        <path
           d="m 46.609141,1249.244 q 0,1.1576 0,3.4245 3.183269,0 9.453344,0 -1.639866,0.5787 -2.990343,1.2058 -1.350478,0.627 -2.363337,1.688 -1.350477,0 -4.051433,0 0,1.4952 0.434082,2.5563 0.385851,1.1093 1.832792,1.1093 2.266873,0 6.80062,0 0.482313,-0.1447 0.868164,-0.627 0.337619,-0.5305 0.627007,-1.7363 0,2.0257 0,6.1254 -3.520888,0 -10.562665,0 -1.543403,0 -2.652724,-2.2187 -1.109321,-2.1704 -1.109321,-6.3183 0,-1.9775 0,-5.836 -0.385851,-1.3504 -1.881023,-2.1221 -1.495171,-0.7235 -3.569119,-1.2058 6.607694,0 19.774852,0 0,2.9421 0,8.7781 -1.205783,-2.701 -2.218642,-3.6656 -1.012858,-0.9646 -2.700955,-1.1093 -0.916396,-0.097 -2.170411,-0.097 -1.205783,0.048 -2.845649,0.048 -0.241157,0 -0.675239,0 z"
           id="path42762-2-5-2"
           style="fill:#ff0000;stroke-width:3.38412" />
        <path
           d="m 81.576869,1245.2891 q 0,5.8842 0,17.7009 0,3.0868 -0.144694,6.0771 -0.09646,3.0386 -0.337619,5.9325 -0.385851,-3.7138 -0.964627,-6.9936 -0.530545,-3.3279 -2.025717,-5.016 0,-2.9904 0,-8.9228 -0.241157,-1.3505 -0.72347,-2.2187 -0.482314,-0.8681 -1.06109,-1.3987 -1.109321,-1.0128 -2.411567,-1.1093 -1.350478,-0.097 -2.266874,-0.097 -0.482313,0 -1.44694,0 0,4.582 0,13.746 0,3.0868 -0.09646,6.0771 -0.144694,3.0386 -0.385851,5.9325 -0.38585,-3.7138 -0.916395,-6.9936 -0.578776,-3.3279 -2.025717,-5.016 0,-4.8232 0,-14.373 -0.385851,-1.3504 -1.881022,-2.1221 -1.495172,-0.7235 -3.56912,-1.2058 6.752389,0 20.257166,0 z"
           id="path42764-5-7-3"
           style="fill:#ff0000;stroke-width:3.38412" />
        <path
           d="m 104.19737,1249.0511 q 0,3.3762 0,10.1768 0,1.5434 -1.92925,2.6528 -1.92926,1.1093 -6.077152,1.1093 -4.196128,0 -6.125382,-1.1093 -1.929254,-1.1094 -1.929254,-2.6528 0,-3.3762 0,-10.1768 0,-1.5434 1.929254,-2.6527 1.929254,-1.1093 6.125382,-1.1093 4.147892,0 6.077152,1.1093 1.92925,1.1093 1.92925,2.6527 z m -3.76204,7.91 q 0,-1.8811 0,-5.6431 0,-1.6881 -1.254019,-1.9775 -1.205783,-0.2894 -2.990343,-0.2894 -1.832792,0 -3.038575,0.2894 -1.254015,0.2894 -1.254015,1.9775 0,1.881 0,5.6431 0,1.6881 1.254015,1.9774 1.205783,0.2894 3.038575,0.2894 1.78456,0 2.990343,-0.2894 1.254019,-0.2893 1.254019,-1.9774 z"
           id="path42766-8-9-0"
           style="fill:#ff0000;stroke-width:3.38412" />
        <path
           d="m 142.34837,1245.2891 q -2.02572,0.4823 -3.52089,1.2058 -1.5434,0.7717 -1.88102,2.1221 0,4.7749 0,14.373 -1.49517,1.6881 -2.02572,5.016 -0.57878,3.2798 -0.96463,6.9936 -0.24115,-2.8939 -0.33762,-5.9325 -0.14469,-2.9903 -0.14469,-6.0771 0,-4.582 0,-13.746 -0.48231,0 -1.39871,0 -0.53054,0 -1.15755,0 -0.62701,0 -1.30225,0.1447 -1.25401,0.2412 -2.41157,1.2058 -1.15755,0.9646 -1.63986,3.4727 0,2.9903 0,8.9228 -0.1447,0.627 -0.28939,1.1093 -0.0965,0.4823 -0.19292,0.8199 -0.53055,1.9775 -0.38586,1.3505 0.19293,-0.627 -0.28938,1.1576 -0.0965,0.3376 -0.24116,0.8681 -0.14469,0.5306 -0.33762,1.3023 -0.14469,-0.6753 -0.28939,-1.2058 -0.14469,-0.4823 -0.24115,-0.8199 -0.53055,-2.0258 -0.33762,-1.3023 0.19292,0.7717 -0.43409,-1.6881 -0.0482,-0.2894 -0.19292,-0.7235 -0.0965,-0.3858 -0.19293,-0.8681 0,-2.9904 0,-8.9228 -0.28939,-1.3505 -0.7717,-2.2187 -0.48231,-0.8681 -1.06109,-1.3987 -1.10932,-1.0128 -2.41157,-1.1093 -1.30224,-0.097 -2.26687,-0.097 -0.48231,0 -1.39871,0 0,4.582 0,13.746 0,3.0868 -0.14469,6.0771 -0.0965,3.0386 -0.33762,5.9325 -0.38585,-3.7138 -0.96463,-6.9936 -0.53054,-3.3279 -2.02572,-5.016 0,-4.8232 0,-14.373 -0.38585,-1.3504 -1.88102,-2.1221 -1.49517,-0.7235 -3.56912,-1.2058 3.95497,0 11.76845,0 1.15755,0.3858 3.47266,1.1575 0.7717,0.2894 1.59163,0.4341 0.81994,0.1447 1.6881,0.1447 0.86816,0 1.73633,-0.1447 0.81993,-0.1447 1.59163,-0.4341 1.15756,-0.3858 3.42443,-1.1575 3.95497,0 11.76845,0 z"
           id="path42768-1-5-9"
           style="fill:#ff0000;stroke-width:3.38412" />
      </g>
      <g
         aria-label="V"
         transform="matrix(1.2363173,0,0,0.80885384,-497.88086,123.48586)"
         id="text4270-3-5-2-4-0-7"
         style="font-size:78.5061px;line-height:1.25;font-family:Nosferotica;-inkscape-font-specification:'Nosferotica, Normal';font-variant-ligatures:none;text-align:center;text-anchor:middle;fill:#ff0000;stroke-width:4.18383">
        <path
           d="m 431.64994,1360.6864 8.57428,-0.1022 c 0,0 -4.4079,1.0878 -5.59925,3.7285 -1.88083,4.1689 -3.64217,14.6628 -3.64217,14.6628 l -2.23339,11.5191 -1.83311,11.8311 -1.71824,21.3112 -1.69514,-21.3112 -1.92196,-11.5208 -2.5009,-11.8294 c 0,0 -1.52027,-10.287 -3.38278,-14.4832 -1.14458,-2.5787 -5.63367,-3.8059 -5.63367,-3.8059 h 8.4657 l 6.66875,29.1569 z"
           id="path30410-2-3-0"
           sodipodi:nodetypes="ccscccccccscccc"
           style="fill:#ff0000;stroke-width:4.18383" />
      </g>
    </g>
  </g>
  <g
     inkscape:groupmode="layer"
     id="layer5"
     inkscape:label="Solid"
     style="display:inline">
    <g
       aria-label="SYNC/RTRG"
       id="text41626"
       style="font-weight:bold;font-size:17.6389px;line-height:1.25;font-family:Arial;-inkscape-font-specification:'Arial, Bold';font-variant-ligatures:none;text-align:center;text-anchor:middle;display:inline;fill:#d2ac95;fill-opacity:1;stroke-width:2.64583">
      <path
         d="m 277.15897,658.15844 2.48047,-0.24115 q 0.22393,1.24885 0.90434,1.83451 0.68902,0.58567 1.85174,0.58567 1.23162,0 1.85174,-0.51677 0.62873,-0.52537 0.62873,-1.22301 0,-0.44786 -0.26699,-0.75792 -0.25839,-0.31867 -0.91295,-0.55121 -0.44787,-0.15503 -2.04123,-0.55122 -2.04983,-0.50815 -2.87665,-1.24885 -1.16272,-1.04214 -1.16272,-2.54076 0,-0.96462 0.5426,-1.80006 0.55122,-0.84405 1.57613,-1.2833 1.03353,-0.43925 2.48909,-0.43925 2.37711,0 3.57428,1.04214 1.20579,1.04215 1.26608,2.78192 l -2.54937,0.11197 q -0.16365,-0.97324 -0.70625,-1.39527 -0.53399,-0.43064 -1.61058,-0.43064 -1.11105,0 -1.73978,0.45648 -0.4048,0.29283 -0.4048,0.78376 0,0.44786 0.37897,0.76653 0.48231,0.4048 2.34266,0.84405 1.86035,0.43925 2.74747,0.91295 0.89572,0.46509 1.39526,1.2833 0.50815,0.8096 0.50815,2.00677 0,1.08521 -0.60289,2.03261 -0.60289,0.9474 -1.70532,1.41249 -1.10243,0.45647 -2.74747,0.45647 -2.39434,0 -3.67764,-1.10243 -1.2833,-1.11104 -1.53307,-3.22978 z"
         id="path48050"
         style="fill:#d2ac95;fill-opacity:1" />
      <path
         d="m 292.88584,662.26672 v -5.31406 l -4.62504,-7.31222 h 2.98862 l 2.9714,4.99539 2.91111,-4.99539 h 2.93694 l -4.64227,7.32945 v 5.29683 z"
         id="path48052"
         style="fill:#d2ac95;fill-opacity:1" />
      <path
         d="m 301.36078,662.26672 v -12.62628 h 2.48047 l 5.16765,8.43188 v -8.43188 h 2.36851 v 12.62628 h -2.55799 l -5.09013,-8.23378 v 8.23378 z"
         id="path48054"
         style="fill:#d2ac95;fill-opacity:1" />
      <path
         d="m 322.15195,657.62445 2.47185,0.78376 q -0.56844,2.06706 -1.8948,3.07475 -1.31775,0.99908 -3.35036,0.99908 -2.51492,0 -4.13411,-1.71393 -1.6192,-1.72255 -1.6192,-4.70256 0,-3.15227 1.62781,-4.89204 1.62781,-1.74839 4.28053,-1.74839 2.31683,0 3.76377,1.36943 0.86128,0.8096 1.29191,2.32544 l -2.52353,0.60289 q -0.22393,-0.98185 -0.93879,-1.55029 -0.70624,-0.56844 -1.72255,-0.56844 -1.40388,0 -2.28238,1.00769 -0.86988,1.00769 -0.86988,3.26423 0,2.39434 0.86127,3.41064 0.86128,1.01631 2.23932,1.01631 1.0163,0 1.74838,-0.64596 0.73209,-0.64595 1.05076,-2.03261 z"
         id="path48056"
         style="fill:#d2ac95;fill-opacity:1" />
      <path
         d="m 325.50231,662.48204 3.12642,-13.05692 h 1.81729 l -3.16088,13.05692 z"
         id="path48058"
         style="fill:#d2ac95;fill-opacity:1" />
      <path
         d="m 331.72071,662.26672 v -12.62628 h 5.36574 q 2.02399,0 2.93694,0.34451 0.92157,0.3359 1.47278,1.20578 0.55122,0.86989 0.55122,1.98955 0,1.4211 -0.83544,2.35128 -0.83544,0.92156 -2.4977,1.16272 0.82683,0.48231 1.36082,1.05937 0.5426,0.57705 1.45555,2.04983 l 1.54168,2.46324 h -3.04891 l -1.84313,-2.74746 q -0.98185,-1.47278 -1.34358,-1.85174 -0.36174,-0.38758 -0.76654,-0.52538 -0.4048,-0.14642 -1.2833,-0.14642 h -0.51676 v 5.271 z m 2.54937,-7.28638 h 1.88619 q 1.83451,0 2.29099,-0.15503 0.45648,-0.15503 0.71486,-0.53399 0.25838,-0.37896 0.25838,-0.9474 0,-0.63734 -0.34451,-1.02492 -0.3359,-0.39618 -0.95601,-0.49954 -0.31006,-0.0431 -1.86036,-0.0431 h -1.98954 z"
         id="path48060"
         style="fill:#d2ac95;fill-opacity:1" />
      <path
         d="M 347.29255,662.26672 V 651.7764 h -3.74654 v -2.13596 h 10.03384 v 2.13596 h -3.73793 v 10.49032 z"
         id="path48062"
         style="fill:#d2ac95;fill-opacity:1" />
      <path
         d="m 355.2335,662.26672 v -12.62628 h 5.36574 q 2.024,0 2.93695,0.34451 0.92156,0.3359 1.47278,1.20578 0.55121,0.86989 0.55121,1.98955 0,1.4211 -0.83543,2.35128 -0.83544,0.92156 -2.4977,1.16272 0.82682,0.48231 1.36081,1.05937 0.54261,0.57705 1.45556,2.04983 l 1.54168,2.46324 h -3.04891 l -1.84313,-2.74746 q -0.98185,-1.47278 -1.34359,-1.85174 -0.36173,-0.38758 -0.76653,-0.52538 -0.4048,-0.14642 -1.2833,-0.14642 h -0.51677 v 5.271 z m 2.54937,-7.28638 h 1.88619 q 1.83452,0 2.29099,-0.15503 0.45648,-0.15503 0.71486,-0.53399 0.25838,-0.37896 0.25838,-0.9474 0,-0.63734 -0.34451,-1.02492 -0.33589,-0.39618 -0.95601,-0.49954 -0.31006,-0.0431 -1.86035,-0.0431 h -1.98955 z"
         id="path48064"
         style="fill:#d2ac95;fill-opacity:1" />
      <path
         d="m 373.83703,657.62445 v -2.12734 h 5.49493 v 5.02984 q -0.80098,0.77515 -2.32544,1.36943 -1.51584,0.58566 -3.07475,0.58566 -1.98093,0 -3.45371,-0.82682 -1.47278,-0.83544 -2.21348,-2.37712 -0.74069,-1.55029 -0.74069,-3.36758 0,-1.97232 0.82682,-3.50539 0.82683,-1.53307 2.42018,-2.35128 1.2144,-0.62873 3.02308,-0.62873 2.35128,0 3.66903,0.99047 1.32636,0.98185 1.70532,2.72162 l -2.53215,0.47371 q -0.26699,-0.93018 -1.00769,-1.46417 -0.73208,-0.5426 -1.83451,-0.5426 -1.67088,0 -2.66134,1.05936 -0.98185,1.05937 -0.98185,3.14366 0,2.24792 0.99907,3.37619 0.99908,1.11966 2.61828,1.11966 0.80098,0 1.60197,-0.31006 0.8096,-0.31867 1.38665,-0.76654 v -1.60197 z"
         id="path48066"
         style="fill:#d2ac95;fill-opacity:1" />
    </g>
    <g
       aria-label="XM - OP"
       id="text28123"
       style="font-weight:bold;font-size:38.8056px;line-height:1.25;font-family:Arial;-inkscape-font-specification:'Arial, Bold';font-variant-ligatures:none;text-align:center;text-anchor:middle;fill:#d2ac95;fill-opacity:1;stroke-width:2.64583">
      <path
         d="m 124.94751,53.84536 9.49297,-14.495256 -8.60241,-13.28258 h 6.55602 l 5.57073,8.92453 5.45703,-8.92453 h 6.49918 l -8.64031,13.491009 9.49297,14.286827 h -6.76445 l -6.15811,-9.60666 -6.17707,9.60666 z"
         id="path1596"
         style="fill:#d2ac95;fill-opacity:1" />
      <path
         d="M 153.57801,53.84536 V 26.067524 h 8.39398 l 5.04018,18.948046 4.98334,-18.948046 h 8.41293 V 53.84536 h -5.21071 V 31.979314 l -5.51388,21.866046 h -5.4002 L 158.78872,31.979314 V 53.84536 Z"
         id="path1598"
         style="fill:#d2ac95;fill-opacity:1" />
      <path
         d="m 196.11637,46.436674 v -5.324401 h 10.45932 v 5.324401 z"
         id="path1600"
         style="fill:#d2ac95;fill-opacity:1" />
      <path
         d="m 219.32773,40.126974 q 0,-4.244362 1.26952,-7.124465 0.9474,-2.122182 2.57693,-3.808558 1.64848,-1.686376 3.60013,-2.501142 2.59589,-1.098987 5.98759,-1.098987 6.13916,0 9.81508,3.808558 3.69487,3.808557 3.69487,10.591958 0,6.726556 -3.65697,10.535114 -3.65697,3.789609 -9.77719,3.789609 -6.19601,0 -9.85299,-3.770661 -3.65697,-3.78961 -3.65697,-10.421426 z m 5.77916,-0.18948 q 0,4.718063 2.17902,7.162361 2.17903,2.42535 5.53283,2.42535 3.3538,0 5.49493,-2.406402 2.16008,-2.42535 2.16008,-7.257102 0,-4.774907 -2.10323,-7.124465 -2.08429,-2.349558 -5.55178,-2.349558 -3.46749,0 -5.58967,2.387454 -2.12218,2.368506 -2.12218,7.162362 z"
         id="path1602"
         style="fill:#d2ac95;fill-opacity:1" />
      <path
         d="M 250.64885,53.84536 V 26.067524 h 9.00032 q 5.11597,0 6.66971,0.416857 2.38746,0.625285 3.99804,2.728518 1.61058,2.084285 1.61058,5.400194 0,2.557986 -0.92845,4.301206 -0.92845,1.74322 -2.36851,2.747467 -1.4211,0.985298 -2.89905,1.307415 -2.00849,0.397909 -5.81705,0.397909 h -3.65697 v 10.47827 z m 5.60862,-23.078721 v 7.882388 h 3.06958 q 3.31591,0 4.43385,-0.435806 1.11793,-0.435805 1.74322,-1.364259 0.64423,-0.928454 0.64423,-2.160077 0,-1.515844 -0.89056,-2.501142 -0.89056,-0.985299 -2.25482,-1.231623 -1.00424,-0.189481 -4.03593,-0.189481 z"
         id="path1604"
         style="fill:#d2ac95;fill-opacity:1" />
    </g>
    <rect
       style="display:inline;vector-effect:non-scaling-stroke;fill:#d2ac95;fill-opacity:1;stroke-width:0.0257848;-inkscape-stroke:hairline"
       id="rect76101-3-4-0"
       width="109.40112"
       height="185.80661"
       x="-943.69897"
       y="198.4375"
       ry="12.391612"
       rx="11.207398"
       transform="rotate(-90)" />
    <g
       aria-label="LEVEL"
       id="text5660-3"
       style="font-weight:bold;font-size:21.1667px;line-height:1.25;font-family:Arial;-inkscape-font-specification:'Arial, Bold';font-variant-ligatures:none;text-align:center;text-anchor:middle;display:inline;fill:#d2ac95;fill-opacity:1;stroke-width:2.64583">
      <path
         d="m 26.556918,585.86664 v -15.02753 h 3.05925 v 12.47471 h 7.606783 v 2.55282 z"
         id="path1352"
         style="fill:#d2ac95;fill-opacity:1" />
      <path
         d="m 39.4037,585.86664 v -15.15156 h 11.234474 v 2.56316 H 42.46295 v 3.35897 h 7.606783 v 2.55282 H 42.46295 v 4.12379 h 8.464613 v 2.55282 z"
         id="path1354"
         style="fill:#d2ac95;fill-opacity:1" />
      <path
         d="M 57.387128,585.86664 51.97143,570.71508 h 3.317632 l 3.834397,11.21381 3.710374,-11.21381 h 3.245285 l -5.426034,15.15156 z"
         id="path1356"
         style="fill:#d2ac95;fill-opacity:1" />
      <path
         d="m 67.639748,585.86664 v -15.15156 h 11.234474 v 2.56316 h -8.175224 v 3.35897 h 7.606783 v 2.55282 h -7.606783 v 4.12379 h 8.464613 v 2.55282 z"
         id="path1358"
         style="fill:#d2ac95;fill-opacity:1" />
      <path
         d="m 81.840453,585.86664 v -15.02753 h 3.05925 v 12.47471 h 7.606783 v 2.55282 z"
         id="path1360"
         style="fill:#d2ac95;fill-opacity:1" />
    </g>
    <g
       aria-label="XMOD"
       id="text5660-3-3"
       style="font-weight:bold;font-size:21.1667px;line-height:1.25;font-family:Arial;-inkscape-font-specification:'Arial, Bold';font-variant-ligatures:none;text-align:center;text-anchor:middle;display:inline;fill:#d2ac95;fill-opacity:1;stroke-width:2.64583"
       transform="translate(0,275.4176)">
      <path
         d="m 120.91291,585.86664 5.17799,-7.90651 -4.69223,-7.24505 h 3.57602 l 3.03858,4.86793 2.97656,-4.86793 h 3.54501 l -4.7129,7.35874 5.17799,7.79282 h -3.6897 l -3.35898,-5.24 -3.3693,5.24 z"
         id="path1363"
         style="fill:#d2ac95;fill-opacity:1" />
      <path
         d="m 136.52956,585.86664 v -15.15156 h 4.57854 l 2.74919,10.33531 2.71818,-10.33531 h 4.58888 v 15.15156 h -2.84221 V 573.9397 l -3.00758,11.92694 H 142.369 l -2.99724,-11.92694 v 11.92694 z"
         id="path1365"
         style="fill:#d2ac95;fill-opacity:1" />
      <path
         d="m 153.5828,578.38388 q 0,-2.31511 0.69247,-3.88608 0.51677,-1.15755 1.4056,-2.07739 0.89917,-0.91984 1.96371,-1.36426 1.41594,-0.59945 3.26595,-0.59945 3.34864,0 5.35369,2.0774 2.01539,2.07739 2.01539,5.77743 0,3.66903 -1.99472,5.74643 -1.99471,2.06706 -5.33301,2.06706 -3.37965,0 -5.37436,-2.05672 -1.99472,-2.06707 -1.99472,-5.68442 z m 3.15227,-0.10335 q 0,2.57349 1.18856,3.90674 1.18856,1.32292 3.01791,1.32292 1.82935,0 2.99724,-1.31258 1.17822,-1.32292 1.17822,-3.95843 0,-2.60449 -1.14722,-3.88607 -1.13688,-1.28158 -3.02824,-1.28158 -1.89136,0 -3.04891,1.30225 -1.15756,1.29191 -1.15756,3.90675 z"
         id="path1367"
         style="fill:#d2ac95;fill-opacity:1" />
      <path
         d="m 170.65673,570.71508 h 5.59139 q 1.89137,0 2.88355,0.28939 1.33326,0.39274 2.28411,1.39527 0.95084,1.00252 1.44694,2.4598 0.49609,1.44694 0.49609,3.57602 0,1.87069 -0.46509,3.22461 -0.56844,1.65365 -1.62264,2.67684 -0.79582,0.77515 -2.14974,1.20923 -1.01286,0.3204 -2.70785,0.3204 h -5.75676 z m 3.05925,2.56316 v 10.03558 h 2.2841 q 1.28157,0 1.85002,-0.1447 0.74414,-0.18603 1.2299,-0.63045 0.49609,-0.44442 0.80615,-1.45728 0.31006,-1.02319 0.31006,-2.78019 0,-1.75701 -0.31006,-2.69752 -0.31006,-0.94051 -0.86816,-1.46761 -0.55811,-0.5271 -1.41594,-0.71314 -0.64079,-0.14469 -2.51148,-0.14469 z"
         id="path1369"
         style="fill:#d2ac95;fill-opacity:1" />
    </g>
    <g
       aria-label="FDBK"
       id="text5660-3-1"
       style="font-weight:bold;font-size:21.1667px;line-height:1.25;font-family:Arial;-inkscape-font-specification:'Arial, Bold';font-variant-ligatures:none;text-align:center;text-anchor:middle;display:inline;fill:#d2ac95;fill-opacity:1;stroke-width:2.64583">
      <path
         d="m 216.14742,585.86664 v -15.15156 h 10.38698 v 2.56316 h -7.32773 v 3.58635 h 6.32521 v 2.56315 h -6.32521 v 6.4389 z"
         id="path1372"
         style="fill:#d2ac95;fill-opacity:1" />
      <path
         d="m 229.04588,570.71508 h 5.5914 q 1.89136,0 2.88355,0.28939 1.33325,0.39274 2.2841,1.39527 0.95085,1.00252 1.44694,2.4598 0.4961,1.44694 0.4961,3.57602 0,1.87069 -0.46509,3.22461 -0.56844,1.65365 -1.62264,2.67684 -0.79582,0.77515 -2.14975,1.20923 -1.01286,0.3204 -2.70785,0.3204 h -5.75676 z m 3.05925,2.56316 v 10.03558 h 2.2841 q 1.28158,0 1.85002,-0.1447 0.74414,-0.18603 1.2299,-0.63045 0.4961,-0.44442 0.80616,-1.45728 0.31005,-1.02319 0.31005,-2.78019 0,-1.75701 -0.31005,-2.69752 -0.31006,-0.94051 -0.86817,-1.46761 -0.55811,-0.5271 -1.41594,-0.71314 -0.64079,-0.14469 -2.51147,-0.14469 z"
         id="path1374"
         style="fill:#d2ac95;fill-opacity:1" />
      <path
         d="m 244.35246,570.71508 h 6.05649 q 1.79834,0 2.67685,0.15503 0.88883,0.1447 1.5813,0.62012 0.7028,0.47543 1.16789,1.27124 0.46508,0.78549 0.46508,1.76734 0,1.06454 -0.57877,1.95337 -0.56844,0.88884 -1.5503,1.33326 1.38493,0.40307 2.12907,1.37459 0.74415,0.97152 0.74415,2.2841 0,1.03353 -0.48576,2.01539 -0.47543,0.97152 -1.31259,1.56063 -0.82682,0.57878 -2.04639,0.71314 -0.76481,0.0827 -3.6897,0.10335 h -5.15732 z m 3.05925,2.52182 v 3.50367 h 2.00505 q 1.78801,0 2.22209,-0.0517 0.78549,-0.093 1.2299,-0.53744 0.45476,-0.45475 0.45476,-1.18856 0,-0.7028 -0.39274,-1.13688 -0.38241,-0.44442 -1.14722,-0.53744 -0.45476,-0.0517 -2.61483,-0.0517 z m 0,6.02548 v 4.05144 h 2.83188 q 1.65365,0 2.09806,-0.093 0.68213,-0.12402 1.10588,-0.59945 0.43408,-0.48576 0.43408,-1.29191 0,-0.68213 -0.33073,-1.15755 -0.33073,-0.47543 -0.96118,-0.69247 -0.62012,-0.21704 -2.70785,-0.21704 z"
         id="path1376"
         style="fill:#d2ac95;fill-opacity:1" />
      <path
         d="m 259.66938,585.86664 v -15.15156 h 3.05925 v 6.72829 l 6.18051,-6.72829 h 4.11345 l -5.70508,5.90146 6.01514,9.2501 h -3.95842 l -4.16513,-7.11069 -2.48047,2.53215 v 4.57854 z"
         id="path1378"
         style="fill:#d2ac95;fill-opacity:1" />
    </g>
    <g
       aria-label="MULT"
       id="text5660-3-3-1"
       style="font-weight:bold;font-size:21.1667px;line-height:1.25;font-family:Arial;-inkscape-font-specification:'Arial, Bold';font-variant-ligatures:none;text-align:center;text-anchor:middle;display:inline;fill:#d2ac95;fill-opacity:1;stroke-width:2.64583">
      <path
         d="M 31.8951,379.58865 V 364.4371 h 4.578539 l 2.74919,10.3353 2.718185,-10.3353 h 4.588875 v 15.15155 H 43.68768 v -11.92694 l -3.007573,11.92694 h -2.945561 l -2.997238,-11.92694 v 11.92694 z"
         id="path1390"
         style="fill:#d2ac95;fill-opacity:1" />
      <path
         d="m 49.547797,364.4371 h 3.05925 v 8.20623 q 0,1.95337 0.113688,2.53215 0.196371,0.93018 0.930177,1.49862 0.744142,0.5581 2.02572,0.5581 1.302248,0 1.963707,-0.5271 0.66146,-0.53743 0.795819,-1.31258 0.134358,-0.77515 0.134358,-2.57349 v -8.38193 h 3.05925 v 7.95818 q 0,2.72852 -0.248047,3.85507 -0.248047,1.12655 -0.919842,1.9017 -0.66146,0.77514 -1.777672,1.24023 -1.116213,0.45476 -2.914556,0.45476 -2.170413,0 -3.296961,-0.4961 -1.116213,-0.50643 -1.767337,-1.30225 -0.651124,-0.80615 -0.85783,-1.68465 -0.299724,-1.30225 -0.299724,-3.84473 z"
         id="path1392"
         style="fill:#d2ac95;fill-opacity:1" />
      <path
         d="m 64.937062,379.58865 v -15.02753 h 3.059249 v 12.47471 h 7.606783 v 2.55282 z"
         id="path1394"
         style="fill:#d2ac95;fill-opacity:1" />
      <path
         d="m 79.623527,379.58865 v -12.5884 H 75.12767 v -2.56315 h 12.040628 v 2.56315 h -4.485522 v 12.5884 z"
         id="path1396"
         style="fill:#d2ac95;fill-opacity:1" />
    </g>
    <g
       aria-label="DIV"
       id="text5660-3-3-9"
       style="font-weight:bold;font-size:21.1667px;line-height:1.25;font-family:Arial;-inkscape-font-specification:'Arial, Bold';font-variant-ligatures:none;text-align:center;text-anchor:middle;display:inline;fill:#d2ac95;fill-opacity:1;stroke-width:2.64583">
      <path
         d="m 135.26866,364.56628 h 5.5914 q 1.89136,0 2.88354,0.28939 1.33326,0.39274 2.28411,1.39526 0.95084,1.00253 1.44694,2.45981 0.49609,1.44694 0.49609,3.57601 0,1.87069 -0.46509,3.22462 -0.56844,1.65364 -1.62264,2.67684 -0.79582,0.77515 -2.14974,1.20923 -1.01286,0.32039 -2.70785,0.32039 h -5.75676 z m 3.05925,2.56316 v 10.03557 h 2.2841 q 1.28158,0 1.85002,-0.14469 0.74414,-0.18604 1.2299,-0.63045 0.49609,-0.44442 0.80615,-1.45728 0.31006,-1.0232 0.31006,-2.7802 0,-1.757 -0.31006,-2.69751 -0.31006,-0.94051 -0.86816,-1.46761 -0.55811,-0.5271 -1.41594,-0.71314 -0.64079,-0.14469 -2.51148,-0.14469 z"
         id="path1399"
         style="fill:#d2ac95;fill-opacity:1" />
      <path
         d="m 150.47189,379.71783 v -15.15155 h 3.05925 v 15.15155 z"
         id="path1401"
         style="fill:#d2ac95;fill-opacity:1" />
      <path
         d="m 160.3111,379.71783 -5.4157,-15.15155 h 3.31763 l 3.8344,11.2138 3.71037,-11.2138 h 3.24528 l -5.42603,15.15155 z"
         id="path1403"
         style="fill:#d2ac95;fill-opacity:1" />
    </g>
    <g
       aria-label="DTUNE"
       id="text5660-3-3-91"
       style="font-weight:bold;font-size:21.1667px;line-height:1.25;font-family:Arial;-inkscape-font-specification:'Arial, Bold';font-variant-ligatures:none;text-align:center;text-anchor:middle;display:inline;fill:#d2ac95;fill-opacity:1;stroke-width:2.64583">
      <path
         d="m 209.57933,364.4371 h 5.5914 q 1.89136,0 2.88355,0.28939 1.33325,0.39274 2.2841,1.39526 0.95085,1.00253 1.44694,2.45981 0.4961,1.44694 0.4961,3.57601 0,1.87069 -0.46509,3.22462 -0.56844,1.65364 -1.62264,2.67684 -0.79582,0.77515 -2.14975,1.20923 -1.01286,0.32039 -2.70785,0.32039 h -5.75676 z m 3.05925,2.56315 v 10.03558 h 2.2841 q 1.28158,0 1.85002,-0.14469 0.74414,-0.18604 1.2299,-0.63045 0.4961,-0.44442 0.80616,-1.45728 0.31006,-1.0232 0.31006,-2.7802 0,-1.757 -0.31006,-2.69751 -0.31006,-0.94051 -0.86817,-1.46762 -0.55811,-0.5271 -1.41594,-0.71313 -0.64078,-0.1447 -2.51147,-0.1447 z"
         id="path1406"
         style="fill:#d2ac95;fill-opacity:1" />
      <path
         d="m 228.28623,379.58865 v -12.5884 h -4.49586 V 364.4371 H 235.831 v 2.56315 h -4.48552 v 12.5884 z"
         id="path1408"
         style="fill:#d2ac95;fill-opacity:1" />
      <path
         d="m 237.78437,364.4371 h 3.05925 v 8.20623 q 0,1.95337 0.11369,2.53215 0.19637,0.93018 0.93018,1.49862 0.74414,0.5581 2.02572,0.5581 1.30225,0 1.96371,-0.5271 0.66145,-0.53743 0.79581,-1.31258 0.13436,-0.77515 0.13436,-2.57349 v -8.38193 h 3.05925 v 7.95818 q 0,2.72852 -0.24804,3.85507 -0.24805,1.12655 -0.91985,1.9017 -0.66146,0.77514 -1.77767,1.24023 -1.11621,0.45476 -2.91455,0.45476 -2.17042,0 -3.29697,-0.4961 -1.11621,-0.50643 -1.76733,-1.30225 -0.65113,-0.80615 -0.85783,-1.68465 -0.29973,-1.30225 -0.29973,-3.84473 z"
         id="path1410"
         style="fill:#d2ac95;fill-opacity:1" />
      <path
         d="M 253.12196,379.58865 V 364.4371 h 2.97657 l 6.20118,10.11826 V 364.4371 h 2.84221 v 15.15155 h -3.06959 l -6.10816,-9.88055 v 9.88055 z"
         id="path1412"
         style="fill:#d2ac95;fill-opacity:1" />
      <path
         d="M 268.37687,379.58865 V 364.4371 h 11.23448 v 2.56315 h -8.17523 v 3.35898 h 7.60678 v 2.55282 h -7.60678 v 4.12378 h 8.46461 v 2.55282 z"
         id="path1414"
         style="fill:#d2ac95;fill-opacity:1" />
    </g>
    <g
       aria-label="ATK"
       id="text5660-3-3-1-4"
       style="font-weight:bold;font-size:21.1667px;line-height:1.25;font-family:Arial;-inkscape-font-specification:'Arial, Bold';font-variant-ligatures:none;text-align:center;text-anchor:middle;display:inline;fill:#d2ac95;fill-opacity:1;stroke-width:2.64583">
      <path
         d="m 53.2375,201.02072 h -3.327967 l -1.322919,-3.44165 h -6.056488 l -1.250571,3.44165 H 38.03427 l 5.901458,-15.15155 h 3.234949 z m -5.63274,-5.99447 -2.087731,-5.62241 -2.04639,5.62241 z"
         id="path1417"
         style="fill:#d2ac95;fill-opacity:1" />
      <path
         d="m 56.699826,201.02072 v -12.5884 H 52.20397 v -2.56315 h 12.040628 v 2.56315 h -4.485522 v 12.5884 z"
         id="path1419"
         style="fill:#d2ac95;fill-opacity:1" />
      <path
         d="m 66.259982,201.02072 v -15.15155 h 3.05925 v 6.72828 l 6.180511,-6.72828 h 4.11345 l -5.705087,5.90146 6.015147,9.25009 h -3.958421 l -4.165128,-7.11069 -2.480472,2.53215 v 4.57854 z"
         id="path1421"
         style="fill:#d2ac95;fill-opacity:1" />
    </g>
    <g
       aria-label="DEC"
       id="text5660-3-3-1-9"
       style="font-weight:bold;font-size:21.1667px;line-height:1.25;font-family:Arial;-inkscape-font-specification:'Arial, Bold';font-variant-ligatures:none;text-align:center;text-anchor:middle;display:inline;fill:#d2ac95;fill-opacity:1;stroke-width:2.64583">
      <path
         d="m 130.78829,185.86917 h 5.5914 q 1.89136,0 2.88355,0.28939 1.33325,0.39274 2.2841,1.39526 0.95085,1.00253 1.44694,2.4598 0.4961,1.44695 0.4961,3.57602 0,1.87069 -0.46509,3.22461 -0.56844,1.65365 -1.62264,2.67685 -0.79582,0.77514 -2.14975,1.20923 -1.01285,0.32039 -2.70784,0.32039 h -5.75677 z m 3.05925,2.56315 v 10.03558 h 2.2841 q 1.28158,0 1.85002,-0.14469 0.74414,-0.18604 1.2299,-0.63046 0.4961,-0.44441 0.80616,-1.45727 0.31006,-1.0232 0.31006,-2.7802 0,-1.757 -0.31006,-2.69751 -0.31006,-0.94052 -0.86817,-1.46762 -0.5581,-0.5271 -1.41593,-0.71313 -0.64079,-0.1447 -2.51148,-0.1447 z"
         id="path1424"
         style="fill:#d2ac95;fill-opacity:1" />
      <path
         d="m 146.08454,201.02072 v -15.15155 h 11.23447 v 2.56315 h -8.17522 v 3.35898 h 7.60678 v 2.55282 h -7.60678 v 4.12378 h 8.46461 v 2.55282 z"
         id="path1426"
         style="fill:#d2ac95;fill-opacity:1" />
      <path
         d="m 169.89708,195.44999 2.96623,0.94052 q -0.68213,2.48047 -2.27377,3.6897 -1.5813,1.19889 -4.02043,1.19889 -3.01791,0 -4.96094,-2.05672 -1.94304,-2.06706 -1.94304,-5.64308 0,-3.78272 1.95337,-5.87045 1.95337,-2.09807 5.13665,-2.09807 2.78019,0 4.51652,1.64332 1.03354,0.97152 1.5503,2.79053 l -3.02824,0.72347 q -0.26872,-1.17822 -1.12655,-1.86035 -0.8475,-0.68213 -2.06706,-0.68213 -1.68466,0 -2.73886,1.20923 -1.04386,1.20923 -1.04386,3.91708 0,2.87321 1.03353,4.09278 1.03353,1.21956 2.68718,1.21956 1.21956,0 2.09806,-0.77515 0.8785,-0.77514 1.26091,-2.43913 z"
         id="path1428"
         style="fill:#d2ac95;fill-opacity:1" />
    </g>
    <g
       aria-label="SUS"
       id="text5660-3-3-1-5"
       style="font-weight:bold;font-size:21.1667px;line-height:1.25;font-family:Arial;-inkscape-font-specification:'Arial, Bold';font-variant-ligatures:none;text-align:center;text-anchor:middle;display:inline;fill:#d2ac95;fill-opacity:1;stroke-width:2.64583">
      <path
         d="m 223.2116,196.09078 2.97656,-0.28939 q 0.26872,1.49862 1.08521,2.20142 0.82682,0.7028 2.22209,0.7028 1.47795,0 2.22209,-0.62011 0.75448,-0.63046 0.75448,-1.46762 0,-0.53743 -0.3204,-0.9095 -0.31006,-0.38241 -1.09554,-0.66146 -0.53744,-0.18604 -2.44947,-0.66146 -2.4598,-0.60979 -3.45199,-1.49862 -1.39526,-1.25057 -1.39526,-3.04892 0,-1.15755 0.65112,-2.16007 0.66146,-1.01286 1.89136,-1.53996 1.24024,-0.52711 2.9869,-0.52711 2.85255,0 4.28915,1.25058 1.44695,1.25057 1.51929,3.3383 l -3.05925,0.13436 q -0.19637,-1.16789 -0.84749,-1.67432 -0.64079,-0.51677 -1.9327,-0.51677 -1.33326,0 -2.08773,0.54778 -0.48576,0.3514 -0.48576,0.94051 0,0.53743 0.45475,0.91984 0.57878,0.48576 2.8112,1.01286 2.23243,0.5271 3.29696,1.09554 1.07488,0.55811 1.67432,1.53996 0.60979,0.97152 0.60979,2.40813 0,1.30225 -0.72347,2.43913 -0.72348,1.13688 -2.04639,1.69499 -1.32292,0.54777 -3.29697,0.54777 -2.87321,0 -4.41317,-1.32292 -1.53996,-1.33325 -1.83968,-3.87574 z"
         id="path1431"
         style="fill:#d2ac95;fill-opacity:1" />
      <path
         d="m 238.0841,185.86917 h 3.05925 v 8.20623 q 0,1.95337 0.11368,2.53215 0.19638,0.93017 0.93018,1.49862 0.74414,0.5581 2.02572,0.5581 1.30225,0 1.96371,-0.5271 0.66146,-0.53743 0.79582,-1.31258 0.13436,-0.77515 0.13436,-2.57349 v -8.38193 h 3.05925 v 7.95818 q 0,2.72852 -0.24805,3.85507 -0.24805,1.12655 -0.91984,1.90169 -0.66146,0.77515 -1.77768,1.24024 -1.11621,0.45475 -2.91455,0.45475 -2.17041,0 -3.29696,-0.49609 -1.11622,-0.50643 -1.76734,-1.30225 -0.65112,-0.80615 -0.85783,-1.68465 -0.29972,-1.30225 -0.29972,-3.84474 z"
         id="path1433"
         style="fill:#d2ac95;fill-opacity:1" />
      <path
         d="m 252.61553,196.09078 2.97657,-0.28939 q 0.26872,1.49862 1.08521,2.20142 0.82682,0.7028 2.22209,0.7028 1.47795,0 2.22209,-0.62011 0.75448,-0.63046 0.75448,-1.46762 0,-0.53743 -0.3204,-0.9095 -0.31006,-0.38241 -1.09554,-0.66146 -0.53744,-0.18604 -2.44947,-0.66146 -2.4598,-0.60979 -3.45199,-1.49862 -1.39526,-1.25057 -1.39526,-3.04892 0,-1.15755 0.65112,-2.16007 0.66146,-1.01286 1.89136,-1.53996 1.24024,-0.52711 2.9869,-0.52711 2.85255,0 4.28915,1.25058 1.44695,1.25057 1.51929,3.3383 l -3.05925,0.13436 q -0.19637,-1.16789 -0.84749,-1.67432 -0.64079,-0.51677 -1.9327,-0.51677 -1.33326,0 -2.08773,0.54778 -0.48576,0.3514 -0.48576,0.94051 0,0.53743 0.45475,0.91984 0.57878,0.48576 2.8112,1.01286 2.23243,0.5271 3.29696,1.09554 1.07487,0.55811 1.67432,1.53996 0.60979,0.97152 0.60979,2.40813 0,1.30225 -0.72348,2.43913 -0.72347,1.13688 -2.04639,1.69499 -1.32291,0.54777 -3.29696,0.54777 -2.87321,0 -4.41317,-1.32292 -1.53996,-1.33325 -1.83969,-3.87574 z"
         id="path1435"
         style="fill:#d2ac95;fill-opacity:1" />
    </g>
    <g
       aria-label="REL"
       id="text5660-3-3-1-0"
       style="font-weight:bold;font-size:21.1667px;line-height:1.25;font-family:Arial;-inkscape-font-specification:'Arial, Bold';font-variant-ligatures:none;text-align:center;text-anchor:middle;display:inline;fill:#d2ac95;fill-opacity:1;stroke-width:2.64583">
      <path
         d="m 317.19555,201.02072 v -15.15155 h 6.43889 q 2.4288,0 3.52434,0.41341 1.10588,0.40308 1.76733,1.44694 0.66146,1.04387 0.66146,2.38746 0,1.70532 -1.00252,2.82153 -1.00252,1.10588 -2.99724,1.39527 0.99219,0.57878 1.63298,1.27124 0.65112,0.69247 1.74667,2.4598 l 1.85001,2.9559 h -3.65869 l -2.21176,-3.29696 q -1.17822,-1.76734 -1.6123,-2.22209 -0.43409,-0.46509 -0.91985,-0.63045 -0.48576,-0.1757 -1.53996,-0.1757 h -0.62011 v 6.3252 z m 3.05925,-8.74366 h 2.26343 q 2.20142,0 2.74919,-0.18604 0.54777,-0.18604 0.85783,-0.64079 0.31006,-0.45475 0.31006,-1.13688 0,-0.76481 -0.41342,-1.2299 -0.40307,-0.47543 -1.14721,-0.59945 -0.37208,-0.0517 -2.23243,-0.0517 h -2.38745 z"
         id="path1438"
         style="fill:#d2ac95;fill-opacity:1" />
      <path
         d="m 332.47112,201.02072 v -15.15155 h 11.23448 v 2.56315 h -8.17523 v 3.35898 h 7.60679 v 2.55282 h -7.60679 v 4.12378 h 8.46462 v 2.55282 z"
         id="path1440"
         style="fill:#d2ac95;fill-opacity:1" />
      <path
         d="m 346.67183,201.02072 v -15.02753 h 3.05925 v 12.47471 h 7.60678 v 2.55282 z"
         id="path1442"
         style="fill:#d2ac95;fill-opacity:1" />
    </g>
    <g
       aria-label="V/OCT"
       id="text5660-3-3-1-6"
       style="font-weight:bold;font-size:21.1667px;line-height:1.25;font-family:Arial;-inkscape-font-specification:'Arial, Bold';font-variant-ligatures:none;text-align:center;text-anchor:middle;display:inline;fill:#d2ac95;fill-opacity:1;stroke-width:2.64583">
      <path
         d="m 32.820111,861.28424 -5.415699,-15.15155 h 3.317632 l 3.834398,11.2138 3.710373,-11.2138 H 41.5121 l -5.426034,15.15155 z"
         id="path1506"
         style="fill:#d2ac95;fill-opacity:1" />
      <path
         d="M 41.501765,861.54262 45.25348,845.8743 h 2.180749 l -3.793056,15.66832 z"
         id="path1508"
         style="fill:#d2ac95;fill-opacity:1" />
      <path
         d="m 48.333401,853.80148 q 0,-2.31511 0.692465,-3.88607 0.516765,-1.15756 1.405601,-2.0774 0.899172,-0.91984 1.963708,-1.36426 1.415936,-0.59945 3.265956,-0.59945 3.348638,0 5.353687,2.0774 2.015384,2.0774 2.015384,5.77743 0,3.66904 -1.994714,5.74643 -1.994713,2.06706 -5.333016,2.06706 -3.379644,0 -5.374358,-2.05672 -1.994713,-2.06706 -1.994713,-5.68442 z m 3.152267,-0.10335 q 0,2.57349 1.18856,3.90674 1.18856,1.32292 3.017909,1.32292 1.829348,0 2.997237,-1.31258 1.178225,-1.32292 1.178225,-3.95842 0,-2.6045 -1.147219,-3.88608 -1.136883,-1.28157 -3.028243,-1.28157 -1.891361,0 -3.048915,1.30224 -1.157554,1.29192 -1.157554,3.90675 z"
         id="path1510"
         style="fill:#d2ac95;fill-opacity:1" />
      <path
         d="m 75.112169,855.71351 2.966232,0.94052 q -0.68213,2.48047 -2.273766,3.6897 -1.581302,1.19889 -4.020433,1.19889 -3.017909,0 -4.960946,-2.05672 -1.943037,-2.06706 -1.943037,-5.64308 0,-3.78272 1.953373,-5.87045 1.953372,-2.09807 5.136645,-2.09807 2.780197,0 4.516528,1.64332 1.03353,0.97152 1.550295,2.79053 l -3.028244,0.72347 q -0.268718,-1.17822 -1.126548,-1.86035 -0.847495,-0.68213 -2.06706,-0.68213 -1.684655,0 -2.738856,1.20923 -1.043865,1.20923 -1.043865,3.91708 0,2.87321 1.03353,4.09278 1.03353,1.21956 2.687179,1.21956 1.219566,0 2.098066,-0.77515 0.878501,-0.77514 1.260907,-2.43913 z"
         id="path1512"
         style="fill:#d2ac95;fill-opacity:1" />
      <path
         d="m 84.114221,861.28424 v -12.5884 h -4.495857 v -2.56315 h 12.040628 v 2.56315 H 87.17347 v 12.5884 z"
         id="path1514"
         style="fill:#d2ac95;fill-opacity:1" />
    </g>
    <g
       aria-label="GATE"
       id="text5660-3-3-1-2"
       style="font-weight:bold;font-size:21.1667px;line-height:1.25;font-family:Arial;-inkscape-font-specification:'Arial, Bold';font-variant-ligatures:none;text-align:center;text-anchor:middle;display:inline;fill:#d2ac95;fill-opacity:1;stroke-width:2.64583"
       transform="translate(185.20834,-107.31473)">
      <path
         d="m 132.13189,855.71351 v -2.55282 h 6.59392 v 6.03582 q -0.96118,0.93018 -2.79053,1.64331 -1.81901,0.7028 -3.6897,0.7028 -2.37712,0 -4.14446,-0.99219 -1.76733,-1.00252 -2.65617,-2.85254 -0.88884,-1.86035 -0.88884,-4.0411 0,-2.36679 0.99219,-4.20647 0.99219,-1.83969 2.90422,-2.82154 1.45728,-0.75448 3.62769,-0.75448 2.82154,0 4.40284,1.18856 1.59164,1.17823 2.04639,3.26596 l -3.03858,0.56844 q -0.32039,-1.11621 -1.20923,-1.757 -0.8785,-0.65112 -2.20142,-0.65112 -2.00504,0 -3.1936,1.27124 -1.17823,1.27124 -1.17823,3.77238 0,2.69752 1.1989,4.05144 1.19889,1.34359 3.14193,1.34359 0.96118,0 1.92236,-0.37207 0.97152,-0.38241 1.66399,-0.91984 v -1.92237 z"
         id="path1517"
         style="fill:#d2ac95;fill-opacity:1" />
      <path
         d="m 155.21062,861.28424 h -3.32797 l -1.32291,-3.44166 h -6.05649 l -1.25057,3.44166 h -3.24529 l 5.90146,-15.15155 h 3.23495 z m -5.63274,-5.99447 -2.08773,-5.62241 -2.04639,5.62241 z"
         id="path1519"
         style="fill:#d2ac95;fill-opacity:1" />
      <path
         d="m 158.67295,861.28424 v -12.5884 h -4.49586 v -2.56315 h 12.04063 v 2.56315 h -4.48552 v 12.5884 z"
         id="path1521"
         style="fill:#d2ac95;fill-opacity:1" />
      <path
         d="m 168.19176,861.28424 v -15.15155 h 11.23448 v 2.56315 h -8.17523 v 3.35898 h 7.60679 v 2.55282 h -7.60679 v 4.12378 h 8.46462 v 2.55282 z"
         id="path1523"
         style="fill:#d2ac95;fill-opacity:1" />
    </g>
    <g
       aria-label="WAVE"
       id="text5660-3-3-1-7"
       style="font-weight:bold;font-size:21.1667px;line-height:1.25;font-family:Arial;-inkscape-font-specification:'Arial, Bold';font-variant-ligatures:none;text-align:center;text-anchor:middle;display:inline;fill:#d2ac95;fill-opacity:1;stroke-width:2.64583">
      <path
         d="M 33.331705,92.636803 29.714349,77.485249 h 3.131597 l 2.284102,10.40765 2.769861,-10.40765 h 3.638027 l 2.656173,10.58335 2.325443,-10.58335 h 3.07992 L 45.920104,92.636803 H 42.674819 L 39.656911,81.309311 36.649337,92.636803 Z"
         id="path1452"
         style="fill:#d2ac95;fill-opacity:1" />
      <path
         d="M 63.655484,92.636803 H 60.327516 L 59.004598,89.195147 H 52.94811 l -1.250572,3.441656 h -3.245285 l 5.901458,-15.151554 h 3.23495 z m -5.63274,-5.994476 -2.087731,-5.622405 -2.04639,5.622405 z"
         id="path1454"
         style="fill:#d2ac95;fill-opacity:1" />
      <path
         d="M 67.572565,92.636803 62.156867,77.485249 h 3.317632 l 3.834397,11.213803 3.710374,-11.213803 h 3.245285 l -5.426034,15.151554 z"
         id="path1456"
         style="fill:#d2ac95;fill-opacity:1" />
      <path
         d="M 77.825185,92.636803 V 77.485249 h 11.234474 v 2.563155 h -8.175224 v 3.358973 h 7.606783 v 2.55282 h -7.606783 v 4.123786 h 8.464613 v 2.55282 z"
         id="path1458"
         style="fill:#d2ac95;fill-opacity:1" />
    </g>
    <g
       aria-label="XMOD"
       id="text5660-3-3-1-05"
       style="font-weight:bold;font-size:21.1667px;line-height:1.25;font-family:Arial;-inkscape-font-specification:'Arial, Bold';font-variant-ligatures:none;text-align:center;text-anchor:middle;display:inline;fill:#d2ac95;fill-opacity:1;stroke-width:2.64583">
      <path
         d="m 120.91291,92.636803 5.17799,-7.906507 -4.69223,-7.245047 h 3.57602 l 3.03858,4.867927 2.97656,-4.867927 h 3.54501 l -4.7129,7.358735 5.17799,7.792819 h -3.6897 l -3.35898,-5.239999 -3.3693,5.239999 z"
         id="path1461"
         style="fill:#d2ac95;fill-opacity:1" />
      <path
         d="M 136.52956,92.636803 V 77.485249 h 4.57854 l 2.74919,10.335303 2.71818,-10.335303 h 4.58888 v 15.151554 h -2.84221 v -11.92694 l -3.00758,11.92694 H 142.369 l -2.99724,-11.92694 v 11.92694 z"
         id="path1463"
         style="fill:#d2ac95;fill-opacity:1" />
      <path
         d="m 153.5828,85.154043 q 0,-2.315107 0.69247,-3.886074 0.51677,-1.157553 1.4056,-2.077395 0.89917,-0.919842 1.96371,-1.36426 1.41594,-0.599448 3.26595,-0.599448 3.34864,0 5.35369,2.077396 2.01539,2.077396 2.01539,5.777434 0,3.669033 -1.99472,5.746429 -1.99471,2.06706 -5.33301,2.06706 -3.37965,0 -5.37436,-2.056725 -1.99472,-2.067061 -1.99472,-5.684417 z m 3.15227,-0.103353 q 0,2.573491 1.18856,3.906745 1.18856,1.322919 3.01791,1.322919 1.82935,0 2.99724,-1.312584 1.17822,-1.322919 1.17822,-3.958421 0,-2.604496 -1.14722,-3.886074 -1.13688,-1.281577 -3.02824,-1.281577 -1.89136,0 -3.04891,1.302248 -1.15756,1.291913 -1.15756,3.906744 z"
         id="path1465"
         style="fill:#d2ac95;fill-opacity:1" />
      <path
         d="m 170.65673,77.485249 h 5.59139 q 1.89137,0 2.88355,0.289388 1.33326,0.392742 2.28411,1.395266 0.95084,1.002524 1.44694,2.459802 0.49609,1.446942 0.49609,3.576015 0,1.87069 -0.46509,3.224614 -0.56844,1.653649 -1.62264,2.676844 -0.79582,0.775148 -2.14974,1.20923 -1.01286,0.320395 -2.70785,0.320395 h -5.75676 z m 3.05925,2.563155 v 10.035579 h 2.2841 q 1.28157,0 1.85002,-0.144694 0.74414,-0.186036 1.2299,-0.630454 0.49609,-0.444418 0.80615,-1.457278 0.31006,-1.023195 0.31006,-2.780196 0,-1.757002 -0.31006,-2.697514 -0.31006,-0.940513 -0.86816,-1.467613 -0.55811,-0.527101 -1.41594,-0.713136 -0.64079,-0.144694 -2.51148,-0.144694 z"
         id="path1467"
         style="fill:#d2ac95;fill-opacity:1" />
    </g>
    <g
       aria-label="FDBK"
       id="text5660-3-3-1-45"
       style="font-weight:bold;font-size:21.1667px;line-height:1.25;font-family:Arial;-inkscape-font-specification:'Arial, Bold';font-variant-ligatures:none;text-align:center;text-anchor:middle;display:inline;fill:#d2ac95;fill-opacity:1;stroke-width:2.64583">
      <path
         d="M 216.14742,92.636803 V 77.485249 h 10.38698 v 2.563155 h -7.32773 v 3.58635 h 6.32521 v 2.563155 h -6.32521 v 6.438894 z"
         id="path1470"
         style="fill:#d2ac95;fill-opacity:1" />
      <path
         d="m 229.04588,77.485249 h 5.5914 q 1.89136,0 2.88355,0.289388 1.33325,0.392742 2.2841,1.395266 0.95085,1.002524 1.44694,2.459802 0.4961,1.446942 0.4961,3.576015 0,1.87069 -0.46509,3.224614 -0.56844,1.653649 -1.62264,2.676844 -0.79582,0.775148 -2.14975,1.20923 -1.01286,0.320395 -2.70785,0.320395 h -5.75676 z m 3.05925,2.563155 v 10.035579 h 2.2841 q 1.28158,0 1.85002,-0.144694 0.74414,-0.186036 1.2299,-0.630454 0.4961,-0.444418 0.80616,-1.457278 0.31005,-1.023195 0.31005,-2.780196 0,-1.757002 -0.31005,-2.697514 -0.31006,-0.940513 -0.86817,-1.467613 -0.55811,-0.527101 -1.41594,-0.713136 -0.64079,-0.144694 -2.51147,-0.144694 z"
         id="path1472"
         style="fill:#d2ac95;fill-opacity:1" />
      <path
         d="m 244.35246,77.485249 h 6.05649 q 1.79834,0 2.67685,0.155029 0.88883,0.144694 1.5813,0.620118 0.7028,0.475424 1.16789,1.271243 0.46508,0.785483 0.46508,1.767336 0,1.064537 -0.57877,1.953373 -0.56844,0.888836 -1.5503,1.333254 1.38493,0.403077 2.12907,1.374595 0.74415,0.971518 0.74415,2.284102 0,1.03353 -0.48576,2.015384 -0.47543,0.971518 -1.31259,1.560631 -0.82682,0.578777 -2.04639,0.713136 -0.76481,0.08268 -3.6897,0.103353 h -5.15732 z m 3.05925,2.521814 v 3.503667 h 2.00505 q 1.78801,0 2.22209,-0.05168 0.78549,-0.09302 1.2299,-0.537436 0.45476,-0.454753 0.45476,-1.18856 0,-0.7028 -0.39274,-1.136883 -0.38241,-0.444418 -1.14722,-0.537436 -0.45476,-0.05168 -2.61483,-0.05168 z m 0,6.025481 v 4.051439 h 2.83188 q 1.65365,0 2.09806,-0.09302 0.68213,-0.124024 1.10588,-0.599447 0.43408,-0.48576 0.43408,-1.291913 0,-0.68213 -0.33073,-1.157554 -0.33073,-0.475424 -0.96118,-0.692466 -0.62012,-0.217041 -2.70785,-0.217041 z"
         id="path1474"
         style="fill:#d2ac95;fill-opacity:1" />
      <path
         d="M 259.66938,92.636803 V 77.485249 h 3.05925 v 6.728282 l 6.18051,-6.728282 h 4.11345 l -5.70508,5.901458 6.01514,9.250096 h -3.95842 l -4.16513,-7.110689 -2.48047,2.532149 v 4.57854 z"
         id="path1476"
         style="fill:#d2ac95;fill-opacity:1" />
    </g>
    <g
       aria-label="CURVE"
       id="text5660-3-3-1-57"
       style="font-weight:bold;font-size:21.1667px;line-height:1.25;font-family:Arial;-inkscape-font-specification:'Arial, Bold';font-variant-ligatures:none;text-align:center;text-anchor:middle;display:inline;fill:#d2ac95;fill-opacity:1;stroke-width:2.64583">
      <path
         d="m 311.31992,87.066074 2.96623,0.940513 q -0.68213,2.480473 -2.27377,3.689703 -1.5813,1.198895 -4.02043,1.198895 -3.01791,0 -4.96095,-2.056725 -1.94303,-2.067061 -1.94303,-5.643075 0,-3.782721 1.95337,-5.870452 1.95337,-2.098067 5.13664,-2.098067 2.7802,0 4.51653,1.643313 1.03353,0.971519 1.5503,2.790532 l -3.02825,0.723471 q -0.26872,-1.178224 -1.12655,-1.860354 -0.84749,-0.68213 -2.06706,-0.68213 -1.68465,0 -2.73885,1.20923 -1.04387,1.209231 -1.04387,3.91708 0,2.873214 1.03353,4.09278 1.03353,1.219566 2.68718,1.219566 1.21957,0 2.09807,-0.775148 0.8785,-0.775148 1.26091,-2.439132 z"
         id="path1479"
         style="fill:#d2ac95;fill-opacity:1" />
      <path
         d="m 316.89064,77.485249 h 3.05925 v 8.20623 q 0,1.953372 0.11369,2.532149 0.19637,0.930178 0.93018,1.498619 0.74414,0.558107 2.02572,0.558107 1.30225,0 1.96371,-0.527101 0.66146,-0.537436 0.79581,-1.312583 0.13436,-0.775148 0.13436,-2.573491 v -8.38193 h 3.05925 v 7.958183 q 0,2.72852 -0.24804,3.855068 -0.24805,1.126548 -0.91985,1.901696 -0.66146,0.775147 -1.77767,1.240236 -1.11621,0.454753 -2.91455,0.454753 -2.17042,0 -3.29696,-0.496094 -1.11622,-0.50643 -1.76734,-1.302248 -0.65113,-0.806154 -0.85783,-1.684655 -0.29973,-1.302248 -0.29973,-3.844733 z"
         id="path1481"
         style="fill:#d2ac95;fill-opacity:1" />
      <path
         d="M 332.20756,92.636803 V 77.485249 h 6.4389 q 2.42879,0 3.52434,0.413412 1.10587,0.403077 1.76733,1.446942 0.66146,1.043866 0.66146,2.387455 0,1.705325 -1.00252,2.821538 -1.00253,1.105877 -2.99724,1.395266 0.99219,0.578777 1.63298,1.271242 0.65112,0.692465 1.74666,2.459802 l 1.85002,2.955897 h -3.65869 l -2.21176,-3.296962 q -1.17822,-1.767337 -1.61231,-2.22209 -0.43408,-0.465089 -0.91984,-0.630454 -0.48576,-0.1757 -1.53996,-0.1757 h -0.62012 v 6.325206 z m 3.05925,-8.743667 h 2.26343 q 2.20142,0 2.7492,-0.186035 0.54777,-0.186035 0.85783,-0.640789 0.31005,-0.454753 0.31005,-1.136883 0,-0.764813 -0.41341,-1.229901 -0.40307,-0.475424 -1.14722,-0.599448 -0.37207,-0.05168 -2.23242,-0.05168 h -2.38746 z"
         id="path1483"
         style="fill:#d2ac95;fill-opacity:1" />
      <path
         d="m 350.96614,92.636803 -5.4157,-15.151554 h 3.31763 l 3.8344,11.213803 3.71037,-11.213803 h 3.24529 l -5.42604,15.151554 z"
         id="path1485"
         style="fill:#d2ac95;fill-opacity:1" />
      <path
         d="M 361.21876,92.636803 V 77.485249 h 11.23447 v 2.563155 h -8.17522 v 3.358973 h 7.60678 v 2.55282 h -7.60678 v 4.123786 h 8.46461 v 2.55282 z"
         id="path1487"
         style="fill:#d2ac95;fill-opacity:1" />
    </g>
    <g
       aria-label="OVER"
       id="text5660-3-3-1-57-0"
       style="font-weight:bold;font-size:21.1667px;line-height:1.25;font-family:Arial;-inkscape-font-specification:'Arial, Bold';font-variant-ligatures:none;text-align:center;text-anchor:middle;display:inline;fill:#d2ac95;fill-opacity:1;stroke-width:2.64583"
       transform="translate(4.6710205e-6,-131.82849)">
      <path
         d="m 307.86792,686.81875 q 0,-2.3151 0.69247,-3.88607 0.51676,-1.15755 1.4056,-2.0774 0.89917,-0.91984 1.96371,-1.36426 1.41594,-0.59944 3.26595,-0.59944 3.34864,0 5.35369,2.07739 2.01539,2.0774 2.01539,5.77744 0,3.66903 -1.99472,5.74643 -1.99471,2.06706 -5.33301,2.06706 -3.37965,0 -5.37436,-2.05673 -1.99472,-2.06706 -1.99472,-5.68442 z m 3.15227,-0.10335 q 0,2.57349 1.18856,3.90675 1.18856,1.32291 3.01791,1.32291 1.82935,0 2.99724,-1.31258 1.17822,-1.32292 1.17822,-3.95842 0,-2.6045 -1.14722,-3.88607 -1.13688,-1.28158 -3.02824,-1.28158 -1.89136,0 -3.04891,1.30225 -1.15756,1.29191 -1.15756,3.90674 z"
         id="path1490"
         style="fill:#d2ac95;fill-opacity:1" />
      <path
         d="m 328.81758,694.30151 -5.41569,-15.15155 h 3.31763 l 3.83439,11.2138 3.71038,-11.2138 h 3.24528 l -5.42603,15.15155 z"
         id="path1492"
         style="fill:#d2ac95;fill-opacity:1" />
      <path
         d="m 339.0702,694.30151 v -15.15155 h 11.23448 v 2.56315 h -8.17523 v 3.35898 h 7.60679 v 2.55282 h -7.60679 v 4.12378 h 8.46462 v 2.55282 z"
         id="path1494"
         style="fill:#d2ac95;fill-opacity:1" />
      <path
         d="m 353.19857,694.30151 v -15.15155 h 6.43889 q 2.4288,0 3.52434,0.41341 1.10588,0.40308 1.76733,1.44694 0.66146,1.04387 0.66146,2.38746 0,1.70532 -1.00252,2.82154 -1.00252,1.10587 -2.99724,1.39526 0.99219,0.57878 1.63298,1.27124 0.65112,0.69247 1.74667,2.45981 l 1.85001,2.95589 h -3.65869 l -2.21176,-3.29696 q -1.17822,-1.76733 -1.6123,-2.22209 -0.43409,-0.46509 -0.91985,-0.63045 -0.48576,-0.1757 -1.53996,-0.1757 h -0.62011 v 6.3252 z m 3.05925,-8.74366 h 2.26343 q 2.20142,0 2.74919,-0.18604 0.54777,-0.18603 0.85783,-0.64079 0.31006,-0.45475 0.31006,-1.13688 0,-0.76481 -0.41342,-1.2299 -0.40307,-0.47543 -1.14721,-0.59945 -0.37208,-0.0517 -2.23243,-0.0517 h -2.38745 z"
         id="path1496"
         style="fill:#d2ac95;fill-opacity:1" />
    </g>
    <g
       aria-label="ENV"
       id="text5660-3-5"
       style="font-weight:bold;font-size:15.875px;line-height:1.25;font-family:Arial;-inkscape-font-specification:'Arial, Bold';font-variant-ligatures:none;text-align:center;text-anchor:middle;display:inline;fill:#d2ac95;fill-opacity:1;stroke-width:2.64583"
       transform="translate(0,-2.6458245)">
      <path
         d="m 13.232996,557.33807 v -11.36364 h 8.425842 v 1.92236 H 15.52743 v 2.51923 h 5.705078 v 1.91461 H 15.52743 v 3.09283 h 6.348449 v 1.91461 z"
         id="path1499"
         style="fill:#d2ac95;fill-opacity:1" />
      <path
         d="m 23.844751,557.33807 v -11.36364 h 2.232422 l 4.650879,7.58868 v -7.58868 h 2.131653 v 11.36364 H 30.55752 l -4.581116,-7.4104 v 7.4104 z"
         id="path1501"
         style="fill:#d2ac95;fill-opacity:1" />
      <path
         d="m 38.184961,557.33807 -4.061767,-11.36364 h 2.48822 l 2.875793,8.41034 2.782776,-8.41034 h 2.43396 l -4.069519,11.36364 z"
         id="path1503"
         style="fill:#d2ac95;fill-opacity:1" />
    </g>
    <path
       style="color:#000000;display:inline;fill:#d2ac95;fill-opacity:1;stroke-width:1;-inkscape-stroke:none"
       d="m 336.01953,316.17579 v 87.3125 h 2.64844 l 0.002,-87.3125 z"
       id="path1270-8-2-5-8-1" />
    <path
       style="color:#000000;display:inline;fill:#d2ac95;fill-opacity:1;stroke-dasharray:7.95003, 7.95003;-inkscape-stroke:none"
       d="m 243.41602,638.78906 v 7.95117 h 2.64843 l 0.002,-7.95117 z m 0,15.90039 v 7.95117 h 2.64843 v -7.95117 z m 0,15.90039 -0.002,7.94922 h 2.65039 v -7.94922 z m -0.002,15.90039 v 7.94922 h 2.65039 v -7.94922 z m 0,15.90039 v 7.94922 h 2.65039 v -7.94922 z"
       id="path1270-8-2-5-8-1-7" />
    <path
       style="color:#000000;display:inline;fill:#d2ac95;fill-opacity:1;stroke-dasharray:7.95003, 7.95003;-inkscape-stroke:none"
       d="m 150.81055,638.78906 v 7.95117 h 2.65039 v -7.95117 z m 0,15.90039 v 7.95117 h 2.65039 v -7.95117 z m 0,15.90039 v 7.94922 h 2.65039 v -7.94922 z m 0,15.90039 v 7.94922 h 2.65039 v -7.94922 z m 0,15.90039 v 7.94922 h 2.65039 v -7.94922 z"
       id="path1270-8-2-5-8-1-5" />
    <path
       style="color:#000000;display:inline;fill:#d2ac95;fill-opacity:1;-inkscape-stroke:none"
       d="m 58.207031,710.26367 v 79.375 h 2.648438 l 0.002,-79.375 z"
       id="path1270-8-2-5-8-1-5-6" />
    <path
       style="color:#000000;display:inline;fill:#d2ac95;fill-opacity:1;-inkscape-stroke:none"
       d="m 150.81055,710.26367 v 79.375 h 2.65039 v -79.375 z"
       id="path1270-8-2-5-8-1-5-8" />
    <path
       style="color:#000000;display:inline;fill:#d2ac95;fill-opacity:1;-inkscape-stroke:none"
       d="m 243.41602,710.26367 -0.002,79.375 h 2.65039 l 0.002,-79.375 z"
       id="path1270-8-2-5-8-1-5-2" />
    <path
       style="color:#000000;display:inline;fill:#d2ac95;fill-opacity:1;stroke-dasharray:7.95003, 7.95003;-inkscape-stroke:none"
       d="m 58.207031,638.78906 v 7.95117 h 2.650391 v -7.95117 z m 0,15.90039 v 7.95117 h 2.650391 v -7.95117 z m 0,15.90039 v 7.94922 h 2.650391 v -7.94922 z m 0,15.90039 v 7.94922 h 2.650391 v -7.94922 z m 0,15.90039 v 7.94922 h 2.648438 v -7.94922 z"
       id="path1270-8-2-5-8-1-9" />
    <path
       style="color:#000000;display:inline;fill:#d2ac95;fill-opacity:1;stroke-dasharray:7.95003, 7.95003;-inkscape-stroke:none"
       d="m 58.207031,432.81836 v 7.94922 h 2.650391 v -7.94922 z m 0,15.90039 v 7.94922 h 2.650391 v -7.94922 z m 0,15.90039 v 7.94922 h 2.650391 v -7.94922 z m 0,15.89844 v 7.95117 h 2.650391 v -7.95117 z m 0,15.90039 v 7.95117 h 2.648438 v -7.95117 z"
       id="path1270-8-2-5-8-1-9-7" />
    <path
       style="color:#000000;display:inline;fill:#d2ac95;fill-opacity:1;stroke-dasharray:7.95003, 7.95003;-inkscape-stroke:none"
       d="m 58.207031,253.88672 v 7.95117 h 2.650391 v -7.95117 z m 0,15.90039 v 7.94922 l 2.650391,0.002 v -7.95117 z m 0,15.90039 v 7.94922 h 2.650391 v -7.94922 z m 0,15.90039 v 7.94922 h 2.650391 v -7.94922 z m 0,15.90039 v 7.94922 h 2.648438 v -7.94922 z"
       id="path1270-8-2-5-8-1-9-7-3" />
    <path
       style="color:#000000;display:inline;fill:#d2ac95;fill-opacity:1;stroke-dasharray:7.95003, 7.95003;-inkscape-stroke:none"
       d="m 150.81055,253.88672 v 7.95117 h 2.65039 v -7.95117 z m 0,15.90039 v 7.94922 l 2.65039,0.002 v -7.95117 z m 0,15.90039 v 7.94922 h 2.65039 v -7.94922 z m 0,15.90039 v 7.94922 h 2.65039 v -7.94922 z m 0,15.90039 v 7.94922 h 2.65039 v -7.94922 z"
       id="path1270-8-2-5-8-1-9-7-3-6" />
    <path
       style="color:#000000;display:inline;fill:#d2ac95;fill-opacity:1;stroke-dasharray:7.95003, 7.95003;-inkscape-stroke:none"
       d="m 243.41602,253.88672 v 7.95117 h 2.64843 l 0.002,-7.95117 z m 0,15.90039 v 7.94922 l 2.64843,0.002 v -7.95117 z m 0,15.90039 -0.002,7.94922 h 2.65039 v -7.94922 z m -0.002,15.90039 v 7.94922 h 2.65039 v -7.94922 z m 0,15.90039 v 7.94922 h 2.65039 v -7.94922 z"
       id="path1270-8-2-5-8-1-9-7-3-1" />
    <path
       style="color:#000000;display:inline;fill:#d2ac95;fill-opacity:1;stroke-dasharray:7.95003, 7.95003;-inkscape-stroke:none"
       d="m 336.01953,253.88672 v 7.95117 h 2.65039 v -7.95117 z m 0,15.90039 v 7.94922 l 2.65039,0.002 v -7.95117 z m 0,15.90039 v 7.94922 h 2.65039 v -7.94922 z m 0,15.90039 v 7.94922 h 2.65039 v -7.94922 z m 0,15.90039 v 7.94922 h 2.64844 v -7.94922 z"
       id="path1270-8-2-5-8-1-9-7-3-18" />
    <path
       style="color:#000000;display:inline;fill:#d2ac95;fill-opacity:1;stroke-dasharray:7.95003, 7.95003;-inkscape-stroke:none"
       d="m 150.81055,432.81836 v 7.94922 h 2.65039 v -7.94922 z m 0,15.90039 v 7.94922 h 2.65039 v -7.94922 z m 0,15.90039 v 7.94922 h 2.65039 v -7.94922 z m 0,15.89844 v 7.95117 h 2.65039 v -7.95117 z m 0,15.90039 v 7.95117 h 2.65039 v -7.95117 z"
       id="path1270-8-2-5-8-1-9-4" />
    <path
       style="color:#000000;display:inline;fill:#d2ac95;fill-opacity:1;stroke-dasharray:7.95003, 7.95003;-inkscape-stroke:none"
       d="m 243.41602,432.81836 v 7.94922 h 2.64843 l 0.002,-7.94922 z m 0,15.90039 v 7.94922 h 2.64843 v -7.94922 z m 0,15.90039 -0.002,7.94922 h 2.65039 v -7.94922 z m -0.002,15.89844 v 7.95117 h 2.65039 v -7.95117 z m 0,15.90039 v 7.95117 h 2.65039 v -7.95117 z"
       id="path1270-8-2-5-8-1-9-46" />
    <path
       style="color:#000000;display:inline;fill:#d2ac95;fill-opacity:1;-inkscape-stroke:none"
       d="m 59.53125,318.82062 v 2.64844 l 277.8125,0.002 v -2.65039 z"
       id="path1270-8-2-5-8-1-4" />
    <path
       style="color:#000000;display:inline;fill:#d2ac95;fill-opacity:1;-inkscape-stroke:none"
       d="m 59.53125,497.41483 v 2.64844 l 277.8125,0.002 v -2.65039 z"
       id="path1270-8-2-5-8-1-4-9" />
    <g
       aria-label="DEPTH"
       id="text15383"
       style="font-weight:bold;font-size:21.1667px;line-height:1.25;font-family:Arial;-inkscape-font-specification:'Arial, Bold';font-variant-ligatures:none;text-align:center;text-anchor:middle;display:inline;fill:#d2ac95;fill-opacity:1;stroke-width:2.64583">
      <path
         d="m 117.84333,570.71508 h 5.5914 q 1.89136,0 2.88355,0.28939 1.33325,0.39274 2.2841,1.39527 0.95085,1.00252 1.44694,2.4598 0.4961,1.44694 0.4961,3.57602 0,1.87069 -0.46509,3.22461 -0.56844,1.65365 -1.62264,2.67684 -0.79582,0.77515 -2.14975,1.20923 -1.01286,0.3204 -2.70785,0.3204 h -5.75676 z m 3.05925,2.56316 v 10.03558 h 2.2841 q 1.28158,0 1.85002,-0.1447 0.74414,-0.18603 1.2299,-0.63045 0.4961,-0.44442 0.80615,-1.45728 0.31006,-1.02319 0.31006,-2.78019 0,-1.75701 -0.31006,-2.69752 -0.31005,-0.94051 -0.86816,-1.46761 -0.55811,-0.5271 -1.41594,-0.71314 -0.64079,-0.14469 -2.51148,-0.14469 z"
         id="path22165"
         style="fill:#d2ac95;fill-opacity:1" />
      <path
         d="m 133.13958,585.86664 v -15.15156 h 11.23447 v 2.56316 h -8.17522 v 3.35897 h 7.60678 v 2.55282 h -7.60678 v 4.12379 h 8.46461 v 2.55282 z"
         id="path22167"
         style="fill:#d2ac95;fill-opacity:1" />
      <path
         d="m 147.2576,585.86664 v -15.15156 h 4.90927 q 2.79053,0 3.63803,0.22738 1.30225,0.34107 2.18075,1.48828 0.8785,1.13689 0.8785,2.94557 0,1.39526 -0.50643,2.34611 -0.50643,0.95085 -1.29191,1.49862 -0.77515,0.53743 -1.58131,0.71313 -1.09554,0.21705 -3.17293,0.21705 h -1.99472 v 5.71542 z m 3.05925,-12.5884 v 4.29949 h 1.67432 q 1.80868,0 2.41846,-0.23772 0.60979,-0.23771 0.95085,-0.74414 0.3514,-0.50643 0.3514,-1.17822 0,-0.82683 -0.48576,-1.36426 -0.48576,-0.53744 -1.2299,-0.6718 -0.54777,-0.10335 -2.20142,-0.10335 z"
         id="path22169"
         style="fill:#d2ac95;fill-opacity:1" />
      <path
         d="m 164.78628,585.86664 v -12.5884 h -4.49586 v -2.56316 h 12.04063 v 2.56316 h -4.48552 v 12.5884 z"
         id="path22171"
         style="fill:#d2ac95;fill-opacity:1" />
      <path
         d="m 174.31542,585.86664 v -15.15156 h 3.05925 v 5.96347 h 5.99448 v -5.96347 h 3.05925 v 15.15156 h -3.05925 v -6.62493 h -5.99448 v 6.62493 z"
         id="path22173"
         style="fill:#d2ac95;fill-opacity:1" />
    </g>
    <g
       id="g32966"
       transform="translate(-81.379923,42.275231)"
       style="fill:#d2ac95;fill-opacity:1">
      <path
         d="m 456.05562,460.20009 v -15.15155 h 4.38711 l 2.63425,10.3353 2.60454,-10.3353 h 4.39702 v 15.15155 h -2.72338 v -11.92694 l -2.88183,11.92694 h -2.8224 L 458.779,448.27315 v 11.92694 z"
         id="path1445"
         style="font-weight:bold;font-size:21.1667px;line-height:1.25;font-family:Arial;-inkscape-font-specification:'Arial, Bold';font-variant-ligatures:none;text-align:center;text-anchor:middle;fill:#d2ac95;fill-opacity:1;stroke-width:2.64583" />
      <path
         d="m 456.05562,470.72214 q 0,-2.31511 0.66071,-3.88607 0.49307,-1.15756 1.34116,-2.0774 0.85794,-0.91984 1.87366,-1.36426 1.35101,-0.59945 3.11621,-0.59945 3.19509,0 5.10821,2.0774 1.92297,2.07739 1.92297,5.77743 0,3.66904 -1.90325,5.74643 -1.90326,2.06706 -5.08849,2.06706 -3.22467,0 -5.12793,-2.05672 -1.90325,-2.06706 -1.90325,-5.68442 z m 3.00773,-0.10335 q 0,2.57349 1.13406,3.90674 1.13406,1.32292 2.87952,1.32292 1.74547,0 2.85981,-1.31258 1.12421,-1.32292 1.12421,-3.95842 0,-2.6045 -1.09462,-3.88608 -1.08475,-1.28158 -2.8894,-1.28158 -1.80463,0 -2.90911,1.30225 -1.10447,1.29192 -1.10447,3.90675 z"
         id="path1447"
         style="font-weight:bold;font-size:21.1667px;line-height:1.25;font-family:Arial;-inkscape-font-specification:'Arial, Bold';font-variant-ligatures:none;text-align:center;text-anchor:middle;fill:#d2ac95;fill-opacity:1;stroke-width:2.64583" />
      <path
         d="m 456.58479,481.05818 h 5.93989 q 2.00923,0 3.06327,0.28941 1.41634,0.39278 2.42646,1.39537 1.0101,1.0026 1.53712,2.45999 0.52701,1.44704 0.52701,3.57628 0,1.87083 -0.49407,3.22486 -0.60387,1.65377 -1.72378,2.67704 -0.84541,0.77521 -2.28373,1.20933 -1.07598,0.32041 -2.87662,0.32041 h -6.11555 z m 3.24991,2.56335 v 10.03633 h 2.42647 q 1.36145,0 1.96532,-0.1447 0.79052,-0.18605 1.30655,-0.63051 0.52703,-0.44445 0.85641,-1.45739 0.32937,-1.02326 0.32937,-2.7804 0,-1.75713 -0.32937,-2.69772 -0.32938,-0.94058 -0.92228,-1.46772 -0.59289,-0.52714 -1.50419,-0.71318 -0.68073,-0.14471 -2.668,-0.14471 z"
         id="path1449"
         style="font-weight:bold;font-size:21.1667px;line-height:1.25;font-family:Arial;-inkscape-font-specification:'Arial, Bold';font-variant-ligatures:none;text-align:center;text-anchor:middle;fill:#d2ac95;fill-opacity:1;stroke-width:2.64583" />
      <g
         aria-label="R"
         transform="scale(1.0146109,0.98559949)"
         id="text27341"
         style="font-weight:bold;font-size:21.476px;line-height:1.25;font-family:Arial;-inkscape-font-specification:'Arial, Bold';font-variant-ligatures:none;text-align:center;text-anchor:middle;fill:#d2ac95;fill-opacity:1;stroke-width:2.64583">
        <path
           d="m 450.00975,448.91833 v -15.37295 h 6.53298 q 2.46429,0 3.57584,0.41945 1.12203,0.40897 1.79316,1.46809 0.67112,1.05912 0.67112,2.42234 0,1.73024 -1.01717,2.86277 -1.01717,1.12203 -3.04104,1.41565 1.00669,0.58724 1.65684,1.28982 0.66064,0.70258 1.77219,2.49575 l 1.87706,2.99908 h -3.71216 l -2.24408,-3.34513 q -1.19544,-1.79317 -1.63586,-2.25456 -0.44043,-0.47189 -0.93329,-0.63967 -0.49286,-0.17827 -1.56246,-0.17827 h -0.62918 v 6.41763 z m 3.10395,-8.87143 h 2.29651 q 2.23358,0 2.78936,-0.18875 0.55577,-0.18876 0.87036,-0.65015 0.31459,-0.4614 0.31459,-1.1535 0,-0.77599 -0.41945,-1.24787 -0.40897,-0.48238 -1.16398,-0.60821 -0.37751,-0.0524 -2.26505,-0.0524 h -2.42234 z"
           id="path32919"
           style="fill:#d2ac95;fill-opacity:1" />
      </g>
    </g>
    <g
       id="g32973"
       transform="translate(-138.81621,-60.722781)"
       style="fill:#d2ac95;fill-opacity:1">
      <path
         d="m 513.49191,458.8155 v -15.15155 h 4.38711 l 2.63425,10.3353 2.60454,-10.3353 h 4.39702 v 15.15155 h -2.72338 v -11.92694 l -2.88183,11.92694 h -2.8224 l -2.87193,-11.92694 v 11.92694 z"
         id="path1445-6"
         style="font-weight:bold;font-size:21.1667px;line-height:1.25;font-family:Arial;-inkscape-font-specification:'Arial, Bold';font-variant-ligatures:none;text-align:center;text-anchor:middle;display:inline;fill:#d2ac95;fill-opacity:1;stroke-width:2.64583" />
      <path
         d="m 513.49191,469.33755 q 0,-2.31511 0.66071,-3.88607 0.49307,-1.15756 1.34116,-2.0774 0.85794,-0.91984 1.87366,-1.36426 1.35101,-0.59945 3.11621,-0.59945 3.19509,0 5.10821,2.0774 1.92297,2.07739 1.92297,5.77743 0,3.66904 -1.90325,5.74643 -1.90326,2.06706 -5.08849,2.06706 -3.22467,0 -5.12793,-2.05672 -1.90325,-2.06706 -1.90325,-5.68442 z m 3.00773,-0.10335 q 0,2.57349 1.13406,3.90674 1.13406,1.32292 2.87952,1.32292 1.74547,0 2.85981,-1.31258 1.12421,-1.32292 1.12421,-3.95842 0,-2.6045 -1.09462,-3.88608 -1.08475,-1.28158 -2.8894,-1.28158 -1.80463,0 -2.90911,1.30225 -1.10447,1.29192 -1.10447,3.90675 z"
         id="path1447-6"
         style="font-weight:bold;font-size:21.1667px;line-height:1.25;font-family:Arial;-inkscape-font-specification:'Arial, Bold';font-variant-ligatures:none;text-align:center;text-anchor:middle;display:inline;fill:#d2ac95;fill-opacity:1;stroke-width:2.64583" />
      <path
         d="m 514.02108,479.67359 h 5.93989 q 2.00923,0 3.06327,0.28941 1.41634,0.39278 2.42646,1.39537 1.0101,1.0026 1.53712,2.45999 0.52701,1.44704 0.52701,3.57628 0,1.87083 -0.49407,3.22486 -0.60387,1.65377 -1.72378,2.67704 -0.84541,0.77521 -2.28373,1.20933 -1.07598,0.32041 -2.87662,0.32041 h -6.11555 z m 3.24991,2.56335 v 10.03633 h 2.42647 q 1.36145,0 1.96532,-0.1447 0.79052,-0.18605 1.30655,-0.63051 0.52703,-0.44445 0.85641,-1.45739 0.32937,-1.02326 0.32937,-2.7804 0,-1.75713 -0.32937,-2.69772 -0.32938,-0.94058 -0.92228,-1.46772 -0.59289,-0.52714 -1.50419,-0.71318 -0.68073,-0.14471 -2.668,-0.14471 z"
         id="path1449-8"
         style="font-weight:bold;font-size:21.1667px;line-height:1.25;font-family:Arial;-inkscape-font-specification:'Arial, Bold';font-variant-ligatures:none;text-align:center;text-anchor:middle;display:inline;fill:#d2ac95;fill-opacity:1;stroke-width:2.64583" />
      <g
         aria-label="S"
         transform="scale(1.0146109,0.9855995)"
         id="text27341-1"
         style="font-weight:bold;font-size:21.476px;line-height:1.25;font-family:Arial;-inkscape-font-specification:'Arial, Bold';font-variant-ligatures:none;text-align:center;text-anchor:middle;display:inline;fill:#d2ac95;fill-opacity:1;stroke-width:2.64583">
        <path
           d="m 506.75799,442.51154 3.02006,-0.29362 q 0.27265,1.52052 1.10107,2.23359 0.8389,0.71307 2.25456,0.71307 1.49954,0 2.25456,-0.62918 0.7655,-0.63966 0.7655,-1.48906 0,-0.54529 -0.32507,-0.92279 -0.31459,-0.388 -1.11156,-0.67113 -0.54528,-0.18875 -2.48526,-0.67112 -2.49574,-0.6187 -3.50243,-1.52052 -1.41565,-1.26885 -1.41565,-3.09347 0,-1.17447 0.66064,-2.19164 0.67112,-1.02766 1.91899,-1.56246 1.25836,-0.53481 3.03055,-0.53481 2.89423,0 4.35183,1.26885 1.46808,1.26885 1.54149,3.38708 l -3.10395,0.13633 q -0.19924,-1.18496 -0.85988,-1.69879 -0.65016,-0.52432 -1.96095,-0.52432 -1.35273,0 -2.11824,0.55578 -0.49285,0.35654 -0.49285,0.95426 0,0.54528 0.4614,0.93328 0.58723,0.49286 2.85228,1.02766 2.26504,0.5348 3.34514,1.11155 1.09057,0.56626 1.69878,1.56246 0.61869,0.98572 0.61869,2.44332 0,1.32127 -0.73404,2.47477 -0.73404,1.1535 -2.07629,1.71976 -1.34225,0.55577 -3.34514,0.55577 -2.9152,0 -4.47766,-1.34225 -1.56247,-1.35273 -1.86657,-3.93237 z"
           id="path32940"
           style="fill:#d2ac95;fill-opacity:1" />
      </g>
    </g>
    <path
       style="color:#000000;fill:#d2ac95;fill-opacity:1;-inkscape-stroke:none"
       d="m 303.30078,150.69344 -8.11914,21.35352 2.47266,0.9414 5.96679,-15.68945 3.75586,7.58203 h 11.84961 l 9.31446,8.60742 1.79687,-1.94336 -10.07617,-9.31054 h -11.24414 z"
       id="path58428" />
    <path
       style="color:#000000;fill:#d2ac95;fill-opacity:1;-inkscape-stroke:none"
       d="m 363.09375,150.69344 -2.10547,1.46484 c -3.3934,2.36056 -5.37135,5.67104 -6.45312,9.29297 -1.08177,3.62194 -1.31642,7.57454 -1.31641,11.47461 h 2.64648 c 0,-3.78985 0.2461,-7.50597 1.20508,-10.71679 0.69346,-2.32181 1.93344,-4.24841 3.53321,-5.95313 0.15334,1.12706 0.40742,2.20908 0.85156,3.21289 0.82739,1.87003 2.29288,3.45257 4.43554,4.52149 l 0.2793,0.13867 h 10.81445 c 0.33775,2.29095 1.2252,4.37495 2.84961,5.88086 1.9392,1.79772 4.64321,2.86697 7.80079,3.07617 l 0.17578,-2.64063 c -2.667,-0.17669 -4.75417,-1.05528 -6.17774,-2.375 -1.42357,-1.31971 -2.23244,-3.08279 -2.2832,-5.29492 l -0.0293,-1.29297 H 366.875 c -1.51987,-0.81146 -2.42997,-1.79759 -3,-3.08593 -0.59934,-1.35459 -0.83022,-3.08025 -0.80859,-5.13868 z"
       id="path58428-7" />
    <g
       aria-label="QUANT"
       id="text2018"
       style="font-weight:bold;font-size:14.1111px;line-height:1.25;font-family:Arial;-inkscape-font-specification:'Arial, Bold';font-variant-ligatures:none;text-align:center;text-anchor:middle;fill:#d2ac95;fill-opacity:1;stroke-width:2.64583"
       transform="translate(533.1812,33.697762)">
      <path
         d="m -443.43602,433.33317 q 0.75104,0.53744 1.63298,0.85438 l -0.75103,1.44005 q -0.46164,-0.1378 -0.90262,-0.37896 -0.0965,-0.0482 -1.35736,-0.89572 -0.99219,0.43408 -2.19797,0.43408 -2.32889,0 -3.65181,-1.37115 -1.31602,-1.37115 -1.31602,-3.85161 0,-2.47358 1.32291,-3.84473 1.32292,-1.37804 3.58979,-1.37804 2.24621,0 3.56223,1.37804 1.31603,1.37115 1.31603,3.84473 0,1.30913 -0.36518,2.30132 -0.27561,0.75792 -0.88195,1.46761 z m -1.63986,-1.15066 q 0.39274,-0.46164 0.58567,-1.11621 0.19981,-0.65457 0.19981,-1.50206 0,-1.75011 -0.7717,-2.61139 -0.7717,-0.86816 -2.01883,-0.86816 -1.24712,0 -2.02571,0.86816 -0.7717,0.86817 -0.7717,2.61139 0,1.77078 0.7717,2.65272 0.77859,0.87505 1.9637,0.87505 0.44097,0 0.83371,-0.14469 -0.62011,-0.40652 -1.2609,-0.6339 l 0.57189,-1.16444 q 1.00596,0.34451 1.92236,1.03353 z"
         style="font-size:14.1111px;fill:#d2ac95;fill-opacity:1"
         id="path6686" />
      <path
         d="m -440.60415,424.51373 h 2.0395 v 5.47081 q 0,1.30224 0.0758,1.68809 0.13092,0.62012 0.62012,0.99908 0.49609,0.37207 1.35048,0.37207 0.86816,0 1.30913,-0.3514 0.44097,-0.35829 0.53055,-0.87505 0.0896,-0.51677 0.0896,-1.71566 v -5.58794 h 2.0395 v 5.30544 q 0,1.81901 -0.16537,2.57004 -0.16536,0.75104 -0.61323,1.2678 -0.44097,0.51676 -1.18511,0.82682 -0.74414,0.30317 -1.94303,0.30317 -1.44694,0 -2.19797,-0.33073 -0.74414,-0.33762 -1.17823,-0.86816 -0.43408,-0.53744 -0.57188,-1.1231 -0.19982,-0.86817 -0.19982,-2.56315 z"
         style="font-size:14.1111px;fill:#d2ac95;fill-opacity:1"
         id="path6688" />
      <path
         d="m -421.29094,434.61475 h -2.21864 l -0.88195,-2.29444 h -4.03765 l -0.83371,2.29444 h -2.16352 l 3.9343,-10.10102 h 2.15663 z m -3.75515,-3.99631 -1.39182,-3.74827 -1.36426,3.74827 z"
         style="font-size:14.1111px;fill:#d2ac95;fill-opacity:1"
         id="path6690" />
      <path
         d="m -420.18851,434.61475 v -10.10102 h 1.98437 l 4.13412,6.74549 v -6.74549 h 1.8948 v 10.10102 h -2.04639 l -4.0721,-6.58703 v 6.58703 z"
         style="font-size:14.1111px;fill:#d2ac95;fill-opacity:1"
         id="path6692" />
      <path
         d="m -407.74483,434.61475 v -8.39226 h -2.99723 v -1.70876 h 8.02707 v 1.70876 h -2.99034 v 8.39226 z"
         style="font-size:14.1111px;fill:#d2ac95;fill-opacity:1"
         id="path6694" />
    </g>
  </g>
  <g
     inkscape:groupmode="layer"
     id="layer7"
     inkscape:label="Alternate Solid"
     style="display:inline" />
  <g
     inkscape:groupmode="layer"
     id="layer1"
     inkscape:label="Inverse Solid"
     style="display:inline">
    <g
       aria-label="OUT"
       id="text6865-2-31-1-4-7-6-1"
       style="font-weight:bold;font-size:21.1667px;line-height:1.25;font-family:Arial;-inkscape-font-specification:'Arial, Bold';font-variant-ligatures:none;text-align:center;text-anchor:middle;display:inline;fill:#423932;fill-opacity:1;stroke-width:2.64583"
       transform="translate(138.9067,14.773458)">
      <path
         d="m 176.77471,839.02798 q 0,-2.3151 0.69247,-3.88607 0.51676,-1.15755 1.4056,-2.0774 0.89917,-0.91984 1.9637,-1.36426 1.41594,-0.59944 3.26596,-0.59944 3.34864,0 5.35369,2.07739 2.01538,2.0774 2.01538,5.77744 0,3.66903 -1.99471,5.74642 -1.99472,2.06706 -5.33302,2.06706 -3.37964,0 -5.37436,-2.05672 -1.99471,-2.06706 -1.99471,-5.68442 z m 3.15227,-0.10335 q 0,2.57349 1.18856,3.90674 1.18856,1.32292 3.01791,1.32292 1.82934,0 2.99723,-1.31258 1.17823,-1.32292 1.17823,-3.95842 0,-2.6045 -1.14722,-3.88608 -1.13688,-1.28157 -3.02824,-1.28157 -1.89136,0 -3.04892,1.30225 -1.15755,1.29191 -1.15755,3.90674 z"
         id="path3534"
         style="fill:#423932;fill-opacity:1" />
      <path
         d="m 193.8383,831.35919 h 3.05925 v 8.20623 q 0,1.95337 0.11368,2.53215 0.19637,0.93018 0.93018,1.49862 0.74414,0.5581 2.02572,0.5581 1.30225,0 1.96371,-0.5271 0.66146,-0.53743 0.79582,-1.31258 0.13436,-0.77515 0.13436,-2.57349 v -8.38193 h 3.05925 v 7.95818 q 0,2.72852 -0.24805,3.85507 -0.24805,1.12655 -0.91984,1.9017 -0.66146,0.77514 -1.77768,1.24023 -1.11621,0.45475 -2.91455,0.45475 -2.17042,0 -3.29696,-0.49609 -1.11622,-0.50643 -1.76734,-1.30225 -0.65112,-0.80615 -0.85783,-1.68465 -0.29972,-1.30225 -0.29972,-3.84474 z"
         id="path3536"
         style="fill:#423932;fill-opacity:1" />
      <path
         d="m 212.55553,846.51074 v -12.5884 h -4.49586 v -2.56315 h 12.04063 v 2.56315 h -4.48552 v 12.5884 z"
         id="path3538"
         style="fill:#423932;fill-opacity:1" />
    </g>
    <g
       aria-label="ENV"
       id="text5660-3-3-1-2-9"
       style="font-weight:bold;font-size:21.1667px;line-height:1.25;font-family:Arial;-inkscape-font-specification:'Arial, Bold';font-variant-ligatures:none;text-align:center;text-anchor:middle;display:inline;fill:#423932;fill-opacity:1;stroke-width:2.64583"
       transform="translate(-5.292908)">
      <path
         d="m 223.75937,861.28424 v -15.15155 h 11.23448 v 2.56315 h -8.17523 v 3.35898 h 7.60678 v 2.55282 h -7.60678 v 4.12378 h 8.46462 v 2.55282 z"
         id="path1526"
         style="fill:#423932;fill-opacity:1" />
      <path
         d="m 237.9084,861.28424 v -15.15155 h 2.97657 l 6.20118,10.11826 v -10.11826 h 2.84221 v 15.15155 h -3.06959 l -6.10816,-9.88055 v 9.88055 z"
         id="path1528"
         style="fill:#423932;fill-opacity:1" />
      <path
         d="m 257.02871,861.28424 -5.41569,-15.15155 h 3.31763 l 3.83439,11.2138 3.71038,-11.2138 h 3.24528 l -5.42603,15.15155 z"
         id="path1530"
         style="fill:#423932;fill-opacity:1" />
    </g>
  </g>
  <g
     inkscape:groupmode="layer"
     id="layer2"
     inkscape:label="Widget"
     style="display:none">
    <circle
       style="display:inline;fill:#ff0000;stroke:#ff0000;stroke-width:5.15744;stroke-opacity:1"
       id="path1065-7-2-8-1-2-9-9"
       cx="337.34421"
       cy="898.26086"
       r="27.848814" />
    <circle
       style="display:inline;fill:#ff0000;stroke:#ff0000;stroke-width:5.15744;stroke-opacity:1"
       id="path1065-7-2-8-1-2-9-9-2"
       cx="337.34421"
       cy="498.74005"
       r="27.848814" />
    <circle
       style="display:inline;fill:#ff0000;stroke:#ff0000;stroke-width:5.15744;stroke-opacity:1"
       id="path1065-7-2-8-1-2-9-9-2-3"
       cx="337.34421"
       cy="404.81161"
       r="27.848814" />
    <circle
       style="display:inline;fill:#ff0000;stroke:#ff0000;stroke-width:5.15744;stroke-opacity:1"
       id="path1065-7-2-8-1-11-6-8-9"
       cx="244.74004"
       cy="898.26086"
       r="27.848814" />
    <circle
       style="display:inline;fill:#ff0000;stroke:#ff0000;stroke-width:5.15744;stroke-opacity:1"
       id="path1065-7-2-8-1-110-3-0-0"
       cx="152.13586"
       cy="898.26086"
       r="27.848814" />
    <circle
       style="display:inline;fill:#ff0000;stroke:#ff0000;stroke-width:5.15744;stroke-opacity:1"
       id="path1065-7-2-8-1-110-3-0-0-6"
       cx="59.5317"
       cy="898.26086"
       r="27.848814" />
    <circle
       style="display:inline;fill:#ff0000;stroke:#ff0000;stroke-width:5.15744;stroke-opacity:1"
       id="path1065-7-2-8-1-13-1-9-1"
       cx="152.13586"
       cy="789.78174"
       r="27.848814" />
    <circle
       style="display:inline;fill:#ff0000;stroke:#ff0000;stroke-width:5.15744;stroke-opacity:1"
       id="path1065-7-2-8-1-13-9-9-0-8"
       cx="244.74004"
       cy="789.78174"
       r="27.848814" />
    <circle
       style="display:inline;fill:#ff0000;stroke:#ff0000;stroke-width:5.15744;stroke-opacity:1"
       id="path1065-7-2-8-1-13-9-9-0-8-1"
       cx="337.34421"
       cy="789.78174"
       r="27.848814" />
    <circle
       style="display:inline;fill:#ff0000;stroke:#ff0000;stroke-width:5.15744;stroke-opacity:1"
       id="path1065-7-2-8-1-13-6-9-7-5"
       cx="59.5317"
       cy="789.78174"
       r="27.848814" />
    <ellipse
       style="display:inline;fill:#ff0000;stroke:#ff0000;stroke-width:3.81201;stroke-opacity:1"
       id="path1065-7-2-8-1-1-3-1-95-3-2-8-9"
       cx="59.5317"
       cy="705.11469"
       rx="20.583578"
       ry="20.583576" />
    <ellipse
       style="display:inline;fill:#ff0000;stroke:#ff0000;stroke-width:3.81201;stroke-opacity:1"
       id="path1065-7-2-8-1-1-3-1-95-3-2-8-9-7"
       cx="59.5317"
       cy="498.73868"
       rx="20.583578"
       ry="20.583576" />
    <ellipse
       style="display:inline;fill:#ff0000;stroke:#ff0000;stroke-width:3.81201;stroke-opacity:1"
       id="path1065-7-2-8-1-1-3-1-95-3-2-8-9-7-8"
       cx="59.5317"
       cy="320.14584"
       rx="20.583578"
       ry="20.583576" />
    <ellipse
       style="display:inline;fill:#ff0000;stroke:#ff0000;stroke-width:3.81201;stroke-opacity:1"
       id="path1065-7-2-8-1-1-3-1-95-3-2-8-9-7-4"
       cx="152.13586"
       cy="320.14584"
       rx="20.583578"
       ry="20.583576" />
    <ellipse
       style="display:inline;fill:#ff0000;stroke:#ff0000;stroke-width:3.81201;stroke-opacity:1"
       id="path1065-7-2-8-1-1-3-1-95-3-2-8-9-7-5"
       cx="244.74004"
       cy="320.14584"
       rx="20.583578"
       ry="20.583576" />
    <ellipse
       style="display:inline;fill:#ff0000;stroke:#ff0000;stroke-width:3.81201;stroke-opacity:1"
       id="path1065-7-2-8-1-1-3-1-95-3-2-8-9-7-55"
       cx="337.34421"
       cy="320.14584"
       rx="20.583578"
       ry="20.583576" />
    <ellipse
       style="display:inline;fill:#ff0000;stroke:#ff0000;stroke-width:3.81201;stroke-opacity:1"
       id="path1065-7-2-8-1-1-3-1-95-3-2-8-9-2"
       cx="152.13586"
       cy="498.73868"
       rx="20.583578"
       ry="20.583576" />
    <ellipse
       style="display:inline;fill:#ff0000;stroke:#ff0000;stroke-width:3.81201;stroke-opacity:1"
       id="path1065-7-2-8-1-1-3-1-95-3-2-8-9-3"
       cx="244.74004"
       cy="498.73868"
       rx="20.583578"
       ry="20.583576" />
    <circle
       style="display:inline;fill:#ff0000;stroke:#ff0000;stroke-width:5.15744;stroke-opacity:1"
       id="path1065-7-2-8-1-0-1-2-0"
       cx="59.5317"
       cy="621.77094"
       r="26.525448" />
    <circle
       style="display:inline;fill:#ff0000;stroke:#ff0000;stroke-width:5.15744;stroke-opacity:1"
       id="path1065-7-2-8-1-0-1-2-0-5"
       cx="152.13586"
       cy="621.77094"
       r="26.525448" />
    <circle
       style="display:inline;fill:#ff0000;stroke:#ff0000;stroke-width:5.15744;stroke-opacity:1"
       id="path1065-7-2-8-1-0-6-7-3-1"
       cx="59.5317"
       cy="415.39493"
       r="26.525448" />
    <circle
       style="display:inline;fill:#ff0000;stroke:#ff0000;stroke-width:5.15744;stroke-opacity:1"
       id="path1065-7-2-8-1-0-6-7-3-1-1"
       cx="59.5317"
       cy="236.80209"
       r="26.525448" />
    <circle
       style="display:inline;fill:#ff0000;stroke:#ff0000;stroke-width:5.15744;stroke-opacity:1"
       id="path1065-7-2-8-1-0-6-7-3-1-1-9"
       cx="337.34421"
       cy="128.32292"
       r="26.525448" />
    <circle
       style="display:inline;fill:#ff0000;stroke:#ff0000;stroke-width:5.15744;stroke-opacity:1"
       id="path1065-7-2-8-1-0-6-7-3-1-95"
       cx="152.13586"
       cy="236.80209"
       r="26.525448" />
    <circle
       style="display:inline;fill:#ff0000;stroke:#ff0000;stroke-width:5.15744;stroke-opacity:1"
       id="path1065-7-2-8-1-0-6-7-3-1-98"
       cx="244.74004"
       cy="236.80209"
       r="26.525448" />
    <circle
       style="display:inline;fill:#ff0000;stroke:#ff0000;stroke-width:5.15744;stroke-opacity:1"
       id="path1065-7-2-8-1-0-6-7-3-1-8"
       cx="337.34421"
       cy="236.80209"
       r="26.525448" />
    <circle
       style="display:inline;fill:#ff0000;stroke:#ff0000;stroke-width:5.15744;stroke-opacity:1"
       id="path1065-7-2-8-1-0-2-1-1-4"
       cx="244.74004"
       cy="621.77094"
       r="26.525448" />
    <rect
       style="display:inline;opacity:0.995935;fill:#ff0000;stroke:none;stroke-width:2.64583"
       id="rect6025-3-3-3"
       width="63.500004"
       height="63.5"
       x="27.781698"
       y="99.21875"
       ry="14.210836"
       rx="14.210836" />
    <rect
       style="display:inline;opacity:0.995935;fill:#ff0000;stroke:none;stroke-width:2.64583"
       id="rect6025-3-3-3-7"
       width="63.500004"
       height="63.5"
       x="120.38586"
       y="99.21875"
       ry="14.210836"
       rx="14.210836" />
    <rect
       style="display:inline;opacity:0.995935;fill:#ff0000;stroke:none;stroke-width:2.64583"
       id="rect6025-3-3-3-75"
       width="63.500004"
       height="63.5"
       x="212.99004"
       y="99.21875"
       ry="14.210836"
       rx="14.210836" />
    <rect
       style="display:inline;opacity:0.995935;fill:#ff0000;stroke:none;stroke-width:2.64583"
       id="rect6025-3-3-3-4-9"
       width="63.500004"
       height="63.5"
       x="305.59421"
       y="568.85468"
       ry="14.210836"
       rx="14.210836" />
    <ellipse
       style="display:inline;fill:#ff0000;stroke:#ff0000;stroke-width:3.81201;stroke-opacity:1"
       id="path1065-7-2-8-1-1-3-1-95-3-2-8-9-8"
       cx="152.13586"
       cy="705.11469"
       rx="20.583578"
       ry="20.583576" />
    <ellipse
       style="display:inline;fill:#ff0000;stroke:#ff0000;stroke-width:3.81201;stroke-opacity:1"
       id="path1065-7-2-8-1-1-3-1-95-3-2-8-9-86"
       cx="244.74004"
       cy="705.11469"
       rx="20.583578"
       ry="20.583576" />
    <circle
       style="display:inline;fill:#ff0000;stroke:#ff0000;stroke-width:5.15744;stroke-opacity:1"
       id="path1065-7-2-8-1-0-6-7-3-1-9"
       cx="152.13586"
       cy="415.39493"
       r="26.525448" />
    <circle
       style="display:inline;fill:#ff0000;stroke:#ff0000;stroke-width:5.15744;stroke-opacity:1"
       id="path1065-7-2-8-1-0-6-7-3-1-6"
       cx="244.74004"
       cy="415.39493"
       r="26.525448" />
    <circle
       style="display:inline;fill:#ff0000;stroke:#ff0000;stroke-width:1.695;stroke-opacity:1"
       id="path1065-7-2-3-2"
       cx="59.53125"
       cy="549.01044"
       r="10.794167" />
    <circle
       style="display:inline;fill:#ff0000;stroke:#ff0000;stroke-width:1.695;stroke-opacity:1"
       id="path1065-7-2-3-2-4"
       cx="152.13586"
       cy="549.01044"
       r="10.794167" />
    <circle
       style="display:inline;fill:#ff0000;stroke:#ff0000;stroke-width:1.695;stroke-opacity:1"
       id="path1065-7-2-3-2-8"
       cx="244.74004"
       cy="549.01044"
       r="10.794167" />
    <circle
       style="display:inline;fill:#ff0000;stroke:#ff0000;stroke-width:4.03622;stroke-opacity:1"
       id="path1065-7-2-3-2-2-65-4"
       cx="337.34421"
       cy="698.50122"
       r="28.408974" />
    <circle
       style="display:inline;fill:#ff0000;stroke:#ff0000;stroke-width:1.695;stroke-opacity:1"
       id="path1065-7-2-3-2-0"
       cx="277.81125"
       cy="854.60419"
       r="10.794167" />
    <circle
       style="display:inline;fill:#ff0000;stroke:#ff0000;stroke-width:1.695;stroke-opacity:1"
       id="path1065-7-2-3-2-8-1"
       cx="289.71875"
       cy="678.65625"
       r="10.794167" />
    <circle
       style="display:inline;fill:#ff0000;stroke:#ff0000;stroke-width:1.695;stroke-opacity:1"
       id="path1065-7-2-3-2-1"
       cx="105.83378"
       cy="441.85419"
       r="10.794167" />
  </g>
</svg>
