<?xml version="1.0" encoding="UTF-8" standalone="no"?>
<svg
   width="75"
   height="380"
   viewBox="0 0 75 380"
   version="1.1"
   id="svg100"
   sodipodi:docname="BernoulliSwitchExpander_Coal.svg"
   inkscape:version="1.1.1 (3bf5ae0d25, 2021-09-20)"
   xmlns:inkscape="http://www.inkscape.org/namespaces/inkscape"
   xmlns:sodipodi="http://sodipodi.sourceforge.net/DTD/sodipodi-0.dtd"
   xmlns="http://www.w3.org/2000/svg"
   xmlns:svg="http://www.w3.org/2000/svg"
   xmlns:rdf="http://www.w3.org/1999/02/22-rdf-syntax-ns#"
   xmlns:cc="http://creativecommons.org/ns#"
   xmlns:dc="http://purl.org/dc/elements/1.1/">
  <metadata
     id="metadata104">
    <rdf:RDF>
      <cc:Work
         rdf:about="">
        <dc:format>image/svg+xml</dc:format>
        <dc:type
           rdf:resource="http://purl.org/dc/dcmitype/StillImage" />
      </cc:Work>
    </rdf:RDF>
  </metadata>
  <sodipodi:namedview
     pagecolor="#ffffff"
     bordercolor="#666666"
     borderopacity="1"
     objecttolerance="1"
     gridtolerance="1"
     guidetolerance="1"
     inkscape:pageopacity="0"
     inkscape:pageshadow="2"
     inkscape:window-width="1600"
     inkscape:window-height="837"
     id="namedview102"
     showgrid="true"
     inkscape:zoom="1.6552632"
     inkscape:cx="37.758347"
     inkscape:cy="238.33068"
     inkscape:window-x="-8"
     inkscape:window-y="-8"
     inkscape:window-maximized="1"
     inkscape:current-layer="svg100"
     inkscape:pagecheckerboard="0"
     units="px"
     inkscape:showpageshadow="false">
    <inkscape:grid
       type="xygrid"
       id="grid1285" />
  </sodipodi:namedview>
  <defs
     id="defs7">
    <rect
       x="85"
       y="10"
       width="51.058132"
       height="25"
       id="rect29906" />
    <linearGradient
       id="a8e142bb-541b-4903-be63-d5d069028a5d"
       x1="22.5"
       x2="22.5"
       y2="380"
       gradientUnits="userSpaceOnUse">
      <stop
         offset="0"
         stop-color="#ebebeb"
         id="stop2" />
      <stop
         offset="1"
         stop-color="#e1e1e1"
         id="stop4" />
    </linearGradient>
  </defs>
  <g
     id="aea613ef-74be-49bf-be45-c0734aee674b"
     data-name="FND BG"
     style="fill:#252525;fill-opacity:1"
     transform="scale(1.6666667,1)">
    <rect
       width="45"
       height="380"
       fill="url(#a8e142bb-541b-4903-be63-d5d069028a5d)"
       id="rect9"
       style="fill:#252525;fill-opacity:1"
       x="0"
       y="0" />
  </g>
  <g
     id="f45e0130-37b7-4f8b-95b3-6408baa23eb1"
     data-name="components"
     style="display:inline"
     inkscape:groupmode="layer">
    <g
       id="g25878"
       style="fill:#ede7dc;fill-opacity:1">
      <g
         aria-label="BERNOULLI"
         id="text5448"
         style="font-weight:bold;font-size:10.6667px;line-height:1.25;font-family:Arial;-inkscape-font-specification:'Arial, Bold';font-variant-ligatures:none;text-align:center;text-anchor:middle;fill:#ede7dc;fill-opacity:1"
         transform="translate(0,1.92304)">
        <path
           d="m 7.1275096,12.207169 h 3.0520934 q 0.906252,0 1.348962,0.07813 0.447918,0.07292 0.796878,0.312501 0.354168,0.239584 0.588543,0.640627 0.234376,0.395834 0.234376,0.890628 0,0.53646 -0.291668,0.984378 -0.286459,0.447918 -0.781252,0.671877 0.697919,0.203126 1.07292,0.69271 0.375001,0.489585 0.375001,1.151046 0,0.520835 -0.244792,1.015628 -0.239584,0.489585 -0.661461,0.786461 -0.416668,0.291667 -1.031253,0.359376 -0.385418,0.04167 -1.8593808,0.05208 H 7.1275096 Z m 1.5416716,1.270837 v 1.765631 H 9.679601 q 0.901045,0 1.119795,-0.02604 0.395835,-0.04687 0.619794,-0.270834 0.229167,-0.229168 0.229167,-0.598961 0,-0.354167 -0.197917,-0.572918 -0.192709,-0.223959 -0.578127,-0.270834 -0.229167,-0.02604 -1.3177124,-0.02604 z m 0,3.036468 v 2.041673 h 1.4270878 q 0.833336,0 1.057295,-0.04687 0.343751,-0.0625 0.557293,-0.302084 0.218751,-0.244793 0.218751,-0.651044 0,-0.343751 -0.166667,-0.583335 -0.166667,-0.239584 -0.484377,-0.34896 -0.312501,-0.109375 -1.3645872,-0.109375 z"
           id="path24804"
           style="fill:#ede7dc;fill-opacity:1" />
        <path
           d="m 14.825451,19.842609 v -7.63544 h 5.661476 v 1.29167 h -4.119805 v 1.692714 h 3.833346 v 1.286462 h -3.833346 v 2.078132 h 4.265639 v 1.286462 z"
           id="path24806"
           style="fill:#ede7dc;fill-opacity:1" />
        <path
           d="m 21.945264,19.842609 v -7.63544 h 3.244802 q 1.223962,0 1.776048,0.208334 0.557293,0.203125 0.890627,0.729169 0.333335,0.526043 0.333335,1.203128 0,0.859378 -0.50521,1.42188 -0.50521,0.557293 -1.510422,0.703127 0.500002,0.291668 0.82292,0.640627 0.328126,0.34896 0.880211,1.239587 l 0.932294,1.489588 h -1.843755 l -1.114587,-1.661463 q -0.593752,-0.890628 -0.812503,-1.119795 -0.218751,-0.234376 -0.463543,-0.31771 -0.244792,-0.08854 -0.776044,-0.08854 h -0.312501 v 3.18751 z m 1.541672,-4.406264 h 1.140629 q 1.109378,0 1.385421,-0.09375 0.276042,-0.09375 0.432293,-0.322917 0.15625,-0.229168 0.15625,-0.572919 0,-0.385418 -0.208334,-0.619794 -0.203126,-0.239584 -0.578127,-0.302084 -0.1875,-0.02604 -1.125003,-0.02604 h -1.203129 z"
           id="path24808"
           style="fill:#ede7dc;fill-opacity:1" />
        <path
           d="m 29.658831,19.842609 v -7.63544 h 1.500005 l 3.125009,5.098974 v -5.098974 h 1.432297 v 7.63544 h -1.54688 l -3.078135,-4.979182 v 4.979182 z"
           id="path24810"
           style="fill:#ede7dc;fill-opacity:1" />
        <path
           d="m 37.033855,16.071764 q 0,-1.16667 0.348959,-1.958339 0.260418,-0.583336 0.708336,-1.046879 0.453126,-0.463543 0.989586,-0.687502 0.713544,-0.302084 1.645839,-0.302084 1.687505,0 2.697925,1.046878 1.015628,1.046878 1.015628,2.911468 0,1.848964 -1.005211,2.895842 -1.005212,1.04167 -2.687509,1.04167 -1.70313,0 -2.708342,-1.036461 -1.005211,-1.04167 -1.005211,-2.864593 z m 1.588546,-0.05208 q 0,1.296879 0.598961,1.968756 0.59896,0.666669 1.520838,0.666669 0.921878,0 1.510421,-0.661461 0.593752,-0.666669 0.593752,-1.994798 0,-1.312504 -0.578127,-1.958339 -0.572918,-0.645836 -1.526046,-0.645836 -0.953128,0 -1.536464,0.656252 -0.583335,0.651044 -0.583335,1.968757 z"
           id="path24812"
           style="fill:#ede7dc;fill-opacity:1" />
        <path
           d="m 45.632839,12.207169 h 1.541671 v 4.135429 q 0,0.984378 0.05729,1.276046 0.09896,0.468752 0.468752,0.755211 0.375001,0.281251 1.020836,0.281251 0.656252,0 0.989587,-0.265626 0.333334,-0.270834 0.401043,-0.661461 0.06771,-0.390626 0.06771,-1.296879 V 12.207169 H 51.7214 v 4.010429 q 0,1.375004 -0.125001,1.942714 -0.125,0.567711 -0.463543,0.958337 -0.333334,0.390626 -0.895836,0.625002 -0.562502,0.229167 -1.468755,0.229167 -1.093753,0 -1.661463,-0.250001 -0.562502,-0.255209 -0.890628,-0.656252 -0.328126,-0.406251 -0.432293,-0.848961 -0.151042,-0.656252 -0.151042,-1.937506 z"
           id="path24814"
           style="fill:#ede7dc;fill-opacity:1" />
        <path
           d="m 53.388074,19.842609 v -7.57294 h 1.541671 v 6.286478 h 3.833346 v 1.286462 z"
           id="path24816"
           style="fill:#ede7dc;fill-opacity:1" />
        <path
           d="m 59.903718,19.842609 v -7.57294 h 1.541672 v 6.286478 h 3.833345 v 1.286462 z"
           id="path24818"
           style="fill:#ede7dc;fill-opacity:1" />
        <path
           d="m 66.33082,19.842609 v -7.63544 h 1.541672 v 7.63544 z"
           id="path24820"
           style="fill:#ede7dc;fill-opacity:1" />
      </g>
      <g
         aria-label="SWITCH"
         id="text5448-5"
         style="font-weight:bold;font-size:10.6667px;line-height:1.25;font-family:Arial;-inkscape-font-specification:'Arial, Bold';font-variant-ligatures:none;text-align:center;text-anchor:middle;display:inline;fill:#ede7dc;fill-opacity:1"
         transform="translate(0,-1.093512)">
        <path
           d="m 17.067646,32.374779 1.500004,-0.145834 q 0.135417,0.75521 0.546877,1.109378 0.416668,0.354168 1.119795,0.354168 0.744794,0 1.119796,-0.312501 0.380209,-0.317709 0.380209,-0.739586 0,-0.270834 -0.161459,-0.458334 -0.15625,-0.192709 -0.552085,-0.333335 -0.270834,-0.09375 -1.234379,-0.333334 -1.239587,-0.307293 -1.739589,-0.755211 -0.703127,-0.63021 -0.703127,-1.536463 0,-0.583335 0.328126,-1.088545 0.333335,-0.510418 0.953128,-0.776044 0.625002,-0.265626 1.505213,-0.265626 1.437505,0 2.161465,0.63021 0.729169,0.63021 0.765628,1.682297 l -1.541672,0.06771 q -0.09896,-0.588544 -0.427084,-0.843753 -0.322918,-0.260417 -0.973962,-0.260417 -0.671877,0 -1.052086,0.276042 -0.244793,0.177084 -0.244793,0.47396 0,0.270834 0.229168,0.463543 0.291667,0.244792 1.416671,0.510418 1.125003,0.265626 1.661463,0.552085 0.541669,0.281251 0.843753,0.776045 0.307293,0.489584 0.307293,1.213545 0,0.656252 -0.364585,1.229171 -0.364584,0.572918 -1.031253,0.854169 -0.666669,0.276042 -1.661464,0.276042 -1.447921,0 -2.223965,-0.666668 -0.776044,-0.671877 -0.927086,-1.953131 z"
           id="path24823"
           style="fill:#ede7dc;fill-opacity:1" />
        <path
           d="m 25.656215,34.859161 -1.822923,-7.63544 h 1.57813 l 1.151045,5.244808 1.395838,-5.244808 h 1.833339 l 1.338546,5.33335 1.171879,-5.33335 h 1.552088 l -1.854172,7.63544 h -1.635422 l -1.520838,-5.708351 -1.51563,5.708351 z"
           id="path24825"
           style="fill:#ede7dc;fill-opacity:1" />
        <path
           d="m 34.593743,34.859161 v -7.63544 h 1.541672 v 7.63544 z"
           id="path24827"
           style="fill:#ede7dc;fill-opacity:1" />
        <path
           d="m 39.322924,34.859161 v -6.34377 h -2.265632 v -1.29167 h 6.067728 v 1.29167 h -2.260424 v 6.34377 z"
           id="path24829"
           style="fill:#ede7dc;fill-opacity:1" />
        <path
           d="m 49.005247,32.051861 1.494796,0.47396 q -0.343751,1.250004 -1.145837,1.859381 -0.796877,0.604168 -2.026048,0.604168 -1.520838,0 -2.500008,-1.036461 -0.979169,-1.04167 -0.979169,-2.843759 0,-1.906256 0.984378,-2.958343 0.984378,-1.057295 2.58855,-1.057295 1.401046,0 2.276048,0.828127 0.520835,0.489585 0.781253,1.406255 l -1.526047,0.364584 q -0.135417,-0.593751 -0.56771,-0.937503 -0.427084,-0.343751 -1.04167,-0.343751 -0.848961,0 -1.380212,0.609377 -0.526044,0.609377 -0.526044,1.973965 0,1.447921 0.520835,2.062506 0.520835,0.614586 1.354171,0.614586 0.614585,0 1.057295,-0.390627 0.44271,-0.390626 0.635419,-1.22917 z"
           id="path24831"
           style="fill:#ede7dc;fill-opacity:1" />
        <path
           d="m 51.828173,34.859161 v -7.63544 h 1.541671 v 3.005217 h 3.020843 v -3.005217 h 1.541672 v 7.63544 h -1.541672 v -3.338552 h -3.020843 v 3.338552 z"
           id="path24833"
           style="fill:#ede7dc;fill-opacity:1" />
      </g>
      <g
         aria-label="EXPANDER"
         id="text5448-9"
         style="font-weight:bold;font-size:10.6667px;line-height:1.25;font-family:Arial;-inkscape-font-specification:'Arial, Bold';font-variant-ligatures:none;text-align:center;text-anchor:middle;display:inline;fill:#ede7dc;fill-opacity:1"
         transform="translate(0,-4.245476)">
        <path
           d="M 8.6769934,49.880917 V 42.245476 H 14.33847 v 1.291671 h -4.119805 v 1.692713 h 3.833345 v 1.286463 h -3.833345 v 2.078131 h 4.265638 v 1.286463 z"
           id="path24836"
           style="fill:#ede7dc;fill-opacity:1" />
        <path
           d="m 15.015555,49.880917 2.609383,-3.984388 -2.36459,-3.651053 h 1.802089 l 1.531255,2.453133 1.500004,-2.453133 h 1.786464 l -2.375007,3.708345 2.609383,3.927096 h -1.859381 l -1.692714,-2.640634 -1.697922,2.640634 z"
           id="path24838"
           style="fill:#ede7dc;fill-opacity:1" />
        <path
           d="m 22.906205,49.880917 v -7.635441 h 2.473966 q 1.406255,0 1.833339,0.114584 0.656253,0.171875 1.098962,0.750002 0.44271,0.572918 0.44271,1.48438 0,0.703127 -0.255209,1.182295 -0.255209,0.479168 -0.651044,0.755211 -0.390626,0.270834 -0.796877,0.359376 -0.552085,0.109375 -1.598964,0.109375 h -1.005211 v 2.880218 z m 1.541672,-6.34377 v 2.166673 h 0.843752 q 0.911462,0 1.218754,-0.119792 0.307293,-0.119792 0.479168,-0.375001 0.177084,-0.255209 0.177084,-0.593752 0,-0.416668 -0.244792,-0.687502 -0.244793,-0.270834 -0.619794,-0.338543 -0.276042,-0.05208 -1.109378,-0.05208 z"
           id="path24840"
           style="fill:#ede7dc;fill-opacity:1" />
        <path
           d="M 36.114581,49.880917 H 34.437492 L 33.770823,48.146536 H 30.71873 l -0.63021,1.734381 h -1.635422 l 2.973968,-7.635441 h 1.630213 z M 33.27603,46.860074 32.223943,44.026731 31.19269,46.860074 Z"
           id="path24842"
           style="fill:#ede7dc;fill-opacity:1" />
        <path
           d="m 36.947917,49.880917 v -7.635441 h 1.500005 l 3.12501,5.098974 v -5.098974 h 1.432296 v 7.635441 h -1.54688 l -3.078135,-4.979183 v 4.979183 z"
           id="path24844"
           style="fill:#ede7dc;fill-opacity:1" />
        <path
           d="m 44.630232,42.245476 h 2.817717 q 0.953128,0 1.453129,0.145834 0.671878,0.197917 1.151046,0.703127 0.479168,0.50521 0.729169,1.239587 0.25,0.729169 0.25,1.802089 0,0.942711 -0.234375,1.625005 -0.28646,0.833336 -0.817711,1.348963 -0.401043,0.390626 -1.083337,0.609377 -0.510418,0.161459 -1.364588,0.161459 h -2.90105 z m 1.541671,1.291671 v 5.057307 h 1.151045 q 0.645836,0 0.932295,-0.07292 0.375001,-0.09375 0.619794,-0.317709 0.25,-0.223959 0.406251,-0.734377 0.15625,-0.515627 0.15625,-1.401046 0,-0.88542 -0.15625,-1.35938 -0.156251,-0.47396 -0.437501,-0.739585 -0.281251,-0.265626 -0.713544,-0.359377 -0.322918,-0.07292 -1.265629,-0.07292 z"
           id="path24846"
           style="fill:#ede7dc;fill-opacity:1" />
        <path
           d="m 52.338592,49.880917 v -7.635441 h 5.661476 v 1.291671 h -4.119805 v 1.692713 h 3.833346 v 1.286463 h -3.833346 v 2.078131 h 4.265639 v 1.286463 z"
           id="path24848"
           style="fill:#ede7dc;fill-opacity:1" />
        <path
           d="m 59.458405,49.880917 v -7.635441 h 3.244802 q 1.223962,0 1.776047,0.208334 0.557294,0.203125 0.890628,0.729169 0.333334,0.526043 0.333334,1.203129 0,0.859377 -0.50521,1.421879 -0.50521,0.557293 -1.510421,0.703127 0.500002,0.291668 0.822919,0.640627 0.328126,0.34896 0.880211,1.239588 l 0.932295,1.489588 h -1.843756 l -1.114587,-1.661464 q -0.593752,-0.890628 -0.812502,-1.119795 -0.218751,-0.234376 -0.463543,-0.31771 -0.244793,-0.08854 -0.776045,-0.08854 h -0.312501 v 3.18751 z m 1.541671,-4.406264 h 1.140629 q 1.109379,0 1.385421,-0.09375 0.276043,-0.09375 0.432293,-0.322917 0.156251,-0.229168 0.156251,-0.572919 0,-0.385418 -0.208334,-0.619793 -0.203126,-0.239584 -0.578127,-0.302085 -0.187501,-0.02604 -1.125004,-0.02604 h -1.203129 z"
           id="path24850"
           style="fill:#ede7dc;fill-opacity:1" />
      </g>
      <g
         aria-label="MODE"
         id="text20250"
         style="font-weight:bold;font-size:7.99997px;line-height:1.25;font-family:Arial;-inkscape-font-specification:'Arial, Bold';font-variant-ligatures:none;text-align:center;text-anchor:middle;fill:#ede7dc;fill-opacity:1;stroke-width:0.999997">
        <path
           d="m 10.482465,82.323532 v -5.726541 h 1.730462 l 1.039059,3.906235 1.02734,-3.906235 h 1.734368 v 5.726541 h -1.074215 v -4.507795 l -1.136714,4.507795 H 12.689488 L 11.55668,77.815737 v 4.507795 z"
           id="path24853"
           style="fill:#ede7dc;fill-opacity:1" />
        <path
           d="m 16.927753,79.495418 q 0,-0.874997 0.261718,-1.468745 0.195312,-0.437498 0.531248,-0.785153 0.339843,-0.347655 0.742185,-0.515623 0.535154,-0.226562 1.23437,-0.226562 1.26562,0 2.02343,0.785154 0.761716,0.785153 0.761716,2.183585 0,1.386714 -0.753903,2.171867 -0.753904,0.781247 -2.015618,0.781247 -1.277339,0 -2.031242,-0.777341 -0.753904,-0.781247 -0.753904,-2.148429 z m 1.191402,-0.03906 q 0,0.972653 0.449217,1.476557 0.449217,0.499998 1.140621,0.499998 0.691404,0 1.132808,-0.496091 0.445311,-0.499999 0.445311,-1.496089 0,-0.984371 -0.433592,-1.468744 -0.429686,-0.484373 -1.144527,-0.484373 -0.714841,0 -1.15234,0.492185 -0.437498,0.48828 -0.437498,1.476557 z"
           id="path24855"
           style="fill:#ede7dc;fill-opacity:1" />
        <path
           d="m 23.380855,76.596991 h 2.113273 q 0.714841,0 1.08984,0.109375 0.503904,0.148437 0.863278,0.527341 0.359373,0.378905 0.546873,0.929684 0.187499,0.546873 0.187499,1.351558 0,0.707028 -0.175781,1.218745 -0.214843,0.624998 -0.613279,1.011715 -0.30078,0.292968 -0.812497,0.45703 -0.382811,0.121093 -1.023433,0.121093 h -2.175773 z m 1.156245,0.968746 v 3.792955 h 0.863278 q 0.484373,0 0.699216,-0.05469 0.281249,-0.07031 0.464842,-0.238281 0.1875,-0.167968 0.304687,-0.550779 0.117187,-0.386717 0.117187,-1.050777 0,-0.66406 -0.117187,-1.019528 -0.117187,-0.355467 -0.328124,-0.554685 -0.210937,-0.199218 -0.535154,-0.26953 -0.242187,-0.05469 -0.949215,-0.05469 z"
           id="path24857"
           style="fill:#ede7dc;fill-opacity:1" />
        <path
           d="m 29.162084,82.323532 v -5.726541 h 4.246077 v 0.968746 h -3.089832 v 1.269527 h 2.874989 v 0.96484 h -2.874989 v 1.558588 h 3.199207 v 0.96484 z"
           id="path24859"
           style="fill:#ede7dc;fill-opacity:1" />
      </g>
      <g
         aria-label="RISE THRESH"
         id="text20250-59"
         style="font-weight:bold;font-size:8px;line-height:1.25;font-family:Arial;-inkscape-font-specification:'Arial, Bold';font-variant-ligatures:none;text-align:center;text-anchor:middle;display:inline;fill:#ede7dc;fill-opacity:1"
         transform="translate(0,-0.99959)">
        <path
           d="m 11.207031,123.32381 v -5.72657 h 2.433594 q 0.917969,0 1.332031,0.15625 0.417969,0.15235 0.667969,0.54688 0.25,0.39453 0.25,0.90234 0,0.64453 -0.378906,1.06641 -0.378906,0.41797 -1.132813,0.52734 0.375,0.21875 0.617188,0.48047 0.246094,0.26172 0.660156,0.92969 l 0.699219,1.11719 h -1.382813 l -0.835937,-1.2461 q -0.445313,-0.66797 -0.609375,-0.83984 -0.164063,-0.17578 -0.347656,-0.23828 -0.183594,-0.0664 -0.582032,-0.0664 h -0.234375 v 2.39063 z m 1.15625,-3.30469 h 0.855469 q 0.832031,0 1.039063,-0.0703 0.207031,-0.0703 0.324218,-0.24219 0.117188,-0.17188 0.117188,-0.42969 0,-0.28906 -0.15625,-0.46484 -0.152344,-0.17969 -0.433594,-0.22656 -0.140625,-0.0195 -0.84375,-0.0195 h -0.902344 z"
           id="path24876"
           style="fill:#ede7dc;fill-opacity:1" />
        <path
           d="m 16.945312,123.32381 v -5.72657 h 1.15625 v 5.72657 z"
           id="path24878"
           style="fill:#ede7dc;fill-opacity:1" />
        <path
           d="m 18.910156,121.46053 1.125,-0.10938 q 0.101563,0.56641 0.410156,0.83203 0.3125,0.26563 0.839844,0.26563 0.558594,0 0.839844,-0.23438 0.285156,-0.23828 0.285156,-0.55469 0,-0.20312 -0.121094,-0.34375 -0.117187,-0.14453 -0.414062,-0.25 -0.203125,-0.0703 -0.925781,-0.25 -0.929688,-0.23046 -1.304688,-0.5664 -0.527344,-0.47266 -0.527344,-1.15235 0,-0.4375 0.246094,-0.8164 0.25,-0.38281 0.714844,-0.58203 0.46875,-0.19922 1.128906,-0.19922 1.078125,0 1.621094,0.47265 0.546875,0.47266 0.574219,1.26172 l -1.15625,0.0508 q -0.07422,-0.4414 -0.320313,-0.63281 -0.242187,-0.19531 -0.730469,-0.19531 -0.503906,0 -0.789062,0.20703 -0.183594,0.13281 -0.183594,0.35547 0,0.20312 0.171875,0.34766 0.21875,0.18359 1.0625,0.38281 0.84375,0.19922 1.246094,0.41406 0.40625,0.21094 0.632812,0.58203 0.230469,0.36719 0.230469,0.91016 0,0.49219 -0.273437,0.92187 -0.273438,0.42969 -0.773438,0.64063 -0.5,0.20703 -1.246094,0.20703 -1.085937,0 -1.667968,-0.5 -0.582032,-0.50391 -0.695313,-1.46484 z"
           id="path24880"
           style="fill:#ede7dc;fill-opacity:1" />
        <path
           d="m 24.539062,123.32381 v -5.72657 h 4.246094 v 0.96875 h -3.089844 v 1.26954 h 2.875 v 0.96484 h -2.875 v 1.55859 h 3.199219 v 0.96485 z"
           id="path24882"
           style="fill:#ede7dc;fill-opacity:1" />
        <path
           d="m 33.386719,123.32381 v -4.75782 H 31.6875 v -0.96875 h 4.550781 v 0.96875 h -1.695312 v 4.75782 z"
           id="path24884"
           style="fill:#ede7dc;fill-opacity:1" />
        <path
           d="m 36.988281,123.32381 v -5.72657 h 1.15625 v 2.25391 h 2.265625 v -2.25391 h 1.15625 v 5.72657 h -1.15625 v -2.50391 h -2.265625 v 2.50391 z"
           id="path24886"
           style="fill:#ede7dc;fill-opacity:1" />
        <path
           d="m 42.765625,123.32381 v -5.72657 h 2.433594 q 0.917968,0 1.332031,0.15625 0.417969,0.15235 0.667969,0.54688 0.25,0.39453 0.25,0.90234 0,0.64453 -0.378907,1.06641 -0.378906,0.41797 -1.132812,0.52734 0.375,0.21875 0.617187,0.48047 0.246094,0.26172 0.660157,0.92969 l 0.699218,1.11719 H 46.53125 l -0.835938,-1.2461 q -0.445312,-0.66797 -0.609375,-0.83984 -0.164062,-0.17578 -0.347656,-0.23828 -0.183594,-0.0664 -0.582031,-0.0664 h -0.234375 v 2.39063 z m 1.15625,-3.30469 h 0.855469 q 0.832031,0 1.039062,-0.0703 0.207031,-0.0703 0.324219,-0.24219 0.117187,-0.17188 0.117187,-0.42969 0,-0.28906 -0.15625,-0.46484 -0.152343,-0.17969 -0.433593,-0.22656 -0.140625,-0.0195 -0.84375,-0.0195 h -0.902344 z"
           id="path24888"
           style="fill:#ede7dc;fill-opacity:1" />
        <path
           d="m 48.539062,123.32381 v -5.72657 h 4.246094 v 0.96875 h -3.089844 v 1.26954 h 2.875 v 0.96484 h -2.875 v 1.55859 h 3.199219 v 0.96485 z"
           id="path24890"
           style="fill:#ede7dc;fill-opacity:1" />
        <path
           d="m 53.582031,121.46053 1.125,-0.10938 q 0.101563,0.56641 0.410156,0.83203 0.3125,0.26563 0.839844,0.26563 0.558594,0 0.839844,-0.23438 0.285156,-0.23828 0.285156,-0.55469 0,-0.20312 -0.121094,-0.34375 -0.117187,-0.14453 -0.414062,-0.25 -0.203125,-0.0703 -0.925781,-0.25 -0.929688,-0.23046 -1.304688,-0.5664 -0.527344,-0.47266 -0.527344,-1.15235 0,-0.4375 0.246094,-0.8164 0.25,-0.38281 0.714844,-0.58203 0.46875,-0.19922 1.128906,-0.19922 1.078125,0 1.621094,0.47265 0.546875,0.47266 0.574219,1.26172 l -1.15625,0.0508 q -0.07422,-0.4414 -0.320313,-0.63281 -0.242187,-0.19531 -0.730469,-0.19531 -0.503906,0 -0.789062,0.20703 -0.183594,0.13281 -0.183594,0.35547 0,0.20312 0.171875,0.34766 0.21875,0.18359 1.0625,0.38281 0.84375,0.19922 1.246094,0.41406 0.40625,0.21094 0.632812,0.58203 0.230469,0.36719 0.230469,0.91016 0,0.49219 -0.273437,0.92187 -0.273438,0.42969 -0.773438,0.64063 -0.5,0.20703 -1.246094,0.20703 -1.085937,0 -1.667968,-0.5 -0.582032,-0.50391 -0.695313,-1.46484 z"
           id="path24892"
           style="fill:#ede7dc;fill-opacity:1" />
        <path
           d="m 59.214844,123.32381 v -5.72657 h 1.15625 v 2.25391 h 2.265625 v -2.25391 h 1.15625 v 5.72657 h -1.15625 v -2.50391 h -2.265625 v 2.50391 z"
           id="path24894"
           style="fill:#ede7dc;fill-opacity:1" />
      </g>
      <g
         aria-label="FALL THRESH"
         id="text20250-59-1"
         style="font-weight:bold;font-size:8px;line-height:1.25;font-family:Arial;-inkscape-font-specification:'Arial, Bold';font-variant-ligatures:none;text-align:center;text-anchor:middle;display:inline;fill:#ede7dc;fill-opacity:1">
        <path
           d="m 10.619141,162.32381 v -5.72657 h 3.925781 v 0.96875 h -2.769531 v 1.35547 h 2.390625 v 0.96875 h -2.390625 v 2.4336 z"
           id="path24897"
           style="fill:#ede7dc;fill-opacity:1" />
        <path
           d="m 20.220703,162.32381 h -1.257812 l -0.5,-1.30078 h -2.289063 l -0.472656,1.30078 h -1.226563 l 2.230469,-5.72657 h 1.222656 z m -2.128906,-2.26563 -0.789063,-2.125 -0.773437,2.125 z"
           id="path24899"
           style="fill:#ede7dc;fill-opacity:1" />
        <path
           d="m 20.865234,162.32381 v -5.67969 h 1.15625 v 4.71484 h 2.875 v 0.96485 z"
           id="path24901"
           style="fill:#ede7dc;fill-opacity:1" />
        <path
           d="m 25.751953,162.32381 v -5.67969 h 1.15625 v 4.71484 h 2.875 v 0.96485 z"
           id="path24903"
           style="fill:#ede7dc;fill-opacity:1" />
        <path
           d="m 33.974609,162.32381 v -4.75782 h -1.699218 v -0.96875 h 4.550781 v 0.96875 h -1.695313 v 4.75782 z"
           id="path24905"
           style="fill:#ede7dc;fill-opacity:1" />
        <path
           d="m 37.576172,162.32381 v -5.72657 h 1.15625 v 2.25391 h 2.265625 v -2.25391 h 1.15625 v 5.72657 h -1.15625 v -2.50391 h -2.265625 v 2.50391 z"
           id="path24907"
           style="fill:#ede7dc;fill-opacity:1" />
        <path
           d="m 43.353516,162.32381 v -5.72657 h 2.433593 q 0.917969,0 1.332032,0.15625 0.417968,0.15235 0.667968,0.54688 0.25,0.39453 0.25,0.90234 0,0.64453 -0.378906,1.06641 -0.378906,0.41797 -1.132812,0.52734 0.375,0.21875 0.617187,0.48047 0.246094,0.26172 0.660156,0.92969 l 0.699219,1.11719 h -1.382812 l -0.835938,-1.2461 q -0.445312,-0.66797 -0.609375,-0.83984 -0.164062,-0.17578 -0.347656,-0.23828 -0.183594,-0.0664 -0.582031,-0.0664 h -0.234375 v 2.39063 z m 1.15625,-3.30469 h 0.855468 q 0.832032,0 1.039063,-0.0703 0.207031,-0.0703 0.324219,-0.24219 0.117187,-0.17188 0.117187,-0.42969 0,-0.28906 -0.15625,-0.46484 -0.152344,-0.17969 -0.433594,-0.22656 -0.140625,-0.0195 -0.84375,-0.0195 h -0.902343 z"
           id="path24909"
           style="fill:#ede7dc;fill-opacity:1" />
        <path
           d="m 49.126953,162.32381 v -5.72657 h 4.246094 v 0.96875 h -3.089844 v 1.26954 h 2.875 v 0.96484 h -2.875 v 1.55859 h 3.199219 v 0.96485 z"
           id="path24911"
           style="fill:#ede7dc;fill-opacity:1" />
        <path
           d="m 54.169922,160.46053 1.125,-0.10938 q 0.101562,0.56641 0.410156,0.83203 0.3125,0.26563 0.839844,0.26563 0.558594,0 0.839844,-0.23438 0.285156,-0.23828 0.285156,-0.55469 0,-0.20312 -0.121094,-0.34375 -0.117187,-0.14453 -0.414062,-0.25 -0.203125,-0.0703 -0.925782,-0.25 -0.929687,-0.23046 -1.304687,-0.5664 -0.527344,-0.47266 -0.527344,-1.15235 0,-0.4375 0.246094,-0.8164 0.25,-0.38281 0.714844,-0.58203 0.46875,-0.19922 1.128906,-0.19922 1.078125,0 1.621094,0.47265 0.546875,0.47266 0.574218,1.26172 l -1.15625,0.0508 q -0.07422,-0.4414 -0.320312,-0.63281 -0.242188,-0.19531 -0.730469,-0.19531 -0.503906,0 -0.789062,0.20703 -0.183594,0.13281 -0.183594,0.35547 0,0.20312 0.171875,0.34766 0.21875,0.18359 1.0625,0.38281 0.84375,0.19922 1.246094,0.41406 0.40625,0.21094 0.632812,0.58203 0.230469,0.36719 0.230469,0.91016 0,0.49219 -0.273438,0.92187 -0.273437,0.42969 -0.773437,0.64063 -0.5,0.20703 -1.246094,0.20703 -1.085937,0 -1.667969,-0.5 -0.582031,-0.50391 -0.695312,-1.46484 z"
           id="path24913"
           style="fill:#ede7dc;fill-opacity:1" />
        <path
           d="m 59.802734,162.32381 v -5.72657 h 1.15625 v 2.25391 h 2.265625 v -2.25391 h 1.15625 v 5.72657 h -1.15625 v -2.50391 h -2.265625 v 2.50391 z"
           id="path24915"
           style="fill:#ede7dc;fill-opacity:1" />
      </g>
      <g
         aria-label="A OFFSET"
         id="text20250-59-3"
         style="font-weight:bold;font-size:8px;line-height:1.25;font-family:Arial;-inkscape-font-specification:'Arial, Bold';font-variant-ligatures:none;text-align:center;text-anchor:middle;display:inline;fill:#ede7dc;fill-opacity:1">
        <path
           d="m 23.699219,202.32381 h -1.257813 l -0.5,-1.30078 h -2.289062 l -0.472657,1.30078 h -1.226562 l 2.230469,-5.72657 h 1.222656 z m -2.128907,-2.26563 -0.789062,-2.125 -0.773438,2.125 z"
           id="path24918"
           style="fill:#ede7dc;fill-opacity:1" />
        <path
           d="m 26.003906,199.49568 q 0,-0.875 0.261719,-1.46875 0.195312,-0.4375 0.53125,-0.78515 0.339844,-0.34766 0.742187,-0.51563 0.535157,-0.22656 1.234375,-0.22656 1.265625,0 2.023438,0.78515 0.761719,0.78516 0.761719,2.1836 0,1.38672 -0.753907,2.17187 -0.753906,0.78125 -2.015625,0.78125 -1.277343,0 -2.03125,-0.77734 -0.753906,-0.78125 -0.753906,-2.14844 z m 1.191406,-0.0391 q 0,0.97266 0.449219,1.47656 0.449219,0.5 1.140625,0.5 0.691406,0 1.132813,-0.49609 0.445312,-0.5 0.445312,-1.4961 0,-0.98437 -0.433594,-1.46875 -0.429687,-0.48437 -1.144531,-0.48437 -0.714844,0 -1.152344,0.49219 -0.4375,0.48828 -0.4375,1.47656 z"
           id="path24920"
           style="fill:#ede7dc;fill-opacity:1" />
        <path
           d="m 32.46875,202.32381 v -5.72657 h 3.925781 v 0.96875 H 33.625 v 1.35547 h 2.390625 v 0.96875 H 33.625 v 2.4336 z"
           id="path24922"
           style="fill:#ede7dc;fill-opacity:1" />
        <path
           d="m 37.355469,202.32381 v -5.72657 h 3.925781 v 0.96875 h -2.769531 v 1.35547 h 2.390625 v 0.96875 h -2.390625 v 2.4336 z"
           id="path24924"
           style="fill:#ede7dc;fill-opacity:1" />
        <path
           d="m 41.941406,200.46053 1.125,-0.10938 q 0.101563,0.56641 0.410156,0.83203 0.3125,0.26563 0.839844,0.26563 0.558594,0 0.839844,-0.23438 0.285156,-0.23828 0.285156,-0.55469 0,-0.20312 -0.121094,-0.34375 -0.117187,-0.14453 -0.414062,-0.25 -0.203125,-0.0703 -0.925781,-0.25 -0.929688,-0.23046 -1.304688,-0.5664 -0.527344,-0.47266 -0.527344,-1.15235 0,-0.4375 0.246094,-0.8164 0.25,-0.38281 0.714844,-0.58203 0.46875,-0.19922 1.128906,-0.19922 1.078125,0 1.621094,0.47265 0.546875,0.47266 0.574219,1.26172 l -1.15625,0.0508 q -0.07422,-0.4414 -0.320313,-0.63281 -0.242187,-0.19531 -0.730469,-0.19531 -0.503906,0 -0.789062,0.20703 -0.183594,0.13281 -0.183594,0.35547 0,0.20312 0.171875,0.34766 0.21875,0.18359 1.0625,0.38281 0.84375,0.19922 1.246094,0.41406 0.40625,0.21094 0.632812,0.58203 0.230469,0.36719 0.230469,0.91016 0,0.49219 -0.273437,0.92187 -0.273438,0.42969 -0.773438,0.64063 -0.5,0.20703 -1.246094,0.20703 -1.085937,0 -1.667968,-0.5 -0.582032,-0.50391 -0.695313,-1.46484 z"
           id="path24926"
           style="fill:#ede7dc;fill-opacity:1" />
        <path
           d="m 47.570312,202.32381 v -5.72657 h 4.246094 v 0.96875 h -3.089844 v 1.26954 h 2.875 v 0.96484 h -2.875 v 1.55859 h 3.199219 v 0.96485 z"
           id="path24928"
           style="fill:#ede7dc;fill-opacity:1" />
        <path
           d="m 54.195312,202.32381 v -4.75782 h -1.699218 v -0.96875 h 4.550781 v 0.96875 h -1.695313 v 4.75782 z"
           id="path24930"
           style="fill:#ede7dc;fill-opacity:1" />
      </g>
      <g
         aria-label="B OFFSET"
         id="text20250-59-0"
         style="font-weight:bold;font-size:8px;line-height:1.25;font-family:Arial;-inkscape-font-specification:'Arial, Bold';font-variant-ligatures:none;text-align:center;text-anchor:middle;display:inline;fill:#ede7dc;fill-opacity:1">
        <path
           d="m 18.097656,236.59724 h 2.289063 q 0.679687,0 1.011718,0.0586 0.335938,0.0547 0.597657,0.23437 0.265625,0.17969 0.441406,0.48047 0.175781,0.29688 0.175781,0.66797 0,0.40234 -0.21875,0.73828 -0.214844,0.33594 -0.585937,0.50391 0.523437,0.15234 0.804687,0.51953 0.28125,0.36719 0.28125,0.86328 0,0.39063 -0.183594,0.76172 -0.179687,0.36719 -0.496093,0.58984 -0.3125,0.21875 -0.773438,0.26953 -0.289062,0.0312 -1.394531,0.0391 h -1.949219 z m 1.15625,0.95313 v 1.32422 h 0.757813 q 0.675781,0 0.839843,-0.0195 0.296875,-0.0352 0.464844,-0.20313 0.171875,-0.17187 0.171875,-0.44922 0,-0.26562 -0.148437,-0.42968 -0.144532,-0.16797 -0.433594,-0.20313 -0.171875,-0.0195 -0.988281,-0.0195 z m 0,2.27734 v 1.53125 h 1.070313 q 0.625,0 0.792968,-0.0351 0.257813,-0.0469 0.417969,-0.22657 0.164063,-0.18359 0.164063,-0.48828 0,-0.25781 -0.125,-0.4375 -0.125,-0.17968 -0.363282,-0.26172 -0.234375,-0.082 -1.023437,-0.082 z"
           id="path24933"
           style="fill:#ede7dc;fill-opacity:1" />
        <path
           d="m 25.859375,239.49568 q 0,-0.875 0.261719,-1.46875 0.195312,-0.4375 0.53125,-0.78515 0.339843,-0.34766 0.742187,-0.51563 0.535156,-0.22656 1.234375,-0.22656 1.265625,0 2.023438,0.78515 0.761718,0.78516 0.761718,2.1836 0,1.38672 -0.753906,2.17187 -0.753906,0.78125 -2.015625,0.78125 -1.277344,0 -2.03125,-0.77734 -0.753906,-0.78125 -0.753906,-2.14844 z m 1.191406,-0.0391 q 0,0.97266 0.449219,1.47656 0.449219,0.5 1.140625,0.5 0.691406,0 1.132812,-0.49609 0.445313,-0.5 0.445313,-1.4961 0,-0.98437 -0.433594,-1.46875 -0.429687,-0.48437 -1.144531,-0.48437 -0.714844,0 -1.152344,0.49219 -0.4375,0.48828 -0.4375,1.47656 z"
           id="path24935"
           style="fill:#ede7dc;fill-opacity:1" />
        <path
           d="m 32.324219,242.32381 v -5.72657 H 36.25 v 0.96875 h -2.769531 v 1.35547 h 2.390625 v 0.96875 h -2.390625 v 2.4336 z"
           id="path24937"
           style="fill:#ede7dc;fill-opacity:1" />
        <path
           d="m 37.210937,242.32381 v -5.72657 h 3.925782 v 0.96875 h -2.769532 v 1.35547 h 2.390625 v 0.96875 h -2.390625 v 2.4336 z"
           id="path24939"
           style="fill:#ede7dc;fill-opacity:1" />
        <path
           d="m 41.796875,240.46053 1.125,-0.10938 q 0.101562,0.56641 0.410156,0.83203 0.3125,0.26563 0.839844,0.26563 0.558594,0 0.839844,-0.23438 0.285156,-0.23828 0.285156,-0.55469 0,-0.20312 -0.121094,-0.34375 -0.117187,-0.14453 -0.414062,-0.25 -0.203125,-0.0703 -0.925782,-0.25 -0.929687,-0.23046 -1.304687,-0.5664 -0.527344,-0.47266 -0.527344,-1.15235 0,-0.4375 0.246094,-0.8164 0.25,-0.38281 0.714844,-0.58203 0.46875,-0.19922 1.128906,-0.19922 1.078125,0 1.621094,0.47265 0.546875,0.47266 0.574218,1.26172 l -1.15625,0.0508 q -0.07422,-0.4414 -0.320312,-0.63281 -0.242188,-0.19531 -0.730469,-0.19531 -0.503906,0 -0.789062,0.20703 -0.183594,0.13281 -0.183594,0.35547 0,0.20312 0.171875,0.34766 0.21875,0.18359 1.0625,0.38281 0.84375,0.19922 1.246094,0.41406 0.40625,0.21094 0.632812,0.58203 0.230469,0.36719 0.230469,0.91016 0,0.49219 -0.273438,0.92187 -0.273437,0.42969 -0.773437,0.64063 -0.5,0.20703 -1.246094,0.20703 -1.085937,0 -1.667969,-0.5 -0.582031,-0.50391 -0.695312,-1.46484 z"
           id="path24941"
           style="fill:#ede7dc;fill-opacity:1" />
        <path
           d="m 47.425781,242.32381 v -5.72657 h 4.246094 v 0.96875 h -3.089844 v 1.26954 h 2.875 v 0.96484 h -2.875 v 1.55859 h 3.199219 v 0.96485 z"
           id="path24943"
           style="fill:#ede7dc;fill-opacity:1" />
        <path
           d="m 54.050781,242.32381 v -4.75782 h -1.699219 v -0.96875 h 4.550782 v 0.96875 h -1.695313 v 4.75782 z"
           id="path24945"
           style="fill:#ede7dc;fill-opacity:1" />
      </g>
      <g
         aria-label="A SCALE"
         id="text20250-59-07"
         style="font-weight:bold;font-size:8px;line-height:1.25;font-family:Arial;-inkscape-font-specification:'Arial, Bold';font-variant-ligatures:none;text-align:center;text-anchor:middle;display:inline;fill:#ede7dc;fill-opacity:1">
        <path
           d="m 26.037109,282.32379 h -1.257812 l -0.5,-1.30078 h -2.289063 l -0.472656,1.30078 h -1.226562 l 2.230468,-5.72656 h 1.222657 z m -2.128906,-2.26562 -0.789062,-2.125 -0.773438,2.125 z"
           id="path24948"
           style="fill:#ede7dc;fill-opacity:1" />
        <path
           d="m 28.283203,280.46051 1.125,-0.10937 q 0.101563,0.5664 0.410156,0.83203 0.3125,0.26562 0.839844,0.26562 0.558594,0 0.839844,-0.23437 0.285156,-0.23828 0.285156,-0.55469 0,-0.20313 -0.121094,-0.34375 -0.117187,-0.14453 -0.414062,-0.25 -0.203125,-0.0703 -0.925781,-0.25 -0.929688,-0.23047 -1.304688,-0.56641 -0.527344,-0.47265 -0.527344,-1.15234 0,-0.4375 0.246094,-0.81641 0.25,-0.38281 0.714844,-0.58203 0.46875,-0.19922 1.128906,-0.19922 1.078125,0 1.621094,0.47266 0.546875,0.47266 0.574219,1.26172 l -1.15625,0.0508 q -0.07422,-0.44141 -0.320313,-0.63281 -0.242187,-0.19532 -0.730469,-0.19532 -0.503906,0 -0.789062,0.20704 -0.183594,0.13281 -0.183594,0.35546 0,0.20313 0.171875,0.34766 0.21875,0.18359 1.0625,0.38281 0.84375,0.19922 1.246094,0.41407 0.40625,0.21093 0.632812,0.58203 0.230469,0.36718 0.230469,0.91015 0,0.49219 -0.273437,0.92188 -0.273438,0.42969 -0.773438,0.64062 -0.5,0.20703 -1.246094,0.20703 -1.085937,0 -1.667968,-0.5 -0.582032,-0.5039 -0.695313,-1.46484 z"
           id="path24950"
           style="fill:#ede7dc;fill-opacity:1" />
        <path
           d="m 37.576172,280.21832 1.121094,0.35547 q -0.257813,0.9375 -0.859375,1.39453 -0.597657,0.45313 -1.519532,0.45313 -1.140625,0 -1.875,-0.77735 -0.734375,-0.78125 -0.734375,-2.13281 0,-1.42969 0.738282,-2.21875 0.738281,-0.79297 1.941406,-0.79297 1.050781,0 1.707031,0.6211 0.390625,0.36718 0.585938,1.05468 l -1.144532,0.27344 q -0.101562,-0.44531 -0.425781,-0.70312 -0.320312,-0.25782 -0.78125,-0.25782 -0.636719,0 -1.035156,0.45704 -0.394531,0.45703 -0.394531,1.48046 0,1.08594 0.390625,1.54688 0.390625,0.46094 1.015625,0.46094 0.460937,0 0.792968,-0.29297 0.332032,-0.29297 0.476563,-0.92188 z"
           id="path24952"
           style="fill:#ede7dc;fill-opacity:1" />
        <path
           d="m 44.853516,282.32379 h -1.257813 l -0.5,-1.30078 h -2.289062 l -0.472657,1.30078 h -1.226562 l 2.230469,-5.72656 h 1.222656 z m -2.128907,-2.26562 -0.789062,-2.125 -0.773438,2.125 z"
           id="path24954"
           style="fill:#ede7dc;fill-opacity:1" />
        <path
           d="m 45.498047,282.32379 v -5.67969 h 1.15625 v 4.71485 h 2.875 v 0.96484 z"
           id="path24956"
           style="fill:#ede7dc;fill-opacity:1" />
        <path
           d="m 50.353516,282.32379 v -5.72656 h 4.246093 v 0.96875 h -3.089843 v 1.26953 h 2.875 v 0.96484 h -2.875 v 1.5586 h 3.199218 v 0.96484 z"
           id="path24958"
           style="fill:#ede7dc;fill-opacity:1" />
      </g>
      <g
         aria-label="B SCALE"
         id="text20250-59-08"
         style="font-weight:bold;font-size:8px;line-height:1.25;font-family:Arial;-inkscape-font-specification:'Arial, Bold';font-variant-ligatures:none;text-align:center;text-anchor:middle;display:inline;fill:#ede7dc;fill-opacity:1">
        <path
           d="m 20.435547,316.59723 h 2.289062 q 0.679688,0 1.011719,0.0586 0.335938,0.0547 0.597656,0.23438 0.265625,0.17969 0.441407,0.48047 0.175781,0.29687 0.175781,0.66797 0,0.40234 -0.21875,0.73828 -0.214844,0.33593 -0.585938,0.5039 0.523438,0.15235 0.804688,0.51953 0.28125,0.36719 0.28125,0.86329 0,0.39062 -0.183594,0.76171 -0.179687,0.36719 -0.496094,0.58985 -0.3125,0.21875 -0.773437,0.26953 -0.289063,0.0312 -1.394531,0.0391 h -1.949219 z m 1.15625,0.95312 v 1.32422 h 0.757812 q 0.675782,0 0.839844,-0.0195 0.296875,-0.0351 0.464844,-0.20312 0.171875,-0.17188 0.171875,-0.44922 0,-0.26563 -0.148438,-0.42969 -0.144531,-0.16797 -0.433593,-0.20312 -0.171875,-0.0195 -0.988282,-0.0195 z m 0,2.27735 v 1.53125 h 1.070312 q 0.625,0 0.792969,-0.0352 0.257813,-0.0469 0.417969,-0.22656 0.164062,-0.18359 0.164062,-0.48828 0,-0.25781 -0.125,-0.4375 -0.125,-0.17969 -0.363281,-0.26172 -0.234375,-0.082 -1.023437,-0.082 z"
           id="path24961"
           style="fill:#ede7dc;fill-opacity:1" />
        <path
           d="m 28.138672,320.46051 1.125,-0.10937 q 0.101562,0.5664 0.410156,0.83203 0.3125,0.26562 0.839844,0.26562 0.558594,0 0.839844,-0.23437 0.285156,-0.23828 0.285156,-0.55469 0,-0.20313 -0.121094,-0.34375 -0.117187,-0.14453 -0.414062,-0.25 -0.203125,-0.0703 -0.925782,-0.25 -0.929687,-0.23047 -1.304687,-0.56641 -0.527344,-0.47265 -0.527344,-1.15234 0,-0.4375 0.246094,-0.81641 0.25,-0.38281 0.714844,-0.58203 0.46875,-0.19922 1.128906,-0.19922 1.078125,0 1.621094,0.47266 0.546875,0.47266 0.574218,1.26172 l -1.15625,0.0508 q -0.07422,-0.44141 -0.320312,-0.63281 -0.242188,-0.19532 -0.730469,-0.19532 -0.503906,0 -0.789062,0.20704 -0.183594,0.13281 -0.183594,0.35546 0,0.20313 0.171875,0.34766 0.21875,0.18359 1.0625,0.38281 0.84375,0.19922 1.246094,0.41407 0.40625,0.21093 0.632812,0.58203 0.230469,0.36718 0.230469,0.91015 0,0.49219 -0.273438,0.92188 -0.273437,0.42969 -0.773437,0.64062 -0.5,0.20703 -1.246094,0.20703 -1.085937,0 -1.667969,-0.5 -0.582031,-0.5039 -0.695312,-1.46484 z"
           id="path24963"
           style="fill:#ede7dc;fill-opacity:1" />
        <path
           d="m 37.431641,320.21832 1.121093,0.35547 q -0.257812,0.9375 -0.859375,1.39453 -0.597656,0.45313 -1.519531,0.45313 -1.140625,0 -1.875,-0.77735 -0.734375,-0.78125 -0.734375,-2.13281 0,-1.42969 0.738281,-2.21875 0.738282,-0.79297 1.941407,-0.79297 1.050781,0 1.707031,0.6211 0.390625,0.36718 0.585937,1.05468 l -1.144531,0.27344 q -0.101562,-0.44531 -0.425781,-0.70312 -0.320313,-0.25782 -0.78125,-0.25782 -0.636719,0 -1.035156,0.45704 -0.394532,0.45703 -0.394532,1.48046 0,1.08594 0.390625,1.54688 0.390625,0.46094 1.015625,0.46094 0.460938,0 0.792969,-0.29297 0.332031,-0.29297 0.476563,-0.92188 z"
           id="path24965"
           style="fill:#ede7dc;fill-opacity:1" />
        <path
           d="m 44.708984,322.32379 h -1.257812 l -0.5,-1.30078 h -2.289063 l -0.472656,1.30078 h -1.226562 l 2.230468,-5.72656 h 1.222657 z m -2.128906,-2.26562 -0.789062,-2.125 -0.773438,2.125 z"
           id="path24967"
           style="fill:#ede7dc;fill-opacity:1" />
        <path
           d="m 45.353516,322.32379 v -5.67969 h 1.15625 v 4.71485 h 2.875 v 0.96484 z"
           id="path24969"
           style="fill:#ede7dc;fill-opacity:1" />
        <path
           d="m 50.208984,322.32379 v -5.72656 h 4.246094 v 0.96875 h -3.089844 v 1.26953 h 2.875 v 0.96484 h -2.875 v 1.5586 h 3.199219 v 0.96484 z"
           id="path24971"
           style="fill:#ede7dc;fill-opacity:1" />
      </g>
      <g
         aria-label="PROB"
         id="text20250-4"
         style="font-weight:bold;font-size:8.00005px;line-height:1.25;font-family:Arial;-inkscape-font-specification:'Arial, Bold';font-variant-ligatures:none;text-align:center;text-anchor:middle;display:inline;fill:#ede7dc;fill-opacity:1;stroke-width:1.00001">
        <path
           d="m 41.931573,72.324257 v -5.726598 h 1.85548 q 1.054694,0 1.375008,0.08594 0.492191,0.128907 0.824224,0.562503 0.332034,0.429691 0.332034,1.113289 0,0.527347 -0.191408,0.886724 -0.191407,0.359377 -0.488284,0.56641 -0.292971,0.203126 -0.59766,0.269532 -0.414065,0.08203 -1.199226,0.08203 H 43.08783 v 2.16017 z m 1.156257,-4.757842 v 1.62501 h 0.632816 q 0.683598,0 0.914068,-0.08984 0.230471,-0.08984 0.359378,-0.281252 0.132813,-0.191408 0.132813,-0.445315 0,-0.312502 -0.183595,-0.515629 -0.183595,-0.203126 -0.464847,-0.253907 -0.207032,-0.03906 -0.832036,-0.03906 z"
           id="path24862"
           style="fill:#ede7dc;fill-opacity:1" />
        <path
           d="m 47.271449,72.324257 v -5.726598 h 2.433609 q 0.917975,0 1.33204,0.156251 0.417971,0.152345 0.667973,0.546878 0.250001,0.394534 0.250001,0.90235 0,0.644535 -0.378909,1.066412 -0.378908,0.417972 -1.132819,0.527347 0.375002,0.218752 0.617191,0.480472 0.246096,0.261721 0.660161,0.929693 l 0.699223,1.117195 h -1.382821 l -0.835943,-1.246102 q -0.445315,-0.667972 -0.609379,-0.839849 -0.164063,-0.175782 -0.347658,-0.238282 -0.183595,-0.06641 -0.582035,-0.06641 h -0.234377 v 2.39064 z m 1.156257,-3.304708 h 0.855474 q 0.832037,0 1.039069,-0.07031 0.207033,-0.07031 0.324221,-0.242189 0.117188,-0.171876 0.117188,-0.42969 0,-0.289064 -0.156251,-0.464847 -0.152344,-0.179688 -0.433596,-0.226564 -0.140626,-0.01953 -0.843755,-0.01953 h -0.90235 z"
           id="path24864"
           style="fill:#ede7dc;fill-opacity:1" />
        <path
           d="m 52.810546,69.496114 q 0,-0.875005 0.26172,-1.468759 0.195314,-0.437502 0.531254,-0.785161 0.339846,-0.347658 0.742192,-0.515628 0.535159,-0.226564 1.234382,-0.226564 1.265633,0 2.023451,0.785161 0.761723,0.785161 0.761723,2.183607 0,1.386728 -0.753911,2.171889 -0.753911,0.781255 -2.015637,0.781255 -1.277352,0 -2.031263,-0.777349 -0.753911,-0.781255 -0.753911,-2.148451 z m 1.191414,-0.03906 q 0,0.972662 0.449221,1.476571 0.449222,0.500003 1.140632,0.500003 0.691411,0 1.13282,-0.496096 0.445315,-0.500004 0.445315,-1.496103 0,-0.984382 -0.433596,-1.46876 -0.429691,-0.484378 -1.144539,-0.484378 -0.714848,0 -1.152351,0.492191 -0.437502,0.488284 -0.437502,1.476572 z"
           id="path24866"
           style="fill:#ede7dc;fill-opacity:1" />
        <path
           d="M 59.271523,66.597659 H 61.5606 q 0.679692,0 1.011725,0.05859 0.335939,0.05469 0.59766,0.234376 0.265626,0.179689 0.441409,0.480472 0.175782,0.296877 0.175782,0.667973 0,0.402346 -0.218751,0.738286 -0.214845,0.335939 -0.585941,0.503909 0.52344,0.152345 0.804692,0.519535 0.281252,0.36719 0.281252,0.863286 0,0.390628 -0.183595,0.761724 -0.179689,0.36719 -0.496097,0.589847 -0.312502,0.218752 -0.773442,0.269533 -0.289064,0.03125 -1.39454,0.03906 h -1.949231 z m 1.156257,0.953131 v 1.324227 h 0.757818 q 0.675785,0 0.839849,-0.01953 0.296876,-0.03516 0.464846,-0.203126 0.171876,-0.171876 0.171876,-0.449221 0,-0.265627 -0.148438,-0.429691 -0.144532,-0.167969 -0.433597,-0.203126 -0.171876,-0.01953 -0.988287,-0.01953 z m 0,2.277358 v 1.531259 h 1.070319 q 0.625004,0 0.792974,-0.03516 0.257814,-0.04688 0.417971,-0.226564 0.164064,-0.183595 0.164064,-0.488284 0,-0.257815 -0.125001,-0.437503 -0.125001,-0.179689 -0.363283,-0.261721 -0.234377,-0.08203 -1.023444,-0.08203 z"
           id="path24868"
           style="fill:#ede7dc;fill-opacity:1" />
      </g>
      <g
         aria-label="CV"
         id="text20250-5"
         style="font-weight:bold;font-size:8px;line-height:1.25;font-family:Arial;-inkscape-font-specification:'Arial, Bold';font-variant-ligatures:none;text-align:center;text-anchor:middle;display:inline;fill:#ede7dc;fill-opacity:1">
        <path
           d="M 51.503906,80.218071 52.625,80.57354 q -0.257813,0.9375 -0.859375,1.394531 -0.597656,0.453125 -1.519531,0.453125 -1.140625,0 -1.875,-0.777344 -0.734375,-0.78125 -0.734375,-2.132812 0,-1.429688 0.738281,-2.21875 0.738281,-0.792969 1.941406,-0.792969 1.050781,0 1.707031,0.621094 0.390625,0.367187 0.585938,1.054687 l -1.144531,0.273438 q -0.101563,-0.445313 -0.425782,-0.703125 -0.320312,-0.257813 -0.78125,-0.257813 -0.636718,0 -1.035156,0.457031 -0.394531,0.457032 -0.394531,1.480469 0,1.085938 0.390625,1.546875 0.390625,0.460938 1.015625,0.460938 0.460937,0 0.792969,-0.292969 0.332031,-0.292969 0.476562,-0.921875 z"
           id="path24871"
           style="fill:#ede7dc;fill-opacity:1" />
        <path
           d="M 55.078125,82.32354 53.03125,76.596977 h 1.253906 l 1.449219,4.238281 1.402344,-4.238281 h 1.226562 L 56.3125,82.32354 Z"
           id="path24873"
           style="fill:#ede7dc;fill-opacity:1" />
      </g>
    </g>
    <g
       id="g25886"
       style="stroke:#ede7dc;stroke-opacity:1">
      <path
         style="fill:none;stroke:#ede7dc;stroke-width:1;stroke-linecap:butt;stroke-linejoin:miter;stroke-miterlimit:4;stroke-dasharray:none;stroke-opacity:1"
         d="M 22,137 H 53"
         id="path23327" />
      <path
         style="display:inline;fill:none;stroke:#ede7dc;stroke-width:1;stroke-linecap:butt;stroke-linejoin:miter;stroke-miterlimit:4;stroke-dasharray:none;stroke-opacity:1"
         d="M 22,177.8 H 53"
         id="path23327-5" />
      <path
         style="display:inline;fill:none;stroke:#ede7dc;stroke-width:1;stroke-linecap:butt;stroke-linejoin:miter;stroke-miterlimit:4;stroke-dasharray:none;stroke-opacity:1"
         d="M 22,217.6 H 53"
         id="path23327-6" />
      <path
         style="display:inline;fill:none;stroke:#ede7dc;stroke-width:1;stroke-linecap:butt;stroke-linejoin:miter;stroke-miterlimit:4;stroke-dasharray:none;stroke-opacity:1"
         d="M 22,257.4 H 53"
         id="path23327-1" />
      <path
         style="display:inline;fill:none;stroke:#ede7dc;stroke-width:1;stroke-linecap:butt;stroke-linejoin:miter;stroke-miterlimit:4;stroke-dasharray:none;stroke-opacity:1"
         d="M 22,297.20003 H 53"
         id="path23327-66" />
      <path
         style="display:inline;fill:none;stroke:#ede7dc;stroke-width:1;stroke-linecap:butt;stroke-linejoin:miter;stroke-miterlimit:4;stroke-dasharray:none;stroke-opacity:1"
         d="M 22,337 H 53"
         id="path23327-14" />
    </g>
  </g>
  <g
     id="g42796"
     transform="matrix(0.30458296,0,0,0.30458296,14.27481,-12.68508)"
     style="fill:#ff0000">
    <g
       aria-label="enom"
       id="text4270-27"
       style="font-size:49.3889px;line-height:1.25;font-family:'NECK ROMANCER';-inkscape-font-specification:'NECK ROMANCER, Normal';font-variant-ligatures:none;text-align:center;text-anchor:middle;fill:#ff0000;stroke-width:2.64583">
      <path
         d="m 46.609141,1249.244 q 0,1.1576 0,3.4245 3.183269,0 9.453344,0 -1.639866,0.5787 -2.990343,1.2058 -1.350478,0.627 -2.363337,1.688 -1.350477,0 -4.051433,0 0,1.4952 0.434082,2.5563 0.385851,1.1093 1.832792,1.1093 2.266873,0 6.80062,0 0.482313,-0.1447 0.868164,-0.627 0.337619,-0.5305 0.627007,-1.7363 0,2.0257 0,6.1254 -3.520888,0 -10.562665,0 -1.543403,0 -2.652724,-2.2187 -1.109321,-2.1704 -1.109321,-6.3183 0,-1.9775 0,-5.836 -0.385851,-1.3504 -1.881023,-2.1221 -1.495171,-0.7235 -3.569119,-1.2058 6.607694,0 19.774852,0 0,2.9421 0,8.7781 -1.205783,-2.701 -2.218642,-3.6656 -1.012858,-0.9646 -2.700955,-1.1093 -0.916396,-0.097 -2.170411,-0.097 -1.205783,0.048 -2.845649,0.048 -0.241157,0 -0.675239,0 z"
         id="path42762"
         style="fill:#ff0000" />
      <path
         d="m 81.576869,1245.2891 q 0,5.8842 0,17.7009 0,3.0868 -0.144694,6.0771 -0.09646,3.0386 -0.337619,5.9325 -0.385851,-3.7138 -0.964627,-6.9936 -0.530545,-3.3279 -2.025717,-5.016 0,-2.9904 0,-8.9228 -0.241157,-1.3505 -0.72347,-2.2187 -0.482314,-0.8681 -1.06109,-1.3987 -1.109321,-1.0128 -2.411567,-1.1093 -1.350478,-0.097 -2.266874,-0.097 -0.482313,0 -1.44694,0 0,4.582 0,13.746 0,3.0868 -0.09646,6.0771 -0.144694,3.0386 -0.385851,5.9325 -0.38585,-3.7138 -0.916395,-6.9936 -0.578776,-3.3279 -2.025717,-5.016 0,-4.8232 0,-14.373 -0.385851,-1.3504 -1.881022,-2.1221 -1.495172,-0.7235 -3.56912,-1.2058 6.752389,0 20.257166,0 z"
         id="path42764"
         style="fill:#ff0000" />
      <path
         d="m 104.19737,1249.0511 q 0,3.3762 0,10.1768 0,1.5434 -1.92925,2.6528 -1.92926,1.1093 -6.077152,1.1093 -4.196128,0 -6.125382,-1.1093 -1.929254,-1.1094 -1.929254,-2.6528 0,-3.3762 0,-10.1768 0,-1.5434 1.929254,-2.6527 1.929254,-1.1093 6.125382,-1.1093 4.147892,0 6.077152,1.1093 1.92925,1.1093 1.92925,2.6527 z m -3.76204,7.91 q 0,-1.8811 0,-5.6431 0,-1.6881 -1.254019,-1.9775 -1.205783,-0.2894 -2.990343,-0.2894 -1.832792,0 -3.038575,0.2894 -1.254015,0.2894 -1.254015,1.9775 0,1.881 0,5.6431 0,1.6881 1.254015,1.9774 1.205783,0.2894 3.038575,0.2894 1.78456,0 2.990343,-0.2894 1.254019,-0.2893 1.254019,-1.9774 z"
         id="path42766"
         style="fill:#ff0000" />
      <path
         d="m 142.34837,1245.2891 q -2.02572,0.4823 -3.52089,1.2058 -1.5434,0.7717 -1.88102,2.1221 0,4.7749 0,14.373 -1.49517,1.6881 -2.02572,5.016 -0.57878,3.2798 -0.96463,6.9936 -0.24115,-2.8939 -0.33762,-5.9325 -0.14469,-2.9903 -0.14469,-6.0771 0,-4.582 0,-13.746 -0.48231,0 -1.39871,0 -0.53054,0 -1.15755,0 -0.62701,0 -1.30225,0.1447 -1.25401,0.2412 -2.41157,1.2058 -1.15755,0.9646 -1.63986,3.4727 0,2.9903 0,8.9228 -0.1447,0.627 -0.28939,1.1093 -0.0965,0.4823 -0.19292,0.8199 -0.53055,1.9775 -0.38586,1.3505 0.19293,-0.627 -0.28938,1.1576 -0.0965,0.3376 -0.24116,0.8681 -0.14469,0.5306 -0.33762,1.3023 -0.14469,-0.6753 -0.28939,-1.2058 -0.14469,-0.4823 -0.24115,-0.8199 -0.53055,-2.0258 -0.33762,-1.3023 0.19292,0.7717 -0.43409,-1.6881 -0.0482,-0.2894 -0.19292,-0.7235 -0.0965,-0.3858 -0.19293,-0.8681 0,-2.9904 0,-8.9228 -0.28939,-1.3505 -0.7717,-2.2187 -0.48231,-0.8681 -1.06109,-1.3987 -1.10932,-1.0128 -2.41157,-1.1093 -1.30224,-0.097 -2.26687,-0.097 -0.48231,0 -1.39871,0 0,4.582 0,13.746 0,3.0868 -0.14469,6.0771 -0.0965,3.0386 -0.33762,5.9325 -0.38585,-3.7138 -0.96463,-6.9936 -0.53054,-3.3279 -2.02572,-5.016 0,-4.8232 0,-14.373 -0.38585,-1.3504 -1.88102,-2.1221 -1.49517,-0.7235 -3.56912,-1.2058 3.95497,0 11.76845,0 1.15755,0.3858 3.47266,1.1575 0.7717,0.2894 1.59163,0.4341 0.81994,0.1447 1.6881,0.1447 0.86816,0 1.73633,-0.1447 0.81993,-0.1447 1.59163,-0.4341 1.15756,-0.3858 3.42443,-1.1575 3.95497,0 11.76845,0 z"
         id="path42768"
         style="fill:#ff0000" />
    </g>
    <g
       aria-label="V"
       transform="matrix(1.2363173,0,0,0.80885384,-497.88086,123.48586)"
       id="text4270-3-5-2"
       style="font-size:78.5061px;line-height:1.25;font-family:Nosferotica;-inkscape-font-specification:'Nosferotica, Normal';font-variant-ligatures:none;text-align:center;text-anchor:middle;fill:#ff0000;stroke-width:3.27108">
      <path
         d="m 431.64994,1360.6864 8.57428,-0.1022 c 0,0 -4.4079,1.0878 -5.59925,3.7285 -1.88083,4.1689 -3.64217,14.6628 -3.64217,14.6628 l -2.23339,11.5191 -1.83311,11.8311 -1.71824,21.3112 -1.69514,-21.3112 -1.92196,-11.5208 -2.5009,-11.8294 c 0,0 -1.52027,-10.287 -3.38278,-14.4832 -1.14458,-2.5787 -5.63367,-3.8059 -5.63367,-3.8059 h 8.4657 l 6.66875,29.1569 z"
         id="path30410"
         sodipodi:nodetypes="ccscccccccscccc"
         style="fill:#ff0000" />
    </g>
  </g>
  <text
     xml:space="preserve"
     id="text29904"
     style="font-weight:bold;font-size:8px;line-height:1.25;font-family:Arial;-inkscape-font-specification:'Arial, Bold';font-variant-ligatures:none;text-align:center;white-space:pre;shape-inside:url(#rect29906)" />
  <g
     inkscape:groupmode="layer"
     id="layer1"
     inkscape:label="Widgets"
     style="display:none">
    <circle
       style="fill:#ff0000;stroke:#ff0000;stroke-width:1.8645;stroke-opacity:1"
       id="path1065-77"
       cx="53"
       cy="337"
       r="10.06775" />
    <circle
       style="display:inline;fill:#ff0000;stroke:#ff0000;stroke-width:1.8645;stroke-opacity:1"
       id="path1065-77-8"
       cx="53"
       cy="297"
       r="10.06775" />
    <circle
       style="fill:#ff0000;stroke:#ff0000;stroke-width:1.8645;stroke-opacity:1"
       id="path1065-7-3"
       cx="53"
       cy="257"
       r="10.06775" />
    <circle
       style="fill:#ff0000;stroke:#ff0000;stroke-width:1.8645;stroke-opacity:1"
       id="path1065-7-1-6"
       cx="53"
       cy="217"
       r="10.06775" />
    <circle
       style="fill:#ff0000;stroke:#ff0000;stroke-width:1.8645;stroke-opacity:1"
       id="path1065-7-2-3"
       cx="53"
       cy="177"
       r="10.06775" />
    <circle
       style="display:inline;fill:#ff0000;stroke:#ff0000;stroke-width:1.8645;stroke-opacity:1"
       id="path1065-7-2-3-9"
       cx="53"
       cy="137"
       r="10.06775" />
    <circle
       style="display:inline;fill:#ff0000;stroke:#ff0000;stroke-width:1.8645;stroke-opacity:1"
       id="path1065-7-2-3-0"
       cx="53"
       cy="97"
       r="10.06775" />
    <circle
       style="fill:#ff0000;stroke:#ff0000;stroke-width:1.94925;stroke-opacity:1"
       id="path1065"
       cx="22"
       cy="297"
       r="10.525375" />
    <circle
       style="fill:#ff0000;stroke:#ff0000;stroke-width:1.94925;stroke-opacity:1"
       id="path1065-7"
       cx="22"
       cy="257"
       r="10.525375" />
    <circle
       style="fill:#ff0000;stroke:#ff0000;stroke-width:1.94925;stroke-opacity:1"
       id="path1065-7-1"
       cx="22"
       cy="217"
       r="10.525375" />
    <circle
       style="fill:#ff0000;stroke:#ff0000;stroke-width:1.94925;stroke-opacity:1"
       id="path1065-7-2"
       cx="22"
       cy="177"
       r="10.525375" />
    <circle
       style="display:inline;fill:#ff0000;stroke:#ff0000;stroke-width:1.94925;stroke-opacity:1"
       id="path1065-7-2-8"
       cx="22"
       cy="137"
       r="10.525375" />
    <circle
       style="display:inline;fill:#ff0000;stroke:#ff0000;stroke-width:1.94925;stroke-opacity:1"
       id="path1065-7-2-1"
       cx="22"
       cy="97"
       r="10.525375" />
    <circle
       style="fill:#ff0000;stroke:#ff0000;stroke-width:1.94925;stroke-opacity:1"
       id="path1065-72"
       cx="22"
       cy="337"
       r="10.525375" />
  </g>
  <g
     inkscape:groupmode="layer"
     id="layer2"
     inkscape:label="Text Labels"
     style="display:none">
    <g
       id="g79750"
       transform="translate(110.00014,144.99964)">
      <text
         xml:space="preserve"
         style="font-weight:bold;font-size:8px;line-height:1.25;font-family:Arial;-inkscape-font-specification:'Arial, Bold';font-variant-ligatures:none;text-align:center;text-anchor:middle;fill:#252525;fill-opacity:1"
         x="-87.940086"
         y="6.9715729"
         id="text9323-7"><tspan
           sodipodi:role="line"
           id="tspan9321-1"
           x="-87.940086"
           y="6.9715729">MIX</tspan></text>
      <text
         xml:space="preserve"
         style="font-weight:bold;font-size:8px;line-height:1.25;font-family:Arial;-inkscape-font-specification:'Arial, Bold';font-variant-ligatures:none;text-align:center;text-anchor:middle;fill:#252525;fill-opacity:1"
         x="-99.504066"
         y="-117.83266"
         id="text9323-6-63"><tspan
           sodipodi:role="line"
           id="tspan9321-6-5"
           x="-99.504066"
           y="-117.83266">1</tspan></text>
      <text
         xml:space="preserve"
         style="font-weight:bold;font-size:8px;line-height:1.25;font-family:Arial;-inkscape-font-specification:'Arial, Bold';font-variant-ligatures:none;text-align:center;text-anchor:middle;fill:#252525;fill-opacity:1"
         x="-99.736488"
         y="-85.593033"
         id="text9323-6-3-7"><tspan
           sodipodi:role="line"
           id="tspan9321-6-1-8"
           x="-99.736488"
           y="-85.593033">2</tspan></text>
      <text
         xml:space="preserve"
         style="font-weight:bold;font-size:8px;line-height:1.25;font-family:Arial;-inkscape-font-specification:'Arial, Bold';font-variant-ligatures:none;text-align:center;text-anchor:middle;fill:#252525;fill-opacity:1"
         x="-99.816566"
         y="-53.402245"
         id="text9323-6-3-4-73"><tspan
           sodipodi:role="line"
           id="tspan9321-6-1-2-8"
           x="-99.816566"
           y="-53.402245">3</tspan></text>
      <text
         xml:space="preserve"
         style="font-weight:bold;font-size:8px;line-height:1.25;font-family:Arial;-inkscape-font-specification:'Arial, Bold';font-variant-ligatures:none;text-align:center;text-anchor:middle;fill:#252525;fill-opacity:1"
         x="-99.820473"
         y="-21.1138"
         id="text9323-6-3-4-7-92"><tspan
           sodipodi:role="line"
           id="tspan9321-6-1-2-1-0"
           x="-99.820473"
           y="-21.1138">4</tspan></text>
      <text
         xml:space="preserve"
         style="font-weight:bold;font-size:8px;line-height:1.25;font-family:Arial;-inkscape-font-specification:'Arial, Bold';font-variant-ligatures:none;text-align:center;text-anchor:middle;fill:#252525;fill-opacity:1"
         x="-99.504066"
         y="49.865448"
         id="text9323-6-6-4"><tspan
           sodipodi:role="line"
           id="tspan9321-6-6-6"
           x="-99.504066"
           y="49.865448">1</tspan></text>
      <text
         xml:space="preserve"
         style="font-weight:bold;font-size:8px;line-height:1.25;font-family:Arial;-inkscape-font-specification:'Arial, Bold';font-variant-ligatures:none;text-align:center;text-anchor:middle;fill:#252525;fill-opacity:1"
         x="-99.736488"
         y="83.105072"
         id="text9323-6-3-6-1"><tspan
           sodipodi:role="line"
           id="tspan9321-6-1-0-6"
           x="-99.736488"
           y="83.105072">2</tspan></text>
      <text
         xml:space="preserve"
         style="font-weight:bold;font-size:8px;line-height:1.25;font-family:Arial;-inkscape-font-specification:'Arial, Bold';font-variant-ligatures:none;text-align:center;text-anchor:middle;display:inline;fill:#252525;fill-opacity:1"
         x="-45.198311"
         y="-130.10384"
         id="text9323-6-3-6-1-4"><tspan
           sodipodi:role="line"
           id="tspan9321-6-1-0-6-2"
           x="-45.198311"
           y="-130.10384">ST</tspan></text>
      <text
         xml:space="preserve"
         style="font-weight:bold;font-size:8px;line-height:1.25;font-family:Arial;-inkscape-font-specification:'Arial, Bold';font-variant-ligatures:none;text-align:center;text-anchor:middle;fill:#252525;fill-opacity:1"
         x="-99.816566"
         y="116.29587"
         id="text9323-6-3-4-2-0"><tspan
           sodipodi:role="line"
           id="tspan9321-6-1-2-5-7"
           x="-99.816566"
           y="116.29587">3</tspan></text>
      <text
         xml:space="preserve"
         style="font-weight:bold;font-size:8px;line-height:1.25;font-family:Arial;-inkscape-font-specification:'Arial, Bold';font-variant-ligatures:none;text-align:center;text-anchor:middle;fill:#252525;fill-opacity:1"
         x="-99.820473"
         y="149.58432"
         id="text9323-6-3-4-7-9-7"><tspan
           sodipodi:role="line"
           id="tspan9321-6-1-2-1-3-7"
           x="-99.820473"
           y="149.58432">4</tspan></text>
      <text
         xml:space="preserve"
         style="font-style:normal;font-variant:normal;font-weight:bold;font-stretch:normal;font-size:12px;line-height:1.25;font-family:Arial;-inkscape-font-specification:'Arial, Bold';font-variant-ligatures:none;font-variant-caps:normal;font-variant-numeric:normal;font-variant-east-asian:normal;text-align:center;text-anchor:middle;fill:#252525;fill-opacity:1"
         x="-87.949852"
         y="-129.62764"
         id="text9323-12-5"><tspan
           sodipodi:role="line"
           id="tspan9321-5-0"
           x="-87.949852"
           y="-129.62764">MIX 4</tspan></text>
      <text
         xml:space="preserve"
         style="font-weight:bold;font-size:8px;line-height:1.25;font-family:Arial;-inkscape-font-specification:'Arial, Bold';font-variant-ligatures:none;text-align:center;text-anchor:middle;fill:#ede7dc;fill-opacity:1"
         x="-87.940086"
         y="180.90234"
         id="text9323-1-7"><tspan
           sodipodi:role="line"
           id="tspan9321-0-3"
           x="-87.940086"
           y="180.90234">MIX</tspan></text>
    </g>
  </g>
</svg>
