<?xml version="1.0" encoding="UTF-8" standalone="no"?>
<svg
   width="45"
   height="380"
   viewBox="0 0 45 380"
   version="1.1"
   id="svg100"
   sodipodi:docname="Bypass_Coal.svg"
   inkscape:version="1.1.1 (3bf5ae0d25, 2021-09-20)"
   xmlns:inkscape="http://www.inkscape.org/namespaces/inkscape"
   xmlns:sodipodi="http://sodipodi.sourceforge.net/DTD/sodipodi-0.dtd"
   xmlns="http://www.w3.org/2000/svg"
   xmlns:svg="http://www.w3.org/2000/svg"
   xmlns:rdf="http://www.w3.org/1999/02/22-rdf-syntax-ns#"
   xmlns:cc="http://creativecommons.org/ns#"
   xmlns:dc="http://purl.org/dc/elements/1.1/">
  <metadata
     id="metadata104">
    <rdf:RDF>
      <cc:Work
         rdf:about="">
        <dc:format>image/svg+xml</dc:format>
        <dc:type
           rdf:resource="http://purl.org/dc/dcmitype/StillImage" />
      </cc:Work>
    </rdf:RDF>
  </metadata>
  <sodipodi:namedview
     pagecolor="#ffffff"
     bordercolor="#666666"
     borderopacity="1"
     objecttolerance="1"
     gridtolerance="1"
     guidetolerance="1"
     inkscape:pageopacity="0"
     inkscape:pageshadow="2"
     inkscape:window-width="1920"
     inkscape:window-height="1057"
     id="namedview102"
     showgrid="true"
     inkscape:zoom="2.2342105"
     inkscape:cx="22.37927"
     inkscape:cy="190"
     inkscape:window-x="1592"
     inkscape:window-y="-8"
     inkscape:window-maximized="1"
     inkscape:current-layer="layer2"
     inkscape:pagecheckerboard="0"
     units="px"
     inkscape:showpageshadow="false"
     showborder="true">
    <inkscape:grid
       type="xygrid"
       id="grid1285"
       visible="false" />
  </sodipodi:namedview>
  <defs
     id="defs7">
    <rect
       x="85"
       y="10"
       width="51.058132"
       height="25"
       id="rect29906" />
    <linearGradient
       id="a8e142bb-541b-4903-be63-d5d069028a5d"
       x1="22.5"
       x2="22.5"
       y2="380"
       gradientUnits="userSpaceOnUse">
      <stop
         offset="0"
         stop-color="#ebebeb"
         id="stop2" />
      <stop
         offset="1"
         stop-color="#e1e1e1"
         id="stop4" />
    </linearGradient>
  </defs>
  <g
     inkscape:groupmode="layer"
     id="layer2"
     inkscape:label="Faceplate"
     style="display:inline">
    <g
       id="aea613ef-74be-49bf-be45-c0734aee674b"
       data-name="FND BG"
       style="fill:#252525;fill-opacity:1">
      <rect
         width="45"
         height="380"
         fill="url(#a8e142bb-541b-4903-be63-d5d069028a5d)"
         id="rect9"
         style="fill:#252525;fill-opacity:1"
         x="0"
         y="0" />
    </g>
  </g>
  <g
     inkscape:groupmode="layer"
     id="layer3"
     inkscape:label="Brand"
     style="display:inline">
    <g
       id="g42796"
       transform="matrix(0.30458296,0,0,0.30458296,-0.5624499,-12.68508)"
       style="fill:#ff0000">
      <g
         aria-label="enom"
         id="text4270-27"
         style="font-size:49.3889px;line-height:1.25;font-family:'NECK ROMANCER';-inkscape-font-specification:'NECK ROMANCER, Normal';font-variant-ligatures:none;text-align:center;text-anchor:middle;fill:#ff0000;stroke-width:2.64583">
        <path
           d="m 46.609141,1249.244 q 0,1.1576 0,3.4245 3.183269,0 9.453344,0 -1.639866,0.5787 -2.990343,1.2058 -1.350478,0.627 -2.363337,1.688 -1.350477,0 -4.051433,0 0,1.4952 0.434082,2.5563 0.385851,1.1093 1.832792,1.1093 2.266873,0 6.80062,0 0.482313,-0.1447 0.868164,-0.627 0.337619,-0.5305 0.627007,-1.7363 0,2.0257 0,6.1254 -3.520888,0 -10.562665,0 -1.543403,0 -2.652724,-2.2187 -1.109321,-2.1704 -1.109321,-6.3183 0,-1.9775 0,-5.836 -0.385851,-1.3504 -1.881023,-2.1221 -1.495171,-0.7235 -3.569119,-1.2058 6.607694,0 19.774852,0 0,2.9421 0,8.7781 -1.205783,-2.701 -2.218642,-3.6656 -1.012858,-0.9646 -2.700955,-1.1093 -0.916396,-0.097 -2.170411,-0.097 -1.205783,0.048 -2.845649,0.048 -0.241157,0 -0.675239,0 z"
           id="path42762"
           style="fill:#ff0000" />
        <path
           d="m 81.576869,1245.2891 q 0,5.8842 0,17.7009 0,3.0868 -0.144694,6.0771 -0.09646,3.0386 -0.337619,5.9325 -0.385851,-3.7138 -0.964627,-6.9936 -0.530545,-3.3279 -2.025717,-5.016 0,-2.9904 0,-8.9228 -0.241157,-1.3505 -0.72347,-2.2187 -0.482314,-0.8681 -1.06109,-1.3987 -1.109321,-1.0128 -2.411567,-1.1093 -1.350478,-0.097 -2.266874,-0.097 -0.482313,0 -1.44694,0 0,4.582 0,13.746 0,3.0868 -0.09646,6.0771 -0.144694,3.0386 -0.385851,5.9325 -0.38585,-3.7138 -0.916395,-6.9936 -0.578776,-3.3279 -2.025717,-5.016 0,-4.8232 0,-14.373 -0.385851,-1.3504 -1.881022,-2.1221 -1.495172,-0.7235 -3.56912,-1.2058 6.752389,0 20.257166,0 z"
           id="path42764"
           style="fill:#ff0000" />
        <path
           d="m 104.19737,1249.0511 q 0,3.3762 0,10.1768 0,1.5434 -1.92925,2.6528 -1.92926,1.1093 -6.077152,1.1093 -4.196128,0 -6.125382,-1.1093 -1.929254,-1.1094 -1.929254,-2.6528 0,-3.3762 0,-10.1768 0,-1.5434 1.929254,-2.6527 1.929254,-1.1093 6.125382,-1.1093 4.147892,0 6.077152,1.1093 1.92925,1.1093 1.92925,2.6527 z m -3.76204,7.91 q 0,-1.8811 0,-5.6431 0,-1.6881 -1.254019,-1.9775 -1.205783,-0.2894 -2.990343,-0.2894 -1.832792,0 -3.038575,0.2894 -1.254015,0.2894 -1.254015,1.9775 0,1.881 0,5.6431 0,1.6881 1.254015,1.9774 1.205783,0.2894 3.038575,0.2894 1.78456,0 2.990343,-0.2894 1.254019,-0.2893 1.254019,-1.9774 z"
           id="path42766"
           style="fill:#ff0000" />
        <path
           d="m 142.34837,1245.2891 q -2.02572,0.4823 -3.52089,1.2058 -1.5434,0.7717 -1.88102,2.1221 0,4.7749 0,14.373 -1.49517,1.6881 -2.02572,5.016 -0.57878,3.2798 -0.96463,6.9936 -0.24115,-2.8939 -0.33762,-5.9325 -0.14469,-2.9903 -0.14469,-6.0771 0,-4.582 0,-13.746 -0.48231,0 -1.39871,0 -0.53054,0 -1.15755,0 -0.62701,0 -1.30225,0.1447 -1.25401,0.2412 -2.41157,1.2058 -1.15755,0.9646 -1.63986,3.4727 0,2.9903 0,8.9228 -0.1447,0.627 -0.28939,1.1093 -0.0965,0.4823 -0.19292,0.8199 -0.53055,1.9775 -0.38586,1.3505 0.19293,-0.627 -0.28938,1.1576 -0.0965,0.3376 -0.24116,0.8681 -0.14469,0.5306 -0.33762,1.3023 -0.14469,-0.6753 -0.28939,-1.2058 -0.14469,-0.4823 -0.24115,-0.8199 -0.53055,-2.0258 -0.33762,-1.3023 0.19292,0.7717 -0.43409,-1.6881 -0.0482,-0.2894 -0.19292,-0.7235 -0.0965,-0.3858 -0.19293,-0.8681 0,-2.9904 0,-8.9228 -0.28939,-1.3505 -0.7717,-2.2187 -0.48231,-0.8681 -1.06109,-1.3987 -1.10932,-1.0128 -2.41157,-1.1093 -1.30224,-0.097 -2.26687,-0.097 -0.48231,0 -1.39871,0 0,4.582 0,13.746 0,3.0868 -0.14469,6.0771 -0.0965,3.0386 -0.33762,5.9325 -0.38585,-3.7138 -0.96463,-6.9936 -0.53054,-3.3279 -2.02572,-5.016 0,-4.8232 0,-14.373 -0.38585,-1.3504 -1.88102,-2.1221 -1.49517,-0.7235 -3.56912,-1.2058 3.95497,0 11.76845,0 1.15755,0.3858 3.47266,1.1575 0.7717,0.2894 1.59163,0.4341 0.81994,0.1447 1.6881,0.1447 0.86816,0 1.73633,-0.1447 0.81993,-0.1447 1.59163,-0.4341 1.15756,-0.3858 3.42443,-1.1575 3.95497,0 11.76845,0 z"
           id="path42768"
           style="fill:#ff0000" />
      </g>
      <g
         aria-label="V"
         transform="matrix(1.2363173,0,0,0.80885384,-497.88086,123.48586)"
         id="text4270-3-5-2"
         style="font-size:78.5061px;line-height:1.25;font-family:Nosferotica;-inkscape-font-specification:'Nosferotica, Normal';font-variant-ligatures:none;text-align:center;text-anchor:middle;fill:#ff0000;stroke-width:3.27108">
        <path
           d="m 431.64994,1360.6864 8.57428,-0.1022 c 0,0 -4.4079,1.0878 -5.59925,3.7285 -1.88083,4.1689 -3.64217,14.6628 -3.64217,14.6628 l -2.23339,11.5191 -1.83311,11.8311 -1.71824,21.3112 -1.69514,-21.3112 -1.92196,-11.5208 -2.5009,-11.8294 c 0,0 -1.52027,-10.287 -3.38278,-14.4832 -1.14458,-2.5787 -5.63367,-3.8059 -5.63367,-3.8059 h 8.4657 l 6.66875,29.1569 z"
           id="path30410"
           sodipodi:nodetypes="ccscccccccscccc"
           style="fill:#ff0000" />
      </g>
    </g>
  </g>
  <g
     inkscape:groupmode="layer"
     id="layer4"
     inkscape:label="Solid"
     style="display:inline">
    <rect
       style="display:inline;fill:#ede7dc;fill-opacity:1;stroke:none;stroke-width:0.623623"
       id="rect17730-2"
       width="32.363998"
       height="39.208"
       x="6.3180008"
       y="141.87801"
       ry="6.2661958"
       rx="6.2661953" />
    <g
       aria-label="BYPASS"
       id="text25135"
       style="font-weight:bold;font-size:10px;line-height:1.25;font-family:Arial;-inkscape-font-specification:'Arial, Bold';font-variant-ligatures:none;text-align:center;text-anchor:middle;fill:#ede7dc;fill-opacity:1"
       transform="translate(0,-2)">
      <path
         d="m 2.9117832,9.0094662 h 2.8613281 q 0.8496094,0 1.2646485,0.073242 0.4199219,0.068359 0.7470703,0.2929687 0.3320312,0.2246094 0.5517578,0.6005859 0.2197266,0.3710942 0.2197266,0.8349612 0,0.50293 -0.2734375,0.922852 -0.2685547,0.419921 -0.7324219,0.629882 0.6542969,0.19043 1.0058594,0.649414 0.3515625,0.458985 0.3515625,1.079102 0,0.488281 -0.2294922,0.952148 -0.2246094,0.458985 -0.6201172,0.737305 -0.390625,0.273438 -0.9667969,0.336914 -0.3613281,0.03906 -1.743164,0.04883 H 2.9117832 Z m 1.4453125,1.1914058 v 1.655274 h 0.9472656 q 0.8447266,0 1.0498047,-0.02441 0.3710938,-0.04395 0.5810547,-0.253906 0.2148438,-0.214844 0.2148438,-0.561524 0,-0.332031 -0.1855469,-0.537109 Q 6.7838535,10.269236 6.4225254,10.22529 6.2076817,10.20088 5.1871738,10.20088 Z m 0,2.84668 v 1.914063 h 1.3378906 q 0.78125,0 0.991211,-0.04395 0.3222656,-0.05859 0.5224609,-0.283203 0.2050781,-0.229492 0.2050781,-0.610351 0,-0.322266 -0.15625,-0.546875 Q 7.1012363,13.25263 6.8033848,13.150091 6.510416,13.047552 5.5240879,13.047552 Z"
         id="path1521"
         style="fill:#ede7dc;fill-opacity:1" />
      <path
         d="M 12.008463,16.167669 V 13.154974 L 9.3863926,9.0094662 h 1.6943364 l 1.68457,2.8320308 1.65039,-2.8320308 h 1.66504 L 13.448893,13.16474 v 3.002929 z"
         id="path1523"
         style="fill:#ede7dc;fill-opacity:1" />
      <path
         d="M 16.798502,16.167669 V 9.0094662 h 2.319336 q 1.318359,0 1.71875,0.1074218 0.615234,0.1611329 1.030273,0.703125 0.415039,0.537109 0.415039,1.391602 0,0.659179 -0.239257,1.108398 -0.239258,0.449219 -0.610352,0.708008 -0.366211,0.253906 -0.74707,0.336914 -0.517578,0.102539 -1.499024,0.102539 h -0.942383 v 2.700195 z m 1.445312,-5.947265 v 2.03125 h 0.791016 q 0.854492,0 1.142578,-0.112305 0.288086,-0.112305 0.449219,-0.351563 0.166016,-0.239257 0.166016,-0.55664 0,-0.390625 -0.229493,-0.644531 -0.229492,-0.253907 -0.581054,-0.317383 -0.258789,-0.04883 -1.040039,-0.04883 z"
         id="path1525"
         style="fill:#ede7dc;fill-opacity:1" />
      <path
         d="m 29.181314,16.167669 h -1.572265 l -0.625,-1.625976 H 24.122721 L 23.5319,16.167669 h -1.533203 l 2.788086,-7.1582028 h 1.528321 z m -2.661132,-2.832031 -0.986328,-2.65625 -0.966797,2.65625 z"
         id="path1527"
         style="fill:#ede7dc;fill-opacity:1" />
      <path
         d="m 29.581705,13.838568 1.40625,-0.136719 q 0.126953,0.708008 0.512695,1.040039 0.390625,0.332031 1.049805,0.332031 0.698242,0 1.049805,-0.292968 0.356445,-0.297852 0.356445,-0.69336 0,-0.253906 -0.151367,-0.429687 -0.146484,-0.180664 -0.517578,-0.3125 -0.253906,-0.08789 -1.157227,-0.3125 -1.162109,-0.288086 -1.630859,-0.708008 -0.65918,-0.59082 -0.65918,-1.44043 0,-0.546875 0.307617,-1.0205076 0.3125,-0.4785157 0.893555,-0.7275391 0.585938,-0.2490234 1.411133,-0.2490234 1.347656,0 2.026367,0.5908203 0.683594,0.5908198 0.717773,1.5771488 l -1.445312,0.06348 q -0.09277,-0.551758 -0.400391,-0.791015 -0.302734,-0.244141 -0.913086,-0.244141 -0.629882,0 -0.986328,0.258789 -0.229492,0.166016 -0.229492,0.444336 0,0.253906 0.214844,0.43457 0.273437,0.229492 1.328125,0.478516 1.054687,0.249023 1.557617,0.517578 0.507813,0.263672 0.791016,0.727539 0.288086,0.458984 0.288086,1.137695 0,0.615235 -0.341797,1.152344 -0.341797,0.537109 -0.966797,0.800781 -0.625,0.258789 -1.557617,0.258789 -1.357422,0 -2.084961,-0.625 -0.727539,-0.629882 -0.869141,-1.831054 z"
         id="path1529"
         style="fill:#ede7dc;fill-opacity:1" />
      <path
         d="m 36.251627,13.838568 1.40625,-0.136719 q 0.126953,0.708008 0.512695,1.040039 0.390625,0.332031 1.049805,0.332031 0.698242,0 1.049805,-0.292968 0.356445,-0.297852 0.356445,-0.69336 0,-0.253906 -0.151367,-0.429687 -0.146485,-0.180664 -0.517578,-0.3125 -0.253907,-0.08789 -1.157227,-0.3125 -1.162109,-0.288086 -1.630859,-0.708008 -0.65918,-0.59082 -0.65918,-1.44043 0,-0.546875 0.307617,-1.0205076 0.3125,-0.4785157 0.893555,-0.7275391 0.585937,-0.2490234 1.411133,-0.2490234 1.347656,0 2.026367,0.5908203 0.683594,0.5908198 0.717773,1.5771488 l -1.445312,0.06348 q -0.09277,-0.551758 -0.400391,-0.791015 -0.302734,-0.244141 -0.913086,-0.244141 -0.629883,0 -0.986328,0.258789 -0.229492,0.166016 -0.229492,0.444336 0,0.253906 0.214844,0.43457 0.273437,0.229492 1.328125,0.478516 1.054687,0.249023 1.557617,0.517578 0.507812,0.263672 0.791016,0.727539 0.288085,0.458984 0.288085,1.137695 0,0.615235 -0.341796,1.152344 -0.341797,0.537109 -0.966797,0.800781 -0.625,0.258789 -1.557617,0.258789 -1.357422,0 -2.084961,-0.625 -0.727539,-0.629882 -0.869141,-1.831054 z"
         id="path1531"
         style="fill:#ede7dc;fill-opacity:1" />
    </g>
    <g
       aria-label="TRIG"
       id="text25135-4"
       style="font-weight:bold;font-size:8px;line-height:1.25;font-family:Arial;-inkscape-font-specification:'Arial, Bold';font-variant-ligatures:none;text-align:center;text-anchor:middle;display:inline;fill:#ede7dc;fill-opacity:1"
       transform="translate(0,-7.778278)">
      <path
         d="m 14.972656,34.242496 v -4.757812 h -1.699218 v -0.96875 h 4.550781 v 0.96875 h -1.695313 v 4.757812 z"
         id="path1534"
         style="fill:#ede7dc;fill-opacity:1" />
      <path
         d="m 18.574219,34.242496 v -5.726562 h 2.433593 q 0.917969,0 1.332032,0.15625 0.417968,0.152344 0.667968,0.546875 0.25,0.394531 0.25,0.902344 0,0.644531 -0.378906,1.066406 -0.378906,0.417969 -1.132812,0.527344 0.375,0.21875 0.617187,0.480468 0.246094,0.261719 0.660156,0.929688 l 0.699219,1.117187 h -1.382812 l -0.835938,-1.246093 q -0.445312,-0.667969 -0.609375,-0.839844 -0.164062,-0.175781 -0.347656,-0.238281 -0.183594,-0.06641 -0.582031,-0.06641 h -0.234375 v 2.390625 z m 1.15625,-3.304687 h 0.855468 q 0.832032,0 1.039063,-0.07031 0.207031,-0.07031 0.324219,-0.242187 0.117187,-0.171875 0.117187,-0.429688 0,-0.289062 -0.15625,-0.464843 -0.152344,-0.179688 -0.433594,-0.226563 -0.140625,-0.01953 -0.84375,-0.01953 h -0.902343 z"
         id="path1536"
         style="fill:#ede7dc;fill-opacity:1" />
      <path
         d="m 24.3125,34.242496 v -5.726562 h 1.15625 v 5.726562 z"
         id="path1538"
         style="fill:#ede7dc;fill-opacity:1" />
      <path
         d="m 29.234375,32.137028 v -0.964844 h 2.492187 v 2.28125 q -0.363281,0.351562 -1.054687,0.621094 -0.6875,0.265625 -1.394531,0.265625 -0.898438,0 -1.566407,-0.375 -0.667968,-0.378907 -1.003906,-1.078125 -0.335937,-0.703125 -0.335937,-1.527344 0,-0.894531 0.375,-1.589844 0.375,-0.695312 1.097656,-1.066406 0.550781,-0.285156 1.371094,-0.285156 1.066406,0 1.664062,0.449218 0.601563,0.445313 0.773438,1.234375 l -1.148438,0.214844 q -0.121094,-0.421875 -0.457031,-0.664062 -0.332031,-0.246094 -0.832031,-0.246094 -0.757813,0 -1.207032,0.480469 -0.445312,0.480468 -0.445312,1.425781 0,1.019531 0.453125,1.53125 0.453125,0.507812 1.1875,0.507812 0.363281,0 0.726562,-0.140625 0.367188,-0.144531 0.628907,-0.347656 v -0.726562 z"
         id="path1540"
         style="fill:#ede7dc;fill-opacity:1" />
    </g>
    <g
       aria-label="PASS"
       id="text25135-4-6"
       style="font-weight:bold;font-size:8px;line-height:1.25;font-family:Arial;-inkscape-font-specification:'Arial, Bold';font-variant-ligatures:none;text-align:center;text-anchor:middle;display:inline;fill:#ede7dc;fill-opacity:1;stroke-width:1"
       transform="matrix(0.99999271,0,0,1,8.5896796e-5,-17.41628)">
      <path
         d="m 12.390625,109.5005 v -5.72656 h 1.855469 q 1.054687,0 1.375,0.0859 0.492187,0.1289 0.824218,0.5625 0.332032,0.42969 0.332032,1.11328 0,0.52734 -0.191407,0.88672 -0.191406,0.35937 -0.488281,0.5664 -0.292968,0.20313 -0.597656,0.26954 -0.414062,0.082 -1.199219,0.082 h -0.753906 v 2.16015 z m 1.15625,-4.75781 v 1.625 h 0.632813 q 0.683593,0 0.914062,-0.0898 0.230469,-0.0898 0.359375,-0.28125 0.132813,-0.19141 0.132813,-0.44532 0,-0.3125 -0.183594,-0.51562 -0.183594,-0.20313 -0.464844,-0.25391 -0.207031,-0.0391 -0.832031,-0.0391 z"
         id="path1543"
         style="fill:#ede7dc;fill-opacity:1;stroke-width:1" />
      <path
         d="m 22.296875,109.5005 h -1.257813 l -0.5,-1.30078 H 18.25 l -0.472656,1.30078 h -1.226563 l 2.230469,-5.72656 h 1.222656 z m -2.128906,-2.26562 -0.789063,-2.125 -0.773437,2.125 z"
         id="path1545"
         style="fill:#ede7dc;fill-opacity:1;stroke-width:1" />
      <path
         d="m 22.617187,107.63722 1.125,-0.10937 q 0.101563,0.5664 0.410157,0.83203 0.3125,0.26562 0.839843,0.26562 0.558594,0 0.839844,-0.23437 0.285156,-0.23828 0.285156,-0.55469 0,-0.20312 -0.121093,-0.34375 -0.117188,-0.14453 -0.414063,-0.25 -0.203125,-0.0703 -0.925781,-0.25 -0.929688,-0.23047 -1.304688,-0.56641 -0.527343,-0.47265 -0.527343,-1.15234 0,-0.4375 0.246093,-0.81641 0.25,-0.38281 0.714844,-0.58203 0.46875,-0.19922 1.128906,-0.19922 1.078125,0 1.621094,0.47266 0.546875,0.47266 0.574219,1.26172 l -1.15625,0.0508 q -0.07422,-0.44141 -0.320313,-0.63281 -0.242187,-0.19531 -0.730468,-0.19531 -0.503907,0 -0.789063,0.20703 -0.183594,0.13281 -0.183594,0.35547 0,0.20312 0.171875,0.34765 0.21875,0.1836 1.0625,0.38281 0.84375,0.19922 1.246094,0.41407 0.40625,0.21093 0.632813,0.58203 0.230468,0.36719 0.230468,0.91015 0,0.49219 -0.273437,0.92188 -0.273438,0.42969 -0.773438,0.64062 -0.5,0.20704 -1.246093,0.20704 -1.085938,0 -1.667969,-0.5 -0.582031,-0.50391 -0.695313,-1.46485 z"
         id="path1547"
         style="fill:#ede7dc;fill-opacity:1;stroke-width:1" />
      <path
         d="m 27.953125,107.63722 1.125,-0.10937 q 0.101562,0.5664 0.410156,0.83203 0.3125,0.26562 0.839844,0.26562 0.558594,0 0.839844,-0.23437 0.285156,-0.23828 0.285156,-0.55469 0,-0.20312 -0.121094,-0.34375 -0.117187,-0.14453 -0.414062,-0.25 -0.203125,-0.0703 -0.925782,-0.25 -0.929687,-0.23047 -1.304687,-0.56641 -0.527344,-0.47265 -0.527344,-1.15234 0,-0.4375 0.246094,-0.81641 0.25,-0.38281 0.714844,-0.58203 0.46875,-0.19922 1.128906,-0.19922 1.078125,0 1.621094,0.47266 0.546875,0.47266 0.574218,1.26172 l -1.15625,0.0508 q -0.07422,-0.44141 -0.320312,-0.63281 -0.242188,-0.19531 -0.730469,-0.19531 -0.503906,0 -0.789062,0.20703 -0.183594,0.13281 -0.183594,0.35547 0,0.20312 0.171875,0.34765 0.21875,0.1836 1.0625,0.38281 0.84375,0.19922 1.246094,0.41407 0.40625,0.21093 0.632812,0.58203 0.230469,0.36719 0.230469,0.91015 0,0.49219 -0.273438,0.92188 -0.273437,0.42969 -0.773437,0.64062 -0.5,0.20704 -1.246094,0.20704 -1.085937,0 -1.667969,-0.5 -0.582031,-0.50391 -0.695312,-1.46485 z"
         id="path1549"
         style="fill:#ede7dc;fill-opacity:1;stroke-width:1" />
    </g>
    <g
       aria-label="THRU"
       id="text25135-4-6-7"
       style="font-weight:bold;font-size:8px;line-height:1.25;font-family:Arial;-inkscape-font-specification:'Arial, Bold';font-variant-ligatures:none;text-align:center;text-anchor:middle;display:inline;fill:#ede7dc;fill-opacity:1;stroke-width:1"
       transform="matrix(0.99999271,0,0,1,8.5896796e-5,-17.41628)">
      <path
         d="m 13.494141,117.52818 v -4.75781 h -1.699219 v -0.96875 h 4.550781 v 0.96875 h -1.695312 v 4.75781 z"
         id="path1552"
         style="fill:#ede7dc;fill-opacity:1;stroke-width:1" />
      <path
         d="m 17.095703,117.52818 v -5.72656 h 1.15625 v 2.25391 h 2.265625 v -2.25391 h 1.15625 v 5.72656 h -1.15625 v -2.5039 h -2.265625 v 2.5039 z"
         id="path1554"
         style="fill:#ede7dc;fill-opacity:1;stroke-width:1" />
      <path
         d="m 22.873047,117.52818 v -5.72656 h 2.433594 q 0.917968,0 1.332031,0.15625 0.417969,0.15234 0.667969,0.54688 0.25,0.39453 0.25,0.90234 0,0.64453 -0.378907,1.06641 -0.378906,0.41796 -1.132812,0.52734 0.375,0.21875 0.617187,0.48047 0.246094,0.26172 0.660157,0.92969 l 0.699218,1.11718 h -1.382812 l -0.835938,-1.24609 q -0.445312,-0.66797 -0.609375,-0.83984 -0.164062,-0.17579 -0.347656,-0.23829 -0.183594,-0.0664 -0.582031,-0.0664 h -0.234375 v 2.39062 z m 1.15625,-3.30468 h 0.855469 q 0.832031,0 1.039062,-0.0703 0.207031,-0.0703 0.324219,-0.24218 0.117187,-0.17188 0.117187,-0.42969 0,-0.28906 -0.15625,-0.46485 -0.152343,-0.17968 -0.433593,-0.22656 -0.140625,-0.0195 -0.84375,-0.0195 h -0.902344 z"
         id="path1556"
         style="fill:#ede7dc;fill-opacity:1;stroke-width:1" />
      <path
         d="m 28.638672,111.80162 h 1.15625 v 3.10156 q 0,0.73828 0.04297,0.95703 0.07422,0.35157 0.351562,0.56641 0.28125,0.21094 0.765625,0.21094 0.492188,0 0.742188,-0.19922 0.25,-0.20313 0.300781,-0.49609 0.05078,-0.29297 0.05078,-0.97266 v -3.16797 h 1.15625 v 3.00781 q 0,1.03125 -0.09375,1.45703 -0.09375,0.42579 -0.347656,0.71875 -0.25,0.29297 -0.671875,0.46875 -0.421875,0.17188 -1.101563,0.17188 -0.820312,0 -1.246093,-0.1875 -0.421875,-0.19141 -0.667969,-0.49219 -0.246094,-0.30469 -0.324219,-0.63672 -0.113281,-0.49218 -0.113281,-1.45312 z"
         id="path1558"
         style="fill:#ede7dc;fill-opacity:1;stroke-width:1" />
    </g>
    <rect
       style="display:inline;fill:#ede7dc;fill-opacity:1;stroke:none;stroke-width:0.623623"
       id="rect17730-2-0"
       width="32.363998"
       height="39.208"
       x="6.3180008"
       y="227.87802"
       ry="6.2661958"
       rx="6.2661953" />
    <rect
       style="display:inline;fill:#ede7dc;fill-opacity:1;stroke:none;stroke-width:0.623623"
       id="rect17730-2-9"
       width="32.363998"
       height="39.208"
       x="6.3180008"
       y="313.87802"
       ry="6.2661958"
       rx="6.2661953" />
    <g
       aria-label="G"
       id="text5826"
       style="font-weight:bold;font-size:6.66667px;line-height:1.25;font-family:Arial;-inkscape-font-specification:'Arial, Bold';font-variant-ligatures:none;text-align:center;text-anchor:middle;display:inline;fill:#ede7dc;fill-opacity:1">
      <path
         d="m 37.612305,44.794323 v -0.804036 h 2.076824 v 1.901042 q -0.302735,0.292969 -0.878907,0.517579 -0.572917,0.221354 -1.16211,0.221354 -0.748698,0 -1.305339,-0.3125 -0.556641,-0.315756 -0.836589,-0.898438 -0.279948,-0.585938 -0.279948,-1.272787 0,-0.745443 0.3125,-1.324871 0.3125,-0.579427 0.914714,-0.888672 0.458985,-0.23763 1.142579,-0.23763 0.888672,0 1.386719,0.374349 0.501302,0.371094 0.644532,1.028646 l -0.957032,0.179037 q -0.100912,-0.351563 -0.38086,-0.553386 -0.276692,-0.205078 -0.693359,-0.205078 -0.631511,0 -1.00586,0.400391 -0.371094,0.40039 -0.371094,1.188151 0,0.84961 0.377604,1.276042 0.377605,0.423178 0.989584,0.423178 0.302735,0 0.605469,-0.117188 0.30599,-0.120443 0.524089,-0.289714 v -0.605469 z"
         id="path10737"
         style="fill:#ede7dc;fill-opacity:1" />
    </g>
    <g
       aria-label="B"
       id="text5826-1"
       style="font-weight:bold;font-size:6.66667px;line-height:1.25;font-family:Arial;-inkscape-font-specification:'Arial, Bold';font-variant-ligatures:none;text-align:center;text-anchor:middle;display:inline;fill:#ede7dc;fill-opacity:1">
      <path
         d="m 11.628464,107.61393 h 1.907553 q 0.566406,0 0.843099,0.0488 0.279948,0.0456 0.498047,0.19531 0.221355,0.14974 0.367839,0.40039 0.146484,0.2474 0.146484,0.55665 0,0.33528 -0.182291,0.61523 -0.179037,0.27995 -0.488282,0.41992 0.436198,0.12695 0.670573,0.43294 0.234376,0.30599 0.234376,0.71941 0,0.32552 -0.152995,0.63476 -0.14974,0.30599 -0.413412,0.49154 -0.260417,0.18229 -0.644532,0.22461 -0.240885,0.026 -1.162109,0.0326 h -1.62435 z m 0.963542,0.79427 v 1.10352 h 0.631511 q 0.563151,0 0.69987,-0.0163 0.247396,-0.0293 0.38737,-0.16927 0.143229,-0.14323 0.143229,-0.37435 0,-0.22135 -0.123698,-0.35807 -0.120443,-0.13997 -0.361328,-0.16927 -0.14323,-0.0163 -0.823568,-0.0163 z m 0,1.89779 v 1.27604 h 0.891927 q 0.520834,0 0.660808,-0.0293 0.214844,-0.0391 0.348307,-0.18881 0.136719,-0.15299 0.136719,-0.4069 0,-0.21484 -0.104166,-0.36458 -0.104167,-0.14974 -0.302735,-0.2181 -0.195313,-0.0684 -0.852865,-0.0684 z"
         id="path10734"
         style="fill:#ede7dc;fill-opacity:1" />
    </g>
  </g>
  <g
     inkscape:groupmode="layer"
     id="layer5"
     inkscape:label="Lines"
     style="display:inline">
    <rect
       style="display:inline;fill:none;fill-opacity:1;stroke:#ede7dc;stroke-width:0.999999;stroke-miterlimit:4;stroke-dasharray:none;stroke-opacity:1"
       id="rect17730-4-8"
       width="32.264"
       height="78.207008"
       x="6.368"
       y="102.95399"
       ry="6.2661953"
       rx="6.2661953" />
    <path
       style="fill:none;stroke:#ede7dc;stroke-width:0.999995px;stroke-linecap:butt;stroke-linejoin:miter;stroke-opacity:1"
       d="m 22.5,39.5 v 29"
       id="path1313" />
    <rect
       style="display:inline;fill:none;fill-opacity:1;stroke:#ede7dc;stroke-width:0.999999;stroke-miterlimit:4;stroke-dasharray:none;stroke-opacity:1"
       id="rect17730-4-8-1"
       width="32.264"
       height="78.207008"
       x="6.368"
       y="188.95399"
       ry="6.2661953"
       rx="6.2661953" />
    <rect
       style="display:inline;fill:none;fill-opacity:1;stroke:#ede7dc;stroke-width:0.999999;stroke-miterlimit:4;stroke-dasharray:none;stroke-opacity:1"
       id="rect17730-4-8-8"
       width="32.264"
       height="78.207008"
       x="6.368"
       y="274.95401"
       ry="6.2661953"
       rx="6.2661953" />
  </g>
  <text
     xml:space="preserve"
     id="text29904"
     style="font-weight:bold;font-size:8px;line-height:1.25;font-family:Arial;-inkscape-font-specification:'Arial, Bold';font-variant-ligatures:none;text-align:center;white-space:pre;shape-inside:url(#rect29906)"
     transform="translate(-2.6024628e-4)" />
  <g
     inkscape:groupmode="layer"
     id="layer1"
     inkscape:label="Widgets"
     style="display:none">
    <circle
       style="display:inline;fill:#ff0000;stroke:#ff0000;stroke-width:1.77975;stroke-opacity:1"
       id="path1065-7-2-3-4-1"
       cx="22.5"
       cy="67.5"
       r="10.610126" />
    <circle
       style="display:inline;fill:#ff0000;stroke:#ff0000;stroke-width:1.94925;stroke-opacity:1"
       id="path1065-7-2-3-2-2-6-0"
       cx="22.312647"
       cy="128.50021"
       r="10.525375" />
    <circle
       style="display:inline;fill:#ff0000;stroke:#ff0000;stroke-width:1.94925;stroke-opacity:1"
       id="path1065-7-2-3-2-2-3-2"
       cx="22.312647"
       cy="155.5"
       r="10.525375" />
    <circle
       style="display:inline;fill:#ff0000;stroke:#ff0000;stroke-width:1.77975;stroke-opacity:1"
       id="path1065-7-2-3-4"
       cx="22.5"
       cy="39.5"
       r="9.6101246" />
    <circle
       style="display:inline;fill:#ff0000;stroke:#ff0000;stroke-width:1.77975;stroke-opacity:1"
       id="path1065-7-2-3-4-3"
       cx="22.5"
       cy="110"
       r="4.6101251" />
    <circle
       style="display:inline;fill:#ff0000;stroke:#ff0000;stroke-width:1.77975;stroke-opacity:1"
       id="path1065-7-2-3-4-3-3"
       cx="22.312647"
       cy="173.99979"
       r="4.6101251" />
    <circle
       style="display:inline;fill:#ff0000;stroke:#ff0000;stroke-width:1.94925;stroke-opacity:1"
       id="path1065-7-2-3-2-2-6-0-0"
       cx="22.5"
       cy="214.50023"
       r="10.525375" />
    <circle
       style="display:inline;fill:#ff0000;stroke:#ff0000;stroke-width:1.94925;stroke-opacity:1"
       id="path1065-7-2-3-2-2-3-2-7"
       cx="22.5"
       cy="241.50002"
       r="10.525375" />
    <circle
       style="display:inline;fill:#ff0000;stroke:#ff0000;stroke-width:1.77975;stroke-opacity:1"
       id="path1065-7-2-3-4-3-9"
       cx="22.5"
       cy="196.00002"
       r="4.6101251" />
    <circle
       style="display:inline;fill:#ff0000;stroke:#ff0000;stroke-width:1.77975;stroke-opacity:1"
       id="path1065-7-2-3-4-3-3-8"
       cx="22.5"
       cy="259.99982"
       r="4.6101251" />
    <circle
       style="display:inline;fill:#ff0000;stroke:#ff0000;stroke-width:1.94925;stroke-opacity:1"
       id="path1065-7-2-3-2-2-6-0-6"
       cx="22.5"
       cy="300.50024"
       r="10.525375" />
    <circle
       style="display:inline;fill:#ff0000;stroke:#ff0000;stroke-width:1.94925;stroke-opacity:1"
       id="path1065-7-2-3-2-2-3-2-0"
       cx="22.5"
       cy="327.50003"
       r="10.525375" />
    <circle
       style="display:inline;fill:#ff0000;stroke:#ff0000;stroke-width:1.77975;stroke-opacity:1"
       id="path1065-7-2-3-4-3-8"
       cx="22.5"
       cy="282.00003"
       r="4.6101251" />
    <circle
       style="display:inline;fill:#ff0000;stroke:#ff0000;stroke-width:1.77975;stroke-opacity:1"
       id="path1065-7-2-3-4-3-3-0"
       cx="22.5"
       cy="345.99982"
       r="4.6101251" />
    <circle
       style="display:inline;fill:#ff0000;stroke:#ff0000;stroke-width:1.77975;stroke-opacity:1"
       id="path1065-7-2-3-4-3-0"
       cx="37.5"
       cy="53.5"
       r="4.6101251" />
  </g>
</svg>
