<?xml version="1.0" encoding="UTF-8" standalone="no"?>
<!-- Created with Inkscape (http://www.inkscape.org/) -->

<svg
   width="150"
   height="380"
   viewBox="0 0 396.875 1005.4167"
   version="1.1"
   id="svg5"
   inkscape:version="1.1.1 (3bf5ae0d25, 2021-09-20)"
   sodipodi:docname="Compare2_Coal.svg"
   xmlns:inkscape="http://www.inkscape.org/namespaces/inkscape"
   xmlns:sodipodi="http://sodipodi.sourceforge.net/DTD/sodipodi-0.dtd"
   xmlns="http://www.w3.org/2000/svg"
   xmlns:svg="http://www.w3.org/2000/svg">
  <sodipodi:namedview
     id="namedview7"
     pagecolor="#ffffff"
     bordercolor="#666666"
     borderopacity="1.0"
     inkscape:pageshadow="2"
     inkscape:pageopacity="0.0"
     inkscape:pagecheckerboard="0"
     inkscape:document-units="px"
     showgrid="true"
     scale-x="10"
     inkscape:showpageshadow="false"
     viewbox-x="0"
     showguides="false"
     objecttolerance="1"
     gridtolerance="1"
     guidetolerance="1"
     inkscape:zoom="2.2342105"
     inkscape:cx="63.557127"
     inkscape:cy="190"
     inkscape:window-width="1920"
     inkscape:window-height="1057"
     inkscape:window-x="1592"
     inkscape:window-y="-8"
     inkscape:window-maximized="1"
     inkscape:current-layer="layer1"
     units="px">
    <inkscape:grid
       type="xygrid"
       id="grid832"
       units="px"
       spacingx="2.6458334"
       spacingy="2.6458334"
       originx="0"
       empspacing="5"
       dotted="false"
       visible="false"
       enabled="true" />
    <inkscape:grid
       type="xygrid"
       id="grid15270"
       visible="false" />
  </sodipodi:namedview>
  <defs
     id="defs2" />
  <g
     inkscape:groupmode="layer"
     id="layer3"
     inkscape:label="Faceplate"
     style="display:inline">
    <rect
       style="display:inline;vector-effect:non-scaling-stroke;fill:#252525;fill-opacity:1;stroke-width:0.186761;-inkscape-stroke:hairline"
       id="rect910-6-1-4"
       width="396.875"
       height="1005.4167"
       x="-1.1368684e-13"
       y="-1.7763568e-15" />
  </g>
  <g
     inkscape:groupmode="layer"
     id="layer4"
     inkscape:label="Brand"
     style="display:inline">
    <g
       id="g42796-0-7-2"
       transform="matrix(0.79338965,0,0,0.79458332,138.36363,-19.617974)"
       style="display:inline;fill:#ff0000;stroke-width:1.27904">
      <g
         aria-label="enom"
         id="text4270-27-8-9-0"
         style="font-size:49.3889px;line-height:1.25;font-family:'NECK ROMANCER';-inkscape-font-specification:'NECK ROMANCER, Normal';font-variant-ligatures:none;text-align:center;text-anchor:middle;fill:#ff0000;stroke-width:3.38412">
        <path
           d="m 46.609141,1249.244 q 0,1.1576 0,3.4245 3.183269,0 9.453344,0 -1.639866,0.5787 -2.990343,1.2058 -1.350478,0.627 -2.363337,1.688 -1.350477,0 -4.051433,0 0,1.4952 0.434082,2.5563 0.385851,1.1093 1.832792,1.1093 2.266873,0 6.80062,0 0.482313,-0.1447 0.868164,-0.627 0.337619,-0.5305 0.627007,-1.7363 0,2.0257 0,6.1254 -3.520888,0 -10.562665,0 -1.543403,0 -2.652724,-2.2187 -1.109321,-2.1704 -1.109321,-6.3183 0,-1.9775 0,-5.836 -0.385851,-1.3504 -1.881023,-2.1221 -1.495171,-0.7235 -3.569119,-1.2058 6.607694,0 19.774852,0 0,2.9421 0,8.7781 -1.205783,-2.701 -2.218642,-3.6656 -1.012858,-0.9646 -2.700955,-1.1093 -0.916396,-0.097 -2.170411,-0.097 -1.205783,0.048 -2.845649,0.048 -0.241157,0 -0.675239,0 z"
           id="path42762-2-5-2"
           style="fill:#ff0000;stroke-width:3.38412" />
        <path
           d="m 81.576869,1245.2891 q 0,5.8842 0,17.7009 0,3.0868 -0.144694,6.0771 -0.09646,3.0386 -0.337619,5.9325 -0.385851,-3.7138 -0.964627,-6.9936 -0.530545,-3.3279 -2.025717,-5.016 0,-2.9904 0,-8.9228 -0.241157,-1.3505 -0.72347,-2.2187 -0.482314,-0.8681 -1.06109,-1.3987 -1.109321,-1.0128 -2.411567,-1.1093 -1.350478,-0.097 -2.266874,-0.097 -0.482313,0 -1.44694,0 0,4.582 0,13.746 0,3.0868 -0.09646,6.0771 -0.144694,3.0386 -0.385851,5.9325 -0.38585,-3.7138 -0.916395,-6.9936 -0.578776,-3.3279 -2.025717,-5.016 0,-4.8232 0,-14.373 -0.385851,-1.3504 -1.881022,-2.1221 -1.495172,-0.7235 -3.56912,-1.2058 6.752389,0 20.257166,0 z"
           id="path42764-5-7-3"
           style="fill:#ff0000;stroke-width:3.38412" />
        <path
           d="m 104.19737,1249.0511 q 0,3.3762 0,10.1768 0,1.5434 -1.92925,2.6528 -1.92926,1.1093 -6.077152,1.1093 -4.196128,0 -6.125382,-1.1093 -1.929254,-1.1094 -1.929254,-2.6528 0,-3.3762 0,-10.1768 0,-1.5434 1.929254,-2.6527 1.929254,-1.1093 6.125382,-1.1093 4.147892,0 6.077152,1.1093 1.92925,1.1093 1.92925,2.6527 z m -3.76204,7.91 q 0,-1.8811 0,-5.6431 0,-1.6881 -1.254019,-1.9775 -1.205783,-0.2894 -2.990343,-0.2894 -1.832792,0 -3.038575,0.2894 -1.254015,0.2894 -1.254015,1.9775 0,1.881 0,5.6431 0,1.6881 1.254015,1.9774 1.205783,0.2894 3.038575,0.2894 1.78456,0 2.990343,-0.2894 1.254019,-0.2893 1.254019,-1.9774 z"
           id="path42766-8-9-0"
           style="fill:#ff0000;stroke-width:3.38412" />
        <path
           d="m 142.34837,1245.2891 q -2.02572,0.4823 -3.52089,1.2058 -1.5434,0.7717 -1.88102,2.1221 0,4.7749 0,14.373 -1.49517,1.6881 -2.02572,5.016 -0.57878,3.2798 -0.96463,6.9936 -0.24115,-2.8939 -0.33762,-5.9325 -0.14469,-2.9903 -0.14469,-6.0771 0,-4.582 0,-13.746 -0.48231,0 -1.39871,0 -0.53054,0 -1.15755,0 -0.62701,0 -1.30225,0.1447 -1.25401,0.2412 -2.41157,1.2058 -1.15755,0.9646 -1.63986,3.4727 0,2.9903 0,8.9228 -0.1447,0.627 -0.28939,1.1093 -0.0965,0.4823 -0.19292,0.8199 -0.53055,1.9775 -0.38586,1.3505 0.19293,-0.627 -0.28938,1.1576 -0.0965,0.3376 -0.24116,0.8681 -0.14469,0.5306 -0.33762,1.3023 -0.14469,-0.6753 -0.28939,-1.2058 -0.14469,-0.4823 -0.24115,-0.8199 -0.53055,-2.0258 -0.33762,-1.3023 0.19292,0.7717 -0.43409,-1.6881 -0.0482,-0.2894 -0.19292,-0.7235 -0.0965,-0.3858 -0.19293,-0.8681 0,-2.9904 0,-8.9228 -0.28939,-1.3505 -0.7717,-2.2187 -0.48231,-0.8681 -1.06109,-1.3987 -1.10932,-1.0128 -2.41157,-1.1093 -1.30224,-0.097 -2.26687,-0.097 -0.48231,0 -1.39871,0 0,4.582 0,13.746 0,3.0868 -0.14469,6.0771 -0.0965,3.0386 -0.33762,5.9325 -0.38585,-3.7138 -0.96463,-6.9936 -0.53054,-3.3279 -2.02572,-5.016 0,-4.8232 0,-14.373 -0.38585,-1.3504 -1.88102,-2.1221 -1.49517,-0.7235 -3.56912,-1.2058 3.95497,0 11.76845,0 1.15755,0.3858 3.47266,1.1575 0.7717,0.2894 1.59163,0.4341 0.81994,0.1447 1.6881,0.1447 0.86816,0 1.73633,-0.1447 0.81993,-0.1447 1.59163,-0.4341 1.15756,-0.3858 3.42443,-1.1575 3.95497,0 11.76845,0 z"
           id="path42768-1-5-9"
           style="fill:#ff0000;stroke-width:3.38412" />
      </g>
      <g
         aria-label="V"
         transform="matrix(1.2363173,0,0,0.80885384,-497.88086,123.48586)"
         id="text4270-3-5-2-4-0-7"
         style="font-size:78.5061px;line-height:1.25;font-family:Nosferotica;-inkscape-font-specification:'Nosferotica, Normal';font-variant-ligatures:none;text-align:center;text-anchor:middle;fill:#ff0000;stroke-width:4.18383">
        <path
           d="m 431.64994,1360.6864 8.57428,-0.1022 c 0,0 -4.4079,1.0878 -5.59925,3.7285 -1.88083,4.1689 -3.64217,14.6628 -3.64217,14.6628 l -2.23339,11.5191 -1.83311,11.8311 -1.71824,21.3112 -1.69514,-21.3112 -1.92196,-11.5208 -2.5009,-11.8294 c 0,0 -1.52027,-10.287 -3.38278,-14.4832 -1.14458,-2.5787 -5.63367,-3.8059 -5.63367,-3.8059 h 8.4657 l 6.66875,29.1569 z"
           id="path30410-2-3-0"
           sodipodi:nodetypes="ccscccccccscccc"
           style="fill:#ff0000;stroke-width:4.18383" />
      </g>
    </g>
  </g>
  <g
     inkscape:groupmode="layer"
     id="layer5"
     inkscape:label="Solid"
     style="display:inline">
    <g
       aria-label="RANGE"
       id="text6173"
       style="font-weight:bold;font-size:21.1667px;line-height:1.25;font-family:Arial;-inkscape-font-specification:'Arial, Bold';font-variant-ligatures:none;text-align:center;text-anchor:middle;display:inline;fill:#ede7dc;fill-opacity:1;stroke-width:2.64583">
      <path
         d="m 30.551499,291.08456 v -15.15155 h 6.438893 q 2.428796,0 3.524339,0.41341 1.105877,0.40308 1.767336,1.44694 0.66146,1.04387 0.66146,2.38746 0,1.70532 -1.002525,2.82154 -1.002524,1.10587 -2.997238,1.39526 0.99219,0.57878 1.632978,1.27125 0.651124,0.69246 1.746667,2.4598 l 1.850019,2.95589 h -3.658697 l -2.211755,-3.29696 q -1.178225,-1.76733 -1.612308,-2.22209 -0.434082,-0.46509 -0.919842,-0.63045 -0.485759,-0.1757 -1.53996,-0.1757 h -0.620118 v 6.3252 z m 3.059249,-8.74366 h 2.263432 q 2.201419,0 2.74919,-0.18604 0.547771,-0.18603 0.85783,-0.64079 0.310059,-0.45475 0.310059,-1.13688 0,-0.76481 -0.413412,-1.2299 -0.403077,-0.47542 -1.147218,-0.59945 -0.372071,-0.0517 -2.232426,-0.0517 h -2.387455 z"
         id="path12571"
         style="fill:#ede7dc;fill-opacity:1" />
      <path
         d="M 59.490347,291.08456 H 56.16238 l -1.322919,-3.44165 h -6.056488 l -1.250571,3.44165 h -3.245285 l 5.901458,-15.15155 h 3.234949 z m -5.63274,-5.99447 -2.087731,-5.62241 -2.04639,5.62241 z"
         id="path12573"
         style="fill:#ede7dc;fill-opacity:1" />
      <path
         d="m 61.143996,291.08456 v -15.15155 h 2.976567 l 6.201182,10.11826 v -10.11826 h 2.842208 v 15.15155 h -3.069585 l -6.108164,-9.88055 v 9.88055 z"
         id="path12575"
         style="fill:#ede7dc;fill-opacity:1" />
      <path
         d="m 83.447582,285.51384 v -2.55282 h 6.593923 v 6.03581 q -0.961183,0.93018 -2.790531,1.64332 -1.819014,0.7028 -3.689704,0.7028 -2.377119,0 -4.144456,-0.99219 -1.767337,-1.00253 -2.656173,-2.85255 -0.888836,-1.86035 -0.888836,-4.0411 0,-2.36678 0.992189,-4.20647 0.992189,-1.83968 2.90422,-2.82154 1.457278,-0.75447 3.627692,-0.75447 2.821537,0 4.402839,1.18856 1.591636,1.17822 2.04639,3.26595 l -3.038579,0.56844 q -0.320395,-1.11621 -1.209231,-1.757 -0.878501,-0.65112 -2.201419,-0.65112 -2.005049,0 -3.193609,1.27124 -1.178225,1.27124 -1.178225,3.77239 0,2.69751 1.198896,4.05144 1.198895,1.34359 3.141932,1.34359 0.961183,0 1.922366,-0.37208 0.971519,-0.3824 1.663984,-0.91984 v -1.92236 z"
         id="path12577"
         style="fill:#ede7dc;fill-opacity:1" />
      <path
         d="m 92.86304,291.08456 v -15.15155 h 11.23447 v 2.56316 h -8.175221 v 3.35897 h 7.606781 v 2.55282 h -7.606781 v 4.12378 h 8.464611 v 2.55282 z"
         id="path12579"
         style="fill:#ede7dc;fill-opacity:1" />
    </g>
    <rect
       style="display:inline;vector-effect:non-scaling-stroke;fill:#ede7dc;fill-opacity:1;stroke-width:0.0257849;-inkscape-stroke:hairline"
       id="rect76101-3-4-0"
       width="558.23877"
       height="381.86499"
       x="-935.89478"
       y="7.5050049"
       ry="12.391612"
       rx="11.207397"
       transform="rotate(-90)" />
    <g
       aria-label="IN1"
       id="text5081-82-7-8-5"
       style="font-weight:bold;font-size:21.1667px;line-height:1.25;font-family:Arial;-inkscape-font-specification:'Arial, Bold';font-variant-ligatures:none;text-align:center;text-anchor:middle;display:inline;fill:#ede7dc;fill-opacity:1;stroke-width:2.64583"
       transform="translate(0,5.2916668)">
      <path
         d="m 140.75672,285.82391 v -15.15155 h 3.05925 v 15.15155 z"
         id="path48954"
         style="fill:#ede7dc;fill-opacity:1" />
      <path
         d="m 146.76153,285.82391 v -15.15155 h 2.97657 l 6.20118,10.11826 v -10.11826 h 2.84221 v 15.15155 h -3.06959 l -6.10816,-9.88055 v 9.88055 z"
         id="path48956"
         style="fill:#ede7dc;fill-opacity:1" />
      <path
         d="m 168.80673,285.82391 h -2.90422 v -10.94508 q -1.59163,1.48828 -3.75171,2.20142 v -2.6355 q 1.13688,-0.37208 2.47013,-1.40561 1.33326,-1.04386 1.82935,-2.42879 h 2.35645 z"
         id="path48958"
         style="fill:#ede7dc;fill-opacity:1" />
    </g>
    <g
       aria-label="IN2"
       id="text5081-82-7-8-5-5"
       style="font-weight:bold;font-size:21.1667px;line-height:1.25;font-family:Arial;-inkscape-font-specification:'Arial, Bold';font-variant-ligatures:none;text-align:center;text-anchor:middle;display:inline;fill:#ede7dc;fill-opacity:1;stroke-width:2.64583"
       transform="translate(0,5.2916668)">
      <path
         d="m 226.88065,285.82391 v -15.15155 h 3.05925 v 15.15155 z"
         id="path48961"
         style="fill:#ede7dc;fill-opacity:1" />
      <path
         d="m 232.88546,285.82391 v -15.15155 h 2.97657 l 6.20118,10.11826 v -10.11826 h 2.84221 v 15.15155 h -3.06958 l -6.10817,-9.88055 v 9.88055 z"
         id="path48963"
         style="fill:#ede7dc;fill-opacity:1" />
      <path
         d="m 257.30778,283.1264 v 2.69751 h -10.18027 q 0.16537,-1.52962 0.99219,-2.89388 0.82682,-1.3746 3.26596,-3.63803 1.9637,-1.82935 2.40812,-2.48047 0.59945,-0.89917 0.59945,-1.77767 0,-0.97152 -0.5271,-1.48829 -0.51677,-0.5271 -1.43661,-0.5271 -0.90951,0 -1.44694,0.54777 -0.53744,0.54778 -0.62012,1.81902 l -2.89388,-0.28939 q 0.25838,-2.39779 1.62264,-3.44166 1.36426,-1.04386 3.41065,-1.04386 2.24276,0 3.52434,1.20923 1.28157,1.20923 1.28157,3.00757 0,1.0232 -0.37207,1.95337 -0.36173,0.91985 -1.15755,1.93271 -0.5271,0.67179 -1.9017,1.9327 -1.37459,1.2609 -1.74666,1.67432 -0.36174,0.41341 -0.58911,0.80615 z"
         id="path48965"
         style="fill:#ede7dc;fill-opacity:1" />
    </g>
    <g
       aria-label="OVER"
       id="text5081-82-7-8-5-5-3"
       style="font-weight:bold;font-size:21.1667px;line-height:1.25;font-family:Arial;-inkscape-font-specification:'Arial, Bold';font-variant-ligatures:none;text-align:center;text-anchor:middle;display:inline;fill:#ede7dc;fill-opacity:1;stroke-width:2.64583"
       transform="translate(0,5.2916668)">
      <path
         d="m 299.93042,278.31015 q 0,-2.31511 0.69247,-3.88608 0.51676,-1.15755 1.4056,-2.07739 0.89917,-0.91984 1.96371,-1.36426 1.41594,-0.59945 3.26595,-0.59945 3.34864,0 5.35369,2.0774 2.01539,2.07739 2.01539,5.77743 0,3.66903 -1.99472,5.74643 -1.99471,2.06706 -5.33301,2.06706 -3.37965,0 -5.37436,-2.05672 -1.99472,-2.06707 -1.99472,-5.68442 z m 3.15227,-0.10335 q 0,2.57349 1.18856,3.90674 1.18856,1.32292 3.01791,1.32292 1.82935,0 2.99724,-1.31258 1.17822,-1.32292 1.17822,-3.95843 0,-2.60449 -1.14722,-3.88607 -1.13688,-1.28158 -3.02824,-1.28158 -1.89136,0 -3.04891,1.30225 -1.15756,1.29191 -1.15756,3.90675 z"
         id="path48968"
         style="fill:#ede7dc;fill-opacity:1" />
      <path
         d="m 320.88008,285.79291 -5.41569,-15.15156 h 3.31763 l 3.83439,11.21381 3.71038,-11.21381 h 3.24528 l -5.42603,15.15156 z"
         id="path48970"
         style="fill:#ede7dc;fill-opacity:1" />
      <path
         d="m 331.1327,285.79291 v -15.15156 h 11.23448 v 2.56316 h -8.17523 v 3.35897 h 7.60679 v 2.55282 h -7.60679 v 4.12379 h 8.46462 v 2.55282 z"
         id="path48972"
         style="fill:#ede7dc;fill-opacity:1" />
      <path
         d="m 345.26107,285.79291 v -15.15156 h 6.43889 q 2.4288,0 3.52434,0.41342 1.10588,0.40307 1.76733,1.44694 0.66146,1.04386 0.66146,2.38745 0,1.70533 -1.00252,2.82154 -1.00252,1.10588 -2.99724,1.39527 0.99219,0.57877 1.63298,1.27124 0.65112,0.69246 1.74667,2.4598 l 1.85001,2.9559 h -3.65869 l -2.21176,-3.29696 q -1.17822,-1.76734 -1.6123,-2.22209 -0.43409,-0.46509 -0.91985,-0.63046 -0.48576,-0.1757 -1.53996,-0.1757 h -0.62011 v 6.32521 z m 3.05925,-8.74367 h 2.26343 q 2.20142,0 2.74919,-0.18603 0.54777,-0.18604 0.85783,-0.64079 0.31006,-0.45476 0.31006,-1.13689 0,-0.76481 -0.41342,-1.2299 -0.40307,-0.47542 -1.14721,-0.59944 -0.37208,-0.0517 -2.23243,-0.0517 h -2.38745 z"
         id="path48974"
         style="fill:#ede7dc;fill-opacity:1" />
    </g>
    <g
       aria-label="SHIFT1"
       id="text5081-82-7-8-5-5-3-3"
       style="font-weight:bold;font-size:21.1667px;line-height:1.25;font-family:Arial;-inkscape-font-specification:'Arial, Bold';font-variant-ligatures:none;text-align:center;text-anchor:middle;display:inline;fill:#ede7dc;fill-opacity:1;stroke-width:2.64583"
       transform="translate(0,5.2916668)">
      <path
         d="m 33.114649,81.102577 2.976567,-0.289388 q 0.268718,1.498618 1.085207,2.201419 0.826824,0.702801 2.22209,0.702801 1.477948,0 2.22209,-0.620119 0.754477,-0.630453 0.754477,-1.467613 0,-0.537435 -0.320394,-0.909506 -0.310059,-0.382406 -1.095543,-0.66146 -0.537435,-0.186035 -2.449466,-0.661459 -2.459802,-0.609783 -3.451991,-1.498619 -1.395266,-1.250572 -1.395266,-3.048914 0,-1.157554 0.651124,-2.160079 0.661459,-1.012859 1.89136,-1.53996 1.240237,-0.5271 2.986903,-0.5271 2.852543,0 4.28915,1.250571 1.446943,1.250572 1.51929,3.338303 l -3.05925,0.134359 q -0.19637,-1.167889 -0.847495,-1.674319 -0.640788,-0.516765 -1.932701,-0.516765 -1.333254,0 -2.087731,0.547771 -0.48576,0.3514 -0.48576,0.940513 0,0.537435 0.454754,0.919842 0.578777,0.485759 2.811202,1.012859 2.232426,0.527101 3.296962,1.095542 1.074871,0.558107 1.674319,1.539961 0.609783,0.971518 0.609783,2.408125 0,1.302248 -0.723472,2.439132 -0.723471,1.136883 -2.04639,1.694989 -1.322918,0.547771 -3.296961,0.547771 -2.873214,0 -4.413174,-1.322918 -1.539961,-1.333254 -1.839684,-3.875739 z"
         id="path48884"
         style="fill:#ede7dc;fill-opacity:1" />
      <path
         d="M 48.018155,86.032516 V 70.880962 h 3.05925 v 5.96347 h 5.994476 v -5.96347 h 3.059249 v 15.151554 h -3.059249 v -6.624929 h -5.994476 v 6.624929 z"
         id="path48886"
         style="fill:#ede7dc;fill-opacity:1" />
      <path
         d="M 63.200717,86.032516 V 70.880962 h 3.05925 v 15.151554 z"
         id="path48888"
         style="fill:#ede7dc;fill-opacity:1" />
      <path
         d="M 69.195192,86.032516 V 70.880962 h 10.38698 v 2.563156 h -7.32773 v 3.58635 h 6.325205 v 2.563155 h -6.325205 v 6.438893 z"
         id="path48890"
         style="fill:#ede7dc;fill-opacity:1" />
      <path
         d="M 85.514634,86.032516 V 73.444118 h -4.495857 v -2.563156 h 12.040628 v 2.563156 h -4.485521 v 12.588398 z"
         id="path48892"
         style="fill:#ede7dc;fill-opacity:1" />
      <path
         d="M 101.82374,86.032516 H 98.919524 V 75.087431 q -1.591637,1.488283 -3.751715,2.201419 v -2.635502 q 1.136883,-0.372071 2.470138,-1.405601 1.333254,-1.043866 1.829348,-2.428796 h 2.356445 z"
         id="path48894"
         style="fill:#ede7dc;fill-opacity:1" />
    </g>
    <g
       aria-label="SIZE1"
       id="text5081-82-7-8-5-5-3-3-0"
       style="font-weight:bold;font-size:21.1667px;line-height:1.25;font-family:Arial;-inkscape-font-specification:'Arial, Bold';font-variant-ligatures:none;text-align:center;text-anchor:middle;display:inline;fill:#ede7dc;fill-opacity:1;stroke-width:2.64583"
       transform="translate(0,5.2916668)">
      <path
         d="m 127.47586,81.102577 2.97656,-0.289388 q 0.26872,1.498618 1.08521,2.201419 0.82682,0.702801 2.22209,0.702801 1.47795,0 2.22209,-0.620119 0.75448,-0.630453 0.75448,-1.467613 0,-0.537435 -0.3204,-0.909506 -0.31006,-0.382406 -1.09554,-0.66146 -0.53744,-0.186035 -2.44947,-0.661459 -2.4598,-0.609783 -3.45199,-1.498619 -1.39526,-1.250572 -1.39526,-3.048914 0,-1.157554 0.65112,-2.160079 0.66146,-1.012859 1.89136,-1.53996 1.24024,-0.5271 2.9869,-0.5271 2.85255,0 4.28915,1.250571 1.44695,1.250572 1.51929,3.338303 l -3.05925,0.134359 q -0.19637,-1.167889 -0.84749,-1.674319 -0.64079,-0.516765 -1.9327,-0.516765 -1.33326,0 -2.08773,0.547771 -0.48576,0.3514 -0.48576,0.940513 0,0.537435 0.45475,0.919842 0.57878,0.485759 2.8112,1.012859 2.23243,0.527101 3.29696,1.095542 1.07488,0.558107 1.67432,1.539961 0.60979,0.971518 0.60979,2.408125 0,1.302248 -0.72347,2.439132 -0.72348,1.136883 -2.04639,1.694989 -1.32292,0.547771 -3.29697,0.547771 -2.87321,0 -4.41317,-1.322918 -1.53996,-1.333254 -1.83968,-3.875739 z"
         id="path48897"
         style="fill:#ede7dc;fill-opacity:1" />
      <path
         d="M 142.27601,86.032516 V 70.880962 h 3.05925 v 15.151554 z"
         id="path48899"
         style="fill:#ede7dc;fill-opacity:1" />
      <path
         d="m 146.93723,86.032516 v -2.759525 l 7.95818,-9.828873 h -7.05901 v -2.563156 h 11.08978 v 2.37712 l -8.29925,10.221615 h 8.61965 v 2.552819 z"
         id="path48901"
         style="fill:#ede7dc;fill-opacity:1" />
      <path
         d="M 161.17928,86.032516 V 70.880962 h 11.23447 v 2.563156 h -8.17522 v 3.358973 h 7.60678 v 2.55282 h -7.60678 v 4.123786 h 8.46461 v 2.552819 z"
         id="path48903"
         style="fill:#ede7dc;fill-opacity:1" />
      <path
         d="m 182.0876,86.032516 h -2.90422 V 75.087431 q -1.59164,1.488283 -3.75172,2.201419 v -2.635502 q 1.13688,-0.372071 2.47014,-1.405601 1.33325,-1.043866 1.82935,-2.428796 h 2.35645 z"
         id="path48905"
         style="fill:#ede7dc;fill-opacity:1" />
    </g>
    <g
       aria-label="SIZE2"
       id="text5081-82-7-8-5-5-3-3-5"
       style="font-weight:bold;font-size:21.1667px;line-height:1.25;font-family:Arial;-inkscape-font-specification:'Arial, Bold';font-variant-ligatures:none;text-align:center;text-anchor:middle;display:inline;fill:#ede7dc;fill-opacity:1;stroke-width:2.64583"
       transform="translate(0,5.2916668)">
      <path
         d="m 213.59979,81.102577 2.97656,-0.289388 q 0.26872,1.498618 1.08521,2.201419 0.82683,0.702801 2.22209,0.702801 1.47795,0 2.22209,-0.620119 0.75448,-0.630453 0.75448,-1.467613 0,-0.537435 -0.3204,-0.909506 -0.31005,-0.382406 -1.09554,-0.66146 -0.53743,-0.186035 -2.44946,-0.661459 -2.45981,-0.609783 -3.452,-1.498619 -1.39526,-1.250572 -1.39526,-3.048914 0,-1.157554 0.65112,-2.160079 0.66146,-1.012859 1.89136,-1.53996 1.24024,-0.5271 2.98691,-0.5271 2.85254,0 4.28915,1.250571 1.44694,1.250572 1.51929,3.338303 l -3.05925,0.134359 q -0.19637,-1.167889 -0.8475,-1.674319 -0.64079,-0.516765 -1.9327,-0.516765 -1.33325,0 -2.08773,0.547771 -0.48576,0.3514 -0.48576,0.940513 0,0.537435 0.45475,0.919842 0.57878,0.485759 2.81121,1.012859 2.23242,0.527101 3.29696,1.095542 1.07487,0.558107 1.67432,1.539961 0.60978,0.971518 0.60978,2.408125 0,1.302248 -0.72347,2.439132 -0.72347,1.136883 -2.04639,1.694989 -1.32292,0.547771 -3.29696,0.547771 -2.87322,0 -4.41318,-1.322918 -1.53996,-1.333254 -1.83968,-3.875739 z"
         id="path48908"
         style="fill:#ede7dc;fill-opacity:1" />
      <path
         d="M 228.39994,86.032516 V 70.880962 h 3.05925 v 15.151554 z"
         id="path48910"
         style="fill:#ede7dc;fill-opacity:1" />
      <path
         d="m 233.06116,86.032516 v -2.759525 l 7.95819,-9.828873 h -7.05902 v -2.563156 h 11.08978 v 2.37712 l -8.29924,10.221615 h 8.61964 v 2.552819 z"
         id="path48912"
         style="fill:#ede7dc;fill-opacity:1" />
      <path
         d="M 247.30321,86.032516 V 70.880962 h 11.23448 v 2.563156 h -8.17523 v 3.358973 h 7.60678 v 2.55282 h -7.60678 v 4.123786 h 8.46461 v 2.552819 z"
         id="path48914"
         style="fill:#ede7dc;fill-opacity:1" />
      <path
         d="m 270.58865,83.335002 v 2.697514 h -10.18028 q 0.16537,-1.529624 0.99219,-2.893884 0.82683,-1.374596 3.26596,-3.638027 1.96371,-1.829349 2.40812,-2.480473 0.59945,-0.899171 0.59945,-1.777672 0,-0.971518 -0.5271,-1.488283 -0.51676,-0.527101 -1.43661,-0.527101 -0.9095,0 -1.44694,0.547771 -0.53743,0.547771 -0.62012,1.819014 l -2.89388,-0.289389 q 0.25838,-2.39779 1.62264,-3.441656 1.36426,-1.043865 3.41065,-1.043865 2.24276,0 3.52434,1.20923 1.28158,1.20923 1.28158,3.007573 0,1.023195 -0.37207,1.953372 -0.36174,0.919842 -1.15756,1.932702 -0.5271,0.671795 -1.90169,1.932702 -1.3746,1.260907 -1.74667,1.674319 -0.36173,0.413412 -0.58911,0.806153 z"
         id="path48916"
         style="fill:#ede7dc;fill-opacity:1" />
    </g>
    <g
       aria-label="SHIFT2"
       id="text5081-82-7-8-5-5-3-3-8"
       style="font-weight:bold;font-size:21.1667px;line-height:1.25;font-family:Arial;-inkscape-font-specification:'Arial, Bold';font-variant-ligatures:none;text-align:center;text-anchor:middle;display:inline;fill:#ede7dc;fill-opacity:1;stroke-width:2.64583"
       transform="translate(0,5.2916668)">
      <path
         d="m 293.86361,81.102577 2.97657,-0.289388 q 0.26872,1.498618 1.08521,2.201419 0.82682,0.702801 2.22209,0.702801 1.47794,0 2.22209,-0.620119 0.75447,-0.630453 0.75447,-1.467613 0,-0.537435 -0.32039,-0.909506 -0.31006,-0.382406 -1.09554,-0.66146 -0.53744,-0.186035 -2.44947,-0.661459 -2.4598,-0.609783 -3.45199,-1.498619 -1.39527,-1.250572 -1.39527,-3.048914 0,-1.157554 0.65113,-2.160079 0.66146,-1.012859 1.89136,-1.53996 1.24023,-0.5271 2.9869,-0.5271 2.85254,0 4.28915,1.250571 1.44694,1.250572 1.51929,3.338303 l -3.05925,0.134359 q -0.19637,-1.167889 -0.8475,-1.674319 -0.64078,-0.516765 -1.9327,-0.516765 -1.33325,0 -2.08773,0.547771 -0.48576,0.3514 -0.48576,0.940513 0,0.537435 0.45476,0.919842 0.57877,0.485759 2.8112,1.012859 2.23242,0.527101 3.29696,1.095542 1.07487,0.558107 1.67432,1.539961 0.60978,0.971518 0.60978,2.408125 0,1.302248 -0.72347,2.439132 -0.72347,1.136883 -2.04639,1.694989 -1.32292,0.547771 -3.29696,0.547771 -2.87321,0 -4.41318,-1.322918 -1.53996,-1.333254 -1.83968,-3.875739 z"
         id="path48919"
         style="fill:#ede7dc;fill-opacity:1" />
      <path
         d="M 308.76712,86.032516 V 70.880962 h 3.05925 v 5.96347 h 5.99447 v -5.96347 h 3.05925 v 15.151554 h -3.05925 v -6.624929 h -5.99447 v 6.624929 z"
         id="path48921"
         style="fill:#ede7dc;fill-opacity:1" />
      <path
         d="M 323.94968,86.032516 V 70.880962 h 3.05925 v 15.151554 z"
         id="path48923"
         style="fill:#ede7dc;fill-opacity:1" />
      <path
         d="M 329.94415,86.032516 V 70.880962 h 10.38698 v 2.563156 h -7.32773 v 3.58635 h 6.32521 v 2.563155 h -6.32521 v 6.438893 z"
         id="path48925"
         style="fill:#ede7dc;fill-opacity:1" />
      <path
         d="M 346.2636,86.032516 V 73.444118 h -4.49586 v -2.563156 h 12.04063 v 2.563156 h -4.48552 v 12.588398 z"
         id="path48927"
         style="fill:#ede7dc;fill-opacity:1" />
      <path
         d="m 364.94983,83.335002 v 2.697514 h -10.18028 q 0.16537,-1.529624 0.99219,-2.893884 0.82683,-1.374596 3.26596,-3.638027 1.96371,-1.829349 2.40812,-2.480473 0.59945,-0.899171 0.59945,-1.777672 0,-0.971518 -0.5271,-1.488283 -0.51676,-0.527101 -1.43661,-0.527101 -0.9095,0 -1.44694,0.547771 -0.53743,0.547771 -0.62012,1.819014 l -2.89388,-0.289389 q 0.25838,-2.39779 1.62264,-3.441656 1.36426,-1.043865 3.41065,-1.043865 2.24276,0 3.52434,1.20923 1.28158,1.20923 1.28158,3.007573 0,1.023195 -0.37207,1.953372 -0.36174,0.919842 -1.15756,1.932702 -0.5271,0.671795 -1.90169,1.932702 -1.3746,1.260907 -1.74667,1.674319 -0.36174,0.413412 -0.58911,0.806153 z"
         id="path48929"
         style="fill:#ede7dc;fill-opacity:1" />
    </g>
    <path
       d="m 205.40993,330.77471 -11.3959,-6.57958 a 1.4757232,1.4757232 0 0 0 -2.21357,1.27782 v 13.15916 a 1.4757232,1.4757232 0 0 0 2.21357,1.27783 l 11.3959,-6.57958 a 1.4756835,1.4756835 0 0 0 0,-2.55565 z"
       fill="#1f1f1f"
       id="path26-0"
       style="display:inline;fill:#ede7dc;fill-opacity:1;stroke-width:2.64583" />
    <g
       id="g4617"
       style="display:inline;fill:#ede7dc;fill-opacity:1"
       transform="translate(0,5.2916668)">
      <path
         d="m 205.40993,247.43151 -11.3959,-6.57958 a 1.4757232,1.4757232 0 0 0 -2.21357,1.27782 v 13.15916 a 1.4757232,1.4757232 0 0 0 2.21357,1.27783 l 11.3959,-6.57958 a 1.4756835,1.4756835 0 0 0 0,-2.55565 z"
         fill="#1f1f1f"
         id="path26-4"
         style="display:inline;fill:#ede7dc;fill-opacity:1;stroke-width:2.64583" />
      <path
         style="color:#000000;display:inline;fill:#ede7dc;fill-opacity:1;-inkscape-stroke:none"
         d="m 66.146484,247.37695 v 2.64649 l 264.582036,0.008 v -2.64648 z"
         id="path3891" />
      <path
         style="color:#000000;fill:#ede7dc;fill-opacity:1;-inkscape-stroke:none"
         d="m 66.146484,220.92773 v 26.45704 h 2.644532 l 0.002,-26.45704 z"
         id="path1270-8-2-5-8-1-9-2" />
      <path
         style="color:#000000;fill:#ede7dc;fill-opacity:1;-inkscape-stroke:none"
         d="m 328.08398,220.92773 v 26.45704 h 2.64454 l 0.002,-26.45704 z"
         id="path1270-8-2-5-8-1-9-2-5" />
    </g>
    <path
       d="m 205.40993,210.38985 -11.3959,-6.57958 a 1.4757232,1.4757232 0 0 0 -2.21357,1.27782 v 13.15916 a 1.4757232,1.4757232 0 0 0 2.21357,1.27783 l 11.3959,-6.57958 a 1.4756835,1.4756835 0 0 0 0,-2.55565 z"
       fill="#1f1f1f"
       id="path26"
       style="display:inline;fill:#ede7dc;fill-opacity:1;stroke-width:2.64583" />
    <path
       style="color:#000000;display:inline;fill:#ede7dc;fill-opacity:1;stroke-dasharray:5.30002, 2.65001;-inkscape-stroke:none"
       d="m 328.08203,133.4935 v 5.29882 h 2.65039 v -5.29882 z m 0,7.94921 v 5.30079 h 2.65039 v -5.30079 z m 0,7.95118 v 5.29882 h 2.65039 v -5.29882 z m 0,7.94922 v 5.30078 h 2.65039 v -5.30078 z m 0,7.95117 v 5.29883 h 2.65039 v -5.29883 z m 0,7.94922 v 5.30078 h 2.65039 v -5.30078 z m 0,7.94921 v 5.30079 h 2.65039 v -5.30079 z m 0,7.95118 v 5.29882 h 2.64844 l 0.002,-5.29882 z m 0,7.94922 v 5.30078 h 2.64844 v -5.30078 z m 0,7.95117 v 5.29883 h 2.64844 v -5.29883 z"
       id="path1270-8-2-5-8-1" />
    <path
       style="color:#000000;display:inline;fill:#ede7dc;fill-opacity:1;stroke-dasharray:5.30002, 2.65001;-inkscape-stroke:none"
       d="m 240.76953,133.4935 v 5.29882 h 2.65039 v -5.29882 z m 0,7.94921 v 5.30079 h 2.65039 v -5.30079 z m 0,7.95118 v 5.29882 h 2.65039 v -5.29882 z m 0,7.94922 v 5.30078 h 2.65039 v -5.30078 z m 0,7.95117 v 5.29883 h 2.65039 v -5.29883 z m 0,7.94922 v 5.30078 h 2.65039 v -5.30078 z m 0,7.94921 v 5.30079 h 2.65039 v -5.30079 z m 0,7.95118 v 5.29882 h 2.64844 l 0.002,-5.29882 z m 0,7.94922 v 5.30078 h 2.64844 v -5.30078 z m 0,7.95117 v 5.29883 h 2.64844 v -5.29883 z"
       id="path1270-8-2-5-8-1-7" />
    <path
       style="color:#000000;display:inline;fill:#ede7dc;fill-opacity:1;stroke-dasharray:5.30002, 2.65001;-inkscape-stroke:none"
       d="m 153.45703,133.4935 v 5.29882 h 2.65039 v -5.29882 z m 0,7.94921 v 5.30079 h 2.65039 v -5.30079 z m 0,7.95118 v 5.29882 h 2.65039 v -5.29882 z m 0,7.94922 v 5.30078 h 2.65039 v -5.30078 z m 0,7.95117 v 5.29883 h 2.65039 v -5.29883 z m 0,7.94922 v 5.30078 h 2.65039 v -5.30078 z m 0,7.94921 v 5.30079 h 2.65039 v -5.30079 z m 0,7.95118 v 5.29882 h 2.64844 l 0.002,-5.29882 z m 0,7.94922 v 5.30078 h 2.64844 v -5.30078 z m 0,7.95117 v 5.29883 h 2.64844 v -5.29883 z"
       id="path1270-8-2-5-8-1-5" />
    <path
       style="color:#000000;display:inline;fill:#ede7dc;fill-opacity:1;stroke-dasharray:5.30002, 2.65001;-inkscape-stroke:none"
       d="m 66.144531,133.4935 v 5.29882 h 2.650391 v -5.29882 z m 0,7.94921 v 5.30079 h 2.650391 v -5.30079 z m 0,7.95118 v 5.29882 h 2.650391 v -5.29882 z m 0,7.94922 v 5.30078 h 2.650391 v -5.30078 z m 0,7.95117 v 5.29883 h 2.650391 v -5.29883 z m 0,7.94922 v 5.30078 h 2.650391 v -5.30078 z m 0,7.94921 v 5.30079 h 2.650391 v -5.30079 z m 0,7.95118 v 5.29882 h 2.648438 l 0.002,-5.29882 z m 0,7.94922 v 5.30078 h 2.648438 v -5.30078 z m 0,7.95117 v 5.29883 h 2.648438 v -5.29883 z"
       id="path1270-8-2-5-8-1-9" />
    <g
       aria-label="COMPARE 2"
       id="text6290"
       style="font-weight:bold;font-size:31.75px;line-height:1.25;font-family:Arial;-inkscape-font-specification:'Arial, Bold';font-variant-ligatures:none;text-align:center;text-anchor:middle;display:inline;fill:#ede7dc;fill-opacity:1;stroke-width:2.64583">
      <path
         d="m 122.13208,37.672344 4.44934,1.410767 q -1.02319,3.720703 -3.41064,5.534546 -2.37195,1.79834 -6.03064,1.79834 -4.52686,0 -7.44141,-3.085083 -2.91455,-3.100586 -2.91455,-8.4646 0,-5.674072 2.93005,-8.805664 2.93006,-3.147095 7.70496,-3.147095 4.17029,0 6.77478,2.464966 1.55029,1.457275 2.32544,4.185791 l -4.54236,1.085205 q -0.40308,-1.767334 -1.68982,-2.790527 -1.27124,-1.023194 -3.10058,-1.023194 -2.52698,0 -4.10828,1.813843 -1.5658,1.813843 -1.5658,5.87561 0,4.309815 1.5503,6.139161 1.55029,1.829345 4.03076,1.829345 1.82934,0 3.14709,-1.162719 1.31775,-1.16272 1.89136,-3.658692 z"
         id="path48932"
         style="fill:#ede7dc;fill-opacity:1" />
      <path
         d="m 129.58899,34.804302 q 0,-3.472656 1.0387,-5.829101 0.77514,-1.736328 2.10839,-3.116089 1.34876,-1.379761 2.94556,-2.046387 2.1239,-0.89917 4.89893,-0.89917 5.02295,0 8.03051,3.116089 3.02308,3.116089 3.02308,8.666138 0,5.50354 -2.99207,8.619629 -2.99207,3.100586 -7.99951,3.100586 -5.06946,0 -8.06153,-3.085083 -2.99206,-3.100586 -2.99206,-8.526612 z m 4.72839,-0.155029 q 0,3.860229 1.78284,5.860107 1.78284,1.984375 4.52686,1.984375 2.74401,0 4.49584,-1.968872 1.76734,-1.984375 1.76734,-5.937622 0,-3.906738 -1.72083,-5.829101 -1.70532,-1.922364 -4.54235,-1.922364 -2.83704,0 -4.57337,1.953369 -1.73633,1.937867 -1.73633,5.860108 z"
         id="path48934"
         style="fill:#ede7dc;fill-opacity:1" />
      <path
         d="M 155.15332,46.028423 V 23.301128 h 6.8678 l 4.12378,15.50293 4.07727,-15.50293 h 6.8833 v 22.727295 h -4.26331 V 28.138042 l -4.51135,17.890381 h -4.41833 l -4.49585,-17.890381 v 17.890381 z"
         id="path48936"
         style="fill:#ede7dc;fill-opacity:1" />
      <path
         d="M 181.66333,46.028423 V 23.301128 h 7.36389 q 4.18579,0 5.45703,0.341065 1.95337,0.511597 3.27112,2.232422 1.31775,1.705322 1.31775,4.418335 0,2.092895 -0.75964,3.519165 -0.75965,1.426269 -1.93787,2.247925 -1.16272,0.806152 -2.37195,1.069702 -1.64331,0.325561 -4.7594,0.325561 h -2.99206 v 8.57312 z m 4.58887,-18.882568 v 6.449219 h 2.51147 q 2.71301,0 3.62769,-0.356568 0.91467,-0.356567 1.42627,-1.116211 0.5271,-0.759643 0.5271,-1.767334 0,-1.240234 -0.72864,-2.046386 -0.72864,-0.806153 -1.84485,-1.007691 -0.82166,-0.155029 -3.30212,-0.155029 z"
         id="path48938"
         style="fill:#ede7dc;fill-opacity:1" />
      <path
         d="m 220.97876,46.028423 h -4.99194 l -1.98438,-5.162475 h -9.08472 l -1.87585,5.162475 h -4.86792 l 8.85217,-22.727295 h 4.85242 z m -8.4491,-8.991699 -3.13159,-8.433594 -3.06958,8.433594 z"
         id="path48940"
         style="fill:#ede7dc;fill-opacity:1" />
      <path
         d="M 223.42822,46.028423 V 23.301128 h 9.65833 q 3.64319,0 5.2865,0.620118 1.65881,0.604614 2.651,2.17041 0.99219,1.565796 0.99219,3.581176 0,2.557984 -1.50379,4.2323 -1.50378,1.658814 -4.49585,2.092896 1.48828,0.868164 2.44946,1.90686 0.97669,1.038696 2.62,3.689697 l 2.77502,4.433838 h -5.48803 l -3.31763,-4.945434 q -1.76733,-2.651001 -2.41846,-3.33313 -0.65112,-0.697632 -1.37976,-0.945679 -0.72864,-0.26355 -2.30993,-0.26355 h -0.93018 v 9.487793 z m 4.58887,-13.115478 h 3.39514 q 3.30213,0 4.12378,-0.279053 0.82166,-0.279053 1.28674,-0.961182 0.46509,-0.682128 0.46509,-1.705322 0,-1.147217 -0.62012,-1.844848 -0.60461,-0.713135 -1.72082,-0.89917 -0.55811,-0.07751 -3.34863,-0.07751 h -3.58118 z"
         id="path48942"
         style="fill:#ede7dc;fill-opacity:1" />
      <path
         d="M 246.34155,46.028423 V 23.301128 h 16.85169 v 3.844727 h -12.26282 v 5.038452 h 11.41016 v 3.829224 H 250.93042 V 42.1992 h 12.6969 v 3.829223 z"
         id="path48944"
         style="fill:#ede7dc;fill-opacity:1" />
      <path
         d="m 290.09082,41.982159 v 4.046264 h -15.27039 q 0.24805,-2.294433 1.48829,-4.34082 1.24023,-2.06189 4.89892,-5.457031 2.94556,-2.744019 3.61218,-3.720703 0.89917,-1.348755 0.89917,-2.666504 0,-1.457276 -0.79065,-2.232422 -0.77514,-0.79065 -2.1549,-0.79065 -1.36426,0 -2.17041,0.821656 -0.80616,0.821655 -0.93018,2.728515 l -4.34082,-0.434082 q 0.38757,-3.596679 2.43396,-5.162475 2.04639,-1.565796 5.11597,-1.565796 3.36413,0 5.2865,1.813843 1.92236,1.813842 1.92236,4.511352 0,1.53479 -0.55811,2.930054 -0.5426,1.379761 -1.73632,2.899048 -0.79065,1.00769 -2.85254,2.899048 -2.06189,1.891357 -2.62,2.511474 -0.5426,0.620117 -0.88366,1.209229 z"
         id="path48946"
         style="fill:#ede7dc;fill-opacity:1" />
    </g>
  </g>
  <g
     inkscape:groupmode="layer"
     id="layer7"
     inkscape:label="Alternate Solid"
     style="display:inline" />
  <g
     inkscape:groupmode="layer"
     id="layer6"
     inkscape:label="Line"
     style="display:inline" />
  <g
     inkscape:groupmode="layer"
     id="layer1"
     inkscape:label="Inverse Solid"
     style="display:inline">
    <g
       aria-label="="
       id="text5081-2"
       style="font-weight:bold;font-size:21.1667px;line-height:1.25;font-family:Arial;-inkscape-font-specification:'Arial, Bold';font-variant-ligatures:none;text-align:center;text-anchor:middle;display:inline;fill:#252525;stroke-width:2.64583;fill-opacity:1"
       transform="translate(0,5.2916668)">
      <path
         d="m 17.197917,526.88237 v -2.66651 h 10.593686 v 2.66651 z m 0,4.58888 v -2.67685 h 10.593686 v 2.67685 z"
         id="path49091"
         style="fill:#252525;fill-opacity:1" />
    </g>
    <g
       aria-label="&lt;"
       id="text5081-2-8"
       style="font-weight:bold;font-size:21.1667px;line-height:1.25;font-family:Arial;-inkscape-font-specification:'Arial, Bold';font-variant-ligatures:none;text-align:center;text-anchor:middle;display:inline;fill:#252525;stroke-width:2.64583;fill-opacity:1"
       transform="translate(0,5.2916668)">
      <path
         d="m 27.68825,615.62105 -10.38698,-4.51653 v -2.50114 l 10.38698,-4.49586 v 2.94556 l -7.245048,2.76987 7.245048,2.87321 z"
         id="path49094"
         style="fill:#252525;fill-opacity:1" />
    </g>
    <g
       aria-label="&gt;"
       id="text5081"
       style="font-weight:bold;font-size:21.1667px;line-height:1.25;font-family:Arial;-inkscape-font-specification:'Arial, Bold';font-variant-ligatures:none;text-align:center;text-anchor:middle;display:inline;fill:#252525;stroke-width:2.64583;fill-opacity:1"
       transform="translate(0,5.2916668)">
      <path
         d="m 17.296103,451.57407 v -2.92489 l 7.255383,-2.85254 -7.255383,-2.82154 v -2.90422 l 10.397315,4.49586 v 2.48047 z"
         id="path49097"
         style="fill:#252525;fill-opacity:1" />
    </g>
    <g
       aria-label="&gt;"
       id="text5081-9"
       style="font-weight:bold;font-size:21.1667px;line-height:1.25;font-family:Arial;-inkscape-font-specification:'Arial, Bold';font-variant-ligatures:none;text-align:center;text-anchor:middle;display:inline;fill:#252525;stroke-width:2.64583;fill-opacity:1"
       transform="translate(0,5.2916668)">
      <path
         d="m 17.296103,729.38663 v -2.92489 l 7.255383,-2.85254 -7.255383,-2.82154 v -2.90422 l 10.397315,4.49586 v 2.48047 z"
         id="path49100"
         style="fill:#252525;fill-opacity:1" />
    </g>
    <g
       aria-label="="
       id="text5081-2-1"
       style="font-weight:bold;font-size:21.1667px;line-height:1.25;font-family:Arial;-inkscape-font-specification:'Arial, Bold';font-variant-ligatures:none;text-align:center;text-anchor:middle;display:inline;fill:#252525;stroke-width:2.64583;fill-opacity:1"
       transform="translate(0,5.2916668)">
      <path
         d="m 17.197917,804.69475 v -2.66651 h 10.593686 v 2.66651 z m 0,4.58887 v -2.67684 h 10.593686 v 2.67684 z"
         id="path49103"
         style="fill:#252525;fill-opacity:1" />
    </g>
    <g
       aria-label="&lt;"
       id="text5081-2-8-8"
       style="font-weight:bold;font-size:21.1667px;line-height:1.25;font-family:Arial;-inkscape-font-specification:'Arial, Bold';font-variant-ligatures:none;text-align:center;text-anchor:middle;display:inline;fill:#252525;stroke-width:2.64583;fill-opacity:1"
       transform="translate(0,5.2916668)">
      <path
         d="M 27.68825,893.43343 17.30127,888.9169 v -2.50114 l 10.38698,-4.49586 v 2.94556 l -7.245048,2.76986 7.245048,2.87322 z"
         id="path49106"
         style="fill:#252525;fill-opacity:1" />
    </g>
    <g
       aria-label="="
       id="text5081-2-84"
       style="font-weight:bold;font-size:21.1667px;line-height:1.25;font-family:Arial;-inkscape-font-specification:'Arial, Bold';font-variant-ligatures:none;text-align:center;text-anchor:middle;display:inline;fill:#252525;stroke-width:2.64583;fill-opacity:1"
       transform="translate(0,5.2916668)">
      <path
         d="m 370.41668,526.88237 v -2.66651 h 10.59368 v 2.66651 z m 0,4.58888 v -2.67685 h 10.59368 v 2.67685 z"
         id="path49127"
         style="fill:#252525;fill-opacity:1" />
    </g>
    <g
       aria-label="&lt;"
       id="text5081-2-8-6"
       style="font-weight:bold;font-size:21.1667px;line-height:1.25;font-family:Arial;-inkscape-font-specification:'Arial, Bold';font-variant-ligatures:none;text-align:center;text-anchor:middle;display:inline;fill:#252525;stroke-width:2.64583;fill-opacity:1"
       transform="translate(0,5.2916668)">
      <path
         d="m 380.90701,615.62105 -10.38698,-4.51653 v -2.50114 l 10.38698,-4.49586 v 2.94556 l -7.24505,2.76987 7.24505,2.87321 z"
         id="path49130"
         style="fill:#252525;fill-opacity:1" />
    </g>
    <g
       aria-label="&gt;"
       id="text5081-8"
       style="font-weight:bold;font-size:21.1667px;line-height:1.25;font-family:Arial;-inkscape-font-specification:'Arial, Bold';font-variant-ligatures:none;text-align:center;text-anchor:middle;display:inline;fill:#252525;stroke-width:2.64583;fill-opacity:1"
       transform="translate(0,5.2916668)">
      <path
         d="m 370.51484,451.57407 v -2.92489 l 7.25539,-2.85254 -7.25539,-2.82154 v -2.90422 l 10.39732,4.49586 v 2.48047 z"
         id="path49133"
         style="fill:#252525;fill-opacity:1" />
    </g>
    <g
       aria-label="&gt;"
       id="text5081-9-5"
       style="font-weight:bold;font-size:21.1667px;line-height:1.25;font-family:Arial;-inkscape-font-specification:'Arial, Bold';font-variant-ligatures:none;text-align:center;text-anchor:middle;display:inline;fill:#252525;stroke-width:2.64583;fill-opacity:1"
       transform="translate(0,5.2916668)">
      <path
         d="m 369.19191,729.38663 v -2.92489 l 7.25538,-2.85254 -7.25538,-2.82154 v -2.90422 l 10.39731,4.49586 v 2.48047 z"
         id="path49136"
         style="fill:#252525;fill-opacity:1" />
    </g>
    <g
       aria-label="="
       id="text5081-2-1-4"
       style="font-weight:bold;font-size:21.1667px;line-height:1.25;font-family:Arial;-inkscape-font-specification:'Arial, Bold';font-variant-ligatures:none;text-align:center;text-anchor:middle;display:inline;fill:#252525;stroke-width:2.64583;fill-opacity:1"
       transform="translate(0,5.2916668)">
      <path
         d="m 369.09374,804.69475 v -2.66651 h 10.59369 v 2.66651 z m 0,4.58887 v -2.67684 h 10.59369 v 2.67684 z"
         id="path49139"
         style="fill:#252525;fill-opacity:1" />
    </g>
    <g
       aria-label="&lt;"
       id="text5081-2-8-8-5"
       style="font-weight:bold;font-size:21.1667px;line-height:1.25;font-family:Arial;-inkscape-font-specification:'Arial, Bold';font-variant-ligatures:none;text-align:center;text-anchor:middle;display:inline;fill:#252525;stroke-width:2.64583;fill-opacity:1"
       transform="translate(0,5.2916668)">
      <path
         d="m 379.58407,893.43343 -10.38698,-4.51653 v -2.50114 l 10.38698,-4.49586 v 2.94556 l -7.24504,2.76986 7.24504,2.87322 z"
         id="path49142"
         style="fill:#252525;fill-opacity:1" />
    </g>
    <g
       aria-label="AND"
       id="text5081-82"
       style="font-weight:bold;font-size:21.1667px;line-height:1.25;font-family:Arial;-inkscape-font-specification:'Arial, Bold';font-variant-ligatures:none;text-align:center;text-anchor:middle;display:inline;fill:#252525;stroke-width:2.64583;fill-opacity:1"
       transform="translate(0,5.2916668)">
      <path
         d="m 60.270661,682.40997 h -3.327968 l -1.322918,-3.44165 h -6.056488 l -1.250572,3.44165 H 45.06743 l 5.901458,-15.15155 h 3.23495 z m -5.63274,-5.99447 -2.087731,-5.62241 -2.04639,5.62241 z"
         id="path49049"
         style="fill:#252525;fill-opacity:1" />
      <path
         d="m 61.92431,682.40997 v -15.15155 h 2.976567 l 6.201182,10.11826 v -10.11826 h 2.842208 v 15.15155 h -3.069585 l -6.108164,-9.88055 v 9.88055 z"
         id="path49051"
         style="fill:#252525;fill-opacity:1" />
      <path
         d="m 77.168882,667.25842 h 5.591399 q 1.89136,0 2.883549,0.28939 1.333254,0.39274 2.284102,1.39526 0.950848,1.00253 1.446943,2.45981 0.496094,1.44694 0.496094,3.57601 0,1.87069 -0.465088,3.22461 -0.568442,1.65365 -1.622643,2.67685 -0.795818,0.77515 -2.149743,1.20923 -1.01286,0.32039 -2.707849,0.32039 h -5.756764 z m 3.05925,2.56315 v 10.03558 h 2.284102 q 1.281577,0 1.850019,-0.14469 0.744142,-0.18604 1.229901,-0.63045 0.496094,-0.44442 0.806153,-1.45728 0.31006,-1.0232 0.31006,-2.7802 0,-1.757 -0.31006,-2.69751 -0.310059,-0.94052 -0.868165,-1.46762 -0.558106,-0.5271 -1.415936,-0.71313 -0.640789,-0.1447 -2.511479,-0.1447 z"
         id="path49053"
         style="fill:#252525;fill-opacity:1" />
    </g>
    <g
       aria-label="OR"
       id="text5081-82-7"
       style="font-weight:bold;font-size:21.1667px;line-height:1.25;font-family:Arial;-inkscape-font-specification:'Arial, Bold';font-variant-ligatures:none;text-align:center;text-anchor:middle;display:inline;fill:#252525;stroke-width:2.64583;fill-opacity:1"
       transform="translate(0,5.2916668)">
      <path
         d="m 139.42346,674.92721 q 0,-2.3151 0.69247,-3.88607 0.51676,-1.15755 1.4056,-2.0774 0.89917,-0.91984 1.96371,-1.36426 1.41593,-0.59944 3.26595,-0.59944 3.34864,0 5.35369,2.07739 2.01538,2.0774 2.01538,5.77744 0,3.66903 -1.99471,5.74643 -1.99471,2.06706 -5.33302,2.06706 -3.37964,0 -5.37435,-2.05673 -1.99472,-2.06706 -1.99472,-5.68442 z m 3.15227,-0.10335 q 0,2.57349 1.18856,3.90675 1.18856,1.32291 3.01791,1.32291 1.82935,0 2.99724,-1.31258 1.17822,-1.32292 1.17822,-3.95842 0,-2.6045 -1.14722,-3.88607 -1.13688,-1.28158 -3.02824,-1.28158 -1.89136,0 -3.04892,1.30225 -1.15755,1.29191 -1.15755,3.90674 z"
         id="path49056"
         style="fill:#252525;fill-opacity:1" />
      <path
         d="m 156.51806,682.40997 v -15.15155 h 6.43889 q 2.42879,0 3.52434,0.41341 1.10587,0.40308 1.76733,1.44694 0.66146,1.04387 0.66146,2.38746 0,1.70532 -1.00252,2.82154 -1.00253,1.10587 -2.99724,1.39526 0.99219,0.57878 1.63298,1.27124 0.65112,0.69247 1.74667,2.45981 l 1.85001,2.95589 h -3.65869 l -2.21176,-3.29696 q -1.17822,-1.76734 -1.61231,-2.22209 -0.43408,-0.46509 -0.91984,-0.63045 -0.48576,-0.1757 -1.53996,-0.1757 h -0.62012 v 6.3252 z m 3.05924,-8.74366 h 2.26344 q 2.20142,0 2.74919,-0.18604 0.54777,-0.18603 0.85783,-0.64079 0.31006,-0.45475 0.31006,-1.13688 0,-0.76481 -0.41342,-1.2299 -0.40307,-0.47543 -1.14721,-0.59945 -0.37208,-0.0517 -2.23243,-0.0517 h -2.38746 z"
         id="path49058"
         style="fill:#252525;fill-opacity:1" />
    </g>
    <g
       aria-label="XOR"
       id="text5081-82-1"
       style="font-weight:bold;font-size:21.1667px;line-height:1.25;font-family:Arial;-inkscape-font-specification:'Arial, Bold';font-variant-ligatures:none;text-align:center;text-anchor:middle;display:inline;fill:#252525;stroke-width:2.64583;fill-opacity:1"
       transform="translate(0,5.2916668)">
      <path
         d="m 219.21702,682.40997 5.17799,-7.9065 -4.69223,-7.24505 h 3.57602 l 3.03858,4.86793 2.97657,-4.86793 h 3.545 l -4.71289,7.35873 5.17798,7.79282 h -3.6897 l -3.35897,-5.24 -3.36931,5.24 z"
         id="path49061"
         style="fill:#252525;fill-opacity:1" />
      <path
         d="m 234.25489,674.92721 q 0,-2.3151 0.69247,-3.88607 0.51676,-1.15755 1.4056,-2.0774 0.89917,-0.91984 1.9637,-1.36426 1.41594,-0.59944 3.26596,-0.59944 3.34864,0 5.35369,2.07739 2.01538,2.0774 2.01538,5.77744 0,3.66903 -1.99471,5.74643 -1.99472,2.06706 -5.33302,2.06706 -3.37964,0 -5.37436,-2.05673 -1.99471,-2.06706 -1.99471,-5.68442 z m 3.15227,-0.10335 q 0,2.57349 1.18856,3.90675 1.18856,1.32291 3.01791,1.32291 1.82934,0 2.99723,-1.31258 1.17823,-1.32292 1.17823,-3.95842 0,-2.6045 -1.14722,-3.88607 -1.13688,-1.28158 -3.02824,-1.28158 -1.89136,0 -3.04892,1.30225 -1.15755,1.29191 -1.15755,3.90674 z"
         id="path49063"
         style="fill:#252525;fill-opacity:1" />
      <path
         d="m 251.34948,682.40997 v -15.15155 h 6.43889 q 2.4288,0 3.52434,0.41341 1.10588,0.40308 1.76734,1.44694 0.66146,1.04387 0.66146,2.38746 0,1.70532 -1.00252,2.82154 -1.00253,1.10587 -2.99724,1.39526 0.99219,0.57878 1.63298,1.27124 0.65112,0.69247 1.74666,2.45981 l 1.85002,2.95589 h -3.6587 l -2.21175,-3.29696 q -1.17823,-1.76734 -1.61231,-2.22209 -0.43408,-0.46509 -0.91984,-0.63045 -0.48576,-0.1757 -1.53996,-0.1757 h -0.62012 v 6.3252 z m 3.05925,-8.74366 h 2.26343 q 2.20142,0 2.74919,-0.18604 0.54777,-0.18603 0.85783,-0.64079 0.31006,-0.45475 0.31006,-1.13688 0,-0.76481 -0.41341,-1.2299 -0.40308,-0.47543 -1.14722,-0.59945 -0.37207,-0.0517 -2.23242,-0.0517 h -2.38746 z"
         id="path49065"
         style="fill:#252525;fill-opacity:1" />
    </g>
    <g
       aria-label="FF"
       id="text5081-82-3"
       style="font-weight:bold;font-size:21.1667px;line-height:1.25;font-family:Arial;-inkscape-font-specification:'Arial, Bold';font-variant-ligatures:none;text-align:center;text-anchor:middle;display:inline;fill:#252525;stroke-width:2.64583;fill-opacity:1"
       transform="translate(0,5.2916668)">
      <path
         d="m 317.74848,682.40997 v -15.15155 h 10.38698 v 2.56315 h -7.32773 v 3.58635 h 6.3252 v 2.56316 h -6.3252 v 6.43889 z"
         id="path49068"
         style="fill:#252525;fill-opacity:1" />
      <path
         d="m 330.67794,682.40997 v -15.15155 h 10.38698 v 2.56315 h -7.32773 v 3.58635 h 6.32521 v 2.56316 h -6.32521 v 6.43889 z"
         id="path49070"
         style="fill:#252525;fill-opacity:1" />
    </g>
    <g
       aria-label="OUT1"
       id="text5081-82-18"
       style="font-weight:bold;font-size:21.1667px;line-height:1.25;font-family:Arial;-inkscape-font-specification:'Arial, Bold';font-variant-ligatures:none;text-align:center;text-anchor:middle;display:inline;fill:#252525;stroke-width:2.64583;fill-opacity:1"
       transform="translate(0,5.2916668)">
      <path
         d="m 40.693001,397.37268 q 0,-2.31511 0.692465,-3.88607 0.516765,-1.15756 1.405601,-2.0774 0.899171,-0.91984 1.963708,-1.36426 1.415936,-0.59945 3.265955,-0.59945 3.348638,0 5.353687,2.0774 2.015384,2.07739 2.015384,5.77743 0,3.66903 -1.994713,5.74643 -1.994714,2.06706 -5.333016,2.06706 -3.379645,0 -5.374358,-2.05672 -1.994713,-2.06707 -1.994713,-5.68442 z m 3.152267,-0.10335 q 0,2.57349 1.18856,3.90674 1.18856,1.32292 3.017908,1.32292 1.829349,0 2.997238,-1.31258 1.178225,-1.32292 1.178225,-3.95843 0,-2.60449 -1.147219,-3.88607 -1.136883,-1.28158 -3.028244,-1.28158 -1.89136,0 -3.048914,1.30225 -1.157554,1.29191 -1.157554,3.90675 z"
         id="path48995"
         style="fill:#252525;fill-opacity:1" />
      <path
         d="m 57.756586,389.70388 h 3.05925 v 8.20623 q 0,1.95338 0.113688,2.53215 0.196371,0.93018 0.930177,1.49862 0.744142,0.55811 2.02572,0.55811 1.302248,0 1.963707,-0.5271 0.66146,-0.53744 0.795819,-1.31258 0.134359,-0.77515 0.134359,-2.5735 v -8.38193 h 3.059249 v 7.95819 q 0,2.72852 -0.248047,3.85507 -0.248047,1.12654 -0.919842,1.90169 -0.661459,0.77515 -1.777672,1.24024 -1.116213,0.45475 -2.914555,0.45475 -2.170414,0 -3.296962,-0.49609 -1.116213,-0.50643 -1.767337,-1.30225 -0.651124,-0.80616 -0.85783,-1.68466 -0.299724,-1.30224 -0.299724,-3.84473 z"
         id="path48997"
         style="fill:#252525;fill-opacity:1" />
      <path
         d="m 76.47382,404.85544 v -12.5884 h -4.495857 v -2.56316 h 12.040628 v 2.56316 H 79.53307 v 12.5884 z"
         id="path48999"
         style="fill:#252525;fill-opacity:1" />
      <path
         d="m 92.782929,404.85544 h -2.904221 v -10.94509 q -1.591636,1.48829 -3.751714,2.20142 v -2.6355 q 1.136883,-0.37207 2.470137,-1.4056 1.333254,-1.04387 1.829349,-2.4288 h 2.356449 z"
         id="path49001"
         style="fill:#252525;fill-opacity:1" />
    </g>
    <g
       aria-label="NOT1"
       id="text5081-82-7-8"
       style="font-weight:bold;font-size:21.1667px;line-height:1.25;font-family:Arial;-inkscape-font-specification:'Arial, Bold';font-variant-ligatures:none;text-align:center;text-anchor:middle;display:inline;fill:#252525;stroke-width:2.64583;fill-opacity:1"
       transform="translate(0,5.2916668)">
      <path
         d="m 127.72648,404.85544 v -15.15156 h 2.97657 l 6.20118,10.11827 v -10.11827 h 2.84221 v 15.15156 h -3.06959 l -6.10816,-9.88055 v 9.88055 z"
         id="path49004"
         style="fill:#252525;fill-opacity:1" />
      <path
         d="m 142.36127,397.37268 q 0,-2.31511 0.69246,-3.88607 0.51677,-1.15756 1.40561,-2.0774 0.89917,-0.91984 1.9637,-1.36426 1.41594,-0.59945 3.26596,-0.59945 3.34864,0 5.35369,2.0774 2.01538,2.07739 2.01538,5.77743 0,3.66903 -1.99471,5.74643 -1.99472,2.06706 -5.33302,2.06706 -3.37964,0 -5.37436,-2.05672 -1.99471,-2.06707 -1.99471,-5.68442 z m 3.15227,-0.10335 q 0,2.57349 1.18856,3.90674 1.18856,1.32292 3.0179,1.32292 1.82935,0 2.99724,-1.31258 1.17823,-1.32292 1.17823,-3.95843 0,-2.60449 -1.14722,-3.88607 -1.13689,-1.28158 -3.02825,-1.28158 -1.89136,0 -3.04891,1.30225 -1.15755,1.29191 -1.15755,3.90675 z"
         id="path49006"
         style="fill:#252525;fill-opacity:1" />
      <path
         d="m 162.85617,404.85544 v -12.5884 h -4.49585 v -2.56316 h 12.04063 v 2.56316 h -4.48553 v 12.5884 z"
         id="path49008"
         style="fill:#252525;fill-opacity:1" />
      <path
         d="m 179.16528,404.85544 h -2.90422 v -10.94509 q -1.59163,1.48829 -3.75171,2.20142 v -2.6355 q 1.13688,-0.37207 2.47014,-1.4056 1.33325,-1.04387 1.82934,-2.4288 h 2.35645 z"
         id="path49010"
         style="fill:#252525;fill-opacity:1" />
    </g>
    <g
       aria-label="NOT2"
       id="text5081-82-1-3"
       style="font-weight:bold;font-size:21.1667px;line-height:1.25;font-family:Arial;-inkscape-font-specification:'Arial, Bold';font-variant-ligatures:none;text-align:center;text-anchor:middle;display:inline;fill:#252525;stroke-width:2.64583;fill-opacity:1"
       transform="translate(0,5.2916668)">
      <path
         d="m 215.49889,404.85544 v -15.15156 h 2.97657 l 6.20118,10.11827 v -10.11827 h 2.84221 v 15.15156 h -3.06958 l -6.10817,-9.88055 v 9.88055 z"
         id="path49013"
         style="fill:#252525;fill-opacity:1" />
      <path
         d="m 230.13368,397.37268 q 0,-2.31511 0.69247,-3.88607 0.51676,-1.15756 1.4056,-2.0774 0.89917,-0.91984 1.96371,-1.36426 1.41593,-0.59945 3.26595,-0.59945 3.34864,0 5.35369,2.0774 2.01538,2.07739 2.01538,5.77743 0,3.66903 -1.99471,5.74643 -1.99471,2.06706 -5.33302,2.06706 -3.37964,0 -5.37435,-2.05672 -1.99472,-2.06707 -1.99472,-5.68442 z m 3.15227,-0.10335 q 0,2.57349 1.18856,3.90674 1.18856,1.32292 3.01791,1.32292 1.82935,0 2.99724,-1.31258 1.17822,-1.32292 1.17822,-3.95843 0,-2.60449 -1.14722,-3.88607 -1.13688,-1.28158 -3.02824,-1.28158 -1.89136,0 -3.04891,1.30225 -1.15756,1.29191 -1.15756,3.90675 z"
         id="path49015"
         style="fill:#252525;fill-opacity:1" />
      <path
         d="m 250.62859,404.85544 v -12.5884 h -4.49586 v -2.56316 h 12.04063 v 2.56316 h -4.48552 v 12.5884 z"
         id="path49017"
         style="fill:#252525;fill-opacity:1" />
      <path
         d="m 269.31482,402.15792 v 2.69752 h -10.18028 q 0.16537,-1.52963 0.99219,-2.89389 0.82683,-1.37459 3.26596,-3.63802 1.96371,-1.82935 2.40813,-2.48048 0.59944,-0.89917 0.59944,-1.77767 0,-0.97152 -0.5271,-1.48828 -0.51676,-0.5271 -1.4366,-0.5271 -0.90951,0 -1.44695,0.54777 -0.53743,0.54777 -0.62012,1.81901 l -2.89388,-0.28939 q 0.25838,-2.39779 1.62264,-3.44165 1.36426,-1.04387 3.41065,-1.04387 2.24276,0 3.52434,1.20923 1.28158,1.20923 1.28158,3.00758 0,1.02319 -0.37207,1.95337 -0.36174,0.91984 -1.15756,1.9327 -0.5271,0.67179 -1.90169,1.9327 -1.3746,1.26091 -1.74667,1.67432 -0.36173,0.41341 -0.58911,0.80615 z"
         id="path49019"
         style="fill:#252525;fill-opacity:1" />
    </g>
    <g
       aria-label="OUT2"
       id="text5081-82-3-1"
       style="font-weight:bold;font-size:21.1667px;line-height:1.25;font-family:Arial;-inkscape-font-specification:'Arial, Bold';font-variant-ligatures:none;text-align:center;text-anchor:middle;display:inline;fill:#252525;stroke-width:2.64583;fill-opacity:1"
       transform="translate(0,5.2916668)">
      <path
         d="m 301.814,397.37268 q 0,-2.31511 0.69247,-3.88607 0.51676,-1.15756 1.4056,-2.0774 0.89917,-0.91984 1.96371,-1.36426 1.41593,-0.59945 3.26595,-0.59945 3.34864,0 5.35369,2.0774 2.01538,2.07739 2.01538,5.77743 0,3.66903 -1.99471,5.74643 -1.99471,2.06706 -5.33302,2.06706 -3.37964,0 -5.37435,-2.05672 -1.99472,-2.06707 -1.99472,-5.68442 z m 3.15227,-0.10335 q 0,2.57349 1.18856,3.90674 1.18856,1.32292 3.01791,1.32292 1.82935,0 2.99724,-1.31258 1.17822,-1.32292 1.17822,-3.95843 0,-2.60449 -1.14722,-3.88607 -1.13688,-1.28158 -3.02824,-1.28158 -1.89136,0 -3.04892,1.30225 -1.15755,1.29191 -1.15755,3.90675 z"
         id="path49022"
         style="fill:#252525;fill-opacity:1" />
      <path
         d="m 318.87759,389.70388 h 3.05925 v 8.20623 q 0,1.95338 0.11369,2.53215 0.19637,0.93018 0.93017,1.49862 0.74415,0.55811 2.02572,0.55811 1.30225,0 1.96371,-0.5271 0.66146,-0.53744 0.79582,-1.31258 0.13436,-0.77515 0.13436,-2.5735 v -8.38193 h 3.05925 v 7.95819 q 0,2.72852 -0.24805,3.85507 -0.24805,1.12654 -0.91984,1.90169 -0.66146,0.77515 -1.77767,1.24024 -1.11622,0.45475 -2.91456,0.45475 -2.17041,0 -3.29696,-0.49609 -1.11621,-0.50643 -1.76734,-1.30225 -0.65112,-0.80616 -0.85783,-1.68466 -0.29972,-1.30224 -0.29972,-3.84473 z"
         id="path49024"
         style="fill:#252525;fill-opacity:1" />
      <path
         d="m 337.59482,404.85544 v -12.5884 h -4.49585 v -2.56316 h 12.04062 v 2.56316 h -4.48552 v 12.5884 z"
         id="path49026"
         style="fill:#252525;fill-opacity:1" />
      <path
         d="m 356.28105,402.15792 v 2.69752 h -10.18027 q 0.16536,-1.52963 0.99219,-2.89389 0.82682,-1.37459 3.26595,-3.63802 1.96371,-1.82935 2.40813,-2.48048 0.59945,-0.89917 0.59945,-1.77767 0,-0.97152 -0.52711,-1.48828 -0.51676,-0.5271 -1.4366,-0.5271 -0.90951,0 -1.44694,0.54777 -0.53744,0.54777 -0.62012,1.81901 l -2.89389,-0.28939 q 0.25838,-2.39779 1.62264,-3.44165 1.36426,-1.04387 3.41065,-1.04387 2.24277,0 3.52434,1.20923 1.28158,1.20923 1.28158,3.00758 0,1.02319 -0.37207,1.95337 -0.36174,0.91984 -1.15755,1.9327 -0.5271,0.67179 -1.9017,1.9327 -1.3746,1.26091 -1.74667,1.67432 -0.36173,0.41341 -0.58911,0.80615 z"
         id="path49028"
         style="fill:#252525;fill-opacity:1" />
    </g>
  </g>
  <g
     inkscape:groupmode="layer"
     id="layer8"
     inkscape:label="Inverse Line"
     style="display:inline" />
  <g
     inkscape:groupmode="layer"
     id="layer2"
     inkscape:label="Widget"
     style="display:none">
    <circle
       style="display:inline;fill:#ff0000;stroke:#ff0000;stroke-width:5.15744;stroke-opacity:1"
       id="path1065-7-2-8-1-2-9-9-2"
       cx="329.40671"
       cy="810.94849"
       r="27.848814" />
    <circle
       style="display:inline;fill:#ff0000;stroke:#ff0000;stroke-width:5.15744;stroke-opacity:1"
       id="path1065-7-2-8-1-2-9-9"
       cx="329.40671"
       cy="892.96918"
       r="27.848814" />
    <circle
       style="display:inline;fill:#ff0000;stroke:#ff0000;stroke-width:5.15744;stroke-opacity:1"
       id="path1065-7-2-8-1-11-6-8-9"
       cx="242.09421"
       cy="892.96918"
       r="27.848814" />
    <circle
       style="display:inline;fill:#ff0000;stroke:#ff0000;stroke-width:5.15744;stroke-opacity:1"
       id="path1065-7-2-8-1-110-3-0-0"
       cx="154.78171"
       cy="892.96918"
       r="27.848814" />
    <circle
       style="display:inline;fill:#ff0000;stroke:#ff0000;stroke-width:5.15744;stroke-opacity:1"
       id="path1065-7-2-8-1-110-3-0-0-6"
       cx="67.4692"
       cy="892.96918"
       r="27.848814" />
    <circle
       style="display:inline;fill:#ff0000;stroke:#ff0000;stroke-width:5.15744;stroke-opacity:1"
       id="path1065-7-2-8-1-13-1-9-1"
       cx="154.78171"
       cy="810.94849"
       r="27.848814" />
    <circle
       style="display:inline;fill:#ff0000;stroke:#ff0000;stroke-width:5.15744;stroke-opacity:1"
       id="path1065-7-2-8-1-13-9-9-0-8"
       cx="242.09421"
       cy="810.94849"
       r="27.848814" />
    <circle
       style="display:inline;fill:#ff0000;stroke:#ff0000;stroke-width:5.15744;stroke-opacity:1"
       id="path1065-7-2-8-1-13-6-9-7-5"
       cx="67.4692"
       cy="810.94849"
       r="27.848814" />
    <circle
       style="display:inline;fill:#ff0000;stroke:#ff0000;stroke-width:5.15744;stroke-opacity:1"
       id="path1065-7-2-8-1-13-64-5-9-2"
       cx="154.78172"
       cy="211.66768"
       r="27.848814" />
    <ellipse
       style="display:inline;fill:#ff0000;stroke:#ff0000;stroke-width:5.15744;stroke-opacity:1"
       id="path1065-7-2-8-1-80-86-5-5"
       cx="67.4692"
       cy="211.66768"
       rx="27.848364"
       ry="27.848814" />
    <circle
       style="display:inline;fill:#ff0000;stroke:#ff0000;stroke-width:5.15744;stroke-opacity:1"
       id="path1065-7-2-8-1-0-1-2-0"
       cx="67.4692"
       cy="130.96948"
       r="26.525448" />
    <ellipse
       style="display:inline;fill:#ff0000;stroke:#ff0000;stroke-width:5.15744;stroke-opacity:1"
       id="path1065-7-2-8-1-80-8-9-2-7"
       cx="329.40671"
       cy="211.66768"
       rx="27.848364"
       ry="27.848814" />
    <circle
       style="display:inline;fill:#ff0000;stroke:#ff0000;stroke-width:5.15744;stroke-opacity:1"
       id="path1065-7-2-8-1-0-6-7-3-1"
       cx="329.40671"
       cy="130.96948"
       r="26.525448" />
    <ellipse
       style="display:inline;fill:#ff0000;stroke:#ff0000;stroke-width:5.15744;stroke-opacity:1"
       id="path1065-7-2-8-1-80-5-1-2-5"
       cx="242.09422"
       cy="211.66768"
       rx="27.848364"
       ry="27.848814" />
    <ellipse
       style="display:inline;fill:#ff0000;stroke:#ff0000;stroke-width:5.15744;stroke-opacity:1"
       id="path1065-7-2-8-1-80-5-1-2-5-6"
       cx="242.09422"
       cy="332.05252"
       rx="27.848364"
       ry="27.848814" />
    <ellipse
       style="display:inline;fill:#ff0000;stroke:#ff0000;stroke-width:5.15744;stroke-opacity:1"
       id="path1065-7-2-8-1-80-5-1-2-5-3"
       cx="154.78172"
       cy="332.05252"
       rx="27.848364"
       ry="27.848814" />
    <circle
       style="display:inline;fill:#ff0000;stroke:#ff0000;stroke-width:5.15744;stroke-opacity:1"
       id="path1065-7-2-8-1-0-2-1-1-4"
       cx="242.09422"
       cy="130.96948"
       r="26.525448" />
    <circle
       style="display:inline;fill:#ff0000;stroke:#ff0000;stroke-width:5.15744;stroke-opacity:1"
       id="path1065-7-2-8-1-0-2-1-1-4-7"
       cx="154.78172"
       cy="130.96948"
       r="26.525448" />
    <rect
       style="display:inline;opacity:0.995935;fill:#ff0000;stroke:none;stroke-width:2.64583"
       id="rect6025-3-3-3"
       width="63.500004"
       height="63.5"
       x="297.65671"
       y="301.625"
       ry="14.210836"
       rx="14.210836" />
    <rect
       style="display:inline;opacity:0.995935;fill:#ff0000;stroke:none;stroke-width:2.64583"
       id="rect6025-3-3-3-5"
       width="63.500004"
       height="63.5"
       x="35.7192"
       y="301.625"
       ry="14.210836"
       rx="14.210836" />
    <circle
       style="display:inline;fill:#ff0000;stroke:#ff0000;stroke-width:5.15744;stroke-opacity:1"
       id="path1065-7-2-8-1-2-9-9-2-0"
       cx="329.40671"
       cy="728.92755"
       r="27.848814" />
    <circle
       style="display:inline;fill:#ff0000;stroke:#ff0000;stroke-width:5.15744;stroke-opacity:1"
       id="path1065-7-2-8-1-13-1-9-1-9"
       cx="154.78172"
       cy="728.92755"
       r="27.848814" />
    <circle
       style="display:inline;fill:#ff0000;stroke:#ff0000;stroke-width:5.15744;stroke-opacity:1"
       id="path1065-7-2-8-1-13-9-9-0-8-2"
       cx="242.09422"
       cy="728.92755"
       r="27.848814" />
    <circle
       style="display:inline;fill:#ff0000;stroke:#ff0000;stroke-width:5.15744;stroke-opacity:1"
       id="path1065-7-2-8-1-13-6-9-7-5-6"
       cx="67.4692"
       cy="728.92755"
       r="27.848814" />
    <circle
       style="display:inline;fill:#ff0000;stroke:#ff0000;stroke-width:5.15744;stroke-opacity:1"
       id="path1065-7-2-8-1-2-9-9-2-4"
       cx="329.40671"
       cy="533.13611"
       r="27.848814" />
    <circle
       style="display:inline;fill:#ff0000;stroke:#ff0000;stroke-width:5.15744;stroke-opacity:1"
       id="path1065-7-2-8-1-2-9-9-4"
       cx="329.40671"
       cy="615.1568"
       r="27.848814" />
    <circle
       style="display:inline;fill:#ff0000;stroke:#ff0000;stroke-width:5.15744;stroke-opacity:1"
       id="path1065-7-2-8-1-11-6-8-9-7"
       cx="242.09421"
       cy="615.1568"
       r="27.848814" />
    <circle
       style="display:inline;fill:#ff0000;stroke:#ff0000;stroke-width:5.15744;stroke-opacity:1"
       id="path1065-7-2-8-1-110-3-0-0-4"
       cx="154.78171"
       cy="615.1568"
       r="27.848814" />
    <circle
       style="display:inline;fill:#ff0000;stroke:#ff0000;stroke-width:5.15744;stroke-opacity:1"
       id="path1065-7-2-8-1-110-3-0-0-6-2"
       cx="67.4692"
       cy="615.1568"
       r="27.848814" />
    <circle
       style="display:inline;fill:#ff0000;stroke:#ff0000;stroke-width:5.15744;stroke-opacity:1"
       id="path1065-7-2-8-1-13-1-9-1-7"
       cx="154.78171"
       cy="533.13611"
       r="27.848814" />
    <circle
       style="display:inline;fill:#ff0000;stroke:#ff0000;stroke-width:5.15744;stroke-opacity:1"
       id="path1065-7-2-8-1-13-9-9-0-8-29"
       cx="242.09421"
       cy="533.13611"
       r="27.848814" />
    <circle
       style="display:inline;fill:#ff0000;stroke:#ff0000;stroke-width:5.15744;stroke-opacity:1"
       id="path1065-7-2-8-1-13-6-9-7-5-7"
       cx="67.4692"
       cy="533.13611"
       r="27.848814" />
    <circle
       style="display:inline;fill:#ff0000;stroke:#ff0000;stroke-width:5.15744;stroke-opacity:1"
       id="path1065-7-2-8-1-2-9-9-2-0-2"
       cx="329.40671"
       cy="451.11502"
       r="27.848814" />
    <circle
       style="display:inline;fill:#ff0000;stroke:#ff0000;stroke-width:5.15744;stroke-opacity:1"
       id="path1065-7-2-8-1-13-1-9-1-9-5"
       cx="154.78172"
       cy="451.11502"
       r="27.848814" />
    <circle
       style="display:inline;fill:#ff0000;stroke:#ff0000;stroke-width:5.15744;stroke-opacity:1"
       id="path1065-7-2-8-1-13-9-9-0-8-2-8"
       cx="242.09422"
       cy="451.11502"
       r="27.848814" />
    <circle
       style="display:inline;fill:#ff0000;stroke:#ff0000;stroke-width:5.15744;stroke-opacity:1"
       id="path1065-7-2-8-1-13-6-9-7-5-6-3"
       cx="67.4692"
       cy="451.11502"
       r="27.848814" />
  </g>
</svg>
