<?xml version="1.0" encoding="UTF-8" standalone="no"?>
<!-- Created with Inkscape (http://www.inkscape.org/) -->

<svg
   width="135"
   height="380"
   viewBox="0 0 357.1875 1005.4167"
   version="1.1"
   id="svg5"
   inkscape:version="1.1.1 (3bf5ae0d25, 2021-09-20)"
   sodipodi:docname="CrossFade3D_Coal.svg"
   xmlns:inkscape="http://www.inkscape.org/namespaces/inkscape"
   xmlns:sodipodi="http://sodipodi.sourceforge.net/DTD/sodipodi-0.dtd"
   xmlns="http://www.w3.org/2000/svg"
   xmlns:svg="http://www.w3.org/2000/svg">
  <sodipodi:namedview
     id="namedview7"
     pagecolor="#ffffff"
     bordercolor="#666666"
     borderopacity="1.0"
     inkscape:pageshadow="2"
     inkscape:pageopacity="0.0"
     inkscape:pagecheckerboard="0"
     inkscape:document-units="px"
     showgrid="true"
     scale-x="10"
     inkscape:showpageshadow="false"
     viewbox-x="0"
     showguides="false"
     objecttolerance="1"
     gridtolerance="1"
     guidetolerance="1"
     inkscape:zoom="2.2342105"
     inkscape:cx="67.585395"
     inkscape:cy="190"
     inkscape:window-width="1920"
     inkscape:window-height="1057"
     inkscape:window-x="1592"
     inkscape:window-y="-8"
     inkscape:window-maximized="1"
     inkscape:current-layer="layer5"
     units="px">
    <inkscape:grid
       type="xygrid"
       id="grid832"
       units="px"
       spacingx="2.6458334"
       spacingy="2.6458334"
       originx="0"
       empspacing="5"
       dotted="false"
       visible="false"
       enabled="true" />
    <inkscape:grid
       type="xygrid"
       id="grid15270"
       visible="false" />
  </sodipodi:namedview>
  <defs
     id="defs2" />
  <g
     inkscape:groupmode="layer"
     id="layer3"
     inkscape:label="Faceplate"
     style="display:inline">
    <rect
       style="display:inline;vector-effect:non-scaling-stroke;fill:#252525;fill-opacity:1;stroke-width:0.186761;-inkscape-stroke:hairline"
       id="rect910-6-1-4"
       width="357.1875"
       height="1005.4167"
       x="-1.0231816e-13"
       y="-1.7763568e-15" />
  </g>
  <g
     inkscape:groupmode="layer"
     id="layer4"
     inkscape:label="Brand"
     style="display:inline">
    <g
       id="g42796-0-7-2"
       transform="matrix(0.79338965,0,0,0.79458332,118.51978,-19.617974)"
       style="display:inline;fill:#ff0000;stroke-width:1.27904">
      <g
         aria-label="enom"
         id="text4270-27-8-9-0"
         style="font-size:49.3889px;line-height:1.25;font-family:'NECK ROMANCER';-inkscape-font-specification:'NECK ROMANCER, Normal';font-variant-ligatures:none;text-align:center;text-anchor:middle;fill:#ff0000;stroke-width:3.38412">
        <path
           d="m 46.609141,1249.244 q 0,1.1576 0,3.4245 3.183269,0 9.453344,0 -1.639866,0.5787 -2.990343,1.2058 -1.350478,0.627 -2.363337,1.688 -1.350477,0 -4.051433,0 0,1.4952 0.434082,2.5563 0.385851,1.1093 1.832792,1.1093 2.266873,0 6.80062,0 0.482313,-0.1447 0.868164,-0.627 0.337619,-0.5305 0.627007,-1.7363 0,2.0257 0,6.1254 -3.520888,0 -10.562665,0 -1.543403,0 -2.652724,-2.2187 -1.109321,-2.1704 -1.109321,-6.3183 0,-1.9775 0,-5.836 -0.385851,-1.3504 -1.881023,-2.1221 -1.495171,-0.7235 -3.569119,-1.2058 6.607694,0 19.774852,0 0,2.9421 0,8.7781 -1.205783,-2.701 -2.218642,-3.6656 -1.012858,-0.9646 -2.700955,-1.1093 -0.916396,-0.097 -2.170411,-0.097 -1.205783,0.048 -2.845649,0.048 -0.241157,0 -0.675239,0 z"
           id="path42762-2-5-2"
           style="fill:#ff0000;stroke-width:3.38412" />
        <path
           d="m 81.576869,1245.2891 q 0,5.8842 0,17.7009 0,3.0868 -0.144694,6.0771 -0.09646,3.0386 -0.337619,5.9325 -0.385851,-3.7138 -0.964627,-6.9936 -0.530545,-3.3279 -2.025717,-5.016 0,-2.9904 0,-8.9228 -0.241157,-1.3505 -0.72347,-2.2187 -0.482314,-0.8681 -1.06109,-1.3987 -1.109321,-1.0128 -2.411567,-1.1093 -1.350478,-0.097 -2.266874,-0.097 -0.482313,0 -1.44694,0 0,4.582 0,13.746 0,3.0868 -0.09646,6.0771 -0.144694,3.0386 -0.385851,5.9325 -0.38585,-3.7138 -0.916395,-6.9936 -0.578776,-3.3279 -2.025717,-5.016 0,-4.8232 0,-14.373 -0.385851,-1.3504 -1.881022,-2.1221 -1.495172,-0.7235 -3.56912,-1.2058 6.752389,0 20.257166,0 z"
           id="path42764-5-7-3"
           style="fill:#ff0000;stroke-width:3.38412" />
        <path
           d="m 104.19737,1249.0511 q 0,3.3762 0,10.1768 0,1.5434 -1.92925,2.6528 -1.92926,1.1093 -6.077152,1.1093 -4.196128,0 -6.125382,-1.1093 -1.929254,-1.1094 -1.929254,-2.6528 0,-3.3762 0,-10.1768 0,-1.5434 1.929254,-2.6527 1.929254,-1.1093 6.125382,-1.1093 4.147892,0 6.077152,1.1093 1.92925,1.1093 1.92925,2.6527 z m -3.76204,7.91 q 0,-1.8811 0,-5.6431 0,-1.6881 -1.254019,-1.9775 -1.205783,-0.2894 -2.990343,-0.2894 -1.832792,0 -3.038575,0.2894 -1.254015,0.2894 -1.254015,1.9775 0,1.881 0,5.6431 0,1.6881 1.254015,1.9774 1.205783,0.2894 3.038575,0.2894 1.78456,0 2.990343,-0.2894 1.254019,-0.2893 1.254019,-1.9774 z"
           id="path42766-8-9-0"
           style="fill:#ff0000;stroke-width:3.38412" />
        <path
           d="m 142.34837,1245.2891 q -2.02572,0.4823 -3.52089,1.2058 -1.5434,0.7717 -1.88102,2.1221 0,4.7749 0,14.373 -1.49517,1.6881 -2.02572,5.016 -0.57878,3.2798 -0.96463,6.9936 -0.24115,-2.8939 -0.33762,-5.9325 -0.14469,-2.9903 -0.14469,-6.0771 0,-4.582 0,-13.746 -0.48231,0 -1.39871,0 -0.53054,0 -1.15755,0 -0.62701,0 -1.30225,0.1447 -1.25401,0.2412 -2.41157,1.2058 -1.15755,0.9646 -1.63986,3.4727 0,2.9903 0,8.9228 -0.1447,0.627 -0.28939,1.1093 -0.0965,0.4823 -0.19292,0.8199 -0.53055,1.9775 -0.38586,1.3505 0.19293,-0.627 -0.28938,1.1576 -0.0965,0.3376 -0.24116,0.8681 -0.14469,0.5306 -0.33762,1.3023 -0.14469,-0.6753 -0.28939,-1.2058 -0.14469,-0.4823 -0.24115,-0.8199 -0.53055,-2.0258 -0.33762,-1.3023 0.19292,0.7717 -0.43409,-1.6881 -0.0482,-0.2894 -0.19292,-0.7235 -0.0965,-0.3858 -0.19293,-0.8681 0,-2.9904 0,-8.9228 -0.28939,-1.3505 -0.7717,-2.2187 -0.48231,-0.8681 -1.06109,-1.3987 -1.10932,-1.0128 -2.41157,-1.1093 -1.30224,-0.097 -2.26687,-0.097 -0.48231,0 -1.39871,0 0,4.582 0,13.746 0,3.0868 -0.14469,6.0771 -0.0965,3.0386 -0.33762,5.9325 -0.38585,-3.7138 -0.96463,-6.9936 -0.53054,-3.3279 -2.02572,-5.016 0,-4.8232 0,-14.373 -0.38585,-1.3504 -1.88102,-2.1221 -1.49517,-0.7235 -3.56912,-1.2058 3.95497,0 11.76845,0 1.15755,0.3858 3.47266,1.1575 0.7717,0.2894 1.59163,0.4341 0.81994,0.1447 1.6881,0.1447 0.86816,0 1.73633,-0.1447 0.81993,-0.1447 1.59163,-0.4341 1.15756,-0.3858 3.42443,-1.1575 3.95497,0 11.76845,0 z"
           id="path42768-1-5-9"
           style="fill:#ff0000;stroke-width:3.38412" />
      </g>
      <g
         aria-label="V"
         transform="matrix(1.2363173,0,0,0.80885384,-497.88086,123.48586)"
         id="text4270-3-5-2-4-0-7"
         style="font-size:78.5061px;line-height:1.25;font-family:Nosferotica;-inkscape-font-specification:'Nosferotica, Normal';font-variant-ligatures:none;text-align:center;text-anchor:middle;fill:#ff0000;stroke-width:4.18383">
        <path
           d="m 431.64994,1360.6864 8.57428,-0.1022 c 0,0 -4.4079,1.0878 -5.59925,3.7285 -1.88083,4.1689 -3.64217,14.6628 -3.64217,14.6628 l -2.23339,11.5191 -1.83311,11.8311 -1.71824,21.3112 -1.69514,-21.3112 -1.92196,-11.5208 -2.5009,-11.8294 c 0,0 -1.52027,-10.287 -3.38278,-14.4832 -1.14458,-2.5787 -5.63367,-3.8059 -5.63367,-3.8059 h 8.4657 l 6.66875,29.1569 z"
           id="path30410-2-3-0"
           sodipodi:nodetypes="ccscccccccscccc"
           style="fill:#ff0000;stroke-width:4.18383" />
      </g>
    </g>
  </g>
  <g
     inkscape:groupmode="layer"
     id="layer5"
     inkscape:label="Solid"
     style="display:inline">
    <rect
       style="display:inline;vector-effect:non-scaling-stroke;fill:#ede7dc;fill-opacity:1;stroke:none;stroke-width:0.0257849;stroke-opacity:1;-inkscape-stroke:hairline"
       id="rect76101-3-4-0-9"
       width="109.42473"
       height="79.632233"
       x="-535.40393"
       y="245.93388"
       ry="12.391612"
       rx="11.207398"
       transform="rotate(-90)" />
    <g
       aria-label="X"
       id="text11170"
       style="font-weight:bold;font-size:21.1667px;line-height:1.25;font-family:Arial;-inkscape-font-specification:'Arial, Bold';font-variant-ligatures:none;text-align:center;text-anchor:middle;display:inline;fill:#ede7dc;fill-opacity:1;stroke:none;stroke-width:2.64583;stroke-opacity:1">
      <path
         d="m 129.21682,922.5202 5.17799,-7.9065 -4.69223,-7.24505 h 3.57602 l 3.03857,4.86793 2.97657,-4.86793 h 3.54501 l -4.7129,7.35873 5.17799,7.79282 h -3.6897 l -3.35898,-5.24 -3.36931,5.24 z"
         id="path43110"
         style="fill:#ede7dc;fill-opacity:1;stroke:none;stroke-opacity:1" />
    </g>
    <g
       aria-label="Y"
       id="text11170-1"
       style="font-weight:bold;font-size:21.1667px;line-height:1.25;font-family:Arial;-inkscape-font-specification:'Arial, Bold';font-variant-ligatures:none;text-align:center;text-anchor:middle;display:inline;fill:#ede7dc;fill-opacity:1;stroke:none;stroke-width:2.64583;stroke-opacity:1">
      <path
         d="m 36.92583,821.16998 v -6.37688 l -5.550058,-8.77467 h 3.58635 l 3.56568,5.99447 3.493332,-5.99447 h 3.524338 l -5.570728,8.79534 v 6.35621 z"
         id="path43107"
         style="fill:#ede7dc;fill-opacity:1;stroke:none;stroke-opacity:1" />
    </g>
    <g
       aria-label="INPUTS"
       id="text11170-1-4"
       style="font-weight:bold;font-size:26.4583px;line-height:1.25;font-family:Arial;-inkscape-font-specification:'Arial, Bold';font-variant-ligatures:none;text-align:center;text-anchor:middle;display:inline;fill:#ede7dc;fill-opacity:1;stroke:none;stroke-width:2.64583;stroke-opacity:1">
      <path
         d="m 131.61563,593.77277 v -18.93939 h 3.82405 v 18.93939 z"
         id="path43094"
         style="fill:#ede7dc;fill-opacity:1;stroke:none;stroke-opacity:1" />
      <path
         d="m 139.12162,593.77277 v -18.93939 h 3.7207 l 7.75146,12.64779 v -12.64779 h 3.55275 v 18.93939 h -3.83697 l -7.63519,-12.35066 v 12.35066 z"
         id="path43096"
         style="fill:#ede7dc;fill-opacity:1;stroke:none;stroke-opacity:1" />
      <path
         d="m 158.1902,593.77277 v -18.93939 h 6.13657 q 3.48815,0 4.54752,0.28422 1.62781,0.42633 2.72593,1.86035 1.09812,1.4211 1.09812,3.68194 0,1.74408 -0.63303,2.93263 -0.63304,1.18856 -1.61489,1.87327 -0.96893,0.67179 -1.97662,0.89142 -1.36943,0.2713 -3.96616,0.2713 h -2.49339 v 7.14426 z m 3.82405,-15.73546 v 5.37434 h 2.09289 q 2.26085,0 3.02307,-0.29713 0.76223,-0.29714 1.18856,-0.93018 0.43925,-0.63303 0.43925,-1.47278 0,-1.03352 -0.6072,-1.70532 -0.6072,-0.67179 -1.53737,-0.83974 -0.68471,-0.12919 -2.75177,-0.12919 z"
         id="path43098"
         style="fill:#ede7dc;fill-opacity:1;stroke:none;stroke-opacity:1" />
      <path
         d="m 175.81184,574.83338 h 3.82405 v 10.25776 q 0,2.4417 0.14211,3.16517 0.24546,1.16272 1.16272,1.87327 0.93017,0.69763 2.53214,0.69763 1.62781,0 2.45463,-0.65887 0.82682,-0.67179 0.99477,-1.64073 0.16795,-0.96893 0.16795,-3.21685 v -10.47738 h 3.82405 v 9.9477 q 0,3.41064 -0.31006,4.81882 -0.31006,1.40818 -1.1498,2.37711 -0.82682,0.96893 -2.22208,1.55029 -1.39526,0.56844 -3.64319,0.56844 -2.71301,0 -4.12119,-0.62011 -1.39526,-0.63304 -2.20916,-1.62781 -0.8139,-1.00769 -1.07229,-2.10581 -0.37465,-1.62781 -0.37465,-4.8059 z"
         id="path43100"
         style="fill:#ede7dc;fill-opacity:1;stroke:none;stroke-opacity:1" />
      <path
         d="m 199.20832,593.77277 v -15.73546 h -5.61981 v -3.20393 h 15.05074 v 3.20393 h -5.60688 v 15.73546 z"
         id="path43102"
         style="fill:#ede7dc;fill-opacity:1;stroke:none;stroke-opacity:1" />
      <path
         d="m 210.13787,587.61036 3.7207,-0.36174 q 0.3359,1.87327 1.3565,2.75177 1.03353,0.8785 2.77761,0.8785 1.84743,0 2.7776,-0.77515 0.9431,-0.78806 0.9431,-1.83451 0,-0.67179 -0.4005,-1.13688 -0.38757,-0.478 -1.36942,-0.82682 -0.67179,-0.23254 -3.06182,-0.82682 -3.07475,-0.76223 -4.31498,-1.87327 -1.74408,-1.56321 -1.74408,-3.81113 0,-1.44694 0.8139,-2.70009 0.82683,-1.26607 2.3642,-1.92495 1.55029,-0.65887 3.73362,-0.65887 3.56567,0 5.36142,1.56321 1.80867,1.56321 1.89911,4.17287 l -3.82406,0.16795 q -0.24546,-1.45986 -1.05936,-2.0929 -0.80098,-0.64595 -2.41587,-0.64595 -1.66656,0 -2.60966,0.68471 -0.60719,0.43925 -0.60719,1.17564 0,0.67179 0.56844,1.1498 0.72346,0.60719 3.51399,1.26607 2.79052,0.65887 4.12119,1.36942 1.34358,0.69763 2.09289,1.92495 0.76223,1.21439 0.76223,3.01014 0,1.62781 -0.90434,3.04891 -0.90434,1.4211 -2.55798,2.11873 -1.65364,0.68471 -4.12119,0.68471 -3.59151,0 -5.51645,-1.65364 -1.92495,-1.66656 -2.2996,-4.84466 z"
         id="path43104"
         style="fill:#ede7dc;fill-opacity:1;stroke:none;stroke-opacity:1" />
    </g>
    <g
       aria-label="Z"
       id="text11170-7"
       style="font-weight:bold;font-size:21.1667px;line-height:1.25;font-family:Arial;-inkscape-font-specification:'Arial, Bold';font-variant-ligatures:none;text-align:center;text-anchor:middle;display:inline;fill:#ede7dc;fill-opacity:1;stroke:none;stroke-width:2.64583;stroke-opacity:1">
      <path
         d="m 272.07371,873.25256 v -2.75952 l 7.95818,-9.82888 h -7.05901 v -2.56315 h 11.08978 v 2.37712 l -8.29925,10.22161 h 8.61965 v 2.55282 z"
         id="path43113"
         style="fill:#ede7dc;fill-opacity:1;stroke:none;stroke-opacity:1" />
    </g>
    <g
       aria-label="Y"
       id="text11170-1-8"
       style="font-weight:bold;font-size:21.1667px;line-height:1.25;font-family:Arial;-inkscape-font-specification:'Arial, Bold';font-variant-ligatures:none;text-align:center;text-anchor:middle;display:inline;fill:#ede7dc;fill-opacity:1;stroke:none;stroke-width:2.64583;stroke-opacity:1"
       transform="translate(0,2.36847)">
      <path
         d="m 177.05896,126.32976 v -6.37688 l -5.55006,-8.77468 h 3.58636 l 3.56567,5.99448 3.49334,-5.99448 h 3.52434 l -5.57073,8.79535 v 6.35621 z"
         id="path43187"
         style="fill:#ede7dc;fill-opacity:1;stroke:none;stroke-opacity:1" />
    </g>
    <g
       aria-label="X"
       id="text11170-6"
       style="font-weight:bold;font-size:21.1667px;line-height:1.25;font-family:Arial;-inkscape-font-specification:'Arial, Bold';font-variant-ligatures:none;text-align:center;text-anchor:middle;display:inline;fill:#ede7dc;fill-opacity:1;stroke:none;stroke-width:2.64583;stroke-opacity:1">
      <path
         d="m 64.393999,128.69823 5.177986,-7.90651 -4.692227,-7.24505 h 3.576015 l 3.038579,4.86793 2.976567,-4.86793 h 3.545009 l -4.712898,7.35874 5.177987,7.79282 h -3.689704 l -3.358973,-5.24 -3.369309,5.24 z"
         id="path43184"
         style="fill:#ede7dc;fill-opacity:1;stroke:none;stroke-opacity:1" />
    </g>
    <g
       aria-label="Z"
       id="text11170-7-4"
       style="font-weight:bold;font-size:21.1667px;line-height:1.25;font-family:Arial;-inkscape-font-specification:'Arial, Bold';font-variant-ligatures:none;text-align:center;text-anchor:middle;display:inline;fill:#ede7dc;fill-opacity:1;stroke:none;stroke-width:2.64583;stroke-opacity:1"
       transform="translate(0,1.18425)">
      <path
         d="m 279.59532,127.51398 v -2.75953 l 7.95818,-9.82887 h -7.05901 v -2.56316 h 11.08978 v 2.37712 l -8.29925,10.22162 h 8.61964 v 2.55282 z"
         id="path43190"
         style="fill:#ede7dc;fill-opacity:1;stroke:none;stroke-opacity:1" />
    </g>
    <g
       aria-label="L"
       id="text47531"
       style="font-weight:bold;font-size:17.6389px;line-height:1.25;font-family:Arial;-inkscape-font-specification:'Arial, Bold';font-variant-ligatures:none;text-align:center;text-anchor:middle;display:inline;fill:#ede7dc;fill-opacity:1;stroke:none;stroke-width:2.64583;stroke-opacity:1">
      <path
         d="m 34.395837,220.55658 v -12.52293 h 2.549373 v 10.39558 h 6.33898 v 2.12735 z"
         id="path57016"
         style="fill:#ede7dc;fill-opacity:1;stroke:none;stroke-opacity:1" />
    </g>
    <g
       aria-label="R"
       id="text47531-6"
       style="font-weight:bold;font-size:17.6389px;line-height:1.25;font-family:Arial;-inkscape-font-specification:'Arial, Bold';font-variant-ligatures:none;text-align:center;text-anchor:middle;display:inline;fill:#ede7dc;fill-opacity:1;stroke:none;stroke-width:2.64583;stroke-opacity:1">
      <path
         d="m 97.127591,220.60826 v -12.62628 h 5.365739 q 2.024,0 2.93695,0.34451 0.92156,0.33589 1.47278,1.20578 0.55121,0.86989 0.55121,1.98955 0,1.4211 -0.83543,2.35127 -0.83544,0.92157 -2.4977,1.16273 0.82682,0.48231 1.36081,1.05936 0.54261,0.57706 1.45556,2.04984 l 1.54168,2.46324 h -3.04891 l -1.84313,-2.74746 q -0.98185,-1.47278 -1.34359,-1.85174 -0.36173,-0.38758 -0.76653,-0.52538 -0.4048,-0.14642 -1.2833,-0.14642 h -0.516767 v 5.271 z m 2.549372,-7.28638 h 1.886187 q 1.83452,0 2.29099,-0.15503 0.45648,-0.15503 0.71486,-0.53399 0.25838,-0.37896 0.25838,-0.9474 0,-0.63735 -0.34451,-1.02492 -0.33589,-0.39619 -0.95601,-0.49954 -0.31006,-0.0431 -1.86035,-0.0431 h -1.989547 z"
         id="path57019"
         style="fill:#ede7dc;fill-opacity:1;stroke:none;stroke-opacity:1" />
    </g>
    <g
       aria-label="B"
       id="text47531-61"
       style="font-weight:bold;font-size:17.6389px;line-height:1.25;font-family:Arial;-inkscape-font-specification:'Arial, Bold';font-variant-ligatures:none;text-align:center;text-anchor:middle;display:inline;fill:#ede7dc;fill-opacity:1;stroke:none;stroke-width:2.64583;stroke-opacity:1">
      <path
         d="m 141.55207,207.98198 h 5.04707 q 1.49862,0 2.2307,0.12919 0.7407,0.12058 1.31775,0.51676 0.58567,0.39619 0.97324,1.05937 0.38758,0.65457 0.38758,1.47278 0,0.88711 -0.48232,1.62781 -0.4737,0.7407 -1.29191,1.11104 1.15411,0.3359 1.77423,1.1455 0.62012,0.8096 0.62012,1.90341 0,0.86128 -0.4048,1.67949 -0.39619,0.8096 -1.09382,1.30052 -0.68902,0.48232 -1.70533,0.59428 -0.63734,0.0689 -3.07475,0.0861 h -4.29776 z m 2.54938,2.10151 v 2.91972 h 1.67087 q 1.49,0 1.85174,-0.0431 0.65457,-0.0775 1.02492,-0.44786 0.37896,-0.37896 0.37896,-0.99046 0,-0.58567 -0.32729,-0.94741 -0.31867,-0.37034 -0.95601,-0.44786 -0.37896,-0.0431 -2.17903,-0.0431 z m 0,5.02123 v 3.37619 h 2.35989 q 1.37804,0 1.74839,-0.0775 0.56844,-0.10335 0.92156,-0.49954 0.36174,-0.4048 0.36174,-1.07659 0,-0.56844 -0.27561,-0.96463 -0.27561,-0.39619 -0.80099,-0.57705 -0.51676,-0.18087 -2.25654,-0.18087 z"
         id="path57022"
         style="fill:#ede7dc;fill-opacity:1;stroke:none;stroke-opacity:1" />
    </g>
    <g
       aria-label="T"
       id="text47531-4"
       style="font-weight:bold;font-size:17.6389px;line-height:1.25;font-family:Arial;-inkscape-font-specification:'Arial, Bold';font-variant-ligatures:none;text-align:center;text-anchor:middle;display:inline;fill:#ede7dc;fill-opacity:1;stroke:none;stroke-width:2.64583;stroke-opacity:1">
      <path
         d="m 209.34811,220.60826 v -10.49032 h -3.74654 v -2.13596 h 10.03384 v 2.13596 h -3.73793 v 10.49032 z"
         id="path57025"
         style="fill:#ede7dc;fill-opacity:1;stroke:none;stroke-opacity:1" />
    </g>
    <g
       aria-label="F"
       id="text47531-3"
       style="font-weight:bold;font-size:17.6389px;line-height:1.25;font-family:Arial;-inkscape-font-specification:'Arial, Bold';font-variant-ligatures:none;text-align:center;text-anchor:middle;display:inline;fill:#ede7dc;fill-opacity:1;stroke:none;stroke-width:2.64583;stroke-opacity:1">
      <path
         d="m 248.70833,220.60826 v -12.62628 h 8.65581 v 2.13596 h -6.10644 v 2.98862 h 5.271 v 2.13596 h -5.271 v 5.36574 z"
         id="path57028"
         style="fill:#ede7dc;fill-opacity:1;stroke:none;stroke-opacity:1" />
    </g>
    <g
       aria-label="B"
       id="text47531-5"
       style="font-weight:bold;font-size:17.6389px;line-height:1.25;font-family:Arial;-inkscape-font-specification:'Arial, Bold';font-variant-ligatures:none;text-align:center;text-anchor:middle;display:inline;fill:#ede7dc;fill-opacity:1;stroke:none;stroke-width:2.64583;stroke-opacity:1">
      <path
         d="m 312.21524,207.98198 h 5.04707 q 1.49861,0 2.2307,0.12919 0.74069,0.12058 1.31775,0.51676 0.58566,0.39619 0.97324,1.05937 0.38757,0.65457 0.38757,1.47278 0,0.88711 -0.48231,1.62781 -0.4737,0.7407 -1.29192,1.11104 1.15411,0.3359 1.77423,1.1455 0.62012,0.8096 0.62012,1.90341 0,0.86128 -0.4048,1.67949 -0.39619,0.8096 -1.09382,1.30052 -0.68902,0.48232 -1.70532,0.59428 -0.63735,0.0689 -3.07475,0.0861 h -4.29776 z m 2.54937,2.10151 v 2.91972 h 1.67087 q 1.49001,0 1.85174,-0.0431 0.65457,-0.0775 1.02492,-0.44786 0.37896,-0.37896 0.37896,-0.99046 0,-0.58567 -0.32728,-0.94741 -0.31868,-0.37034 -0.95602,-0.44786 -0.37896,-0.0431 -2.17902,-0.0431 z m 0,5.02123 v 3.37619 h 2.35989 q 1.37804,0 1.74839,-0.0775 0.56844,-0.10335 0.92156,-0.49954 0.36174,-0.4048 0.36174,-1.07659 0,-0.56844 -0.27561,-0.96463 -0.27561,-0.39619 -0.80099,-0.57705 -0.51676,-0.18087 -2.25653,-0.18087 z"
         id="path57031"
         style="fill:#ede7dc;fill-opacity:1;stroke:none;stroke-opacity:1" />
    </g>
    <g
       aria-label="FADERS"
       id="text73391"
       style="font-weight:bold;font-size:26.4583px;line-height:1.25;font-family:Arial;-inkscape-font-specification:'Arial, Bold';font-variant-ligatures:none;text-align:center;text-anchor:middle;fill:#ede7dc;stroke-width:2.64583;fill-opacity:1">
      <path
         d="M 126.55565,98.282349 V 79.34296 h 12.98369 v 3.203935 h -9.15964 v 4.482925 h 7.90648 v 3.203935 h -7.90648 v 8.048594 z"
         id="path127422"
         style="fill:#ede7dc;fill-opacity:1" />
      <path
         d="m 158.31078,98.282349 h -4.15995 l -1.65365,-4.302058 h -7.57058 l -1.56321,4.302058 h -4.0566 l 7.3768,-18.939389 h 4.04368 z m -7.04091,-7.493074 -2.60966,-7.027985 -2.55798,7.027985 z"
         id="path127424"
         style="fill:#ede7dc;fill-opacity:1" />
      <path
         d="m 160.32615,79.34296 h 6.98923 q 2.36419,0 3.60443,0.361735 1.66656,0.490925 2.85512,1.744077 1.18855,1.253152 1.80867,3.074744 0.62012,1.808673 0.62012,4.470006 0,2.338355 -0.58136,4.030756 -0.71055,2.067055 -2.0283,3.346045 -0.99477,0.968932 -2.68717,1.511534 -1.26607,0.400492 -3.3848,0.400492 h -7.19594 z m 3.82405,3.203935 v 12.544438 h 2.85512 q 1.60197,0 2.31252,-0.180867 0.93017,-0.232544 1.53737,-0.788065 0.62012,-0.555521 1.00769,-1.821592 0.38757,-1.27899 0.38757,-3.475235 0,-2.196246 -0.38757,-3.371883 -0.38757,-1.175638 -1.0852,-1.834511 -0.69763,-0.658874 -1.76992,-0.891418 -0.80098,-0.180867 -3.13934,-0.180867 z"
         id="path127426"
         style="fill:#ede7dc;fill-opacity:1" />
      <path
         d="M 179.44641,98.282349 V 79.34296 h 14.04305 v 3.203935 h -10.219 V 86.7456 h 9.50845 v 3.191015 h -9.50845 v 5.154718 h 10.58074 v 3.191016 z"
         id="path127428"
         style="fill:#ede7dc;fill-opacity:1" />
      <path
         d="M 197.10681,98.282349 V 79.34296 h 8.04859 q 3.03599,0 4.40541,0.516764 1.38235,0.503845 2.20917,1.808673 0.82682,1.304828 0.82682,2.98431 0,2.13165 -1.25315,3.526912 -1.25315,1.382343 -3.74654,1.744077 1.24023,0.723469 2.04122,1.589049 0.8139,0.865579 2.18332,3.074743 l 2.31252,3.694861 h -4.57336 l -2.76468,-4.121191 q -1.47278,-2.209164 -2.01538,-2.777604 -0.5426,-0.581359 -1.1498,-0.788065 -0.6072,-0.219624 -1.92494,-0.219624 h -0.77515 v 7.906484 z m 3.82405,-10.929552 h 2.82928 q 2.75177,0 3.43648,-0.232544 0.68471,-0.232543 1.07228,-0.800983 0.38758,-0.56844 0.38758,-1.4211 0,-0.956013 -0.51677,-1.537372 -0.50384,-0.594278 -1.43402,-0.749308 -0.46508,-0.06459 -2.79052,-0.06459 h -2.98431 z"
         id="path127430"
         style="fill:#ede7dc;fill-opacity:1" />
      <path
         d="m 215.2323,92.119942 3.72069,-0.361735 q 0.3359,1.873269 1.35651,2.751767 1.03353,0.878498 2.7776,0.878498 1.84743,0 2.77761,-0.775145 0.94309,-0.788065 0.94309,-1.834511 0,-0.671793 -0.40049,-1.13688 -0.38757,-0.478007 -1.36942,-0.826822 -0.6718,-0.232544 -3.06183,-0.826822 -3.07474,-0.762227 -4.31498,-1.873268 -1.74407,-1.563211 -1.74407,-3.811132 0,-1.446939 0.8139,-2.700091 0.82682,-1.266071 2.36419,-1.924944 1.5503,-0.658874 3.73362,-0.658874 3.56567,0 5.36142,1.56321 1.80868,1.56321 1.89911,4.172867 l -3.82405,0.167948 q -0.24546,-1.459857 -1.05937,-2.092893 -0.80098,-0.645955 -2.41587,-0.645955 -1.66656,0 -2.60965,0.684712 -0.6072,0.439249 -0.6072,1.175638 0,0.671792 0.56844,1.149799 0.72347,0.607197 3.51399,1.266071 2.79053,0.658873 4.12119,1.369424 1.34359,0.69763 2.0929,1.924944 0.76222,1.214395 0.76222,3.010149 0,1.627805 -0.90433,3.048905 -0.90434,1.4211 -2.55798,2.118731 -1.65365,0.684712 -4.12119,0.684712 -3.59151,0 -5.51646,-1.653644 -1.92494,-1.666563 -2.29959,-4.844659 z"
         id="path127432"
         style="fill:#ede7dc;fill-opacity:1" />
    </g>
    <g
       aria-label="OUTPUT"
       id="text118747"
       style="font-weight:bold;font-size:21.1667px;line-height:1.25;font-family:Arial;-inkscape-font-specification:'Arial, Bold';font-variant-ligatures:none;text-align:center;text-anchor:middle;display:inline;fill:#ede7dc;fill-opacity:1;stroke:none;stroke-width:2.64583;stroke-opacity:1"
       transform="translate(-0.00125775,6.5108821e-4)">
      <path
         d="m 135.76426,425.46814 q 0,-2.31511 0.69247,-3.88608 0.51676,-1.15755 1.4056,-2.07739 0.89917,-0.91984 1.9637,-1.36426 1.41594,-0.59945 3.26596,-0.59945 3.34864,0 5.35369,2.0774 2.01538,2.07739 2.01538,5.77743 0,3.66903 -1.99471,5.74643 -1.99472,2.06706 -5.33302,2.06706 -3.37964,0 -5.37436,-2.05673 -1.99471,-2.06706 -1.99471,-5.68441 z m 3.15227,-0.10336 q 0,2.5735 1.18856,3.90675 1.18856,1.32292 3.01791,1.32292 1.82934,0 2.99723,-1.31259 1.17823,-1.32291 1.17823,-3.95842 0,-2.60449 -1.14722,-3.88607 -1.13688,-1.28158 -3.02824,-1.28158 -1.89136,0 -3.04892,1.30225 -1.15755,1.29191 -1.15755,3.90674 z"
         id="path126278"
         style="fill:#ede7dc;fill-opacity:1;stroke:none;stroke-opacity:1" />
      <path
         d="m 152.82785,417.79934 h 3.05925 v 8.20623 q 0,1.95338 0.11368,2.53215 0.19637,0.93018 0.93018,1.49862 0.74414,0.55811 2.02572,0.55811 1.30225,0 1.96371,-0.5271 0.66146,-0.53744 0.79582,-1.31259 0.13436,-0.77514 0.13436,-2.57349 v -8.38193 h 3.05924 v 7.95819 q 0,2.72852 -0.24804,3.85506 -0.24805,1.12655 -0.91984,1.9017 -0.66146,0.77515 -1.77768,1.24024 -1.11621,0.45475 -2.91455,0.45475 -2.17042,0 -3.29696,-0.49609 -1.11622,-0.50643 -1.76734,-1.30225 -0.65112,-0.80616 -0.85783,-1.68466 -0.29972,-1.30225 -0.29972,-3.84473 z"
         id="path126280"
         style="fill:#ede7dc;fill-opacity:1;stroke:none;stroke-opacity:1" />
      <path
         d="m 171.54508,432.9509 v -12.5884 h -4.49586 v -2.56316 h 12.04063 v 2.56316 h -4.48552 v 12.5884 z"
         id="path126282"
         style="fill:#ede7dc;fill-opacity:1;stroke:none;stroke-opacity:1" />
      <path
         d="m 181.06389,432.9509 v -15.15156 h 4.90927 q 2.79053,0 3.63803,0.22738 1.30225,0.34106 2.18075,1.48828 0.8785,1.13689 0.8785,2.94556 0,1.39527 -0.50643,2.34612 -0.50643,0.95085 -1.29191,1.49862 -0.77515,0.53743 -1.5813,0.71313 -1.09555,0.21704 -3.17294,0.21704 h -1.99472 v 5.71543 z m 3.05925,-12.5884 v 4.29948 h 1.67432 q 1.80868,0 2.41846,-0.23771 0.60979,-0.23771 0.95085,-0.74414 0.3514,-0.50643 0.3514,-1.17822 0,-0.82683 -0.48576,-1.36426 -0.48576,-0.53744 -1.2299,-0.6718 -0.54777,-0.10335 -2.20142,-0.10335 z"
         id="path126284"
         style="fill:#ede7dc;fill-opacity:1;stroke:none;stroke-opacity:1" />
      <path
         d="m 195.16125,417.79934 h 3.05925 v 8.20623 q 0,1.95338 0.11368,2.53215 0.19638,0.93018 0.93018,1.49862 0.74414,0.55811 2.02572,0.55811 1.30225,0 1.96371,-0.5271 0.66146,-0.53744 0.79582,-1.31259 0.13436,-0.77514 0.13436,-2.57349 v -8.38193 h 3.05925 v 7.95819 q 0,2.72852 -0.24805,3.85506 -0.24805,1.12655 -0.91984,1.9017 -0.66146,0.77515 -1.77768,1.24024 -1.11621,0.45475 -2.91455,0.45475 -2.17041,0 -3.29696,-0.49609 -1.11622,-0.50643 -1.76734,-1.30225 -0.65112,-0.80616 -0.85783,-1.68466 -0.29972,-1.30225 -0.29972,-3.84473 z"
         id="path126286"
         style="fill:#ede7dc;fill-opacity:1;stroke:none;stroke-opacity:1" />
      <path
         d="m 213.87848,432.9509 v -12.5884 h -4.49586 v -2.56316 h 12.04063 v 2.56316 h -4.48552 v 12.5884 z"
         id="path126288"
         style="fill:#ede7dc;fill-opacity:1;stroke:none;stroke-opacity:1" />
    </g>
    <g
       aria-label="MONO"
       id="text118747-6-0"
       style="font-weight:bold;font-size:19.4028px;line-height:1.25;font-family:Arial;-inkscape-font-specification:'Arial, Bold';font-variant-ligatures:none;text-align:center;text-anchor:middle;display:inline;fill:#ede7dc;fill-opacity:1;stroke:none;stroke-width:2.64583;stroke-opacity:1"
       transform="translate(-214.31249,-0.534039)">
      <path
         d="M 256.6458,446.15372 V 432.2648 h 4.19699 l 2.52009,9.47402 2.49167,-9.47402 h 4.20647 v 13.88892 h -2.60536 v -10.93303 l -2.75694,10.93303 h -2.7001 l -2.74746,-10.93303 v 10.93303 z"
         id="path126291"
         style="fill:#ede7dc;fill-opacity:1;stroke:none;stroke-opacity:1" />
      <path
         d="m 272.27794,439.29452 q 0,-2.12218 0.63476,-3.56223 0.4737,-1.06109 1.28847,-1.90428 0.82424,-0.84319 1.80006,-1.25057 1.29794,-0.54949 2.99379,-0.54949 3.06959,0 4.90755,1.90428 1.84743,1.90428 1.84743,5.29598 0,3.36327 -1.82849,5.26755 -1.82848,1.89481 -4.88859,1.89481 -3.09801,0 -4.92649,-1.88533 -1.82849,-1.89481 -1.82849,-5.21072 z m 2.88958,-0.0947 q 0,2.35904 1.08951,3.58118 1.08951,1.21268 2.76641,1.21268 1.67691,0 2.74747,-1.2032 1.08004,-1.21268 1.08004,-3.62855 0,-2.38746 -1.05162,-3.56223 -1.04214,-1.17478 -2.77589,-1.17478 -1.73374,0 -2.79483,1.19372 -1.06109,1.18426 -1.06109,3.58118 z"
         id="path126293"
         style="fill:#ede7dc;fill-opacity:1;stroke:none;stroke-opacity:1" />
      <path
         d="M 287.96692,446.15372 V 432.2648 h 2.72852 l 5.68441,9.27507 v -9.27507 h 2.60536 v 13.88892 h -2.81378 l -5.59915,-9.05717 v 9.05717 z"
         id="path126295"
         style="fill:#ede7dc;fill-opacity:1;stroke:none;stroke-opacity:1" />
      <path
         d="m 301.38214,439.29452 q 0,-2.12218 0.63476,-3.56223 0.4737,-1.06109 1.28847,-1.90428 0.82424,-0.84319 1.80006,-1.25057 1.29794,-0.54949 2.99379,-0.54949 3.06959,0 4.90755,1.90428 1.84743,1.90428 1.84743,5.29598 0,3.36327 -1.82849,5.26755 -1.82848,1.89481 -4.88859,1.89481 -3.09801,0 -4.92649,-1.88533 -1.82849,-1.89481 -1.82849,-5.21072 z m 2.88958,-0.0947 q 0,2.35904 1.08951,3.58118 1.08951,1.21268 2.76641,1.21268 1.67691,0 2.74747,-1.2032 1.08004,-1.21268 1.08004,-3.62855 0,-2.38746 -1.05162,-3.56223 -1.04214,-1.17478 -2.77589,-1.17478 -1.73374,0 -2.79483,1.19372 -1.06109,1.18426 -1.06109,3.58118 z"
         id="path126297"
         style="fill:#ede7dc;fill-opacity:1;stroke:none;stroke-opacity:1" />
    </g>
    <g
       aria-label="LEVEL"
       id="text118747-2"
       style="font-weight:bold;font-size:21.1667px;line-height:1.25;font-family:Arial;-inkscape-font-specification:'Arial, Bold';font-variant-ligatures:none;text-align:center;text-anchor:middle;display:inline;fill:#ede7dc;fill-opacity:1;stroke:none;stroke-width:2.64583;stroke-opacity:1"
       transform="translate(-0.00125775,6.5108821e-4)">
      <path
         d="m 145.61897,453.90158 v -15.02753 h 3.05925 v 12.47471 h 7.60678 v 2.55282 z"
         id="path126300"
         style="fill:#ede7dc;fill-opacity:1;stroke:none;stroke-opacity:1" />
      <path
         d="m 158.46575,453.90158 v -15.15155 h 11.23448 v 2.56315 H 161.525 v 3.35898 h 7.60679 v 2.55282 H 161.525 v 4.12378 h 8.46462 v 2.55282 z"
         id="path126302"
         style="fill:#ede7dc;fill-opacity:1;stroke:none;stroke-opacity:1" />
      <path
         d="m 176.44918,453.90158 -5.4157,-15.15155 h 3.31764 l 3.83439,11.2138 3.71038,-11.2138 h 3.24528 l -5.42603,15.15155 z"
         id="path126304"
         style="fill:#ede7dc;fill-opacity:1;stroke:none;stroke-opacity:1" />
      <path
         d="m 186.7018,453.90158 v -15.15155 h 11.23448 v 2.56315 h -8.17523 v 3.35898 h 7.60678 v 2.55282 h -7.60678 v 4.12378 h 8.46461 v 2.55282 z"
         id="path126306"
         style="fill:#ede7dc;fill-opacity:1;stroke:none;stroke-opacity:1" />
      <path
         d="m 200.90251,453.90158 v -15.02753 h 3.05925 v 12.47471 h 7.60678 v 2.55282 z"
         id="path126308"
         style="fill:#ede7dc;fill-opacity:1;stroke:none;stroke-opacity:1" />
    </g>
    <g
       aria-label="OUTPUT"
       id="text118747-2-9"
       style="font-weight:bold;font-size:19.4028px;line-height:1.25;font-family:Arial;-inkscape-font-specification:'Arial, Bold';font-variant-ligatures:none;text-align:center;text-anchor:middle;display:inline;fill:#ede7dc;fill-opacity:1;stroke:none;stroke-width:2.64583;stroke-opacity:1"
       transform="translate(-214.31251,-0.534039)">
      <path
         d="m 246.48966,460.59048 q 0,-2.12218 0.63476,-3.56223 0.4737,-1.06109 1.28847,-1.90428 0.82424,-0.84319 1.80006,-1.25057 1.29794,-0.54949 2.99379,-0.54949 3.06959,0 4.90755,1.90428 1.84743,1.90428 1.84743,5.29598 0,3.36327 -1.82848,5.26755 -1.82849,1.89481 -4.8886,1.89481 -3.09801,0 -4.92649,-1.88533 -1.82849,-1.89481 -1.82849,-5.21072 z m 2.88958,-0.0947 q 0,2.35904 1.08951,3.58118 1.08951,1.21268 2.76642,1.21268 1.6769,0 2.74746,-1.2032 1.08004,-1.21268 1.08004,-3.62855 0,-2.38746 -1.05162,-3.56224 -1.04214,-1.17477 -2.77588,-1.17477 -1.73375,0 -2.79484,1.19372 -1.06109,1.18426 -1.06109,3.58118 z"
         id="path126311"
         style="fill:#ede7dc;fill-opacity:1;stroke:none;stroke-opacity:1" />
      <path
         d="m 262.13127,453.56076 h 2.80431 v 7.52237 q 0,1.79059 0.10422,2.32114 0.18001,0.85266 0.85266,1.37373 0.68213,0.5116 1.85691,0.5116 1.19373,0 1.80006,-0.48318 0.60634,-0.49265 0.7295,-1.2032 0.12317,-0.71055 0.12317,-2.35903 v -7.68343 h 2.80431 v 7.295 q 0,2.50114 -0.22738,3.53381 -0.22738,1.03267 -0.84319,1.74322 -0.60633,0.71055 -1.62953,1.13688 -1.02319,0.41686 -2.67167,0.41686 -1.98955,0 -3.02222,-0.45476 -1.02319,-0.46422 -1.62006,-1.19372 -0.59686,-0.73898 -0.78634,-1.54427 -0.27475,-1.19373 -0.27475,-3.52434 z"
         id="path126313"
         style="fill:#ede7dc;fill-opacity:1;stroke:none;stroke-opacity:1" />
      <path
         d="m 279.28873,467.44968 v -11.53936 h -4.1212 v -2.34956 h 11.03724 v 2.34956 h -4.11173 v 11.53936 z"
         id="path126315"
         style="fill:#ede7dc;fill-opacity:1;stroke:none;stroke-opacity:1" />
      <path
         d="m 288.01431,467.44968 v -13.88892 h 4.50016 q 2.55798,0 3.33485,0.20843 1.19373,0.31264 1.99902,1.36426 0.80529,1.04214 0.80529,2.70009 0,1.279 -0.46422,2.15061 -0.46423,0.87161 -1.18426,1.37373 -0.71055,0.49265 -1.44952,0.65371 -1.00425,0.19895 -2.90853,0.19895 h -1.82848 v 5.23914 z m 2.80431,-11.53936 v 3.94119 h 1.53479 q 1.65795,0 2.21692,-0.2179 0.55897,-0.21791 0.87161,-0.68213 0.32212,-0.46423 0.32212,-1.08004 0,-0.75792 -0.44528,-1.25057 -0.44528,-0.49265 -1.12741,-0.61581 -0.50212,-0.0947 -2.01797,-0.0947 z"
         id="path126317"
         style="fill:#ede7dc;fill-opacity:1;stroke:none;stroke-opacity:1" />
      <path
         d="m 300.93688,453.56076 h 2.80431 v 7.52237 q 0,1.79059 0.10421,2.32114 0.18001,0.85266 0.85266,1.37373 0.68213,0.5116 1.85691,0.5116 1.19373,0 1.80007,-0.48318 0.60633,-0.49265 0.7295,-1.2032 0.12316,-0.71055 0.12316,-2.35903 v -7.68343 h 2.80431 v 7.295 q 0,2.50114 -0.22738,3.53381 -0.22737,1.03267 -0.84319,1.74322 -0.60633,0.71055 -1.62953,1.13688 -1.02319,0.41686 -2.67167,0.41686 -1.98955,0 -3.02222,-0.45476 -1.02319,-0.46422 -1.62005,-1.19372 -0.59687,-0.73898 -0.78635,-1.54427 -0.27474,-1.19373 -0.27474,-3.52434 z"
         id="path126319"
         style="fill:#ede7dc;fill-opacity:1;stroke:none;stroke-opacity:1" />
      <path
         d="m 318.09433,467.44968 v -11.53936 h -4.1212 v -2.34956 h 11.03724 v 2.34956 h -4.11173 v 11.53936 z"
         id="path126321"
         style="fill:#ede7dc;fill-opacity:1;stroke:none;stroke-opacity:1" />
    </g>
    <path
       style="color:#000000;display:inline;fill:#ede7dc;-inkscape-stroke:none;fill-opacity:1"
       d="M 50.271484,728.92773 V 898.26172 H 55.5625 l 0.002,-169.33399 z"
       id="path1270-8-2-5-8-1" />
    <path
       style="color:#000000;display:inline;fill:#ede7dc;-inkscape-stroke:none;fill-opacity:1"
       d="m 218.28125,728.92773 v 169.33399 h 5.29102 l 0.002,-169.33399 z"
       id="path1270-8-2-5-8-1-1" />
    <path
       style="color:#000000;display:inline;fill:#ede7dc;-inkscape-stroke:none;fill-opacity:1"
       d="m 51.59375,895.61523 v 5.29102 h 169.33398 v -5.29102 z"
       id="path1270-8-2-5-8-1-1-8" />
    <path
       style="color:#000000;display:inline;fill:#ede7dc;-inkscape-stroke:none;fill-opacity:1"
       d="m 51.59375,726.28125 v 5.29297 h 169.33398 v -5.29297 z"
       id="path1270-8-2-5-8-1-1-8-7" />
    <path
       style="color:#000000;display:inline;fill:#ede7dc;-inkscape-stroke:none;fill-opacity:1"
       d="m 134.42383,642.625 -83.248049,84.57617 3.771485,3.71094 83.248044,-84.57422 z"
       id="path1270-8-2-5-8-1-1-8-7-8" />
    <path
       style="color:#000000;display:inline;fill:#ede7dc;stroke-dasharray:7.93749, 7.93749;-inkscape-stroke:none;fill-opacity:1"
       d="m 135.36719,812.88672 -5.56836,5.65625 1.88476,1.85547 5.56836,-5.65625 z m -11.13672,11.3125 -5.56836,5.6582 1.88672,1.85547 5.56836,-5.65625 z m -11.13672,11.31445 -5.56836,5.65625 1.88672,1.85742 5.56836,-5.6582 z m -11.13477,11.31445 -5.568355,5.65625 1.884766,1.85547 5.568359,-5.65625 z m -11.136714,11.3125 -5.56836,5.65821 1.884766,1.85547 5.568359,-5.65625 z m -11.136719,11.31446 -5.56836,5.65625 1.886719,1.85547 5.56836,-5.65625 z m -11.136719,11.31445 -5.566406,5.65625 1.884765,1.85547 5.56836,-5.65625 z m -11.134766,11.3125 -5.296875,5.38086 1.886719,1.85547 5.294922,-5.38086 z"
       id="path1270-8-2-5-8-1-1-8-7-8-5" />
    <path
       style="color:#000000;display:inline;fill:#ede7dc;-inkscape-stroke:none;fill-opacity:1"
       d="m 303.75781,811.95898 -83.24804,84.57618 3.77148,3.71093 83.24805,-84.57617 z"
       id="path1270-8-2-5-8-1-1-8-7-8-5-2" />
    <path
       style="color:#000000;display:inline;fill:#ede7dc;-inkscape-stroke:none;fill-opacity:1"
       d="m 303.75781,642.625 -83.24804,84.57617 3.77148,3.71094 83.24805,-84.57422 z"
       id="path1270-8-2-5-8-1-1-8-7-8-7" />
    <path
       style="color:#000000;display:inline;fill:#ede7dc;-inkscape-stroke:none;fill-opacity:1"
       d="m 302.94922,644.26172 -0.002,169.33203 h 5.29296 V 644.26172 Z"
       id="path1270-8-2-5-8-1-1-5" />
    <path
       style="color:#000000;display:inline;fill:#ede7dc;stroke-dasharray:7.93749, 7.93749;-inkscape-stroke:none;fill-opacity:1"
       d="m 134.9375,646.90625 v 7.9375 h 2.64648 v -7.9375 z m 0,15.875 v 7.9375 h 2.64648 v -7.9375 z m 0,15.875 v 7.9375 h 2.64648 v -7.9375 z m 0,15.875 v 7.9375 h 2.64648 v -7.9375 z m 0,15.875 v 7.9375 h 2.64648 v -7.9375 z m 0,15.875 v 7.9375 h 2.64648 v -7.9375 z m 0,15.875 v 7.9375 h 2.64648 v -7.9375 z m 0,15.875 v 7.9375 h 2.64648 v -7.9375 z m 0,15.875 v 7.9375 h 2.64453 v -7.9375 z m 0,15.875 v 7.9375 h 2.64453 v -7.9375 z m 0,15.875 v 7.9375 h 2.64453 v -7.9375 z"
       id="path1270-8-2-5-8-1-1-9" />
    <path
       style="color:#000000;display:inline;fill:#ede7dc;stroke-dasharray:7.9375, 7.9375;-inkscape-stroke:none;fill-opacity:1"
       d="m 70.113939,171.97917 v 5.29102 h 2.646485 v -5.29102 z m 0,13.22852 v 7.9375 h 2.644532 l 0.002,-7.9375 z m 0,15.875 v 7.9375 h 2.644532 v -7.9375 z m 0,15.875 v 7.9375 h 2.644532 v -7.9375 z m 0,15.875 v 7.9375 h 2.644532 v -7.9375 z m 0,15.875 -0.002,7.9375 h 2.646485 v -7.9375 z m -0.002,15.875 v 7.9375 h 2.646485 v -7.9375 z"
       id="path1270-8-2-5-8-1-1-9-5" />
    <path
       style="color:#000000;display:inline;fill:#ede7dc;-inkscape-stroke:none;fill-opacity:1"
       d="m 70.115234,275.16602 -0.002,93.92773 h 2.646485 l 0.002,-93.92773 z"
       id="path1270-8-2-5-8-1-1-9-5-0" />
    <path
       style="color:#000000;display:inline;fill:#ede7dc;-inkscape-stroke:none;fill-opacity:1"
       d="m 177.27148,275.16602 -0.002,93.92773 h 2.64649 l 0.002,-93.92773 z"
       id="path1270-8-2-5-8-1-1-9-5-0-6" />
    <path
       style="color:#000000;display:inline;fill:#ede7dc;-inkscape-stroke:none;fill-opacity:1"
       d="m 284.42773,275.16602 -0.002,93.92773 h 2.64649 l 0.002,-93.92773 z"
       id="path1270-8-2-5-8-1-1-9-5-0-8" />
    <path
       style="color:#000000;display:inline;fill:#ede7dc;stroke-dasharray:7.9375, 7.9375;-inkscape-stroke:none;fill-opacity:1"
       d="m 177.27148,171.97917 v 5.29102 h 2.64649 v -5.29102 z m 0,13.22852 v 7.9375 h 2.64454 l 0.002,-7.9375 z m 0,15.875 v 7.9375 h 2.64454 v -7.9375 z m 0,15.875 v 7.9375 h 2.64454 v -7.9375 z m 0,15.875 v 7.9375 h 2.64454 v -7.9375 z m 0,15.875 -0.002,7.9375 h 2.64649 v -7.9375 z m -0.002,15.875 v 7.9375 h 2.64649 v -7.9375 z"
       id="path1270-8-2-5-8-1-1-9-5-6" />
    <path
       style="color:#000000;display:inline;fill:#ede7dc;stroke-dasharray:7.9375, 7.9375;-inkscape-stroke:none;fill-opacity:1"
       d="m 284.42773,171.97917 v 5.29102 h 2.64649 v -5.29102 z m 0,13.22852 v 7.9375 h 2.64454 l 0.002,-7.9375 z m 0,15.875 v 7.9375 h 2.64454 v -7.9375 z m 0,15.875 v 7.9375 h 2.64454 v -7.9375 z m 0,15.875 v 7.9375 h 2.64454 v -7.9375 z m 0,15.875 -0.002,7.9375 h 2.64649 v -7.9375 z m -0.002,15.875 v 7.9375 h 2.64649 v -7.9375 z"
       id="path1270-8-2-5-8-1-1-9-5-2" />
    <path
       style="color:#000000;display:inline;fill:#ede7dc;-inkscape-stroke:none;fill-opacity:1"
       d="m 136.25977,641.61523 v 5.29102 h 169.33398 v -5.29102 z"
       id="path1270-8-2-5-8-1-1-8-3" />
    <path
       style="color:#000000;display:inline;fill:#ede7dc;stroke-dasharray:7.93749, 7.93749;-inkscape-stroke:none;fill-opacity:1"
       d="m 138.90625,812.27148 v 2.64649 h 7.9375 v -2.64649 z m 15.875,0 v 2.64649 h 7.9375 v -2.64649 z m 15.875,0 v 2.64649 h 7.9375 v -2.64649 z m 15.875,0 v 2.64649 h 7.9375 v -2.64649 z m 15.875,0 v 2.64649 h 7.9375 v -2.64649 z m 15.875,0 v 2.64649 h 7.9375 v -2.64649 z m 15.875,0 v 2.64649 h 7.9375 v -2.64649 z m 15.875,0 v 2.64649 h 7.9375 v -2.64649 z m 15.875,0 v 2.64649 h 7.9375 v -2.64649 z m 15.875,0 v 2.64649 l 7.9375,-0.002 v -2.64454 z m 15.875,0 v 2.64454 h 7.9375 v -2.64454 z"
       id="path1270-8-2-5-8-1-1-8-3-9" />
    <g
       aria-label="CROSS FADE 3D"
       id="text141037"
       style="font-weight:bold;font-size:31.75px;line-height:1.25;font-family:Arial;-inkscape-font-specification:'Arial, Bold';font-variant-ligatures:none;text-align:center;text-anchor:middle;fill:#ede7dc;stroke-width:2.64583;fill-opacity:1"
       transform="translate(400.08472)">
      <path
         d="m -332.50745,43.405228 4.44934,1.410766 q -1.02319,3.720703 -3.41064,5.534546 -2.37195,1.79834 -6.03064,1.79834 -4.52686,0 -7.44141,-3.085083 -2.91455,-3.100586 -2.91455,-8.4646 0,-5.674072 2.93006,-8.805664 2.93005,-3.147094 7.70495,-3.147094 4.17029,0 6.77478,2.464965 1.5503,1.457276 2.32544,4.185791 l -4.54236,1.085206 q -0.40307,-1.767334 -1.68981,-2.790528 -1.27125,-1.023193 -3.10059,-1.023193 -2.52698,0 -4.10828,1.813843 -1.56579,1.813842 -1.56579,5.87561 0,4.309814 1.55029,6.13916 1.55029,1.829346 4.03076,1.829346 1.82935,0 3.1471,-1.16272 1.31775,-1.16272 1.89135,-3.658691 z"
         id="path150897"
         style="fill:#ede7dc;fill-opacity:1" />
      <path
         d="M -324.10486,51.761307 V 29.034012 h 9.65833 q 3.64319,0 5.2865,0.620117 1.65881,0.604614 2.651,2.17041 0.99218,1.565796 0.99218,3.581177 0,2.557983 -1.50378,4.2323 -1.50378,1.658813 -4.49585,2.092895 1.48828,0.868164 2.44946,1.906861 0.97669,1.038696 2.62,3.689697 l 2.77502,4.433838 h -5.48803 l -3.31763,-4.945435 q -1.76734,-2.651001 -2.41846,-3.33313 -0.65112,-0.697632 -1.37976,-0.945678 -0.72864,-0.26355 -2.30994,-0.26355 h -0.93017 v 9.487793 z m 4.58887,-13.115479 h 3.39514 q 3.30212,0 4.12378,-0.279052 0.82165,-0.279053 1.28674,-0.961182 0.46509,-0.682129 0.46509,-1.705322 0,-1.147217 -0.62012,-1.844849 -0.60461,-0.713135 -1.72082,-0.89917 -0.55811,-0.07751 -3.34863,-0.07751 h -3.58118 z"
         id="path150899"
         style="fill:#ede7dc;fill-opacity:1" />
      <path
         d="m -302.1217,40.537186 q 0,-3.472657 1.03869,-5.829102 0.77515,-1.736328 2.1084,-3.116089 1.34876,-1.379761 2.94556,-2.046386 2.1239,-0.89917 4.89892,-0.89917 5.02295,0 8.03052,3.116088 3.02307,3.116089 3.02307,8.666138 0,5.50354 -2.99206,8.619629 -2.99207,3.100586 -7.99952,3.100586 -5.06945,0 -8.06152,-3.085083 -2.99206,-3.100586 -2.99206,-8.526611 z m 4.72839,-0.15503 q 0,3.86023 1.78284,5.860108 1.78283,1.984375 4.52685,1.984375 2.74402,0 4.49585,-1.968872 1.76734,-1.984375 1.76734,-5.937622 0,-3.906739 -1.72083,-5.829102 -1.70532,-1.922363 -4.54236,-1.922363 -2.83703,0 -4.57336,1.953369 -1.73633,1.937866 -1.73633,5.860107 z"
         id="path150901"
         style="fill:#ede7dc;fill-opacity:1" />
      <path
         d="m -277.65808,44.366409 4.46484,-0.434082 q 0.40308,2.247925 1.62781,3.302124 1.24023,1.0542 3.33313,1.0542 2.21692,0 3.33313,-0.930176 1.13171,-0.945679 1.13171,-2.201416 0,-0.806153 -0.48059,-1.364258 -0.46508,-0.573608 -1.64331,-0.992188 -0.80615,-0.279052 -3.67419,-0.992187 -3.6897,-0.914673 -5.17798,-2.247925 -2.0929,-1.875854 -2.0929,-4.573364 0,-1.736328 0.97669,-3.240112 0.99219,-1.519288 2.83703,-2.309937 1.86036,-0.790649 4.48035,-0.790649 4.27881,0 6.43372,1.875854 2.17041,1.875855 2.27893,5.007446 l -4.58887,0.201538 q -0.29455,-1.751831 -1.27124,-2.511474 -0.96118,-0.775147 -2.89905,-0.775147 -1.99988,0 -3.13159,0.821656 -0.72864,0.527099 -0.72864,1.410766 0,0.806153 0.68213,1.379761 0.86817,0.728638 4.2168,1.519287 3.34863,0.79065 4.94543,1.643311 1.61231,0.837158 2.51148,2.309936 0.91467,1.457276 0.91467,3.612183 0,1.953369 -1.0852,3.658691 -1.08521,1.705322 -3.06958,2.542481 -1.98438,0.821655 -4.94544,0.821655 -4.30981,0 -6.61975,-1.984375 -2.30994,-1.999878 -2.75952,-5.813599 z"
         id="path150903"
         style="fill:#ede7dc;fill-opacity:1" />
      <path
         d="m -256.48108,44.366409 4.46484,-0.434082 q 0.40308,2.247925 1.62781,3.302124 1.24024,1.0542 3.33313,1.0542 2.21692,0 3.33313,-0.930176 1.13172,-0.945679 1.13172,-2.201416 0,-0.806153 -0.48059,-1.364258 -0.46509,-0.573608 -1.64332,-0.992188 -0.80615,-0.279052 -3.67419,-0.992187 -3.6897,-0.914673 -5.17798,-2.247925 -2.09289,-1.875854 -2.09289,-4.573364 0,-1.736328 0.97668,-3.240112 0.99219,-1.519288 2.83704,-2.309937 1.86035,-0.790649 4.48034,-0.790649 4.27881,0 6.43372,1.875854 2.17041,1.875855 2.27893,5.007446 l -4.58887,0.201538 q -0.29455,-1.751831 -1.27124,-2.511474 -0.96118,-0.775147 -2.89905,-0.775147 -1.99987,0 -3.13159,0.821656 -0.72863,0.527099 -0.72863,1.410766 0,0.806153 0.68212,1.379761 0.86817,0.728638 4.2168,1.519287 3.34863,0.79065 4.94544,1.643311 1.6123,0.837158 2.51147,2.309936 0.91467,1.457276 0.91467,3.612183 0,1.953369 -1.0852,3.658691 -1.08521,1.705322 -3.06958,2.542481 -1.98438,0.821655 -4.94544,0.821655 -4.30981,0 -6.61975,-1.984375 -2.30993,-1.999878 -2.75952,-5.813599 z"
         id="path150905"
         style="fill:#ede7dc;fill-opacity:1" />
      <path
         d="M -225.28918,51.761307 V 29.034012 h 15.58044 v 3.844726 h -10.99158 v 5.379517 h 9.4878 v 3.844727 h -9.4878 v 9.658325 z"
         id="path150907"
         style="fill:#ede7dc;fill-opacity:1" />
      <path
         d="m -187.18298,51.761307 h -4.99195 l -1.98437,-5.162476 h -9.08472 l -1.87585,5.162476 h -4.86792 l 8.85217,-22.727295 h 4.85242 z m -8.4491,-8.991699 -3.13159,-8.433594 -3.06958,8.433594 z"
         id="path150909"
         style="fill:#ede7dc;fill-opacity:1" />
      <path
         d="m -184.76453,29.034012 h 8.38709 q 2.83703,0 4.32532,0.434082 1.99987,0.589111 3.42614,2.092895 1.42627,1.503785 2.17041,3.689698 0.74414,2.17041 0.74414,5.364013 0,2.806031 -0.69763,4.836914 -0.85266,2.480469 -2.43396,4.015259 -1.19372,1.16272 -3.22461,1.813843 -1.51928,0.480591 -4.06176,0.480591 h -8.63514 z m 4.58887,3.844726 v 15.053345 h 3.42615 q 1.92236,0 2.77502,-0.217041 1.11621,-0.279053 1.84485,-0.945679 0.74414,-0.666626 1.20923,-2.185913 0.46509,-1.53479 0.46509,-4.170288 0,-2.635498 -0.46509,-4.046264 -0.46509,-1.410767 -1.30225,-2.201416 -0.83715,-0.79065 -2.1239,-1.069703 -0.96118,-0.217041 -3.76721,-0.217041 z"
         id="path150911"
         style="fill:#ede7dc;fill-opacity:1" />
      <path
         d="M -161.82019,51.761307 V 29.034012 h 16.85168 v 3.844726 h -12.26281 v 5.038453 h 11.41015 v 3.829223 h -11.41015 v 6.185669 h 12.6969 v 3.829224 z"
         id="path150913"
         style="fill:#ede7dc;fill-opacity:1" />
      <path
         d="m -132.93823,45.730667 4.21679,-0.511597 q 0.20154,1.612305 1.08521,2.464966 0.88367,0.852661 2.1394,0.852661 1.34876,0 2.26343,-1.023193 0.93018,-1.023193 0.93018,-2.759521 0,-1.643311 -0.88367,-2.604493 -0.88367,-0.961181 -2.15491,-0.961181 -0.83716,0 -1.99987,0.325561 l 0.48059,-3.550171 q 1.76733,0.04651 2.69751,-0.759643 0.93017,-0.821655 0.93017,-2.17041 0,-1.147217 -0.68213,-1.829346 -0.68213,-0.682129 -1.81384,-0.682129 -1.11621,0 -1.90686,0.775147 -0.79065,0.775146 -0.96118,2.263427 l -4.01526,-0.682129 q 0.41858,-2.061889 1.25574,-3.286621 0.85266,-1.240234 2.35644,-1.937866 1.51929,-0.713135 3.39514,-0.713135 3.20911,0 5.14698,2.046387 1.5968,1.674316 1.5968,3.782715 0,2.992065 -3.27112,4.774902 1.95337,0.418579 3.11609,1.875855 1.17822,1.457275 1.17822,3.519165 0,2.992065 -2.18591,5.100464 -2.18592,2.108398 -5.44153,2.108398 -3.08508,0 -5.11597,-1.767334 -2.03088,-1.782837 -2.35644,-4.650879 z"
         id="path150915"
         style="fill:#ede7dc;fill-opacity:1" />
      <path
         d="m -114.17969,29.034012 h 8.38709 q 2.83703,0 4.32531,0.434082 1.999883,0.589111 3.426152,2.092895 1.42627,1.503785 2.17041,3.689698 0.744141,2.17041 0.744141,5.364013 0,2.806031 -0.697632,4.836914 -0.852661,2.480469 -2.43396,4.015259 -1.193725,1.16272 -3.224611,1.813843 -1.51929,0.480591 -4.06177,0.480591 h -8.63513 z m 4.58887,3.844726 v 15.053345 h 3.42615 q 1.92236,0 2.77502,-0.217041 1.11621,-0.279053 1.84485,-0.945679 0.74414,-0.666626 1.20923,-2.185913 0.465087,-1.53479 0.465087,-4.170288 0,-2.635498 -0.465087,-4.046264 -0.46509,-1.410767 -1.30225,-2.201416 -0.83716,-0.79065 -2.1239,-1.069703 -0.96118,-0.217041 -3.76721,-0.217041 z"
         id="path150917"
         style="fill:#ede7dc;fill-opacity:1" />
    </g>
  </g>
  <g
     inkscape:groupmode="layer"
     id="layer7"
     inkscape:label="Alternate Solid"
     style="display:inline">
    <path
       style="color:#000000;fill:#ff0000;-inkscape-stroke:none"
       d="m 51.59375,863.86523 c -18.949268,0 -34.396484,15.44722 -34.396484,34.39649 0,18.94927 15.447216,34.39453 34.396484,34.39453 18.949268,0 34.396484,-15.44526 34.396484,-34.39453 0,-18.94927 -15.447216,-34.39649 -34.396484,-34.39649 z m 0,7.9375 c 14.659529,0 26.458984,11.79946 26.458984,26.45899 0,14.65953 -11.799455,26.45703 -26.458984,26.45703 -14.659529,0 -26.458984,-11.7975 -26.458984,-26.45703 0,-14.65953 11.799455,-26.45899 26.458984,-26.45899 z"
       id="path1065-7-2-8-1-110-3-0-0-6-8" />
    <g
       aria-label="1"
       id="text7355-23"
       style="font-weight:bold;font-size:14.1111px;line-height:1.25;font-family:Arial;-inkscape-font-specification:'Arial, Bold';font-variant-ligatures:none;text-align:center;text-anchor:middle;display:inline;fill:#ff0000;stroke-width:2.64583"
       transform="translate(-5.0140616,0.03700739)">
      <path
         d="M 28.826562,873.41254 H 26.89042 v -7.29671 q -1.061089,0.99219 -2.501138,1.46761 v -1.757 q 0.757921,-0.24804 1.646755,-0.93706 0.888834,-0.69591 1.219563,-1.6192 h 1.570962 z"
         id="path12098" />
    </g>
    <g
       aria-label="2"
       id="text7355-6"
       style="font-weight:bold;font-size:14.1111px;line-height:1.25;font-family:Arial;-inkscape-font-specification:'Arial, Bold';font-variant-ligatures:none;text-align:center;text-anchor:middle;display:inline;fill:#ff0000;stroke-width:2.64583"
       transform="translate(-3.3962296)">
      <path
         d="m 200.68269,871.6142 v 1.79834 h -6.78684 q 0.11025,-1.01975 0.66146,-1.92926 0.55122,-0.91639 2.1773,-2.42534 1.30913,-1.21956 1.60541,-1.65365 0.39963,-0.59944 0.39963,-1.18511 0,-0.64767 -0.3514,-0.99218 -0.34451,-0.3514 -0.95773,-0.3514 -0.60634,0 -0.96463,0.36518 -0.35829,0.36518 -0.41341,1.21267 l -1.92925,-0.19293 q 0.17225,-1.59852 1.08176,-2.29443 0.9095,-0.69591 2.27376,-0.69591 1.49517,0 2.34955,0.80616 0.85439,0.80615 0.85439,2.00504 0,0.68213 -0.24805,1.30224 -0.24116,0.61323 -0.7717,1.28847 -0.3514,0.44786 -1.2678,1.28846 -0.91639,0.84061 -1.16444,1.11621 -0.24115,0.27561 -0.39274,0.53744 z"
         id="path12095" />
    </g>
    <g
       aria-label="3"
       id="text7355-67"
       style="font-weight:bold;font-size:14.1111px;line-height:1.25;font-family:Arial;-inkscape-font-specification:'Arial, Bold';font-variant-ligatures:none;text-align:center;text-anchor:middle;display:inline;fill:#ff0000;stroke-width:2.64583"
       transform="translate(-2.0859763,-2.7039317)">
      <path
         d="m 23.252402,703.7292 1.874131,-0.22737 q 0.08957,0.71658 0.482313,1.09554 0.39274,0.37896 0.950845,0.37896 0.599447,0 1.005967,-0.45476 0.413412,-0.45475 0.413412,-1.22645 0,-0.73036 -0.392741,-1.15755 -0.392741,-0.42719 -0.957736,-0.42719 -0.37207,0 -0.888834,0.14469 l 0.213596,-1.57785 q 0.785481,0.0207 1.198892,-0.33762 0.413411,-0.36518 0.413411,-0.96463 0,-0.50987 -0.303168,-0.81304 -0.303168,-0.30317 -0.806151,-0.30317 -0.496094,0 -0.847493,0.34451 -0.3514,0.34451 -0.427192,1.00597 l -1.784558,-0.30317 q 0.186035,-0.91639 0.558105,-1.46072 0.37896,-0.55121 1.047308,-0.86127 0.675239,-0.31695 1.508951,-0.31695 1.426269,0 2.287542,0.90951 0.709689,0.74414 0.709689,1.6812 0,1.32981 -1.453829,2.12218 0.868163,0.18603 1.384927,0.83371 0.523654,0.64768 0.523654,1.56407 0,1.32981 -0.971516,2.26687 -0.971516,0.93707 -2.418455,0.93707 -1.371147,0 -2.273762,-0.78548 -0.902614,-0.79237 -1.047308,-2.06706 z"
         id="path12092" />
    </g>
    <g
       aria-label="4"
       id="text7355-2"
       style="font-weight:bold;font-size:14.1111px;line-height:1.25;font-family:Arial;-inkscape-font-specification:'Arial, Bold';font-variant-ligatures:none;text-align:center;text-anchor:middle;display:inline;fill:#ff0000;stroke-width:2.64583"
       transform="translate(-3.1580794,-2.6178017)">
      <path
         d="m 197.79226,706.40948 v -2.0326 h -4.13411 v -1.69499 l 4.38216,-6.41476 h 1.62608 v 6.40787 h 1.25401 v 1.70188 h -1.25401 v 2.0326 z m 0,-3.73448 v -3.45198 l -2.32199,3.45198 z"
         id="path12089" />
    </g>
    <g
       aria-label="5"
       id="text7355-8"
       style="font-weight:bold;font-size:14.1111px;line-height:1.25;font-family:Arial;-inkscape-font-specification:'Arial, Bold';font-variant-ligatures:none;text-align:center;text-anchor:middle;display:inline;fill:#ff0000;stroke-width:2.64583"
       transform="translate(-2.6060639,-2.3145737)">
      <path
         d="m 108.43886,788.38891 1.92926,-0.19981 q 0.0827,0.65456 0.4892,1.04041 0.40652,0.37896 0.93706,0.37896 0.60634,0 1.02664,-0.4892 0.4203,-0.49609 0.4203,-1.48828 0,-0.93017 -0.4203,-1.39182 -0.41341,-0.46853 -1.08176,-0.46853 -0.83371,0 -1.49517,0.73725 l -1.57096,-0.22738 0.99219,-5.25721 h 5.1194 v 1.81212 h -3.65179 l -0.30317,1.71566 q 0.64767,-0.32384 1.32291,-0.32384 1.28847,0 2.18419,0.93706 0.89573,0.93707 0.89573,2.43224 0,1.24712 -0.72347,2.22553 -0.9853,1.3367 -2.73541,1.3367 -1.3987,0 -2.28065,-0.75103 -0.88194,-0.75103 -1.0542,-2.01883 z"
         id="path12086" />
    </g>
    <g
       aria-label="6"
       id="text7355-5"
       style="font-weight:bold;font-size:14.1111px;line-height:1.25;font-family:Arial;-inkscape-font-specification:'Arial, Bold';font-variant-ligatures:none;text-align:center;text-anchor:middle;display:inline;fill:#ff0000;stroke-width:2.64583"
       transform="translate(-2.46612,-2.3146037)">
      <path
         d="m 284.19203,783.44868 -1.87413,0.2067 q -0.0689,-0.57877 -0.35829,-0.85438 -0.28938,-0.27561 -0.75103,-0.27561 -0.61322,0 -1.04041,0.55122 -0.42031,0.55121 -0.53055,2.29443 0.72347,-0.85439 1.79834,-0.85439 1.21267,0 2.07395,0.92329 0.86816,0.92328 0.86816,2.384 0,1.55029 -0.90951,2.48736 -0.9095,0.93707 -2.33577,0.93707 -1.52962,0 -2.51492,-1.18512 -0.98529,-1.192 -0.98529,-3.89984 0,-2.77675 1.02664,-4.0032 1.02663,-1.22645 2.6665,-1.22645 1.15066,0 1.90169,0.64768 0.75792,0.64078 0.96462,1.86724 z m -4.38904,4.22368 q 0,0.94395 0.43408,1.46072 0.43408,0.50987 0.99218,0.50987 0.53744,0 0.89573,-0.4203 0.35829,-0.4203 0.35829,-1.37804 0,-0.98529 -0.38585,-1.44005 -0.38585,-0.46164 -0.96463,-0.46164 -0.5581,0 -0.94395,0.44097 -0.38585,0.43409 -0.38585,1.28847 z"
         id="path12083" />
    </g>
    <g
       aria-label="7"
       id="text7355-4"
       style="font-weight:bold;font-size:14.1111px;line-height:1.25;font-family:Arial;-inkscape-font-specification:'Arial, Bold';font-variant-ligatures:none;text-align:center;text-anchor:middle;display:inline;fill:#ff0000;stroke-width:2.64583"
       transform="translate(-2.6921939,-2.7214951)">
      <path
         d="m 108.52499,613.57793 v -1.79834 h 6.62147 v 1.4056 q -0.81994,0.80615 -1.66743,2.3151 -0.84749,1.50895 -1.29535,3.21083 -0.44098,1.69498 -0.43409,3.03168 h -1.86724 q 0.0482,-2.09462 0.86128,-4.27192 0.81993,-2.1773 2.18419,-3.89295 z"
         id="path12080" />
    </g>
    <g
       aria-label="8"
       id="text7355-83"
       style="font-weight:bold;font-size:14.1111px;line-height:1.25;font-family:Arial;-inkscape-font-specification:'Arial, Bold';font-variant-ligatures:none;text-align:center;text-anchor:middle;display:inline;fill:#ff0000;stroke-width:2.64583"
       transform="translate(-2.5173298,-2.7214901)">
      <path
         d="m 279.37234,616.29266 q -0.75103,-0.31695 -1.09554,-0.86816 -0.33762,-0.55811 -0.33762,-1.21957 0,-1.12999 0.78548,-1.86724 0.79237,-0.73725 2.2462,-0.73725 1.44005,0 2.23242,0.73725 0.79926,0.73725 0.79926,1.86724 0,0.7028 -0.36518,1.25402 -0.36518,0.54432 -1.02664,0.83371 0.84061,0.33762 1.27469,0.9853 0.44097,0.64768 0.44097,1.49517 0,1.39871 -0.89572,2.27376 -0.88884,0.87505 -2.37023,0.87505 -1.37804,0 -2.29443,-0.72347 -1.08176,-0.85438 -1.08176,-2.34266 0,-0.81993 0.40652,-1.50206 0.40652,-0.68902 1.28158,-1.06109 z m 0.39963,-1.94992 q 0,0.57877 0.32384,0.90261 0.33072,0.32384 0.87505,0.32384 0.55121,0 0.88194,-0.32384 0.33073,-0.33073 0.33073,-0.9095 0,-0.54433 -0.33073,-0.86817 -0.32384,-0.33072 -0.86127,-0.33072 -0.55811,0 -0.88883,0.33072 -0.33073,0.33073 -0.33073,0.87506 z m -0.17915,4.32704 q 0,0.79926 0.40652,1.24712 0.41341,0.44786 1.02664,0.44786 0.59945,0 0.99219,-0.42719 0.39274,-0.43408 0.39274,-1.24712 0,-0.70969 -0.39963,-1.13689 -0.39963,-0.43408 -1.01286,-0.43408 -0.70969,0 -1.06109,0.48921 -0.34451,0.4892 -0.34451,1.06109 z"
         id="path12077" />
    </g>
  </g>
  <g
     inkscape:groupmode="layer"
     id="layer6"
     inkscape:label="Line"
     style="display:inline" />
  <g
     inkscape:groupmode="layer"
     id="layer1"
     inkscape:label="Inverse Solid"
     style="display:inline">
    <g
       aria-label="OUT"
       id="text6865-2-31-1-4-7-6-1"
       style="font-weight:bold;font-size:21.1667px;line-height:1.25;font-family:Arial;-inkscape-font-specification:'Arial, Bold';font-variant-ligatures:none;text-align:center;text-anchor:middle;display:inline;fill:#252525;fill-opacity:1;stroke-width:2.64583"
       transform="translate(87.312496,-390.07818)">
      <path
         d="m 176.77471,839.02798 q 0,-2.3151 0.69247,-3.88607 0.51676,-1.15755 1.4056,-2.0774 0.89917,-0.91984 1.9637,-1.36426 1.41594,-0.59944 3.26596,-0.59944 3.34864,0 5.35369,2.07739 2.01538,2.0774 2.01538,5.77744 0,3.66903 -1.99471,5.74642 -1.99472,2.06706 -5.33302,2.06706 -3.37964,0 -5.37436,-2.05672 -1.99471,-2.06706 -1.99471,-5.68442 z m 3.15227,-0.10335 q 0,2.57349 1.18856,3.90674 1.18856,1.32292 3.01791,1.32292 1.82934,0 2.99723,-1.31258 1.17823,-1.32292 1.17823,-3.95842 0,-2.6045 -1.14722,-3.88608 -1.13688,-1.28157 -3.02824,-1.28157 -1.89136,0 -3.04892,1.30225 -1.15755,1.29191 -1.15755,3.90674 z"
         id="path3534"
         style="fill:#252525;fill-opacity:1" />
      <path
         d="m 193.8383,831.35919 h 3.05925 v 8.20623 q 0,1.95337 0.11368,2.53215 0.19637,0.93018 0.93018,1.49862 0.74414,0.5581 2.02572,0.5581 1.30225,0 1.96371,-0.5271 0.66146,-0.53743 0.79582,-1.31258 0.13436,-0.77515 0.13436,-2.57349 v -8.38193 h 3.05925 v 7.95818 q 0,2.72852 -0.24805,3.85507 -0.24805,1.12655 -0.91984,1.9017 -0.66146,0.77514 -1.77768,1.24023 -1.11621,0.45475 -2.91455,0.45475 -2.17042,0 -3.29696,-0.49609 -1.11622,-0.50643 -1.76734,-1.30225 -0.65112,-0.80615 -0.85783,-1.68465 -0.29972,-1.30225 -0.29972,-3.84474 z"
         id="path3536"
         style="fill:#252525;fill-opacity:1" />
      <path
         d="m 212.55553,846.51074 v -12.5884 h -4.49586 v -2.56315 h 12.04063 v 2.56315 h -4.48552 v 12.5884 z"
         id="path3538"
         style="fill:#252525;fill-opacity:1" />
    </g>
  </g>
  <g
     inkscape:groupmode="layer"
     id="layer8"
     inkscape:label="Inverse Line"
     style="display:inline" />
  <g
     inkscape:groupmode="layer"
     id="layer2"
     inkscape:label="Widget"
     style="display:none">
    <circle
       style="display:inline;fill:#ff0000;stroke:#ff0000;stroke-width:5.15744;stroke-opacity:1"
       id="path1065-7-2-8-1-2-9-9-2"
       cx="285.75"
       cy="369.09415"
       r="27.848814" />
    <circle
       style="display:inline;fill:#ff0000;stroke:#ff0000;stroke-width:5.15744;stroke-opacity:1"
       id="path1065-7-2-8-1-2-9-9"
       cx="305.59399"
       cy="813.59424"
       r="27.848814" />
    <circle
       style="display:inline;fill:#ff0000;stroke:#ff0000;stroke-width:5.15744;stroke-opacity:1"
       id="path1065-7-2-8-1-11-6-8-9"
       cx="220.92715"
       cy="898.26086"
       r="27.848814" />
    <circle
       style="display:inline;fill:#ff0000;stroke:#ff0000;stroke-width:5.15744;stroke-opacity:1"
       id="path1065-7-2-8-1-110-3-0-0"
       cx="136.26033"
       cy="813.59424"
       r="27.848814" />
    <circle
       style="display:inline;fill:#ff0000;stroke:#ff0000;stroke-width:5.15744;stroke-opacity:1"
       id="path1065-7-2-8-1-110-3-0-0-6"
       cx="51.59351"
       cy="898.26086"
       r="27.848814" />
    <circle
       style="display:inline;fill:#ff0000;stroke:#ff0000;stroke-width:5.15744;stroke-opacity:1"
       id="path1065-7-2-8-1-13-1-9-1"
       cx="71.437508"
       cy="369.09415"
       r="27.848814" />
    <circle
       style="display:inline;fill:#ff0000;stroke:#ff0000;stroke-width:5.15744;stroke-opacity:1"
       id="path1065-7-2-8-1-13-6-9-7-5"
       cx="178.59375"
       cy="369.09415"
       r="27.848814" />
    <circle
       style="display:inline;fill:#ff0000;stroke:#ff0000;stroke-width:5.15744;stroke-opacity:1"
       id="path1065-7-2-8-1-6-0-2-4-3"
       cx="285.75"
       cy="496.09488"
       r="27.848814" />
    <circle
       style="display:inline;fill:#ff0000;stroke:#ff0000;stroke-width:3.81202;stroke-opacity:1"
       id="path1065-7-2-8-1-1-3-1-5-6-7-3-4-0"
       cx="178.59248"
       cy="496.09488"
       r="35.135658" />
    <circle
       style="display:inline;fill:#ff0000;stroke:#ff0000;stroke-width:4.03622;stroke-opacity:1"
       id="path1065-7-2-3-2-2-65-4"
       cx="71.437508"
       cy="496.09488"
       r="21.794392" />
    <circle
       style="display:inline;fill:#ff0000;stroke:#ff0000;stroke-width:3.81202;stroke-opacity:1"
       id="path1065-7-2-8-1-1-3-1-5-6-7-3-4"
       cx="178.59375"
       cy="174.62502"
       r="35.135658" />
    <ellipse
       style="display:inline;fill:#ff0000;stroke:#ff0000;stroke-width:3.81202;stroke-opacity:1"
       id="path1065-7-2-8-1-1-3-1-5-6-7-3-4-2"
       cx="71.437508"
       cy="174.62502"
       rx="35.135662"
       ry="35.135658" />
    <ellipse
       style="display:inline;fill:#ff0000;stroke:#ff0000;stroke-width:3.81202;stroke-opacity:1"
       id="path1065-7-2-8-1-1-3-1-5-6-7-3-4-4"
       cx="285.75"
       cy="174.62502"
       rx="35.135662"
       ry="35.135658" />
    <circle
       style="display:inline;fill:#ff0000;stroke:#ff0000;stroke-width:5.15744;stroke-opacity:1"
       id="path1065-7-2-8-1-13-64-5-9-2"
       cx="136.26033"
       cy="644.26093"
       r="27.848814" />
    <ellipse
       style="display:inline;fill:#ff0000;stroke:#ff0000;stroke-width:5.15744;stroke-opacity:1"
       id="path1065-7-2-8-1-80-86-5-5"
       cx="51.59351"
       cy="728.92761"
       rx="27.848364"
       ry="27.848814" />
    <ellipse
       style="display:inline;fill:#ff0000;stroke:#ff0000;stroke-width:5.15744;stroke-opacity:1"
       id="path1065-7-2-8-1-80-8-9-2-7"
       cx="305.59399"
       cy="644.26093"
       rx="27.848364"
       ry="27.848814" />
    <circle
       style="display:inline;fill:#ff0000;stroke:#ff0000;stroke-width:5.15744;stroke-opacity:1"
       id="path1065-7-2-8-1-0-6-7-3-1"
       cx="178.59375"
       cy="275.16666"
       r="26.525448" />
    <circle
       style="display:inline;fill:#ff0000;stroke:#ff0000;stroke-width:5.15744;stroke-opacity:1"
       id="path1065-7-2-8-1-0-6-7-3-1-7"
       cx="285.75"
       cy="275.16666"
       r="26.525448" />
    <circle
       style="display:inline;fill:#ff0000;stroke:#ff0000;stroke-width:5.15744;stroke-opacity:1"
       id="path1065-7-2-8-1-0-6-7-3-1-0"
       cx="71.437508"
       cy="275.16666"
       r="26.525448" />
    <ellipse
       style="display:inline;fill:#ff0000;stroke:#ff0000;stroke-width:5.15744;stroke-opacity:1"
       id="path1065-7-2-8-1-80-5-1-2-5"
       cx="220.92715"
       cy="728.92761"
       rx="27.848364"
       ry="27.848814" />
  </g>
</svg>
