<?xml version="1.0" encoding="UTF-8" standalone="no"?>
<svg
   width="45"
   height="380"
   viewBox="0 0 45 380"
   version="1.1"
   id="svg100"
   sodipodi:docname="LinearMute_Coal.svg"
   inkscape:version="1.1.1 (3bf5ae0d25, 2021-09-20)"
   xmlns:inkscape="http://www.inkscape.org/namespaces/inkscape"
   xmlns:sodipodi="http://sodipodi.sourceforge.net/DTD/sodipodi-0.dtd"
   xmlns="http://www.w3.org/2000/svg"
   xmlns:svg="http://www.w3.org/2000/svg"
   xmlns:rdf="http://www.w3.org/1999/02/22-rdf-syntax-ns#"
   xmlns:cc="http://creativecommons.org/ns#"
   xmlns:dc="http://purl.org/dc/elements/1.1/">
  <metadata
     id="metadata104">
    <rdf:RDF>
      <cc:Work
         rdf:about="">
        <dc:format>image/svg+xml</dc:format>
        <dc:type
           rdf:resource="http://purl.org/dc/dcmitype/StillImage" />
      </cc:Work>
    </rdf:RDF>
  </metadata>
  <sodipodi:namedview
     pagecolor="#ffffff"
     bordercolor="#666666"
     borderopacity="1"
     objecttolerance="1"
     gridtolerance="1"
     guidetolerance="1"
     inkscape:pageopacity="0"
     inkscape:pageshadow="2"
     inkscape:window-width="1920"
     inkscape:window-height="1057"
     id="namedview102"
     showgrid="true"
     inkscape:zoom="2.2342105"
     inkscape:cx="91.9788"
     inkscape:cy="188.65725"
     inkscape:window-x="1592"
     inkscape:window-y="-8"
     inkscape:window-maximized="1"
     inkscape:current-layer="layer1"
     inkscape:pagecheckerboard="0"
     units="px"
     inkscape:showpageshadow="false">
    <inkscape:grid
       type="xygrid"
       id="grid1285"
       visible="false" />
  </sodipodi:namedview>
  <defs
     id="defs7">
    <rect
       x="85"
       y="10"
       width="51.058132"
       height="25"
       id="rect29906" />
    <linearGradient
       id="a8e142bb-541b-4903-be63-d5d069028a5d"
       x1="22.5"
       x2="22.5"
       y2="380"
       gradientUnits="userSpaceOnUse">
      <stop
         offset="0"
         stop-color="#ebebeb"
         id="stop2" />
      <stop
         offset="1"
         stop-color="#e1e1e1"
         id="stop4" />
    </linearGradient>
  </defs>
  <g
     id="aea613ef-74be-49bf-be45-c0734aee674b"
     data-name="FND BG"
     style="fill:#252525;fill-opacity:1">
    <rect
       width="45"
       height="380"
       fill="url(#a8e142bb-541b-4903-be63-d5d069028a5d)"
       id="rect9"
       style="fill:#252525;fill-opacity:1"
       x="0"
       y="0" />
  </g>
  <g
     id="f45e0130-37b7-4f8b-95b3-6408baa23eb1"
     data-name="components"
     style="display:inline"
     inkscape:groupmode="layer">
    <g
       aria-label="A"
       id="text9323-6-3-6-1"
       style="font-weight:bold;font-size:8px;line-height:1.25;font-family:Arial;-inkscape-font-specification:'Arial, Bold';font-variant-ligatures:none;text-align:center;text-anchor:middle;fill:#ede7dc;fill-opacity:1"
       transform="translate(-2)">
      <path
         d="m 40.373047,68 h -1.257813 l -0.5,-1.300781 H 36.326172 L 35.853516,68 h -1.226563 l 2.230469,-5.726563 h 1.222656 z m -2.128906,-2.265625 -0.789063,-2.125 -0.773437,2.125 z"
         id="path3404"
         style="fill:#ede7dc;fill-opacity:1" />
    </g>
    <g
       aria-label="B"
       id="text9323-6-3-6-1-45"
       style="font-weight:bold;font-size:8px;line-height:1.25;font-family:Arial;-inkscape-font-specification:'Arial, Bold';font-variant-ligatures:none;text-align:center;text-anchor:middle;display:inline;fill:#ede7dc;fill-opacity:1"
       transform="translate(-2)">
      <path
         d="m 35.101562,93.82357 h 2.289063 q 0.679687,0 1.011719,0.05859 0.335937,0.05469 0.597656,0.234375 0.265625,0.179688 0.441406,0.480469 0.175781,0.296875 0.175781,0.667969 0,0.402343 -0.21875,0.738281 -0.214843,0.335937 -0.585937,0.503906 0.523437,0.152344 0.804687,0.519531 0.28125,0.367188 0.28125,0.863282 0,0.390625 -0.183593,0.761718 -0.179688,0.367188 -0.496094,0.589844 -0.3125,0.21875 -0.773438,0.269531 -0.289062,0.03125 -1.394531,0.03906 h -1.949219 z m 1.15625,0.953125 v 1.324219 h 0.757813 q 0.675781,0 0.839844,-0.01953 0.296875,-0.03516 0.464843,-0.203125 0.171875,-0.171875 0.171875,-0.449219 0,-0.265625 -0.148437,-0.429687 -0.144531,-0.167969 -0.433594,-0.203125 -0.171875,-0.01953 -0.988281,-0.01953 z m 0,2.277344 v 1.53125 h 1.070313 q 0.625,0 0.792969,-0.03516 0.257812,-0.04687 0.417968,-0.226563 0.164063,-0.183593 0.164063,-0.488281 0,-0.257812 -0.125,-0.4375 -0.125,-0.179687 -0.363281,-0.261719 -0.234375,-0.08203 -1.023438,-0.08203 z"
         id="path3407"
         style="fill:#ede7dc;fill-opacity:1" />
    </g>
    <g
       aria-label="C"
       id="text9323-6-3-6-1-0"
       style="font-weight:bold;font-size:8px;line-height:1.25;font-family:Arial;-inkscape-font-specification:'Arial, Bold';font-variant-ligatures:none;text-align:center;text-anchor:middle;display:inline;fill:#ede7dc;fill-opacity:1"
       transform="translate(-2)">
      <path
         d="m 38.873047,128.9948 1.121094,0.35547 q -0.257813,0.9375 -0.859375,1.39453 -0.597657,0.45312 -1.519532,0.45312 -1.140625,0 -1.875,-0.77734 -0.734375,-0.78125 -0.734375,-2.13281 0,-1.42969 0.738282,-2.21875 0.738281,-0.79297 1.941406,-0.79297 1.050781,0 1.707031,0.62109 0.390625,0.36719 0.585938,1.05469 l -1.144532,0.27344 q -0.101562,-0.44532 -0.425781,-0.70313 -0.320312,-0.25781 -0.78125,-0.25781 -0.636719,0 -1.035156,0.45703 -0.394531,0.45703 -0.394531,1.48047 0,1.08594 0.390625,1.54687 0.390625,0.46094 1.015625,0.46094 0.460937,0 0.792968,-0.29297 0.332032,-0.29297 0.476563,-0.92187 z"
         id="path3410"
         style="fill:#ede7dc;fill-opacity:1" />
    </g>
    <g
       aria-label="D"
       id="text9323-6-3-6-1-2"
       style="font-weight:bold;font-size:8px;line-height:1.25;font-family:Arial;-inkscape-font-specification:'Arial, Bold';font-variant-ligatures:none;text-align:center;text-anchor:middle;display:inline;fill:#ede7dc;fill-opacity:1"
       transform="translate(-2)">
      <path
         d="m 35.099609,156.92383 h 2.113282 q 0.714843,0 1.089843,0.10937 0.503907,0.14844 0.863282,0.52735 0.359375,0.3789 0.546875,0.92968 0.1875,0.54688 0.1875,1.35157 0,0.70703 -0.175782,1.21875 -0.214843,0.625 -0.613281,1.01172 -0.300781,0.29296 -0.8125,0.45703 -0.382812,0.12109 -1.023437,0.12109 h -2.175782 z m 1.15625,0.96875 v 3.79297 h 0.863282 q 0.484375,0 0.699218,-0.0547 0.28125,-0.0703 0.464844,-0.23828 0.1875,-0.16797 0.304688,-0.55078 0.117187,-0.38672 0.117187,-1.05078 0,-0.66407 -0.117187,-1.01954 -0.117188,-0.35546 -0.328125,-0.55468 -0.210938,-0.19922 -0.535157,-0.26953 -0.242187,-0.0547 -0.949218,-0.0547 z"
         id="path3413"
         style="fill:#ede7dc;fill-opacity:1" />
    </g>
    <g
       aria-label="E"
       id="text9323-6-3-6-1-1"
       style="font-weight:bold;font-size:8px;line-height:1.25;font-family:Arial;-inkscape-font-specification:'Arial, Bold';font-variant-ligatures:none;text-align:center;text-anchor:middle;display:inline;fill:#ede7dc;fill-opacity:1"
       transform="translate(-2)">
      <path
         d="m 35.322266,194.20053 v -5.72656 h 4.246093 v 0.96875 h -3.089843 v 1.26953 h 2.875 v 0.96484 h -2.875 v 1.5586 h 3.199218 v 0.96484 z"
         id="path3416"
         style="fill:#ede7dc;fill-opacity:1" />
    </g>
    <g
       aria-label="F"
       id="text9323-6-3-6-1-7"
       style="font-weight:bold;font-size:8px;line-height:1.25;font-family:Arial;-inkscape-font-specification:'Arial, Bold';font-variant-ligatures:none;text-align:center;text-anchor:middle;display:inline;fill:#ede7dc;fill-opacity:1"
       transform="translate(-2)">
      <path
         d="m 35.537109,225.75066 v -5.72657 h 3.925782 v 0.96875 h -2.769532 v 1.35547 h 2.390625 v 0.96875 h -2.390625 v 2.4336 z"
         id="path3419"
         style="fill:#ede7dc;fill-opacity:1" />
    </g>
    <g
       aria-label="G"
       id="text9323-6-3-6-1-9"
       style="font-weight:bold;font-size:8px;line-height:1.25;font-family:Arial;-inkscape-font-specification:'Arial, Bold';font-variant-ligatures:none;text-align:center;text-anchor:middle;display:inline;fill:#ede7dc;fill-opacity:1"
       transform="translate(-2)">
      <path
         d="m 37.685547,255.19531 v -0.96484 h 2.492187 v 2.28125 q -0.363281,0.35156 -1.054687,0.62109 -0.6875,0.26563 -1.394531,0.26563 -0.898438,0 -1.566407,-0.375 -0.667968,-0.37891 -1.003906,-1.07813 -0.335937,-0.70312 -0.335937,-1.52734 0,-0.89453 0.375,-1.58985 0.375,-0.69531 1.097656,-1.0664 0.550781,-0.28516 1.371094,-0.28516 1.066406,0 1.664062,0.44922 0.601563,0.44531 0.773438,1.23438 l -1.148438,0.21484 q -0.121094,-0.42188 -0.457031,-0.66406 -0.332031,-0.2461 -0.832031,-0.2461 -0.757813,0 -1.207032,0.48047 -0.445312,0.48047 -0.445312,1.42578 0,1.01953 0.453125,1.53125 0.453125,0.50782 1.1875,0.50782 0.363281,0 0.726562,-0.14063 0.367188,-0.14453 0.628907,-0.34766 v -0.72656 z"
         id="path3422"
         style="fill:#ede7dc;fill-opacity:1" />
    </g>
    <g
       aria-label="H"
       id="text9323-6-3-6-1-74"
       style="font-weight:bold;font-size:8px;line-height:1.25;font-family:Arial;-inkscape-font-specification:'Arial, Bold';font-variant-ligatures:none;text-align:center;text-anchor:middle;display:inline;fill:#ede7dc;fill-opacity:1"
       transform="translate(-2)">
      <path
         d="m 35.210937,288.85092 v -5.72656 h 1.15625 v 2.25391 h 2.265625 v -2.25391 h 1.15625 v 5.72656 h -1.15625 v -2.5039 h -2.265625 v 2.5039 z"
         id="path3425"
         style="fill:#ede7dc;fill-opacity:1" />
    </g>
    <g
       aria-label="I"
       id="text9323-6-3-6-1-5"
       style="font-weight:bold;font-size:8px;line-height:1.25;font-family:Arial;-inkscape-font-specification:'Arial, Bold';font-variant-ligatures:none;text-align:center;text-anchor:middle;display:inline;fill:#ede7dc;fill-opacity:1"
       transform="translate(-2)">
      <path
         d="m 36.921875,320.40106 v -5.72656 h 1.15625 v 5.72656 z"
         id="path3428"
         style="fill:#ede7dc;fill-opacity:1" />
    </g>
    <g
       id="g18313"
       transform="translate(102.37402)"
       style="fill:#ede7dc;fill-opacity:1">
      <g
         aria-label="LIN"
         id="text12534"
         style="font-weight:bold;font-size:12px;line-height:1.25;font-family:Arial;-inkscape-font-specification:'Arial, Bold';font-variant-ligatures:none;text-align:center;text-anchor:middle;fill:#ede7dc;fill-opacity:1">
        <path
           d="M -88.598633,14.462696 V 5.9431648 h 1.734375 V 13.01543 h 4.3125 v 1.447266 z"
           id="path20986"
           style="fill:#ede7dc;fill-opacity:1" />
        <path
           d="M -81.368164,14.462696 V 5.8728523 h 1.734375 v 8.5898437 z"
           id="path20988"
           style="fill:#ede7dc;fill-opacity:1" />
        <path
           d="M -77.963867,14.462696 V 5.8728523 h 1.6875 l 3.515625,5.7363277 V 5.8728523 h 1.611328 v 8.5898437 h -1.740234 l -3.462891,-5.6015624 v 5.6015624 z"
           id="path20990"
           style="fill:#ede7dc;fill-opacity:1" />
      </g>
      <g
         aria-label="MUTE"
         id="text12534-6"
         style="font-weight:bold;font-size:12px;line-height:1.25;font-family:Arial;-inkscape-font-specification:'Arial, Bold';font-variant-ligatures:none;text-align:center;text-anchor:middle;display:inline;fill:#ede7dc;fill-opacity:1">
        <path
           d="m -96.148437,26.8596 v -8.589844 h 2.595703 l 1.558593,5.859375 1.541016,-5.859375 h 2.601563 V 26.8596 h -1.611329 v -6.761719 l -1.705078,6.761719 h -1.669922 l -1.699218,-6.761719 V 26.8596 Z"
           id="path20993"
           style="fill:#ede7dc;fill-opacity:1" />
        <path
           d="m -86.140625,18.269756 h 1.734375 V 22.9221 q 0,1.107422 0.06445,1.435547 0.111328,0.527344 0.527344,0.849609 0.421875,0.316407 1.148437,0.316407 0.738282,0 1.113282,-0.298829 0.375,-0.304687 0.451172,-0.74414 0.07617,-0.439453 0.07617,-1.458985 v -4.751953 h 1.734375 v 4.511719 q 0,1.546875 -0.140625,2.185547 -0.140625,0.638672 -0.521484,1.078125 -0.375,0.439453 -1.007812,0.703125 -0.632813,0.257812 -1.652344,0.257812 -1.230469,0 -1.869141,-0.28125 -0.632812,-0.287109 -1.001953,-0.738281 -0.369141,-0.457031 -0.486328,-0.955078 -0.169922,-0.738281 -0.169922,-2.179687 z"
           id="path20995"
           style="fill:#ede7dc;fill-opacity:1" />
        <path
           d="m -75.529297,26.8596 v -7.136719 h -2.548828 v -1.453125 h 6.826172 v 1.453125 h -2.542969 V 26.8596 Z"
           id="path20997"
           style="fill:#ede7dc;fill-opacity:1" />
        <path
           d="m -70.132812,26.8596 v -8.589844 h 6.36914 v 1.453125 h -4.634765 v 1.904297 h 4.3125 v 1.447266 h -4.3125 v 2.33789 h 4.798828 V 26.8596 Z"
           id="path20999"
           style="fill:#ede7dc;fill-opacity:1" />
      </g>
    </g>
  </g>
  <g
     id="g42796"
     transform="matrix(0.30458296,0,0,0.30458296,-0.5624499,-12.68508)"
     style="fill:#ff0000">
    <g
       aria-label="enom"
       id="text4270-27"
       style="font-size:49.3889px;line-height:1.25;font-family:'NECK ROMANCER';-inkscape-font-specification:'NECK ROMANCER, Normal';font-variant-ligatures:none;text-align:center;text-anchor:middle;fill:#ff0000;stroke-width:2.64583">
      <path
         d="m 46.609141,1249.244 q 0,1.1576 0,3.4245 3.183269,0 9.453344,0 -1.639866,0.5787 -2.990343,1.2058 -1.350478,0.627 -2.363337,1.688 -1.350477,0 -4.051433,0 0,1.4952 0.434082,2.5563 0.385851,1.1093 1.832792,1.1093 2.266873,0 6.80062,0 0.482313,-0.1447 0.868164,-0.627 0.337619,-0.5305 0.627007,-1.7363 0,2.0257 0,6.1254 -3.520888,0 -10.562665,0 -1.543403,0 -2.652724,-2.2187 -1.109321,-2.1704 -1.109321,-6.3183 0,-1.9775 0,-5.836 -0.385851,-1.3504 -1.881023,-2.1221 -1.495171,-0.7235 -3.569119,-1.2058 6.607694,0 19.774852,0 0,2.9421 0,8.7781 -1.205783,-2.701 -2.218642,-3.6656 -1.012858,-0.9646 -2.700955,-1.1093 -0.916396,-0.097 -2.170411,-0.097 -1.205783,0.048 -2.845649,0.048 -0.241157,0 -0.675239,0 z"
         id="path42762"
         style="fill:#ff0000" />
      <path
         d="m 81.576869,1245.2891 q 0,5.8842 0,17.7009 0,3.0868 -0.144694,6.0771 -0.09646,3.0386 -0.337619,5.9325 -0.385851,-3.7138 -0.964627,-6.9936 -0.530545,-3.3279 -2.025717,-5.016 0,-2.9904 0,-8.9228 -0.241157,-1.3505 -0.72347,-2.2187 -0.482314,-0.8681 -1.06109,-1.3987 -1.109321,-1.0128 -2.411567,-1.1093 -1.350478,-0.097 -2.266874,-0.097 -0.482313,0 -1.44694,0 0,4.582 0,13.746 0,3.0868 -0.09646,6.0771 -0.144694,3.0386 -0.385851,5.9325 -0.38585,-3.7138 -0.916395,-6.9936 -0.578776,-3.3279 -2.025717,-5.016 0,-4.8232 0,-14.373 -0.385851,-1.3504 -1.881022,-2.1221 -1.495172,-0.7235 -3.56912,-1.2058 6.752389,0 20.257166,0 z"
         id="path42764"
         style="fill:#ff0000" />
      <path
         d="m 104.19737,1249.0511 q 0,3.3762 0,10.1768 0,1.5434 -1.92925,2.6528 -1.92926,1.1093 -6.077152,1.1093 -4.196128,0 -6.125382,-1.1093 -1.929254,-1.1094 -1.929254,-2.6528 0,-3.3762 0,-10.1768 0,-1.5434 1.929254,-2.6527 1.929254,-1.1093 6.125382,-1.1093 4.147892,0 6.077152,1.1093 1.92925,1.1093 1.92925,2.6527 z m -3.76204,7.91 q 0,-1.8811 0,-5.6431 0,-1.6881 -1.254019,-1.9775 -1.205783,-0.2894 -2.990343,-0.2894 -1.832792,0 -3.038575,0.2894 -1.254015,0.2894 -1.254015,1.9775 0,1.881 0,5.6431 0,1.6881 1.254015,1.9774 1.205783,0.2894 3.038575,0.2894 1.78456,0 2.990343,-0.2894 1.254019,-0.2893 1.254019,-1.9774 z"
         id="path42766"
         style="fill:#ff0000" />
      <path
         d="m 142.34837,1245.2891 q -2.02572,0.4823 -3.52089,1.2058 -1.5434,0.7717 -1.88102,2.1221 0,4.7749 0,14.373 -1.49517,1.6881 -2.02572,5.016 -0.57878,3.2798 -0.96463,6.9936 -0.24115,-2.8939 -0.33762,-5.9325 -0.14469,-2.9903 -0.14469,-6.0771 0,-4.582 0,-13.746 -0.48231,0 -1.39871,0 -0.53054,0 -1.15755,0 -0.62701,0 -1.30225,0.1447 -1.25401,0.2412 -2.41157,1.2058 -1.15755,0.9646 -1.63986,3.4727 0,2.9903 0,8.9228 -0.1447,0.627 -0.28939,1.1093 -0.0965,0.4823 -0.19292,0.8199 -0.53055,1.9775 -0.38586,1.3505 0.19293,-0.627 -0.28938,1.1576 -0.0965,0.3376 -0.24116,0.8681 -0.14469,0.5306 -0.33762,1.3023 -0.14469,-0.6753 -0.28939,-1.2058 -0.14469,-0.4823 -0.24115,-0.8199 -0.53055,-2.0258 -0.33762,-1.3023 0.19292,0.7717 -0.43409,-1.6881 -0.0482,-0.2894 -0.19292,-0.7235 -0.0965,-0.3858 -0.19293,-0.8681 0,-2.9904 0,-8.9228 -0.28939,-1.3505 -0.7717,-2.2187 -0.48231,-0.8681 -1.06109,-1.3987 -1.10932,-1.0128 -2.41157,-1.1093 -1.30224,-0.097 -2.26687,-0.097 -0.48231,0 -1.39871,0 0,4.582 0,13.746 0,3.0868 -0.14469,6.0771 -0.0965,3.0386 -0.33762,5.9325 -0.38585,-3.7138 -0.96463,-6.9936 -0.53054,-3.3279 -2.02572,-5.016 0,-4.8232 0,-14.373 -0.38585,-1.3504 -1.88102,-2.1221 -1.49517,-0.7235 -3.56912,-1.2058 3.95497,0 11.76845,0 1.15755,0.3858 3.47266,1.1575 0.7717,0.2894 1.59163,0.4341 0.81994,0.1447 1.6881,0.1447 0.86816,0 1.73633,-0.1447 0.81993,-0.1447 1.59163,-0.4341 1.15756,-0.3858 3.42443,-1.1575 3.95497,0 11.76845,0 z"
         id="path42768"
         style="fill:#ff0000" />
    </g>
    <g
       aria-label="V"
       transform="matrix(1.2363173,0,0,0.80885384,-497.88086,123.48586)"
       id="text4270-3-5-2"
       style="font-size:78.5061px;line-height:1.25;font-family:Nosferotica;-inkscape-font-specification:'Nosferotica, Normal';font-variant-ligatures:none;text-align:center;text-anchor:middle;fill:#ff0000;stroke-width:3.27108">
      <path
         d="m 431.64994,1360.6864 8.57428,-0.1022 c 0,0 -4.4079,1.0878 -5.59925,3.7285 -1.88083,4.1689 -3.64217,14.6628 -3.64217,14.6628 l -2.23339,11.5191 -1.83311,11.8311 -1.71824,21.3112 -1.69514,-21.3112 -1.92196,-11.5208 -2.5009,-11.8294 c 0,0 -1.52027,-10.287 -3.38278,-14.4832 -1.14458,-2.5787 -5.63367,-3.8059 -5.63367,-3.8059 h 8.4657 l 6.66875,29.1569 z"
         id="path30410"
         sodipodi:nodetypes="ccscccccccscccc"
         style="fill:#ff0000" />
    </g>
  </g>
  <text
     xml:space="preserve"
     id="text29904"
     style="font-weight:bold;font-size:8px;line-height:1.25;font-family:Arial;-inkscape-font-specification:'Arial, Bold';font-variant-ligatures:none;text-align:center;white-space:pre;shape-inside:url(#rect29906)" />
  <g
     inkscape:groupmode="layer"
     id="layer1"
     inkscape:label="Widgets"
     style="display:none">
    <circle
       style="fill:#ff0000;stroke:#ff0000;stroke-width:1.94925;stroke-opacity:1"
       id="path1065"
       cx="22.5"
       cy="308.94446"
       r="10.525375" />
    <circle
       style="fill:#ff0000;stroke:#ff0000;stroke-width:1.94925;stroke-opacity:1"
       id="path1065-7"
       cx="22.5"
       cy="277.38889"
       r="10.525375" />
    <circle
       style="fill:#ff0000;stroke:#ff0000;stroke-width:1.94925;stroke-opacity:1"
       id="path1065-7-1"
       cx="22.5"
       cy="245.83333"
       r="10.525375" />
    <circle
       style="display:inline;fill:#ff0000;stroke:#ff0000;stroke-width:1.94925;stroke-opacity:1"
       id="path1065-7-1-8"
       cx="22.5"
       cy="214.27777"
       r="10.525375" />
    <circle
       style="display:inline;fill:#ff0000;stroke:#ff0000;stroke-width:1.94925;stroke-opacity:1"
       id="path1065-7-1-17"
       cx="22.5"
       cy="182.72223"
       r="10.525375" />
    <circle
       style="display:inline;fill:#ff0000;stroke:#ff0000;stroke-width:1.94925;stroke-opacity:1"
       id="path1065-7-1-89"
       cx="22.5"
       cy="151.16666"
       r="10.525375" />
    <circle
       style="display:inline;fill:#ff0000;stroke:#ff0000;stroke-width:1.94925;stroke-opacity:1"
       id="path1065-7-1-2"
       cx="22.5"
       cy="119.61111"
       r="10.525375" />
    <circle
       style="display:inline;fill:#ff0000;stroke:#ff0000;stroke-width:1.94925;stroke-opacity:1"
       id="path1065-7-1-7"
       cx="22.5"
       cy="88.055557"
       r="10.525375" />
    <circle
       style="display:inline;fill:#ff0000;stroke:#ff0000;stroke-width:1.94925;stroke-opacity:1"
       id="path1065-7-1-15"
       cx="22.5"
       cy="56.5"
       r="10.525375" />
  </g>
  <g
     inkscape:groupmode="layer"
     id="layer2"
     inkscape:label="Text Labels"
     style="display:inline" />
</svg>
