<?xml version="1.0" encoding="UTF-8" standalone="no"?>
<svg
   width="75"
   height="380"
   viewBox="0 0 75 380"
   version="1.1"
   id="svg100"
   sodipodi:docname="LinearBeatsExpander_Coal.svg"
   inkscape:version="1.1.1 (3bf5ae0d25, 2021-09-20)"
   xmlns:inkscape="http://www.inkscape.org/namespaces/inkscape"
   xmlns:sodipodi="http://sodipodi.sourceforge.net/DTD/sodipodi-0.dtd"
   xmlns="http://www.w3.org/2000/svg"
   xmlns:svg="http://www.w3.org/2000/svg"
   xmlns:rdf="http://www.w3.org/1999/02/22-rdf-syntax-ns#"
   xmlns:cc="http://creativecommons.org/ns#"
   xmlns:dc="http://purl.org/dc/elements/1.1/">
  <metadata
     id="metadata104">
    <rdf:RDF>
      <cc:Work
         rdf:about="">
        <dc:format>image/svg+xml</dc:format>
        <dc:type
           rdf:resource="http://purl.org/dc/dcmitype/StillImage" />
      </cc:Work>
    </rdf:RDF>
  </metadata>
  <sodipodi:namedview
     pagecolor="#ffffff"
     bordercolor="#666666"
     borderopacity="1"
     objecttolerance="1"
     gridtolerance="1"
     guidetolerance="1"
     inkscape:pageopacity="0"
     inkscape:pageshadow="2"
     inkscape:window-width="1920"
     inkscape:window-height="1057"
     id="namedview102"
     showgrid="true"
     inkscape:zoom="2.2342105"
     inkscape:cx="37.597174"
     inkscape:cy="190"
     inkscape:window-x="1592"
     inkscape:window-y="-8"
     inkscape:window-maximized="1"
     inkscape:current-layer="svg100"
     inkscape:pagecheckerboard="0"
     units="px"
     inkscape:showpageshadow="false">
    <inkscape:grid
       type="xygrid"
       id="grid1285"
       visible="false" />
  </sodipodi:namedview>
  <defs
     id="defs7">
    <rect
       x="85"
       y="10"
       width="51.058132"
       height="25"
       id="rect29906" />
    <linearGradient
       id="a8e142bb-541b-4903-be63-d5d069028a5d"
       x1="22.5"
       x2="22.5"
       y2="380"
       gradientUnits="userSpaceOnUse">
      <stop
         offset="0"
         stop-color="#ebebeb"
         id="stop2" />
      <stop
         offset="1"
         stop-color="#e1e1e1"
         id="stop4" />
    </linearGradient>
  </defs>
  <g
     id="aea613ef-74be-49bf-be45-c0734aee674b"
     data-name="FND BG"
     style="fill:#252525;fill-opacity:1"
     transform="scale(1.6666667,1)">
    <rect
       width="45"
       height="380"
       fill="url(#a8e142bb-541b-4903-be63-d5d069028a5d)"
       id="rect9"
       style="fill:#252525;fill-opacity:1"
       x="0"
       y="0" />
  </g>
  <g
     id="f45e0130-37b7-4f8b-95b3-6408baa23eb1"
     data-name="components"
     style="display:inline"
     inkscape:groupmode="layer">
    <g
       id="g41787"
       style="fill:#ede7dc;fill-opacity:1">
      <g
         aria-label="DISABLE"
         id="text37710"
         style="font-weight:bold;font-size:8px;line-height:1.25;font-family:Arial;-inkscape-font-specification:'Arial, Bold';font-variant-ligatures:none;text-align:center;text-anchor:middle;fill:#ede7dc;fill-opacity:1">
        <path
           d="m 20.431641,326.16653 h 2.113281 q 0.714844,0 1.089844,0.10938 0.503906,0.14844 0.863281,0.52734 0.359375,0.37891 0.546875,0.92969 0.1875,0.54688 0.1875,1.35156 0,0.70703 -0.175781,1.21875 -0.214844,0.625 -0.613282,1.01172 -0.300781,0.29297 -0.8125,0.45703 -0.382812,0.1211 -1.023437,0.1211 h -2.175781 z m 1.15625,0.96875 v 3.79297 h 0.863281 q 0.484375,0 0.699219,-0.0547 0.28125,-0.0703 0.464843,-0.23829 0.1875,-0.16796 0.304688,-0.55078 0.117187,-0.38672 0.117187,-1.05078 0,-0.66406 -0.117187,-1.01953 -0.117188,-0.35547 -0.328125,-0.55469 -0.210938,-0.19922 -0.535156,-0.26953 -0.242188,-0.0547 -0.949219,-0.0547 z"
           id="path41698"
           style="fill:#ede7dc;fill-opacity:1" />
        <path
           d="m 26.177734,331.8931 v -5.72657 h 1.15625 v 5.72657 z"
           id="path41700"
           style="fill:#ede7dc;fill-opacity:1" />
        <path
           d="m 28.142578,330.02982 1.125,-0.10938 q 0.101563,0.56641 0.410156,0.83203 0.3125,0.26563 0.839844,0.26563 0.558594,0 0.839844,-0.23438 0.285156,-0.23828 0.285156,-0.55469 0,-0.20312 -0.121094,-0.34375 -0.117187,-0.14453 -0.414062,-0.25 -0.203125,-0.0703 -0.925781,-0.25 -0.929688,-0.23046 -1.304688,-0.5664 -0.527344,-0.47266 -0.527344,-1.15235 0,-0.4375 0.246094,-0.8164 0.25,-0.38281 0.714844,-0.58203 0.46875,-0.19922 1.128906,-0.19922 1.078125,0 1.621094,0.47265 0.546875,0.47266 0.574219,1.26172 l -1.15625,0.0508 q -0.07422,-0.4414 -0.320313,-0.63281 -0.242187,-0.19531 -0.730469,-0.19531 -0.503906,0 -0.789062,0.20703 -0.183594,0.13281 -0.183594,0.35547 0,0.20312 0.171875,0.34766 0.21875,0.18359 1.0625,0.38281 0.84375,0.19922 1.246094,0.41406 0.40625,0.21094 0.632812,0.58203 0.230469,0.36719 0.230469,0.91016 0,0.49219 -0.273437,0.92187 -0.273438,0.42969 -0.773438,0.64063 -0.5,0.20703 -1.246094,0.20703 -1.085937,0 -1.667968,-0.5 -0.582032,-0.50391 -0.695313,-1.46484 z"
           id="path41702"
           style="fill:#ede7dc;fill-opacity:1" />
        <path
           d="m 38.935547,331.8931 h -1.257813 l -0.5,-1.30078 h -2.289062 l -0.472656,1.30078 h -1.226563 l 2.230469,-5.72657 h 1.222656 z m -2.128906,-2.26563 -0.789063,-2.125 -0.773437,2.125 z"
           id="path41704"
           style="fill:#ede7dc;fill-opacity:1" />
        <path
           d="m 39.552734,326.16653 h 2.289063 q 0.679687,0 1.011719,0.0586 0.335937,0.0547 0.597656,0.23437 0.265625,0.17969 0.441406,0.48047 0.175781,0.29688 0.175781,0.66797 0,0.40234 -0.21875,0.73828 -0.214843,0.33594 -0.585937,0.50391 0.523437,0.15234 0.804687,0.51953 0.28125,0.36719 0.28125,0.86328 0,0.39063 -0.183593,0.76172 -0.179688,0.36719 -0.496094,0.58984 -0.3125,0.21875 -0.773438,0.26953 -0.289062,0.0312 -1.394531,0.0391 h -1.949219 z m 1.15625,0.95313 v 1.32422 h 0.757813 q 0.675781,0 0.839844,-0.0195 0.296875,-0.0352 0.464843,-0.20313 0.171875,-0.17187 0.171875,-0.44922 0,-0.26562 -0.148437,-0.42968 -0.144531,-0.16797 -0.433594,-0.20313 -0.171875,-0.0195 -0.988281,-0.0195 z m 0,2.27734 v 1.53125 h 1.070313 q 0.625,0 0.792969,-0.0351 0.257812,-0.0469 0.417968,-0.22657 0.164063,-0.18359 0.164063,-0.48828 0,-0.25781 -0.125,-0.4375 -0.125,-0.17968 -0.363281,-0.26172 -0.234375,-0.082 -1.023438,-0.082 z"
           id="path41706"
           style="fill:#ede7dc;fill-opacity:1" />
        <path
           d="m 45.357422,331.8931 v -5.67969 h 1.15625 v 4.71484 h 2.875 v 0.96485 z"
           id="path41708"
           style="fill:#ede7dc;fill-opacity:1" />
        <path
           d="m 50.212891,331.8931 v -5.72657 h 4.246093 v 0.96875 h -3.089843 v 1.26954 h 2.875 v 0.96484 h -2.875 v 1.55859 h 3.199218 v 0.96485 z"
           id="path41710"
           style="fill:#ede7dc;fill-opacity:1" />
      </g>
      <g
         aria-label="A"
         id="text9323-6-3-6-1"
         style="font-weight:bold;font-size:8px;line-height:1.25;font-family:Arial;-inkscape-font-specification:'Arial, Bold';font-variant-ligatures:none;text-align:center;text-anchor:middle;fill:#ede7dc;fill-opacity:1"
         transform="translate(0.5,-8.6367185)">
        <path
           d="m 40.373047,68 h -1.257813 l -0.5,-1.300781 H 36.326172 L 35.853516,68 h -1.226563 l 2.230469,-5.726563 h 1.222656 z m -2.128906,-2.265625 -0.789063,-2.125 -0.773437,2.125 z"
           id="path3404"
           style="fill:#ede7dc;fill-opacity:1" />
      </g>
      <g
         aria-label="B"
         id="text9323-6-3-6-1-45"
         style="font-weight:bold;font-size:8px;line-height:1.25;font-family:Arial;-inkscape-font-specification:'Arial, Bold';font-variant-ligatures:none;text-align:center;text-anchor:middle;display:inline;fill:#ede7dc;fill-opacity:1"
         transform="translate(0.5000005,-8.6312943)">
        <path
           d="m 35.101562,93.82357 h 2.289063 q 0.679687,0 1.011719,0.05859 0.335937,0.05469 0.597656,0.234375 0.265625,0.179688 0.441406,0.480469 0.175781,0.296875 0.175781,0.667969 0,0.402343 -0.21875,0.738281 -0.214843,0.335937 -0.585937,0.503906 0.523437,0.152344 0.804687,0.519531 0.28125,0.367188 0.28125,0.863282 0,0.390625 -0.183593,0.761718 -0.179688,0.367188 -0.496094,0.589844 -0.3125,0.21875 -0.773438,0.269531 -0.289062,0.03125 -1.394531,0.03906 h -1.949219 z m 1.15625,0.953125 v 1.324219 h 0.757813 q 0.675781,0 0.839844,-0.01953 0.296875,-0.03516 0.464843,-0.203125 0.171875,-0.171875 0.171875,-0.449219 0,-0.265625 -0.148437,-0.429687 -0.144531,-0.167969 -0.433594,-0.203125 -0.171875,-0.01953 -0.988281,-0.01953 z m 0,2.277344 v 1.53125 h 1.070313 q 0.625,0 0.792969,-0.03516 0.257812,-0.04687 0.417968,-0.226563 0.164063,-0.183593 0.164063,-0.488281 0,-0.257812 -0.125,-0.4375 -0.125,-0.179687 -0.363281,-0.261719 -0.234375,-0.08203 -1.023438,-0.08203 z"
           id="path3407"
           style="fill:#ede7dc;fill-opacity:1" />
      </g>
      <g
         aria-label="C"
         id="text9323-6-3-6-1-0"
         style="font-weight:bold;font-size:8px;line-height:1.25;font-family:Arial;-inkscape-font-specification:'Arial, Bold';font-variant-ligatures:none;text-align:center;text-anchor:middle;display:inline;fill:#ede7dc;fill-opacity:1"
         transform="translate(0.5,-8.6258698)">
        <path
           d="m 38.873047,128.9948 1.121094,0.35547 q -0.257813,0.9375 -0.859375,1.39453 -0.597657,0.45312 -1.519532,0.45312 -1.140625,0 -1.875,-0.77734 -0.734375,-0.78125 -0.734375,-2.13281 0,-1.42969 0.738282,-2.21875 0.738281,-0.79297 1.941406,-0.79297 1.050781,0 1.707031,0.62109 0.390625,0.36719 0.585938,1.05469 l -1.144532,0.27344 q -0.101562,-0.44532 -0.425781,-0.70313 -0.320312,-0.25781 -0.78125,-0.25781 -0.636719,0 -1.035156,0.45703 -0.394531,0.45703 -0.394531,1.48047 0,1.08594 0.390625,1.54687 0.390625,0.46094 1.015625,0.46094 0.460937,0 0.792968,-0.29297 0.332032,-0.29297 0.476563,-0.92187 z"
           id="path3410"
           style="fill:#ede7dc;fill-opacity:1" />
      </g>
      <g
         aria-label="D"
         id="text9323-6-3-6-1-2"
         style="font-weight:bold;font-size:8px;line-height:1.25;font-family:Arial;-inkscape-font-specification:'Arial, Bold';font-variant-ligatures:none;text-align:center;text-anchor:middle;display:inline;fill:#ede7dc;fill-opacity:1"
         transform="translate(0.5,-8.6204376)">
        <path
           d="m 35.099609,156.92383 h 2.113282 q 0.714843,0 1.089843,0.10937 0.503907,0.14844 0.863282,0.52735 0.359375,0.3789 0.546875,0.92968 0.1875,0.54688 0.1875,1.35157 0,0.70703 -0.175782,1.21875 -0.214843,0.625 -0.613281,1.01172 -0.300781,0.29296 -0.8125,0.45703 -0.382812,0.12109 -1.023437,0.12109 h -2.175782 z m 1.15625,0.96875 v 3.79297 h 0.863282 q 0.484375,0 0.699218,-0.0547 0.28125,-0.0703 0.464844,-0.23828 0.1875,-0.16797 0.304688,-0.55078 0.117187,-0.38672 0.117187,-1.05078 0,-0.66407 -0.117187,-1.01954 -0.117188,-0.35546 -0.328125,-0.55468 -0.210938,-0.19922 -0.535157,-0.26953 -0.242187,-0.0547 -0.949218,-0.0547 z"
           id="path3413"
           style="fill:#ede7dc;fill-opacity:1" />
      </g>
      <g
         aria-label="E"
         id="text9323-6-3-6-1-1"
         style="font-weight:bold;font-size:8px;line-height:1.25;font-family:Arial;-inkscape-font-specification:'Arial, Bold';font-variant-ligatures:none;text-align:center;text-anchor:middle;display:inline;fill:#ede7dc;fill-opacity:1"
         transform="translate(0.5,-8.6150208)">
        <path
           d="m 35.322266,194.20053 v -5.72656 h 4.246093 v 0.96875 h -3.089843 v 1.26953 h 2.875 v 0.96484 h -2.875 v 1.5586 h 3.199218 v 0.96484 z"
           id="path3416"
           style="fill:#ede7dc;fill-opacity:1" />
      </g>
      <g
         aria-label="F"
         id="text9323-6-3-6-1-7"
         style="font-weight:bold;font-size:8px;line-height:1.25;font-family:Arial;-inkscape-font-specification:'Arial, Bold';font-variant-ligatures:none;text-align:center;text-anchor:middle;display:inline;fill:#ede7dc;fill-opacity:1"
         transform="translate(0.5,-8.6095886)">
        <path
           d="m 35.537109,225.75066 v -5.72657 h 3.925782 v 0.96875 h -2.769532 v 1.35547 h 2.390625 v 0.96875 h -2.390625 v 2.4336 z"
           id="path3419"
           style="fill:#ede7dc;fill-opacity:1" />
      </g>
      <g
         aria-label="G"
         id="text9323-6-3-6-1-9"
         style="font-weight:bold;font-size:8px;line-height:1.25;font-family:Arial;-inkscape-font-specification:'Arial, Bold';font-variant-ligatures:none;text-align:center;text-anchor:middle;display:inline;fill:#ede7dc;fill-opacity:1"
         transform="translate(0.5,-8.6041565)">
        <path
           d="m 37.685547,255.19531 v -0.96484 h 2.492187 v 2.28125 q -0.363281,0.35156 -1.054687,0.62109 -0.6875,0.26563 -1.394531,0.26563 -0.898438,0 -1.566407,-0.375 -0.667968,-0.37891 -1.003906,-1.07813 -0.335937,-0.70312 -0.335937,-1.52734 0,-0.89453 0.375,-1.58985 0.375,-0.69531 1.097656,-1.0664 0.550781,-0.28516 1.371094,-0.28516 1.066406,0 1.664062,0.44922 0.601563,0.44531 0.773438,1.23438 l -1.148438,0.21484 q -0.121094,-0.42188 -0.457031,-0.66406 -0.332031,-0.2461 -0.832031,-0.2461 -0.757813,0 -1.207032,0.48047 -0.445312,0.48047 -0.445312,1.42578 0,1.01953 0.453125,1.53125 0.453125,0.50782 1.1875,0.50782 0.363281,0 0.726562,-0.14063 0.367188,-0.14453 0.628907,-0.34766 v -0.72656 z"
           id="path3422"
           style="fill:#ede7dc;fill-opacity:1" />
      </g>
      <g
         aria-label="H"
         id="text9323-6-3-6-1-74"
         style="font-weight:bold;font-size:8px;line-height:1.25;font-family:Arial;-inkscape-font-specification:'Arial, Bold';font-variant-ligatures:none;text-align:center;text-anchor:middle;display:inline;fill:#ede7dc;fill-opacity:1"
         transform="translate(0.5000005,-8.5987244)">
        <path
           d="m 35.210937,288.85092 v -5.72656 h 1.15625 v 2.25391 h 2.265625 v -2.25391 h 1.15625 v 5.72656 h -1.15625 v -2.5039 h -2.265625 v 2.5039 z"
           id="path3425"
           style="fill:#ede7dc;fill-opacity:1" />
      </g>
      <g
         aria-label="I"
         id="text9323-6-3-6-1-5"
         style="font-weight:bold;font-size:8px;line-height:1.25;font-family:Arial;-inkscape-font-specification:'Arial, Bold';font-variant-ligatures:none;text-align:center;text-anchor:middle;display:inline;fill:#ede7dc;fill-opacity:1"
         transform="translate(0.5,-8.593322)">
        <path
           d="m 36.921875,320.40106 v -5.72656 h 1.15625 v 5.72656 z"
           id="path3428"
           style="fill:#ede7dc;fill-opacity:1" />
      </g>
      <g
         aria-label="MUTE"
         id="text16977"
         style="font-weight:bold;font-size:8px;line-height:1.25;font-family:Arial;-inkscape-font-specification:'Arial, Bold';font-variant-ligatures:none;text-align:center;text-anchor:middle;fill:#ede7dc;fill-opacity:1">
        <path
           d="m 44.650391,42.968197 v -5.726563 h 1.730468 l 1.039063,3.90625 1.027344,-3.90625 h 1.734375 v 5.726563 h -1.074219 v -4.507813 l -1.136719,4.507813 h -1.113281 l -1.132813,-4.507813 v 4.507813 z"
           id="path33337"
           style="fill:#ede7dc;fill-opacity:1" />
        <path
           d="m 51.322266,37.241634 h 1.15625 v 3.101563 q 0,0.738281 0.04297,0.957031 0.07422,0.351563 0.351563,0.566406 0.28125,0.210938 0.765625,0.210938 0.492187,0 0.742187,-0.199219 0.25,-0.203125 0.300782,-0.496094 0.05078,-0.292968 0.05078,-0.972656 v -3.167969 h 1.15625 v 3.007813 q 0,1.03125 -0.09375,1.457031 -0.09375,0.425781 -0.347656,0.71875 -0.25,0.292969 -0.671875,0.46875 -0.421875,0.171875 -1.101563,0.171875 -0.820312,0 -1.246094,-0.1875 -0.421875,-0.191406 -0.667968,-0.492187 -0.246094,-0.304688 -0.324219,-0.636719 -0.113281,-0.492188 -0.113281,-1.453125 z"
           id="path33339"
           style="fill:#ede7dc;fill-opacity:1" />
        <path
           d="m 58.396484,42.968197 v -4.757813 h -1.699218 v -0.96875 h 4.550781 v 0.96875 h -1.695313 v 4.757813 z"
           id="path33341"
           style="fill:#ede7dc;fill-opacity:1" />
        <path
           d="m 61.994141,42.968197 v -5.726563 h 4.246093 v 0.96875 h -3.089843 v 1.269532 h 2.875 v 0.964843 h -2.875 v 1.558594 h 3.199218 v 0.964844 z"
           id="path33343"
           style="fill:#ede7dc;fill-opacity:1" />
      </g>
      <g
         aria-label="CV"
         id="text16977-7"
         style="font-weight:bold;font-size:8px;line-height:1.25;font-family:Arial;-inkscape-font-specification:'Arial, Bold';font-variant-ligatures:none;text-align:center;text-anchor:middle;display:inline;fill:#ede7dc;fill-opacity:1">
        <path
           d="m 19.105469,40.911556 1.121093,0.355469 q -0.257812,0.9375 -0.859375,1.394531 -0.597656,0.453125 -1.519531,0.453125 -1.140625,0 -1.875,-0.777344 -0.734375,-0.78125 -0.734375,-2.132812 0,-1.429688 0.738282,-2.21875 0.738281,-0.792969 1.941406,-0.792969 1.050781,0 1.707031,0.621094 0.390625,0.367187 0.585937,1.054687 l -1.144531,0.273438 q -0.101562,-0.445313 -0.425781,-0.703125 -0.320313,-0.257813 -0.78125,-0.257813 -0.636719,0 -1.035156,0.457032 -0.394532,0.457031 -0.394532,1.480468 0,1.085938 0.390625,1.546875 0.390625,0.460938 1.015625,0.460938 0.460938,0 0.792969,-0.292969 0.332031,-0.292969 0.476563,-0.921875 z"
           id="path33332"
           style="fill:#ede7dc;fill-opacity:1" />
        <path
           d="m 22.679687,43.017025 -2.046875,-5.726563 h 1.253907 l 1.449218,4.238282 1.402344,-4.238282 h 1.226563 l -2.050782,5.726563 z"
           id="path33334"
           style="fill:#ede7dc;fill-opacity:1" />
      </g>
      <g
         id="g33155"
         transform="translate(106.46819,-18.333497)"
         style="fill:#ede7dc;fill-opacity:1">
        <g
           aria-label="LINEAR BEATS"
           id="text26159-5"
           style="font-weight:bold;font-size:9.33333px;line-height:1.25;font-family:Arial;-inkscape-font-specification:'Arial, Bold';font-variant-ligatures:none;text-align:center;text-anchor:middle;display:inline;fill:#ede7dc;fill-opacity:1">
          <path
             d="m -102.51896,33.317657 v -6.626299 h 1.34895 v 5.500649 h 3.35417 v 1.12565 z"
             id="path33346"
             style="fill:#ede7dc;fill-opacity:1" />
          <path
             d="M -96.895267,33.317657 V 26.63667 h 1.348958 v 6.680987 z"
             id="path33348"
             style="fill:#ede7dc;fill-opacity:1" />
          <path
             d="M -94.247482,33.317657 V 26.63667 h 1.3125 l 2.734374,4.461587 V 26.63667 h 1.253255 v 6.680987 h -1.353515 l -2.693359,-4.356769 v 4.356769 z"
             id="path33350"
             style="fill:#ede7dc;fill-opacity:1" />
          <path
             d="M -87.520921,33.317657 V 26.63667 h 4.953774 v 1.130208 h -3.604816 v 1.481119 h 3.354165 v 1.125651 h -3.354165 v 1.818359 h 3.73242 v 1.12565 z"
             id="path33352"
             style="fill:#ede7dc;fill-opacity:1" />
          <path
             d="m -75.270926,33.317657 h -1.467447 l -0.583333,-1.517577 h -2.670572 l -0.551432,1.517577 h -1.430989 l 2.602212,-6.680987 h 1.426432 z m -2.483723,-2.643228 -0.920572,-2.479166 -0.902344,2.479166 z"
             id="path33354"
             style="fill:#ede7dc;fill-opacity:1" />
          <path
             d="M -74.550873,33.317657 V 26.63667 h 2.839191 q 1.070963,0 1.554036,0.182292 0.48763,0.177734 0.779297,0.63802 0.291666,0.460287 0.291666,1.052734 0,0.751953 -0.442057,1.244141 -0.442057,0.48763 -1.321614,0.615234 0.4375,0.255208 0.720052,0.560546 0.287109,0.305339 0.770182,1.084635 l 0.815755,1.303385 h -1.613281 l -0.97526,-1.453775 q -0.519531,-0.779297 -0.710937,-0.979817 -0.191406,-0.205079 -0.405599,-0.277995 -0.214193,-0.07747 -0.679036,-0.07747 h -0.273438 v 2.789061 z m 1.348957,-3.855467 h 0.998047 q 0.970703,0 1.212239,-0.08203 0.241536,-0.08203 0.378255,-0.282552 0.136719,-0.200521 0.136719,-0.501302 0,-0.33724 -0.182292,-0.542318 -0.177734,-0.209635 -0.505859,-0.264322 -0.164062,-0.02279 -0.984375,-0.02279 h -1.052734 z"
             id="path33356"
             style="fill:#ede7dc;fill-opacity:1" />
          <path
             d="m -65.217543,26.63667 h 2.670572 q 0.792968,0 1.180338,0.06836 0.391927,0.0638 0.697265,0.273437 0.309896,0.209635 0.514974,0.560547 0.205078,0.346354 0.205078,0.779296 0,0.469401 -0.255208,0.861328 -0.250651,0.391927 -0.683594,0.58789 0.610677,0.177735 0.938802,0.60612 0.328125,0.428385 0.328125,1.007161 0,0.455729 -0.214193,0.888672 -0.209635,0.428385 -0.578776,0.688151 -0.364583,0.255208 -0.902343,0.314453 -0.337239,0.03646 -1.626953,0.04557 h -2.274087 z m 1.348958,1.111979 v 1.544921 h 0.884114 q 0.788411,0 0.979817,-0.02279 0.346354,-0.04102 0.542318,-0.236979 0.20052,-0.200521 0.20052,-0.524089 0,-0.309895 -0.173177,-0.501302 -0.168619,-0.195963 -0.505859,-0.236979 -0.200521,-0.02279 -1.152994,-0.02279 z m 0,2.6569 v 1.786458 h 1.248697 q 0.729166,0 0.92513,-0.04102 0.300781,-0.05469 0.48763,-0.264323 0.191406,-0.214192 0.191406,-0.569661 0,-0.300781 -0.145833,-0.510416 -0.145833,-0.209636 -0.423828,-0.305339 -0.273438,-0.0957 -1.19401,-0.0957 z"
             id="path33358"
             style="fill:#ede7dc;fill-opacity:1" />
          <path
             d="M -58.48187,33.317657 V 26.63667 h 4.953774 v 1.130208 h -3.604816 v 1.481119 h 3.354165 v 1.125651 h -3.354165 v 1.818359 h 3.73242 v 1.12565 z"
             id="path33360"
             style="fill:#ede7dc;fill-opacity:1" />
          <path
             d="m -46.231871,33.317657 h -1.467447 l -0.583333,-1.517577 h -2.670572 l -0.551433,1.517577 h -1.430989 l 2.602213,-6.680987 H -48.907 Z m -2.483723,-2.643228 -0.920573,-2.479166 -0.902343,2.479166 z"
             id="path33362"
             style="fill:#ede7dc;fill-opacity:1" />
          <path
             d="M -44.705179,33.317657 V 27.766878 H -46.6876 V 26.63667 h 5.309243 v 1.130208 h -1.977864 v 5.550779 z"
             id="path33364"
             style="fill:#ede7dc;fill-opacity:1" />
          <path
             d="m -40.849714,31.14383 1.3125,-0.127604 q 0.11849,0.660807 0.478515,0.970703 0.364584,0.309895 0.979818,0.309895 0.651692,0 0.979817,-0.273437 0.332682,-0.277995 0.332682,-0.647135 0,-0.236979 -0.141276,-0.401042 -0.136718,-0.168619 -0.483072,-0.291666 -0.236979,-0.08203 -1.080078,-0.291667 -1.084635,-0.26888 -1.522135,-0.660807 -0.615234,-0.551432 -0.615234,-1.3444 0,-0.510417 0.287109,-0.952474 0.291667,-0.446614 0.833984,-0.679036 0.546875,-0.232422 1.317057,-0.232422 1.257812,0 1.891275,0.551432 0.638021,0.551432 0.669922,1.472005 l -1.348958,0.05924 q -0.08659,-0.514973 -0.373698,-0.738281 -0.282552,-0.227864 -0.852213,-0.227864 -0.58789,0 -0.920572,0.241536 -0.214193,0.154948 -0.214193,0.414714 0,0.236979 0.200521,0.405599 0.255208,0.214192 1.239583,0.446614 0.984374,0.232422 1.453775,0.483073 0.473958,0.246093 0.738281,0.679036 0.26888,0.428385 0.26888,1.061849 0,0.574218 -0.31901,1.07552 -0.31901,0.501302 -0.902344,0.747396 -0.583333,0.241536 -1.453775,0.241536 -1.266927,0 -1.945963,-0.583333 -0.679036,-0.587891 -0.811198,-1.708984 z"
             id="path33366"
             style="fill:#ede7dc;fill-opacity:1" />
        </g>
        <g
           aria-label="EXPANDER"
           id="text26159-5-2"
           style="font-weight:bold;font-size:9.33333px;line-height:1.25;font-family:Arial;-inkscape-font-specification:'Arial, Bold';font-variant-ligatures:none;text-align:center;text-anchor:middle;display:inline;fill:#ede7dc;fill-opacity:1">
          <path
             d="m -94.188237,43.023193 v -6.680987 h 4.953775 v 1.130208 h -3.604817 v 1.481119 h 3.354166 v 1.125651 h -3.354166 v 1.818359 h 3.732421 v 1.12565 z"
             id="path33369"
             style="fill:#ede7dc;fill-opacity:1" />
          <path
             d="m -88.642015,43.023193 2.283203,-3.486327 -2.06901,-3.19466 H -86.851 l 1.339844,2.146484 1.312499,-2.146484 h 1.563151 l -2.078124,3.244791 2.283202,3.436196 h -1.626953 l -1.481119,-2.310546 -1.485677,2.310546 z"
             id="path33371"
             style="fill:#ede7dc;fill-opacity:1" />
          <path
             d="m -81.73772,43.023193 v -6.680987 h 2.164713 q 1.230468,0 1.604166,0.10026 0.574219,0.150391 0.961588,0.65625 0.38737,0.501302 0.38737,1.298828 0,0.615234 -0.223307,1.034505 -0.223308,0.41927 -0.569662,0.660807 -0.341796,0.236979 -0.697265,0.314453 -0.483073,0.0957 -1.399088,0.0957 h -0.879557 v 2.520181 z m 1.348958,-5.550779 v 1.895833 h 0.738281 q 0.797526,0 1.066406,-0.104818 0.26888,-0.104818 0.41927,-0.328125 0.154948,-0.223307 0.154948,-0.519531 0,-0.364583 -0.214192,-0.601562 -0.214193,-0.236979 -0.542318,-0.296224 -0.241536,-0.04557 -0.970703,-0.04557 z"
             id="path33373"
             style="fill:#ede7dc;fill-opacity:1" />
          <path
             d="m -70.180433,43.023193 h -1.467447 l -0.583333,-1.517577 h -2.670572 l -0.551432,1.517577 h -1.430989 l 2.602212,-6.680987 h 1.426432 z m -2.483723,-2.643228 -0.920572,-2.479166 -0.902344,2.479166 z"
             id="path33375"
             style="fill:#ede7dc;fill-opacity:1" />
          <path
             d="m -69.451266,43.023193 v -6.680987 h 1.3125 l 2.734374,4.461587 v -4.461587 h 1.253255 v 6.680987 h -1.353516 l -2.693358,-4.356769 v 4.356769 z"
             id="path33377"
             style="fill:#ede7dc;fill-opacity:1" />
          <path
             d="m -62.729262,36.342206 h 2.465494 q 0.833984,0 1.271483,0.127604 0.587891,0.173177 1.007162,0.615234 0.41927,0.442057 0.63802,1.084635 0.21875,0.638021 0.21875,1.576823 0,0.824869 -0.205078,1.421874 -0.250651,0.729167 -0.715495,1.180338 -0.350911,0.341797 -0.947916,0.533203 -0.446614,0.141276 -1.19401,0.141276 h -2.53841 z m 1.348957,1.130208 v 4.425129 h 1.007162 q 0.565104,0 0.815754,-0.0638 0.328125,-0.08203 0.542318,-0.277995 0.21875,-0.195964 0.355469,-0.642578 0.136718,-0.451172 0.136718,-1.225911 0,-0.774739 -0.136718,-1.189453 -0.136719,-0.414713 -0.382813,-0.647135 -0.246093,-0.232422 -0.624348,-0.314453 -0.282552,-0.0638 -1.107422,-0.0638 z"
             id="path33379"
             style="fill:#ede7dc;fill-opacity:1" />
          <path
             d="m -55.984475,43.023193 v -6.680987 h 4.953775 v 1.130208 h -3.604817 v 1.481119 h 3.354166 v 1.125651 h -3.354166 v 1.818359 h 3.732421 v 1.12565 z"
             id="path33381"
             style="fill:#ede7dc;fill-opacity:1" />
          <path
             d="m -49.754659,43.023193 v -6.680987 h 2.839191 q 1.070963,0 1.554036,0.182292 0.48763,0.177734 0.779297,0.63802 0.291666,0.460287 0.291666,1.052734 0,0.751953 -0.442057,1.24414 -0.442057,0.487631 -1.321614,0.615235 0.4375,0.255208 0.720052,0.560546 0.287109,0.305339 0.770182,1.084635 l 0.815755,1.303385 h -1.613281 l -0.97526,-1.453775 q -0.519531,-0.779297 -0.710937,-0.979818 -0.191406,-0.205078 -0.405599,-0.277994 -0.214193,-0.07747 -0.679036,-0.07747 h -0.273438 v 2.789061 z m 1.348957,-3.855467 h 0.998047 q 0.970703,0 1.212239,-0.08203 0.241537,-0.08203 0.378255,-0.282552 0.136719,-0.200521 0.136719,-0.501302 0,-0.33724 -0.182292,-0.542318 -0.177734,-0.209635 -0.505859,-0.264323 -0.164062,-0.02279 -0.984375,-0.02279 h -1.052734 z"
             id="path33383"
             style="fill:#ede7dc;fill-opacity:1" />
        </g>
      </g>
    </g>
  </g>
  <g
     id="g42796"
     transform="matrix(0.30458296,0,0,0.30458296,14.437551,-12.68508)"
     style="fill:#ff0000">
    <g
       aria-label="enom"
       id="text4270-27"
       style="font-size:49.3889px;line-height:1.25;font-family:'NECK ROMANCER';-inkscape-font-specification:'NECK ROMANCER, Normal';font-variant-ligatures:none;text-align:center;text-anchor:middle;fill:#ff0000;stroke-width:2.64583">
      <path
         d="m 46.609141,1249.244 q 0,1.1576 0,3.4245 3.183269,0 9.453344,0 -1.639866,0.5787 -2.990343,1.2058 -1.350478,0.627 -2.363337,1.688 -1.350477,0 -4.051433,0 0,1.4952 0.434082,2.5563 0.385851,1.1093 1.832792,1.1093 2.266873,0 6.80062,0 0.482313,-0.1447 0.868164,-0.627 0.337619,-0.5305 0.627007,-1.7363 0,2.0257 0,6.1254 -3.520888,0 -10.562665,0 -1.543403,0 -2.652724,-2.2187 -1.109321,-2.1704 -1.109321,-6.3183 0,-1.9775 0,-5.836 -0.385851,-1.3504 -1.881023,-2.1221 -1.495171,-0.7235 -3.569119,-1.2058 6.607694,0 19.774852,0 0,2.9421 0,8.7781 -1.205783,-2.701 -2.218642,-3.6656 -1.012858,-0.9646 -2.700955,-1.1093 -0.916396,-0.097 -2.170411,-0.097 -1.205783,0.048 -2.845649,0.048 -0.241157,0 -0.675239,0 z"
         id="path42762"
         style="fill:#ff0000" />
      <path
         d="m 81.576869,1245.2891 q 0,5.8842 0,17.7009 0,3.0868 -0.144694,6.0771 -0.09646,3.0386 -0.337619,5.9325 -0.385851,-3.7138 -0.964627,-6.9936 -0.530545,-3.3279 -2.025717,-5.016 0,-2.9904 0,-8.9228 -0.241157,-1.3505 -0.72347,-2.2187 -0.482314,-0.8681 -1.06109,-1.3987 -1.109321,-1.0128 -2.411567,-1.1093 -1.350478,-0.097 -2.266874,-0.097 -0.482313,0 -1.44694,0 0,4.582 0,13.746 0,3.0868 -0.09646,6.0771 -0.144694,3.0386 -0.385851,5.9325 -0.38585,-3.7138 -0.916395,-6.9936 -0.578776,-3.3279 -2.025717,-5.016 0,-4.8232 0,-14.373 -0.385851,-1.3504 -1.881022,-2.1221 -1.495172,-0.7235 -3.56912,-1.2058 6.752389,0 20.257166,0 z"
         id="path42764"
         style="fill:#ff0000" />
      <path
         d="m 104.19737,1249.0511 q 0,3.3762 0,10.1768 0,1.5434 -1.92925,2.6528 -1.92926,1.1093 -6.077152,1.1093 -4.196128,0 -6.125382,-1.1093 -1.929254,-1.1094 -1.929254,-2.6528 0,-3.3762 0,-10.1768 0,-1.5434 1.929254,-2.6527 1.929254,-1.1093 6.125382,-1.1093 4.147892,0 6.077152,1.1093 1.92925,1.1093 1.92925,2.6527 z m -3.76204,7.91 q 0,-1.8811 0,-5.6431 0,-1.6881 -1.254019,-1.9775 -1.205783,-0.2894 -2.990343,-0.2894 -1.832792,0 -3.038575,0.2894 -1.254015,0.2894 -1.254015,1.9775 0,1.881 0,5.6431 0,1.6881 1.254015,1.9774 1.205783,0.2894 3.038575,0.2894 1.78456,0 2.990343,-0.2894 1.254019,-0.2893 1.254019,-1.9774 z"
         id="path42766"
         style="fill:#ff0000" />
      <path
         d="m 142.34837,1245.2891 q -2.02572,0.4823 -3.52089,1.2058 -1.5434,0.7717 -1.88102,2.1221 0,4.7749 0,14.373 -1.49517,1.6881 -2.02572,5.016 -0.57878,3.2798 -0.96463,6.9936 -0.24115,-2.8939 -0.33762,-5.9325 -0.14469,-2.9903 -0.14469,-6.0771 0,-4.582 0,-13.746 -0.48231,0 -1.39871,0 -0.53054,0 -1.15755,0 -0.62701,0 -1.30225,0.1447 -1.25401,0.2412 -2.41157,1.2058 -1.15755,0.9646 -1.63986,3.4727 0,2.9903 0,8.9228 -0.1447,0.627 -0.28939,1.1093 -0.0965,0.4823 -0.19292,0.8199 -0.53055,1.9775 -0.38586,1.3505 0.19293,-0.627 -0.28938,1.1576 -0.0965,0.3376 -0.24116,0.8681 -0.14469,0.5306 -0.33762,1.3023 -0.14469,-0.6753 -0.28939,-1.2058 -0.14469,-0.4823 -0.24115,-0.8199 -0.53055,-2.0258 -0.33762,-1.3023 0.19292,0.7717 -0.43409,-1.6881 -0.0482,-0.2894 -0.19292,-0.7235 -0.0965,-0.3858 -0.19293,-0.8681 0,-2.9904 0,-8.9228 -0.28939,-1.3505 -0.7717,-2.2187 -0.48231,-0.8681 -1.06109,-1.3987 -1.10932,-1.0128 -2.41157,-1.1093 -1.30224,-0.097 -2.26687,-0.097 -0.48231,0 -1.39871,0 0,4.582 0,13.746 0,3.0868 -0.14469,6.0771 -0.0965,3.0386 -0.33762,5.9325 -0.38585,-3.7138 -0.96463,-6.9936 -0.53054,-3.3279 -2.02572,-5.016 0,-4.8232 0,-14.373 -0.38585,-1.3504 -1.88102,-2.1221 -1.49517,-0.7235 -3.56912,-1.2058 3.95497,0 11.76845,0 1.15755,0.3858 3.47266,1.1575 0.7717,0.2894 1.59163,0.4341 0.81994,0.1447 1.6881,0.1447 0.86816,0 1.73633,-0.1447 0.81993,-0.1447 1.59163,-0.4341 1.15756,-0.3858 3.42443,-1.1575 3.95497,0 11.76845,0 z"
         id="path42768"
         style="fill:#ff0000" />
    </g>
    <g
       aria-label="V"
       transform="matrix(1.2363173,0,0,0.80885384,-497.88086,123.48586)"
       id="text4270-3-5-2"
       style="font-size:78.5061px;line-height:1.25;font-family:Nosferotica;-inkscape-font-specification:'Nosferotica, Normal';font-variant-ligatures:none;text-align:center;text-anchor:middle;fill:#ff0000;stroke-width:3.27108">
      <path
         d="m 431.64994,1360.6864 8.57428,-0.1022 c 0,0 -4.4079,1.0878 -5.59925,3.7285 -1.88083,4.1689 -3.64217,14.6628 -3.64217,14.6628 l -2.23339,11.5191 -1.83311,11.8311 -1.71824,21.3112 -1.69514,-21.3112 -1.92196,-11.5208 -2.5009,-11.8294 c 0,0 -1.52027,-10.287 -3.38278,-14.4832 -1.14458,-2.5787 -5.63367,-3.8059 -5.63367,-3.8059 h 8.4657 l 6.66875,29.1569 z"
         id="path30410"
         sodipodi:nodetypes="ccscccccccscccc"
         style="fill:#ff0000" />
    </g>
  </g>
  <text
     xml:space="preserve"
     id="text29904"
     style="font-weight:bold;font-size:8px;line-height:1.25;font-family:Arial;-inkscape-font-specification:'Arial, Bold';font-variant-ligatures:none;text-align:center;white-space:pre;shape-inside:url(#rect29906)" />
  <g
     inkscape:groupmode="layer"
     id="layer1"
     inkscape:label="Widgets"
     style="display:none">
    <circle
       style="fill:#ff0000;stroke:#ff0000;stroke-width:1.94925;stroke-opacity:1"
       id="path1065"
       cx="20.5"
       cy="308.94446"
       r="10.525375" />
    <circle
       style="fill:#ff0000;stroke:#ff0000;stroke-width:1.94925;stroke-opacity:1"
       id="path1065-7"
       cx="20.5"
       cy="277.38889"
       r="10.525375" />
    <circle
       style="fill:#ff0000;stroke:#ff0000;stroke-width:1.94925;stroke-opacity:1"
       id="path1065-7-1"
       cx="20.5"
       cy="245.83333"
       r="10.525375" />
    <circle
       style="display:inline;fill:#ff0000;stroke:#ff0000;stroke-width:1.94925;stroke-opacity:1"
       id="path1065-7-1-8"
       cx="20.5"
       cy="214.27777"
       r="10.525375" />
    <circle
       style="display:inline;fill:#ff0000;stroke:#ff0000;stroke-width:1.94925;stroke-opacity:1"
       id="path1065-7-1-17"
       cx="20.5"
       cy="182.72223"
       r="10.525375" />
    <circle
       style="display:inline;fill:#ff0000;stroke:#ff0000;stroke-width:1.94925;stroke-opacity:1"
       id="path1065-7-1-89"
       cx="20.5"
       cy="151.16666"
       r="10.525375" />
    <circle
       style="display:inline;fill:#ff0000;stroke:#ff0000;stroke-width:1.94925;stroke-opacity:1"
       id="path1065-7-1-2"
       cx="20.5"
       cy="119.61111"
       r="10.525375" />
    <circle
       style="display:inline;fill:#ff0000;stroke:#ff0000;stroke-width:1.94925;stroke-opacity:1"
       id="path1065-7-1-7"
       cx="20.5"
       cy="88.055557"
       r="10.525375" />
    <circle
       style="display:inline;fill:#ff0000;stroke:#ff0000;stroke-width:1.94925;stroke-opacity:1"
       id="path1065-7-1-15"
       cx="20.5"
       cy="56.5"
       r="10.525375" />
    <circle
       style="display:inline;fill:#ff0000;stroke:#ff0000;stroke-width:1.77975;stroke-opacity:1"
       id="path1065-7-1-15-4"
       cx="55.5"
       cy="56.5"
       r="9.6101246" />
    <circle
       style="display:inline;fill:#ff0000;stroke:#ff0000;stroke-width:1.77975;stroke-opacity:1"
       id="path1065-7-1-15-4-5"
       cx="55.5"
       cy="308.94446"
       r="9.6101246" />
    <circle
       style="display:inline;fill:#ff0000;stroke:#ff0000;stroke-width:1.94925;stroke-opacity:1"
       id="path1065-1"
       cx="20.500002"
       cy="344.8504"
       r="10.525375" />
    <circle
       style="display:inline;fill:#ff0000;stroke:#ff0000;stroke-width:1.77975;stroke-opacity:1"
       id="path1065-7-1-15-4-5-1"
       cx="55.5"
       cy="344.8504"
       r="9.6101246" />
    <circle
       style="display:inline;fill:#ff0000;stroke:#ff0000;stroke-width:1.77975;stroke-opacity:1"
       id="path1065-7-1-15-4-9"
       cx="55.5"
       cy="277.38892"
       r="9.6101246" />
    <circle
       style="display:inline;fill:#ff0000;stroke:#ff0000;stroke-width:1.77975;stroke-opacity:1"
       id="path1065-7-1-15-4-4"
       cx="55.5"
       cy="245.83334"
       r="9.6101246" />
    <circle
       style="display:inline;fill:#ff0000;stroke:#ff0000;stroke-width:1.77975;stroke-opacity:1"
       id="path1065-7-1-15-4-6"
       cx="55.5"
       cy="214.27779"
       r="9.6101246" />
    <circle
       style="display:inline;fill:#ff0000;stroke:#ff0000;stroke-width:1.77975;stroke-opacity:1"
       id="path1065-7-1-15-4-2"
       cx="55.5"
       cy="182.72223"
       r="9.6101246" />
    <circle
       style="display:inline;fill:#ff0000;stroke:#ff0000;stroke-width:1.77975;stroke-opacity:1"
       id="path1065-7-1-15-4-46"
       cx="55.5"
       cy="151.16667"
       r="9.6101246" />
    <circle
       style="display:inline;fill:#ff0000;stroke:#ff0000;stroke-width:1.77975;stroke-opacity:1"
       id="path1065-7-1-15-4-7"
       cx="55.5"
       cy="119.61111"
       r="9.6101246" />
    <circle
       style="display:inline;fill:#ff0000;stroke:#ff0000;stroke-width:1.77975;stroke-opacity:1"
       id="path1065-7-1-15-4-58"
       cx="55.5"
       cy="88.055557"
       r="9.6101246" />
  </g>
  <g
     inkscape:groupmode="layer"
     id="layer2"
     inkscape:label="Text Labels"
     style="display:inline" />
</svg>
