<?xml version="1.0" encoding="UTF-8" standalone="no"?>
<svg
   width="165"
   height="380"
   viewBox="0 0 165 380.00003"
   version="1.1"
   id="svg100"
   sodipodi:docname="Logic_Coal.svg"
   inkscape:version="1.1.1 (3bf5ae0d25, 2021-09-20)"
   xmlns:inkscape="http://www.inkscape.org/namespaces/inkscape"
   xmlns:sodipodi="http://sodipodi.sourceforge.net/DTD/sodipodi-0.dtd"
   xmlns="http://www.w3.org/2000/svg"
   xmlns:svg="http://www.w3.org/2000/svg"
   xmlns:rdf="http://www.w3.org/1999/02/22-rdf-syntax-ns#"
   xmlns:cc="http://creativecommons.org/ns#"
   xmlns:dc="http://purl.org/dc/elements/1.1/">
  <metadata
     id="metadata104">
    <rdf:RDF>
      <cc:Work
         rdf:about="">
        <dc:format>image/svg+xml</dc:format>
        <dc:type
           rdf:resource="http://purl.org/dc/dcmitype/StillImage" />
      </cc:Work>
    </rdf:RDF>
  </metadata>
  <sodipodi:namedview
     pagecolor="#ffffff"
     bordercolor="#666666"
     borderopacity="1"
     objecttolerance="1"
     gridtolerance="1"
     guidetolerance="1"
     inkscape:pageopacity="0"
     inkscape:pageshadow="2"
     inkscape:window-width="1920"
     inkscape:window-height="1080"
     id="namedview102"
     showgrid="true"
     inkscape:zoom="2.2342105"
     inkscape:cx="149.94111"
     inkscape:cy="183.9576"
     inkscape:window-x="1600"
     inkscape:window-y="0"
     inkscape:window-maximized="1"
     inkscape:current-layer="layer3"
     inkscape:pagecheckerboard="0"
     units="px"
     inkscape:showpageshadow="false">
    <inkscape:grid
       type="xygrid"
       id="grid1285" />
  </sodipodi:namedview>
  <defs
     id="defs7">
    <rect
       x="85"
       y="10"
       width="51.058132"
       height="25"
       id="rect29906" />
    <linearGradient
       id="a8e142bb-541b-4903-be63-d5d069028a5d"
       x1="22.5"
       x2="22.5"
       y2="380"
       gradientUnits="userSpaceOnUse">
      <stop
         offset="0"
         stop-color="#ebebeb"
         id="stop2" />
      <stop
         offset="1"
         stop-color="#e1e1e1"
         id="stop4" />
    </linearGradient>
  </defs>
  <g
     inkscape:groupmode="layer"
     id="layer3"
     inkscape:label="Faceplate"
     style="display:inline">
    <g
       id="aea613ef-74be-49bf-be45-c0734aee674b"
       data-name="FND BG"
       style="display:inline;fill:#252525;fill-opacity:1;stroke:none;stroke-opacity:1"
       transform="scale(3.6666667,1)">
      <rect
         width="45"
         height="380"
         fill="url(#a8e142bb-541b-4903-be63-d5d069028a5d)"
         id="rect9"
         style="fill:#252525;fill-opacity:1;stroke:none;stroke-opacity:1"
         x="0"
         y="0" />
    </g>
  </g>
  <g
     inkscape:groupmode="layer"
     id="layer6"
     inkscape:label="Brand"
     style="display:inline">
    <g
       id="g42796"
       transform="matrix(0.30458296,0,0,0.30458296,59.437551,-12.68508)"
       style="fill:#ff0000">
      <g
         aria-label="enom"
         id="text4270-27"
         style="font-size:49.3889px;line-height:1.25;font-family:'NECK ROMANCER';-inkscape-font-specification:'NECK ROMANCER, Normal';font-variant-ligatures:none;text-align:center;text-anchor:middle;fill:#ff0000;stroke-width:2.64583">
        <path
           d="m 46.609141,1249.244 q 0,1.1576 0,3.4245 3.183269,0 9.453344,0 -1.639866,0.5787 -2.990343,1.2058 -1.350478,0.627 -2.363337,1.688 -1.350477,0 -4.051433,0 0,1.4952 0.434082,2.5563 0.385851,1.1093 1.832792,1.1093 2.266873,0 6.80062,0 0.482313,-0.1447 0.868164,-0.627 0.337619,-0.5305 0.627007,-1.7363 0,2.0257 0,6.1254 -3.520888,0 -10.562665,0 -1.543403,0 -2.652724,-2.2187 -1.109321,-2.1704 -1.109321,-6.3183 0,-1.9775 0,-5.836 -0.385851,-1.3504 -1.881023,-2.1221 -1.495171,-0.7235 -3.569119,-1.2058 6.607694,0 19.774852,0 0,2.9421 0,8.7781 -1.205783,-2.701 -2.218642,-3.6656 -1.012858,-0.9646 -2.700955,-1.1093 -0.916396,-0.097 -2.170411,-0.097 -1.205783,0.048 -2.845649,0.048 -0.241157,0 -0.675239,0 z"
           id="path42762"
           style="fill:#ff0000" />
        <path
           d="m 81.576869,1245.2891 q 0,5.8842 0,17.7009 0,3.0868 -0.144694,6.0771 -0.09646,3.0386 -0.337619,5.9325 -0.385851,-3.7138 -0.964627,-6.9936 -0.530545,-3.3279 -2.025717,-5.016 0,-2.9904 0,-8.9228 -0.241157,-1.3505 -0.72347,-2.2187 -0.482314,-0.8681 -1.06109,-1.3987 -1.109321,-1.0128 -2.411567,-1.1093 -1.350478,-0.097 -2.266874,-0.097 -0.482313,0 -1.44694,0 0,4.582 0,13.746 0,3.0868 -0.09646,6.0771 -0.144694,3.0386 -0.385851,5.9325 -0.38585,-3.7138 -0.916395,-6.9936 -0.578776,-3.3279 -2.025717,-5.016 0,-4.8232 0,-14.373 -0.385851,-1.3504 -1.881022,-2.1221 -1.495172,-0.7235 -3.56912,-1.2058 6.752389,0 20.257166,0 z"
           id="path42764"
           style="fill:#ff0000" />
        <path
           d="m 104.19737,1249.0511 q 0,3.3762 0,10.1768 0,1.5434 -1.92925,2.6528 -1.92926,1.1093 -6.077152,1.1093 -4.196128,0 -6.125382,-1.1093 -1.929254,-1.1094 -1.929254,-2.6528 0,-3.3762 0,-10.1768 0,-1.5434 1.929254,-2.6527 1.929254,-1.1093 6.125382,-1.1093 4.147892,0 6.077152,1.1093 1.92925,1.1093 1.92925,2.6527 z m -3.76204,7.91 q 0,-1.8811 0,-5.6431 0,-1.6881 -1.254019,-1.9775 -1.205783,-0.2894 -2.990343,-0.2894 -1.832792,0 -3.038575,0.2894 -1.254015,0.2894 -1.254015,1.9775 0,1.881 0,5.6431 0,1.6881 1.254015,1.9774 1.205783,0.2894 3.038575,0.2894 1.78456,0 2.990343,-0.2894 1.254019,-0.2893 1.254019,-1.9774 z"
           id="path42766"
           style="fill:#ff0000" />
        <path
           d="m 142.34837,1245.2891 q -2.02572,0.4823 -3.52089,1.2058 -1.5434,0.7717 -1.88102,2.1221 0,4.7749 0,14.373 -1.49517,1.6881 -2.02572,5.016 -0.57878,3.2798 -0.96463,6.9936 -0.24115,-2.8939 -0.33762,-5.9325 -0.14469,-2.9903 -0.14469,-6.0771 0,-4.582 0,-13.746 -0.48231,0 -1.39871,0 -0.53054,0 -1.15755,0 -0.62701,0 -1.30225,0.1447 -1.25401,0.2412 -2.41157,1.2058 -1.15755,0.9646 -1.63986,3.4727 0,2.9903 0,8.9228 -0.1447,0.627 -0.28939,1.1093 -0.0965,0.4823 -0.19292,0.8199 -0.53055,1.9775 -0.38586,1.3505 0.19293,-0.627 -0.28938,1.1576 -0.0965,0.3376 -0.24116,0.8681 -0.14469,0.5306 -0.33762,1.3023 -0.14469,-0.6753 -0.28939,-1.2058 -0.14469,-0.4823 -0.24115,-0.8199 -0.53055,-2.0258 -0.33762,-1.3023 0.19292,0.7717 -0.43409,-1.6881 -0.0482,-0.2894 -0.19292,-0.7235 -0.0965,-0.3858 -0.19293,-0.8681 0,-2.9904 0,-8.9228 -0.28939,-1.3505 -0.7717,-2.2187 -0.48231,-0.8681 -1.06109,-1.3987 -1.10932,-1.0128 -2.41157,-1.1093 -1.30224,-0.097 -2.26687,-0.097 -0.48231,0 -1.39871,0 0,4.582 0,13.746 0,3.0868 -0.14469,6.0771 -0.0965,3.0386 -0.33762,5.9325 -0.38585,-3.7138 -0.96463,-6.9936 -0.53054,-3.3279 -2.02572,-5.016 0,-4.8232 0,-14.373 -0.38585,-1.3504 -1.88102,-2.1221 -1.49517,-0.7235 -3.56912,-1.2058 3.95497,0 11.76845,0 1.15755,0.3858 3.47266,1.1575 0.7717,0.2894 1.59163,0.4341 0.81994,0.1447 1.6881,0.1447 0.86816,0 1.73633,-0.1447 0.81993,-0.1447 1.59163,-0.4341 1.15756,-0.3858 3.42443,-1.1575 3.95497,0 11.76845,0 z"
           id="path42768"
           style="fill:#ff0000" />
      </g>
      <g
         aria-label="V"
         transform="matrix(1.2363173,0,0,0.80885384,-497.88086,123.48586)"
         id="text4270-3-5-2"
         style="font-size:78.5061px;line-height:1.25;font-family:Nosferotica;-inkscape-font-specification:'Nosferotica, Normal';font-variant-ligatures:none;text-align:center;text-anchor:middle;fill:#ff0000;stroke-width:3.27108">
        <path
           d="m 431.64994,1360.6864 8.57428,-0.1022 c 0,0 -4.4079,1.0878 -5.59925,3.7285 -1.88083,4.1689 -3.64217,14.6628 -3.64217,14.6628 l -2.23339,11.5191 -1.83311,11.8311 -1.71824,21.3112 -1.69514,-21.3112 -1.92196,-11.5208 -2.5009,-11.8294 c 0,0 -1.52027,-10.287 -3.38278,-14.4832 -1.14458,-2.5787 -5.63367,-3.8059 -5.63367,-3.8059 h 8.4657 l 6.66875,29.1569 z"
           id="path30410"
           sodipodi:nodetypes="ccscccccccscccc"
           style="fill:#ff0000" />
      </g>
    </g>
  </g>
  <g
     inkscape:groupmode="layer"
     id="layer5"
     inkscape:label="Lines"
     style="display:inline">
    <path
       style="display:inline;fill:none;stroke:#ede7dc;stroke-width:1;stroke-linecap:butt;stroke-linejoin:miter;stroke-miterlimit:4;stroke-dasharray:none;stroke-opacity:1"
       d="M 20.718003,341.42558 H 144.282"
       id="path12632" />
    <path
       style="display:inline;fill:none;stroke:#ede7dc;stroke-width:1;stroke-linecap:butt;stroke-linejoin:miter;stroke-miterlimit:4;stroke-dasharray:none;stroke-opacity:1"
       d="M 20.718003,311.44419 H 144.282"
       id="path12632-8" />
    <path
       style="display:inline;fill:none;stroke:#ede7dc;stroke-width:1;stroke-linecap:butt;stroke-linejoin:miter;stroke-miterlimit:4;stroke-dasharray:none;stroke-opacity:1"
       d="M 20.718,281.46279 H 144.282"
       id="path12632-2" />
    <path
       style="display:inline;fill:none;stroke:#ede7dc;stroke-width:1;stroke-linecap:butt;stroke-linejoin:miter;stroke-miterlimit:4;stroke-dasharray:none;stroke-opacity:1"
       d="M 20.718003,251.4814 H 144.282"
       id="path12632-4" />
    <path
       style="display:inline;fill:none;stroke:#ede7dc;stroke-width:1;stroke-linecap:butt;stroke-linejoin:miter;stroke-miterlimit:4;stroke-dasharray:none;stroke-opacity:1"
       d="M 20.718,221.5 H 144.282"
       id="path12632-3" />
    <path
       style="display:inline;fill:none;stroke:#ede7dc;stroke-width:1;stroke-linecap:butt;stroke-linejoin:miter;stroke-miterlimit:4;stroke-dasharray:none;stroke-opacity:1"
       d="M 20.718003,191.5186 H 144.282"
       id="path12632-1" />
    <path
       style="display:inline;fill:none;stroke:#ede7dc;stroke-width:1;stroke-linecap:butt;stroke-linejoin:miter;stroke-miterlimit:4;stroke-dasharray:none;stroke-opacity:1"
       d="M 20.718003,161.53721 H 144.282"
       id="path12632-6" />
    <path
       style="display:inline;fill:none;stroke:#ede7dc;stroke-width:1;stroke-linecap:butt;stroke-linejoin:miter;stroke-miterlimit:4;stroke-dasharray:none;stroke-opacity:1"
       d="M 20.718003,131.55581 H 144.282"
       id="path12632-0" />
    <path
       style="display:inline;fill:none;stroke:#ede7dc;stroke-width:1;stroke-linecap:butt;stroke-linejoin:miter;stroke-miterlimit:4;stroke-dasharray:none;stroke-opacity:1"
       d="m 35.718467,61.500001 h 30.547"
       id="path12632-0-9" />
    <path
       style="display:inline;fill:none;stroke:#ede7dc;stroke-width:1;stroke-linecap:butt;stroke-linejoin:miter;stroke-miterlimit:4;stroke-dasharray:none;stroke-opacity:1"
       d="M 98.735465,61.500001 H 129.28247"
       id="path12632-0-9-3" />
    <path
       style="display:inline;fill:none;stroke:#ede7dc;stroke-width:1;stroke-linecap:butt;stroke-linejoin:miter;stroke-miterlimit:4;stroke-dasharray:none;stroke-opacity:1"
       d="M 20.718001,101.57442 H 144.282"
       id="path12632-00" />
  </g>
  <g
     inkscape:groupmode="layer"
     id="layer4"
     inkscape:label="Solids"
     style="display:inline">
    <g
       aria-label="1"
       id="text9323-6-6"
       style="font-weight:bold;font-size:8px;line-height:1.25;font-family:Arial;-inkscape-font-specification:'Arial, Bold';font-variant-ligatures:none;text-align:center;text-anchor:middle;display:inline;fill:#ede7dc;fill-opacity:1"
       transform="translate(-5.1033556,-90.490449)">
      <path
         d="m 11.419762,194.86545 h -1.097657 v -4.13672 q -0.6015621,0.5625 -1.4179683,0.83203 v -0.99609 q 0.4296875,-0.14063 0.9335937,-0.53125 0.5039066,-0.39453 0.6914066,-0.91797 h 0.890625 z"
         id="path79780"
         style="fill:#ede7dc;fill-opacity:1" />
    </g>
    <g
       aria-label="2"
       id="text9323-6-3-6"
       style="font-weight:bold;font-size:8px;line-height:1.25;font-family:Arial;-inkscape-font-specification:'Arial, Bold';font-variant-ligatures:none;text-align:center;text-anchor:middle;display:inline;fill:#ede7dc;fill-opacity:1"
       transform="translate(-5.1033562,-93.730069)">
      <path
         d="m 12.085778,227.08554 v 1.01953 H 8.238122 q 0.0625,-0.57812 0.375,-1.09375 0.3125,-0.51953 1.234375,-1.375 0.742187,-0.6914 0.910156,-0.9375 0.226563,-0.33984 0.226563,-0.67187 0,-0.36719 -0.199219,-0.5625 -0.195313,-0.19922 -0.542969,-0.19922 -0.3437498,0 -0.5468748,0.20703 -0.203125,0.20703 -0.234375,0.6875 l -1.09375,-0.10938 q 0.097656,-0.90625 0.6132813,-1.30078 0.515625,-0.39453 1.2890625,-0.39453 0.847656,0 1.332031,0.45703 0.484375,0.45703 0.484375,1.13672 0,0.38672 -0.140625,0.73828 -0.136719,0.34766 -0.4375,0.73047 -0.199219,0.25391 -0.71875,0.73047 -0.519531,0.47656 -0.660156,0.63281 -0.1367188,0.15625 -0.2226563,0.30469 z"
         id="path79783"
         style="fill:#ede7dc;fill-opacity:1" />
    </g>
    <g
       aria-label="3"
       id="text9323-6-3-4-2"
       style="font-weight:bold;font-size:8px;line-height:1.25;font-family:Arial;-inkscape-font-specification:'Arial, Bold';font-variant-ligatures:none;text-align:center;text-anchor:middle;display:inline;fill:#ede7dc;fill-opacity:1"
       transform="translate(-5.1033554,-96.969664)">
      <path
         d="m 8.2596054,259.77634 1.0625,-0.12891 q 0.050781,0.40625 0.2734375,0.62109 0.2226563,0.21485 0.5390621,0.21485 0.339844,0 0.570313,-0.25781 0.234375,-0.25782 0.234375,-0.69532 0,-0.41406 -0.222656,-0.65625 -0.222657,-0.24218 -0.542969,-0.24218 -0.2109376,0 -0.5039063,0.082 l 0.1210937,-0.89453 q 0.4453126,0.0117 0.6796876,-0.19141 0.234375,-0.20703 0.234375,-0.54688 0,-0.28906 -0.171875,-0.46093 -0.171875,-0.17188 -0.457031,-0.17188 -0.2812503,0 -0.4804691,0.19531 -0.1992187,0.19532 -0.2421875,0.57032 l -1.0117187,-0.17188 q 0.1054687,-0.51953 0.3164062,-0.82812 0.2148438,-0.3125 0.59375,-0.48828 0.3828125,-0.17969 0.8554691,-0.17969 0.808593,0 1.296875,0.51562 0.402343,0.42188 0.402343,0.95313 0,0.7539 -0.824218,1.20312 0.492187,0.10547 0.785156,0.47266 0.296875,0.36719 0.296875,0.88672 0,0.7539 -0.550781,1.28515 -0.550782,0.53125 -1.371094,0.53125 -0.7773438,0 -1.2890626,-0.44531 -0.5117187,-0.44922 -0.59375,-1.17187 z"
         id="path79786"
         style="fill:#ede7dc;fill-opacity:1" />
    </g>
    <g
       aria-label="4"
       id="text9323-6-3-4-7-9"
       style="font-weight:bold;font-size:8px;line-height:1.25;font-family:Arial;-inkscape-font-specification:'Arial, Bold';font-variant-ligatures:none;text-align:center;text-anchor:middle;display:inline;fill:#ede7dc;fill-opacity:1"
       transform="translate(-5.1033564,-100.20932)">
      <path
         d="m 10.447106,294.58432 v -1.15234 H 8.1033564 v -0.96094 l 2.4843746,-3.63672 h 0.921875 v 3.63281 h 0.710938 v 0.96485 h -0.710938 v 1.15234 z m 0,-2.11719 v -1.95703 l -1.3164059,1.95703 z"
         id="path79789"
         style="fill:#ede7dc;fill-opacity:1" />
    </g>
    <g
       aria-label="5"
       id="text18061-9"
       style="font-weight:bold;font-size:8px;line-height:1.25;font-family:Arial;-inkscape-font-specification:'Arial, Bold';font-variant-ligatures:none;text-align:center;text-anchor:middle;display:inline;fill:#ede7dc;fill-opacity:1"
       transform="translate(0,1.000001)">
      <path
         d="m 3.1328125,221.80273 1.09375,-0.11328 q 0.046875,0.3711 0.2773437,0.58985 0.2304688,0.21484 0.53125,0.21484 0.34375,0 0.5820313,-0.27734 0.2382812,-0.28125 0.2382812,-0.84375 0,-0.52735 -0.2382812,-0.78907 -0.234375,-0.26562 -0.6132813,-0.26562 -0.4726562,0 -0.8476562,0.41797 l -0.890625,-0.12891 0.5625,-2.98047 h 2.9023437 v 1.02735 H 4.6601562 l -0.171875,0.97265 q 0.3671875,-0.18359 0.75,-0.18359 0.7304688,0 1.2382813,0.53125 0.5078125,0.53125 0.5078125,1.37891 0,0.70703 -0.4101563,1.26171 -0.5585937,0.75782 -1.5507812,0.75782 -0.7929688,0 -1.2929687,-0.42578 -0.5,-0.42579 -0.5976563,-1.14454 z"
         id="path13853"
         style="fill:#ede7dc;fill-opacity:1" />
    </g>
    <g
       aria-label="6"
       id="text18061-03"
       style="font-weight:bold;font-size:8px;line-height:1.25;font-family:Arial;-inkscape-font-specification:'Arial, Bold';font-variant-ligatures:none;text-align:center;text-anchor:middle;display:inline;fill:#ede7dc;fill-opacity:1"
       transform="translate(0,1.000001)">
      <path
         d="m 6.8652344,249.00195 -1.0625,0.11719 q -0.039063,-0.32812 -0.203125,-0.48437 -0.1640625,-0.15625 -0.4257813,-0.15625 -0.3476562,0 -0.5898437,0.3125 -0.2382813,0.3125 -0.3007813,1.30078 0.4101563,-0.48438 1.0195313,-0.48438 0.6875,0 1.1757812,0.52344 0.4921875,0.52344 0.4921875,1.35156 0,0.87891 -0.515625,1.41016 -0.515625,0.53125 -1.3242187,0.53125 -0.8671875,0 -1.4257813,-0.67188 -0.5585937,-0.67578 -0.5585937,-2.21093 0,-1.57422 0.5820312,-2.26954 0.5820313,-0.69531 1.5117188,-0.69531 0.6523437,0 1.078125,0.36719 0.4296875,0.36328 0.546875,1.05859 z m -2.4882813,2.39453 q 0,0.53516 0.2460938,0.82813 0.2460937,0.28906 0.5625,0.28906 0.3046875,0 0.5078125,-0.23828 0.203125,-0.23828 0.203125,-0.78125 0,-0.55859 -0.21875,-0.81641 -0.21875,-0.26171 -0.546875,-0.26171 -0.3164063,0 -0.5351563,0.25 -0.21875,0.24609 -0.21875,0.73046 z"
         id="path13856"
         style="fill:#ede7dc;fill-opacity:1" />
    </g>
    <g
       aria-label="7"
       id="text18061-5"
       style="font-weight:bold;font-size:8px;line-height:1.25;font-family:Arial;-inkscape-font-specification:'Arial, Bold';font-variant-ligatures:none;text-align:center;text-anchor:middle;display:inline;fill:#ede7dc;fill-opacity:1"
       transform="translate(0,1.000001)">
      <path
         d="m 3.1816406,278.69531 v -1.01953 h 3.7539063 v 0.79688 q -0.4648438,0.45703 -0.9453125,1.3125 -0.4804688,0.85546 -0.734375,1.82031 -0.25,0.96094 -0.2460938,1.71875 H 3.9511719 q 0.027344,-1.1875 0.4882812,-2.42188 0.4648438,-1.23437 1.2382813,-2.20703 z"
         id="path13859"
         style="fill:#ede7dc;fill-opacity:1" />
    </g>
    <g
       aria-label="8"
       id="text18061-94"
       style="font-weight:bold;font-size:8px;line-height:1.25;font-family:Arial;-inkscape-font-specification:'Arial, Bold';font-variant-ligatures:none;text-align:center;text-anchor:middle;display:inline;fill:#ede7dc;fill-opacity:1"
       transform="translate(0,1.000001)">
      <path
         d="m 4.1328125,310.23437 q -0.4257812,-0.17968 -0.6210937,-0.49218 -0.1914063,-0.31641 -0.1914063,-0.69141 0,-0.64062 0.4453125,-1.05859 0.4492187,-0.41797 1.2734375,-0.41797 0.8164062,0 1.265625,0.41797 0.453125,0.41797 0.453125,1.05859 0,0.39844 -0.2070313,0.71094 -0.2070312,0.30859 -0.5820312,0.47265 0.4765625,0.19141 0.7226562,0.5586 0.25,0.36719 0.25,0.84765 0,0.79297 -0.5078125,1.28907 -0.5039062,0.49609 -1.34375,0.49609 -0.78125,0 -1.3007812,-0.41016 -0.6132812,-0.48437 -0.6132812,-1.32812 0,-0.46484 0.2304687,-0.85156 0.2304688,-0.39063 0.7265625,-0.60157 z m 0.2265625,-1.10546 q 0,0.32812 0.1835937,0.51171 0.1875,0.1836 0.4960938,0.1836 0.3125,0 0.5,-0.1836 0.1875,-0.1875 0.1875,-0.51562 0,-0.30859 -0.1875,-0.49219 -0.1835938,-0.1875 -0.4882813,-0.1875 -0.3164062,0 -0.5039062,0.1875 -0.1875,0.1875 -0.1875,0.4961 z m -0.1015625,2.45312 q 0,0.45313 0.2304687,0.70703 0.234375,0.25391 0.5820313,0.25391 0.3398437,0 0.5625,-0.24219 0.2226562,-0.24609 0.2226562,-0.70703 0,-0.40234 -0.2265625,-0.64453 -0.2265625,-0.2461 -0.5742187,-0.2461 -0.4023438,0 -0.6015625,0.27735 -0.1953125,0.27734 -0.1953125,0.60156 z"
         id="path13862"
         style="fill:#ede7dc;fill-opacity:1" />
    </g>
    <g
       aria-label="9"
       id="text18061-61"
       style="font-weight:bold;font-size:8px;line-height:1.25;font-family:Arial;-inkscape-font-specification:'Arial, Bold';font-variant-ligatures:none;text-align:center;text-anchor:middle;display:inline;fill:#ede7dc;fill-opacity:1"
       transform="translate(0,1.000001)">
      <path
         d="m 3.2558594,342 1.0625,-0.11719 q 0.039063,0.32422 0.203125,0.48047 0.1640625,0.15625 0.4335937,0.15625 0.3398438,0 0.578125,-0.3125 0.2382813,-0.3125 0.3046875,-1.29687 -0.4140625,0.48046 -1.0351562,0.48046 -0.6757813,0 -1.1679688,-0.51953 -0.4882812,-0.52343 -0.4882812,-1.35937 0,-0.8711 0.515625,-1.40235 0.5195312,-0.53515 1.3203125,-0.53515 0.8710937,0 1.4296875,0.67578 0.5585937,0.67187 0.5585937,2.21484 0,1.57032 -0.5820312,2.26563 -0.5820313,0.69531 -1.515625,0.69531 -0.671875,0 -1.0859375,-0.35547 Q 3.3730469,342.71094 3.2558594,342 Z m 2.484375,-2.39844 q 0,-0.53125 -0.2460938,-0.82422 -0.2421875,-0.29297 -0.5625,-0.29297 -0.3046875,0 -0.5078125,0.24219 -0.1992187,0.23828 -0.1992187,0.78516 0,0.55469 0.21875,0.8164 0.21875,0.25782 0.546875,0.25782 0.3164062,0 0.53125,-0.25 0.21875,-0.25 0.21875,-0.73438 z"
         id="path13865"
         style="fill:#ede7dc;fill-opacity:1" />
    </g>
    <g
       aria-label="LOGIC"
       id="text11155"
       style="font-weight:bold;font-size:12px;line-height:1.25;font-family:Arial;-inkscape-font-specification:'Arial, Bold';font-variant-ligatures:none;text-align:center;text-anchor:middle;display:inline;fill:#ede7dc;fill-opacity:1"
       transform="translate(15.000001)">
      <path
         d="M 49.268555,15.354781 V 6.8352499 h 1.734375 v 7.0722661 h 4.3125 v 1.447265 z"
         id="path13776"
         style="fill:#ede7dc;fill-opacity:1" />
      <path
         d="m 56.200195,11.112594 q 0,-1.3125003 0.392578,-2.2031253 0.292969,-0.65625 0.796875,-1.1777344 0.509766,-0.5214844 1.113282,-0.7734375 0.802734,-0.3398438 1.851562,-0.3398438 1.898438,0 3.035156,1.1777344 1.142579,1.1777344 1.142579,3.2753906 0,2.080078 -1.13086,3.257813 -1.130859,1.171875 -3.023437,1.171875 -1.916016,0 -3.046875,-1.166016 -1.13086,-1.171875 -1.13086,-3.222656 z m 1.78711,-0.05859 q 0,1.458984 0.673828,2.214844 0.673828,0.75 1.710937,0.75 1.03711,0 1.699219,-0.744141 0.667969,-0.75 0.667969,-2.244141 0,-1.4765621 -0.650391,-2.2031246 -0.644531,-0.7265625 -1.716797,-0.7265625 -1.072265,0 -1.728515,0.7382813 -0.65625,0.7324218 -0.65625,2.2148438 z"
         id="path13778"
         style="fill:#ede7dc;fill-opacity:1" />
      <path
         d="m 69.881836,12.196578 v -1.447266 h 3.738281 v 3.421875 q -0.544922,0.527344 -1.582031,0.931641 -1.03125,0.398438 -2.091797,0.398438 -1.347656,0 -2.349609,-0.5625 -1.001953,-0.56836 -1.50586,-1.617188 -0.503906,-1.054687 -0.503906,-2.291016 0,-1.3417965 0.5625,-2.3847652 0.5625,-1.0429688 1.646484,-1.5996094 0.826172,-0.4277344 2.056641,-0.4277344 1.599609,0 2.496094,0.6738282 0.902344,0.6679687 1.160156,1.8515625 L 71.786133,9.4661093 Q 71.604492,8.8332968 71.100586,8.4700155 70.602539,8.1008749 69.852539,8.1008749 q -1.136719,0 -1.810547,0.7207031 -0.667969,0.7207032 -0.667969,2.138672 0,1.529297 0.679688,2.296875 0.679687,0.761719 1.78125,0.761719 0.544922,0 1.089844,-0.210938 0.550781,-0.216797 0.943359,-0.521484 v -1.089844 z"
         id="path13780"
         style="fill:#ede7dc;fill-opacity:1" />
      <path
         d="M 75.166992,15.354781 V 6.7649374 h 1.734375 v 8.5898436 z"
         id="path13782"
         style="fill:#ede7dc;fill-opacity:1" />
      <path
         d="m 84.049805,12.196578 1.68164,0.533203 q -0.386718,1.40625 -1.289062,2.091797 -0.896485,0.679688 -2.279297,0.679688 -1.710938,0 -2.8125,-1.166016 -1.101563,-1.171875 -1.101563,-3.199219 0,-2.1445311 1.107422,-3.3281248 1.107422,-1.1894532 2.91211,-1.1894532 1.576172,0 2.560547,0.9316407 0.585937,0.5507812 0.878906,1.5820312 L 83.991211,9.5422812 Q 83.838867,8.8743124 83.352539,8.4875937 82.87207,8.1008749 82.180664,8.1008749 q -0.955078,0 -1.552734,0.6855469 -0.591797,0.6855469 -0.591797,2.2207032 0,1.628906 0.585937,2.320312 0.585938,0.691407 1.523438,0.691407 0.691406,0 1.189453,-0.439453 0.498047,-0.439454 0.714844,-1.382813 z"
         id="path13784"
         style="fill:#ede7dc;fill-opacity:1" />
    </g>
    <g
       aria-label="MERGE"
       id="text3815"
       style="font-size:5.33333px;line-height:1.25;font-family:Arial;-inkscape-font-specification:'Arial, Normal';font-variant-ligatures:none;text-align:center;text-anchor:middle;display:inline;fill:#ede7dc;fill-opacity:1"
       transform="translate(15.000468)">
      <path
         d="m 26.891489,26.683111 v -3.817706 h 0.760416 l 0.903645,2.703124 q 0.125,0.377603 0.182292,0.565103 0.0651,-0.208333 0.203125,-0.611978 l 0.914062,-2.656249 h 0.679687 v 3.817706 h -0.486979 v -3.19531 l -1.109374,3.19531 h -0.455729 l -1.104166,-3.249998 v 3.249998 z"
         id="path13740"
         style="fill:#ede7dc;fill-opacity:1" />
      <path
         d="m 31.360236,26.683111 v -3.817706 h 2.760415 v 0.450521 h -2.255207 v 1.16927 h 2.111978 v 0.447916 h -2.111978 v 1.299479 h 2.343749 v 0.45052 z"
         id="path13742"
         style="fill:#ede7dc;fill-opacity:1" />
      <path
         d="m 34.914922,26.683111 v -3.817706 h 1.692707 q 0.510416,0 0.776041,0.104167 0.265625,0.101562 0.424479,0.361979 0.158854,0.260416 0.158854,0.57552 0,0.40625 -0.263021,0.684896 -0.26302,0.278645 -0.812499,0.354166 0.200521,0.09635 0.304687,0.190104 0.221354,0.203125 0.419271,0.507812 l 0.664062,1.039062 h -0.635416 l -0.505208,-0.79427 q -0.221354,-0.34375 -0.364583,-0.526042 -0.14323,-0.182291 -0.257813,-0.255208 -0.111979,-0.07292 -0.229166,-0.101562 -0.08594,-0.01823 -0.28125,-0.01823 H 35.42013 V 26.68311 Z M 35.42013,24.5503 h 1.085937 q 0.346353,0 0.541666,-0.07031 0.195312,-0.07292 0.296875,-0.229167 0.101562,-0.158854 0.101562,-0.34375 0,-0.270833 -0.197916,-0.445312 Q 37.052941,23.28728 36.628462,23.28728 H 35.42013 Z"
         id="path13744"
         style="fill:#ede7dc;fill-opacity:1" />
      <path
         d="M 40.545126,25.185716 V 24.7378 l 1.617187,-0.0026 v 1.416666 q -0.372396,0.296874 -0.768229,0.447916 -0.395833,0.148437 -0.8125,0.148437 -0.562499,0 -1.023437,-0.239583 -0.458333,-0.242187 -0.692707,-0.697916 -0.234375,-0.455729 -0.234375,-1.018229 0,-0.557291 0.23177,-1.039062 0.234375,-0.484374 0.671875,-0.718749 0.4375,-0.234375 1.007812,-0.234375 0.414062,0 0.747395,0.135417 0.335938,0.132812 0.526042,0.372395 0.190104,0.239583 0.289062,0.625 l -0.455729,0.125 q -0.08594,-0.291667 -0.213542,-0.458333 -0.127604,-0.166667 -0.364583,-0.265625 -0.236979,-0.101563 -0.526041,-0.101563 -0.346354,0 -0.598958,0.106771 -0.252604,0.104167 -0.408854,0.276042 -0.153646,0.171875 -0.239583,0.377604 -0.145833,0.354166 -0.145833,0.768228 0,0.510417 0.174479,0.854166 0.177083,0.34375 0.51302,0.510417 0.335938,0.166666 0.713542,0.166666 0.328124,0 0.640624,-0.125 0.3125,-0.127604 0.473958,-0.270833 V 25.18572 Z"
         id="path13746"
         style="fill:#ede7dc;fill-opacity:1" />
      <path
         d="m 42.917521,26.683111 v -3.817706 h 2.760415 v 0.450521 h -2.255207 v 1.16927 h 2.111978 v 0.447916 h -2.111978 v 1.299479 h 2.343749 v 0.45052 z"
         id="path13748"
         style="fill:#ede7dc;fill-opacity:1" />
    </g>
    <g
       aria-label="OVER"
       id="text3815-0"
       style="font-size:5.33333px;line-height:1.25;font-family:Arial;-inkscape-font-specification:'Arial, Normal';font-variant-ligatures:none;text-align:center;text-anchor:middle;display:inline;fill:#ede7dc;fill-opacity:1"
       transform="translate(15.000468)">
      <path
         d="m 51.601126,24.82504 q 0,-0.95052 0.510416,-1.486978 Q 52.621958,22.799 53.42925,22.799 q 0.528645,0 0.953124,0.252604 0.424479,0.252604 0.645833,0.705728 0.223958,0.450521 0.223958,1.023437 0,0.580729 -0.234375,1.039062 -0.234375,0.458333 -0.664062,0.695312 -0.429687,0.234375 -0.927083,0.234375 -0.539062,0 -0.963541,-0.260416 -0.424479,-0.260417 -0.643229,-0.710938 -0.218749,-0.45052 -0.218749,-0.953124 z m 0.520833,0.0078 q 0,0.690103 0.369791,1.088541 0.372396,0.395833 0.932291,0.395833 0.570312,0 0.9375,-0.401042 0.369791,-0.401041 0.369791,-1.13802 0,-0.466146 -0.158854,-0.812499 -0.15625,-0.348959 -0.460937,-0.539063 -0.302083,-0.192708 -0.679687,-0.192708 -0.536458,0 -0.924479,0.369792 -0.385416,0.367187 -0.385416,1.229166 z"
         id="path13751"
         style="fill:#ede7dc;fill-opacity:1" />
      <path
         d="m 56.994352,26.684414 -1.479166,-3.817706 h 0.546875 l 0.992186,2.773436 q 0.119792,0.333333 0.200521,0.624999 0.08854,-0.312499 0.205729,-0.624999 l 1.03125,-2.773436 h 0.515624 l -1.49479,3.817706 z"
         id="path13753"
         style="fill:#ede7dc;fill-opacity:1" />
      <path
         d="m 59.470913,26.684414 v -3.817706 h 2.760415 v 0.45052 h -2.255207 v 1.169271 h 2.111978 v 0.447916 h -2.111978 v 1.299478 h 2.343748 v 0.450521 z"
         id="path13755"
         style="fill:#ede7dc;fill-opacity:1" />
      <path
         d="m 63.025598,26.684414 v -3.817706 h 1.692707 q 0.510416,0 0.776041,0.104166 0.265625,0.101563 0.424479,0.361979 0.158854,0.260417 0.158854,0.575521 0,0.40625 -0.26302,0.684895 -0.263021,0.278646 -0.8125,0.354167 0.200521,0.09635 0.304687,0.190104 0.221354,0.203125 0.419271,0.507812 l 0.664062,1.039062 h -0.635416 l -0.505208,-0.79427 q -0.221354,-0.34375 -0.364583,-0.526042 -0.143229,-0.182291 -0.257813,-0.255208 -0.111979,-0.07292 -0.229166,-0.101562 -0.08594,-0.01823 -0.28125,-0.01823 h -0.585937 v 1.695312 z m 0.505208,-2.132811 h 1.085937 q 0.346354,0 0.541666,-0.07031 0.195312,-0.07292 0.296875,-0.229166 0.101562,-0.158854 0.101562,-0.34375 0,-0.270833 -0.197916,-0.445312 -0.195313,-0.174479 -0.619792,-0.174479 h -1.208332 z"
         id="path13757"
         style="fill:#ede7dc;fill-opacity:1" />
    </g>
    <g
       aria-label="RANGE"
       id="text3815-7"
       style="font-size:5.33333px;line-height:1.25;font-family:Arial;-inkscape-font-specification:'Arial, Normal';font-variant-ligatures:none;text-align:center;text-anchor:middle;display:inline;fill:#ede7dc;fill-opacity:1"
       transform="translate(15.000468)">
      <path
         d="m 72.532112,26.683111 v -3.817706 h 1.692708 q 0.510416,0 0.776041,0.104167 0.265625,0.101562 0.424479,0.361979 0.158854,0.260416 0.158854,0.57552 0,0.40625 -0.263021,0.684896 -0.26302,0.278645 -0.812499,0.354166 0.20052,0.09635 0.304687,0.190104 0.221354,0.203125 0.419271,0.507812 l 0.664062,1.039062 h -0.635417 l -0.505208,-0.79427 Q 74.534715,25.545091 74.391486,25.362799 74.248257,25.180508 74.133674,25.107591 74.021695,25.034675 73.904507,25.006029 73.81857,24.9878 73.623258,24.9878 H 73.03732 v 1.695311 z M 73.03732,24.5503 h 1.085937 q 0.346354,0 0.541667,-0.07031 0.195312,-0.07292 0.296874,-0.229167 0.101563,-0.158854 0.101563,-0.34375 0,-0.270833 -0.197917,-0.445312 Q 74.670132,23.28728 74.245653,23.28728 H 73.03732 Z"
         id="path13760"
         style="fill:#ede7dc;fill-opacity:1" />
      <path
         d="m 75.956589,26.683111 1.466145,-3.817706 h 0.544271 l 1.562499,3.817706 h -0.57552 l -0.445313,-1.156249 h -1.596353 l -0.419271,1.156249 z m 1.101562,-1.567707 h 1.29427 l -0.398437,-1.057291 q -0.182291,-0.481771 -0.270833,-0.791666 -0.07292,0.367187 -0.205729,0.729166 z"
         id="path13762"
         style="fill:#ede7dc;fill-opacity:1" />
      <path
         d="m 79.927941,26.683111 v -3.817706 h 0.518229 l 2.005207,2.997394 v -2.997394 h 0.484375 v 3.817706 h -0.518229 l -2.005207,-2.999998 v 2.999998 z"
         id="path13764"
         style="fill:#ede7dc;fill-opacity:1" />
      <path
         d="M 85.571168,25.185716 V 24.7378 l 1.617186,-0.0026 v 1.416666 q -0.372396,0.296874 -0.768229,0.447916 -0.395833,0.148437 -0.812499,0.148437 -0.5625,0 -1.023437,-0.239583 -0.458333,-0.242187 -0.692708,-0.697916 -0.234375,-0.455729 -0.234375,-1.018229 0,-0.557291 0.231771,-1.039062 0.234375,-0.484374 0.671874,-0.718749 0.4375,-0.234375 1.007812,-0.234375 0.414063,0 0.747396,0.135417 0.335937,0.132812 0.526041,0.372395 0.190104,0.239583 0.289062,0.625 l -0.455728,0.125 q -0.08594,-0.291667 -0.213542,-0.458333 -0.127604,-0.166667 -0.364583,-0.265625 -0.236979,-0.101563 -0.526041,-0.101563 -0.346354,0 -0.598958,0.106771 -0.252604,0.104167 -0.408854,0.276042 -0.153646,0.171875 -0.239584,0.377604 -0.145833,0.354166 -0.145833,0.768228 0,0.510417 0.174479,0.854166 0.177083,0.34375 0.513021,0.510417 0.335937,0.166666 0.713541,0.166666 0.328125,0 0.640625,-0.125 0.312499,-0.127604 0.473958,-0.270833 V 25.18572 Z"
         id="path13766"
         style="fill:#ede7dc;fill-opacity:1" />
      <path
         d="m 87.943562,26.683111 v -3.817706 h 2.760415 v 0.450521 H 88.44877 v 1.16927 h 2.111977 v 0.447916 H 88.44877 v 1.299479 h 2.343748 v 0.45052 z"
         id="path13768"
         style="fill:#ede7dc;fill-opacity:1" />
    </g>
    <g
       aria-label="DC"
       id="text3815-4"
       style="font-size:5.33333px;line-height:1.25;font-family:Arial;-inkscape-font-specification:'Arial, Normal';font-variant-ligatures:none;text-align:center;text-anchor:middle;display:inline;fill:#ede7dc;fill-opacity:1"
       transform="translate(15.000468)">
      <path
         d="m 100.78862,26.683111 v -3.817706 h 1.3151 q 0.44532,0 0.67969,0.05469 0.32812,0.07552 0.5599,0.273437 0.30208,0.255208 0.45052,0.653645 0.15104,0.395833 0.15104,0.90625 0,0.434895 -0.10156,0.770833 -0.10157,0.335937 -0.26042,0.557291 -0.15886,0.21875 -0.34896,0.346354 -0.1875,0.125 -0.45573,0.190104 -0.26562,0.0651 -0.61198,0.0651 z m 0.50521,-0.45052 h 0.8151 q 0.37761,0 0.59115,-0.07031 0.21614,-0.07031 0.34375,-0.197916 0.17968,-0.179688 0.27864,-0.481771 0.10156,-0.304687 0.10156,-0.736979 0,-0.598958 -0.19791,-0.91927 -0.19531,-0.322916 -0.47656,-0.432291 -0.20313,-0.07813 -0.65365,-0.07813 h -0.80208 z"
         id="path13771"
         style="fill:#ede7dc;fill-opacity:1" />
      <path
         d="m 107.36414,25.34457 0.5052,0.127604 q -0.15885,0.622396 -0.57291,0.950521 -0.41146,0.32552 -1.00781,0.32552 -0.61719,0 -1.00521,-0.25 -0.38542,-0.252604 -0.58854,-0.729166 -0.20052,-0.476562 -0.20052,-1.023437 0,-0.596353 0.22656,-1.039062 0.22917,-0.445312 0.64844,-0.674478 0.42187,-0.231771 0.92708,-0.231771 0.57291,0 0.96354,0.291666 0.39062,0.291667 0.54427,0.820313 l -0.4974,0.117187 q -0.13281,-0.416666 -0.38541,-0.606771 -0.25261,-0.190104 -0.63542,-0.190104 -0.4401,0 -0.73698,0.210938 -0.29427,0.210937 -0.41406,0.567708 -0.11979,0.354166 -0.11979,0.73177 0,0.486979 0.14062,0.851562 0.14323,0.361979 0.44271,0.541667 0.29948,0.179687 0.64844,0.179687 0.42448,0 0.71875,-0.244792 0.29427,-0.244791 0.39844,-0.726562 z"
         id="path13773"
         style="fill:#ede7dc;fill-opacity:1" />
    </g>
    <g
       aria-label="REUSE"
       id="text18061-0"
       style="font-weight:bold;font-size:8px;line-height:1.25;font-family:Arial;-inkscape-font-specification:'Arial, Bold';font-variant-ligatures:none;text-align:center;text-anchor:middle;display:inline;fill:#ede7dc;fill-opacity:1"
       transform="translate(30.760204,1.000001)">
      <path
         d="m 37.950489,85.644058 v -5.726562 h 2.433594 q 0.917969,0 1.332031,0.15625 0.417969,0.152343 0.667969,0.546875 0.25,0.394531 0.25,0.902343 0,0.644532 -0.378906,1.066407 -0.378907,0.417968 -1.132813,0.527343 0.375,0.21875 0.617188,0.480469 0.246093,0.261719 0.660156,0.929688 l 0.699219,1.117187 h -1.382813 l -0.835937,-1.246094 q -0.445313,-0.667968 -0.609375,-0.839843 -0.164063,-0.175782 -0.347657,-0.238282 -0.183593,-0.06641 -0.582031,-0.06641 h -0.234375 v 2.390625 z m 1.15625,-3.304687 h 0.855469 q 0.832031,0 1.039062,-0.07031 0.207032,-0.07031 0.324219,-0.242187 0.117188,-0.171875 0.117188,-0.429688 0,-0.289062 -0.15625,-0.464844 -0.152344,-0.179687 -0.433594,-0.226562 -0.140625,-0.01953 -0.84375,-0.01953 h -0.902344 z"
         id="path13830"
         style="fill:#ede7dc;fill-opacity:1" />
      <path
         d="m 43.723927,85.644058 v -5.726562 h 4.246093 v 0.96875 h -3.089843 v 1.269531 h 2.875 v 0.964844 h -2.875 v 1.558593 h 3.199218 v 0.964844 z"
         id="path13832"
         style="fill:#ede7dc;fill-opacity:1" />
      <path
         d="m 49.052052,79.917496 h 1.15625 v 3.101562 q 0,0.738281 0.04297,0.957031 0.07422,0.351563 0.351563,0.566407 0.28125,0.210937 0.765625,0.210937 0.492187,0 0.742187,-0.199219 0.25,-0.203125 0.300782,-0.496093 0.05078,-0.292969 0.05078,-0.972657 v -3.167968 h 1.15625 v 3.007812 q 0,1.03125 -0.09375,1.457031 -0.09375,0.425782 -0.347656,0.71875 -0.25,0.292969 -0.671875,0.46875 -0.421875,0.171875 -1.101563,0.171875 -0.820312,0 -1.246094,-0.1875 -0.421875,-0.191406 -0.667968,-0.492187 -0.246094,-0.304688 -0.324219,-0.636719 -0.113281,-0.492187 -0.113281,-1.453125 z"
         id="path13834"
         style="fill:#ede7dc;fill-opacity:1" />
      <path
         d="m 54.544239,83.780777 1.125,-0.109375 q 0.101563,0.566406 0.410156,0.832031 0.3125,0.265625 0.839844,0.265625 0.558594,0 0.839844,-0.234375 0.285156,-0.238281 0.285156,-0.554687 0,-0.203125 -0.121094,-0.34375 -0.117187,-0.144532 -0.414062,-0.25 -0.203125,-0.07031 -0.925781,-0.25 -0.929688,-0.230469 -1.304688,-0.566407 -0.527344,-0.472656 -0.527344,-1.152343 0,-0.4375 0.246094,-0.816407 0.25,-0.382812 0.714844,-0.582031 0.46875,-0.199219 1.128906,-0.199219 1.078125,0 1.621094,0.472657 0.546875,0.472656 0.574219,1.261718 l -1.15625,0.05078 q -0.07422,-0.441407 -0.320313,-0.632813 -0.242187,-0.195312 -0.730469,-0.195312 -0.503906,0 -0.789062,0.207031 -0.183594,0.132812 -0.183594,0.355469 0,0.203125 0.171875,0.347656 0.21875,0.183594 1.0625,0.382812 0.84375,0.199219 1.246094,0.414063 0.40625,0.210937 0.632812,0.582031 0.230469,0.367188 0.230469,0.910156 0,0.492188 -0.273437,0.921875 -0.273438,0.429688 -0.773438,0.640625 -0.5,0.207032 -1.246094,0.207032 -1.085937,0 -1.667968,-0.5 -0.582032,-0.503907 -0.695313,-1.464844 z"
         id="path13836"
         style="fill:#ede7dc;fill-opacity:1" />
      <path
         d="m 60.173145,85.644058 v -5.726562 h 4.246094 v 0.96875 h -3.089844 v 1.269531 h 2.875 v 0.964844 h -2.875 v 1.558593 h 3.199219 v 0.964844 z"
         id="path13838"
         style="fill:#ede7dc;fill-opacity:1" />
    </g>
    <g
       aria-label="OP"
       id="text18061-6"
       style="font-weight:bold;font-size:8px;line-height:1.25;font-family:Arial;-inkscape-font-specification:'Arial, Bold';font-variant-ligatures:none;text-align:center;text-anchor:middle;display:inline;fill:#ede7dc;fill-opacity:1"
       transform="translate(29.808892,1.000001)">
      <path
         d="m 78.159866,82.817886 q 0,-0.875 0.261719,-1.46875 0.195313,-0.4375 0.53125,-0.785156 0.339844,-0.347656 0.742188,-0.515625 0.535156,-0.226562 1.234375,-0.226562 1.265625,0 2.023437,0.785156 0.761719,0.785156 0.761719,2.183594 0,1.386718 -0.753906,2.171875 -0.753907,0.78125 -2.015625,0.78125 -1.277344,0 -2.03125,-0.777344 -0.753907,-0.78125 -0.753907,-2.148438 z m 1.191407,-0.03906 q 0,0.972656 0.449218,1.476562 0.449219,0.5 1.140625,0.5 0.691407,0 1.132813,-0.496093 0.445312,-0.5 0.445312,-1.496094 0,-0.984375 -0.433593,-1.46875 -0.429688,-0.484375 -1.144532,-0.484375 -0.714843,0 -1.152343,0.492187 -0.4375,0.488282 -0.4375,1.476563 z"
         id="path13841"
         style="fill:#ede7dc;fill-opacity:1" />
      <path
         d="m 84.616898,85.646011 v -5.726562 h 1.855468 q 1.054688,0 1.375,0.08594 0.492188,0.128907 0.824219,0.5625 0.332031,0.429688 0.332031,1.113282 0,0.527343 -0.191406,0.886718 -0.191406,0.359375 -0.488281,0.566407 -0.292969,0.203125 -0.597656,0.269531 -0.414063,0.08203 -1.199219,0.08203 h -0.753906 v 2.160156 z m 1.15625,-4.757812 v 1.625 h 0.632812 q 0.683594,0 0.914063,-0.08984 0.230468,-0.08984 0.359375,-0.28125 0.132812,-0.191406 0.132812,-0.445312 0,-0.3125 -0.183594,-0.515625 -0.183593,-0.203125 -0.464843,-0.253907 -0.207032,-0.03906 -0.832032,-0.03906 z"
         id="path13843"
         style="fill:#ede7dc;fill-opacity:1" />
    </g>
    <rect
       x="129.03058"
       y="76.407448"
       width="30.501871"
       height="278.50269"
       rx="3.0282819"
       fill="#1f1f1f"
       id="rect56"
       style="display:inline;fill:#ede7dc;fill-opacity:1;stroke-width:2.75651" />
    <g
       aria-label="A"
       id="text42808"
       style="font-weight:bold;font-size:8px;line-height:1.25;font-family:Arial;-inkscape-font-specification:'Arial, Bold';font-variant-ligatures:none;text-align:center;text-anchor:middle;display:inline;fill:#ede7dc;fill-opacity:1"
       transform="translate(0,1.000001)">
      <path
         d="m 23.591047,85.646011 h -1.257812 l -0.5,-1.300781 h -2.289063 l -0.472656,1.300781 h -1.226562 l 2.230468,-5.726562 h 1.222657 z m -2.128906,-2.265625 -0.789062,-2.125 -0.773438,2.125 z"
         id="path52189"
         style="fill:#ede7dc;fill-opacity:1" />
    </g>
    <g
       aria-label="B"
       id="text42808-8"
       style="font-weight:bold;font-size:8px;line-height:1.25;font-family:Arial;-inkscape-font-specification:'Arial, Bold';font-variant-ligatures:none;text-align:center;text-anchor:middle;display:inline;fill:#ede7dc;fill-opacity:1"
       transform="translate(0,1.000001)">
      <path
         d="m 48.710442,79.919449 h 2.289062 q 0.679688,0 1.011719,0.05859 0.335937,0.05469 0.597656,0.234375 0.265625,0.179687 0.441406,0.480468 0.175782,0.296875 0.175782,0.667969 0,0.402344 -0.21875,0.738281 -0.214844,0.335938 -0.585938,0.503907 0.523438,0.152343 0.804688,0.519531 0.28125,0.367187 0.28125,0.863281 0,0.390625 -0.183594,0.761719 -0.179688,0.367187 -0.496094,0.589844 -0.3125,0.21875 -0.773437,0.269531 -0.289063,0.03125 -1.394532,0.03906 h -1.949218 z m 1.15625,0.953125 v 1.324219 h 0.757812 q 0.675781,0 0.839844,-0.01953 0.296875,-0.03516 0.464844,-0.203125 0.171875,-0.171875 0.171875,-0.449218 0,-0.265625 -0.148438,-0.429688 -0.144531,-0.167969 -0.433594,-0.203125 -0.171875,-0.01953 -0.988281,-0.01953 z m 0,2.277344 v 1.53125 h 1.070312 q 0.625,0 0.792969,-0.03516 0.257812,-0.04687 0.417969,-0.226562 0.164062,-0.183594 0.164062,-0.488281 0,-0.257813 -0.125,-0.4375 -0.125,-0.179688 -0.363281,-0.261719 -0.234375,-0.08203 -1.023438,-0.08203 z"
         id="path52192"
         style="fill:#ede7dc;fill-opacity:1" />
    </g>
    <g
       aria-label="HIGH THRESH"
       id="text9062"
       style="font-weight:bold;font-size:8px;line-height:1.25;font-family:Arial;-inkscape-font-specification:'Arial, Bold';font-variant-ligatures:none;text-align:center;text-anchor:middle;fill:#ede7dc;fill-opacity:1">
      <path
         d="m 24.034939,47.167217 v -5.726562 h 1.15625 v 2.253906 h 2.265625 v -2.253906 h 1.15625 v 5.726562 h -1.15625 v -2.503906 h -2.265625 v 2.503906 z"
         id="path11833"
         style="fill:#ede7dc;fill-opacity:1" />
      <path
         d="m 29.77322,47.167217 v -5.726562 h 1.15625 v 5.726562 z"
         id="path11835"
         style="fill:#ede7dc;fill-opacity:1" />
      <path
         d="m 34.695095,45.061749 v -0.964844 h 2.492188 v 2.28125 q -0.363282,0.351562 -1.054688,0.621094 -0.6875,0.265625 -1.394531,0.265625 -0.898438,0 -1.566406,-0.375 -0.667969,-0.378907 -1.003907,-1.078125 -0.335937,-0.703125 -0.335937,-1.527344 0,-0.894531 0.375,-1.589844 0.375,-0.695312 1.097656,-1.066406 0.550781,-0.285156 1.371094,-0.285156 1.066406,0 1.664062,0.449218 0.601563,0.445313 0.773438,1.234375 l -1.148438,0.214844 q -0.121093,-0.421875 -0.457031,-0.664062 -0.332031,-0.246094 -0.832031,-0.246094 -0.757813,0 -1.207031,0.480469 -0.445313,0.480468 -0.445313,1.425781 0,1.019531 0.453125,1.53125 0.453125,0.507812 1.1875,0.507812 0.363281,0 0.726563,-0.140625 0.367187,-0.144531 0.628906,-0.347656 v -0.726562 z"
         id="path11837"
         style="fill:#ede7dc;fill-opacity:1" />
      <path
         d="m 38.257595,47.167217 v -5.726562 h 1.15625 v 2.253906 h 2.265625 v -2.253906 h 1.15625 v 5.726562 h -1.15625 v -2.503906 h -2.265625 v 2.503906 z"
         id="path11839"
         style="fill:#ede7dc;fill-opacity:1" />
      <path
         d="m 47.542751,47.167217 v -4.757812 h -1.699218 v -0.96875 h 4.550781 v 0.96875 h -1.695313 v 4.757812 z"
         id="path11841"
         style="fill:#ede7dc;fill-opacity:1" />
      <path
         d="m 51.144314,47.167217 v -5.726562 h 1.15625 v 2.253906 h 2.265625 v -2.253906 h 1.15625 v 5.726562 h -1.15625 v -2.503906 h -2.265625 v 2.503906 z"
         id="path11843"
         style="fill:#ede7dc;fill-opacity:1" />
      <path
         d="m 56.921658,47.167217 v -5.726562 h 2.433593 q 0.917969,0 1.332032,0.15625 0.417968,0.152344 0.667968,0.546875 0.25,0.394531 0.25,0.902344 0,0.644531 -0.378906,1.066406 -0.378906,0.417969 -1.132812,0.527344 0.375,0.21875 0.617187,0.480468 0.246094,0.261719 0.660156,0.929688 l 0.699219,1.117187 H 60.687283 L 59.851345,45.921124 Q 59.406033,45.253155 59.24197,45.08128 59.077908,44.905499 58.894314,44.842999 58.71072,44.776592 58.312283,44.776592 h -0.234375 v 2.390625 z m 1.15625,-3.304687 h 0.855468 q 0.832032,0 1.039063,-0.07031 0.207031,-0.07031 0.324219,-0.242187 0.117187,-0.171875 0.117187,-0.429688 0,-0.289062 -0.15625,-0.464843 -0.152344,-0.179688 -0.433594,-0.226563 -0.140625,-0.01953 -0.84375,-0.01953 h -0.902343 z"
         id="path11845"
         style="fill:#ede7dc;fill-opacity:1" />
      <path
         d="m 62.695095,47.167217 v -5.726562 h 4.246094 v 0.96875 h -3.089844 v 1.269531 h 2.875 v 0.964844 h -2.875 v 1.558594 h 3.199219 v 0.964843 z"
         id="path11847"
         style="fill:#ede7dc;fill-opacity:1" />
      <path
         d="m 67.738064,45.303936 1.125,-0.109375 q 0.101562,0.566406 0.410156,0.832031 0.3125,0.265625 0.839844,0.265625 0.558594,0 0.839844,-0.234375 0.285156,-0.238281 0.285156,-0.554687 0,-0.203125 -0.121094,-0.34375 -0.117187,-0.144531 -0.414062,-0.25 -0.203125,-0.07031 -0.925782,-0.25 -0.929687,-0.230469 -1.304687,-0.566406 -0.527344,-0.472657 -0.527344,-1.152344 0,-0.4375 0.246094,-0.816406 0.25,-0.382813 0.714844,-0.582032 0.46875,-0.199218 1.128906,-0.199218 1.078125,0 1.621094,0.472656 0.546875,0.472656 0.574218,1.261719 l -1.15625,0.05078 q -0.07422,-0.441406 -0.320312,-0.632813 -0.242188,-0.195312 -0.730469,-0.195312 -0.503906,0 -0.789062,0.207031 -0.183594,0.132813 -0.183594,0.355469 0,0.203125 0.171875,0.347656 0.21875,0.183594 1.0625,0.382813 0.84375,0.199218 1.246094,0.414062 0.40625,0.210938 0.632812,0.582031 0.230469,0.367188 0.230469,0.910157 0,0.492187 -0.273438,0.921875 -0.273437,0.429687 -0.773437,0.640625 -0.5,0.207031 -1.246094,0.207031 -1.085937,0 -1.667969,-0.5 -0.582031,-0.503906 -0.695312,-1.464843 z"
         id="path11849"
         style="fill:#ede7dc;fill-opacity:1" />
      <path
         d="m 73.370876,47.167217 v -5.726562 h 1.15625 v 2.253906 h 2.265625 v -2.253906 h 1.15625 v 5.726562 h -1.15625 v -2.503906 h -2.265625 v 2.503906 z"
         id="path11851"
         style="fill:#ede7dc;fill-opacity:1" />
    </g>
    <g
       aria-label="LOW THRESH"
       id="text9062-6"
       style="font-weight:bold;font-size:8px;line-height:1.25;font-family:Arial;-inkscape-font-specification:'Arial, Bold';font-variant-ligatures:none;text-align:center;text-anchor:middle;display:inline;fill:#ede7dc;fill-opacity:1">
      <path
         d="M 87.735519,47.167217 V 41.48753 h 1.15625 v 4.714844 h 2.875 v 0.964843 z"
         id="path11854"
         style="fill:#ede7dc;fill-opacity:1" />
      <path
         d="m 92.356613,44.339092 q 0,-0.875 0.261719,-1.46875 0.195312,-0.4375 0.53125,-0.785156 0.339844,-0.347656 0.742187,-0.515625 0.535157,-0.226562 1.234375,-0.226562 1.265625,0 2.023438,0.785156 0.761719,0.785156 0.761719,2.183594 0,1.386718 -0.753907,2.171875 -0.753906,0.78125 -2.015625,0.78125 -1.277343,0 -2.03125,-0.777344 -0.753906,-0.78125 -0.753906,-2.148438 z m 1.191406,-0.03906 q 0,0.972656 0.449219,1.476562 0.449219,0.5 1.140625,0.5 0.691406,0 1.132813,-0.496093 0.445312,-0.5 0.445312,-1.496094 0,-0.984375 -0.433594,-1.46875 -0.429687,-0.484375 -1.144531,-0.484375 -0.714844,0 -1.152344,0.492187 -0.4375,0.488282 -0.4375,1.476563 z"
         id="path11856"
         style="fill:#ede7dc;fill-opacity:1" />
      <path
         d="m 99.626144,47.167217 -1.367187,-5.726562 h 1.183594 l 0.863279,3.933594 1.04688,-3.933594 h 1.375 l 1.0039,4 0.87891,-4 h 1.16406 l -1.39062,5.726562 h -1.22657 l -1.14062,-4.28125 -1.13672,4.28125 z"
         id="path11858"
         style="fill:#ede7dc;fill-opacity:1" />
      <path
         d="m 109.87614,47.167217 v -4.757812 h -1.69921 v -0.96875 h 4.55078 v 0.96875 h -1.69532 v 4.757812 z"
         id="path11860"
         style="fill:#ede7dc;fill-opacity:1" />
      <path
         d="m 113.47771,47.167217 v -5.726562 h 1.15625 v 2.253906 h 2.26562 v -2.253906 h 1.15625 v 5.726562 h -1.15625 v -2.503906 h -2.26562 v 2.503906 z"
         id="path11862"
         style="fill:#ede7dc;fill-opacity:1" />
      <path
         d="m 119.25505,47.167217 v -5.726562 h 2.43359 q 0.91797,0 1.33204,0.15625 0.41796,0.152344 0.66796,0.546875 0.25,0.394531 0.25,0.902344 0,0.644531 -0.3789,1.066406 -0.37891,0.417969 -1.13281,0.527344 0.375,0.21875 0.61718,0.480468 0.2461,0.261719 0.66016,0.929688 l 0.69922,1.117187 h -1.38281 l -0.83594,-1.246093 q -0.44531,-0.667969 -0.60938,-0.839844 -0.16406,-0.175781 -0.34765,-0.238281 -0.1836,-0.06641 -0.58203,-0.06641 h -0.23438 v 2.390625 z m 1.15625,-3.304687 h 0.85547 q 0.83203,0 1.03906,-0.07031 0.20703,-0.07031 0.32422,-0.242187 0.11719,-0.171875 0.11719,-0.429688 0,-0.289062 -0.15625,-0.464843 -0.15235,-0.179688 -0.4336,-0.226563 -0.14062,-0.01953 -0.84375,-0.01953 h -0.90234 z"
         id="path11864"
         style="fill:#ede7dc;fill-opacity:1" />
      <path
         d="m 125.02849,47.167217 v -5.726562 h 4.24609 v 0.96875 h -3.08984 v 1.269531 h 2.875 v 0.964844 h -2.875 v 1.558594 h 3.19922 v 0.964843 z"
         id="path11866"
         style="fill:#ede7dc;fill-opacity:1" />
      <path
         d="m 130.07146,45.303936 1.125,-0.109375 q 0.10156,0.566406 0.41015,0.832031 0.3125,0.265625 0.83985,0.265625 0.55859,0 0.83984,-0.234375 0.28516,-0.238281 0.28516,-0.554687 0,-0.203125 -0.1211,-0.34375 -0.11718,-0.144531 -0.41406,-0.25 -0.20312,-0.07031 -0.92578,-0.25 -0.92969,-0.230469 -1.30469,-0.566406 -0.52734,-0.472657 -0.52734,-1.152344 0,-0.4375 0.24609,-0.816406 0.25,-0.382813 0.71485,-0.582032 0.46875,-0.199218 1.1289,-0.199218 1.07813,0 1.6211,0.472656 0.54687,0.472656 0.57421,1.261719 l -1.15625,0.05078 q -0.0742,-0.441406 -0.32031,-0.632813 -0.24219,-0.195312 -0.73047,-0.195312 -0.5039,0 -0.78906,0.207031 -0.18359,0.132813 -0.18359,0.355469 0,0.203125 0.17187,0.347656 0.21875,0.183594 1.0625,0.382813 0.84375,0.199218 1.2461,0.414062 0.40625,0.210938 0.63281,0.582031 0.23047,0.367188 0.23047,0.910157 0,0.492187 -0.27344,0.921875 -0.27344,0.429687 -0.77344,0.640625 -0.5,0.207031 -1.24609,0.207031 -1.08594,0 -1.66797,-0.5 -0.58203,-0.503906 -0.69531,-1.464843 z"
         id="path11868"
         style="fill:#ede7dc;fill-opacity:1" />
      <path
         d="m 135.70427,47.167217 v -5.726562 h 1.15625 v 2.253906 h 2.26562 v -2.253906 h 1.15625 v 5.726562 h -1.15625 v -2.503906 h -2.26562 v 2.503906 z"
         id="path11870"
         style="fill:#ede7dc;fill-opacity:1" />
    </g>
  </g>
  <text
     xml:space="preserve"
     id="text29904"
     style="font-weight:bold;font-size:8px;line-height:1.25;font-family:Arial;-inkscape-font-specification:'Arial, Bold';font-variant-ligatures:none;text-align:center;white-space:pre;shape-inside:url(#rect29906)"
     transform="translate(-2.6024628e-4)" />
  <g
     inkscape:groupmode="layer"
     id="layer2"
     inkscape:label="Text Labels"
     style="display:none" />
  <g
     inkscape:groupmode="layer"
     id="layer7"
     inkscape:label="Invert Lines"
     style="display:none" />
  <g
     inkscape:groupmode="layer"
     id="layer8"
     inkscape:label="Invert Solids"
     style="display:inline">
    <g
       aria-label="OUT"
       id="text18061-4"
       style="font-weight:bold;font-size:8px;line-height:1.25;font-family:Arial;-inkscape-font-specification:'Arial, Bold';font-variant-ligatures:none;text-align:center;text-anchor:middle;display:inline;fill:#252525;fill-opacity:1"
       transform="translate(29.999509,1.000001)">
      <path
         d="m 106.0945,82.817886 q 0,-0.875 0.26172,-1.46875 0.19531,-0.4375 0.53125,-0.785156 0.33984,-0.347656 0.74218,-0.515625 0.53516,-0.226562 1.23438,-0.226562 1.26562,0 2.02344,0.785156 0.76172,0.785156 0.76172,2.183594 0,1.386718 -0.75391,2.171875 -0.75391,0.78125 -2.01563,0.78125 -1.27734,0 -2.03125,-0.777344 -0.7539,-0.78125 -0.7539,-2.148438 z m 1.1914,-0.03906 q 0,0.972656 0.44922,1.476562 0.44922,0.5 1.14063,0.5 0.6914,0 1.13281,-0.496093 0.44531,-0.5 0.44531,-1.496094 0,-0.984375 -0.43359,-1.46875 -0.42969,-0.484375 -1.14453,-0.484375 -0.71485,0 -1.15235,0.492187 -0.4375,0.488282 -0.4375,1.476563 z"
         id="path13846"
         style="fill:#252525;fill-opacity:1" />
      <path
         d="m 112.54372,79.919449 h 1.15625 v 3.101562 q 0,0.738282 0.043,0.957032 0.0742,0.351562 0.35156,0.566406 0.28125,0.210937 0.76562,0.210937 0.49219,0 0.74219,-0.199218 0.25,-0.203125 0.30078,-0.496094 0.0508,-0.292969 0.0508,-0.972656 v -3.167969 h 1.15625 v 3.007812 q 0,1.03125 -0.0937,1.457032 -0.0937,0.425781 -0.34765,0.71875 -0.25,0.292968 -0.67188,0.46875 -0.42187,0.171875 -1.10156,0.171875 -0.82031,0 -1.24609,-0.1875 -0.42188,-0.191407 -0.66797,-0.492188 -0.2461,-0.304687 -0.32422,-0.636719 -0.11328,-0.492187 -0.11328,-1.453125 z"
         id="path13848"
         style="fill:#252525;fill-opacity:1" />
      <path
         d="m 119.61794,85.646011 v -4.757812 h -1.69922 v -0.96875 h 4.55078 v 0.96875 h -1.69531 v 4.757812 z"
         id="path13850"
         style="fill:#252525;fill-opacity:1" />
    </g>
  </g>
  <text
     xml:space="preserve"
     style="font-weight:bold;font-size:8px;line-height:1.25;font-family:Arial;-inkscape-font-specification:'Arial, Bold';font-variant-ligatures:none;text-align:center;text-anchor:middle"
     x="147.48465"
     y="82.920555"
     id="text43274"><tspan
       sodipodi:role="line"
       id="tspan43272"
       x="147.48465"
       y="82.920555" /></text>
  <g
     inkscape:groupmode="layer"
     id="layer1"
     inkscape:label="Widgets"
     style="display:none">
    <circle
       style="display:inline;fill:#ff0000;stroke:#ff0000;stroke-width:1.8645;stroke-opacity:1"
       id="path1065-7-1-6"
       cx="98.582207"
       cy="60.999226"
       r="10.06775" />
    <circle
       style="display:inline;fill:#ff0000;stroke:#ff0000;stroke-width:1.8645;stroke-opacity:1"
       id="path1065-7-2-3"
       cx="35.718468"
       cy="60.999226"
       r="10.06775" />
    <circle
       style="display:inline;fill:#ff0000;stroke:#ff0000;stroke-width:1.94925;stroke-opacity:1"
       id="path1065-22"
       cx="20.718"
       cy="311.49921"
       r="10.525375" />
    <circle
       style="display:inline;fill:#ff0000;stroke:#ff0000;stroke-width:1.94925;stroke-opacity:1"
       id="path1065-7-21"
       cx="20.718"
       cy="281.49921"
       r="10.525375" />
    <circle
       style="display:inline;fill:#ff0000;stroke:#ff0000;stroke-width:1.94925;stroke-opacity:1"
       id="path1065-7-1-5"
       cx="20.718"
       cy="251.49922"
       r="10.525375" />
    <circle
       style="display:inline;fill:#ff0000;stroke:#ff0000;stroke-width:1.94925;stroke-opacity:1"
       id="path1065-7-2-5"
       cx="20.718"
       cy="221.49922"
       r="10.525375" />
    <circle
       style="display:inline;fill:#ff0000;stroke:#ff0000;stroke-width:1.94925;stroke-opacity:1"
       id="path1065-72-3"
       cx="20.718"
       cy="341.49921"
       r="10.525375" />
    <circle
       style="display:inline;fill:#ff0000;stroke:#ff0000;stroke-width:1.94925;stroke-opacity:1"
       id="path1065-9-2"
       cx="144.28151"
       cy="311.49921"
       r="10.525375" />
    <circle
       style="display:inline;fill:#ff0000;stroke:#ff0000;stroke-width:1.94925;stroke-opacity:1"
       id="path1065-7-38-4"
       cx="144.28151"
       cy="281.49921"
       r="10.525375" />
    <circle
       style="display:inline;fill:#ff0000;stroke:#ff0000;stroke-width:1.94925;stroke-opacity:1"
       id="path1065-7-1-1-7"
       cx="144.28151"
       cy="251.49922"
       r="10.525375" />
    <circle
       style="display:inline;fill:#ff0000;stroke:#ff0000;stroke-width:1.94925;stroke-opacity:1"
       id="path1065-7-2-8-8"
       cx="144.28151"
       cy="221.49922"
       r="10.525375" />
    <circle
       style="display:inline;fill:#ff0000;stroke:#ff0000;stroke-width:1.94925;stroke-opacity:1"
       id="path1065-72-2-6"
       cx="144.28151"
       cy="341.49918"
       r="10.525375" />
    <rect
       style="display:inline;opacity:0.98;fill:#ff0000;fill-opacity:1;stroke:none;stroke-width:0.623622"
       id="rect7664"
       width="24"
       height="24"
       x="70.499756"
       y="209.49922"
       ry="3.797888" />
    <rect
       style="display:inline;opacity:0.98;fill:#ff0000;fill-opacity:1;stroke:none;stroke-width:0.623622"
       id="rect7664-4"
       width="24"
       height="24"
       x="101.39063"
       y="209.49922"
       ry="3.797888" />
    <circle
       style="display:inline;fill:#ff0000;stroke:#ff0000;stroke-width:1.94925;stroke-opacity:1"
       id="path1065-7-2-5-9"
       cx="20.718"
       cy="191.49922"
       r="10.525375" />
    <circle
       style="display:inline;fill:#ff0000;stroke:#ff0000;stroke-width:1.94925;stroke-opacity:1"
       id="path1065-7-2-8-8-3"
       cx="144.28151"
       cy="191.49922"
       r="10.525375" />
    <rect
       style="display:inline;opacity:0.98;fill:#ff0000;fill-opacity:1;stroke:none;stroke-width:0.623622"
       id="rect7664-1"
       width="24"
       height="24"
       x="70.499756"
       y="179.49922"
       ry="3.797888" />
    <rect
       style="display:inline;opacity:0.98;fill:#ff0000;fill-opacity:1;stroke:none;stroke-width:0.623622"
       id="rect7664-4-02"
       width="24"
       height="24"
       x="101.39063"
       y="179.49922"
       ry="3.797888" />
    <circle
       style="display:inline;fill:#ff0000;stroke:#ff0000;stroke-width:1.94925;stroke-opacity:1"
       id="path1065-7-2-5-8"
       cx="20.718"
       cy="161.49922"
       r="10.525375" />
    <circle
       style="display:inline;fill:#ff0000;stroke:#ff0000;stroke-width:1.94925;stroke-opacity:1"
       id="path1065-7-2-8-8-4"
       cx="144.28151"
       cy="161.49922"
       r="10.525375" />
    <rect
       style="display:inline;opacity:0.98;fill:#ff0000;fill-opacity:1;stroke:none;stroke-width:0.623622"
       id="rect7664-94"
       width="24"
       height="24"
       x="70.499756"
       y="149.49922"
       ry="3.797888" />
    <rect
       style="display:inline;opacity:0.98;fill:#ff0000;fill-opacity:1;stroke:none;stroke-width:0.623622"
       id="rect7664-4-85"
       width="24"
       height="24"
       x="101.39063"
       y="149.49922"
       ry="3.797888" />
    <circle
       style="display:inline;fill:#ff0000;stroke:#ff0000;stroke-width:1.94925;stroke-opacity:1"
       id="path1065-7-2-5-3"
       cx="20.718"
       cy="131.49922"
       r="10.525375" />
    <circle
       style="display:inline;fill:#ff0000;stroke:#ff0000;stroke-width:1.94925;stroke-opacity:1"
       id="path1065-7-2-8-8-1"
       cx="144.28151"
       cy="131.49922"
       r="10.525375" />
    <rect
       style="display:inline;opacity:0.98;fill:#ff0000;fill-opacity:1;stroke:none;stroke-width:0.623622"
       id="rect7664-92"
       width="24"
       height="24"
       x="70.499756"
       y="119.49922"
       ry="3.797888" />
    <rect
       style="display:inline;opacity:0.98;fill:#ff0000;fill-opacity:1;stroke:none;stroke-width:0.623622"
       id="rect7664-4-3"
       width="24"
       height="24"
       x="101.39063"
       y="119.49922"
       ry="3.797888" />
    <circle
       style="display:inline;fill:#ff0000;stroke:#ff0000;stroke-width:1.94925;stroke-opacity:1"
       id="path1065-7-2-5-7"
       cx="20.718"
       cy="101.49922"
       r="10.525375" />
    <circle
       style="display:inline;fill:#ff0000;stroke:#ff0000;stroke-width:1.94925;stroke-opacity:1"
       id="path1065-7-2-5-7-4"
       cx="66.265709"
       cy="60.999226"
       r="10.525375" />
    <circle
       style="display:inline;fill:#ff0000;stroke:#ff0000;stroke-width:1.94925;stroke-opacity:1"
       id="path1065-7-2-5-7-1"
       cx="129.19821"
       cy="60.999226"
       r="10.525375" />
    <circle
       style="display:inline;fill:#ff0000;stroke:#ff0000;stroke-width:1.94925;stroke-opacity:1"
       id="path1065-7-2-8-8-7"
       cx="144.28151"
       cy="101.49922"
       r="10.525375" />
    <rect
       style="display:inline;opacity:0.98;fill:#ff0000;fill-opacity:1;stroke:none;stroke-width:0.623622"
       id="rect7664-82"
       width="24"
       height="24"
       x="69.999756"
       y="89.499222"
       ry="3.797888" />
    <rect
       style="display:inline;opacity:0.98;fill:#ff0000;fill-opacity:1;stroke:none;stroke-width:0.623622"
       id="rect7664-4-2"
       width="24"
       height="24"
       x="101.39063"
       y="89.499222"
       ry="3.797888" />
    <rect
       style="display:inline;opacity:0.98;fill:#ff0000;fill-opacity:1;stroke:none;stroke-width:0.623622"
       id="rect7664-9"
       width="24"
       height="24"
       x="70.499756"
       y="239.49922"
       ry="3.797888" />
    <rect
       style="display:inline;opacity:0.98;fill:#ff0000;fill-opacity:1;stroke:none;stroke-width:0.623622"
       id="rect7664-4-0"
       width="24"
       height="24"
       x="101.39063"
       y="239.49922"
       ry="3.797888" />
    <rect
       style="display:inline;opacity:0.98;fill:#ff0000;fill-opacity:1;stroke:none;stroke-width:0.623622"
       id="rect7664-2"
       width="24"
       height="24"
       x="70.499756"
       y="269.49921"
       ry="3.797888" />
    <rect
       style="display:inline;opacity:0.98;fill:#ff0000;fill-opacity:1;stroke:none;stroke-width:0.623622"
       id="rect7664-4-8"
       width="24"
       height="24"
       x="101.39063"
       y="269.49921"
       ry="3.797888" />
    <rect
       style="display:inline;opacity:0.98;fill:#ff0000;fill-opacity:1;stroke:none;stroke-width:0.623622"
       id="rect7664-91"
       width="24"
       height="24"
       x="70.499756"
       y="299.49921"
       ry="3.797888" />
    <rect
       style="display:inline;opacity:0.98;fill:#ff0000;fill-opacity:1;stroke:none;stroke-width:0.623622"
       id="rect7664-4-4"
       width="24"
       height="24"
       x="101.39063"
       y="299.49921"
       ry="3.797888" />
    <rect
       style="display:inline;opacity:0.98;fill:#ff0000;fill-opacity:1;stroke:none;stroke-width:0.623622"
       id="rect7664-8"
       width="24"
       height="24"
       x="70.499756"
       y="329.49921"
       ry="3.797888" />
    <rect
       style="display:inline;opacity:0.98;fill:#ff0000;fill-opacity:1;stroke:none;stroke-width:0.623622"
       id="rect7664-4-1"
       width="24"
       height="24"
       x="101.39063"
       y="329.49921"
       ry="3.797888" />
    <circle
       style="display:inline;fill:#ff0000;stroke:#ff0000;stroke-width:0.64063;stroke-opacity:1"
       id="path1065-7-2-3-6"
       cx="51.329453"
       cy="31.989546"
       r="3.4592125" />
    <circle
       style="display:inline;fill:#ff0000;stroke:#ff0000;stroke-width:0.64063;stroke-opacity:1"
       id="path1065-7-2-3-6-2"
       cx="73.996117"
       cy="31.989546"
       r="3.4592125" />
    <circle
       style="display:inline;fill:#ff0000;stroke:#ff0000;stroke-width:0.64063;stroke-opacity:1"
       id="path1065-7-2-3-6-2-9"
       cx="96.662781"
       cy="31.989546"
       r="3.4592125" />
    <circle
       style="display:inline;fill:#ff0000;stroke:#ff0000;stroke-width:0.64063;stroke-opacity:1"
       id="path1065-7-2-3-6-2-5-1"
       cx="119.32945"
       cy="31.989546"
       r="3.4592125" />
    <circle
       style="display:inline;fill:#ff0000;stroke:#ff0000;stroke-width:1.94925;stroke-opacity:1"
       id="path1065-7-2-5-7-4-3"
       cx="51.108879"
       cy="101.49922"
       r="10.525375" />
    <circle
       style="display:inline;fill:#ff0000;stroke:#ff0000;stroke-width:1.94925;stroke-opacity:1"
       id="path1065-7-2-5-7-4-0"
       cx="51.608879"
       cy="131.49922"
       r="10.525375" />
    <circle
       style="display:inline;fill:#ff0000;stroke:#ff0000;stroke-width:1.94925;stroke-opacity:1"
       id="path1065-7-2-5-7-4-06"
       cx="51.608879"
       cy="161.49922"
       r="10.525375" />
    <circle
       style="display:inline;fill:#ff0000;stroke:#ff0000;stroke-width:1.94925;stroke-opacity:1"
       id="path1065-7-2-5-7-4-6"
       cx="51.608879"
       cy="191.49922"
       r="10.525375" />
    <circle
       style="display:inline;fill:#ff0000;stroke:#ff0000;stroke-width:1.94925;stroke-opacity:1"
       id="path1065-7-2-5-7-4-9"
       cx="51.608879"
       cy="221.49922"
       r="10.525375" />
    <circle
       style="display:inline;fill:#ff0000;stroke:#ff0000;stroke-width:1.94925;stroke-opacity:1"
       id="path1065-7-2-5-7-4-91"
       cx="51.608879"
       cy="251.49922"
       r="10.525375" />
    <circle
       style="display:inline;fill:#ff0000;stroke:#ff0000;stroke-width:1.94925;stroke-opacity:1"
       id="path1065-7-2-5-7-4-7"
       cx="51.608879"
       cy="281.49921"
       r="10.525375" />
    <circle
       style="display:inline;fill:#ff0000;stroke:#ff0000;stroke-width:1.94925;stroke-opacity:1"
       id="path1065-7-2-5-7-4-99"
       cx="51.608879"
       cy="311.49921"
       r="10.525375" />
    <circle
       style="display:inline;fill:#ff0000;stroke:#ff0000;stroke-width:1.94925;stroke-opacity:1"
       id="path1065-7-2-5-7-4-8"
       cx="51.608879"
       cy="341.49921"
       r="10.525375" />
  </g>
</svg>
