<?xml version="1.0" encoding="UTF-8" standalone="no"?>
<svg
   width="45"
   height="380"
   viewBox="0 0 45 380"
   version="1.1"
   id="svg100"
   sodipodi:docname="MergeSplit_Coal.svg"
   inkscape:version="1.1.1 (3bf5ae0d25, 2021-09-20)"
   xmlns:inkscape="http://www.inkscape.org/namespaces/inkscape"
   xmlns:sodipodi="http://sodipodi.sourceforge.net/DTD/sodipodi-0.dtd"
   xmlns="http://www.w3.org/2000/svg"
   xmlns:svg="http://www.w3.org/2000/svg"
   xmlns:rdf="http://www.w3.org/1999/02/22-rdf-syntax-ns#"
   xmlns:cc="http://creativecommons.org/ns#"
   xmlns:dc="http://purl.org/dc/elements/1.1/">
  <metadata
     id="metadata104">
    <rdf:RDF>
      <cc:Work
         rdf:about="">
        <dc:format>image/svg+xml</dc:format>
        <dc:type
           rdf:resource="http://purl.org/dc/dcmitype/StillImage" />
      </cc:Work>
    </rdf:RDF>
  </metadata>
  <sodipodi:namedview
     pagecolor="#ffffff"
     bordercolor="#666666"
     borderopacity="1"
     objecttolerance="1"
     gridtolerance="1"
     guidetolerance="1"
     inkscape:pageopacity="0"
     inkscape:pageshadow="2"
     inkscape:window-width="1920"
     inkscape:window-height="1057"
     id="namedview102"
     showgrid="false"
     inkscape:zoom="2.2342105"
     inkscape:cx="16.56066"
     inkscape:cy="190.44759"
     inkscape:window-x="1592"
     inkscape:window-y="-8"
     inkscape:window-maximized="1"
     inkscape:current-layer="layer4"
     inkscape:pagecheckerboard="0"
     units="px"
     inkscape:showpageshadow="false"
     showborder="true">
    <inkscape:grid
       type="xygrid"
       id="grid1285" />
  </sodipodi:namedview>
  <defs
     id="defs7">
    <rect
       x="85"
       y="10"
       width="51.058132"
       height="25"
       id="rect29906" />
    <linearGradient
       id="a8e142bb-541b-4903-be63-d5d069028a5d"
       x1="22.5"
       x2="22.5"
       y2="380"
       gradientUnits="userSpaceOnUse">
      <stop
         offset="0"
         stop-color="#ebebeb"
         id="stop2" />
      <stop
         offset="1"
         stop-color="#e1e1e1"
         id="stop4" />
    </linearGradient>
  </defs>
  <g
     inkscape:groupmode="layer"
     id="layer2"
     inkscape:label="Faceplate"
     style="display:inline">
    <g
       id="aea613ef-74be-49bf-be45-c0734aee674b"
       data-name="FND BG"
       style="fill:#252525;fill-opacity:1">
      <rect
         width="45"
         height="380"
         fill="url(#a8e142bb-541b-4903-be63-d5d069028a5d)"
         id="rect9"
         style="fill:#252525;fill-opacity:1"
         x="0"
         y="0" />
    </g>
  </g>
  <g
     inkscape:groupmode="layer"
     id="layer3"
     inkscape:label="Brand"
     style="display:inline">
    <g
       id="g42796"
       transform="matrix(0.30458296,0,0,0.30458296,-0.5624499,-12.68508)"
       style="fill:#ff0000">
      <g
         aria-label="enom"
         id="text4270-27"
         style="font-size:49.3889px;line-height:1.25;font-family:'NECK ROMANCER';-inkscape-font-specification:'NECK ROMANCER, Normal';font-variant-ligatures:none;text-align:center;text-anchor:middle;fill:#ff0000;stroke-width:2.64583">
        <path
           d="m 46.609141,1249.244 q 0,1.1576 0,3.4245 3.183269,0 9.453344,0 -1.639866,0.5787 -2.990343,1.2058 -1.350478,0.627 -2.363337,1.688 -1.350477,0 -4.051433,0 0,1.4952 0.434082,2.5563 0.385851,1.1093 1.832792,1.1093 2.266873,0 6.80062,0 0.482313,-0.1447 0.868164,-0.627 0.337619,-0.5305 0.627007,-1.7363 0,2.0257 0,6.1254 -3.520888,0 -10.562665,0 -1.543403,0 -2.652724,-2.2187 -1.109321,-2.1704 -1.109321,-6.3183 0,-1.9775 0,-5.836 -0.385851,-1.3504 -1.881023,-2.1221 -1.495171,-0.7235 -3.569119,-1.2058 6.607694,0 19.774852,0 0,2.9421 0,8.7781 -1.205783,-2.701 -2.218642,-3.6656 -1.012858,-0.9646 -2.700955,-1.1093 -0.916396,-0.097 -2.170411,-0.097 -1.205783,0.048 -2.845649,0.048 -0.241157,0 -0.675239,0 z"
           id="path42762"
           style="fill:#ff0000" />
        <path
           d="m 81.576869,1245.2891 q 0,5.8842 0,17.7009 0,3.0868 -0.144694,6.0771 -0.09646,3.0386 -0.337619,5.9325 -0.385851,-3.7138 -0.964627,-6.9936 -0.530545,-3.3279 -2.025717,-5.016 0,-2.9904 0,-8.9228 -0.241157,-1.3505 -0.72347,-2.2187 -0.482314,-0.8681 -1.06109,-1.3987 -1.109321,-1.0128 -2.411567,-1.1093 -1.350478,-0.097 -2.266874,-0.097 -0.482313,0 -1.44694,0 0,4.582 0,13.746 0,3.0868 -0.09646,6.0771 -0.144694,3.0386 -0.385851,5.9325 -0.38585,-3.7138 -0.916395,-6.9936 -0.578776,-3.3279 -2.025717,-5.016 0,-4.8232 0,-14.373 -0.385851,-1.3504 -1.881022,-2.1221 -1.495172,-0.7235 -3.56912,-1.2058 6.752389,0 20.257166,0 z"
           id="path42764"
           style="fill:#ff0000" />
        <path
           d="m 104.19737,1249.0511 q 0,3.3762 0,10.1768 0,1.5434 -1.92925,2.6528 -1.92926,1.1093 -6.077152,1.1093 -4.196128,0 -6.125382,-1.1093 -1.929254,-1.1094 -1.929254,-2.6528 0,-3.3762 0,-10.1768 0,-1.5434 1.929254,-2.6527 1.929254,-1.1093 6.125382,-1.1093 4.147892,0 6.077152,1.1093 1.92925,1.1093 1.92925,2.6527 z m -3.76204,7.91 q 0,-1.8811 0,-5.6431 0,-1.6881 -1.254019,-1.9775 -1.205783,-0.2894 -2.990343,-0.2894 -1.832792,0 -3.038575,0.2894 -1.254015,0.2894 -1.254015,1.9775 0,1.881 0,5.6431 0,1.6881 1.254015,1.9774 1.205783,0.2894 3.038575,0.2894 1.78456,0 2.990343,-0.2894 1.254019,-0.2893 1.254019,-1.9774 z"
           id="path42766"
           style="fill:#ff0000" />
        <path
           d="m 142.34837,1245.2891 q -2.02572,0.4823 -3.52089,1.2058 -1.5434,0.7717 -1.88102,2.1221 0,4.7749 0,14.373 -1.49517,1.6881 -2.02572,5.016 -0.57878,3.2798 -0.96463,6.9936 -0.24115,-2.8939 -0.33762,-5.9325 -0.14469,-2.9903 -0.14469,-6.0771 0,-4.582 0,-13.746 -0.48231,0 -1.39871,0 -0.53054,0 -1.15755,0 -0.62701,0 -1.30225,0.1447 -1.25401,0.2412 -2.41157,1.2058 -1.15755,0.9646 -1.63986,3.4727 0,2.9903 0,8.9228 -0.1447,0.627 -0.28939,1.1093 -0.0965,0.4823 -0.19292,0.8199 -0.53055,1.9775 -0.38586,1.3505 0.19293,-0.627 -0.28938,1.1576 -0.0965,0.3376 -0.24116,0.8681 -0.14469,0.5306 -0.33762,1.3023 -0.14469,-0.6753 -0.28939,-1.2058 -0.14469,-0.4823 -0.24115,-0.8199 -0.53055,-2.0258 -0.33762,-1.3023 0.19292,0.7717 -0.43409,-1.6881 -0.0482,-0.2894 -0.19292,-0.7235 -0.0965,-0.3858 -0.19293,-0.8681 0,-2.9904 0,-8.9228 -0.28939,-1.3505 -0.7717,-2.2187 -0.48231,-0.8681 -1.06109,-1.3987 -1.10932,-1.0128 -2.41157,-1.1093 -1.30224,-0.097 -2.26687,-0.097 -0.48231,0 -1.39871,0 0,4.582 0,13.746 0,3.0868 -0.14469,6.0771 -0.0965,3.0386 -0.33762,5.9325 -0.38585,-3.7138 -0.96463,-6.9936 -0.53054,-3.3279 -2.02572,-5.016 0,-4.8232 0,-14.373 -0.38585,-1.3504 -1.88102,-2.1221 -1.49517,-0.7235 -3.56912,-1.2058 3.95497,0 11.76845,0 1.15755,0.3858 3.47266,1.1575 0.7717,0.2894 1.59163,0.4341 0.81994,0.1447 1.6881,0.1447 0.86816,0 1.73633,-0.1447 0.81993,-0.1447 1.59163,-0.4341 1.15756,-0.3858 3.42443,-1.1575 3.95497,0 11.76845,0 z"
           id="path42768"
           style="fill:#ff0000" />
      </g>
      <g
         aria-label="V"
         transform="matrix(1.2363173,0,0,0.80885384,-497.88086,123.48586)"
         id="text4270-3-5-2"
         style="font-size:78.5061px;line-height:1.25;font-family:Nosferotica;-inkscape-font-specification:'Nosferotica, Normal';font-variant-ligatures:none;text-align:center;text-anchor:middle;fill:#ff0000;stroke-width:3.27108">
        <path
           d="m 431.64994,1360.6864 8.57428,-0.1022 c 0,0 -4.4079,1.0878 -5.59925,3.7285 -1.88083,4.1689 -3.64217,14.6628 -3.64217,14.6628 l -2.23339,11.5191 -1.83311,11.8311 -1.71824,21.3112 -1.69514,-21.3112 -1.92196,-11.5208 -2.5009,-11.8294 c 0,0 -1.52027,-10.287 -3.38278,-14.4832 -1.14458,-2.5787 -5.63367,-3.8059 -5.63367,-3.8059 h 8.4657 l 6.66875,29.1569 z"
           id="path30410"
           sodipodi:nodetypes="ccscccccccscccc"
           style="fill:#ff0000" />
      </g>
    </g>
  </g>
  <g
     inkscape:groupmode="layer"
     id="layer4"
     inkscape:label="Solid"
     style="display:inline">
    <path
       style="color:#000000;fill:#ede7dc;-inkscape-stroke:none;fill-opacity:1"
       d="m 11.765625,28.628906 c -3.6388184,0 -6.578125,2.939307 -6.578125,6.578125 V 181.01562 c 0,3.63882 2.9393066,6.57618 6.578125,6.57618 h 21.46875 c 3.638818,0 6.578125,-2.93736 6.578125,-6.57618 V 35.207031 c 0,-3.638818 -2.939307,-6.578125 -6.578125,-6.578125 z m 0,0.623047 h 21.46875 c 3.304119,0 5.953125,2.650959 5.953125,5.955078 V 181.01562 c 0,3.30412 -2.649006,5.95313 -5.953125,5.95313 h -21.46875 c -3.3041191,0 -5.953125,-2.64901 -5.953125,-5.95313 V 35.207031 c 0,-3.304119 2.6490059,-5.955078 5.953125,-5.955078 z"
       id="rect17730-5-0-7" />
    <g
       aria-label="MERGE"
       id="text8972"
       style="font-weight:bold;font-size:10.6667px;line-height:1.25;font-family:Arial;-inkscape-font-specification:'Arial, Bold';font-variant-ligatures:none;text-align:center;text-anchor:middle;fill:#ede7dc;fill-opacity:1">
      <path
         d="M 3.5858787,12.877962 V 5.2425213 h 2.307299 l 1.385421,5.2083497 1.369796,-5.2083497 H 10.960902 V 12.877962 H 9.5286058 V 6.8675265 L 8.0129761,12.877962 H 6.5285964 L 5.0181749,6.8675265 v 6.0104355 z"
         id="path28160"
         style="fill:#ede7dc;fill-opacity:1" />
      <path
         d="M 12.492157,12.877962 V 5.2425213 h 5.661476 v 1.2916708 h -4.119805 v 1.6927137 h 3.833346 V 9.5133682 H 14.033828 V 11.5915 h 4.265639 v 1.286462 z"
         id="path28162"
         style="fill:#ede7dc;fill-opacity:1" />
      <path
         d="M 19.61197,12.877962 V 5.2425213 h 3.244802 q 1.223962,0 1.776047,0.208334 0.557294,0.2031257 0.890628,0.729169 0.333334,0.5260433 0.333334,1.2031288 0,0.8593777 -0.505209,1.4218795 -0.50521,0.5572934 -1.510422,0.7031272 0.500002,0.2916676 0.822919,0.6406272 0.328126,0.348959 0.880211,1.239587 l 0.932295,1.489588 H 24.632819 L 23.518232,11.216499 Q 22.924481,10.325871 22.70573,10.096703 22.486979,9.8623276 22.242187,9.778994 21.997394,9.690452 21.466143,9.690452 h -0.312501 v 3.18751 z m 1.541672,-4.4062638 h 1.140628 q 1.109379,0 1.385421,-0.09375 0.276043,-0.09375 0.432293,-0.3229177 0.156251,-0.2291674 0.156251,-0.5729185 0,-0.3854179 -0.208334,-0.6197936 Q 23.856775,6.622734 23.481774,6.5602338 23.294273,6.5341921 22.35677,6.5341921 h -1.203128 z"
         id="path28164"
         style="fill:#ede7dc;fill-opacity:1" />
      <path
         d="M 30.862006,10.070662 V 8.7841992 h 3.322927 v 3.0416758 q -0.484376,0.468752 -1.406254,0.828128 -0.91667,0.354168 -1.859381,0.354168 -1.197921,0 -2.088548,-0.500002 -0.890628,-0.50521 -1.338546,-1.437504 -0.447918,-0.937503 -0.447918,-2.036465 0,-1.1927121 0.500001,-2.1197984 0.500002,-0.9270863 1.463547,-1.4218795 0.734377,-0.3802095 1.82813,-0.3802095 1.42188,0 2.218757,0.5989602 0.802086,0.5937519 1.031254,1.6458385 L 32.55472,7.6435706 q -0.161459,-0.5625018 -0.609377,-0.8854195 -0.44271,-0.328126 -1.109379,-0.328126 -1.01042,0 -1.60938,0.640627 -0.593752,0.640627 -0.593752,1.9010477 0,1.3593792 0.604169,2.0416732 0.604169,0.677085 1.583338,0.677085 0.484377,0 0.968753,-0.1875 0.489585,-0.192709 0.838545,-0.463543 v -0.968753 z"
         id="path28166"
         style="fill:#ede7dc;fill-opacity:1" />
      <path
         d="M 35.606811,12.877962 V 5.2425213 h 5.661477 v 1.2916708 h -4.119805 v 1.6927137 h 3.833345 V 9.5133682 H 37.148483 V 11.5915 h 4.265638 v 1.286462 z"
         id="path28168"
         style="fill:#ede7dc;fill-opacity:1" />
    </g>
    <g
       aria-label="SPLIT"
       id="text8972-6"
       style="font-weight:bold;font-size:10.6667px;line-height:1.25;font-family:Arial;-inkscape-font-specification:'Arial, Bold';font-variant-ligatures:none;text-align:center;text-anchor:middle;display:inline;fill:#ede7dc;fill-opacity:1">
      <path
         d="m 7.9426624,21.036978 1.5000048,-0.145834 q 0.1354171,0.75521 0.5468767,1.109378 0.4166681,0.354168 1.1197951,0.354168 0.744794,0 1.119795,-0.312501 0.38021,-0.317709 0.38021,-0.739586 0,-0.270834 -0.161459,-0.458334 Q 12.291635,20.65156 11.8958,20.510934 11.624966,20.417184 10.661421,20.1776 9.4218338,19.870307 8.9218322,19.422389 8.218705,18.792179 8.218705,17.885926 q 0,-0.583335 0.328126,-1.088545 0.3333344,-0.510418 0.953128,-0.776044 0.625002,-0.265626 1.505213,-0.265626 1.437505,0 2.161465,0.63021 0.729169,0.630211 0.765628,1.682297 l -1.541672,0.06771 q -0.09896,-0.588544 -0.427085,-0.843753 -0.322917,-0.260417 -0.973961,-0.260417 -0.671877,0 -1.0520866,0.276042 -0.2447924,0.177084 -0.2447924,0.47396 0,0.270834 0.2291674,0.463543 0.2916676,0.244793 1.4166716,0.510418 1.125003,0.265626 1.661463,0.552085 0.541668,0.281251 0.843753,0.776045 0.307292,0.489584 0.307292,1.213545 0,0.656252 -0.364584,1.229171 -0.364585,0.572918 -1.031253,0.854169 -0.666669,0.276042 -1.661464,0.276042 -1.4479212,0 -2.2239653,-0.666668 -0.7760441,-0.671877 -0.9270863,-1.953131 z"
         id="path28171"
         style="fill:#ede7dc;fill-opacity:1" />
      <path
         d="m 15.447895,23.52136 v -7.63544 h 2.473966 q 1.406254,0 1.833339,0.114583 0.656252,0.171876 1.098962,0.750003 0.442709,0.572918 0.442709,1.484379 0,0.703128 -0.255209,1.182296 -0.255209,0.479168 -0.651043,0.75521 -0.390627,0.270835 -0.796878,0.359377 -0.552085,0.109375 -1.598963,0.109375 h -1.005212 v 2.880217 z m 1.541671,-6.34377 v 2.166674 h 0.843753 q 0.911461,0 1.218754,-0.119792 0.307292,-0.119792 0.479168,-0.375001 0.177084,-0.25521 0.177084,-0.593752 0,-0.416668 -0.244793,-0.687502 -0.244792,-0.270835 -0.619793,-0.338543 -0.276043,-0.05208 -1.109379,-0.05208 z"
         id="path28173"
         style="fill:#ede7dc;fill-opacity:1" />
      <path
         d="m 22.604167,23.52136 v -7.57294 h 1.541672 v 6.286478 h 3.833345 v 1.286462 z"
         id="path28175"
         style="fill:#ede7dc;fill-opacity:1" />
      <path
         d="m 29.031271,23.52136 v -7.63544 h 1.541672 v 7.63544 z"
         id="path28177"
         style="fill:#ede7dc;fill-opacity:1" />
      <path
         d="M 33.760452,23.52136 V 17.17759 H 31.49482 v -1.29167 h 6.067728 v 1.29167 h -2.260424 v 6.34377 z"
         id="path28179"
         style="fill:#ede7dc;fill-opacity:1" />
    </g>
    <rect
       style="display:inline;fill:#ede7dc;fill-opacity:1;stroke:none;stroke-width:0.623623"
       id="rect17730-4-9"
       width="34"
       height="122.1738"
       x="5.5"
       y="233.41893"
       ry="6.2661953"
       rx="6.2661953" />
    <path
       style="color:#000000;fill:#ede7dc;-inkscape-stroke:none;fill-opacity:1"
       d="m 11.765625,196.62891 c -3.6388184,0 -6.578125,2.9393 -6.578125,6.57812 v 145.80859 c 0,3.63882 2.9393066,6.57618 6.578125,6.57618 h 21.46875 c 3.638818,0 6.578125,-2.93736 6.578125,-6.57618 V 203.20703 c 0,-3.63882 -2.939307,-6.57812 -6.578125,-6.57812 z m 0,0.62304 h 21.46875 c 3.304119,0 5.953125,2.65096 5.953125,5.95508 v 145.80859 c 0,3.30412 -2.649006,5.95313 -5.953125,5.95313 h -21.46875 c -3.3041191,0 -5.953125,-2.64901 -5.953125,-5.95313 V 203.20703 c 0,-3.30412 2.6490059,-5.95508 5.953125,-5.95508 z"
       id="rect17730-5-0-0" />
    <g
       aria-label="IN"
       id="text18946-2-9-2"
       style="font-weight:bold;font-size:8px;line-height:1.25;font-family:Arial;-inkscape-font-specification:'Arial, Bold';font-variant-ligatures:none;text-align:center;text-anchor:middle;display:inline;fill:#ede7dc;fill-opacity:1">
      <path
         d="m 19.093742,205.94923 v -5.72656 h 1.15625 v 5.72656 z"
         id="path28189"
         style="fill:#ede7dc;fill-opacity:1" />
      <path
         d="m 21.363274,205.94923 v -5.72656 h 1.125 l 2.34375,3.82422 v -3.82422 h 1.074218 v 5.72656 h -1.160156 l -2.308594,-3.73437 v 3.73437 z"
         id="path28191"
         style="fill:#ede7dc;fill-opacity:1" />
    </g>
    <rect
       style="display:inline;fill:#ede7dc;fill-opacity:1;stroke:none;stroke-width:0.623624"
       id="rect17730-4-96"
       width="34"
       height="38.699696"
       x="5.4999981"
       y="148.89305"
       ry="6.2661953"
       rx="6.2661953" />
    <g
       aria-label="IN"
       id="text18946-5-1"
       style="font-weight:bold;font-size:8px;line-height:1.25;font-family:Arial;-inkscape-font-specification:'Arial, Bold';font-variant-ligatures:none;text-align:center;text-anchor:middle;display:inline;fill:#ede7dc;fill-opacity:1">
      <path
         d="m 19.093756,37.833019 v -5.726562 h 1.15625 v 5.726562 z"
         id="path28155"
         style="fill:#ede7dc;fill-opacity:1" />
      <path
         d="m 21.363287,37.833019 v -5.726562 h 1.125 l 2.34375,3.824219 v -3.824219 h 1.074219 v 5.726562 h -1.160157 l -2.308593,-3.734375 v 3.734375 z"
         id="path28157"
         style="fill:#ede7dc;fill-opacity:1" />
    </g>
  </g>
  <g
     inkscape:groupmode="layer"
     id="layer5"
     inkscape:label="Reverse"
     style="display:inline">
    <g
       aria-label="OUT"
       id="text18946-2-9-4"
       style="font-weight:bold;font-size:8px;line-height:1.25;font-family:Arial;-inkscape-font-specification:'Arial, Bold';font-variant-ligatures:none;text-align:center;text-anchor:middle;display:inline;fill:#252525;fill-opacity:1">
      <path
         d="m 14.312506,154.85022 q 0,-0.875 0.261718,-1.46875 0.195313,-0.4375 0.53125,-0.78516 0.339844,-0.34765 0.742188,-0.51562 0.535156,-0.22656 1.234375,-0.22656 1.265625,0 2.023437,0.78515 0.761719,0.78516 0.761719,2.1836 0,1.38671 -0.753906,2.17187 -0.753906,0.78125 -2.015625,0.78125 -1.277344,0 -2.03125,-0.77734 -0.753906,-0.78125 -0.753906,-2.14844 z m 1.191406,-0.0391 q 0,0.97265 0.449219,1.47656 0.449218,0.5 1.140625,0.5 0.691406,0 1.132812,-0.49609 0.445313,-0.5 0.445313,-1.4961 0,-0.98437 -0.433594,-1.46875 -0.429688,-0.48437 -1.144531,-0.48437 -0.714844,0 -1.152344,0.49218 -0.4375,0.48829 -0.4375,1.47657 z"
         id="path28182"
         style="fill:#252525;fill-opacity:1" />
      <path
         d="m 20.761724,151.95178 h 1.15625 v 3.10156 q 0,0.73829 0.04297,0.95704 0.07422,0.35156 0.351563,0.5664 0.28125,0.21094 0.765625,0.21094 0.492187,0 0.742187,-0.19922 0.25,-0.20312 0.300781,-0.49609 0.05078,-0.29297 0.05078,-0.97266 v -3.16797 h 1.15625 v 3.00781 q 0,1.03125 -0.09375,1.45704 -0.09375,0.42578 -0.347657,0.71875 -0.25,0.29296 -0.671875,0.46875 -0.421875,0.17187 -1.101562,0.17187 -0.820313,0 -1.246094,-0.1875 -0.421875,-0.19141 -0.667969,-0.49219 -0.246093,-0.30468 -0.324218,-0.63672 -0.113282,-0.49218 -0.113282,-1.45312 z"
         id="path28184"
         style="fill:#252525;fill-opacity:1" />
      <path
         d="m 27.835943,157.67834 v -4.75781 h -1.699219 v -0.96875 h 4.550782 v 0.96875 h -1.695313 v 4.75781 z"
         id="path28186"
         style="fill:#252525;fill-opacity:1" />
    </g>
    <g
       aria-label="OUT"
       id="text18946-5-9"
       style="font-weight:bold;font-size:8px;line-height:1.25;font-family:Arial;-inkscape-font-specification:'Arial, Bold';font-variant-ligatures:none;text-align:center;text-anchor:middle;display:inline;fill:#252525;fill-opacity:1">
      <path
         d="m 14.3125,239.81877 q 0,-0.875 0.261719,-1.46875 0.195312,-0.4375 0.53125,-0.78515 0.339844,-0.34766 0.742187,-0.51563 0.535156,-0.22656 1.234375,-0.22656 1.265625,0 2.023438,0.78515 0.761718,0.78516 0.761718,2.1836 0,1.38672 -0.753906,2.17187 -0.753906,0.78125 -2.015625,0.78125 -1.277343,0 -2.03125,-0.77734 -0.753906,-0.78125 -0.753906,-2.14844 z m 1.191406,-0.0391 q 0,0.97266 0.449219,1.47656 0.449219,0.5 1.140625,0.5 0.691406,0 1.132812,-0.49609 0.445313,-0.5 0.445313,-1.4961 0,-0.98437 -0.433594,-1.46875 -0.429687,-0.48437 -1.144531,-0.48437 -0.714844,0 -1.152344,0.49219 -0.4375,0.48828 -0.4375,1.47656 z"
         id="path28194"
         style="fill:#252525;fill-opacity:1" />
      <path
         d="m 20.761719,236.92033 h 1.15625 v 3.10157 q 0,0.73828 0.04297,0.95703 0.07422,0.35156 0.351563,0.5664 0.28125,0.21094 0.765625,0.21094 0.492187,0 0.742187,-0.19922 0.25,-0.20312 0.300782,-0.49609 0.05078,-0.29297 0.05078,-0.97266 v -3.16797 h 1.15625 v 3.00782 q 0,1.03125 -0.09375,1.45703 -0.09375,0.42578 -0.347656,0.71875 -0.25,0.29297 -0.671875,0.46875 -0.421875,0.17187 -1.101563,0.17187 -0.820312,0 -1.246094,-0.1875 -0.421875,-0.1914 -0.667968,-0.49218 -0.246094,-0.30469 -0.324219,-0.63672 -0.113281,-0.49219 -0.113281,-1.45313 z"
         id="path28196"
         style="fill:#252525;fill-opacity:1" />
      <path
         d="m 27.835937,242.6469 v -4.75782 h -1.699218 v -0.96875 H 30.6875 v 0.96875 h -1.695313 v 4.75782 z"
         id="path28198"
         style="fill:#252525;fill-opacity:1" />
    </g>
  </g>
  <text
     xml:space="preserve"
     id="text29904"
     style="font-weight:bold;font-size:8px;line-height:1.25;font-family:Arial;-inkscape-font-specification:'Arial, Bold';font-variant-ligatures:none;text-align:center;white-space:pre;shape-inside:url(#rect29906)"
     transform="translate(-2.6024628e-4)" />
  <g
     inkscape:groupmode="layer"
     id="layer1"
     inkscape:label="Widgets"
     style="display:none">
    <circle
       style="display:inline;fill:#ff0000;stroke:#ff0000;stroke-width:1.94925;stroke-opacity:1"
       id="path1065-7-2-3-2-2-39-0"
       cx="22.5"
       cy="-340.49997"
       r="10.525375"
       transform="scale(1,-1)" />
    <circle
       style="display:inline;fill:#ff0000;stroke:#ff0000;stroke-width:1.94925;stroke-opacity:1"
       id="path1065-7-2-3-2-2-7-0-0"
       cx="22.5"
       cy="-312.49997"
       r="10.525375"
       transform="scale(1,-1)" />
    <circle
       style="display:inline;fill:#ff0000;stroke:#ff0000;stroke-width:1.94925;stroke-opacity:1"
       id="path1065-7-2-3-2-2-6-3-2"
       cx="22.5"
       cy="-284.49997"
       r="10.525375"
       transform="scale(1,-1)" />
    <circle
       style="display:inline;fill:#ff0000;stroke:#ff0000;stroke-width:1.94925;stroke-opacity:1"
       id="path1065-7-2-3-2-2-3-8-7"
       cx="22.5"
       cy="-256.49997"
       r="10.525375"
       transform="scale(1,-1)" />
    <circle
       style="display:inline;fill:#ff0000;stroke:#ff0000;stroke-width:1.94925;stroke-opacity:1"
       id="path1065-7-2-3-2-2-2-1-5"
       cx="22.5"
       cy="-219.50026"
       r="10.525375"
       transform="scale(1,-1)" />
    <circle
       style="display:inline;fill:#ff0000;stroke:#ff0000;stroke-width:1.94925;stroke-opacity:1"
       id="path1065-7-2-3-2-2-39-3"
       cx="22.500006"
       cy="51.500275"
       r="10.525375" />
    <circle
       style="display:inline;fill:#ff0000;stroke:#ff0000;stroke-width:1.94925;stroke-opacity:1"
       id="path1065-7-2-3-2-2-7-0-4"
       cx="22.500006"
       cy="79.500282"
       r="10.525375" />
    <circle
       style="display:inline;fill:#ff0000;stroke:#ff0000;stroke-width:1.94925;stroke-opacity:1"
       id="path1065-7-2-3-2-2-6-3-8"
       cx="22.500006"
       cy="107.50027"
       r="10.525375" />
    <circle
       style="display:inline;fill:#ff0000;stroke:#ff0000;stroke-width:1.94925;stroke-opacity:1"
       id="path1065-7-2-3-2-2-3-8-9"
       cx="22.500006"
       cy="135.50027"
       r="10.525375" />
    <circle
       style="display:inline;fill:#ff0000;stroke:#ff0000;stroke-width:1.94925;stroke-opacity:1"
       id="path1065-7-2-3-2-2-2-1-3"
       cx="22.500006"
       cy="171.50027"
       r="10.525375" />
    <ellipse
       style="display:inline;fill:#ff0000;stroke:#ff0000;stroke-width:1.94926;stroke-opacity:1"
       id="path1065-7-2-3-2-2-39-3-7"
       cx="35"
       cy="41.000004"
       rx="2.0253701"
       ry="2.0253751" />
    <ellipse
       style="display:inline;fill:#ff0000;stroke:#ff0000;stroke-width:1.94926;stroke-opacity:1"
       id="path1065-7-2-3-2-2-39-3-7-0"
       cx="35"
       cy="209"
       rx="2.0253701"
       ry="2.0253751" />
    <ellipse
       style="display:inline;fill:#ff0000;stroke:#ff0000;stroke-width:1.94926;stroke-opacity:1"
       id="path1065-7-2-3-2-2-39-3-7-7"
       cx="35"
       cy="69.000008"
       rx="2.0253701"
       ry="2.0253751" />
    <ellipse
       style="display:inline;fill:#ff0000;stroke:#ff0000;stroke-width:1.94926;stroke-opacity:1"
       id="path1065-7-2-3-2-2-39-3-7-1"
       cx="35"
       cy="97.000008"
       rx="2.0253701"
       ry="2.0253751" />
    <ellipse
       style="display:inline;fill:#ff0000;stroke:#ff0000;stroke-width:1.94926;stroke-opacity:1"
       id="path1065-7-2-3-2-2-39-3-7-2"
       cx="35"
       cy="125.00001"
       rx="2.0253701"
       ry="2.0253751" />
    <ellipse
       style="display:inline;fill:#ff0000;stroke:#ff0000;stroke-width:1.94926;stroke-opacity:1"
       id="path1065-7-2-3-2-2-39-3-7-6"
       cx="22.500006"
       cy="192.11081"
       rx="2.0253701"
       ry="2.0253751" />
  </g>
</svg>
