<?xml version="1.0" encoding="UTF-8" standalone="no"?>
<svg
   width="45"
   height="380"
   viewBox="0 0 45 380"
   version="1.1"
   id="svg100"
   sodipodi:docname="MixSend_Coal.svg"
   inkscape:version="1.1.1 (3bf5ae0d25, 2021-09-20)"
   xmlns:inkscape="http://www.inkscape.org/namespaces/inkscape"
   xmlns:sodipodi="http://sodipodi.sourceforge.net/DTD/sodipodi-0.dtd"
   xmlns="http://www.w3.org/2000/svg"
   xmlns:svg="http://www.w3.org/2000/svg"
   xmlns:rdf="http://www.w3.org/1999/02/22-rdf-syntax-ns#"
   xmlns:cc="http://creativecommons.org/ns#"
   xmlns:dc="http://purl.org/dc/elements/1.1/">
  <metadata
     id="metadata104">
    <rdf:RDF>
      <cc:Work
         rdf:about="">
        <dc:format>image/svg+xml</dc:format>
        <dc:type
           rdf:resource="http://purl.org/dc/dcmitype/StillImage" />
      </cc:Work>
    </rdf:RDF>
  </metadata>
  <sodipodi:namedview
     pagecolor="#ffffff"
     bordercolor="#666666"
     borderopacity="1"
     objecttolerance="1"
     gridtolerance="1"
     guidetolerance="1"
     inkscape:pageopacity="0"
     inkscape:pageshadow="2"
     inkscape:window-width="1920"
     inkscape:window-height="1057"
     id="namedview102"
     showgrid="true"
     inkscape:zoom="2.2342105"
     inkscape:cx="7.3851591"
     inkscape:cy="190"
     inkscape:window-x="1592"
     inkscape:window-y="-8"
     inkscape:window-maximized="1"
     inkscape:current-layer="f45e0130-37b7-4f8b-95b3-6408baa23eb1"
     inkscape:pagecheckerboard="0"
     units="px"
     inkscape:showpageshadow="false"
     showborder="true">
    <inkscape:grid
       type="xygrid"
       id="grid1285" />
  </sodipodi:namedview>
  <defs
     id="defs7">
    <rect
       x="85"
       y="10"
       width="51.058132"
       height="25"
       id="rect29906" />
    <linearGradient
       id="a8e142bb-541b-4903-be63-d5d069028a5d"
       x1="22.5"
       x2="22.5"
       y2="380"
       gradientUnits="userSpaceOnUse">
      <stop
         offset="0"
         stop-color="#ebebeb"
         id="stop2" />
      <stop
         offset="1"
         stop-color="#e1e1e1"
         id="stop4" />
    </linearGradient>
  </defs>
  <g
     id="aea613ef-74be-49bf-be45-c0734aee674b"
     data-name="FND BG"
     style="fill:#252525;fill-opacity:1">
    <rect
       width="45"
       height="380"
       fill="url(#a8e142bb-541b-4903-be63-d5d069028a5d)"
       id="rect9"
       style="fill:#252525;fill-opacity:1"
       x="0"
       y="0" />
  </g>
  <g
     id="f45e0130-37b7-4f8b-95b3-6408baa23eb1"
     data-name="components"
     style="display:inline"
     inkscape:groupmode="layer">
    <g
       id="g1868">
      <g
         aria-label="1"
         id="text9323-6"
         style="font-weight:bold;font-size:8px;line-height:1.25;font-family:Arial;-inkscape-font-specification:'Arial, Bold';font-variant-ligatures:none;text-align:center;text-anchor:middle;fill:#ede7dc;fill-opacity:1"
         transform="translate(-4.1072622,18.03821)">
        <path
           d="m 11.419762,27.167337 h -1.097657 v -4.136718 q -0.6015621,0.5625 -1.4179683,0.832031 v -0.996094 q 0.4296875,-0.140625 0.9335937,-0.53125 0.5039066,-0.394531 0.6914066,-0.917969 h 0.890625 z"
           id="path79761"
           style="fill:#ede7dc;fill-opacity:1" />
      </g>
      <g
         aria-label="2"
         id="text9323-6-3"
         style="font-weight:bold;font-size:8px;line-height:1.25;font-family:Arial;-inkscape-font-specification:'Arial, Bold';font-variant-ligatures:none;text-align:center;text-anchor:middle;fill:#ede7dc;fill-opacity:1"
         transform="translate(-4.1072628,16.538204)">
        <path
           d="m 12.085778,58.387432 v 1.019531 H 8.238122 q 0.0625,-0.578125 0.375,-1.09375 0.3125,-0.519531 1.234375,-1.375 0.742187,-0.691406 0.910156,-0.9375 0.226563,-0.339843 0.226563,-0.671875 0,-0.367187 -0.199219,-0.5625 -0.195313,-0.199218 -0.542969,-0.199218 -0.3437498,0 -0.5468748,0.207031 -0.203125,0.207031 -0.234375,0.6875 l -1.09375,-0.109375 q 0.097656,-0.90625 0.6132813,-1.300781 0.515625,-0.394532 1.2890625,-0.394532 0.847656,0 1.332031,0.457032 0.484375,0.457031 0.484375,1.136718 0,0.386719 -0.140625,0.738282 -0.136719,0.347656 -0.4375,0.730468 -0.199219,0.253907 -0.71875,0.730469 -0.519531,0.476563 -0.660156,0.632813 -0.1367188,0.15625 -0.2226563,0.304687 z"
           id="path79764"
           style="fill:#ede7dc;fill-opacity:1" />
      </g>
      <g
         aria-label="3"
         id="text9323-6-3-4"
         style="font-weight:bold;font-size:8px;line-height:1.25;font-family:Arial;-inkscape-font-specification:'Arial, Bold';font-variant-ligatures:none;text-align:center;text-anchor:middle;fill:#ede7dc;fill-opacity:1"
         transform="translate(-4.107262,15.0382)">
        <path
           d="m 8.2596054,90.078224 1.0625,-0.128906 q 0.050781,0.40625 0.2734375,0.621094 0.2226563,0.214843 0.5390621,0.214843 0.339844,0 0.570313,-0.257812 0.234375,-0.257813 0.234375,-0.695313 0,-0.414062 -0.222656,-0.65625 -0.222657,-0.242187 -0.542969,-0.242187 -0.2109376,0 -0.5039063,0.08203 l 0.1210937,-0.894531 q 0.4453126,0.01172 0.6796876,-0.191406 0.234375,-0.207032 0.234375,-0.546875 0,-0.289063 -0.171875,-0.460938 -0.171875,-0.171875 -0.457031,-0.171875 -0.2812503,0 -0.4804691,0.195313 -0.1992187,0.195312 -0.2421875,0.570312 L 8.3416367,87.343849 q 0.1054687,-0.519531 0.3164062,-0.828125 0.2148438,-0.3125 0.59375,-0.488281 0.3828125,-0.179688 0.8554691,-0.179688 0.808593,0 1.296875,0.515625 0.402343,0.421875 0.402343,0.953125 0,0.753907 -0.824218,1.203125 0.492187,0.105469 0.785156,0.472657 0.296875,0.367187 0.296875,0.886718 0,0.753907 -0.550781,1.285157 -0.550782,0.53125 -1.371094,0.53125 -0.7773438,0 -1.2890626,-0.445313 -0.5117187,-0.449219 -0.59375,-1.171875 z"
           id="path79767"
           style="fill:#ede7dc;fill-opacity:1" />
      </g>
      <g
         aria-label="4"
         id="text9323-6-3-4-7"
         style="font-weight:bold;font-size:8px;line-height:1.25;font-family:Arial;-inkscape-font-specification:'Arial, Bold';font-variant-ligatures:none;text-align:center;text-anchor:middle;fill:#ede7dc;fill-opacity:1"
         transform="translate(-4.107263,13.538208)">
        <path
           d="m 10.447106,123.8862 v -1.15234 H 8.1033564 v -0.96094 l 2.4843746,-3.63672 h 0.921875 v 3.63281 h 0.710938 v 0.96485 h -0.710938 v 1.15234 z m 0,-2.11719 v -1.95703 l -1.3164059,1.95703 z"
           id="path79770"
           style="fill:#ede7dc;fill-opacity:1" />
      </g>
      <g
         aria-label="SEND"
         id="text9977"
         style="font-weight:bold;font-size:10.6667px;line-height:1.25;font-family:Arial;-inkscape-font-specification:'Arial, Bold';font-variant-ligatures:none;text-align:center;text-anchor:middle;fill:#ede7dc;fill-opacity:1"
         transform="translate(0,-2.0004983)">
        <path
           d="m 8.0623603,15.056253 1.5000048,-0.145834 q 0.135417,0.755211 0.5468769,1.109379 0.416668,0.354168 1.119795,0.354168 0.744794,0 1.119795,-0.312501 0.38021,-0.31771 0.38021,-0.739586 0,-0.270834 -0.161459,-0.458335 -0.156251,-0.192709 -0.552085,-0.333334 -0.270834,-0.09375 -1.234379,-0.333335 -1.2395873,-0.307292 -1.7395889,-0.75521 -0.7031272,-0.630211 -0.7031272,-1.536463 0,-0.583336 0.328126,-1.088546 0.3333344,-0.510418 0.953128,-0.776044 0.6250021,-0.2656255 1.5052131,-0.2656255 1.437505,0 2.161465,0.6302105 0.729169,0.63021 0.765628,1.682297 l -1.541672,0.06771 q -0.09896,-0.588543 -0.427085,-0.843752 -0.322917,-0.260418 -0.973961,-0.260418 -0.671877,0 -1.052087,0.276043 -0.2447922,0.177084 -0.2447922,0.47396 0,0.270834 0.2291672,0.463543 0.291668,0.244792 1.416671,0.510418 1.125004,0.265626 1.661464,0.552085 0.541668,0.281251 0.843753,0.776044 0.307292,0.489585 0.307292,1.213546 0,0.656252 -0.364584,1.22917 -0.364585,0.572919 -1.031253,0.85417 -0.666669,0.276042 -1.661464,0.276042 -1.4479213,0 -2.2239654,-0.666669 -0.7760441,-0.671877 -0.9270863,-1.953131 z"
           id="path39543"
           style="fill:#ede7dc;fill-opacity:1" />
        <path
           d="M 15.567592,17.540636 V 9.9051953 h 5.661477 v 1.2916707 h -4.119805 v 1.692714 h 3.833345 v 1.286462 h -3.833345 v 2.078132 h 4.265638 v 1.286462 z"
           id="path39545"
           style="fill:#ede7dc;fill-opacity:1" />
        <path
           d="M 22.697823,17.540636 V 9.9051953 h 1.500005 l 3.12501,5.0989747 V 9.9051953 h 1.432296 v 7.6354407 h -1.54688 L 24.13012,12.561454 v 4.979182 z"
           id="path39547"
           style="fill:#ede7dc;fill-opacity:1" />
        <path
           d="m 30.38014,9.9051953 h 2.817717 q 0.953128,0 1.45313,0.1458337 0.671877,0.197917 1.151045,0.703127 0.479168,0.50521 0.729169,1.239588 0.250001,0.729169 0.250001,1.802089 0,0.942711 -0.234376,1.625005 -0.286459,0.833336 -0.817711,1.348962 -0.401043,0.390627 -1.083337,0.609377 -0.510418,0.161459 -1.364587,0.161459 H 30.38014 Z m 1.541671,1.2916707 v 5.057308 h 1.151046 q 0.645835,0 0.932294,-0.07292 0.375001,-0.09375 0.619794,-0.31771 0.250001,-0.223959 0.406251,-0.734377 0.156251,-0.515627 0.156251,-1.401046 0,-0.885419 -0.156251,-1.359379 -0.15625,-0.47396 -0.437501,-0.739586 -0.281251,-0.265626 -0.713544,-0.359376 -0.322918,-0.07292 -1.265629,-0.07292 z"
           id="path39549"
           style="fill:#ede7dc;fill-opacity:1" />
      </g>
      <rect
         style="display:inline;opacity:0.98;fill:#ede7dc;fill-opacity:1;stroke:none;stroke-width:0.611747"
         id="rect37368"
         width="42.365326"
         height="68.309845"
         x="1.317337"
         y="218.96263"
         ry="6.9627948" />
      <g
         aria-label="RETURN"
         id="text32438"
         style="font-weight:bold;font-size:8px;line-height:1.25;font-family:Arial;-inkscape-font-specification:'Arial, Bold';font-variant-ligatures:none;text-align:center;text-anchor:middle;display:inline;fill:#ede7dc;fill-opacity:1">
        <path
           d="m 6.4472656,156.86511 v -5.72656 h 2.4335938 q 0.9179687,0 1.3320316,0.15625 0.417968,0.15234 0.667968,0.54687 0.25,0.39454 0.25,0.90235 0,0.64453 -0.378906,1.0664 -0.378906,0.41797 -1.1328124,0.52735 0.375,0.21875 0.6171874,0.48047 0.246094,0.26172 0.660156,0.92968 l 0.699219,1.11719 h -1.382812 l -0.8359379,-1.24609 q -0.4453125,-0.66797 -0.609375,-0.83985 -0.1640625,-0.17578 -0.3476562,-0.23828 -0.1835938,-0.0664 -0.5820313,-0.0664 h -0.234375 v 2.39062 z m 1.15625,-3.30469 h 0.8554688 q 0.8320312,0 1.0390625,-0.0703 0.2070312,-0.0703 0.3242187,-0.24219 0.1171875,-0.17187 0.1171875,-0.42968 0,-0.28907 -0.15625,-0.46485 -0.1523437,-0.17968 -0.4335937,-0.22656 -0.140625,-0.0195 -0.84375,-0.0195 H 7.6035156 Z"
           id="path39552"
           style="fill:#ede7dc;fill-opacity:1" />
        <path
           d="m 12.220703,156.86511 v -5.72656 h 4.246094 v 0.96875 h -3.089844 v 1.26953 h 2.875 v 0.96484 h -2.875 v 1.5586 h 3.199219 v 0.96484 z"
           id="path39554"
           style="fill:#ede7dc;fill-opacity:1" />
        <path
           d="m 18.845703,156.86511 v -4.75781 h -1.699219 v -0.96875 h 4.550782 v 0.96875 h -1.695313 v 4.75781 z"
           id="path39556"
           style="fill:#ede7dc;fill-opacity:1" />
        <path
           d="m 22.435547,151.13855 h 1.15625 v 3.10156 q 0,0.73828 0.04297,0.95703 0.07422,0.35157 0.351562,0.56641 0.28125,0.21094 0.765625,0.21094 0.492188,0 0.742188,-0.19922 0.25,-0.20313 0.300781,-0.4961 0.05078,-0.29296 0.05078,-0.97265 v -3.16797 h 1.15625 v 3.00781 q 0,1.03125 -0.09375,1.45703 -0.09375,0.42578 -0.347656,0.71875 -0.25,0.29297 -0.671875,0.46875 -0.421875,0.17188 -1.101563,0.17188 -0.820312,0 -1.246093,-0.1875 -0.421875,-0.19141 -0.667969,-0.49219 -0.246094,-0.30469 -0.324219,-0.63672 -0.113281,-0.49219 -0.113281,-1.45312 z"
           id="path39558"
           style="fill:#ede7dc;fill-opacity:1" />
        <path
           d="m 28.224609,156.86511 v -5.72656 h 2.433594 q 0.917969,0 1.332031,0.15625 0.417969,0.15234 0.667969,0.54687 0.25,0.39454 0.25,0.90235 0,0.64453 -0.378906,1.0664 -0.378906,0.41797 -1.132813,0.52735 0.375,0.21875 0.617188,0.48047 0.246094,0.26172 0.660156,0.92968 l 0.699219,1.11719 h -1.382813 l -0.835937,-1.24609 q -0.445313,-0.66797 -0.609375,-0.83985 -0.164063,-0.17578 -0.347656,-0.23828 -0.183594,-0.0664 -0.582032,-0.0664 h -0.234375 v 2.39062 z m 1.15625,-3.30469 h 0.855469 q 0.832031,0 1.039063,-0.0703 0.207031,-0.0703 0.324218,-0.24219 0.117188,-0.17187 0.117188,-0.42968 0,-0.28907 -0.15625,-0.46485 -0.152344,-0.17968 -0.433594,-0.22656 -0.140625,-0.0195 -0.84375,-0.0195 h -0.902344 z"
           id="path39560"
           style="fill:#ede7dc;fill-opacity:1" />
        <path
           d="m 34.009766,156.86511 v -5.72656 h 1.125 l 2.34375,3.82422 v -3.82422 h 1.074218 v 5.72656 h -1.160156 l -2.308594,-3.73437 v 3.73437 z"
           id="path39562"
           style="fill:#ede7dc;fill-opacity:1" />
      </g>
      <g
         aria-label="MUTE"
         id="text32438-0"
         style="font-weight:bold;font-size:8px;line-height:1.25;font-family:Arial;-inkscape-font-specification:'Arial, Bold';font-variant-ligatures:none;text-align:center;text-anchor:middle;display:inline;fill:#ede7dc;fill-opacity:1">
        <path
           d="m 11.650391,190.69405 v -5.72657 h 1.730468 l 1.039063,3.90625 1.027344,-3.90625 h 1.734375 v 5.72657 h -1.074219 v -4.50782 l -1.136719,4.50782 h -1.113281 l -1.132813,-4.50782 v 4.50782 z"
           id="path39565"
           style="fill:#ede7dc;fill-opacity:1" />
        <path
           d="m 18.322266,184.96748 h 1.15625 v 3.10157 q 0,0.73828 0.04297,0.95703 0.07422,0.35156 0.351563,0.5664 0.28125,0.21094 0.765625,0.21094 0.492187,0 0.742187,-0.19922 0.25,-0.20312 0.300782,-0.49609 0.05078,-0.29297 0.05078,-0.97266 v -3.16797 h 1.15625 v 3.00782 q 0,1.03125 -0.09375,1.45703 -0.09375,0.42578 -0.347656,0.71875 -0.25,0.29297 -0.671875,0.46875 -0.421875,0.17187 -1.101563,0.17187 -0.820312,0 -1.246094,-0.1875 -0.421875,-0.1914 -0.667968,-0.49219 -0.246094,-0.30468 -0.324219,-0.63671 -0.113281,-0.49219 -0.113281,-1.45313 z"
           id="path39567"
           style="fill:#ede7dc;fill-opacity:1" />
        <path
           d="m 25.396484,190.69405 v -4.75782 h -1.699218 v -0.96875 h 4.550781 v 0.96875 h -1.695313 v 4.75782 z"
           id="path39569"
           style="fill:#ede7dc;fill-opacity:1" />
        <path
           d="m 28.994141,190.69405 v -5.72657 h 4.246093 v 0.96875 h -3.089843 v 1.26953 h 2.875 v 0.96485 h -2.875 v 1.55859 h 3.199218 v 0.96485 z"
           id="path39571"
           style="fill:#ede7dc;fill-opacity:1" />
      </g>
      <g
         aria-label="L"
         id="text32438-0-0-6-6"
         style="font-weight:bold;font-size:8px;line-height:1.25;font-family:Arial;-inkscape-font-specification:'Arial, Bold';font-variant-ligatures:none;text-align:center;text-anchor:middle;display:inline;fill:#ede7dc;fill-opacity:1">
        <path
           d="m 4.039062,314.63437 v -5.67969 h 1.15625 v 4.71485 h 2.875 v 0.96484 z"
           id="path39587"
           style="fill:#ede7dc;fill-opacity:1" />
      </g>
      <g
         aria-label="R"
         id="text32438-0-0-6-0-3"
         style="font-weight:bold;font-size:8px;line-height:1.25;font-family:Arial;-inkscape-font-specification:'Arial, Bold';font-variant-ligatures:none;text-align:center;text-anchor:middle;display:inline;fill:#ede7dc;fill-opacity:1"
         transform="translate(0,-0.60021299)">
        <path
           d="M 3.4804683,347.38806 V 341.6615 H 5.914062 q 0.9179688,0 1.3320313,0.15625 0.4179687,0.15234 0.6679687,0.54687 0.25,0.39454 0.25,0.90235 0,0.64453 -0.3789062,1.0664 -0.3789063,0.41797 -1.1328125,0.52735 0.375,0.21875 0.6171875,0.48047 0.2460937,0.26172 0.6601562,0.92968 l 0.6992188,1.11719 H 7.2460933 l -0.8359375,-1.24609 q -0.4453125,-0.66797 -0.609375,-0.83985 -0.1640625,-0.17578 -0.3476563,-0.23828 -0.1835937,-0.0664 -0.5820312,-0.0664 h -0.234375 v 2.39062 z m 1.15625,-3.30469 H 5.492187 q 0.8320313,0 1.0390625,-0.0703 0.2070313,-0.0703 0.3242188,-0.24219 0.1171875,-0.17187 0.1171875,-0.42968 0,-0.28907 -0.15625,-0.46485 -0.1523438,-0.17968 -0.4335938,-0.22656 -0.140625,-0.0195 -0.84375,-0.0195 H 4.6367183 Z"
           id="path39590"
           style="fill:#ede7dc;fill-opacity:1" />
      </g>
      <g
         aria-label="RETURN"
         id="text32438-0-9"
         style="font-weight:bold;font-size:8px;line-height:1.25;font-family:Arial;-inkscape-font-specification:'Arial, Bold';font-variant-ligatures:none;text-align:center;text-anchor:middle;display:inline;fill:#ede7dc;fill-opacity:1">
        <path
           d="m 6.4472656,298.14459 v -5.72656 h 2.4335938 q 0.9179687,0 1.3320316,0.15625 0.417968,0.15234 0.667968,0.54687 0.25,0.39454 0.25,0.90235 0,0.64453 -0.378906,1.0664 -0.378906,0.41797 -1.1328124,0.52735 0.375,0.21875 0.6171874,0.48047 0.246094,0.26172 0.660156,0.92968 l 0.699219,1.11719 H 10.212891 L 9.3769531,296.8985 q -0.4453125,-0.66797 -0.609375,-0.83985 -0.1640625,-0.17578 -0.3476562,-0.23828 -0.1835938,-0.0664 -0.5820313,-0.0664 h -0.234375 v 2.39062 z m 1.15625,-3.30469 h 0.8554688 q 0.8320312,0 1.0390625,-0.0703 0.2070312,-0.0703 0.3242187,-0.24219 0.1171875,-0.17187 0.1171875,-0.42968 0,-0.28907 -0.15625,-0.46485 -0.1523437,-0.17968 -0.4335937,-0.22656 -0.140625,-0.0195 -0.84375,-0.0195 H 7.6035156 Z"
           id="path39574"
           style="fill:#ede7dc;fill-opacity:1" />
        <path
           d="m 12.220703,298.14459 v -5.72656 h 4.246094 v 0.96875 h -3.089844 v 1.26953 h 2.875 v 0.96484 h -2.875 v 1.5586 h 3.199219 v 0.96484 z"
           id="path39576"
           style="fill:#ede7dc;fill-opacity:1" />
        <path
           d="m 18.845703,298.14459 v -4.75781 h -1.699219 v -0.96875 h 4.550782 v 0.96875 h -1.695313 v 4.75781 z"
           id="path39578"
           style="fill:#ede7dc;fill-opacity:1" />
        <path
           d="m 22.435547,292.41803 h 1.15625 v 3.10156 q 0,0.73828 0.04297,0.95703 0.07422,0.35157 0.351562,0.56641 0.28125,0.21094 0.765625,0.21094 0.492188,0 0.742188,-0.19922 0.25,-0.20313 0.300781,-0.4961 0.05078,-0.29296 0.05078,-0.97265 v -3.16797 h 1.15625 v 3.00781 q 0,1.03125 -0.09375,1.45703 -0.09375,0.42578 -0.347656,0.71875 -0.25,0.29297 -0.671875,0.46875 -0.421875,0.17188 -1.101563,0.17188 -0.820312,0 -1.246093,-0.1875 -0.421875,-0.19141 -0.667969,-0.49219 -0.246094,-0.30469 -0.324219,-0.63672 -0.113281,-0.49219 -0.113281,-1.45312 z"
           id="path39580"
           style="fill:#ede7dc;fill-opacity:1" />
        <path
           d="m 28.224609,298.14459 v -5.72656 h 2.433594 q 0.917969,0 1.332031,0.15625 0.417969,0.15234 0.667969,0.54687 0.25,0.39454 0.25,0.90235 0,0.64453 -0.378906,1.0664 -0.378906,0.41797 -1.132813,0.52735 0.375,0.21875 0.617188,0.48047 0.246094,0.26172 0.660156,0.92968 l 0.699219,1.11719 h -1.382813 l -0.835937,-1.24609 q -0.445313,-0.66797 -0.609375,-0.83985 -0.164063,-0.17578 -0.347656,-0.23828 -0.183594,-0.0664 -0.582032,-0.0664 h -0.234375 v 2.39062 z m 1.15625,-3.30469 h 0.855469 q 0.832031,0 1.039063,-0.0703 0.207031,-0.0703 0.324218,-0.24219 0.117188,-0.17187 0.117188,-0.42968 0,-0.28907 -0.15625,-0.46485 -0.152344,-0.17968 -0.433594,-0.22656 -0.140625,-0.0195 -0.84375,-0.0195 h -0.902344 z"
           id="path39582"
           style="fill:#ede7dc;fill-opacity:1" />
        <path
           d="m 34.009766,298.14459 v -5.72656 h 1.125 l 2.34375,3.82422 v -3.82422 h 1.074218 v 5.72656 h -1.160156 l -2.308594,-3.73437 v 3.73437 z"
           id="path39584"
           style="fill:#ede7dc;fill-opacity:1" />
      </g>
    </g>
    <g
       id="g39541"
       style="display:inline;fill:#252525;fill-opacity:1">
      <g
         aria-label="SEND"
         id="text32438-0-0"
         style="font-weight:bold;font-size:8px;line-height:1.25;font-family:Arial;-inkscape-font-specification:'Arial, Bold';font-variant-ligatures:none;text-align:center;text-anchor:middle;display:inline;fill:#252525;fill-opacity:1">
        <path
           d="m 11.730469,226.27258 1.125,-0.10937 q 0.101562,0.5664 0.410156,0.83203 0.3125,0.26562 0.839844,0.26562 0.558594,0 0.839844,-0.23437 0.285156,-0.23828 0.285156,-0.55469 0,-0.20312 -0.121094,-0.34375 -0.117187,-0.14453 -0.414062,-0.25 -0.203125,-0.0703 -0.925782,-0.25 -0.929687,-0.23047 -1.304687,-0.5664 -0.527344,-0.47266 -0.527344,-1.15235 0,-0.4375 0.246094,-0.8164 0.25,-0.38282 0.714844,-0.58204 0.46875,-0.19921 1.128906,-0.19921 1.078125,0 1.621094,0.47265 0.546874,0.47266 0.574218,1.26172 l -1.15625,0.0508 q -0.07422,-0.4414 -0.320312,-0.63281 -0.242188,-0.19531 -0.730469,-0.19531 -0.503906,0 -0.789062,0.20703 -0.183594,0.13281 -0.183594,0.35547 0,0.20312 0.171875,0.34765 0.21875,0.1836 1.0625,0.38282 0.84375,0.19921 1.246094,0.41406 0.40625,0.21094 0.632812,0.58203 0.230469,0.36719 0.230469,0.91016 0,0.49218 -0.273438,0.92187 -0.273437,0.42969 -0.773437,0.64063 -0.5,0.20703 -1.246094,0.20703 -1.085937,0 -1.667969,-0.5 -0.582031,-0.50391 -0.695312,-1.46485 z"
           id="path39505"
           style="fill:#252525;fill-opacity:1" />
        <path
           d="m 17.359375,228.13586 v -5.72656 h 4.246094 v 0.96875 h -3.089844 v 1.26953 h 2.875 v 0.96485 h -2.875 v 1.55859 h 3.199219 v 0.96484 z"
           id="path39507"
           style="fill:#252525;fill-opacity:1" />
        <path
           d="m 22.707031,228.13586 v -5.72656 h 1.125 l 2.34375,3.82422 V 222.4093 H 27.25 v 5.72656 h -1.160156 l -2.308594,-3.73437 v 3.73437 z"
           id="path39509"
           style="fill:#252525;fill-opacity:1" />
        <path
           d="m 28.46875,222.4093 h 2.113281 q 0.714844,0 1.089844,0.10938 0.503906,0.14843 0.863281,0.52734 0.359375,0.37891 0.546875,0.92969 0.1875,0.54687 0.1875,1.35156 0,0.70703 -0.175781,1.21875 -0.214844,0.625 -0.613281,1.01172 -0.300782,0.29297 -0.8125,0.45703 -0.382813,0.12109 -1.023438,0.12109 H 28.46875 Z m 1.15625,0.96875 v 3.79297 h 0.863281 q 0.484375,0 0.699219,-0.0547 0.28125,-0.0703 0.464844,-0.23828 0.1875,-0.16797 0.304687,-0.55078 0.117188,-0.38672 0.117188,-1.05078 0,-0.66406 -0.117188,-1.01953 -0.117187,-0.35547 -0.328125,-0.55469 -0.210937,-0.19922 -0.535156,-0.26953 -0.242188,-0.0547 -0.949219,-0.0547 z"
           id="path39511"
           style="fill:#252525;fill-opacity:1" />
      </g>
      <g
         aria-label="L"
         id="text32438-0-0-6"
         style="font-weight:bold;font-size:8px;line-height:1.25;font-family:Arial;-inkscape-font-specification:'Arial, Bold';font-variant-ligatures:none;text-align:center;text-anchor:middle;display:inline;fill:#252525;fill-opacity:1">
        <path
           d="m 4.039062,244.65938 v -5.67969 h 1.15625 v 4.71484 h 2.875 v 0.96485 z"
           id="path39499"
           style="fill:#252525;fill-opacity:1" />
      </g>
      <g
         aria-label="R"
         id="text32438-0-0-6-0"
         style="font-weight:bold;font-size:8px;line-height:1.25;font-family:Arial;-inkscape-font-specification:'Arial, Bold';font-variant-ligatures:none;text-align:center;text-anchor:middle;display:inline;fill:#252525;fill-opacity:1">
        <path
           d="m 3.4804683,276.6828 v -5.72656 H 5.914062 q 0.9179688,0 1.3320313,0.15625 0.4179687,0.15234 0.6679687,0.54687 0.25,0.39453 0.25,0.90235 0,0.64453 -0.3789062,1.0664 -0.3789063,0.41797 -1.1328125,0.52735 0.375,0.21875 0.6171875,0.48047 0.2460937,0.26171 0.6601562,0.92968 l 0.6992188,1.11719 H 7.2460933 l -0.8359375,-1.24609 q -0.4453125,-0.66797 -0.609375,-0.83985 -0.1640625,-0.17578 -0.3476563,-0.23828 -0.1835937,-0.0664 -0.5820312,-0.0664 h -0.234375 v 2.39062 z m 1.15625,-3.30469 H 5.492187 q 0.8320313,0 1.0390625,-0.0703 0.2070313,-0.0703 0.3242188,-0.24219 0.1171875,-0.17187 0.1171875,-0.42968 0,-0.28907 -0.15625,-0.46485 -0.1523438,-0.17969 -0.4335938,-0.22656 -0.140625,-0.0195 -0.84375,-0.0195 H 4.6367183 Z"
           id="path39502"
           style="fill:#252525;fill-opacity:1" />
      </g>
    </g>
  </g>
  <g
     id="g42796"
     transform="matrix(0.30458296,0,0,0.30458296,-0.5624499,-12.68508)"
     style="fill:#ff0000">
    <g
       aria-label="enom"
       id="text4270-27"
       style="font-size:49.3889px;line-height:1.25;font-family:'NECK ROMANCER';-inkscape-font-specification:'NECK ROMANCER, Normal';font-variant-ligatures:none;text-align:center;text-anchor:middle;fill:#ff0000;stroke-width:2.64583">
      <path
         d="m 46.609141,1249.244 q 0,1.1576 0,3.4245 3.183269,0 9.453344,0 -1.639866,0.5787 -2.990343,1.2058 -1.350478,0.627 -2.363337,1.688 -1.350477,0 -4.051433,0 0,1.4952 0.434082,2.5563 0.385851,1.1093 1.832792,1.1093 2.266873,0 6.80062,0 0.482313,-0.1447 0.868164,-0.627 0.337619,-0.5305 0.627007,-1.7363 0,2.0257 0,6.1254 -3.520888,0 -10.562665,0 -1.543403,0 -2.652724,-2.2187 -1.109321,-2.1704 -1.109321,-6.3183 0,-1.9775 0,-5.836 -0.385851,-1.3504 -1.881023,-2.1221 -1.495171,-0.7235 -3.569119,-1.2058 6.607694,0 19.774852,0 0,2.9421 0,8.7781 -1.205783,-2.701 -2.218642,-3.6656 -1.012858,-0.9646 -2.700955,-1.1093 -0.916396,-0.097 -2.170411,-0.097 -1.205783,0.048 -2.845649,0.048 -0.241157,0 -0.675239,0 z"
         id="path42762"
         style="fill:#ff0000" />
      <path
         d="m 81.576869,1245.2891 q 0,5.8842 0,17.7009 0,3.0868 -0.144694,6.0771 -0.09646,3.0386 -0.337619,5.9325 -0.385851,-3.7138 -0.964627,-6.9936 -0.530545,-3.3279 -2.025717,-5.016 0,-2.9904 0,-8.9228 -0.241157,-1.3505 -0.72347,-2.2187 -0.482314,-0.8681 -1.06109,-1.3987 -1.109321,-1.0128 -2.411567,-1.1093 -1.350478,-0.097 -2.266874,-0.097 -0.482313,0 -1.44694,0 0,4.582 0,13.746 0,3.0868 -0.09646,6.0771 -0.144694,3.0386 -0.385851,5.9325 -0.38585,-3.7138 -0.916395,-6.9936 -0.578776,-3.3279 -2.025717,-5.016 0,-4.8232 0,-14.373 -0.385851,-1.3504 -1.881022,-2.1221 -1.495172,-0.7235 -3.56912,-1.2058 6.752389,0 20.257166,0 z"
         id="path42764"
         style="fill:#ff0000" />
      <path
         d="m 104.19737,1249.0511 q 0,3.3762 0,10.1768 0,1.5434 -1.92925,2.6528 -1.92926,1.1093 -6.077152,1.1093 -4.196128,0 -6.125382,-1.1093 -1.929254,-1.1094 -1.929254,-2.6528 0,-3.3762 0,-10.1768 0,-1.5434 1.929254,-2.6527 1.929254,-1.1093 6.125382,-1.1093 4.147892,0 6.077152,1.1093 1.92925,1.1093 1.92925,2.6527 z m -3.76204,7.91 q 0,-1.8811 0,-5.6431 0,-1.6881 -1.254019,-1.9775 -1.205783,-0.2894 -2.990343,-0.2894 -1.832792,0 -3.038575,0.2894 -1.254015,0.2894 -1.254015,1.9775 0,1.881 0,5.6431 0,1.6881 1.254015,1.9774 1.205783,0.2894 3.038575,0.2894 1.78456,0 2.990343,-0.2894 1.254019,-0.2893 1.254019,-1.9774 z"
         id="path42766"
         style="fill:#ff0000" />
      <path
         d="m 142.34837,1245.2891 q -2.02572,0.4823 -3.52089,1.2058 -1.5434,0.7717 -1.88102,2.1221 0,4.7749 0,14.373 -1.49517,1.6881 -2.02572,5.016 -0.57878,3.2798 -0.96463,6.9936 -0.24115,-2.8939 -0.33762,-5.9325 -0.14469,-2.9903 -0.14469,-6.0771 0,-4.582 0,-13.746 -0.48231,0 -1.39871,0 -0.53054,0 -1.15755,0 -0.62701,0 -1.30225,0.1447 -1.25401,0.2412 -2.41157,1.2058 -1.15755,0.9646 -1.63986,3.4727 0,2.9903 0,8.9228 -0.1447,0.627 -0.28939,1.1093 -0.0965,0.4823 -0.19292,0.8199 -0.53055,1.9775 -0.38586,1.3505 0.19293,-0.627 -0.28938,1.1576 -0.0965,0.3376 -0.24116,0.8681 -0.14469,0.5306 -0.33762,1.3023 -0.14469,-0.6753 -0.28939,-1.2058 -0.14469,-0.4823 -0.24115,-0.8199 -0.53055,-2.0258 -0.33762,-1.3023 0.19292,0.7717 -0.43409,-1.6881 -0.0482,-0.2894 -0.19292,-0.7235 -0.0965,-0.3858 -0.19293,-0.8681 0,-2.9904 0,-8.9228 -0.28939,-1.3505 -0.7717,-2.2187 -0.48231,-0.8681 -1.06109,-1.3987 -1.10932,-1.0128 -2.41157,-1.1093 -1.30224,-0.097 -2.26687,-0.097 -0.48231,0 -1.39871,0 0,4.582 0,13.746 0,3.0868 -0.14469,6.0771 -0.0965,3.0386 -0.33762,5.9325 -0.38585,-3.7138 -0.96463,-6.9936 -0.53054,-3.3279 -2.02572,-5.016 0,-4.8232 0,-14.373 -0.38585,-1.3504 -1.88102,-2.1221 -1.49517,-0.7235 -3.56912,-1.2058 3.95497,0 11.76845,0 1.15755,0.3858 3.47266,1.1575 0.7717,0.2894 1.59163,0.4341 0.81994,0.1447 1.6881,0.1447 0.86816,0 1.73633,-0.1447 0.81993,-0.1447 1.59163,-0.4341 1.15756,-0.3858 3.42443,-1.1575 3.95497,0 11.76845,0 z"
         id="path42768"
         style="fill:#ff0000" />
    </g>
    <g
       aria-label="V"
       transform="matrix(1.2363173,0,0,0.80885384,-497.88086,123.48586)"
       id="text4270-3-5-2"
       style="font-size:78.5061px;line-height:1.25;font-family:Nosferotica;-inkscape-font-specification:'Nosferotica, Normal';font-variant-ligatures:none;text-align:center;text-anchor:middle;fill:#ff0000;stroke-width:3.27108">
      <path
         d="m 431.64994,1360.6864 8.57428,-0.1022 c 0,0 -4.4079,1.0878 -5.59925,3.7285 -1.88083,4.1689 -3.64217,14.6628 -3.64217,14.6628 l -2.23339,11.5191 -1.83311,11.8311 -1.71824,21.3112 -1.69514,-21.3112 -1.92196,-11.5208 -2.5009,-11.8294 c 0,0 -1.52027,-10.287 -3.38278,-14.4832 -1.14458,-2.5787 -5.63367,-3.8059 -5.63367,-3.8059 h 8.4657 l 6.66875,29.1569 z"
         id="path30410"
         sodipodi:nodetypes="ccscccccccscccc"
         style="fill:#ff0000" />
    </g>
  </g>
  <text
     xml:space="preserve"
     id="text29904"
     style="font-weight:bold;font-size:8px;line-height:1.25;font-family:Arial;-inkscape-font-specification:'Arial, Bold';font-variant-ligatures:none;text-align:center;white-space:pre;shape-inside:url(#rect29906)"
     transform="translate(-2.6024628e-4)" />
  <g
     inkscape:groupmode="layer"
     id="layer1"
     inkscape:label="Widgets"
     style="display:none">
    <circle
       style="fill:#ff0000;stroke:#ff0000;stroke-width:1.8645;stroke-opacity:1"
       id="path1065-77"
       cx="22.5"
       cy="134.51425"
       r="10.06775" />
    <circle
       style="fill:#ff0000;stroke:#ff0000;stroke-width:1.8645;stroke-opacity:1"
       id="path1065-7-3"
       cx="22.5"
       cy="103.77463"
       r="10.06775" />
    <circle
       style="fill:#ff0000;stroke:#ff0000;stroke-width:1.8645;stroke-opacity:1"
       id="path1065-7-1-6"
       cx="22.5"
       cy="73.035011"
       r="10.06775" />
    <circle
       style="fill:#ff0000;stroke:#ff0000;stroke-width:1.8645;stroke-opacity:1"
       id="path1065-7-2-3"
       cx="22.5"
       cy="42.295391"
       r="10.06775" />
    <circle
       style="display:inline;fill:#ff0000;stroke:#ff0000;stroke-width:1.94925;stroke-opacity:1"
       id="path1065-7-1-6-8"
       cx="22.5"
       cy="241.81953"
       r="10.525375" />
    <circle
       style="display:inline;fill:#ff0000;stroke:#ff0000;stroke-width:1.77975;stroke-opacity:1"
       id="path1065-7-2-3-2"
       cx="22.5"
       cy="203.27763"
       r="9.6101246" />
    <circle
       style="display:inline;fill:#ff0000;stroke:#ff0000;stroke-width:1.94925;stroke-opacity:1"
       id="path1065-7-1-6-8-7"
       cx="22.5"
       cy="273.81952"
       r="10.525375" />
    <circle
       style="display:inline;fill:#ff0000;stroke:#ff0000;stroke-width:1.8645;stroke-opacity:1"
       id="path1065-7-2-3-2-7"
       cx="22.5"
       cy="169.92604"
       r="10.06775" />
    <circle
       style="display:inline;fill:#ff0000;stroke:#ff0000;stroke-width:1.94925;stroke-opacity:1"
       id="path1065-7-1-6-8-9"
       cx="22.5"
       cy="311.79453"
       r="10.525375" />
    <circle
       style="display:inline;fill:#ff0000;stroke:#ff0000;stroke-width:1.94925;stroke-opacity:1"
       id="path1065-7-1-6-8-3"
       cx="22.5"
       cy="343.92456"
       r="10.525375" />
  </g>
  <g
     inkscape:groupmode="layer"
     id="layer2"
     inkscape:label="Text Labels"
     style="display:none" />
</svg>
