<?xml version="1.0" encoding="UTF-8" standalone="no"?>
<svg
   width="45"
   height="380"
   viewBox="0 0 45 380"
   version="1.1"
   id="svg100"
   sodipodi:docname="MousePad_Coal.svg"
   inkscape:version="1.1.1 (3bf5ae0d25, 2021-09-20)"
   xmlns:inkscape="http://www.inkscape.org/namespaces/inkscape"
   xmlns:sodipodi="http://sodipodi.sourceforge.net/DTD/sodipodi-0.dtd"
   xmlns="http://www.w3.org/2000/svg"
   xmlns:svg="http://www.w3.org/2000/svg"
   xmlns:rdf="http://www.w3.org/1999/02/22-rdf-syntax-ns#"
   xmlns:cc="http://creativecommons.org/ns#"
   xmlns:dc="http://purl.org/dc/elements/1.1/">
  <metadata
     id="metadata104">
    <rdf:RDF>
      <cc:Work
         rdf:about="">
        <dc:format>image/svg+xml</dc:format>
        <dc:type
           rdf:resource="http://purl.org/dc/dcmitype/StillImage" />
      </cc:Work>
    </rdf:RDF>
  </metadata>
  <sodipodi:namedview
     pagecolor="#ffffff"
     bordercolor="#666666"
     borderopacity="1"
     objecttolerance="1"
     gridtolerance="1"
     guidetolerance="1"
     inkscape:pageopacity="0"
     inkscape:pageshadow="2"
     inkscape:window-width="1920"
     inkscape:window-height="1057"
     id="namedview102"
     showgrid="true"
     inkscape:zoom="2.2342105"
     inkscape:cx="22.37927"
     inkscape:cy="190"
     inkscape:window-x="1592"
     inkscape:window-y="-8"
     inkscape:window-maximized="1"
     inkscape:current-layer="layer6"
     inkscape:pagecheckerboard="0"
     units="px"
     inkscape:showpageshadow="false"
     showborder="true">
    <inkscape:grid
       type="xygrid"
       id="grid1285"
       visible="false" />
  </sodipodi:namedview>
  <defs
     id="defs7">
    <rect
       x="85"
       y="10"
       width="51.058132"
       height="25"
       id="rect29906" />
    <linearGradient
       id="a8e142bb-541b-4903-be63-d5d069028a5d"
       x1="22.5"
       x2="22.5"
       y2="380"
       gradientUnits="userSpaceOnUse">
      <stop
         offset="0"
         stop-color="#ebebeb"
         id="stop2" />
      <stop
         offset="1"
         stop-color="#e1e1e1"
         id="stop4" />
    </linearGradient>
  </defs>
  <g
     inkscape:groupmode="layer"
     id="layer2"
     inkscape:label="Faceplate"
     style="display:inline">
    <g
       id="aea613ef-74be-49bf-be45-c0734aee674b"
       data-name="FND BG"
       style="fill:#252525;fill-opacity:1">
      <rect
         width="45"
         height="380"
         fill="url(#a8e142bb-541b-4903-be63-d5d069028a5d)"
         id="rect9"
         style="fill:#252525;fill-opacity:1"
         x="0"
         y="0" />
    </g>
  </g>
  <g
     inkscape:groupmode="layer"
     id="layer3"
     inkscape:label="Brand"
     style="display:inline">
    <g
       id="g42796"
       transform="matrix(0.30458296,0,0,0.30458296,-0.5624499,-12.68508)"
       style="fill:#ff0000">
      <g
         aria-label="enom"
         id="text4270-27"
         style="font-size:49.3889px;line-height:1.25;font-family:'NECK ROMANCER';-inkscape-font-specification:'NECK ROMANCER, Normal';font-variant-ligatures:none;text-align:center;text-anchor:middle;fill:#ff0000;stroke-width:2.64583">
        <path
           d="m 46.609141,1249.244 q 0,1.1576 0,3.4245 3.183269,0 9.453344,0 -1.639866,0.5787 -2.990343,1.2058 -1.350478,0.627 -2.363337,1.688 -1.350477,0 -4.051433,0 0,1.4952 0.434082,2.5563 0.385851,1.1093 1.832792,1.1093 2.266873,0 6.80062,0 0.482313,-0.1447 0.868164,-0.627 0.337619,-0.5305 0.627007,-1.7363 0,2.0257 0,6.1254 -3.520888,0 -10.562665,0 -1.543403,0 -2.652724,-2.2187 -1.109321,-2.1704 -1.109321,-6.3183 0,-1.9775 0,-5.836 -0.385851,-1.3504 -1.881023,-2.1221 -1.495171,-0.7235 -3.569119,-1.2058 6.607694,0 19.774852,0 0,2.9421 0,8.7781 -1.205783,-2.701 -2.218642,-3.6656 -1.012858,-0.9646 -2.700955,-1.1093 -0.916396,-0.097 -2.170411,-0.097 -1.205783,0.048 -2.845649,0.048 -0.241157,0 -0.675239,0 z"
           id="path42762"
           style="fill:#ff0000" />
        <path
           d="m 81.576869,1245.2891 q 0,5.8842 0,17.7009 0,3.0868 -0.144694,6.0771 -0.09646,3.0386 -0.337619,5.9325 -0.385851,-3.7138 -0.964627,-6.9936 -0.530545,-3.3279 -2.025717,-5.016 0,-2.9904 0,-8.9228 -0.241157,-1.3505 -0.72347,-2.2187 -0.482314,-0.8681 -1.06109,-1.3987 -1.109321,-1.0128 -2.411567,-1.1093 -1.350478,-0.097 -2.266874,-0.097 -0.482313,0 -1.44694,0 0,4.582 0,13.746 0,3.0868 -0.09646,6.0771 -0.144694,3.0386 -0.385851,5.9325 -0.38585,-3.7138 -0.916395,-6.9936 -0.578776,-3.3279 -2.025717,-5.016 0,-4.8232 0,-14.373 -0.385851,-1.3504 -1.881022,-2.1221 -1.495172,-0.7235 -3.56912,-1.2058 6.752389,0 20.257166,0 z"
           id="path42764"
           style="fill:#ff0000" />
        <path
           d="m 104.19737,1249.0511 q 0,3.3762 0,10.1768 0,1.5434 -1.92925,2.6528 -1.92926,1.1093 -6.077152,1.1093 -4.196128,0 -6.125382,-1.1093 -1.929254,-1.1094 -1.929254,-2.6528 0,-3.3762 0,-10.1768 0,-1.5434 1.929254,-2.6527 1.929254,-1.1093 6.125382,-1.1093 4.147892,0 6.077152,1.1093 1.92925,1.1093 1.92925,2.6527 z m -3.76204,7.91 q 0,-1.8811 0,-5.6431 0,-1.6881 -1.254019,-1.9775 -1.205783,-0.2894 -2.990343,-0.2894 -1.832792,0 -3.038575,0.2894 -1.254015,0.2894 -1.254015,1.9775 0,1.881 0,5.6431 0,1.6881 1.254015,1.9774 1.205783,0.2894 3.038575,0.2894 1.78456,0 2.990343,-0.2894 1.254019,-0.2893 1.254019,-1.9774 z"
           id="path42766"
           style="fill:#ff0000" />
        <path
           d="m 142.34837,1245.2891 q -2.02572,0.4823 -3.52089,1.2058 -1.5434,0.7717 -1.88102,2.1221 0,4.7749 0,14.373 -1.49517,1.6881 -2.02572,5.016 -0.57878,3.2798 -0.96463,6.9936 -0.24115,-2.8939 -0.33762,-5.9325 -0.14469,-2.9903 -0.14469,-6.0771 0,-4.582 0,-13.746 -0.48231,0 -1.39871,0 -0.53054,0 -1.15755,0 -0.62701,0 -1.30225,0.1447 -1.25401,0.2412 -2.41157,1.2058 -1.15755,0.9646 -1.63986,3.4727 0,2.9903 0,8.9228 -0.1447,0.627 -0.28939,1.1093 -0.0965,0.4823 -0.19292,0.8199 -0.53055,1.9775 -0.38586,1.3505 0.19293,-0.627 -0.28938,1.1576 -0.0965,0.3376 -0.24116,0.8681 -0.14469,0.5306 -0.33762,1.3023 -0.14469,-0.6753 -0.28939,-1.2058 -0.14469,-0.4823 -0.24115,-0.8199 -0.53055,-2.0258 -0.33762,-1.3023 0.19292,0.7717 -0.43409,-1.6881 -0.0482,-0.2894 -0.19292,-0.7235 -0.0965,-0.3858 -0.19293,-0.8681 0,-2.9904 0,-8.9228 -0.28939,-1.3505 -0.7717,-2.2187 -0.48231,-0.8681 -1.06109,-1.3987 -1.10932,-1.0128 -2.41157,-1.1093 -1.30224,-0.097 -2.26687,-0.097 -0.48231,0 -1.39871,0 0,4.582 0,13.746 0,3.0868 -0.14469,6.0771 -0.0965,3.0386 -0.33762,5.9325 -0.38585,-3.7138 -0.96463,-6.9936 -0.53054,-3.3279 -2.02572,-5.016 0,-4.8232 0,-14.373 -0.38585,-1.3504 -1.88102,-2.1221 -1.49517,-0.7235 -3.56912,-1.2058 3.95497,0 11.76845,0 1.15755,0.3858 3.47266,1.1575 0.7717,0.2894 1.59163,0.4341 0.81994,0.1447 1.6881,0.1447 0.86816,0 1.73633,-0.1447 0.81993,-0.1447 1.59163,-0.4341 1.15756,-0.3858 3.42443,-1.1575 3.95497,0 11.76845,0 z"
           id="path42768"
           style="fill:#ff0000" />
      </g>
      <g
         aria-label="V"
         transform="matrix(1.2363173,0,0,0.80885384,-497.88086,123.48586)"
         id="text4270-3-5-2"
         style="font-size:78.5061px;line-height:1.25;font-family:Nosferotica;-inkscape-font-specification:'Nosferotica, Normal';font-variant-ligatures:none;text-align:center;text-anchor:middle;fill:#ff0000;stroke-width:3.27108">
        <path
           d="m 431.64994,1360.6864 8.57428,-0.1022 c 0,0 -4.4079,1.0878 -5.59925,3.7285 -1.88083,4.1689 -3.64217,14.6628 -3.64217,14.6628 l -2.23339,11.5191 -1.83311,11.8311 -1.71824,21.3112 -1.69514,-21.3112 -1.92196,-11.5208 -2.5009,-11.8294 c 0,0 -1.52027,-10.287 -3.38278,-14.4832 -1.14458,-2.5787 -5.63367,-3.8059 -5.63367,-3.8059 h 8.4657 l 6.66875,29.1569 z"
           id="path30410"
           sodipodi:nodetypes="ccscccccccscccc"
           style="fill:#ff0000" />
      </g>
    </g>
  </g>
  <g
     inkscape:groupmode="layer"
     id="layer4"
     inkscape:label="Solid"
     style="display:inline">
    <rect
       style="display:inline;fill:#ede7dc;fill-opacity:1;stroke:none;stroke-width:0.623623"
       id="rect17730-2-9"
       width="32.363998"
       height="105.218"
       x="6.3180003"
       y="249.011"
       ry="5.8186102"
       rx="5.8186097" />
    <g
       aria-label="MOUSE"
       id="text130381"
       style="font-weight:bold;font-size:10px;line-height:1.25;font-family:Arial;-inkscape-font-specification:'Arial, Bold';font-variant-ligatures:none;text-align:center;text-anchor:middle;fill:#ede7dc;fill-opacity:1">
      <path
         d="M 4.7680664,13.119471 V 5.9612675 H 6.9311523 L 8.2299805,10.84408 9.5141602,5.9612675 H 11.682129 V 13.119471 H 10.339355 V 7.484705 L 8.918457,13.119471 H 7.5268555 L 6.1108398,7.484705 v 5.634766 z"
         id="path132926"
         style="fill:#ede7dc;fill-opacity:1" />
      <path
         d="m 12.824707,9.5843143 q 0,-1.09375 0.327148,-1.8359375 0.244141,-0.546875 0.664063,-0.9814453 0.424805,-0.4345703 0.927734,-0.6445312 0.668946,-0.2832031 1.542969,-0.2832031 1.582031,0 2.529297,0.9814453 0.952148,0.9814453 0.952148,2.7294922 0,1.7333983 -0.942382,2.7148433 -0.942383,0.976563 -2.519532,0.976563 -1.596679,0 -2.539062,-0.97168 -0.942383,-0.976562 -0.942383,-2.6855467 z m 1.489258,-0.048828 q 0,1.2158207 0.561523,1.8457027 0.561524,0.625 1.425782,0.625 0.864257,0 1.416015,-0.620117 0.556641,-0.625 0.556641,-1.8701169 0,-1.2304688 -0.541992,-1.8359375 -0.53711,-0.6054688 -1.430664,-0.6054688 -0.893555,0 -1.44043,0.6152344 -0.546875,0.6103516 -0.546875,1.8457031 z"
         id="path132928"
         style="fill:#ede7dc;fill-opacity:1" />
      <path
         d="m 20.88623,5.9612675 h 1.445313 v 3.8769531 q 0,0.9228514 0.05371,1.1962894 0.09277,0.439453 0.439453,0.708007 0.351563,0.263672 0.957031,0.263672 0.615235,0 0.927735,-0.249023 0.3125,-0.253906 0.375976,-0.620117 0.06348,-0.366211 0.06348,-1.2158206 V 5.9612675 h 1.445312 v 3.7597656 q 0,1.2890629 -0.117187,1.8212889 -0.117188,0.532227 -0.434571,0.898438 -0.3125,0.366211 -0.839843,0.585937 -0.527344,0.214844 -1.376953,0.214844 -1.025391,0 -1.557618,-0.234375 Q 21.740725,12.767908 21.433107,12.391932 21.12549,12.011072 21.027834,11.596033 20.88623,10.980799 20.88623,9.7796268 Z"
         id="path132930"
         style="fill:#ede7dc;fill-opacity:1" />
      <path
         d="m 27.751465,10.790369 1.40625,-0.136719 q 0.126953,0.708008 0.512695,1.040039 0.390625,0.332032 1.049805,0.332032 0.698242,0 1.049805,-0.292969 0.356445,-0.297852 0.356445,-0.69336 0,-0.253906 -0.151367,-0.429687 -0.146485,-0.180664 -0.517578,-0.3125 -0.253907,-0.08789 -1.157227,-0.3125 -1.162109,-0.288086 -1.630859,-0.7080078 -0.65918,-0.5908204 -0.65918,-1.4404297 0,-0.546875 0.307617,-1.0205078 0.3125,-0.4785157 0.893555,-0.7275391 0.585937,-0.2490234 1.411133,-0.2490234 1.347656,0 2.026367,0.5908203 0.683594,0.5908203 0.717773,1.5771484 l -1.445312,0.063477 Q 31.828613,7.5188847 31.520996,7.2796268 31.218262,7.0354862 30.60791,7.0354862 q -0.629883,0 -0.986328,0.2587891 -0.229492,0.1660156 -0.229492,0.4443359 0,0.2539063 0.214844,0.4345703 0.273437,0.2294922 1.328125,0.4785157 1.054687,0.2490234 1.557617,0.5175781 0.507812,0.2636719 0.791015,0.727539 0.288086,0.4589847 0.288086,1.1376957 0,0.615234 -0.341797,1.152343 -0.341796,0.53711 -0.966796,0.800782 -0.625,0.258789 -1.557618,0.258789 -1.357421,0 -2.084961,-0.625 -0.727539,-0.629883 -0.86914,-1.831055 z"
         id="path132932"
         style="fill:#ede7dc;fill-opacity:1" />
      <path
         d="M 34.787598,13.119471 V 5.9612675 h 5.307617 V 7.172205 H 36.23291 v 1.586914 h 3.59375 v 1.2060547 h -3.59375 v 1.9482423 h 3.999024 v 1.206055 z"
         id="path132934"
         style="fill:#ede7dc;fill-opacity:1" />
    </g>
    <g
       aria-label="PAD"
       id="text130381-3"
       style="font-weight:bold;font-size:10px;line-height:1.25;font-family:Arial;-inkscape-font-specification:'Arial, Bold';font-variant-ligatures:none;text-align:center;text-anchor:middle;fill:#ede7dc;fill-opacity:1">
      <path
         d="m 12.927246,23.228474 v -7.158203 h 2.319336 q 1.318359,0 1.71875,0.107421 0.615234,0.161133 1.030273,0.703125 0.41504,0.53711 0.41504,1.391602 0,0.65918 -0.239258,1.108398 -0.239258,0.449219 -0.610352,0.708008 -0.366211,0.253906 -0.74707,0.336914 -0.517578,0.102539 -1.499024,0.102539 h -0.942382 v 2.700196 z m 1.445313,-5.947266 v 2.03125 h 0.791015 q 0.854492,0 1.142578,-0.112305 0.288086,-0.112304 0.449219,-0.351562 0.166016,-0.239258 0.166016,-0.556641 0,-0.390625 -0.229492,-0.644531 -0.229493,-0.253906 -0.581055,-0.317383 -0.258789,-0.04883 -1.040039,-0.04883 z"
         id="path132937"
         style="fill:#ede7dc;fill-opacity:1" />
      <path
         d="m 25.310059,23.228474 h -1.572266 l -0.625,-1.625977 h -2.861328 l -0.59082,1.625977 h -1.533204 l 2.788086,-7.158203 h 1.528321 z m -2.661133,-2.832032 -0.986328,-2.65625 -0.966797,2.65625 z"
         id="path132939"
         style="fill:#ede7dc;fill-opacity:1" />
      <path
         d="m 26.071777,16.070271 h 2.641602 q 0.893555,0 1.362305,0.136718 0.629882,0.185547 1.079101,0.65918 0.449219,0.473633 0.683594,1.162109 0.234375,0.683594 0.234375,1.689453 0,0.88379 -0.219727,1.523438 -0.268554,0.78125 -0.766601,1.264648 -0.375977,0.366211 -1.015625,0.571289 -0.478516,0.151368 -1.279297,0.151368 h -2.719727 z m 1.445313,1.210937 v 4.741211 h 1.079101 q 0.605469,0 0.874024,-0.06836 0.351562,-0.08789 0.581055,-0.297852 0.234375,-0.209961 0.380859,-0.688477 0.146484,-0.483398 0.146484,-1.313476 0,-0.830078 -0.146484,-1.274414 -0.146484,-0.444336 -0.410156,-0.69336 -0.263672,-0.249023 -0.668946,-0.336914 -0.302734,-0.06836 -1.186523,-0.06836 z"
         id="path132941"
         style="fill:#ede7dc;fill-opacity:1" />
    </g>
    <g
       aria-label="SHIFT"
       id="text138130"
       style="font-weight:bold;font-size:6.66667px;line-height:1.25;font-family:Arial;-inkscape-font-specification:'Arial, Bold';font-variant-ligatures:none;text-align:center;text-anchor:middle;display:inline;fill:#ede7dc;fill-opacity:1">
      <path
         d="m 2.5598907,46.398982 0.9375005,-0.09115 q 0.084635,0.472006 0.341797,0.69336 0.2604168,0.221354 0.6998701,0.221354 0.465495,0 0.6998702,-0.195312 0.2376303,-0.198568 0.2376303,-0.46224 0,-0.169271 -0.1009115,-0.286459 Q 5.277991,46.158097 5.030595,46.070206 4.8613241,46.011612 4.2591103,45.861873 3.4843703,45.669815 3.1718702,45.389867 2.7324168,44.995987 2.7324168,44.42958 q 0,-0.364583 0.2050783,-0.680339 0.2083334,-0.31901 0.5957034,-0.485026 0.3906252,-0.166016 0.9407556,-0.166016 0.898438,0 1.3509121,0.393881 0.4557294,0.39388 0.4785159,1.051433 L 5.33984,44.58583 q -0.061849,-0.367838 -0.2669272,-0.527344 -0.2018231,-0.16276 -0.6087243,-0.16276 -0.4199221,0 -0.6575524,0.172526 -0.1529949,0.110677 -0.1529949,0.296224 0,0.169271 0.1432293,0.289714 0.1822917,0.152995 0.8854171,0.31901 0.7031253,0.166016 1.0384119,0.345053 0.3385418,0.175781 0.527344,0.485026 0.1920574,0.30599 0.1920574,0.758464 0,0.410156 -0.2278647,0.768229 -0.2278647,0.358073 -0.6445315,0.533855 -0.4166669,0.172526 -1.038412,0.172526 -0.9049483,0 -1.3899746,-0.416667 -0.4850263,-0.419922 -0.5794274,-1.220704 z"
         id="path3704"
         style="fill:#ede7dc;fill-opacity:1" />
      <path
         d="M 7.2539033,47.951717 V 43.17958 h 0.9635421 v 1.878256 H 10.105467 V 43.17958 h 0.963542 v 4.772137 H 10.105467 V 45.865128 H 8.2174454 v 2.086589 z"
         id="path3706"
         style="fill:#ede7dc;fill-opacity:1" />
      <path
         d="M 12.035807,47.951717 V 43.17958 h 0.963542 v 4.772137 z"
         id="path3708"
         style="fill:#ede7dc;fill-opacity:1" />
      <path
         d="M 13.923829,47.951717 V 43.17958 h 3.271486 v 0.807292 h -2.307944 v 1.129558 h 1.992188 v 0.807292 h -1.992188 v 2.027995 z"
         id="path3710"
         style="fill:#ede7dc;fill-opacity:1" />
      <path
         d="M 19.063805,47.951717 V 43.986872 H 17.647789 V 43.17958 h 3.792319 v 0.807292 h -1.412761 v 3.964845 z"
         id="path3712"
         style="fill:#ede7dc;fill-opacity:1" />
    </g>
    <g
       aria-label="CTRL"
       id="text138130-1"
       style="font-weight:bold;font-size:6.66667px;line-height:1.25;font-family:Arial;-inkscape-font-specification:'Arial, Bold';font-variant-ligatures:none;text-align:center;text-anchor:middle;display:inline;fill:#ede7dc;fill-opacity:1">
      <path
         d="m 6.5947243,76.18433 0.9342453,0.296225 q -0.2148439,0.78125 -0.7161462,1.162109 -0.4980471,0.377605 -1.2662767,0.377605 -0.9505212,0 -1.5625007,-0.647787 -0.6119795,-0.651042 -0.6119795,-1.777345 0,-1.191406 0.6152347,-1.848959 0.6152347,-0.660807 1.6178393,-0.660807 0.8756515,0 1.4225267,0.517578 0.325521,0.30599 0.4882815,0.878907 L 6.5621722,74.70972 q -0.084635,-0.371094 -0.3548178,-0.585937 -0.2669273,-0.214844 -0.651042,-0.214844 -0.5305992,0 -0.8626306,0.380859 -0.3287762,0.38086 -0.3287762,1.233725 0,0.904948 0.3255209,1.289063 0.325521,0.384115 0.8463546,0.384115 0.3841148,0 0.6608076,-0.244141 0.2766929,-0.244141 0.3971356,-0.76823 z"
         id="path3695"
         style="fill:#ede7dc;fill-opacity:1" />
      <path
         d="M 9.4300122,77.938889 V 73.974043 H 8.0139959 v -0.807292 h 3.7923191 v 0.807292 h -1.412761 v 3.964846 z"
         id="path3697"
         style="fill:#ede7dc;fill-opacity:1" />
      <path
         d="m 12.431315,77.938889 v -4.772138 h 2.027996 q 0.764974,0 1.110027,0.130208 0.348307,0.126953 0.55664,0.45573 0.208334,0.328776 0.208334,0.751953 0,0.53711 -0.315755,0.888672 -0.315756,0.348308 -0.944011,0.439454 0.3125,0.182292 0.514323,0.400391 0.205078,0.218099 0.55013,0.77474 l 0.582683,0.93099 H 15.569338 L 14.872723,76.900477 Q 14.501629,76.343836 14.36491,76.200606 14.228191,76.054122 14.075196,76.002039 13.922201,75.9467 13.59017,75.9467 h -0.195313 v 1.992189 z m 0.963542,-2.753908 h 0.712891 q 0.69336,0 0.865886,-0.05859 0.172526,-0.05859 0.270183,-0.201823 0.09766,-0.143229 0.09766,-0.358073 0,-0.240885 -0.130209,-0.38737 -0.126953,-0.14974 -0.361328,-0.188802 -0.117187,-0.01628 -0.703125,-0.01628 h -0.751954 z"
         id="path3699"
         style="fill:#ede7dc;fill-opacity:1" />
      <path
         d="M 17.268558,77.938889 V 73.205813 H 18.2321 v 3.929039 h 2.395834 v 0.804037 z"
         id="path3701"
         style="fill:#ede7dc;fill-opacity:1" />
    </g>
    <g
       aria-label="SCALE"
       id="text138130-1-4"
       style="font-weight:bold;font-size:6.66667px;line-height:1.25;font-family:Arial;-inkscape-font-specification:'Arial, Bold';font-variant-ligatures:none;text-align:center;text-anchor:middle;display:inline;fill:#ede7dc;fill-opacity:1">
      <path
         d="m 11.489252,121.99101 0.9375,-0.0911 q 0.08464,0.472 0.341797,0.69336 0.260417,0.22135 0.699871,0.22135 0.465495,0 0.69987,-0.19531 0.23763,-0.19857 0.23763,-0.46224 0,-0.16927 -0.100912,-0.28646 -0.09766,-0.12044 -0.345052,-0.20833 -0.169271,-0.0586 -0.771485,-0.20834 -0.774739,-0.19206 -1.08724,-0.472 -0.439453,-0.39388 -0.439453,-0.96029 0,-0.36458 0.205078,-0.68034 0.208334,-0.31901 0.595704,-0.48503 0.390625,-0.16601 0.940755,-0.16601 0.898438,0 1.350912,0.39388 0.45573,0.39388 0.478516,1.05143 l -0.963542,0.0423 q -0.06185,-0.36784 -0.266927,-0.52734 -0.201823,-0.16276 -0.608724,-0.16276 -0.419922,0 -0.657553,0.17252 -0.152995,0.11068 -0.152995,0.29623 0,0.16927 0.14323,0.28971 0.182291,0.15299 0.885417,0.31901 0.703125,0.16602 1.038412,0.34505 0.338542,0.17578 0.527344,0.48503 0.192057,0.30599 0.192057,0.75846 0,0.41016 -0.227865,0.76823 -0.227864,0.35807 -0.644531,0.53386 -0.416667,0.17252 -1.038412,0.17252 -0.904948,0 -1.389975,-0.41666 -0.485026,-0.41993 -0.579427,-1.22071 z"
         id="path3684"
         style="fill:#ede7dc;fill-opacity:1" />
      <path
         d="m 19.233396,121.78919 0.934245,0.29622 q -0.214843,0.78125 -0.716146,1.16211 -0.498047,0.37761 -1.266276,0.37761 -0.950522,0 -1.562501,-0.64779 -0.61198,-0.65104 -0.61198,-1.77734 0,-1.19141 0.615235,-1.84896 0.615235,-0.66081 1.617839,-0.66081 0.875652,0 1.422527,0.51758 0.325521,0.30599 0.488282,0.8789 l -0.953777,0.22787 q -0.08463,-0.3711 -0.354818,-0.58594 -0.266927,-0.21484 -0.651042,-0.21484 -0.530599,0 -0.86263,0.38086 -0.328777,0.38086 -0.328777,1.23372 0,0.90495 0.325521,1.28906 0.325521,0.38412 0.846355,0.38412 0.384115,0 0.660808,-0.24414 0.276692,-0.24414 0.397135,-0.76823 z"
         id="path3686"
         style="fill:#ede7dc;fill-opacity:1" />
      <path
         d="m 25.297852,123.54375 h -1.048177 l -0.416667,-1.08399 h -1.907553 l -0.393881,1.08399 h -1.022135 l 1.858724,-4.77214 h 1.018881 z m -1.774089,-1.88802 -0.657553,-1.77084 -0.644531,1.77084 z"
         id="path3688"
         style="fill:#ede7dc;fill-opacity:1" />
      <path
         d="m 25.834962,123.54375 v -4.73308 h 0.963542 v 3.92904 h 2.395834 v 0.80404 z"
         id="path3690"
         style="fill:#ede7dc;fill-opacity:1" />
      <path
         d="m 29.881187,123.54375 v -4.77214 h 3.538414 v 0.80729 h -2.574872 v 1.05794 h 2.395835 v 0.80404 h -2.395835 v 1.29883 h 2.666017 v 0.80404 z"
         id="path3692"
         style="fill:#ede7dc;fill-opacity:1" />
    </g>
    <g
       aria-label="ORIGIN"
       id="text138130-1-4-9"
       style="font-weight:bold;font-size:6.66667px;line-height:1.25;font-family:Arial;-inkscape-font-specification:'Arial, Bold';font-variant-ligatures:none;text-align:center;text-anchor:middle;display:inline;fill:#ede7dc;fill-opacity:1">
      <path
         d="m 11.059565,151.13392 q 0,-0.72917 0.218099,-1.22396 0.16276,-0.36458 0.442708,-0.6543 0.283204,-0.28971 0.61849,-0.42968 0.445964,-0.18881 1.028647,-0.18881 1.054688,0 1.686198,0.6543 0.634766,0.6543 0.634766,1.81966 0,1.1556 -0.628255,1.8099 -0.628256,0.65104 -1.679689,0.65104 -1.064453,0 -1.692709,-0.64778 -0.628255,-0.65105 -0.628255,-1.79037 z m 0.992839,-0.0325 q 0,0.81055 0.374349,1.23047 0.374349,0.41666 0.950521,0.41666 0.576172,0 0.944011,-0.41341 0.371094,-0.41666 0.371094,-1.24674 0,-0.82032 -0.361328,-1.22396 -0.358073,-0.40365 -0.953777,-0.40365 -0.595703,0 -0.960287,0.41016 -0.364583,0.4069 -0.364583,1.23047 z"
         id="path3671"
         style="fill:#ede7dc;fill-opacity:1" />
      <path
         d="m 16.443682,153.49069 v -4.77214 h 2.027996 q 0.764974,0 1.110026,0.13021 0.348308,0.12696 0.556641,0.45573 0.208334,0.32878 0.208334,0.75196 0,0.53711 -0.315756,0.88867 -0.315755,0.34831 -0.944011,0.43945 0.3125,0.18229 0.514323,0.40039 0.205079,0.2181 0.550131,0.77474 l 0.582682,0.93099 h -1.152344 l -0.696615,-1.03841 q -0.371094,-0.55664 -0.507812,-0.69987 -0.136719,-0.14648 -0.289714,-0.19857 -0.152995,-0.0553 -0.485026,-0.0553 h -0.195313 v 1.99219 z m 0.963542,-2.75391 h 0.712891 q 0.69336,0 0.865886,-0.0586 0.172526,-0.0586 0.270182,-0.20182 0.09766,-0.14323 0.09766,-0.35808 0,-0.24088 -0.130208,-0.38737 -0.126953,-0.14973 -0.361328,-0.1888 -0.117188,-0.0163 -0.703126,-0.0163 h -0.751953 z"
         id="path3673"
         style="fill:#ede7dc;fill-opacity:1" />
      <path
         d="m 21.225585,153.49069 v -4.77214 h 0.963542 v 4.77214 z"
         id="path3675"
         style="fill:#ede7dc;fill-opacity:1" />
      <path
         d="m 25.32715,151.73613 v -0.80403 h 2.076824 v 1.90104 q -0.302734,0.29297 -0.878907,0.51758 -0.572917,0.22135 -1.16211,0.22135 -0.748698,0 -1.305339,-0.3125 -0.556641,-0.31575 -0.836589,-0.89844 -0.279948,-0.58593 -0.279948,-1.27278 0,-0.74545 0.3125,-1.32487 0.312501,-0.57943 0.914714,-0.88868 0.458985,-0.23763 1.142579,-0.23763 0.888672,0 1.386719,0.37435 0.501303,0.3711 0.644532,1.02865 l -0.957032,0.17904 q -0.100911,-0.35157 -0.380859,-0.55339 -0.276693,-0.20508 -0.69336,-0.20508 -0.631511,0 -1.00586,0.40039 -0.371094,0.40039 -0.371094,1.18815 0,0.84961 0.377605,1.27605 0.377604,0.42317 0.989583,0.42317 0.302735,0 0.605469,-0.11718 0.30599,-0.12045 0.524089,-0.28972 v -0.60547 z"
         id="path3677"
         style="fill:#ede7dc;fill-opacity:1" />
      <path
         d="m 28.26335,153.49069 v -4.77214 h 0.963542 v 4.77214 z"
         id="path3679"
         style="fill:#ede7dc;fill-opacity:1" />
      <path
         d="m 30.154625,153.49069 v -4.77214 h 0.937501 l 1.953126,3.18685 v -3.18685 h 0.895182 v 4.77214 h -0.966797 l -1.923829,-3.11198 v 3.11198 z"
         id="path3681"
         style="fill:#ede7dc;fill-opacity:1" />
    </g>
    <g
       aria-label="ABSOLUTE"
       id="text138130-1-4-1"
       style="font-weight:bold;font-size:6.66667px;line-height:1.25;font-family:Arial;-inkscape-font-specification:'Arial, Bold';font-variant-ligatures:none;text-align:center;text-anchor:middle;display:inline;fill:#ede7dc;fill-opacity:1">
      <path
         d="M 9.1210873,182.84131 H 8.0729097 l -0.4166669,-1.08399 h -1.907553 l -0.3938803,1.08399 h -1.022136 l 1.8587249,-4.77214 h 1.0188807 z m -1.7740894,-1.88802 -0.6575524,-1.77084 -0.6445316,1.77084 z"
         id="path3654"
         style="fill:#ede7dc;fill-opacity:1" />
      <path
         d="m 9.6354105,178.06917 h 1.9075535 q 0.566406,0 0.843099,0.0488 0.279948,0.0456 0.498047,0.19531 0.221354,0.14974 0.367839,0.40039 0.146484,0.2474 0.146484,0.55664 0,0.33529 -0.182292,0.61524 -0.179036,0.27995 -0.488281,0.41992 0.436198,0.12695 0.670573,0.43294 0.234375,0.30599 0.234375,0.7194 0,0.32553 -0.152995,0.63477 -0.149739,0.30599 -0.413411,0.49154 -0.260417,0.18229 -0.644532,0.22461 -0.240885,0.026 -1.16211,0.0325 H 9.6354105 Z m 0.9635425,0.79427 v 1.10352 h 0.63151 q 0.563152,0 0.699871,-0.0163 0.247395,-0.0293 0.387369,-0.16927 0.14323,-0.14323 0.14323,-0.37435 0,-0.22135 -0.123698,-0.35807 -0.120443,-0.13997 -0.361329,-0.16927 -0.143229,-0.0163 -0.823568,-0.0163 z m 0,1.89779 v 1.27604 h 0.891927 q 0.520834,0 0.660808,-0.0293 0.214844,-0.0391 0.348307,-0.1888 0.136719,-0.15299 0.136719,-0.4069 0,-0.21484 -0.104167,-0.36458 -0.104166,-0.14974 -0.302734,-0.2181 -0.195313,-0.0684 -0.852865,-0.0684 z"
         id="path3656"
         style="fill:#ede7dc;fill-opacity:1" />
      <path
         d="m 14.20247,181.28857 0.937501,-0.0911 q 0.08464,0.472 0.341797,0.69336 0.260416,0.22135 0.69987,0.22135 0.465495,0 0.69987,-0.19531 0.23763,-0.19857 0.23763,-0.46224 0,-0.16927 -0.100911,-0.28646 -0.09766,-0.12044 -0.345053,-0.20833 -0.169271,-0.0586 -0.771484,-0.20834 -0.77474,-0.19205 -1.08724,-0.472 -0.439454,-0.39388 -0.439454,-0.96029 0,-0.36458 0.205078,-0.68034 0.208334,-0.31901 0.595704,-0.48502 0.390625,-0.16602 0.940756,-0.16602 0.898437,0 1.350912,0.39388 0.455729,0.39388 0.478515,1.05143 l -0.963542,0.0423 q -0.06185,-0.36784 -0.266927,-0.52734 -0.201823,-0.16276 -0.608724,-0.16276 -0.419922,0 -0.657553,0.17252 -0.152994,0.11068 -0.152994,0.29623 0,0.16927 0.143229,0.28971 0.182292,0.153 0.885417,0.31901 0.703125,0.16602 1.038412,0.34505 0.338542,0.17579 0.527344,0.48503 0.192057,0.30599 0.192057,0.75846 0,0.41016 -0.227864,0.76823 -0.227865,0.35808 -0.644532,0.53386 -0.416667,0.17252 -1.038412,0.17252 -0.904948,0 -1.389975,-0.41666 -0.485026,-0.41992 -0.579427,-1.22071 z"
         id="path3658"
         style="fill:#ede7dc;fill-opacity:1" />
      <path
         d="m 18.697914,180.48454 q 0,-0.72917 0.218099,-1.22396 0.162761,-0.36459 0.442709,-0.6543 0.283203,-0.28971 0.61849,-0.42969 0.445964,-0.1888 1.028646,-0.1888 1.054688,0 1.686199,0.6543 0.634766,0.6543 0.634766,1.81966 0,1.1556 -0.628256,1.8099 -0.628255,0.65104 -1.679688,0.65104 -1.064454,0 -1.692709,-0.64779 -0.628256,-0.65104 -0.628256,-1.79036 z m 0.992839,-0.0326 q 0,0.81055 0.37435,1.23047 0.374349,0.41667 0.950521,0.41667 0.576172,0 0.944011,-0.41341 0.371094,-0.41667 0.371094,-1.24675 0,-0.82031 -0.361329,-1.22396 -0.358073,-0.40364 -0.953776,-0.40364 -0.595704,0 -0.960287,0.41016 -0.364584,0.4069 -0.364584,1.23046 z"
         id="path3660"
         style="fill:#ede7dc;fill-opacity:1" />
      <path
         d="m 24.104819,182.84131 v -4.73308 h 0.963543 v 3.92904 h 2.395834 v 0.80404 z"
         id="path3662"
         style="fill:#ede7dc;fill-opacity:1" />
      <path
         d="m 28.144533,178.06917 h 0.963542 v 2.58464 q 0,0.61523 0.03581,0.79752 0.06185,0.29297 0.292969,0.47201 0.234375,0.17578 0.638021,0.17578 0.410157,0 0.61849,-0.16601 0.208334,-0.16928 0.250651,-0.41342 0.04232,-0.24414 0.04232,-0.81054 v -2.63998 h 0.963542 v 2.50651 q 0,0.85938 -0.07813,1.2142 -0.07813,0.35481 -0.289713,0.59895 -0.208334,0.24415 -0.559897,0.39063 -0.351562,0.14323 -0.917969,0.14323 -0.683594,0 -1.038412,-0.15625 -0.351562,-0.15951 -0.556641,-0.41016 -0.205078,-0.2539 -0.270182,-0.5306 -0.0944,-0.41015 -0.0944,-1.21093 z"
         id="path3664"
         style="fill:#ede7dc;fill-opacity:1" />
      <path
         d="m 34.03972,182.84131 v -3.96485 h -1.416017 v -0.80729 h 3.79232 v 0.80729 h -1.412761 v 3.96485 z"
         id="path3666"
         style="fill:#ede7dc;fill-opacity:1" />
      <path
         d="m 37.037766,182.84131 v -4.77214 h 3.538413 v 0.80729 h -2.574871 v 1.05795 h 2.395834 v 0.80403 h -2.395834 v 1.29883 h 2.666017 v 0.80404 z"
         id="path3668"
         style="fill:#ede7dc;fill-opacity:1" />
    </g>
    <g
       aria-label="TOG"
       id="text138130-0"
       style="font-weight:bold;font-size:6.66667px;line-height:1.25;font-family:Arial;-inkscape-font-specification:'Arial, Bold';font-variant-ligatures:none;text-align:center;text-anchor:middle;display:inline;fill:#ede7dc;fill-opacity:1">
      <path
         d="m 27.527991,47.953346 v -3.964845 h -1.416016 v -0.807292 h 3.792319 v 0.807292 h -1.412761 v 3.964845 z"
         id="path3647"
         style="fill:#ede7dc;fill-opacity:1" />
      <path
         d="m 30.210284,45.596574 q 0,-0.729167 0.218099,-1.223959 0.16276,-0.364583 0.442709,-0.654297 0.283203,-0.289713 0.618489,-0.429688 0.445964,-0.188802 1.028647,-0.188802 1.054688,0 1.686198,0.654298 0.634766,0.654297 0.634766,1.819662 0,1.155599 -0.628255,1.809897 -0.628256,0.651041 -1.679688,0.651041 -1.064454,0 -1.69271,-0.647786 -0.628255,-0.651042 -0.628255,-1.790366 z m 0.992839,-0.03255 q 0,0.810547 0.374349,1.23047 0.374349,0.416666 0.950521,0.416666 0.576172,0 0.944011,-0.413411 0.371094,-0.416667 0.371094,-1.246746 0,-0.820313 -0.361328,-1.223959 -0.358073,-0.403646 -0.953777,-0.403646 -0.595703,0 -0.960287,0.410157 -0.364583,0.406901 -0.364583,1.230469 z"
         id="path3649"
         style="fill:#ede7dc;fill-opacity:1" />
      <path
         d="m 37.811199,46.198788 v -0.804037 h 2.076824 v 1.901043 q -0.302735,0.292969 -0.878907,0.517578 -0.572917,0.221354 -1.16211,0.221354 -0.748698,0 -1.305339,-0.3125 -0.556641,-0.315755 -0.836589,-0.898438 -0.279948,-0.585937 -0.279948,-1.272787 0,-0.745443 0.3125,-1.32487 0.3125,-0.579427 0.914714,-0.888672 0.458985,-0.237631 1.142579,-0.237631 0.888672,0 1.386719,0.374349 0.501302,0.371094 0.644532,1.028647 l -0.957032,0.179036 q -0.100912,-0.351562 -0.38086,-0.553385 -0.276693,-0.205079 -0.693359,-0.205079 -0.631511,0 -1.00586,0.400391 -0.371094,0.400391 -0.371094,1.188152 0,0.84961 0.377604,1.276042 0.377605,0.423177 0.989584,0.423177 0.302734,0 0.605469,-0.117187 0.30599,-0.120443 0.524089,-0.289714 v -0.605469 z"
         id="path3651"
         style="fill:#ede7dc;fill-opacity:1" />
    </g>
    <g
       aria-label="ALT"
       id="text138130-4"
       style="font-weight:bold;font-size:6.66667px;line-height:1.25;font-family:Arial;-inkscape-font-specification:'Arial, Bold';font-variant-ligatures:none;text-align:center;text-anchor:middle;display:inline;fill:#ede7dc;fill-opacity:1">
      <path
         d="m 31.624674,77.938881 h -1.048178 l -0.416667,-1.083985 h -1.907553 l -0.39388,1.083985 H 26.83626 l 1.858725,-4.772138 h 1.018881 z m -1.77409,-1.888022 -0.657552,-1.770834 -0.644532,1.770834 z"
         id="path3640"
         style="fill:#ede7dc;fill-opacity:1" />
      <path
         d="m 32.161784,77.938881 v -4.733075 h 0.963542 v 3.929038 h 2.395834 v 0.804037 z"
         id="path3642"
         style="fill:#ede7dc;fill-opacity:1" />
      <path
         d="m 36.787437,77.938881 v -3.964846 h -1.416016 v -0.807292 h 3.792319 v 0.807292 h -1.412761 v 3.964846 z"
         id="path3644"
         style="fill:#ede7dc;fill-opacity:1" />
    </g>
    <g
       aria-label="RETURN"
       id="text138130-1-4-7"
       style="font-weight:bold;font-size:6.66667px;line-height:1.25;font-family:Arial;-inkscape-font-specification:'Arial, Bold';font-variant-ligatures:none;text-align:center;text-anchor:middle;display:inline;fill:#ede7dc;fill-opacity:1">
      <path
         d="m 9.1227156,212.93936 v -4.77214 h 2.0279954 q 0.764975,0 1.110027,0.13021 0.348307,0.12696 0.556641,0.45573 0.208333,0.32878 0.208333,0.75196 0,0.5371 -0.315755,0.88867 -0.315755,0.3483 -0.944011,0.43945 0.3125,0.18229 0.514323,0.40039 0.205078,0.2181 0.550131,0.77474 l 0.582682,0.93099 h -1.152344 l -0.696615,-1.03841 q -0.371094,-0.55664 -0.507813,-0.69987 -0.136719,-0.14648 -0.289713,-0.19857 -0.152995,-0.0553 -0.485027,-0.0553 h -0.195312 v 1.99219 z m 0.9635424,-2.75391 h 0.712891 q 0.693359,0 0.865886,-0.0586 0.172526,-0.0586 0.270182,-0.20182 0.09766,-0.14323 0.09766,-0.35808 0,-0.24088 -0.130208,-0.38737 -0.126953,-0.14974 -0.361328,-0.1888 -0.117188,-0.0163 -0.703126,-0.0163 h -0.751953 z"
         id="path3627"
         style="fill:#ede7dc;fill-opacity:1" />
      <path
         d="m 13.933916,212.93936 v -4.77214 h 3.538413 v 0.8073 h -2.574871 v 1.05794 h 2.395835 v 0.80404 h -2.395835 v 1.29882 h 2.666017 v 0.80404 z"
         id="path3629"
         style="fill:#ede7dc;fill-opacity:1" />
      <path
         d="m 19.454752,212.93936 v -3.96484 h -1.416016 v -0.8073 h 3.792319 v 0.8073 h -1.412761 v 3.96484 z"
         id="path3631"
         style="fill:#ede7dc;fill-opacity:1" />
      <path
         d="m 22.44629,208.16722 h 0.963542 v 2.58464 q 0,0.61524 0.03581,0.79753 0.06185,0.29297 0.292969,0.472 0.234375,0.17578 0.638021,0.17578 0.410157,0 0.61849,-0.16601 0.208333,-0.16927 0.250651,-0.41341 0.04232,-0.24414 0.04232,-0.81055 v -2.63998 h 0.963542 v 2.50652 q 0,0.85937 -0.07813,1.21419 -0.07813,0.35482 -0.289714,0.59896 -0.208333,0.24414 -0.559896,0.39062 -0.351562,0.14323 -0.917969,0.14323 -0.683594,0 -1.038412,-0.15625 -0.351563,-0.1595 -0.556641,-0.41015 -0.205078,-0.25391 -0.270182,-0.5306 -0.0944,-0.41016 -0.0944,-1.21094 z"
         id="path3633"
         style="fill:#ede7dc;fill-opacity:1" />
      <path
         d="m 27.27051,212.93936 v -4.77214 h 2.027996 q 0.764974,0 1.110027,0.13021 0.348307,0.12696 0.556641,0.45573 0.208333,0.32878 0.208333,0.75196 0,0.5371 -0.315755,0.88867 -0.315756,0.3483 -0.944011,0.43945 0.3125,0.18229 0.514323,0.40039 0.205078,0.2181 0.55013,0.77474 l 0.582683,0.93099 h -1.152344 l -0.696615,-1.03841 q -0.371094,-0.55664 -0.507813,-0.69987 -0.136719,-0.14648 -0.289714,-0.19857 -0.152995,-0.0553 -0.485026,-0.0553 h -0.195313 v 1.99219 z m 0.963542,-2.75391 h 0.712891 q 0.69336,0 0.865886,-0.0586 0.172526,-0.0586 0.270183,-0.20182 0.09766,-0.14323 0.09766,-0.35808 0,-0.24088 -0.130208,-0.38737 -0.126954,-0.14974 -0.361329,-0.1888 -0.117187,-0.0163 -0.703125,-0.0163 h -0.751954 z"
         id="path3635"
         style="fill:#ede7dc;fill-opacity:1" />
      <path
         d="m 32.091476,212.93936 v -4.77214 h 0.9375 l 1.953126,3.18685 v -3.18685 h 0.895183 v 4.77214 h -0.966797 l -1.92383,-3.11198 v 3.11198 z"
         id="path3637"
         style="fill:#ede7dc;fill-opacity:1" />
    </g>
  </g>
  <g
     inkscape:groupmode="layer"
     id="layer5"
     inkscape:label="Lines"
     style="display:inline">
    <g
       id="g3404"
       style="stroke:#ff0000;stroke-opacity:1">
      <path
         style="display:inline;fill:none;stroke:#ff0000;stroke-width:1px;stroke-linecap:butt;stroke-linejoin:miter;stroke-opacity:1"
         d="M 1.6907385,105 H 43.309262"
         id="path2510"
         sodipodi:nodetypes="cc" />
      <path
         style="display:inline;fill:none;stroke:#ff0000;stroke-width:1px;stroke-linecap:butt;stroke-linejoin:miter;stroke-opacity:1"
         d="M 1.6907383,239 H 43.309262"
         id="path2510-1"
         sodipodi:nodetypes="cc" />
      <path
         style="fill:none;stroke:#ff0000;stroke-width:0.999999px;stroke-linecap:butt;stroke-linejoin:miter;stroke-opacity:1"
         d="M 22.502,117.00155 22.498,104.50187"
         id="path2706"
         sodipodi:nodetypes="cc" />
      <path
         style="display:inline;fill:none;stroke:#ff0000;stroke-width:0.999999px;stroke-linecap:butt;stroke-linejoin:miter;stroke-opacity:1"
         d="M 22.502,146.99998 22.498,125.00017"
         id="path2706-7"
         sodipodi:nodetypes="cc" />
      <path
         style="display:inline;fill:none;stroke:#ff0000;stroke-width:0.999999px;stroke-linecap:butt;stroke-linejoin:miter;stroke-opacity:1"
         d="M 22.502,176.9999 22.498,155.00009"
         id="path2706-7-6"
         sodipodi:nodetypes="cc" />
      <path
         style="display:inline;fill:none;stroke:#ff0000;stroke-width:0.999999px;stroke-linecap:butt;stroke-linejoin:miter;stroke-opacity:1"
         d="M 22.502,206.4999 22.498,184.50009"
         id="path2706-7-6-4"
         sodipodi:nodetypes="cc" />
      <path
         style="display:inline;fill:none;stroke:#ff0000;stroke-width:0.999999px;stroke-linecap:butt;stroke-linejoin:miter;stroke-opacity:1"
         d="M 22.502,239.49991 22.498,214.50007"
         id="path2706-7-6-4-6"
         sodipodi:nodetypes="cc" />
    </g>
  </g>
  <g
     inkscape:groupmode="layer"
     id="layer6"
     inkscape:label="Invert Solid"
     style="display:inline">
    <g
       aria-label="GATE"
       id="text138130-1-1"
       style="font-weight:bold;font-size:6.66667px;line-height:1.25;font-family:Arial;-inkscape-font-specification:'Arial, Bold';font-variant-ligatures:none;text-align:center;text-anchor:middle;display:inline;fill:#252525;fill-opacity:1">
      <path
         d="m 16.199541,256.18496 v -0.80404 h 2.076824 v 1.90104 q -0.302735,0.29297 -0.878907,0.51758 -0.572917,0.22135 -1.16211,0.22135 -0.748698,0 -1.305339,-0.3125 -0.556641,-0.31575 -0.836589,-0.89843 -0.279948,-0.58594 -0.279948,-1.27279 0,-0.74544 0.3125,-1.32487 0.3125,-0.57943 0.914714,-0.88867 0.458985,-0.23763 1.142579,-0.23763 0.888672,0 1.386719,0.37435 0.501302,0.37109 0.644532,1.02864 l -0.957032,0.17904 q -0.100912,-0.35156 -0.38086,-0.55339 -0.276693,-0.20508 -0.693359,-0.20508 -0.631511,0 -1.00586,0.4004 -0.371094,0.40039 -0.371094,1.18815 0,0.84961 0.377604,1.27604 0.377604,0.42318 0.989584,0.42318 0.302734,0 0.605469,-0.11719 0.30599,-0.12044 0.524089,-0.28971 v -0.60547 z"
         id="path3739"
         style="fill:#252525;fill-opacity:1" />
      <path
         d="m 23.468424,257.93951 h -1.048177 l -0.416667,-1.08398 h -1.907553 l -0.393881,1.08398 H 18.68001 l 1.858725,-4.77213 h 1.018881 z m -1.774089,-1.88802 -0.657553,-1.77083 -0.644531,1.77083 z"
         id="path3741"
         style="fill:#252525;fill-opacity:1" />
      <path
         d="m 24.55892,257.93951 v -3.96484 h -1.416017 v -0.80729 h 3.79232 v 0.80729 h -1.412761 v 3.96484 z"
         id="path3743"
         style="fill:#252525;fill-opacity:1" />
      <path
         d="m 27.556968,257.93951 v -4.77213 h 3.538413 v 0.80729 H 28.52051 v 1.05794 h 2.395834 v 0.80404 H 28.52051 v 1.29883 h 2.666017 v 0.80403 z"
         id="path3745"
         style="fill:#252525;fill-opacity:1" />
    </g>
    <g
       aria-label="X"
       id="text138130-1-1-7"
       style="font-weight:bold;font-size:6.66667px;line-height:1.25;font-family:Arial;-inkscape-font-specification:'Arial, Bold';font-variant-ligatures:none;text-align:center;text-anchor:middle;display:inline;fill:#252525;fill-opacity:1">
      <path
         d="m 20.281574,292.01215 1.630861,-2.49024 -1.477866,-2.2819 h 1.126303 l 0.957032,1.5332 0.9375,-1.5332 h 1.116537 l -1.484376,2.31771 1.630861,2.45443 h -1.16211 l -1.057944,-1.6504 -1.061198,1.6504 z"
         id="path3736"
         style="fill:#252525;fill-opacity:1" />
    </g>
    <g
       aria-label="Y"
       id="text138130-1-1-6"
       style="font-weight:bold;font-size:6.66667px;line-height:1.25;font-family:Arial;-inkscape-font-specification:'Arial, Bold';font-variant-ligatures:none;text-align:center;text-anchor:middle;display:inline;fill:#252525;fill-opacity:1">
      <path
         d="m 22.016601,325.98914 v -2.00847 L 20.268553,321.217 h 1.129558 l 1.123047,1.88802 1.100261,-1.88802 h 1.110027 l -1.754558,2.77018 v 2.00196 z"
         id="path3733"
         style="fill:#252525;fill-opacity:1" />
    </g>
  </g>
  <g
     inkscape:groupmode="layer"
     id="layer7"
     inkscape:label="Alternate Solid"
     style="display:inline">
    <g
       aria-label="ACTIVATE"
       id="text138130-4-1"
       style="font-weight:bold;font-size:7.33333px;line-height:1.25;font-family:Arial;-inkscape-font-specification:'Arial, Bold';font-variant-ligatures:none;text-align:center;text-anchor:middle;display:inline;fill:#ff0000">
      <path
         d="M 10.160813,38.770462 H 9.0078184 L 8.5494853,37.57808 H 6.4511789 l -0.433268,1.192382 H 4.8935624 L 6.9381579,33.521115 H 8.0589256 Z M 8.2093162,36.69364 7.4860092,34.745724 6.7770251,36.69364 Z"
         id="path3592" />
      <path
         d="m 14.081709,36.84045 1.027669,0.325846 q -0.236328,0.859375 -0.78776,1.27832 -0.547851,0.415364 -1.392903,0.415364 -1.045572,0 -1.718749,-0.712565 -0.673177,-0.716145 -0.673177,-1.955077 0,-1.310546 0.676758,-2.033853 0.676757,-0.726888 1.779621,-0.726888 0.963216,0 1.564778,0.569336 0.358073,0.336588 0.537109,0.966796 l -1.049153,0.250651 q -0.0931,-0.408203 -0.390299,-0.644531 -0.29362,-0.236328 -0.716146,-0.236328 -0.583658,0 -0.948893,0.418945 -0.361653,0.418946 -0.361653,1.357096 0,0.995442 0.358073,1.417968 0.358072,0.422526 0.930989,0.422526 0.422526,0 0.726888,-0.268554 0.304361,-0.268555 0.436848,-0.845052 z"
         id="path3594" />
      <path
         d="m 17.200523,38.770462 v -4.361326 h -1.557616 v -0.888021 h 4.171547 v 0.888021 h -1.554036 v 4.361326 z"
         id="path3596" />
      <path
         d="m 20.466147,38.770462 v -5.249347 h 1.059895 v 5.249347 z"
         id="path3598" />
      <path
         d="m 23.875,38.770462 -1.876301,-5.249347 h 1.149413 l 1.32845,3.88509 1.285481,-3.88509 h 1.124349 l -1.879882,5.249347 z"
         id="path3600" />
      <path
         d="M 31.616532,38.770462 H 30.463537 L 30.005204,37.57808 h -2.098306 l -0.433268,1.192382 h -1.124349 l 2.044596,-5.249347 h 1.120768 z M 29.665035,36.69364 28.941728,34.745724 28.232744,36.69364 Z"
         id="path3602" />
      <path
         d="M 32.816077,38.770462 V 34.409136 H 31.25846 v -0.888021 h 4.171548 v 0.888021 h -1.554036 v 4.361326 z"
         id="path3604" />
      <path
         d="m 36.113927,38.770462 v -5.249347 h 3.892251 v 0.888021 h -2.832356 v 1.163736 h 2.635416 v 0.88444 h -2.635416 v 1.42871 h 2.932616 v 0.88444 z"
         id="path3606" />
    </g>
    <g
       aria-label="X"
       id="text138130-4-1-5"
       style="font-weight:bold;font-size:7.33333px;line-height:1.25;font-family:Arial;-inkscape-font-specification:'Arial, Bold';font-variant-ligatures:none;text-align:center;text-anchor:middle;display:inline;fill:#ff0000">
      <path
         d="m 5.5597341,114.70242 1.7939446,-2.73925 -1.6256504,-2.51009 h 1.2389318 l 1.0527339,1.68652 1.0312496,-1.68652 h 1.2281894 l -1.6328117,2.54947 1.7939447,2.69987 H 9.1619461 l -1.1637365,-1.81543 -1.1673172,1.81543 z"
         id="path3589" />
    </g>
    <g
       aria-label="Y"
       id="text138130-4-1-5-5"
       style="font-weight:bold;font-size:7.33333px;line-height:1.25;font-family:Arial;-inkscape-font-specification:'Arial, Bold';font-variant-ligatures:none;text-align:center;text-anchor:middle;display:inline;fill:#ff0000">
      <path
         d="m 36.468261,114.70242 v -2.20931 l -1.922851,-3.04003 h 1.242512 l 1.235351,2.07682 1.210286,-2.07682 h 1.221029 l -1.930013,3.0472 v 2.20214 z"
         id="path3586" />
    </g>
  </g>
  <text
     xml:space="preserve"
     id="text29904"
     style="font-weight:bold;font-size:8px;line-height:1.25;font-family:Arial;-inkscape-font-specification:'Arial, Bold';font-variant-ligatures:none;text-align:center;white-space:pre;shape-inside:url(#rect29906)"
     transform="translate(-2.6024628e-4)" />
  <g
     inkscape:groupmode="layer"
     id="layer1"
     inkscape:label="Widgets"
     style="display:none">
    <circle
       style="display:inline;fill:#ff0000;stroke:#ff0000;stroke-width:1.94925;stroke-opacity:1"
       id="path1065-7-2-3-2-2-6-0-6"
       cx="22.5"
       cy="305.49988"
       r="10.525375" />
    <circle
       style="display:inline;fill:#ff0000;stroke:#ff0000;stroke-width:1.94925;stroke-opacity:1"
       id="path1065-7-2-3-2-2-6-0-6-1"
       cx="22.5"
       cy="271.49969"
       r="10.525375" />
    <circle
       style="display:inline;fill:#ff0000;stroke:#ff0000;stroke-width:1.94925;stroke-opacity:1"
       id="path1065-7-2-3-2-2-3-2-0"
       cx="22.5"
       cy="339.50003"
       r="10.525375" />
    <ellipse
       style="display:inline;fill:#ff0000;stroke:#ff0000;stroke-width:1.44076;stroke-opacity:1"
       id="path1065-7-2-8-1-1-3-1-5-44"
       cx="12"
       cy="59"
       rx="8.2796202"
       ry="8.2796192" />
    <ellipse
       style="display:inline;fill:#ff0000;stroke:#ff0000;stroke-width:1.44076;stroke-opacity:1"
       id="path1065-7-2-8-1-1-3-1-5-44-1"
       cx="12"
       cy="89"
       rx="8.2796202"
       ry="8.2796192" />
    <ellipse
       style="display:inline;fill:#ff0000;stroke:#ff0000;stroke-width:1.44076;stroke-opacity:1"
       id="path1065-7-2-8-1-1-3-1-5-44-1-7"
       cx="12"
       cy="194"
       rx="8.2796202"
       ry="8.2796192" />
    <ellipse
       style="display:inline;fill:#ff0000;stroke:#ff0000;stroke-width:1.44076;stroke-opacity:1"
       id="path1065-7-2-8-1-1-3-1-5-44-1-8"
       cx="33"
       cy="194"
       rx="8.2796202"
       ry="8.2796192" />
    <ellipse
       style="display:inline;fill:#ff0000;stroke:#ff0000;stroke-width:1.44076;stroke-opacity:1"
       id="path1065-7-2-8-1-1-3-1-5-44-1-5"
       cx="12"
       cy="224.00002"
       rx="8.2796202"
       ry="8.2796192" />
    <ellipse
       style="display:inline;fill:#ff0000;stroke:#ff0000;stroke-width:1.44076;stroke-opacity:1"
       id="path1065-7-2-8-1-1-3-1-5-44-1-9"
       cx="33"
       cy="224"
       rx="8.2796202"
       ry="8.2796192" />
    <ellipse
       style="display:inline;fill:#ff0000;stroke:#ff0000;stroke-width:1.44076;stroke-opacity:1"
       id="path1065-7-2-8-1-1-3-1-5-44-39"
       cx="33"
       cy="89"
       rx="8.2796202"
       ry="8.2796192" />
    <ellipse
       style="display:inline;fill:#ff0000;stroke:#ff0000;stroke-width:1.44076;stroke-opacity:1"
       id="path1065-7-2-8-1-1-3-1-5-44-3"
       cx="33"
       cy="59"
       rx="8.2796202"
       ry="8.2796192" />
    <circle
       style="display:inline;fill:#ff0000;stroke:#ff0000;stroke-width:1.44076;stroke-opacity:1"
       id="path1065-7-2-8-1-1-3-1-5-44-2"
       cx="12"
       cy="134"
       r="7.7796202" />
    <circle
       style="display:inline;fill:#ff0000;stroke:#ff0000;stroke-width:1.44076;stroke-opacity:1"
       id="path1065-7-2-8-1-1-3-1-5-44-2-9"
       cx="33"
       cy="134"
       r="7.7796202" />
    <circle
       style="display:inline;fill:#ff0000;stroke:#ff0000;stroke-width:1.44076;stroke-opacity:1"
       id="path1065-7-2-8-1-1-3-1-5-44-2-7"
       cx="12"
       cy="164"
       r="7.7796202" />
    <circle
       style="display:inline;fill:#ff0000;stroke:#ff0000;stroke-width:1.44076;stroke-opacity:1"
       id="path1065-7-2-8-1-1-3-1-5-44-2-8"
       cx="33"
       cy="164"
       r="7.7796202" />
  </g>
</svg>
