<?xml version="1.0" encoding="UTF-8" standalone="no"?>
<svg
   width="90"
   height="380"
   viewBox="0 0 90 380"
   version="1.1"
   id="svg100"
   sodipodi:docname="MultiMerge_Coal.svg"
   inkscape:version="1.1.1 (3bf5ae0d25, 2021-09-20)"
   xmlns:inkscape="http://www.inkscape.org/namespaces/inkscape"
   xmlns:sodipodi="http://sodipodi.sourceforge.net/DTD/sodipodi-0.dtd"
   xmlns="http://www.w3.org/2000/svg"
   xmlns:svg="http://www.w3.org/2000/svg"
   xmlns:rdf="http://www.w3.org/1999/02/22-rdf-syntax-ns#"
   xmlns:cc="http://creativecommons.org/ns#"
   xmlns:dc="http://purl.org/dc/elements/1.1/">
  <metadata
     id="metadata104">
    <rdf:RDF>
      <cc:Work
         rdf:about="">
        <dc:format>image/svg+xml</dc:format>
        <dc:type
           rdf:resource="http://purl.org/dc/dcmitype/StillImage" />
      </cc:Work>
    </rdf:RDF>
  </metadata>
  <sodipodi:namedview
     pagecolor="#ffffff"
     bordercolor="#666666"
     borderopacity="1"
     objecttolerance="1"
     gridtolerance="1"
     guidetolerance="1"
     inkscape:pageopacity="0"
     inkscape:pageshadow="2"
     inkscape:window-width="1920"
     inkscape:window-height="1057"
     id="namedview102"
     showgrid="true"
     inkscape:zoom="2.2342105"
     inkscape:cx="10.74205"
     inkscape:cy="191.79034"
     inkscape:window-x="1592"
     inkscape:window-y="-8"
     inkscape:window-maximized="1"
     inkscape:current-layer="layer5"
     inkscape:pagecheckerboard="0"
     units="px"
     inkscape:showpageshadow="false"
     showborder="true">
    <inkscape:grid
       type="xygrid"
       id="grid1285"
       visible="false" />
  </sodipodi:namedview>
  <defs
     id="defs7">
    <rect
       x="85"
       y="10"
       width="51.058132"
       height="25"
       id="rect29906" />
    <linearGradient
       id="a8e142bb-541b-4903-be63-d5d069028a5d"
       x1="22.5"
       x2="22.5"
       y2="380"
       gradientUnits="userSpaceOnUse">
      <stop
         offset="0"
         stop-color="#ebebeb"
         id="stop2" />
      <stop
         offset="1"
         stop-color="#e1e1e1"
         id="stop4" />
    </linearGradient>
  </defs>
  <g
     inkscape:groupmode="layer"
     id="layer2"
     inkscape:label="Faceplate"
     style="display:inline">
    <g
       id="aea613ef-74be-49bf-be45-c0734aee674b"
       data-name="FND BG"
       style="fill:#252525;fill-opacity:1;stroke-width:0.707107"
       transform="scale(2,1)">
      <rect
         width="45"
         height="380"
         fill="url(#a8e142bb-541b-4903-be63-d5d069028a5d)"
         id="rect9"
         style="fill:#252525;fill-opacity:1;stroke-width:0.707107"
         x="0"
         y="0" />
    </g>
  </g>
  <g
     inkscape:groupmode="layer"
     id="layer3"
     inkscape:label="Brand"
     style="display:inline">
    <g
       id="g42796"
       transform="matrix(0.30458296,0,0,0.30458296,21.93755,-12.68508)"
       style="fill:#ff0000">
      <g
         aria-label="enom"
         id="text4270-27"
         style="font-size:49.3889px;line-height:1.25;font-family:'NECK ROMANCER';-inkscape-font-specification:'NECK ROMANCER, Normal';font-variant-ligatures:none;text-align:center;text-anchor:middle;fill:#ff0000;stroke-width:2.64583">
        <path
           d="m 46.609141,1249.244 q 0,1.1576 0,3.4245 3.183269,0 9.453344,0 -1.639866,0.5787 -2.990343,1.2058 -1.350478,0.627 -2.363337,1.688 -1.350477,0 -4.051433,0 0,1.4952 0.434082,2.5563 0.385851,1.1093 1.832792,1.1093 2.266873,0 6.80062,0 0.482313,-0.1447 0.868164,-0.627 0.337619,-0.5305 0.627007,-1.7363 0,2.0257 0,6.1254 -3.520888,0 -10.562665,0 -1.543403,0 -2.652724,-2.2187 -1.109321,-2.1704 -1.109321,-6.3183 0,-1.9775 0,-5.836 -0.385851,-1.3504 -1.881023,-2.1221 -1.495171,-0.7235 -3.569119,-1.2058 6.607694,0 19.774852,0 0,2.9421 0,8.7781 -1.205783,-2.701 -2.218642,-3.6656 -1.012858,-0.9646 -2.700955,-1.1093 -0.916396,-0.097 -2.170411,-0.097 -1.205783,0.048 -2.845649,0.048 -0.241157,0 -0.675239,0 z"
           id="path42762"
           style="fill:#ff0000" />
        <path
           d="m 81.576869,1245.2891 q 0,5.8842 0,17.7009 0,3.0868 -0.144694,6.0771 -0.09646,3.0386 -0.337619,5.9325 -0.385851,-3.7138 -0.964627,-6.9936 -0.530545,-3.3279 -2.025717,-5.016 0,-2.9904 0,-8.9228 -0.241157,-1.3505 -0.72347,-2.2187 -0.482314,-0.8681 -1.06109,-1.3987 -1.109321,-1.0128 -2.411567,-1.1093 -1.350478,-0.097 -2.266874,-0.097 -0.482313,0 -1.44694,0 0,4.582 0,13.746 0,3.0868 -0.09646,6.0771 -0.144694,3.0386 -0.385851,5.9325 -0.38585,-3.7138 -0.916395,-6.9936 -0.578776,-3.3279 -2.025717,-5.016 0,-4.8232 0,-14.373 -0.385851,-1.3504 -1.881022,-2.1221 -1.495172,-0.7235 -3.56912,-1.2058 6.752389,0 20.257166,0 z"
           id="path42764"
           style="fill:#ff0000" />
        <path
           d="m 104.19737,1249.0511 q 0,3.3762 0,10.1768 0,1.5434 -1.92925,2.6528 -1.92926,1.1093 -6.077152,1.1093 -4.196128,0 -6.125382,-1.1093 -1.929254,-1.1094 -1.929254,-2.6528 0,-3.3762 0,-10.1768 0,-1.5434 1.929254,-2.6527 1.929254,-1.1093 6.125382,-1.1093 4.147892,0 6.077152,1.1093 1.92925,1.1093 1.92925,2.6527 z m -3.76204,7.91 q 0,-1.8811 0,-5.6431 0,-1.6881 -1.254019,-1.9775 -1.205783,-0.2894 -2.990343,-0.2894 -1.832792,0 -3.038575,0.2894 -1.254015,0.2894 -1.254015,1.9775 0,1.881 0,5.6431 0,1.6881 1.254015,1.9774 1.205783,0.2894 3.038575,0.2894 1.78456,0 2.990343,-0.2894 1.254019,-0.2893 1.254019,-1.9774 z"
           id="path42766"
           style="fill:#ff0000" />
        <path
           d="m 142.34837,1245.2891 q -2.02572,0.4823 -3.52089,1.2058 -1.5434,0.7717 -1.88102,2.1221 0,4.7749 0,14.373 -1.49517,1.6881 -2.02572,5.016 -0.57878,3.2798 -0.96463,6.9936 -0.24115,-2.8939 -0.33762,-5.9325 -0.14469,-2.9903 -0.14469,-6.0771 0,-4.582 0,-13.746 -0.48231,0 -1.39871,0 -0.53054,0 -1.15755,0 -0.62701,0 -1.30225,0.1447 -1.25401,0.2412 -2.41157,1.2058 -1.15755,0.9646 -1.63986,3.4727 0,2.9903 0,8.9228 -0.1447,0.627 -0.28939,1.1093 -0.0965,0.4823 -0.19292,0.8199 -0.53055,1.9775 -0.38586,1.3505 0.19293,-0.627 -0.28938,1.1576 -0.0965,0.3376 -0.24116,0.8681 -0.14469,0.5306 -0.33762,1.3023 -0.14469,-0.6753 -0.28939,-1.2058 -0.14469,-0.4823 -0.24115,-0.8199 -0.53055,-2.0258 -0.33762,-1.3023 0.19292,0.7717 -0.43409,-1.6881 -0.0482,-0.2894 -0.19292,-0.7235 -0.0965,-0.3858 -0.19293,-0.8681 0,-2.9904 0,-8.9228 -0.28939,-1.3505 -0.7717,-2.2187 -0.48231,-0.8681 -1.06109,-1.3987 -1.10932,-1.0128 -2.41157,-1.1093 -1.30224,-0.097 -2.26687,-0.097 -0.48231,0 -1.39871,0 0,4.582 0,13.746 0,3.0868 -0.14469,6.0771 -0.0965,3.0386 -0.33762,5.9325 -0.38585,-3.7138 -0.96463,-6.9936 -0.53054,-3.3279 -2.02572,-5.016 0,-4.8232 0,-14.373 -0.38585,-1.3504 -1.88102,-2.1221 -1.49517,-0.7235 -3.56912,-1.2058 3.95497,0 11.76845,0 1.15755,0.3858 3.47266,1.1575 0.7717,0.2894 1.59163,0.4341 0.81994,0.1447 1.6881,0.1447 0.86816,0 1.73633,-0.1447 0.81993,-0.1447 1.59163,-0.4341 1.15756,-0.3858 3.42443,-1.1575 3.95497,0 11.76845,0 z"
           id="path42768"
           style="fill:#ff0000" />
      </g>
      <g
         aria-label="V"
         transform="matrix(1.2363173,0,0,0.80885384,-497.88086,123.48586)"
         id="text4270-3-5-2"
         style="font-size:78.5061px;line-height:1.25;font-family:Nosferotica;-inkscape-font-specification:'Nosferotica, Normal';font-variant-ligatures:none;text-align:center;text-anchor:middle;fill:#ff0000;stroke-width:3.27108">
        <path
           d="m 431.64994,1360.6864 8.57428,-0.1022 c 0,0 -4.4079,1.0878 -5.59925,3.7285 -1.88083,4.1689 -3.64217,14.6628 -3.64217,14.6628 l -2.23339,11.5191 -1.83311,11.8311 -1.71824,21.3112 -1.69514,-21.3112 -1.92196,-11.5208 -2.5009,-11.8294 c 0,0 -1.52027,-10.287 -3.38278,-14.4832 -1.14458,-2.5787 -5.63367,-3.8059 -5.63367,-3.8059 h 8.4657 l 6.66875,29.1569 z"
           id="path30410"
           sodipodi:nodetypes="ccscccccccscccc"
           style="fill:#ff0000" />
      </g>
    </g>
  </g>
  <g
     inkscape:groupmode="layer"
     id="layer4"
     inkscape:label="Solid"
     style="display:inline">
    <rect
       style="opacity:0.995935;fill:#ede7dc;fill-opacity:1;stroke:none;stroke-width:0.623622"
       id="rect1737"
       width="42"
       height="339.63214"
       x="46.5"
       y="19.013329"
       rx="5.0075507"
       ry="5.2661171" />
    <g
       aria-label="MULTI MERGE"
       id="text4033"
       style="font-weight:bold;font-size:10.6667px;line-height:1.25;font-family:Arial;-inkscape-font-specification:'Arial, Bold';font-variant-ligatures:none;text-align:center;text-anchor:middle;fill:#ede7dc;fill-opacity:1">
      <path
         d="M 8.7082216,13.875147 V 6.2397061 h 2.3072994 l 1.385421,5.2083499 1.369796,-5.2083499 h 2.312507 V 13.875147 H 14.650949 V 7.8647112 l -1.51563,6.0104358 h -1.48438 L 10.140518,7.8647112 v 6.0104358 z"
         id="path19497"
         style="fill:#ede7dc;fill-opacity:1" />
      <path
         d="m 17.604083,6.2397061 h 1.541671 v 4.1354299 q 0,0.984378 0.05729,1.276046 0.09896,0.468751 0.468752,0.75521 0.375001,0.281251 1.020836,0.281251 0.656252,0 0.989587,-0.265626 0.333334,-0.270834 0.401043,-0.66146 0.06771,-0.390626 0.06771,-1.296879 V 6.2397061 h 1.541672 v 4.0104289 q 0,1.375005 -0.125001,1.942715 -0.125,0.56771 -0.463543,0.958336 -0.333334,0.390626 -0.895836,0.625002 -0.562502,0.229168 -1.468755,0.229168 -1.093753,0 -1.661463,-0.250001 -0.562502,-0.255209 -0.890628,-0.656252 -0.328126,-0.406252 -0.432293,-0.848961 -0.151042,-0.656252 -0.151042,-1.937506 z"
         id="path19499"
         style="fill:#ede7dc;fill-opacity:1" />
      <path
         d="M 25.359316,13.875147 V 6.3022063 h 1.541672 v 6.2864777 h 3.833345 v 1.286463 z"
         id="path19501"
         style="fill:#ede7dc;fill-opacity:1" />
      <path
         d="M 32.760381,13.875147 V 7.5313768 H 30.494749 V 6.2397061 h 6.067727 v 1.2916707 h -2.260423 v 6.3437702 z"
         id="path19503"
         style="fill:#ede7dc;fill-opacity:1" />
      <path
         d="M 37.510396,13.875147 V 6.2397061 h 1.541672 v 7.6354409 z"
         id="path19505"
         style="fill:#ede7dc;fill-opacity:1" />
      <path
         d="M 43.463539,13.875147 V 6.2397061 h 2.307299 l 1.385421,5.2083499 1.369796,-5.2083499 h 2.312508 V 13.875147 H 49.406266 V 7.8647112 l -1.515629,6.0104358 h -1.48438 L 44.895835,7.8647112 v 6.0104358 z"
         id="path19507"
         style="fill:#ede7dc;fill-opacity:1" />
      <path
         d="M 52.369817,13.875147 V 6.2397061 h 5.661477 v 1.2916707 h -4.119805 v 1.6927137 h 3.833345 v 1.2864625 h -3.833345 v 2.078131 h 4.265638 v 1.286463 z"
         id="path19509"
         style="fill:#ede7dc;fill-opacity:1" />
      <path
         d="M 59.489631,13.875147 V 6.2397061 h 3.244802 q 1.223962,0 1.776047,0.208334 0.557293,0.2031256 0.890628,0.7291689 0.333334,0.5260434 0.333334,1.2031288 0,0.8593778 -0.50521,1.4218795 -0.50521,0.5572937 -1.510421,0.7031277 0.500001,0.291667 0.822919,0.640627 0.328126,0.348959 0.880211,1.239587 l 0.932295,1.489588 H 64.51048 l -1.114587,-1.661464 q -0.593752,-0.890628 -0.812503,-1.119795 -0.21875,-0.234376 -0.463543,-0.317709 -0.244792,-0.08854 -0.776044,-0.08854 h -0.312501 v 3.18751 z m 1.541671,-4.4062641 h 1.140629 q 1.109378,0 1.385421,-0.09375 0.276042,-0.09375 0.432293,-0.3229177 0.15625,-0.2291674 0.15625,-0.5729185 0,-0.3854179 -0.208334,-0.6197936 Q 63.734436,7.619919 63.359435,7.5574188 63.171934,7.5313768 62.234431,7.5313768 h -1.203129 z"
         id="path19511"
         style="fill:#ede7dc;fill-opacity:1" />
      <path
         d="M 70.739669,11.067846 V 9.7813839 h 3.322927 V 12.82306 q -0.484377,0.468752 -1.406255,0.828128 -0.916669,0.354168 -1.859381,0.354168 -1.19792,0 -2.088548,-0.500002 -0.890628,-0.50521 -1.338546,-1.437505 -0.447918,-0.937502 -0.447918,-2.036464 0,-1.1927124 0.500002,-2.1197986 0.500001,-0.9270863 1.463546,-1.4218795 0.734377,-0.3802096 1.828131,-0.3802096 1.421879,0 2.218757,0.5989603 0.802086,0.5937518 1.031253,1.6458385 L 72.432382,8.6407553 Q 72.270923,8.0782536 71.823005,7.7553359 71.380296,7.4272098 70.713627,7.4272098 q -1.01042,0 -1.60938,0.6406271 -0.593752,0.640627 -0.593752,1.9010476 0,1.3593795 0.604168,2.0416735 0.604169,0.677085 1.583339,0.677085 0.484376,0 0.968753,-0.1875 0.489585,-0.192709 0.838544,-0.463544 v -0.968753 z"
         id="path19513"
         style="fill:#ede7dc;fill-opacity:1" />
      <path
         d="M 75.484472,13.875147 V 6.2397061 h 5.661476 v 1.2916707 h -4.119805 v 1.6927137 h 3.833346 v 1.2864625 h -3.833346 v 2.078131 h 4.265639 v 1.286463 z"
         id="path19515"
         style="fill:#ede7dc;fill-opacity:1" />
    </g>
    <g
       aria-label="INPUT"
       id="text12421-5"
       style="font-weight:bold;font-size:8px;line-height:1.25;font-family:Arial;-inkscape-font-specification:'Arial, Bold';font-variant-ligatures:none;text-align:center;text-anchor:middle;display:inline;fill:#ede7dc;fill-opacity:1">
      <path
         d="m 10.855469,28.596638 v -5.726563 h 1.15625 v 5.726563 z"
         id="path19455"
         style="fill:#ede7dc;fill-opacity:1" />
      <path
         d="m 13.125,28.596638 v -5.726563 h 1.125 l 2.34375,3.824219 v -3.824219 h 1.074219 v 5.726563 h -1.160157 l -2.308593,-3.734375 v 3.734375 z"
         id="path19457"
         style="fill:#ede7dc;fill-opacity:1" />
      <path
         d="m 18.890625,28.596638 v -5.726563 h 1.855469 q 1.054687,0 1.375,0.08594 0.492187,0.128906 0.824218,0.5625 0.332032,0.429687 0.332032,1.113281 0,0.527344 -0.191407,0.886719 -0.191406,0.359375 -0.488281,0.566406 Q 22.304687,26.288044 22,26.35445 q -0.414063,0.08203 -1.199219,0.08203 h -0.753906 v 2.160157 z m 1.15625,-4.757813 v 1.625 h 0.632812 q 0.683594,0 0.914063,-0.08984 0.230469,-0.08984 0.359375,-0.28125 0.132812,-0.191406 0.132812,-0.445312 0,-0.3125 -0.183593,-0.515625 -0.183594,-0.203125 -0.464844,-0.253906 -0.207031,-0.03906 -0.832031,-0.03906 z"
         id="path19459"
         style="fill:#ede7dc;fill-opacity:1" />
      <path
         d="M 24.21875,22.870075 H 25.375 v 3.101563 q 0,0.738281 0.04297,0.957031 0.07422,0.351562 0.351562,0.566406 0.28125,0.210938 0.765625,0.210938 0.492188,0 0.742188,-0.199219 0.25,-0.203125 0.300781,-0.496094 0.05078,-0.292969 0.05078,-0.972656 v -3.167969 h 1.15625 v 3.007813 q 0,1.03125 -0.09375,1.457031 -0.09375,0.425781 -0.347656,0.71875 -0.25,0.292969 -0.671875,0.46875 -0.421875,0.171875 -1.101563,0.171875 -0.820312,0 -1.246093,-0.1875 Q 24.902344,28.315388 24.65625,28.014606 24.410156,27.709919 24.332031,27.377888 24.21875,26.8857 24.21875,25.924763 Z"
         id="path19461"
         style="fill:#ede7dc;fill-opacity:1" />
      <path
         d="M 31.292969,28.596638 V 23.838825 H 29.59375 v -0.96875 h 4.550781 v 0.96875 h -1.695312 v 4.757813 z"
         id="path19463"
         style="fill:#ede7dc;fill-opacity:1" />
    </g>
  </g>
  <g
     inkscape:groupmode="layer"
     id="layer5"
     inkscape:label="Reverse"
     style="display:inline">
    <g
       aria-label="OUTPUT"
       id="text12421"
       style="font-weight:bold;font-size:8px;line-height:1.25;font-family:Arial;-inkscape-font-specification:'Arial, Bold';font-variant-ligatures:none;text-align:center;text-anchor:middle;display:inline;fill:#252525;fill-opacity:1">
      <path
         d="m 51.3125,25.817341 q 0,-0.875 0.261719,-1.46875 0.195312,-0.4375 0.53125,-0.785156 0.339843,-0.347657 0.742187,-0.515625 0.535156,-0.226563 1.234375,-0.226563 1.265625,0 2.023438,0.785156 0.761718,0.785157 0.761718,2.183594 0,1.386719 -0.753906,2.171875 -0.753906,0.78125 -2.015625,0.78125 -1.277344,0 -2.03125,-0.777344 Q 51.3125,27.184528 51.3125,25.817341 Z m 1.191406,-0.03906 q 0,0.972657 0.449219,1.476563 0.449219,0.5 1.140625,0.5 0.691406,0 1.132812,-0.496094 0.445313,-0.5 0.445313,-1.496094 0,-0.984375 -0.433594,-1.46875 -0.429687,-0.484375 -1.144531,-0.484375 -0.714844,0 -1.152344,0.492188 -0.4375,0.488281 -0.4375,1.476562 z"
         id="path19466"
         style="fill:#252525;fill-opacity:1" />
      <path
         d="m 57.761719,22.918903 h 1.15625 v 3.101563 q 0,0.738281 0.04297,0.957031 0.07422,0.351563 0.351563,0.566406 0.28125,0.210938 0.765625,0.210938 0.492187,0 0.742187,-0.199219 0.25,-0.203125 0.300782,-0.496094 0.05078,-0.292968 0.05078,-0.972656 v -3.167969 h 1.15625 v 3.007813 q 0,1.03125 -0.09375,1.457031 -0.09375,0.425781 -0.347656,0.71875 -0.25,0.292969 -0.671875,0.46875 -0.421875,0.171875 -1.101563,0.171875 -0.820312,0 -1.246094,-0.1875 Q 58.445312,28.364216 58.199219,28.063435 57.953125,27.758747 57.875,27.426716 57.761719,26.934528 57.761719,25.973591 Z"
         id="path19468"
         style="fill:#252525;fill-opacity:1" />
      <path
         d="m 64.835937,28.645466 v -4.757813 h -1.699218 v -0.96875 H 67.6875 v 0.96875 h -1.695313 v 4.757813 z"
         id="path19470"
         style="fill:#252525;fill-opacity:1" />
      <path
         d="m 68.433594,28.645466 v -5.726563 h 1.855468 q 1.054688,0 1.375,0.08594 0.492188,0.128906 0.824219,0.5625 0.332031,0.429687 0.332031,1.113281 0,0.527344 -0.191406,0.886719 -0.191406,0.359375 -0.488281,0.566406 -0.292969,0.203125 -0.597656,0.269531 -0.414063,0.08203 -1.199219,0.08203 h -0.753906 v 2.160156 z m 1.15625,-4.757813 v 1.625 h 0.632812 q 0.683594,0 0.914063,-0.08984 0.230468,-0.08984 0.359375,-0.28125 0.132812,-0.191407 0.132812,-0.445313 0,-0.3125 -0.183594,-0.515625 -0.183593,-0.203125 -0.464843,-0.253906 -0.207032,-0.03906 -0.832032,-0.03906 z"
         id="path19472"
         style="fill:#252525;fill-opacity:1" />
      <path
         d="m 73.761719,22.918903 h 1.15625 v 3.101563 q 0,0.738281 0.04297,0.957031 0.07422,0.351563 0.351563,0.566406 0.28125,0.210938 0.765625,0.210938 0.492187,0 0.742187,-0.199219 0.25,-0.203125 0.300782,-0.496094 0.05078,-0.292968 0.05078,-0.972656 v -3.167969 h 1.15625 v 3.007813 q 0,1.03125 -0.09375,1.457031 -0.09375,0.425781 -0.347656,0.71875 -0.25,0.292969 -0.671875,0.46875 -0.421875,0.171875 -1.101563,0.171875 -0.820312,0 -1.246094,-0.1875 Q 74.445312,28.364216 74.199219,28.063435 73.953125,27.758747 73.875,27.426716 73.761719,26.934528 73.761719,25.973591 Z"
         id="path19474"
         style="fill:#252525;fill-opacity:1" />
      <path
         d="m 80.835937,28.645466 v -4.757813 h -1.699218 v -0.96875 H 83.6875 v 0.96875 h -1.695313 v 4.757813 z"
         id="path19476"
         style="fill:#252525;fill-opacity:1" />
    </g>
  </g>
  <text
     xml:space="preserve"
     id="text29904"
     style="font-weight:bold;font-size:8px;line-height:1.25;font-family:Arial;-inkscape-font-specification:'Arial, Bold';font-variant-ligatures:none;text-align:center;white-space:pre;shape-inside:url(#rect29906)"
     transform="translate(-2.6024628e-4)" />
  <g
     inkscape:groupmode="layer"
     id="layer1"
     inkscape:label="Widgets"
     style="display:none">
    <ellipse
       style="display:inline;fill:#ff0000;stroke:#ff0000;stroke-width:1.77975;stroke-opacity:1"
       id="path1065-7-2-3-4-5"
       cx="14.5"
       cy="123.5"
       rx="10.610125"
       ry="10.610126" />
    <circle
       style="display:inline;fill:#ff0000;stroke:#ff0000;stroke-width:1.77975;stroke-opacity:1"
       id="path1065-7-2-3-4-1"
       cx="14.500001"
       cy="83.5"
       r="10.610126" />
    <circle
       style="display:inline;fill:#ff0000;stroke:#ff0000;stroke-width:1.77975;stroke-opacity:1"
       id="path1065-7-2-3-4-2"
       cx="14.500001"
       cy="163.5"
       r="10.610126" />
    <circle
       style="display:inline;fill:#ff0000;stroke:#ff0000;stroke-width:1.94925;stroke-opacity:1"
       id="path1065-7-2-3-2-2"
       cx="14.500001"
       cy="203.5"
       r="10.525375" />
    <circle
       style="display:inline;fill:#ff0000;stroke:#ff0000;stroke-width:1.94925;stroke-opacity:1"
       id="path1065-7-2-3-2-2-7"
       cx="14.500001"
       cy="243.5"
       r="10.525375" />
    <circle
       style="display:inline;fill:#ff0000;stroke:#ff0000;stroke-width:1.94925;stroke-opacity:1"
       id="path1065-7-2-3-2-2-6"
       cx="14.500001"
       cy="283.5"
       r="10.525375" />
    <circle
       style="display:inline;fill:#ff0000;stroke:#ff0000;stroke-width:1.94925;stroke-opacity:1"
       id="path1065-7-2-3-2-2-3"
       cx="14.500001"
       cy="323.5"
       r="10.525375" />
    <ellipse
       style="display:inline;fill:#ff0000;stroke:#ff0000;stroke-width:1.77975;stroke-opacity:1"
       id="path1065-7-2-3-4-5-8"
       cx="30.5"
       cy="143.5"
       rx="10.610124"
       ry="10.610126" />
    <ellipse
       style="display:inline;fill:#ff0000;stroke:#ff0000;stroke-width:1.77975;stroke-opacity:1"
       id="path1065-7-2-3-4-1-5"
       cx="30.5"
       cy="103.5"
       rx="10.610125"
       ry="10.610126" />
    <g
       id="g17364">
      <circle
         style="display:inline;fill:#ff0000;stroke:#ff0000;stroke-width:1.77975;stroke-opacity:1"
         id="path1065-7-2-3-4-0"
         cx="14.500001"
         cy="43.5"
         r="10.610126" />
      <ellipse
         style="display:inline;fill:#ff0000;stroke:#ff0000;stroke-width:1.77975;stroke-opacity:1"
         id="path1065-7-2-3-4-0-6"
         cx="30.5"
         cy="63.5"
         rx="10.610125"
         ry="10.610126" />
    </g>
    <ellipse
       style="display:inline;fill:#ff0000;stroke:#ff0000;stroke-width:1.77975;stroke-opacity:1"
       id="path1065-7-2-3-4-2-0"
       cx="30.5"
       cy="183.5"
       rx="10.610125"
       ry="10.610126" />
    <ellipse
       style="display:inline;fill:#ff0000;stroke:#ff0000;stroke-width:1.94925;stroke-opacity:1"
       id="path1065-7-2-3-2-2-1"
       cx="30.5"
       cy="223.5"
       rx="10.525374"
       ry="10.525375" />
    <ellipse
       style="display:inline;fill:#ff0000;stroke:#ff0000;stroke-width:1.94925;stroke-opacity:1"
       id="path1065-7-2-3-2-2-7-9"
       cx="30.5"
       cy="263.5"
       rx="10.525374"
       ry="10.525375" />
    <ellipse
       style="display:inline;fill:#ff0000;stroke:#ff0000;stroke-width:1.94925;stroke-opacity:1"
       id="path1065-7-2-3-2-2-6-8"
       cx="30.5"
       cy="303.5"
       rx="10.525374"
       ry="10.525375" />
    <ellipse
       style="display:inline;fill:#ff0000;stroke:#ff0000;stroke-width:1.94925;stroke-opacity:1"
       id="path1065-7-2-3-2-2-3-5"
       cx="30.5"
       cy="343.5"
       rx="10.525374"
       ry="10.525375" />
    <ellipse
       style="display:inline;fill:#ff0000;stroke:#ff0000;stroke-width:1.77975;stroke-opacity:1"
       id="path1065-7-2-3-4-5-9"
       cx="59.5"
       cy="123.50001"
       rx="10.610125"
       ry="10.610126" />
    <circle
       style="display:inline;fill:#ff0000;stroke:#ff0000;stroke-width:1.77975;stroke-opacity:1"
       id="path1065-7-2-3-4-1-0"
       cx="59.5"
       cy="83.5"
       r="10.610126" />
    <circle
       style="display:inline;fill:#ff0000;stroke:#ff0000;stroke-width:1.77975;stroke-opacity:1"
       id="path1065-7-2-3-4-0-7"
       cx="59.5"
       cy="43.5"
       r="10.610126" />
    <circle
       style="display:inline;fill:#ff0000;stroke:#ff0000;stroke-width:1.77975;stroke-opacity:1"
       id="path1065-7-2-3-4-2-5"
       cx="59.5"
       cy="163.50002"
       r="10.610126" />
    <circle
       style="display:inline;fill:#ff0000;stroke:#ff0000;stroke-width:1.94925;stroke-opacity:1"
       id="path1065-7-2-3-2-2-2"
       cx="59.5"
       cy="203.50002"
       r="10.525375" />
    <circle
       style="display:inline;fill:#ff0000;stroke:#ff0000;stroke-width:1.94925;stroke-opacity:1"
       id="path1065-7-2-3-2-2-7-6"
       cx="59.5"
       cy="243.50002"
       r="10.525375" />
    <circle
       style="display:inline;fill:#ff0000;stroke:#ff0000;stroke-width:1.94925;stroke-opacity:1"
       id="path1065-7-2-3-2-2-6-5"
       cx="59.5"
       cy="283.5"
       r="10.525375" />
    <circle
       style="display:inline;fill:#ff0000;stroke:#ff0000;stroke-width:1.94925;stroke-opacity:1"
       id="path1065-7-2-3-2-2-3-6"
       cx="59.5"
       cy="323.5"
       r="10.525375" />
    <ellipse
       style="display:inline;fill:#ff0000;stroke:#ff0000;stroke-width:1.77975;stroke-opacity:1"
       id="path1065-7-2-3-4-5-8-8"
       cx="75.5"
       cy="143.50002"
       rx="10.610124"
       ry="10.610126" />
    <ellipse
       style="display:inline;fill:#ff0000;stroke:#ff0000;stroke-width:1.77975;stroke-opacity:1"
       id="path1065-7-2-3-4-1-5-2"
       cx="75.5"
       cy="103.5"
       rx="10.610125"
       ry="10.610126" />
    <ellipse
       style="display:inline;fill:#ff0000;stroke:#ff0000;stroke-width:1.77975;stroke-opacity:1"
       id="path1065-7-2-3-4-0-6-6"
       cx="75.5"
       cy="63.5"
       rx="10.610125"
       ry="10.610126" />
    <ellipse
       style="display:inline;fill:#ff0000;stroke:#ff0000;stroke-width:1.77975;stroke-opacity:1"
       id="path1065-7-2-3-4-2-0-7"
       cx="75.5"
       cy="183.50002"
       rx="10.610125"
       ry="10.610126" />
    <ellipse
       style="display:inline;fill:#ff0000;stroke:#ff0000;stroke-width:1.94925;stroke-opacity:1"
       id="path1065-7-2-3-2-2-1-7"
       cx="75.5"
       cy="223.50002"
       rx="10.525374"
       ry="10.525375" />
    <ellipse
       style="display:inline;fill:#ff0000;stroke:#ff0000;stroke-width:1.94925;stroke-opacity:1"
       id="path1065-7-2-3-2-2-7-9-2"
       cx="75.5"
       cy="263.5"
       rx="10.525374"
       ry="10.525375" />
    <ellipse
       style="display:inline;fill:#ff0000;stroke:#ff0000;stroke-width:1.94925;stroke-opacity:1"
       id="path1065-7-2-3-2-2-6-8-3"
       cx="75.5"
       cy="303.5"
       rx="10.525374"
       ry="10.525375" />
    <ellipse
       style="display:inline;fill:#ff0000;stroke:#ff0000;stroke-width:1.94925;stroke-opacity:1"
       id="path1065-7-2-3-2-2-3-5-7"
       cx="75.5"
       cy="343.5"
       rx="10.525374"
       ry="10.525375" />
  </g>
</svg>
