<?xml version="1.0" encoding="UTF-8" standalone="no"?>
<svg
   width="105"
   height="380"
   viewBox="0 0 105 380"
   version="1.1"
   id="svg100"
   sodipodi:docname="PolySHASR_Coal.svg"
   inkscape:version="1.1.1 (3bf5ae0d25, 2021-09-20)"
   xmlns:inkscape="http://www.inkscape.org/namespaces/inkscape"
   xmlns:sodipodi="http://sodipodi.sourceforge.net/DTD/sodipodi-0.dtd"
   xmlns="http://www.w3.org/2000/svg"
   xmlns:svg="http://www.w3.org/2000/svg"
   xmlns:rdf="http://www.w3.org/1999/02/22-rdf-syntax-ns#"
   xmlns:cc="http://creativecommons.org/ns#"
   xmlns:dc="http://purl.org/dc/elements/1.1/">
  <metadata
     id="metadata104">
    <rdf:RDF>
      <cc:Work
         rdf:about="">
        <dc:format>image/svg+xml</dc:format>
        <dc:type
           rdf:resource="http://purl.org/dc/dcmitype/StillImage" />
      </cc:Work>
    </rdf:RDF>
  </metadata>
  <sodipodi:namedview
     pagecolor="#ffffff"
     bordercolor="#666666"
     borderopacity="1"
     objecttolerance="1"
     gridtolerance="1"
     guidetolerance="1"
     inkscape:pageopacity="0"
     inkscape:pageshadow="2"
     inkscape:window-width="1920"
     inkscape:window-height="1057"
     id="namedview102"
     showgrid="true"
     inkscape:zoom="2.2342105"
     inkscape:cx="-8.0565372"
     inkscape:cy="190"
     inkscape:window-x="1592"
     inkscape:window-y="-8"
     inkscape:window-maximized="1"
     inkscape:current-layer="layer3"
     inkscape:pagecheckerboard="0"
     units="px"
     inkscape:showpageshadow="false">
    <inkscape:grid
       type="xygrid"
       id="grid1285"
       visible="false" />
  </sodipodi:namedview>
  <defs
     id="defs7">
    <rect
       x="85"
       y="10"
       width="51.058132"
       height="25"
       id="rect29906" />
    <linearGradient
       id="a8e142bb-541b-4903-be63-d5d069028a5d"
       x1="22.5"
       x2="22.5"
       y2="380"
       gradientUnits="userSpaceOnUse">
      <stop
         offset="0"
         stop-color="#ebebeb"
         id="stop2" />
      <stop
         offset="1"
         stop-color="#e1e1e1"
         id="stop4" />
    </linearGradient>
  </defs>
  <g
     inkscape:groupmode="layer"
     id="layer3"
     inkscape:label="Faceplate"
     style="display:inline">
    <g
       id="aea613ef-74be-49bf-be45-c0734aee674b"
       data-name="FND BG"
       style="fill:#252525;fill-opacity:1;stroke-width:0.845154"
       transform="matrix(2.3333333,0,0,1,-0.02797409,0)">
      <rect
         width="45"
         height="380"
         fill="url(#a8e142bb-541b-4903-be63-d5d069028a5d)"
         id="rect9"
         style="fill:#252525;fill-opacity:1;stroke-width:0.845154"
         x="0"
         y="0" />
    </g>
  </g>
  <g
     inkscape:groupmode="layer"
     id="layer4"
     inkscape:label="Brand"
     style="display:inline">
    <g
       id="g42796"
       transform="matrix(0.30458296,0,0,0.30458296,29.437549,-12.68508)"
       style="fill:#ff0000">
      <g
         aria-label="enom"
         id="text4270-27"
         style="font-size:49.3889px;line-height:1.25;font-family:'NECK ROMANCER';-inkscape-font-specification:'NECK ROMANCER, Normal';font-variant-ligatures:none;text-align:center;text-anchor:middle;fill:#ff0000;stroke-width:2.64583">
        <path
           d="m 46.609141,1249.244 q 0,1.1576 0,3.4245 3.183269,0 9.453344,0 -1.639866,0.5787 -2.990343,1.2058 -1.350478,0.627 -2.363337,1.688 -1.350477,0 -4.051433,0 0,1.4952 0.434082,2.5563 0.385851,1.1093 1.832792,1.1093 2.266873,0 6.80062,0 0.482313,-0.1447 0.868164,-0.627 0.337619,-0.5305 0.627007,-1.7363 0,2.0257 0,6.1254 -3.520888,0 -10.562665,0 -1.543403,0 -2.652724,-2.2187 -1.109321,-2.1704 -1.109321,-6.3183 0,-1.9775 0,-5.836 -0.385851,-1.3504 -1.881023,-2.1221 -1.495171,-0.7235 -3.569119,-1.2058 6.607694,0 19.774852,0 0,2.9421 0,8.7781 -1.205783,-2.701 -2.218642,-3.6656 -1.012858,-0.9646 -2.700955,-1.1093 -0.916396,-0.097 -2.170411,-0.097 -1.205783,0.048 -2.845649,0.048 -0.241157,0 -0.675239,0 z"
           id="path42762"
           style="fill:#ff0000" />
        <path
           d="m 81.576869,1245.2891 q 0,5.8842 0,17.7009 0,3.0868 -0.144694,6.0771 -0.09646,3.0386 -0.337619,5.9325 -0.385851,-3.7138 -0.964627,-6.9936 -0.530545,-3.3279 -2.025717,-5.016 0,-2.9904 0,-8.9228 -0.241157,-1.3505 -0.72347,-2.2187 -0.482314,-0.8681 -1.06109,-1.3987 -1.109321,-1.0128 -2.411567,-1.1093 -1.350478,-0.097 -2.266874,-0.097 -0.482313,0 -1.44694,0 0,4.582 0,13.746 0,3.0868 -0.09646,6.0771 -0.144694,3.0386 -0.385851,5.9325 -0.38585,-3.7138 -0.916395,-6.9936 -0.578776,-3.3279 -2.025717,-5.016 0,-4.8232 0,-14.373 -0.385851,-1.3504 -1.881022,-2.1221 -1.495172,-0.7235 -3.56912,-1.2058 6.752389,0 20.257166,0 z"
           id="path42764"
           style="fill:#ff0000" />
        <path
           d="m 104.19737,1249.0511 q 0,3.3762 0,10.1768 0,1.5434 -1.92925,2.6528 -1.92926,1.1093 -6.077152,1.1093 -4.196128,0 -6.125382,-1.1093 -1.929254,-1.1094 -1.929254,-2.6528 0,-3.3762 0,-10.1768 0,-1.5434 1.929254,-2.6527 1.929254,-1.1093 6.125382,-1.1093 4.147892,0 6.077152,1.1093 1.92925,1.1093 1.92925,2.6527 z m -3.76204,7.91 q 0,-1.8811 0,-5.6431 0,-1.6881 -1.254019,-1.9775 -1.205783,-0.2894 -2.990343,-0.2894 -1.832792,0 -3.038575,0.2894 -1.254015,0.2894 -1.254015,1.9775 0,1.881 0,5.6431 0,1.6881 1.254015,1.9774 1.205783,0.2894 3.038575,0.2894 1.78456,0 2.990343,-0.2894 1.254019,-0.2893 1.254019,-1.9774 z"
           id="path42766"
           style="fill:#ff0000" />
        <path
           d="m 142.34837,1245.2891 q -2.02572,0.4823 -3.52089,1.2058 -1.5434,0.7717 -1.88102,2.1221 0,4.7749 0,14.373 -1.49517,1.6881 -2.02572,5.016 -0.57878,3.2798 -0.96463,6.9936 -0.24115,-2.8939 -0.33762,-5.9325 -0.14469,-2.9903 -0.14469,-6.0771 0,-4.582 0,-13.746 -0.48231,0 -1.39871,0 -0.53054,0 -1.15755,0 -0.62701,0 -1.30225,0.1447 -1.25401,0.2412 -2.41157,1.2058 -1.15755,0.9646 -1.63986,3.4727 0,2.9903 0,8.9228 -0.1447,0.627 -0.28939,1.1093 -0.0965,0.4823 -0.19292,0.8199 -0.53055,1.9775 -0.38586,1.3505 0.19293,-0.627 -0.28938,1.1576 -0.0965,0.3376 -0.24116,0.8681 -0.14469,0.5306 -0.33762,1.3023 -0.14469,-0.6753 -0.28939,-1.2058 -0.14469,-0.4823 -0.24115,-0.8199 -0.53055,-2.0258 -0.33762,-1.3023 0.19292,0.7717 -0.43409,-1.6881 -0.0482,-0.2894 -0.19292,-0.7235 -0.0965,-0.3858 -0.19293,-0.8681 0,-2.9904 0,-8.9228 -0.28939,-1.3505 -0.7717,-2.2187 -0.48231,-0.8681 -1.06109,-1.3987 -1.10932,-1.0128 -2.41157,-1.1093 -1.30224,-0.097 -2.26687,-0.097 -0.48231,0 -1.39871,0 0,4.582 0,13.746 0,3.0868 -0.14469,6.0771 -0.0965,3.0386 -0.33762,5.9325 -0.38585,-3.7138 -0.96463,-6.9936 -0.53054,-3.3279 -2.02572,-5.016 0,-4.8232 0,-14.373 -0.38585,-1.3504 -1.88102,-2.1221 -1.49517,-0.7235 -3.56912,-1.2058 3.95497,0 11.76845,0 1.15755,0.3858 3.47266,1.1575 0.7717,0.2894 1.59163,0.4341 0.81994,0.1447 1.6881,0.1447 0.86816,0 1.73633,-0.1447 0.81993,-0.1447 1.59163,-0.4341 1.15756,-0.3858 3.42443,-1.1575 3.95497,0 11.76845,0 z"
           id="path42768"
           style="fill:#ff0000" />
      </g>
      <g
         aria-label="V"
         transform="matrix(1.2363173,0,0,0.80885384,-497.88086,123.48586)"
         id="text4270-3-5-2"
         style="font-size:78.5061px;line-height:1.25;font-family:Nosferotica;-inkscape-font-specification:'Nosferotica, Normal';font-variant-ligatures:none;text-align:center;text-anchor:middle;fill:#ff0000;stroke-width:3.27108">
        <path
           d="m 431.64994,1360.6864 8.57428,-0.1022 c 0,0 -4.4079,1.0878 -5.59925,3.7285 -1.88083,4.1689 -3.64217,14.6628 -3.64217,14.6628 l -2.23339,11.5191 -1.83311,11.8311 -1.71824,21.3112 -1.69514,-21.3112 -1.92196,-11.5208 -2.5009,-11.8294 c 0,0 -1.52027,-10.287 -3.38278,-14.4832 -1.14458,-2.5787 -5.63367,-3.8059 -5.63367,-3.8059 h 8.4657 l 6.66875,29.1569 z"
           id="path30410"
           sodipodi:nodetypes="ccscccccccscccc"
           style="fill:#ff0000" />
      </g>
    </g>
  </g>
  <g
     inkscape:groupmode="layer"
     id="layer5"
     inkscape:label="Solid"
     style="display:inline">
    <path
       id="rect16407"
       style="display:inline;fill:#ede7dc;fill-opacity:1;stroke-width:0.623621"
       d="m 76.81861,43.358002 h 15.36278 c 3.22351,0 5.81861,2.5951 5.81861,5.81861 V 353.66949 c 0,3.22351 -2.5951,5.81861 -5.81861,5.81861 H 76.81861 C 73.5951,359.4881 71,356.893 71,353.66949 V 49.176612 c 0,-3.22351 2.5951,-5.81861 5.81861,-5.81861 z" />
    <g
       aria-label="POLY S&amp;H ASR"
       id="text13365"
       style="font-weight:bold;font-size:12px;line-height:1.25;font-family:Arial;-inkscape-font-specification:'Arial, Bold';font-variant-ligatures:none;text-align:center;text-anchor:middle;display:inline;fill:#ede7dc;fill-opacity:1">
      <path
         d="M 9.5640984,16.322731 V 7.7328873 h 2.7832026 q 1.582032,0 2.0625,0.1289062 0.738282,0.1933594 1.236329,0.84375 0.498046,0.6445313 0.498046,1.6699215 0,0.791016 -0.287109,1.330079 -0.287109,0.539062 -0.732422,0.849609 -0.439453,0.304687 -0.896484,0.404297 -0.621094,0.123047 -1.798828,0.123047 h -1.13086 v 3.240234 z M 11.298473,9.1860123 v 2.4374997 h 0.949219 q 1.025391,0 1.371094,-0.134765 0.345703,-0.134766 0.539062,-0.421875 0.199219,-0.28711 0.199219,-0.667969 0,-0.4687501 -0.275391,-0.7734376 Q 13.806286,9.3207779 13.384411,9.244606 13.073864,9.186012 12.136364,9.186012 Z"
         id="path41296"
         style="fill:#ede7dc;fill-opacity:1" />
      <path
         d="m 17.216442,12.080544 q 0,-1.3125 0.392578,-2.2031255 0.292969,-0.65625 0.796875,-1.1777344 0.509766,-0.5214843 1.113281,-0.7734375 0.802735,-0.3398437 1.851563,-0.3398437 1.898437,0 3.035156,1.1777344 1.142578,1.1777343 1.142578,3.2753907 0,2.080078 -1.130859,3.257812 -1.130859,1.171875 -3.023438,1.171875 -1.916015,0 -3.046875,-1.166015 -1.130859,-1.171875 -1.130859,-3.222656 z m 1.787109,-0.05859 q 0,1.458984 0.673829,2.214844 0.673828,0.75 1.710937,0.75 1.037109,0 1.699219,-0.744141 0.667969,-0.75 0.667969,-2.244141 0,-1.476562 -0.650391,-2.2031247 -0.644531,-0.7265625 -1.716797,-0.7265625 -1.072266,0 -1.728516,0.7382812 -0.65625,0.732422 -0.65625,2.214844 z"
         id="path41298"
         style="fill:#ede7dc;fill-opacity:1" />
      <path
         d="M 26.948864,16.322731 V 7.8031998 h 1.734375 v 7.0722652 h 4.3125 v 1.447266 z"
         id="path41300"
         style="fill:#ede7dc;fill-opacity:1" />
      <path
         d="M 35.386364,16.322731 V 12.707497 L 32.23988,7.7328873 h 2.033203 l 2.021484,3.3984377 1.980469,-3.3984377 h 1.998047 L 37.11488,12.719215 v 3.603516 z"
         id="path41302"
         style="fill:#ede7dc;fill-opacity:1" />
      <path
         d="m 43.812145,13.527809 1.6875,-0.164062 q 0.152344,0.849609 0.615235,1.248047 0.46875,0.398437 1.259765,0.398437 0.837891,0 1.259766,-0.351562 0.427734,-0.357422 0.427734,-0.832032 0,-0.304687 -0.18164,-0.515625 -0.175782,-0.216797 -0.621094,-0.375 -0.304688,-0.105468 -1.388672,-0.375 -1.394531,-0.345703 -1.957031,-0.849609 -0.791016,-0.708984 -0.791016,-1.7285157 0,-0.65625 0.369141,-1.2246094 0.375,-0.5742188 1.072265,-0.8730469 0.703125,-0.2988281 1.69336,-0.2988281 1.617187,0 2.43164,0.7089844 0.820313,0.7089843 0.861328,1.8925777 l -1.734375,0.07617 Q 48.704723,9.6020279 48.335583,9.3149185 47.972301,9.0219498 47.23988,9.0219498 q -0.75586,0 -1.183594,0.3105468 -0.275391,0.1992188 -0.275391,0.5332032 0,0.3046872 0.257813,0.5214842 0.328125,0.275391 1.59375,0.574219 1.265625,0.298828 1.86914,0.621094 0.609375,0.316406 0.949219,0.873047 0.345703,0.550781 0.345703,1.365234 0,0.738281 -0.410156,1.382812 -0.410156,0.644532 -1.160156,0.960938 -0.75,0.310547 -1.869141,0.310547 -1.628906,0 -2.501953,-0.75 -0.873047,-0.75586 -1.042969,-2.197266 z"
         id="path41304"
         style="fill:#ede7dc;fill-opacity:1" />
      <path
         d="m 59.855114,15.273903 -0.996094,1.271484 q -0.732422,-0.357422 -1.40625,-0.984375 -0.521484,0.46875 -1.107422,0.691407 -0.585937,0.222656 -1.394531,0.222656 -1.605469,0 -2.414062,-0.902344 -0.626954,-0.697266 -0.626954,-1.605469 0,-0.826172 0.492188,-1.482422 0.492187,-0.662109 1.470703,-1.148437 -0.439453,-0.521484 -0.662109,-0.990234 -0.222657,-0.4746099 -0.222657,-0.8964849 0,-0.7792968 0.621094,-1.3183593 0.626953,-0.5449219 1.78125,-0.5449219 1.113281,0 1.740235,0.5683594 0.626953,0.5683593 0.626953,1.3886718 0,0.5214849 -0.310547,0.9902349 -0.310547,0.46875 -1.253906,1.060546 l 1.195312,1.576172 q 0.210938,-0.375 0.363281,-0.978515 l 1.488282,0.339843 q -0.222657,0.791016 -0.386719,1.160157 -0.164063,0.363281 -0.351563,0.609375 0.275391,0.257812 0.708985,0.568359 0.439453,0.304688 0.644531,0.404297 z m -4.482422,-4.669922 0.445313,-0.339844 q 0.492187,-0.3808591 0.492187,-0.7558591 0,-0.3164063 -0.240234,-0.5390625 -0.234375,-0.2226563 -0.638672,-0.2226563 -0.392578,0 -0.615235,0.1992188 -0.222656,0.1933594 -0.222656,0.4511719 0,0.3046875 0.375,0.7382812 z m -0.644531,1.787109 q -0.56836,0.28711 -0.84961,0.691407 -0.28125,0.404297 -0.28125,0.826172 0,0.533203 0.345704,0.873046 0.351562,0.333985 0.9375,0.333985 0.386718,0 0.74414,-0.152344 0.357422,-0.152344 0.779297,-0.503906 z"
         id="path41306"
         style="fill:#ede7dc;fill-opacity:1" />
      <path
         d="M 60.92738,16.322731 V 7.7328873 h 1.734375 v 3.3808597 h 3.398437 V 7.7328873 h 1.734375 v 8.5898437 h -1.734375 v -3.755859 h -3.398437 v 3.755859 z"
         id="path41308"
         style="fill:#ede7dc;fill-opacity:1" />
      <path
         d="m 80.222301,16.322731 h -1.886718 l -0.75,-1.951172 h -3.433594 l -0.708984,1.951172 h -1.839844 l 3.345703,-8.5898437 h 1.833984 z M 77.028942,12.924294 75.845348,9.7367935 74.685192,12.924294 Z"
         id="path41310"
         style="fill:#ede7dc;fill-opacity:1" />
      <path
         d="m 80.70277,13.527809 1.6875,-0.164062 q 0.152344,0.849609 0.615235,1.248047 0.46875,0.398437 1.259765,0.398437 0.837891,0 1.259766,-0.351562 0.427734,-0.357422 0.427734,-0.832032 0,-0.304687 -0.18164,-0.515625 -0.175782,-0.216797 -0.621094,-0.375 -0.304688,-0.105468 -1.388672,-0.375 -1.394531,-0.345703 -1.957031,-0.849609 -0.791016,-0.708984 -0.791016,-1.7285157 0,-0.65625 0.369141,-1.2246094 0.375,-0.5742188 1.072265,-0.8730469 0.703125,-0.2988281 1.69336,-0.2988281 1.617187,0 2.43164,0.7089844 0.820313,0.7089843 0.861328,1.8925777 l -1.734375,0.07617 Q 85.595348,9.6020279 85.226208,9.3149185 84.862926,9.0219498 84.130505,9.0219498 q -0.75586,0 -1.183594,0.3105468 -0.275391,0.1992188 -0.275391,0.5332032 0,0.3046872 0.257813,0.5214842 0.328125,0.275391 1.59375,0.574219 1.265625,0.298828 1.86914,0.621094 0.609375,0.316406 0.949219,0.873047 0.345703,0.550781 0.345703,1.365234 0,0.738281 -0.410156,1.382812 -0.410156,0.644532 -1.160156,0.960938 -0.75,0.310547 -1.869141,0.310547 -1.628906,0 -2.501953,-0.75 -0.873047,-0.75586 -1.042969,-2.197266 z"
         id="path41312"
         style="fill:#ede7dc;fill-opacity:1" />
      <path
         d="M 89.151989,16.322731 V 7.7328873 h 3.650391 q 1.376953,0 1.998046,0.234375 0.626954,0.2285156 1.001954,0.8203125 0.375,0.5917968 0.375,1.3535152 0,0.966797 -0.56836,1.59961 -0.568359,0.626953 -1.699219,0.791015 0.5625,0.328125 0.925782,0.720704 0.36914,0.392578 0.990234,1.394531 l 1.048828,1.675781 H 94.800426 L 93.54652,14.45359 q -0.667969,-1.001953 -0.914062,-1.259765 -0.246094,-0.263672 -0.521485,-0.357422 -0.27539,-0.09961 -0.873047,-0.09961 H 90.886364 V 16.32273 Z M 90.886364,11.3657 h 1.283203 q 1.248047,0 1.558594,-0.105469 0.310547,-0.105469 0.486328,-0.363281 0.175781,-0.257813 0.175781,-0.644531 0,-0.4335942 -0.234375,-0.6972661 Q 93.92738,9.2856216 93.505505,9.2153091 93.294567,9.1860123 92.23988,9.1860123 h -1.353516 z"
         id="path41314"
         style="fill:#ede7dc;fill-opacity:1" />
    </g>
    <g
       aria-label="TRIG"
       id="text3204-5"
       style="font-weight:bold;font-size:8px;line-height:1.25;font-family:Arial;-inkscape-font-specification:'Arial, Bold';font-variant-ligatures:none;text-align:center;text-anchor:middle;fill:#ede7dc;fill-opacity:1">
      <path
         d="m 12.972656,52.384354 v -4.757813 h -1.699218 v -0.96875 h 4.550781 v 0.96875 h -1.695313 v 4.757813 z"
         id="path41282"
         style="fill:#ede7dc;fill-opacity:1" />
      <path
         d="m 16.574219,52.384354 v -5.726563 h 2.433593 q 0.917969,0 1.332032,0.15625 0.417968,0.152344 0.667968,0.546875 0.25,0.394531 0.25,0.902344 0,0.644531 -0.378906,1.066406 -0.378906,0.417969 -1.132812,0.527344 0.375,0.21875 0.617187,0.480469 0.246094,0.261718 0.660156,0.929687 l 0.699219,1.117188 H 20.339844 L 19.503906,51.13826 q -0.445312,-0.667969 -0.609375,-0.839844 -0.164062,-0.175781 -0.347656,-0.238281 -0.183594,-0.06641 -0.582031,-0.06641 h -0.234375 v 2.390625 z m 1.15625,-3.304688 h 0.855468 q 0.832032,0 1.039063,-0.07031 0.207031,-0.07031 0.324219,-0.242188 0.117187,-0.171875 0.117187,-0.429687 0,-0.289063 -0.15625,-0.464844 -0.152344,-0.179688 -0.433594,-0.226563 -0.140625,-0.01953 -0.84375,-0.01953 h -0.902343 z"
         id="path41284"
         style="fill:#ede7dc;fill-opacity:1" />
      <path
         d="m 22.3125,52.384354 v -5.726563 h 1.15625 v 5.726563 z"
         id="path41286"
         style="fill:#ede7dc;fill-opacity:1" />
      <path
         d="m 27.234375,50.278885 v -0.964844 h 2.492187 v 2.28125 q -0.363281,0.351563 -1.054687,0.621094 -0.6875,0.265625 -1.394531,0.265625 -0.898438,0 -1.566407,-0.375 -0.667968,-0.378906 -1.003906,-1.078125 -0.335937,-0.703125 -0.335937,-1.527344 0,-0.894531 0.375,-1.589844 0.375,-0.695312 1.097656,-1.066406 0.550781,-0.285156 1.371094,-0.285156 1.066406,0 1.664062,0.449219 0.601563,0.445312 0.773438,1.234375 l -1.148438,0.214843 q -0.121094,-0.421875 -0.457031,-0.664062 -0.332031,-0.246094 -0.832031,-0.246094 -0.757813,0 -1.207032,0.480469 -0.445312,0.480469 -0.445312,1.425781 0,1.019531 0.453125,1.53125 0.453125,0.507813 1.1875,0.507813 0.363281,0 0.726562,-0.140625 0.367188,-0.144532 0.628907,-0.347657 v -0.726562 z"
         id="path41288"
         style="fill:#ede7dc;fill-opacity:1" />
    </g>
    <g
       aria-label="RND"
       id="text35223"
       style="font-weight:bold;font-size:6.66667px;line-height:1.25;font-family:Arial;-inkscape-font-specification:'Arial, Bold';font-variant-ligatures:none;text-align:center;text-anchor:middle;fill:#ede7dc;fill-opacity:1"
       transform="translate(-3.3333282,0.005972)">
      <path
         d="M 61.688473,26.986217 V 22.21408 h 2.027996 q 0.764974,0 1.110027,0.130208 0.348307,0.126953 0.556641,0.45573 0.208333,0.328776 0.208333,0.751953 0,0.53711 -0.315755,0.888672 -0.315756,0.348308 -0.944011,0.439454 0.3125,0.182291 0.514323,0.400391 0.205078,0.218099 0.55013,0.774739 l 0.582683,0.93099 h -1.152344 l -0.696615,-1.038411 q -0.371094,-0.556641 -0.507813,-0.699871 -0.136719,-0.146484 -0.289714,-0.198567 -0.152995,-0.05534 -0.485026,-0.05534 h -0.195313 v 1.992188 z m 0.963542,-2.753907 h 0.712891 q 0.69336,0 0.865886,-0.05859 0.172526,-0.05859 0.270183,-0.201823 0.09766,-0.143229 0.09766,-0.358073 0,-0.240885 -0.130208,-0.38737 -0.126954,-0.14974 -0.361329,-0.188802 -0.117187,-0.01628 -0.703125,-0.01628 h -0.751954 z"
         id="path41275"
         style="fill:#ede7dc;fill-opacity:1" />
      <path
         d="M 66.509439,26.986217 V 22.21408 h 0.937501 l 1.953126,3.18685 v -3.18685 h 0.895182 v 4.772137 h -0.966797 l -1.923829,-3.11198 v 3.11198 z"
         id="path41277"
         style="fill:#ede7dc;fill-opacity:1" />
      <path
         d="m 71.310874,22.21408 h 1.761068 q 0.595704,0 0.908204,0.09115 0.419922,0.123698 0.719401,0.439453 0.29948,0.315755 0.45573,0.77474 0.15625,0.455729 0.15625,1.126303 0,0.589193 -0.146485,1.015625 -0.179036,0.520834 -0.511067,0.843099 -0.250652,0.244141 -0.677084,0.38086 -0.319011,0.100911 -0.852865,0.100911 h -1.813152 z m 0.963542,0.807292 v 3.160809 h 0.719401 q 0.403646,0 0.582683,-0.04557 0.234375,-0.05859 0.38737,-0.198568 0.15625,-0.139974 0.253906,-0.458985 0.09766,-0.322265 0.09766,-0.875651 0,-0.553386 -0.09766,-0.84961 -0.09766,-0.296224 -0.273437,-0.46224 -0.175782,-0.166015 -0.445964,-0.224609 -0.201823,-0.04557 -0.791016,-0.04557 z"
         id="path41279"
         style="fill:#ede7dc;fill-opacity:1" />
    </g>
    <g
       aria-label="OVER"
       id="text35223-8"
       style="font-weight:bold;font-size:6.66667px;line-height:1.25;font-family:Arial;-inkscape-font-specification:'Arial, Bold';font-variant-ligatures:none;text-align:center;text-anchor:middle;fill:#ede7dc;fill-opacity:1"
       transform="translate(3.2845074)">
      <path
         d="m 27.26497,24.629446 q 0,-0.729167 0.218099,-1.223959 0.16276,-0.364584 0.442708,-0.654298 0.283203,-0.289713 0.61849,-0.429687 0.445964,-0.188802 1.028646,-0.188802 1.054688,0 1.686199,0.654297 0.634766,0.654297 0.634766,1.819662 0,1.1556 -0.628255,1.809897 -0.628256,0.651042 -1.679689,0.651042 -1.064453,0 -1.692709,-0.647787 -0.628255,-0.651042 -0.628255,-1.790365 z m 0.992839,-0.03255 q 0,0.810548 0.374349,1.23047 0.374349,0.416667 0.950521,0.416667 0.576172,0 0.944011,-0.413412 0.371094,-0.416667 0.371094,-1.246745 0,-0.820313 -0.361328,-1.223959 -0.358074,-0.403646 -0.953777,-0.403646 -0.595703,0 -0.960287,0.410156 -0.364583,0.406901 -0.364583,1.230469 z"
         id="path41266"
         style="fill:#ede7dc;fill-opacity:1" />
      <path
         d="M 33.86328,26.986217 32.15755,22.21408 h 1.044922 l 1.207683,3.531903 1.168621,-3.531903 h 1.022135 l -1.708985,4.772137 z"
         id="path41268"
         style="fill:#ede7dc;fill-opacity:1" />
      <path
         d="M 37.092448,26.986217 V 22.21408 h 3.538413 v 0.807292 H 38.05599 v 1.057943 h 2.395835 v 0.804037 H 38.05599 v 1.298829 h 2.666017 v 0.804036 z"
         id="path41270"
         style="fill:#ede7dc;fill-opacity:1" />
      <path
         d="M 41.54232,26.986217 V 22.21408 h 2.027996 q 0.764975,0 1.110027,0.130208 0.348307,0.126953 0.556641,0.45573 0.208333,0.328776 0.208333,0.751953 0,0.53711 -0.315755,0.888672 -0.315756,0.348308 -0.944011,0.439454 0.3125,0.182291 0.514323,0.400391 0.205078,0.218099 0.55013,0.774739 l 0.582683,0.93099 h -1.152344 l -0.696615,-1.038411 q -0.371094,-0.556641 -0.507813,-0.699871 -0.136719,-0.146484 -0.289714,-0.198567 -0.152994,-0.05534 -0.485026,-0.05534 h -0.195312 v 1.992188 z m 0.963543,-2.753907 h 0.712891 q 0.693359,0 0.865885,-0.05859 0.172526,-0.05859 0.270183,-0.201823 0.09766,-0.143229 0.09766,-0.358073 0,-0.240885 -0.130208,-0.38737 -0.126954,-0.14974 -0.361329,-0.188802 -0.117187,-0.01628 -0.703125,-0.01628 h -0.751953 z"
         id="path41272"
         style="fill:#ede7dc;fill-opacity:1" />
    </g>
    <g
       aria-label="TRIG"
       id="text5654"
       style="font-weight:bold;font-size:6.66667px;line-height:1.25;font-family:Arial;-inkscape-font-specification:'Arial, Bold';font-variant-ligatures:none;text-align:center;text-anchor:middle;fill:#ede7dc;fill-opacity:1">
      <path
         d="M 8.2272102,26.986217 V 23.021372 H 6.8111939 V 22.21408 h 3.7923191 v 0.807292 H 9.1907523 v 3.964845 z"
         id="path10575"
         style="fill:#ede7dc;fill-opacity:1" />
      <path
         d="M 11.228514,26.986217 V 22.21408 h 2.027995 q 0.764975,0 1.110027,0.130208 0.348307,0.126953 0.556641,0.45573 0.208333,0.328776 0.208333,0.751953 0,0.53711 -0.315755,0.888672 -0.315755,0.348308 -0.944011,0.439454 0.3125,0.182291 0.514323,0.400391 0.205078,0.218099 0.550131,0.774739 l 0.582682,0.93099 H 14.366536 L 13.669921,25.947806 Q 13.298827,25.391165 13.162108,25.247935 13.02539,25.101451 12.872395,25.049368 12.7194,24.994029 12.387368,24.994029 h -0.195312 v 1.992188 z m 0.963542,-2.753907 h 0.712891 q 0.693359,0 0.865886,-0.05859 0.172526,-0.05859 0.270182,-0.201823 0.09766,-0.143229 0.09766,-0.358073 0,-0.240885 -0.130208,-0.38737 -0.126953,-0.14974 -0.361328,-0.188802 -0.117188,-0.01628 -0.703126,-0.01628 H 12.19206 Z"
         id="path10577"
         style="fill:#ede7dc;fill-opacity:1" />
      <path
         d="M 16.010417,26.986217 V 22.21408 h 0.963542 v 4.772137 z"
         id="path10579"
         style="fill:#ede7dc;fill-opacity:1" />
      <path
         d="m 20.111981,25.231659 v -0.804036 h 2.076824 v 1.901042 q -0.302734,0.292969 -0.878906,0.517578 -0.572917,0.221355 -1.16211,0.221355 -0.748699,0 -1.305339,-0.3125 -0.556641,-0.315756 -0.836589,-0.898438 -0.279948,-0.585938 -0.279948,-1.272787 0,-0.745443 0.3125,-1.324871 0.3125,-0.579427 0.914714,-0.888672 0.458984,-0.23763 1.142578,-0.23763 0.888673,0 1.38672,0.374349 0.501302,0.371094 0.644531,1.028646 l -0.957031,0.179037 q -0.100912,-0.351563 -0.38086,-0.553386 -0.276693,-0.205078 -0.69336,-0.205078 -0.63151,0 -1.005859,0.40039 -0.371094,0.400391 -0.371094,1.188152 0,0.84961 0.377604,1.276042 0.377604,0.423178 0.989584,0.423178 0.302734,0 0.605469,-0.117188 0.30599,-0.120443 0.524089,-0.289714 v -0.605469 z"
         id="path10581"
         style="fill:#ede7dc;fill-opacity:1" />
    </g>
    <g
       aria-label="CLR"
       id="text5654-3"
       style="font-weight:bold;font-size:6.66667px;line-height:1.25;font-family:Arial;-inkscape-font-specification:'Arial, Bold';font-variant-ligatures:none;text-align:center;text-anchor:middle;display:inline;fill:#ede7dc;fill-opacity:1">
      <path
         d="m 87.047847,25.237633 0.934246,0.296224 q -0.214844,0.781251 -0.716146,1.16211 -0.498048,0.377605 -1.266277,0.377605 -0.950521,0 -1.562501,-0.647787 -0.611979,-0.651042 -0.611979,-1.777345 0,-1.191407 0.615234,-1.848959 0.615235,-0.660808 1.61784,-0.660808 0.875651,0 1.422526,0.517579 0.325521,0.305989 0.488282,0.878906 l -0.953777,0.227865 q -0.08463,-0.371094 -0.354818,-0.585938 -0.266927,-0.214844 -0.651042,-0.214844 -0.530599,0 -0.86263,0.38086 -0.328776,0.38086 -0.328776,1.233725 0,0.904948 0.325521,1.289063 0.325521,0.384114 0.846354,0.384114 0.384115,0 0.660808,-0.24414 0.276693,-0.244141 0.397135,-0.76823 z"
         id="path10584"
         style="fill:#ede7dc;fill-opacity:1" />
      <path
         d="M 88.834958,26.992191 V 22.259116 H 89.7985 v 3.929038 h 2.395834 v 0.804037 z"
         id="path10586"
         style="fill:#ede7dc;fill-opacity:1" />
      <path
         d="m 92.884438,26.992191 v -4.772137 h 2.027996 q 0.764974,0 1.110027,0.130208 0.348307,0.126953 0.556641,0.455729 0.208333,0.328777 0.208333,0.751954 0,0.53711 -0.315755,0.888672 -0.315756,0.348308 -0.944011,0.439454 0.3125,0.182291 0.514323,0.40039 0.205078,0.218099 0.55013,0.77474 l 0.582683,0.93099 h -1.152344 l -0.696615,-1.038412 q -0.371094,-0.556641 -0.507813,-0.69987 -0.136719,-0.146484 -0.289714,-0.198568 -0.152995,-0.05534 -0.485026,-0.05534 H 93.84798 v 1.992188 z m 0.963542,-2.753907 h 0.712891 q 0.69336,0 0.865886,-0.05859 0.172526,-0.05859 0.270183,-0.201823 0.09766,-0.143229 0.09766,-0.358073 0,-0.240886 -0.130208,-0.38737 -0.126954,-0.14974 -0.361329,-0.188802 -0.117187,-0.01628 -0.703125,-0.01628 H 93.84798 Z"
         id="path10588"
         style="fill:#ede7dc;fill-opacity:1" />
    </g>
    <g
       aria-label="DATA"
       id="text13941"
       style="font-weight:bold;font-size:8px;line-height:1.25;font-family:Arial;-inkscape-font-specification:'Arial, Bold';font-variant-ligatures:none;text-align:center;text-anchor:middle;fill:#ede7dc;fill-opacity:1">
      <path
         d="m 42.289062,46.657791 h 2.113282 q 0.714843,0 1.089843,0.109375 0.503907,0.148438 0.863282,0.527344 0.359375,0.378906 0.546875,0.929687 0.1875,0.546875 0.1875,1.351563 0,0.707031 -0.175782,1.21875 -0.214843,0.625 -0.613281,1.011719 -0.300781,0.292968 -0.8125,0.457031 -0.382812,0.121094 -1.023437,0.121094 h -2.175782 z m 1.15625,0.96875 v 3.792969 h 0.863282 q 0.484375,0 0.699218,-0.05469 0.28125,-0.07031 0.464844,-0.238281 0.1875,-0.167969 0.304688,-0.550781 0.117187,-0.386719 0.117187,-1.050781 0,-0.664063 -0.117187,-1.019532 -0.117188,-0.355468 -0.328125,-0.554687 -0.210938,-0.199219 -0.535157,-0.269531 -0.242187,-0.05469 -0.949218,-0.05469 z"
         id="path18871"
         style="fill:#ede7dc;fill-opacity:1" />
      <path
         d="m 53.234375,52.384354 h -1.257813 l -0.5,-1.300782 H 49.1875 l -0.472656,1.300782 h -1.226563 l 2.230469,-5.726563 h 1.222656 z m -2.128906,-2.265625 -0.789063,-2.125 -0.773437,2.125 z"
         id="path18873"
         style="fill:#ede7dc;fill-opacity:1" />
      <path
         d="M 54.542969,52.384354 V 47.626541 H 52.84375 v -0.96875 h 4.550781 v 0.96875 h -1.695312 v 4.757813 z"
         id="path18875"
         style="fill:#ede7dc;fill-opacity:1" />
      <path
         d="m 62.710937,52.384354 h -1.257812 l -0.5,-1.300782 h -2.289063 l -0.472656,1.300782 h -1.226562 l 2.230468,-5.726563 h 1.222657 z m -2.128906,-2.265625 -0.789062,-2.125 -0.773438,2.125 z"
         id="path18877"
         style="fill:#ede7dc;fill-opacity:1" />
    </g>
  </g>
  <g
     inkscape:groupmode="layer"
     id="layer6"
     inkscape:label="Line"
     style="display:inline">
    <path
       style="fill:none;stroke:#ede7dc;stroke-width:1px;stroke-linecap:butt;stroke-linejoin:miter;stroke-opacity:1"
       d="m 20.472025,66.949988 64,2.4e-5"
       id="path40523" />
    <path
       style="display:inline;fill:none;stroke:#ede7dc;stroke-width:1px;stroke-linecap:butt;stroke-linejoin:miter;stroke-opacity:1"
       d="m 20.472025,97.900036 64,2.4e-5"
       id="path40523-5" />
    <path
       style="display:inline;fill:none;stroke:#ede7dc;stroke-width:1px;stroke-linecap:butt;stroke-linejoin:miter;stroke-opacity:1"
       d="m 20.472025,128.85008 64,2e-5"
       id="path40523-6" />
    <path
       style="display:inline;fill:none;stroke:#ede7dc;stroke-width:1px;stroke-linecap:butt;stroke-linejoin:miter;stroke-opacity:1"
       d="m 20.472025,159.80015 64,3e-5"
       id="path40523-9" />
    <path
       style="display:inline;fill:none;stroke:#ede7dc;stroke-width:1px;stroke-linecap:butt;stroke-linejoin:miter;stroke-opacity:1"
       d="m 20.472025,190.75021 64,2e-5"
       id="path40523-7" />
    <path
       style="display:inline;fill:none;stroke:#ede7dc;stroke-width:1px;stroke-linecap:butt;stroke-linejoin:miter;stroke-opacity:1"
       d="m 20.472025,221.70024 64,2e-5"
       id="path40523-0" />
    <path
       style="display:inline;fill:none;stroke:#ede7dc;stroke-width:1px;stroke-linecap:butt;stroke-linejoin:miter;stroke-opacity:1"
       d="m 20.472025,252.6503 64,2e-5"
       id="path40523-79" />
    <path
       style="display:inline;fill:none;stroke:#ede7dc;stroke-width:1px;stroke-linecap:butt;stroke-linejoin:miter;stroke-opacity:1"
       d="m 20.472025,283.60034 64,2e-5"
       id="path40523-2" />
    <path
       style="display:inline;fill:none;stroke:#ede7dc;stroke-width:1px;stroke-linecap:butt;stroke-linejoin:miter;stroke-opacity:1"
       d="m 20.472025,314.55041 64,2e-5"
       id="path40523-3" />
    <path
       style="display:inline;fill:none;stroke:#ede7dc;stroke-width:1px;stroke-linecap:butt;stroke-linejoin:miter;stroke-opacity:1"
       d="m 20.472025,345.50048 64,2e-5"
       id="path40523-1" />
  </g>
  <g
     inkscape:groupmode="layer"
     id="layer7"
     inkscape:label="Reverse Solid"
     style="display:inline">
    <g
       aria-label="HOLD"
       id="text13941-6"
       style="font-weight:bold;font-size:8px;line-height:1.25;font-family:Arial;-inkscape-font-specification:'Arial, Bold';font-variant-ligatures:none;text-align:center;text-anchor:middle;display:inline;fill:#252525;fill-opacity:1">
      <path
         d="m 73.660156,52.384354 v -5.726563 h 1.15625 v 2.253906 h 2.265625 v -2.253906 h 1.15625 v 5.726563 h -1.15625 v -2.503907 h -2.265625 v 2.503907 z"
         id="path18844"
         style="fill:#252525;fill-opacity:1" />
      <path
         d="m 79.199219,49.556229 q 0,-0.875 0.261718,-1.46875 0.195313,-0.4375 0.53125,-0.785157 0.339844,-0.347656 0.742188,-0.515625 0.535156,-0.226562 1.234375,-0.226562 1.265625,0 2.023437,0.785156 0.761719,0.785156 0.761719,2.183594 0,1.386719 -0.753906,2.171875 -0.753906,0.78125 -2.015625,0.78125 -1.277344,0 -2.03125,-0.777344 -0.753906,-0.78125 -0.753906,-2.148437 z m 1.191406,-0.03906 q 0,0.972656 0.449219,1.476563 0.449218,0.5 1.140625,0.5 0.691406,0 1.132812,-0.496094 0.445313,-0.5 0.445313,-1.496094 0,-0.984375 -0.433594,-1.46875 -0.429688,-0.484375 -1.144531,-0.484375 -0.714844,0 -1.152344,0.492188 -0.4375,0.488281 -0.4375,1.476562 z"
         id="path18846"
         style="fill:#252525;fill-opacity:1" />
      <path
         d="m 85.6875,52.384354 v -5.679688 h 1.15625 v 4.714844 h 2.875 v 0.964844 z"
         id="path18848"
         style="fill:#252525;fill-opacity:1" />
      <path
         d="m 90.539062,46.657791 h 2.113282 q 0.714843,0 1.089843,0.109375 0.503907,0.148438 0.863282,0.527344 0.359375,0.378906 0.546875,0.929687 0.1875,0.546875 0.1875,1.351563 0,0.707031 -0.175782,1.21875 -0.214843,0.625 -0.613281,1.011719 -0.300781,0.292968 -0.8125,0.457031 -0.382812,0.121094 -1.023437,0.121094 h -2.175782 z m 1.15625,0.96875 v 3.792969 h 0.863282 q 0.484375,0 0.699218,-0.05469 0.28125,-0.07031 0.464844,-0.238281 0.1875,-0.167969 0.304688,-0.550781 0.117187,-0.386719 0.117187,-1.050781 0,-0.664063 -0.117187,-1.019532 -0.117188,-0.355468 -0.328125,-0.554687 -0.210938,-0.199219 -0.535157,-0.269531 -0.242187,-0.05469 -0.949218,-0.05469 z"
         id="path18850"
         style="fill:#252525;fill-opacity:1" />
    </g>
  </g>
  <g
     inkscape:groupmode="layer"
     id="layer8"
     inkscape:label="Reverse Line"
     style="display:inline" />
  <g
     inkscape:groupmode="layer"
     id="layer9"
     inkscape:label="Contrast Solid"
     style="display:inline">
    <path
       sodipodi:type="star"
       style="display:inline;fill:#ff0000;fill-opacity:1;stroke:none;stroke-width:0.623622;stroke-opacity:1"
       id="path17378"
       inkscape:flatsided="true"
       sodipodi:sides="3"
       sodipodi:cx="62.522087"
       sodipodi:cy="87.391052"
       sodipodi:r1="2.7013469"
       sodipodi:r2="1.3506734"
       sodipodi:arg1="0.27260982"
       sodipodi:arg2="1.3198074"
       inkscape:rounded="0"
       inkscape:randomized="0"
       inkscape:transform-center-x="-0.33545602"
       inkscape:transform-center-y="-0.36366314"
       d="m 65.123677,88.118379 -4.532268,1.162053 1.259766,-4.506086 z" />
    <path
       sodipodi:type="star"
       style="display:inline;fill:#ff0000;fill-opacity:1;stroke:none;stroke-width:0.623622;stroke-opacity:1"
       id="path17378-8"
       inkscape:flatsided="true"
       sodipodi:sides="3"
       sodipodi:cx="62.522087"
       sodipodi:cy="87.391052"
       sodipodi:r1="2.7013469"
       sodipodi:r2="1.3506734"
       sodipodi:arg1="0.27260982"
       sodipodi:arg2="1.3198074"
       inkscape:rounded="0"
       inkscape:randomized="0"
       inkscape:transform-center-x="-0.33545602"
       inkscape:transform-center-y="-0.36366314"
       d="m 65.123677,88.118379 -4.532268,1.162053 1.259766,-4.506086 z"
       transform="translate(0,30.999686)" />
    <path
       sodipodi:type="star"
       style="display:inline;fill:#ff0000;fill-opacity:1;stroke:none;stroke-width:0.623622;stroke-opacity:1"
       id="path17378-2"
       inkscape:flatsided="true"
       sodipodi:sides="3"
       sodipodi:cx="62.522087"
       sodipodi:cy="87.391052"
       sodipodi:r1="2.7013469"
       sodipodi:r2="1.3506734"
       sodipodi:arg1="0.27260982"
       sodipodi:arg2="1.3198074"
       inkscape:rounded="0"
       inkscape:randomized="0"
       inkscape:transform-center-x="-0.33545602"
       inkscape:transform-center-y="-0.36366314"
       d="m 65.123677,88.118379 -4.532268,1.162053 1.259766,-4.506086 z"
       transform="translate(0,61.999686)" />
    <path
       sodipodi:type="star"
       style="display:inline;fill:#ff0000;fill-opacity:1;stroke:none;stroke-width:0.623622;stroke-opacity:1"
       id="path17378-1"
       inkscape:flatsided="true"
       sodipodi:sides="3"
       sodipodi:cx="62.522087"
       sodipodi:cy="87.391052"
       sodipodi:r1="2.7013469"
       sodipodi:r2="1.3506734"
       sodipodi:arg1="0.27260982"
       sodipodi:arg2="1.3198074"
       inkscape:rounded="0"
       inkscape:randomized="0"
       inkscape:transform-center-x="-0.33545602"
       inkscape:transform-center-y="-0.36366314"
       d="m 65.123677,88.118379 -4.532268,1.162053 1.259766,-4.506086 z"
       transform="translate(0,92.999686)" />
    <path
       sodipodi:type="star"
       style="display:inline;fill:#ff0000;fill-opacity:1;stroke:none;stroke-width:0.623622;stroke-opacity:1"
       id="path17378-4"
       inkscape:flatsided="true"
       sodipodi:sides="3"
       sodipodi:cx="62.522087"
       sodipodi:cy="87.391052"
       sodipodi:r1="2.7013469"
       sodipodi:r2="1.3506734"
       sodipodi:arg1="0.27260982"
       sodipodi:arg2="1.3198074"
       inkscape:rounded="0"
       inkscape:randomized="0"
       inkscape:transform-center-x="-0.33545602"
       inkscape:transform-center-y="-0.36366314"
       d="m 65.123677,88.118379 -4.532268,1.162053 1.259766,-4.506086 z"
       transform="translate(0,123.99969)" />
    <path
       sodipodi:type="star"
       style="display:inline;fill:#ff0000;fill-opacity:1;stroke:none;stroke-width:0.623622;stroke-opacity:1"
       id="path17378-21"
       inkscape:flatsided="true"
       sodipodi:sides="3"
       sodipodi:cx="62.522087"
       sodipodi:cy="87.391052"
       sodipodi:r1="2.7013469"
       sodipodi:r2="1.3506734"
       sodipodi:arg1="0.27260982"
       sodipodi:arg2="1.3198074"
       inkscape:rounded="0"
       inkscape:randomized="0"
       inkscape:transform-center-x="-0.33545602"
       inkscape:transform-center-y="-0.36366314"
       d="m 65.123677,88.118379 -4.532268,1.162053 1.259766,-4.506086 z"
       transform="translate(0,154.99969)" />
    <path
       sodipodi:type="star"
       style="display:inline;fill:#ff0000;fill-opacity:1;stroke:none;stroke-width:0.623622;stroke-opacity:1"
       id="path17378-16"
       inkscape:flatsided="true"
       sodipodi:sides="3"
       sodipodi:cx="62.522087"
       sodipodi:cy="87.391052"
       sodipodi:r1="2.7013469"
       sodipodi:r2="1.3506734"
       sodipodi:arg1="0.27260982"
       sodipodi:arg2="1.3198074"
       inkscape:rounded="0"
       inkscape:randomized="0"
       inkscape:transform-center-x="-0.33545602"
       inkscape:transform-center-y="-0.36366314"
       d="m 65.123677,88.118379 -4.532268,1.162053 1.259766,-4.506086 z"
       transform="translate(0,185.99969)" />
    <path
       sodipodi:type="star"
       style="display:inline;fill:#ff0000;fill-opacity:1;stroke:none;stroke-width:0.623622;stroke-opacity:1"
       id="path17378-82"
       inkscape:flatsided="true"
       sodipodi:sides="3"
       sodipodi:cx="62.522087"
       sodipodi:cy="87.391052"
       sodipodi:r1="2.7013469"
       sodipodi:r2="1.3506734"
       sodipodi:arg1="0.27260982"
       sodipodi:arg2="1.3198074"
       inkscape:rounded="0"
       inkscape:randomized="0"
       inkscape:transform-center-x="-0.33545602"
       inkscape:transform-center-y="-0.36366314"
       d="m 65.123677,88.118379 -4.532268,1.162053 1.259766,-4.506086 z"
       transform="translate(0,216.99969)" />
    <path
       sodipodi:type="star"
       style="display:inline;fill:#ff0000;fill-opacity:1;stroke:none;stroke-width:0.623622;stroke-opacity:1"
       id="path17378-9"
       inkscape:flatsided="true"
       sodipodi:sides="3"
       sodipodi:cx="62.522087"
       sodipodi:cy="87.391052"
       sodipodi:r1="2.7013469"
       sodipodi:r2="1.3506734"
       sodipodi:arg1="0.27260982"
       sodipodi:arg2="1.3198074"
       inkscape:rounded="0"
       inkscape:randomized="0"
       inkscape:transform-center-x="-0.33545602"
       inkscape:transform-center-y="-0.36366314"
       d="m 65.123677,88.118379 -4.532268,1.162053 1.259766,-4.506086 z"
       transform="translate(0,247.99969)" />
    <path
       sodipodi:type="star"
       style="display:inline;fill:#ff0000;fill-opacity:1;stroke:none;stroke-width:0.623622;stroke-opacity:1"
       id="path17378-95"
       inkscape:flatsided="true"
       sodipodi:sides="3"
       sodipodi:cx="62.522087"
       sodipodi:cy="87.391052"
       sodipodi:r1="2.7013469"
       sodipodi:r2="1.3506734"
       sodipodi:arg1="0.27260982"
       sodipodi:arg2="1.3198074"
       inkscape:rounded="0"
       inkscape:randomized="0"
       inkscape:transform-center-x="-0.33545602"
       inkscape:transform-center-y="-0.36366314"
       d="m 65.123677,88.118379 -4.532268,1.162053 1.259766,-4.506086 z"
       transform="translate(0,-31.000314)" />
    <path
       sodipodi:type="star"
       style="display:inline;fill:#ff0000;fill-opacity:1;stroke:none;stroke-width:0.623622;stroke-opacity:1"
       id="path17378-95-9"
       inkscape:flatsided="true"
       sodipodi:sides="3"
       sodipodi:cx="62.522087"
       sodipodi:cy="87.391052"
       sodipodi:r1="2.7013469"
       sodipodi:r2="1.3506734"
       sodipodi:arg1="0.27260982"
       sodipodi:arg2="1.3198074"
       inkscape:rounded="0"
       inkscape:randomized="0"
       inkscape:transform-center-x="-0.023243257"
       inkscape:transform-center-y="0.65510588"
       transform="rotate(-44.633205,34.135029,135.58449)"
       d="m 65.123677,88.118379 -4.532268,1.162053 1.259766,-4.506086 z" />
    <path
       sodipodi:type="star"
       style="display:inline;fill:#ff0000;fill-opacity:1;stroke:none;stroke-width:0.623622;stroke-opacity:1"
       id="path17378-95-9-8"
       inkscape:flatsided="true"
       sodipodi:sides="3"
       sodipodi:cx="62.522087"
       sodipodi:cy="87.391052"
       sodipodi:r1="2.7013469"
       sodipodi:r2="1.3506734"
       sodipodi:arg1="0.27260982"
       sodipodi:arg2="1.3198074"
       inkscape:rounded="0"
       inkscape:randomized="0"
       inkscape:transform-center-x="-0.023243257"
       inkscape:transform-center-y="0.65510588"
       transform="rotate(-44.633205,336.22892,259.5845)"
       d="m 65.123677,88.118379 -4.532268,1.162053 1.259766,-4.506086 z" />
    <path
       sodipodi:type="star"
       style="display:inline;fill:#ff0000;fill-opacity:1;stroke:none;stroke-width:0.623622;stroke-opacity:1"
       id="path17378-95-9-1"
       inkscape:flatsided="true"
       sodipodi:sides="3"
       sodipodi:cx="62.522087"
       sodipodi:cy="87.391052"
       sodipodi:r1="2.7013469"
       sodipodi:r2="1.3506734"
       sodipodi:arg1="0.27260982"
       sodipodi:arg2="1.3198074"
       inkscape:rounded="0"
       inkscape:randomized="0"
       inkscape:transform-center-x="-0.023243257"
       inkscape:transform-center-y="0.65510588"
       transform="rotate(-44.633205,298.46719,244.0845)"
       d="m 65.123677,88.118379 -4.532268,1.162053 1.259766,-4.506086 z" />
    <path
       sodipodi:type="star"
       style="display:inline;fill:#ff0000;fill-opacity:1;stroke:none;stroke-width:0.623622;stroke-opacity:1"
       id="path17378-95-9-6"
       inkscape:flatsided="true"
       sodipodi:sides="3"
       sodipodi:cx="62.522087"
       sodipodi:cy="87.391052"
       sodipodi:r1="2.7013469"
       sodipodi:r2="1.3506734"
       sodipodi:arg1="0.27260982"
       sodipodi:arg2="1.3198074"
       inkscape:rounded="0"
       inkscape:randomized="0"
       inkscape:transform-center-x="-0.023243257"
       inkscape:transform-center-y="0.65510588"
       transform="rotate(-44.633205,260.70547,228.5845)"
       d="m 65.123677,88.118379 -4.532268,1.162053 1.259766,-4.506086 z" />
    <path
       sodipodi:type="star"
       style="display:inline;fill:#ff0000;fill-opacity:1;stroke:none;stroke-width:0.623622;stroke-opacity:1"
       id="path17378-95-9-9"
       inkscape:flatsided="true"
       sodipodi:sides="3"
       sodipodi:cx="62.522087"
       sodipodi:cy="87.391052"
       sodipodi:r1="2.7013469"
       sodipodi:r2="1.3506734"
       sodipodi:arg1="0.27260982"
       sodipodi:arg2="1.3198074"
       inkscape:rounded="0"
       inkscape:randomized="0"
       inkscape:transform-center-x="-0.023243257"
       inkscape:transform-center-y="0.65510588"
       transform="rotate(-44.633205,222.94372,213.0845)"
       d="m 65.123677,88.118379 -4.532268,1.162053 1.259766,-4.506086 z" />
    <path
       sodipodi:type="star"
       style="display:inline;fill:#ff0000;fill-opacity:1;stroke:none;stroke-width:0.623622;stroke-opacity:1"
       id="path17378-95-9-16"
       inkscape:flatsided="true"
       sodipodi:sides="3"
       sodipodi:cx="62.522087"
       sodipodi:cy="87.391052"
       sodipodi:r1="2.7013469"
       sodipodi:r2="1.3506734"
       sodipodi:arg1="0.27260982"
       sodipodi:arg2="1.3198074"
       inkscape:rounded="0"
       inkscape:randomized="0"
       inkscape:transform-center-x="-0.023243257"
       inkscape:transform-center-y="0.65510588"
       transform="rotate(-44.633205,185.18198,197.58449)"
       d="m 65.123677,88.118379 -4.532268,1.162053 1.259766,-4.506086 z" />
    <path
       sodipodi:type="star"
       style="display:inline;fill:#ff0000;fill-opacity:1;stroke:none;stroke-width:0.623622;stroke-opacity:1"
       id="path17378-95-9-63"
       inkscape:flatsided="true"
       sodipodi:sides="3"
       sodipodi:cx="62.522087"
       sodipodi:cy="87.391052"
       sodipodi:r1="2.7013469"
       sodipodi:r2="1.3506734"
       sodipodi:arg1="0.27260982"
       sodipodi:arg2="1.3198074"
       inkscape:rounded="0"
       inkscape:randomized="0"
       inkscape:transform-center-x="-0.023243257"
       inkscape:transform-center-y="0.65510588"
       transform="rotate(-44.633205,147.42025,182.0845)"
       d="m 65.123677,88.118379 -4.532268,1.162053 1.259766,-4.506086 z" />
    <path
       sodipodi:type="star"
       style="display:inline;fill:#ff0000;fill-opacity:1;stroke:none;stroke-width:0.623622;stroke-opacity:1"
       id="path17378-95-9-17"
       inkscape:flatsided="true"
       sodipodi:sides="3"
       sodipodi:cx="62.522087"
       sodipodi:cy="87.391052"
       sodipodi:r1="2.7013469"
       sodipodi:r2="1.3506734"
       sodipodi:arg1="0.27260982"
       sodipodi:arg2="1.3198074"
       inkscape:rounded="0"
       inkscape:randomized="0"
       inkscape:transform-center-x="-0.023243257"
       inkscape:transform-center-y="0.65510588"
       transform="rotate(-44.633205,109.6585,166.58449)"
       d="m 65.123677,88.118379 -4.532268,1.162053 1.259766,-4.506086 z" />
    <path
       sodipodi:type="star"
       style="display:inline;fill:#ff0000;fill-opacity:1;stroke:none;stroke-width:0.623622;stroke-opacity:1"
       id="path17378-95-9-12"
       inkscape:flatsided="true"
       sodipodi:sides="3"
       sodipodi:cx="62.522087"
       sodipodi:cy="87.391052"
       sodipodi:r1="2.7013469"
       sodipodi:r2="1.3506734"
       sodipodi:arg1="0.27260982"
       sodipodi:arg2="1.3198074"
       inkscape:rounded="0"
       inkscape:randomized="0"
       inkscape:transform-center-x="-0.023243257"
       inkscape:transform-center-y="0.65510588"
       transform="rotate(-44.633205,71.896763,151.08449)"
       d="m 65.123677,88.118379 -4.532268,1.162053 1.259766,-4.506086 z" />
  </g>
  <g
     inkscape:groupmode="layer"
     id="layer10"
     inkscape:label="Contrast Line"
     style="display:inline">
    <path
       style="display:inline;fill:none;stroke:#ff0000;stroke-width:0.999994px;stroke-linecap:butt;stroke-linejoin:miter;stroke-opacity:1"
       d="M 84.146218,66.853324 61.357906,88.563646"
       id="path16742"
       sodipodi:nodetypes="cc" />
    <path
       style="display:inline;fill:none;stroke:#ff0000;stroke-width:0.999994px;stroke-linecap:butt;stroke-linejoin:miter;stroke-opacity:1"
       d="M 84.146218,97.85301 61.357906,119.56333"
       id="path16742-2"
       sodipodi:nodetypes="cc" />
    <path
       style="display:inline;fill:none;stroke:#ff0000;stroke-width:0.999994px;stroke-linecap:butt;stroke-linejoin:miter;stroke-opacity:1"
       d="M 84.146218,128.85301 61.357906,150.56333"
       id="path16742-5"
       sodipodi:nodetypes="cc" />
    <path
       style="display:inline;fill:none;stroke:#ff0000;stroke-width:0.999994px;stroke-linecap:butt;stroke-linejoin:miter;stroke-opacity:1"
       d="M 84.146218,159.85301 61.357906,181.56333"
       id="path16742-0"
       sodipodi:nodetypes="cc" />
    <path
       style="display:inline;fill:none;stroke:#ff0000;stroke-width:0.999994px;stroke-linecap:butt;stroke-linejoin:miter;stroke-opacity:1"
       d="M 84.146218,190.85301 61.357906,212.56334"
       id="path16742-08"
       sodipodi:nodetypes="cc" />
    <path
       style="display:inline;fill:none;stroke:#ff0000;stroke-width:0.999994px;stroke-linecap:butt;stroke-linejoin:miter;stroke-opacity:1"
       d="M 84.146218,221.85301 61.357906,243.56334"
       id="path16742-65"
       sodipodi:nodetypes="cc" />
    <path
       style="display:inline;fill:none;stroke:#ff0000;stroke-width:0.999994px;stroke-linecap:butt;stroke-linejoin:miter;stroke-opacity:1"
       d="M 84.146218,252.85301 61.357906,274.56334"
       id="path16742-02"
       sodipodi:nodetypes="cc" />
    <path
       style="display:inline;fill:none;stroke:#ff0000;stroke-width:0.999994px;stroke-linecap:butt;stroke-linejoin:miter;stroke-opacity:1"
       d="M 84.146218,283.85301 61.357906,305.56334"
       id="path16742-50"
       sodipodi:nodetypes="cc" />
    <path
       style="display:inline;fill:none;stroke:#ff0000;stroke-width:0.999994px;stroke-linecap:butt;stroke-linejoin:miter;stroke-opacity:1"
       d="M 84.146218,314.85301 61.357906,336.56334"
       id="path16742-4"
       sodipodi:nodetypes="cc" />
    <path
       style="display:inline;fill:none;stroke:#ff0000;stroke-width:0.999999px;stroke-linecap:butt;stroke-linejoin:miter;stroke-opacity:1"
       d="m 68.059512,51.26516 -6.7,6.299743"
       id="path16742-43"
       sodipodi:nodetypes="cc" />
    <path
       style="fill:none;stroke:#ff0000;stroke-width:0.999999px;stroke-linecap:butt;stroke-linejoin:miter;stroke-opacity:1"
       d="m 67.949999,35.503 1.4e-5,294.66063"
       id="path25019" />
  </g>
  <text
     xml:space="preserve"
     id="text29904"
     style="font-weight:bold;font-size:8px;line-height:1.25;font-family:Arial;-inkscape-font-specification:'Arial, Bold';font-variant-ligatures:none;text-align:center;white-space:pre;shape-inside:url(#rect29906)" />
  <g
     inkscape:groupmode="layer"
     id="layer1"
     inkscape:label="Widgets"
     style="display:none">
    <circle
       style="fill:#ff0000;stroke:#ff0000;stroke-width:1.94925;stroke-opacity:1"
       id="path1065"
       cx="52.5"
       cy="314.50046"
       r="10.525375" />
    <circle
       style="fill:#ff0000;stroke:#ff0000;stroke-width:1.94925;stroke-opacity:1"
       id="path1065-7"
       cx="52.5"
       cy="283.50046"
       r="10.525375" />
    <circle
       style="fill:#ff0000;stroke:#ff0000;stroke-width:1.94925;stroke-opacity:1"
       id="path1065-7-1"
       cx="52.5"
       cy="252.50044"
       r="10.525375" />
    <circle
       style="display:inline;fill:#ff0000;stroke:#ff0000;stroke-width:1.94925;stroke-opacity:1"
       id="path1065-7-1-8"
       cx="52.5"
       cy="221.50044"
       r="10.525375" />
    <circle
       style="display:inline;fill:#ff0000;stroke:#ff0000;stroke-width:1.94925;stroke-opacity:1"
       id="path1065-7-1-17"
       cx="52.5"
       cy="190.50044"
       r="10.525375" />
    <circle
       style="display:inline;fill:#ff0000;stroke:#ff0000;stroke-width:1.94925;stroke-opacity:1"
       id="path1065-7-1-89"
       cx="52.5"
       cy="159.50044"
       r="10.525375" />
    <circle
       style="display:inline;fill:#ff0000;stroke:#ff0000;stroke-width:1.94925;stroke-opacity:1"
       id="path1065-7-1-2"
       cx="52.5"
       cy="128.50046"
       r="10.525375" />
    <circle
       style="display:inline;fill:#ff0000;stroke:#ff0000;stroke-width:1.94925;stroke-opacity:1"
       id="path1065-7-1-7"
       cx="52.5"
       cy="97.500458"
       r="10.525375" />
    <circle
       style="display:inline;fill:#ff0000;stroke:#ff0000;stroke-width:1.94925;stroke-opacity:1"
       id="path1065-7-1-15"
       cx="52.5"
       cy="66.500458"
       r="10.525375" />
    <circle
       style="display:inline;fill:#ff0000;stroke:#ff0000;stroke-width:1.94925;stroke-opacity:1"
       id="path1065-1"
       cx="52.5"
       cy="345.50046"
       r="10.525375" />
    <circle
       style="display:inline;fill:#ff0000;stroke:#ff0000;stroke-width:1.94925;stroke-opacity:1"
       id="path1065-5"
       cx="84.5"
       cy="314.50046"
       r="10.525375" />
    <circle
       style="display:inline;fill:#ff0000;stroke:#ff0000;stroke-width:1.94925;stroke-opacity:1"
       id="path1065-7-2"
       cx="84.5"
       cy="283.50046"
       r="10.525375" />
    <circle
       style="display:inline;fill:#ff0000;stroke:#ff0000;stroke-width:1.94925;stroke-opacity:1"
       id="path1065-7-1-1"
       cx="84.5"
       cy="252.50044"
       r="10.525375" />
    <circle
       style="display:inline;fill:#ff0000;stroke:#ff0000;stroke-width:1.94925;stroke-opacity:1"
       id="path1065-7-1-8-5"
       cx="84.5"
       cy="221.50044"
       r="10.525375" />
    <circle
       style="display:inline;fill:#ff0000;stroke:#ff0000;stroke-width:1.94925;stroke-opacity:1"
       id="path1065-7-1-17-4"
       cx="84.5"
       cy="190.50044"
       r="10.525375" />
    <circle
       style="display:inline;fill:#ff0000;stroke:#ff0000;stroke-width:1.94925;stroke-opacity:1"
       id="path1065-7-1-89-8"
       cx="84.5"
       cy="159.50044"
       r="10.525375" />
    <circle
       style="display:inline;fill:#ff0000;stroke:#ff0000;stroke-width:1.94925;stroke-opacity:1"
       id="path1065-7-1-2-1"
       cx="84.5"
       cy="128.50046"
       r="10.525375" />
    <circle
       style="display:inline;fill:#ff0000;stroke:#ff0000;stroke-width:1.94925;stroke-opacity:1"
       id="path1065-7-1-7-2"
       cx="84.5"
       cy="97.500458"
       r="10.525375" />
    <circle
       style="display:inline;fill:#ff0000;stroke:#ff0000;stroke-width:1.94925;stroke-opacity:1"
       id="path1065-7-1-15-3"
       cx="84.5"
       cy="66.500458"
       r="10.525375" />
    <circle
       style="display:inline;fill:#ff0000;stroke:#ff0000;stroke-width:1.94925;stroke-opacity:1"
       id="path1065-1-2"
       cx="84.5"
       cy="345.50046"
       r="10.525375" />
    <circle
       style="display:inline;fill:#ff0000;stroke:#ff0000;stroke-width:1.94925;stroke-opacity:1"
       id="path1065-5-0"
       cx="20.5"
       cy="314.50046"
       r="10.525375" />
    <circle
       style="display:inline;fill:#ff0000;stroke:#ff0000;stroke-width:1.94925;stroke-opacity:1"
       id="path1065-7-2-1"
       cx="20.5"
       cy="283.50046"
       r="10.525375" />
    <circle
       style="display:inline;fill:#ff0000;stroke:#ff0000;stroke-width:1.94925;stroke-opacity:1"
       id="path1065-7-1-1-0"
       cx="20.5"
       cy="252.50046"
       r="10.525375" />
    <circle
       style="display:inline;fill:#ff0000;stroke:#ff0000;stroke-width:1.94925;stroke-opacity:1"
       id="path1065-7-1-8-5-5"
       cx="20.5"
       cy="221.50046"
       r="10.525375" />
    <circle
       style="display:inline;fill:#ff0000;stroke:#ff0000;stroke-width:1.94925;stroke-opacity:1"
       id="path1065-7-1-17-4-6"
       cx="20.5"
       cy="190.50046"
       r="10.525375" />
    <circle
       style="display:inline;fill:#ff0000;stroke:#ff0000;stroke-width:1.94925;stroke-opacity:1"
       id="path1065-7-1-89-8-4"
       cx="20.5"
       cy="159.50046"
       r="10.525375" />
    <circle
       style="display:inline;fill:#ff0000;stroke:#ff0000;stroke-width:1.94925;stroke-opacity:1"
       id="path1065-7-1-2-1-3"
       cx="20.5"
       cy="128.50046"
       r="10.525375" />
    <circle
       style="display:inline;fill:#ff0000;stroke:#ff0000;stroke-width:1.94925;stroke-opacity:1"
       id="path1065-7-1-7-2-3"
       cx="20.5"
       cy="97.500458"
       r="10.525375" />
    <circle
       style="display:inline;fill:#ff0000;stroke:#ff0000;stroke-width:1.94925;stroke-opacity:1"
       id="path1065-7-1-15-3-5"
       cx="20.5"
       cy="66.500458"
       r="10.525375" />
    <circle
       style="display:inline;fill:#ff0000;stroke:#ff0000;stroke-width:1.94925;stroke-opacity:1"
       id="path1065-1-2-3"
       cx="20.5"
       cy="345.50046"
       r="10.525375" />
    <circle
       style="display:inline;fill:#ff0000;stroke:#ff0000;stroke-width:1.94925;stroke-opacity:1"
       id="path1065-7-1-15-3-1"
       cx="65.166672"
       cy="34.5"
       r="4.5253749" />
    <circle
       style="display:inline;fill:#ff0000;stroke:#ff0000;stroke-width:1.94925;stroke-opacity:1"
       id="path1065-7-1-15-3-1-5"
       cx="90.5"
       cy="34.5"
       r="4.5253749" />
    <circle
       style="display:inline;fill:#ff0000;stroke:#ff0000;stroke-width:1.94925;stroke-opacity:1"
       id="path1065-7-1-15-3-1-8"
       cx="14.5"
       cy="34.5"
       r="4.5253749" />
    <circle
       style="display:inline;fill:#ff0000;stroke:#ff0000;stroke-width:1.94925;stroke-opacity:1"
       id="path1065-7-1-15-3-1-6"
       cx="39.833336"
       cy="34.5"
       r="4.5253749" />
  </g>
</svg>
