<?xml version="1.0" encoding="UTF-8" standalone="no"?>
<svg
   width="45"
   height="380"
   viewBox="0 0 45 380"
   version="1.1"
   id="svg100"
   sodipodi:docname="PolyPrune_Coal.svg"
   inkscape:version="1.1.1 (3bf5ae0d25, 2021-09-20)"
   xmlns:inkscape="http://www.inkscape.org/namespaces/inkscape"
   xmlns:sodipodi="http://sodipodi.sourceforge.net/DTD/sodipodi-0.dtd"
   xmlns="http://www.w3.org/2000/svg"
   xmlns:svg="http://www.w3.org/2000/svg"
   xmlns:rdf="http://www.w3.org/1999/02/22-rdf-syntax-ns#"
   xmlns:cc="http://creativecommons.org/ns#"
   xmlns:dc="http://purl.org/dc/elements/1.1/">
  <metadata
     id="metadata104">
    <rdf:RDF>
      <cc:Work
         rdf:about="">
        <dc:format>image/svg+xml</dc:format>
        <dc:type
           rdf:resource="http://purl.org/dc/dcmitype/StillImage" />
      </cc:Work>
    </rdf:RDF>
  </metadata>
  <sodipodi:namedview
     pagecolor="#ffffff"
     bordercolor="#666666"
     borderopacity="1"
     objecttolerance="1"
     gridtolerance="1"
     guidetolerance="1"
     inkscape:pageopacity="0"
     inkscape:pageshadow="2"
     inkscape:window-width="1920"
     inkscape:window-height="1057"
     id="namedview102"
     showgrid="false"
     inkscape:zoom="2.2342105"
     inkscape:cx="22.37927"
     inkscape:cy="190"
     inkscape:window-x="1592"
     inkscape:window-y="-8"
     inkscape:window-maximized="1"
     inkscape:current-layer="layer6"
     inkscape:pagecheckerboard="0"
     units="px"
     inkscape:showpageshadow="false"
     showborder="true"
     showguides="false">
    <inkscape:grid
       type="xygrid"
       id="grid1285"
       visible="true" />
  </sodipodi:namedview>
  <defs
     id="defs7">
    <rect
       x="85"
       y="10"
       width="51.058132"
       height="25"
       id="rect29906" />
    <linearGradient
       id="a8e142bb-541b-4903-be63-d5d069028a5d"
       x1="22.5"
       x2="22.5"
       y2="380"
       gradientUnits="userSpaceOnUse">
      <stop
         offset="0"
         stop-color="#ebebeb"
         id="stop2" />
      <stop
         offset="1"
         stop-color="#e1e1e1"
         id="stop4" />
    </linearGradient>
  </defs>
  <g
     inkscape:groupmode="layer"
     id="layer2"
     inkscape:label="Faceplate"
     style="display:inline">
    <g
       id="aea613ef-74be-49bf-be45-c0734aee674b"
       data-name="FND BG"
       style="fill:#252525;fill-opacity:1">
      <rect
         width="45"
         height="380"
         fill="url(#a8e142bb-541b-4903-be63-d5d069028a5d)"
         id="rect9"
         style="fill:#252525;fill-opacity:1"
         x="0"
         y="0" />
    </g>
  </g>
  <g
     inkscape:groupmode="layer"
     id="layer3"
     inkscape:label="Brand"
     style="display:inline">
    <g
       id="g42796"
       transform="matrix(0.30458296,0,0,0.30458296,-0.5624499,-12.68508)"
       style="fill:#ff0000">
      <g
         aria-label="enom"
         id="text4270-27"
         style="font-size:49.3889px;line-height:1.25;font-family:'NECK ROMANCER';-inkscape-font-specification:'NECK ROMANCER, Normal';font-variant-ligatures:none;text-align:center;text-anchor:middle;fill:#ff0000;stroke-width:2.64583">
        <path
           d="m 46.609141,1249.244 q 0,1.1576 0,3.4245 3.183269,0 9.453344,0 -1.639866,0.5787 -2.990343,1.2058 -1.350478,0.627 -2.363337,1.688 -1.350477,0 -4.051433,0 0,1.4952 0.434082,2.5563 0.385851,1.1093 1.832792,1.1093 2.266873,0 6.80062,0 0.482313,-0.1447 0.868164,-0.627 0.337619,-0.5305 0.627007,-1.7363 0,2.0257 0,6.1254 -3.520888,0 -10.562665,0 -1.543403,0 -2.652724,-2.2187 -1.109321,-2.1704 -1.109321,-6.3183 0,-1.9775 0,-5.836 -0.385851,-1.3504 -1.881023,-2.1221 -1.495171,-0.7235 -3.569119,-1.2058 6.607694,0 19.774852,0 0,2.9421 0,8.7781 -1.205783,-2.701 -2.218642,-3.6656 -1.012858,-0.9646 -2.700955,-1.1093 -0.916396,-0.097 -2.170411,-0.097 -1.205783,0.048 -2.845649,0.048 -0.241157,0 -0.675239,0 z"
           id="path42762"
           style="fill:#ff0000" />
        <path
           d="m 81.576869,1245.2891 q 0,5.8842 0,17.7009 0,3.0868 -0.144694,6.0771 -0.09646,3.0386 -0.337619,5.9325 -0.385851,-3.7138 -0.964627,-6.9936 -0.530545,-3.3279 -2.025717,-5.016 0,-2.9904 0,-8.9228 -0.241157,-1.3505 -0.72347,-2.2187 -0.482314,-0.8681 -1.06109,-1.3987 -1.109321,-1.0128 -2.411567,-1.1093 -1.350478,-0.097 -2.266874,-0.097 -0.482313,0 -1.44694,0 0,4.582 0,13.746 0,3.0868 -0.09646,6.0771 -0.144694,3.0386 -0.385851,5.9325 -0.38585,-3.7138 -0.916395,-6.9936 -0.578776,-3.3279 -2.025717,-5.016 0,-4.8232 0,-14.373 -0.385851,-1.3504 -1.881022,-2.1221 -1.495172,-0.7235 -3.56912,-1.2058 6.752389,0 20.257166,0 z"
           id="path42764"
           style="fill:#ff0000" />
        <path
           d="m 104.19737,1249.0511 q 0,3.3762 0,10.1768 0,1.5434 -1.92925,2.6528 -1.92926,1.1093 -6.077152,1.1093 -4.196128,0 -6.125382,-1.1093 -1.929254,-1.1094 -1.929254,-2.6528 0,-3.3762 0,-10.1768 0,-1.5434 1.929254,-2.6527 1.929254,-1.1093 6.125382,-1.1093 4.147892,0 6.077152,1.1093 1.92925,1.1093 1.92925,2.6527 z m -3.76204,7.91 q 0,-1.8811 0,-5.6431 0,-1.6881 -1.254019,-1.9775 -1.205783,-0.2894 -2.990343,-0.2894 -1.832792,0 -3.038575,0.2894 -1.254015,0.2894 -1.254015,1.9775 0,1.881 0,5.6431 0,1.6881 1.254015,1.9774 1.205783,0.2894 3.038575,0.2894 1.78456,0 2.990343,-0.2894 1.254019,-0.2893 1.254019,-1.9774 z"
           id="path42766"
           style="fill:#ff0000" />
        <path
           d="m 142.34837,1245.2891 q -2.02572,0.4823 -3.52089,1.2058 -1.5434,0.7717 -1.88102,2.1221 0,4.7749 0,14.373 -1.49517,1.6881 -2.02572,5.016 -0.57878,3.2798 -0.96463,6.9936 -0.24115,-2.8939 -0.33762,-5.9325 -0.14469,-2.9903 -0.14469,-6.0771 0,-4.582 0,-13.746 -0.48231,0 -1.39871,0 -0.53054,0 -1.15755,0 -0.62701,0 -1.30225,0.1447 -1.25401,0.2412 -2.41157,1.2058 -1.15755,0.9646 -1.63986,3.4727 0,2.9903 0,8.9228 -0.1447,0.627 -0.28939,1.1093 -0.0965,0.4823 -0.19292,0.8199 -0.53055,1.9775 -0.38586,1.3505 0.19293,-0.627 -0.28938,1.1576 -0.0965,0.3376 -0.24116,0.8681 -0.14469,0.5306 -0.33762,1.3023 -0.14469,-0.6753 -0.28939,-1.2058 -0.14469,-0.4823 -0.24115,-0.8199 -0.53055,-2.0258 -0.33762,-1.3023 0.19292,0.7717 -0.43409,-1.6881 -0.0482,-0.2894 -0.19292,-0.7235 -0.0965,-0.3858 -0.19293,-0.8681 0,-2.9904 0,-8.9228 -0.28939,-1.3505 -0.7717,-2.2187 -0.48231,-0.8681 -1.06109,-1.3987 -1.10932,-1.0128 -2.41157,-1.1093 -1.30224,-0.097 -2.26687,-0.097 -0.48231,0 -1.39871,0 0,4.582 0,13.746 0,3.0868 -0.14469,6.0771 -0.0965,3.0386 -0.33762,5.9325 -0.38585,-3.7138 -0.96463,-6.9936 -0.53054,-3.3279 -2.02572,-5.016 0,-4.8232 0,-14.373 -0.38585,-1.3504 -1.88102,-2.1221 -1.49517,-0.7235 -3.56912,-1.2058 3.95497,0 11.76845,0 1.15755,0.3858 3.47266,1.1575 0.7717,0.2894 1.59163,0.4341 0.81994,0.1447 1.6881,0.1447 0.86816,0 1.73633,-0.1447 0.81993,-0.1447 1.59163,-0.4341 1.15756,-0.3858 3.42443,-1.1575 3.95497,0 11.76845,0 z"
           id="path42768"
           style="fill:#ff0000" />
      </g>
      <g
         aria-label="V"
         transform="matrix(1.2363173,0,0,0.80885384,-497.88086,123.48586)"
         id="text4270-3-5-2"
         style="font-size:78.5061px;line-height:1.25;font-family:Nosferotica;-inkscape-font-specification:'Nosferotica, Normal';font-variant-ligatures:none;text-align:center;text-anchor:middle;fill:#ff0000;stroke-width:3.27108">
        <path
           d="m 431.64994,1360.6864 8.57428,-0.1022 c 0,0 -4.4079,1.0878 -5.59925,3.7285 -1.88083,4.1689 -3.64217,14.6628 -3.64217,14.6628 l -2.23339,11.5191 -1.83311,11.8311 -1.71824,21.3112 -1.69514,-21.3112 -1.92196,-11.5208 -2.5009,-11.8294 c 0,0 -1.52027,-10.287 -3.38278,-14.4832 -1.14458,-2.5787 -5.63367,-3.8059 -5.63367,-3.8059 h 8.4657 l 6.66875,29.1569 z"
           id="path30410"
           sodipodi:nodetypes="ccscccccccscccc"
           style="fill:#ff0000" />
      </g>
    </g>
  </g>
  <g
     inkscape:groupmode="layer"
     id="layer4"
     inkscape:label="Solid"
     style="display:inline">
    <rect
       style="display:inline;fill:#ede7dc;fill-opacity:1;stroke:none;stroke-width:0.623623"
       id="rect17730-2-9-9"
       width="32"
       height="39.849289"
       x="6.5"
       y="316.15073"
       ry="6.2661967"
       rx="6.2661953" />
    <path
       style="color:#000000;display:inline;fill:#ede7dc;fill-opacity:1;-inkscape-stroke:none"
       d="m 22,228.02127 v 29 h 1 v -29 z"
       id="path1313-6" />
    <path
       style="color:#000000;display:inline;fill:#ede7dc;fill-opacity:1;-inkscape-stroke:none"
       d="m 22,148.52146 v 29 h 1 v -29 z"
       id="path1313-6-5" />
    <g
       aria-label="POLY"
       id="text18978"
       style="font-weight:bold;font-size:10.6667px;line-height:1.25;font-family:Arial;-inkscape-font-specification:'Arial, Bold';font-variant-ligatures:none;text-align:center;text-anchor:middle;display:inline;fill:#ede7dc;fill-opacity:1"
       transform="translate(0,-0.9998397)">
      <path
         d="M 8.8515194,15.665489 V 8.0300484 h 2.4739666 q 1.406254,0 1.833339,0.1145837 0.656252,0.1718755 1.098961,0.7500024 0.44271,0.5729185 0.44271,1.4843795 0,0.703127 -0.255209,1.182296 -0.255209,0.479168 -0.651044,0.75521 -0.390626,0.270834 -0.796877,0.359376 -0.552085,0.109376 -1.598964,0.109376 h -1.005211 v 2.880217 z M 10.393191,9.3217192 v 2.1666738 h 0.843753 q 0.911461,0 1.218753,-0.119792 0.307293,-0.119792 0.479169,-0.375002 0.177083,-0.255209 0.177083,-0.593751 0,-0.4166684 -0.244792,-0.6875026 -0.244792,-0.2708342 -0.619794,-0.3385427 -0.276042,-0.052084 -1.109378,-0.052084 z"
         id="path21113"
         style="fill:#ede7dc;fill-opacity:1" />
      <path
         d="m 15.653624,11.894644 q 0,-1.16667 0.34896,-1.9583396 0.260417,-0.5833351 0.708335,-1.0468783 0.453127,-0.4635431 0.989587,-0.6875021 0.713544,-0.3020843 1.645838,-0.3020843 1.687506,0 2.697925,1.0468783 1.015629,1.0468783 1.015629,2.911468 0,1.848964 -1.005212,2.895842 -1.005211,1.04167 -2.687508,1.04167 -1.703131,0 -2.708342,-1.036462 -1.005212,-1.04167 -1.005212,-2.864592 z m 1.588547,-0.05208 q 0,1.29688 0.59896,1.968757 0.59896,0.666668 1.520838,0.666668 0.921878,0 1.510422,-0.66146 0.593752,-0.666669 0.593752,-1.994798 0,-1.312504 -0.578127,-1.9583395 -0.572919,-0.6458353 -1.526047,-0.6458353 -0.953128,0 -1.536463,0.656252 -0.583335,0.6510438 -0.583335,1.9687558 z"
         id="path21115"
         style="fill:#ede7dc;fill-opacity:1" />
      <path
         d="M 24.304693,15.665489 V 8.0925486 h 1.541671 v 6.2864784 h 3.833346 v 1.286462 z"
         id="path21117"
         style="fill:#ede7dc;fill-opacity:1" />
      <path
         d="M 31.804717,15.665489 V 12.451937 L 29.007833,8.0300484 h 1.807297 l 1.796881,3.0208426 1.760422,-3.0208426 h 1.776048 L 33.34118,12.462354 v 3.203135 z"
         id="path21119"
         style="fill:#ede7dc;fill-opacity:1" />
    </g>
    <g
       aria-label="PRUNE"
       id="text18978-2"
       style="font-weight:bold;font-size:10.6667px;line-height:1.25;font-family:Arial;-inkscape-font-specification:'Arial, Bold';font-variant-ligatures:none;text-align:center;text-anchor:middle;display:inline;fill:#ede7dc;fill-opacity:1"
       transform="translate(0,-0.9998397)">
      <path
         d="M 4.4843178,27.165442 V 19.530001 H 6.958284 q 1.4062544,0 1.8333391,0.114583 0.6562521,0.171876 1.0989618,0.750003 0.4427101,0.572918 0.4427101,1.484379 0,0.703128 -0.255209,1.182296 -0.2552096,0.479168 -0.6510442,0.755211 -0.3906262,0.270834 -0.7968775,0.359376 -0.5520851,0.109375 -1.5989634,0.109375 H 6.0259894 v 2.880218 z m 1.5416716,-6.343771 v 2.166674 H 6.869742 q 0.9114613,0 1.2187539,-0.119792 0.3072926,-0.119792 0.4791682,-0.375001 0.1770839,-0.255209 0.1770839,-0.593752 0,-0.416668 -0.2447925,-0.687502 -0.2447924,-0.270834 -0.6197936,-0.338543 -0.2760425,-0.05208 -1.1093785,-0.05208 z"
         id="path21122"
         style="fill:#ede7dc;fill-opacity:1" />
      <path
         d="m 11.604132,27.165442 v -7.635441 h 3.244802 q 1.223962,0 1.776047,0.208334 0.557294,0.203125 0.890628,0.729169 0.333334,0.526043 0.333334,1.203128 0,0.859378 -0.505209,1.42188 -0.50521,0.557293 -1.510422,0.703127 0.500002,0.291668 0.822919,0.640627 0.328126,0.34896 0.880211,1.239587 l 0.932295,1.489589 h -1.843756 l -1.114587,-1.661464 q -0.593751,-0.890628 -0.812502,-1.119795 -0.218751,-0.234376 -0.463543,-0.31771 -0.244793,-0.08854 -0.776044,-0.08854 h -0.312501 v 3.187511 z m 1.541672,-4.406264 h 1.140628 q 1.109379,0 1.385421,-0.09375 0.276043,-0.09375 0.432293,-0.322917 0.156251,-0.229168 0.156251,-0.572919 0,-0.385418 -0.208334,-0.619793 -0.203126,-0.239585 -0.578127,-0.302085 -0.187501,-0.02604 -1.125004,-0.02604 h -1.203128 z"
         id="path21124"
         style="fill:#ede7dc;fill-opacity:1" />
      <path
         d="m 19.291656,19.530001 h 1.541671 v 4.135429 q 0,0.984379 0.05729,1.276046 0.09896,0.468752 0.468752,0.755211 0.375001,0.281251 1.020836,0.281251 0.656252,0 0.989587,-0.265626 0.333334,-0.270834 0.401043,-0.661461 0.06771,-0.390626 0.06771,-1.296879 v -4.223971 h 1.541672 v 4.010429 q 0,1.375004 -0.125001,1.942715 -0.125,0.56771 -0.463543,0.958336 -0.333334,0.390626 -0.895836,0.625002 -0.562502,0.229167 -1.468755,0.229167 -1.093753,0 -1.661463,-0.250001 -0.562502,-0.255209 -0.890628,-0.656252 -0.328126,-0.406251 -0.432293,-0.848961 -0.151042,-0.656252 -0.151042,-1.937506 z"
         id="path21126"
         style="fill:#ede7dc;fill-opacity:1" />
      <path
         d="m 27.020847,27.165442 v -7.635441 h 1.500005 l 3.12501,5.098974 v -5.098974 h 1.432296 v 7.635441 h -1.54688 l -3.078134,-4.979183 v 4.979183 z"
         id="path21128"
         style="fill:#ede7dc;fill-opacity:1" />
      <path
         d="m 34.708372,27.165442 v -7.635441 h 5.661476 v 1.29167 h -4.119804 v 1.692714 h 3.833345 v 1.286463 h -3.833345 v 2.078131 h 4.265638 v 1.286463 z"
         id="path21130"
         style="fill:#ede7dc;fill-opacity:1" />
    </g>
    <g
       aria-label="SELECT"
       id="text18978-4"
       style="font-weight:bold;font-size:8px;line-height:1.25;font-family:Arial;-inkscape-font-specification:'Arial, Bold';font-variant-ligatures:none;text-align:center;text-anchor:middle;display:inline;fill:#ede7dc;fill-opacity:1"
       transform="translate(0,-1.000208)">
      <path
         d="m 6.9472656,39.144146 1.125,-0.109375 q 0.1015625,0.566406 0.4101563,0.832031 0.3125,0.265625 0.8398437,0.265625 0.5585938,0 0.8398434,-0.234375 0.285157,-0.238281 0.285157,-0.554687 0,-0.203125 -0.121094,-0.34375 -0.117188,-0.144532 -0.4140626,-0.25 -0.203125,-0.07031 -0.9257813,-0.25 -0.9296875,-0.230469 -1.3046875,-0.566407 -0.5273437,-0.472656 -0.5273437,-1.152343 0,-0.4375 0.2460937,-0.816407 0.25,-0.382812 0.7148438,-0.582031 0.46875,-0.199219 1.1289062,-0.199219 1.0781254,0 1.6210934,0.472657 0.546875,0.472656 0.574219,1.261718 l -1.15625,0.05078 Q 10.208984,36.526958 9.9628906,36.335552 9.7207031,36.14024 9.2324219,36.14024 q -0.5039063,0 -0.7890625,0.207031 -0.1835938,0.132812 -0.1835938,0.355469 0,0.203125 0.171875,0.347656 0.21875,0.183594 1.0625,0.382812 0.8437504,0.199219 1.2460934,0.414063 0.40625,0.210937 0.632813,0.582031 0.230469,0.367188 0.230469,0.910156 0,0.492188 -0.273438,0.921875 -0.273437,0.429688 -0.773437,0.640625 -0.5,0.207032 -1.2460941,0.207032 -1.0859375,0 -1.6679688,-0.5 -0.5820312,-0.503907 -0.6953125,-1.464844 z"
         id="path21133"
         style="fill:#ede7dc;fill-opacity:1" />
      <path
         d="m 12.576172,41.007427 v -5.726562 h 4.246094 v 0.96875 h -3.089844 v 1.269531 h 2.875 v 0.964844 h -2.875 v 1.558593 h 3.199219 v 0.964844 z"
         id="path21135"
         style="fill:#ede7dc;fill-opacity:1" />
      <path
         d="M 17.943359,41.007427 V 35.32774 h 1.15625 v 4.714843 h 2.875 v 0.964844 z"
         id="path21137"
         style="fill:#ede7dc;fill-opacity:1" />
      <path
         d="m 22.798828,41.007427 v -5.726562 h 4.246094 v 0.96875 h -3.089844 v 1.269531 h 2.875 v 0.964844 h -2.875 v 1.558593 h 3.199219 v 0.964844 z"
         id="path21139"
         style="fill:#ede7dc;fill-opacity:1" />
      <path
         d="m 31.798828,38.901958 1.121094,0.355469 q -0.257813,0.9375 -0.859375,1.394531 -0.597656,0.453125 -1.519531,0.453125 -1.140625,0 -1.875,-0.777343 -0.734375,-0.78125 -0.734375,-2.132813 0,-1.429687 0.738281,-2.21875 0.738281,-0.792969 1.941406,-0.792969 1.050781,0 1.707031,0.621094 0.390625,0.367188 0.585938,1.054688 l -1.144531,0.273437 q -0.101563,-0.445312 -0.425782,-0.703125 -0.320312,-0.257812 -0.78125,-0.257812 -0.636718,0 -1.035156,0.457031 -0.394531,0.457031 -0.394531,1.480469 0,1.085937 0.390625,1.546875 0.390625,0.460937 1.015625,0.460937 0.460937,0 0.792969,-0.292969 0.332031,-0.292968 0.476562,-0.921875 z"
         id="path21141"
         style="fill:#ede7dc;fill-opacity:1" />
      <path
         d="m 35.201172,41.007427 v -4.757812 h -1.699219 v -0.96875 h 4.550781 v 0.96875 h -1.695312 v 4.757812 z"
         id="path21143"
         style="fill:#ede7dc;fill-opacity:1" />
    </g>
    <g
       aria-label="GATES"
       id="text18978-4-1"
       style="font-weight:bold;font-size:8px;line-height:1.25;font-family:Arial;-inkscape-font-specification:'Arial, Bold';font-variant-ligatures:none;text-align:center;text-anchor:middle;display:inline;fill:#ede7dc;fill-opacity:1"
       transform="translate(0,-1.000208)">
      <path
         d="m 12.267578,46.936836 v -0.964844 h 2.492188 v 2.28125 q -0.363282,0.351563 -1.054688,0.621094 -0.6875,0.265625 -1.394531,0.265625 -0.898438,0 -1.566406,-0.375 -0.667969,-0.378906 -1.0039066,-1.078125 -0.3359375,-0.703125 -0.3359375,-1.527344 0,-0.894531 0.375,-1.589843 0.3750001,-0.695313 1.0976561,-1.066407 0.550781,-0.285156 1.371094,-0.285156 1.066406,0 1.664062,0.449219 0.601563,0.445312 0.773438,1.234375 l -1.148438,0.214844 q -0.121093,-0.421875 -0.457031,-0.664063 -0.332031,-0.246094 -0.832031,-0.246094 -0.757813,0 -1.207031,0.480469 -0.445313,0.480469 -0.445313,1.425781 0,1.019532 0.453125,1.53125 0.453125,0.507813 1.1875,0.507813 0.363281,0 0.726563,-0.140625 0.367187,-0.144531 0.628906,-0.347656 v -0.726563 z"
         id="path21146"
         style="fill:#ede7dc;fill-opacity:1" />
      <path
         d="m 20.990234,49.042305 h -1.257812 l -0.5,-1.300781 h -2.289063 l -0.472656,1.300781 h -1.226562 l 2.230468,-5.726563 h 1.222657 z m -2.128906,-2.265625 -0.789062,-2.125 -0.773438,2.125 z"
         id="path21148"
         style="fill:#ede7dc;fill-opacity:1" />
      <path
         d="m 22.298828,49.042305 v -4.757813 h -1.699219 v -0.96875 h 4.550782 v 0.96875 h -1.695313 v 4.757813 z"
         id="path21150"
         style="fill:#ede7dc;fill-opacity:1" />
      <path
         d="m 25.896484,49.042305 v -5.726563 h 4.246094 v 0.96875 h -3.089844 v 1.269532 h 2.875 v 0.964843 h -2.875 v 1.558594 h 3.199219 v 0.964844 z"
         id="path21152"
         style="fill:#ede7dc;fill-opacity:1" />
      <path
         d="m 30.939453,47.179024 1.125,-0.109375 q 0.101563,0.566406 0.410156,0.832031 0.3125,0.265625 0.839844,0.265625 0.558594,0 0.839844,-0.234375 0.285156,-0.238281 0.285156,-0.554688 0,-0.203125 -0.121094,-0.34375 -0.117187,-0.144531 -0.414062,-0.25 -0.203125,-0.07031 -0.925781,-0.25 -0.929688,-0.230468 -1.304688,-0.566406 -0.527344,-0.472656 -0.527344,-1.152344 0,-0.4375 0.246094,-0.816406 0.25,-0.382812 0.714844,-0.582031 0.46875,-0.199219 1.128906,-0.199219 1.078125,0 1.621094,0.472656 0.546875,0.472657 0.574219,1.261719 l -1.15625,0.05078 q -0.07422,-0.441406 -0.320313,-0.632812 -0.242187,-0.195313 -0.730469,-0.195313 -0.503906,0 -0.789062,0.207032 -0.183594,0.132812 -0.183594,0.355468 0,0.203125 0.171875,0.347657 0.21875,0.183593 1.0625,0.382812 0.84375,0.199219 1.246094,0.414063 0.40625,0.210937 0.632812,0.582031 0.230469,0.367187 0.230469,0.910156 0,0.492188 -0.273437,0.921875 -0.273438,0.429688 -0.773438,0.640625 -0.5,0.207031 -1.246094,0.207031 -1.085937,0 -1.667968,-0.5 -0.582032,-0.503906 -0.695313,-1.464842 z"
         id="path21154"
         style="fill:#ede7dc;fill-opacity:1" />
    </g>
    <g
       aria-label="SORT"
       id="text18978-4-1-1"
       style="font-weight:bold;font-size:8px;line-height:1.25;font-family:Arial;-inkscape-font-specification:'Arial, Bold';font-variant-ligatures:none;text-align:center;text-anchor:middle;display:inline;fill:#ede7dc;fill-opacity:1"
       transform="translate(0,-1.000208)">
      <path
         d="m 11.615234,86.645103 1.125,-0.109375 q 0.101563,0.566407 0.410157,0.832032 0.3125,0.265625 0.839843,0.265625 0.558594,0 0.839844,-0.234375 0.285156,-0.238282 0.285156,-0.554688 0,-0.203125 -0.121093,-0.34375 -0.117188,-0.144531 -0.414063,-0.25 -0.203125,-0.07031 -0.925781,-0.25 -0.929688,-0.230469 -1.304688,-0.566406 -0.527343,-0.472656 -0.527343,-1.152344 0,-0.4375 0.246093,-0.816406 0.25,-0.382813 0.714844,-0.582031 0.46875,-0.199219 1.128906,-0.199219 1.078125,0 1.621094,0.472656 0.546875,0.472656 0.574219,1.261719 l -1.15625,0.05078 q -0.07422,-0.441406 -0.320313,-0.632812 -0.242187,-0.195313 -0.730468,-0.195313 -0.503907,0 -0.789063,0.207031 -0.183594,0.132813 -0.183594,0.355469 0,0.203125 0.171875,0.347656 0.21875,0.183594 1.0625,0.382813 0.84375,0.199219 1.246094,0.414062 0.40625,0.210938 0.632813,0.582032 0.230468,0.367187 0.230468,0.910156 0,0.492187 -0.273437,0.921875 -0.273438,0.429687 -0.773438,0.640625 -0.5,0.207031 -1.246093,0.207031 -1.085938,0 -1.667969,-0.5 -0.582031,-0.503906 -0.695313,-1.464843 z"
         id="path21157"
         style="fill:#ede7dc;fill-opacity:1" />
      <path
         d="m 17.009766,85.68026 q 0,-0.875 0.261718,-1.46875 0.195313,-0.4375 0.53125,-0.785157 0.339844,-0.347656 0.742188,-0.515625 0.535156,-0.226562 1.234375,-0.226562 1.265625,0 2.023437,0.785156 0.761719,0.785156 0.761719,2.183594 0,1.386719 -0.753906,2.171875 -0.753906,0.78125 -2.015625,0.78125 -1.277344,0 -2.03125,-0.777344 -0.753906,-0.78125 -0.753906,-2.148437 z m 1.191406,-0.03906 q 0,0.972656 0.449219,1.476563 0.449218,0.5 1.140625,0.5 0.691406,0 1.132812,-0.496094 0.445313,-0.5 0.445313,-1.496094 0,-0.984375 -0.433594,-1.46875 -0.429688,-0.484375 -1.144531,-0.484375 -0.714844,0 -1.152344,0.492188 -0.4375,0.488281 -0.4375,1.476562 z"
         id="path21159"
         style="fill:#ede7dc;fill-opacity:1" />
      <path
         d="m 23.470703,88.508385 v -5.726563 h 2.433594 q 0.917969,0 1.332031,0.15625 0.417969,0.152344 0.667969,0.546875 0.25,0.394531 0.25,0.902344 0,0.644531 -0.378906,1.066406 -0.378907,0.417969 -1.132813,0.527344 0.375,0.21875 0.617188,0.480469 0.246093,0.261718 0.660156,0.929687 l 0.699219,1.117188 h -1.382813 l -0.835937,-1.246094 q -0.445313,-0.667969 -0.609375,-0.839844 -0.164063,-0.175781 -0.347657,-0.238281 -0.183593,-0.06641 -0.582031,-0.06641 h -0.234375 v 2.390625 z m 1.15625,-3.304688 h 0.855469 q 0.832031,0 1.039062,-0.07031 0.207032,-0.07031 0.324219,-0.242188 0.117188,-0.171875 0.117188,-0.429687 0,-0.289063 -0.15625,-0.464844 -0.152344,-0.179688 -0.433594,-0.226563 -0.140625,-0.01953 -0.84375,-0.01953 h -0.902344 z"
         id="path21161"
         style="fill:#ede7dc;fill-opacity:1" />
      <path
         d="m 30.533203,88.508385 v -4.757813 h -1.699219 v -0.96875 h 4.550782 v 0.96875 h -1.695313 v 4.757813 z"
         id="path21163"
         style="fill:#ede7dc;fill-opacity:1" />
    </g>
    <g
       aria-label="START"
       id="text18978-4-1-9"
       style="font-weight:bold;font-size:8px;line-height:1.25;font-family:Arial;-inkscape-font-specification:'Arial, Bold';font-variant-ligatures:none;text-align:center;text-anchor:middle;display:inline;fill:#ede7dc;fill-opacity:1"
       transform="translate(0,-1.500208)">
      <path
         d="m 9.6914063,127.60294 1.1249997,-0.10938 q 0.101563,0.56641 0.410157,0.83203 0.3125,0.26563 0.839843,0.26563 0.558594,0 0.839844,-0.23438 0.285156,-0.23828 0.285156,-0.55469 0,-0.20312 -0.121093,-0.34375 -0.117188,-0.14453 -0.414063,-0.25 -0.203125,-0.0703 -0.925781,-0.25 -0.929688,-0.23046 -1.304688,-0.5664 -0.5273435,-0.47266 -0.5273435,-1.15235 0,-0.4375 0.2460935,-0.8164 0.25,-0.38281 0.714844,-0.58203 0.46875,-0.19922 1.128906,-0.19922 1.078125,0 1.621094,0.47265 0.546875,0.47266 0.574219,1.26172 l -1.15625,0.0508 q -0.07422,-0.4414 -0.320313,-0.63281 -0.242187,-0.19531 -0.730468,-0.19531 -0.503907,0 -0.789063,0.20703 -0.183594,0.13281 -0.183594,0.35547 0,0.20312 0.171875,0.34766 0.21875,0.18359 1.0625,0.38281 0.84375,0.19922 1.246094,0.41406 0.40625,0.21094 0.632813,0.58203 0.230468,0.36719 0.230468,0.91016 0,0.49219 -0.273437,0.92187 -0.273438,0.42969 -0.773438,0.64063 -0.5,0.20703 -1.246093,0.20703 -1.085938,0 -1.667969,-0.5 -0.5820315,-0.50391 -0.6953127,-1.46484 z"
         id="path21166"
         style="fill:#ede7dc;fill-opacity:1" />
      <path
         d="m 16.609375,129.46622 v -4.75782 h -1.699219 v -0.96875 h 4.550781 v 0.96875 h -1.695312 v 4.75782 z"
         id="path21168"
         style="fill:#ede7dc;fill-opacity:1" />
      <path
         d="m 24.777344,129.46622 h -1.257813 l -0.5,-1.30078 h -2.289062 l -0.472657,1.30078 H 19.03125 l 2.230469,-5.72657 h 1.222656 z m -2.128907,-2.26563 -0.789062,-2.125 -0.773438,2.125 z"
         id="path21170"
         style="fill:#ede7dc;fill-opacity:1" />
      <path
         d="m 25.394531,129.46622 v -5.72657 h 2.433594 q 0.917969,0 1.332031,0.15625 0.417969,0.15235 0.667969,0.54688 0.25,0.39453 0.25,0.90234 0,0.64453 -0.378906,1.06641 -0.378907,0.41797 -1.132813,0.52734 0.375,0.21875 0.617188,0.48047 0.246093,0.26172 0.660156,0.92969 l 0.699219,1.11719 h -1.382813 l -0.835937,-1.2461 q -0.445313,-0.66797 -0.609375,-0.83984 -0.164063,-0.17578 -0.347657,-0.23828 -0.183593,-0.0664 -0.582031,-0.0664 h -0.234375 v 2.39063 z m 1.15625,-3.30469 h 0.855469 q 0.832031,0 1.039062,-0.0703 0.207032,-0.0703 0.324219,-0.24219 0.117188,-0.17188 0.117188,-0.42969 0,-0.28906 -0.15625,-0.46484 -0.152344,-0.17969 -0.433594,-0.22656 -0.140625,-0.0195 -0.84375,-0.0195 h -0.902344 z"
         id="path21172"
         style="fill:#ede7dc;fill-opacity:1" />
      <path
         d="m 32.457031,129.46622 v -4.75782 h -1.699219 v -0.96875 h 4.550782 v 0.96875 h -1.695313 v 4.75782 z"
         id="path21174"
         style="fill:#ede7dc;fill-opacity:1" />
    </g>
    <g
       aria-label="COUNT"
       id="text18978-4-1-4"
       style="font-weight:bold;font-size:8px;line-height:1.25;font-family:Arial;-inkscape-font-specification:'Arial, Bold';font-variant-ligatures:none;text-align:center;text-anchor:middle;display:inline;fill:#ede7dc;fill-opacity:1"
       transform="translate(0,-1.500208)">
      <path
         d="m 12.417969,206.85881 1.121094,0.35547 q -0.257813,0.9375 -0.859375,1.39453 -0.597657,0.45313 -1.519532,0.45313 -1.140625,0 -1.8749997,-0.77735 -0.734375,-0.78125 -0.734375,-2.13281 0,-1.42969 0.7382812,-2.21875 0.7382815,-0.79297 1.9414065,-0.79297 1.050781,0 1.707031,0.62109 0.390625,0.36719 0.585938,1.05469 l -1.144532,0.27344 q -0.101562,-0.44531 -0.425781,-0.70313 -0.320312,-0.25781 -0.78125,-0.25781 -0.636719,0 -1.035156,0.45703 -0.3945315,0.45703 -0.3945315,1.48047 0,1.08594 0.3906255,1.54688 0.390625,0.46093 1.015625,0.46093 0.460937,0 0.792968,-0.29296 0.332032,-0.29297 0.476563,-0.92188 z"
         id="path21177"
         style="fill:#ede7dc;fill-opacity:1" />
      <path
         d="m 14.296875,206.13615 q 0,-0.875 0.261719,-1.46875 0.195312,-0.4375 0.53125,-0.78515 0.339844,-0.34766 0.742187,-0.51563 0.535156,-0.22656 1.234375,-0.22656 1.265625,0 2.023438,0.78516 0.761718,0.78515 0.761718,2.18359 0,1.38672 -0.753906,2.17188 -0.753906,0.78125 -2.015625,0.78125 -1.277343,0 -2.03125,-0.77735 -0.753906,-0.78125 -0.753906,-2.14844 z m 1.191406,-0.0391 q 0,0.97266 0.449219,1.47656 0.449219,0.5 1.140625,0.5 0.691406,0 1.132812,-0.49609 0.445313,-0.5 0.445313,-1.49609 0,-0.98438 -0.433594,-1.46875 -0.429687,-0.48438 -1.144531,-0.48438 -0.714844,0 -1.152344,0.49219 -0.4375,0.48828 -0.4375,1.47656 z"
         id="path21179"
         style="fill:#ede7dc;fill-opacity:1" />
      <path
         d="m 20.746094,203.23772 h 1.15625 v 3.10156 q 0,0.73828 0.04297,0.95703 0.07422,0.35156 0.351563,0.56641 0.28125,0.21093 0.765625,0.21093 0.492187,0 0.742187,-0.19921 0.25,-0.20313 0.300782,-0.4961 0.05078,-0.29297 0.05078,-0.97265 v -3.16797 h 1.15625 v 3.00781 q 0,1.03125 -0.09375,1.45703 -0.09375,0.42578 -0.347656,0.71875 -0.25,0.29297 -0.671875,0.46875 -0.421875,0.17188 -1.101563,0.17188 -0.820312,0 -1.246094,-0.1875 -0.421875,-0.19141 -0.667968,-0.49219 -0.246094,-0.30469 -0.324219,-0.63672 -0.113281,-0.49219 -0.113281,-1.45313 z"
         id="path21181"
         style="fill:#ede7dc;fill-opacity:1" />
      <path
         d="m 26.542969,208.96428 v -5.72656 h 1.125 l 2.34375,3.82422 v -3.82422 h 1.074218 v 5.72656 h -1.160156 l -2.308594,-3.73438 v 3.73438 z"
         id="path21183"
         style="fill:#ede7dc;fill-opacity:1" />
      <path
         d="m 33.597656,208.96428 v -4.75781 h -1.699219 v -0.96875 h 4.550782 v 0.96875 h -1.695313 v 4.75781 z"
         id="path21185"
         style="fill:#ede7dc;fill-opacity:1" />
    </g>
    <g
       aria-label="IN"
       id="text18978-4-1-95"
       style="font-weight:bold;font-size:8px;line-height:1.25;font-family:Arial;-inkscape-font-specification:'Arial, Bold';font-variant-ligatures:none;text-align:center;text-anchor:middle;display:inline;fill:#ede7dc;fill-opacity:1">
      <path
         d="m 19.09375,286.98419 v -5.72656 H 20.25 v 5.72656 z"
         id="path21188"
         style="fill:#ede7dc;fill-opacity:1" />
      <path
         d="m 21.363281,286.98419 v -5.72656 h 1.125 l 2.34375,3.82422 v -3.82422 h 1.074219 v 5.72656 H 24.746094 L 22.4375,283.24982 v 3.73437 z"
         id="path21190"
         style="fill:#ede7dc;fill-opacity:1" />
    </g>
  </g>
  <g
     inkscape:groupmode="layer"
     id="layer5"
     inkscape:label="Lines"
     style="display:inline" />
  <g
     inkscape:groupmode="layer"
     id="layer6"
     inkscape:label="Invert Solid"
     style="display:inline">
    <g
       aria-label="OUT"
       id="text18978-4-1-6"
       style="font-weight:bold;font-size:8px;line-height:1.25;font-family:Arial;-inkscape-font-specification:'Arial, Bold';font-variant-ligatures:none;text-align:center;text-anchor:middle;display:inline;fill:#252525;fill-opacity:1">
      <path
         d="m 14.3125,323.54648 q 0,-0.875 0.261719,-1.46875 0.195312,-0.4375 0.53125,-0.78516 0.339844,-0.34765 0.742187,-0.51562 0.535156,-0.22657 1.234375,-0.22657 1.265625,0 2.023438,0.78516 0.761718,0.78516 0.761718,2.18359 0,1.38672 -0.753906,2.17188 -0.753906,0.78125 -2.015625,0.78125 -1.277343,0 -2.03125,-0.77734 -0.753906,-0.78125 -0.753906,-2.14844 z m 1.191406,-0.0391 q 0,0.97265 0.449219,1.47656 0.449219,0.5 1.140625,0.5 0.691406,0 1.132812,-0.4961 0.445313,-0.5 0.445313,-1.49609 0,-0.98437 -0.433594,-1.46875 -0.429687,-0.48437 -1.144531,-0.48437 -0.714844,0 -1.152344,0.49218 -0.4375,0.48828 -0.4375,1.47657 z"
         id="path21193"
         style="fill:#252525;fill-opacity:1" />
      <path
         d="m 20.761719,320.64804 h 1.15625 v 3.10156 q 0,0.73828 0.04297,0.95703 0.07422,0.35157 0.351563,0.56641 0.28125,0.21094 0.765625,0.21094 0.492187,0 0.742187,-0.19922 0.25,-0.20313 0.300782,-0.49609 0.05078,-0.29297 0.05078,-0.97266 v -3.16797 h 1.15625 v 3.00781 q 0,1.03125 -0.09375,1.45703 -0.09375,0.42579 -0.347656,0.71875 -0.25,0.29297 -0.671875,0.46875 -0.421875,0.17188 -1.101563,0.17188 -0.820312,0 -1.246094,-0.1875 -0.421875,-0.19141 -0.667968,-0.49219 -0.246094,-0.30469 -0.324219,-0.63672 -0.113281,-0.49218 -0.113281,-1.45312 z"
         id="path21195"
         style="fill:#252525;fill-opacity:1" />
      <path
         d="m 27.835937,326.3746 v -4.75781 h -1.699218 v -0.96875 H 30.6875 v 0.96875 h -1.695313 v 4.75781 z"
         id="path21197"
         style="fill:#252525;fill-opacity:1" />
    </g>
  </g>
  <text
     xml:space="preserve"
     id="text29904"
     style="font-weight:bold;font-size:8px;line-height:1.25;font-family:Arial;-inkscape-font-specification:'Arial, Bold';font-variant-ligatures:none;text-align:center;white-space:pre;shape-inside:url(#rect29906)"
     transform="translate(-2.6024628e-4)" />
  <g
     inkscape:groupmode="layer"
     id="layer1"
     inkscape:label="Widgets"
     style="display:none">
    <circle
       style="display:inline;fill:#ff0000;stroke:#ff0000;stroke-width:1.77975;stroke-opacity:1"
       id="path1065-7-2-3-4-1-9"
       cx="22.5"
       cy="261.49979"
       r="10.610126" />
    <circle
       style="display:inline;fill:#ff0000;stroke:#ff0000;stroke-width:1.77975;stroke-opacity:1"
       id="path1065-7-2-3-4-0"
       cx="22.5"
       cy="223.99979"
       r="13.110126" />
    <circle
       style="display:inline;fill:#ff0000;stroke:#ff0000;stroke-width:1.94925;stroke-opacity:1"
       id="path1065-7-2-3-2-2-6-0-6-4"
       cx="22.5"
       cy="301"
       r="10.525375" />
    <circle
       style="display:inline;fill:#ff0000;stroke:#ff0000;stroke-width:1.94925;stroke-opacity:1"
       id="path1065-7-2-3-2-2-3-2-0-5"
       cx="22.5"
       cy="340.5"
       r="10.525375" />
    <circle
       style="display:inline;fill:#ff0000;stroke:#ff0000;stroke-width:1.77975;stroke-opacity:1"
       id="path1065-7-2-3-4-1-9-6"
       cx="22.5"
       cy="181.99997"
       r="10.610126" />
    <circle
       style="display:inline;fill:#ff0000;stroke:#ff0000;stroke-width:1.77975;stroke-opacity:1"
       id="path1065-7-2-3-4-0-8"
       cx="22.5"
       cy="144.49998"
       r="13.110126" />
    <rect
       style="display:inline;opacity:0.995935;fill:#ff0000;stroke:none;stroke-width:0.999999"
       id="rect6025-3-3-3-4-9"
       width="24.000002"
       height="24"
       x="10.499999"
       y="89.999985"
       ry="5.3710246"
       rx="5.3710246" />
    <circle
       style="display:inline;fill:#ff0000;stroke:#ff0000;stroke-width:1.94925;stroke-opacity:1"
       id="path1065-7-2-3-2-2-6-0-6-4-3"
       cx="22.5"
       cy="61.99979"
       r="10.525375" />
  </g>
</svg>
