<?xml version="1.0" encoding="UTF-8" standalone="no"?>
<svg
   width="75"
   height="380"
   viewBox="0 0 75 380"
   version="1.1"
   id="svg208"
   sodipodi:docname="Recurse_Coal.svg"
   inkscape:version="1.1.1 (3bf5ae0d25, 2021-09-20)"
   xmlns:inkscape="http://www.inkscape.org/namespaces/inkscape"
   xmlns:sodipodi="http://sodipodi.sourceforge.net/DTD/sodipodi-0.dtd"
   xmlns="http://www.w3.org/2000/svg"
   xmlns:svg="http://www.w3.org/2000/svg"
   xmlns:rdf="http://www.w3.org/1999/02/22-rdf-syntax-ns#"
   xmlns:cc="http://creativecommons.org/ns#"
   xmlns:dc="http://purl.org/dc/elements/1.1/">
  <rect
     style="fill:#252525;stroke-width:2.25131;fill-opacity:1"
     id="rect65859"
     width="74.999054"
     height="380.12619"
     x="3.6973286e-06"
     y="0" />
  <g
     id="g13575"
     style="fill:#ede7dc;fill-opacity:1">
    <rect
       style="fill:#ede7dc;fill-opacity:1;stroke-width:0.303023"
       id="rect67956-1-1"
       width="27.564095"
       height="42.562614"
       x="39.999496"
       y="317.43283"
       ry="4.9999509" />
    <rect
       style="fill:#ede7dc;fill-opacity:1;stroke-width:0.303023"
       id="rect67956-1"
       width="27.564095"
       height="42.562614"
       x="7.4367528"
       y="274.99652"
       ry="4.9999509" />
  </g>
  <metadata
     id="metadata212">
    <rdf:RDF>
      <cc:Work
         rdf:about="">
        <dc:format>image/svg+xml</dc:format>
        <dc:type
           rdf:resource="http://purl.org/dc/dcmitype/StillImage" />
      </cc:Work>
    </rdf:RDF>
  </metadata>
  <sodipodi:namedview
     pagecolor="#ffffff"
     bordercolor="#666666"
     borderopacity="1"
     objecttolerance="1"
     gridtolerance="4.1"
     guidetolerance="10"
     inkscape:pageopacity="0"
     inkscape:pageshadow="2"
     inkscape:window-width="1600"
     inkscape:window-height="837"
     id="namedview210"
     showgrid="true"
     inkscape:zoom="1.1704478"
     inkscape:cx="119.18515"
     inkscape:cy="214.87502"
     inkscape:window-x="-8"
     inkscape:window-y="-8"
     inkscape:window-maximized="1"
     inkscape:current-layer="svg208"
     inkscape:pagecheckerboard="true"
     showguides="false"
     units="mm"
     showborder="true">
    <inkscape:grid
       type="xygrid"
       id="grid971"
       units="mm"
       spacingx="0.4999937"
       spacingy="0.4999937"
       dotted="false"
       empspacing="5" />
  </sodipodi:namedview>
  <defs
     id="defs9">
    <style
       id="style2">
      .uuid-178fee04-66e3-402f-80f4-0493ef387430 {
        fill: #f0f0f0;
      }

      .uuid-a01b56f5-19ad-4419-9263-e2d8207a4173 {
        fill: blue;
      }

      .uuid-caa11d7b-45dc-472d-a21c-bfb45f09d39f {
        fill: lime;
      }

      .uuid-c66d0e1a-0300-47a3-9fe5-7579d5efc1b8 {
        isolation: isolate;
        opacity: .69;
      }

      .uuid-c66d0e1a-0300-47a3-9fe5-7579d5efc1b8, .uuid-89ffc17d-dc13-46b4-af84-0bc0d5772298, .uuid-f8e02bd3-ee8a-44eb-b2d4-43473dffabb0 {
        fill: none;
      }

      .uuid-e03bfb13-a98f-40ee-8a96-0d89c31eb30e {
        fill: #f0f;
      }

      .uuid-f8e02bd3-ee8a-44eb-b2d4-43473dffabb0 {
        stroke: #1f1f1f;
        stroke-linecap: round;
        stroke-miterlimit: 10;
        stroke-width: .8px;
      }

      .uuid-26fe0ef1-1280-43b0-a2a0-ad72b6a9fcb5 {
        fill: url(#uuid-ceb1f0ca-0ca2-46a9-982b-2ba7e59fdccb);
      }

      .uuid-328bb177-dd26-46ae-8d7a-80e84573d743 {
        fill: #1f1f1f;
      }

      .uuid-c1500944-1ed5-404f-b173-c3791985f437 {
        fill: red;
      }
    </style>
    <linearGradient
       id="uuid-ceb1f0ca-0ca2-46a9-982b-2ba7e59fdccb"
       x1="37.5"
       y1="0"
       x2="37.5"
       y2="380"
       gradientUnits="userSpaceOnUse">
      <stop
         offset="0"
         stop-color="#ebebeb"
         id="stop4" />
      <stop
         offset="1"
         stop-color="#e1e1e1"
         id="stop6" />
    </linearGradient>
    <clipPath
       id="_clipPath_sMzPIcrS2sD3lKhajQrdaiSEc399lqzM">
      <rect
         height="380"
         id="svg_1"
         width="120" />
    </clipPath>
  </defs>
  <g
     id="uuid-ef489e74-cdae-4216-a1a6-bec845a6effa"
     data-name="components"
     style="display:none"
     inkscape:groupmode="layer">
    <circle
       id="uuid-981841a2-ad68-40d8-a495-5fdd5d88aea2"
       data-name="Bknob#RoundLargeBlackKnob"
       cx="37.33955"
       cy="78.999962"
       r="5"
       style="fill:#ff0000" />
    <circle
       id="uuid-b82648ea-8a15-4535-8a3f-52e6648097b9"
       data-name="Clip#TinyLight"
       cx="32.5597"
       cy="278.24713"
       r="1.5"
       style="fill:#ff00ff" />
    <circle
       id="uuid-6bbe5da3-35c6-423e-9344-e1f31f07819e"
       data-name="Lim#TinyLight"
       cx="64.559898"
       cy="278.2471"
       r="1.5"
       style="fill:#ff00ff" />
    <circle
       id="uuid-97c91f19-76d1-4aa4-a1dc-7980909503b1"
       data-name="AhtB#TinyLight"
       cx="32.559719"
       cy="323.01172"
       r="1.5"
       style="fill:#ff00ff" />
    <circle
       id="uuid-ef15dd2c-7557-4d12-b87c-c134361f587b"
       data-name="AltB#TinyLight"
       cx="64.559853"
       cy="323.01172"
       r="1.5"
       style="fill:#ff00ff" />
    <circle
       id="uuid-d2822757-0981-4064-8cdd-2086d71b3762"
       data-name="A#PJ301MPort"
       cx="21.551001"
       cy="154.45821"
       r="5"
       style="fill:#00ff00" />
    <circle
       id="uuid-a43dc027-f33a-4903-b3a3-72985a7298fe"
       data-name="B#PJ301MPort"
       cx="53.551128"
       cy="154.45821"
       r="5"
       style="fill:#00ff00" />
    <circle
       id="uuid-4de03138-9751-4407-88c8-f841967b4948"
       data-name="Max#PJ301MPort"
       cx="21.545441"
       cy="199.39957"
       r="5"
       style="fill:#0000ff" />
    <circle
       id="uuid-5b0b8408-13f8-4d97-ae01-ef7f26cbf4dd"
       data-name="Min#PJ301MPort"
       cx="53.54557"
       cy="199.39957"
       r="5"
       style="fill:#0000ff" />
    <circle
       id="uuid-4a65039c-220c-4c0a-b1b0-ebcb164e5c97"
       data-name="ClipCV#PJ301MPort"
       cx="21.545441"
       cy="244.28706"
       r="5"
       style="fill:#0000ff" />
    <circle
       id="uuid-c76c2ebb-06a4-438b-a398-3304bd12c1dc"
       data-name="LimCV#PJ301MPort"
       cx="53.54557"
       cy="244.28706"
       r="5"
       style="fill:#0000ff" />
    <circle
       id="uuid-81e755ca-eddd-4cc4-bf87-f3eff7a7cf03"
       data-name="ClipGate#PJ301MPort"
       cx="21.545441"
       cy="289.2471"
       r="5"
       style="fill:#0000ff" />
    <circle
       id="uuid-ba08c6c7-32e4-4d52-b9bc-a4caa1a81b8c"
       data-name="LimGate#PJ301MPort"
       cx="53.54557"
       cy="289.2471"
       r="5"
       style="fill:#0000ff" />
    <circle
       id="uuid-30744413-ecf6-4065-ac6f-ee8a7e81f645"
       data-name="AhtB#PJ301MPort"
       cx="21.545441"
       cy="334"
       r="5"
       style="fill:#0000ff" />
    <circle
       id="uuid-dc8780c4-a0f9-4b90-beeb-66035a9048e6"
       data-name="AltB#PJ301MPort"
       cx="53.54557"
       cy="334"
       r="5"
       style="fill:#0000ff" />
  </g>
  <text
     xml:space="preserve"
     style="font-size:8px;line-height:1.25;font-family:Arial;-inkscape-font-specification:'Arial, Normal';font-weight:normal;font-style:normal;font-stretch:normal;font-variant:normal;font-variant-ligatures:normal;font-variant-caps:normal;font-variant-numeric:normal;font-variant-east-asian:normal"
     x="43.271065"
     y="274.35214"
     id="text226237"><tspan
       sodipodi:role="line"
       id="tspan228439" /></text>
  <g
     id="g13571"
     style="fill:#252525;fill-opacity:1">
    <g
       aria-label="SEND"
       id="text14725"
       style="font-weight:bold;font-size:8px;line-height:1.25;font-family:Arial;-inkscape-font-specification:'Arial, Bold';fill:#252525;fill-opacity:1">
      <path
         d="m 10.396743,282.96359 1.125,-0.10937 q 0.101562,0.5664 0.410156,0.83203 0.3125,0.26562 0.839844,0.26562 0.558594,0 0.839844,-0.23437 0.285156,-0.23828 0.285156,-0.55469 0,-0.20312 -0.121094,-0.34375 -0.117187,-0.14453 -0.414062,-0.25 -0.203125,-0.0703 -0.925782,-0.25 -0.929687,-0.23047 -1.304687,-0.5664 -0.527344,-0.47266 -0.527344,-1.15235 0,-0.4375 0.246094,-0.8164 0.25,-0.38282 0.714844,-0.58204 0.46875,-0.19921 1.128906,-0.19921 1.078125,0 1.621094,0.47265 0.546875,0.47266 0.574218,1.26172 l -1.15625,0.0508 q -0.07422,-0.4414 -0.320312,-0.63281 -0.242188,-0.19531 -0.730469,-0.19531 -0.503906,0 -0.789062,0.20703 -0.183594,0.13281 -0.183594,0.35547 0,0.20312 0.171875,0.34765 0.21875,0.1836 1.0625,0.38282 0.84375,0.19921 1.246094,0.41406 0.40625,0.21094 0.632812,0.58203 0.230469,0.36719 0.230469,0.91016 0,0.49218 -0.273438,0.92187 -0.273437,0.42969 -0.773437,0.64063 -0.5,0.20703 -1.246094,0.20703 -1.085937,0 -1.667969,-0.5 -0.582031,-0.50391 -0.695312,-1.46485 z"
         id="path74956"
         style="fill:#252525;fill-opacity:1" />
      <path
         d="m 16.025649,284.82687 v -5.72656 h 4.246094 v 0.96875 h -3.089844 v 1.26953 h 2.875 v 0.96485 h -2.875 v 1.55859 h 3.199219 v 0.96484 z"
         id="path74958"
         style="fill:#252525;fill-opacity:1" />
      <path
         d="m 21.373305,284.82687 v -5.72656 h 1.125 l 2.34375,3.82422 v -3.82422 h 1.074219 v 5.72656 h -1.160156 l -2.308594,-3.73437 v 3.73437 z"
         id="path74960"
         style="fill:#252525;fill-opacity:1" />
      <path
         d="m 27.135024,279.10031 h 2.113281 q 0.714844,0 1.089844,0.10938 0.503906,0.14843 0.863281,0.52734 0.359375,0.37891 0.546875,0.92969 0.1875,0.54687 0.1875,1.35156 0,0.70703 -0.175781,1.21875 -0.214844,0.625 -0.613281,1.01172 -0.300781,0.29297 -0.8125,0.45703 -0.382813,0.12109 -1.023438,0.12109 h -2.175781 z m 1.15625,0.96875 v 3.79297 h 0.863281 q 0.484375,0 0.699219,-0.0547 0.28125,-0.0703 0.464844,-0.23828 0.1875,-0.16797 0.304687,-0.55078 0.117188,-0.38672 0.117188,-1.05078 0,-0.66406 -0.117188,-1.01953 -0.117187,-0.35547 -0.328125,-0.55469 -0.210937,-0.19922 -0.535156,-0.26953 -0.242187,-0.0547 -0.949219,-0.0547 z"
         id="path74962"
         style="fill:#252525;fill-opacity:1" />
    </g>
    <g
       aria-label="OUT"
       id="text12687"
       style="font-weight:bold;font-size:8px;line-height:1.25;font-family:Arial;-inkscape-font-specification:'Arial, Bold';fill:#252525;fill-opacity:1">
      <path
         d="m 46.304646,324.61066 q 0,-0.875 0.261718,-1.46875 0.195313,-0.4375 0.53125,-0.78516 0.339844,-0.34766 0.742188,-0.51562 0.535156,-0.22657 1.234375,-0.22657 1.265625,0 2.023437,0.78516 0.761719,0.78516 0.761719,2.18359 0,1.38672 -0.753906,2.17188 -0.753906,0.78125 -2.015625,0.78125 -1.277344,0 -2.03125,-0.77735 -0.753906,-0.78125 -0.753906,-2.14843 z m 1.191406,-0.0391 q 0,0.97266 0.449219,1.47657 0.449218,0.5 1.140625,0.5 0.691406,0 1.132812,-0.4961 0.445313,-0.5 0.445313,-1.49609 0,-0.98438 -0.433594,-1.46875 -0.429688,-0.48438 -1.144531,-0.48438 -0.714844,0 -1.152344,0.49219 -0.4375,0.48828 -0.4375,1.47656 z"
         id="path74983"
         style="fill:#252525;fill-opacity:1" />
      <path
         d="m 52.753864,321.71222 h 1.15625 v 3.10156 q 0,0.73828 0.04297,0.95703 0.07422,0.35157 0.351563,0.56641 0.28125,0.21094 0.765625,0.21094 0.492187,0 0.742187,-0.19922 0.25,-0.20313 0.300781,-0.4961 0.05078,-0.29296 0.05078,-0.97265 v -3.16797 h 1.15625 v 3.00781 q 0,1.03125 -0.09375,1.45703 -0.09375,0.42578 -0.347657,0.71875 -0.25,0.29297 -0.671875,0.46875 -0.421875,0.17188 -1.101562,0.17188 -0.820313,0 -1.246094,-0.1875 -0.421875,-0.19141 -0.667969,-0.49219 -0.246093,-0.30469 -0.324218,-0.63672 -0.113282,-0.49219 -0.113282,-1.45312 z"
         id="path74985"
         style="fill:#252525;fill-opacity:1" />
      <path
         d="m 59.828083,327.43878 v -4.75781 h -1.699219 v -0.96875 h 4.550782 v 0.96875 h -1.695313 v 4.75781 z"
         id="path74987"
         style="fill:#252525;fill-opacity:1" />
    </g>
  </g>
  <g
     id="g42796"
     transform="matrix(0.30458296,0,0,0.30458296,14.032658,-10.848041)"
     style="fill:#ff0000">
    <g
       aria-label="enom"
       id="text4270-27"
       style="font-size:49.3889px;line-height:1.25;font-family:'NECK ROMANCER';-inkscape-font-specification:'NECK ROMANCER, Normal';font-variant-ligatures:none;text-align:center;text-anchor:middle;fill:#ff0000;stroke-width:2.64583">
      <path
         d="m 46.609141,1249.244 q 0,1.1576 0,3.4245 3.183269,0 9.453344,0 -1.639866,0.5787 -2.990343,1.2058 -1.350478,0.627 -2.363337,1.688 -1.350477,0 -4.051433,0 0,1.4952 0.434082,2.5563 0.385851,1.1093 1.832792,1.1093 2.266873,0 6.80062,0 0.482313,-0.1447 0.868164,-0.627 0.337619,-0.5305 0.627007,-1.7363 0,2.0257 0,6.1254 -3.520888,0 -10.562665,0 -1.543403,0 -2.652724,-2.2187 -1.109321,-2.1704 -1.109321,-6.3183 0,-1.9775 0,-5.836 -0.385851,-1.3504 -1.881023,-2.1221 -1.495171,-0.7235 -3.569119,-1.2058 6.607694,0 19.774852,0 0,2.9421 0,8.7781 -1.205783,-2.701 -2.218642,-3.6656 -1.012858,-0.9646 -2.700955,-1.1093 -0.916396,-0.097 -2.170411,-0.097 -1.205783,0.048 -2.845649,0.048 -0.241157,0 -0.675239,0 z"
         id="path42762"
         style="fill:#ff0000" />
      <path
         d="m 81.576869,1245.2891 q 0,5.8842 0,17.7009 0,3.0868 -0.144694,6.0771 -0.09646,3.0386 -0.337619,5.9325 -0.385851,-3.7138 -0.964627,-6.9936 -0.530545,-3.3279 -2.025717,-5.016 0,-2.9904 0,-8.9228 -0.241157,-1.3505 -0.72347,-2.2187 -0.482314,-0.8681 -1.06109,-1.3987 -1.109321,-1.0128 -2.411567,-1.1093 -1.350478,-0.097 -2.266874,-0.097 -0.482313,0 -1.44694,0 0,4.582 0,13.746 0,3.0868 -0.09646,6.0771 -0.144694,3.0386 -0.385851,5.9325 -0.38585,-3.7138 -0.916395,-6.9936 -0.578776,-3.3279 -2.025717,-5.016 0,-4.8232 0,-14.373 -0.385851,-1.3504 -1.881022,-2.1221 -1.495172,-0.7235 -3.56912,-1.2058 6.752389,0 20.257166,0 z"
         id="path42764"
         style="fill:#ff0000" />
      <path
         d="m 104.19737,1249.0511 q 0,3.3762 0,10.1768 0,1.5434 -1.92925,2.6528 -1.92926,1.1093 -6.077152,1.1093 -4.196128,0 -6.125382,-1.1093 -1.929254,-1.1094 -1.929254,-2.6528 0,-3.3762 0,-10.1768 0,-1.5434 1.929254,-2.6527 1.929254,-1.1093 6.125382,-1.1093 4.147892,0 6.077152,1.1093 1.92925,1.1093 1.92925,2.6527 z m -3.76204,7.91 q 0,-1.8811 0,-5.6431 0,-1.6881 -1.254019,-1.9775 -1.205783,-0.2894 -2.990343,-0.2894 -1.832792,0 -3.038575,0.2894 -1.254015,0.2894 -1.254015,1.9775 0,1.881 0,5.6431 0,1.6881 1.254015,1.9774 1.205783,0.2894 3.038575,0.2894 1.78456,0 2.990343,-0.2894 1.254019,-0.2893 1.254019,-1.9774 z"
         id="path42766"
         style="fill:#ff0000" />
      <path
         d="m 142.34837,1245.2891 q -2.02572,0.4823 -3.52089,1.2058 -1.5434,0.7717 -1.88102,2.1221 0,4.7749 0,14.373 -1.49517,1.6881 -2.02572,5.016 -0.57878,3.2798 -0.96463,6.9936 -0.24115,-2.8939 -0.33762,-5.9325 -0.14469,-2.9903 -0.14469,-6.0771 0,-4.582 0,-13.746 -0.48231,0 -1.39871,0 -0.53054,0 -1.15755,0 -0.62701,0 -1.30225,0.1447 -1.25401,0.2412 -2.41157,1.2058 -1.15755,0.9646 -1.63986,3.4727 0,2.9903 0,8.9228 -0.1447,0.627 -0.28939,1.1093 -0.0965,0.4823 -0.19292,0.8199 -0.53055,1.9775 -0.38586,1.3505 0.19293,-0.627 -0.28938,1.1576 -0.0965,0.3376 -0.24116,0.8681 -0.14469,0.5306 -0.33762,1.3023 -0.14469,-0.6753 -0.28939,-1.2058 -0.14469,-0.4823 -0.24115,-0.8199 -0.53055,-2.0258 -0.33762,-1.3023 0.19292,0.7717 -0.43409,-1.6881 -0.0482,-0.2894 -0.19292,-0.7235 -0.0965,-0.3858 -0.19293,-0.8681 0,-2.9904 0,-8.9228 -0.28939,-1.3505 -0.7717,-2.2187 -0.48231,-0.8681 -1.06109,-1.3987 -1.10932,-1.0128 -2.41157,-1.1093 -1.30224,-0.097 -2.26687,-0.097 -0.48231,0 -1.39871,0 0,4.582 0,13.746 0,3.0868 -0.14469,6.0771 -0.0965,3.0386 -0.33762,5.9325 -0.38585,-3.7138 -0.96463,-6.9936 -0.53054,-3.3279 -2.02572,-5.016 0,-4.8232 0,-14.373 -0.38585,-1.3504 -1.88102,-2.1221 -1.49517,-0.7235 -3.56912,-1.2058 3.95497,0 11.76845,0 1.15755,0.3858 3.47266,1.1575 0.7717,0.2894 1.59163,0.4341 0.81994,0.1447 1.6881,0.1447 0.86816,0 1.73633,-0.1447 0.81993,-0.1447 1.59163,-0.4341 1.15756,-0.3858 3.42443,-1.1575 3.95497,0 11.76845,0 z"
         id="path42768"
         style="fill:#ff0000" />
    </g>
    <g
       aria-label="V"
       transform="matrix(1.2363173,0,0,0.80885384,-497.88086,123.48586)"
       id="text4270-3-5-2"
       style="font-size:78.5061px;line-height:1.25;font-family:Nosferotica;-inkscape-font-specification:'Nosferotica, Normal';font-variant-ligatures:none;text-align:center;text-anchor:middle;fill:#ff0000;stroke-width:3.27108">
      <path
         d="m 431.64994,1360.6864 8.57428,-0.1022 c 0,0 -4.4079,1.0878 -5.59925,3.7285 -1.88083,4.1689 -3.64217,14.6628 -3.64217,14.6628 l -2.23339,11.5191 -1.83311,11.8311 -1.71824,21.3112 -1.69514,-21.3112 -1.92196,-11.5208 -2.5009,-11.8294 c 0,0 -1.52027,-10.287 -3.38278,-14.4832 -1.14458,-2.5787 -5.63367,-3.8059 -5.63367,-3.8059 h 8.4657 l 6.66875,29.1569 z"
         id="path30410"
         sodipodi:nodetypes="ccscccccccscccc"
         style="fill:#ff0000" />
    </g>
  </g>
  <g
     id="g12950"
     style="fill:#ede7dc;fill-opacity:1">
    <g
       id="g13560"
       style="fill:#ede7dc;fill-opacity:1">
      <g
         aria-label="IN"
         id="text5183"
         style="font-weight:bold;font-size:8px;line-height:1.25;font-family:Arial;-inkscape-font-specification:'Arial, Bold';fill:#ede7dc;fill-opacity:1">
        <path
           d="m 18.343922,327.53952 v -5.72656 h 1.15625 v 5.72656 z"
           id="path74978"
           style="fill:#ede7dc;fill-opacity:1" />
        <path
           d="m 20.613453,327.53952 v -5.72656 h 1.125 l 2.34375,3.82422 v -3.82422 h 1.074219 v 5.72656 h -1.160157 l -2.308593,-3.73437 v 3.73437 z"
           id="path74980"
           style="fill:#ede7dc;fill-opacity:1" />
      </g>
      <g
         aria-label="OFFSET"
         id="text24441"
         style="font-weight:bold;font-size:8px;line-height:1.25;font-family:Arial;-inkscape-font-specification:'Arial, Bold';fill:#ede7dc;fill-opacity:1">
        <path
           d="m 21.707003,196.98856 q 0,-0.875 0.261718,-1.46875 0.195313,-0.4375 0.53125,-0.78516 0.339844,-0.34766 0.742188,-0.51563 0.535156,-0.22656 1.234375,-0.22656 1.265625,0 2.023437,0.78516 0.761719,0.78515 0.761719,2.18359 0,1.38672 -0.753906,2.17188 -0.753906,0.78125 -2.015625,0.78125 -1.277344,0 -2.03125,-0.77735 -0.753906,-0.78125 -0.753906,-2.14843 z m 1.191406,-0.0391 q 0,0.97266 0.449219,1.47657 0.449218,0.5 1.140625,0.5 0.691406,0 1.132812,-0.4961 0.445313,-0.5 0.445313,-1.49609 0,-0.98438 -0.433594,-1.46875 -0.429688,-0.48438 -1.144531,-0.48438 -0.714844,0 -1.152344,0.49219 -0.4375,0.48828 -0.4375,1.47656 z"
           id="path74943"
           style="fill:#ede7dc;fill-opacity:1" />
        <path
           d="m 28.171846,199.81668 v -5.72656 h 3.925782 v 0.96875 h -2.769532 v 1.35547 h 2.390625 v 0.96875 h -2.390625 v 2.43359 z"
           id="path74945"
           style="fill:#ede7dc;fill-opacity:1" />
        <path
           d="m 33.058565,199.81668 v -5.72656 h 3.925781 v 0.96875 h -2.769531 v 1.35547 h 2.390625 v 0.96875 h -2.390625 v 2.43359 z"
           id="path74947"
           style="fill:#ede7dc;fill-opacity:1" />
        <path
           d="m 37.644503,197.9534 1.125,-0.10938 q 0.101562,0.56641 0.410156,0.83204 0.3125,0.26562 0.839844,0.26562 0.558593,0 0.839843,-0.23437 0.285157,-0.23829 0.285157,-0.55469 0,-0.20313 -0.121094,-0.34375 -0.117188,-0.14453 -0.414063,-0.25 -0.203125,-0.0703 -0.925781,-0.25 -0.929687,-0.23047 -1.304687,-0.56641 -0.527344,-0.47265 -0.527344,-1.15234 0,-0.4375 0.246094,-0.81641 0.25,-0.38281 0.714843,-0.58203 0.46875,-0.19922 1.128907,-0.19922 1.078125,0 1.621093,0.47266 0.546875,0.47265 0.574219,1.26172 l -1.15625,0.0508 q -0.07422,-0.44141 -0.320312,-0.63281 -0.242188,-0.19532 -0.730469,-0.19532 -0.503906,0 -0.789063,0.20703 -0.183593,0.13282 -0.183593,0.35547 0,0.20313 0.171875,0.34766 0.21875,0.18359 1.0625,0.38281 0.84375,0.19922 1.246093,0.41406 0.40625,0.21094 0.632813,0.58204 0.230469,0.36718 0.230469,0.91015 0,0.49219 -0.273438,0.92188 -0.273437,0.42968 -0.773437,0.64062 -0.5,0.20703 -1.246094,0.20703 -1.085938,0 -1.667969,-0.5 -0.582031,-0.5039 -0.695312,-1.46484 z"
           id="path74949"
           style="fill:#ede7dc;fill-opacity:1" />
        <path
           d="m 43.273409,199.81668 v -5.72656 h 4.246094 v 0.96875 h -3.089844 v 1.26953 h 2.875 v 0.96484 h -2.875 v 1.5586 h 3.199219 v 0.96484 z"
           id="path74951"
           style="fill:#ede7dc;fill-opacity:1" />
        <path
           d="m 49.898409,199.81668 v -4.75781 H 48.19919 v -0.96875 h 4.550781 v 0.96875 h -1.695312 v 4.75781 z"
           id="path74953"
           style="fill:#ede7dc;fill-opacity:1" />
      </g>
      <g
         aria-label="SCALE"
         id="text25819"
         style="font-weight:bold;font-size:8px;line-height:1.25;font-family:Arial;-inkscape-font-specification:'Arial, Bold';fill:#ede7dc;fill-opacity:1">
        <path
           d="m 24.211531,155.6619 1.125,-0.10938 q 0.101562,0.56641 0.410156,0.83203 0.3125,0.26563 0.839844,0.26563 0.558593,0 0.839843,-0.23438 0.285157,-0.23828 0.285157,-0.55469 0,-0.20312 -0.121094,-0.34375 -0.117188,-0.14453 -0.414063,-0.25 -0.203125,-0.0703 -0.925781,-0.25 -0.929687,-0.23046 -1.304687,-0.5664 -0.527344,-0.47266 -0.527344,-1.15235 0,-0.4375 0.246094,-0.8164 0.25,-0.38281 0.714843,-0.58203 0.46875,-0.19922 1.128907,-0.19922 1.078125,0 1.621093,0.47265 0.546875,0.47266 0.574219,1.26172 l -1.15625,0.0508 q -0.07422,-0.4414 -0.320312,-0.63281 -0.242188,-0.19531 -0.730469,-0.19531 -0.503906,0 -0.789063,0.20703 -0.183593,0.13281 -0.183593,0.35547 0,0.20312 0.171875,0.34766 0.21875,0.18359 1.0625,0.38281 0.84375,0.19922 1.246093,0.41406 0.40625,0.21094 0.632813,0.58203 0.230469,0.36719 0.230469,0.91016 0,0.49219 -0.273438,0.92187 -0.273437,0.42969 -0.773437,0.64063 -0.5,0.20703 -1.246094,0.20703 -1.085938,0 -1.667969,-0.5 -0.582031,-0.50391 -0.695312,-1.46484 z"
           id="path74932"
           style="fill:#ede7dc;fill-opacity:1" />
        <path
           d="m 33.504499,155.41971 1.121094,0.35547 q -0.257812,0.9375 -0.859375,1.39453 -0.597656,0.45312 -1.519531,0.45312 -1.140625,0 -1.875,-0.77734 -0.734375,-0.78125 -0.734375,-2.13281 0,-1.42969 0.738281,-2.21875 0.738281,-0.79297 1.941406,-0.79297 1.050782,0 1.707032,0.62109 0.390625,0.36719 0.585937,1.05469 l -1.144531,0.27344 q -0.101563,-0.44532 -0.425781,-0.70313 -0.320313,-0.25781 -0.78125,-0.25781 -0.636719,0 -1.035157,0.45703 -0.394531,0.45703 -0.394531,1.48047 0,1.08594 0.390625,1.54687 0.390625,0.46094 1.015625,0.46094 0.460938,0 0.792969,-0.29297 0.332031,-0.29297 0.476562,-0.92187 z"
           id="path74934"
           style="fill:#ede7dc;fill-opacity:1" />
        <path
           d="m 40.781843,157.52518 h -1.257812 l -0.5,-1.30078 h -2.289063 l -0.472656,1.30078 h -1.226563 l 2.230469,-5.72657 h 1.222656 z m -2.128906,-2.26563 -0.789063,-2.125 -0.773437,2.125 z"
           id="path74936"
           style="fill:#ede7dc;fill-opacity:1" />
        <path
           d="m 41.426374,157.52518 v -5.67969 h 1.15625 v 4.71484 h 2.875 v 0.96485 z"
           id="path74938"
           style="fill:#ede7dc;fill-opacity:1" />
        <path
           d="m 46.281843,157.52518 v -5.72657 h 4.246094 v 0.96875 h -3.089844 v 1.26954 h 2.875 v 0.96484 h -2.875 v 1.55859 h 3.199219 v 0.96485 z"
           id="path74940"
           style="fill:#ede7dc;fill-opacity:1" />
      </g>
      <g
         aria-label="RECURSION COUNT"
         id="text33361"
         style="font-weight:bold;font-size:8px;line-height:1;font-family:Arial;-inkscape-font-specification:'Arial, Bold';text-align:center;text-anchor:middle;fill:#ede7dc;fill-opacity:1">
        <path
           d="m 14.17334,106.79672 v -5.72656 h 2.433594 q 0.917968,0 1.332031,0.15625 0.417969,0.15234 0.667969,0.54687 0.25,0.39454 0.25,0.90235 0,0.64453 -0.378907,1.0664 -0.378906,0.41797 -1.132812,0.52735 0.375,0.21875 0.617187,0.48047 0.246094,0.26172 0.660157,0.92968 l 0.699218,1.11719 h -1.382812 l -0.835938,-1.24609 q -0.445312,-0.66797 -0.609375,-0.83985 -0.164062,-0.17578 -0.347656,-0.23828 -0.183594,-0.0664 -0.582031,-0.0664 H 15.32959 v 2.39062 z m 1.15625,-3.30469 h 0.855469 q 0.832031,0 1.039062,-0.0703 0.207031,-0.0703 0.324219,-0.24219 0.117187,-0.17187 0.117187,-0.42968 0,-0.28907 -0.15625,-0.46485 -0.152343,-0.17968 -0.433593,-0.22656 -0.140625,-0.0195 -0.84375,-0.0195 H 15.32959 Z"
           id="path74903"
           style="fill:#ede7dc;fill-opacity:1" />
        <path
           d="m 19.946777,106.79672 v -5.72656 h 4.246094 v 0.96875 h -3.089844 v 1.26953 h 2.875 v 0.96484 h -2.875 v 1.5586 h 3.199219 v 0.96484 z"
           id="path74905"
           style="fill:#ede7dc;fill-opacity:1" />
        <path
           d="m 28.946777,104.69125 1.121094,0.35547 q -0.257812,0.9375 -0.859375,1.39453 -0.597656,0.45313 -1.519531,0.45313 -1.140625,0 -1.875,-0.77735 -0.734375,-0.78125 -0.734375,-2.13281 0,-1.42969 0.738281,-2.21875 0.738281,-0.79297 1.941406,-0.79297 1.050782,0 1.707032,0.6211 0.390625,0.36718 0.585937,1.05468 l -1.144531,0.27344 q -0.101563,-0.44531 -0.425781,-0.70312 -0.320313,-0.25782 -0.78125,-0.25782 -0.636719,0 -1.035157,0.45704 -0.394531,0.45703 -0.394531,1.48046 0,1.08594 0.390625,1.54688 0.390625,0.46094 1.015625,0.46094 0.460938,0 0.792969,-0.29297 0.332031,-0.29297 0.476562,-0.92188 z"
           id="path74907"
           style="fill:#ede7dc;fill-opacity:1" />
        <path
           d="m 31.052246,101.07016 h 1.15625 v 3.10156 q 0,0.73828 0.04297,0.95703 0.07422,0.35157 0.351562,0.56641 0.28125,0.21094 0.765625,0.21094 0.492188,0 0.742188,-0.19922 0.25,-0.20313 0.300781,-0.4961 0.05078,-0.29296 0.05078,-0.97265 v -3.16797 h 1.15625 v 3.00781 q 0,1.03125 -0.09375,1.45703 -0.09375,0.42578 -0.347656,0.71875 -0.25,0.29297 -0.671875,0.46875 -0.421875,0.17188 -1.101562,0.17188 -0.820313,0 -1.246094,-0.1875 -0.421875,-0.19141 -0.667969,-0.49219 -0.246094,-0.30469 -0.324219,-0.63672 -0.113281,-0.49219 -0.113281,-1.45312 z"
           id="path74909"
           style="fill:#ede7dc;fill-opacity:1" />
        <path
           d="m 36.841309,106.79672 v -5.72656 h 2.433593 q 0.917969,0 1.332032,0.15625 0.417968,0.15234 0.667968,0.54687 0.25,0.39454 0.25,0.90235 0,0.64453 -0.378906,1.0664 -0.378906,0.41797 -1.132812,0.52735 0.375,0.21875 0.617187,0.48047 0.246094,0.26172 0.660156,0.92968 l 0.699219,1.11719 h -1.382812 l -0.835938,-1.24609 q -0.445312,-0.66797 -0.609375,-0.83985 -0.164062,-0.17578 -0.347656,-0.23828 -0.183594,-0.0664 -0.582031,-0.0664 h -0.234375 v 2.39062 z m 1.15625,-3.30469 h 0.855468 q 0.832032,0 1.039063,-0.0703 0.207031,-0.0703 0.324219,-0.24219 0.117187,-0.17187 0.117187,-0.42968 0,-0.28907 -0.15625,-0.46485 -0.152344,-0.17968 -0.433594,-0.22656 -0.140625,-0.0195 -0.84375,-0.0195 h -0.902343 z"
           id="path74911"
           style="fill:#ede7dc;fill-opacity:1" />
        <path
           d="m 42.321777,104.93344 1.125,-0.10937 q 0.101563,0.5664 0.410157,0.83203 0.3125,0.26562 0.839843,0.26562 0.558594,0 0.839844,-0.23437 0.285156,-0.23828 0.285156,-0.55469 0,-0.20313 -0.121093,-0.34375 -0.117188,-0.14453 -0.414063,-0.25 -0.203125,-0.0703 -0.925781,-0.25 -0.929688,-0.23047 -1.304688,-0.56641 -0.527343,-0.47265 -0.527343,-1.15234 0,-0.4375 0.246093,-0.81641 0.25,-0.38281 0.714844,-0.58203 0.46875,-0.19922 1.128906,-0.19922 1.078125,0 1.621094,0.47266 0.546875,0.47266 0.574219,1.26172 l -1.15625,0.0508 q -0.07422,-0.44141 -0.320313,-0.63281 -0.242187,-0.19532 -0.730468,-0.19532 -0.503907,0 -0.789063,0.20704 -0.183594,0.13281 -0.183594,0.35546 0,0.20313 0.171875,0.34766 0.21875,0.18359 1.0625,0.38281 0.84375,0.19922 1.246094,0.41407 0.40625,0.21093 0.632813,0.58203 0.230468,0.36718 0.230468,0.91015 0,0.49219 -0.273437,0.92188 -0.273438,0.42969 -0.773438,0.64062 -0.5,0.20703 -1.246093,0.20703 -1.085938,0 -1.667969,-0.5 -0.582031,-0.5039 -0.695313,-1.46484 z"
           id="path74913"
           style="fill:#ede7dc;fill-opacity:1" />
        <path
           d="m 47.915527,106.79672 v -5.72656 h 1.15625 v 5.72656 z"
           id="path74915"
           style="fill:#ede7dc;fill-opacity:1" />
        <path
           d="m 49.938965,103.9686 q 0,-0.875 0.261719,-1.46875 0.195312,-0.4375 0.53125,-0.78516 0.339843,-0.34766 0.742187,-0.51562 0.535156,-0.22657 1.234375,-0.22657 1.265625,0 2.023438,0.78516 0.761718,0.78516 0.761718,2.18359 0,1.38672 -0.753906,2.17188 -0.753906,0.78125 -2.015625,0.78125 -1.277344,0 -2.03125,-0.77735 -0.753906,-0.78125 -0.753906,-2.14843 z m 1.191406,-0.0391 q 0,0.97266 0.449219,1.47657 0.449219,0.5 1.140625,0.5 0.691406,0 1.132812,-0.4961 0.445313,-0.5 0.445313,-1.49609 0,-0.98438 -0.433594,-1.46875 -0.429687,-0.48438 -1.144531,-0.48438 -0.714844,0 -1.152344,0.49219 -0.4375,0.48828 -0.4375,1.47656 z"
           id="path74917"
           style="fill:#ede7dc;fill-opacity:1" />
        <path
           d="m 56.407715,106.79672 v -5.72656 h 1.125 l 2.34375,3.82422 v -3.82422 h 1.074219 v 5.72656 h -1.160157 l -2.308593,-3.73437 v 3.73437 z"
           id="path74919"
           style="fill:#ede7dc;fill-opacity:1" />
        <path
           d="m 27.614746,112.69125 1.121094,0.35547 q -0.257813,0.9375 -0.859375,1.39453 -0.597656,0.45313 -1.519531,0.45313 -1.140625,0 -1.875,-0.77735 -0.734375,-0.78125 -0.734375,-2.13281 0,-1.42969 0.738281,-2.21875 0.738281,-0.79297 1.941406,-0.79297 1.050781,0 1.707031,0.6211 0.390625,0.36718 0.585938,1.05468 l -1.144531,0.27344 q -0.101563,-0.44531 -0.425782,-0.70312 -0.320312,-0.25782 -0.78125,-0.25782 -0.636718,0 -1.035156,0.45704 -0.394531,0.45703 -0.394531,1.48046 0,1.08594 0.390625,1.54688 0.390625,0.46094 1.015625,0.46094 0.460937,0 0.792969,-0.29297 0.332031,-0.29297 0.476562,-0.92188 z"
           id="path74921"
           style="fill:#ede7dc;fill-opacity:1" />
        <path
           d="m 29.493652,111.9686 q 0,-0.875 0.261719,-1.46875 0.195313,-0.4375 0.53125,-0.78516 0.339844,-0.34766 0.742188,-0.51562 0.535156,-0.22657 1.234375,-0.22657 1.265625,0 2.023437,0.78516 0.761719,0.78516 0.761719,2.18359 0,1.38672 -0.753906,2.17188 -0.753907,0.78125 -2.015625,0.78125 -1.277344,0 -2.03125,-0.77735 -0.753907,-0.78125 -0.753907,-2.14843 z m 1.191407,-0.0391 q 0,0.97266 0.449218,1.47657 0.449219,0.5 1.140625,0.5 0.691407,0 1.132813,-0.4961 0.445312,-0.5 0.445312,-1.49609 0,-0.98438 -0.433593,-1.46875 -0.429688,-0.48438 -1.144532,-0.48438 -0.714843,0 -1.152343,0.49219 -0.4375,0.48828 -0.4375,1.47656 z"
           id="path74923"
           style="fill:#ede7dc;fill-opacity:1" />
        <path
           d="m 35.942871,109.07016 h 1.15625 v 3.10156 q 0,0.73828 0.04297,0.95703 0.07422,0.35157 0.351562,0.56641 0.28125,0.21094 0.765625,0.21094 0.492188,0 0.742188,-0.19922 0.25,-0.20313 0.300781,-0.4961 0.05078,-0.29296 0.05078,-0.97265 v -3.16797 h 1.15625 v 3.00781 q 0,1.03125 -0.09375,1.45703 -0.09375,0.42578 -0.347656,0.71875 -0.25,0.29297 -0.671875,0.46875 -0.421875,0.17188 -1.101562,0.17188 -0.820313,0 -1.246094,-0.1875 -0.421875,-0.19141 -0.667969,-0.49219 -0.246094,-0.30469 -0.324219,-0.63672 -0.113281,-0.49219 -0.113281,-1.45312 z"
           id="path74925"
           style="fill:#ede7dc;fill-opacity:1" />
        <path
           d="m 41.739746,114.79672 v -5.72656 h 1.125 l 2.34375,3.82422 v -3.82422 h 1.074219 v 5.72656 h -1.160156 l -2.308594,-3.73437 v 3.73437 z"
           id="path74927"
           style="fill:#ede7dc;fill-opacity:1" />
        <path
           d="m 48.794434,114.79672 v -4.75781 h -1.699219 v -0.96875 h 4.550781 v 0.96875 h -1.695312 v 4.75781 z"
           id="path74929"
           style="fill:#ede7dc;fill-opacity:1" />
      </g>
      <g
         aria-label=" #@! RECURSE           #@!"
         id="text55937"
         style="font-weight:bold;font-size:13.3333px;line-height:1.25;font-family:Arial;-inkscape-font-specification:'Arial, Bold';fill:#ede7dc;fill-opacity:1">
        <path
           d="M 9.6438036,21.594441 H 8.7583892 v -1.432288 h 1.171872 L 10.320885,18.241585 H 8.7583892 v -1.438798 h 1.8554638 l 0.514322,-2.539056 h 1.45833 l -0.514322,2.539056 h 1.438798 l 0.501301,-2.539056 h 1.510413 l -0.520832,2.539056 h 0.898435 v 1.438798 h -1.191403 l -0.390624,1.920568 h 1.582027 v 1.432288 h -1.874995 l -0.514322,2.539056 h -1.451819 l 0.501301,-2.539056 h -1.445309 l -0.514322,2.539056 h -1.47135 z m 2.1419214,-3.352856 -0.384113,1.920568 h 1.445309 l 0.377603,-1.920568 z"
           id="path74876"
           style="fill:#ede7dc;fill-opacity:1" />
        <path
           d="m 27.625529,23.84704 h 1.386715 q -0.65104,1.321611 -1.998693,2.070307 -1.542965,0.859373 -3.763011,0.859373 -2.148432,0 -3.710928,-0.729165 -1.562496,-0.722654 -2.324213,-2.135411 -0.761717,-1.419267 -0.761717,-3.08593 0,-1.829422 0.865883,-3.404939 0.865884,-1.582027 2.369786,-2.369786 1.503902,-0.794269 3.437491,-0.794269 1.640621,0 2.91666,0.63802 1.276038,0.638019 1.946609,1.816401 0.677082,1.171872 0.677082,2.565098 0,1.660152 -1.022133,3.001294 -1.282549,1.692704 -3.287752,1.692704 -0.540363,0 -0.8138,-0.188801 -0.273437,-0.188802 -0.364583,-0.553384 -0.768227,0.742185 -1.770828,0.742185 -1.080727,0 -1.796871,-0.742185 -0.709633,-0.748696 -0.709633,-1.985672 0,-1.529944 0.859372,-2.792962 1.041664,-1.536454 2.669264,-1.536454 1.158852,0 1.712236,0.885414 l 0.16276,-0.722654 h 1.718745 l -0.98307,4.667957 q -0.09115,0.442707 -0.09115,0.572915 0,0.16276 0.07162,0.247395 0.07813,0.07813 0.182291,0.07813 0.312499,0 0.80729,-0.377603 0.66406,-0.494791 1.074216,-1.328122 0.410155,-0.833331 0.410155,-1.725256 0,-1.601559 -1.158851,-2.675775 -1.158852,-1.080726 -3.235669,-1.080726 -1.764319,0 -2.994784,0.722654 -1.223956,0.716144 -1.848954,2.024735 -0.618488,1.30208 -0.618488,2.714837 0,1.373694 0.690102,2.499993 0.696613,1.1263 1.94661,1.640621 1.256507,0.520832 2.871086,0.520832 1.555986,0 2.675775,-0.436197 1.119789,-0.429686 1.803381,-1.295569 z m -7.037743,-2.675775 q 0,0.826821 0.332031,1.217445 0.33854,0.390624 0.833331,0.390624 0.371093,0 0.696613,-0.182291 0.247395,-0.130208 0.48828,-0.410155 0.345051,-0.397135 0.592446,-1.158851 0.253906,-0.761717 0.253906,-1.419268 0,-0.735675 -0.345052,-1.126299 -0.33854,-0.397134 -0.859372,-0.397134 -0.559895,0 -1.035154,0.436196 -0.475259,0.429687 -0.716144,1.230466 -0.240885,0.800779 -0.240885,1.419267 z"
           id="path74878"
           style="fill:#ede7dc;fill-opacity:1" />
        <path
           d="m 30.73099,21.509806 -0.475259,-4.843738 v -2.239577 h 1.979161 v 2.239577 l -0.468749,4.843738 z m -0.397135,2.460931 v -1.829422 h 1.829423 v 1.829422 z"
           id="path74880"
           style="fill:#ede7dc;fill-opacity:1" />
        <path
           d="m 5.9133443,40.637362 v -9.544247 h 4.0559793 q 1.5299444,0 2.2200464,0.260416 0.696613,0.253906 1.113279,0.911456 0.416665,0.657551 0.416665,1.503903 0,1.074216 -0.631509,1.777339 -0.631508,0.696613 -1.888016,0.878904 0.624999,0.364582 1.028644,0.800779 0.410155,0.436197 1.100257,1.549476 l 1.165362,1.861974 H 12.18937 L 10.796144,38.560544 Q 10.053959,37.447266 9.780522,37.160808 9.5070852,36.86784 9.2010964,36.763674 8.8951076,36.652997 8.2310468,36.652997 h -0.390624 v 3.984365 z m 1.9270785,-5.507799 h 1.4257776 q 1.3867156,0 1.7317666,-0.117187 0.345051,-0.117187 0.540363,-0.403645 0.195312,-0.286457 0.195312,-0.716144 0,-0.481769 -0.260416,-0.774737 -0.253906,-0.299479 -0.722654,-0.377603 -0.234375,-0.03255 -1.4062468,-0.03255 H 7.8404228 Z"
           id="path74882"
           style="fill:#ede7dc;fill-opacity:1" />
        <path
           d="m 15.535715,40.637362 v -9.544247 h 7.076805 v 1.61458 h -5.149726 v 2.11588 h 4.791654 v 1.608068 h -4.791654 v 2.59765 h 5.332018 v 1.608069 z"
           id="path74884"
           style="fill:#ede7dc;fill-opacity:1" />
        <path
           d="m 30.535676,37.128256 1.868485,0.592447 q -0.429686,1.562496 -1.432288,2.324213 -0.996091,0.755206 -2.532545,0.755206 -1.901037,0 -3.124993,-1.29557 -1.223955,-1.30208 -1.223955,-3.554678 0,-2.382807 1.230466,-3.697907 1.230465,-1.321612 3.235669,-1.321612 1.751297,0 2.845045,1.035154 0.65104,0.611978 0.97656,1.757808 l -1.907548,0.455728 q -0.16927,-0.742186 -0.709633,-1.171872 -0.533853,-0.429686 -1.30208,-0.429686 -1.061196,0 -1.725256,0.761716 -0.657551,0.761717 -0.657551,2.467442 0,1.809891 0.65104,2.578119 0.65104,0.768227 1.692704,0.768227 0.768228,0 1.321612,-0.48828 0.553384,-0.48828 0.794268,-1.536455 z"
           id="path74886"
           style="fill:#ede7dc;fill-opacity:1" />
        <path
           d="m 34.044784,31.093115 h 1.927078 v 5.169258 q 0,1.230466 0.07161,1.595048 0.123698,0.585936 0.585936,0.944008 0.468749,0.351562 1.276039,0.351562 0.82031,0 1.236976,-0.332031 0.416666,-0.33854 0.501301,-0.82682 0.08463,-0.48828 0.08463,-1.62109 v -5.279935 h 1.927078 v 5.013008 q 0,1.718746 -0.156249,2.42838 -0.15625,0.709633 -0.579426,1.197913 -0.416665,0.48828 -1.119789,0.781248 -0.703123,0.286458 -1.835933,0.286458 -1.367184,0 -2.076817,-0.312499 -0.703123,-0.31901 -1.113279,-0.820311 -0.410155,-0.507811 -0.540363,-1.061195 -0.188801,-0.82031 -0.188801,-2.421869 z"
           id="path74888"
           style="fill:#ede7dc;fill-opacity:1" />
        <path
           d="m 43.693194,40.637362 v -9.544247 h 4.05598 q 1.529944,0 2.220046,0.260416 0.696613,0.253906 1.113279,0.911456 0.416665,0.657551 0.416665,1.503903 0,1.074216 -0.631509,1.777339 -0.631508,0.696613 -1.888016,0.878904 0.624999,0.364582 1.028644,0.800779 0.410155,0.436197 1.100257,1.549476 l 1.165362,1.861974 H 49.96922 L 48.575994,38.560544 Q 47.833809,37.447266 47.560372,37.160808 47.286935,36.86784 46.980946,36.763674 46.674958,36.652997 46.010897,36.652997 h -0.390624 v 3.984365 z m 1.927079,-5.507799 h 1.425777 q 1.386716,0 1.731767,-0.117187 0.345051,-0.117187 0.540363,-0.403645 0.195312,-0.286457 0.195312,-0.716144 0,-0.481769 -0.260416,-0.774737 -0.253906,-0.299479 -0.722654,-0.377603 -0.234375,-0.03255 -1.406247,-0.03255 h -1.503902 z"
           id="path74890"
           style="fill:#ede7dc;fill-opacity:1" />
        <path
           d="m 52.827287,37.531901 1.874996,-0.182291 q 0.16927,0.944008 0.683592,1.386715 0.520832,0.442707 1.399736,0.442707 0.930987,0 1.399736,-0.390624 0.475259,-0.397134 0.475259,-0.924476 0,-0.338541 -0.201823,-0.572916 -0.195312,-0.240885 -0.690102,-0.416665 -0.338541,-0.117188 -1.542965,-0.416666 -1.549475,-0.384114 -2.174474,-0.944008 -0.878904,-0.787758 -0.878904,-1.920568 0,-0.729165 0.410156,-1.360674 0.416665,-0.638019 1.191403,-0.970049 0.781248,-0.332031 1.881506,-0.332031 1.79687,0 2.701816,0.787759 0.911456,0.787758 0.957028,2.102859 l -1.927078,0.08463 q -0.123698,-0.735675 -0.533853,-1.054685 -0.403645,-0.32552 -1.217445,-0.32552 -0.839841,0 -1.3151,0.345052 -0.305989,0.221353 -0.305989,0.592446 0,0.338541 0.286457,0.579426 0.364583,0.305988 1.770829,0.638019 1.406247,0.33203 2.076818,0.690102 0.677081,0.351562 1.054685,0.97005 0.384113,0.611977 0.384113,1.516923 0,0.820311 -0.455728,1.536455 -0.455728,0.716144 -1.289059,1.067705 -0.833331,0.345051 -2.076818,0.345051 -1.809891,0 -2.779941,-0.833331 -0.970049,-0.839841 -1.158851,-2.4414 z"
           id="path74892"
           style="fill:#ede7dc;fill-opacity:1" />
        <path
           d="m 62.208775,40.637362 v -9.544247 h 7.076805 v 1.61458 h -5.149727 v 2.11588 h 4.791655 v 1.608068 h -4.791655 v 2.59765 h 5.332018 v 1.608069 z"
           id="path74894"
           style="fill:#ede7dc;fill-opacity:1" />
        <path
           d="m 42.983564,54.92769 h -0.885415 v -1.432288 h 1.171873 l 0.390624,-1.920568 h -1.562497 v -1.438798 h 1.855465 l 0.514321,-2.539056 h 1.45833 l -0.514322,2.539056 h 1.438799 l 0.5013,-2.539056 h 1.510413 l -0.520832,2.539056 h 0.898436 v 1.438798 h -1.191404 l -0.390624,1.920568 h 1.582028 v 1.432288 h -1.874996 l -0.514321,2.539057 h -1.45182 l 0.501301,-2.539057 h -1.445309 l -0.514321,2.539057 h -1.471351 z m 2.141922,-3.352856 -0.384114,1.920568 h 1.445309 l 0.377603,-1.920568 z"
           id="path74896"
           style="fill:#ede7dc;fill-opacity:1" />
        <path
           d="m 60.965288,57.180289 h 1.386715 q -0.65104,1.321611 -1.998693,2.070307 -1.542965,0.859373 -3.763011,0.859373 -2.148432,0 -3.710928,-0.729165 -1.562496,-0.722654 -2.324213,-2.135411 -0.761717,-1.419267 -0.761717,-3.08593 0,-1.829422 0.865883,-3.404939 0.865883,-1.582027 2.369786,-2.369786 1.503902,-0.794269 3.437491,-0.794269 1.640621,0 2.916659,0.63802 1.276039,0.638019 1.94661,1.816401 0.677082,1.171872 0.677082,2.565098 0,1.660152 -1.022133,3.001294 -1.282549,1.692705 -3.287752,1.692705 -0.540363,0 -0.8138,-0.188802 -0.273437,-0.188802 -0.364583,-0.553384 -0.768227,0.742186 -1.770829,0.742186 -1.080726,0 -1.79687,-0.742186 -0.709634,-0.748696 -0.709634,-1.985672 0,-1.529944 0.859373,-2.792962 1.041664,-1.536454 2.669264,-1.536454 1.158852,0 1.712236,0.885414 l 0.16276,-0.722654 h 1.718745 l -0.98307,4.667957 q -0.09115,0.442707 -0.09115,0.572915 0,0.16276 0.07162,0.247395 0.07812,0.07813 0.182291,0.07813 0.312499,0 0.807289,-0.377603 0.664061,-0.494791 1.074216,-1.328122 0.410156,-0.833331 0.410156,-1.725256 0,-1.601558 -1.158852,-2.675774 -1.158851,-1.080727 -3.235668,-1.080727 -1.764319,0 -2.994785,0.722654 -1.223955,0.716145 -1.848953,2.024735 -0.618488,1.30208 -0.618488,2.714837 0,1.373694 0.690102,2.499994 0.696613,1.126299 1.94661,1.64062 1.256507,0.520832 2.871086,0.520832 1.555986,0 2.675775,-0.436196 1.119789,-0.429687 1.803381,-1.29557 z m -7.037743,-2.675775 q 0,0.826821 0.33203,1.217445 0.338541,0.390624 0.833332,0.390624 0.371093,0 0.696613,-0.182291 0.247395,-0.130208 0.48828,-0.410155 0.345051,-0.397135 0.592446,-1.158851 0.253906,-0.761717 0.253906,-1.419268 0,-0.735675 -0.345052,-1.126299 -0.33854,-0.397134 -0.859372,-0.397134 -0.559895,0 -1.035154,0.436197 -0.475259,0.429686 -0.716144,1.230465 -0.240885,0.800779 -0.240885,1.419267 z"
           id="path74898"
           style="fill:#ede7dc;fill-opacity:1" />
        <path
           d="M 64.07075,54.843055 63.59549,49.999318 V 47.75974 h 1.979162 v 2.239578 l -0.468749,4.843737 z m -0.397135,2.460932 v -1.829423 h 1.829423 v 1.829423 z"
           id="path74900"
           style="fill:#ede7dc;fill-opacity:1" />
      </g>
      <g
         aria-label="RETURN"
         id="text20243"
         style="font-weight:bold;font-size:8px;line-height:1.25;font-family:Arial;-inkscape-font-specification:'Arial, Bold';fill:#ede7dc;fill-opacity:1">
        <path
           d="m 38.61121,284.87473 v -5.72657 h 2.433594 q 0.917968,0 1.332031,0.15625 0.417969,0.15235 0.667969,0.54688 0.25,0.39453 0.25,0.90234 0,0.64453 -0.378907,1.06641 -0.378906,0.41797 -1.132812,0.52734 0.375,0.21875 0.617187,0.48047 0.246094,0.26172 0.660157,0.92969 l 0.699218,1.11719 h -1.382812 l -0.835938,-1.2461 q -0.445312,-0.66797 -0.609375,-0.83984 -0.164062,-0.17578 -0.347656,-0.23828 -0.183594,-0.0664 -0.582031,-0.0664 H 39.76746 v 2.39063 z m 1.15625,-3.30469 h 0.855469 q 0.832031,0 1.039062,-0.0703 0.207031,-0.0703 0.324219,-0.24219 0.117187,-0.17188 0.117187,-0.42969 0,-0.28906 -0.15625,-0.46484 -0.152343,-0.17969 -0.433593,-0.22657 -0.140625,-0.0195 -0.84375,-0.0195 H 39.76746 Z"
           id="path74965"
           style="fill:#ede7dc;fill-opacity:1" />
        <path
           d="m 44.384647,284.87473 v -5.72657 h 4.246094 v 0.96875 h -3.089844 v 1.26953 h 2.875 v 0.96485 h -2.875 v 1.55859 h 3.199219 v 0.96485 z"
           id="path74967"
           style="fill:#ede7dc;fill-opacity:1" />
        <path
           d="m 51.009647,284.87473 v -4.75782 h -1.699218 v -0.96875 h 4.550781 v 0.96875 h -1.695313 v 4.75782 z"
           id="path74969"
           style="fill:#ede7dc;fill-opacity:1" />
        <path
           d="m 54.599491,279.14816 h 1.15625 v 3.10157 q 0,0.73828 0.04297,0.95703 0.07422,0.35156 0.351562,0.5664 0.28125,0.21094 0.765625,0.21094 0.492188,0 0.742188,-0.19922 0.25,-0.20312 0.300781,-0.49609 0.05078,-0.29297 0.05078,-0.97266 v -3.16797 h 1.15625 v 3.00782 q 0,1.03125 -0.09375,1.45703 -0.09375,0.42578 -0.347656,0.71875 -0.25,0.29297 -0.671875,0.46875 -0.421875,0.17187 -1.101562,0.17187 -0.820313,0 -1.246094,-0.1875 -0.421875,-0.1914 -0.667969,-0.49219 -0.246094,-0.30468 -0.324219,-0.63671 -0.113281,-0.49219 -0.113281,-1.45313 z"
           id="path74971"
           style="fill:#ede7dc;fill-opacity:1" />
        <path
           d="m 60.388554,284.87473 v -5.72657 h 2.433593 q 0.917969,0 1.332032,0.15625 0.417968,0.15235 0.667968,0.54688 0.25,0.39453 0.25,0.90234 0,0.64453 -0.378906,1.06641 -0.378906,0.41797 -1.132812,0.52734 0.375,0.21875 0.617187,0.48047 0.246094,0.26172 0.660156,0.92969 l 0.699219,1.11719 h -1.382812 l -0.835938,-1.2461 q -0.445312,-0.66797 -0.609375,-0.83984 -0.164062,-0.17578 -0.347656,-0.23828 -0.183594,-0.0664 -0.582031,-0.0664 h -0.234375 v 2.39063 z m 1.15625,-3.30469 h 0.855468 q 0.832032,0 1.039063,-0.0703 0.207031,-0.0703 0.324219,-0.24219 0.117187,-0.17188 0.117187,-0.42969 0,-0.28906 -0.15625,-0.46484 -0.152344,-0.17969 -0.433594,-0.22657 -0.140625,-0.0195 -0.84375,-0.0195 h -0.902343 z"
           id="path74973"
           style="fill:#ede7dc;fill-opacity:1" />
        <path
           d="m 66.17371,284.87473 v -5.72657 h 1.125 l 2.34375,3.82422 v -3.82422 h 1.074219 v 5.72657 h -1.160157 l -2.308593,-3.73438 v 3.73438 z"
           id="path74975"
           style="fill:#ede7dc;fill-opacity:1" />
      </g>
      <g
         aria-label="nPre"
         id="text90603-0"
         style="font-size:8px;line-height:1.25;font-family:Arial;-inkscape-font-specification:'Arial, Normal';fill:#ede7dc;fill-opacity:1"
         transform="translate(-0.9951495,-6.823934)">
        <path
           d="m 13.955867,246.82091 v -4.14844 h 0.632812 v 0.58984 q 0.457032,-0.68359 1.320313,-0.68359 0.375,0 0.6875,0.13672 0.316406,0.13281 0.472656,0.35156 0.15625,0.21875 0.21875,0.51953 0.03906,0.19532 0.03906,0.6836 v 2.55078 h -0.703125 v -2.52344 q 0,-0.42969 -0.08203,-0.64062 -0.08203,-0.21485 -0.292968,-0.33985 -0.207032,-0.1289 -0.488282,-0.1289 -0.449218,0 -0.777343,0.28515 -0.324219,0.28516 -0.324219,1.08203 v 2.26563 z"
           id="path116819"
           style="fill:#ede7dc;fill-opacity:1" />
        <path
           d="m 18.494929,246.82091 v -5.72656 h 2.160157 q 0.570312,0 0.871093,0.0547 0.421875,0.0703 0.707032,0.26953 0.285156,0.19532 0.457031,0.55079 0.175781,0.35546 0.175781,0.78125 0,0.73046 -0.464844,1.23828 -0.464843,0.5039 -1.679687,0.5039 h -1.46875 v 2.32813 z m 0.757813,-3.00391 h 1.480469 q 0.734375,0 1.042968,-0.27344 0.308594,-0.27343 0.308594,-0.76953 0,-0.35937 -0.183594,-0.61328 -0.179687,-0.25781 -0.476562,-0.33984 -0.191406,-0.0508 -0.707031,-0.0508 h -1.464844 z"
           id="path116821"
           style="fill:#ede7dc;fill-opacity:1" />
        <path
           d="m 23.733211,246.82091 v -4.14844 h 0.632812 v 0.62891 q 0.242188,-0.44141 0.445313,-0.58203 0.207031,-0.14063 0.453125,-0.14063 0.355468,0 0.722656,0.22656 l -0.242188,0.65235 q -0.257812,-0.15235 -0.515625,-0.15235 -0.230468,0 -0.414062,0.14063 -0.183594,0.13672 -0.261719,0.38281 -0.117187,0.375 -0.117187,0.82031 v 2.17188 z"
           id="path116823"
           style="fill:#ede7dc;fill-opacity:1" />
        <path
           d="m 29.244929,245.48497 0.726563,0.0898 q -0.171875,0.63672 -0.636719,0.98829 -0.464844,0.35156 -1.1875,0.35156 -0.910156,0 -1.445312,-0.5586 -0.53125,-0.5625 -0.53125,-1.57421 0,-1.04688 0.539062,-1.625 0.539063,-0.57813 1.398438,-0.57813 0.832031,0 1.359375,0.56641 0.527343,0.5664 0.527343,1.59375 0,0.0625 -0.0039,0.1875 h -3.09375 q 0.03906,0.68359 0.386719,1.04687 0.347656,0.36328 0.867187,0.36328 0.386719,0 0.660157,-0.20312 0.273437,-0.20313 0.433593,-0.64844 z m -2.308593,-1.13672 h 2.316406 q -0.04687,-0.52344 -0.265625,-0.78515 -0.335938,-0.40625 -0.871094,-0.40625 -0.484375,0 -0.816406,0.32421 -0.328125,0.32422 -0.363281,0.86719 z"
           id="path116825"
           style="fill:#ede7dc;fill-opacity:1" />
      </g>
      <g
         aria-label="nPost"
         id="text106293"
         style="font-size:8px;line-height:1.25;font-family:Arial;-inkscape-font-specification:'Arial, Normal';fill:#ede7dc;fill-opacity:1"
         transform="translate(3.6393637,-6.5986825)">
        <path
           d="m 42.344692,246.4238 v -4.14844 h 0.632813 v 0.58984 q 0.457031,-0.68359 1.320312,-0.68359 0.375,0 0.6875,0.13672 0.316406,0.13281 0.472656,0.35156 0.15625,0.21875 0.21875,0.51953 0.03906,0.19532 0.03906,0.6836 v 2.55078 h -0.703125 v -2.52344 q 0,-0.42969 -0.08203,-0.64062 -0.08203,-0.21485 -0.292969,-0.33985 -0.207031,-0.1289 -0.488281,-0.1289 -0.449219,0 -0.777344,0.28515 -0.324219,0.28516 -0.324219,1.08203 v 2.26563 z"
           id="path116828"
           style="fill:#ede7dc;fill-opacity:1" />
        <path
           d="m 46.883755,246.4238 v -5.72656 h 2.160156 q 0.570312,0 0.871094,0.0547 0.421875,0.0703 0.707031,0.26953 0.285156,0.19532 0.457031,0.55079 0.175781,0.35546 0.175781,0.78125 0,0.73046 -0.464843,1.23828 -0.464844,0.5039 -1.679688,0.5039 h -1.46875 v 2.32813 z m 0.757812,-3.00391 h 1.480469 q 0.734375,0 1.042969,-0.27344 0.308593,-0.27343 0.308593,-0.76953 0,-0.35937 -0.183593,-0.61328 -0.179688,-0.25781 -0.476563,-0.33984 -0.191406,-0.0508 -0.707031,-0.0508 h -1.464844 z"
           id="path116830"
           style="fill:#ede7dc;fill-opacity:1" />
        <path
           d="m 51.86813,244.34958 q 0,-1.15234 0.640625,-1.70703 0.535156,-0.46094 1.304687,-0.46094 0.855469,0 1.398438,0.5625 0.542968,0.55859 0.542968,1.54688 0,0.80078 -0.242187,1.26171 -0.238281,0.45704 -0.699219,0.71094 -0.457031,0.25391 -1,0.25391 -0.871094,0 -1.410156,-0.5586 -0.535156,-0.55859 -0.535156,-1.60937 z m 0.722656,0 q 0,0.79687 0.347656,1.19531 0.347656,0.39453 0.875,0.39453 0.523438,0 0.871094,-0.39843 0.347656,-0.39844 0.347656,-1.21485 0,-0.76953 -0.351562,-1.16406 -0.347657,-0.39844 -0.867188,-0.39844 -0.527344,0 -0.875,0.39453 -0.347656,0.39453 -0.347656,1.19141 z"
           id="path116832"
           style="fill:#ede7dc;fill-opacity:1" />
        <path
           d="m 56.297817,245.18552 0.695313,-0.10938 q 0.05859,0.41797 0.324218,0.64063 0.269532,0.22265 0.75,0.22265 0.484375,0 0.71875,-0.19531 0.234375,-0.19922 0.234375,-0.46484 0,-0.23828 -0.207031,-0.375 -0.144531,-0.0937 -0.71875,-0.23828 -0.773437,-0.19532 -1.074219,-0.33594 -0.296875,-0.14453 -0.453125,-0.39453 -0.152343,-0.25391 -0.152343,-0.5586 0,-0.27734 0.125,-0.51172 0.128906,-0.23828 0.347656,-0.39453 0.164062,-0.12109 0.445312,-0.20312 0.285157,-0.0859 0.609375,-0.0859 0.488282,0 0.855469,0.14063 0.371094,0.14062 0.546875,0.38281 0.175781,0.23828 0.242188,0.64062 l -0.6875,0.0937 q -0.04687,-0.32031 -0.273438,-0.5 -0.222656,-0.17968 -0.632812,-0.17968 -0.484375,0 -0.691407,0.16015 -0.207031,0.16016 -0.207031,0.375 0,0.13672 0.08594,0.2461 0.08594,0.11328 0.269531,0.1875 0.105469,0.0391 0.621094,0.17968 0.746093,0.19922 1.039062,0.32813 0.296875,0.125 0.464844,0.36719 0.167969,0.24218 0.167969,0.60156 0,0.35156 -0.207032,0.66406 -0.203125,0.30859 -0.589843,0.48047 -0.386719,0.16797 -0.875,0.16797 -0.808594,0 -1.234375,-0.33594 -0.421875,-0.33594 -0.539063,-0.99609 z"
           id="path116834"
           style="fill:#ede7dc;fill-opacity:1" />
        <path
           d="m 62.114223,245.79489 0.101563,0.6211 q -0.296875,0.0625 -0.53125,0.0625 -0.382813,0 -0.59375,-0.1211 -0.210938,-0.12109 -0.296875,-0.3164 -0.08594,-0.19922 -0.08594,-0.83204 v -2.38671 h -0.515625 v -0.54688 h 0.515625 v -1.02734 l 0.699219,-0.42188 v 1.44922 h 0.707031 v 0.54688 H 61.40719 v 2.42578 q 0,0.30078 0.03516,0.38672 0.03906,0.0859 0.121094,0.13671 0.08594,0.0508 0.242188,0.0508 0.117187,0 0.308593,-0.0273 z"
           id="path116836"
           style="fill:#ede7dc;fill-opacity:1" />
      </g>
      <g
         aria-label="1Pre"
         id="text77705"
         style="font-size:8px;line-height:1.25;font-family:Arial;-inkscape-font-specification:Arial;fill:#ede7dc;fill-opacity:1">
        <path
           d="m 16.486979,267.27802 h -0.703125 v -4.48047 q -0.253906,0.24218 -0.667968,0.48437 -0.410157,0.24219 -0.738282,0.36328 v -0.67968 q 0.589844,-0.27735 1.03125,-0.67188 0.441407,-0.39453 0.625,-0.76562 h 0.453125 z"
           id="path116839"
           style="fill:#ede7dc;fill-opacity:1" />
        <path
           d="m 18.572917,267.27802 v -5.72657 h 2.160156 q 0.570313,0 0.871094,0.0547 0.421875,0.0703 0.707031,0.26953 0.285156,0.19531 0.457031,0.55078 0.175782,0.35547 0.175782,0.78125 0,0.73047 -0.464844,1.23828 -0.464844,0.50391 -1.679688,0.50391 h -1.46875 v 2.32813 z m 0.757812,-3.00391 h 1.480469 q 0.734375,0 1.042969,-0.27344 0.308594,-0.27344 0.308594,-0.76953 0,-0.35937 -0.183594,-0.61328 -0.179688,-0.25781 -0.476563,-0.33984 -0.191406,-0.0508 -0.707031,-0.0508 h -1.464844 z"
           id="path116841"
           style="fill:#ede7dc;fill-opacity:1" />
        <path
           d="m 23.811198,267.27802 v -4.14844 h 0.632813 v 0.6289 q 0.242187,-0.4414 0.445312,-0.58203 0.207031,-0.14062 0.453125,-0.14062 0.355469,0 0.722656,0.22656 l -0.242187,0.65234 q -0.257813,-0.15234 -0.515625,-0.15234 -0.230469,0 -0.414063,0.14063 -0.183593,0.13671 -0.261718,0.38281 -0.117188,0.375 -0.117188,0.82031 v 2.17188 z"
           id="path116843"
           style="fill:#ede7dc;fill-opacity:1" />
        <path
           d="m 29.322917,265.94208 0.726562,0.0898 q -0.171875,0.63672 -0.636718,0.98828 -0.464844,0.35157 -1.1875,0.35157 -0.910157,0 -1.445313,-0.5586 -0.53125,-0.5625 -0.53125,-1.57422 0,-1.04687 0.539063,-1.625 0.539062,-0.57812 1.398437,-0.57812 0.832031,0 1.359375,0.5664 0.527344,0.56641 0.527344,1.59375 0,0.0625 -0.0039,0.1875 h -3.09375 q 0.03906,0.6836 0.386718,1.04688 0.347657,0.36328 0.867188,0.36328 0.386719,0 0.660156,-0.20312 0.273438,-0.20313 0.433594,-0.64844 z m -2.308594,-1.13672 h 2.316406 q -0.04687,-0.52344 -0.265625,-0.78516 -0.335937,-0.40625 -0.871093,-0.40625 -0.484375,0 -0.816407,0.32422 -0.328125,0.32422 -0.363281,0.86719 z"
           id="path116845"
           style="fill:#ede7dc;fill-opacity:1" />
      </g>
      <g
         aria-label="1Post"
         id="text110893"
         style="font-size:8px;line-height:1.25;font-family:Arial;-inkscape-font-specification:'Arial, Normal';fill:#ede7dc;fill-opacity:1">
        <path
           d="M 44.579185,267.14279 H 43.87606 v -4.48047 q -0.253906,0.24219 -0.667968,0.48438 -0.410157,0.24219 -0.738282,0.36328 v -0.67969 q 0.589844,-0.27734 1.03125,-0.67187 0.441407,-0.39453 0.625,-0.76563 h 0.453125 z"
           id="path116848"
           style="fill:#ede7dc;fill-opacity:1" />
        <path
           d="m 46.665123,267.14279 v -5.72656 h 2.160156 q 0.570313,0 0.871094,0.0547 0.421875,0.0703 0.707031,0.26953 0.285156,0.19531 0.457031,0.55078 0.175782,0.35547 0.175782,0.78125 0,0.73047 -0.464844,1.23828 -0.464844,0.50391 -1.679688,0.50391 h -1.46875 v 2.32812 z m 0.757812,-3.0039 h 1.480469 q 0.734375,0 1.042969,-0.27344 0.308594,-0.27344 0.308594,-0.76953 0,-0.35938 -0.183594,-0.61328 -0.179688,-0.25782 -0.476563,-0.33985 -0.191406,-0.0508 -0.707031,-0.0508 h -1.464844 z"
           id="path116850"
           style="fill:#ede7dc;fill-opacity:1" />
        <path
           d="m 51.649498,265.06857 q 0,-1.15234 0.640625,-1.70703 0.535156,-0.46094 1.304687,-0.46094 0.855469,0 1.398438,0.5625 0.542969,0.5586 0.542969,1.54688 0,0.80078 -0.242188,1.26172 -0.238281,0.45703 -0.699219,0.71094 -0.457031,0.2539 -1,0.2539 -0.871093,0 -1.410156,-0.55859 -0.535156,-0.5586 -0.535156,-1.60938 z m 0.722656,0 q 0,0.79688 0.347656,1.19532 0.347657,0.39453 0.875,0.39453 0.523438,0 0.871094,-0.39844 0.347656,-0.39844 0.347656,-1.21484 0,-0.76954 -0.351562,-1.16407 -0.347656,-0.39843 -0.867188,-0.39843 -0.527343,0 -0.875,0.39453 -0.347656,0.39453 -0.347656,1.1914 z"
           id="path116852"
           style="fill:#ede7dc;fill-opacity:1" />
        <path
           d="m 56.079185,265.90451 0.695313,-0.10937 q 0.05859,0.41796 0.324219,0.64062 0.269531,0.22266 0.75,0.22266 0.484375,0 0.71875,-0.19532 0.234375,-0.19921 0.234375,-0.46484 0,-0.23828 -0.207032,-0.375 -0.144531,-0.0937 -0.71875,-0.23828 -0.773437,-0.19531 -1.074218,-0.33594 -0.296875,-0.14453 -0.453125,-0.39453 -0.152344,-0.25391 -0.152344,-0.55859 0,-0.27735 0.125,-0.51172 0.128906,-0.23828 0.347656,-0.39453 0.164063,-0.1211 0.445313,-0.20313 0.285156,-0.0859 0.609375,-0.0859 0.488281,0 0.855468,0.14063 0.371094,0.14062 0.546875,0.38281 0.175782,0.23828 0.242188,0.64063 l -0.6875,0.0937 q -0.04687,-0.32032 -0.273438,-0.5 -0.222656,-0.17969 -0.632812,-0.17969 -0.484375,0 -0.691406,0.16016 -0.207032,0.16015 -0.207032,0.375 0,0.13671 0.08594,0.24609 0.08594,0.11328 0.269531,0.1875 0.105469,0.0391 0.621094,0.17969 0.746094,0.19922 1.039062,0.32812 0.296875,0.125 0.464844,0.36719 0.167969,0.24219 0.167969,0.60156 0,0.35156 -0.207031,0.66406 -0.203125,0.3086 -0.589844,0.48047 -0.386719,0.16797 -0.875,0.16797 -0.808594,0 -1.234375,-0.33594 -0.421875,-0.33593 -0.539063,-0.99609 z"
           id="path116854"
           style="fill:#ede7dc;fill-opacity:1" />
        <path
           d="m 61.895592,266.51389 0.101562,0.62109 q -0.296875,0.0625 -0.53125,0.0625 -0.382812,0 -0.59375,-0.12109 -0.210937,-0.1211 -0.296875,-0.31641 -0.08594,-0.19922 -0.08594,-0.83203 v -2.38672 h -0.515625 v -0.54688 h 0.515625 v -1.02734 l 0.699218,-0.42187 v 1.44921 h 0.707032 v 0.54688 H 61.18856 v 2.42578 q 0,0.30078 0.03516,0.38672 0.03906,0.0859 0.121093,0.13672 0.08594,0.0508 0.242188,0.0508 0.117187,0 0.308594,-0.0273 z"
           id="path116856"
           style="fill:#ede7dc;fill-opacity:1" />
      </g>
    </g>
    <path
       d="m 39.999496,298.60963 -2.87167,-1.658 a 0.37187,0.37187 0 0 0 -0.5578,0.322 v 3.316 a 0.37187,0.37187 0 0 0 0.5578,0.322 l 2.87167,-1.658 a 0.37186,0.37186 0 0 0 0,-0.644 z"
       fill="#1f1f1f"
       id="path26"
       style="fill:#ede7dc;fill-opacity:1" />
  </g>
</svg>
