<?xml version="1.0" encoding="UTF-8" standalone="no"?>
<!-- Created with Inkscape (http://www.inkscape.org/) -->

<svg
   width="45"
   height="380"
   viewBox="0 0 119.0625 1005.4167"
   version="1.1"
   id="svg5"
   inkscape:version="1.1.1 (3bf5ae0d25, 2021-09-20)"
   sodipodi:docname="SphereToXYZ_Coal.svg"
   xmlns:inkscape="http://www.inkscape.org/namespaces/inkscape"
   xmlns:sodipodi="http://sodipodi.sourceforge.net/DTD/sodipodi-0.dtd"
   xmlns="http://www.w3.org/2000/svg"
   xmlns:svg="http://www.w3.org/2000/svg">
  <sodipodi:namedview
     id="namedview7"
     pagecolor="#ffffff"
     bordercolor="#666666"
     borderopacity="1.0"
     inkscape:pageshadow="2"
     inkscape:pageopacity="0.0"
     inkscape:pagecheckerboard="0"
     inkscape:document-units="mm"
     showgrid="true"
     scale-x="10"
     inkscape:showpageshadow="false"
     viewbox-x="0"
     showguides="false"
     objecttolerance="1"
     gridtolerance="1"
     guidetolerance="1"
     inkscape:zoom="2.2342105"
     inkscape:cx="22.37927"
     inkscape:cy="190"
     inkscape:window-width="1920"
     inkscape:window-height="1057"
     inkscape:window-x="1592"
     inkscape:window-y="-8"
     inkscape:window-maximized="1"
     inkscape:current-layer="layer5"
     units="px">
    <inkscape:grid
       type="xygrid"
       id="grid832"
       units="px"
       spacingx="2.6458334"
       spacingy="2.6458334"
       originx="0"
       empspacing="5"
       dotted="false"
       visible="false"
       enabled="true" />
    <inkscape:grid
       type="xygrid"
       id="grid15270"
       visible="false" />
  </sodipodi:namedview>
  <defs
     id="defs2" />
  <g
     inkscape:groupmode="layer"
     id="layer3"
     inkscape:label="Faceplate"
     style="display:inline">
    <rect
       style="vector-effect:non-scaling-stroke;fill:#252525;fill-opacity:1;stroke-width:0.186761;-inkscape-stroke:hairline"
       id="rect910"
       width="119.0625"
       height="1005.4167"
       x="0"
       y="3.0735944e-05" />
  </g>
  <g
     inkscape:groupmode="layer"
     id="layer4"
     inkscape:label="Brand"
     style="display:inline">
    <g
       id="g42796"
       transform="matrix(0.79338965,0,0,0.79458332,-1.265367,-19.617028)"
       style="fill:#ff0000;stroke-width:1.27904">
      <g
         aria-label="enom"
         id="text4270-27"
         style="font-size:49.3889px;line-height:1.25;font-family:'NECK ROMANCER';-inkscape-font-specification:'NECK ROMANCER, Normal';font-variant-ligatures:none;text-align:center;text-anchor:middle;fill:#ff0000;stroke-width:3.38412">
        <path
           d="m 46.609141,1249.244 q 0,1.1576 0,3.4245 3.183269,0 9.453344,0 -1.639866,0.5787 -2.990343,1.2058 -1.350478,0.627 -2.363337,1.688 -1.350477,0 -4.051433,0 0,1.4952 0.434082,2.5563 0.385851,1.1093 1.832792,1.1093 2.266873,0 6.80062,0 0.482313,-0.1447 0.868164,-0.627 0.337619,-0.5305 0.627007,-1.7363 0,2.0257 0,6.1254 -3.520888,0 -10.562665,0 -1.543403,0 -2.652724,-2.2187 -1.109321,-2.1704 -1.109321,-6.3183 0,-1.9775 0,-5.836 -0.385851,-1.3504 -1.881023,-2.1221 -1.495171,-0.7235 -3.569119,-1.2058 6.607694,0 19.774852,0 0,2.9421 0,8.7781 -1.205783,-2.701 -2.218642,-3.6656 -1.012858,-0.9646 -2.700955,-1.1093 -0.916396,-0.097 -2.170411,-0.097 -1.205783,0.048 -2.845649,0.048 -0.241157,0 -0.675239,0 z"
           id="path42762"
           style="fill:#ff0000;stroke-width:3.38412" />
        <path
           d="m 81.576869,1245.2891 q 0,5.8842 0,17.7009 0,3.0868 -0.144694,6.0771 -0.09646,3.0386 -0.337619,5.9325 -0.385851,-3.7138 -0.964627,-6.9936 -0.530545,-3.3279 -2.025717,-5.016 0,-2.9904 0,-8.9228 -0.241157,-1.3505 -0.72347,-2.2187 -0.482314,-0.8681 -1.06109,-1.3987 -1.109321,-1.0128 -2.411567,-1.1093 -1.350478,-0.097 -2.266874,-0.097 -0.482313,0 -1.44694,0 0,4.582 0,13.746 0,3.0868 -0.09646,6.0771 -0.144694,3.0386 -0.385851,5.9325 -0.38585,-3.7138 -0.916395,-6.9936 -0.578776,-3.3279 -2.025717,-5.016 0,-4.8232 0,-14.373 -0.385851,-1.3504 -1.881022,-2.1221 -1.495172,-0.7235 -3.56912,-1.2058 6.752389,0 20.257166,0 z"
           id="path42764"
           style="fill:#ff0000;stroke-width:3.38412" />
        <path
           d="m 104.19737,1249.0511 q 0,3.3762 0,10.1768 0,1.5434 -1.92925,2.6528 -1.92926,1.1093 -6.077152,1.1093 -4.196128,0 -6.125382,-1.1093 -1.929254,-1.1094 -1.929254,-2.6528 0,-3.3762 0,-10.1768 0,-1.5434 1.929254,-2.6527 1.929254,-1.1093 6.125382,-1.1093 4.147892,0 6.077152,1.1093 1.92925,1.1093 1.92925,2.6527 z m -3.76204,7.91 q 0,-1.8811 0,-5.6431 0,-1.6881 -1.254019,-1.9775 -1.205783,-0.2894 -2.990343,-0.2894 -1.832792,0 -3.038575,0.2894 -1.254015,0.2894 -1.254015,1.9775 0,1.881 0,5.6431 0,1.6881 1.254015,1.9774 1.205783,0.2894 3.038575,0.2894 1.78456,0 2.990343,-0.2894 1.254019,-0.2893 1.254019,-1.9774 z"
           id="path42766"
           style="fill:#ff0000;stroke-width:3.38412" />
        <path
           d="m 142.34837,1245.2891 q -2.02572,0.4823 -3.52089,1.2058 -1.5434,0.7717 -1.88102,2.1221 0,4.7749 0,14.373 -1.49517,1.6881 -2.02572,5.016 -0.57878,3.2798 -0.96463,6.9936 -0.24115,-2.8939 -0.33762,-5.9325 -0.14469,-2.9903 -0.14469,-6.0771 0,-4.582 0,-13.746 -0.48231,0 -1.39871,0 -0.53054,0 -1.15755,0 -0.62701,0 -1.30225,0.1447 -1.25401,0.2412 -2.41157,1.2058 -1.15755,0.9646 -1.63986,3.4727 0,2.9903 0,8.9228 -0.1447,0.627 -0.28939,1.1093 -0.0965,0.4823 -0.19292,0.8199 -0.53055,1.9775 -0.38586,1.3505 0.19293,-0.627 -0.28938,1.1576 -0.0965,0.3376 -0.24116,0.8681 -0.14469,0.5306 -0.33762,1.3023 -0.14469,-0.6753 -0.28939,-1.2058 -0.14469,-0.4823 -0.24115,-0.8199 -0.53055,-2.0258 -0.33762,-1.3023 0.19292,0.7717 -0.43409,-1.6881 -0.0482,-0.2894 -0.19292,-0.7235 -0.0965,-0.3858 -0.19293,-0.8681 0,-2.9904 0,-8.9228 -0.28939,-1.3505 -0.7717,-2.2187 -0.48231,-0.8681 -1.06109,-1.3987 -1.10932,-1.0128 -2.41157,-1.1093 -1.30224,-0.097 -2.26687,-0.097 -0.48231,0 -1.39871,0 0,4.582 0,13.746 0,3.0868 -0.14469,6.0771 -0.0965,3.0386 -0.33762,5.9325 -0.38585,-3.7138 -0.96463,-6.9936 -0.53054,-3.3279 -2.02572,-5.016 0,-4.8232 0,-14.373 -0.38585,-1.3504 -1.88102,-2.1221 -1.49517,-0.7235 -3.56912,-1.2058 3.95497,0 11.76845,0 1.15755,0.3858 3.47266,1.1575 0.7717,0.2894 1.59163,0.4341 0.81994,0.1447 1.6881,0.1447 0.86816,0 1.73633,-0.1447 0.81993,-0.1447 1.59163,-0.4341 1.15756,-0.3858 3.42443,-1.1575 3.95497,0 11.76845,0 z"
           id="path42768"
           style="fill:#ff0000;stroke-width:3.38412" />
      </g>
      <g
         aria-label="V"
         transform="matrix(1.2363173,0,0,0.80885384,-497.88086,123.48586)"
         id="text4270-3-5-2"
         style="font-size:78.5061px;line-height:1.25;font-family:Nosferotica;-inkscape-font-specification:'Nosferotica, Normal';font-variant-ligatures:none;text-align:center;text-anchor:middle;fill:#ff0000;stroke-width:4.18383">
        <path
           d="m 431.64994,1360.6864 8.57428,-0.1022 c 0,0 -4.4079,1.0878 -5.59925,3.7285 -1.88083,4.1689 -3.64217,14.6628 -3.64217,14.6628 l -2.23339,11.5191 -1.83311,11.8311 -1.71824,21.3112 -1.69514,-21.3112 -1.92196,-11.5208 -2.5009,-11.8294 c 0,0 -1.52027,-10.287 -3.38278,-14.4832 -1.14458,-2.5787 -5.63367,-3.8059 -5.63367,-3.8059 h 8.4657 l 6.66875,29.1569 z"
           id="path30410"
           sodipodi:nodetypes="ccscccccccscccc"
           style="fill:#ff0000;stroke-width:4.18383" />
      </g>
    </g>
  </g>
  <g
     inkscape:groupmode="layer"
     id="layer5"
     inkscape:label="Solid"
     style="display:inline">
    <rect
       style="vector-effect:non-scaling-stroke;fill:#ede7dc;fill-opacity:1;stroke-width:0.0257846;-inkscape-stroke:hairline"
       id="rect76101"
       width="78.327255"
       height="323.82532"
       x="20.367867"
       y="612.80157"
       ry="12.391613"
       rx="11.207397" />
    <g
       aria-label="SPHERE"
       id="text16656"
       style="font-weight:bold;font-size:26.4583px;line-height:1.25;font-family:Arial;-inkscape-font-specification:'Arial, Bold';font-variant-ligatures:none;text-align:center;text-anchor:middle;fill:#ede7dc;stroke-width:2.64583;fill-opacity:1">
      <path
         d="m 6.2658342,34.337044 3.7206984,-0.361735 q 0.3358964,1.873269 1.3565044,2.751767 1.033528,0.878498 2.777605,0.878498 1.84743,0 2.777605,-0.775145 0.943093,-0.788065 0.943093,-1.834511 0,-0.671793 -0.400492,-1.13688 Q 17.053276,33.381031 16.071425,33.032216 15.399632,32.799672 13.0096,32.205394 9.9348562,31.443167 8.6946234,30.332126 6.9505461,28.768915 6.9505461,26.520994 q 0,-1.446939 0.8139027,-2.700091 0.8268219,-1.266071 2.3641942,-1.924944 1.550291,-0.658874 3.733617,-0.658874 3.565669,0 5.361423,1.56321 1.808673,1.56321 1.899107,4.172867 l -3.824052,0.167948 q -0.245462,-1.459857 -1.059365,-2.092893 -0.800984,-0.645954 -2.41587,-0.645954 -1.666563,0 -2.609657,0.684711 -0.607197,0.439249 -0.607197,1.175638 0,0.671792 0.56844,1.149799 0.723469,0.607197 3.513993,1.266071 2.790524,0.658874 4.12119,1.369424 1.343586,0.697631 2.092893,1.924944 0.762226,1.214395 0.762226,3.010149 0,1.627805 -0.904336,3.048905 -0.904336,1.4211 -2.55798,2.118731 -1.653644,0.684712 -4.12119,0.684712 -3.591508,0 -5.5164525,-1.653644 -1.9249446,-1.666562 -2.2995983,-4.844659 z"
         id="path1205"
         style="fill:#ede7dc;fill-opacity:1" />
      <path
         d="M 24.882246,40.499451 V 21.560062 h 6.136569 q 3.488154,0 4.54752,0.28422 1.627805,0.42633 2.725928,1.86035 1.098123,1.4211 1.098123,3.681941 0,1.744077 -0.633036,2.932633 -0.633035,1.188557 -1.614886,1.873269 -0.968932,0.671793 -1.976621,0.891417 -1.369424,0.271301 -3.966161,0.271301 h -2.493385 v 7.144258 z m 3.824051,-15.735454 v 5.374342 h 2.092893 q 2.260841,0 3.023067,-0.297139 0.762227,-0.297139 1.188557,-0.930174 0.439249,-0.633036 0.439249,-1.472777 0,-1.033527 -0.607197,-1.70532 -0.607198,-0.671793 -1.537372,-0.839741 -0.684712,-0.129191 -2.751767,-0.129191 z"
         id="path1207"
         style="fill:#ede7dc;fill-opacity:1" />
      <path
         d="M 42.542645,40.499451 V 21.560062 h 3.824051 v 7.454316 h 7.493073 v -7.454316 h 3.824052 v 18.939389 h -3.824052 v -8.281138 h -7.493073 v 8.281138 z"
         id="path1209"
         style="fill:#ede7dc;fill-opacity:1" />
      <path
         d="M 61.637064,40.499451 V 21.560062 h 14.043053 v 3.203935 H 65.461115 v 4.198705 h 9.508452 v 3.191015 h -9.508452 v 5.154718 h 10.580736 v 3.191016 z"
         id="path1211"
         style="fill:#ede7dc;fill-opacity:1" />
      <path
         d="M 79.297459,40.499451 V 21.560062 h 8.048594 q 3.035987,0 4.405411,0.516764 1.382342,0.503845 2.209164,1.808673 0.826822,1.304828 0.826822,2.98431 0,2.13165 -1.253152,3.526912 -1.253152,1.382343 -3.746536,1.744077 1.240233,0.72347 2.041216,1.589049 0.813903,0.865579 2.183327,3.074743 l 2.312517,3.694861 H 91.751464 L 88.986778,36.37826 Q 87.514002,34.169096 86.9714,33.600656 86.428798,33.019297 85.821601,32.812591 85.214403,32.592967 83.896656,32.592967 H 83.12151 v 7.906484 z M 83.12151,29.569899 h 2.829282 q 2.751766,0 3.436478,-0.232543 0.684712,-0.232544 1.072285,-0.800984 0.387572,-0.56844 0.387572,-1.4211 0,-0.956013 -0.516763,-1.537372 -0.503845,-0.594278 -1.43402,-0.749307 -0.465087,-0.0646 -2.790523,-0.0646 H 83.12151 Z"
         id="path1213"
         style="fill:#ede7dc;fill-opacity:1" />
      <path
         d="M 98.391878,40.499451 V 21.560062 h 14.043052 v 3.203935 h -10.219 v 4.198705 h 9.50845 v 3.191015 h -9.50845 v 5.154718 h 10.58074 v 3.191016 z"
         id="path1215"
         style="fill:#ede7dc;fill-opacity:1" />
    </g>
    <g
       aria-label="TO XYZ"
       id="text16656-3"
       style="font-weight:bold;font-size:26.4583px;line-height:1.25;font-family:Arial;-inkscape-font-specification:'Arial, Bold';font-variant-ligatures:none;text-align:center;text-anchor:middle;display:inline;fill:#ede7dc;stroke-width:2.64583;fill-opacity:1">
      <path
         d="M 18.14494,72.803917 V 57.068463 h -5.619805 v -3.203934 h 15.050742 v 3.203934 h -5.606886 v 15.735454 z"
         id="path1218"
         style="fill:#ede7dc;fill-opacity:1" />
      <path
         d="m 28.790271,63.450495 q 0,-2.893877 0.865579,-4.857579 0.645955,-1.446938 1.756997,-2.596737 1.123961,-1.149799 2.454627,-1.70532 1.769916,-0.749308 4.082433,-0.749308 4.185786,0 6.692089,2.596738 2.519223,2.596737 2.519223,7.221772 0,4.586277 -2.493384,7.183015 -2.493385,2.583818 -6.666252,2.583818 -4.224543,0 -6.717927,-2.570899 -2.493385,-2.583818 -2.493385,-7.1055 z m 3.940323,-0.129191 q 0,3.216853 1.485696,4.883416 1.485695,1.653644 3.772374,1.653644 2.28668,0 3.746537,-1.640725 1.472776,-1.653643 1.472776,-4.948012 0,-3.255611 -1.434019,-4.857578 -1.4211,-1.601967 -3.785294,-1.601967 -2.364193,0 -3.811132,1.627805 -1.446938,1.614887 -1.446938,4.883417 z"
         id="path1220"
         style="fill:#ede7dc;fill-opacity:1" />
      <path
         d="m 55.571548,72.803917 6.472465,-9.883105 -5.865268,-9.056283 h 4.470006 l 3.798213,6.084892 3.720698,-6.084892 h 4.431249 l -5.891106,9.198393 6.472465,9.740995 h -4.612116 l -4.198705,-6.54998 -4.211624,6.54998 z"
         id="path1222"
         style="fill:#ede7dc;fill-opacity:1" />
      <path
         d="m 80.117823,72.803917 v -7.97108 L 73.180271,53.864529 h 4.482924 l 4.457087,7.493073 4.366653,-7.493073 h 4.40541 l -6.96339,10.994147 v 7.945241 z"
         id="path1224"
         style="fill:#ede7dc;fill-opacity:1" />
      <path
         d="M 91.150728,72.803917 V 69.354519 L 101.09843,57.068463 H 92.274689 V 53.864529 H 106.13687 V 56.83592 L 95.762844,69.612901 h 10.774526 v 3.191016 z"
         id="path1226"
         style="fill:#ede7dc;fill-opacity:1" />
    </g>
    <g
       aria-label="r"
       id="text41633"
       style="font-weight:bold;font-size:28.2222px;line-height:1.25;font-family:Arial;-inkscape-font-specification:'Arial, Bold';font-variant-ligatures:none;text-align:center;text-anchor:middle;fill:#ede7dc;stroke-width:2.64583;fill-opacity:1"
       transform="translate(0,26.458335)">
      <path
         d="m 58.663085,177.40018 h -3.872284 v -14.63476 h 3.596676 v 2.08084 q 0.923285,-1.4745 1.653645,-1.94303 0.74414,-0.46854 1.681205,-0.46854 1.322916,0 2.549369,0.73036 l -1.198892,3.37619 q -0.978407,-0.63389 -1.819009,-0.63389 -0.813042,0 -1.378037,0.45475 -0.564996,0.44097 -0.895725,1.6123 -0.316948,1.17133 -0.316948,4.90582 z"
         id="path1178"
         style="fill:#ede7dc;fill-opacity:1" />
    </g>
    <g
       aria-label="θ"
       id="text56685"
       style="font-weight:bold;font-size:28.2222px;line-height:1.25;font-family:Arial;-inkscape-font-specification:'Arial, Bold';font-variant-ligatures:none;text-align:center;text-anchor:middle;fill:#ede7dc;stroke-width:2.64583;fill-opacity:1"
       transform="translate(0,26.458335)">
      <path
         d="m 59.531251,262.1829 q 6.559457,0 6.559457,10.44552 0,10.43174 -6.559457,10.43174 -3.045462,0 -4.80935,-2.35644 -1.750107,-2.37023 -1.750107,-8.13042 0,-10.3904 6.559457,-10.3904 z m 2.563149,8.83322 q -0.110243,-3.4451 -0.757921,-4.56131 -0.633897,-1.11621 -1.805228,-1.11621 -1.157551,0 -1.805229,1.12999 -0.647677,1.11621 -0.74414,4.54753 z m 0,3.21082 h -5.112518 q 0.09646,3.44509 0.73036,4.5613 0.647677,1.11622 1.819009,1.11622 1.171331,0 1.805228,-1.11622 0.647678,-1.12999 0.757921,-4.5613 z"
         id="path1181"
         style="fill:#ede7dc;fill-opacity:1" />
    </g>
    <g
       aria-label="φ"
       id="text71383"
       style="font-weight:bold;font-size:28.2222px;line-height:1.25;font-family:Arial;-inkscape-font-specification:'Arial, Bold';font-variant-ligatures:none;text-align:center;text-anchor:middle;fill:#ede7dc;stroke-width:2.64583;fill-opacity:1"
       transform="translate(0,26.458335)">
      <path
         d="m 57.298831,368.3656 -0.868164,3.41753 q -0.992186,0.30317 -1.474499,1.4056 -0.482313,1.10243 -0.482313,2.35645 0,1.66742 0.7717,3.04546 0.771701,1.36425 2.370224,1.88791 v -6.28385 q 0,-2.32888 0.330729,-3.44509 0.344509,-1.11621 1.309135,-1.75011 0.978407,-0.6339 2.549369,-0.6339 2.163518,0 3.70692,1.07487 1.543402,1.06109 2.287542,2.79742 0.75792,1.72254 0.75792,3.41753 0,2.92144 -1.86035,5.1952 -1.84657,2.25998 -5.20898,2.86632 v 5.18142 h -3.872285 v -5.18142 q -3.293509,-0.46854 -5.20898,-2.65962 -1.901691,-2.20486 -1.901691,-5.29166 0,-3.48643 1.956812,-5.60861 1.694986,-1.81901 4.836911,-1.79145 z m 4.189233,12.30587 q 3.086803,-1.37803 3.086803,-5.51214 0,-1.46072 -0.606337,-2.54937 -0.606336,-1.08865 -1.50206,-1.08865 -0.454752,0 -0.716579,0.42719 -0.261827,0.41341 -0.261827,2.75607 z"
         id="path1184"
         style="fill:#ede7dc;fill-opacity:1" />
    </g>
    <text
       xml:space="preserve"
       style="font-size:35.2777px;line-height:1.25;font-family:Arial;-inkscape-font-specification:Arial;font-variant-ligatures:none;text-align:center;text-anchor:middle;stroke-width:2.64583;fill:#ede7dc;fill-opacity:1"
       x="-234.81772"
       y="326.09897"
       id="text78543"><tspan
         sodipodi:role="line"
         id="tspan78541"
         style="stroke-width:2.64583;fill:#ede7dc;fill-opacity:1"
         x="-234.81772"
         y="326.09897" /></text>
    <g
       aria-label="1:1"
       id="text4935-4"
       style="font-weight:bold;font-size:17.6389px;line-height:1.25;font-family:Arial;-inkscape-font-specification:'Arial, Bold';font-variant-ligatures:none;text-align:center;text-anchor:middle;display:inline;fill:#ede7dc;stroke-width:2.64583;fill-opacity:1"
       transform="translate(0,63.500004)">
      <path
         d="m 34.590709,517.44165 h -2.420181 v -9.1209 q -1.326363,1.24024 -3.126427,1.83452 v -2.19625 q 0.947402,-0.31006 2.058446,-1.17133 1.111044,-0.86989 1.524456,-2.024 h 1.963706 z"
         id="path21068"
         style="fill:#ede7dc;fill-opacity:1" />
      <path
         d="m 39.189914,510.7151 v -2.42018 h 2.420181 v 2.42018 z m 0,6.72655 v -2.42018 h 2.420181 v 2.42018 z"
         id="path21070"
         style="fill:#ede7dc;fill-opacity:1" />
      <path
         d="m 50.274516,517.44165 h -2.420181 v -9.1209 q -1.326363,1.24024 -3.126426,1.83452 v -2.19625 q 0.947402,-0.31006 2.058446,-1.17133 1.111044,-0.86989 1.524455,-2.024 h 1.963706 z"
         id="path21072"
         style="fill:#ede7dc;fill-opacity:1" />
    </g>
    <g
       id="g21103"
       transform="translate(0,63.500004)"
       style="fill:#ede7dc;fill-opacity:1">
      <g
         aria-label="√3:1"
         id="text4935"
         style="font-weight:bold;font-size:17.6389px;line-height:1.25;font-family:Arial;-inkscape-font-specification:'Arial, Bold';font-variant-ligatures:none;text-align:center;text-anchor:middle;display:inline;fill:#ede7dc;stroke-width:2.64583;fill-opacity:1">
        <path
           d="m 27.011493,474.41548 h 0.637344 l -2.687177,16.76901 -4.271921,-8.79361 -1.705323,0.78376 -0.292834,-0.55122 2.592436,-1.30052 3.488162,7.08829 z"
           id="path21059"
           style="fill:#ede7dc;fill-opacity:1" />
        <path
           d="m 28.312018,487.16234 2.342667,-0.28422 q 0.111965,0.89572 0.602892,1.36942 0.490926,0.4737 1.188558,0.4737 0.749309,0 1.257461,-0.56844 0.516765,-0.56844 0.516765,-1.53307 0,-0.91295 -0.490927,-1.44694 -0.490926,-0.53399 -1.197171,-0.53399 -0.465088,0 -1.111044,0.18087 l 0.266995,-1.97232 q 0.981853,0.0258 1.498618,-0.42202 0.516764,-0.45648 0.516764,-1.20579 0,-0.63734 -0.378961,-1.0163 -0.37896,-0.37896 -1.007691,-0.37896 -0.620117,0 -1.059367,0.43064 -0.43925,0.43063 -0.53399,1.25746 l -2.230701,-0.37896 q 0.232544,-1.1455 0.697632,-1.82591 0.473701,-0.68901 1.309137,-1.07659 0.844049,-0.39618 1.886191,-0.39618 1.782838,0 2.859431,1.13688 0.887113,0.93017 0.887113,2.10151 0,1.66226 -1.817289,2.65272 1.085206,0.23255 1.731162,1.04214 0.654568,0.8096 0.654568,1.9551 0,1.66226 -1.214397,2.83359 -1.214397,1.17133 -3.023073,1.17133 -1.713936,0 -2.842206,-0.98185 -1.128269,-0.99046 -1.309137,-2.58382 z"
           id="path21061"
           style="fill:#ede7dc;fill-opacity:1" />
        <path
           d="m 39.189914,483.78614 v -2.42018 h 2.420181 v 2.42018 z m 0,6.72656 v -2.42019 h 2.420181 v 2.42019 z"
           id="path21063"
           style="fill:#ede7dc;fill-opacity:1" />
        <path
           d="m 50.274516,490.5127 h -2.420181 v -9.1209 q -1.326363,1.24023 -3.126426,1.83451 v -2.19625 q 0.947402,-0.31006 2.058446,-1.17133 1.111044,-0.86989 1.524456,-2.02399 h 1.963705 z"
           id="path21065"
           style="fill:#ede7dc;fill-opacity:1" />
      </g>
      <path
         style="color:#000000;fill:#ede7dc;-inkscape-stroke:none;fill-opacity:1"
         d="m 27.013672,474.4082 v 0.65039 h 10.791015 v -0.65039 z"
         id="path6594" />
    </g>
    <g
       aria-label="SCALE"
       id="text17163"
       style="font-weight:bold;font-size:21.1667px;line-height:1.25;font-family:Arial;-inkscape-font-specification:'Arial, Bold';font-variant-ligatures:none;text-align:center;text-anchor:middle;fill:#ede7dc;fill-opacity:1;stroke-width:2.64583"
       transform="translate(0,63.500004)">
      <path
         d="m 24.455153,457.99761 2.976567,-0.28939 q 0.268718,1.49862 1.085207,2.20142 0.826824,0.7028 2.22209,0.7028 1.477949,0 2.222091,-0.62011 0.754477,-0.63046 0.754477,-1.46762 0,-0.53743 -0.320395,-0.9095 -0.310059,-0.38241 -1.095542,-0.66146 -0.537436,-0.18604 -2.449467,-0.66146 -2.459802,-0.60979 -3.451991,-1.49862 -1.395266,-1.25057 -1.395266,-3.04892 0,-1.15755 0.651124,-2.16007 0.66146,-1.01286 1.891361,-1.53996 1.240236,-0.52711 2.986902,-0.52711 2.852544,0 4.289151,1.25058 1.446942,1.25057 1.51929,3.3383 l -3.05925,0.13436 q -0.196371,-1.16789 -0.847495,-1.67432 -0.640789,-0.51677 -1.932702,-0.51677 -1.333254,0 -2.087731,0.54777 -0.485759,0.35141 -0.485759,0.94052 0,0.53743 0.454753,0.91984 0.578777,0.48576 2.811203,1.01286 2.232425,0.5271 3.296961,1.09554 1.074872,0.55811 1.674319,1.53996 0.609783,0.97152 0.609783,2.40813 0,1.30225 -0.723471,2.43913 -0.723471,1.13688 -2.04639,1.69499 -1.322919,0.54777 -3.296962,0.54777 -2.873214,0 -4.413174,-1.32292 -1.53996,-1.33325 -1.839684,-3.87574 z"
         id="path21048"
         style="fill:#ede7dc;fill-opacity:1" />
      <path
         d="m 49.042839,457.35682 2.966232,0.94052 q -0.68213,2.48047 -2.273767,3.6897 -1.581301,1.19889 -4.020433,1.19889 -3.017908,0 -4.960945,-2.05672 -1.943037,-2.06706 -1.943037,-5.64308 0,-3.78272 1.953372,-5.87045 1.953373,-2.09807 5.136646,-2.09807 2.780196,0 4.516527,1.64332 1.033531,0.97152 1.550296,2.79053 l -3.028244,0.72347 q -0.268718,-1.17822 -1.126548,-1.86035 -0.847495,-0.68213 -2.067061,-0.68213 -1.684654,0 -2.738855,1.20923 -1.043866,1.20923 -1.043866,3.91708 0,2.87321 1.033531,4.09278 1.03353,1.21956 2.687178,1.21956 1.219566,0 2.098067,-0.77515 0.878501,-0.77514 1.260907,-2.43913 z"
         id="path21050"
         style="fill:#ede7dc;fill-opacity:1" />
      <path
         d="m 68.29751,462.92755 h -3.327968 l -1.322919,-3.44165 h -6.056487 l -1.250572,3.44165 H 53.094279 L 58.995737,447.776 h 3.23495 z m -5.63274,-5.99447 -2.087732,-5.62241 -2.04639,5.62241 z"
         id="path21052"
         style="fill:#ede7dc;fill-opacity:1" />
      <path
         d="m 70.002833,462.92755 v -15.02753 h 3.05925 v 12.47471 h 7.606783 v 2.55282 z"
         id="path21054"
         style="fill:#ede7dc;fill-opacity:1" />
      <path
         d="M 82.849617,462.92755 V 447.776 h 11.234474 v 2.56315 h -8.175224 v 3.35898 h 7.606783 v 2.55282 h -7.606783 v 4.12378 h 8.464613 v 2.55282 z"
         id="path21056"
         style="fill:#ede7dc;fill-opacity:1" />
    </g>
    <g
       aria-label="OVER"
       id="text18717"
       style="font-weight:bold;font-size:17.6389px;line-height:1.25;font-family:Arial;-inkscape-font-specification:'Arial, Bold';font-variant-ligatures:none;text-align:center;text-anchor:middle;fill:#ede7dc;stroke-width:2.64583;fill-opacity:1">
      <path
         d="m 34.9677,107.59473 q 0,-1.92926 0.577054,-3.2384 0.430637,-0.96462 1.171333,-1.73116 0.749309,-0.76653 1.636422,-1.13688 1.179946,-0.49954 2.721627,-0.49954 2.790529,0 4.461402,1.73116 1.679485,1.73116 1.679485,4.81453 0,3.05752 -1.66226,4.78868 -1.662259,1.72255 -4.444176,1.72255 -2.816367,0 -4.478627,-1.71393 -1.66226,-1.72255 -1.66226,-4.73701 z m 2.626887,-0.0861 q 0,2.14457 0.990466,3.25562 0.990466,1.10243 2.514921,1.10243 1.524456,0 2.497696,-1.09382 0.981853,-1.10243 0.981853,-3.29868 0,-2.17041 -0.956014,-3.23839 -0.947402,-1.06798 -2.523535,-1.06798 -1.576132,0 -2.540759,1.0852 -0.964628,1.07659 -0.964628,3.25562 z"
         id="path19603"
         style="fill:#ede7dc;fill-opacity:1" />
      <path
         d="m 52.425734,113.83035 -4.513078,-12.62628 h 2.764691 l 3.195328,9.34483 3.091975,-9.34483 h 2.704402 l -4.521691,12.62628 z"
         id="path19605"
         style="fill:#ede7dc;fill-opacity:1" />
      <path
         d="m 60.969576,113.83035 v -12.62628 h 9.362054 v 2.13596 h -6.812681 v 2.79914 h 6.33898 v 2.12735 h -6.33898 v 3.43648 h 7.053837 v 2.12735 z"
         id="path19607"
         style="fill:#ede7dc;fill-opacity:1" />
      <path
         d="m 72.7432,113.83035 v -12.62628 h 5.36574 q 2.023995,0 2.936946,0.34451 0.921563,0.3359 1.472779,1.20578 0.551215,0.86989 0.551215,1.98955 0,1.4211 -0.835436,2.35128 -0.835436,0.92156 -2.497696,1.16272 0.826824,0.48231 1.360814,1.05936 0.542603,0.57706 1.455554,2.04984 l 1.541681,2.46324 h -3.048911 l -1.843128,-2.74746 q -0.981853,-1.47278 -1.343588,-1.85174 -0.361735,-0.38758 -0.766534,-0.52538 -0.404799,-0.14642 -1.283299,-0.14642 h -0.516765 v 5.271 z m 2.549372,-7.28638 h 1.886191 q 1.834515,0 2.29099,-0.15503 0.456476,-0.15503 0.714858,-0.53399 0.258382,-0.37896 0.258382,-0.9474 0,-0.63734 -0.344509,-1.02492 -0.335897,-0.39618 -0.956015,-0.49954 -0.310059,-0.0431 -1.860353,-0.0431 h -1.989544 z"
         id="path19609"
         style="fill:#ede7dc;fill-opacity:1" />
    </g>
    <g
       aria-label="SAMPLE"
       id="text18717-2"
       style="font-weight:bold;font-size:17.6389px;line-height:1.25;font-family:Arial;-inkscape-font-specification:'Arial, Bold';font-variant-ligatures:none;text-align:center;text-anchor:middle;display:inline;fill:#ede7dc;stroke-width:2.64583;fill-opacity:1">
      <path
         d="m 23.538591,128.50711 2.48047,-0.24116 q 0.223932,1.24885 0.904339,1.83452 0.689019,0.58566 1.85174,0.58566 1.231622,0 1.85174,-0.51676 0.62873,-0.52538 0.62873,-1.22301 0,-0.44786 -0.266995,-0.75792 -0.258382,-0.31868 -0.912951,-0.55122 -0.447863,-0.15503 -2.04122,-0.55122 -2.049834,-0.50815 -2.876657,-1.24884 -1.162721,-1.04215 -1.162721,-2.54076 0,-0.96463 0.542603,-1.80007 0.551216,-0.84405 1.576133,-1.2833 1.033529,-0.43925 2.489083,-0.43925 2.377117,0 3.574289,1.04215 1.205784,1.04214 1.266073,2.78191 l -2.549372,0.11197 q -0.163642,-0.97324 -0.706245,-1.39527 -0.53399,-0.43063 -1.610583,-0.43063 -1.111044,0 -1.739775,0.45647 -0.404799,0.29284 -0.404799,0.78376 0,0.44787 0.378961,0.76654 0.482314,0.4048 2.342666,0.84405 1.860353,0.43925 2.747466,0.91295 0.895725,0.46508 1.395265,1.2833 0.508151,0.80959 0.508151,2.00677 0,1.0852 -0.602892,2.0326 -0.602892,0.9474 -1.705323,1.41249 -1.102431,0.45648 -2.747466,0.45648 -2.394343,0 -3.677641,-1.10243 -1.283299,-1.11105 -1.533069,-3.22978 z"
         id="path19612"
         style="fill:#ede7dc;fill-opacity:1" />
      <path
         d="M 47.335604,132.61539 H 44.5623 l -1.102431,-2.86805 h -5.047068 l -1.042142,2.86805 h -2.704402 l 4.917877,-12.62629 h 2.695789 z M 42.641658,127.62 40.901884,122.93466 39.19656,127.62 Z"
         id="path19614"
         style="fill:#ede7dc;fill-opacity:1" />
      <path
         d="M 48.653354,132.61539 V 119.9891 h 3.815445 l 2.290991,8.61275 2.265151,-8.61275 H 60.849 v 12.62629 h -2.368505 v -9.93911 l -2.506309,9.93911 h -2.454632 l -2.497696,-9.93911 v 9.93911 z"
         id="path19616"
         style="fill:#ede7dc;fill-opacity:1" />
      <path
         d="M 63.381149,132.61539 V 119.9891 h 4.091053 q 2.325441,0 3.031686,0.18948 1.085206,0.28422 1.81729,1.24024 0.732083,0.9474 0.732083,2.45463 0,1.16272 -0.422025,1.95509 -0.422024,0.79238 -1.076593,1.24885 -0.645956,0.44786 -1.31775,0.59428 -0.912951,0.18087 -2.644112,0.18087 h -1.66226 v 4.76285 z m 2.549372,-10.49033 v 3.58291 h 1.395265 q 1.50723,0 2.015382,-0.1981 0.508152,-0.19809 0.792372,-0.62011 0.292834,-0.42203 0.292834,-0.98186 0,-0.68902 -0.404799,-1.13688 -0.404799,-0.44786 -1.024917,-0.55983 -0.456475,-0.0861 -1.834514,-0.0861 z"
         id="path19618"
         style="fill:#ede7dc;fill-opacity:1" />
      <path
         d="m 75.215058,132.61539 v -12.52293 h 2.549372 v 10.39558 h 6.33898 v 2.12735 z"
         id="path19620"
         style="fill:#ede7dc;fill-opacity:1" />
      <path
         d="M 85.9207,132.61539 V 119.9891 h 9.362053 v 2.13596 h -6.812681 v 2.79915 h 6.33898 v 2.12734 h -6.33898 v 3.43649 h 7.053838 v 2.12735 z"
         id="path19622"
         style="fill:#ede7dc;fill-opacity:1" />
    </g>
  </g>
  <g
     inkscape:groupmode="layer"
     id="layer6"
     inkscape:label="Line"
     style="display:none" />
  <g
     inkscape:groupmode="layer"
     id="layer7"
     inkscape:label="Inverse Solid"
     style="display:inline">
    <g
       aria-label="X"
       id="text56685-8"
       style="font-weight:bold;font-size:21.1667px;line-height:1.25;font-family:Arial;-inkscape-font-specification:'Arial, Bold';font-variant-ligatures:none;text-align:center;text-anchor:middle;display:inline;fill:#252525;fill-opacity:1;stroke-width:2.64583"
       transform="translate(0,42.333336)">
      <path
         d="m 52.487535,600.41541 5.177987,-7.90651 -4.692228,-7.24505 h 3.576015 l 3.038579,4.86793 2.976567,-4.86793 h 3.545009 l -4.712898,7.35874 5.177987,7.79282 H 62.88485 l -3.358974,-5.24 -3.369308,5.24 z"
         id="path1247"
         style="fill:#252525;fill-opacity:1" />
    </g>
    <g
       aria-label="Y"
       id="text56685-8-4"
       style="font-weight:bold;font-size:21.1667px;line-height:1.25;font-family:Arial;-inkscape-font-specification:'Arial, Bold';font-variant-ligatures:none;text-align:center;text-anchor:middle;display:inline;fill:#252525;fill-opacity:1;stroke-width:2.64583"
       transform="translate(0,42.333336)">
      <path
         d="m 57.996253,705.99646 v -6.37688 l -5.550058,-8.77467 h 3.58635 l 3.56568,5.99447 3.493332,-5.99447 h 3.524338 l -5.570728,8.79534 v 6.35621 z"
         id="path1250"
         style="fill:#252525;fill-opacity:1" />
    </g>
    <g
       aria-label="Z"
       id="text56685-8-8"
       style="font-weight:bold;font-size:21.1667px;line-height:1.25;font-family:Arial;-inkscape-font-specification:'Arial, Bold';font-variant-ligatures:none;text-align:center;text-anchor:middle;display:inline;fill:#252525;fill-opacity:1;stroke-width:2.64583"
       transform="translate(0,42.333336)">
      <path
         d="m 53.376372,812.21393 v -2.75953 l 7.958184,-9.82887 h -7.059012 v -2.56316 h 11.08978 v 2.37712 l -8.299249,10.22162 h 8.619643 v 2.55282 z"
         id="path1253"
         style="fill:#252525;fill-opacity:1" />
    </g>
  </g>
  <g
     inkscape:groupmode="layer"
     id="layer8"
     inkscape:label="Inverse Line"
     style="display:none" />
  <g
     inkscape:groupmode="layer"
     id="layer2"
     inkscape:label="Widget"
     style="display:none">
    <ellipse
       style="display:inline;fill:#ff0000;stroke:#ff0000;stroke-width:5.15744;stroke-opacity:1"
       id="path1065-7-2-8-1"
       cx="59.531044"
       cy="892.96942"
       rx="27.848364"
       ry="27.848814" />
    <ellipse
       style="display:inline;fill:#ff0000;stroke:#ff0000;stroke-width:5.15744;stroke-opacity:1"
       id="path1065-7-2-8-1-6"
       cx="59.531044"
       cy="787.13605"
       rx="27.848364"
       ry="27.848814" />
    <ellipse
       style="display:inline;fill:#ff0000;stroke:#ff0000;stroke-width:5.15744;stroke-opacity:1"
       id="path1065-7-2-8-1-6-7"
       cx="59.531044"
       cy="681.30273"
       rx="27.848364"
       ry="27.848814" />
    <ellipse
       style="display:inline;fill:#ff0000;stroke:#ff0000;stroke-width:5.15744;stroke-opacity:1"
       id="path1065-7-2-8-1-1"
       cx="59.53125"
       cy="453.76062"
       rx="27.848364"
       ry="27.848814" />
    <ellipse
       style="display:inline;fill:#ff0000;stroke:#ff0000;stroke-width:5.15744;stroke-opacity:1"
       id="path1065-7-2-8-1-6-1"
       cx="59.53125"
       cy="347.92734"
       rx="27.848364"
       ry="27.848814" />
    <ellipse
       style="display:inline;fill:#ff0000;stroke:#ff0000;stroke-width:5.15744;stroke-opacity:1"
       id="path1065-7-2-8-1-6-7-2"
       cx="59.53125"
       cy="242.09422"
       rx="27.848364"
       ry="27.848814" />
    <rect
       style="display:inline;fill:#ff0000;fill-opacity:1;stroke-width:2.64583;stroke-dasharray:5.29167, 10.5833"
       id="rect3212"
       width="37.041668"
       height="52.916668"
       x="55.562504"
       y="534.45837"
       rx="6.1449175"
       ry="5.6436186" />
    <circle
       style="display:inline;fill:#ff0000;stroke:#ff0000;stroke-width:1.695;stroke-opacity:1"
       id="path1065-7-2-3-2"
       cx="59.53125"
       cy="149.35745"
       r="9.1525002" />
  </g>
</svg>
