<?xml version="1.0" encoding="UTF-8" standalone="no"?>
<svg
   width="45"
   height="380"
   viewBox="0 0 45 380"
   version="1.1"
   id="svg100"
   sodipodi:docname="Split4x2_Coal.svg"
   inkscape:version="1.1.1 (3bf5ae0d25, 2021-09-20)"
   xmlns:inkscape="http://www.inkscape.org/namespaces/inkscape"
   xmlns:sodipodi="http://sodipodi.sourceforge.net/DTD/sodipodi-0.dtd"
   xmlns="http://www.w3.org/2000/svg"
   xmlns:svg="http://www.w3.org/2000/svg"
   xmlns:rdf="http://www.w3.org/1999/02/22-rdf-syntax-ns#"
   xmlns:cc="http://creativecommons.org/ns#"
   xmlns:dc="http://purl.org/dc/elements/1.1/">
  <metadata
     id="metadata104">
    <rdf:RDF>
      <cc:Work
         rdf:about="">
        <dc:format>image/svg+xml</dc:format>
        <dc:type
           rdf:resource="http://purl.org/dc/dcmitype/StillImage" />
      </cc:Work>
    </rdf:RDF>
  </metadata>
  <sodipodi:namedview
     pagecolor="#ffffff"
     bordercolor="#666666"
     borderopacity="1"
     objecttolerance="1"
     gridtolerance="1"
     guidetolerance="1"
     inkscape:pageopacity="0"
     inkscape:pageshadow="2"
     inkscape:window-width="1920"
     inkscape:window-height="1057"
     id="namedview102"
     showgrid="false"
     inkscape:zoom="2.2342105"
     inkscape:cx="22.37927"
     inkscape:cy="190"
     inkscape:window-x="1592"
     inkscape:window-y="-8"
     inkscape:window-maximized="1"
     inkscape:current-layer="layer4"
     inkscape:pagecheckerboard="0"
     units="px"
     inkscape:showpageshadow="false"
     showborder="true">
    <inkscape:grid
       type="xygrid"
       id="grid1285" />
  </sodipodi:namedview>
  <defs
     id="defs7">
    <rect
       x="85"
       y="10"
       width="51.058132"
       height="25"
       id="rect29906" />
    <linearGradient
       id="a8e142bb-541b-4903-be63-d5d069028a5d"
       x1="22.5"
       x2="22.5"
       y2="380"
       gradientUnits="userSpaceOnUse">
      <stop
         offset="0"
         stop-color="#ebebeb"
         id="stop2" />
      <stop
         offset="1"
         stop-color="#e1e1e1"
         id="stop4" />
    </linearGradient>
  </defs>
  <g
     inkscape:groupmode="layer"
     id="layer2"
     inkscape:label="Faceplate"
     style="display:inline">
    <g
       id="aea613ef-74be-49bf-be45-c0734aee674b"
       data-name="FND BG"
       style="fill:#252525;fill-opacity:1">
      <rect
         width="45"
         height="380"
         fill="url(#a8e142bb-541b-4903-be63-d5d069028a5d)"
         id="rect9"
         style="fill:#252525;fill-opacity:1"
         x="0"
         y="0" />
    </g>
  </g>
  <g
     inkscape:groupmode="layer"
     id="layer3"
     inkscape:label="Brand"
     style="display:inline">
    <g
       id="g42796"
       transform="matrix(0.30458296,0,0,0.30458296,-0.5624499,-12.68508)"
       style="fill:#ff0000">
      <g
         aria-label="enom"
         id="text4270-27"
         style="font-size:49.3889px;line-height:1.25;font-family:'NECK ROMANCER';-inkscape-font-specification:'NECK ROMANCER, Normal';font-variant-ligatures:none;text-align:center;text-anchor:middle;fill:#ff0000;stroke-width:2.64583">
        <path
           d="m 46.609141,1249.244 q 0,1.1576 0,3.4245 3.183269,0 9.453344,0 -1.639866,0.5787 -2.990343,1.2058 -1.350478,0.627 -2.363337,1.688 -1.350477,0 -4.051433,0 0,1.4952 0.434082,2.5563 0.385851,1.1093 1.832792,1.1093 2.266873,0 6.80062,0 0.482313,-0.1447 0.868164,-0.627 0.337619,-0.5305 0.627007,-1.7363 0,2.0257 0,6.1254 -3.520888,0 -10.562665,0 -1.543403,0 -2.652724,-2.2187 -1.109321,-2.1704 -1.109321,-6.3183 0,-1.9775 0,-5.836 -0.385851,-1.3504 -1.881023,-2.1221 -1.495171,-0.7235 -3.569119,-1.2058 6.607694,0 19.774852,0 0,2.9421 0,8.7781 -1.205783,-2.701 -2.218642,-3.6656 -1.012858,-0.9646 -2.700955,-1.1093 -0.916396,-0.097 -2.170411,-0.097 -1.205783,0.048 -2.845649,0.048 -0.241157,0 -0.675239,0 z"
           id="path42762"
           style="fill:#ff0000" />
        <path
           d="m 81.576869,1245.2891 q 0,5.8842 0,17.7009 0,3.0868 -0.144694,6.0771 -0.09646,3.0386 -0.337619,5.9325 -0.385851,-3.7138 -0.964627,-6.9936 -0.530545,-3.3279 -2.025717,-5.016 0,-2.9904 0,-8.9228 -0.241157,-1.3505 -0.72347,-2.2187 -0.482314,-0.8681 -1.06109,-1.3987 -1.109321,-1.0128 -2.411567,-1.1093 -1.350478,-0.097 -2.266874,-0.097 -0.482313,0 -1.44694,0 0,4.582 0,13.746 0,3.0868 -0.09646,6.0771 -0.144694,3.0386 -0.385851,5.9325 -0.38585,-3.7138 -0.916395,-6.9936 -0.578776,-3.3279 -2.025717,-5.016 0,-4.8232 0,-14.373 -0.385851,-1.3504 -1.881022,-2.1221 -1.495172,-0.7235 -3.56912,-1.2058 6.752389,0 20.257166,0 z"
           id="path42764"
           style="fill:#ff0000" />
        <path
           d="m 104.19737,1249.0511 q 0,3.3762 0,10.1768 0,1.5434 -1.92925,2.6528 -1.92926,1.1093 -6.077152,1.1093 -4.196128,0 -6.125382,-1.1093 -1.929254,-1.1094 -1.929254,-2.6528 0,-3.3762 0,-10.1768 0,-1.5434 1.929254,-2.6527 1.929254,-1.1093 6.125382,-1.1093 4.147892,0 6.077152,1.1093 1.92925,1.1093 1.92925,2.6527 z m -3.76204,7.91 q 0,-1.8811 0,-5.6431 0,-1.6881 -1.254019,-1.9775 -1.205783,-0.2894 -2.990343,-0.2894 -1.832792,0 -3.038575,0.2894 -1.254015,0.2894 -1.254015,1.9775 0,1.881 0,5.6431 0,1.6881 1.254015,1.9774 1.205783,0.2894 3.038575,0.2894 1.78456,0 2.990343,-0.2894 1.254019,-0.2893 1.254019,-1.9774 z"
           id="path42766"
           style="fill:#ff0000" />
        <path
           d="m 142.34837,1245.2891 q -2.02572,0.4823 -3.52089,1.2058 -1.5434,0.7717 -1.88102,2.1221 0,4.7749 0,14.373 -1.49517,1.6881 -2.02572,5.016 -0.57878,3.2798 -0.96463,6.9936 -0.24115,-2.8939 -0.33762,-5.9325 -0.14469,-2.9903 -0.14469,-6.0771 0,-4.582 0,-13.746 -0.48231,0 -1.39871,0 -0.53054,0 -1.15755,0 -0.62701,0 -1.30225,0.1447 -1.25401,0.2412 -2.41157,1.2058 -1.15755,0.9646 -1.63986,3.4727 0,2.9903 0,8.9228 -0.1447,0.627 -0.28939,1.1093 -0.0965,0.4823 -0.19292,0.8199 -0.53055,1.9775 -0.38586,1.3505 0.19293,-0.627 -0.28938,1.1576 -0.0965,0.3376 -0.24116,0.8681 -0.14469,0.5306 -0.33762,1.3023 -0.14469,-0.6753 -0.28939,-1.2058 -0.14469,-0.4823 -0.24115,-0.8199 -0.53055,-2.0258 -0.33762,-1.3023 0.19292,0.7717 -0.43409,-1.6881 -0.0482,-0.2894 -0.19292,-0.7235 -0.0965,-0.3858 -0.19293,-0.8681 0,-2.9904 0,-8.9228 -0.28939,-1.3505 -0.7717,-2.2187 -0.48231,-0.8681 -1.06109,-1.3987 -1.10932,-1.0128 -2.41157,-1.1093 -1.30224,-0.097 -2.26687,-0.097 -0.48231,0 -1.39871,0 0,4.582 0,13.746 0,3.0868 -0.14469,6.0771 -0.0965,3.0386 -0.33762,5.9325 -0.38585,-3.7138 -0.96463,-6.9936 -0.53054,-3.3279 -2.02572,-5.016 0,-4.8232 0,-14.373 -0.38585,-1.3504 -1.88102,-2.1221 -1.49517,-0.7235 -3.56912,-1.2058 3.95497,0 11.76845,0 1.15755,0.3858 3.47266,1.1575 0.7717,0.2894 1.59163,0.4341 0.81994,0.1447 1.6881,0.1447 0.86816,0 1.73633,-0.1447 0.81993,-0.1447 1.59163,-0.4341 1.15756,-0.3858 3.42443,-1.1575 3.95497,0 11.76845,0 z"
           id="path42768"
           style="fill:#ff0000" />
      </g>
      <g
         aria-label="V"
         transform="matrix(1.2363173,0,0,0.80885384,-497.88086,123.48586)"
         id="text4270-3-5-2"
         style="font-size:78.5061px;line-height:1.25;font-family:Nosferotica;-inkscape-font-specification:'Nosferotica, Normal';font-variant-ligatures:none;text-align:center;text-anchor:middle;fill:#ff0000;stroke-width:3.27108">
        <path
           d="m 431.64994,1360.6864 8.57428,-0.1022 c 0,0 -4.4079,1.0878 -5.59925,3.7285 -1.88083,4.1689 -3.64217,14.6628 -3.64217,14.6628 l -2.23339,11.5191 -1.83311,11.8311 -1.71824,21.3112 -1.69514,-21.3112 -1.92196,-11.5208 -2.5009,-11.8294 c 0,0 -1.52027,-10.287 -3.38278,-14.4832 -1.14458,-2.5787 -5.63367,-3.8059 -5.63367,-3.8059 h 8.4657 l 6.66875,29.1569 z"
           id="path30410"
           sodipodi:nodetypes="ccscccccccscccc"
           style="fill:#ff0000" />
      </g>
    </g>
  </g>
  <g
     inkscape:groupmode="layer"
     id="layer4"
     inkscape:label="Solid"
     style="display:inline">
    <g
       aria-label="SPLIT"
       id="text8972"
       style="font-weight:bold;font-size:10.6667px;line-height:1.25;font-family:Arial;-inkscape-font-specification:'Arial, Bold';font-variant-ligatures:none;text-align:center;text-anchor:middle;fill:#ede7dc;fill-opacity:1">
      <path
         d="m 7.6614124,10.393579 1.5000048,-0.145834 q 0.1354171,0.755211 0.5468767,1.109379 0.4166681,0.354168 1.1197951,0.354168 0.744794,0 1.119795,-0.312501 0.38021,-0.31771 0.38021,-0.739586 0,-0.270834 -0.161459,-0.458335 Q 12.010385,10.008161 11.61455,9.8675359 11.343716,9.7737856 10.380171,9.5342015 9.1405838,9.2269089 8.6405822,8.7789908 7.937455,8.1487805 7.937455,7.2425276 q 0,-0.5833351 0.328126,-1.0885451 0.3333344,-0.5104182 0.953128,-0.7760441 0.625002,-0.2656258 1.505213,-0.2656258 1.437505,0 2.161465,0.6302103 0.729169,0.6302103 0.765628,1.682297 l -1.541672,0.067709 q -0.09896,-0.588544 -0.427085,-0.8437531 -0.322917,-0.2604175 -0.973961,-0.2604175 -0.671877,0 -1.0520866,0.2760425 -0.2447924,0.1770839 -0.2447924,0.4739598 0,0.2708342 0.2291674,0.4635432 0.2916676,0.2447924 1.4166716,0.5104183 1.125003,0.2656258 1.661463,0.552085 0.541668,0.2812509 0.843753,0.7760442 0.307292,0.4895848 0.307292,1.2135457 0,0.656252 -0.364584,1.22917 -0.364585,0.572919 -1.031253,0.85417 -0.666669,0.276042 -1.661464,0.276042 -1.4479212,0 -2.2239653,-0.666669 -0.7760441,-0.671877 -0.9270863,-1.953131 z"
         id="path28576"
         style="fill:#ede7dc;fill-opacity:1" />
      <path
         d="M 15.166645,12.877962 V 5.2425213 h 2.473966 q 1.406254,0 1.833339,0.1145837 0.656252,0.1718756 1.098962,0.7500024 0.442709,0.5729185 0.442709,1.4843797 0,0.7031272 -0.255209,1.1822954 -0.255209,0.4791682 -0.651043,0.7552107 -0.390627,0.2708342 -0.796878,0.3593761 -0.552085,0.1093754 -1.598963,0.1093754 h -1.005212 v 2.8802173 z m 1.541671,-6.3437699 v 2.1666735 h 0.843753 q 0.911461,0 1.218754,-0.1197921 0.307292,-0.119792 0.479168,-0.3750011 0.177084,-0.2552092 0.177084,-0.5937519 0,-0.416668 -0.244793,-0.6875022 Q 18.93749,6.6539841 18.562489,6.5862756 18.286446,6.5341921 17.45311,6.5341921 Z"
         id="path28578"
         style="fill:#ede7dc;fill-opacity:1" />
      <path
         d="M 22.322917,12.877962 V 5.3050215 h 1.541672 V 11.5915 h 3.833345 v 1.286462 z"
         id="path28580"
         style="fill:#ede7dc;fill-opacity:1" />
      <path
         d="M 28.750021,12.877962 V 5.2425213 h 1.541672 v 7.6354407 z"
         id="path28582"
         style="fill:#ede7dc;fill-opacity:1" />
      <path
         d="M 33.479202,12.877962 V 6.5341921 H 31.21357 V 5.2425213 h 6.067728 v 1.2916708 h -2.260424 v 6.3437699 z"
         id="path28584"
         style="fill:#ede7dc;fill-opacity:1" />
    </g>
    <g
       aria-label="4x2"
       id="text8972-6"
       style="font-weight:bold;font-size:10.6667px;line-height:1.25;font-family:Arial;-inkscape-font-specification:'Arial, Bold';font-variant-ligatures:none;text-align:center;text-anchor:middle;display:inline;fill:#ede7dc;fill-opacity:1">
      <path
         d="m 17.093733,23.52136 v -1.536463 h -3.12501 v -1.281254 l 3.312511,-4.848973 h 1.22917 v 4.843765 h 0.94792 v 1.286462 h -0.94792 v 1.536463 z m 0,-2.822925 v -2.609383 l -1.755214,2.609383 z"
         id="path28587"
         style="fill:#ede7dc;fill-opacity:1" />
      <path
         d="m 19.765617,23.52136 1.994798,-2.848967 -1.911465,-2.6823 h 1.786464 l 0.97917,1.520838 1.031253,-1.520838 h 1.718756 l -1.875006,2.6198 2.046881,2.911467 h -1.79688 l -1.125004,-1.713547 -1.13542,1.713547 z"
         id="path28589"
         style="fill:#ede7dc;fill-opacity:1" />
      <path
         d="m 31.031277,22.161981 v 1.359379 h -5.130224 q 0.08333,-0.770835 0.500001,-1.458338 0.416668,-0.69271 1.645839,-1.833339 0.989586,-0.921878 1.213545,-1.250004 0.302085,-0.453126 0.302085,-0.895836 0,-0.489585 -0.265626,-0.750002 -0.260418,-0.265626 -0.723961,-0.265626 -0.458334,0 -0.729169,0.276043 -0.270834,0.276042 -0.312501,0.916669 l -1.458338,-0.145834 q 0.130209,-1.208337 0.817711,-1.73438 0.687502,-0.526043 1.718756,-0.526043 1.130212,0 1.776047,0.609376 0.645835,0.609377 0.645835,1.51563 0,0.515627 -0.1875,0.984378 -0.182292,0.463543 -0.583335,0.973962 -0.265626,0.338542 -0.958337,0.973961 -0.69271,0.635419 -0.880211,0.843753 -0.182292,0.208334 -0.296876,0.406251 z"
         id="path28591"
         style="fill:#ede7dc;fill-opacity:1" />
    </g>
    <rect
       style="display:inline;fill:#ede7dc;fill-opacity:1;stroke:none;stroke-width:0.623623"
       id="rect17730-4"
       width="34"
       height="122.1738"
       x="5.5"
       y="65.418953"
       ry="6.2661953"
       rx="6.2661953" />
    <path
       style="color:#000000;fill:#ede7dc;-inkscape-stroke:none;fill-opacity:1"
       d="m 11.765625,28.628906 c -3.6388184,0 -6.578125,2.939307 -6.578125,6.578125 V 181.01562 c 0,3.63882 2.9393066,6.57618 6.578125,6.57618 h 21.46875 c 3.638818,0 6.578125,-2.93736 6.578125,-6.57618 V 35.207031 c 0,-3.638818 -2.939307,-6.578125 -6.578125,-6.578125 z m 0,0.623047 h 21.46875 c 3.304119,0 5.953125,2.650959 5.953125,5.955078 V 181.01562 c 0,3.30412 -2.649006,5.95313 -5.953125,5.95313 h -21.46875 c -3.3041191,0 -5.953125,-2.64901 -5.953125,-5.95313 V 35.207031 c 0,-3.304119 2.6490059,-5.955078 5.953125,-5.955078 z"
       id="rect17730-5-0" />
    <path
       sodipodi:type="star"
       style="display:inline;opacity:0.995935;fill:#ede7dc;fill-opacity:1;stroke:none;stroke-width:0.872792;stroke-opacity:1"
       id="path4885-2"
       inkscape:flatsided="true"
       sodipodi:sides="3"
       sodipodi:cx="22.5"
       sodipodi:cy="87.330528"
       sodipodi:r1="2.9093051"
       sodipodi:r2="1.4546525"
       sodipodi:arg1="1.5707963"
       sodipodi:arg2="2.6179939"
       inkscape:rounded="0"
       inkscape:randomized="0"
       inkscape:transform-center-y="0.83333741"
       transform="matrix(1.145749,0,0,1.145749,-3.2793525,91.218672)"
       d="m 22.5,90.239833 -2.519532,-4.363957 5.039064,0 z" />
    <g
       aria-label="IN"
       id="text18946-2-9"
       style="font-weight:bold;font-size:8px;line-height:1.25;font-family:Arial;-inkscape-font-specification:'Arial, Bold';font-variant-ligatures:none;text-align:center;text-anchor:middle;display:inline;fill:#ede7dc;fill-opacity:1">
      <path
         d="M 19.09375,37.949253 V 32.222691 H 20.25 v 5.726562 z"
         id="path28594"
         style="fill:#ede7dc;fill-opacity:1" />
      <path
         d="m 21.363281,37.949253 v -5.726562 h 1.125 l 2.34375,3.824218 v -3.824218 h 1.074219 v 5.726562 H 24.746094 L 22.4375,34.214878 v 3.734375 z"
         id="path28596"
         style="fill:#ede7dc;fill-opacity:1" />
    </g>
    <rect
       style="display:inline;fill:#ede7dc;fill-opacity:1;stroke:none;stroke-width:0.623623"
       id="rect17730-4-9"
       width="34"
       height="122.1738"
       x="5.5"
       y="233.41893"
       ry="6.2661953"
       rx="6.2661953" />
    <path
       style="color:#000000;fill:#ede7dc;-inkscape-stroke:none;fill-opacity:1"
       d="m 11.765625,196.62891 c -3.6388184,0 -6.578125,2.9393 -6.578125,6.57812 v 145.80859 c 0,3.63882 2.9393066,6.57618 6.578125,6.57618 h 21.46875 c 3.638818,0 6.578125,-2.93736 6.578125,-6.57618 V 203.20703 c 0,-3.63882 -2.939307,-6.57812 -6.578125,-6.57812 z m 0,0.62304 h 21.46875 c 3.304119,0 5.953125,2.65096 5.953125,5.95508 v 145.80859 c 0,3.30412 -2.649006,5.95313 -5.953125,5.95313 h -21.46875 c -3.3041191,0 -5.953125,-2.64901 -5.953125,-5.95313 V 203.20703 c 0,-3.30412 2.6490059,-5.95508 5.953125,-5.95508 z"
       id="rect17730-5-0-0" />
    <g
       aria-label="IN"
       id="text18946-2-9-2"
       style="font-weight:bold;font-size:8px;line-height:1.25;font-family:Arial;-inkscape-font-specification:'Arial, Bold';font-variant-ligatures:none;text-align:center;text-anchor:middle;display:inline;fill:#ede7dc;fill-opacity:1">
      <path
         d="m 19.093742,205.94923 v -5.72656 h 1.15625 v 5.72656 z"
         id="path28606"
         style="fill:#ede7dc;fill-opacity:1" />
      <path
         d="m 21.363274,205.94923 v -5.72656 h 1.125 l 2.34375,3.82422 v -3.82422 h 1.074218 v 5.72656 h -1.160156 l -2.308594,-3.73437 v 3.73437 z"
         id="path28608"
         style="fill:#ede7dc;fill-opacity:1" />
    </g>
  </g>
  <g
     inkscape:groupmode="layer"
     id="layer5"
     inkscape:label="Reverse"
     style="display:inline">
    <g
       aria-label="OUT"
       id="text18946-5"
       style="font-weight:bold;font-size:8px;line-height:1.25;font-family:Arial;-inkscape-font-specification:'Arial, Bold';font-variant-ligatures:none;text-align:center;text-anchor:middle;display:inline;fill:#252525;fill-opacity:1">
      <path
         d="m 14.3125,71.818794 q 0,-0.875 0.261719,-1.46875 0.195312,-0.4375 0.53125,-0.785156 0.339844,-0.347656 0.742187,-0.515625 0.535156,-0.226562 1.234375,-0.226562 1.265625,0 2.023438,0.785156 0.761718,0.785156 0.761718,2.183594 0,1.386718 -0.753906,2.171875 -0.753906,0.78125 -2.015625,0.78125 -1.277343,0 -2.03125,-0.777344 Q 14.3125,73.185982 14.3125,71.818794 Z m 1.191406,-0.03906 q 0,0.972656 0.449219,1.476562 0.449219,0.5 1.140625,0.5 0.691406,0 1.132812,-0.496093 0.445313,-0.5 0.445313,-1.496094 0,-0.984375 -0.433594,-1.46875 -0.429687,-0.484375 -1.144531,-0.484375 -0.714844,0 -1.152344,0.492187 -0.4375,0.488282 -0.4375,1.476563 z"
         id="path28599"
         style="fill:#252525;fill-opacity:1" />
      <path
         d="m 20.761719,68.920357 h 1.15625 v 3.101562 q 0,0.738282 0.04297,0.957032 0.07422,0.351562 0.351563,0.566406 0.28125,0.210937 0.765625,0.210937 0.492187,0 0.742187,-0.199218 0.25,-0.203125 0.300782,-0.496094 0.05078,-0.292969 0.05078,-0.972656 v -3.167969 h 1.15625 v 3.007812 q 0,1.03125 -0.09375,1.457032 -0.09375,0.425781 -0.347656,0.71875 -0.25,0.292968 -0.671875,0.46875 -0.421875,0.171875 -1.101563,0.171875 -0.820312,0 -1.246094,-0.1875 Q 21.445312,74.365669 21.199219,74.064888 20.953125,73.760201 20.875,73.428169 20.761719,72.935982 20.761719,71.975044 Z"
         id="path28601"
         style="fill:#252525;fill-opacity:1" />
      <path
         d="m 27.835937,74.646919 v -4.757812 h -1.699218 v -0.96875 H 30.6875 v 0.96875 h -1.695313 v 4.757812 z"
         id="path28603"
         style="fill:#252525;fill-opacity:1" />
    </g>
    <g
       aria-label="OUT"
       id="text18946-5-9"
       style="font-weight:bold;font-size:8px;line-height:1.25;font-family:Arial;-inkscape-font-specification:'Arial, Bold';font-variant-ligatures:none;text-align:center;text-anchor:middle;display:inline;fill:#252525;fill-opacity:1">
      <path
         d="m 14.3125,239.81877 q 0,-0.875 0.261719,-1.46875 0.195312,-0.4375 0.53125,-0.78515 0.339844,-0.34766 0.742187,-0.51563 0.535156,-0.22656 1.234375,-0.22656 1.265625,0 2.023438,0.78515 0.761718,0.78516 0.761718,2.1836 0,1.38672 -0.753906,2.17187 -0.753906,0.78125 -2.015625,0.78125 -1.277343,0 -2.03125,-0.77734 -0.753906,-0.78125 -0.753906,-2.14844 z m 1.191406,-0.0391 q 0,0.97266 0.449219,1.47656 0.449219,0.5 1.140625,0.5 0.691406,0 1.132812,-0.49609 0.445313,-0.5 0.445313,-1.4961 0,-0.98437 -0.433594,-1.46875 -0.429687,-0.48437 -1.144531,-0.48437 -0.714844,0 -1.152344,0.49219 -0.4375,0.48828 -0.4375,1.47656 z"
         id="path28611"
         style="fill:#252525;fill-opacity:1" />
      <path
         d="m 20.761719,236.92033 h 1.15625 v 3.10157 q 0,0.73828 0.04297,0.95703 0.07422,0.35156 0.351563,0.5664 0.28125,0.21094 0.765625,0.21094 0.492187,0 0.742187,-0.19922 0.25,-0.20312 0.300782,-0.49609 0.05078,-0.29297 0.05078,-0.97266 v -3.16797 h 1.15625 v 3.00782 q 0,1.03125 -0.09375,1.45703 -0.09375,0.42578 -0.347656,0.71875 -0.25,0.29297 -0.671875,0.46875 -0.421875,0.17187 -1.101563,0.17187 -0.820312,0 -1.246094,-0.1875 -0.421875,-0.1914 -0.667968,-0.49218 -0.246094,-0.30469 -0.324219,-0.63672 -0.113281,-0.49219 -0.113281,-1.45313 z"
         id="path28613"
         style="fill:#252525;fill-opacity:1" />
      <path
         d="m 27.835937,242.6469 v -4.75782 h -1.699218 v -0.96875 H 30.6875 v 0.96875 h -1.695313 v 4.75782 z"
         id="path28615"
         style="fill:#252525;fill-opacity:1" />
    </g>
  </g>
  <text
     xml:space="preserve"
     id="text29904"
     style="font-weight:bold;font-size:8px;line-height:1.25;font-family:Arial;-inkscape-font-specification:'Arial, Bold';font-variant-ligatures:none;text-align:center;white-space:pre;shape-inside:url(#rect29906)"
     transform="translate(-2.6024628e-4)" />
  <g
     inkscape:groupmode="layer"
     id="layer1"
     inkscape:label="Widgets"
     style="display:none">
    <circle
       style="display:inline;fill:#ff0000;stroke:#ff0000;stroke-width:1.94925;stroke-opacity:1"
       id="path1065-7-2-3-2-2-39"
       cx="22.5"
       cy="-172.5"
       r="10.525375"
       transform="scale(1,-1)" />
    <circle
       style="display:inline;fill:#ff0000;stroke:#ff0000;stroke-width:1.94925;stroke-opacity:1"
       id="path1065-7-2-3-2-2-7-0"
       cx="22.5"
       cy="-144.5"
       r="10.525375"
       transform="scale(1,-1)" />
    <circle
       style="display:inline;fill:#ff0000;stroke:#ff0000;stroke-width:1.94925;stroke-opacity:1"
       id="path1065-7-2-3-2-2-6-3"
       cx="22.5"
       cy="-116.50001"
       r="10.525375"
       transform="scale(1,-1)" />
    <circle
       style="display:inline;fill:#ff0000;stroke:#ff0000;stroke-width:1.94925;stroke-opacity:1"
       id="path1065-7-2-3-2-2-3-8"
       cx="22.5"
       cy="-88.5"
       r="10.525375"
       transform="scale(1,-1)" />
    <circle
       style="display:inline;fill:#ff0000;stroke:#ff0000;stroke-width:1.94925;stroke-opacity:1"
       id="path1065-7-2-3-2-2-2-1"
       cx="22.5"
       cy="-51.500275"
       r="10.525375"
       transform="scale(1,-1)" />
    <circle
       style="display:inline;fill:#ff0000;stroke:#ff0000;stroke-width:1.94925;stroke-opacity:1"
       id="path1065-7-2-3-2-2-39-0"
       cx="22.5"
       cy="-340.49997"
       r="10.525375"
       transform="scale(1,-1)" />
    <circle
       style="display:inline;fill:#ff0000;stroke:#ff0000;stroke-width:1.94925;stroke-opacity:1"
       id="path1065-7-2-3-2-2-7-0-0"
       cx="22.5"
       cy="-312.49997"
       r="10.525375"
       transform="scale(1,-1)" />
    <circle
       style="display:inline;fill:#ff0000;stroke:#ff0000;stroke-width:1.94925;stroke-opacity:1"
       id="path1065-7-2-3-2-2-6-3-2"
       cx="22.5"
       cy="-284.49997"
       r="10.525375"
       transform="scale(1,-1)" />
    <circle
       style="display:inline;fill:#ff0000;stroke:#ff0000;stroke-width:1.94925;stroke-opacity:1"
       id="path1065-7-2-3-2-2-3-8-7"
       cx="22.5"
       cy="-256.49997"
       r="10.525375"
       transform="scale(1,-1)" />
    <circle
       style="display:inline;fill:#ff0000;stroke:#ff0000;stroke-width:1.94925;stroke-opacity:1"
       id="path1065-7-2-3-2-2-2-1-5"
       cx="22.5"
       cy="-219.50026"
       r="10.525375"
       transform="scale(1,-1)" />
    <circle
       style="display:inline;fill:#ff0000;stroke:#ff0000;stroke-width:1.94926;stroke-opacity:1"
       id="path1065-7-2-3-2-2-2-1-53"
       cx="35.000004"
       cy="-41.000004"
       r="2.0253751"
       transform="scale(1,-1)" />
    <circle
       style="display:inline;fill:#ff0000;stroke:#ff0000;stroke-width:1.94926;stroke-opacity:1"
       id="path1065-7-2-3-2-2-2-1-53-9"
       cx="35.000004"
       cy="-209"
       r="2.0253751"
       transform="scale(1,-1)" />
  </g>
</svg>
