<?xml version="1.0" encoding="UTF-8" standalone="no"?>
<!-- Created with Inkscape (http://www.inkscape.org/) -->

<svg
   width="135"
   height="380"
   viewBox="0 0 357.1875 1005.4167"
   version="1.1"
   id="svg5"
   inkscape:version="1.1.1 (3bf5ae0d25, 2021-09-20)"
   sodipodi:docname="SVF_Coal.svg"
   inkscape:export-filename="D:\Users\david\Documents\VCV2\Venom Multi Mode Filter Prototype.png"
   inkscape:export-xdpi="150.063"
   inkscape:export-ydpi="150.063"
   xmlns:inkscape="http://www.inkscape.org/namespaces/inkscape"
   xmlns:sodipodi="http://sodipodi.sourceforge.net/DTD/sodipodi-0.dtd"
   xmlns="http://www.w3.org/2000/svg"
   xmlns:svg="http://www.w3.org/2000/svg">
  <sodipodi:namedview
     id="namedview7"
     pagecolor="#ffffff"
     bordercolor="#666666"
     borderopacity="1.0"
     inkscape:pageshadow="2"
     inkscape:pageopacity="0.0"
     inkscape:pagecheckerboard="0"
     inkscape:document-units="px"
     showgrid="false"
     scale-x="10"
     inkscape:showpageshadow="false"
     viewbox-x="0"
     showguides="false"
     objecttolerance="1"
     gridtolerance="1"
     guidetolerance="1"
     inkscape:zoom="2.2342105"
     inkscape:cx="67.585395"
     inkscape:cy="190"
     inkscape:window-width="1920"
     inkscape:window-height="1057"
     inkscape:window-x="1592"
     inkscape:window-y="-8"
     inkscape:window-maximized="1"
     inkscape:current-layer="layer1"
     units="px">
    <inkscape:grid
       type="xygrid"
       id="grid832"
       units="px"
       spacingx="2.6458334"
       spacingy="2.6458334"
       originx="0"
       empspacing="5"
       dotted="false"
       visible="true"
       enabled="true" />
    <inkscape:grid
       type="xygrid"
       id="grid15270"
       visible="false" />
  </sodipodi:namedview>
  <defs
     id="defs2" />
  <g
     inkscape:groupmode="layer"
     id="layer3"
     inkscape:label="Faceplate"
     style="display:inline">
    <rect
       style="display:inline;vector-effect:non-scaling-stroke;fill:#252525;fill-opacity:1;stroke-width:0.186761;-inkscape-stroke:hairline"
       id="rect910-6-1-4"
       width="357.1875"
       height="1005.4167"
       x="-1.0231816e-13"
       y="-1.7763568e-15" />
  </g>
  <g
     inkscape:groupmode="layer"
     id="layer4"
     inkscape:label="Brand"
     style="display:inline">
    <g
       id="g42796-0-7-2"
       transform="matrix(0.79338965,0,0,0.79458332,118.51978,-19.617974)"
       style="display:inline;fill:#ff0000;stroke-width:1.27904">
      <g
         aria-label="enom"
         id="text4270-27-8-9-0"
         style="font-size:49.3889px;line-height:1.25;font-family:'NECK ROMANCER';-inkscape-font-specification:'NECK ROMANCER, Normal';font-variant-ligatures:none;text-align:center;text-anchor:middle;fill:#ff0000;stroke-width:3.38412">
        <path
           d="m 46.609141,1249.244 q 0,1.1576 0,3.4245 3.183269,0 9.453344,0 -1.639866,0.5787 -2.990343,1.2058 -1.350478,0.627 -2.363337,1.688 -1.350477,0 -4.051433,0 0,1.4952 0.434082,2.5563 0.385851,1.1093 1.832792,1.1093 2.266873,0 6.80062,0 0.482313,-0.1447 0.868164,-0.627 0.337619,-0.5305 0.627007,-1.7363 0,2.0257 0,6.1254 -3.520888,0 -10.562665,0 -1.543403,0 -2.652724,-2.2187 -1.109321,-2.1704 -1.109321,-6.3183 0,-1.9775 0,-5.836 -0.385851,-1.3504 -1.881023,-2.1221 -1.495171,-0.7235 -3.569119,-1.2058 6.607694,0 19.774852,0 0,2.9421 0,8.7781 -1.205783,-2.701 -2.218642,-3.6656 -1.012858,-0.9646 -2.700955,-1.1093 -0.916396,-0.097 -2.170411,-0.097 -1.205783,0.048 -2.845649,0.048 -0.241157,0 -0.675239,0 z"
           id="path42762-2-5-2"
           style="fill:#ff0000;stroke-width:3.38412" />
        <path
           d="m 81.576869,1245.2891 q 0,5.8842 0,17.7009 0,3.0868 -0.144694,6.0771 -0.09646,3.0386 -0.337619,5.9325 -0.385851,-3.7138 -0.964627,-6.9936 -0.530545,-3.3279 -2.025717,-5.016 0,-2.9904 0,-8.9228 -0.241157,-1.3505 -0.72347,-2.2187 -0.482314,-0.8681 -1.06109,-1.3987 -1.109321,-1.0128 -2.411567,-1.1093 -1.350478,-0.097 -2.266874,-0.097 -0.482313,0 -1.44694,0 0,4.582 0,13.746 0,3.0868 -0.09646,6.0771 -0.144694,3.0386 -0.385851,5.9325 -0.38585,-3.7138 -0.916395,-6.9936 -0.578776,-3.3279 -2.025717,-5.016 0,-4.8232 0,-14.373 -0.385851,-1.3504 -1.881022,-2.1221 -1.495172,-0.7235 -3.56912,-1.2058 6.752389,0 20.257166,0 z"
           id="path42764-5-7-3"
           style="fill:#ff0000;stroke-width:3.38412" />
        <path
           d="m 104.19737,1249.0511 q 0,3.3762 0,10.1768 0,1.5434 -1.92925,2.6528 -1.92926,1.1093 -6.077152,1.1093 -4.196128,0 -6.125382,-1.1093 -1.929254,-1.1094 -1.929254,-2.6528 0,-3.3762 0,-10.1768 0,-1.5434 1.929254,-2.6527 1.929254,-1.1093 6.125382,-1.1093 4.147892,0 6.077152,1.1093 1.92925,1.1093 1.92925,2.6527 z m -3.76204,7.91 q 0,-1.8811 0,-5.6431 0,-1.6881 -1.254019,-1.9775 -1.205783,-0.2894 -2.990343,-0.2894 -1.832792,0 -3.038575,0.2894 -1.254015,0.2894 -1.254015,1.9775 0,1.881 0,5.6431 0,1.6881 1.254015,1.9774 1.205783,0.2894 3.038575,0.2894 1.78456,0 2.990343,-0.2894 1.254019,-0.2893 1.254019,-1.9774 z"
           id="path42766-8-9-0"
           style="fill:#ff0000;stroke-width:3.38412" />
        <path
           d="m 142.34837,1245.2891 q -2.02572,0.4823 -3.52089,1.2058 -1.5434,0.7717 -1.88102,2.1221 0,4.7749 0,14.373 -1.49517,1.6881 -2.02572,5.016 -0.57878,3.2798 -0.96463,6.9936 -0.24115,-2.8939 -0.33762,-5.9325 -0.14469,-2.9903 -0.14469,-6.0771 0,-4.582 0,-13.746 -0.48231,0 -1.39871,0 -0.53054,0 -1.15755,0 -0.62701,0 -1.30225,0.1447 -1.25401,0.2412 -2.41157,1.2058 -1.15755,0.9646 -1.63986,3.4727 0,2.9903 0,8.9228 -0.1447,0.627 -0.28939,1.1093 -0.0965,0.4823 -0.19292,0.8199 -0.53055,1.9775 -0.38586,1.3505 0.19293,-0.627 -0.28938,1.1576 -0.0965,0.3376 -0.24116,0.8681 -0.14469,0.5306 -0.33762,1.3023 -0.14469,-0.6753 -0.28939,-1.2058 -0.14469,-0.4823 -0.24115,-0.8199 -0.53055,-2.0258 -0.33762,-1.3023 0.19292,0.7717 -0.43409,-1.6881 -0.0482,-0.2894 -0.19292,-0.7235 -0.0965,-0.3858 -0.19293,-0.8681 0,-2.9904 0,-8.9228 -0.28939,-1.3505 -0.7717,-2.2187 -0.48231,-0.8681 -1.06109,-1.3987 -1.10932,-1.0128 -2.41157,-1.1093 -1.30224,-0.097 -2.26687,-0.097 -0.48231,0 -1.39871,0 0,4.582 0,13.746 0,3.0868 -0.14469,6.0771 -0.0965,3.0386 -0.33762,5.9325 -0.38585,-3.7138 -0.96463,-6.9936 -0.53054,-3.3279 -2.02572,-5.016 0,-4.8232 0,-14.373 -0.38585,-1.3504 -1.88102,-2.1221 -1.49517,-0.7235 -3.56912,-1.2058 3.95497,0 11.76845,0 1.15755,0.3858 3.47266,1.1575 0.7717,0.2894 1.59163,0.4341 0.81994,0.1447 1.6881,0.1447 0.86816,0 1.73633,-0.1447 0.81993,-0.1447 1.59163,-0.4341 1.15756,-0.3858 3.42443,-1.1575 3.95497,0 11.76845,0 z"
           id="path42768-1-5-9"
           style="fill:#ff0000;stroke-width:3.38412" />
      </g>
      <g
         aria-label="V"
         transform="matrix(1.2363173,0,0,0.80885384,-497.88086,123.48586)"
         id="text4270-3-5-2-4-0-7"
         style="font-size:78.5061px;line-height:1.25;font-family:Nosferotica;-inkscape-font-specification:'Nosferotica, Normal';font-variant-ligatures:none;text-align:center;text-anchor:middle;fill:#ff0000;stroke-width:4.18383">
        <path
           d="m 431.64994,1360.6864 8.57428,-0.1022 c 0,0 -4.4079,1.0878 -5.59925,3.7285 -1.88083,4.1689 -3.64217,14.6628 -3.64217,14.6628 l -2.23339,11.5191 -1.83311,11.8311 -1.71824,21.3112 -1.69514,-21.3112 -1.92196,-11.5208 -2.5009,-11.8294 c 0,0 -1.52027,-10.287 -3.38278,-14.4832 -1.14458,-2.5787 -5.63367,-3.8059 -5.63367,-3.8059 h 8.4657 l 6.66875,29.1569 z"
           id="path30410-2-3-0"
           sodipodi:nodetypes="ccscccccccscccc"
           style="fill:#ff0000;stroke-width:4.18383" />
      </g>
    </g>
  </g>
  <g
     inkscape:groupmode="layer"
     id="layer5"
     inkscape:label="Solid"
     style="display:inline">
    <rect
       style="display:inline;vector-effect:non-scaling-stroke;fill:#ede7dc;fill-opacity:1;stroke-width:0.0257848;-inkscape-stroke:hairline"
       id="rect76101-3-4-0"
       width="95.25"
       height="162.71875"
       x="-944.09955"
       y="9.9218616"
       ry="12.391613"
       rx="11.207398"
       transform="rotate(-90)" />
    <rect
       style="display:inline;vector-effect:non-scaling-stroke;fill:#ede7dc;fill-opacity:1;stroke-width:0.0257848;-inkscape-stroke:hairline"
       id="rect76101-3-4-0-9"
       width="95.25"
       height="162.71875"
       x="-944.09955"
       y="184.54732"
       ry="12.391613"
       rx="11.207398"
       transform="rotate(-90)" />
    <path
       style="color:#000000;display:inline;fill:#ede7dc;fill-opacity:1;stroke-width:0.999999;-inkscape-stroke:none"
       d="m 178.59375,235.47749 v 2.64844 l 84.66666,0.002 v -2.65039 z"
       id="path1270-8-2-5-8-1-4-7" />
    <path
       style="color:#000000;display:inline;fill:#ede7dc;fill-opacity:1;stroke-width:0.999999;-inkscape-stroke:none"
       d="m 178.59375,328.07933 v 2.64844 l 84.66666,0.002 v -2.65039 z"
       id="path1270-8-2-5-8-1-4-4" />
    <g
       aria-label="CUTOFF"
       id="text24781"
       style="font-weight:bold;font-size:21.1667px;line-height:1.25;font-family:Arial;-inkscape-font-specification:'Arial, Bold';font-variant-ligatures:none;text-align:center;text-anchor:middle;display:inline;fill:#ede7dc;fill-opacity:1;stroke-width:2.64583"
       transform="translate(-23.813798,-188.90184)">
      <path
         d="m 62.430248,269.443 2.966232,0.94052 q -0.68213,2.48047 -2.273767,3.6897 -1.581301,1.1989 -4.020433,1.1989 -3.017908,0 -4.960945,-2.05673 -1.943037,-2.06706 -1.943037,-5.64308 0,-3.78272 1.953372,-5.87045 1.953372,-2.09806 5.136646,-2.09806 2.780196,0 4.516527,1.64331 1.03353,0.97152 1.550295,2.79053 l -3.028243,0.72347 q -0.268718,-1.17822 -1.126548,-1.86035 -0.847495,-0.68213 -2.067061,-0.68213 -1.684654,0 -2.738855,1.20923 -1.043866,1.20923 -1.043866,3.91708 0,2.87321 1.033531,4.09278 1.03353,1.21956 2.687178,1.21956 1.219566,0 2.098067,-0.77514 0.878501,-0.77515 1.260907,-2.43914 z"
         id="path31953"
         style="fill:#ede7dc;fill-opacity:1" />
      <path
         d="m 68.000976,259.86218 h 3.05925 v 8.20623 q 0,1.95337 0.113688,2.53215 0.196371,0.93018 0.930178,1.49862 0.744142,0.5581 2.025719,0.5581 1.302248,0 1.963708,-0.5271 0.661459,-0.53743 0.795818,-1.31258 0.134359,-0.77515 0.134359,-2.57349 v -8.38193 h 3.05925 v 7.95818 q 0,2.72852 -0.248048,3.85507 -0.248047,1.12655 -0.919842,1.9017 -0.661459,0.77514 -1.777672,1.24023 -1.116212,0.45476 -2.914555,0.45476 -2.170414,0 -3.296962,-0.4961 -1.116213,-0.50643 -1.767337,-1.30225 -0.651124,-0.80615 -0.85783,-1.68465 -0.299724,-1.30225 -0.299724,-3.84473 z"
         id="path31955"
         style="fill:#ede7dc;fill-opacity:1" />
      <path
         d="m 86.71821,275.01373 v -12.5884 h -4.495856 v -2.56315 h 12.040628 v 2.56315 H 89.77746 v 12.5884 z"
         id="path31957"
         style="fill:#ede7dc;fill-opacity:1" />
      <path
         d="m 95.2345,267.53097 q 0,-2.3151 0.692466,-3.88607 0.516765,-1.15755 1.405601,-2.0774 0.899171,-0.91984 1.963708,-1.36426 1.415935,-0.59944 3.265955,-0.59944 3.34864,0 5.35369,2.07739 2.01538,2.0774 2.01538,5.77744 0,3.66903 -1.99471,5.74642 -1.99472,2.06707 -5.33302,2.06707 -3.379643,0 -5.374356,-2.05673 -1.994714,-2.06706 -1.994714,-5.68442 z m 3.152268,-0.10335 q 0,2.57349 1.18856,3.90675 1.188562,1.32291 3.017912,1.32291 1.82934,0 2.99723,-1.31258 1.17823,-1.32292 1.17823,-3.95842 0,-2.6045 -1.14722,-3.88607 -1.13688,-1.28158 -3.02824,-1.28158 -1.89136,0 -3.048918,1.30225 -1.157554,1.29191 -1.157554,3.90674 z"
         id="path31959"
         style="fill:#ede7dc;fill-opacity:1" />
      <path
         d="m 112.33943,275.01373 v -15.15155 h 10.38698 v 2.56315 h -7.32773 v 3.58635 h 6.3252 v 2.56316 h -6.3252 v 6.43889 z"
         id="path31961"
         style="fill:#ede7dc;fill-opacity:1" />
      <path
         d="m 125.26889,275.01373 v -15.15155 h 10.38698 v 2.56315 h -7.32773 v 3.58635 h 6.32521 v 2.56316 h -6.32521 v 6.43889 z"
         id="path31963"
         style="fill:#ede7dc;fill-opacity:1" />
    </g>
    <path
       style="color:#000000;fill:#ede7dc;fill-opacity:1;stroke-dasharray:5.29166, 5.29166;-inkscape-stroke:none"
       d="m 93.264321,235.47912 v 2.64454 h 5.29102 v -2.64454 z m 10.583989,0 v 2.64454 h 5.29101 v -2.64454 z m 10.58203,0 v 2.64454 h 5.29297 v -2.64454 z m 10.58398,0 v 2.64454 h 5.29102 v -2.64454 z m 10.58399,0 v 2.64454 h 5.29101 v -2.64454 z m 10.58203,0 v 2.64454 h 5.29297 v -2.64454 z m 10.58398,0 v 2.64454 h 5.29102 v -2.64454 z m 10.58399,0 v 2.64454 h 5.29101 v -2.64454 z m 10.58203,0 v 2.64454 h 2.64648 v -2.64454 z"
       id="path30312" />
    <path
       style="color:#000000;fill:#ede7dc;fill-opacity:1;stroke-dasharray:5.29166, 5.29166;-inkscape-stroke:none"
       d="m 93.264321,328.08229 v 2.64453 h 5.291017 v -2.64453 z m 10.583979,0 v 2.64453 h 5.29101 v -2.64453 z m 10.58203,0 v 2.64453 h 5.29297 v -2.64453 z m 10.58398,0 v 2.64453 h 5.29102 v -2.64453 z m 10.58399,0 v 2.64453 h 5.29101 v -2.64453 z m 10.58203,0 v 2.64453 h 5.29297 v -2.64453 z m 10.58398,0 v 2.64453 h 5.29102 v -2.64453 z m 10.58399,0 v 2.64453 h 5.29101 v -2.64453 z m 10.58203,0 v 2.64453 h 2.64648 v -2.64453 z"
       id="path30312-7" />
    <g
       aria-label="INPUT"
       id="text36972"
       style="font-weight:bold;font-size:21.1667px;line-height:1.25;font-family:Arial;-inkscape-font-specification:'Arial, Bold';font-variant-ligatures:none;text-align:center;text-anchor:middle;display:inline;fill:#ede7dc;fill-opacity:1;stroke-width:2.64583"
       transform="translate(39.68704,-55.607071)">
      <path
         d="m 20.784664,724.60211 v -15.15155 h 3.05925 v 15.15155 z"
         id="path40090"
         style="fill:#ede7dc;fill-opacity:1" />
      <path
         d="m 26.789475,724.60211 v -15.15155 h 2.976567 l 6.201182,10.11826 v -10.11826 h 2.842209 v 15.15155 h -3.069585 l -6.108164,-9.88055 v 9.88055 z"
         id="path40092"
         style="fill:#ede7dc;fill-opacity:1" />
      <path
         d="m 42.044382,724.60211 v -15.15155 h 4.909269 q 2.790532,0 3.638027,0.22737 1.302248,0.34107 2.180749,1.48829 0.8785,1.13688 0.8785,2.94556 0,1.39527 -0.506429,2.34611 -0.50643,0.95085 -1.291913,1.49862 -0.775148,0.53744 -1.581302,0.71314 -1.095542,0.21704 -3.172938,0.21704 h -1.994713 v 5.71542 z m 3.05925,-12.5884 v 4.29949 h 1.674319 q 1.808678,0 2.418461,-0.23771 0.609783,-0.23772 0.950848,-0.74414 0.3514,-0.50643 0.3514,-1.17823 0,-0.82682 -0.485759,-1.36426 -0.485759,-0.53744 -1.229901,-0.67179 -0.547771,-0.10336 -2.20142,-0.10336 z"
         id="path40094"
         style="fill:#ede7dc;fill-opacity:1" />
      <path
         d="m 56.141737,709.45056 h 3.059249 v 8.20623 q 0,1.95337 0.113689,2.53215 0.19637,0.93017 0.930177,1.49862 0.744142,0.5581 2.025719,0.5581 1.302248,0 1.963708,-0.5271 0.661459,-0.53743 0.795818,-1.31258 0.134359,-0.77515 0.134359,-2.57349 v -8.38193 h 3.05925 v 7.95818 q 0,2.72852 -0.248048,3.85507 -0.248047,1.12655 -0.919842,1.90169 -0.661459,0.77515 -1.777672,1.24024 -1.116212,0.45475 -2.914555,0.45475 -2.170414,0 -3.296962,-0.49609 -1.116212,-0.50643 -1.767337,-1.30225 -0.651124,-0.80615 -0.85783,-1.68465 -0.299723,-1.30225 -0.299723,-3.84474 z"
         id="path40096"
         style="fill:#ede7dc;fill-opacity:1" />
      <path
         d="m 74.858969,724.60211 v -12.5884 h -4.495857 v -2.56315 H 82.40374 v 2.56315 h -4.485522 v 12.5884 z"
         id="path40098"
         style="fill:#ede7dc;fill-opacity:1" />
    </g>
    <rect
       style="display:inline;vector-effect:non-scaling-stroke;fill:#ede7dc;fill-opacity:1;stroke-width:0.0257848;-inkscape-stroke:hairline"
       id="rect76101-3-4-0-7"
       width="95.25"
       height="162.71875"
       x="-843.55792"
       y="9.9218616"
       ry="12.391612"
       rx="11.207398"
       transform="rotate(-90)" />
    <rect
       style="display:inline;vector-effect:non-scaling-stroke;fill:#ede7dc;fill-opacity:1;stroke-width:0.0257848;-inkscape-stroke:hairline"
       id="rect76101-3-4-0-9-3"
       width="95.25"
       height="162.71875"
       x="-843.55792"
       y="184.54732"
       ry="12.391612"
       rx="11.207399"
       transform="rotate(-90)" />
    <path
       d="m 95.572267,706.90848 -7.597961,-4.38679 a 0.98390607,0.98390607 0 0 0 -1.475846,0.85196 v 8.77358 a 0.98390607,0.98390607 0 0 0 1.475846,0.85196 l 7.597961,-4.38679 a 0.98387961,0.98387961 0 0 0 0,-1.70392 z"
       fill="#1f1f1f"
       id="path26-8"
       style="display:inline;fill:#ede7dc;fill-opacity:1;stroke-width:2.64583" />
    <g
       aria-label="GAIN"
       id="text97877"
       style="font-weight:bold;font-size:21.1667px;line-height:1.25;font-family:Arial;-inkscape-font-specification:'Arial, Bold';font-variant-ligatures:none;text-align:center;text-anchor:middle;fill:#ede7dc;fill-opacity:1;stroke-width:2.64583"
       transform="translate(259.93215,-194.356)">
      <path
         d="m -207.34753,481.15044 v -2.55281 h 6.59392 v 6.0358 q -0.96118,0.93018 -2.79053,1.64331 -1.81901,0.7028 -3.6897,0.7028 -2.37711,0 -4.14445,-0.99218 -1.76733,-1.00253 -2.65617,-2.85254 -0.88883,-1.86036 -0.88883,-4.0411 0,-2.36678 0.99219,-4.20646 0.99218,-1.83968 2.90421,-2.82154 1.45728,-0.75447 3.62769,-0.75447 2.82153,0 4.40283,1.18856 1.59163,1.17822 2.04639,3.26595 l -3.03858,0.56844 q -0.32039,-1.11621 -1.20923,-1.757 -0.87849,-0.65112 -2.20141,-0.65112 -2.00505,0 -3.19361,1.27124 -1.17822,1.27124 -1.17822,3.77238 0,2.69751 1.1989,4.05143 1.19889,1.34359 3.14192,1.34359 0.96118,0 1.92237,-0.37207 0.97151,-0.38241 1.66398,-0.91985 v -1.92236 z"
         style="font-size:21.1667px;fill:#ede7dc;fill-opacity:1"
         id="path105637" />
      <path
         d="m -184.26883,486.72116 h -3.32796 l -1.32292,-3.44165 h -6.05648 l -1.25057,3.44165 h -3.24528 l 5.90145,-15.15153 h 3.23495 z m -5.63273,-5.99447 -2.08773,-5.62239 -2.04638,5.62239 z"
         style="font-size:21.1667px;fill:#ede7dc;fill-opacity:1"
         id="path105639" />
      <path
         d="m -182.7392,486.72116 v -15.15153 h 3.05924 v 15.15153 z"
         style="font-size:21.1667px;fill:#ede7dc;fill-opacity:1"
         id="path105641" />
      <path
         d="m -176.7344,486.72116 v -15.15153 h 2.97656 l 6.20117,10.11825 v -10.11825 h 2.84221 v 15.15153 h -3.06958 l -6.10816,-9.88053 v 9.88053 z"
         style="font-size:21.1667px;fill:#ede7dc;fill-opacity:1"
         id="path105643" />
    </g>
    <path
       style="color:#000000;display:inline;fill:#ede7dc;fill-opacity:1;stroke-width:0.999999;-inkscape-stroke:none"
       d="m 178.59375,513.29236 v 2.64844 l 84.66666,0.002 v -2.65039 z"
       id="path1270-8-2-5-8-1-4-4-9-4" />
    <path
       style="color:#000000;display:inline;fill:#ede7dc;fill-opacity:1;stroke-dasharray:5.29166, 5.29166;-inkscape-stroke:none"
       d="m 92.273641,513.29539 v 2.64453 h 5.291017 v -2.64453 z m 10.583979,0 v 2.64453 h 5.29101 v -2.64453 z m 10.58203,0 v 2.64453 h 5.29297 v -2.64453 z m 10.58398,0 v 2.64453 h 5.29102 v -2.64453 z m 10.58399,0 v 2.64453 h 5.29101 v -2.64453 z m 10.58203,0 v 2.64453 h 5.29297 v -2.64453 z m 10.58398,0 v 2.64453 h 5.29102 v -2.64453 z m 10.58399,0 v 2.64453 h 5.29101 v -2.64453 z m 10.58203,0 v 2.64453 h 2.64648 v -2.64453 z"
       id="path30312-7-8-5" />
    <path
       style="color:#000000;display:inline;fill:#ede7dc;fill-opacity:1;stroke-width:0.999999;-inkscape-stroke:none"
       d="m 178.59375,605.89361 v 2.64844 l 84.66666,0.002 v -2.65039 z"
       id="path1270-8-2-5-8-1-4-4-9-4-3" />
    <path
       style="color:#000000;display:inline;fill:#ede7dc;fill-opacity:1;stroke-dasharray:5.29166, 5.29166;-inkscape-stroke:none"
       d="m 92.273641,605.89664 v 2.64453 h 5.291017 v -2.64453 z m 10.583979,0 v 2.64453 h 5.29101 v -2.64453 z m 10.58203,0 v 2.64453 h 5.29297 v -2.64453 z m 10.58398,0 v 2.64453 h 5.29102 v -2.64453 z m 10.58399,0 v 2.64453 h 5.29101 v -2.64453 z m 10.58203,0 v 2.64453 h 5.29297 v -2.64453 z m 10.58398,0 v 2.64453 h 5.29102 v -2.64453 z m 10.58399,0 v 2.64453 h 5.29101 v -2.64453 z m 10.58203,0 v 2.64453 h 2.64648 v -2.64453 z"
       id="path30312-7-8-5-5" />
    <g
       aria-label="SPREAD"
       id="text10825-2"
       style="font-weight:bold;font-size:21.1667px;line-height:1.25;font-family:Arial;-inkscape-font-specification:'Arial, Bold';font-variant-ligatures:none;text-align:center;text-anchor:middle;display:inline;fill:#ede7dc;fill-opacity:1;stroke-width:2.64583">
      <path
         d="m 26.916895,380.17712 2.976567,-0.28939 q 0.268718,1.49862 1.085207,2.20142 0.826824,0.7028 2.22209,0.7028 1.477949,0 2.222091,-0.62012 0.754477,-0.63045 0.754477,-1.46761 0,-0.53744 -0.320395,-0.90951 -0.310059,-0.38241 -1.095542,-0.66146 -0.537436,-0.18603 -2.449467,-0.66146 -2.459802,-0.60978 -3.451991,-1.49862 -1.395266,-1.25057 -1.395266,-3.04891 0,-1.15756 0.651124,-2.16008 0.66146,-1.01286 1.891361,-1.53996 1.240236,-0.5271 2.986902,-0.5271 2.852544,0 4.289151,1.25057 1.446942,1.25057 1.51929,3.3383 l -3.05925,0.13436 q -0.196371,-1.16789 -0.847495,-1.67432 -0.640789,-0.51676 -1.932702,-0.51676 -1.333254,0 -2.087731,0.54777 -0.485759,0.3514 -0.485759,0.94051 0,0.53744 0.454753,0.91984 0.578777,0.48576 2.811203,1.01286 2.232425,0.5271 3.296961,1.09555 1.074872,0.5581 1.674319,1.53996 0.609783,0.97151 0.609783,2.40812 0,1.30225 -0.723471,2.43913 -0.723471,1.13689 -2.04639,1.69499 -1.322919,0.54777 -3.296962,0.54777 -2.873214,0 -4.413174,-1.32292 -1.53996,-1.33325 -1.839684,-3.87573 z"
         id="path45954"
         style="fill:#ede7dc;fill-opacity:1" />
      <path
         d="M 41.810067,385.10706 V 369.9555 h 4.909269 q 2.790531,0 3.638026,0.22738 1.302248,0.34106 2.180749,1.48828 0.878501,1.13689 0.878501,2.94556 0,1.39527 -0.50643,2.34612 -0.50643,0.95084 -1.291913,1.49862 -0.775147,0.53743 -1.581301,0.71313 -1.095542,0.21704 -3.172938,0.21704 h -1.994714 v 5.71543 z m 3.059249,-12.5884 v 4.29948 h 1.67432 q 1.808678,0 2.41846,-0.23771 0.609783,-0.23771 0.950848,-0.74414 0.351401,-0.50643 0.351401,-1.17823 0,-0.82682 -0.48576,-1.36426 -0.485759,-0.53743 -1.229901,-0.67179 -0.547771,-0.10335 -2.201419,-0.10335 z"
         id="path45956"
         style="fill:#ede7dc;fill-opacity:1" />
      <path
         d="M 55.938426,385.10706 V 369.9555 h 6.438894 q 2.428796,0 3.524338,0.41341 1.105877,0.40308 1.767337,1.44695 0.661459,1.04386 0.661459,2.38745 0,1.70533 -1.002524,2.82154 -1.002525,1.10588 -2.997238,1.39526 0.992189,0.57878 1.632978,1.27125 0.651124,0.69246 1.746666,2.4598 l 1.850019,2.9559 h -3.658697 l -2.211755,-3.29697 q -1.178224,-1.76733 -1.612307,-2.22209 -0.434083,-0.46508 -0.919842,-0.63045 -0.485759,-0.1757 -1.53996,-0.1757 h -0.620118 v 6.32521 z m 3.05925,-8.74367 h 2.263431 q 2.20142,0 2.749191,-0.18604 0.547771,-0.18603 0.85783,-0.64078 0.310059,-0.45476 0.310059,-1.13689 0,-0.76481 -0.413412,-1.2299 -0.403077,-0.47542 -1.147219,-0.59945 -0.372071,-0.0517 -2.232425,-0.0517 h -2.387455 z"
         id="path45958"
         style="fill:#ede7dc;fill-opacity:1" />
      <path
         d="M 71.214004,385.10706 V 369.9555 h 11.234474 v 2.56316 h -8.175224 v 3.35897 h 7.606783 v 2.55282 h -7.606783 v 4.12379 h 8.464613 v 2.55282 z"
         id="path45960"
         style="fill:#ede7dc;fill-opacity:1" />
      <path
         d="M 98.995298,385.10706 H 95.66733 l -1.322919,-3.44166 h -6.056487 l -1.250572,3.44166 h -3.245285 l 5.901458,-15.15156 h 3.23495 z m -5.632741,-5.99448 -2.087731,-5.6224 -2.04639,5.6224 z"
         id="path45962"
         style="fill:#ede7dc;fill-opacity:1" />
      <path
         d="m 100.6076,369.9555 h 5.5914 q 1.89136,0 2.88355,0.28939 1.33326,0.39274 2.2841,1.39527 0.95085,1.00252 1.44695,2.4598 0.49609,1.44694 0.49609,3.57601 0,1.87069 -0.46509,3.22462 -0.56844,1.65365 -1.62264,2.67684 -0.79582,0.77515 -2.14974,1.20923 -1.01286,0.3204 -2.70785,0.3204 h -5.75677 z m 3.05925,2.56316 v 10.03558 h 2.2841 q 1.28158,0 1.85002,-0.1447 0.74415,-0.18603 1.22991,-0.63045 0.49609,-0.44442 0.80615,-1.45728 0.31006,-1.02319 0.31006,-2.7802 0,-1.757 -0.31006,-2.69751 -0.31006,-0.94051 -0.86817,-1.46761 -0.5581,-0.5271 -1.41593,-0.71314 -0.64079,-0.14469 -2.51148,-0.14469 z"
         id="path45964"
         style="fill:#ede7dc;fill-opacity:1" />
    </g>
    <g
       aria-label="FDBK"
       id="text10825-3"
       style="font-weight:bold;font-size:21.1667px;line-height:1.25;font-family:Arial;-inkscape-font-specification:'Arial, Bold';font-variant-ligatures:none;text-align:center;text-anchor:middle;display:inline;fill:#ede7dc;fill-opacity:1;stroke-width:2.64583"
       transform="translate(0,2.6467577)">
      <path
         d="M 41.520682,475.07056 V 459.919 h 10.38698 v 2.56316 h -7.32773 v 3.58635 h 6.325205 v 2.56315 h -6.325205 v 6.4389 z"
         id="path45967"
         style="fill:#ede7dc;fill-opacity:1" />
      <path
         d="m 54.419141,459.919 h 5.591399 q 1.89136,0 2.883549,0.28939 1.333254,0.39274 2.284102,1.39527 0.950848,1.00252 1.446942,2.4598 0.496095,1.44694 0.496095,3.57601 0,1.87069 -0.465089,3.22462 -0.568441,1.65365 -1.622642,2.67684 -0.795819,0.77515 -2.149743,1.20923 -1.01286,0.3204 -2.70785,0.3204 h -5.756763 z m 3.059249,2.56316 v 10.03558 h 2.284102 q 1.281578,0 1.850019,-0.1447 0.744142,-0.18603 1.229902,-0.63045 0.496094,-0.44442 0.806153,-1.45728 0.310059,-1.02319 0.310059,-2.7802 0,-1.757 -0.310059,-2.69751 -0.310059,-0.94051 -0.868165,-1.46761 -0.558107,-0.5271 -1.415937,-0.71314 -0.640789,-0.14469 -2.511478,-0.14469 z"
         id="path45969"
         style="fill:#ede7dc;fill-opacity:1" />
      <path
         d="m 69.725725,459.919 h 6.056487 q 1.798343,0 2.676844,0.15503 0.888836,0.1447 1.581301,0.62012 0.702801,0.47542 1.167889,1.27124 0.465089,0.78549 0.465089,1.76734 0,1.06454 -0.578777,1.95337 -0.568442,0.88884 -1.550296,1.33326 1.384931,0.40307 2.129073,1.37459 0.744142,0.97152 0.744142,2.2841 0,1.03353 -0.48576,2.01539 -0.475423,0.97152 -1.312583,1.56063 -0.826824,0.57877 -2.04639,0.71313 -0.764812,0.0827 -3.689703,0.10336 h -5.157316 z m 3.059249,2.52182 v 3.50366 h 2.005049 q 1.788008,0 2.22209,-0.0517 0.785483,-0.093 1.229901,-0.53744 0.454754,-0.45475 0.454754,-1.18856 0,-0.7028 -0.392742,-1.13688 -0.382406,-0.44442 -1.147218,-0.53744 -0.454754,-0.0517 -2.614832,-0.0517 z m 0,6.02548 v 4.05144 h 2.831873 q 1.653649,0 2.098067,-0.093 0.68213,-0.12402 1.105877,-0.59945 0.434083,-0.48576 0.434083,-1.29191 0,-0.68213 -0.33073,-1.15756 -0.330729,-0.47542 -0.961183,-0.69246 -0.620118,-0.21704 -2.707849,-0.21704 z"
         id="path45971"
         style="fill:#ede7dc;fill-opacity:1" />
      <path
         d="M 85.042642,475.07056 V 459.919 h 3.05925 v 6.72828 l 6.180511,-6.72828 h 4.113451 l -5.705088,5.90146 6.015147,9.2501 h -3.958421 l -4.165127,-7.11069 -2.480473,2.53215 v 4.57854 z"
         id="path45973"
         style="fill:#ede7dc;fill-opacity:1" />
    </g>
    <g
       aria-label="MORPH"
       id="text10825-0"
       style="font-weight:bold;font-size:21.1667px;line-height:1.25;font-family:Arial;-inkscape-font-specification:'Arial, Bold';font-variant-ligatures:none;text-align:center;text-anchor:middle;display:inline;fill:#ede7dc;fill-opacity:1;stroke-width:2.64583"
       transform="translate(0,5.2916351)">
      <path
         d="m 32.28092,565.02887 v -15.15155 h 4.578539 l 2.749191,10.3353 2.718185,-10.3353 h 4.588874 v 15.15155 h -2.842208 v -11.92694 l -3.007573,11.92694 h -2.945562 l -2.997238,-11.92694 v 11.92694 z"
         id="path45976"
         style="fill:#ede7dc;fill-opacity:1" />
      <path
         d="m 49.33417,557.54611 q 0,-2.31511 0.692465,-3.88607 0.516765,-1.15756 1.405601,-2.0774 0.899172,-0.91984 1.963708,-1.36426 1.415936,-0.59945 3.265956,-0.59945 3.348638,0 5.353686,2.0774 2.015385,2.07739 2.015385,5.77743 0,3.66904 -1.994714,5.74643 -1.994713,2.06706 -5.333016,2.06706 -3.379644,0 -5.374358,-2.05672 -1.994713,-2.06706 -1.994713,-5.68442 z m 3.152267,-0.10335 q 0,2.57349 1.18856,3.90674 1.18856,1.32292 3.017908,1.32292 1.829349,0 2.997238,-1.31258 1.178225,-1.32292 1.178225,-3.95842 0,-2.6045 -1.147219,-3.88608 -1.136883,-1.28158 -3.028244,-1.28158 -1.89136,0 -3.048914,1.30225 -1.157554,1.29192 -1.157554,3.90675 z"
         id="path45978"
         style="fill:#ede7dc;fill-opacity:1" />
      <path
         d="m 66.428761,565.02887 v -15.15155 h 6.438894 q 2.428796,0 3.524338,0.41341 1.105878,0.40307 1.767337,1.44694 0.66146,1.04387 0.66146,2.38746 0,1.70532 -1.002525,2.82153 -1.002524,1.10588 -2.997238,1.39527 0.992189,0.57878 1.632978,1.27124 0.651124,0.69247 1.746666,2.4598 l 1.85002,2.9559 h -3.658698 l -2.211754,-3.29696 q -1.178225,-1.76734 -1.612308,-2.22209 -0.434082,-0.46509 -0.919842,-0.63046 -0.485759,-0.1757 -1.53996,-0.1757 h -0.620118 v 6.32521 z m 3.05925,-8.74367 h 2.263431 q 2.20142,0 2.749191,-0.18603 0.547771,-0.18604 0.85783,-0.64079 0.310059,-0.45475 0.310059,-1.13688 0,-0.76482 -0.413412,-1.22991 -0.403077,-0.47542 -1.147219,-0.59944 -0.372071,-0.0517 -2.232425,-0.0517 h -2.387455 z"
         id="path45980"
         style="fill:#ede7dc;fill-opacity:1" />
      <path
         d="m 81.704341,565.02887 v -15.15155 h 4.909269 q 2.790532,0 3.638027,0.22737 1.302248,0.34107 2.180749,1.48829 0.878501,1.13688 0.878501,2.94556 0,1.39526 -0.50643,2.34611 -0.50643,0.95085 -1.291913,1.49862 -0.775148,0.53744 -1.581301,0.71314 -1.095543,0.21704 -3.172938,0.21704 h -1.994714 v 5.71542 z m 3.05925,-12.5884 v 4.29949 h 1.674319 q 1.808678,0 2.418461,-0.23772 0.609783,-0.23771 0.950848,-0.74414 0.3514,-0.50643 0.3514,-1.17822 0,-0.82683 -0.485759,-1.36426 -0.485759,-0.53744 -1.229901,-0.6718 -0.547771,-0.10335 -2.20142,-0.10335 z"
         id="path45982"
         style="fill:#ede7dc;fill-opacity:1" />
      <path
         d="m 95.8327,565.02887 v -15.15155 h 3.059249 v 5.96347 h 5.994471 v -5.96347 h 3.05925 v 15.15155 h -3.05925 v -6.62493 h -5.994471 v 6.62493 z"
         id="path45984"
         style="fill:#ede7dc;fill-opacity:1" />
    </g>
    <rect
       style="display:inline;vector-effect:non-scaling-stroke;fill:#ede7dc;fill-opacity:1;stroke-width:0.0257848;-inkscape-stroke:hairline"
       id="rect76101-3-4-0-9-3-0"
       width="95.25"
       height="162.71875"
       x="-743.01617"
       y="184.54688"
       ry="12.391612"
       rx="11.207399"
       transform="rotate(-90)" />
    <path
       style="color:#000000;display:inline;fill:#ede7dc;fill-opacity:1;stroke-width:0.999999;-inkscape-stroke:none"
       d="m 178.59375,160.07116 v 2.64844 l 84.66666,0.002 v -2.65039 z"
       id="path1270-8-2-5-8-1-4-8" />
    <path
       style="color:#000000;fill:#ede7dc;fill-opacity:1;stroke-dasharray:5.29166, 5.29166;-inkscape-stroke:none"
       d="m 233.40039,90.029297 -5.08398,1.466797 0.73437,2.542968 5.08399,-1.46875 z m -10.16797,2.935547 -5.08398,1.46875 0.73437,2.541015 5.08399,-1.46875 z m -10.16797,2.935547 -5.08398,1.46875 0.73437,2.542968 5.08399,-1.46875 z m -10.16797,2.9375 -5.08398,1.466799 0.73437,2.54297 5.08399,-1.46875 z m -10.16796,2.935549 -5.08399,1.46875 0.73438,2.54101 5.08398,-1.46679 z m -10.16797,2.9375 -5.08399,1.46679 0.73438,2.54297 5.08398,-1.46875 z m -10.16797,2.93554 -5.08399,1.46875 0.73438,2.54102 5.08398,-1.46875 z m -10.16797,2.93555 -5.08399,1.46875 0.73438,2.54102 5.08398,-1.4668 z m -10.16797,2.9375 -5.08203,1.4668 0.73242,2.54297 5.08399,-1.46875 z m -10.16602,2.93555 -5.08398,1.46875 0.73242,2.54101 5.08399,-1.46679 z m -10.16796,2.93555 -5.08399,1.46875 0.73438,2.54296 5.08203,-1.46875 z m -10.16797,2.9375 -5.08399,1.46875 0.73438,2.54101 5.08398,-1.46875 z m -10.16797,2.93554 -5.08399,1.46875 0.73438,2.54102 5.08398,-1.4668 z"
       id="path45417" />
    <g
       aria-label="RES"
       id="text10825"
       style="font-weight:bold;font-size:21.1667px;line-height:1.25;font-family:Arial;-inkscape-font-specification:'Arial, Bold';font-variant-ligatures:none;text-align:center;text-anchor:middle;fill:#ede7dc;fill-opacity:1;stroke-width:2.64583">
      <path
         d="m 49.644227,199.68703 v -15.15156 h 6.438894 q 2.428796,0 3.524338,0.41342 1.105877,0.40307 1.767337,1.44694 0.661459,1.04386 0.661459,2.38745 0,1.70533 -1.002524,2.82154 -1.002525,1.10588 -2.997238,1.39527 0.992189,0.57877 1.632978,1.27124 0.651124,0.69246 1.746666,2.4598 l 1.850019,2.9559 h -3.658697 l -2.211755,-3.29696 q -1.178224,-1.76734 -1.612307,-2.22209 -0.434083,-0.46509 -0.919842,-0.63046 -0.485759,-0.1757 -1.53996,-0.1757 h -0.620118 v 6.32521 z m 3.05925,-8.74367 h 2.263431 q 2.201419,0 2.749191,-0.18603 0.547771,-0.18604 0.85783,-0.64079 0.310059,-0.45476 0.310059,-1.13689 0,-0.76481 -0.413412,-1.2299 -0.403077,-0.47542 -1.147219,-0.59945 -0.372071,-0.0517 -2.232425,-0.0517 h -2.387455 z"
         id="path45916"
         style="fill:#ede7dc;fill-opacity:1" />
      <path
         d="m 64.919805,199.68703 v -15.15156 h 11.234474 v 2.56316 h -8.175224 v 3.35897 h 7.606783 v 2.55282 h -7.606783 v 4.12379 h 8.464613 v 2.55282 z"
         id="path45918"
         style="fill:#ede7dc;fill-opacity:1" />
      <path
         d="m 78.262682,194.75709 2.976567,-0.28939 q 0.268718,1.49862 1.085207,2.20142 0.826825,0.7028 2.22209,0.7028 1.477949,0 2.222091,-0.62012 0.754477,-0.63045 0.754477,-1.46761 0,-0.53744 -0.320395,-0.90951 -0.310059,-0.3824 -1.095542,-0.66146 -0.537436,-0.18603 -2.449467,-0.66146 -2.459802,-0.60978 -3.451991,-1.49862 -1.395266,-1.25057 -1.395266,-3.04891 0,-1.15755 0.651124,-2.16008 0.66146,-1.01286 1.891361,-1.53996 1.240236,-0.5271 2.986902,-0.5271 2.852544,0 4.289151,1.25057 1.446942,1.25057 1.51929,3.3383 l -3.05925,0.13436 q -0.196371,-1.16789 -0.847495,-1.67432 -0.640789,-0.51676 -1.932702,-0.51676 -1.333254,0 -2.087731,0.54777 -0.485759,0.3514 -0.485759,0.94051 0,0.53744 0.454753,0.91985 0.578777,0.48575 2.811203,1.01285 2.232425,0.52711 3.296961,1.09555 1.074872,0.5581 1.674319,1.53996 0.609783,0.97152 0.609783,2.40812 0,1.30225 -0.723471,2.43913 -0.723471,1.13689 -2.04639,1.69499 -1.322919,0.54777 -3.296962,0.54777 -2.873214,0 -4.413174,-1.32291 -1.53996,-1.33326 -1.839684,-3.87574 z"
         id="path45920"
         style="fill:#ede7dc;fill-opacity:1" />
    </g>
    <path
       style="color:#000000;fill:#ede7dc;fill-opacity:1;stroke-dasharray:5.29166, 5.29166;-inkscape-stroke:none"
       d="m 106.91406,127.10352 -1.09765,2.4082 4.81445,2.19531 1.09766,-2.40625 z m 9.62891,4.39257 -1.09766,2.40625 4.81446,2.19727 1.09765,-2.4082 z m 9.62891,4.39063 -1.09766,2.4082 4.81445,2.19531 1.09766,-2.40625 z m 9.6289,4.39258 -1.09766,2.40625 4.81446,2.19726 1.09765,-2.4082 z m 9.62891,4.39062 -1.09766,2.4082 4.81445,2.19532 1.09766,-2.40625 z m 9.6289,4.39258 -1.09765,2.40625 4.81445,2.19727 1.09766,-2.40821 z m 9.63086,4.39062 -1.09961,2.40821 4.81641,2.19531 1.09766,-2.40625 z m 9.62891,4.39258 -1.09766,2.40625 4.81446,2.19727 1.09765,-2.4082 z"
       id="path45536" />
    <path
       style="color:#000000;display:inline;fill:#ede7dc;fill-opacity:1;stroke-dasharray:5.29166, 5.29166;-inkscape-stroke:none"
       d="m 92.273641,420.68832 v 2.64453 h 5.291017 v -2.64453 z m 10.583979,0 v 2.64453 h 5.29101 v -2.64453 z m 10.58203,0 v 2.64453 h 5.29297 v -2.64453 z m 10.58398,0 v 2.64453 h 5.29102 v -2.64453 z m 10.58399,0 v 2.64453 h 5.29101 v -2.64453 z m 10.58203,0 v 2.64453 h 5.29297 v -2.64453 z m 10.58398,0 v 2.64453 h 5.29102 v -2.64453 z m 10.58399,0 v 2.64453 h 5.29101 v -2.64453 z m 10.58203,0 v 2.64453 h 2.64648 v -2.64453 z"
       id="path30312-7-8" />
    <path
       style="color:#000000;display:inline;fill:#ede7dc;fill-opacity:1;stroke-width:0.999999;-inkscape-stroke:none"
       d="m 178.59375,420.68529 v 2.64844 l 84.66666,0.002 v -2.65039 z"
       id="path1270-8-2-5-8-1-4-4-9" />
    <g
       aria-label="MULTIMODE FILTER"
       id="text37741"
       style="font-weight:bold;font-size:28.2222px;line-height:1.25;font-family:Arial;-inkscape-font-specification:'Arial, Bold';font-variant-ligatures:none;text-align:center;text-anchor:middle;fill:#ede7dc;fill-opacity:1;stroke-width:2.64583"
       transform="translate(354.14457,3.522186)">
      <path
         d="M -311.12211,35.618626 V 15.416601 h 6.1047 l 3.66558,13.780372 3.62424,-13.780372 h 6.11848 v 20.202025 h -3.7896 V 19.716077 l -4.01009,15.902549 h -3.9274 l -3.99631,-15.902549 v 15.902549 z"
         id="path42075"
         style="fill:#ede7dc;fill-opacity:1" />
      <path
         d="m -287.58524,15.416601 h 4.07899 v 10.941615 q 0,2.60449 0.15158,3.376191 0.26183,1.240234 1.24024,1.998154 0.99218,0.74414 2.70095,0.74414 1.73633,0 2.61827,-0.702799 0.88195,-0.716579 1.06109,-1.750107 0.17914,-1.033528 0.17914,-3.431313 V 15.416601 h 4.07899 v 10.610886 q 0,3.638018 -0.33072,5.140079 -0.33073,1.50206 -1.22646,2.535588 -0.88194,1.033528 -2.37022,1.653645 -1.48828,0.606336 -3.88607,0.606336 -2.89387,0 -4.39593,-0.661458 -1.48828,-0.675238 -2.35645,-1.736327 -0.86816,-1.074869 -1.14377,-2.2462 -0.39963,-1.736327 -0.39963,-5.126298 z"
         id="path42077"
         style="fill:#ede7dc;fill-opacity:1" />
      <path
         d="m -267.06627,35.618626 v -20.03666 h 4.07899 v 16.632908 h 10.14235 v 3.403752 z"
         id="path42079"
         style="fill:#ede7dc;fill-opacity:1" />
      <path
         d="M -247.48436,35.618626 V 18.834133 h -5.99446 v -3.417532 h 16.05413 v 3.417532 h -5.98068 v 16.784493 z"
         id="path42081"
         style="fill:#ede7dc;fill-opacity:1" />
      <path
         d="M -234.91666,35.618626 V 15.416601 h 4.07899 v 20.202025 z"
         id="path42083"
         style="fill:#ede7dc;fill-opacity:1" />
      <path
         d="M -227.00673,35.618626 V 15.416601 h 6.10471 l 3.66558,13.780372 3.62423,-13.780372 h 6.11849 v 20.202025 h -3.7896 V 19.716077 l -4.01009,15.902549 h -3.92741 l -3.9963,-15.902549 v 15.902549 z"
         id="path42085"
         style="fill:#ede7dc;fill-opacity:1" />
      <path
         d="m -204.26912,25.641637 q 0,-3.086803 0.92329,-5.18142 0.68901,-1.543401 1.87413,-2.769854 1.19889,-1.226453 2.61827,-1.819009 1.88791,-0.799262 4.35459,-0.799262 4.46484,0 7.13824,2.769855 2.68717,2.769854 2.68717,7.703227 0,4.892032 -2.65961,7.661887 -2.65961,2.756074 -7.11067,2.756074 -4.50619,0 -7.1658,-2.742294 -2.65961,-2.756074 -2.65961,-7.579204 z m 4.20301,-0.137804 q 0,3.431313 1.58475,5.20898 1.58474,1.763888 4.02386,1.763888 2.43913,0 3.99631,-1.750107 1.57096,-1.763888 1.57096,-5.277882 0,-3.472654 -1.52962,-5.18142 -1.51584,-1.708766 -4.03765,-1.708766 -2.5218,0 -4.0652,1.736327 -1.54341,1.722546 -1.54341,5.20898 z"
         id="path42087"
         style="fill:#ede7dc;fill-opacity:1" />
      <path
         d="m -181.50394,15.416601 h 7.45518 q 2.5218,0 3.84472,0.385851 1.77767,0.523654 3.04546,1.86035 1.2678,1.336696 1.92925,3.279728 0.66146,1.929252 0.66146,4.768009 0,2.494247 -0.62011,4.299476 -0.75793,2.204859 -2.16352,3.569116 -1.06109,1.033528 -2.86632,1.612303 -1.35048,0.427192 -3.61046,0.427192 h -7.67566 z m 4.07899,3.417532 v 13.380741 h 3.04546 q 1.70876,0 2.46668,-0.192925 0.99219,-0.248047 1.63987,-0.840603 0.66146,-0.592556 1.07487,-1.943032 0.41341,-1.364257 0.41341,-3.70692 0,-2.342663 -0.41341,-3.596677 -0.41341,-1.254014 -1.15755,-1.956813 -0.74414,-0.702799 -1.88792,-0.950845 -0.85438,-0.192926 -3.34863,-0.192926 z"
         id="path42089"
         style="fill:#ede7dc;fill-opacity:1" />
      <path
         d="M -161.109,35.618626 V 15.416601 h 14.97926 v 3.417532 h -10.90027 v 4.478621 h 10.14235 v 3.403752 h -10.14235 v 5.498368 h 11.28612 v 3.403752 z"
         id="path42091"
         style="fill:#ede7dc;fill-opacity:1" />
      <path
         d="M -134.41642,35.618626 V 15.416601 h 13.84928 v 3.417532 h -9.77029 v 4.781789 h 8.43359 v 3.417532 h -8.43359 v 8.585172 z"
         id="path42093"
         style="fill:#ede7dc;fill-opacity:1" />
      <path
         d="M -117.32876,35.618626 V 15.416601 h 4.07899 v 20.202025 z"
         id="path42095"
         style="fill:#ede7dc;fill-opacity:1" />
      <path
         d="m -109.25346,35.618626 v -20.03666 h 4.07899 v 16.632908 h 10.142357 v 3.403752 z"
         id="path42097"
         style="fill:#ede7dc;fill-opacity:1" />
      <path
         d="M -89.671554,35.618626 V 18.834133 h -5.994462 v -3.417532 h 16.054133 v 3.417532 h -5.980681 v 16.784493 z"
         id="path42099"
         style="fill:#ede7dc;fill-opacity:1" />
      <path
         d="M -76.979834,35.618626 V 15.416601 h 14.979264 v 3.417532 h -10.900274 v 4.478621 h 10.142353 v 3.403752 h -10.142353 v 5.498368 h 11.286124 v 3.403752 z"
         id="path42101"
         style="fill:#ede7dc;fill-opacity:1" />
      <path
         d="M -58.142064,35.618626 V 15.416601 h 8.585172 q 3.238387,0 4.699106,0.551215 1.4745,0.537435 2.356444,1.929252 0.881943,1.391818 0.881943,3.183266 0,2.273761 -1.336696,3.762041 -1.336696,1.4745 -3.996307,1.86035 1.322915,0.771701 2.177298,1.694986 0.868164,0.923285 2.328883,3.279728 l 2.466687,3.941187 h -4.878252 l -2.948999,-4.395939 q -1.570963,-2.356443 -2.149738,-2.96278 -0.578776,-0.620116 -1.226453,-0.840602 -0.647678,-0.234267 -2.053276,-0.234267 h -0.826822 v 8.433588 z m 4.07899,-11.658194 h 3.017901 q 2.93522,0 3.665579,-0.248047 0.73036,-0.248047 1.143771,-0.854383 0.413411,-0.606337 0.413411,-1.515841 0,-1.019747 -0.551215,-1.639864 -0.537434,-0.633897 -1.529621,-0.799262 -0.496093,-0.0689 -2.97656,-0.0689 h -3.183266 z"
         id="path42103"
         style="fill:#ede7dc;fill-opacity:1" />
    </g>
  </g>
  <g
     inkscape:groupmode="layer"
     id="layer1"
     inkscape:label="Inverse Solid"
     style="display:inline">
    <g
       aria-label="NOTCH"
       id="text24781-0-0"
       style="font-weight:bold;font-size:21.1667px;line-height:1.25;font-family:Arial;-inkscape-font-specification:'Arial, Bold';font-variant-ligatures:none;text-align:center;text-anchor:middle;display:inline;fill:#252525;stroke-width:2.64583;fill-opacity:1"
       transform="translate(-39.687527,10.583334)">
      <path
         d="m 269.56535,859.62482 v -15.15156 h 2.97657 l 6.20118,10.11826 v -10.11826 h 2.84221 v 15.15156 h -3.06959 l -6.10816,-9.88055 v 9.88055 z"
         id="path32073"
         style="fill:#252525;fill-opacity:1" />
      <path
         d="m 284.20014,852.14206 q 0,-2.31511 0.69247,-3.88608 0.51676,-1.15755 1.4056,-2.07739 0.89917,-0.91984 1.96371,-1.36426 1.41593,-0.59945 3.26595,-0.59945 3.34864,0 5.35369,2.0774 2.01538,2.07739 2.01538,5.77743 0,3.66903 -1.99471,5.74643 -1.99471,2.06706 -5.33302,2.06706 -3.37964,0 -5.37436,-2.05673 -1.99471,-2.06706 -1.99471,-5.68441 z m 3.15227,-0.10336 q 0,2.57349 1.18856,3.90675 1.18856,1.32292 3.01791,1.32292 1.82935,0 2.99723,-1.31259 1.17823,-1.32291 1.17823,-3.95842 0,-2.60449 -1.14722,-3.88607 -1.13688,-1.28158 -3.02824,-1.28158 -1.89136,0 -3.04892,1.30225 -1.15755,1.29191 -1.15755,3.90674 z"
         id="path32075"
         style="fill:#252525;fill-opacity:1" />
      <path
         d="m 304.69505,859.62482 v -12.5884 h -4.49586 v -2.56316 h 12.04063 v 2.56316 h -4.48552 v 12.5884 z"
         id="path32077"
         style="fill:#252525;fill-opacity:1" />
      <path
         d="m 323.90838,854.05409 2.96623,0.94051 q -0.68213,2.48047 -2.27377,3.6897 -1.5813,1.1989 -4.02043,1.1989 -3.01791,0 -4.96095,-2.05673 -1.94303,-2.06706 -1.94303,-5.64307 0,-3.78272 1.95337,-5.87045 1.95337,-2.09807 5.13664,-2.09807 2.7802,0 4.51653,1.64331 1.03353,0.97152 1.5503,2.79054 l -3.02825,0.72347 q -0.26871,-1.17823 -1.12655,-1.86036 -0.84749,-0.68213 -2.06706,-0.68213 -1.68465,0 -2.73885,1.20923 -1.04387,1.20923 -1.04387,3.91708 0,2.87322 1.03353,4.09278 1.03353,1.21957 2.68718,1.21957 1.21957,0 2.09807,-0.77515 0.8785,-0.77515 1.26091,-2.43913 z"
         id="path32079"
         style="fill:#252525;fill-opacity:1" />
      <path
         d="m 329.51011,859.62482 v -15.15156 h 3.05925 v 5.96347 h 5.99448 v -5.96347 h 3.05925 v 15.15156 h -3.05925 v -6.62493 h -5.99448 v 6.62493 z"
         id="path32081"
         style="fill:#252525;fill-opacity:1" />
    </g>
    <g
       aria-label="BAND PASS"
       id="text55892"
       style="font-weight:bold;font-size:21.1667px;line-height:1.25;font-family:Arial;-inkscape-font-specification:'Arial, Bold';font-variant-ligatures:none;text-align:center;text-anchor:middle;display:inline;fill:#252525;stroke-width:2.64583;fill-opacity:1"
       transform="translate(0,10.583334)">
      <path
         d="m 31.026424,844.46807 h 6.056488 q 1.798342,0 2.676843,0.15503 0.888836,0.1447 1.581302,0.62012 0.7028,0.47543 1.167889,1.27124 0.465088,0.78549 0.465088,1.76734 0,1.06454 -0.578777,1.95337 -0.568441,0.88884 -1.550295,1.33326 1.384931,0.40307 2.129072,1.37459 0.744142,0.97152 0.744142,2.28411 0,1.03353 -0.485759,2.01538 -0.475424,0.97152 -1.312583,1.56063 -0.826825,0.57878 -2.04639,0.71314 -0.764813,0.0827 -3.689704,0.10335 h -5.157316 z m 3.05925,2.52182 v 3.50367 h 2.005049 q 1.788007,0 2.22209,-0.0517 0.785483,-0.093 1.229901,-0.53744 0.454753,-0.45475 0.454753,-1.18856 0,-0.7028 -0.392741,-1.13688 -0.382407,-0.44442 -1.147219,-0.53743 -0.454753,-0.0517 -2.614832,-0.0517 z m 0,6.02548 v 4.05144 h 2.831873 q 1.653648,0 2.098066,-0.093 0.68213,-0.12402 1.105878,-0.59945 0.434083,-0.48576 0.434083,-1.29191 0,-0.68213 -0.33073,-1.15755 -0.33073,-0.47543 -0.961183,-0.69247 -0.620118,-0.21704 -2.70785,-0.21704 z"
         id="path61095"
         style="fill:#252525;fill-opacity:1" />
      <path
         d="m 59.965273,859.61963 h -3.327968 l -1.322918,-3.44166 h -6.056488 l -1.250572,3.44166 H 44.762042 L 50.6635,844.46807 h 3.23495 z m -5.63274,-5.99448 -2.087731,-5.6224 -2.04639,5.6224 z"
         id="path61097"
         style="fill:#252525;fill-opacity:1" />
      <path
         d="m 61.618922,859.61963 v -15.15156 h 2.976567 l 6.201182,10.11827 v -10.11827 h 2.842208 v 15.15156 h -3.069585 l -6.108164,-9.88055 v 9.88055 z"
         id="path61099"
         style="fill:#252525;fill-opacity:1" />
      <path
         d="m 76.863496,844.46807 h 5.591399 q 1.89136,0 2.883549,0.28939 1.333254,0.39274 2.284102,1.39527 0.950848,1.00252 1.446943,2.4598 0.496094,1.44694 0.496094,3.57602 0,1.87069 -0.465088,3.22461 -0.568442,1.65365 -1.622643,2.67684 -0.795818,0.77515 -2.149743,1.20923 -1.01286,0.3204 -2.707849,0.3204 h -5.756764 z m 3.05925,2.56316 v 10.03558 h 2.284102 q 1.281577,0 1.850019,-0.1447 0.744142,-0.18603 1.229901,-0.63045 0.496094,-0.44442 0.806153,-1.45728 0.31006,-1.02319 0.31006,-2.78019 0,-1.757 -0.31006,-2.69752 -0.310059,-0.94051 -0.868165,-1.46761 -0.558106,-0.5271 -1.415936,-0.71314 -0.640789,-0.14469 -2.511479,-0.14469 z"
         id="path61101"
         style="fill:#252525;fill-opacity:1" />
      <path
         d="m 98.040534,859.61963 v -15.15156 h 4.909266 q 2.79053,0 3.63803,0.22738 1.30225,0.34107 2.18075,1.48829 0.8785,1.13688 0.8785,2.94556 0,1.39526 -0.50643,2.34611 -0.50643,0.95085 -1.29191,1.49862 -0.77515,0.53743 -1.58131,0.71314 -1.09554,0.21704 -3.17293,0.21704 h -1.99472 v 5.71542 z m 3.059246,-12.5884 v 4.29949 h 1.67432 q 1.80868,0 2.41846,-0.23772 0.60979,-0.23771 0.95085,-0.74414 0.3514,-0.50643 0.3514,-1.17822 0,-0.82683 -0.48576,-1.36426 -0.48576,-0.53744 -1.2299,-0.6718 -0.54777,-0.10335 -2.20142,-0.10335 z"
         id="path61103"
         style="fill:#252525;fill-opacity:1" />
      <path
         d="m 124.25086,859.61963 h -3.32797 l -1.32291,-3.44166 h -6.05649 l -1.25057,3.44166 h -3.24529 l 5.90146,-15.15156 h 3.23495 z m -5.63274,-5.99448 -2.08773,-5.6224 -2.04639,5.6224 z"
         id="path61105"
         style="fill:#252525;fill-opacity:1" />
      <path
         d="m 125.09836,854.68969 2.97656,-0.28939 q 0.26872,1.49862 1.08521,2.20142 0.82682,0.7028 2.22209,0.7028 1.47795,0 2.22209,-0.62012 0.75448,-0.63045 0.75448,-1.46761 0,-0.53744 -0.3204,-0.90951 -0.31006,-0.3824 -1.09554,-0.66146 -0.53744,-0.18603 -2.44947,-0.66146 -2.4598,-0.60978 -3.45199,-1.49861 -1.39526,-1.25058 -1.39526,-3.04892 0,-1.15755 0.65112,-2.16008 0.66146,-1.01286 1.89136,-1.53996 1.24024,-0.5271 2.9869,-0.5271 2.85255,0 4.28915,1.25057 1.44695,1.25058 1.51929,3.33831 l -3.05925,0.13436 q -0.19637,-1.16789 -0.84749,-1.67432 -0.64079,-0.51677 -1.9327,-0.51677 -1.33326,0 -2.08773,0.54777 -0.48576,0.3514 -0.48576,0.94052 0,0.53743 0.45475,0.91984 0.57878,0.48576 2.8112,1.01286 2.23243,0.5271 3.29696,1.09554 1.07488,0.55811 1.67432,1.53996 0.60979,0.97152 0.60979,2.40812 0,1.30225 -0.72347,2.43914 -0.72348,1.13688 -2.04639,1.69499 -1.32292,0.54777 -3.29697,0.54777 -2.87321,0 -4.41317,-1.32292 -1.53996,-1.33326 -1.83968,-3.87574 z"
         id="path61107"
         style="fill:#252525;fill-opacity:1" />
      <path
         d="m 139.21637,854.68969 2.97657,-0.28939 q 0.26872,1.49862 1.08521,2.20142 0.82682,0.7028 2.22209,0.7028 1.47795,0 2.22209,-0.62012 0.75448,-0.63045 0.75448,-1.46761 0,-0.53744 -0.3204,-0.90951 -0.31006,-0.3824 -1.09554,-0.66146 -0.53744,-0.18603 -2.44947,-0.66146 -2.4598,-0.60978 -3.45199,-1.49861 -1.39526,-1.25058 -1.39526,-3.04892 0,-1.15755 0.65112,-2.16008 0.66146,-1.01286 1.89136,-1.53996 1.24024,-0.5271 2.9869,-0.5271 2.85255,0 4.28915,1.25057 1.44695,1.25058 1.51929,3.33831 l -3.05925,0.13436 q -0.19637,-1.16789 -0.84749,-1.67432 -0.64079,-0.51677 -1.9327,-0.51677 -1.33326,0 -2.08773,0.54777 -0.48576,0.3514 -0.48576,0.94052 0,0.53743 0.45475,0.91984 0.57878,0.48576 2.8112,1.01286 2.23243,0.5271 3.29696,1.09554 1.07488,0.55811 1.67432,1.53996 0.60979,0.97152 0.60979,2.40812 0,1.30225 -0.72348,2.43914 -0.72347,1.13688 -2.04639,1.69499 -1.32291,0.54777 -3.29696,0.54777 -2.87321,0 -4.41317,-1.32292 -1.53996,-1.33326 -1.83969,-3.87574 z"
         id="path61109"
         style="fill:#252525;fill-opacity:1" />
    </g>
    <g
       aria-label="HIGH PASS"
       id="text55892-9"
       style="font-weight:bold;font-size:21.1667px;line-height:1.25;font-family:Arial;-inkscape-font-specification:'Arial, Bold';font-variant-ligatures:none;text-align:center;text-anchor:middle;display:inline;fill:#252525;stroke-width:2.64583;fill-opacity:1"
       transform="translate(0,29.104162)">
      <path
         d="m 209.76533,740.5567 v -15.15155 h 3.05925 v 5.96347 h 5.99448 v -5.96347 h 3.05925 v 15.15155 h -3.05925 v -6.62493 h -5.99448 v 6.62493 z"
         id="path61078"
         style="fill:#252525;fill-opacity:1" />
      <path
         d="m 224.94789,740.5567 v -15.15155 h 3.05925 v 15.15155 z"
         id="path61080"
         style="fill:#252525;fill-opacity:1" />
      <path
         d="m 237.97037,734.98597 v -2.55282 h 6.59393 v 6.03582 q -0.96119,0.93018 -2.79053,1.64331 -1.81902,0.7028 -3.68971,0.7028 -2.37712,0 -4.14445,-0.99218 -1.76734,-1.00253 -2.65618,-2.85255 -0.88883,-1.86035 -0.88883,-4.0411 0,-2.36679 0.99219,-4.20647 0.99219,-1.83968 2.90422,-2.82154 1.45727,-0.75447 3.62769,-0.75447 2.82154,0 4.40284,1.18855 1.59163,1.17823 2.04639,3.26596 l -3.03858,0.56844 q -0.3204,-1.11621 -1.20923,-1.757 -0.8785,-0.65112 -2.20142,-0.65112 -2.00505,0 -3.19361,1.27124 -1.17823,1.27124 -1.17823,3.77238 0,2.69752 1.1989,4.05144 1.19889,1.34359 3.14193,1.34359 0.96118,0 1.92237,-0.37207 0.97152,-0.3824 1.66398,-0.91984 v -1.92237 z"
         id="path61082"
         style="fill:#252525;fill-opacity:1" />
      <path
         d="m 247.39617,740.5567 v -15.15155 h 3.05925 v 5.96347 h 5.99448 v -5.96347 h 3.05925 v 15.15155 h -3.05925 v -6.62493 h -5.99448 v 6.62493 z"
         id="path61084"
         style="fill:#252525;fill-opacity:1" />
      <path
         d="m 268.55254,740.5567 v -15.15155 h 4.90926 q 2.79054,0 3.63803,0.22737 1.30225,0.34107 2.18075,1.48829 0.8785,1.13688 0.8785,2.94556 0,1.39527 -0.50643,2.34611 -0.50643,0.95085 -1.29191,1.49862 -0.77515,0.53744 -1.5813,0.71314 -1.09554,0.21704 -3.17294,0.21704 h -1.99471 v 5.71542 z m 3.05925,-12.5884 v 4.29949 h 1.67431 q 1.80868,0 2.41847,-0.23771 0.60978,-0.23772 0.95084,-0.74415 0.3514,-0.50642 0.3514,-1.17822 0,-0.82682 -0.48576,-1.36426 -0.48575,-0.53744 -1.2299,-0.67179 -0.54777,-0.10336 -2.20142,-0.10336 z"
         id="path61086"
         style="fill:#252525;fill-opacity:1" />
      <path
         d="m 294.76286,740.5567 h -3.32796 l -1.32292,-3.44165 h -6.05649 l -1.25057,3.44165 h -3.24529 l 5.90146,-15.15155 h 3.23495 z m -5.63274,-5.99447 -2.08773,-5.62241 -2.04639,5.62241 z"
         id="path61088"
         style="fill:#252525;fill-opacity:1" />
      <path
         d="m 295.61036,735.62676 2.97657,-0.28939 q 0.26871,1.49862 1.0852,2.20142 0.82683,0.7028 2.22209,0.7028 1.47795,0 2.22209,-0.62011 0.75448,-0.63046 0.75448,-1.46762 0,-0.53743 -0.32039,-0.9095 -0.31006,-0.38241 -1.09555,-0.66146 -0.53743,-0.18604 -2.44946,-0.66146 -2.45981,-0.60979 -3.452,-1.49862 -1.39526,-1.25057 -1.39526,-3.04892 0,-1.15755 0.65112,-2.16007 0.66146,-1.01286 1.89136,-1.53996 1.24024,-0.5271 2.98691,-0.5271 2.85254,0 4.28915,1.25057 1.44694,1.25057 1.51929,3.3383 l -3.05925,0.13436 q -0.19637,-1.16789 -0.8475,-1.67432 -0.64079,-0.51677 -1.9327,-0.51677 -1.33325,0 -2.08773,0.54778 -0.48576,0.3514 -0.48576,0.94051 0,0.53743 0.45475,0.91984 0.57878,0.48576 2.81121,1.01286 2.23242,0.5271 3.29696,1.09554 1.07487,0.55811 1.67432,1.53996 0.60978,0.97152 0.60978,2.40813 0,1.30225 -0.72347,2.43913 -0.72347,1.13688 -2.04639,1.69499 -1.32292,0.54777 -3.29696,0.54777 -2.87322,0 -4.41318,-1.32292 -1.53996,-1.33325 -1.83968,-3.87574 z"
         id="path61090"
         style="fill:#252525;fill-opacity:1" />
      <path
         d="m 309.72838,735.62676 2.97657,-0.28939 q 0.26872,1.49862 1.08521,2.20142 0.82682,0.7028 2.22209,0.7028 1.47795,0 2.22209,-0.62011 0.75448,-0.63046 0.75448,-1.46762 0,-0.53743 -0.3204,-0.9095 -0.31006,-0.38241 -1.09554,-0.66146 -0.53744,-0.18604 -2.44947,-0.66146 -2.4598,-0.60979 -3.45199,-1.49862 -1.39526,-1.25057 -1.39526,-3.04892 0,-1.15755 0.65112,-2.16007 0.66146,-1.01286 1.89136,-1.53996 1.24024,-0.5271 2.9869,-0.5271 2.85255,0 4.28915,1.25057 1.44695,1.25057 1.51929,3.3383 l -3.05925,0.13436 q -0.19637,-1.16789 -0.84749,-1.67432 -0.64079,-0.51677 -1.9327,-0.51677 -1.33326,0 -2.08773,0.54778 -0.48576,0.3514 -0.48576,0.94051 0,0.53743 0.45475,0.91984 0.57878,0.48576 2.8112,1.01286 2.23243,0.5271 3.29696,1.09554 1.07488,0.55811 1.67432,1.53996 0.60979,0.97152 0.60979,2.40813 0,1.30225 -0.72348,2.43913 -0.72347,1.13688 -2.04639,1.69499 -1.32291,0.54777 -3.29696,0.54777 -2.87321,0 -4.41317,-1.32292 -1.53996,-1.33325 -1.83969,-3.87574 z"
         id="path61092"
         style="fill:#252525;fill-opacity:1" />
    </g>
    <g
       aria-label="LOW PASS"
       id="text55892-9-8"
       style="font-weight:bold;font-size:21.1667px;line-height:1.25;font-family:Arial;-inkscape-font-specification:'Arial, Bold';font-variant-ligatures:none;text-align:center;text-anchor:middle;display:inline;fill:#252525;stroke-width:2.64583;fill-opacity:1"
       transform="translate(0,29.104162)">
      <path
         d="m 36.948548,740.5567 v -15.02753 h 3.059249 v 12.47471 h 7.606783 v 2.55282 z"
         id="path61063"
         style="fill:#252525;fill-opacity:1" />
      <path
         d="m 49.175212,733.07394 q 0,-2.31511 0.692465,-3.88607 0.516765,-1.15756 1.405601,-2.0774 0.899171,-0.91984 1.963708,-1.36426 1.415936,-0.59944 3.265955,-0.59944 3.348638,0 5.353687,2.07739 2.015384,2.0774 2.015384,5.77744 0,3.66903 -1.994713,5.74642 -1.994714,2.06706 -5.333016,2.06706 -3.379645,0 -5.374358,-2.05672 -1.994713,-2.06706 -1.994713,-5.68442 z m 3.152267,-0.10335 q 0,2.57349 1.18856,3.90674 1.18856,1.32292 3.017908,1.32292 1.829349,0 2.997238,-1.31258 1.178225,-1.32292 1.178225,-3.95842 0,-2.6045 -1.147219,-3.88608 -1.136883,-1.28157 -3.028244,-1.28157 -1.89136,0 -3.048914,1.30224 -1.157554,1.29192 -1.157554,3.90675 z"
         id="path61065"
         style="fill:#252525;fill-opacity:1" />
      <path
         d="m 68.409211,740.5567 -3.617356,-15.15155 h 3.131597 l 2.284101,10.40765 2.769862,-10.40765 h 3.638026 l 2.656173,10.58335 2.325443,-10.58335 h 3.079921 L 80.99761,740.5567 h -3.245285 l -3.017909,-11.32749 -3.007573,11.32749 z"
         id="path61067"
         style="fill:#252525;fill-opacity:1" />
      <path
         d="m 92.118395,740.5567 v -15.15155 h 4.909268 q 2.790532,0 3.638027,0.22737 1.30225,0.34107 2.18075,1.48829 0.8785,1.13688 0.8785,2.94556 0,1.39527 -0.50643,2.34611 -0.50643,0.95085 -1.29191,1.49862 -0.77515,0.53744 -1.5813,0.71314 -1.095546,0.21704 -3.172942,0.21704 h -1.994714 v 5.71542 z m 3.059249,-12.5884 v 4.29949 h 1.674319 q 1.808678,0 2.418461,-0.23771 0.609783,-0.23772 0.950846,-0.74415 0.3514,-0.50642 0.3514,-1.17822 0,-0.82682 -0.48576,-1.36426 -0.485756,-0.53744 -1.229898,-0.67179 -0.547771,-0.10336 -2.201419,-0.10336 z"
         id="path61069"
         style="fill:#252525;fill-opacity:1" />
      <path
         d="m 118.32873,740.5567 h -3.32797 l -1.32292,-3.44165 h -6.05649 l -1.25057,3.44165 h -3.24528 l 5.90145,-15.15155 h 3.23495 z m -5.63274,-5.99447 -2.08773,-5.62241 -2.04639,5.62241 z"
         id="path61071"
         style="fill:#252525;fill-opacity:1" />
      <path
         d="m 119.17622,735.62676 2.97657,-0.28939 q 0.26872,1.49862 1.0852,2.20142 0.82683,0.7028 2.22209,0.7028 1.47795,0 2.22209,-0.62011 0.75448,-0.63046 0.75448,-1.46762 0,-0.53743 -0.32039,-0.9095 -0.31006,-0.38241 -1.09554,-0.66146 -0.53744,-0.18604 -2.44947,-0.66146 -2.4598,-0.60979 -3.45199,-1.49862 -1.39527,-1.25057 -1.39527,-3.04892 0,-1.15755 0.65113,-2.16007 0.66145,-1.01286 1.89136,-1.53996 1.24023,-0.5271 2.9869,-0.5271 2.85254,0 4.28915,1.25057 1.44694,1.25057 1.51929,3.3383 l -3.05925,0.13436 q -0.19637,-1.16789 -0.8475,-1.67432 -0.64078,-0.51677 -1.9327,-0.51677 -1.33325,0 -2.08773,0.54778 -0.48576,0.3514 -0.48576,0.94051 0,0.53743 0.45476,0.91984 0.57877,0.48576 2.8112,1.01286 2.23242,0.5271 3.29696,1.09554 1.07487,0.55811 1.67432,1.53996 0.60978,0.97152 0.60978,2.40813 0,1.30225 -0.72347,2.43913 -0.72347,1.13688 -2.04639,1.69499 -1.32292,0.54777 -3.29696,0.54777 -2.87322,0 -4.41318,-1.32292 -1.53996,-1.33325 -1.83968,-3.87574 z"
         id="path61073"
         style="fill:#252525;fill-opacity:1" />
      <path
         d="m 133.29424,735.62676 2.97657,-0.28939 q 0.26871,1.49862 1.0852,2.20142 0.82683,0.7028 2.22209,0.7028 1.47795,0 2.22209,-0.62011 0.75448,-0.63046 0.75448,-1.46762 0,-0.53743 -0.32039,-0.9095 -0.31006,-0.38241 -1.09555,-0.66146 -0.53743,-0.18604 -2.44946,-0.66146 -2.4598,-0.60979 -3.45199,-1.49862 -1.39527,-1.25057 -1.39527,-3.04892 0,-1.15755 0.65112,-2.16007 0.66146,-1.01286 1.89136,-1.53996 1.24024,-0.5271 2.98691,-0.5271 2.85254,0 4.28915,1.25057 1.44694,1.25057 1.51929,3.3383 l -3.05925,0.13436 q -0.19637,-1.16789 -0.8475,-1.67432 -0.64079,-0.51677 -1.9327,-0.51677 -1.33325,0 -2.08773,0.54778 -0.48576,0.3514 -0.48576,0.94051 0,0.53743 0.45475,0.91984 0.57878,0.48576 2.81121,1.01286 2.23242,0.5271 3.29696,1.09554 1.07487,0.55811 1.67432,1.53996 0.60978,0.97152 0.60978,2.40813 0,1.30225 -0.72347,2.43913 -0.72347,1.13688 -2.04639,1.69499 -1.32292,0.54777 -3.29696,0.54777 -2.87322,0 -4.41318,-1.32292 -1.53996,-1.33325 -1.83968,-3.87574 z"
         id="path61075"
         style="fill:#252525;fill-opacity:1" />
    </g>
    <g
       aria-label="MORPH"
       id="text10825-0-4"
       style="font-weight:bold;font-size:21.1667px;line-height:1.25;font-family:Arial;-inkscape-font-specification:'Arial, Bold';font-variant-ligatures:none;text-align:center;text-anchor:middle;display:inline;fill:#252525;stroke-width:2.64583;fill-opacity:1">
      <path
         d="m 228.07387,669.12421 v -15.15156 h 4.57854 l 2.74919,10.33531 2.71819,-10.33531 h 4.58887 v 15.15156 h -2.84221 v -11.92694 l -3.00757,11.92694 h -2.94556 l -2.99724,-11.92694 v 11.92694 z"
         id="path45987"
         style="fill:#252525;fill-opacity:1" />
      <path
         d="m 245.12712,661.64145 q 0,-2.31511 0.69247,-3.88608 0.51676,-1.15755 1.4056,-2.07739 0.89917,-0.91984 1.96371,-1.36426 1.41593,-0.59945 3.26595,-0.59945 3.34864,0 5.35369,2.0774 2.01538,2.07739 2.01538,5.77743 0,3.66903 -1.99471,5.74643 -1.99471,2.06706 -5.33302,2.06706 -3.37964,0 -5.37435,-2.05673 -1.99472,-2.06706 -1.99472,-5.68441 z m 3.15227,-0.10336 q 0,2.57349 1.18856,3.90675 1.18856,1.32292 3.01791,1.32292 1.82935,0 2.99724,-1.31259 1.17822,-1.32291 1.17822,-3.95842 0,-2.60449 -1.14722,-3.88607 -1.13688,-1.28158 -3.02824,-1.28158 -1.89136,0 -3.04892,1.30225 -1.15755,1.29191 -1.15755,3.90674 z"
         id="path45989"
         style="fill:#252525;fill-opacity:1" />
      <path
         d="m 262.22171,669.12421 v -15.15156 h 6.4389 q 2.42879,0 3.52434,0.41341 1.10587,0.40308 1.76733,1.44695 0.66146,1.04386 0.66146,2.38745 0,1.70533 -1.00252,2.82154 -1.00253,1.10588 -2.99724,1.39527 0.99219,0.57877 1.63298,1.27124 0.65112,0.69246 1.74666,2.4598 l 1.85002,2.9559 h -3.65869 l -2.21176,-3.29697 q -1.17822,-1.76733 -1.61231,-2.22209 -0.43408,-0.46508 -0.91984,-0.63045 -0.48576,-0.1757 -1.53996,-0.1757 h -0.62012 v 6.32521 z m 3.05925,-8.74367 h 2.26344 q 2.20142,0 2.74919,-0.18604 0.54777,-0.18603 0.85783,-0.64078 0.31006,-0.45476 0.31006,-1.13689 0,-0.76481 -0.41342,-1.2299 -0.40307,-0.47542 -1.14722,-0.59945 -0.37207,-0.0517 -2.23242,-0.0517 h -2.38746 z"
         id="path45991"
         style="fill:#252525;fill-opacity:1" />
      <path
         d="m 277.49729,669.12421 v -15.15156 h 4.90927 q 2.79054,0 3.63803,0.22738 1.30225,0.34106 2.18075,1.48828 0.8785,1.13689 0.8785,2.94556 0,1.39527 -0.50643,2.34612 -0.50643,0.95085 -1.29191,1.49862 -0.77515,0.53743 -1.5813,0.71313 -1.09555,0.21704 -3.17294,0.21704 h -1.99472 v 5.71543 z m 3.05925,-12.5884 v 4.29948 h 1.67432 q 1.80868,0 2.41846,-0.23771 0.60979,-0.23771 0.95085,-0.74414 0.3514,-0.50643 0.3514,-1.17822 0,-0.82683 -0.48576,-1.36426 -0.48576,-0.53744 -1.2299,-0.6718 -0.54777,-0.10335 -2.20142,-0.10335 z"
         id="path45993"
         style="fill:#252525;fill-opacity:1" />
      <path
         d="m 291.62565,669.12421 v -15.15156 h 3.05925 v 5.96347 h 5.99448 v -5.96347 h 3.05925 v 15.15156 h -3.05925 v -6.62493 h -5.99448 v 6.62493 z"
         id="path45995"
         style="fill:#252525;fill-opacity:1" />
    </g>
    <path
       d="m 261.61522,706.90848 7.59796,-4.38679 a 0.98390607,0.98390607 0 0 1 1.47585,0.85196 v 8.77358 a 0.98390607,0.98390607 0 0 1 -1.47585,0.85196 l -7.59796,-4.38679 a 0.98387961,0.98387961 0 0 1 0,-1.70392 z"
       fill="#1f1f1f"
       id="path26-8-4"
       style="display:inline;fill:#252525;fill-opacity:1;stroke-width:2.64583" />
    <path
       d="m 261.61522,807.45023 7.59796,-4.38679 a 0.98390607,0.98390607 0 0 1 1.47585,0.85196 v 8.77358 a 0.98390607,0.98390607 0 0 1 -1.47585,0.85196 l -7.59796,-4.38679 a 0.98387961,0.98387961 0 0 1 0,-1.70392 z"
       fill="#1f1f1f"
       id="path26-8-4-0"
       style="display:inline;fill:#252525;fill-opacity:1;stroke-width:2.64583" />
    <path
       d="m 86.990211,807.45023 7.59796,-4.38679 a 0.98390607,0.98390607 0 0 1 1.47585,0.85196 v 8.77358 a 0.98390607,0.98390607 0 0 1 -1.47585,0.85196 l -7.59796,-4.38679 a 0.98387961,0.98387961 0 0 1 0,-1.70392 z"
       fill="#1f1f1f"
       id="path26-8-4-2"
       style="display:inline;fill:#252525;fill-opacity:1;stroke-width:2.64583" />
    <path
       d="m 86.990211,907.99228 7.59796,-4.38679 a 0.98390607,0.98390607 0 0 1 1.47585,0.85196 v 8.77358 a 0.98390607,0.98390607 0 0 1 -1.47585,0.85196 l -7.59796,-4.38679 a 0.98387961,0.98387961 0 0 1 0,-1.70392 z"
       fill="#1f1f1f"
       id="path26-8-4-3"
       style="display:inline;fill:#252525;fill-opacity:1;stroke-width:2.64583" />
    <path
       d="m 261.61522,907.99228 7.59796,-4.38679 a 0.98390607,0.98390607 0 0 1 1.47585,0.85196 v 8.77358 a 0.98390607,0.98390607 0 0 1 -1.47585,0.85196 l -7.59796,-4.38679 a 0.98387961,0.98387961 0 0 1 0,-1.70392 z"
       fill="#1f1f1f"
       id="path26-8-4-1"
       style="display:inline;fill:#252525;fill-opacity:1;stroke-width:2.64583" />
  </g>
  <g
     inkscape:groupmode="layer"
     id="layer7"
     inkscape:label="Alternate Solid"
     style="display:inline" />
  <g
     inkscape:groupmode="layer"
     id="layer2"
     inkscape:label="Widget"
     style="display:none">
    <circle
       style="display:inline;fill:#ff0000;stroke:#ff0000;stroke-width:5.15744;stroke-opacity:1"
       id="path1065-7-2-8-1-2-9-9"
       cx="305.59421"
       cy="908.84424"
       r="27.848814" />
    <circle
       style="display:inline;fill:#ff0000;stroke:#ff0000;stroke-width:5.15744;stroke-opacity:1"
       id="path1065-7-2-8-1-11-6-8-9"
       cx="226.21921"
       cy="908.84424"
       r="27.848814" />
    <circle
       style="display:inline;fill:#ff0000;stroke:#ff0000;stroke-width:5.15744;stroke-opacity:1"
       id="path1065-7-2-8-1-110-3-0-0"
       cx="130.96829"
       cy="908.84424"
       r="27.848814" />
    <circle
       style="display:inline;fill:#ff0000;stroke:#ff0000;stroke-width:5.15744;stroke-opacity:1"
       id="path1065-7-2-8-1-110-3-0-0-6"
       cx="51.5942"
       cy="908.84424"
       r="27.848814" />
    <circle
       style="display:inline;fill:#ff0000;stroke:#ff0000;stroke-width:5.15744;stroke-opacity:1"
       id="path1065-7-2-8-1-2-9-9-1"
       cx="305.59421"
       cy="808.30219"
       r="27.848814" />
    <circle
       style="display:inline;fill:#ff0000;stroke:#ff0000;stroke-width:5.15744;stroke-opacity:1"
       id="path1065-7-2-8-1-11-6-8-9-7"
       cx="226.21921"
       cy="808.30219"
       r="27.848814" />
    <circle
       style="display:inline;fill:#ff0000;stroke:#ff0000;stroke-width:5.15744;stroke-opacity:1"
       id="path1065-7-2-8-1-2-9-9-1-2"
       cx="305.59375"
       cy="707.76044"
       r="27.848814" />
    <circle
       style="display:inline;fill:#ff0000;stroke:#ff0000;stroke-width:5.15744;stroke-opacity:1"
       id="path1065-7-2-8-1-11-6-8-9-7-3"
       cx="226.21877"
       cy="707.76044"
       r="27.848814" />
    <circle
       style="display:inline;fill:#ff0000;stroke:#ff0000;stroke-width:5.15744;stroke-opacity:1"
       id="path1065-7-2-8-1-110-3-0-0-2"
       cx="130.96829"
       cy="808.30219"
       r="27.848814" />
    <circle
       style="display:inline;fill:#ff0000;stroke:#ff0000;stroke-width:5.15744;stroke-opacity:1"
       id="path1065-7-2-8-1-110-3-0-0-6-2"
       cx="51.5942"
       cy="808.30219"
       r="27.848814" />
    <circle
       style="display:inline;fill:#ff0000;stroke:#ff0000;stroke-width:5.15744;stroke-opacity:1"
       id="path1065-7-2-8-1-13-1-9-1"
       cx="287.07211"
       cy="236.8033"
       r="27.848814" />
    <circle
       style="display:inline;fill:#ff0000;stroke:#ff0000;stroke-width:5.15744;stroke-opacity:1"
       id="path1065-7-2-8-1-13-9-9-0-8"
       cx="287.07211"
       cy="160.07332"
       r="27.848814" />
    <circle
       style="display:inline;fill:#ff0000;stroke:#ff0000;stroke-width:5.15744;stroke-opacity:1"
       id="path1065-7-2-8-1-13-9-9-0-8-1"
       cx="234.15549"
       cy="91.282394"
       r="27.848814" />
    <circle
       style="display:inline;fill:#ff0000;stroke:#ff0000;stroke-width:5.15744;stroke-opacity:1"
       id="path1065-7-2-8-1-13-6-9-7-5"
       cx="287.07211"
       cy="329.40457"
       r="27.848814" />
    <circle
       style="display:inline;fill:#ff0000;stroke:#ff0000;stroke-width:5.15744;stroke-opacity:1"
       id="path1065-7-2-8-1-13-6-9-7-5-4"
       cx="70.113297"
       cy="130.96951"
       r="34.462948" />
    <circle
       style="display:inline;fill:#ff0000;stroke:#ff0000;stroke-width:5.15744;stroke-opacity:1"
       id="path1065-7-2-8-1-13-6-9-7-5-8"
       cx="70.113297"
       cy="236.8033"
       r="26.525448" />
    <circle
       style="display:inline;fill:#ff0000;stroke:#ff0000;stroke-width:5.15744;stroke-opacity:1"
       id="path1065-7-2-8-1-13-6-9-7-5-8-8"
       cx="70.113297"
       cy="329.40457"
       r="26.525448" />
    <circle
       style="display:inline;fill:#ff0000;stroke:#ff0000;stroke-width:5.15744;stroke-opacity:1"
       id="path1065-7-2-8-1-0-1-2-0"
       cx="178.59375"
       cy="329.40457"
       r="19.910864" />
    <circle
       style="display:inline;fill:#ff0000;stroke:#ff0000;stroke-width:5.15744;stroke-opacity:1"
       id="path1065-7-2-8-1-0-1-2-0-9"
       cx="178.59375"
       cy="236.8033"
       r="19.910864" />
    <circle
       style="display:inline;fill:#ff0000;stroke:#ff0000;stroke-width:5.15744;stroke-opacity:1"
       id="path1065-7-2-8-1-0-1-2-0-6"
       cx="178.59375"
       cy="160.07332"
       r="19.910864" />
    <circle
       style="display:inline;fill:#ff0000;stroke:#ff0000;stroke-width:5.15744;stroke-opacity:1"
       id="path1065-7-2-8-1-110-3-0-0-6-6"
       cx="51.5942"
       cy="707.76044"
       r="27.848814" />
    <circle
       style="display:inline;fill:#ff0000;stroke:#ff0000;stroke-width:5.15744;stroke-opacity:1"
       id="path1065-7-2-8-1-110-3-0-0-6-6-6"
       cx="130.96829"
       cy="707.76044"
       r="27.848814" />
    <circle
       style="display:inline;fill:#ff0000;stroke:#ff0000;stroke-width:5.15744;stroke-opacity:1"
       id="path1065-7-2-8-1-13-6-9-7-5-9"
       cx="287.07211"
       cy="422.01001"
       r="27.848814" />
    <circle
       style="display:inline;fill:#ff0000;stroke:#ff0000;stroke-width:5.15744;stroke-opacity:1"
       id="path1065-7-2-8-1-13-6-9-7-5-8-8-6"
       cx="70.113297"
       cy="422.01001"
       r="26.525448" />
    <circle
       style="display:inline;fill:#ff0000;stroke:#ff0000;stroke-width:5.15744;stroke-opacity:1"
       id="path1065-7-2-8-1-0-1-2-0-8"
       cx="178.59375"
       cy="422.01001"
       r="19.910864" />
    <circle
       style="display:inline;fill:#ff0000;stroke:#ff0000;stroke-width:5.15744;stroke-opacity:1"
       id="path1065-7-2-8-1-13-6-9-7-5-9-9"
       cx="287.07211"
       cy="514.61713"
       r="27.848814" />
    <circle
       style="display:inline;fill:#ff0000;stroke:#ff0000;stroke-width:5.15744;stroke-opacity:1"
       id="path1065-7-2-8-1-13-6-9-7-5-8-8-6-0"
       cx="70.113304"
       cy="514.61713"
       r="26.525448" />
    <circle
       style="display:inline;fill:#ff0000;stroke:#ff0000;stroke-width:5.15744;stroke-opacity:1"
       id="path1065-7-2-8-1-0-1-2-0-8-7"
       cx="178.59375"
       cy="514.61713"
       r="19.910864" />
    <circle
       style="display:inline;fill:#ff0000;stroke:#ff0000;stroke-width:5.15744;stroke-opacity:1"
       id="path1065-7-2-8-1-13-6-9-7-5-9-9-6"
       cx="287.07211"
       cy="607.21832"
       r="27.848814" />
    <circle
       style="display:inline;fill:#ff0000;stroke:#ff0000;stroke-width:5.15744;stroke-opacity:1"
       id="path1065-7-2-8-1-13-6-9-7-5-8-8-6-0-7"
       cx="70.113304"
       cy="607.21832"
       r="26.525448" />
    <circle
       style="display:inline;fill:#ff0000;stroke:#ff0000;stroke-width:5.15744;stroke-opacity:1"
       id="path1065-7-2-8-1-0-1-2-0-8-7-2"
       cx="178.59375"
       cy="607.21832"
       r="19.910864" />
    <ellipse
       style="display:inline;fill:#ff0000;stroke:#ff0000;stroke-width:1.695;stroke-opacity:1"
       id="path1065-7-2-3-2"
       cx="133.61458"
       cy="378.35416"
       rx="10.794165"
       ry="10.794167" />
    <ellipse
       style="display:inline;fill:#ff0000;stroke:#ff0000;stroke-width:1.695;stroke-opacity:1"
       id="path1065-7-2-3-2-9"
       cx="133.61458"
       cy="563.5625"
       rx="10.794165"
       ry="10.794167" />
    <ellipse
       style="display:inline;fill:#ff0000;stroke:#ff0000;stroke-width:1.695;stroke-opacity:1"
       id="path1065-7-2-3-2-0"
       cx="133.61458"
       cy="79.375"
       rx="10.794165"
       ry="10.794167" />
    <ellipse
       style="display:inline;fill:#ff0000;stroke:#ff0000;stroke-width:1.695;stroke-opacity:1"
       id="path1065-7-2-3-2-8"
       cx="168.01042"
       cy="79.375"
       rx="10.794165"
       ry="10.794167" />
    <ellipse
       style="display:inline;fill:#ff0000;stroke:#ff0000;stroke-width:1.695;stroke-opacity:1"
       id="path1065-7-2-3-2-8-3"
       cx="168.01042"
       cy="378.35416"
       rx="10.794165"
       ry="10.794167" />
  </g>
</svg>
