<?xml version="1.0" encoding="UTF-8" standalone="no"?>
<!-- Created with Inkscape (http://www.inkscape.org/) -->

<svg
   width="135"
   height="380"
   viewBox="0 0 357.1875 1005.4167"
   version="1.1"
   id="svg5"
   inkscape:version="1.1.1 (3bf5ae0d25, 2021-09-20)"
   sodipodi:docname="VCOUnit_Coal.svg"
   xmlns:inkscape="http://www.inkscape.org/namespaces/inkscape"
   xmlns:sodipodi="http://sodipodi.sourceforge.net/DTD/sodipodi-0.dtd"
   xmlns="http://www.w3.org/2000/svg"
   xmlns:svg="http://www.w3.org/2000/svg">
  <sodipodi:namedview
     id="namedview7"
     pagecolor="#ffffff"
     bordercolor="#666666"
     borderopacity="1.0"
     inkscape:pageshadow="2"
     inkscape:pageopacity="0.0"
     inkscape:pagecheckerboard="0"
     inkscape:document-units="px"
     showgrid="true"
     scale-x="10"
     inkscape:showpageshadow="false"
     viewbox-x="0"
     showguides="false"
     objecttolerance="1"
     gridtolerance="1"
     guidetolerance="1"
     inkscape:zoom="2.2342105"
     inkscape:cx="48.339223"
     inkscape:cy="191.79034"
     inkscape:window-width="1920"
     inkscape:window-height="1057"
     inkscape:window-x="1592"
     inkscape:window-y="-8"
     inkscape:window-maximized="1"
     inkscape:current-layer="layer5"
     units="px">
    <inkscape:grid
       type="xygrid"
       id="grid832"
       units="px"
       spacingx="2.6458334"
       spacingy="2.6458334"
       originx="0"
       empspacing="5"
       dotted="false"
       visible="false"
       enabled="true" />
    <inkscape:grid
       type="xygrid"
       id="grid15270"
       visible="false" />
  </sodipodi:namedview>
  <defs
     id="defs2" />
  <g
     inkscape:groupmode="layer"
     id="layer3"
     inkscape:label="Faceplate"
     style="display:inline">
    <rect
       style="vector-effect:non-scaling-stroke;fill:#252525;fill-opacity:1;stroke-width:0.186761;-inkscape-stroke:hairline"
       id="rect910"
       width="357.1875"
       height="1005.4167"
       x="0"
       y="0" />
  </g>
  <g
     inkscape:groupmode="layer"
     id="layer4"
     inkscape:label="Brand"
     style="display:inline">
    <g
       id="g42796"
       transform="matrix(0.79338965,0,0,0.79458332,118.51978,-19.617969)"
       style="fill:#ff0000;stroke-width:1.27904">
      <g
         aria-label="enom"
         id="text4270-27"
         style="font-size:49.3889px;line-height:1.25;font-family:'NECK ROMANCER';-inkscape-font-specification:'NECK ROMANCER, Normal';font-variant-ligatures:none;text-align:center;text-anchor:middle;fill:#ff0000;stroke-width:3.38412">
        <path
           d="m 46.609141,1249.244 q 0,1.1576 0,3.4245 3.183269,0 9.453344,0 -1.639866,0.5787 -2.990343,1.2058 -1.350478,0.627 -2.363337,1.688 -1.350477,0 -4.051433,0 0,1.4952 0.434082,2.5563 0.385851,1.1093 1.832792,1.1093 2.266873,0 6.80062,0 0.482313,-0.1447 0.868164,-0.627 0.337619,-0.5305 0.627007,-1.7363 0,2.0257 0,6.1254 -3.520888,0 -10.562665,0 -1.543403,0 -2.652724,-2.2187 -1.109321,-2.1704 -1.109321,-6.3183 0,-1.9775 0,-5.836 -0.385851,-1.3504 -1.881023,-2.1221 -1.495171,-0.7235 -3.569119,-1.2058 6.607694,0 19.774852,0 0,2.9421 0,8.7781 -1.205783,-2.701 -2.218642,-3.6656 -1.012858,-0.9646 -2.700955,-1.1093 -0.916396,-0.097 -2.170411,-0.097 -1.205783,0.048 -2.845649,0.048 -0.241157,0 -0.675239,0 z"
           id="path42762"
           style="fill:#ff0000;stroke-width:3.38412" />
        <path
           d="m 81.576869,1245.2891 q 0,5.8842 0,17.7009 0,3.0868 -0.144694,6.0771 -0.09646,3.0386 -0.337619,5.9325 -0.385851,-3.7138 -0.964627,-6.9936 -0.530545,-3.3279 -2.025717,-5.016 0,-2.9904 0,-8.9228 -0.241157,-1.3505 -0.72347,-2.2187 -0.482314,-0.8681 -1.06109,-1.3987 -1.109321,-1.0128 -2.411567,-1.1093 -1.350478,-0.097 -2.266874,-0.097 -0.482313,0 -1.44694,0 0,4.582 0,13.746 0,3.0868 -0.09646,6.0771 -0.144694,3.0386 -0.385851,5.9325 -0.38585,-3.7138 -0.916395,-6.9936 -0.578776,-3.3279 -2.025717,-5.016 0,-4.8232 0,-14.373 -0.385851,-1.3504 -1.881022,-2.1221 -1.495172,-0.7235 -3.56912,-1.2058 6.752389,0 20.257166,0 z"
           id="path42764"
           style="fill:#ff0000;stroke-width:3.38412" />
        <path
           d="m 104.19737,1249.0511 q 0,3.3762 0,10.1768 0,1.5434 -1.92925,2.6528 -1.92926,1.1093 -6.077152,1.1093 -4.196128,0 -6.125382,-1.1093 -1.929254,-1.1094 -1.929254,-2.6528 0,-3.3762 0,-10.1768 0,-1.5434 1.929254,-2.6527 1.929254,-1.1093 6.125382,-1.1093 4.147892,0 6.077152,1.1093 1.92925,1.1093 1.92925,2.6527 z m -3.76204,7.91 q 0,-1.8811 0,-5.6431 0,-1.6881 -1.254019,-1.9775 -1.205783,-0.2894 -2.990343,-0.2894 -1.832792,0 -3.038575,0.2894 -1.254015,0.2894 -1.254015,1.9775 0,1.881 0,5.6431 0,1.6881 1.254015,1.9774 1.205783,0.2894 3.038575,0.2894 1.78456,0 2.990343,-0.2894 1.254019,-0.2893 1.254019,-1.9774 z"
           id="path42766"
           style="fill:#ff0000;stroke-width:3.38412" />
        <path
           d="m 142.34837,1245.2891 q -2.02572,0.4823 -3.52089,1.2058 -1.5434,0.7717 -1.88102,2.1221 0,4.7749 0,14.373 -1.49517,1.6881 -2.02572,5.016 -0.57878,3.2798 -0.96463,6.9936 -0.24115,-2.8939 -0.33762,-5.9325 -0.14469,-2.9903 -0.14469,-6.0771 0,-4.582 0,-13.746 -0.48231,0 -1.39871,0 -0.53054,0 -1.15755,0 -0.62701,0 -1.30225,0.1447 -1.25401,0.2412 -2.41157,1.2058 -1.15755,0.9646 -1.63986,3.4727 0,2.9903 0,8.9228 -0.1447,0.627 -0.28939,1.1093 -0.0965,0.4823 -0.19292,0.8199 -0.53055,1.9775 -0.38586,1.3505 0.19293,-0.627 -0.28938,1.1576 -0.0965,0.3376 -0.24116,0.8681 -0.14469,0.5306 -0.33762,1.3023 -0.14469,-0.6753 -0.28939,-1.2058 -0.14469,-0.4823 -0.24115,-0.8199 -0.53055,-2.0258 -0.33762,-1.3023 0.19292,0.7717 -0.43409,-1.6881 -0.0482,-0.2894 -0.19292,-0.7235 -0.0965,-0.3858 -0.19293,-0.8681 0,-2.9904 0,-8.9228 -0.28939,-1.3505 -0.7717,-2.2187 -0.48231,-0.8681 -1.06109,-1.3987 -1.10932,-1.0128 -2.41157,-1.1093 -1.30224,-0.097 -2.26687,-0.097 -0.48231,0 -1.39871,0 0,4.582 0,13.746 0,3.0868 -0.14469,6.0771 -0.0965,3.0386 -0.33762,5.9325 -0.38585,-3.7138 -0.96463,-6.9936 -0.53054,-3.3279 -2.02572,-5.016 0,-4.8232 0,-14.373 -0.38585,-1.3504 -1.88102,-2.1221 -1.49517,-0.7235 -3.56912,-1.2058 3.95497,0 11.76845,0 1.15755,0.3858 3.47266,1.1575 0.7717,0.2894 1.59163,0.4341 0.81994,0.1447 1.6881,0.1447 0.86816,0 1.73633,-0.1447 0.81993,-0.1447 1.59163,-0.4341 1.15756,-0.3858 3.42443,-1.1575 3.95497,0 11.76845,0 z"
           id="path42768"
           style="fill:#ff0000;stroke-width:3.38412" />
      </g>
      <g
         aria-label="V"
         transform="matrix(1.2363173,0,0,0.80885384,-497.88086,123.48586)"
         id="text4270-3-5-2"
         style="font-size:78.5061px;line-height:1.25;font-family:Nosferotica;-inkscape-font-specification:'Nosferotica, Normal';font-variant-ligatures:none;text-align:center;text-anchor:middle;fill:#ff0000;stroke-width:4.18383">
        <path
           d="m 431.64994,1360.6864 8.57428,-0.1022 c 0,0 -4.4079,1.0878 -5.59925,3.7285 -1.88083,4.1689 -3.64217,14.6628 -3.64217,14.6628 l -2.23339,11.5191 -1.83311,11.8311 -1.71824,21.3112 -1.69514,-21.3112 -1.92196,-11.5208 -2.5009,-11.8294 c 0,0 -1.52027,-10.287 -3.38278,-14.4832 -1.14458,-2.5787 -5.63367,-3.8059 -5.63367,-3.8059 h 8.4657 l 6.66875,29.1569 z"
           id="path30410"
           sodipodi:nodetypes="ccscccccccscccc"
           style="fill:#ff0000;stroke-width:4.18383" />
      </g>
    </g>
  </g>
  <g
     inkscape:groupmode="layer"
     id="layer5"
     inkscape:label="Solid"
     style="display:inline">
    <g
       aria-label="SYNC"
       id="text8550-7-2-4"
       style="font-weight:bold;font-size:21.1667px;line-height:1.25;font-family:Arial;-inkscape-font-specification:'Arial, Bold';font-variant-ligatures:none;text-align:center;text-anchor:middle;display:inline;fill:#ede7dc;fill-opacity:1;stroke-width:2.64583"
       transform="translate(22.489575,358.83938)">
      <path
         d="m 127.62525,374.69726 2.97657,-0.28939 q 0.26871,1.49862 1.0852,2.20142 0.82683,0.7028 2.22209,0.7028 1.47795,0 2.22209,-0.62012 0.75448,-0.63045 0.75448,-1.46761 0,-0.53744 -0.32039,-0.90951 -0.31006,-0.3824 -1.09555,-0.66146 -0.53743,-0.18603 -2.44946,-0.66146 -2.4598,-0.60978 -3.45199,-1.49862 -1.39527,-1.25057 -1.39527,-3.04891 0,-1.15755 0.65112,-2.16008 0.66146,-1.01286 1.89136,-1.53996 1.24024,-0.5271 2.98691,-0.5271 2.85254,0 4.28915,1.25057 1.44694,1.25057 1.51929,3.33831 l -3.05925,0.13435 q -0.19637,-1.16789 -0.8475,-1.67432 -0.64079,-0.51676 -1.9327,-0.51676 -1.33325,0 -2.08773,0.54777 -0.48576,0.3514 -0.48576,0.94051 0,0.53744 0.45475,0.91985 0.57878,0.48575 2.81121,1.01286 2.23242,0.5271 3.29696,1.09554 1.07487,0.5581 1.67432,1.53996 0.60978,0.97152 0.60978,2.40812 0,1.30225 -0.72347,2.43913 -0.72347,1.13689 -2.04639,1.69499 -1.32292,0.54778 -3.29696,0.54778 -2.87322,0 -4.41318,-1.32292 -1.53996,-1.33326 -1.83968,-3.87574 z"
         id="path19351"
         style="fill:#ede7dc;fill-opacity:1" />
      <path
         d="m 146.49751,379.6272 v -6.37688 l -5.55006,-8.77468 h 3.58636 l 3.56567,5.99448 3.49334,-5.99448 h 3.52434 l -5.57073,8.79535 v 6.35621 z"
         id="path19353"
         style="fill:#ede7dc;fill-opacity:1" />
      <path
         d="m 156.66745,379.6272 v -15.15156 h 2.97657 l 6.20118,10.11826 v -10.11826 h 2.84221 v 15.15156 h -3.06959 l -6.10816,-9.88055 v 9.88055 z"
         id="path19355"
         style="fill:#ede7dc;fill-opacity:1" />
      <path
         d="m 181.61687,374.05647 2.96623,0.94051 q -0.68213,2.48047 -2.27376,3.6897 -1.5813,1.1989 -4.02044,1.1989 -3.0179,0 -4.96094,-2.05673 -1.94304,-2.06706 -1.94304,-5.64307 0,-3.78272 1.95337,-5.87045 1.95338,-2.09807 5.13665,-2.09807 2.7802,0 4.51653,1.64331 1.03353,0.97152 1.55029,2.79054 l -3.02824,0.72347 q -0.26872,-1.17823 -1.12655,-1.86036 -0.84749,-0.68213 -2.06706,-0.68213 -1.68465,0 -2.73885,1.20923 -1.04387,1.20923 -1.04387,3.91708 0,2.87322 1.03353,4.09278 1.03353,1.21957 2.68718,1.21957 1.21956,0 2.09807,-0.77515 0.8785,-0.77515 1.2609,-2.43913 z"
         id="path19357"
         style="fill:#ede7dc;fill-opacity:1" />
    </g>
    <g
       aria-label="SOFT"
       id="text8550-7-2"
       style="font-weight:bold;font-size:21.1667px;line-height:1.25;font-family:Arial;-inkscape-font-specification:'Arial, Bold';font-variant-ligatures:none;text-align:center;text-anchor:middle;display:inline;fill:#ede7dc;fill-opacity:1;stroke-width:2.64583"
       transform="translate(22.48957,358.83938)">
      <path
         d="m 128.48308,352.06445 2.97657,-0.28939 q 0.26872,1.49862 1.0852,2.20142 0.82683,0.7028 2.22209,0.7028 1.47795,0 2.22209,-0.62012 0.75448,-0.63045 0.75448,-1.46761 0,-0.53744 -0.32039,-0.90951 -0.31006,-0.38241 -1.09555,-0.66146 -0.53743,-0.18604 -2.44946,-0.66146 -2.4598,-0.60978 -3.45199,-1.49862 -1.39527,-1.25057 -1.39527,-3.04891 0,-1.15756 0.65113,-2.16008 0.66145,-1.01286 1.89136,-1.53996 1.24023,-0.5271 2.9869,-0.5271 2.85254,0 4.28915,1.25057 1.44694,1.25057 1.51929,3.3383 l -3.05925,0.13436 q -0.19637,-1.16789 -0.8475,-1.67432 -0.64078,-0.51676 -1.9327,-0.51676 -1.33325,0 -2.08773,0.54777 -0.48576,0.3514 -0.48576,0.94051 0,0.53744 0.45476,0.91984 0.57877,0.48576 2.8112,1.01286 2.23242,0.5271 3.29696,1.09554 1.07487,0.55811 1.67432,1.53996 0.60978,0.97152 0.60978,2.40813 0,1.30225 -0.72347,2.43913 -0.72347,1.13689 -2.04639,1.69499 -1.32292,0.54777 -3.29696,0.54777 -2.87322,0 -4.41318,-1.32292 -1.53996,-1.33325 -1.83968,-3.87573 z"
         id="path19369"
         style="fill:#ede7dc;fill-opacity:1" />
      <path
         d="m 142.75613,349.51163 q 0,-2.31511 0.69247,-3.88608 0.51676,-1.15755 1.4056,-2.07739 0.89917,-0.91985 1.96371,-1.36426 1.41593,-0.59945 3.26595,-0.59945 3.34864,0 5.35369,2.07739 2.01538,2.0774 2.01538,5.77744 0,3.66903 -1.99471,5.74643 -1.99471,2.06706 -5.33302,2.06706 -3.37964,0 -5.37435,-2.05673 -1.99472,-2.06706 -1.99472,-5.68441 z m 3.15227,-0.10336 q 0,2.57349 1.18856,3.90675 1.18856,1.32292 3.01791,1.32292 1.82935,0 2.99724,-1.31259 1.17822,-1.32292 1.17822,-3.95842 0,-2.6045 -1.14722,-3.88607 -1.13688,-1.28158 -3.02824,-1.28158 -1.89136,0 -3.04892,1.30225 -1.15755,1.29191 -1.15755,3.90674 z"
         id="path19371"
         style="fill:#ede7dc;fill-opacity:1" />
      <path
         d="m 159.86106,356.99438 v -15.15155 h 10.38698 v 2.56316 h -7.32773 v 3.58635 h 6.3252 v 2.56315 h -6.3252 v 6.43889 z"
         id="path19373"
         style="fill:#ede7dc;fill-opacity:1" />
      <path
         d="m 176.1805,356.99438 v -12.58839 h -4.49585 v -2.56316 h 12.04063 v 2.56316 h -4.48553 v 12.58839 z"
         id="path19375"
         style="fill:#ede7dc;fill-opacity:1" />
    </g>
    <g
       aria-label="EXP"
       id="text8550-7-2-47"
       style="font-weight:bold;font-size:21.1667px;line-height:1.25;font-family:Arial;-inkscape-font-specification:'Arial, Bold';font-variant-ligatures:none;text-align:center;text-anchor:middle;display:inline;fill:#ede7dc;fill-opacity:1;stroke-width:2.64583"
       transform="translate(-1.1144561e-4,-116.41668)">
      <path
         d="m 43.578703,485.19385 v -15.15156 h 11.234474 v 2.56316 h -8.175225 v 3.35897 h 7.606783 v 2.55282 h -7.606783 v 4.12379 h 8.464614 v 2.55282 z"
         id="path19396"
         style="fill:#ede7dc;fill-opacity:1" />
      <path
         d="m 56.156767,485.19385 5.177986,-7.90651 -4.692227,-7.24505 h 3.576015 l 3.038579,4.86793 2.976567,-4.86793 h 3.545009 l -4.712898,7.35874 5.177986,7.79282 h -3.689703 l -3.358973,-5.24 -3.369309,5.24 z"
         id="path19398"
         style="fill:#ede7dc;fill-opacity:1" />
      <path
         d="m 71.814751,485.19385 v -15.15156 h 4.909268 q 2.790532,0 3.638027,0.22738 1.302248,0.34107 2.180749,1.48828 0.878501,1.13689 0.878501,2.94557 0,1.39526 -0.50643,2.34611 -0.50643,0.95085 -1.291913,1.49862 -0.775148,0.53743 -1.581301,0.71313 -1.095542,0.21705 -3.172938,0.21705 H 74.874 v 5.71542 z M 74.874,472.60545 v 4.29948 h 1.674319 q 1.808678,0 2.418461,-0.23771 0.609783,-0.23771 0.950848,-0.74414 0.3514,-0.50643 0.3514,-1.17822 0,-0.82683 -0.485759,-1.36426 -0.485759,-0.53744 -1.229901,-0.6718 -0.547771,-0.10335 -2.201419,-0.10335 z"
         id="path19400"
         style="fill:#ede7dc;fill-opacity:1" />
    </g>
    <g
       aria-label="V/OCT"
       id="text8550-7-2-47-0"
       style="font-weight:bold;font-size:21.1667px;line-height:1.25;font-family:Arial;-inkscape-font-specification:'Arial, Bold';font-variant-ligatures:none;text-align:center;text-anchor:middle;display:inline;fill:#ede7dc;fill-opacity:1;stroke-width:2.64583"
       transform="translate(-1.1244561e-4,15.875001)">
      <path
         d="m 36.788411,848.78882 -5.415699,-15.15156 h 3.317632 l 3.834397,11.21381 3.710374,-11.21381 H 45.4804 l -5.426034,15.15156 z"
         id="path19403"
         style="fill:#ede7dc;fill-opacity:1" />
      <path
         d="m 45.470065,849.0472 3.751715,-15.66832 h 2.180749 l -3.793056,15.66832 z"
         id="path19405"
         style="fill:#ede7dc;fill-opacity:1" />
      <path
         d="m 52.301701,841.30606 q 0,-2.31511 0.692465,-3.88607 0.516765,-1.15756 1.405601,-2.0774 0.899172,-0.91984 1.963708,-1.36426 1.415936,-0.59945 3.265956,-0.59945 3.348638,0 5.353686,2.0774 2.015385,2.07739 2.015385,5.77743 0,3.66903 -1.994714,5.74643 -1.994713,2.06706 -5.333016,2.06706 -3.379644,0 -5.374358,-2.05672 -1.994713,-2.06706 -1.994713,-5.68442 z m 3.152267,-0.10335 q 0,2.57349 1.18856,3.90674 1.18856,1.32292 3.017908,1.32292 1.829349,0 2.997238,-1.31258 1.178225,-1.32292 1.178225,-3.95843 0,-2.60449 -1.147219,-3.88607 -1.136883,-1.28158 -3.028244,-1.28158 -1.89136,0 -3.048914,1.30225 -1.157554,1.29191 -1.157554,3.90675 z"
         id="path19407"
         style="fill:#ede7dc;fill-opacity:1" />
      <path
         d="m 79.080469,843.21809 2.966232,0.94051 q -0.68213,2.48048 -2.273766,3.68971 -1.581302,1.19889 -4.020433,1.19889 -3.017909,0 -4.960946,-2.05672 -1.943037,-2.06706 -1.943037,-5.64308 0,-3.78272 1.953373,-5.87045 1.953372,-2.09807 5.136645,-2.09807 2.780197,0 4.516528,1.64331 1.03353,0.97152 1.550295,2.79054 l -3.028244,0.72347 q -0.268718,-1.17823 -1.126548,-1.86036 -0.847495,-0.68213 -2.06706,-0.68213 -1.684655,0 -2.738856,1.20923 -1.043865,1.20923 -1.043865,3.91708 0,2.87322 1.03353,4.09278 1.03353,1.21957 2.687179,1.21957 1.219566,0 2.098066,-0.77515 0.878501,-0.77515 1.260907,-2.43913 z"
         id="path19409"
         style="fill:#ede7dc;fill-opacity:1" />
      <path
         d="m 88.08252,848.78882 v -12.5884 h -4.495856 v -2.56316 h 12.040628 v 2.56316 H 91.14177 v 12.5884 z"
         id="path19411"
         style="fill:#ede7dc;fill-opacity:1" />
    </g>
    <g
       aria-label="FM"
       id="text8550-7-2-47-4"
       style="font-weight:bold;font-size:21.1667px;line-height:1.25;font-family:Arial;-inkscape-font-specification:'Arial, Bold';font-variant-ligatures:none;text-align:center;text-anchor:middle;display:inline;fill:#ede7dc;fill-opacity:1;stroke-width:2.64583"
       transform="translate(-1.1044561e-4,-116.41668)">
      <path
         d="m 49.74888,507.50739 v -15.15156 h 10.386979 v 2.56316 h -7.32773 v 3.58635 h 6.325206 v 2.56315 h -6.325206 v 6.4389 z"
         id="path19444"
         style="fill:#ede7dc;fill-opacity:1" />
      <path
         d="m 62.616332,507.50739 v -15.15156 h 4.578539 l 2.749191,10.3353 2.718184,-10.3353 h 4.588875 v 15.15156 H 74.408913 V 495.58045 L 71.40134,507.50739 H 68.455778 L 65.45854,495.58045 v 11.92694 z"
         id="path19446"
         style="fill:#ede7dc;fill-opacity:1" />
    </g>
    <g
       aria-label="EXP"
       id="text8550-7-2-47-7"
       style="font-weight:bold;font-size:21.1667px;line-height:1.25;font-family:Arial;-inkscape-font-specification:'Arial, Bold';font-variant-ligatures:none;text-align:center;text-anchor:middle;display:inline;fill:#ede7dc;fill-opacity:1;stroke-width:2.64583"
       transform="translate(-1.0944561e-4,-121.70835)">
      <path
         d="m 43.578703,707.69336 v -15.15155 h 11.234474 v 2.56315 h -8.175225 v 3.35897 h 7.606783 v 2.55282 h -7.606783 v 4.12379 h 8.464614 v 2.55282 z"
         id="path19449"
         style="fill:#ede7dc;fill-opacity:1" />
      <path
         d="m 56.156767,707.69336 5.177986,-7.90651 -4.692227,-7.24504 h 3.576015 l 3.038579,4.86792 2.976567,-4.86792 h 3.545009 l -4.712898,7.35873 5.177986,7.79282 h -3.689703 l -3.358973,-5.24 -3.369309,5.24 z"
         id="path19451"
         style="fill:#ede7dc;fill-opacity:1" />
      <path
         d="m 71.814751,707.69336 v -15.15155 h 4.909268 q 2.790532,0 3.638027,0.22737 1.302248,0.34107 2.180749,1.48829 0.878501,1.13688 0.878501,2.94556 0,1.39526 -0.50643,2.34611 -0.50643,0.95085 -1.291913,1.49862 -0.775148,0.53744 -1.581301,0.71314 -1.095542,0.21704 -3.172938,0.21704 H 74.874 v 5.71542 z M 74.874,695.10496 v 4.29949 h 1.674319 q 1.808678,0 2.418461,-0.23772 0.609783,-0.23771 0.950848,-0.74414 0.3514,-0.50643 0.3514,-1.17822 0,-0.82683 -0.485759,-1.36426 -0.485759,-0.53744 -1.229901,-0.6718 -0.547771,-0.10335 -2.201419,-0.10335 z"
         id="path19453"
         style="fill:#ede7dc;fill-opacity:1" />
    </g>
    <g
       aria-label="DEPTH"
       id="text8550-7-2-47-4-38"
       style="font-weight:bold;font-size:21.1667px;line-height:1.25;font-family:Arial;-inkscape-font-specification:'Arial, Bold';font-variant-ligatures:none;text-align:center;text-anchor:middle;display:inline;fill:#ede7dc;fill-opacity:1;stroke-width:2.64583"
       transform="translate(-1.1044561e-4,-121.70835)">
      <path
         d="m 29.207465,715.08899 h 5.591399 q 1.89136,0 2.883549,0.28938 1.333254,0.39275 2.284102,1.39527 0.950848,1.00252 1.446943,2.4598 0.496094,1.44694 0.496094,3.57602 0,1.87069 -0.465088,3.22461 -0.568442,1.65365 -1.622643,2.67684 -0.795818,0.77515 -2.149743,1.20924 -1.01286,0.32039 -2.707849,0.32039 h -5.756764 z m 3.05925,2.56315 v 10.03558 h 2.284101 q 1.281578,0 1.85002,-0.14469 0.744142,-0.18604 1.229901,-0.63046 0.496094,-0.44442 0.806153,-1.45728 0.310059,-1.02319 0.310059,-2.78019 0,-1.757 -0.310059,-2.69752 -0.310059,-0.94051 -0.868165,-1.46761 -0.558106,-0.5271 -1.415937,-0.71314 -0.640788,-0.14469 -2.511478,-0.14469 z"
         id="path19456"
         style="fill:#ede7dc;fill-opacity:1" />
      <path
         d="m 44.503714,730.24054 v -15.15155 h 11.234474 v 2.56315 h -8.175225 v 3.35897 h 7.606783 v 2.55282 h -7.606783 v 4.12379 h 8.464613 v 2.55282 z"
         id="path19458"
         style="fill:#ede7dc;fill-opacity:1" />
      <path
         d="m 58.621738,730.24054 v -15.15155 h 4.909269 q 2.790532,0 3.638027,0.22737 1.302248,0.34107 2.180749,1.48829 0.878501,1.13688 0.878501,2.94556 0,1.39526 -0.50643,2.34611 -0.50643,0.95085 -1.291913,1.49862 -0.775148,0.53744 -1.581301,0.71314 -1.095543,0.21704 -3.172938,0.21704 h -1.994714 v 5.71542 z m 3.05925,-12.5884 v 4.29949 h 1.674319 q 1.808678,0 2.418461,-0.23772 0.609783,-0.23771 0.950848,-0.74414 0.3514,-0.50643 0.3514,-1.17822 0,-0.82683 -0.485759,-1.36426 -0.485759,-0.53744 -1.229901,-0.6718 -0.547771,-0.10335 -2.20142,-0.10335 z"
         id="path19460"
         style="fill:#ede7dc;fill-opacity:1" />
      <path
         d="m 76.150411,730.24054 v -12.5884 h -4.495856 v -2.56315 h 12.040627 v 2.56315 h -4.485521 v 12.5884 z"
         id="path19462"
         style="fill:#ede7dc;fill-opacity:1" />
      <path
         d="m 85.679559,730.24054 v -15.15155 h 3.05925 v 5.96347 h 5.994475 v -5.96347 h 3.05925 v 15.15155 h -3.05925 v -6.62493 h -5.994475 v 6.62493 z"
         id="path19464"
         style="fill:#ede7dc;fill-opacity:1" />
    </g>
    <g
       aria-label="LIN"
       id="text8550-7-2-47-7-1"
       style="font-weight:bold;font-size:21.1667px;line-height:1.25;font-family:Arial;-inkscape-font-specification:'Arial, Bold';font-variant-ligatures:none;text-align:center;text-anchor:middle;display:inline;fill:#ede7dc;fill-opacity:1;stroke-width:2.64583"
       transform="translate(22.489575,-121.70835)">
      <path
         d="m 140.71491,707.69336 v -15.02753 h 3.05925 v 12.47471 h 7.60678 v 2.55282 z"
         id="path19467"
         style="fill:#ede7dc;fill-opacity:1" />
      <path
         d="m 153.46867,707.69336 v -15.15155 h 3.05925 v 15.15155 z"
         id="path19469"
         style="fill:#ede7dc;fill-opacity:1" />
      <path
         d="m 159.47349,707.69336 v -15.15155 h 2.97656 l 6.20118,10.11826 v -10.11826 h 2.84221 v 15.15155 h -3.06958 l -6.10817,-9.88055 v 9.88055 z"
         id="path19471"
         style="fill:#ede7dc;fill-opacity:1" />
    </g>
    <g
       aria-label="DEPTH"
       id="text8550-7-2-47-4-38-0"
       style="font-weight:bold;font-size:21.1667px;line-height:1.25;font-family:Arial;-inkscape-font-specification:'Arial, Bold';font-variant-ligatures:none;text-align:center;text-anchor:middle;display:inline;fill:#ede7dc;fill-opacity:1;stroke-width:2.64583"
       transform="translate(22.489575,-121.70835)">
      <path
         d="m 121.81164,715.08899 h 5.5914 q 1.89136,0 2.88355,0.28938 1.33325,0.39275 2.2841,1.39527 0.95084,1.00252 1.44694,2.4598 0.49609,1.44694 0.49609,3.57602 0,1.87069 -0.46508,3.22461 -0.56845,1.65365 -1.62265,2.67684 -0.79582,0.77515 -2.14974,1.20924 -1.01286,0.32039 -2.70785,0.32039 h -5.75676 z m 3.05925,2.56315 v 10.03558 h 2.2841 q 1.28158,0 1.85002,-0.14469 0.74414,-0.18604 1.2299,-0.63046 0.49609,-0.44442 0.80615,-1.45728 0.31006,-1.02319 0.31006,-2.78019 0,-1.757 -0.31006,-2.69752 -0.31006,-0.94051 -0.86816,-1.46761 -0.55811,-0.5271 -1.41594,-0.71314 -0.64079,-0.14469 -2.51148,-0.14469 z"
         id="path19474"
         style="fill:#ede7dc;fill-opacity:1" />
      <path
         d="m 137.10789,730.24054 v -15.15155 h 11.23447 v 2.56315 h -8.17522 v 3.35897 h 7.60678 v 2.55282 h -7.60678 v 4.12379 h 8.46461 v 2.55282 z"
         id="path19476"
         style="fill:#ede7dc;fill-opacity:1" />
      <path
         d="m 151.22591,730.24054 v -15.15155 h 4.90927 q 2.79053,0 3.63803,0.22737 1.30224,0.34107 2.18074,1.48829 0.87851,1.13688 0.87851,2.94556 0,1.39526 -0.50643,2.34611 -0.50643,0.95085 -1.29192,1.49862 -0.77515,0.53744 -1.5813,0.71314 -1.09554,0.21704 -3.17294,0.21704 h -1.99471 v 5.71542 z m 3.05925,-12.5884 v 4.29949 h 1.67432 q 1.80868,0 2.41846,-0.23772 0.60978,-0.23771 0.95085,-0.74414 0.3514,-0.50643 0.3514,-1.17822 0,-0.82683 -0.48576,-1.36426 -0.48576,-0.53744 -1.2299,-0.6718 -0.54777,-0.10335 -2.20142,-0.10335 z"
         id="path19478"
         style="fill:#ede7dc;fill-opacity:1" />
      <path
         d="m 168.75458,730.24054 v -12.5884 h -4.49585 v -2.56315 h 12.04062 v 2.56315 h -4.48552 v 12.5884 z"
         id="path19480"
         style="fill:#ede7dc;fill-opacity:1" />
      <path
         d="m 178.28373,730.24054 v -15.15155 h 3.05925 v 5.96347 h 5.99448 v -5.96347 h 3.05925 v 15.15155 h -3.05925 v -6.62493 h -5.99448 v 6.62493 z"
         id="path19482"
         style="fill:#ede7dc;fill-opacity:1" />
    </g>
    <g
       aria-label="FM"
       id="text8550-7-2-47-4-6"
       style="font-weight:bold;font-size:21.1667px;line-height:1.25;font-family:Arial;-inkscape-font-specification:'Arial, Bold';font-variant-ligatures:none;text-align:center;text-anchor:middle;display:inline;fill:#ede7dc;fill-opacity:1;stroke-width:2.64583"
       transform="translate(22.48958,-116.41668)">
      <path
         d="m 142.35305,507.50739 v -15.15156 h 10.38698 v 2.56316 h -7.32773 v 3.58635 h 6.32521 v 2.56315 h -6.32521 v 6.4389 z"
         id="path19485"
         style="fill:#ede7dc;fill-opacity:1" />
      <path
         d="m 155.2205,507.50739 v -15.15156 h 4.57854 l 2.74919,10.3353 2.71819,-10.3353 h 4.58887 v 15.15156 h -2.84221 v -11.92694 l -3.00757,11.92694 h -2.94556 l -2.99724,-11.92694 v 11.92694 z"
         id="path19487"
         style="fill:#ede7dc;fill-opacity:1" />
    </g>
    <g
       aria-label="LIN"
       id="text8550-7-2-47-4-3"
       style="font-weight:bold;font-size:21.1667px;line-height:1.25;font-family:Arial;-inkscape-font-specification:'Arial, Bold';font-variant-ligatures:none;text-align:center;text-anchor:middle;display:inline;fill:#ede7dc;fill-opacity:1;stroke-width:2.64583"
       transform="translate(22.489575,-116.41668)">
      <path
         d="m 140.71491,485.19385 v -15.02753 h 3.05925 v 12.47471 h 7.60678 v 2.55282 z"
         id="path19490"
         style="fill:#ede7dc;fill-opacity:1" />
      <path
         d="m 153.46867,485.19385 v -15.15156 h 3.05925 v 15.15156 z"
         id="path19492"
         style="fill:#ede7dc;fill-opacity:1" />
      <path
         d="m 159.47349,485.19385 v -15.15156 h 2.97656 l 6.20118,10.11827 v -10.11827 h 2.84221 v 15.15156 h -3.06958 l -6.10817,-9.88055 v 9.88055 z"
         id="path19494"
         style="fill:#ede7dc;fill-opacity:1" />
    </g>
    <g
       aria-label="FREQ"
       id="text8550-9"
       style="font-weight:bold;font-size:24.6944px;line-height:1.25;font-family:Arial;-inkscape-font-specification:'Arial, Bold';font-variant-ligatures:none;text-align:center;text-anchor:middle;display:inline;fill:#ede7dc;fill-opacity:1;stroke-width:2.64583"
       transform="translate(70.882214,-55.485256)">
      <path
         d="m 74.486232,169.10794 v -17.67675 h 12.118102 v 2.99033 h -8.548989 v 4.18407 h 7.379381 v 2.99033 h -7.379381 v 7.51202 z"
         id="path19504"
         style="fill:#ede7dc;fill-opacity:1" />
      <path
         d="m 89.558498,169.10794 v -17.67675 h 7.512018 q 2.833586,0 4.111714,0.48231 1.29019,0.47025 2.06189,1.68809 0.7717,1.21784 0.7717,2.78536 0,1.98954 -1.16961,3.29178 -1.16961,1.29019 -3.496768,1.62781 1.157548,0.67523 1.905138,1.48311 0.75964,0.80787 2.03777,2.86976 l 2.15835,3.44853 h -4.26847 l -2.580372,-3.84644 q -1.374591,-2.06189 -1.881019,-2.59243 -0.506428,-0.5426 -1.073145,-0.73553 -0.566718,-0.20498 -1.796614,-0.20498 h -0.723469 v 7.37938 z m 3.569113,-10.20091 h 2.640661 q 2.568314,0 3.207378,-0.21704 0.639064,-0.21704 1.000799,-0.74758 0.361731,-0.53055 0.361731,-1.32636 0,-0.89228 -0.48231,-1.43488 -0.470254,-0.55466 -1.338417,-0.69936 -0.434081,-0.0603 -2.604487,-0.0603 h -2.785355 z"
         id="path19506"
         style="fill:#ede7dc;fill-opacity:1" />
      <path
         d="m 107.37995,169.10794 v -17.67675 h 13.10684 v 2.99033 h -9.53773 v 3.91879 h 8.87455 v 2.97828 h -8.87455 v 4.81107 h 9.87535 v 2.97828 z"
         id="path19508"
         style="fill:#ede7dc;fill-opacity:1" />
      <path
         d="m 138.07914,166.86519 q 1.3143,0.94051 2.8577,1.49517 l -1.3143,2.52008 q -0.80788,-0.24116 -1.57958,-0.66318 -0.16881,-0.0844 -2.37539,-1.56752 -1.73632,0.75965 -3.84644,0.75965 -4.07554,0 -6.39064,-2.39951 -2.30304,-2.3995 -2.30304,-6.74032 0,-4.32875 2.3151,-6.72826 2.3151,-2.41156 6.28212,-2.41156 3.93085,0 6.23389,2.41156 2.30304,2.39951 2.30304,6.72826 0,2.29099 -0.63906,4.02731 -0.48232,1.32636 -1.5434,2.56832 z m -2.86976,-2.01366 q 0.68729,-0.80787 1.02491,-1.95336 0.34968,-1.1455 0.34968,-2.62861 0,-3.06268 -1.35048,-4.56991 -1.35047,-1.51928 -3.53294,-1.51928 -2.18246,0 -3.54499,1.51928 -1.35048,1.51929 -1.35048,4.56991 0,3.09886 1.35048,4.64226 1.36253,1.53134 3.43647,1.53134 0.7717,0 1.459,-0.25321 -1.0852,-0.71141 -2.20658,-1.10932 l 1.0008,-2.03777 q 1.76044,0.60289 3.36413,1.80867 z"
         id="path19510"
         style="fill:#ede7dc;fill-opacity:1" />
    </g>
    <g
       aria-label="OCTAVE"
       id="text8550-7"
       style="font-weight:bold;font-size:21.1667px;line-height:1.25;font-family:Arial;-inkscape-font-specification:'Arial, Bold';font-variant-ligatures:none;text-align:center;text-anchor:middle;display:inline;fill:#ede7dc;fill-opacity:1;stroke-width:2.64583"
       transform="translate(-1.0531152e-4,-99.694529)">
      <path
         d="m 21.957247,362.9559 q 0,-2.31511 0.692466,-3.88607 0.516765,-1.15756 1.405601,-2.0774 0.899171,-0.91984 1.963707,-1.36426 1.415937,-0.59945 3.265956,-0.59945 3.348638,0 5.353687,2.0774 2.015384,2.07739 2.015384,5.77743 0,3.66904 -1.994713,5.74643 -1.994714,2.06706 -5.333017,2.06706 -3.379644,0 -5.374357,-2.05672 -1.994714,-2.06706 -1.994714,-5.68442 z m 3.152268,-0.10335 q 0,2.57349 1.18856,3.90674 1.188559,1.32292 3.017908,1.32292 1.829349,0 2.997238,-1.31258 1.178224,-1.32292 1.178224,-3.95842 0,-2.6045 -1.147218,-3.88608 -1.136884,-1.28158 -3.028244,-1.28158 -1.89136,0 -3.048914,1.30225 -1.157554,1.29192 -1.157554,3.90675 z"
         id="path19513"
         style="fill:#ede7dc;fill-opacity:1" />
      <path
         d="m 48.736018,364.86793 2.966232,0.94051 q -0.68213,2.48048 -2.273767,3.68971 -1.581301,1.19889 -4.020433,1.19889 -3.017908,0 -4.960945,-2.05672 -1.943037,-2.06706 -1.943037,-5.64308 0,-3.78272 1.953372,-5.87045 1.953372,-2.09807 5.136646,-2.09807 2.780196,0 4.516527,1.64332 1.03353,0.97151 1.550295,2.79053 l -3.028243,0.72347 q -0.268718,-1.17823 -1.126548,-1.86036 -0.847495,-0.68213 -2.067061,-0.68213 -1.684654,0 -2.738855,1.20924 -1.043866,1.20923 -1.043866,3.91707 0,2.87322 1.03353,4.09278 1.033531,1.21957 2.687179,1.21957 1.219566,0 2.098067,-0.77515 0.8785,-0.77514 1.260907,-2.43913 z"
         id="path19515"
         style="fill:#ede7dc;fill-opacity:1" />
      <path
         d="m 57.738067,370.43866 v -12.5884 H 53.24221 v -2.56315 h 12.040628 v 2.56315 h -4.485521 v 12.5884 z"
         id="path19517"
         style="fill:#ede7dc;fill-opacity:1" />
      <path
         d="M 79.349187,370.43866 H 76.021219 L 74.698301,366.997 h -6.056488 l -1.250572,3.44166 h -3.245285 l 5.901458,-15.15155 h 3.23495 z m -5.63274,-5.99448 -2.087731,-5.6224 -2.04639,5.6224 z"
         id="path19519"
         style="fill:#ede7dc;fill-opacity:1" />
      <path
         d="m 83.266263,370.43866 -5.415699,-15.15155 h 3.317632 l 3.834398,11.2138 3.710373,-11.2138 h 3.245285 l -5.426034,15.15155 z"
         id="path19521"
         style="fill:#ede7dc;fill-opacity:1" />
      <path
         d="m 93.518886,370.43866 v -15.15155 h 11.234474 v 2.56315 h -8.175224 v 3.35897 h 7.606784 v 2.55282 h -7.606784 v 4.12379 h 8.464614 v 2.55282 z"
         id="path19523"
         style="fill:#ede7dc;fill-opacity:1" />
    </g>
    <rect
       style="display:inline;vector-effect:non-scaling-stroke;fill:#ede7dc;fill-opacity:1;stroke-width:0.0257847;-inkscape-stroke:hairline"
       id="rect76101"
       width="78.327255"
       height="101.52305"
       x="139.43011"
       y="840.39368"
       ry="12.391612"
       rx="11.207397" />
    <g
       aria-label="DC"
       id="text48268-4"
       style="font-weight:bold;font-size:17.6389px;line-height:1.25;font-family:Arial;-inkscape-font-specification:'Arial, Bold';font-variant-ligatures:none;text-align:center;text-anchor:middle;display:inline;fill:#ede7dc;fill-opacity:1;stroke-width:2.64583"
       transform="translate(-22.489693,90.716383)">
      <path
         d="m 74.34085,76.055517 h 4.659495 q 1.576132,0 2.402955,0.241157 1.111044,0.327285 1.903417,1.162721 0.792372,0.835436 1.205784,2.049833 0.413412,1.205784 0.413412,2.98001 0,1.558906 -0.387574,2.687176 -0.473701,1.378039 -1.3522,2.230701 -0.663182,0.645955 -1.791451,1.007691 -0.844049,0.266995 -2.256539,0.266995 H 74.34085 Z m 2.549372,2.135961 v 8.362975 h 1.903417 q 1.06798,0 1.541681,-0.120578 0.620118,-0.15503 1.024917,-0.525378 0.413411,-0.370348 0.671794,-1.214397 0.258382,-0.852662 0.258382,-2.316828 0,-1.464167 -0.258382,-2.247926 -0.258383,-0.78376 -0.723471,-1.22301 -0.465088,-0.43925 -1.179946,-0.59428 -0.53399,-0.120578 -2.092897,-0.120578 z"
         id="path1645"
         style="fill:#ede7dc;fill-opacity:1" />
      <path
         d="m 95.166466,84.039532 2.471857,0.783759 q -0.568441,2.067059 -1.894803,3.07475 -1.31775,0.999078 -3.350358,0.999078 -2.514921,0 -4.134117,-1.713936 -1.619196,-1.722549 -1.619196,-4.702558 0,-3.152265 1.627808,-4.892039 1.627809,-1.748387 4.280534,-1.748387 2.316829,0 3.76377,1.369426 0.861274,0.809598 1.291912,2.325441 l -2.523535,0.602892 Q 94.856407,79.156105 94.141549,78.587664 93.435304,78.019223 92.419,78.019223 q -1.403877,0 -2.282377,1.007691 -0.869887,1.007691 -0.869887,3.26423 0,2.394343 0.861274,3.410647 0.861275,1.016304 2.239314,1.016304 1.016304,0 1.748387,-0.645956 0.732083,-0.645956 1.050755,-2.032607 z"
         id="path1647"
         style="fill:#ede7dc;fill-opacity:1" />
    </g>
    <g
       id="g12071"
       style="fill:#ede7dc;fill-opacity:1"
       transform="translate(87.614168,-610.18397)">
      <g
         aria-label="RESET"
         id="text4702"
         style="font-weight:bold;font-size:17.6389px;line-height:1.25;font-family:Arial;-inkscape-font-specification:'Arial, Bold';font-variant-ligatures:none;text-align:center;text-anchor:middle;display:inline;fill:#ede7dc;fill-opacity:1;stroke-width:2.64583">
        <path
           d="m 177.49643,770.8504 v -12.62628 h 5.36574 q 2.024,0 2.93695,0.34451 0.92156,0.3359 1.47278,1.20578 0.55121,0.86989 0.55121,1.98955 0,1.4211 -0.83543,2.35128 -0.83544,0.92156 -2.4977,1.16272 0.82682,0.48231 1.36081,1.05936 0.54261,0.57706 1.45556,2.04984 l 1.54168,2.46324 h -3.04891 l -1.84313,-2.74746 q -0.98185,-1.47278 -1.34359,-1.85174 -0.36173,-0.38758 -0.76653,-0.52538 -0.4048,-0.14642 -1.2833,-0.14642 h -0.51677 v 5.271 z m 2.54937,-7.28638 h 1.88619 q 1.83452,0 2.29099,-0.15503 0.45648,-0.15503 0.71486,-0.53399 0.25838,-0.37896 0.25838,-0.9474 0,-0.63734 -0.34451,-1.02492 -0.33589,-0.39618 -0.95601,-0.49954 -0.31006,-0.0431 -1.86035,-0.0431 h -1.98955 z"
           id="path14966"
           style="fill:#ede7dc;fill-opacity:1" />
        <path
           d="m 190.22607,770.8504 v -12.62628 h 9.36205 v 2.13596 h -6.81268 v 2.79914 h 6.33898 v 2.12735 h -6.33898 v 3.43648 h 7.05384 v 2.12735 z"
           id="path14968"
           style="fill:#ede7dc;fill-opacity:1" />
        <path
           d="m 201.34512,766.74212 2.48047,-0.24115 q 0.22393,1.24884 0.90434,1.83451 0.68902,0.58567 1.85174,0.58567 1.23162,0 1.85174,-0.51677 0.62873,-0.52537 0.62873,-1.22301 0,-0.44786 -0.267,-0.75792 -0.25838,-0.31867 -0.91295,-0.55121 -0.44786,-0.15503 -2.04122,-0.55122 -2.04983,-0.50815 -2.87665,-1.24885 -1.16272,-1.04214 -1.16272,-2.54076 0,-0.96462 0.5426,-1.80006 0.55121,-0.84405 1.57613,-1.2833 1.03353,-0.43925 2.48908,-0.43925 2.37712,0 3.57429,1.04214 1.20579,1.04214 1.26608,2.78192 l -2.54938,0.11197 q -0.16364,-0.97325 -0.70624,-1.39527 -0.53399,-0.43064 -1.61058,-0.43064 -1.11105,0 -1.73978,0.45648 -0.4048,0.29283 -0.4048,0.78376 0,0.44786 0.37896,0.76653 0.48232,0.4048 2.34267,0.84405 1.86035,0.43925 2.74746,0.91295 0.89573,0.46509 1.39527,1.2833 0.50815,0.8096 0.50815,2.00677 0,1.08521 -0.60289,2.03261 -0.60289,0.9474 -1.70532,1.41249 -1.10244,0.45647 -2.74747,0.45647 -2.39434,0 -3.67764,-1.10243 -1.2833,-1.11104 -1.53307,-3.22978 z"
           id="path14970"
           style="fill:#ede7dc;fill-opacity:1" />
        <path
           d="m 213.75608,770.8504 v -12.62628 h 9.36206 v 2.13596 h -6.81268 v 2.79914 h 6.33898 v 2.12735 h -6.33898 v 3.43648 h 7.05383 v 2.12735 z"
           id="path14972"
           style="fill:#ede7dc;fill-opacity:1" />
        <path
           d="m 228.3633,770.8504 v -10.49032 h -3.74654 v -2.13596 h 10.03384 v 2.13596 h -3.73793 v 10.49032 z"
           id="path14974"
           style="fill:#ede7dc;fill-opacity:1" />
      </g>
      <g
         aria-label="POLY"
         id="text4702-8"
         style="font-weight:bold;font-size:17.6389px;line-height:1.25;font-family:Arial;-inkscape-font-specification:'Arial, Bold';font-variant-ligatures:none;text-align:center;text-anchor:middle;display:inline;fill:#ede7dc;fill-opacity:1;stroke-width:2.64583">
        <path
           d="m 183.50381,789.58215 v -12.62628 h 4.09106 q 2.32544,0 3.03168,0.18948 1.08521,0.28422 1.81729,1.24024 0.73209,0.9474 0.73209,2.45463 0,1.16272 -0.42203,1.95509 -0.42202,0.79237 -1.07659,1.24885 -0.64596,0.44786 -1.31775,0.59428 -0.91295,0.18087 -2.64411,0.18087 h -1.66226 v 4.76284 z m 2.54938,-10.49032 v 3.5829 h 1.39526 q 1.50723,0 2.01538,-0.19809 0.50815,-0.19809 0.79238,-0.62012 0.29283,-0.42202 0.29283,-0.98185 0,-0.68902 -0.4048,-1.13688 -0.4048,-0.44787 -1.02492,-0.55983 -0.45647,-0.0861 -1.83451,-0.0861 z"
           id="path14977"
           style="fill:#ede7dc;fill-opacity:1" />
        <path
           d="m 194.75206,783.34653 q 0,-1.92926 0.57705,-3.2384 0.43064,-0.96462 1.17133,-1.73116 0.74931,-0.76653 1.63643,-1.13688 1.17994,-0.49954 2.72162,-0.49954 2.79053,0 4.46141,1.73116 1.67948,1.73116 1.67948,4.81453 0,3.05752 -1.66226,4.78868 -1.66226,1.72255 -4.44418,1.72255 -2.81636,0 -4.47862,-1.71393 -1.66226,-1.72255 -1.66226,-4.73701 z m 2.62688,-0.0861 q 0,2.14457 0.99047,3.25562 0.99047,1.10243 2.51492,1.10243 1.52446,0 2.4977,-1.09382 0.98185,-1.10243 0.98185,-3.29868 0,-2.17041 -0.95601,-3.23839 -0.94741,-1.06798 -2.52354,-1.06798 -1.57613,0 -2.54076,1.0852 -0.96463,1.07659 -0.96463,3.25562 z"
           id="path14979"
           style="fill:#ede7dc;fill-opacity:1" />
        <path
           d="m 209.05783,789.58215 v -12.52293 h 2.54937 v 10.39559 h 6.33898 v 2.12734 z"
           id="path14981"
           style="fill:#ede7dc;fill-opacity:1" />
        <path
           d="m 221.46018,789.58215 v -5.31406 l -4.62505,-7.31222 h 2.98863 l 2.97139,4.99539 2.91111,-4.99539 h 2.93695 l -4.64227,7.32945 v 5.29683 z"
           id="path14983"
           style="fill:#ede7dc;fill-opacity:1" />
      </g>
    </g>
    <g
       aria-label="VCO UNIT"
       id="text5545"
       style="font-weight:bold;font-size:35.2778px;line-height:1.25;font-family:Arial;-inkscape-font-specification:'Arial, Bold';font-variant-ligatures:none;text-align:center;text-anchor:middle;display:inline;fill:#ede7dc;fill-opacity:1;stroke-width:2.64583"
       transform="translate(19.84374)">
      <path
         d="M 83.853587,54.47488 74.827431,29.222313 h 5.529382 l 6.390656,18.689656 6.183951,-18.689656 h 5.408803 L 89.296842,54.47488 Z"
         id="path1585"
         style="fill:#ede7dc;fill-opacity:1" />
      <path
         d="m 117.09878,45.190342 4.94372,1.567519 q -1.13689,4.134118 -3.78961,6.1495 -2.6355,1.998156 -6.70072,1.998156 -5.02984,0 -8.26823,-3.427872 -3.23839,-3.445098 -3.23839,-9.405117 0,-6.304529 3.25561,-9.784078 3.25562,-3.496774 8.56107,-3.496774 4.63366,0 7.52754,2.738853 1.72255,1.619196 2.58382,4.650882 l -5.04706,1.205784 q -0.44787,-1.963706 -1.87758,-3.100588 -1.41249,-1.136882 -3.4451,-1.136882 -2.80775,0 -4.56475,2.015382 -1.73978,2.015382 -1.73978,6.52846 0,4.788686 1.72255,6.821294 1.72255,2.032608 4.47863,2.032608 2.0326,0 3.49677,-1.291912 1.46417,-1.291912 2.10151,-4.065215 z"
         id="path1587"
         style="fill:#ede7dc;fill-opacity:1" />
      <path
         d="m 125.38424,42.003626 q 0,-3.858509 1.15411,-6.476784 0.86127,-1.929254 2.34266,-3.462323 1.49862,-1.533069 3.27285,-2.273765 2.35989,-0.999078 5.44325,-0.999078 5.58106,0 8.92281,3.462323 3.35897,3.462324 3.35897,9.629049 0,6.115048 -3.32452,9.577372 -3.32452,3.445097 -8.88836,3.445097 -5.63273,0 -8.95725,-3.427872 -3.32452,-3.445098 -3.32452,-9.474019 z m 5.25377,-0.172255 q 0,4.289147 1.98094,6.511235 1.98093,2.204863 5.02984,2.204863 3.04891,0 4.99539,-2.187637 1.96371,-2.204863 1.96371,-6.597363 0,-4.340823 -1.91203,-6.476784 -1.89481,-2.13596 -5.04707,-2.13596 -3.15227,0 -5.08152,2.170411 -1.92926,2.153187 -1.92926,6.511235 z"
         id="path1589"
         style="fill:#ede7dc;fill-opacity:1" />
      <path
         d="m 163.62483,29.222313 h 5.09874 v 13.677039 q 0,3.255617 0.18948,4.220244 0.32729,1.550294 1.5503,2.497696 1.24023,0.930177 3.37619,0.930177 2.17041,0 3.27285,-0.8785 1.10243,-0.895726 1.32636,-2.187637 0.22393,-1.291912 0.22393,-4.289147 V 29.222313 h 5.09874 V 42.48594 q 0,4.547529 -0.41341,6.425107 -0.41341,1.877579 -1.53307,3.16949 -1.10243,1.291912 -2.96278,2.067059 -1.86035,0.757921 -4.85759,0.757921 -3.61735,0 -5.49493,-0.826823 -1.86035,-0.844049 -2.94556,-2.170412 -1.0852,-1.343588 -1.42971,-2.807754 -0.49954,-2.170412 -0.49954,-6.407882 z"
         id="path1591"
         style="fill:#ede7dc;fill-opacity:1" />
      <path
         d="M 189.18745,54.47488 V 29.222313 h 4.96094 l 10.33529,16.863754 V 29.222313 h 4.73701 V 54.47488 h -5.11597 L 193.92446,38.007313 V 54.47488 Z"
         id="path1593"
         style="fill:#ede7dc;fill-opacity:1" />
      <path
         d="M 214.45724,54.47488 V 29.222313 h 5.09875 V 54.47488 Z"
         id="path1595"
         style="fill:#ede7dc;fill-opacity:1" />
      <path
         d="M 230.09798,54.47488 V 33.494235 h -7.49308 v -4.271922 h 20.06769 v 4.271922 h -7.47586 V 54.47488 Z"
         id="path1597"
         style="fill:#ede7dc;fill-opacity:1" />
    </g>
    <g
       aria-label="WAVE"
       id="text13271"
       style="font-weight:bold;font-size:21.1667px;line-height:1.25;font-family:Arial;-inkscape-font-specification:'Arial, Bold';font-variant-ligatures:none;text-align:center;text-anchor:middle;display:inline;fill:#ede7dc;fill-opacity:1;stroke-width:2.64583"
       transform="translate(130.96886,-7.9384918)">
      <path
         d="m 21.424894,264.1969 -3.617356,-15.15155 h 3.131597 l 2.284102,10.40765 2.769861,-10.40765 h 3.638027 l 2.656173,10.58335 2.325443,-10.58335 h 3.07992 L 34.013293,264.1969 H 30.768008 L 27.7501,252.86941 24.742527,264.1969 Z"
         id="path1629"
         style="fill:#ede7dc;fill-opacity:1" />
      <path
         d="m 51.748673,264.1969 h -3.327967 l -1.322919,-3.44166 h -6.056488 l -1.250571,3.44166 H 36.545443 L 42.4469,249.04535 h 3.23495 z m -5.63274,-5.99448 -2.087731,-5.6224 -2.04639,5.6224 z"
         id="path1631"
         style="fill:#ede7dc;fill-opacity:1" />
      <path
         d="m 55.665755,264.1969 -5.415699,-15.15155 h 3.317632 l 3.834398,11.2138 3.710373,-11.2138 h 3.245285 L 58.93171,264.1969 Z"
         id="path1633"
         style="fill:#ede7dc;fill-opacity:1" />
      <path
         d="m 65.918374,264.1969 v -15.15155 h 11.234475 v 2.56315 h -8.175225 v 3.35897 h 7.606783 v 2.55282 h -7.606783 v 4.12379 h 8.464613 v 2.55282 z"
         id="path1635"
         style="fill:#ede7dc;fill-opacity:1" />
    </g>
    <g
       aria-label="OVER"
       id="text13271-5"
       style="font-weight:bold;font-size:17.6389px;line-height:1.25;font-family:Arial;-inkscape-font-specification:'Arial, Bold';font-variant-ligatures:none;text-align:center;text-anchor:middle;display:inline;fill:#ede7dc;fill-opacity:1;stroke-width:2.64583"
       transform="translate(14.552223)">
      <path
         d="m 254.57191,93.8161 q 0,-1.929255 0.57705,-3.238392 0.43064,-0.964627 1.17134,-1.731161 0.74931,-0.766535 1.63642,-1.136883 1.17994,-0.499539 2.72163,-0.499539 2.79053,0 4.4614,1.731162 1.67948,1.731162 1.67948,4.814524 0,3.057524 -1.66226,4.788686 -1.66226,1.722553 -4.44417,1.722553 -2.81637,0 -4.47863,-1.71394 -1.66226,-1.722549 -1.66226,-4.73701 z m 2.62689,-0.08613 q 0,2.144573 0.99046,3.255617 0.99047,1.102432 2.51492,1.102432 1.52446,0 2.4977,-1.093819 0.98185,-1.102431 0.98185,-3.298681 0,-2.170412 -0.95601,-3.238392 -0.9474,-1.06798 -2.52354,-1.06798 -1.57613,0 -2.54076,1.085205 -0.96462,1.076593 -0.96462,3.255618 z"
         id="path1609"
         style="fill:#ede7dc;fill-opacity:1" />
      <path
         d="m 272.02994,100.05173 -4.51307,-12.626286 h 2.76469 l 3.19532,9.344828 3.09198,-9.344828 h 2.7044 l -4.52169,12.626286 z"
         id="path1611"
         style="fill:#ede7dc;fill-opacity:1" />
      <path
         d="M 280.57379,100.05173 V 87.425444 h 9.36205 v 2.13596 h -6.81268 v 2.799142 h 6.33898 v 2.127348 h -6.33898 v 3.436485 h 7.05384 v 2.127351 z"
         id="path1613"
         style="fill:#ede7dc;fill-opacity:1" />
      <path
         d="M 292.34741,100.05173 V 87.425444 h 5.36574 q 2.02399,0 2.93695,0.34451 0.92156,0.335897 1.47277,1.205784 0.55122,0.869887 0.55122,1.989544 0,1.421103 -0.83544,2.351279 -0.83543,0.921564 -2.49769,1.162721 0.82682,0.482313 1.36081,1.059367 0.5426,0.577054 1.45556,2.049833 l 1.54168,2.463248 h -3.04891 l -1.84313,-2.747468 q -0.98185,-1.47278 -1.34359,-1.85174 -0.36174,-0.387574 -0.76653,-0.525378 -0.4048,-0.146416 -1.2833,-0.146416 h -0.51677 v 5.271002 z m 2.54937,-7.286385 h 1.88619 q 1.83452,0 2.29099,-0.155029 0.45648,-0.155029 0.71486,-0.53399 0.25838,-0.378961 0.25838,-0.947402 0,-0.637343 -0.34451,-1.024917 -0.33589,-0.396186 -0.95601,-0.499539 -0.31006,-0.04306 -1.86035,-0.04306 h -1.98955 z"
         id="path1615"
         style="fill:#ede7dc;fill-opacity:1" />
    </g>
    <g
       aria-label="FREQ"
       id="text13271-5-1"
       style="font-weight:bold;font-size:17.6389px;line-height:1.25;font-family:Arial;-inkscape-font-specification:'Arial, Bold';font-variant-ligatures:none;text-align:center;text-anchor:middle;display:inline;fill:#ede7dc;fill-opacity:1;stroke-width:2.64583"
       transform="translate(-144.19886)">
      <path
         d="M 183.96634,100.05173 V 87.425444 h 8.65581 v 2.13596 h -6.10644 v 2.988623 h 5.271 v 2.13596 h -5.271 v 5.365743 z"
         id="path1600"
         style="fill:#ede7dc;fill-opacity:1" />
      <path
         d="M 194.73227,100.05173 V 87.425444 h 5.36574 q 2.02399,0 2.93694,0.34451 0.92157,0.335897 1.47278,1.205784 0.55122,0.869887 0.55122,1.989544 0,1.421103 -0.83544,2.351279 -0.83543,0.921564 -2.49769,1.162721 0.82682,0.482313 1.36081,1.059367 0.5426,0.577054 1.45555,2.049833 l 1.54169,2.463248 h -3.04892 l -1.84312,-2.747468 q -0.98186,-1.47278 -1.34359,-1.85174 -0.36174,-0.387574 -0.76654,-0.525378 -0.40479,-0.146416 -1.28329,-0.146416 h -0.51677 v 5.271002 z m 2.54937,-7.286385 h 1.88619 q 1.83452,0 2.29099,-0.155029 0.45648,-0.155029 0.71486,-0.53399 0.25838,-0.378961 0.25838,-0.947402 0,-0.637343 -0.34451,-1.024917 -0.3359,-0.396186 -0.95601,-0.499539 -0.31006,-0.04306 -1.86036,-0.04306 h -1.98954 z"
         id="path1602"
         style="fill:#ede7dc;fill-opacity:1" />
      <path
         d="M 207.4619,100.05173 V 87.425444 h 9.36206 v 2.13596 h -6.81268 v 2.799142 h 6.33898 v 2.127348 h -6.33898 v 3.436485 h 7.05383 v 2.127351 z"
         id="path1604"
         style="fill:#ede7dc;fill-opacity:1" />
      <path
         d="m 229.38995,98.449757 q 0.93879,0.671794 2.04122,1.06798 l -0.93879,1.800063 q -0.57705,-0.17225 -1.12827,-0.4737 -0.12058,-0.0603 -1.69671,-1.119657 -1.24023,0.542607 -2.74746,0.542607 -2.91111,0 -4.56476,-1.71394 -1.64503,-1.713936 -1.64503,-4.814524 0,-3.091976 1.65365,-4.805912 1.65364,-1.722549 4.48724,-1.722549 2.80775,0 4.45278,1.722549 1.64504,1.713936 1.64504,4.805912 0,1.636421 -0.45648,2.876656 -0.34451,0.947402 -1.10243,1.834515 z m -2.04983,-1.438329 q 0.49092,-0.577053 0.73208,-1.395264 0.24977,-0.818211 0.24977,-1.877578 0,-2.187638 -0.96463,-3.264231 -0.96462,-1.085205 -2.52353,-1.085205 -1.55891,0 -2.53215,1.085205 -0.96462,1.085206 -0.96462,3.264231 0,2.213475 0.96462,3.315906 0.97324,1.093819 2.45464,1.093819 0.55121,0 1.04214,-0.180868 -0.77515,-0.508152 -1.57614,-0.792372 l 0.71486,-1.455554 q 1.25746,0.430637 2.40296,1.291911 z"
         id="path1606"
         style="fill:#ede7dc;fill-opacity:1" />
    </g>
    <g
       aria-label="SHAPE"
       id="text26197"
       style="font-weight:bold;font-size:21.1667px;line-height:1.25;font-family:Arial;-inkscape-font-specification:'Arial, Bold';font-variant-ligatures:none;text-align:center;text-anchor:middle;display:inline;fill:#ede7dc;fill-opacity:1;stroke-width:2.64583"
       transform="translate(42.333336,-10.320392)">
      <path
         d="m 215.80072,261.90725 2.97657,-0.28939 q 0.26871,1.49862 1.0852,2.20142 0.82683,0.7028 2.22209,0.7028 1.47795,0 2.22209,-0.62012 0.75448,-0.63045 0.75448,-1.46761 0,-0.53744 -0.32039,-0.90951 -0.31006,-0.3824 -1.09555,-0.66146 -0.53743,-0.18603 -2.44946,-0.66146 -2.4598,-0.60978 -3.45199,-1.49861 -1.39527,-1.25058 -1.39527,-3.04892 0,-1.15755 0.65112,-2.16008 0.66146,-1.01286 1.89136,-1.53996 1.24024,-0.5271 2.98691,-0.5271 2.85254,0 4.28915,1.25057 1.44694,1.25058 1.51929,3.33831 l -3.05925,0.13436 q -0.19637,-1.16789 -0.8475,-1.67432 -0.64079,-0.51677 -1.9327,-0.51677 -1.33325,0 -2.08773,0.54777 -0.48576,0.3514 -0.48576,0.94051 0,0.53744 0.45475,0.91985 0.57878,0.48576 2.81121,1.01286 2.23242,0.5271 3.29696,1.09554 1.07487,0.55811 1.67432,1.53996 0.60978,0.97152 0.60978,2.40812 0,1.30225 -0.72347,2.43914 -0.72347,1.13688 -2.04639,1.69499 -1.32292,0.54777 -3.29696,0.54777 -2.87322,0 -4.41318,-1.32292 -1.53996,-1.33326 -1.83968,-3.87574 z"
         id="path1618"
         style="fill:#ede7dc;fill-opacity:1" />
      <path
         d="m 230.70423,266.83719 v -15.15156 h 3.05925 v 5.96347 h 5.99447 v -5.96347 h 3.05925 v 15.15156 h -3.05925 v -6.62493 h -5.99447 v 6.62493 z"
         id="path1620"
         style="fill:#ede7dc;fill-opacity:1" />
      <path
         d="m 259.64308,266.83719 h -3.32797 l -1.32292,-3.44166 h -6.05649 l -1.25057,3.44166 h -3.24528 l 5.90145,-15.15156 h 3.23495 z m -5.63274,-5.99448 -2.08774,-5.6224 -2.04639,5.6224 z"
         id="path1622"
         style="fill:#ede7dc;fill-opacity:1" />
      <path
         d="m 261.26572,266.83719 v -15.15156 h 4.90927 q 2.79053,0 3.63802,0.22738 1.30225,0.34107 2.18075,1.48828 0.8785,1.13689 0.8785,2.94557 0,1.39526 -0.50643,2.34611 -0.50643,0.95085 -1.29191,1.49862 -0.77515,0.53743 -1.5813,0.71313 -1.09554,0.21705 -3.17294,0.21705 h -1.99471 v 5.71542 z m 3.05925,-12.5884 v 4.29949 h 1.67432 q 1.80867,0 2.41846,-0.23772 0.60978,-0.23771 0.95084,-0.74414 0.3514,-0.50643 0.3514,-1.17822 0,-0.82683 -0.48575,-1.36426 -0.48576,-0.53744 -1.22991,-0.6718 -0.54777,-0.10335 -2.20142,-0.10335 z"
         id="path1624"
         style="fill:#ede7dc;fill-opacity:1" />
      <path
         d="m 275.38374,266.83719 v -15.15156 h 11.23448 v 2.56316 h -8.17523 v 3.35897 h 7.60679 v 2.55282 h -7.60679 v 4.12379 h 8.46462 v 2.55282 z"
         id="path1626"
         style="fill:#ede7dc;fill-opacity:1" />
    </g>
    <g
       aria-label="PHASE"
       id="text26197-3"
       style="font-weight:bold;font-size:21.1667px;line-height:1.25;font-family:Arial;-inkscape-font-specification:'Arial, Bold';font-variant-ligatures:none;text-align:center;text-anchor:middle;display:inline;fill:#ede7dc;fill-opacity:1;stroke-width:2.64583"
       transform="translate(42.333336,-5.2915668)">
      <path
         d="m 216.18829,464.9819 v -15.15155 h 4.90927 q 2.79053,0 3.63803,0.22738 1.30225,0.34106 2.18075,1.48828 0.8785,1.13688 0.8785,2.94556 0,1.39527 -0.50643,2.34611 -0.50643,0.95085 -1.29191,1.49862 -0.77515,0.53744 -1.58131,0.71314 -1.09554,0.21704 -3.17293,0.21704 h -1.99472 v 5.71542 z m 3.05925,-12.5884 v 4.29949 h 1.67432 q 1.80868,0 2.41846,-0.23771 0.60979,-0.23771 0.95085,-0.74414 0.3514,-0.50643 0.3514,-1.17823 0,-0.82682 -0.48576,-1.36426 -0.48576,-0.53743 -1.2299,-0.67179 -0.54777,-0.10336 -2.20142,-0.10336 z"
         id="path1638"
         style="fill:#ede7dc;fill-opacity:1" />
      <path
         d="m 230.31665,464.9819 v -15.15155 h 3.05925 v 5.96347 h 5.99448 v -5.96347 h 3.05925 v 15.15155 h -3.05925 v -6.62493 h -5.99448 v 6.62493 z"
         id="path1640"
         style="fill:#ede7dc;fill-opacity:1" />
      <path
         d="m 259.2555,464.9819 h -3.32796 l -1.32292,-3.44165 h -6.05649 l -1.25057,3.44165 h -3.24529 l 5.90146,-15.15155 h 3.23495 z m -5.63274,-5.99447 -2.08773,-5.62241 -2.04639,5.62241 z"
         id="path1642"
         style="fill:#ede7dc;fill-opacity:1" />
      <path
         d="m 260.103,460.05196 2.97656,-0.28938 q 0.26872,1.49861 1.08521,2.20141 0.82682,0.70281 2.22209,0.70281 1.47795,0 2.22209,-0.62012 0.75448,-0.63046 0.75448,-1.46762 0,-0.53743 -0.3204,-0.9095 -0.31006,-0.38241 -1.09554,-0.66146 -0.53743,-0.18604 -2.44947,-0.66146 -2.4598,-0.60978 -3.45199,-1.49862 -1.39526,-1.25057 -1.39526,-3.04891 0,-1.15756 0.65112,-2.16008 0.66146,-1.01286 1.89136,-1.53996 1.24024,-0.5271 2.9869,-0.5271 2.85255,0 4.28915,1.25057 1.44695,1.25057 1.51929,3.3383 l -3.05925,0.13436 q -0.19637,-1.16789 -0.84749,-1.67432 -0.64079,-0.51676 -1.9327,-0.51676 -1.33326,0 -2.08773,0.54777 -0.48576,0.3514 -0.48576,0.94051 0,0.53744 0.45475,0.91984 0.57878,0.48576 2.8112,1.01286 2.23243,0.5271 3.29697,1.09554 1.07487,0.55811 1.67431,1.53996 0.60979,0.97152 0.60979,2.40813 0,1.30225 -0.72347,2.43913 -0.72348,1.13688 -2.04639,1.69499 -1.32292,0.54777 -3.29697,0.54777 -2.87321,0 -4.41317,-1.32292 -1.53996,-1.33325 -1.83968,-3.87574 z"
         id="path1644"
         style="fill:#ede7dc;fill-opacity:1" />
      <path
         d="m 274.99617,464.9819 v -15.15155 h 11.23447 v 2.56315 h -8.17522 v 3.35898 h 7.60678 v 2.55282 h -7.60678 v 4.12378 h 8.46461 v 2.55282 z"
         id="path1646"
         style="fill:#ede7dc;fill-opacity:1" />
    </g>
    <g
       aria-label="OFFSET"
       id="text26197-1"
       style="font-weight:bold;font-size:21.1667px;line-height:1.25;font-family:Arial;-inkscape-font-specification:'Arial, Bold';font-variant-ligatures:none;text-align:center;text-anchor:middle;display:inline;fill:#ede7dc;fill-opacity:1;stroke-width:2.64583"
       transform="translate(42.333336,-2.6470373)">
      <path
         d="m 210.28685,627.43704 q 0,-2.31511 0.69247,-3.88607 0.51676,-1.15756 1.4056,-2.0774 0.89917,-0.91984 1.96371,-1.36426 1.41593,-0.59945 3.26595,-0.59945 3.34864,0 5.35369,2.0774 2.01538,2.07739 2.01538,5.77743 0,3.66904 -1.99471,5.74643 -1.99472,2.06706 -5.33302,2.06706 -3.37964,0 -5.37436,-2.05672 -1.99471,-2.06706 -1.99471,-5.68442 z m 3.15227,-0.10335 q 0,2.57349 1.18856,3.90674 1.18856,1.32292 3.01791,1.32292 1.82935,0 2.99723,-1.31258 1.17823,-1.32292 1.17823,-3.95842 0,-2.6045 -1.14722,-3.88608 -1.13688,-1.28158 -3.02824,-1.28158 -1.89136,0 -3.04892,1.30225 -1.15755,1.29192 -1.15755,3.90675 z"
         id="path1649"
         style="fill:#ede7dc;fill-opacity:1" />
      <path
         d="m 227.39178,634.9198 v -15.15155 h 10.38698 v 2.56315 h -7.32773 v 3.58635 h 6.3252 v 2.56316 h -6.3252 v 6.43889 z"
         id="path1651"
         style="fill:#ede7dc;fill-opacity:1" />
      <path
         d="m 240.32124,634.9198 v -15.15155 h 10.38698 v 2.56315 h -7.32773 v 3.58635 h 6.32521 v 2.56316 h -6.32521 v 6.43889 z"
         id="path1653"
         style="fill:#ede7dc;fill-opacity:1" />
      <path
         d="m 252.45489,629.98986 2.97657,-0.28939 q 0.26871,1.49862 1.0852,2.20142 0.82683,0.7028 2.22209,0.7028 1.47795,0 2.22209,-0.62012 0.75448,-0.63045 0.75448,-1.46761 0,-0.53743 -0.32039,-0.90951 -0.31006,-0.3824 -1.09555,-0.66146 -0.53743,-0.18603 -2.44946,-0.66145 -2.45981,-0.60979 -3.45199,-1.49862 -1.39527,-1.25058 -1.39527,-3.04892 0,-1.15755 0.65112,-2.16008 0.66146,-1.01286 1.89136,-1.53996 1.24024,-0.5271 2.98691,-0.5271 2.85254,0 4.28915,1.25057 1.44694,1.25058 1.51929,3.33831 l -3.05925,0.13436 q -0.19637,-1.16789 -0.8475,-1.67432 -0.64079,-0.51677 -1.9327,-0.51677 -1.33325,0 -2.08773,0.54777 -0.48576,0.3514 -0.48576,0.94052 0,0.53743 0.45475,0.91984 0.57878,0.48576 2.81121,1.01286 2.23242,0.5271 3.29696,1.09554 1.07487,0.55811 1.67432,1.53996 0.60978,0.97152 0.60978,2.40813 0,1.30224 -0.72347,2.43913 -0.72347,1.13688 -2.04639,1.69499 -1.32292,0.54777 -3.29696,0.54777 -2.87322,0 -4.41318,-1.32292 -1.53996,-1.33326 -1.83968,-3.87574 z"
         id="path1655"
         style="fill:#ede7dc;fill-opacity:1" />
      <path
         d="m 267.34806,634.9198 v -15.15155 h 11.23447 v 2.56315 h -8.17522 v 3.35897 h 7.60678 v 2.55282 h -7.60678 v 4.12379 h 8.46461 v 2.55282 z"
         id="path1657"
         style="fill:#ede7dc;fill-opacity:1" />
      <path
         d="m 284.87673,634.9198 v -12.5884 h -4.49585 v -2.56315 h 12.04062 v 2.56315 h -4.48552 v 12.5884 z"
         id="path1659"
         style="fill:#ede7dc;fill-opacity:1" />
    </g>
    <g
       aria-label="LEVEL"
       id="text26197-2"
       style="font-weight:bold;font-size:21.1667px;line-height:1.25;font-family:Arial;-inkscape-font-specification:'Arial, Bold';font-variant-ligatures:none;text-align:center;text-anchor:middle;display:inline;fill:#ede7dc;fill-opacity:1;stroke-width:2.64583"
       transform="translate(42.333336)">
      <path
         d="m 218.37938,803.51996 v -15.02753 h 3.05925 v 12.47471 h 7.60678 v 2.55282 z"
         id="path1678"
         style="fill:#ede7dc;fill-opacity:1" />
      <path
         d="M 231.22616,803.51996 V 788.3684 h 11.23447 v 2.56316 h -8.17522 v 3.35897 h 7.60678 v 2.55282 h -7.60678 v 4.12379 h 8.46461 v 2.55282 z"
         id="path1680"
         style="fill:#ede7dc;fill-opacity:1" />
      <path
         d="m 249.20959,803.51996 -5.4157,-15.15156 h 3.31763 l 3.8344,11.21381 3.71037,-11.21381 h 3.24529 l -5.42604,15.15156 z"
         id="path1682"
         style="fill:#ede7dc;fill-opacity:1" />
      <path
         d="M 259.46221,803.51996 V 788.3684 h 11.23447 v 2.56316 h -8.17522 v 3.35897 h 7.60678 v 2.55282 h -7.60678 v 4.12379 h 8.46461 v 2.55282 z"
         id="path1684"
         style="fill:#ede7dc;fill-opacity:1" />
      <path
         d="m 273.66291,803.51996 v -15.02753 h 3.05925 v 12.47471 h 7.60679 v 2.55282 z"
         id="path1686"
         style="fill:#ede7dc;fill-opacity:1" />
    </g>
    <g
       id="g1717"
       transform="translate(15.875001)"
       style="fill:#ede7dc;fill-opacity:1">
      <g
         aria-label="SYNC"
         id="text8550-7-2-4-1"
         style="font-weight:bold;font-size:21.1667px;line-height:1.25;font-family:Arial;-inkscape-font-specification:'Arial, Bold';font-variant-ligatures:none;text-align:center;text-anchor:middle;display:inline;fill:#ede7dc;fill-opacity:1;stroke-width:2.64583"
         transform="translate(-108.47928,-110.79205)">
        <path
           d="m 127.62525,843.85369 2.97657,-0.28939 q 0.26871,1.49862 1.0852,2.20142 0.82683,0.7028 2.22209,0.7028 1.47795,0 2.22209,-0.62012 0.75448,-0.63045 0.75448,-1.46761 0,-0.53743 -0.32039,-0.90951 -0.31006,-0.3824 -1.09555,-0.66145 -0.53743,-0.18604 -2.44946,-0.66146 -2.4598,-0.60979 -3.45199,-1.49862 -1.39527,-1.25057 -1.39527,-3.04892 0,-1.15755 0.65112,-2.16008 0.66146,-1.01286 1.89136,-1.53996 1.24024,-0.5271 2.98691,-0.5271 2.85254,0 4.28915,1.25058 1.44694,1.25057 1.51929,3.3383 l -3.05925,0.13436 q -0.19637,-1.16789 -0.8475,-1.67432 -0.64079,-0.51677 -1.9327,-0.51677 -1.33325,0 -2.08773,0.54777 -0.48576,0.3514 -0.48576,0.94052 0,0.53743 0.45475,0.91984 0.57878,0.48576 2.81121,1.01286 2.23242,0.5271 3.29696,1.09554 1.07487,0.55811 1.67432,1.53996 0.60978,0.97152 0.60978,2.40813 0,1.30224 -0.72347,2.43913 -0.72347,1.13688 -2.04639,1.69499 -1.32292,0.54777 -3.29696,0.54777 -2.87322,0 -4.41318,-1.32292 -1.53996,-1.33325 -1.83968,-3.87574 z"
           id="path19360"
           style="fill:#ede7dc;fill-opacity:1" />
        <path
           d="m 146.49751,848.78363 v -6.37688 l -5.55006,-8.77467 h 3.58636 l 3.56567,5.99447 3.49334,-5.99447 h 3.52434 l -5.57073,8.79534 v 6.35621 z"
           id="path19362"
           style="fill:#ede7dc;fill-opacity:1" />
        <path
           d="m 156.66745,848.78363 v -15.15155 h 2.97657 l 6.20118,10.11826 v -10.11826 h 2.84221 v 15.15155 h -3.06959 l -6.10816,-9.88055 v 9.88055 z"
           id="path19364"
           style="fill:#ede7dc;fill-opacity:1" />
        <path
           d="m 181.61687,843.2129 2.96623,0.94051 q -0.68213,2.48048 -2.27376,3.68971 -1.5813,1.19889 -4.02044,1.19889 -3.0179,0 -4.96094,-2.05672 -1.94304,-2.06706 -1.94304,-5.64308 0,-3.78272 1.95337,-5.87045 1.95338,-2.09807 5.13665,-2.09807 2.7802,0 4.51653,1.64332 1.03353,0.97152 1.55029,2.79053 l -3.02824,0.72347 q -0.26872,-1.17822 -1.12655,-1.86035 -0.84749,-0.68213 -2.06706,-0.68213 -1.68465,0 -2.73885,1.20923 -1.04387,1.20923 -1.04387,3.91708 0,2.87321 1.03353,4.09278 1.03353,1.21956 2.68718,1.21956 1.21956,0 2.09807,-0.77515 0.8785,-0.77514 1.2609,-2.43913 z"
           id="path19366"
           style="fill:#ede7dc;fill-opacity:1" />
      </g>
      <g
         aria-label="HARD"
         id="text26197-2-7"
         style="font-weight:bold;font-size:21.1667px;line-height:1.25;font-family:Arial;-inkscape-font-specification:'Arial, Bold';font-variant-ligatures:none;text-align:center;text-anchor:middle;display:inline;fill:#ede7dc;fill-opacity:1;stroke-width:2.64583">
        <path
           d="m 18.355308,715.83374 v -15.15155 h 3.05925 v 5.96347 h 5.994475 v -5.96347 h 3.05925 v 15.15155 h -3.05925 v -6.62493 h -5.994475 v 6.62493 z"
           id="path1662"
           style="fill:#ede7dc;fill-opacity:1" />
        <path
           d="m 47.294157,715.83374 h -3.327968 l -1.322919,-3.44166 h -6.056487 l -1.250572,3.44166 h -3.245285 l 5.901458,-15.15155 h 3.23495 z m -5.63274,-5.99448 -2.087732,-5.6224 -2.04639,5.6224 z"
           id="path1664"
           style="fill:#ede7dc;fill-opacity:1" />
        <path
           d="m 48.927135,715.83374 v -15.15155 h 6.438894 q 2.428796,0 3.524338,0.41341 1.105877,0.40308 1.767337,1.44694 0.661459,1.04387 0.661459,2.38746 0,1.70532 -1.002524,2.82153 -1.002525,1.10588 -2.997238,1.39527 0.992189,0.57878 1.632978,1.27124 0.651124,0.69247 1.746666,2.4598 l 1.850019,2.9559 h -3.658697 l -2.211755,-3.29696 q -1.178224,-1.76734 -1.612307,-2.22209 -0.434083,-0.46509 -0.919842,-0.63045 -0.485759,-0.17571 -1.53996,-0.17571 h -0.620118 v 6.32521 z m 3.05925,-8.74367 h 2.263431 q 2.20142,0 2.749191,-0.18603 0.547771,-0.18604 0.85783,-0.64079 0.310059,-0.45475 0.310059,-1.13688 0,-0.76482 -0.413412,-1.2299 -0.403077,-0.47543 -1.147219,-0.59945 -0.372071,-0.0517 -2.232425,-0.0517 h -2.387455 z"
           id="path1666"
           style="fill:#ede7dc;fill-opacity:1" />
        <path
           d="m 64.19238,700.68219 h 5.591399 q 1.89136,0 2.883549,0.28938 1.333254,0.39275 2.284102,1.39527 0.950848,1.00252 1.446943,2.4598 0.496094,1.44695 0.496094,3.57602 0,1.87069 -0.465089,3.22461 -0.568441,1.65365 -1.622642,2.67685 -0.795818,0.77514 -2.149743,1.20923 -1.01286,0.32039 -2.707849,0.32039 H 64.19238 Z m 3.059249,2.56315 v 10.03558 h 2.284102 q 1.281578,0 1.85002,-0.14469 0.744141,-0.18604 1.229901,-0.63046 0.496094,-0.44442 0.806153,-1.45728 0.310059,-1.02319 0.310059,-2.78019 0,-1.757 -0.310059,-2.69752 -0.310059,-0.94051 -0.868165,-1.46761 -0.558106,-0.5271 -1.415937,-0.71313 -0.640788,-0.1447 -2.511478,-0.1447 z"
           id="path1668"
           style="fill:#ede7dc;fill-opacity:1" />
      </g>
    </g>
  </g>
  <g
     inkscape:groupmode="layer"
     id="layer7"
     inkscape:label="Alternate Solid"
     style="display:inline">
    <g
       aria-label="(BIAS)"
       id="text72603"
       style="font-weight:bold;font-size:17.6389px;line-height:1.25;font-family:Arial;-inkscape-font-specification:'Arial, Bold';font-variant-ligatures:none;text-align:center;text-anchor:middle;display:inline;fill:#ff0000;stroke-width:2.64583"
       transform="translate(56.102886,-55.485256)">
      <path
         d="m 100.8212,147.17733 h -1.662261 q -1.31775,-1.98954 -2.00677,-4.13411 -0.68902,-2.14458 -0.68902,-4.15135 0,-2.48908 0.852662,-4.71117 0.740696,-1.92925 1.877578,-3.55706 h 1.653651 q -1.17995,2.60966 -1.627812,4.44417 -0.43925,1.82591 -0.43925,3.87574 0,1.41249 0.258382,2.89388 0.266995,1.48139 0.723471,2.81637 0.301449,0.8785 1.059369,2.52353 z"
         id="path77325" />
      <path
         d="m 102.70739,130.83896 h 5.04707 q 1.49862,0 2.2307,0.12919 0.74069,0.12058 1.31775,0.51676 0.58566,0.39619 0.97324,1.05937 0.38757,0.65457 0.38757,1.47278 0,0.88711 -0.48231,1.62781 -0.4737,0.74069 -1.29191,1.11104 1.1541,0.3359 1.77422,1.1455 0.62012,0.8096 0.62012,1.90341 0,0.86128 -0.4048,1.67949 -0.39619,0.8096 -1.09382,1.30052 -0.68902,0.48232 -1.70532,0.59428 -0.63734,0.0689 -3.07475,0.0861 h -4.29776 z m 2.54937,2.10151 v 2.91972 h 1.67087 q 1.49001,0 1.85174,-0.0431 0.65457,-0.0775 1.02492,-0.44786 0.37896,-0.37896 0.37896,-0.99046 0,-0.58567 -0.32728,-0.94741 -0.31867,-0.37034 -0.95602,-0.44786 -0.37896,-0.0431 -2.17902,-0.0431 z m 0,5.02123 v 3.37619 h 2.35989 q 1.37804,0 1.74839,-0.0775 0.56844,-0.10336 0.92156,-0.49954 0.36174,-0.4048 0.36174,-1.07659 0,-0.56845 -0.27561,-0.96463 -0.27561,-0.39619 -0.80098,-0.57706 -0.51677,-0.18086 -2.25654,-0.18086 z"
         id="path77327" />
      <path
         d="m 115.35951,143.46524 v -12.62628 h 2.54937 v 12.62628 z"
         id="path77329" />
      <path
         d="m 131.72373,143.46524 h -2.77331 l -1.10243,-2.86804 h -5.04707 l -1.04214,2.86804 h -2.7044 l 4.91788,-12.62628 h 2.69578 z m -4.69395,-4.99539 -1.73977,-4.68533 -1.70533,4.68533 z"
         id="path77331" />
      <path
         d="m 132.42997,139.35696 2.48047,-0.24116 q 0.22393,1.24885 0.90434,1.83452 0.68902,0.58567 1.85174,0.58567 1.23162,0 1.85174,-0.51677 0.62873,-0.52538 0.62873,-1.22301 0,-0.44786 -0.267,-0.75792 -0.25838,-0.31867 -0.91295,-0.55122 -0.44786,-0.15503 -2.04122,-0.55121 -2.04983,-0.50815 -2.87665,-1.24885 -1.16272,-1.04214 -1.16272,-2.54076 0,-0.96463 0.5426,-1.80006 0.55121,-0.84405 1.57613,-1.2833 1.03353,-0.43925 2.48908,-0.43925 2.37712,0 3.57429,1.04214 1.20579,1.04214 1.26608,2.78192 l -2.54938,0.11196 q -0.16364,-0.97324 -0.70624,-1.39526 -0.53399,-0.43064 -1.61058,-0.43064 -1.11105,0 -1.73978,0.45648 -0.4048,0.29283 -0.4048,0.78376 0,0.44786 0.37896,0.76653 0.48232,0.4048 2.34267,0.84405 1.86035,0.43925 2.74747,0.91295 0.89572,0.46509 1.39526,1.2833 0.50815,0.8096 0.50815,2.00677 0,1.0852 -0.60289,2.03261 -0.60289,0.9474 -1.70532,1.41249 -1.10244,0.45647 -2.74747,0.45647 -2.39434,0 -3.67764,-1.10243 -1.2833,-1.11104 -1.53307,-3.22978 z"
         id="path77333" />
      <path
         d="m 144.15191,147.17733 q 0.71486,-1.53307 1.00769,-2.35128 0.29284,-0.81821 0.54261,-1.88619 0.24977,-1.06798 0.37035,-2.02399 0.12057,-0.96463 0.12057,-1.97232 0,-2.04983 -0.43925,-3.87574 -0.43925,-1.83451 -1.61919,-4.44417 h 1.64503 q 1.30053,1.85174 2.01538,3.92741 0.72348,2.07567 0.72348,4.21163 0,1.80007 -0.56845,3.85851 -0.64595,2.30822 -2.12734,4.55614 z"
         id="path77335" />
    </g>
    <g
       aria-label="(BIAS)"
       id="text72603-0"
       style="font-weight:bold;font-size:17.6389px;line-height:1.25;font-family:Arial;-inkscape-font-specification:'Arial, Bold';font-variant-ligatures:none;text-align:center;text-anchor:middle;display:inline;fill:#ff0000;stroke-width:2.64583"
       transform="translate(-13.229805,15.875001)">
      <path
         d="m 55.060029,829.16687 h -1.66226 q -1.31775,-1.98955 -2.006769,-4.13412 -0.68902,-2.14457 -0.68902,-4.15134 0,-2.48909 0.852662,-4.71118 0.740696,-1.92925 1.877578,-3.55706 h 1.653647 q -1.179946,2.60966 -1.627809,4.44418 -0.43925,1.8259 -0.43925,3.87573 0,1.41249 0.258383,2.89388 0.266995,1.4814 0.72347,2.81637 0.301446,0.8785 1.059368,2.52354 z"
         id="path77357" />
      <path
         d="m 56.94622,812.82849 h 5.047068 q 1.498618,0 2.230701,0.12919 0.740696,0.12058 1.31775,0.51677 0.585667,0.39618 0.97324,1.05936 0.387574,0.65457 0.387574,1.47278 0,0.88711 -0.482314,1.62781 -0.473701,0.7407 -1.291912,1.11104 1.154108,0.3359 1.774226,1.1455 0.620117,0.8096 0.620117,1.90342 0,0.86127 -0.404799,1.67948 -0.396186,0.8096 -1.093818,1.30053 -0.68902,0.48231 -1.705324,0.59428 -0.637343,0.0689 -3.07475,0.0861 H 56.94622 Z m 2.549372,2.10151 v 2.91972 h 1.670873 q 1.490004,0 1.85174,-0.0431 0.654568,-0.0775 1.024916,-0.44787 0.378961,-0.37896 0.378961,-0.99046 0,-0.58567 -0.327284,-0.9474 -0.318672,-0.37035 -0.956015,-0.44787 -0.378961,-0.0431 -2.179024,-0.0431 z m 0,5.02123 v 3.3762 h 2.359892 q 1.378039,0 1.748387,-0.0775 0.568442,-0.10335 0.921564,-0.49954 0.361735,-0.4048 0.361735,-1.07659 0,-0.56844 -0.275608,-0.96463 -0.275607,-0.39619 -0.800985,-0.57705 -0.516764,-0.18087 -2.256539,-0.18087 z"
         id="path77359" />
      <path
         d="m 69.598341,825.45477 v -12.62628 h 2.549373 v 12.62628 z"
         id="path77361" />
      <path
         d="m 85.962556,825.45477 h -2.773304 l -1.102431,-2.86804 h -5.047068 l -1.042142,2.86804 h -2.704402 l 4.917877,-12.62628 h 2.695789 z m -4.693946,-4.99539 -1.739774,-4.68533 -1.705323,4.68533 z"
         id="path77363" />
      <path
         d="m 86.668801,821.34649 2.48047,-0.24115 q 0.223932,1.24884 0.904338,1.83451 0.68902,0.58567 1.851741,0.58567 1.231622,0 1.85174,-0.51677 0.62873,-0.52537 0.62873,-1.22301 0,-0.44786 -0.266995,-0.75792 -0.258382,-0.31867 -0.912951,-0.55121 -0.447863,-0.15503 -2.04122,-0.55122 -2.049834,-0.50815 -2.876657,-1.24885 -1.162721,-1.04214 -1.162721,-2.54076 0,-0.96462 0.542603,-1.80006 0.551216,-0.84405 1.576132,-1.2833 1.03353,-0.43925 2.489084,-0.43925 2.377117,0 3.574289,1.04214 1.205784,1.04215 1.266073,2.78192 l -2.549372,0.11197 q -0.163642,-0.97325 -0.706245,-1.39527 -0.533991,-0.43064 -1.610584,-0.43064 -1.111044,0 -1.739774,0.45648 -0.404799,0.29283 -0.404799,0.78376 0,0.44786 0.378961,0.76653 0.482313,0.4048 2.342666,0.84405 1.860353,0.43925 2.747466,0.91295 0.895725,0.46509 1.395264,1.2833 0.508152,0.8096 0.508152,2.00677 0,1.08521 -0.602892,2.03261 -0.602892,0.9474 -1.705323,1.41249 -1.102431,0.45647 -2.747466,0.45647 -2.394343,0 -3.677642,-1.10243 -1.283299,-1.11104 -1.533068,-3.22978 z"
         id="path77365" />
      <path
         d="m 98.390744,829.16687 q 0.714858,-1.53307 1.007691,-2.35128 0.292834,-0.81821 0.542603,-1.88619 0.249772,-1.06798 0.370352,-2.024 0.12057,-0.96463 0.12057,-1.97232 0,-2.04983 -0.439245,-3.87573 -0.43925,-1.83452 -1.619196,-4.44418 h 1.645031 q 1.30053,1.85174 2.01539,3.92741 0.72347,2.07567 0.72347,4.21163 0,1.80007 -0.56845,3.85851 -0.64595,2.30822 -2.12734,4.55615 z"
         id="path77367" />
    </g>
    <g
       aria-label="(FM RANGE)"
       id="text72603-6"
       style="font-weight:bold;font-size:17.6389px;line-height:1.25;font-family:Arial;-inkscape-font-specification:'Arial, Bold';font-variant-ligatures:none;text-align:center;text-anchor:middle;display:inline;fill:#ff0000;stroke-width:2.64583"
       transform="translate(-13.229798,-99.694529)">
      <path
         d="m 29.09691,351.0487 h -1.662259 q -1.31775,-1.98954 -2.00677,-4.13412 -0.689019,-2.14457 -0.689019,-4.15134 0,-2.48908 0.852661,-4.71117 0.740696,-1.92925 1.877579,-3.55706 h 1.653647 q -1.179946,2.60966 -1.627809,4.44417 -0.43925,1.8259 -0.43925,3.87574 0,1.41249 0.258382,2.89388 0.266995,1.48139 0.723471,2.81637 0.301446,0.8785 1.059367,2.52353 z"
         id="path77338" />
      <path
         d="m 30.991714,347.33661 v -12.62628 h 8.655809 v 2.13596 h -6.106436 v 2.98862 h 5.270999 v 2.13596 h -5.270999 v 5.36574 z"
         id="path77340" />
      <path
         d="m 41.714582,347.33661 v -12.62628 h 3.815445 l 2.29099,8.61274 2.265152,-8.61274 h 3.824059 v 12.62628 h -2.368505 v -9.93911 l -2.506309,9.93911 h -2.454632 l -2.497696,-9.93911 v 9.93911 z"
         id="path77342" />
      <path
         d="m 61.351638,347.33661 v -12.62628 h 5.365739 q 2.023995,0 2.936946,0.34451 0.921564,0.33589 1.47278,1.20578 0.551215,0.86989 0.551215,1.98954 0,1.42111 -0.835436,2.35128 -0.835436,0.92157 -2.497696,1.16272 0.826824,0.48232 1.360814,1.05937 0.542603,0.57705 1.455554,2.04983 l 1.541681,2.46325 h -3.048912 l -1.843127,-2.74747 q -0.981853,-1.47278 -1.343588,-1.85174 -0.361735,-0.38757 -0.766534,-0.52537 -0.404799,-0.14642 -1.283299,-0.14642 H 63.90101 v 5.271 z m 2.549372,-7.28638 h 1.886191 q 1.834515,0 2.29099,-0.15503 0.456475,-0.15503 0.714858,-0.53399 0.258382,-0.37896 0.258382,-0.9474 0,-0.63735 -0.34451,-1.02492 -0.335897,-0.39619 -0.956014,-0.49954 -0.310059,-0.0431 -1.860353,-0.0431 H 63.90101 Z"
         id="path77344" />
      <path
         d="M 85.467324,347.33661 H 82.69402 l -1.102431,-2.86805 H 76.54452 l -1.042142,2.86805 h -2.704401 l 4.917877,-12.62628 h 2.695789 z m -4.693946,-4.99539 -1.739774,-4.68534 -1.705324,4.68534 z"
         id="path77346" />
      <path
         d="m 86.845361,347.33661 v -12.62628 h 2.48047 l 5.167647,8.43187 v -8.43187 h 2.368505 v 12.62628 h -2.557986 l -5.090132,-8.23378 v 8.23378 z"
         id="path77348" />
      <path
         d="m 105.43166,342.69434 v -2.12735 h 5.49494 v 5.02984 q -0.80099,0.77515 -2.32545,1.36943 -1.51584,0.58567 -3.07474,0.58567 -1.98094,0 -3.45372,-0.82683 -1.47277,-0.83543 -2.213471,-2.37711 -0.740696,-1.5503 -0.740696,-3.36759 0,-1.97232 0.826824,-3.50538 0.826823,-1.53307 2.420183,-2.35128 1.21439,-0.62873 3.02307,-0.62873 2.35128,0 3.66903,0.99046 1.32636,0.98186 1.70532,2.72163 l -2.53214,0.4737 q -0.267,-0.93018 -1.00769,-1.46417 -0.73209,-0.5426 -1.83452,-0.5426 -1.67087,0 -2.66134,1.05937 -0.98185,1.05937 -0.98185,3.14365 0,2.24793 0.99908,3.3762 0.99908,1.11965 2.61827,1.11965 0.80099,0 1.60197,-0.31006 0.8096,-0.31867 1.38666,-0.76653 v -1.60197 z"
         id="path77350" />
      <path
         d="m 113.27787,347.33661 v -12.62628 h 9.36206 v 2.13596 h -6.81268 v 2.79914 h 6.33898 v 2.12735 h -6.33898 v 3.43648 h 7.05383 v 2.12735 z"
         id="path77352" />
      <path
         d="m 124.35386,351.0487 q 0.71486,-1.53307 1.00769,-2.35128 0.29284,-0.81821 0.54261,-1.88619 0.24976,-1.06798 0.37034,-2.02399 0.12058,-0.96463 0.12058,-1.97232 0,-2.04984 -0.43925,-3.87574 -0.43925,-1.83451 -1.61919,-4.44417 h 1.64503 q 1.30052,1.85174 2.01538,3.92741 0.72347,2.07567 0.72347,4.21163 0,1.80006 -0.56844,3.85851 -0.64595,2.30822 -2.12735,4.55614 z"
         id="path77354" />
    </g>
  </g>
  <g
     inkscape:groupmode="layer"
     id="layer6"
     inkscape:label="Line"
     style="display:inline">
    <path
       style="display:inline;fill:none;stroke:#ede7dc;stroke-width:2.64583px;stroke-linecap:butt;stroke-linejoin:miter;stroke-opacity:1"
       d="m 63.49989,428.62494 v 92.60417"
       id="path18049"
       sodipodi:nodetypes="cc" />
    <path
       style="display:inline;fill:none;stroke:#ede7dc;stroke-width:2.64583px;stroke-linecap:butt;stroke-linejoin:miter;stroke-opacity:1"
       d="m 178.59375,428.62494 v 92.60417"
       id="path18049-6"
       sodipodi:nodetypes="cc" />
    <path
       style="display:inline;fill:none;stroke:#ede7dc;stroke-width:2.64583;stroke-linecap:butt;stroke-linejoin:miter;stroke-miterlimit:4;stroke-dasharray:none;stroke-opacity:1"
       d="m 293.51602,904.09387 27.6656,-69.32355"
       id="path1270"
       sodipodi:nodetypes="cc" />
    <path
       style="display:inline;fill:none;stroke:#ede7dc;stroke-width:2.64583;stroke-linecap:butt;stroke-linejoin:miter;stroke-miterlimit:4;stroke-dasharray:none;stroke-opacity:1"
       d="m 293.51602,732.11234 27.6656,-69.32355"
       id="path1270-3"
       sodipodi:nodetypes="cc" />
    <path
       style="display:inline;fill:none;stroke:#ede7dc;stroke-width:2.64583;stroke-linecap:butt;stroke-linejoin:miter;stroke-miterlimit:4;stroke-dasharray:none;stroke-opacity:1"
       d="m 293.51602,560.13456 27.6656,-69.32355"
       id="path1270-8"
       sodipodi:nodetypes="cc" />
    <path
       style="display:inline;fill:none;stroke:#ede7dc;stroke-width:2.64583;stroke-linecap:butt;stroke-linejoin:miter;stroke-miterlimit:4;stroke-dasharray:none;stroke-opacity:1"
       d="m 293.51602,388.15433 27.6656,-69.32355"
       id="path1270-1"
       sodipodi:nodetypes="cc" />
  </g>
  <g
     inkscape:groupmode="layer"
     id="layer1"
     inkscape:label="Inverse Solid"
     style="display:inline">
    <g
       aria-label="OUT"
       id="text15809"
       style="font-weight:bold;font-size:21.1667px;line-height:1.25;font-family:Arial;-inkscape-font-specification:'Arial, Bold';font-variant-ligatures:none;text-align:center;text-anchor:middle;display:inline;fill:#252525;fill-opacity:1;stroke-width:2.64583"
       transform="translate(38.36471)">
      <path
         d="m 118.56624,857.18112 q 0,-2.31511 0.69247,-3.88607 0.51677,-1.15756 1.4056,-2.0774 0.89917,-0.91984 1.96371,-1.36426 1.41594,-0.59945 3.26595,-0.59945 3.34864,0 5.35369,2.0774 2.01539,2.07739 2.01539,5.77743 0,3.66904 -1.99472,5.74643 -1.99471,2.06706 -5.33301,2.06706 -3.37965,0 -5.37436,-2.05672 -1.99472,-2.06706 -1.99472,-5.68442 z m 3.15227,-0.10335 q 0,2.57349 1.18856,3.90674 1.18856,1.32292 3.01791,1.32292 1.82935,0 2.99724,-1.31258 1.17822,-1.32292 1.17822,-3.95842 0,-2.6045 -1.14722,-3.88608 -1.13688,-1.28158 -3.02824,-1.28158 -1.89136,0 -3.04891,1.30225 -1.15756,1.29192 -1.15756,3.90675 z"
         id="path1671"
         style="fill:#252525;fill-opacity:1" />
      <path
         d="m 135.62983,849.51233 h 3.05925 v 8.20623 q 0,1.95337 0.11369,2.53215 0.19637,0.93017 0.93018,1.49861 0.74414,0.55811 2.02572,0.55811 1.30224,0 1.9637,-0.5271 0.66146,-0.53744 0.79582,-1.31258 0.13436,-0.77515 0.13436,-2.57349 v -8.38193 h 3.05925 v 7.95818 q 0,2.72852 -0.24805,3.85507 -0.24804,1.12654 -0.91984,1.90169 -0.66146,0.77515 -1.77767,1.24024 -1.11621,0.45475 -2.91456,0.45475 -2.17041,0 -3.29696,-0.49609 -1.11621,-0.50643 -1.76734,-1.30225 -0.65112,-0.80615 -0.85783,-1.68466 -0.29972,-1.30224 -0.29972,-3.84473 z"
         id="path1673"
         style="fill:#252525;fill-opacity:1" />
      <path
         d="m 154.34706,864.66388 v -12.5884 h -4.49585 v -2.56315 h 12.04063 v 2.56315 h -4.48553 v 12.5884 z"
         id="path1675"
         style="fill:#252525;fill-opacity:1" />
    </g>
  </g>
  <g
     inkscape:groupmode="layer"
     id="layer8"
     inkscape:label="Inverse Line"
     style="display:inline" />
  <g
     inkscape:groupmode="layer"
     id="layer2"
     inkscape:label="Widget"
     style="display:none">
    <circle
       style="display:inline;fill:#ff0000;stroke:#ff0000;stroke-width:5.15745;stroke-opacity:1"
       id="path1065-7-2-8-1-28-1-7"
       cx="293.68768"
       cy="199.76047"
       r="11.973363" />
    <ellipse
       style="display:inline;fill:#ff0000;stroke:#ff0000;stroke-width:5.15745;stroke-opacity:1"
       id="path1065-7-2-8-1-28"
       cx="63.499893"
       cy="120.38541"
       rx="11.973358"
       ry="11.973363" />
    <ellipse
       style="display:inline;fill:#ff0000;stroke:#ff0000;stroke-width:5.15745;stroke-opacity:1"
       id="path1065-7-2-8-1-28-9"
       cx="293.68768"
       cy="120.38541"
       rx="11.973358"
       ry="11.973363" />
    <ellipse
       style="display:inline;fill:#ff0000;stroke:#ff0000;stroke-width:5.15745;stroke-opacity:1"
       id="path1065-7-2-8-1-28-7"
       cx="63.499893"
       cy="199.76047"
       rx="11.973358"
       ry="11.973363" />
    <circle
       style="display:inline;fill:#ff0000;stroke:#ff0000;stroke-width:5.15744;stroke-opacity:1"
       id="path1065-7-2-8-1"
       cx="178.59375"
       cy="903.55371"
       r="27.848814" />
    <circle
       style="display:inline;fill:#ff0000;stroke:#ff0000;stroke-width:5.15744;stroke-opacity:1"
       id="path1065-7-2-8-1-76"
       cx="63.499893"
       cy="522.55219"
       r="27.848814" />
    <circle
       style="display:inline;fill:#ff0000;stroke:#ff0000;stroke-width:5.15744;stroke-opacity:1"
       id="path1065-7-2-8-1-78"
       cx="63.499893"
       cy="646.90631"
       r="27.848814" />
    <circle
       style="display:inline;fill:#ff0000;stroke:#ff0000;stroke-width:5.15744;stroke-opacity:1"
       id="path1065-7-2-8-1-13"
       cx="63.499893"
       cy="903.55371"
       r="27.848814" />
    <circle
       style="display:inline;fill:#ff0000;stroke:#ff0000;stroke-width:5.15744;stroke-opacity:1"
       id="path1065-7-2-8-1-25"
       cx="178.59375"
       cy="522.55219"
       r="27.848814" />
    <circle
       style="display:inline;fill:#ff0000;stroke:#ff0000;stroke-width:5.15744;stroke-opacity:1"
       id="path1065-7-2-8-1-5"
       cx="178.59375"
       cy="646.90631"
       r="27.848814" />
    <ellipse
       style="display:inline;fill:#ff0000;stroke:#ff0000;stroke-width:5.15744;stroke-opacity:1"
       id="path1065-7-2-8-1-80"
       cx="63.499443"
       cy="776.55255"
       rx="27.848364"
       ry="27.848814" />
    <circle
       style="display:inline;fill:#ff0000;stroke:#ff0000;stroke-width:5.15745;stroke-opacity:1"
       id="path1065-7-2-8-1-2"
       cx="178.59375"
       cy="168.01042"
       r="43.723358" />
    <circle
       style="display:inline;fill:#ff0000;stroke:#ff0000;stroke-width:5.15744;stroke-opacity:1"
       id="path1065-7-2-8-1-6"
       cx="293.68768"
       cy="903.55377"
       r="27.848814" />
    <ellipse
       style="display:inline;fill:#ff0000;stroke:#ff0000;stroke-width:3.81201;stroke-opacity:1"
       id="path1065-7-2-8-1-1-3-1"
       cx="265.90628"
       cy="834.76141"
       rx="20.583578"
       ry="20.583576" />
    <ellipse
       style="display:inline;fill:#ff0000;stroke:#ff0000;stroke-width:3.81201;stroke-opacity:1"
       id="path1065-7-2-8-1-1-3-1-5"
       cx="321.46866"
       cy="834.76141"
       rx="20.583578"
       ry="20.583576" />
    <circle
       style="display:inline;fill:#ff0000;stroke:#ff0000;stroke-width:5.15744;stroke-opacity:1"
       id="path1065-7-2-8-1-6-2"
       cx="293.68768"
       cy="731.5722"
       r="27.848814" />
    <ellipse
       style="display:inline;fill:#ff0000;stroke:#ff0000;stroke-width:3.81201;stroke-opacity:1"
       id="path1065-7-2-8-1-1-3-1-7"
       cx="265.90628"
       cy="662.78003"
       rx="20.583578"
       ry="20.583576" />
    <ellipse
       style="display:inline;fill:#ff0000;stroke:#ff0000;stroke-width:3.81201;stroke-opacity:1"
       id="path1065-7-2-8-1-1-3-1-5-7"
       cx="321.46866"
       cy="662.78003"
       rx="20.583578"
       ry="20.583576" />
    <circle
       style="display:inline;fill:#ff0000;stroke:#ff0000;stroke-width:5.15744;stroke-opacity:1"
       id="path1065-7-2-8-1-6-0"
       cx="293.68768"
       cy="559.59454"
       r="27.848814" />
    <ellipse
       style="display:inline;fill:#ff0000;stroke:#ff0000;stroke-width:3.81201;stroke-opacity:1"
       id="path1065-7-2-8-1-1-3-1-9"
       cx="265.90628"
       cy="490.80219"
       rx="20.583578"
       ry="20.583576" />
    <ellipse
       style="display:inline;fill:#ff0000;stroke:#ff0000;stroke-width:3.81201;stroke-opacity:1"
       id="path1065-7-2-8-1-1-3-1-5-6"
       cx="321.46866"
       cy="490.80219"
       rx="20.583578"
       ry="20.583576" />
    <circle
       style="display:inline;fill:#ff0000;stroke:#ff0000;stroke-width:5.15744;stroke-opacity:1"
       id="path1065-7-2-8-1-0"
       cx="63.499893"
       cy="306.91669"
       r="26.525448" />
    <circle
       style="display:inline;fill:#ff0000;stroke:#ff0000;stroke-width:5.15744;stroke-opacity:1"
       id="path1065-7-2-8-1-0-1"
       cx="63.499893"
       cy="428.62512"
       r="26.525448" />
    <circle
       style="display:inline;fill:#ff0000;stroke:#ff0000;stroke-width:5.15744;stroke-opacity:1"
       id="path1065-7-2-8-1-0-5"
       cx="178.59375"
       cy="428.62512"
       r="26.525448" />
    <circle
       style="display:inline;fill:#ff0000;stroke:#ff0000;stroke-width:5.15744;stroke-opacity:1"
       id="path1065-7-2-8-1-1"
       cx="178.59375"
       cy="776.55212"
       r="27.848364" />
    <circle
       style="display:inline;fill:#ff0000;stroke:#ff0000;stroke-width:5.15744;stroke-opacity:1"
       id="path1065-7-2-8-1-6-3"
       cx="293.68768"
       cy="387.61429"
       r="27.848814" />
    <ellipse
       style="display:inline;fill:#ff0000;stroke:#ff0000;stroke-width:3.81201;stroke-opacity:1"
       id="path1065-7-2-8-1-1-3-1-95"
       cx="265.90628"
       cy="318.82193"
       rx="20.583578"
       ry="20.583576" />
    <ellipse
       style="display:inline;fill:#ff0000;stroke:#ff0000;stroke-width:3.81201;stroke-opacity:1"
       id="path1065-7-2-8-1-1-3-1-5-5"
       cx="321.46866"
       cy="318.82193"
       rx="20.583578"
       ry="20.583576" />
    <ellipse
       style="display:inline;fill:#ff0000;stroke:#ff0000;stroke-width:5.15745;stroke-opacity:1"
       id="path1065-7-2-8-1-28-8-0"
       cx="293.68768"
       cy="279.1344"
       rx="11.973361"
       ry="11.973363" />
    <rect
       style="display:inline;opacity:0.995935;fill:#ff0000;stroke:none;stroke-width:2.64583"
       id="rect6025"
       width="63.500004"
       height="63.5"
       x="146.84375"
       y="264.58234"
       ry="14.210836"
       rx="14.210836" />
  </g>
</svg>
