<?xml version="1.0" encoding="UTF-8" standalone="no"?>
<svg
   width="105"
   height="380"
   viewBox="0 0 105 380"
   version="1.1"
   id="svg100"
   sodipodi:docname="WaveMangler_Coal.svg"
   inkscape:version="1.1.1 (3bf5ae0d25, 2021-09-20)"
   xmlns:inkscape="http://www.inkscape.org/namespaces/inkscape"
   xmlns:sodipodi="http://sodipodi.sourceforge.net/DTD/sodipodi-0.dtd"
   xmlns="http://www.w3.org/2000/svg"
   xmlns:svg="http://www.w3.org/2000/svg"
   xmlns:rdf="http://www.w3.org/1999/02/22-rdf-syntax-ns#"
   xmlns:cc="http://creativecommons.org/ns#"
   xmlns:dc="http://purl.org/dc/elements/1.1/">
  <metadata
     id="metadata104">
    <rdf:RDF>
      <cc:Work
         rdf:about="">
        <dc:format>image/svg+xml</dc:format>
        <dc:type
           rdf:resource="http://purl.org/dc/dcmitype/StillImage" />
      </cc:Work>
    </rdf:RDF>
  </metadata>
  <sodipodi:namedview
     pagecolor="#ffffff"
     bordercolor="#666666"
     borderopacity="1"
     objecttolerance="1"
     gridtolerance="1"
     guidetolerance="1"
     inkscape:pageopacity="0"
     inkscape:pageshadow="2"
     inkscape:window-width="1920"
     inkscape:window-height="1057"
     id="namedview102"
     showgrid="false"
     inkscape:zoom="2.2342105"
     inkscape:cx="55.50059"
     inkscape:cy="188.20966"
     inkscape:window-x="1592"
     inkscape:window-y="-8"
     inkscape:window-maximized="1"
     inkscape:current-layer="layer2"
     inkscape:pagecheckerboard="0"
     units="px"
     inkscape:showpageshadow="false"
     showguides="false">
    <inkscape:grid
       type="xygrid"
       id="grid1285"
       visible="true"
       dotted="false"
       snapvisiblegridlinesonly="true"
       enabled="true" />
  </sodipodi:namedview>
  <defs
     id="defs7">
    <rect
       x="85"
       y="10"
       width="51.058132"
       height="25"
       id="rect29906" />
    <linearGradient
       id="a8e142bb-541b-4903-be63-d5d069028a5d"
       x1="22.5"
       x2="22.5"
       y2="380"
       gradientUnits="userSpaceOnUse">
      <stop
         offset="0"
         stop-color="#ebebeb"
         id="stop2" />
      <stop
         offset="1"
         stop-color="#e1e1e1"
         id="stop4" />
    </linearGradient>
  </defs>
  <g
     inkscape:groupmode="layer"
     id="layer4"
     inkscape:label="Faceplate"
     style="display:inline">
    <g
       id="aea613ef-74be-49bf-be45-c0734aee674b"
       data-name="FND BG"
       style="fill:#252525;fill-opacity:1;stroke-width:1.25357"
       transform="scale(2.3333333,1)">
      <rect
         width="45"
         height="380"
         fill="url(#a8e142bb-541b-4903-be63-d5d069028a5d)"
         id="rect9"
         style="fill:#252525;fill-opacity:1;stroke-width:1.25357"
         x="0"
         y="0" />
    </g>
  </g>
  <g
     inkscape:groupmode="layer"
     id="layer3"
     inkscape:label="Brand"
     style="display:inline">
    <g
       id="g42796"
       transform="matrix(0.30458296,0,0,0.30458296,29.437549,-12.68508)"
       style="fill:#ff0000">
      <g
         aria-label="enom"
         id="text4270-27"
         style="font-size:49.3889px;line-height:1.25;font-family:'NECK ROMANCER';-inkscape-font-specification:'NECK ROMANCER, Normal';font-variant-ligatures:none;text-align:center;text-anchor:middle;fill:#ff0000;stroke-width:2.64583">
        <path
           d="m 46.609141,1249.244 q 0,1.1576 0,3.4245 3.183269,0 9.453344,0 -1.639866,0.5787 -2.990343,1.2058 -1.350478,0.627 -2.363337,1.688 -1.350477,0 -4.051433,0 0,1.4952 0.434082,2.5563 0.385851,1.1093 1.832792,1.1093 2.266873,0 6.80062,0 0.482313,-0.1447 0.868164,-0.627 0.337619,-0.5305 0.627007,-1.7363 0,2.0257 0,6.1254 -3.520888,0 -10.562665,0 -1.543403,0 -2.652724,-2.2187 -1.109321,-2.1704 -1.109321,-6.3183 0,-1.9775 0,-5.836 -0.385851,-1.3504 -1.881023,-2.1221 -1.495171,-0.7235 -3.569119,-1.2058 6.607694,0 19.774852,0 0,2.9421 0,8.7781 -1.205783,-2.701 -2.218642,-3.6656 -1.012858,-0.9646 -2.700955,-1.1093 -0.916396,-0.097 -2.170411,-0.097 -1.205783,0.048 -2.845649,0.048 -0.241157,0 -0.675239,0 z"
           id="path42762"
           style="fill:#ff0000" />
        <path
           d="m 81.576869,1245.2891 q 0,5.8842 0,17.7009 0,3.0868 -0.144694,6.0771 -0.09646,3.0386 -0.337619,5.9325 -0.385851,-3.7138 -0.964627,-6.9936 -0.530545,-3.3279 -2.025717,-5.016 0,-2.9904 0,-8.9228 -0.241157,-1.3505 -0.72347,-2.2187 -0.482314,-0.8681 -1.06109,-1.3987 -1.109321,-1.0128 -2.411567,-1.1093 -1.350478,-0.097 -2.266874,-0.097 -0.482313,0 -1.44694,0 0,4.582 0,13.746 0,3.0868 -0.09646,6.0771 -0.144694,3.0386 -0.385851,5.9325 -0.38585,-3.7138 -0.916395,-6.9936 -0.578776,-3.3279 -2.025717,-5.016 0,-4.8232 0,-14.373 -0.385851,-1.3504 -1.881022,-2.1221 -1.495172,-0.7235 -3.56912,-1.2058 6.752389,0 20.257166,0 z"
           id="path42764"
           style="fill:#ff0000" />
        <path
           d="m 104.19737,1249.0511 q 0,3.3762 0,10.1768 0,1.5434 -1.92925,2.6528 -1.92926,1.1093 -6.077152,1.1093 -4.196128,0 -6.125382,-1.1093 -1.929254,-1.1094 -1.929254,-2.6528 0,-3.3762 0,-10.1768 0,-1.5434 1.929254,-2.6527 1.929254,-1.1093 6.125382,-1.1093 4.147892,0 6.077152,1.1093 1.92925,1.1093 1.92925,2.6527 z m -3.76204,7.91 q 0,-1.8811 0,-5.6431 0,-1.6881 -1.254019,-1.9775 -1.205783,-0.2894 -2.990343,-0.2894 -1.832792,0 -3.038575,0.2894 -1.254015,0.2894 -1.254015,1.9775 0,1.881 0,5.6431 0,1.6881 1.254015,1.9774 1.205783,0.2894 3.038575,0.2894 1.78456,0 2.990343,-0.2894 1.254019,-0.2893 1.254019,-1.9774 z"
           id="path42766"
           style="fill:#ff0000" />
        <path
           d="m 142.34837,1245.2891 q -2.02572,0.4823 -3.52089,1.2058 -1.5434,0.7717 -1.88102,2.1221 0,4.7749 0,14.373 -1.49517,1.6881 -2.02572,5.016 -0.57878,3.2798 -0.96463,6.9936 -0.24115,-2.8939 -0.33762,-5.9325 -0.14469,-2.9903 -0.14469,-6.0771 0,-4.582 0,-13.746 -0.48231,0 -1.39871,0 -0.53054,0 -1.15755,0 -0.62701,0 -1.30225,0.1447 -1.25401,0.2412 -2.41157,1.2058 -1.15755,0.9646 -1.63986,3.4727 0,2.9903 0,8.9228 -0.1447,0.627 -0.28939,1.1093 -0.0965,0.4823 -0.19292,0.8199 -0.53055,1.9775 -0.38586,1.3505 0.19293,-0.627 -0.28938,1.1576 -0.0965,0.3376 -0.24116,0.8681 -0.14469,0.5306 -0.33762,1.3023 -0.14469,-0.6753 -0.28939,-1.2058 -0.14469,-0.4823 -0.24115,-0.8199 -0.53055,-2.0258 -0.33762,-1.3023 0.19292,0.7717 -0.43409,-1.6881 -0.0482,-0.2894 -0.19292,-0.7235 -0.0965,-0.3858 -0.19293,-0.8681 0,-2.9904 0,-8.9228 -0.28939,-1.3505 -0.7717,-2.2187 -0.48231,-0.8681 -1.06109,-1.3987 -1.10932,-1.0128 -2.41157,-1.1093 -1.30224,-0.097 -2.26687,-0.097 -0.48231,0 -1.39871,0 0,4.582 0,13.746 0,3.0868 -0.14469,6.0771 -0.0965,3.0386 -0.33762,5.9325 -0.38585,-3.7138 -0.96463,-6.9936 -0.53054,-3.3279 -2.02572,-5.016 0,-4.8232 0,-14.373 -0.38585,-1.3504 -1.88102,-2.1221 -1.49517,-0.7235 -3.56912,-1.2058 3.95497,0 11.76845,0 1.15755,0.3858 3.47266,1.1575 0.7717,0.2894 1.59163,0.4341 0.81994,0.1447 1.6881,0.1447 0.86816,0 1.73633,-0.1447 0.81993,-0.1447 1.59163,-0.4341 1.15756,-0.3858 3.42443,-1.1575 3.95497,0 11.76845,0 z"
           id="path42768"
           style="fill:#ff0000" />
      </g>
      <g
         aria-label="V"
         transform="matrix(1.2363173,0,0,0.80885384,-497.88086,123.48586)"
         id="text4270-3-5-2"
         style="font-size:78.5061px;line-height:1.25;font-family:Nosferotica;-inkscape-font-specification:'Nosferotica, Normal';font-variant-ligatures:none;text-align:center;text-anchor:middle;fill:#ff0000;stroke-width:3.27108">
        <path
           d="m 431.64994,1360.6864 8.57428,-0.1022 c 0,0 -4.4079,1.0878 -5.59925,3.7285 -1.88083,4.1689 -3.64217,14.6628 -3.64217,14.6628 l -2.23339,11.5191 -1.83311,11.8311 -1.71824,21.3112 -1.69514,-21.3112 -1.92196,-11.5208 -2.5009,-11.8294 c 0,0 -1.52027,-10.287 -3.38278,-14.4832 -1.14458,-2.5787 -5.63367,-3.8059 -5.63367,-3.8059 h 8.4657 l 6.66875,29.1569 z"
           id="path30410"
           sodipodi:nodetypes="ccscccccccscccc"
           style="fill:#ff0000" />
      </g>
    </g>
  </g>
  <g
     id="f45e0130-37b7-4f8b-95b3-6408baa23eb1"
     data-name="components"
     style="display:inline"
     inkscape:groupmode="layer"
     inkscape:label="Solid">
    <rect
       x="57.260078"
       y="317"
       width="30.479843"
       height="40"
       rx="3.0260944"
       fill="#1f1f1f"
       id="rect56"
       style="fill:#ede7dc;fill-opacity:1;stroke-width:1.04428"
       ry="3.0260944" />
    <g
       aria-label="IN"
       id="text38746-0-2"
       style="font-weight:bold;font-size:8px;line-height:1.25;font-family:Arial;-inkscape-font-specification:'Arial, Bold';font-variant-ligatures:none;text-align:center;text-anchor:middle;display:inline;fill:#ede7dc;fill-opacity:1"
       transform="translate(-4.7458774,1.4476058)">
      <path
         d="m 34.34375,325.90234 v -5.72656 H 35.5 v 5.72656 z"
         id="path97104"
         style="fill:#ede7dc;fill-opacity:1" />
      <path
         d="m 36.613281,325.90234 v -5.72656 h 1.125 L 40.082031,324 v -3.82422 h 1.074219 v 5.72656 H 39.996094 L 37.6875,322.16797 v 3.73437 z"
         id="path97106"
         style="fill:#ede7dc;fill-opacity:1" />
    </g>
    <path
       style="color:#000000;display:inline;fill:#ede7dc;fill-opacity:1;-inkscape-stroke:none"
       d="m 22.172632,71.664918 v 1 h 32.492185 v -1 z"
       id="path78542-6" />
    <path
       style="color:#000000;display:inline;fill:#ede7dc;fill-opacity:1;stroke-dasharray:2, 2;-inkscape-stroke:none"
       d="m 51.673,71.664918 v 1 h 0.49218 v -1 z m 2.49218,0 v 1 h 2.00001 v -1 z m 4.00001,0 v 1 h 2 v -1 z m 4,0 v 1 h 2 v -1 z m 4,0 v 1 h 2 v -1 z m 4,0 v 1 h 2 v -1 z m 4,0 v 1 h 2 v -1 z m 4,0 v 1 h 2 v -1 z m 4,0 v 1 h 2 v -1 z"
       id="path78542-3-2" />
    <path
       style="color:#000000;display:inline;fill:#ede7dc;fill-opacity:1;-inkscape-stroke:none"
       d="m 21.818986,108.66492 v 1 h 32.492185 v -1 z"
       id="path78542-6-9" />
    <path
       style="color:#000000;display:inline;fill:#ede7dc;fill-opacity:1;stroke-dasharray:2, 2;-inkscape-stroke:none"
       d="m 51.673,108.66492 v 1 h 0.49218 v -1 z m 2.49218,0 v 1 h 2.00001 v -1 z m 4.00001,0 v 1 h 2 v -1 z m 4,0 v 1 h 2 v -1 z m 4,0 v 1 h 2 v -1 z m 4,0 v 1 h 2 v -1 z m 4,0 v 1 h 2 v -1 z m 4,0 v 1 h 2 v -1 z m 4,0 v 1 h 2 v -1 z"
       id="path78542-3-2-1" />
    <path
       style="color:#000000;display:inline;fill:#ede7dc;fill-opacity:1;stroke-width:1;-inkscape-stroke:none"
       d="m 23.161471,147.66489 v 1 h 32.491521 v -1 z"
       id="path78542-6-2" />
    <path
       style="color:#000000;display:inline;fill:#ede7dc;fill-opacity:1;stroke-width:1;stroke-dasharray:2, 2;-inkscape-stroke:none"
       d="m 51.672146,147.66489 v 1 h 0.49217 v -1 z m 2.492129,0 v 1 h 1.999969 v -1 z m 3.999928,0 v 1 h 1.999959 v -1 z m 3.999918,0 v 1 h 1.999959 v -1 z m 3.999918,0 v 1 h 1.999959 v -1 z m 3.999918,0 v 1 h 1.999959 v -1 z m 3.999918,0 v 1 h 1.999959 v -1 z m 3.999918,0 v 1 h 1.99996 v -1 z m 3.999919,0 v 1 h 1.999959 v -1 z"
       id="path78542-3-2-12" />
    <path
       style="color:#000000;display:inline;fill:#ede7dc;fill-opacity:1;stroke-width:1;-inkscape-stroke:none"
       d="m 22.713895,184.66489 v 1 h 32.491521 v -1 z"
       id="path78542-6-1" />
    <path
       style="color:#000000;display:inline;fill:#ede7dc;fill-opacity:1;stroke-width:1;stroke-dasharray:2, 2;-inkscape-stroke:none"
       d="m 51.672147,184.66489 v 1 h 0.49217 v -1 z m 2.492129,0 v 1 h 1.999969 v -1 z m 3.999927,0 v 1 h 1.999959 v -1 z m 3.999918,0 v 1 h 1.999959 v -1 z m 3.999918,0 v 1 h 1.999959 v -1 z m 3.999918,0 v 1 h 1.999959 v -1 z m 3.999918,0 v 1 h 1.999959 v -1 z m 3.999918,0 v 1 h 1.99996 v -1 z m 3.999919,0 v 1 h 1.999959 v -1 z"
       id="path78542-3-2-5" />
    <path
       style="color:#000000;display:inline;fill:#ede7dc;fill-opacity:1;stroke-width:1;-inkscape-stroke:none"
       d="m 20.923591,221.66489 v 1 H 53.41511 v -1 z"
       id="path78542-6-21" />
    <path
       style="color:#000000;display:inline;fill:#ede7dc;fill-opacity:1;stroke-width:1;stroke-dasharray:2, 2;-inkscape-stroke:none"
       d="m 51.672146,221.66489 v 1 h 0.49217 v -1 z m 2.492129,0 v 1 h 1.999969 v -1 z m 3.999928,0 v 1 h 1.999959 v -1 z m 3.999918,0 v 1 h 1.999959 v -1 z m 3.999918,0 v 1 h 1.999959 v -1 z m 3.999918,0 v 1 h 1.999959 v -1 z m 3.999918,0 v 1 h 1.999959 v -1 z m 3.999918,0 v 1 h 1.99996 v -1 z m 3.999919,0 v 1 h 1.999959 v -1 z"
       id="path78542-3-2-3" />
    <path
       style="color:#000000;display:inline;fill:#ede7dc;fill-opacity:1;stroke-width:1;-inkscape-stroke:none"
       d="m 20.923591,258.66489 v 1 H 53.41511 v -1 z"
       id="path78542-6-6" />
    <path
       style="color:#000000;display:inline;fill:#ede7dc;fill-opacity:1;stroke-width:1;stroke-dasharray:2, 2;-inkscape-stroke:none"
       d="m 51.672146,258.66489 v 1 h 0.49217 v -1 z m 2.492129,0 v 1 h 1.999969 v -1 z m 3.999928,0 v 1 h 1.999959 v -1 z m 3.999918,0 v 1 h 1.999959 v -1 z m 3.999918,0 v 1 h 1.999959 v -1 z m 3.999918,0 v 1 h 1.999959 v -1 z m 3.999918,0 v 1 h 1.999959 v -1 z m 3.999918,0 v 1 h 1.99996 v -1 z m 3.999919,0 v 1 h 1.999959 v -1 z"
       id="path78542-3-2-50" />
    <path
       style="color:#000000;display:inline;fill:#ede7dc;fill-opacity:1;stroke-width:1;-inkscape-stroke:none"
       d="m 21.818743,295.66489 v 1 h 32.49152 v -1 z"
       id="path78542-6-7" />
    <path
       style="color:#000000;display:inline;fill:#ede7dc;fill-opacity:1;stroke-width:1;stroke-dasharray:2, 2;-inkscape-stroke:none"
       d="m 51.672146,295.66489 v 1 h 0.49217 v -1 z m 2.492129,0 v 1 h 1.999969 v -1 z m 3.999928,0 v 1 h 1.999959 v -1 z m 3.999918,0 v 1 h 1.999959 v -1 z m 3.999918,0 v 1 h 1.999959 v -1 z m 3.999918,0 v 1 h 1.999959 v -1 z m 3.999918,0 v 1 h 1.999959 v -1 z m 3.999918,0 v 1 h 1.99996 v -1 z m 3.999919,0 v 1 h 1.999959 v -1 z"
       id="path78542-3-2-58" />
    <g
       aria-label="INPUT OFFSET"
       id="text4916-6-1"
       style="font-weight:bold;font-size:8px;line-height:1.25;font-family:Arial;-inkscape-font-specification:'Arial, Bold';font-variant-ligatures:none;text-align:center;text-anchor:middle;display:inline;fill:#ede7dc;fill-opacity:1;stroke-width:0.999988"
       transform="matrix(1.0000239,0,0,1,147.29413,-5.0549476)">
      <path
         d="m -123.32365,63.900269 v -5.726563 h 1.15625 v 5.726563 z"
         id="path1451"
         style="fill:#ede7dc;fill-opacity:1;stroke-width:0.999988" />
      <path
         d="m -121.05412,63.900269 v -5.726563 h 1.125 l 2.34375,3.824219 v -3.824219 h 1.07422 v 5.726563 h -1.16016 l -2.30859,-3.734375 v 3.734375 z"
         id="path1453"
         style="fill:#ede7dc;fill-opacity:1;stroke-width:0.999988" />
      <path
         d="m -115.2885,63.900269 v -5.726563 h 1.85547 q 1.05469,0 1.375,0.08594 0.49219,0.128906 0.82422,0.5625 0.33203,0.429687 0.33203,1.113281 0,0.527344 -0.19141,0.886719 -0.1914,0.359375 -0.48828,0.566406 -0.29297,0.203125 -0.59765,0.269531 -0.41407,0.08203 -1.19922,0.08203 h -0.75391 v 2.160157 z m 1.15625,-4.757813 v 1.625 h 0.63281 q 0.6836,0 0.91407,-0.08984 0.23047,-0.08984 0.35937,-0.28125 0.13281,-0.191406 0.13281,-0.445312 0,-0.3125 -0.18359,-0.515625 -0.18359,-0.203125 -0.46484,-0.253906 -0.20703,-0.03906 -0.83203,-0.03906 z"
         id="path1455"
         style="fill:#ede7dc;fill-opacity:1;stroke-width:0.999988" />
      <path
         d="m -109.96037,58.173706 h 1.15625 v 3.101563 q 0,0.738281 0.043,0.957031 0.0742,0.351562 0.35156,0.566406 0.28125,0.210938 0.76562,0.210938 0.49219,0 0.74219,-0.199219 0.25,-0.203125 0.30078,-0.496094 0.0508,-0.292969 0.0508,-0.972656 v -3.167969 h 1.15625 v 3.007813 q 0,1.03125 -0.0937,1.457031 -0.0937,0.425781 -0.34765,0.71875 -0.25,0.292969 -0.67188,0.46875 -0.42187,0.171875 -1.10156,0.171875 -0.82031,0 -1.24609,-0.1875 -0.42188,-0.191406 -0.66797,-0.492188 -0.2461,-0.304687 -0.32422,-0.636718 -0.11328,-0.492188 -0.11328,-1.453125 z"
         id="path1457"
         style="fill:#ede7dc;fill-opacity:1;stroke-width:0.999988" />
      <path
         d="m -102.88615,63.900269 v -4.757813 h -1.69922 v -0.96875 h 4.55078 v 0.96875 h -1.69531 v 4.757813 z"
         id="path1459"
         style="fill:#ede7dc;fill-opacity:1;stroke-width:0.999988" />
      <path
         d="m -97.300217,61.072144 q 0,-0.875 0.261719,-1.46875 0.195313,-0.4375 0.53125,-0.785157 0.339844,-0.347656 0.742188,-0.515625 0.535156,-0.226562 1.234375,-0.226562 1.265625,0 2.023437,0.785156 0.761719,0.785156 0.761719,2.183594 0,1.386719 -0.753906,2.171875 -0.753907,0.78125 -2.015625,0.78125 -1.277344,0 -2.03125,-0.777344 -0.753907,-0.78125 -0.753907,-2.148437 z m 1.191407,-0.03906 q 0,0.972656 0.449218,1.476563 0.449219,0.5 1.140625,0.5 0.691407,0 1.132813,-0.496094 0.445312,-0.5 0.445312,-1.496094 0,-0.984375 -0.433593,-1.46875 -0.429688,-0.484375 -1.144532,-0.484375 -0.714843,0 -1.152343,0.492188 -0.4375,0.488281 -0.4375,1.476562 z"
         id="path1461"
         style="fill:#ede7dc;fill-opacity:1;stroke-width:0.999988" />
      <path
         d="m -90.835373,63.900269 v -5.726563 h 3.925781 v 0.96875 h -2.769531 v 1.355469 h 2.390625 v 0.96875 h -2.390625 v 2.433594 z"
         id="path1463"
         style="fill:#ede7dc;fill-opacity:1;stroke-width:0.999988" />
      <path
         d="m -85.948654,63.900269 v -5.726563 h 3.925781 v 0.96875 h -2.769531 v 1.355469 h 2.390625 v 0.96875 h -2.390625 v 2.433594 z"
         id="path1465"
         style="fill:#ede7dc;fill-opacity:1;stroke-width:0.999988" />
      <path
         d="m -81.362717,62.036987 1.125,-0.109375 q 0.101563,0.566407 0.410157,0.832032 0.3125,0.265625 0.839843,0.265625 0.558594,0 0.839844,-0.234375 0.285156,-0.238282 0.285156,-0.554688 0,-0.203125 -0.121093,-0.34375 -0.117188,-0.144531 -0.414063,-0.25 -0.203125,-0.07031 -0.925781,-0.25 -0.929688,-0.230469 -1.304688,-0.566406 -0.527343,-0.472656 -0.527343,-1.152344 0,-0.4375 0.246093,-0.816406 0.25,-0.382813 0.714844,-0.582031 0.46875,-0.199219 1.128906,-0.199219 1.078125,0 1.621094,0.472656 0.546875,0.472656 0.574219,1.261719 l -1.15625,0.05078 q -0.07422,-0.441406 -0.320313,-0.632812 -0.242187,-0.195313 -0.730468,-0.195313 -0.503907,0 -0.789063,0.207031 -0.183594,0.132813 -0.183594,0.355469 0,0.203125 0.171875,0.347656 0.21875,0.183594 1.0625,0.382813 0.84375,0.199219 1.246094,0.414062 0.40625,0.210938 0.632813,0.582032 0.230468,0.367187 0.230468,0.910156 0,0.492187 -0.273437,0.921875 -0.273438,0.429687 -0.773438,0.640625 -0.5,0.207031 -1.246093,0.207031 -1.085938,0 -1.667969,-0.5 -0.582031,-0.503906 -0.695313,-1.464844 z"
         id="path1467"
         style="fill:#ede7dc;fill-opacity:1;stroke-width:0.999988" />
      <path
         d="m -75.73381,63.900269 v -5.726563 h 4.246093 v 0.96875 h -3.089843 v 1.269531 h 2.875 v 0.964844 h -2.875 v 1.558594 h 3.199218 v 0.964844 z"
         id="path1469"
         style="fill:#ede7dc;fill-opacity:1;stroke-width:0.999988" />
      <path
         d="m -69.10881,63.900269 v -4.757813 h -1.699219 v -0.96875 h 4.550781 v 0.96875 h -1.695312 v 4.757813 z"
         id="path1471"
         style="fill:#ede7dc;fill-opacity:1;stroke-width:0.999988" />
    </g>
    <g
       aria-label="OUTPUT OFFSET"
       id="text4916-6-1-0"
       style="font-weight:bold;font-size:8px;line-height:1.25;font-family:Arial;-inkscape-font-specification:'Arial, Bold';font-variant-ligatures:none;text-align:center;text-anchor:middle;display:inline;fill:#ede7dc;fill-opacity:1;stroke-width:0.999988"
       transform="matrix(1.0000239,0,0,1,155.54813,-5.0549476)">
      <path
         d="m -136.12042,98.072144 q 0,-0.875 0.26172,-1.46875 0.19531,-0.4375 0.53125,-0.785157 0.33984,-0.347656 0.74218,-0.515625 0.53516,-0.226562 1.23438,-0.226562 1.26562,0 2.02344,0.785156 0.76172,0.785156 0.76172,2.183594 0,1.386719 -0.75391,2.17187 -0.75391,0.78125 -2.01563,0.78125 -1.27734,0 -2.03125,-0.77734 -0.7539,-0.781249 -0.7539,-2.148436 z m 1.1914,-0.03906 q 0,0.972656 0.44922,1.476563 0.44922,0.499993 1.14063,0.499993 0.6914,0 1.13281,-0.496087 0.44531,-0.5 0.44531,-1.496094 0,-0.984375 -0.43359,-1.46875 -0.42969,-0.484375 -1.14453,-0.484375 -0.71485,0 -1.15235,0.492188 -0.4375,0.488281 -0.4375,1.476562 z"
         id="path1474"
         style="fill:#ede7dc;fill-opacity:1;stroke-width:0.999988" />
      <path
         d="m -129.6712,95.173706 h 1.15625 v 3.101563 q 0,0.738281 0.043,0.957031 0.0742,0.351562 0.35156,0.566406 0.28125,0.210934 0.76562,0.210934 0.49219,0 0.74219,-0.199215 0.25,-0.203125 0.30078,-0.496094 0.0508,-0.292969 0.0508,-0.972656 v -3.167969 h 1.15625 v 3.007813 q 0,1.03125 -0.0937,1.457031 -0.0937,0.42578 -0.34765,0.71875 -0.25,0.29297 -0.67188,0.46875 -0.42187,0.17187 -1.10156,0.17187 -0.82031,0 -1.24609,-0.1875 -0.42188,-0.1914 -0.66797,-0.49218 -0.2461,-0.30469 -0.32422,-0.636721 -0.11328,-0.492188 -0.11328,-1.453125 z"
         id="path1476"
         style="fill:#ede7dc;fill-opacity:1;stroke-width:0.999988" />
      <path
         d="m -122.59698,100.90027 v -4.757814 h -1.69922 v -0.96875 h 4.55078 v 0.96875 h -1.69531 v 4.757814 z"
         id="path1478"
         style="fill:#ede7dc;fill-opacity:1;stroke-width:0.999988" />
      <path
         d="m -118.99933,100.90027 v -5.726564 h 1.85547 q 1.05469,0 1.375,0.08594 0.49219,0.128906 0.82422,0.5625 0.33203,0.429687 0.33203,1.113281 0,0.527344 -0.19141,0.886719 -0.1914,0.359375 -0.48828,0.566406 -0.29297,0.203125 -0.59765,0.269531 -0.41407,0.08203 -1.19922,0.08203 h -0.75391 v 2.160157 z m 1.15625,-4.757814 v 1.625 h 0.63281 q 0.6836,0 0.91407,-0.08984 0.23047,-0.08984 0.35937,-0.28125 0.13281,-0.191406 0.13281,-0.445312 0,-0.3125 -0.18359,-0.515625 -0.18359,-0.203125 -0.46484,-0.253906 -0.20703,-0.03906 -0.83203,-0.03906 z"
         id="path1480"
         style="fill:#ede7dc;fill-opacity:1;stroke-width:0.999988" />
      <path
         d="m -113.6712,95.173706 h 1.15625 v 3.101563 q 0,0.738281 0.043,0.957031 0.0742,0.351562 0.35156,0.566406 0.28125,0.210934 0.76562,0.210934 0.49219,0 0.74219,-0.199215 0.25,-0.203125 0.30078,-0.496094 0.0508,-0.292969 0.0508,-0.972656 v -3.167969 h 1.15625 v 3.007813 q 0,1.03125 -0.0937,1.457031 -0.0937,0.42578 -0.34765,0.71875 -0.25,0.29297 -0.67188,0.46875 -0.42187,0.17187 -1.10156,0.17187 -0.82031,0 -1.24609,-0.1875 -0.42188,-0.1914 -0.66797,-0.49218 -0.2461,-0.30469 -0.32422,-0.636721 -0.11328,-0.492188 -0.11328,-1.453125 z"
         id="path1482"
         style="fill:#ede7dc;fill-opacity:1;stroke-width:0.999988" />
      <path
         d="m -106.59698,100.90027 v -4.757814 h -1.69922 v -0.96875 h 4.55078 v 0.96875 h -1.69531 v 4.757814 z"
         id="path1484"
         style="fill:#ede7dc;fill-opacity:1;stroke-width:0.999988" />
      <path
         d="m -101.01105,98.072144 q 0,-0.875 0.26172,-1.46875 0.19531,-0.4375 0.53125,-0.785157 0.339845,-0.347656 0.742189,-0.515625 0.535156,-0.226562 1.234375,-0.226562 1.265625,0 2.023437,0.785156 0.761719,0.785156 0.761719,2.183594 0,1.386719 -0.753906,2.17187 -0.753906,0.78125 -2.015625,0.78125 -1.277344,0 -2.031249,-0.77734 -0.75391,-0.781249 -0.75391,-2.148436 z m 1.191409,-0.03906 q 0,0.972656 0.449219,1.476563 0.449218,0.499993 1.140625,0.499993 0.691406,0 1.132812,-0.496087 0.445313,-0.5 0.445313,-1.496094 0,-0.984375 -0.433594,-1.46875 -0.429688,-0.484375 -1.144531,-0.484375 -0.714844,0 -1.152344,0.492188 -0.4375,0.488281 -0.4375,1.476562 z"
         id="path1486"
         style="fill:#ede7dc;fill-opacity:1;stroke-width:0.999988" />
      <path
         d="m -94.546204,100.90027 v -5.726564 h 3.925782 v 0.96875 h -2.769532 v 1.355469 h 2.390625 v 0.96875 h -2.390625 v 2.433595 z"
         id="path1488"
         style="fill:#ede7dc;fill-opacity:1;stroke-width:0.999988" />
      <path
         d="m -89.659485,100.90027 v -5.726564 h 3.925781 v 0.96875 h -2.769531 v 1.355469 h 2.390625 v 0.96875 h -2.390625 v 2.433595 z"
         id="path1490"
         style="fill:#ede7dc;fill-opacity:1;stroke-width:0.999988" />
      <path
         d="m -85.073547,99.036987 1.125,-0.109375 q 0.101562,0.566407 0.410156,0.832032 0.3125,0.265626 0.839844,0.265626 0.558593,0 0.839843,-0.234376 0.285157,-0.238282 0.285157,-0.554688 0,-0.203125 -0.121094,-0.34375 -0.117188,-0.144531 -0.414063,-0.25 -0.203125,-0.07031 -0.925781,-0.25 -0.929687,-0.230469 -1.304687,-0.566406 -0.527344,-0.472656 -0.527344,-1.152344 0,-0.4375 0.246094,-0.816406 0.25,-0.382813 0.714843,-0.582031 0.46875,-0.199219 1.128907,-0.199219 1.078125,0 1.621093,0.472656 0.546875,0.472656 0.574219,1.261719 l -1.15625,0.05078 q -0.07422,-0.441406 -0.320312,-0.632812 -0.242188,-0.195313 -0.730469,-0.195313 -0.503906,0 -0.789063,0.207031 -0.183593,0.132813 -0.183593,0.355469 0,0.203125 0.171875,0.347656 0.21875,0.183594 1.0625,0.382813 0.84375,0.199219 1.246093,0.414062 0.40625,0.210938 0.632813,0.582032 0.230469,0.367187 0.230469,0.910156 0,0.492187 -0.273438,0.921871 -0.273437,0.42969 -0.773437,0.64063 -0.5,0.20703 -1.246094,0.20703 -1.085938,0 -1.667969,-0.5 -0.582031,-0.503906 -0.695312,-1.464843 z"
         id="path1492"
         style="fill:#ede7dc;fill-opacity:1;stroke-width:0.999988" />
      <path
         d="m -79.444641,100.90027 v -5.726564 h 4.246094 v 0.96875 h -3.089844 v 1.269531 h 2.875 v 0.964844 h -2.875 v 1.558594 h 3.199219 v 0.964845 z"
         id="path1494"
         style="fill:#ede7dc;fill-opacity:1;stroke-width:0.999988" />
      <path
         d="m -72.819641,100.90027 v -4.757814 h -1.699219 v -0.96875 h 4.550781 v 0.96875 h -1.695312 v 4.757814 z"
         id="path1496"
         style="fill:#ede7dc;fill-opacity:1;stroke-width:0.999988" />
    </g>
    <g
       aria-label="LOW THRESHOLD"
       id="text4916-1"
       style="font-weight:bold;font-size:8px;line-height:1.25;font-family:Arial;-inkscape-font-specification:'Arial, Bold';font-variant-ligatures:none;text-align:center;text-anchor:middle;display:inline;fill:#ede7dc;fill-opacity:1;stroke-width:0.999998"
       transform="matrix(1.0000034,0,0,1,131.27584,-3.0549742)">
      <path
         d="m -113.59924,248.90027 v -5.67969 h 1.15625 v 4.71484 h 2.875 v 0.96485 z"
         id="path1499"
         style="fill:#ede7dc;fill-opacity:1;stroke-width:0.999998" />
      <path
         d="m -108.97815,246.07214 q 0,-0.875 0.26172,-1.46875 0.19531,-0.4375 0.53125,-0.78515 0.33984,-0.34766 0.74219,-0.51563 0.53515,-0.22656 1.23437,-0.22656 1.26563,0 2.02344,0.78516 0.76172,0.78515 0.76172,2.18359 0,1.38672 -0.75391,2.17187 -0.7539,0.78125 -2.01562,0.78125 -1.27735,0 -2.03125,-0.77734 -0.75391,-0.78125 -0.75391,-2.14844 z m 1.19141,-0.0391 q 0,0.97266 0.44922,1.47656 0.44921,0.5 1.14062,0.5 0.69141,0 1.13281,-0.49609 0.44532,-0.5 0.44532,-1.49609 0,-0.98438 -0.4336,-1.46875 -0.42969,-0.48438 -1.14453,-0.48438 -0.71484,0 -1.15234,0.49219 -0.4375,0.48828 -0.4375,1.47656 z"
         id="path1501"
         style="fill:#ede7dc;fill-opacity:1;stroke-width:0.999998" />
      <path
         d="m -101.70862,248.90027 -1.36719,-5.72656 h 1.1836 l 0.86328,3.93359 1.046874,-3.93359 h 1.375 l 1.003907,4 0.878906,-4 h 1.164062 l -1.390625,5.72656 h -1.226562 l -1.140625,-4.28125 -1.136717,4.28125 z"
         id="path1503"
         style="fill:#ede7dc;fill-opacity:1;stroke-width:0.999998" />
      <path
         d="m -91.458618,248.90027 v -4.75781 h -1.699219 v -0.96875 h 4.550781 v 0.96875 h -1.695312 v 4.75781 z"
         id="path1505"
         style="fill:#ede7dc;fill-opacity:1;stroke-width:0.999998" />
      <path
         d="m -87.857056,248.90027 v -5.72656 h 1.15625 v 2.2539 h 2.265625 v -2.2539 h 1.15625 v 5.72656 h -1.15625 v -2.50391 h -2.265625 v 2.50391 z"
         id="path1507"
         style="fill:#ede7dc;fill-opacity:1;stroke-width:0.999998" />
      <path
         d="m -82.079712,248.90027 v -5.72656 h 2.433594 q 0.917969,0 1.332031,0.15625 0.417969,0.15234 0.667969,0.54687 0.25,0.39453 0.25,0.90234 0,0.64454 -0.378906,1.06641 -0.378907,0.41797 -1.132813,0.52734 0.375,0.21875 0.617188,0.48047 0.246093,0.26172 0.660156,0.92969 l 0.699219,1.11719 h -1.382813 l -0.835937,-1.2461 q -0.445313,-0.66796 -0.609375,-0.83984 -0.164063,-0.17578 -0.347657,-0.23828 -0.183593,-0.0664 -0.582031,-0.0664 h -0.234375 v 2.39063 z m 1.15625,-3.30469 h 0.855469 q 0.832031,0 1.039062,-0.0703 0.207032,-0.0703 0.324219,-0.24219 0.117188,-0.17187 0.117188,-0.42969 0,-0.28906 -0.15625,-0.46484 -0.152344,-0.17969 -0.433594,-0.22656 -0.140625,-0.0195 -0.84375,-0.0195 h -0.902344 z"
         id="path1509"
         style="fill:#ede7dc;fill-opacity:1;stroke-width:0.999998" />
      <path
         d="m -76.306274,248.90027 v -5.72656 h 4.246093 v 0.96875 h -3.089843 v 1.26953 h 2.875 v 0.96484 h -2.875 v 1.55859 h 3.199218 v 0.96485 z"
         id="path1511"
         style="fill:#ede7dc;fill-opacity:1;stroke-width:0.999998" />
      <path
         d="m -71.263306,247.03699 1.125,-0.10938 q 0.101563,0.56641 0.410157,0.83203 0.3125,0.26563 0.839843,0.26563 0.558594,0 0.839844,-0.23438 0.285156,-0.23828 0.285156,-0.55468 0,-0.20313 -0.121093,-0.34375 -0.117188,-0.14454 -0.414063,-0.25 -0.203125,-0.0703 -0.925781,-0.25 -0.929688,-0.23047 -1.304688,-0.56641 -0.527343,-0.47266 -0.527343,-1.15234 0,-0.4375 0.246093,-0.81641 0.25,-0.38281 0.714844,-0.58203 0.46875,-0.19922 1.128906,-0.19922 1.078125,0 1.621094,0.47266 0.546875,0.47265 0.574219,1.26171 l -1.15625,0.0508 q -0.07422,-0.44141 -0.320313,-0.63282 -0.242187,-0.19531 -0.730468,-0.19531 -0.503907,0 -0.789063,0.20703 -0.183594,0.13281 -0.183594,0.35547 0,0.20313 0.171875,0.34766 0.21875,0.18359 1.0625,0.38281 0.84375,0.19922 1.246094,0.41406 0.40625,0.21094 0.632813,0.58203 0.230468,0.36719 0.230468,0.91016 0,0.49219 -0.273437,0.92187 -0.273438,0.42969 -0.773438,0.64063 -0.5,0.20703 -1.246093,0.20703 -1.085938,0 -1.667969,-0.5 -0.582031,-0.50391 -0.695313,-1.46484 z"
         id="path1513"
         style="fill:#ede7dc;fill-opacity:1;stroke-width:0.999998" />
      <path
         d="m -65.630493,248.90027 v -5.72656 h 1.15625 v 2.2539 h 2.265625 v -2.2539 h 1.15625 v 5.72656 h -1.15625 v -2.50391 h -2.265625 v 2.50391 z"
         id="path1515"
         style="fill:#ede7dc;fill-opacity:1;stroke-width:0.999998" />
      <path
         d="m -60.091431,246.07214 q 0,-0.875 0.261719,-1.46875 0.195313,-0.4375 0.53125,-0.78515 0.339844,-0.34766 0.742188,-0.51563 0.535156,-0.22656 1.234375,-0.22656 1.265625,0 2.023437,0.78516 0.761719,0.78515 0.761719,2.18359 0,1.38672 -0.753906,2.17187 -0.753907,0.78125 -2.015625,0.78125 -1.277344,0 -2.03125,-0.77734 -0.753907,-0.78125 -0.753907,-2.14844 z m 1.191407,-0.0391 q 0,0.97266 0.449218,1.47656 0.449219,0.5 1.140625,0.5 0.691407,0 1.132813,-0.49609 0.445312,-0.5 0.445312,-1.49609 0,-0.98438 -0.433593,-1.46875 -0.429688,-0.48438 -1.144532,-0.48438 -0.714843,0 -1.152343,0.49219 -0.4375,0.48828 -0.4375,1.47656 z"
         id="path1517"
         style="fill:#ede7dc;fill-opacity:1;stroke-width:0.999998" />
      <path
         d="m -53.603149,248.90027 v -5.67969 h 1.15625 v 4.71484 h 2.875 v 0.96485 z"
         id="path1519"
         style="fill:#ede7dc;fill-opacity:1;stroke-width:0.999998" />
      <path
         d="m -48.751587,243.17371 h 2.113281 q 0.714844,0 1.089844,0.10937 0.503906,0.14844 0.863281,0.52734 0.359375,0.37891 0.546875,0.92969 0.1875,0.54688 0.1875,1.35156 0,0.70704 -0.175781,1.21875 -0.214844,0.625 -0.613281,1.01172 -0.300781,0.29297 -0.8125,0.45703 -0.382813,0.1211 -1.023438,0.1211 h -2.175781 z m 1.15625,0.96875 v 3.79296 h 0.863281 q 0.484375,0 0.699219,-0.0547 0.28125,-0.0703 0.464844,-0.23828 0.1875,-0.16797 0.304687,-0.55079 0.117188,-0.38671 0.117188,-1.05078 0,-0.66406 -0.117188,-1.01953 -0.117187,-0.35547 -0.328125,-0.55469 -0.210937,-0.19921 -0.535156,-0.26953 -0.242187,-0.0547 -0.949219,-0.0547 z"
         id="path1521"
         style="fill:#ede7dc;fill-opacity:1;stroke-width:0.999998" />
    </g>
    <g
       aria-label="HIGH THRESHOLD"
       id="text4916-1-4"
       style="font-weight:bold;font-size:8px;line-height:1.25;font-family:Arial;-inkscape-font-specification:'Arial, Bold';font-variant-ligatures:none;text-align:center;text-anchor:middle;display:inline;fill:#ede7dc;fill-opacity:1;stroke-width:0.999998"
       transform="matrix(1.0000034,0,0,1,144.26954,-3.0549742)">
      <path
         d="m -127.27649,174.90027 v -5.72656 h 1.15625 v 2.2539 h 2.26563 v -2.2539 h 1.15625 v 5.72656 h -1.15625 v -2.50391 h -2.26563 v 2.50391 z"
         id="path1524"
         style="fill:#ede7dc;fill-opacity:1;stroke-width:0.999998" />
      <path
         d="m -121.53821,174.90027 v -5.72656 h 1.15625 v 5.72656 z"
         id="path1526"
         style="fill:#ede7dc;fill-opacity:1;stroke-width:0.999998" />
      <path
         d="m -116.61633,172.7948 v -0.96484 h 2.49218 v 2.28125 q -0.36328,0.35156 -1.05468,0.62109 -0.6875,0.26562 -1.39453,0.26562 -0.89844,0 -1.56641,-0.375 -0.66797,-0.3789 -1.00391,-1.07812 -0.33593,-0.70313 -0.33593,-1.52734 0,-0.89454 0.375,-1.58985 0.375,-0.69531 1.09765,-1.0664 0.55078,-0.28516 1.3711,-0.28516 1.0664,0 1.66406,0.44922 0.60156,0.44531 0.77344,1.23437 l -1.14844,0.21485 q -0.1211,-0.42188 -0.45703,-0.66407 -0.33203,-0.24609 -0.83203,-0.24609 -0.75782,0 -1.20704,0.48047 -0.44531,0.48047 -0.44531,1.42578 0,1.01953 0.45313,1.53125 0.45312,0.50781 1.1875,0.50781 0.36328,0 0.72656,-0.14062 0.36719,-0.14453 0.62891,-0.34766 v -0.72656 z"
         id="path1528"
         style="fill:#ede7dc;fill-opacity:1;stroke-width:0.999998" />
      <path
         d="m -113.05383,174.90027 v -5.72656 h 1.15625 v 2.2539 h 2.26562 v -2.2539 h 1.15625 v 5.72656 h -1.15625 v -2.50391 h -2.26562 v 2.50391 z"
         id="path1530"
         style="fill:#ede7dc;fill-opacity:1;stroke-width:0.999998" />
      <path
         d="m -103.76868,174.90027 v -4.75781 h -1.69922 v -0.96875 h 4.55079 v 0.96875 h -1.69532 v 4.75781 z"
         id="path1532"
         style="fill:#ede7dc;fill-opacity:1;stroke-width:0.999998" />
      <path
         d="m -100.16711,174.90027 v -5.72656 h 1.156246 v 2.2539 h 2.265625 v -2.2539 h 1.15625 v 5.72656 h -1.15625 v -2.50391 h -2.265625 v 2.50391 z"
         id="path1534"
         style="fill:#ede7dc;fill-opacity:1;stroke-width:0.999998" />
      <path
         d="m -94.389771,174.90027 v -5.72656 h 2.433594 q 0.917969,0 1.332031,0.15625 0.417969,0.15234 0.667969,0.54687 0.25,0.39453 0.25,0.90234 0,0.64454 -0.378906,1.06641 -0.378906,0.41797 -1.132813,0.52734 0.375,0.21875 0.617188,0.48047 0.246094,0.26172 0.660156,0.92969 l 0.699219,1.11719 h -1.382813 l -0.835937,-1.2461 q -0.445313,-0.66796 -0.609375,-0.83984 -0.164063,-0.17578 -0.347656,-0.23828 -0.183594,-0.0664 -0.582032,-0.0664 h -0.234375 v 2.39063 z m 1.15625,-3.30469 h 0.855469 q 0.832031,0 1.039063,-0.0703 0.207031,-0.0703 0.324218,-0.24219 0.117188,-0.17187 0.117188,-0.42969 0,-0.28906 -0.15625,-0.46484 -0.152344,-0.17969 -0.433594,-0.22656 -0.140625,-0.0195 -0.84375,-0.0195 h -0.902344 z"
         id="path1536"
         style="fill:#ede7dc;fill-opacity:1;stroke-width:0.999998" />
      <path
         d="m -88.616333,174.90027 v -5.72656 h 4.246094 v 0.96875 h -3.089844 v 1.26953 h 2.875 v 0.96484 h -2.875 v 1.55859 h 3.199219 v 0.96485 z"
         id="path1538"
         style="fill:#ede7dc;fill-opacity:1;stroke-width:0.999998" />
      <path
         d="m -83.573364,173.03699 1.125,-0.10938 q 0.101562,0.56641 0.410156,0.83203 0.3125,0.26563 0.839844,0.26563 0.558593,0 0.839843,-0.23438 0.285157,-0.23828 0.285157,-0.55468 0,-0.20313 -0.121094,-0.34375 -0.117188,-0.14454 -0.414063,-0.25 -0.203125,-0.0703 -0.925781,-0.25 -0.929687,-0.23047 -1.304687,-0.56641 -0.527344,-0.47266 -0.527344,-1.15234 0,-0.4375 0.246094,-0.81641 0.25,-0.38281 0.714843,-0.58203 0.46875,-0.19922 1.128907,-0.19922 1.078125,0 1.621093,0.47266 0.546875,0.47265 0.574219,1.26171 l -1.15625,0.0508 q -0.07422,-0.44141 -0.320312,-0.63282 -0.242188,-0.19531 -0.730469,-0.19531 -0.503906,0 -0.789063,0.20703 -0.183593,0.13281 -0.183593,0.35547 0,0.20313 0.171875,0.34766 0.21875,0.18359 1.0625,0.38281 0.84375,0.19922 1.246093,0.41406 0.40625,0.21094 0.632813,0.58203 0.230469,0.36719 0.230469,0.91016 0,0.49219 -0.273438,0.92187 -0.273437,0.42969 -0.773437,0.64063 -0.5,0.20703 -1.246094,0.20703 -1.085938,0 -1.667969,-0.5 -0.582031,-0.50391 -0.695312,-1.46484 z"
         id="path1540"
         style="fill:#ede7dc;fill-opacity:1;stroke-width:0.999998" />
      <path
         d="m -77.940552,174.90027 v -5.72656 h 1.15625 v 2.2539 h 2.265625 v -2.2539 h 1.15625 v 5.72656 h -1.15625 v -2.50391 h -2.265625 v 2.50391 z"
         id="path1542"
         style="fill:#ede7dc;fill-opacity:1;stroke-width:0.999998" />
      <path
         d="m -72.401489,172.07214 q 0,-0.875 0.261718,-1.46875 0.195313,-0.4375 0.53125,-0.78515 0.339844,-0.34766 0.742188,-0.51563 0.535156,-0.22656 1.234375,-0.22656 1.265625,0 2.023437,0.78516 0.761719,0.78515 0.761719,2.18359 0,1.38672 -0.753906,2.17187 -0.753906,0.78125 -2.015625,0.78125 -1.277344,0 -2.03125,-0.77734 -0.753906,-0.78125 -0.753906,-2.14844 z m 1.191406,-0.0391 q 0,0.97266 0.449219,1.47656 0.449218,0.5 1.140625,0.5 0.691406,0 1.132812,-0.49609 0.445313,-0.5 0.445313,-1.49609 0,-0.98438 -0.433594,-1.46875 -0.429688,-0.48438 -1.144531,-0.48438 -0.714844,0 -1.152344,0.49219 -0.4375,0.48828 -0.4375,1.47656 z"
         id="path1544"
         style="fill:#ede7dc;fill-opacity:1;stroke-width:0.999998" />
      <path
         d="m -65.913208,174.90027 v -5.67969 h 1.15625 v 4.71484 h 2.875 v 0.96485 z"
         id="path1546"
         style="fill:#ede7dc;fill-opacity:1;stroke-width:0.999998" />
      <path
         d="m -61.061646,169.17371 h 2.113282 q 0.714843,0 1.089843,0.10937 0.503907,0.14844 0.863282,0.52734 0.359375,0.37891 0.546875,0.92969 0.1875,0.54688 0.1875,1.35156 0,0.70704 -0.175782,1.21875 -0.214843,0.625 -0.613281,1.01172 -0.300781,0.29297 -0.8125,0.45703 -0.382812,0.1211 -1.023437,0.1211 h -2.175782 z m 1.15625,0.96875 v 3.79296 h 0.863282 q 0.484375,0 0.699218,-0.0547 0.28125,-0.0703 0.464844,-0.23828 0.1875,-0.16797 0.304688,-0.55079 0.117187,-0.38671 0.117187,-1.05078 0,-0.66406 -0.117187,-1.01953 -0.117188,-0.35547 -0.328125,-0.55469 -0.210938,-0.19921 -0.535157,-0.26953 -0.242187,-0.0547 -0.949218,-0.0547 z"
         id="path1548"
         style="fill:#ede7dc;fill-opacity:1;stroke-width:0.999998" />
    </g>
    <g
       aria-label="WAVE MANGLER"
       id="text3147"
       style="font-weight:bold;font-size:10.6667px;line-height:1.25;font-family:Arial;-inkscape-font-specification:'Arial, Bold';font-variant-ligatures:none;text-align:center;text-anchor:middle;display:inline;fill:#ede7dc;fill-opacity:1"
       transform="translate(103.98274,-2.475854)">
      <path
         d="m -93.36569,18.351002 -1.822922,-7.635441 h 1.57813 l 1.151045,5.244808 1.395838,-5.244808 h 1.833339 l 1.338546,5.33335 1.171879,-5.33335 h 1.552088 l -1.854173,7.635441 h -1.635421 l -1.520839,-5.708352 -1.515629,5.708352 z"
         id="path6949"
         style="fill:#ede7dc;fill-opacity:1" />
      <path
         d="m -78.084391,18.351002 h -1.677089 l -0.666669,-1.734381 h -3.052093 l -0.63021,1.734381 h -1.635422 l 2.973968,-7.635441 h 1.630213 z m -2.838551,-3.020843 -1.052087,-2.833342 -1.031253,2.833342 z"
         id="path6951"
         style="fill:#ede7dc;fill-opacity:1" />
      <path
         d="m -76.110427,18.351002 -2.729175,-7.635441 h 1.67188 l 1.932298,5.651059 1.869797,-5.651059 h 1.635422 l -2.734384,7.635441 z"
         id="path6953"
         style="fill:#ede7dc;fill-opacity:1" />
      <path
         d="m -70.943743,18.351002 v -7.635441 h 5.661476 v 1.291671 h -4.119805 v 1.692713 h 3.833346 v 1.286463 h -3.833346 v 2.078131 h 4.265639 v 1.286463 z"
         id="path6955"
         style="fill:#ede7dc;fill-opacity:1" />
      <path
         d="m -60.886421,18.351002 v -7.635441 h 2.307299 l 1.385421,5.20835 1.369796,-5.20835 h 2.312507 v 7.635441 h -1.432296 v -6.010436 l -1.51563,6.010436 h -1.484379 l -1.510422,-6.010436 v 6.010436 z"
         id="path6957"
         style="fill:#ede7dc;fill-opacity:1" />
      <path
         d="m -45.094705,18.351002 h -1.677088 l -0.666669,-1.734381 h -3.052093 l -0.63021,1.734381 h -1.635422 l 2.973968,-7.635441 h 1.630213 z m -2.83855,-3.020843 -1.052087,-2.833342 -1.031253,2.833342 z"
         id="path6959"
         style="fill:#ede7dc;fill-opacity:1" />
      <path
         d="m -44.261366,18.351002 v -7.635441 h 1.500005 l 3.125009,5.098974 v -5.098974 h 1.432297 v 7.635441 h -1.54688 l -3.078135,-4.979183 v 4.979183 z"
         id="path6961"
         style="fill:#ede7dc;fill-opacity:1" />
      <path
         d="m -33.021749,15.543701 v -1.286462 h 3.322927 v 3.041676 q -0.484376,0.468752 -1.406254,0.828128 -0.91667,0.354167 -1.859381,0.354167 -1.19792,0 -2.088548,-0.500001 -0.890628,-0.50521 -1.338546,-1.437505 -0.447918,-0.937503 -0.447918,-2.036464 0,-1.192713 0.500001,-2.119799 0.500002,-0.927086 1.463547,-1.421879 0.734377,-0.38021 1.82813,-0.38021 1.42188,0 2.218757,0.59896 0.802086,0.593752 1.031254,1.645839 l -1.531255,0.286459 q -0.161459,-0.562502 -0.609377,-0.885419 -0.44271,-0.328126 -1.109379,-0.328126 -1.010419,0 -1.60938,0.640627 -0.593751,0.640627 -0.593751,1.901047 0,1.35938 0.604168,2.041674 0.604169,0.677085 1.583338,0.677085 0.484377,0 0.968753,-0.187501 0.489585,-0.192709 0.838545,-0.463543 v -0.968753 z"
         id="path6963"
         style="fill:#ede7dc;fill-opacity:1" />
      <path
         d="m -28.235279,18.351002 v -7.572941 h 1.541672 v 6.286478 h 3.833345 v 1.286463 z"
         id="path6965"
         style="fill:#ede7dc;fill-opacity:1" />
      <path
         d="m -21.761298,18.351002 v -7.635441 h 5.661477 v 1.291671 h -4.119805 v 1.692713 h 3.833345 v 1.286463 h -3.833345 v 2.078131 h 4.265638 v 1.286463 z"
         id="path6967"
         style="fill:#ede7dc;fill-opacity:1" />
      <path
         d="m -14.64148,18.351002 v -7.635441 h 3.244801 q 1.223963,0 1.7760477,0.208334 0.5572935,0.203126 0.8906279,0.729169 0.3333343,0.526043 0.3333343,1.203129 0,0.859377 -0.5052099,1.421879 -0.5052099,0.557294 -1.510421,0.703127 0.5000012,0.291668 0.8229188,0.640627 0.3281261,0.34896 0.8802112,1.239588 l 0.9322946,1.489588 h -1.8437559 l -1.1145867,-1.661464 q -0.593752,-0.890628 -0.812503,-1.119795 -0.21875,-0.234376 -0.463543,-0.317709 -0.244792,-0.08854 -0.776044,-0.08854 h -0.312501 v 3.18751 z m 1.541671,-4.406264 h 1.140629 q 1.109378,0 1.385421,-0.09375 0.276042,-0.09375 0.432293,-0.322918 0.1562503,-0.229168 0.1562503,-0.572919 0,-0.385418 -0.2083343,-0.619793 -0.203125,-0.239584 -0.578127,-0.302085 -0.1875,-0.02604 -1.125003,-0.02604 h -1.203129 z"
         id="path6969"
         style="fill:#ede7dc;fill-opacity:1" />
    </g>
    <g
       aria-label="IN DC"
       id="text43724"
       style="font-weight:bold;font-size:6.66667px;line-height:1.25;font-family:Arial;-inkscape-font-specification:'Arial, Bold';font-variant-ligatures:none;text-align:center;text-anchor:middle;fill:#ede7dc;fill-opacity:1">
      <path
         d="m 6.3543994,29.988224 v -4.772138 h 0.9635421 v 4.772138 z"
         id="path55001"
         style="fill:#ede7dc;fill-opacity:1" />
      <path
         d="m 8.2456764,29.988224 v -4.772138 h 0.9375004 l 1.9531262,3.186851 v -3.186851 h 0.895182 v 4.772138 H 11.064688 L 9.1408591,26.876243 v 3.111981 z"
         id="path55003"
         style="fill:#ede7dc;fill-opacity:1" />
      <path
         d="m 14.899326,25.216086 h 1.761068 q 0.595704,0 0.908204,0.09115 0.419922,0.123698 0.719401,0.439454 0.29948,0.315755 0.45573,0.77474 0.15625,0.455729 0.15625,1.126302 0,0.589193 -0.146485,1.015626 -0.179036,0.520833 -0.511068,0.843099 -0.250651,0.244141 -0.677083,0.38086 -0.319011,0.100911 -0.852865,0.100911 h -1.813152 z m 0.963542,0.807292 v 3.160809 h 0.719401 q 0.403646,0 0.582683,-0.04557 0.234375,-0.05859 0.38737,-0.198568 0.15625,-0.139974 0.253906,-0.458984 0.09766,-0.322266 0.09766,-0.875652 0,-0.553385 -0.09766,-0.849609 -0.09766,-0.296224 -0.273437,-0.46224 -0.175782,-0.166016 -0.445964,-0.22461 -0.201823,-0.04557 -0.791016,-0.04557 z"
         id="path55005"
         style="fill:#ede7dc;fill-opacity:1" />
      <path
         d="m 22.770423,28.233666 0.934245,0.296224 q -0.214844,0.78125 -0.716146,1.16211 -0.498047,0.377604 -1.266277,0.377604 -0.950521,0 -1.5625,-0.647786 -0.61198,-0.651042 -0.61198,-1.777345 0,-1.191407 0.615235,-1.848959 0.615234,-0.660808 1.617839,-0.660808 0.875651,0 1.422527,0.517578 0.325521,0.30599 0.488281,0.878907 l -0.953776,0.227865 q -0.08464,-0.371094 -0.354818,-0.585938 -0.266927,-0.214844 -0.651042,-0.214844 -0.530599,0 -0.862631,0.38086 -0.328776,0.380859 -0.328776,1.233724 0,0.904949 0.325521,1.289063 0.325521,0.384115 0.846355,0.384115 0.384114,0 0.660807,-0.244141 0.276693,-0.24414 0.397136,-0.768229 z"
         id="path55007"
         style="fill:#ede7dc;fill-opacity:1" />
    </g>
    <g
       aria-label="BLOCK"
       id="text43724-9"
       style="font-weight:bold;font-size:6.66667px;line-height:1.25;font-family:Arial;-inkscape-font-specification:'Arial, Bold';font-variant-ligatures:none;text-align:center;text-anchor:middle;display:inline;fill:#ede7dc;fill-opacity:1">
      <path
         d="m 3.4295924,32.301795 h 1.907553 q 0.5664065,0 0.8430994,0.04883 0.279948,0.04557 0.4980471,0.195313 0.2213543,0.149739 0.3678387,0.400391 0.1464845,0.247395 0.1464845,0.55664 0,0.335287 -0.1822918,0.615235 -0.1790365,0.279948 -0.4882815,0.419922 0.4361982,0.126953 0.6705733,0.432943 0.2343751,0.30599 0.2343751,0.719401 0,0.325521 -0.1529949,0.634766 -0.1497396,0.30599 -0.4134116,0.491537 -0.2604168,0.182292 -0.6445316,0.22461 -0.2408855,0.02604 -1.1621099,0.03255 H 3.4295924 Z m 0.9635422,0.794271 v 1.103516 h 0.6315107 q 0.5631513,0 0.6998701,-0.01628 0.247396,-0.0293 0.38737,-0.169271 0.1432292,-0.143229 0.1432292,-0.374349 0,-0.221354 -0.123698,-0.358073 -0.1204427,-0.139974 -0.3613283,-0.169271 -0.1432292,-0.01628 -0.8235681,-0.01628 z m 0,1.897788 v 1.276042 h 0.8919275 q 0.5208336,0 0.6608076,-0.0293 0.2148438,-0.03906 0.3483074,-0.188802 0.1367189,-0.152995 0.1367189,-0.406901 0,-0.214844 -0.1041668,-0.364584 Q 6.2225625,35.130569 6.0239947,35.06221 5.8286821,34.99385 5.1711297,34.99385 Z"
         id="path55010"
         style="fill:#ede7dc;fill-opacity:1" />
      <path
         d="m 8.2668344,37.073933 v -4.733076 h 0.9635421 v 3.929039 h 2.3958345 v 0.804037 z"
         id="path55012"
         style="fill:#ede7dc;fill-opacity:1" />
      <path
         d="m 12.117747,34.717161 q 0,-0.729167 0.218099,-1.223959 0.162761,-0.364584 0.442709,-0.654297 0.283203,-0.289714 0.61849,-0.429688 0.445963,-0.188802 1.028646,-0.188802 1.054688,0 1.686199,0.654297 0.634766,0.654297 0.634766,1.819662 0,1.1556 -0.628256,1.809897 -0.628255,0.651042 -1.679688,0.651042 -1.064454,0 -1.692709,-0.647787 -0.628256,-0.651042 -0.628256,-1.790365 z m 0.992839,-0.03255 q 0,0.810547 0.374349,1.230469 0.374349,0.416667 0.950522,0.416667 0.576172,0 0.944011,-0.413412 0.371093,-0.416667 0.371093,-1.246745 0,-0.820313 -0.361328,-1.223959 -0.358073,-0.403646 -0.953776,-0.403646 -0.595704,0 -0.960287,0.410156 -0.364584,0.406901 -0.364584,1.23047 z"
         id="path55014"
         style="fill:#ede7dc;fill-opacity:1" />
      <path
         d="m 20.551996,35.319375 0.934246,0.296224 q -0.214844,0.78125 -0.716147,1.16211 -0.498047,0.377604 -1.266276,0.377604 -0.950521,0 -1.562501,-0.647787 -0.611979,-0.651042 -0.611979,-1.777344 0,-1.191407 0.615234,-1.84896 0.615235,-0.660807 1.61784,-0.660807 0.875651,0 1.422526,0.517578 0.325521,0.30599 0.488282,0.878907 l -0.953777,0.227864 q -0.08463,-0.371093 -0.354818,-0.585937 -0.266927,-0.214844 -0.651042,-0.214844 -0.530599,0 -0.86263,0.380859 -0.328776,0.38086 -0.328776,1.233725 0,0.904948 0.325521,1.289063 0.325521,0.384115 0.846354,0.384115 0.384115,0 0.660808,-0.244141 0.276693,-0.244141 0.397135,-0.768229 z"
         id="path55016"
         style="fill:#ede7dc;fill-opacity:1" />
      <path
         d="m 22.326086,37.073933 v -4.772138 h 0.963542 v 2.119142 l 1.946616,-2.119142 h 1.295574 l -1.796876,1.858725 1.894532,2.913413 h -1.246746 l -1.311849,-2.239585 -0.781251,0.797527 v 1.442058 z"
         id="path55018"
         style="fill:#ede7dc;fill-opacity:1" />
    </g>
    <g
       aria-label="OVER"
       id="text43724-6"
       style="font-weight:bold;font-size:6.66667px;line-height:1.25;font-family:Arial;-inkscape-font-specification:'Arial, Bold';font-variant-ligatures:none;text-align:center;text-anchor:middle;display:inline;fill:#ede7dc;fill-opacity:1">
      <path
         d="m 30.725987,27.631452 q 0,-0.729167 0.218099,-1.223959 0.162761,-0.364583 0.442709,-0.654297 0.283203,-0.289714 0.61849,-0.429688 0.445963,-0.188802 1.028646,-0.188802 1.054688,0 1.686199,0.654297 0.634766,0.654297 0.634766,1.819663 0,1.155599 -0.628256,1.809896 -0.628255,0.651042 -1.679688,0.651042 -1.064454,0 -1.692709,-0.647786 -0.628256,-0.651042 -0.628256,-1.790366 z m 0.992839,-0.03255 q 0,0.810547 0.374349,1.230469 0.374349,0.416667 0.950522,0.416667 0.576172,0 0.944011,-0.413411 0.371093,-0.416667 0.371093,-1.246746 0,-0.820313 -0.361328,-1.223959 -0.358073,-0.403646 -0.953776,-0.403646 -0.595704,0 -0.960287,0.410157 -0.364584,0.406901 -0.364584,1.230469 z"
         id="path55021"
         style="fill:#ede7dc;fill-opacity:1" />
      <path
         d="m 37.324298,29.988224 -1.70573,-4.772138 h 1.044922 l 1.207683,3.531903 1.16862,-3.531903 h 1.022136 l -1.708985,4.772138 z"
         id="path55023"
         style="fill:#ede7dc;fill-opacity:1" />
      <path
         d="m 40.553466,29.988224 v -4.772138 h 3.538413 v 0.807292 h -2.574871 v 1.057944 h 2.395834 v 0.804036 h -2.395834 v 1.298829 h 2.666017 v 0.804037 z"
         id="path55025"
         style="fill:#ede7dc;fill-opacity:1" />
      <path
         d="m 45.003338,29.988224 v -4.772138 h 2.027996 q 0.764974,0 1.110026,0.130209 0.348308,0.126953 0.556641,0.455729 0.208334,0.328776 0.208334,0.751954 0,0.537109 -0.315756,0.888672 -0.315755,0.348307 -0.944011,0.439453 0.312501,0.182292 0.514324,0.400391 0.205078,0.218099 0.55013,0.77474 l 0.582683,0.93099 H 48.14136 l -0.696615,-1.038412 q -0.371093,-0.556641 -0.507812,-0.69987 -0.136719,-0.146484 -0.289714,-0.198568 -0.152995,-0.05534 -0.485026,-0.05534 H 45.96688 v 1.992188 z m 0.963542,-2.753908 h 0.712891 q 0.69336,0 0.865886,-0.05859 0.172526,-0.05859 0.270182,-0.201823 0.09766,-0.14323 0.09766,-0.358073 0,-0.240886 -0.130209,-0.38737 -0.126953,-0.14974 -0.361328,-0.188803 -0.117188,-0.01628 -0.703125,-0.01628 H 45.96688 Z"
         id="path55027"
         style="fill:#ede7dc;fill-opacity:1" />
    </g>
    <g
       aria-label="SMPL"
       id="text43724-9-8"
       style="font-weight:bold;font-size:6.66667px;line-height:1.25;font-family:Arial;-inkscape-font-specification:'Arial, Bold';font-variant-ligatures:none;text-align:center;text-anchor:middle;display:inline;fill:#ede7dc;fill-opacity:1">
      <path
         d="m 30.971755,35.519569 0.937501,-0.09115 q 0.08464,0.472005 0.341797,0.693359 0.260417,0.221355 0.69987,0.221355 0.465495,0 0.69987,-0.195313 0.237631,-0.198568 0.237631,-0.46224 0,-0.169271 -0.100912,-0.286458 -0.09766,-0.120443 -0.345052,-0.208334 -0.169271,-0.05859 -0.771485,-0.208333 -0.77474,-0.192057 -1.08724,-0.472005 -0.439453,-0.393881 -0.439453,-0.960287 0,-0.364584 0.205078,-0.680339 0.208333,-0.319011 0.595703,-0.485026 0.390625,-0.166016 0.940756,-0.166016 0.898438,0 1.350912,0.39388 0.455729,0.393881 0.478516,1.051433 l -0.963542,0.04232 q -0.06185,-0.367839 -0.266927,-0.527344 -0.201823,-0.162761 -0.608725,-0.162761 -0.419922,0 -0.657552,0.172526 -0.152995,0.110678 -0.152995,0.296224 0,0.169271 0.143229,0.289714 0.182292,0.152995 0.885417,0.319011 0.703126,0.166015 1.038412,0.345052 0.338542,0.175781 0.527344,0.485026 0.192058,0.30599 0.192058,0.758464 0,0.410157 -0.227865,0.76823 -0.227865,0.358073 -0.644532,0.533854 -0.416666,0.172526 -1.038412,0.172526 -0.904948,0 -1.389974,-0.416667 -0.485026,-0.419922 -0.579428,-1.220703 z"
         id="path55030"
         style="fill:#ede7dc;fill-opacity:1" />
      <path
         d="m 35.649492,37.072304 v -4.772138 h 1.442058 l 0.865886,3.25521 0.85612,-3.25521 h 1.445313 v 4.772138 h -0.895182 v -3.756512 l -0.947267,3.756512 h -0.927734 l -0.944011,-3.756512 v 3.756512 z"
         id="path55032"
         style="fill:#ede7dc;fill-opacity:1" />
      <path
         d="m 41.215901,37.072304 v -4.772138 h 1.546225 q 0.878906,0 1.145834,0.07162 0.410156,0.107422 0.686849,0.46875 0.276693,0.358073 0.276693,0.927735 0,0.439453 -0.159506,0.738932 -0.159505,0.29948 -0.406901,0.472006 -0.244141,0.169271 -0.498047,0.224609 -0.345052,0.06836 -0.999349,0.06836 h -0.628256 v 1.800131 z m 0.963542,-3.964846 v 1.354167 h 0.527344 q 0.569662,0 0.761719,-0.07487 0.192058,-0.07487 0.29948,-0.234375 0.110677,-0.159506 0.110677,-0.371094 0,-0.260417 -0.152995,-0.429688 -0.152995,-0.169271 -0.38737,-0.211589 -0.172526,-0.03255 -0.69336,-0.03255 z"
         id="path55034"
         style="fill:#ede7dc;fill-opacity:1" />
      <path
         d="m 45.688559,37.072304 v -4.733075 h 0.963542 v 3.929038 h 2.395834 v 0.804037 z"
         id="path55036"
         style="fill:#ede7dc;fill-opacity:1" />
    </g>
    <g
       aria-label="OUT"
       id="text43724-6-6"
       style="font-weight:bold;font-size:6.66667px;line-height:1.25;font-family:Arial;-inkscape-font-specification:'Arial, Bold';font-variant-ligatures:none;text-align:center;text-anchor:middle;display:inline;fill:#ede7dc;fill-opacity:1">
      <path
         d="m 58.167236,27.631452 q 0,-0.729167 0.218099,-1.223959 0.16276,-0.364583 0.442708,-0.654297 0.283204,-0.289714 0.61849,-0.429688 0.445964,-0.188802 1.028646,-0.188802 1.054688,0 1.686199,0.654297 0.634766,0.654297 0.634766,1.819663 0,1.155599 -0.628255,1.809896 -0.628256,0.651042 -1.679689,0.651042 -1.064453,0 -1.692709,-0.647786 -0.628255,-0.651042 -0.628255,-1.790366 z m 0.992839,-0.03255 q 0,0.810547 0.374349,1.230469 0.374349,0.416667 0.950521,0.416667 0.576172,0 0.944011,-0.413411 0.371094,-0.416667 0.371094,-1.246746 0,-0.820313 -0.361328,-1.223959 -0.358073,-0.403646 -0.953777,-0.403646 -0.595703,0 -0.960287,0.410157 -0.364583,0.406901 -0.364583,1.230469 z"
         id="path55039"
         style="fill:#ede7dc;fill-opacity:1" />
      <path
         d="m 63.541587,25.216086 h 0.963542 v 2.584637 q 0,0.615235 0.03581,0.797526 0.06185,0.292969 0.292968,0.472006 0.234376,0.175781 0.638022,0.175781 0.410156,0 0.618489,-0.166016 0.208334,-0.16927 0.250652,-0.413411 0.04232,-0.244141 0.04232,-0.810547 v -2.639976 h 0.963542 v 2.506512 q 0,0.859375 -0.07813,1.214193 -0.07813,0.354818 -0.289713,0.598959 -0.208334,0.244141 -0.559896,0.390625 -0.351563,0.143229 -0.91797,0.143229 -0.683594,0 -1.038412,-0.15625 -0.351562,-0.159505 -0.55664,-0.410156 -0.205079,-0.253907 -0.270183,-0.530599 -0.0944,-0.410157 -0.0944,-1.210939 z"
         id="path55041"
         style="fill:#ede7dc;fill-opacity:1" />
      <path
         d="m 69.436772,29.988224 v -3.964846 h -1.416016 v -0.807292 h 3.792319 v 0.807292 h -1.412761 v 3.964846 z"
         id="path55043"
         style="fill:#ede7dc;fill-opacity:1" />
    </g>
    <g
       aria-label="CLIP"
       id="text43724-9-8-6"
       style="font-weight:bold;font-size:6.66667px;line-height:1.25;font-family:Arial;-inkscape-font-specification:'Arial, Bold';font-variant-ligatures:none;text-align:center;text-anchor:middle;display:inline;fill:#ede7dc;fill-opacity:1">
      <path
         d="m 60.930911,35.319375 0.934246,0.296224 q -0.214844,0.78125 -0.716147,1.16211 -0.498047,0.377604 -1.266276,0.377604 -0.950522,0 -1.562501,-0.647787 -0.611979,-0.651042 -0.611979,-1.777344 0,-1.191407 0.615234,-1.84896 0.615235,-0.660807 1.61784,-0.660807 0.875651,0 1.422526,0.517578 0.325521,0.30599 0.488282,0.878907 l -0.953777,0.227864 q -0.08463,-0.371093 -0.354818,-0.585937 -0.266927,-0.214844 -0.651042,-0.214844 -0.530599,0 -0.86263,0.380859 -0.328776,0.38086 -0.328776,1.233725 0,0.904948 0.325521,1.289063 0.325521,0.384115 0.846354,0.384115 0.384115,0 0.660808,-0.244141 0.276693,-0.244141 0.397135,-0.768229 z"
         id="path55046"
         style="fill:#ede7dc;fill-opacity:1" />
      <path
         d="m 62.718022,37.073933 v -4.733076 h 0.963542 v 3.929039 h 2.395834 v 0.804037 z"
         id="path55048"
         style="fill:#ede7dc;fill-opacity:1" />
      <path
         d="m 66.73495,37.073933 v -4.772138 h 0.963542 v 4.772138 z"
         id="path55050"
         style="fill:#ede7dc;fill-opacity:1" />
      <path
         d="m 68.616462,37.073933 v -4.772138 h 1.546225 q 0.878906,0 1.145833,0.07162 0.410157,0.107421 0.68685,0.46875 0.276693,0.358073 0.276693,0.927735 0,0.439453 -0.159506,0.738932 -0.159505,0.29948 -0.406901,0.472006 -0.244141,0.169271 -0.498047,0.224609 -0.345052,0.06836 -0.99935,0.06836 h -0.628255 v 1.800131 z m 0.963542,-3.964846 v 1.354167 h 0.527344 q 0.569662,0 0.761719,-0.07487 0.192057,-0.07487 0.299479,-0.234375 0.110678,-0.159505 0.110678,-0.371094 0,-0.260416 -0.152995,-0.429687 -0.152995,-0.169271 -0.38737,-0.211589 -0.172526,-0.03255 -0.69336,-0.03255 z"
         id="path55052"
         style="fill:#ede7dc;fill-opacity:1" />
    </g>
    <g
       aria-label="OUT DC"
       id="text43724-6-0"
       style="font-weight:bold;font-size:6.66667px;line-height:1.25;font-family:Arial;-inkscape-font-specification:'Arial, Bold';font-variant-ligatures:none;text-align:center;text-anchor:middle;display:inline;fill:#ede7dc;fill-opacity:1">
      <path
         d="m 77.509521,27.631452 q 0,-0.729167 0.218099,-1.223959 0.16276,-0.364583 0.442708,-0.654297 0.283203,-0.289714 0.61849,-0.429688 0.445964,-0.188802 1.028646,-0.188802 1.054688,0 1.686199,0.654297 0.634766,0.654297 0.634766,1.819663 0,1.155599 -0.628255,1.809896 -0.628256,0.651042 -1.679689,0.651042 -1.064453,0 -1.692709,-0.647786 -0.628255,-0.651042 -0.628255,-1.790366 z M 78.50236,27.5989 q 0,0.810547 0.374349,1.230469 0.374349,0.416667 0.950521,0.416667 0.576172,0 0.944011,-0.413411 0.371094,-0.416667 0.371094,-1.246746 0,-0.820313 -0.361328,-1.223959 -0.358074,-0.403646 -0.953777,-0.403646 -0.595703,0 -0.960287,0.410157 -0.364583,0.406901 -0.364583,1.230469 z"
         id="path55055"
         style="fill:#ede7dc;fill-opacity:1" />
      <path
         d="m 82.883872,25.216086 h 0.963542 v 2.584637 q 0,0.615235 0.03581,0.797526 0.06185,0.292969 0.292969,0.472006 0.234375,0.175781 0.638022,0.175781 0.410156,0 0.618489,-0.166016 0.208334,-0.16927 0.250652,-0.413411 0.04232,-0.244141 0.04232,-0.810547 v -2.639976 h 0.963542 v 2.506512 q 0,0.859375 -0.07813,1.214193 -0.07813,0.354818 -0.289713,0.598959 -0.208334,0.244141 -0.559896,0.390625 -0.351563,0.143229 -0.91797,0.143229 -0.683594,0 -1.038412,-0.15625 -0.351562,-0.159505 -0.55664,-0.410156 -0.205079,-0.253907 -0.270183,-0.530599 -0.0944,-0.410157 -0.0944,-1.210939 z"
         id="path55057"
         style="fill:#ede7dc;fill-opacity:1" />
      <path
         d="m 88.779057,29.988224 v -3.964846 h -1.416016 v -0.807292 h 3.792319 v 0.807292 h -1.412761 v 3.964846 z"
         id="path55059"
         style="fill:#ede7dc;fill-opacity:1" />
      <path
         d="m 93.626065,25.216086 h 1.761069 q 0.595703,0 0.908203,0.09115 0.419922,0.123698 0.719402,0.439454 0.299479,0.315755 0.455729,0.77474 0.15625,0.455729 0.15625,1.126302 0,0.589193 -0.146484,1.015626 -0.179037,0.520833 -0.511068,0.843099 -0.250651,0.244141 -0.677084,0.38086 -0.319011,0.100911 -0.852865,0.100911 h -1.813152 z m 0.963542,0.807292 v 3.160809 h 0.719402 q 0.403646,0 0.582682,-0.04557 0.234375,-0.05859 0.38737,-0.198568 0.15625,-0.139974 0.253907,-0.458984 0.09766,-0.322266 0.09766,-0.875652 0,-0.553385 -0.09766,-0.849609 -0.09766,-0.296224 -0.273438,-0.46224 -0.175781,-0.166016 -0.445964,-0.22461 -0.201823,-0.04557 -0.791016,-0.04557 z"
         id="path55061"
         style="fill:#ede7dc;fill-opacity:1" />
      <path
         d="m 101.49716,28.233666 0.93425,0.296224 q -0.21485,0.78125 -0.71615,1.16211 -0.49804,0.377604 -1.26627,0.377604 -0.950526,0 -1.562505,-0.647786 -0.61198,-0.651042 -0.61198,-1.777345 0,-1.191407 0.615235,-1.848959 0.615235,-0.660808 1.61784,-0.660808 0.87565,0 1.42253,0.517578 0.32552,0.30599 0.48828,0.878907 l -0.95378,0.227865 q -0.0846,-0.371094 -0.35482,-0.585938 -0.26692,-0.214844 -0.65104,-0.214844 -0.530598,0 -0.862629,0.38086 -0.328777,0.380859 -0.328777,1.233724 0,0.904949 0.325521,1.289063 0.325521,0.384115 0.846355,0.384115 0.38411,0 0.66081,-0.244141 0.27669,-0.24414 0.39713,-0.768229 z"
         id="path55063"
         style="fill:#ede7dc;fill-opacity:1" />
    </g>
    <g
       aria-label="BLOCK"
       id="text43724-9-8-8"
       style="font-weight:bold;font-size:6.66667px;line-height:1.25;font-family:Arial;-inkscape-font-specification:'Arial, Bold';font-variant-ligatures:none;text-align:center;text-anchor:middle;display:inline;fill:#ede7dc;fill-opacity:1">
      <path
         d="m 78.370524,32.301795 h 1.907553 q 0.566406,0 0.843099,0.04883 0.279948,0.04557 0.498047,0.195313 0.221354,0.149739 0.367839,0.400391 0.146484,0.247395 0.146484,0.55664 0,0.335287 -0.182291,0.615235 -0.179037,0.279948 -0.488282,0.419922 0.436198,0.126953 0.670573,0.432943 0.234375,0.30599 0.234375,0.719401 0,0.325521 -0.152994,0.634766 -0.14974,0.30599 -0.413412,0.491537 -0.260417,0.182292 -0.644532,0.22461 -0.240885,0.02604 -1.16211,0.03255 h -1.624349 z m 0.963542,0.794271 v 1.103516 h 0.631511 q 0.563151,0 0.69987,-0.01628 0.247396,-0.0293 0.38737,-0.169271 0.143229,-0.143229 0.143229,-0.374349 0,-0.221354 -0.123698,-0.358073 -0.120443,-0.139974 -0.361328,-0.169271 -0.14323,-0.01628 -0.823568,-0.01628 z m 0,1.897788 v 1.276042 h 0.891927 q 0.520834,0 0.660808,-0.0293 0.214844,-0.03906 0.348307,-0.188802 0.136719,-0.152995 0.136719,-0.406901 0,-0.214844 -0.104166,-0.364584 -0.104167,-0.14974 -0.302735,-0.218099 -0.195313,-0.06836 -0.852865,-0.06836 z"
         id="path55066"
         style="fill:#ede7dc;fill-opacity:1" />
      <path
         d="m 83.207766,37.073933 v -4.733076 h 0.963542 v 3.929039 h 2.395834 v 0.804037 z"
         id="path55068"
         style="fill:#ede7dc;fill-opacity:1" />
      <path
         d="m 87.058679,34.717161 q 0,-0.729167 0.218099,-1.223959 0.16276,-0.364584 0.442708,-0.654297 0.283203,-0.289714 0.61849,-0.429688 0.445964,-0.188802 1.028646,-0.188802 1.054688,0 1.686199,0.654297 0.634766,0.654297 0.634766,1.819662 0,1.1556 -0.628256,1.809897 -0.628255,0.651042 -1.679688,0.651042 -1.064453,0 -1.692709,-0.647787 -0.628255,-0.651042 -0.628255,-1.790365 z m 0.992839,-0.03255 q 0,0.810547 0.374349,1.230469 0.374349,0.416667 0.950521,0.416667 0.576172,0 0.944011,-0.413412 0.371094,-0.416667 0.371094,-1.246745 0,-0.820313 -0.361329,-1.223959 -0.358073,-0.403646 -0.953776,-0.403646 -0.595703,0 -0.960287,0.410156 -0.364583,0.406901 -0.364583,1.23047 z"
         id="path55070"
         style="fill:#ede7dc;fill-opacity:1" />
      <path
         d="m 95.492928,35.319375 0.934245,0.296224 q -0.214844,0.78125 -0.716146,1.16211 -0.498047,0.377604 -1.266277,0.377604 -0.950521,0 -1.562501,-0.647787 -0.611979,-0.651042 -0.611979,-1.777344 0,-1.191407 0.615235,-1.84896 0.615234,-0.660807 1.617839,-0.660807 0.875651,0 1.422527,0.517578 0.325521,0.30599 0.488281,0.878907 l -0.953776,0.227864 q -0.08464,-0.371093 -0.354818,-0.585937 -0.266927,-0.214844 -0.651042,-0.214844 -0.530599,0 -0.862631,0.380859 -0.328776,0.38086 -0.328776,1.233725 0,0.904948 0.325521,1.289063 0.325521,0.384115 0.846355,0.384115 0.384114,0 0.660807,-0.244141 0.276693,-0.244141 0.397136,-0.768229 z"
         id="path55072"
         style="fill:#ede7dc;fill-opacity:1" />
      <path
         d="m 97.267018,37.073933 v -4.772138 h 0.963542 v 2.119142 l 1.94662,-2.119142 h 1.29557 l -1.796877,1.858725 1.894537,2.913413 h -1.24675 l -1.31185,-2.239585 -0.78125,0.797527 v 1.442058 z"
         id="path55074"
         style="fill:#ede7dc;fill-opacity:1" />
    </g>
    <g
       aria-label="HIGH AMPLIFIER"
       id="text10791"
       style="font-weight:bold;font-size:8px;line-height:1.25;font-family:Arial;-inkscape-font-specification:'Arial, Bold';font-variant-ligatures:none;text-align:center;text-anchor:middle;fill:#ede7dc;fill-opacity:1">
      <path
         d="m 20.296875,134.84723 v -5.72656 h 1.15625 v 2.2539 h 2.265625 v -2.2539 H 24.875 v 5.72656 h -1.15625 v -2.50391 h -2.265625 v 2.50391 z"
         id="path19705"
         style="fill:#ede7dc;fill-opacity:1" />
      <path
         d="m 26.035156,134.84723 v -5.72656 h 1.15625 v 5.72656 z"
         id="path19707"
         style="fill:#ede7dc;fill-opacity:1" />
      <path
         d="m 30.957031,132.74176 v -0.96484 h 2.492188 v 2.28125 q -0.363282,0.35156 -1.054688,0.62109 -0.6875,0.26563 -1.394531,0.26563 -0.898438,0 -1.566406,-0.375 -0.667969,-0.37891 -1.003907,-1.07813 -0.335937,-0.70312 -0.335937,-1.52734 0,-0.89453 0.375,-1.58985 0.375,-0.69531 1.097656,-1.0664 0.550781,-0.28516 1.371094,-0.28516 1.066406,0 1.664062,0.44922 0.601563,0.44531 0.773438,1.23437 l -1.148438,0.21485 q -0.121093,-0.42188 -0.457031,-0.66406 -0.332031,-0.2461 -0.832031,-0.2461 -0.757813,0 -1.207031,0.48047 -0.445313,0.48047 -0.445313,1.42578 0,1.01953 0.453125,1.53125 0.453125,0.50781 1.1875,0.50781 0.363281,0 0.726563,-0.14062 0.367187,-0.14453 0.628906,-0.34766 v -0.72656 z"
         id="path19709"
         style="fill:#ede7dc;fill-opacity:1" />
      <path
         d="m 34.519531,134.84723 v -5.72656 h 1.15625 v 2.2539 h 2.265625 v -2.2539 h 1.15625 v 5.72656 h -1.15625 v -2.50391 h -2.265625 v 2.50391 z"
         id="path19711"
         style="fill:#ede7dc;fill-opacity:1" />
      <path
         d="M 47.382812,134.84723 H 46.125 l -0.5,-1.30078 h -2.289063 l -0.472656,1.30078 h -1.226562 l 2.230468,-5.72656 h 1.222657 z m -2.128906,-2.26563 -0.789062,-2.125 -0.773438,2.125 z"
         id="path19713"
         style="fill:#ede7dc;fill-opacity:1" />
      <path
         d="m 47.980469,134.84723 v -5.72656 h 1.730468 l 1.039063,3.90625 1.027344,-3.90625 h 1.734375 v 5.72656 H 52.4375 v -4.50781 l -1.136719,4.50781 H 50.1875 l -1.132813,-4.50781 v 4.50781 z"
         id="path19715"
         style="fill:#ede7dc;fill-opacity:1" />
      <path
         d="m 54.660156,134.84723 v -5.72656 h 1.855469 q 1.054687,0 1.375,0.0859 0.492187,0.12891 0.824219,0.5625 0.332031,0.42969 0.332031,1.11329 0,0.52734 -0.191406,0.88671 -0.191407,0.35938 -0.488282,0.56641 -0.292968,0.20313 -0.597656,0.26953 -0.414062,0.082 -1.199219,0.082 h -0.753906 v 2.16016 z m 1.15625,-4.75781 v 1.625 h 0.632813 q 0.683593,0 0.914062,-0.0898 0.230469,-0.0898 0.359375,-0.28125 0.132813,-0.1914 0.132813,-0.44531 0,-0.3125 -0.183594,-0.51562 -0.183594,-0.20313 -0.464844,-0.25391 Q 57,130.08942 56.375,130.08942 Z"
         id="path19717"
         style="fill:#ede7dc;fill-opacity:1" />
      <path
         d="m 60.027344,134.84723 v -5.67969 h 1.15625 v 4.71485 h 2.875 v 0.96484 z"
         id="path19719"
         style="fill:#ede7dc;fill-opacity:1" />
      <path
         d="m 64.847656,134.84723 v -5.72656 h 1.15625 v 5.72656 z"
         id="path19721"
         style="fill:#ede7dc;fill-opacity:1" />
      <path
         d="m 67.113281,134.84723 v -5.72656 h 3.925781 v 0.96875 h -2.769531 v 1.35547 h 2.390625 v 0.96875 h -2.390625 v 2.43359 z"
         id="path19723"
         style="fill:#ede7dc;fill-opacity:1" />
      <path
         d="m 71.957031,134.84723 v -5.72656 h 1.15625 v 5.72656 z"
         id="path19725"
         style="fill:#ede7dc;fill-opacity:1" />
      <path
         d="m 74.214844,134.84723 v -5.72656 h 4.246093 v 0.96875 h -3.089843 v 1.26953 h 2.875 v 0.96484 h -2.875 v 1.5586 h 3.199218 v 0.96484 z"
         id="path19727"
         style="fill:#ede7dc;fill-opacity:1" />
      <path
         d="m 79.554687,134.84723 v -5.72656 h 2.433594 q 0.917969,0 1.332031,0.15625 0.417969,0.15234 0.667969,0.54687 0.25,0.39453 0.25,0.90235 0,0.64453 -0.378906,1.0664 -0.378906,0.41797 -1.132813,0.52735 0.375,0.21875 0.617188,0.48046 0.246094,0.26172 0.660156,0.92969 l 0.699219,1.11719 h -1.382813 l -0.835937,-1.24609 q -0.445313,-0.66797 -0.609375,-0.83985 -0.164063,-0.17578 -0.347656,-0.23828 -0.183594,-0.0664 -0.582032,-0.0664 h -0.234375 v 2.39063 z m 1.15625,-3.30469 h 0.855469 q 0.832031,0 1.039063,-0.0703 0.207031,-0.0703 0.324218,-0.24219 0.117188,-0.17187 0.117188,-0.42969 0,-0.28906 -0.15625,-0.46484 -0.152344,-0.17969 -0.433594,-0.22656 -0.140625,-0.0195 -0.84375,-0.0195 h -0.902344 z"
         id="path19729"
         style="fill:#ede7dc;fill-opacity:1" />
    </g>
    <g
       aria-label="MID AMPLIFIER"
       id="text10791-2"
       style="font-weight:bold;font-size:8px;line-height:1.25;font-family:Arial;-inkscape-font-specification:'Arial, Bold';font-variant-ligatures:none;text-align:center;text-anchor:middle;display:inline;fill:#ede7dc;fill-opacity:1">
      <path
         d="m 22.955078,208.84724 v -5.72656 h 1.730469 l 1.039062,3.90625 1.027344,-3.90625 h 1.734375 v 5.72656 h -1.074219 v -4.50781 l -1.136718,4.50781 h -1.113282 l -1.132812,-4.50781 v 4.50781 z"
         id="path19732"
         style="fill:#ede7dc;fill-opacity:1" />
      <path
         d="m 29.599609,208.84724 v -5.72656 h 1.15625 v 5.72656 z"
         id="path19734"
         style="fill:#ede7dc;fill-opacity:1" />
      <path
         d="m 31.853516,203.12068 h 2.113281 q 0.714844,0 1.089844,0.10938 0.503906,0.14843 0.863281,0.52734 0.359375,0.37891 0.546875,0.92969 0.1875,0.54687 0.1875,1.35156 0,0.70703 -0.175781,1.21875 -0.214844,0.625 -0.613282,1.01172 -0.300781,0.29297 -0.8125,0.45703 -0.382812,0.12109 -1.023437,0.12109 h -2.175781 z m 1.15625,0.96875 v 3.79297 h 0.863281 q 0.484375,0 0.699219,-0.0547 0.28125,-0.0703 0.464843,-0.23828 0.1875,-0.16797 0.304688,-0.55078 0.117187,-0.38672 0.117187,-1.05078 0,-0.66406 -0.117187,-1.01953 -0.117188,-0.35547 -0.328125,-0.55469 -0.210938,-0.19922 -0.535156,-0.26953 -0.242188,-0.0547 -0.949219,-0.0547 z"
         id="path19736"
         style="fill:#ede7dc;fill-opacity:1" />
      <path
         d="m 44.724609,208.84724 h -1.257812 l -0.5,-1.30078 h -2.289063 l -0.472656,1.30078 h -1.226562 l 2.230468,-5.72656 h 1.222657 z m -2.128906,-2.26562 -0.789062,-2.125 -0.773438,2.125 z"
         id="path19738"
         style="fill:#ede7dc;fill-opacity:1" />
      <path
         d="m 45.322266,208.84724 v -5.72656 h 1.730468 l 1.039063,3.90625 1.027344,-3.90625 h 1.734375 v 5.72656 h -1.074219 v -4.50781 l -1.136719,4.50781 h -1.113281 l -1.132813,-4.50781 v 4.50781 z"
         id="path19740"
         style="fill:#ede7dc;fill-opacity:1" />
      <path
         d="m 52.001953,208.84724 v -5.72656 h 1.855469 q 1.054687,0 1.375,0.0859 0.492187,0.12891 0.824219,0.5625 0.332031,0.42969 0.332031,1.11328 0,0.52734 -0.191406,0.88672 -0.191407,0.35937 -0.488282,0.56641 -0.292968,0.20312 -0.597656,0.26953 -0.414062,0.082 -1.199219,0.082 h -0.753906 v 2.16015 z m 1.15625,-4.75781 v 1.625 h 0.632813 q 0.683593,0 0.914062,-0.0898 0.230469,-0.0899 0.359375,-0.28125 0.132813,-0.19141 0.132813,-0.44531 0,-0.3125 -0.183594,-0.51563 -0.183594,-0.20312 -0.464844,-0.25391 -0.207031,-0.0391 -0.832031,-0.0391 z"
         id="path19742"
         style="fill:#ede7dc;fill-opacity:1" />
      <path
         d="m 57.369141,208.84724 v -5.67968 h 1.15625 v 4.71484 h 2.875 v 0.96484 z"
         id="path19744"
         style="fill:#ede7dc;fill-opacity:1" />
      <path
         d="m 62.189453,208.84724 v -5.72656 h 1.15625 v 5.72656 z"
         id="path19746"
         style="fill:#ede7dc;fill-opacity:1" />
      <path
         d="m 64.455078,208.84724 v -5.72656 h 3.925781 v 0.96875 h -2.769531 v 1.35547 h 2.390625 v 0.96875 h -2.390625 v 2.43359 z"
         id="path19748"
         style="fill:#ede7dc;fill-opacity:1" />
      <path
         d="m 69.298828,208.84724 v -5.72656 h 1.15625 v 5.72656 z"
         id="path19750"
         style="fill:#ede7dc;fill-opacity:1" />
      <path
         d="m 71.556641,208.84724 v -5.72656 h 4.246093 v 0.96875 h -3.089843 v 1.26953 h 2.875 v 0.96485 h -2.875 v 1.55859 h 3.199218 v 0.96484 z"
         id="path19752"
         style="fill:#ede7dc;fill-opacity:1" />
      <path
         d="m 76.896484,208.84724 v -5.72656 h 2.433594 q 0.917969,0 1.332031,0.15625 0.417969,0.15235 0.667969,0.54688 0.25,0.39453 0.25,0.90234 0,0.64453 -0.378906,1.06641 -0.378906,0.41797 -1.132813,0.52734 0.375,0.21875 0.617188,0.48047 0.246094,0.26172 0.660156,0.92969 l 0.699219,1.11718 h -1.382813 l -0.835937,-1.24609 q -0.445313,-0.66797 -0.609375,-0.83984 -0.164063,-0.17578 -0.347656,-0.23828 -0.183594,-0.0664 -0.582032,-0.0664 h -0.234375 v 2.39062 z m 1.15625,-3.30468 h 0.855469 q 0.832031,0 1.039063,-0.0703 0.207031,-0.0703 0.324218,-0.24218 0.117188,-0.17188 0.117188,-0.42969 0,-0.28906 -0.15625,-0.46484 -0.152344,-0.17969 -0.433594,-0.22657 -0.140625,-0.0195 -0.84375,-0.0195 h -0.902344 z"
         id="path19754"
         style="fill:#ede7dc;fill-opacity:1" />
    </g>
    <g
       aria-label="LOW AMPLIFIER"
       id="text10791-8"
       style="font-weight:bold;font-size:8px;line-height:1.25;font-family:Arial;-inkscape-font-specification:'Arial, Bold';font-variant-ligatures:none;text-align:center;text-anchor:middle;display:inline;fill:#ede7dc;fill-opacity:1">
      <path
         d="m 20.980469,282.84726 v -5.67969 h 1.15625 v 4.71485 h 2.875 v 0.96484 z"
         id="path19757"
         style="fill:#ede7dc;fill-opacity:1" />
      <path
         d="m 25.601562,280.01913 q 0,-0.875 0.261719,-1.46875 0.195313,-0.4375 0.53125,-0.78515 0.339844,-0.34766 0.742188,-0.51563 0.535156,-0.22656 1.234375,-0.22656 1.265625,0 2.023437,0.78516 0.761719,0.78515 0.761719,2.18359 0,1.38672 -0.753906,2.17188 -0.753907,0.78125 -2.015625,0.78125 -1.277344,0 -2.03125,-0.77735 -0.753907,-0.78125 -0.753907,-2.14844 z m 1.191407,-0.0391 q 0,0.97266 0.449218,1.47656 0.449219,0.5 1.140625,0.5 0.691407,0 1.132813,-0.49609 0.445312,-0.5 0.445312,-1.49609 0,-0.98438 -0.433593,-1.46875 -0.429688,-0.48438 -1.144532,-0.48438 -0.714843,0 -1.152343,0.49219 -0.4375,0.48828 -0.4375,1.47656 z"
         id="path19759"
         style="fill:#ede7dc;fill-opacity:1" />
      <path
         d="M 32.871094,282.84726 31.503906,277.1207 H 32.6875 l 0.863281,3.93359 1.046875,-3.93359 h 1.375 l 1.003906,4 0.878907,-4 h 1.164062 l -1.390625,5.72656 h -1.226562 l -1.140625,-4.28125 -1.136719,4.28125 z"
         id="path19761"
         style="fill:#ede7dc;fill-opacity:1" />
      <path
         d="m 46.699219,282.84726 h -1.257813 l -0.5,-1.30078 h -2.289062 l -0.472657,1.30078 h -1.226562 l 2.230469,-5.72656 h 1.222656 z m -2.128907,-2.26563 -0.789062,-2.125 -0.773438,2.125 z"
         id="path19763"
         style="fill:#ede7dc;fill-opacity:1" />
      <path
         d="m 47.296875,282.84726 v -5.72656 h 1.730469 l 1.039062,3.90625 1.027344,-3.90625 h 1.734375 v 5.72656 h -1.074219 v -4.50781 l -1.136719,4.50781 h -1.113281 l -1.132812,-4.50781 v 4.50781 z"
         id="path19765"
         style="fill:#ede7dc;fill-opacity:1" />
      <path
         d="m 53.976562,282.84726 v -5.72656 h 1.855469 q 1.054688,0 1.375,0.0859 0.492188,0.12891 0.824219,0.5625 0.332031,0.42969 0.332031,1.11329 0,0.52734 -0.191406,0.88671 -0.191406,0.35938 -0.488281,0.56641 -0.292969,0.20313 -0.597657,0.26953 -0.414062,0.082 -1.199218,0.082 h -0.753907 v 2.16016 z m 1.15625,-4.75781 v 1.625 h 0.632813 q 0.683594,0 0.914062,-0.0899 0.230469,-0.0898 0.359375,-0.28125 0.132813,-0.1914 0.132813,-0.44531 0,-0.3125 -0.183594,-0.51562 -0.183594,-0.20313 -0.464844,-0.25391 -0.207031,-0.0391 -0.832031,-0.0391 z"
         id="path19767"
         style="fill:#ede7dc;fill-opacity:1" />
      <path
         d="m 59.34375,282.84726 v -5.67969 H 60.5 v 4.71485 h 2.875 v 0.96484 z"
         id="path19769"
         style="fill:#ede7dc;fill-opacity:1" />
      <path
         d="m 64.164062,282.84726 v -5.72656 h 1.15625 v 5.72656 z"
         id="path19771"
         style="fill:#ede7dc;fill-opacity:1" />
      <path
         d="m 66.429687,282.84726 v -5.72656 h 3.925782 v 0.96875 h -2.769532 v 1.35547 h 2.390625 v 0.96875 h -2.390625 v 2.43359 z"
         id="path19773"
         style="fill:#ede7dc;fill-opacity:1" />
      <path
         d="m 71.273437,282.84726 v -5.72656 h 1.15625 v 5.72656 z"
         id="path19775"
         style="fill:#ede7dc;fill-opacity:1" />
      <path
         d="m 73.53125,282.84726 v -5.72656 h 4.246094 v 0.96875 H 74.6875 v 1.26953 h 2.875 v 0.96484 h -2.875 v 1.5586 h 3.199219 v 0.96484 z"
         id="path19777"
         style="fill:#ede7dc;fill-opacity:1" />
      <path
         d="m 78.871094,282.84726 v -5.72656 h 2.433593 q 0.917969,0 1.332032,0.15625 0.417968,0.15234 0.667968,0.54687 0.25,0.39453 0.25,0.90235 0,0.64453 -0.378906,1.0664 -0.378906,0.41797 -1.132812,0.52735 0.375,0.21875 0.617187,0.48046 0.246094,0.26172 0.660156,0.92969 l 0.699219,1.11719 h -1.382812 l -0.835938,-1.24609 q -0.445312,-0.66797 -0.609375,-0.83985 -0.164062,-0.17578 -0.347656,-0.23828 -0.183594,-0.0664 -0.582031,-0.0664 h -0.234375 v 2.39063 z m 1.15625,-3.30469 h 0.855468 q 0.832032,0 1.039063,-0.0703 0.207031,-0.0703 0.324219,-0.24219 0.117187,-0.17187 0.117187,-0.42969 0,-0.28906 -0.15625,-0.46484 -0.152344,-0.17969 -0.433594,-0.22656 -0.140625,-0.0195 -0.84375,-0.0195 h -0.902343 z"
         id="path19779"
         style="fill:#ede7dc;fill-opacity:1" />
    </g>
  </g>
  <g
     inkscape:groupmode="layer"
     id="layer5"
     inkscape:label="Alt Solid"
     style="display:inline">
    <path
       style="color:#000000;display:inline;fill:#ff0000;fill-opacity:1;stroke-width:1;-inkscape-stroke:none"
       d="m -1.25e-6,124.68644 v 0.65 H 105 v -0.65 z"
       id="path78542-6-1-7" />
    <path
       style="color:#000000;display:inline;fill:#ff0000;fill-opacity:1;stroke-width:1;-inkscape-stroke:none"
       d="m 0,185.17484 v 0.65 h 5 v -0.65 z"
       id="path78542-6-1-7-5" />
    <path
       style="color:#000000;display:inline;fill:#ff0000;fill-opacity:1;stroke-width:1;-inkscape-stroke:none"
       d="m 99.999999,185.17484 v 0.65 H 105 v -0.65 z"
       id="path78542-6-1-7-5-0" />
    <path
       style="color:#000000;display:inline;fill:#ff0000;fill-opacity:1;stroke-width:1;-inkscape-stroke:none"
       d="m 99.999994,259.17484 v 0.65 H 105 v -0.65 z"
       id="path78542-6-1-7-5-1" />
    <path
       style="color:#000000;display:inline;fill:#ff0000;fill-opacity:1;stroke-width:1;-inkscape-stroke:none"
       d="m 0,259.17484 v 0.65 h 5 v -0.65 z"
       id="path78542-6-1-7-5-7" />
    <path
       style="color:#000000;display:inline;fill:#ff0000;fill-opacity:1;stroke-width:1;-inkscape-stroke:none"
       d="m -1.2e-6,312.17493 v 0.65 H 105 v -0.65 z"
       id="path78542-6-1-7-2" />
  </g>
  <g
     inkscape:groupmode="layer"
     id="layer2"
     inkscape:label="Reverse Solid"
     style="display:inline">
    <g
       aria-label="OUT"
       id="text33436-1"
       style="font-weight:bold;font-size:8px;line-height:1.25;font-family:Arial;-inkscape-font-specification:'Arial, Bold';font-variant-ligatures:none;text-align:center;text-anchor:middle;fill:#252525;fill-opacity:1"
       transform="translate(-55.06445,1.0000268)">
      <path
         d="m 119.37695,323.07422 q 0,-0.875 0.26172,-1.46875 0.19531,-0.4375 0.53125,-0.78516 0.33985,-0.34765 0.74219,-0.51562 0.53516,-0.22657 1.23437,-0.22657 1.26563,0 2.02344,0.78516 0.76172,0.78516 0.76172,2.18359 0,1.38672 -0.75391,2.17188 Q 123.42383,326 122.16211,326 q -1.27734,0 -2.03125,-0.77734 -0.75391,-0.78125 -0.75391,-2.14844 z m 1.19141,-0.0391 q 0,0.97265 0.44922,1.47656 0.44922,0.5 1.14062,0.5 0.69141,0 1.13282,-0.4961 0.44531,-0.5 0.44531,-1.49609 0,-0.98437 -0.4336,-1.46875 -0.42968,-0.48437 -1.14453,-0.48437 -0.71484,0 -1.15234,0.49218 -0.4375,0.48828 -0.4375,1.47657 z"
         id="path97131"
         style="fill:#252525;fill-opacity:1" />
      <path
         d="m 125.82617,320.17578 h 1.15625 v 3.10156 q 0,0.73828 0.043,0.95703 0.0742,0.35157 0.35156,0.56641 0.28125,0.21094 0.76563,0.21094 0.49219,0 0.74219,-0.19922 0.25,-0.20313 0.30078,-0.49609 0.0508,-0.29297 0.0508,-0.97266 v -3.16797 h 1.15625 v 3.00781 q 0,1.03125 -0.0937,1.45703 -0.0937,0.42579 -0.34766,0.71875 -0.25,0.29297 -0.67187,0.46875 Q 128.85742,326 128.17773,326 q -0.82031,0 -1.24609,-0.1875 -0.42187,-0.19141 -0.66797,-0.49219 -0.24609,-0.30469 -0.32422,-0.63672 -0.11328,-0.49218 -0.11328,-1.45312 z"
         id="path97133"
         style="fill:#252525;fill-opacity:1" />
      <path
         d="m 132.90039,325.90234 v -4.75781 h -1.69922 v -0.96875 h 4.55078 v 0.96875 h -1.69531 v 4.75781 z"
         id="path97135"
         style="fill:#252525;fill-opacity:1" />
    </g>
  </g>
  <text
     xml:space="preserve"
     id="text29904"
     style="font-weight:bold;font-size:8px;line-height:1.25;font-family:Arial;-inkscape-font-specification:'Arial, Bold';font-variant-ligatures:none;text-align:center;white-space:pre;shape-inside:url(#rect29906)" />
  <g
     inkscape:groupmode="layer"
     id="layer1"
     inkscape:label="Widgets"
     style="display:none">
    <circle
       style="display:inline;fill:#ff0000;stroke:#ff0000;stroke-width:1.94925;stroke-opacity:1"
       id="path1065-72"
       cx="72.5"
       cy="341.50003"
       r="10.525375" />
    <circle
       style="display:inline;fill:#ff0000;stroke:#ff0000;stroke-width:1.8645;stroke-opacity:1"
       id="path1065-7-2-5-5-9"
       cx="84.5"
       cy="72.499878"
       r="10.06775" />
    <circle
       style="display:inline;fill:#ff0000;stroke:#ff0000;stroke-width:1.94925;stroke-opacity:1"
       id="path1065-72-2"
       cx="52.5"
       cy="72.499878"
       r="7.5253749" />
    <circle
       style="display:inline;fill:#ff0000;stroke:#ff0000;stroke-width:1.94925;stroke-opacity:1"
       id="path1065-72-6"
       cx="20.5"
       cy="72.499878"
       r="10.525375" />
    <circle
       style="display:inline;fill:#ff0000;stroke:#ff0000;stroke-width:1.8645;stroke-opacity:1"
       id="path1065-7-2-5-5-9-4"
       cx="84.5"
       cy="109.49988"
       r="10.06775" />
    <circle
       style="display:inline;fill:#ff0000;stroke:#ff0000;stroke-width:1.94925;stroke-opacity:1"
       id="path1065-72-2-8"
       cx="52.5"
       cy="109.49988"
       r="7.5253749" />
    <circle
       style="display:inline;fill:#ff0000;stroke:#ff0000;stroke-width:1.94925;stroke-opacity:1"
       id="path1065-72-6-6"
       cx="20.5"
       cy="109.49988"
       r="10.525375" />
    <ellipse
       style="display:inline;fill:#ff0000;stroke:#ff0000;stroke-width:1.8645;stroke-opacity:1"
       id="path1065-7-2-5-5-9-42"
       cx="84.498474"
       cy="148.49985"
       rx="10.067544"
       ry="10.06775" />
    <ellipse
       style="display:inline;fill:#ff0000;stroke:#ff0000;stroke-width:1.94925;stroke-opacity:1"
       id="path1065-72-2-2"
       cx="52.49913"
       cy="148.49985"
       rx="7.5252209"
       ry="7.5253749" />
    <ellipse
       style="display:inline;fill:#ff0000;stroke:#ff0000;stroke-width:1.94925;stroke-opacity:1"
       id="path1065-72-6-61"
       cx="20.499784"
       cy="148.49985"
       rx="10.52516"
       ry="10.525375" />
    <ellipse
       style="display:inline;fill:#ff0000;stroke:#ff0000;stroke-width:1.8645;stroke-opacity:1"
       id="path1065-7-2-5-5-9-9"
       cx="84.498474"
       cy="185.49983"
       rx="10.067544"
       ry="10.06775" />
    <ellipse
       style="display:inline;fill:#ff0000;stroke:#ff0000;stroke-width:1.94925;stroke-opacity:1"
       id="path1065-72-2-1"
       cx="52.49913"
       cy="185.49983"
       rx="7.5252209"
       ry="7.5253749" />
    <ellipse
       style="display:inline;fill:#ff0000;stroke:#ff0000;stroke-width:1.94925;stroke-opacity:1"
       id="path1065-72-6-8"
       cx="20.499784"
       cy="185.49983"
       rx="10.52516"
       ry="10.525375" />
    <ellipse
       style="display:inline;fill:#ff0000;stroke:#ff0000;stroke-width:1.8645;stroke-opacity:1"
       id="path1065-7-2-5-5-9-8"
       cx="84.498474"
       cy="222.49983"
       rx="10.067544"
       ry="10.06775" />
    <ellipse
       style="display:inline;fill:#ff0000;stroke:#ff0000;stroke-width:1.94925;stroke-opacity:1"
       id="path1065-72-2-25"
       cx="52.49913"
       cy="222.49983"
       rx="7.5252209"
       ry="7.5253749" />
    <ellipse
       style="display:inline;fill:#ff0000;stroke:#ff0000;stroke-width:1.94925;stroke-opacity:1"
       id="path1065-72-6-0"
       cx="20.499784"
       cy="222.49983"
       rx="10.52516"
       ry="10.525375" />
    <ellipse
       style="display:inline;fill:#ff0000;stroke:#ff0000;stroke-width:1.8645;stroke-opacity:1"
       id="path1065-7-2-5-5-9-7"
       cx="84.498474"
       cy="259.49985"
       rx="10.067544"
       ry="10.06775" />
    <ellipse
       style="display:inline;fill:#ff0000;stroke:#ff0000;stroke-width:1.94925;stroke-opacity:1"
       id="path1065-72-2-3"
       cx="52.49913"
       cy="259.49985"
       rx="7.5252209"
       ry="7.5253749" />
    <ellipse
       style="display:inline;fill:#ff0000;stroke:#ff0000;stroke-width:1.94925;stroke-opacity:1"
       id="path1065-72-6-7"
       cx="20.499784"
       cy="259.49985"
       rx="10.52516"
       ry="10.525375" />
    <ellipse
       style="display:inline;fill:#ff0000;stroke:#ff0000;stroke-width:1.8645;stroke-opacity:1"
       id="path1065-7-2-5-5-9-3"
       cx="84.498474"
       cy="296.49985"
       rx="10.067544"
       ry="10.06775" />
    <ellipse
       style="display:inline;fill:#ff0000;stroke:#ff0000;stroke-width:1.94925;stroke-opacity:1"
       id="path1065-72-2-23"
       cx="52.49913"
       cy="296.49985"
       rx="7.5252209"
       ry="7.5253749" />
    <ellipse
       style="display:inline;fill:#ff0000;stroke:#ff0000;stroke-width:1.94925;stroke-opacity:1"
       id="path1065-72-6-2"
       cx="20.499784"
       cy="296.49985"
       rx="10.52516"
       ry="10.525375" />
    <circle
       style="display:inline;fill:#ff0000;stroke:#ff0000;stroke-width:1.94925;stroke-opacity:1"
       id="path1065-72-3"
       cx="32.5"
       cy="341.50003"
       r="10.525375" />
    <circle
       style="display:inline;fill:#ff0000;stroke:#ff0000;stroke-width:0.64063;stroke-opacity:1"
       id="path1065-7-2-3-2"
       cx="15.029533"
       cy="43.415783"
       r="3.4592125" />
    <circle
       style="display:inline;fill:#ff0000;stroke:#ff0000;stroke-width:0.64063;stroke-opacity:1"
       id="path1065-7-2-3-2-1"
       cx="40.009846"
       cy="43.415783"
       r="3.4592125" />
    <circle
       style="display:inline;fill:#ff0000;stroke:#ff0000;stroke-width:0.64063;stroke-opacity:1"
       id="path1065-7-2-3-2-9"
       cx="64.990158"
       cy="43.415783"
       r="3.4592125" />
    <circle
       style="display:inline;fill:#ff0000;stroke:#ff0000;stroke-width:0.64063;stroke-opacity:1"
       id="path1065-7-2-3-2-6"
       cx="89.970467"
       cy="43.415783"
       r="3.4592125" />
  </g>
</svg>
