<?xml version="1.0" encoding="UTF-8" standalone="no"?>
<svg
   width="45"
   height="380"
   viewBox="0 0 45 380"
   version="1.1"
   id="svg100"
   sodipodi:docname="WidgetMenuExtender_Coal.svg"
   inkscape:version="1.1.1 (3bf5ae0d25, 2021-09-20)"
   xmlns:inkscape="http://www.inkscape.org/namespaces/inkscape"
   xmlns:sodipodi="http://sodipodi.sourceforge.net/DTD/sodipodi-0.dtd"
   xmlns="http://www.w3.org/2000/svg"
   xmlns:svg="http://www.w3.org/2000/svg"
   xmlns:rdf="http://www.w3.org/1999/02/22-rdf-syntax-ns#"
   xmlns:cc="http://creativecommons.org/ns#"
   xmlns:dc="http://purl.org/dc/elements/1.1/">
  <metadata
     id="metadata104">
    <rdf:RDF>
      <cc:Work
         rdf:about="">
        <dc:format>image/svg+xml</dc:format>
        <dc:type
           rdf:resource="http://purl.org/dc/dcmitype/StillImage" />
      </cc:Work>
    </rdf:RDF>
  </metadata>
  <sodipodi:namedview
     pagecolor="#ffffff"
     bordercolor="#666666"
     borderopacity="1"
     objecttolerance="1"
     gridtolerance="1"
     guidetolerance="1"
     inkscape:pageopacity="0"
     inkscape:pageshadow="2"
     inkscape:window-width="1920"
     inkscape:window-height="1057"
     id="namedview102"
     showgrid="false"
     inkscape:zoom="2"
     inkscape:cx="13"
     inkscape:cy="188.75"
     inkscape:window-x="1592"
     inkscape:window-y="-8"
     inkscape:window-maximized="1"
     inkscape:current-layer="layer4"
     inkscape:pagecheckerboard="0"
     units="px"
     inkscape:showpageshadow="false"
     showborder="true"
     showguides="true">
    <inkscape:grid
       type="xygrid"
       id="grid1285" />
  </sodipodi:namedview>
  <defs
     id="defs7">
    <rect
       x="85"
       y="10"
       width="51.058132"
       height="25"
       id="rect29906" />
    <linearGradient
       id="a8e142bb-541b-4903-be63-d5d069028a5d"
       x1="22.5"
       x2="22.5"
       y2="380"
       gradientUnits="userSpaceOnUse">
      <stop
         offset="0"
         stop-color="#ebebeb"
         id="stop2" />
      <stop
         offset="1"
         stop-color="#e1e1e1"
         id="stop4" />
    </linearGradient>
  </defs>
  <g
     inkscape:groupmode="layer"
     id="layer4"
     inkscape:label="Faceplate"
     style="display:inline">
    <g
       id="aea613ef-74be-49bf-be45-c0734aee674b"
       data-name="FND BG"
       style="fill:#252525;fill-opacity:1">
      <rect
         width="45"
         height="380"
         fill="url(#a8e142bb-541b-4903-be63-d5d069028a5d)"
         id="rect9"
         style="fill:#252525;fill-opacity:1"
         x="0"
         y="0" />
    </g>
    <g
       aria-label="MENU"
       id="text11346-4"
       style="font-weight:bold;font-size:10px;line-height:1.25;font-family:Arial;-inkscape-font-specification:'Arial, Bold';font-variant-ligatures:none;text-align:center;text-anchor:middle;display:inline;fill:#ede7dc;fill-opacity:1">
      <path
         d="m 8.5332031,26.593758 v -7.158203 h 2.1630859 l 1.298828,4.882812 1.28418,-4.882812 h 2.167969 v 7.158203 h -1.342774 v -5.634766 l -1.420898,5.634766 H 11.291992 L 9.8759766,20.958992 v 5.634766 z"
         id="path27644"
         style="fill:#ede7dc;fill-opacity:1" />
      <path
         d="m 16.882812,26.593758 v -7.158203 h 5.307618 v 1.210937 h -3.862305 v 1.586914 h 3.59375 v 1.206055 h -3.59375 v 1.948242 h 3.999023 v 1.206055 z"
         id="path27646"
         style="fill:#ede7dc;fill-opacity:1" />
      <path
         d="m 23.567383,26.593758 v -7.158203 h 1.40625 l 2.929687,4.780273 v -4.780273 h 1.342774 v 7.158203 h -1.450196 l -2.885742,-4.667969 v 4.667969 z"
         id="path27648"
         style="fill:#ede7dc;fill-opacity:1" />
      <path
         d="m 30.764648,19.435555 h 1.445313 v 3.876953 q 0,0.922851 0.05371,1.196289 0.09277,0.439453 0.439453,0.708008 0.351562,0.263671 0.957031,0.263671 0.615235,0 0.927735,-0.249023 0.3125,-0.253906 0.375976,-0.620117 0.06348,-0.366211 0.06348,-1.215821 v -3.95996 h 1.445312 v 3.759765 q 0,1.289063 -0.117187,1.821289 -0.117188,0.532227 -0.434571,0.898438 -0.3125,0.366211 -0.839843,0.585937 -0.527344,0.214844 -1.376953,0.214844 -1.025391,0 -1.557618,-0.234375 -0.527343,-0.239258 -0.834961,-0.615234 -0.307617,-0.38086 -0.405273,-0.795899 -0.141602,-0.615234 -0.141602,-1.816406 z"
         id="path27650"
         style="fill:#ede7dc;fill-opacity:1" />
    </g>
  </g>
  <g
     inkscape:groupmode="layer"
     id="layer3"
     inkscape:label="Brand"
     style="display:inline">
    <g
       id="g42796"
       transform="matrix(0.30458296,0,0,0.30458296,-0.5624499,-12.68508)"
       style="fill:#ff0000">
      <g
         aria-label="enom"
         id="text4270-27"
         style="font-size:49.3889px;line-height:1.25;font-family:'NECK ROMANCER';-inkscape-font-specification:'NECK ROMANCER, Normal';font-variant-ligatures:none;text-align:center;text-anchor:middle;fill:#ff0000;stroke-width:2.64583">
        <path
           d="m 46.609141,1249.244 q 0,1.1576 0,3.4245 3.183269,0 9.453344,0 -1.639866,0.5787 -2.990343,1.2058 -1.350478,0.627 -2.363337,1.688 -1.350477,0 -4.051433,0 0,1.4952 0.434082,2.5563 0.385851,1.1093 1.832792,1.1093 2.266873,0 6.80062,0 0.482313,-0.1447 0.868164,-0.627 0.337619,-0.5305 0.627007,-1.7363 0,2.0257 0,6.1254 -3.520888,0 -10.562665,0 -1.543403,0 -2.652724,-2.2187 -1.109321,-2.1704 -1.109321,-6.3183 0,-1.9775 0,-5.836 -0.385851,-1.3504 -1.881023,-2.1221 -1.495171,-0.7235 -3.569119,-1.2058 6.607694,0 19.774852,0 0,2.9421 0,8.7781 -1.205783,-2.701 -2.218642,-3.6656 -1.012858,-0.9646 -2.700955,-1.1093 -0.916396,-0.097 -2.170411,-0.097 -1.205783,0.048 -2.845649,0.048 -0.241157,0 -0.675239,0 z"
           id="path42762"
           style="fill:#ff0000" />
        <path
           d="m 81.576869,1245.2891 q 0,5.8842 0,17.7009 0,3.0868 -0.144694,6.0771 -0.09646,3.0386 -0.337619,5.9325 -0.385851,-3.7138 -0.964627,-6.9936 -0.530545,-3.3279 -2.025717,-5.016 0,-2.9904 0,-8.9228 -0.241157,-1.3505 -0.72347,-2.2187 -0.482314,-0.8681 -1.06109,-1.3987 -1.109321,-1.0128 -2.411567,-1.1093 -1.350478,-0.097 -2.266874,-0.097 -0.482313,0 -1.44694,0 0,4.582 0,13.746 0,3.0868 -0.09646,6.0771 -0.144694,3.0386 -0.385851,5.9325 -0.38585,-3.7138 -0.916395,-6.9936 -0.578776,-3.3279 -2.025717,-5.016 0,-4.8232 0,-14.373 -0.385851,-1.3504 -1.881022,-2.1221 -1.495172,-0.7235 -3.56912,-1.2058 6.752389,0 20.257166,0 z"
           id="path42764"
           style="fill:#ff0000" />
        <path
           d="m 104.19737,1249.0511 q 0,3.3762 0,10.1768 0,1.5434 -1.92925,2.6528 -1.92926,1.1093 -6.077152,1.1093 -4.196128,0 -6.125382,-1.1093 -1.929254,-1.1094 -1.929254,-2.6528 0,-3.3762 0,-10.1768 0,-1.5434 1.929254,-2.6527 1.929254,-1.1093 6.125382,-1.1093 4.147892,0 6.077152,1.1093 1.92925,1.1093 1.92925,2.6527 z m -3.76204,7.91 q 0,-1.8811 0,-5.6431 0,-1.6881 -1.254019,-1.9775 -1.205783,-0.2894 -2.990343,-0.2894 -1.832792,0 -3.038575,0.2894 -1.254015,0.2894 -1.254015,1.9775 0,1.881 0,5.6431 0,1.6881 1.254015,1.9774 1.205783,0.2894 3.038575,0.2894 1.78456,0 2.990343,-0.2894 1.254019,-0.2893 1.254019,-1.9774 z"
           id="path42766"
           style="fill:#ff0000" />
        <path
           d="m 142.34837,1245.2891 q -2.02572,0.4823 -3.52089,1.2058 -1.5434,0.7717 -1.88102,2.1221 0,4.7749 0,14.373 -1.49517,1.6881 -2.02572,5.016 -0.57878,3.2798 -0.96463,6.9936 -0.24115,-2.8939 -0.33762,-5.9325 -0.14469,-2.9903 -0.14469,-6.0771 0,-4.582 0,-13.746 -0.48231,0 -1.39871,0 -0.53054,0 -1.15755,0 -0.62701,0 -1.30225,0.1447 -1.25401,0.2412 -2.41157,1.2058 -1.15755,0.9646 -1.63986,3.4727 0,2.9903 0,8.9228 -0.1447,0.627 -0.28939,1.1093 -0.0965,0.4823 -0.19292,0.8199 -0.53055,1.9775 -0.38586,1.3505 0.19293,-0.627 -0.28938,1.1576 -0.0965,0.3376 -0.24116,0.8681 -0.14469,0.5306 -0.33762,1.3023 -0.14469,-0.6753 -0.28939,-1.2058 -0.14469,-0.4823 -0.24115,-0.8199 -0.53055,-2.0258 -0.33762,-1.3023 0.19292,0.7717 -0.43409,-1.6881 -0.0482,-0.2894 -0.19292,-0.7235 -0.0965,-0.3858 -0.19293,-0.8681 0,-2.9904 0,-8.9228 -0.28939,-1.3505 -0.7717,-2.2187 -0.48231,-0.8681 -1.06109,-1.3987 -1.10932,-1.0128 -2.41157,-1.1093 -1.30224,-0.097 -2.26687,-0.097 -0.48231,0 -1.39871,0 0,4.582 0,13.746 0,3.0868 -0.14469,6.0771 -0.0965,3.0386 -0.33762,5.9325 -0.38585,-3.7138 -0.96463,-6.9936 -0.53054,-3.3279 -2.02572,-5.016 0,-4.8232 0,-14.373 -0.38585,-1.3504 -1.88102,-2.1221 -1.49517,-0.7235 -3.56912,-1.2058 3.95497,0 11.76845,0 1.15755,0.3858 3.47266,1.1575 0.7717,0.2894 1.59163,0.4341 0.81994,0.1447 1.6881,0.1447 0.86816,0 1.73633,-0.1447 0.81993,-0.1447 1.59163,-0.4341 1.15756,-0.3858 3.42443,-1.1575 3.95497,0 11.76845,0 z"
           id="path42768"
           style="fill:#ff0000" />
      </g>
      <g
         aria-label="V"
         transform="matrix(1.2363173,0,0,0.80885384,-497.88086,123.48586)"
         id="text4270-3-5-2"
         style="font-size:78.5061px;line-height:1.25;font-family:Nosferotica;-inkscape-font-specification:'Nosferotica, Normal';font-variant-ligatures:none;text-align:center;text-anchor:middle;fill:#ff0000;stroke-width:3.27108">
        <path
           d="m 431.64994,1360.6864 8.57428,-0.1022 c 0,0 -4.4079,1.0878 -5.59925,3.7285 -1.88083,4.1689 -3.64217,14.6628 -3.64217,14.6628 l -2.23339,11.5191 -1.83311,11.8311 -1.71824,21.3112 -1.69514,-21.3112 -1.92196,-11.5208 -2.5009,-11.8294 c 0,0 -1.52027,-10.287 -3.38278,-14.4832 -1.14458,-2.5787 -5.63367,-3.8059 -5.63367,-3.8059 h 8.4657 l 6.66875,29.1569 z"
           id="path30410"
           sodipodi:nodetypes="ccscccccccscccc"
           style="fill:#ff0000" />
      </g>
    </g>
  </g>
  <g
     inkscape:groupmode="layer"
     id="layer5"
     inkscape:label="Lines"
     style="display:none" />
  <g
     inkscape:groupmode="layer"
     id="layer6"
     inkscape:label="Solids"
     style="display:inline">
    <g
       aria-label="WIDGET"
       id="text11346"
       style="font-weight:bold;font-size:10px;line-height:1.25;font-family:Arial;-inkscape-font-specification:'Arial, Bold';font-variant-ligatures:none;text-align:center;text-anchor:middle;fill:#ede7dc;fill-opacity:1">
      <path
         d="M 4.3367519,15.5 2.6277676,8.3417969 H 4.1072598 L 5.1863613,13.258789 6.4949551,8.3417969 h 1.71875 L 9.4685879,13.341797 10.567221,8.3417969 h 1.455078 L 10.284018,15.5 H 8.7508144 L 7.3250332,10.148438 5.9041348,15.5 Z"
         id="path27631"
         style="fill:#ede7dc;fill-opacity:1" />
      <path
         d="M 12.715658,15.5 V 8.3417969 h 1.445313 V 15.5 Z"
         id="path27633"
         style="fill:#ede7dc;fill-opacity:1" />
      <path
         d="m 15.533041,8.3417969 h 2.641602 q 0.893554,0 1.362304,0.1367187 0.629883,0.1855469 1.079102,0.6591797 0.449219,0.4736328 0.683594,1.1621097 0.234375,0.683593 0.234375,1.689453 0,0.883789 -0.219727,1.523437 -0.268555,0.78125 -0.766602,1.264649 -0.375976,0.366211 -1.015625,0.571289 Q 19.053549,15.5 18.252768,15.5 h -2.719727 z m 1.445313,1.2109375 v 4.7412106 h 1.079101 q 0.605469,0 0.874024,-0.06836 0.351562,-0.08789 0.581054,-0.297852 0.234375,-0.209961 0.38086,-0.688476 0.146484,-0.483399 0.146484,-1.313477 0,-0.830078 -0.146484,-1.274414 Q 19.746908,10.20703 19.483236,9.9580068 19.219564,9.7089834 18.814291,9.6210928 18.511557,9.5527338 17.627768,9.5527338 Z"
         id="path27635"
         style="fill:#ede7dc;fill-opacity:1" />
      <path
         d="m 26.089682,12.868164 v -1.206055 h 3.115234 v 2.851563 q -0.454102,0.439453 -1.318359,0.776367 -0.859375,0.332031 -1.743164,0.332031 -1.123047,0 -1.958008,-0.46875 -0.834961,-0.473632 -1.254883,-1.347656 -0.419922,-0.878906 -0.419922,-1.90918 0,-1.118164 0.46875,-1.9873043 0.46875,-0.8691406 1.37207,-1.3330078 0.688477,-0.3564453 1.713868,-0.3564453 1.333007,0 2.080078,0.5615234 0.751953,0.5566406 0.966797,1.542969 l -1.435547,0.268554 Q 27.525229,10.06543 27.105307,9.7626953 26.690268,9.4550781 26.065268,9.4550781 q -0.947266,0 -1.508789,0.6005859 -0.556641,0.600586 -0.556641,1.782227 0,1.274414 0.566406,1.914062 0.566406,0.634766 1.484375,0.634766 0.454102,0 0.908203,-0.175781 0.458985,-0.180665 0.786133,-0.434571 v -0.908203 z"
         id="path27637"
         style="fill:#ede7dc;fill-opacity:1" />
      <path
         d="M 30.537924,15.5 V 8.3417969 h 5.307617 v 1.2109375 h -3.862305 v 1.5869136 h 3.59375 v 1.206055 h -3.59375 v 1.948242 H 35.98226 V 15.5 Z"
         id="path27639"
         style="fill:#ede7dc;fill-opacity:1" />
      <path
         d="M 38.819174,15.5 V 9.5527344 H 36.69515 V 8.3417969 h 5.688477 V 9.5527344 H 40.264486 V 15.5 Z"
         id="path27641"
         style="fill:#ede7dc;fill-opacity:1" />
    </g>
    <g
       aria-label="ENABLE"
       id="text21969"
       style="font-weight:bold;font-size:8px;line-height:1.25;font-family:Arial;-inkscape-font-specification:'Arial, Bold';font-variant-ligatures:none;text-align:center;text-anchor:middle;fill:#ede7dc;fill-opacity:1">
      <path
         d="m 6.5449219,87.324219 v -5.726563 h 4.2460941 v 0.96875 H 7.7011719 v 1.269531 h 2.8750001 v 0.964844 H 7.7011719 v 1.558594 h 3.1992191 v 0.964844 z"
         id="path27666"
         style="fill:#ede7dc;fill-opacity:1" />
      <path
         d="m 11.892578,87.324219 v -5.726563 h 1.125 l 2.34375,3.824219 v -3.824219 h 1.074219 v 5.726563 h -1.160156 l -2.308594,-3.734375 v 3.734375 z"
         id="path27668"
         style="fill:#ede7dc;fill-opacity:1" />
      <path
         d="m 22.822266,87.324219 h -1.257813 l -0.5,-1.300782 h -2.289062 l -0.472657,1.300782 h -1.226562 l 2.230469,-5.726563 h 1.222656 z m -2.128907,-2.265625 -0.789062,-2.125 -0.773438,2.125 z"
         id="path27670"
         style="fill:#ede7dc;fill-opacity:1" />
      <path
         d="m 23.439453,81.597656 h 2.289063 q 0.679687,0 1.011718,0.05859 0.335938,0.05469 0.597657,0.234375 0.265625,0.179687 0.441406,0.480469 0.175781,0.296875 0.175781,0.667968 0,0.402344 -0.21875,0.738282 -0.214844,0.335937 -0.585937,0.503906 0.523437,0.152344 0.804687,0.519531 0.28125,0.367188 0.28125,0.863281 0,0.390625 -0.183594,0.761719 -0.179687,0.367188 -0.496093,0.589844 -0.3125,0.21875 -0.773438,0.269531 -0.289062,0.03125 -1.394531,0.03906 h -1.949219 z m 1.15625,0.953125 V 83.875 h 0.757813 q 0.675781,0 0.839843,-0.01953 0.296875,-0.03516 0.464844,-0.203125 0.171875,-0.171875 0.171875,-0.449219 0,-0.265625 -0.148437,-0.429688 -0.144532,-0.167968 -0.433594,-0.203125 -0.171875,-0.01953 -0.988281,-0.01953 z m 0,2.277344 v 1.53125 h 1.070313 q 0.625,0 0.792968,-0.03516 0.257813,-0.04687 0.417969,-0.226563 0.164063,-0.183594 0.164063,-0.488281 0,-0.257813 -0.125,-0.4375 -0.125,-0.179688 -0.363282,-0.261719 -0.234375,-0.08203 -1.023437,-0.08203 z"
         id="path27672"
         style="fill:#ede7dc;fill-opacity:1" />
      <path
         d="m 29.244141,87.324219 v -5.679688 h 1.15625 v 4.714844 h 2.875 v 0.964844 z"
         id="path27674"
         style="fill:#ede7dc;fill-opacity:1" />
      <path
         d="m 34.099609,87.324219 v -5.726563 h 4.246094 v 0.96875 h -3.089844 v 1.269531 h 2.875 v 0.964844 h -2.875 v 1.558594 h 3.199219 v 0.964844 z"
         id="path27676"
         style="fill:#ede7dc;fill-opacity:1" />
    </g>
    <g
       aria-label="XTNDR"
       id="text31458"
       style="font-weight:bold;font-size:10px;line-height:1.25;font-family:Arial;-inkscape-font-specification:'Arial, Bold';font-variant-ligatures:none;text-align:center;text-anchor:middle;fill:#ede7dc;fill-opacity:1">
      <path
         d="M 5.3051758,37.817719 7.7514648,34.082367 5.534668,30.659515 h 1.6894531 l 1.4355469,2.299805 1.40625,-2.299805 h 1.674805 l -2.2265628,3.476563 2.4462888,3.681641 H 10.217285 L 8.6303711,35.342133 7.0385742,37.817719 Z"
         id="path37516"
         style="fill:#ede7dc;fill-opacity:1" />
      <path
         d="m 14.313965,37.817719 v -5.947266 h -2.124024 v -1.210938 h 5.688477 v 1.210938 h -2.119141 v 5.947266 z"
         id="path37518"
         style="fill:#ede7dc;fill-opacity:1" />
      <path
         d="m 18.825684,37.817719 v -7.158204 h 1.40625 l 2.929687,4.780274 v -4.780274 h 1.342774 v 7.158204 H 23.054199 L 20.168457,33.14975 v 4.667969 z"
         id="path37520"
         style="fill:#ede7dc;fill-opacity:1" />
      <path
         d="m 26.027832,30.659515 h 2.641602 q 0.893554,0 1.362304,0.136719 0.629883,0.185547 1.079102,0.65918 0.449219,0.473633 0.683594,1.162109 0.234375,0.683594 0.234375,1.689453 0,0.883789 -0.219727,1.523438 -0.268555,0.78125 -0.766602,1.264648 -0.375976,0.366211 -1.015625,0.571289 -0.478515,0.151368 -1.279296,0.151368 h -2.719727 z m 1.445313,1.210938 v 4.741211 h 1.079101 q 0.605469,0 0.874024,-0.06836 0.351562,-0.08789 0.581054,-0.297851 0.234375,-0.209961 0.38086,-0.688477 0.146484,-0.483398 0.146484,-1.313476 0,-0.830078 -0.146484,-1.274414 -0.146485,-0.444336 -0.410157,-0.69336 -0.263672,-0.249023 -0.668945,-0.336914 -0.302734,-0.06836 -1.186523,-0.06836 z"
         id="path37522"
         style="fill:#ede7dc;fill-opacity:1" />
      <path
         d="m 33.259277,37.817719 v -7.158204 h 3.041993 q 1.14746,0 1.665039,0.195313 0.522461,0.19043 0.834961,0.683594 0.3125,0.493164 0.3125,1.127929 0,0.805664 -0.473633,1.333008 -0.473633,0.522461 -1.416016,0.65918 0.46875,0.273437 0.771484,0.600586 0.307618,0.327148 0.825196,1.162109 l 0.874023,1.396485 H 37.966309 L 36.921387,36.260101 Q 36.364746,35.42514 36.159668,35.210297 35.95459,34.99057 35.725098,34.912445 35.495605,34.829437 34.997559,34.829437 H 34.70459 v 2.988282 z m 1.445313,-4.13086 h 1.069336 q 1.040039,0 1.298828,-0.08789 0.258789,-0.08789 0.405273,-0.302735 0.146485,-0.214844 0.146485,-0.537109 0,-0.361328 -0.195313,-0.581055 -0.190429,-0.224609 -0.541992,-0.283203 -0.175781,-0.02441 -1.054687,-0.02441 h -1.12793 z"
         id="path37524"
         style="fill:#ede7dc;fill-opacity:1" />
    </g>
  </g>
  <g
     inkscape:groupmode="layer"
     id="layer7"
     inkscape:label="Inverse Solids"
     style="display:inline" />
  <g
     inkscape:groupmode="layer"
     id="layer8"
     inkscape:label="Inverse Lines"
     style="display:none" />
  <text
     xml:space="preserve"
     id="text29904"
     style="font-weight:bold;font-size:8px;line-height:1.25;font-family:Arial;-inkscape-font-specification:'Arial, Bold';font-variant-ligatures:none;text-align:center;white-space:pre;shape-inside:url(#rect29906)"
     transform="translate(-2.6024628e-4)" />
  <g
     inkscape:groupmode="layer"
     id="layer1"
     inkscape:label="Widgets"
     style="display:none">
    <circle
       style="display:inline;fill:#ff0000;stroke:#ff0000;stroke-width:1.5255;stroke-opacity:1"
       id="path1065-7-2-3-2-2-65-4"
       cx="22.5"
       cy="99"
       r="8.2372503" />
  </g>
</svg>
