<?xml version="1.0" encoding="UTF-8" standalone="no"?>
<svg
   width="75"
   height="380"
   viewBox="0 0 75 380"
   version="1.1"
   id="svg100"
   sodipodi:docname="Slew_Danger.svg"
   inkscape:version="1.1.1 (3bf5ae0d25, 2021-09-20)"
   xmlns:inkscape="http://www.inkscape.org/namespaces/inkscape"
   xmlns:sodipodi="http://sodipodi.sourceforge.net/DTD/sodipodi-0.dtd"
   xmlns="http://www.w3.org/2000/svg"
   xmlns:svg="http://www.w3.org/2000/svg"
   xmlns:rdf="http://www.w3.org/1999/02/22-rdf-syntax-ns#"
   xmlns:cc="http://creativecommons.org/ns#"
   xmlns:dc="http://purl.org/dc/elements/1.1/">
  <metadata
     id="metadata104">
    <rdf:RDF>
      <cc:Work
         rdf:about="">
        <dc:format>image/svg+xml</dc:format>
        <dc:type
           rdf:resource="http://purl.org/dc/dcmitype/StillImage" />
      </cc:Work>
    </rdf:RDF>
  </metadata>
  <sodipodi:namedview
     pagecolor="#ffffff"
     bordercolor="#666666"
     borderopacity="1"
     objecttolerance="1"
     gridtolerance="1"
     guidetolerance="1"
     inkscape:pageopacity="0"
     inkscape:pageshadow="2"
     inkscape:window-width="1920"
     inkscape:window-height="1057"
     id="namedview102"
     showgrid="false"
     inkscape:zoom="2.2342105"
     inkscape:cx="37.597173"
     inkscape:cy="190"
     inkscape:window-x="1592"
     inkscape:window-y="-8"
     inkscape:window-maximized="1"
     inkscape:current-layer="layer3"
     inkscape:pagecheckerboard="0"
     units="px"
     inkscape:showpageshadow="false"
     showguides="true">
    <inkscape:grid
       type="xygrid"
       id="grid1285"
       visible="true" />
  </sodipodi:namedview>
  <defs
     id="defs7">
    <rect
       x="85"
       y="10"
       width="51.058132"
       height="25"
       id="rect29906" />
    <linearGradient
       id="a8e142bb-541b-4903-be63-d5d069028a5d"
       x1="22.5"
       x2="22.5"
       y2="380"
       gradientUnits="userSpaceOnUse">
      <stop
         offset="0"
         stop-color="#ebebeb"
         id="stop2" />
      <stop
         offset="1"
         stop-color="#e1e1e1"
         id="stop4" />
    </linearGradient>
  </defs>
  <g
     inkscape:groupmode="layer"
     id="layer3"
     inkscape:label="Faceplate"
     style="display:inline">
    <g
       id="aea613ef-74be-49bf-be45-c0734aee674b"
       data-name="FND BG"
       style="fill:#ff0000;fill-opacity:1"
       transform="scale(1.6666667,1)">
      <rect
         width="45"
         height="380"
         fill="url(#a8e142bb-541b-4903-be63-d5d069028a5d)"
         id="rect9"
         style="fill:#ff0000;fill-opacity:1"
         x="0"
         y="0" />
    </g>
  </g>
  <g
     inkscape:groupmode="layer"
     id="layer2"
     inkscape:label="Brand"
     style="display:inline">
    <g
       id="g42796"
       transform="matrix(0.30458296,0,0,0.30458296,14.437551,-12.68508)"
       style="fill:#000000;fill-opacity:1">
      <g
         aria-label="enom"
         id="text4270-27"
         style="font-size:49.3889px;line-height:1.25;font-family:'NECK ROMANCER';-inkscape-font-specification:'NECK ROMANCER, Normal';font-variant-ligatures:none;text-align:center;text-anchor:middle;fill:#000000;fill-opacity:1;stroke-width:2.64583">
        <path
           d="m 46.609141,1249.244 q 0,1.1576 0,3.4245 3.183269,0 9.453344,0 -1.639866,0.5787 -2.990343,1.2058 -1.350478,0.627 -2.363337,1.688 -1.350477,0 -4.051433,0 0,1.4952 0.434082,2.5563 0.385851,1.1093 1.832792,1.1093 2.266873,0 6.80062,0 0.482313,-0.1447 0.868164,-0.627 0.337619,-0.5305 0.627007,-1.7363 0,2.0257 0,6.1254 -3.520888,0 -10.562665,0 -1.543403,0 -2.652724,-2.2187 -1.109321,-2.1704 -1.109321,-6.3183 0,-1.9775 0,-5.836 -0.385851,-1.3504 -1.881023,-2.1221 -1.495171,-0.7235 -3.569119,-1.2058 6.607694,0 19.774852,0 0,2.9421 0,8.7781 -1.205783,-2.701 -2.218642,-3.6656 -1.012858,-0.9646 -2.700955,-1.1093 -0.916396,-0.097 -2.170411,-0.097 -1.205783,0.048 -2.845649,0.048 -0.241157,0 -0.675239,0 z"
           id="path42762"
           style="fill:#000000;fill-opacity:1" />
        <path
           d="m 81.576869,1245.2891 q 0,5.8842 0,17.7009 0,3.0868 -0.144694,6.0771 -0.09646,3.0386 -0.337619,5.9325 -0.385851,-3.7138 -0.964627,-6.9936 -0.530545,-3.3279 -2.025717,-5.016 0,-2.9904 0,-8.9228 -0.241157,-1.3505 -0.72347,-2.2187 -0.482314,-0.8681 -1.06109,-1.3987 -1.109321,-1.0128 -2.411567,-1.1093 -1.350478,-0.097 -2.266874,-0.097 -0.482313,0 -1.44694,0 0,4.582 0,13.746 0,3.0868 -0.09646,6.0771 -0.144694,3.0386 -0.385851,5.9325 -0.38585,-3.7138 -0.916395,-6.9936 -0.578776,-3.3279 -2.025717,-5.016 0,-4.8232 0,-14.373 -0.385851,-1.3504 -1.881022,-2.1221 -1.495172,-0.7235 -3.56912,-1.2058 6.752389,0 20.257166,0 z"
           id="path42764"
           style="fill:#000000;fill-opacity:1" />
        <path
           d="m 104.19737,1249.0511 q 0,3.3762 0,10.1768 0,1.5434 -1.92925,2.6528 -1.92926,1.1093 -6.077152,1.1093 -4.196128,0 -6.125382,-1.1093 -1.929254,-1.1094 -1.929254,-2.6528 0,-3.3762 0,-10.1768 0,-1.5434 1.929254,-2.6527 1.929254,-1.1093 6.125382,-1.1093 4.147892,0 6.077152,1.1093 1.92925,1.1093 1.92925,2.6527 z m -3.76204,7.91 q 0,-1.8811 0,-5.6431 0,-1.6881 -1.254019,-1.9775 -1.205783,-0.2894 -2.990343,-0.2894 -1.832792,0 -3.038575,0.2894 -1.254015,0.2894 -1.254015,1.9775 0,1.881 0,5.6431 0,1.6881 1.254015,1.9774 1.205783,0.2894 3.038575,0.2894 1.78456,0 2.990343,-0.2894 1.254019,-0.2893 1.254019,-1.9774 z"
           id="path42766"
           style="fill:#000000;fill-opacity:1" />
        <path
           d="m 142.34837,1245.2891 q -2.02572,0.4823 -3.52089,1.2058 -1.5434,0.7717 -1.88102,2.1221 0,4.7749 0,14.373 -1.49517,1.6881 -2.02572,5.016 -0.57878,3.2798 -0.96463,6.9936 -0.24115,-2.8939 -0.33762,-5.9325 -0.14469,-2.9903 -0.14469,-6.0771 0,-4.582 0,-13.746 -0.48231,0 -1.39871,0 -0.53054,0 -1.15755,0 -0.62701,0 -1.30225,0.1447 -1.25401,0.2412 -2.41157,1.2058 -1.15755,0.9646 -1.63986,3.4727 0,2.9903 0,8.9228 -0.1447,0.627 -0.28939,1.1093 -0.0965,0.4823 -0.19292,0.8199 -0.53055,1.9775 -0.38586,1.3505 0.19293,-0.627 -0.28938,1.1576 -0.0965,0.3376 -0.24116,0.8681 -0.14469,0.5306 -0.33762,1.3023 -0.14469,-0.6753 -0.28939,-1.2058 -0.14469,-0.4823 -0.24115,-0.8199 -0.53055,-2.0258 -0.33762,-1.3023 0.19292,0.7717 -0.43409,-1.6881 -0.0482,-0.2894 -0.19292,-0.7235 -0.0965,-0.3858 -0.19293,-0.8681 0,-2.9904 0,-8.9228 -0.28939,-1.3505 -0.7717,-2.2187 -0.48231,-0.8681 -1.06109,-1.3987 -1.10932,-1.0128 -2.41157,-1.1093 -1.30224,-0.097 -2.26687,-0.097 -0.48231,0 -1.39871,0 0,4.582 0,13.746 0,3.0868 -0.14469,6.0771 -0.0965,3.0386 -0.33762,5.9325 -0.38585,-3.7138 -0.96463,-6.9936 -0.53054,-3.3279 -2.02572,-5.016 0,-4.8232 0,-14.373 -0.38585,-1.3504 -1.88102,-2.1221 -1.49517,-0.7235 -3.56912,-1.2058 3.95497,0 11.76845,0 1.15755,0.3858 3.47266,1.1575 0.7717,0.2894 1.59163,0.4341 0.81994,0.1447 1.6881,0.1447 0.86816,0 1.73633,-0.1447 0.81993,-0.1447 1.59163,-0.4341 1.15756,-0.3858 3.42443,-1.1575 3.95497,0 11.76845,0 z"
           id="path42768"
           style="fill:#000000;fill-opacity:1" />
      </g>
      <g
         aria-label="V"
         transform="matrix(1.2363173,0,0,0.80885384,-497.88086,123.48586)"
         id="text4270-3-5-2"
         style="font-size:78.5061px;line-height:1.25;font-family:Nosferotica;-inkscape-font-specification:'Nosferotica, Normal';font-variant-ligatures:none;text-align:center;text-anchor:middle;fill:#000000;fill-opacity:1;stroke-width:3.27108">
        <path
           d="m 431.64994,1360.6864 8.57428,-0.1022 c 0,0 -4.4079,1.0878 -5.59925,3.7285 -1.88083,4.1689 -3.64217,14.6628 -3.64217,14.6628 l -2.23339,11.5191 -1.83311,11.8311 -1.71824,21.3112 -1.69514,-21.3112 -1.92196,-11.5208 -2.5009,-11.8294 c 0,0 -1.52027,-10.287 -3.38278,-14.4832 -1.14458,-2.5787 -5.63367,-3.8059 -5.63367,-3.8059 h 8.4657 l 6.66875,29.1569 z"
           id="path30410"
           sodipodi:nodetypes="ccscccccccscccc"
           style="fill:#000000;fill-opacity:1" />
      </g>
    </g>
  </g>
  <g
     id="f45e0130-37b7-4f8b-95b3-6408baa23eb1"
     data-name="components"
     style="display:inline"
     inkscape:groupmode="layer"
     inkscape:label="Solid">
    <g
       aria-label="OVER"
       id="text12970"
       style="font-weight:bold;font-size:6.66667px;line-height:1.25;font-family:Arial;-inkscape-font-specification:'Arial, Bold';font-variant-ligatures:none;text-align:center;text-anchor:middle;fill:#000000;fill-opacity:1">
      <path
         d="m 40.330998,26.529296 q 0,-0.729167 0.218099,-1.223959 0.162761,-0.364583 0.442709,-0.654297 0.283203,-0.289713 0.61849,-0.429687 0.445963,-0.188803 1.028646,-0.188803 1.054688,0 1.686199,0.654298 0.634766,0.654297 0.634766,1.819662 0,1.155599 -0.628256,1.809897 -0.628255,0.651042 -1.679688,0.651042 -1.064454,0 -1.692709,-0.647787 -0.628256,-0.651042 -0.628256,-1.790366 z m 0.992839,-0.03255 q 0,0.810548 0.374349,1.23047 0.374349,0.416666 0.950522,0.416666 0.576172,0 0.94401,-0.413411 0.371094,-0.416667 0.371094,-1.246746 0,-0.820312 -0.361328,-1.223958 -0.358073,-0.403646 -0.953776,-0.403646 -0.595704,0 -0.960287,0.410156 -0.364584,0.406901 -0.364584,1.230469 z"
         id="path1248"
         style="fill:#000000;fill-opacity:1" />
      <path
         d="m 46.929309,28.886068 -1.70573,-4.772137 h 1.044922 l 1.207683,3.531902 1.16862,-3.531902 h 1.022136 l -1.708985,4.772137 z"
         id="path1250"
         style="fill:#000000;fill-opacity:1" />
      <path
         d="m 50.158477,28.886068 v -4.772137 h 3.538413 v 0.807292 h -2.574871 v 1.057943 h 2.395834 v 0.804037 h -2.395834 v 1.298829 h 2.666017 v 0.804036 z"
         id="path1252"
         style="fill:#000000;fill-opacity:1" />
      <path
         d="m 54.608349,28.886068 v -4.772137 h 2.027996 q 0.764974,0 1.110026,0.130208 0.348308,0.126953 0.556641,0.455729 0.208334,0.328777 0.208334,0.751954 0,0.53711 -0.315756,0.888672 -0.315755,0.348308 -0.944011,0.439454 0.312501,0.182291 0.514324,0.40039 0.205078,0.218099 0.55013,0.77474 l 0.582683,0.93099 h -1.152345 l -0.696615,-1.038412 q -0.371093,-0.55664 -0.507812,-0.69987 -0.136719,-0.146484 -0.289714,-0.198568 -0.152995,-0.05534 -0.485026,-0.05534 h -0.195313 v 1.992188 z m 0.963542,-2.753907 h 0.712891 q 0.69336,0 0.865886,-0.05859 0.172526,-0.05859 0.270182,-0.201823 0.09766,-0.143229 0.09766,-0.358073 0,-0.240886 -0.130209,-0.38737 -0.126953,-0.14974 -0.361328,-0.188802 -0.117188,-0.01628 -0.703125,-0.01628 h -0.751954 z"
         id="path1254"
         style="fill:#000000;fill-opacity:1" />
    </g>
    <rect
       style="fill:#000000;fill-opacity:1;stroke:none;stroke-width:0.999989"
       id="rect1575"
       width="70.884071"
       height="76.587425"
       x="2.057965"
       y="280.53937"
       rx="5.0079994"
       ry="5.26612" />
    <path
       style="color:#000000;display:inline;fill:#000000;fill-opacity:1;-inkscape-stroke:none"
       d="m 19.499999,97.004616 v 32.490234 h 1 V 97.004616 Z"
       id="path78542-33" />
    <path
       style="color:#000000;display:inline;fill:#000000;fill-opacity:1;-inkscape-stroke:none"
       d="m 54.499999,97.004616 v 32.490234 h 1 V 97.004616 Z"
       id="path78542-33-6" />
    <path
       style="color:#000000;display:inline;fill:#000000;fill-opacity:1;stroke-width:1;stroke-dasharray:2, 2;-inkscape-stroke:none"
       d="m 19.499212,63.030446 v 2 h 1.001575 v -2 z m 0,4 v 2 h 1.001575 v -2 z m 0,4 v 2 h 1.001575 v -2 z m 0,4 v 2 h 1.001575 v -2 z m 0,4 v 2 h 1.001575 v -2 z m 0,4 v 2 h 1.001575 v -2 z m 0,4 v 2 h 1.001575 v -2 z m 0,4 v 2 h 1.001575 v -2 z m 0,4 v 0.49024 h 1.001575 v -0.49024 z"
       id="path78542-3-0-5" />
    <path
       style="color:#000000;display:inline;fill:#000000;fill-opacity:1;stroke-width:1;stroke-dasharray:2, 2;-inkscape-stroke:none"
       d="m 54.499211,63.030446 v 2 h 1.001576 v -2 z m 0,4 v 2 h 1.001576 v -2 z m 0,4 v 2 h 1.001576 v -2 z m 0,4 v 2 h 1.001576 v -2 z m 0,4 v 2 h 1.001576 v -2 z m 0,4 v 2 h 1.001576 v -2 z m 0,4 v 2 h 1.001576 v -2 z m 0,4 v 2 h 1.001576 v -2 z m 0,4 v 0.49024 h 1.001576 v -0.49024 z"
       id="path78542-3-0-5-4" />
    <path
       style="color:#000000;display:inline;fill:#000000;fill-opacity:1;-inkscape-stroke:none"
       d="m 33,174.85723 c -2.8776,-0.0707 -4.39106,1.33812 -5.03906,2.74023 -0.648,1.40212 -0.53516,2.79688 -0.53516,2.79688 l 0.99805,-0.0742 c 0,0 -0.0775,-1.17143 0.44531,-2.30274 0.52285,-1.1313 1.54148,-2.22316 4.10547,-2.16015 z"
       id="path12152-9" />
    <g
       id="path13057"
       style="display:inline;fill:#000000;fill-opacity:1"
       transform="translate(112.53516,73.97412)">
      <path
         style="color:#000000;fill:#000000;fill-opacity:1;-inkscape-stroke:none"
         d="m -105.18256,106.15065 4.9999,-5.00001"
         id="path2602" />
      <path
         style="color:#000000;fill:#000000;fill-opacity:1;-inkscape-stroke:none"
         d="m -100.53711,100.79688 -4.99805,5 0.70703,0.70703 4.998052,-5 z"
         id="path2604" />
    </g>
    <path
       style="color:#000000;display:inline;fill:#000000;fill-opacity:1;-inkscape-stroke:none"
       d="M 42.70703,174.771 42,175.47803 l 5,4.99999 0.70703,-0.70703 z"
       id="path13057-8" />
    <g
       aria-label="RISE"
       id="text4162-0"
       style="font-weight:bold;font-size:8px;line-height:1.25;font-family:Arial;-inkscape-font-specification:'Arial, Bold';font-variant-ligatures:none;text-align:center;text-anchor:middle;display:inline;fill:#000000;fill-opacity:1"
       transform="translate(160.51805,-92.645462)">
      <path
         d="m -149.3618,136.66168 v -5.72656 h 2.43359 q 0.91797,0 1.33203,0.15625 0.41797,0.15234 0.66797,0.54687 0.25,0.39454 0.25,0.90235 0,0.64453 -0.3789,1.0664 -0.37891,0.41797 -1.13282,0.52735 0.375,0.21875 0.61719,0.48047 0.2461,0.26172 0.66016,0.92968 l 0.69922,1.11719 h -1.38282 l -0.83593,-1.24609 q -0.44532,-0.66797 -0.60938,-0.83985 -0.16406,-0.17578 -0.34765,-0.23828 -0.1836,-0.0664 -0.58204,-0.0664 h -0.23437 v 2.39062 z m 1.15625,-3.30469 h 0.85547 q 0.83203,0 1.03906,-0.0703 0.20703,-0.0703 0.32422,-0.24219 0.11719,-0.17187 0.11719,-0.42968 0,-0.28907 -0.15625,-0.46485 -0.15235,-0.17968 -0.4336,-0.22656 -0.14062,-0.0195 -0.84375,-0.0195 h -0.90234 z"
         id="path1181"
         style="fill:#000000;fill-opacity:1" />
      <path
         d="m -143.62352,136.66168 v -5.72656 h 1.15625 v 5.72656 z"
         id="path1183"
         style="fill:#000000;fill-opacity:1" />
      <path
         d="m -141.65868,134.7984 1.125,-0.10937 q 0.10157,0.5664 0.41016,0.83203 0.3125,0.26562 0.83984,0.26562 0.5586,0 0.83985,-0.23437 0.28515,-0.23828 0.28515,-0.55469 0,-0.20313 -0.12109,-0.34375 -0.11719,-0.14453 -0.41406,-0.25 -0.20313,-0.0703 -0.92578,-0.25 -0.92969,-0.23047 -1.30469,-0.56641 -0.52734,-0.47265 -0.52734,-1.15234 0,-0.4375 0.24609,-0.81641 0.25,-0.38281 0.71484,-0.58203 0.46875,-0.19922 1.12891,-0.19922 1.07812,0 1.62109,0.47266 0.54688,0.47266 0.57422,1.26172 l -1.15625,0.0508 q -0.0742,-0.44141 -0.32031,-0.63281 -0.24219,-0.19532 -0.73047,-0.19532 -0.50391,0 -0.78906,0.20704 -0.1836,0.13281 -0.1836,0.35546 0,0.20313 0.17188,0.34766 0.21875,0.18359 1.0625,0.38281 0.84375,0.19922 1.24609,0.41407 0.40625,0.21093 0.63282,0.58203 0.23046,0.36718 0.23046,0.91015 0,0.49219 -0.27343,0.92188 -0.27344,0.42969 -0.77344,0.64062 -0.5,0.20703 -1.24609,0.20703 -1.08594,0 -1.66797,-0.5 -0.58203,-0.5039 -0.69532,-1.46484 z"
         id="path1185"
         style="fill:#000000;fill-opacity:1" />
      <path
         d="m -136.02977,136.66168 v -5.72656 h 4.24609 v 0.96875 h -3.08984 v 1.26953 h 2.875 v 0.96484 h -2.875 v 1.5586 h 3.19922 v 0.96484 z"
         id="path1187"
         style="fill:#000000;fill-opacity:1" />
    </g>
    <g
       aria-label="FALL"
       id="text4162-0-5"
       style="font-weight:bold;font-size:8px;line-height:1.25;font-family:Arial;-inkscape-font-specification:'Arial, Bold';font-variant-ligatures:none;text-align:center;text-anchor:middle;display:inline;fill:#000000;fill-opacity:1"
       transform="translate(153.38871,-94.46153)">
      <path
         d="m -107.97074,138.47971 v -5.72657 h 3.92578 v 0.96875 h -2.76953 v 1.35547 h 2.39062 v 0.96875 h -2.39062 v 2.4336 z"
         id="path1190"
         style="fill:#000000;fill-opacity:1" />
      <path
         d="m -98.369179,138.47971 h -1.257812 l -0.499999,-1.30079 h -2.28906 l -0.47266,1.30079 h -1.22656 l 2.23047,-5.72657 h 1.22265 z m -2.128911,-2.26563 -0.78906,-2.125 -0.77344,2.125 z"
         id="path1192"
         style="fill:#000000;fill-opacity:1" />
      <path
         d="m -97.724648,138.47971 v -5.67969 h 1.15625 v 4.71484 h 2.875 v 0.96485 z"
         id="path1194"
         style="fill:#000000;fill-opacity:1" />
      <path
         d="m -92.837929,138.47971 v -5.67969 h 1.15625 v 4.71484 h 2.875 v 0.96485 z"
         id="path1196"
         style="fill:#000000;fill-opacity:1" />
    </g>
    <g
       aria-label="IN"
       id="text3566-7"
       style="font-weight:bold;font-size:8px;line-height:1.25;font-family:Arial;-inkscape-font-specification:'Arial, Bold';font-variant-ligatures:none;text-align:center;text-anchor:middle;display:inline;fill:#000000;fill-opacity:1">
      <path
         d="m 16.59375,250.47421 v -5.72656 H 17.75 v 5.72656 z"
         id="path1472"
         style="fill:#000000;fill-opacity:1" />
      <path
         d="m 18.863281,250.47421 v -5.72656 h 1.125 l 2.34375,3.82422 v -3.82422 h 1.074219 v 5.72656 H 22.246094 L 19.9375,246.73984 v 3.73437 z"
         id="path1474"
         style="fill:#000000;fill-opacity:1" />
    </g>
    <g
       aria-label="V/OCT"
       id="text3566-7-2"
       style="font-weight:bold;font-size:8px;line-height:1.25;font-family:Arial;-inkscape-font-specification:'Arial, Bold';font-variant-ligatures:none;text-align:center;text-anchor:middle;display:inline;fill:#000000;fill-opacity:1">
      <path
         d="m 44.904297,250.47421 -2.046875,-5.72656 h 1.253906 l 1.449219,4.23828 1.402344,-4.23828 h 1.226562 l -2.050781,5.72656 z"
         id="path1477"
         style="fill:#000000;fill-opacity:1" />
      <path
         d="m 48.185547,250.57187 1.417969,-5.92188 h 0.824218 l -1.433593,5.92188 z"
         id="path1479"
         style="fill:#000000;fill-opacity:1" />
      <path
         d="m 50.767578,247.64609 q 0,-0.875 0.261719,-1.46875 0.195312,-0.4375 0.53125,-0.78516 0.339844,-0.34765 0.742187,-0.51562 0.535157,-0.22657 1.234375,-0.22657 1.265625,0 2.023438,0.78516 0.761719,0.78516 0.761719,2.18359 0,1.38672 -0.753907,2.17188 -0.753906,0.78125 -2.015625,0.78125 -1.277343,0 -2.03125,-0.77734 -0.753906,-0.78125 -0.753906,-2.14844 z m 1.191406,-0.0391 q 0,0.97265 0.449219,1.47656 0.449219,0.5 1.140625,0.5 0.691406,0 1.132813,-0.4961 0.445312,-0.5 0.445312,-1.49609 0,-0.98437 -0.433594,-1.46875 -0.429687,-0.48437 -1.144531,-0.48437 -0.714844,0 -1.152344,0.49218 -0.4375,0.48828 -0.4375,1.47657 z"
         id="path1481"
         style="fill:#000000;fill-opacity:1" />
      <path
         d="m 60.888672,248.36874 1.121094,0.35547 q -0.257813,0.9375 -0.859375,1.39453 -0.597657,0.45313 -1.519532,0.45313 -1.140625,0 -1.875,-0.77734 -0.734375,-0.78125 -0.734375,-2.13282 0,-1.42968 0.738282,-2.21875 0.738281,-0.79297 1.941406,-0.79297 1.050781,0 1.707031,0.6211 0.390625,0.36719 0.585938,1.05469 l -1.144532,0.27343 q -0.101562,-0.44531 -0.425781,-0.70312 -0.320312,-0.25781 -0.78125,-0.25781 -0.636719,0 -1.035156,0.45703 -0.394531,0.45703 -0.394531,1.48047 0,1.08593 0.390625,1.54687 0.390625,0.46094 1.015625,0.46094 0.460937,0 0.792968,-0.29297 0.332032,-0.29297 0.476563,-0.92188 z"
         id="path1483"
         style="fill:#000000;fill-opacity:1" />
      <path
         d="m 64.291016,250.47421 v -4.75781 h -1.699219 v -0.96875 h 4.550781 v 0.96875 h -1.695312 v 4.75781 z"
         id="path1485"
         style="fill:#000000;fill-opacity:1" />
    </g>
    <path
       style="color:#000000;display:inline;fill:#000000;fill-opacity:1;-inkscape-stroke:none"
       d="m 19.499999,199.50488 v 32.49023 h 1 v -32.49023 z"
       id="path78542-33-2" />
    <path
       style="color:#000000;display:inline;fill:#000000;fill-opacity:1;-inkscape-stroke:none"
       d="m 54.499999,199.50488 v 32.49023 h 1 v -32.49023 z"
       id="path78542-33-6-8" />
    <g
       aria-label="SLEW"
       id="text3566"
       style="font-weight:bold;font-size:12px;line-height:1.25;font-family:Arial;-inkscape-font-specification:'Arial, Bold';font-variant-ligatures:none;text-align:center;text-anchor:middle;fill:#000000;fill-opacity:1">
      <path
         d="m 20.390625,11.972466 1.6875,-0.164062 q 0.152344,0.849609 0.615234,1.248047 0.46875,0.398437 1.259766,0.398437 0.837891,0 1.259766,-0.351562 0.427734,-0.357422 0.427734,-0.832031 0,-0.304688 -0.181641,-0.515625 -0.175781,-0.216797 -0.621093,-0.375 -0.304688,-0.105469 -1.388672,-0.375 -1.394532,-0.345704 -1.957032,-0.84961 -0.791015,-0.7089842 -0.791015,-1.7285154 0,-0.65625 0.36914,-1.2246094 0.375,-0.5742187 1.072266,-0.8730469 0.703125,-0.2988281 1.693359,-0.2988281 1.617188,0 2.431641,0.7089844 0.820313,0.7089844 0.861328,1.8925781 l -1.734375,0.076172 Q 25.283203,8.0466852 24.914062,7.7595758 24.550781,7.4666071 23.818359,7.4666071 q -0.755859,0 -1.183593,0.3105469 -0.275391,0.1992187 -0.275391,0.5332031 0,0.3046875 0.257812,0.5214844 0.328125,0.2753906 1.59375,0.5742187 1.265625,0.2988281 1.869141,0.6210938 0.609375,0.316406 0.949219,0.873047 0.345703,0.550781 0.345703,1.365234 0,0.738281 -0.410156,1.382813 -0.410157,0.644531 -1.160157,0.960937 -0.75,0.310547 -1.86914,0.310547 -1.628906,0 -2.501953,-0.75 -0.873047,-0.755859 -1.042969,-2.197266 z"
         id="path1438"
         style="fill:#000000;fill-opacity:1" />
      <path
         d="M 28.880859,14.767388 V 6.2478571 h 1.734375 v 7.0722659 h 4.3125 v 1.447265 z"
         id="path1440"
         style="fill:#000000;fill-opacity:1" />
      <path
         d="M 36.164062,14.767388 V 6.1775446 h 6.369141 v 1.453125 h -4.634766 v 1.9042969 h 4.3125 v 1.4472655 h -4.3125 v 2.337891 h 4.798829 v 1.447265 z"
         id="path1442"
         style="fill:#000000;fill-opacity:1" />
      <path
         d="M 45.386719,14.767388 43.335937,6.1775446 h 1.775391 l 1.294922,5.9003904 1.570312,-5.9003904 h 2.0625 l 1.50586,6.0000004 1.318359,-6.0000004 h 1.746094 L 52.523437,14.767388 H 50.683594 L 48.972656,8.3455133 47.267578,14.767388 Z"
         id="path1444"
         style="fill:#000000;fill-opacity:1" />
    </g>
    <path
       style="color:#000000;display:inline;fill:#000000;fill-opacity:1;stroke-width:1;stroke-dasharray:2, 2;-inkscape-stroke:none"
       d="m 19.499999,166.531 v 2 h 1 v -2 z m 0,4 v 2 h 1 v -2 z m 0,4 v 2 h 1 v -2 z m 0,4 v 2 h 1 v -2 z m 0,4 v 2 h 1 v -2 z m 0,4 v 2 h 1 v -2 z m 0,4 v 2 h 1 v -2 z m 0,4 v 2 h 1 v -2 z m 0,4 v 0.49024 h 1 V 198.531 Z"
       id="path78542-3-0-5-5" />
    <path
       style="color:#000000;display:inline;fill:#000000;fill-opacity:1;stroke-width:1;stroke-dasharray:2, 2;-inkscape-stroke:none"
       d="m 54.499999,166.531 v 2 h 1 v -2 z m 0,4 v 2 h 1 v -2 z m 0,4 v 2 h 1 v -2 z m 0,4 v 2 h 1 v -2 z m 0,4 v 2 h 1 v -2 z m 0,4 v 2 h 1 v -2 z m 0,4 v 2 h 1 v -2 z m 0,4 v 2 h 1 v -2 z m 0,4 v 0.49024 h 1 V 198.531 Z"
       id="path78542-3-0-5-4-4" />
    <path
       style="color:#000000;display:inline;fill:#000000;fill-opacity:1;-inkscape-stroke:none"
       d="m 62.475835,174.84228 c -0.009,1.41544 0.0218,2.77411 0.79687,3.84375 0.77508,1.06963 2.22984,1.67421 4.69336,1.7207 l 0.0195,-1 c -2.31233,-0.0436 -3.36686,-0.56961 -3.90234,-1.30859 -0.53548,-0.73899 -0.61637,-1.86506 -0.60742,-3.25 z"
       id="path12152-5" />
    <g
       aria-label="FAST"
       id="text3566-7-4"
       style="font-weight:bold;font-size:6.66667px;line-height:1.25;font-family:Arial;-inkscape-font-specification:'Arial, Bold';font-variant-ligatures:none;text-align:center;text-anchor:middle;display:inline;fill:#000000;fill-opacity:1"
       transform="translate(-8.935798,-0.0558615)">
      <path
         d="m 14.398798,28.940306 v -4.772138 h 3.271486 V 24.97546 H 15.36234 v 1.129558 h 1.992189 V 26.91231 H 15.36234 v 2.027996 z"
         id="path1447"
         style="fill:#000000;fill-opacity:1" />
      <path
         d="m 22.400104,28.940306 h -1.048178 l -0.416667,-1.083985 h -1.907553 l -0.39388,1.083985 H 17.61169 l 1.858725,-4.772138 h 1.018881 z m -1.774089,-1.888022 -0.657553,-1.770834 -0.644531,1.770834 z"
         id="path1449"
         style="fill:#000000;fill-opacity:1" />
      <path
         d="m 22.667031,27.387571 0.937501,-0.09115 q 0.08464,0.472005 0.341797,0.693359 0.260417,0.221355 0.69987,0.221355 0.465495,0 0.69987,-0.195313 0.237631,-0.198568 0.237631,-0.46224 0,-0.169271 -0.100912,-0.286458 -0.09766,-0.120443 -0.345052,-0.208334 -0.169271,-0.05859 -0.771485,-0.208333 -0.77474,-0.192057 -1.08724,-0.472005 -0.439453,-0.393881 -0.439453,-0.960287 0,-0.364584 0.205078,-0.680339 0.208333,-0.319011 0.595703,-0.485027 0.390625,-0.166015 0.940756,-0.166015 0.898438,0 1.350912,0.39388 0.455729,0.393881 0.478516,1.051433 l -0.963542,0.04232 q -0.06185,-0.367839 -0.266927,-0.527344 -0.201824,-0.162761 -0.608725,-0.162761 -0.419922,0 -0.657552,0.172526 -0.152995,0.110677 -0.152995,0.296224 0,0.169271 0.143229,0.289714 0.182292,0.152995 0.885417,0.319011 0.703126,0.166015 1.038412,0.345052 0.338542,0.175781 0.527344,0.485026 0.192058,0.30599 0.192058,0.758464 0,0.410157 -0.227865,0.76823 -0.227865,0.358073 -0.644532,0.533854 -0.416666,0.172526 -1.038412,0.172526 -0.904948,0 -1.389974,-0.416667 -0.485026,-0.419922 -0.579428,-1.220703 z"
         id="path1451"
         style="fill:#000000;fill-opacity:1" />
      <path
         d="M 28.432008,28.940306 V 24.97546 h -1.416017 v -0.807292 h 3.79232 V 24.97546 H 29.39555 v 3.964846 z"
         id="path1453"
         style="fill:#000000;fill-opacity:1" />
    </g>
  </g>
  <g
     inkscape:groupmode="layer"
     id="layer4"
     inkscape:label="Reverse Solid"
     style="display:inline">
    <g
       aria-label="FLAT"
       id="text3566-7-8"
       style="font-weight:bold;font-size:8px;line-height:1.25;font-family:Arial;-inkscape-font-specification:'Arial, Bold';font-variant-ligatures:none;text-align:center;text-anchor:middle;display:inline;fill:#f2f2f2;fill-opacity:1">
      <path
         d="m 10.455078,327.46899 v -5.72656 h 3.925781 v 0.96875 h -2.769531 v 1.35547 h 2.390625 v 0.96875 h -2.390625 v 2.43359 z"
         id="path1456"
         style="fill:#f2f2f2;fill-opacity:1" />
      <path
         d="m 15.365234,327.46899 v -5.67968 h 1.15625 v 4.71484 h 2.875 v 0.96484 z"
         id="path1458"
         style="fill:#f2f2f2;fill-opacity:1" />
      <path
         d="m 25.384766,327.46899 h -1.257813 l -0.5,-1.30078 h -2.289062 l -0.472657,1.30078 h -1.226562 l 2.230469,-5.72656 h 1.222656 z m -2.128907,-2.26562 -0.789062,-2.125 -0.773438,2.125 z"
         id="path1460"
         style="fill:#f2f2f2;fill-opacity:1" />
      <path
         d="m 26.693359,327.46899 v -4.75781 h -1.699218 v -0.96875 h 4.550781 v 0.96875 h -1.695313 v 4.75781 z"
         id="path1462"
         style="fill:#f2f2f2;fill-opacity:1" />
    </g>
    <g
       aria-label="RISE"
       id="text4162-0-6"
       style="font-weight:bold;font-size:8px;line-height:1.25;font-family:Arial;-inkscape-font-specification:'Arial, Bold';font-variant-ligatures:none;text-align:center;text-anchor:middle;display:inline;fill:#f2f2f2;fill-opacity:1"
       transform="translate(160.51805,153.8489)">
      <path
         d="m -149.3618,136.66168 v -5.72656 h 2.43359 q 0.91797,0 1.33203,0.15625 0.41797,0.15234 0.66797,0.54687 0.25,0.39454 0.25,0.90235 0,0.64453 -0.3789,1.0664 -0.37891,0.41797 -1.13282,0.52735 0.375,0.21875 0.61719,0.48047 0.2461,0.26172 0.66016,0.92968 l 0.69922,1.11719 h -1.38282 l -0.83593,-1.24609 q -0.44532,-0.66797 -0.60938,-0.83985 -0.16406,-0.17578 -0.34765,-0.23828 -0.1836,-0.0664 -0.58204,-0.0664 h -0.23437 v 2.39062 z m 1.15625,-3.30469 h 0.85547 q 0.83203,0 1.03906,-0.0703 0.20703,-0.0703 0.32422,-0.24219 0.11719,-0.17187 0.11719,-0.42968 0,-0.28907 -0.15625,-0.46485 -0.15235,-0.17968 -0.4336,-0.22656 -0.14062,-0.0195 -0.84375,-0.0195 h -0.90234 z"
         id="path1181-1"
         style="fill:#f2f2f2;fill-opacity:1" />
      <path
         d="m -143.62352,136.66168 v -5.72656 h 1.15625 v 5.72656 z"
         id="path1183-2"
         style="fill:#f2f2f2;fill-opacity:1" />
      <path
         d="m -141.65868,134.7984 1.125,-0.10937 q 0.10157,0.5664 0.41016,0.83203 0.3125,0.26562 0.83984,0.26562 0.5586,0 0.83985,-0.23437 0.28515,-0.23828 0.28515,-0.55469 0,-0.20313 -0.12109,-0.34375 -0.11719,-0.14453 -0.41406,-0.25 -0.20313,-0.0703 -0.92578,-0.25 -0.92969,-0.23047 -1.30469,-0.56641 -0.52734,-0.47265 -0.52734,-1.15234 0,-0.4375 0.24609,-0.81641 0.25,-0.38281 0.71484,-0.58203 0.46875,-0.19922 1.12891,-0.19922 1.07812,0 1.62109,0.47266 0.54688,0.47266 0.57422,1.26172 l -1.15625,0.0508 q -0.0742,-0.44141 -0.32031,-0.63281 -0.24219,-0.19532 -0.73047,-0.19532 -0.50391,0 -0.78906,0.20704 -0.1836,0.13281 -0.1836,0.35546 0,0.20313 0.17188,0.34766 0.21875,0.18359 1.0625,0.38281 0.84375,0.19922 1.24609,0.41407 0.40625,0.21093 0.63282,0.58203 0.23046,0.36718 0.23046,0.91015 0,0.49219 -0.27343,0.92188 -0.27344,0.42969 -0.77344,0.64062 -0.5,0.20703 -1.24609,0.20703 -1.08594,0 -1.66797,-0.5 -0.58203,-0.5039 -0.69532,-1.46484 z"
         id="path1185-8"
         style="fill:#f2f2f2;fill-opacity:1" />
      <path
         d="m -136.02977,136.66168 v -5.72656 h 4.24609 v 0.96875 h -3.08984 v 1.26953 h 2.875 v 0.96484 h -2.875 v 1.5586 h 3.19922 v 0.96484 z"
         id="path1187-4"
         style="fill:#f2f2f2;fill-opacity:1" />
    </g>
    <g
       aria-label="FALL"
       id="text4162-0-5-0"
       style="font-weight:bold;font-size:8px;line-height:1.25;font-family:Arial;-inkscape-font-specification:'Arial, Bold';font-variant-ligatures:none;text-align:center;text-anchor:middle;display:inline;fill:#f2f2f2;fill-opacity:1"
       transform="translate(153.38871,152.03283)">
      <path
         d="m -107.97074,138.47971 v -5.72657 h 3.92578 v 0.96875 h -2.76953 v 1.35547 h 2.39062 v 0.96875 h -2.39062 v 2.4336 z"
         id="path1190-6"
         style="fill:#f2f2f2;fill-opacity:1" />
      <path
         d="m -98.369179,138.47971 h -1.257812 l -0.499999,-1.30079 h -2.28906 l -0.47266,1.30079 h -1.22656 l 2.23047,-5.72657 h 1.22265 z m -2.128911,-2.26563 -0.78906,-2.125 -0.77344,2.125 z"
         id="path1192-2"
         style="fill:#f2f2f2;fill-opacity:1" />
      <path
         d="m -97.724648,138.47971 v -5.67969 h 1.15625 v 4.71484 h 2.875 v 0.96485 z"
         id="path1194-6"
         style="fill:#f2f2f2;fill-opacity:1" />
      <path
         d="m -92.837929,138.47971 v -5.67969 h 1.15625 v 4.71484 h 2.875 v 0.96485 z"
         id="path1196-0"
         style="fill:#f2f2f2;fill-opacity:1" />
    </g>
    <g
       aria-label="OUT"
       id="text3566-7-3"
       style="font-weight:bold;font-size:8px;line-height:1.25;font-family:Arial;-inkscape-font-specification:'Arial, Bold';font-variant-ligatures:none;text-align:center;text-anchor:middle;display:inline;fill:#f2f2f2;fill-opacity:1">
      <path
         d="m 46.8125,324.64087 q 0,-0.875 0.261719,-1.46875 0.195312,-0.4375 0.53125,-0.78516 0.339843,-0.34765 0.742187,-0.51562 0.535156,-0.22656 1.234375,-0.22656 1.265625,0 2.023438,0.78515 0.761718,0.78516 0.761718,2.1836 0,1.38671 -0.753906,2.17187 -0.753906,0.78125 -2.015625,0.78125 -1.277344,0 -2.03125,-0.77734 -0.753906,-0.78125 -0.753906,-2.14844 z m 1.191406,-0.0391 q 0,0.97265 0.449219,1.47656 0.449219,0.5 1.140625,0.5 0.691406,0 1.132812,-0.49609 0.445313,-0.5 0.445313,-1.4961 0,-0.98437 -0.433594,-1.46875 -0.429687,-0.48437 -1.144531,-0.48437 -0.714844,0 -1.152344,0.49218 -0.4375,0.48829 -0.4375,1.47657 z"
         id="path1465"
         style="fill:#f2f2f2;fill-opacity:1" />
      <path
         d="m 53.261719,321.74243 h 1.15625 v 3.10156 q 0,0.73829 0.04297,0.95704 0.07422,0.35156 0.351563,0.5664 0.28125,0.21094 0.765625,0.21094 0.492187,0 0.742187,-0.19922 0.25,-0.20312 0.300782,-0.49609 0.05078,-0.29297 0.05078,-0.97266 v -3.16797 h 1.15625 v 3.00781 q 0,1.03125 -0.09375,1.45704 -0.09375,0.42578 -0.347656,0.71875 -0.25,0.29296 -0.671875,0.46875 -0.421875,0.17187 -1.101563,0.17187 -0.820312,0 -1.246094,-0.1875 -0.421875,-0.19141 -0.667968,-0.49219 -0.246094,-0.30468 -0.324219,-0.63672 -0.113281,-0.49218 -0.113281,-1.45312 z"
         id="path1467"
         style="fill:#f2f2f2;fill-opacity:1" />
      <path
         d="m 60.335937,327.46899 v -4.75781 h -1.699218 v -0.96875 H 63.1875 v 0.96875 h -1.695313 v 4.75781 z"
         id="path1469"
         style="fill:#f2f2f2;fill-opacity:1" />
    </g>
  </g>
  <text
     xml:space="preserve"
     id="text29904"
     style="font-weight:bold;font-size:8px;line-height:1.25;font-family:Arial;-inkscape-font-specification:'Arial, Bold';font-variant-ligatures:none;text-align:center;white-space:pre;shape-inside:url(#rect29906)" />
  <g
     inkscape:groupmode="layer"
     id="layer1"
     inkscape:label="Widgets"
     style="display:none">
    <circle
       style="fill:#ff0000;stroke:#ff0000;stroke-width:1.94925;stroke-opacity:1"
       id="path1065"
       cx="55"
       cy="341.5"
       r="10.525375" />
    <circle
       style="fill:#ff0000;stroke:#ff0000;stroke-width:1.94925;stroke-opacity:1"
       id="path1065-7"
       cx="20"
       cy="304.5"
       r="10.525375" />
    <circle
       style="fill:#ff0000;stroke:#ff0000;stroke-width:1.94925;stroke-opacity:1"
       id="path1065-7-1"
       cx="55"
       cy="304.5"
       r="10.525375" />
    <circle
       style="display:inline;fill:#ff0000;stroke:#ff0000;stroke-width:1.94925;stroke-opacity:1"
       id="path1065-7-1-8"
       cx="20"
       cy="264.49954"
       r="10.525375" />
    <circle
       style="display:inline;fill:#ff0000;stroke:#ff0000;stroke-width:1.94925;stroke-opacity:1"
       id="path1065-7-1-17"
       cx="55"
       cy="264.49954"
       r="10.525375" />
    <circle
       style="display:inline;fill:#ff0000;stroke:#ff0000;stroke-width:1.94925;stroke-opacity:1"
       id="path1065-7-1-89"
       cx="20"
       cy="129.99973"
       r="10.525375" />
    <circle
       style="display:inline;fill:#ff0000;stroke:#ff0000;stroke-width:1.94925;stroke-opacity:1"
       id="path1065-7-1-2"
       cx="55"
       cy="129.99973"
       r="10.525375" />
    <circle
       style="display:inline;fill:#ff0000;stroke:#ff0000;stroke-width:1.94925;stroke-opacity:1"
       id="path1065-7-1-7"
       cx="20"
       cy="96.499741"
       r="10.025375" />
    <circle
       style="display:inline;fill:#ff0000;stroke:#ff0000;stroke-width:1.94925;stroke-opacity:1"
       id="path1065-7-1-7-7-8"
       cx="20"
       cy="194"
       r="7.5253749" />
    <circle
       style="display:inline;fill:#ff0000;stroke:#ff0000;stroke-width:1.94925;stroke-opacity:1"
       id="path1065-7-1-7-7-8-1"
       cx="55"
       cy="194"
       r="7.5253749" />
    <circle
       style="display:inline;fill:#ff0000;stroke:#ff0000;stroke-width:1.94925;stroke-opacity:1"
       id="path1065-7-1-7-0"
       cx="55"
       cy="96.499741"
       r="10.025375" />
    <circle
       style="display:inline;fill:#ff0000;stroke:#ff0000;stroke-width:1.94925;stroke-opacity:1"
       id="path1065-7-1-15"
       cx="20"
       cy="60.499737"
       r="13.025374" />
    <circle
       style="display:inline;fill:#ff0000;stroke:#ff0000;stroke-width:1.94925;stroke-opacity:1"
       id="path1065-7-1-15-7"
       cx="55"
       cy="60.499737"
       r="13.025374" />
    <circle
       style="display:inline;fill:#ff0000;stroke:#ff0000;stroke-width:1.94925;stroke-opacity:1"
       id="path1065-1"
       cx="20"
       cy="341.5"
       r="10.525375" />
    <circle
       style="display:inline;fill:#ff0000;stroke:#ff0000;stroke-width:1.94925;stroke-opacity:1"
       id="path1065-7-1-89-3"
       cx="20.097185"
       cy="225.5"
       r="10.525375" />
    <circle
       style="display:inline;fill:#ff0000;stroke:#ff0000;stroke-width:1.94925;stroke-opacity:1"
       id="path1065-7-1-2-8"
       cx="55"
       cy="225.5"
       r="10.525375" />
    <circle
       style="display:inline;fill:#ff0000;stroke:#ff0000;stroke-width:1.94925;stroke-opacity:1"
       id="path1065-7-1-7-6"
       cx="20"
       cy="163"
       r="10.025375" />
    <circle
       style="display:inline;fill:#ff0000;stroke:#ff0000;stroke-width:1.94925;stroke-opacity:1"
       id="path1065-7-1-7-6-6"
       cx="55"
       cy="163"
       r="10.025375" />
    <circle
       style="display:inline;fill:#ff0000;stroke:#ff0000;stroke-width:0.64063;stroke-opacity:1"
       id="path1065-7-2-3-2-1"
       cx="64.999641"
       cy="26.5"
       r="4.0796847" />
    <circle
       style="display:inline;fill:#ff0000;stroke:#ff0000;stroke-width:0.64063;stroke-opacity:1"
       id="path1065-7-2-3-2"
       cx="28.000448"
       cy="26.5"
       r="4.0796847" />
  </g>
</svg>
