<?xml version="1.0" encoding="UTF-8" standalone="no"?>
<svg
   width="135"
   height="380"
   viewBox="0 0 135 380.00003"
   version="1.1"
   id="svg100"
   sodipodi:docname="VCAMix4Stereo_Danger.svg"
   inkscape:version="1.1.1 (3bf5ae0d25, 2021-09-20)"
   xmlns:inkscape="http://www.inkscape.org/namespaces/inkscape"
   xmlns:sodipodi="http://sodipodi.sourceforge.net/DTD/sodipodi-0.dtd"
   xmlns="http://www.w3.org/2000/svg"
   xmlns:svg="http://www.w3.org/2000/svg"
   xmlns:rdf="http://www.w3.org/1999/02/22-rdf-syntax-ns#"
   xmlns:cc="http://creativecommons.org/ns#"
   xmlns:dc="http://purl.org/dc/elements/1.1/">
  <metadata
     id="metadata104">
    <rdf:RDF>
      <cc:Work
         rdf:about="">
        <dc:format>image/svg+xml</dc:format>
        <dc:type
           rdf:resource="http://purl.org/dc/dcmitype/StillImage" />
      </cc:Work>
    </rdf:RDF>
  </metadata>
  <sodipodi:namedview
     pagecolor="#ffffff"
     bordercolor="#666666"
     borderopacity="1"
     objecttolerance="1"
     gridtolerance="1"
     guidetolerance="1"
     inkscape:pageopacity="0"
     inkscape:pageshadow="2"
     inkscape:window-width="1920"
     inkscape:window-height="1057"
     id="namedview102"
     showgrid="true"
     inkscape:zoom="2.2342105"
     inkscape:cx="67.361602"
     inkscape:cy="190"
     inkscape:window-x="1592"
     inkscape:window-y="-8"
     inkscape:window-maximized="1"
     inkscape:current-layer="svg100"
     inkscape:pagecheckerboard="0"
     units="px"
     inkscape:showpageshadow="false">
    <inkscape:grid
       type="xygrid"
       id="grid1285" />
  </sodipodi:namedview>
  <defs
     id="defs7">
    <rect
       x="85"
       y="10"
       width="51.058132"
       height="25"
       id="rect29906" />
    <linearGradient
       id="a8e142bb-541b-4903-be63-d5d069028a5d"
       x1="22.5"
       x2="22.5"
       y2="380"
       gradientUnits="userSpaceOnUse">
      <stop
         offset="0"
         stop-color="#ebebeb"
         id="stop2" />
      <stop
         offset="1"
         stop-color="#e1e1e1"
         id="stop4" />
    </linearGradient>
  </defs>
  <g
     id="aea613ef-74be-49bf-be45-c0734aee674b"
     data-name="FND BG"
     style="fill:#ff0000;fill-opacity:1"
     transform="scale(3,1)">
    <rect
       width="45"
       height="380"
       fill="url(#a8e142bb-541b-4903-be63-d5d069028a5d)"
       id="rect9"
       style="fill:#ff0000;fill-opacity:1"
       x="0"
       y="0" />
  </g>
  <g
     id="f45e0130-37b7-4f8b-95b3-6408baa23eb1"
     data-name="components"
     style="display:inline"
     inkscape:groupmode="layer">
    <g
       id="g75654"
       style="fill:#000000;fill-opacity:1;stroke:none;stroke-opacity:1">
      <g
         id="g63271"
         style="fill:#000000;fill-opacity:1;stroke:none;stroke-opacity:1">
        <rect
           x="68.79071"
           y="186.0267"
           width="60.281662"
           height="170.35832"
           rx="5.9848738"
           fill="#1f1f1f"
           id="rect56"
           style="fill:#000000;fill-opacity:1;stroke:none;stroke-width:3.03078;stroke-opacity:1" />
        <g
           id="g63178"
           style="fill:#000000;fill-opacity:1;stroke:none;stroke-opacity:1">
          <g
             aria-label="MIX"
             id="text9323"
             style="font-weight:bold;font-size:8px;line-height:1.25;font-family:Arial;-inkscape-font-specification:'Arial, Bold';font-variant-ligatures:none;text-align:center;text-anchor:middle;fill:#000000;fill-opacity:1;stroke:none;stroke-opacity:1"
             transform="translate(45.073386,3.3210526)">
            <path
               d="m 15.514994,151.97157 v -5.72656 h 1.730468 l 1.039063,3.90625 1.027344,-3.90625 h 1.734375 v 5.72656 h -1.074219 v -4.50781 l -1.136719,4.50781 h -1.113281 l -1.132813,-4.50781 v 4.50781 z"
               id="path79773"
               style="fill:#000000;fill-opacity:1;stroke:none;stroke-opacity:1" />
            <path
               d="m 22.159525,151.97157 v -5.72656 h 1.15625 v 5.72656 z"
               id="path79775"
               style="fill:#000000;fill-opacity:1;stroke:none;stroke-opacity:1" />
            <path
               d="m 23.835306,151.97157 1.957031,-2.98828 -1.773437,-2.73828 h 1.351562 l 1.148438,1.83984 1.125,-1.83984 h 1.339844 l -1.78125,2.78125 1.957031,2.94531 h -1.394531 l -1.269532,-1.98047 -1.273437,1.98047 z"
               id="path79777"
               style="fill:#000000;fill-opacity:1;stroke:none;stroke-opacity:1" />
          </g>
          <g
             id="g151718"
             transform="translate(29.910645)"
             style="fill:#000000;fill-opacity:1;stroke:none;stroke-opacity:1">
            <g
               aria-label="1"
               id="text9323-6"
               style="font-weight:bold;font-size:8px;line-height:1.25;font-family:Arial;-inkscape-font-specification:'Arial, Bold';font-variant-ligatures:none;text-align:center;text-anchor:middle;fill:#000000;fill-opacity:1;stroke:none;stroke-opacity:1"
               transform="translate(-4.1072622,18.003054)">
              <path
                 d="m 11.419762,27.167337 h -1.097657 v -4.136718 q -0.6015621,0.5625 -1.4179683,0.832031 v -0.996094 q 0.4296875,-0.140625 0.9335937,-0.53125 0.5039066,-0.394531 0.6914066,-0.917969 h 0.890625 z"
                 id="path79761"
                 style="fill:#000000;fill-opacity:1;stroke:none;stroke-opacity:1" />
            </g>
            <g
               aria-label="2"
               id="text9323-6-3"
               style="font-weight:bold;font-size:8px;line-height:1.25;font-family:Arial;-inkscape-font-specification:'Arial, Bold';font-variant-ligatures:none;text-align:center;text-anchor:middle;fill:#000000;fill-opacity:1;stroke:none;stroke-opacity:1"
               transform="translate(-4.1072628,16.503048)">
              <path
                 d="m 12.085778,58.387432 v 1.019531 H 8.238122 q 0.0625,-0.578125 0.375,-1.09375 0.3125,-0.519531 1.234375,-1.375 0.742187,-0.691406 0.910156,-0.9375 0.226563,-0.339843 0.226563,-0.671875 0,-0.367187 -0.199219,-0.5625 -0.195313,-0.199218 -0.542969,-0.199218 -0.3437498,0 -0.5468748,0.207031 -0.203125,0.207031 -0.234375,0.6875 l -1.09375,-0.109375 q 0.097656,-0.90625 0.6132813,-1.300781 0.515625,-0.394532 1.2890625,-0.394532 0.847656,0 1.332031,0.457032 0.484375,0.457031 0.484375,1.136718 0,0.386719 -0.140625,0.738282 -0.136719,0.347656 -0.4375,0.730468 -0.199219,0.253907 -0.71875,0.730469 -0.519531,0.476563 -0.660156,0.632813 -0.1367188,0.15625 -0.2226563,0.304687 z"
                 id="path79764"
                 style="fill:#000000;fill-opacity:1;stroke:none;stroke-opacity:1" />
            </g>
            <g
               aria-label="3"
               id="text9323-6-3-4"
               style="font-weight:bold;font-size:8px;line-height:1.25;font-family:Arial;-inkscape-font-specification:'Arial, Bold';font-variant-ligatures:none;text-align:center;text-anchor:middle;fill:#000000;fill-opacity:1;stroke:none;stroke-opacity:1"
               transform="translate(-4.107262,15.003044)">
              <path
                 d="m 8.2596054,90.078224 1.0625,-0.128906 q 0.050781,0.40625 0.2734375,0.621094 0.2226563,0.214843 0.5390621,0.214843 0.339844,0 0.570313,-0.257812 0.234375,-0.257813 0.234375,-0.695313 0,-0.414062 -0.222656,-0.65625 -0.222657,-0.242187 -0.542969,-0.242187 -0.2109376,0 -0.5039063,0.08203 l 0.1210937,-0.894531 q 0.4453126,0.01172 0.6796876,-0.191406 0.234375,-0.207032 0.234375,-0.546875 0,-0.289063 -0.171875,-0.460938 -0.171875,-0.171875 -0.457031,-0.171875 -0.2812503,0 -0.4804691,0.195313 -0.1992187,0.195312 -0.2421875,0.570312 L 8.3416367,87.343849 q 0.1054687,-0.519531 0.3164062,-0.828125 0.2148438,-0.3125 0.59375,-0.488281 0.3828125,-0.179688 0.8554691,-0.179688 0.808593,0 1.296875,0.515625 0.402343,0.421875 0.402343,0.953125 0,0.753907 -0.824218,1.203125 0.492187,0.105469 0.785156,0.472657 0.296875,0.367187 0.296875,0.886718 0,0.753907 -0.550781,1.285157 -0.550782,0.53125 -1.371094,0.53125 -0.7773438,0 -1.2890626,-0.445313 -0.5117187,-0.449219 -0.59375,-1.171875 z"
                 id="path79767"
                 style="fill:#000000;fill-opacity:1;stroke:none;stroke-opacity:1" />
            </g>
            <g
               aria-label="4"
               id="text9323-6-3-4-7"
               style="font-weight:bold;font-size:8px;line-height:1.25;font-family:Arial;-inkscape-font-specification:'Arial, Bold';font-variant-ligatures:none;text-align:center;text-anchor:middle;fill:#000000;fill-opacity:1;stroke:none;stroke-opacity:1"
               transform="translate(-4.107263,13.503052)">
              <path
                 d="m 10.447106,123.8862 v -1.15234 H 8.1033564 v -0.96094 l 2.4843746,-3.63672 h 0.921875 v 3.63281 h 0.710938 v 0.96485 h -0.710938 v 1.15234 z m 0,-2.11719 v -1.95703 l -1.3164059,1.95703 z"
                 id="path79770"
                 style="fill:#000000;fill-opacity:1;stroke:none;stroke-opacity:1" />
            </g>
          </g>
          <g
             id="g151728"
             transform="translate(-0.9960934,-4.67e-4)"
             style="fill:#000000;fill-opacity:1;stroke:none;stroke-opacity:1">
            <g
               aria-label="1"
               id="text9323-6-6"
               style="font-weight:bold;font-size:8px;line-height:1.25;font-family:Arial;-inkscape-font-specification:'Arial, Bold';font-variant-ligatures:none;text-align:center;text-anchor:middle;fill:#000000;fill-opacity:1;stroke:none;stroke-opacity:1"
               transform="translate(-4.1072622,17.410017)">
              <path
                 d="m 11.419762,194.86545 h -1.097657 v -4.13672 q -0.6015621,0.5625 -1.4179683,0.83203 v -0.99609 q 0.4296875,-0.14063 0.9335937,-0.53125 0.5039066,-0.39453 0.6914066,-0.91797 h 0.890625 z"
                 id="path79780"
                 style="fill:#000000;fill-opacity:1;stroke:none;stroke-opacity:1" />
            </g>
            <g
               aria-label="2"
               id="text9323-6-3-6"
               style="font-weight:bold;font-size:8px;line-height:1.25;font-family:Arial;-inkscape-font-specification:'Arial, Bold';font-variant-ligatures:none;text-align:center;text-anchor:middle;fill:#000000;fill-opacity:1;stroke:none;stroke-opacity:1"
               transform="translate(-4.1072628,16.089464)">
              <path
                 d="m 12.085778,227.08554 v 1.01953 H 8.238122 q 0.0625,-0.57812 0.375,-1.09375 0.3125,-0.51953 1.234375,-1.375 0.742187,-0.6914 0.910156,-0.9375 0.226563,-0.33984 0.226563,-0.67187 0,-0.36719 -0.199219,-0.5625 -0.195313,-0.19922 -0.542969,-0.19922 -0.3437498,0 -0.5468748,0.20703 -0.203125,0.20703 -0.234375,0.6875 l -1.09375,-0.10938 q 0.097656,-0.90625 0.6132813,-1.30078 0.515625,-0.39453 1.2890625,-0.39453 0.847656,0 1.332031,0.45703 0.484375,0.45703 0.484375,1.13672 0,0.38672 -0.140625,0.73828 -0.136719,0.34766 -0.4375,0.73047 -0.199219,0.25391 -0.71875,0.73047 -0.519531,0.47656 -0.660156,0.63281 -0.1367188,0.15625 -0.2226563,0.30469 z"
                 id="path79783"
                 style="fill:#000000;fill-opacity:1;stroke:none;stroke-opacity:1" />
            </g>
            <g
               aria-label="3"
               id="text9323-6-3-4-2"
               style="font-weight:bold;font-size:8px;line-height:1.25;font-family:Arial;-inkscape-font-specification:'Arial, Bold';font-variant-ligatures:none;text-align:center;text-anchor:middle;fill:#000000;fill-opacity:1;stroke:none;stroke-opacity:1"
               transform="translate(-4.107262,14.768952)">
              <path
                 d="m 8.2596054,259.77634 1.0625,-0.12891 q 0.050781,0.40625 0.2734375,0.62109 0.2226563,0.21485 0.5390621,0.21485 0.339844,0 0.570313,-0.25781 0.234375,-0.25782 0.234375,-0.69532 0,-0.41406 -0.222656,-0.65625 -0.222657,-0.24218 -0.542969,-0.24218 -0.2109376,0 -0.5039063,0.082 l 0.1210937,-0.89453 q 0.4453126,0.0117 0.6796876,-0.19141 0.234375,-0.20703 0.234375,-0.54688 0,-0.28906 -0.171875,-0.46093 -0.171875,-0.17188 -0.457031,-0.17188 -0.2812503,0 -0.4804691,0.19531 -0.1992187,0.19532 -0.2421875,0.57032 l -1.0117187,-0.17188 q 0.1054687,-0.51953 0.3164062,-0.82812 0.2148438,-0.3125 0.59375,-0.48828 0.3828125,-0.17969 0.8554691,-0.17969 0.808593,0 1.296875,0.51562 0.402343,0.42188 0.402343,0.95313 0,0.7539 -0.824218,1.20312 0.492187,0.10547 0.785156,0.47266 0.296875,0.36719 0.296875,0.88672 0,0.7539 -0.550781,1.28515 -0.550782,0.53125 -1.371094,0.53125 -0.7773438,0 -1.2890626,-0.44531 -0.5117187,-0.44922 -0.59375,-1.17187 z"
                 id="path79786"
                 style="fill:#000000;fill-opacity:1;stroke:none;stroke-opacity:1" />
            </g>
            <g
               aria-label="4"
               id="text9323-6-3-4-7-9"
               style="font-weight:bold;font-size:8px;line-height:1.25;font-family:Arial;-inkscape-font-specification:'Arial, Bold';font-variant-ligatures:none;text-align:center;text-anchor:middle;fill:#000000;fill-opacity:1;stroke:none;stroke-opacity:1"
               transform="translate(-4.107263,13.448364)">
              <path
                 d="m 10.447106,294.58432 v -1.15234 H 8.1033564 v -0.96094 l 2.4843746,-3.63672 h 0.921875 v 3.63281 h 0.710938 v 0.96485 h -0.710938 v 1.15234 z m 0,-2.11719 v -1.95703 l -1.3164059,1.95703 z"
                 id="path79789"
                 style="fill:#000000;fill-opacity:1;stroke:none;stroke-opacity:1" />
            </g>
          </g>
          <g
             aria-label="LEVEL"
             id="text125273"
             style="font-weight:bold;font-size:8px;line-height:1.25;font-family:Arial;-inkscape-font-specification:'Arial, Bold';font-variant-ligatures:none;text-align:center;text-anchor:middle;fill:#000000;fill-opacity:1;stroke:none;stroke-opacity:1"
             transform="translate(29.910645)">
            <path
               d="m 41.208206,28.346582 v -5.679687 h 1.15625 v 4.714844 h 2.875 v 0.964843 z"
               id="path152685"
               style="fill:#000000;fill-opacity:1;stroke:none;stroke-opacity:1" />
            <path
               d="M 46.063675,28.346582 V 22.62002 h 4.246094 v 0.96875 h -3.089844 v 1.269531 h 2.875 v 0.964844 h -2.875 v 1.558594 h 3.199219 v 0.964843 z"
               id="path152687"
               style="fill:#000000;fill-opacity:1;stroke:none;stroke-opacity:1" />
            <path
               d="M 52.86055,28.346582 50.813675,22.62002 h 1.253906 l 1.449219,4.238281 1.402344,-4.238281 h 1.226562 l -2.050781,5.726562 z"
               id="path152689"
               style="fill:#000000;fill-opacity:1;stroke:none;stroke-opacity:1" />
            <path
               d="M 56.73555,28.346582 V 22.62002 h 4.246094 v 0.96875 H 57.8918 v 1.269531 h 2.875 v 0.964844 h -2.875 v 1.558594 h 3.199219 v 0.964843 z"
               id="path152691"
               style="fill:#000000;fill-opacity:1;stroke:none;stroke-opacity:1" />
            <path
               d="m 62.102737,28.346582 v -5.679687 h 1.15625 v 4.714844 h 2.875 v 0.964843 z"
               id="path152693"
               style="fill:#000000;fill-opacity:1;stroke:none;stroke-opacity:1" />
          </g>
          <g
             aria-label="CV"
             id="text125273-9"
             style="font-weight:bold;font-size:8px;line-height:1.25;font-family:Arial;-inkscape-font-specification:'Arial, Bold';font-variant-ligatures:none;text-align:center;text-anchor:middle;fill:#000000;fill-opacity:1;stroke:none;stroke-opacity:1"
             transform="translate(29.910645)">
            <path
               d="m 19.832811,26.143457 1.121094,0.355469 q -0.257812,0.9375 -0.859375,1.394531 -0.597656,0.453125 -1.519531,0.453125 -1.140625,0 -1.875,-0.777343 -0.734375,-0.78125 -0.734375,-2.132813 0,-1.429687 0.738281,-2.21875 0.738281,-0.792969 1.941406,-0.792969 1.050782,0 1.707032,0.621094 0.390625,0.367188 0.585937,1.054688 l -1.144531,0.273437 q -0.101563,-0.445312 -0.425781,-0.703125 -0.320313,-0.257812 -0.78125,-0.257812 -0.636719,0 -1.035157,0.457031 -0.394531,0.457031 -0.394531,1.480469 0,1.085937 0.390625,1.546875 0.390625,0.460937 1.015625,0.460937 0.460938,0 0.792969,-0.292969 0.332031,-0.292968 0.476562,-0.921875 z"
               id="path152680"
               style="fill:#000000;fill-opacity:1;stroke:none;stroke-opacity:1" />
            <path
               d="m 23.40703,28.248926 -2.046875,-5.726562 h 1.253906 l 1.449219,4.238281 1.402344,-4.238281 h 1.226562 l -2.050781,5.726562 z"
               id="path152682"
               style="fill:#000000;fill-opacity:1;stroke:none;stroke-opacity:1" />
          </g>
          <g
             aria-label="IN"
             id="text125273-9-1-2"
             style="font-weight:bold;font-size:8px;line-height:1.25;font-family:Arial;-inkscape-font-specification:'Arial, Bold';font-variant-ligatures:none;text-align:center;text-anchor:middle;fill:#000000;fill-opacity:1;stroke:none;stroke-opacity:1"
             transform="translate(14.649874,1.902345)">
            <path
               d="m 17.922655,195.36337 v -5.72656 h 1.15625 v 5.72656 z"
               id="path152696"
               style="fill:#000000;fill-opacity:1;stroke:none;stroke-opacity:1" />
            <path
               d="m 20.192186,195.36337 v -5.72656 h 1.125 l 2.34375,3.82422 v -3.82422 h 1.074219 v 5.72656 H 23.574999 L 21.266405,191.629 v 3.73437 z"
               id="path152698"
               style="fill:#000000;fill-opacity:1;stroke:none;stroke-opacity:1" />
          </g>
          <g
             aria-label="CHAIN"
             id="text125273-9-1-2-6"
             style="font-weight:bold;font-size:8px;line-height:1.25;font-family:Arial;-inkscape-font-specification:'Arial, Bold';font-variant-ligatures:none;text-align:center;text-anchor:middle;fill:#000000;fill-opacity:1;stroke:none;stroke-opacity:1"
             transform="translate(14.649874,1.920468)">
            <path
               d="m 13.039843,324.26321 1.121093,0.35547 q -0.257812,0.9375 -0.859375,1.39453 -0.597656,0.45313 -1.519531,0.45313 -1.140625,0 -1.8749999,-0.77734 -0.734375,-0.78125 -0.734375,-2.13282 0,-1.42968 0.7382813,-2.21875 0.7382816,-0.79297 1.9414066,-0.79297 1.050781,0 1.707031,0.6211 0.390625,0.36719 0.585937,1.05469 l -1.144531,0.27343 q -0.101562,-0.44531 -0.425781,-0.70312 -0.320313,-0.25781 -0.78125,-0.25781 -0.636719,0 -1.035156,0.45703 -0.394532,0.45703 -0.394532,1.48047 0,1.08593 0.390625,1.54687 0.390625,0.46094 1.015625,0.46094 0.460938,0 0.792969,-0.29297 0.332031,-0.29297 0.476563,-0.92188 z"
               id="path152708"
               style="fill:#000000;fill-opacity:1;stroke:none;stroke-opacity:1" />
            <path
               d="m 15.15703,326.36868 v -5.72656 h 1.15625 v 2.25391 h 2.265625 v -2.25391 h 1.15625 v 5.72656 h -1.15625 v -2.5039 H 16.31328 v 2.5039 z"
               id="path152710"
               style="fill:#000000;fill-opacity:1;stroke:none;stroke-opacity:1" />
            <path
               d="m 26.09453,326.36868 h -1.257812 l -0.5,-1.30078 h -2.289063 l -0.472656,1.30078 h -1.226563 l 2.230469,-5.72656 h 1.222656 z m -2.128906,-2.26562 -0.789063,-2.125 -0.773437,2.125 z"
               id="path152712"
               style="fill:#000000;fill-opacity:1;stroke:none;stroke-opacity:1" />
            <path
               d="m 26.672655,326.36868 v -5.72656 h 1.15625 v 5.72656 z"
               id="path152714"
               style="fill:#000000;fill-opacity:1;stroke:none;stroke-opacity:1" />
            <path
               d="m 28.942186,326.36868 v -5.72656 h 1.125 l 2.34375,3.82422 v -3.82422 h 1.074219 v 5.72656 h -1.160156 l -2.308594,-3.73437 v 3.73437 z"
               id="path152716"
               style="fill:#000000;fill-opacity:1;stroke:none;stroke-opacity:1" />
          </g>
          <g
             aria-label="MODE"
             id="text37704"
             style="font-size:5.33333px;line-height:1.25;font-family:Arial;-inkscape-font-specification:'Arial, Normal';font-variant-ligatures:none;text-align:center;text-anchor:middle;fill:#000000;fill-opacity:1;stroke:none;stroke-opacity:1">
            <path
               d="m 106.62315,54.465557 v -3.817706 h 0.76041 l 0.90365,2.703123 q 0.125,0.377604 0.18229,0.565104 0.0651,-0.208333 0.20313,-0.611979 l 0.91406,-2.656248 h 0.67969 v 3.817706 h -0.48698 v -3.19531 l -1.10938,3.19531 h -0.45573 l -1.10416,-3.249998 v 3.249998 z"
               id="path63039"
               style="fill:#000000;fill-opacity:1;stroke:none;stroke-opacity:1" />
            <path
               d="m 110.92783,52.606183 q 0,-0.95052 0.51042,-1.486978 0.51042,-0.539062 1.31771,-0.539062 0.52864,0 0.95312,0.252604 0.42448,0.252604 0.64583,0.705729 0.22396,0.45052 0.22396,1.023436 0,0.580729 -0.23437,1.039062 -0.23438,0.458333 -0.66406,0.695312 -0.42969,0.234375 -0.92709,0.234375 -0.53906,0 -0.96354,-0.260416 -0.42448,-0.260417 -0.64323,-0.710937 -0.21875,-0.450521 -0.21875,-0.953125 z m 0.52084,0.0078 q 0,0.690103 0.36979,1.088541 0.37239,0.395833 0.93229,0.395833 0.57031,0 0.9375,-0.401042 0.36979,-0.401041 0.36979,-1.13802 0,-0.466145 -0.15885,-0.812499 -0.15625,-0.348958 -0.46094,-0.539062 -0.30209,-0.192709 -0.67969,-0.192709 -0.53646,0 -0.92448,0.369792 -0.38541,0.367187 -0.38541,1.229166 z"
               id="path63041"
               style="fill:#000000;fill-opacity:1;stroke:none;stroke-opacity:1" />
            <path
               d="m 115.22991,54.465557 v -3.817706 h 1.31511 q 0.44531,0 0.67968,0.05469 0.32813,0.07552 0.5599,0.273437 0.30208,0.255208 0.45052,0.653645 0.15104,0.395833 0.15104,0.90625 0,0.434895 -0.10156,0.770833 -0.10156,0.335937 -0.26042,0.557291 -0.15885,0.21875 -0.34896,0.346354 -0.1875,0.125 -0.45572,0.190104 -0.26563,0.0651 -0.61198,0.0651 z m 0.50521,-0.45052 h 0.81511 q 0.3776,0 0.59114,-0.07031 0.21615,-0.07031 0.34375,-0.197916 0.17969,-0.179688 0.27865,-0.481771 0.10156,-0.304687 0.10156,-0.736979 0,-0.598958 -0.19792,-0.91927 -0.19531,-0.322917 -0.47656,-0.432291 -0.20312,-0.07813 -0.65365,-0.07813 h -0.80208 z"
               id="path63043"
               style="fill:#000000;fill-opacity:1;stroke:none;stroke-opacity:1" />
            <path
               d="m 119.09189,54.465557 v -3.817706 h 2.76042 v 0.450521 h -2.25521 v 1.16927 h 2.11198 v 0.447916 h -2.11198 v 1.299479 h 2.34375 v 0.45052 z"
               id="path63045"
               style="fill:#000000;fill-opacity:1;stroke:none;stroke-opacity:1" />
          </g>
          <g
             aria-label="VCA"
             id="text37704-3"
             style="font-size:5.33333px;line-height:1.25;font-family:Arial;-inkscape-font-specification:'Arial, Normal';font-variant-ligatures:none;text-align:center;text-anchor:middle;fill:#000000;fill-opacity:1;stroke:none;stroke-opacity:1">
            <path
               d="m 110.28591,85.098381 -1.47916,-3.817706 h 0.54687 l 0.99219,2.773436 q 0.11979,0.333333 0.20052,0.624999 0.0885,-0.312499 0.20573,-0.624999 l 1.03125,-2.773436 h 0.51562 l -1.49479,3.817706 z"
               id="path63048"
               style="fill:#000000;fill-opacity:1;stroke:none;stroke-opacity:1" />
            <path
               d="m 115.47602,83.75984 0.5052,0.127604 q -0.15885,0.622396 -0.57291,0.950521 -0.41146,0.32552 -1.00782,0.32552 -0.61718,0 -1.0052,-0.25 -0.38542,-0.252604 -0.58854,-0.729166 -0.20052,-0.476562 -0.20052,-1.023437 0,-0.596354 0.22656,-1.039062 0.22916,-0.445312 0.64843,-0.674478 0.42188,-0.231771 0.92709,-0.231771 0.57291,0 0.96354,0.291666 0.39062,0.291667 0.54427,0.820312 l -0.4974,0.117188 q -0.13281,-0.416667 -0.38541,-0.606771 -0.25261,-0.190104 -0.63542,-0.190104 -0.4401,0 -0.73698,0.210938 -0.29427,0.210937 -0.41406,0.567708 -0.11979,0.354166 -0.11979,0.73177 0,0.486979 0.14062,0.851562 0.14323,0.361979 0.44271,0.541666 0.29948,0.179688 0.64844,0.179688 0.42448,0 0.71875,-0.244792 0.29427,-0.244791 0.39844,-0.726562 z"
               id="path63050"
               style="fill:#000000;fill-opacity:1;stroke:none;stroke-opacity:1" />
            <path
               d="m 116.18435,85.098381 1.46614,-3.817706 h 0.54427 l 1.5625,3.817706 h -0.57552 l -0.44531,-1.156249 h -1.59635 l -0.41927,1.156249 z m 1.10156,-1.567707 h 1.29427 l -0.39844,-1.057291 q -0.18229,-0.481771 -0.27083,-0.791667 -0.0729,0.367188 -0.20573,0.729167 z"
               id="path63052"
               style="fill:#000000;fill-opacity:1;stroke:none;stroke-opacity:1" />
          </g>
          <g
             aria-label="DC"
             id="text37704-8"
             style="font-size:5.33333px;line-height:1.25;font-family:Arial;-inkscape-font-specification:'Arial, Normal';font-variant-ligatures:none;text-align:center;text-anchor:middle;fill:#000000;fill-opacity:1;stroke:none;stroke-opacity:1">
            <path
               d="m 110.74164,115.77084 v -3.8177 h 1.3151 q 0.44531,0 0.67969,0.0547 0.32812,0.0755 0.55989,0.27344 0.30209,0.25521 0.45052,0.65365 0.15105,0.39583 0.15105,0.90625 0,0.43489 -0.10157,0.77083 -0.10156,0.33594 -0.26041,0.55729 -0.15886,0.21875 -0.34896,0.34636 -0.1875,0.125 -0.45573,0.1901 -0.26563,0.0651 -0.61198,0.0651 z m 0.50521,-0.45052 h 0.8151 q 0.3776,0 0.59114,-0.0703 0.21615,-0.0703 0.34375,-0.19792 0.17969,-0.17968 0.27865,-0.48177 0.10156,-0.30468 0.10156,-0.73698 0,-0.59895 -0.19791,-0.91927 -0.19532,-0.32291 -0.47657,-0.43229 -0.20312,-0.0781 -0.65364,-0.0781 h -0.80208 z"
               id="path63055"
               style="fill:#000000;fill-opacity:1;stroke:none;stroke-opacity:1" />
            <path
               d="m 117.31715,114.4323 0.50521,0.12761 q -0.15885,0.62239 -0.57291,0.95052 -0.41146,0.32552 -1.00782,0.32552 -0.61718,0 -1.0052,-0.25 -0.38542,-0.25261 -0.58854,-0.72917 -0.20053,-0.47656 -0.20053,-1.02344 0,-0.59635 0.22657,-1.03906 0.22916,-0.44531 0.64843,-0.67448 0.42188,-0.23177 0.92709,-0.23177 0.57291,0 0.96354,0.29167 0.39062,0.29167 0.54427,0.82031 l -0.4974,0.11719 q -0.13281,-0.41667 -0.38541,-0.60677 -0.25261,-0.19011 -0.63542,-0.19011 -0.4401,0 -0.73698,0.21094 -0.29427,0.21094 -0.41406,0.56771 -0.11979,0.35417 -0.11979,0.73177 0,0.48698 0.14062,0.85156 0.14323,0.36198 0.44271,0.54167 0.29948,0.17969 0.64844,0.17969 0.42448,0 0.71875,-0.2448 0.29427,-0.24479 0.39843,-0.72656 z"
               id="path63057"
               style="fill:#000000;fill-opacity:1;stroke:none;stroke-opacity:1" />
          </g>
          <g
             aria-label="CLIP"
             id="text37704-6"
             style="font-size:5.33333px;line-height:1.25;font-family:Arial;-inkscape-font-specification:'Arial, Normal';font-variant-ligatures:none;text-align:center;text-anchor:middle;fill:#000000;fill-opacity:1;stroke:none;stroke-opacity:1">
            <path
               d="m 111.4721,145.34344 0.50521,0.1276 q -0.15886,0.6224 -0.57292,0.95052 -0.41146,0.32552 -1.00781,0.32552 -0.61719,0 -1.00521,-0.25 -0.38541,-0.2526 -0.58854,-0.72917 -0.20052,-0.47656 -0.20052,-1.02343 0,-0.59636 0.22656,-1.03906 0.22917,-0.44532 0.64844,-0.67448 0.42188,-0.23177 0.92708,-0.23177 0.57292,0 0.96354,0.29166 0.39063,0.29167 0.54427,0.82031 l -0.49739,0.11719 q -0.13281,-0.41666 -0.38542,-0.60677 -0.2526,-0.1901 -0.63541,-0.1901 -0.44011,0 -0.73698,0.21093 -0.29427,0.21094 -0.41406,0.56771 -0.1198,0.35417 -0.1198,0.73177 0,0.48698 0.14063,0.85157 0.14323,0.36197 0.44271,0.54166 0.29948,0.17969 0.64843,0.17969 0.42448,0 0.71875,-0.24479 0.29427,-0.24479 0.39844,-0.72656 z"
               id="path63060"
               style="fill:#000000;fill-opacity:1;stroke:none;stroke-opacity:1" />
            <path
               d="m 112.57887,146.68198 v -3.81771 h 0.50521 v 3.36719 h 1.88021 v 0.45052 z"
               id="path63062"
               style="fill:#000000;fill-opacity:1;stroke:none;stroke-opacity:1" />
            <path
               d="m 115.65179,146.68198 v -3.81771 h 0.5052 v 3.81771 z"
               id="path63064"
               style="fill:#000000;fill-opacity:1;stroke:none;stroke-opacity:1" />
            <path
               d="m 117.04762,146.68198 v -3.81771 h 1.4401 q 0.38021,0 0.58073,0.0365 0.28125,0.0469 0.47135,0.17969 0.19011,0.1302 0.30469,0.36718 0.11719,0.23698 0.11719,0.52084 0,0.48698 -0.3099,0.82552 -0.30989,0.33593 -1.11979,0.33593 h -0.97916 v 1.55209 z m 0.50521,-2.00261 h 0.98697 q 0.48959,0 0.69532,-0.18229 0.20573,-0.18229 0.20573,-0.51302 0,-0.23958 -0.1224,-0.40885 -0.11979,-0.17188 -0.31771,-0.22657 -0.1276,-0.0339 -0.47135,-0.0339 h -0.97656 z"
               id="path63066"
               style="fill:#000000;fill-opacity:1;stroke:none;stroke-opacity:1" />
          </g>
          <g
             aria-label="EXCLUDE"
             id="text37704-4"
             style="font-size:5.33333px;line-height:1.25;font-family:Arial;-inkscape-font-specification:'Arial, Normal';font-variant-ligatures:none;text-align:center;text-anchor:middle;fill:#000000;fill-opacity:1;stroke:none;stroke-opacity:1">
            <path
               d="m 8.4758214,146.68198 v -3.81771 h 2.7604146 v 0.45052 H 8.9810295 v 1.16927 h 2.1119775 v 0.44792 H 8.9810295 v 1.29948 h 2.3437485 v 0.45052 z"
               id="path63024"
               style="fill:#000000;fill-opacity:1;stroke:none;stroke-opacity:1" />
            <path
               d="m 11.634674,146.68198 1.476561,-1.98959 -1.302082,-1.82812 h 0.601562 l 0.692708,0.97917 q 0.216146,0.30468 0.307291,0.46875 0.127604,-0.20834 0.302084,-0.4349 l 0.768228,-1.01302 h 0.549479 l -1.341145,1.79948 1.445312,2.01823 h -0.625 L 13.548735,145.32 q -0.08073,-0.11719 -0.166666,-0.25521 -0.127605,0.20833 -0.182292,0.28646 l -0.958333,1.33073 z"
               id="path63026"
               style="fill:#000000;fill-opacity:1;stroke:none;stroke-opacity:1" />
            <path
               d="m 18.303941,145.34344 0.505208,0.1276 q -0.158854,0.6224 -0.572917,0.95052 -0.411458,0.32552 -1.007812,0.32552 -0.617187,0 -1.005207,-0.25 -0.385417,-0.2526 -0.588542,-0.72917 -0.20052,-0.47656 -0.20052,-1.02343 0,-0.59636 0.226562,-1.03906 0.229167,-0.44532 0.648437,-0.67448 0.421875,-0.23177 0.927083,-0.23177 0.572916,0 0.963541,0.29166 0.390625,0.29167 0.544271,0.82031 l -0.497396,0.11719 q -0.132812,-0.41666 -0.385416,-0.60677 -0.252604,-0.1901 -0.635417,-0.1901 -0.440104,0 -0.736978,0.21093 -0.294271,0.21094 -0.414063,0.56771 -0.119791,0.35417 -0.119791,0.73177 0,0.48698 0.140625,0.85157 0.143229,0.36197 0.442708,0.54166 0.299479,0.17969 0.648437,0.17969 0.424479,0 0.718749,-0.24479 0.294271,-0.24479 0.398438,-0.72656 z"
               id="path63028"
               style="fill:#000000;fill-opacity:1;stroke:none;stroke-opacity:1" />
            <path
               d="m 19.41071,146.68198 v -3.81771 h 0.505208 v 3.36719 h 1.880208 v 0.45052 z"
               id="path63030"
               style="fill:#000000;fill-opacity:1;stroke:none;stroke-opacity:1" />
            <path
               d="m 24.902895,142.86427 h 0.505208 V 145.07 q 0,0.57552 -0.130208,0.91406 -0.130208,0.33854 -0.471354,0.55208 -0.338542,0.21094 -0.890625,0.21094 -0.536458,0 -0.877603,-0.1849 -0.341146,-0.18489 -0.486979,-0.53385 -0.145833,-0.35156 -0.145833,-0.95833 v -2.20573 h 0.505208 v 2.20312 q 0,0.4974 0.09115,0.73438 0.09375,0.23437 0.317709,0.36198 0.226562,0.1276 0.552083,0.1276 0.557291,0 0.79427,-0.2526 0.236979,-0.25261 0.236979,-0.97136 z"
               id="path63032"
               style="fill:#000000;fill-opacity:1;stroke:none;stroke-opacity:1" />
            <path
               d="m 26.249249,146.68198 v -3.81771 h 1.315103 q 0.445312,0 0.679687,0.0547 0.328125,0.0755 0.559896,0.27344 0.302083,0.2552 0.45052,0.65364 0.151042,0.39583 0.151042,0.90625 0,0.4349 -0.101563,0.77083 -0.101562,0.33594 -0.260416,0.55729 -0.158854,0.21875 -0.348958,0.34636 -0.1875,0.125 -0.455729,0.1901 -0.265625,0.0651 -0.611979,0.0651 z m 0.505208,-0.45052 h 0.815103 q 0.377604,0 0.591146,-0.0703 0.216146,-0.0703 0.34375,-0.19791 0.179687,-0.17969 0.278645,-0.48177 0.101563,-0.30469 0.101563,-0.73698 0,-0.59896 -0.197917,-0.91927 -0.195312,-0.32292 -0.476562,-0.43229 -0.203125,-0.0781 -0.653645,-0.0781 h -0.802083 z"
               id="path63034"
               style="fill:#000000;fill-opacity:1;stroke:none;stroke-opacity:1" />
            <path
               d="m 30.111224,146.68198 v -3.81771 h 2.760415 v 0.45052 h -2.255207 v 1.16927 h 2.111978 v 0.44792 h -2.111978 v 1.29948 h 2.343749 v 0.45052 z"
               id="path63036"
               style="fill:#000000;fill-opacity:1;stroke:none;stroke-opacity:1" />
          </g>
          <g
             aria-label="VCA MIX 4 STEREO"
             id="text46600"
             style="font-weight:bold;font-size:12px;line-height:1.25;font-family:Arial;-inkscape-font-specification:'Arial, Bold';font-variant-ligatures:none;text-align:center;text-anchor:middle;fill:#000000;fill-opacity:1;stroke:none;stroke-opacity:1">
            <path
               d="M 14.686523,15.351851 11.616211,6.7620077 h 1.880859 l 2.173828,6.3574223 2.103516,-6.3574223 h 1.839844 l -3.076172,8.5898433 z"
               id="path62997"
               style="fill:#000000;fill-opacity:1;stroke:none;stroke-opacity:1" />
            <path
               d="m 25.995117,12.193648 1.681641,0.533203 q -0.386719,1.40625 -1.289063,2.091797 -0.896484,0.679688 -2.279297,0.679688 -1.710937,0 -2.8125,-1.166016 -1.101562,-1.171875 -1.101562,-3.199219 0,-2.1445308 1.107422,-3.3281245 1.107422,-1.1894532 2.912109,-1.1894532 1.576172,0 2.560547,0.9316407 0.585938,0.5507812 0.878906,1.5820312 L 25.936523,9.5393515 Q 25.78418,8.8713827 25.297852,8.484664 24.817383,8.0979452 24.125977,8.0979452 q -0.955079,0 -1.552735,0.6855469 -0.591797,0.6855469 -0.591797,2.2207029 0,1.628906 0.585938,2.320313 0.585937,0.691406 1.523437,0.691406 0.691407,0 1.189453,-0.439453 0.498047,-0.439453 0.714844,-1.382813 z"
               id="path62999"
               style="fill:#000000;fill-opacity:1;stroke:none;stroke-opacity:1" />
            <path
               d="m 36.911133,15.351851 h -1.886719 l -0.75,-1.951171 H 30.84082 l -0.708984,1.951171 h -1.839844 l 3.345703,-8.5898433 h 1.833985 z m -3.19336,-3.398437 -1.183593,-3.1875 -1.160157,3.1875 z"
               id="path63001"
               style="fill:#000000;fill-opacity:1;stroke:none;stroke-opacity:1" />
            <path
               d="M 40.696289,15.351851 V 6.7620077 h 2.595703 l 1.558594,5.8593753 1.541016,-5.8593753 h 2.601562 V 15.351851 H 47.381836 V 8.5901327 L 45.676758,15.351851 H 44.006836 L 42.307617,8.5901327 v 6.7617183 z"
               id="path63003"
               style="fill:#000000;fill-opacity:1;stroke:none;stroke-opacity:1" />
            <path
               d="M 50.663086,15.351851 V 6.7620077 h 1.734375 v 8.5898433 z"
               id="path63005"
               style="fill:#000000;fill-opacity:1;stroke:none;stroke-opacity:1" />
            <path
               d="M 53.176758,15.351851 56.112305,10.86943 53.452148,6.7620077 h 2.027344 l 1.722656,2.7597656 1.6875,-2.7597656 h 2.009766 l -2.671875,4.1718753 2.935547,4.417968 h -2.091797 l -1.904297,-2.970703 -1.910156,2.970703 z"
               id="path63007"
               style="fill:#000000;fill-opacity:1;stroke:none;stroke-opacity:1" />
            <path
               d="M 68.25293,15.351851 V 13.623336 H 64.737305 V 12.18193 L 68.463867,6.7268515 H 69.84668 V 12.17607 h 1.066406 v 1.447266 H 69.84668 v 1.728515 z m 0,-3.175781 V 9.2405233 L 66.27832,12.17607 Z"
               id="path63009"
               style="fill:#000000;fill-opacity:1;stroke:none;stroke-opacity:1" />
            <path
               d="m 74.956055,12.55693 1.6875,-0.164063 q 0.152343,0.849609 0.615234,1.248047 0.46875,0.398437 1.259766,0.398437 0.83789,0 1.259765,-0.351562 0.427735,-0.357422 0.427735,-0.832031 0,-0.304688 -0.181641,-0.515625 -0.175781,-0.216797 -0.621094,-0.375 -0.304687,-0.105469 -1.388672,-0.375 -1.394531,-0.345703 -1.957031,-0.84961 -0.791015,-0.708984 -0.791015,-1.7285153 0,-0.65625 0.36914,-1.2246094 0.375,-0.5742187 1.072266,-0.8730468 0.703125,-0.2988282 1.693359,-0.2988282 1.617188,0 2.431641,0.7089844 0.820312,0.7089844 0.861328,1.8925781 l -1.734375,0.076172 Q 79.848633,8.6311483 79.479492,8.344039 79.116211,8.0510702 78.383789,8.0510702 q -0.755859,0 -1.183594,0.3105469 -0.27539,0.1992187 -0.27539,0.5332031 0,0.3046875 0.257812,0.5214844 0.328125,0.2753906 1.59375,0.5742187 1.265625,0.2988277 1.869141,0.6210937 0.609375,0.316406 0.949219,0.873047 0.345703,0.550781 0.345703,1.365234 0,0.738282 -0.410157,1.382813 -0.410156,0.644531 -1.160156,0.960937 -0.75,0.310547 -1.86914,0.310547 -1.628907,0 -2.501954,-0.75 -0.873046,-0.755859 -1.042968,-2.197265 z"
               id="path63011"
               style="fill:#000000;fill-opacity:1;stroke:none;stroke-opacity:1" />
            <path
               d="M 85.333008,15.351851 V 8.2151327 H 82.78418 v -1.453125 h 6.826172 v 1.453125 h -2.542969 v 7.1367183 z"
               id="path63013"
               style="fill:#000000;fill-opacity:1;stroke:none;stroke-opacity:1" />
            <path
               d="M 90.729492,15.351851 V 6.7620077 h 6.369141 v 1.453125 H 92.463867 V 10.11943 h 4.3125 v 1.447265 h -4.3125 v 2.337891 h 4.798828 v 1.447265 z"
               id="path63015"
               style="fill:#000000;fill-opacity:1;stroke:none;stroke-opacity:1" />
            <path
               d="M 98.739258,15.351851 V 6.7620077 h 3.650392 q 1.37695,0 1.99805,0.234375 0.62695,0.2285156 1.00195,0.8203125 0.375,0.5917969 0.375,1.3535156 0,0.9667972 -0.56836,1.5996092 -0.56836,0.626953 -1.69922,0.791016 0.5625,0.328125 0.92578,0.720703 0.36914,0.392578 0.99024,1.394531 l 1.04882,1.675781 h -2.07421 l -1.25391,-1.86914 q -0.66797,-1.001953 -0.91406,-1.259766 -0.2461,-0.263672 -0.52149,-0.357422 -0.27539,-0.09961 -0.87304,-0.09961 h -0.35157 v 3.585937 z m 1.734372,-4.957031 h 1.28321 q 1.24804,0 1.55859,-0.105469 0.31055,-0.105468 0.48633,-0.3632808 0.17578,-0.2578125 0.17578,-0.6445312 0,-0.4335938 -0.23438,-0.6972657 -0.22851,-0.2695312 -0.65039,-0.3398437 -0.21093,-0.029297 -1.26562,-0.029297 h -1.35352 z"
               id="path63017"
               style="fill:#000000;fill-opacity:1;stroke:none;stroke-opacity:1" />
            <path
               d="M 107.39941,15.351851 V 6.7620077 h 6.36914 v 1.453125 h -4.63476 V 10.11943 h 4.3125 v 1.447265 h -4.3125 v 2.337891 h 4.79883 v 1.447265 z"
               id="path63019"
               style="fill:#000000;fill-opacity:1;stroke:none;stroke-opacity:1" />
            <path
               d="m 115.05176,11.109664 q 0,-1.3125 0.39258,-2.203125 0.29296,-0.65625 0.79687,-1.1777344 0.50977,-0.5214844 1.11328,-0.7734375 0.80274,-0.3398438 1.85156,-0.3398438 1.89844,0 3.03516,1.1777344 1.14258,1.1777344 1.14258,3.2753903 0,2.080078 -1.13086,3.257813 -1.13086,1.171875 -3.02344,1.171875 -1.91601,0 -3.04687,-1.166016 -1.13086,-1.171875 -1.13086,-3.222656 z m 1.78711,-0.05859 q 0,1.458985 0.67383,2.214844 0.67382,0.75 1.71093,0.75 1.03711,0 1.69922,-0.744141 0.66797,-0.75 0.66797,-2.24414 0,-1.4765628 -0.65039,-2.2031253 -0.64453,-0.7265625 -1.7168,-0.7265625 -1.07226,0 -1.72851,0.7382813 -0.65625,0.7324218 -0.65625,2.2148435 z"
               id="path63021"
               style="fill:#000000;fill-opacity:1;stroke:none;stroke-opacity:1" />
          </g>
        </g>
      </g>
      <path
         sodipodi:type="star"
         style="opacity:0.98;fill:#000000;fill-opacity:1;stroke:none;stroke-width:0.306;stroke-opacity:1"
         id="path74658"
         inkscape:flatsided="true"
         sodipodi:sides="3"
         sodipodi:cx="4.7692952"
         sodipodi:cy="248.03607"
         sodipodi:r1="3.1516731"
         sodipodi:r2="1.5758367"
         sodipodi:arg1="2.096821"
         sodipodi:arg2="3.1440186"
         inkscape:rounded="0"
         inkscape:randomized="0"
         inkscape:transform-center-x="-0.65347197"
         inkscape:transform-center-y="-0.0029852005"
         transform="matrix(0.83286711,0,0,0.78092697,31.353117,15.705394)"
         d="m 3.186842,250.76167 0.013243,-5.45884 4.7208744,2.74089 z" />
      <path
         sodipodi:type="star"
         style="display:inline;opacity:0.98;fill:#000000;fill-opacity:1;stroke:none;stroke-width:0.306;stroke-opacity:1"
         id="path74658-3"
         inkscape:flatsided="true"
         sodipodi:sides="3"
         sodipodi:cx="4.7692952"
         sodipodi:cy="248.03607"
         sodipodi:r1="3.1516731"
         sodipodi:r2="1.5758367"
         sodipodi:arg1="2.096821"
         sodipodi:arg2="3.1440186"
         inkscape:rounded="0"
         inkscape:randomized="0"
         inkscape:transform-center-x="-0.65347197"
         inkscape:transform-center-y="-0.0029852005"
         transform="matrix(0.83286711,0,0,0.78092697,31.353117,47.624462)"
         d="m 3.186842,250.76167 0.013243,-5.45884 4.7208744,2.74089 z" />
      <path
         sodipodi:type="star"
         style="display:inline;opacity:0.98;fill:#000000;fill-opacity:1;stroke:none;stroke-width:0.306;stroke-opacity:1"
         id="path74658-5"
         inkscape:flatsided="true"
         sodipodi:sides="3"
         sodipodi:cx="4.7692952"
         sodipodi:cy="248.03607"
         sodipodi:r1="3.1516731"
         sodipodi:r2="1.5758367"
         sodipodi:arg1="2.096821"
         sodipodi:arg2="3.1440186"
         inkscape:rounded="0"
         inkscape:randomized="0"
         inkscape:transform-center-x="-0.65347197"
         inkscape:transform-center-y="-0.0029852005"
         transform="matrix(0.83286711,0,0,0.78092697,31.353117,79.543544)"
         d="m 3.186842,250.76167 0.013243,-5.45884 4.7208744,2.74089 z" />
      <path
         sodipodi:type="star"
         style="display:inline;opacity:0.98;fill:#000000;fill-opacity:1;stroke:none;stroke-width:0.306;stroke-opacity:1"
         id="path74658-2"
         inkscape:flatsided="true"
         sodipodi:sides="3"
         sodipodi:cx="4.7692952"
         sodipodi:cy="248.03607"
         sodipodi:r1="3.1516731"
         sodipodi:r2="1.5758367"
         sodipodi:arg1="2.096821"
         sodipodi:arg2="3.1440186"
         inkscape:rounded="0"
         inkscape:randomized="0"
         inkscape:transform-center-x="-0.65347197"
         inkscape:transform-center-y="-0.0029852005"
         transform="matrix(0.83286711,0,0,0.78092697,31.353117,111.46261)"
         d="m 3.186842,250.76167 0.013243,-5.45884 4.7208744,2.74089 z" />
      <path
         sodipodi:type="star"
         style="display:inline;opacity:0.98;fill:#000000;fill-opacity:1;stroke:none;stroke-width:0.306;stroke-opacity:1"
         id="path74658-2-6"
         inkscape:flatsided="true"
         sodipodi:sides="3"
         sodipodi:cx="4.7692952"
         sodipodi:cy="248.03607"
         sodipodi:r1="3.1516731"
         sodipodi:r2="1.5758367"
         sodipodi:arg1="2.096821"
         sodipodi:arg2="3.1440186"
         inkscape:rounded="0"
         inkscape:randomized="0"
         inkscape:transform-center-x="-0.65347197"
         inkscape:transform-center-y="-0.0029852005"
         transform="matrix(0.83286711,0,0,0.78092697,31.353117,146.73904)"
         d="m 3.186842,250.76167 0.013243,-5.45884 4.7208744,2.74089 z" />
    </g>
  </g>
  <text
     xml:space="preserve"
     id="text29904"
     style="font-weight:bold;font-size:8px;line-height:1.25;font-family:Arial;-inkscape-font-specification:'Arial, Bold';font-variant-ligatures:none;text-align:center;white-space:pre;shape-inside:url(#rect29906)"
     transform="translate(-2.6024628e-4)" />
  <g
     inkscape:groupmode="layer"
     id="layer1"
     inkscape:label="Widgets"
     style="display:none">
    <circle
       style="display:inline;fill:#ff0000;stroke:#ff0000;stroke-width:1.8645;stroke-opacity:1"
       id="path1065-77"
       cx="83.581741"
       cy="134.51425"
       r="10.06775" />
    <circle
       style="display:inline;fill:#ff0000;stroke:#ff0000;stroke-width:2.373;stroke-opacity:1"
       id="path1065-77-3"
       cx="83.581741"
       cy="168.25388"
       r="12.8135" />
    <circle
       style="display:inline;fill:#ff0000;stroke:#ff0000;stroke-width:1.8645;stroke-opacity:1"
       id="path1065-7-3"
       cx="83.581741"
       cy="103.77463"
       r="10.06775" />
    <circle
       style="display:inline;fill:#ff0000;stroke:#ff0000;stroke-width:1.8645;stroke-opacity:1"
       id="path1065-7-1-6"
       cx="83.581741"
       cy="73.035011"
       r="10.06775" />
    <circle
       style="display:inline;fill:#ff0000;stroke:#ff0000;stroke-width:1.8645;stroke-opacity:1"
       id="path1065-7-2-3"
       cx="83.581741"
       cy="42.295391"
       r="10.06775" />
    <circle
       style="display:inline;fill:#ff0000;stroke:#ff0000;stroke-width:1.94925;stroke-opacity:1"
       id="path1065"
       cx="51.239552"
       cy="305.15768"
       r="10.525375" />
    <circle
       style="display:inline;fill:#ff0000;stroke:#ff0000;stroke-width:1.94925;stroke-opacity:1"
       id="path1065-7"
       cx="51.239552"
       cy="273.23862"
       r="10.525375" />
    <circle
       style="display:inline;fill:#ff0000;stroke:#ff0000;stroke-width:1.94925;stroke-opacity:1"
       id="path1065-7-1"
       cx="51.239552"
       cy="241.31953"
       r="10.525375" />
    <circle
       style="display:inline;fill:#ff0000;stroke:#ff0000;stroke-width:1.94925;stroke-opacity:1"
       id="path1065-2"
       cx="51.239552"
       cy="134.51425"
       r="10.525375" />
    <circle
       style="display:inline;fill:#ff0000;stroke:#ff0000;stroke-width:1.94925;stroke-opacity:1"
       id="path1065-2-8"
       cx="51.239552"
       cy="168.25388"
       r="10.525375" />
    <circle
       style="display:inline;fill:#ff0000;stroke:#ff0000;stroke-width:1.94925;stroke-opacity:1"
       id="path1065-7-20"
       cx="51.239552"
       cy="103.77463"
       r="10.525375" />
    <circle
       style="display:inline;fill:#ff0000;stroke:#ff0000;stroke-width:1.94925;stroke-opacity:1"
       id="path1065-7-1-9"
       cx="51.239552"
       cy="73.035011"
       r="10.525375" />
    <circle
       style="display:inline;fill:#ff0000;stroke:#ff0000;stroke-width:1.94925;stroke-opacity:1"
       id="path1065-7-2-0"
       cx="51.239552"
       cy="42.295391"
       r="10.525375" />
    <circle
       style="display:inline;fill:#ff0000;stroke:#ff0000;stroke-width:1.94925;stroke-opacity:1"
       id="path1065-9"
       cx="83.581741"
       cy="305.15768"
       r="10.525375" />
    <circle
       style="display:inline;fill:#ff0000;stroke:#ff0000;stroke-width:1.94925;stroke-opacity:1"
       id="path1065-7-38"
       cx="83.581741"
       cy="273.23862"
       r="10.525375" />
    <circle
       style="display:inline;fill:#ff0000;stroke:#ff0000;stroke-width:1.94925;stroke-opacity:1"
       id="path1065-7-1-1"
       cx="83.581741"
       cy="241.31953"
       r="10.525375" />
    <circle
       style="display:inline;fill:#ff0000;stroke:#ff0000;stroke-width:1.94925;stroke-opacity:1"
       id="path1065-7-2"
       cx="51.239555"
       cy="209.40047"
       r="10.525375" />
    <circle
       style="display:inline;fill:#ff0000;stroke:#ff0000;stroke-width:1.94925;stroke-opacity:1"
       id="path1065-7-2-8"
       cx="83.581741"
       cy="209.40047"
       r="10.525375" />
    <circle
       style="display:inline;fill:#ff0000;stroke:#ff0000;stroke-width:0.64063;stroke-opacity:1"
       id="path1065-7-2-3-6"
       cx="114.282"
       cy="59.665199"
       r="3.4592125" />
    <circle
       style="display:inline;fill:#ff0000;stroke:#ff0000;stroke-width:0.64063;stroke-opacity:1"
       id="path1065-7-2-3-6-2"
       cx="114.282"
       cy="90.404816"
       r="3.4592125" />
    <circle
       style="display:inline;fill:#ff0000;stroke:#ff0000;stroke-width:0.64063;stroke-opacity:1"
       id="path1065-7-2-3-6-2-5"
       cx="114.282"
       cy="121.14444"
       r="3.4592125" />
    <circle
       style="display:inline;fill:#ff0000;stroke:#ff0000;stroke-width:0.64063;stroke-opacity:1"
       id="path1065-7-2-3-6-2-5-1"
       cx="114.282"
       cy="151.88406"
       r="3.4592125" />
    <circle
       style="display:inline;fill:#ff0000;stroke:#ff0000;stroke-width:1.94925;stroke-opacity:1"
       id="path1065-72"
       cx="51.239552"
       cy="340.43411"
       r="10.525375" />
    <circle
       style="display:inline;fill:#ff0000;stroke:#ff0000;stroke-width:1.94925;stroke-opacity:1"
       id="path1065-22"
       cx="20.718"
       cy="305.15768"
       r="10.525375" />
    <circle
       style="display:inline;fill:#ff0000;stroke:#ff0000;stroke-width:1.94925;stroke-opacity:1"
       id="path1065-7-21"
       cx="20.718"
       cy="273.23862"
       r="10.525375" />
    <circle
       style="display:inline;fill:#ff0000;stroke:#ff0000;stroke-width:1.94925;stroke-opacity:1"
       id="path1065-7-1-5"
       cx="20.718"
       cy="241.31953"
       r="10.525375" />
    <circle
       style="display:inline;fill:#ff0000;stroke:#ff0000;stroke-width:1.94925;stroke-opacity:1"
       id="path1065-7-2-5"
       cx="20.718"
       cy="209.40047"
       r="10.525375" />
    <circle
       style="display:inline;fill:#ff0000;stroke:#ff0000;stroke-width:1.94925;stroke-opacity:1"
       id="path1065-72-3"
       cx="20.718"
       cy="340.43414"
       r="10.525375" />
    <circle
       style="display:inline;fill:#ff0000;stroke:#ff0000;stroke-width:1.94925;stroke-opacity:1"
       id="path1065-72-2"
       cx="83.581741"
       cy="340.43411"
       r="10.525375" />
    <circle
       style="display:inline;fill:#ff0000;stroke:#ff0000;stroke-width:1.94925;stroke-opacity:1"
       id="path1065-9-2"
       cx="114.282"
       cy="305.15768"
       r="10.525375" />
    <circle
       style="display:inline;fill:#ff0000;stroke:#ff0000;stroke-width:1.94925;stroke-opacity:1"
       id="path1065-7-38-4"
       cx="114.282"
       cy="273.23862"
       r="10.525375" />
    <circle
       style="display:inline;fill:#ff0000;stroke:#ff0000;stroke-width:1.94925;stroke-opacity:1"
       id="path1065-7-1-1-7"
       cx="114.282"
       cy="241.31953"
       r="10.525375" />
    <circle
       style="display:inline;fill:#ff0000;stroke:#ff0000;stroke-width:1.94925;stroke-opacity:1"
       id="path1065-7-2-8-8"
       cx="114.282"
       cy="209.40047"
       r="10.525375" />
    <circle
       style="display:inline;fill:#ff0000;stroke:#ff0000;stroke-width:1.94925;stroke-opacity:1"
       id="path1065-72-2-6"
       cx="114.282"
       cy="340.43411"
       r="10.525375" />
    <circle
       style="display:inline;fill:#ff0000;stroke:#ff0000;stroke-width:0.64063;stroke-opacity:1"
       id="path1065-7-2-3-6-2-5-1-4"
       cx="20.718"
       cy="151.88406"
       r="3.4592125" />
  </g>
  <g
     inkscape:groupmode="layer"
     id="layer2"
     inkscape:label="Text Labels"
     style="display:none" />
  <g
     id="g42796"
     transform="matrix(0.30458296,0,0,0.30458296,44.348196,-12.68508)"
     style="fill:#000000;fill-opacity:1">
    <g
       aria-label="enom"
       id="text4270-27"
       style="font-size:49.3889px;line-height:1.25;font-family:'NECK ROMANCER';-inkscape-font-specification:'NECK ROMANCER, Normal';font-variant-ligatures:none;text-align:center;text-anchor:middle;fill:#000000;stroke-width:2.64583;fill-opacity:1">
      <path
         d="m 46.609141,1249.244 q 0,1.1576 0,3.4245 3.183269,0 9.453344,0 -1.639866,0.5787 -2.990343,1.2058 -1.350478,0.627 -2.363337,1.688 -1.350477,0 -4.051433,0 0,1.4952 0.434082,2.5563 0.385851,1.1093 1.832792,1.1093 2.266873,0 6.80062,0 0.482313,-0.1447 0.868164,-0.627 0.337619,-0.5305 0.627007,-1.7363 0,2.0257 0,6.1254 -3.520888,0 -10.562665,0 -1.543403,0 -2.652724,-2.2187 -1.109321,-2.1704 -1.109321,-6.3183 0,-1.9775 0,-5.836 -0.385851,-1.3504 -1.881023,-2.1221 -1.495171,-0.7235 -3.569119,-1.2058 6.607694,0 19.774852,0 0,2.9421 0,8.7781 -1.205783,-2.701 -2.218642,-3.6656 -1.012858,-0.9646 -2.700955,-1.1093 -0.916396,-0.097 -2.170411,-0.097 -1.205783,0.048 -2.845649,0.048 -0.241157,0 -0.675239,0 z"
         id="path42762"
         style="fill:#000000;fill-opacity:1" />
      <path
         d="m 81.576869,1245.2891 q 0,5.8842 0,17.7009 0,3.0868 -0.144694,6.0771 -0.09646,3.0386 -0.337619,5.9325 -0.385851,-3.7138 -0.964627,-6.9936 -0.530545,-3.3279 -2.025717,-5.016 0,-2.9904 0,-8.9228 -0.241157,-1.3505 -0.72347,-2.2187 -0.482314,-0.8681 -1.06109,-1.3987 -1.109321,-1.0128 -2.411567,-1.1093 -1.350478,-0.097 -2.266874,-0.097 -0.482313,0 -1.44694,0 0,4.582 0,13.746 0,3.0868 -0.09646,6.0771 -0.144694,3.0386 -0.385851,5.9325 -0.38585,-3.7138 -0.916395,-6.9936 -0.578776,-3.3279 -2.025717,-5.016 0,-4.8232 0,-14.373 -0.385851,-1.3504 -1.881022,-2.1221 -1.495172,-0.7235 -3.56912,-1.2058 6.752389,0 20.257166,0 z"
         id="path42764"
         style="fill:#000000;fill-opacity:1" />
      <path
         d="m 104.19737,1249.0511 q 0,3.3762 0,10.1768 0,1.5434 -1.92925,2.6528 -1.92926,1.1093 -6.077152,1.1093 -4.196128,0 -6.125382,-1.1093 -1.929254,-1.1094 -1.929254,-2.6528 0,-3.3762 0,-10.1768 0,-1.5434 1.929254,-2.6527 1.929254,-1.1093 6.125382,-1.1093 4.147892,0 6.077152,1.1093 1.92925,1.1093 1.92925,2.6527 z m -3.76204,7.91 q 0,-1.8811 0,-5.6431 0,-1.6881 -1.254019,-1.9775 -1.205783,-0.2894 -2.990343,-0.2894 -1.832792,0 -3.038575,0.2894 -1.254015,0.2894 -1.254015,1.9775 0,1.881 0,5.6431 0,1.6881 1.254015,1.9774 1.205783,0.2894 3.038575,0.2894 1.78456,0 2.990343,-0.2894 1.254019,-0.2893 1.254019,-1.9774 z"
         id="path42766"
         style="fill:#000000;fill-opacity:1" />
      <path
         d="m 142.34837,1245.2891 q -2.02572,0.4823 -3.52089,1.2058 -1.5434,0.7717 -1.88102,2.1221 0,4.7749 0,14.373 -1.49517,1.6881 -2.02572,5.016 -0.57878,3.2798 -0.96463,6.9936 -0.24115,-2.8939 -0.33762,-5.9325 -0.14469,-2.9903 -0.14469,-6.0771 0,-4.582 0,-13.746 -0.48231,0 -1.39871,0 -0.53054,0 -1.15755,0 -0.62701,0 -1.30225,0.1447 -1.25401,0.2412 -2.41157,1.2058 -1.15755,0.9646 -1.63986,3.4727 0,2.9903 0,8.9228 -0.1447,0.627 -0.28939,1.1093 -0.0965,0.4823 -0.19292,0.8199 -0.53055,1.9775 -0.38586,1.3505 0.19293,-0.627 -0.28938,1.1576 -0.0965,0.3376 -0.24116,0.8681 -0.14469,0.5306 -0.33762,1.3023 -0.14469,-0.6753 -0.28939,-1.2058 -0.14469,-0.4823 -0.24115,-0.8199 -0.53055,-2.0258 -0.33762,-1.3023 0.19292,0.7717 -0.43409,-1.6881 -0.0482,-0.2894 -0.19292,-0.7235 -0.0965,-0.3858 -0.19293,-0.8681 0,-2.9904 0,-8.9228 -0.28939,-1.3505 -0.7717,-2.2187 -0.48231,-0.8681 -1.06109,-1.3987 -1.10932,-1.0128 -2.41157,-1.1093 -1.30224,-0.097 -2.26687,-0.097 -0.48231,0 -1.39871,0 0,4.582 0,13.746 0,3.0868 -0.14469,6.0771 -0.0965,3.0386 -0.33762,5.9325 -0.38585,-3.7138 -0.96463,-6.9936 -0.53054,-3.3279 -2.02572,-5.016 0,-4.8232 0,-14.373 -0.38585,-1.3504 -1.88102,-2.1221 -1.49517,-0.7235 -3.56912,-1.2058 3.95497,0 11.76845,0 1.15755,0.3858 3.47266,1.1575 0.7717,0.2894 1.59163,0.4341 0.81994,0.1447 1.6881,0.1447 0.86816,0 1.73633,-0.1447 0.81993,-0.1447 1.59163,-0.4341 1.15756,-0.3858 3.42443,-1.1575 3.95497,0 11.76845,0 z"
         id="path42768"
         style="fill:#000000;fill-opacity:1" />
    </g>
    <g
       aria-label="V"
       transform="matrix(1.2363173,0,0,0.80885384,-497.88086,123.48586)"
       id="text4270-3-5-2"
       style="font-size:78.5061px;line-height:1.25;font-family:Nosferotica;-inkscape-font-specification:'Nosferotica, Normal';font-variant-ligatures:none;text-align:center;text-anchor:middle;fill:#000000;stroke-width:3.27108;fill-opacity:1">
      <path
         d="m 431.64994,1360.6864 8.57428,-0.1022 c 0,0 -4.4079,1.0878 -5.59925,3.7285 -1.88083,4.1689 -3.64217,14.6628 -3.64217,14.6628 l -2.23339,11.5191 -1.83311,11.8311 -1.71824,21.3112 -1.69514,-21.3112 -1.92196,-11.5208 -2.5009,-11.8294 c 0,0 -1.52027,-10.287 -3.38278,-14.4832 -1.14458,-2.5787 -5.63367,-3.8059 -5.63367,-3.8059 h 8.4657 l 6.66875,29.1569 z"
         id="path30410"
         sodipodi:nodetypes="ccscccccccscccc"
         style="fill:#000000;fill-opacity:1" />
    </g>
  </g>
  <g
     id="g1595"
     transform="translate(29.910645)"
     style="stroke:#000000;stroke-opacity:1">
    <path
       style="fill:none;stroke:#000000;stroke-width:1;stroke-linecap:butt;stroke-linejoin:miter;stroke-miterlimit:4;stroke-dasharray:none;stroke-opacity:1"
       d="m 21.604686,42.295391 h 27.062813 4.727817"
       id="path150236" />
    <path
       style="fill:none;stroke:#000000;stroke-width:1;stroke-linecap:butt;stroke-linejoin:miter;stroke-miterlimit:4;stroke-dasharray:none;stroke-opacity:1"
       d="m 21.604686,73.035011 h 27.062813 4.727817"
       id="path150236-5" />
    <path
       style="fill:none;stroke:#000000;stroke-width:1;stroke-linecap:butt;stroke-linejoin:miter;stroke-miterlimit:4;stroke-dasharray:none;stroke-opacity:1"
       d="m 21.604686,103.77463 h 27.062813 4.727817"
       id="path150236-51" />
    <path
       style="fill:none;stroke:#000000;stroke-width:1;stroke-linecap:butt;stroke-linejoin:miter;stroke-miterlimit:4;stroke-dasharray:none;stroke-opacity:1"
       d="m 21.604686,134.51425 h 27.062813 4.727817"
       id="path150236-6" />
    <path
       style="fill:none;stroke:#000000;stroke-width:1;stroke-linecap:butt;stroke-linejoin:miter;stroke-miterlimit:4;stroke-dasharray:none;stroke-opacity:1"
       d="m 21.604686,168.25388 h 27.062813 4.727817"
       id="path150236-50" />
  </g>
  <g
     id="g63188"
     style="fill:#f2f2f2;fill-opacity:1">
    <g
       aria-label="MIX"
       id="text9323-1"
       style="font-weight:bold;font-size:8px;line-height:1.25;font-family:Arial;-inkscape-font-specification:'Arial, Bold';font-variant-ligatures:none;text-align:center;text-anchor:middle;fill:#f2f2f2;fill-opacity:1"
       transform="translate(76.594281,2.386808)">
      <path
         d="m 15.514994,325.90234 v -5.72656 h 1.730468 l 1.039063,3.90625 1.027344,-3.90625 h 1.734375 v 5.72656 h -1.074219 v -4.50781 l -1.136719,4.50781 h -1.113281 l -1.132813,-4.50781 v 4.50781 z"
         id="path79792"
         style="fill:#f2f2f2;fill-opacity:1" />
      <path
         d="m 22.159525,325.90234 v -5.72656 h 1.15625 v 5.72656 z"
         id="path79794"
         style="fill:#f2f2f2;fill-opacity:1" />
      <path
         d="m 23.835306,325.90234 1.957031,-2.98828 -1.773437,-2.73828 h 1.351562 l 1.148438,1.83984 1.125,-1.83984 h 1.339844 l -1.78125,2.78125 1.957031,2.94531 h -1.394531 l -1.269532,-1.98047 -1.273437,1.98047 z"
         id="path79796"
         style="fill:#f2f2f2;fill-opacity:1" />
    </g>
    <g
       aria-label="OUT"
       id="text125273-9-1"
       style="font-weight:bold;font-size:8px;line-height:1.25;font-family:Arial;-inkscape-font-specification:'Arial, Bold';font-variant-ligatures:none;text-align:center;text-anchor:middle;fill:#f2f2f2;fill-opacity:1"
       transform="translate(45.260444,2)">
      <path
         d="m 45.483597,192.43759 q 0,-0.875 0.261719,-1.46875 0.195312,-0.4375 0.53125,-0.78515 0.339843,-0.34766 0.742187,-0.51563 0.535156,-0.22656 1.234375,-0.22656 1.265625,0 2.023438,0.78515 0.761718,0.78516 0.761718,2.1836 0,1.38672 -0.753906,2.17187 -0.753906,0.78125 -2.015625,0.78125 -1.277344,0 -2.03125,-0.77734 -0.753906,-0.78125 -0.753906,-2.14844 z m 1.191406,-0.0391 q 0,0.97266 0.449219,1.47656 0.449219,0.5 1.140625,0.5 0.691406,0 1.132812,-0.49609 0.445313,-0.5 0.445313,-1.4961 0,-0.98437 -0.433594,-1.46875 -0.429687,-0.48437 -1.144531,-0.48437 -0.714844,0 -1.152344,0.49219 -0.4375,0.48828 -0.4375,1.47656 z"
         id="path152701"
         style="fill:#f2f2f2;fill-opacity:1" />
      <path
         d="m 51.932816,189.53915 h 1.15625 v 3.10157 q 0,0.73828 0.04297,0.95703 0.07422,0.35156 0.351563,0.5664 0.28125,0.21094 0.765625,0.21094 0.492187,0 0.742187,-0.19922 0.25,-0.20312 0.300782,-0.49609 0.05078,-0.29297 0.05078,-0.97266 v -3.16797 h 1.15625 v 3.00782 q 0,1.03125 -0.09375,1.45703 -0.09375,0.42578 -0.347656,0.71875 -0.25,0.29297 -0.671875,0.46875 -0.421875,0.17187 -1.101563,0.17187 -0.820312,0 -1.246094,-0.1875 -0.421875,-0.1914 -0.667968,-0.49218 -0.246094,-0.30469 -0.324219,-0.63672 -0.113281,-0.49219 -0.113281,-1.45313 z"
         id="path152703"
         style="fill:#f2f2f2;fill-opacity:1" />
      <path
         d="m 59.007034,195.26572 v -4.75782 h -1.699218 v -0.96875 h 4.550781 v 0.96875 h -1.695313 v 4.75782 z"
         id="path152705"
         style="fill:#f2f2f2;fill-opacity:1" />
    </g>
  </g>
  <g
     aria-label="L"
     id="text20411"
     style="font-weight:bold;font-size:8px;line-height:1.25;font-family:Arial;-inkscape-font-specification:'Arial, Bold';font-variant-ligatures:none;text-align:center;text-anchor:middle;fill:#f2f2f2;fill-opacity:1">
    <path
       d="m 18.702375,195.33994 v -5.67969 h 1.15625 v 4.71484 h 2.875 v 0.96485 z"
       id="path63069"
       style="fill:#f2f2f2;fill-opacity:1" />
  </g>
  <g
     aria-label="L"
     id="text20411-1"
     style="font-weight:bold;font-size:8px;line-height:1.25;font-family:Arial;-inkscape-font-specification:'Arial, Bold';font-variant-ligatures:none;text-align:center;text-anchor:middle;fill:#ff0000">
    <path
       d="m 81.566116,195.33994 v -5.67969 h 1.15625 v 4.71484 h 2.875 v 0.96485 z"
       id="path63075" />
  </g>
  <g
     aria-label="R"
     id="text20411-2"
     style="font-weight:bold;font-size:8px;line-height:1.25;font-family:Arial;-inkscape-font-specification:'Arial, Bold';font-variant-ligatures:none;text-align:center;text-anchor:middle;fill:#f2f2f2;fill-opacity:1">
    <path
       d="m 48.665337,195.36337 v -5.72656 h 2.433593 q 0.917969,0 1.332032,0.15625 0.417968,0.15234 0.667968,0.54688 0.25,0.39453 0.25,0.90234 0,0.64453 -0.378906,1.06641 -0.378906,0.41796 -1.132812,0.52734 0.375,0.21875 0.617187,0.48047 0.246094,0.26172 0.660156,0.92969 l 0.699219,1.11718 h -1.382812 l -0.835938,-1.24609 q -0.445312,-0.66797 -0.609375,-0.83984 -0.164062,-0.17579 -0.347656,-0.23829 -0.183594,-0.0664 -0.582031,-0.0664 h -0.234375 v 2.39062 z m 1.15625,-3.30468 h 0.855468 q 0.832032,0 1.039063,-0.0703 0.207031,-0.0703 0.324219,-0.24218 0.117187,-0.17188 0.117187,-0.42969 0,-0.28906 -0.15625,-0.46485 -0.152344,-0.17968 -0.433594,-0.22656 -0.140625,-0.0195 -0.84375,-0.0195 h -0.902343 z"
       id="path63072"
       style="fill:#f2f2f2;fill-opacity:1" />
  </g>
  <g
     aria-label="R"
     id="text20411-2-2"
     style="font-weight:bold;font-size:8px;line-height:1.25;font-family:Arial;-inkscape-font-specification:'Arial, Bold';font-variant-ligatures:none;text-align:center;text-anchor:middle;fill:#ff0000">
    <path
       d="m 111.70778,195.36337 v -5.72656 h 2.43359 q 0.91797,0 1.33203,0.15625 0.41797,0.15234 0.66797,0.54688 0.25,0.39453 0.25,0.90234 0,0.64453 -0.3789,1.06641 -0.37891,0.41796 -1.13282,0.52734 0.375,0.21875 0.61719,0.48047 0.2461,0.26172 0.66016,0.92969 l 0.69922,1.11718 h -1.38282 l -0.83593,-1.24609 q -0.44532,-0.66797 -0.60938,-0.83984 -0.16406,-0.17579 -0.34765,-0.23829 -0.1836,-0.0664 -0.58204,-0.0664 h -0.23437 v 2.39062 z m 1.15625,-3.30468 h 0.85547 q 0.83203,0 1.03906,-0.0703 0.20703,-0.0703 0.32422,-0.24218 0.11719,-0.17188 0.11719,-0.42969 0,-0.28906 -0.15625,-0.46485 -0.15235,-0.17968 -0.4336,-0.22656 -0.14062,-0.0195 -0.84375,-0.0195 h -0.90234 z"
       id="path63078" />
  </g>
  <path
     style="opacity:0.98;fill:none;stroke:#f2f2f2;stroke-width:0.963624px;stroke-linecap:butt;stroke-linejoin:miter;stroke-opacity:1"
     d="M 20.718,208 V 338"
     id="path27903" />
  <path
     style="opacity:0.98;fill:none;stroke:#f2f2f2;stroke-width:0.963624px;stroke-linecap:butt;stroke-linejoin:miter;stroke-opacity:1"
     d="M 51.239555,207.99999 V 338"
     id="path27903-9" />
  <path
     style="opacity:0.98;fill:none;stroke:#ff0000;stroke-width:0.963624px;stroke-linecap:butt;stroke-linejoin:miter;stroke-opacity:1"
     d="M 83.581741,208 V 338"
     id="path27903-7" />
  <path
     style="opacity:0.98;fill:none;stroke:#ff0000;stroke-width:0.963624px;stroke-linecap:butt;stroke-linejoin:miter;stroke-opacity:1"
     d="M 114.282,208 V 338"
     id="path27903-5" />
  <text
     xml:space="preserve"
     style="font-weight:bold;font-size:8px;line-height:1.25;font-family:Arial;-inkscape-font-specification:'Arial, Bold';font-variant-ligatures:none;text-align:center;text-anchor:middle"
     x="147.48465"
     y="82.920555"
     id="text43274"><tspan
       sodipodi:role="line"
       id="tspan43272"
       x="147.48465"
       y="82.920555" /></text>
</svg>
