<?xml version="1.0" encoding="UTF-8" standalone="no"?>
<svg
   width="105"
   height="380"
   viewBox="0 0 105 380"
   version="1.1"
   id="svg100"
   sodipodi:docname="WaveMangler_Danger.svg"
   inkscape:version="1.1.1 (3bf5ae0d25, 2021-09-20)"
   xmlns:inkscape="http://www.inkscape.org/namespaces/inkscape"
   xmlns:sodipodi="http://sodipodi.sourceforge.net/DTD/sodipodi-0.dtd"
   xmlns="http://www.w3.org/2000/svg"
   xmlns:svg="http://www.w3.org/2000/svg"
   xmlns:rdf="http://www.w3.org/1999/02/22-rdf-syntax-ns#"
   xmlns:cc="http://creativecommons.org/ns#"
   xmlns:dc="http://purl.org/dc/elements/1.1/">
  <metadata
     id="metadata104">
    <rdf:RDF>
      <cc:Work
         rdf:about="">
        <dc:format>image/svg+xml</dc:format>
        <dc:type
           rdf:resource="http://purl.org/dc/dcmitype/StillImage" />
      </cc:Work>
    </rdf:RDF>
  </metadata>
  <sodipodi:namedview
     pagecolor="#ffffff"
     bordercolor="#666666"
     borderopacity="1"
     objecttolerance="1"
     gridtolerance="1"
     guidetolerance="1"
     inkscape:pageopacity="0"
     inkscape:pageshadow="2"
     inkscape:window-width="1920"
     inkscape:window-height="1057"
     id="namedview102"
     showgrid="false"
     inkscape:zoom="2.2342105"
     inkscape:cx="76.984689"
     inkscape:cy="190"
     inkscape:window-x="1592"
     inkscape:window-y="-8"
     inkscape:window-maximized="1"
     inkscape:current-layer="layer4"
     inkscape:pagecheckerboard="0"
     units="px"
     inkscape:showpageshadow="false"
     showguides="false">
    <inkscape:grid
       type="xygrid"
       id="grid1285"
       visible="true"
       dotted="false"
       snapvisiblegridlinesonly="true"
       enabled="true" />
  </sodipodi:namedview>
  <defs
     id="defs7">
    <rect
       x="85"
       y="10"
       width="51.058132"
       height="25"
       id="rect29906" />
    <linearGradient
       id="a8e142bb-541b-4903-be63-d5d069028a5d"
       x1="22.5"
       x2="22.5"
       y2="380"
       gradientUnits="userSpaceOnUse">
      <stop
         offset="0"
         stop-color="#ebebeb"
         id="stop2" />
      <stop
         offset="1"
         stop-color="#e1e1e1"
         id="stop4" />
    </linearGradient>
  </defs>
  <g
     inkscape:groupmode="layer"
     id="layer4"
     inkscape:label="Faceplate"
     style="display:inline">
    <g
       id="aea613ef-74be-49bf-be45-c0734aee674b"
       data-name="FND BG"
       style="fill:#ff0000;fill-opacity:1;stroke-width:1.25357"
       transform="scale(2.3333333,1)">
      <rect
         width="45"
         height="380"
         fill="url(#a8e142bb-541b-4903-be63-d5d069028a5d)"
         id="rect9"
         style="fill:#ff0000;fill-opacity:1;stroke-width:1.25357"
         x="0"
         y="0" />
    </g>
  </g>
  <g
     inkscape:groupmode="layer"
     id="layer3"
     inkscape:label="Brand"
     style="display:inline">
    <g
       id="g42796"
       transform="matrix(0.30458296,0,0,0.30458296,29.437549,-12.68508)"
       style="fill:#000000;fill-opacity:1">
      <g
         aria-label="enom"
         id="text4270-27"
         style="font-size:49.3889px;line-height:1.25;font-family:'NECK ROMANCER';-inkscape-font-specification:'NECK ROMANCER, Normal';font-variant-ligatures:none;text-align:center;text-anchor:middle;fill:#000000;fill-opacity:1;stroke-width:2.64583">
        <path
           d="m 46.609141,1249.244 q 0,1.1576 0,3.4245 3.183269,0 9.453344,0 -1.639866,0.5787 -2.990343,1.2058 -1.350478,0.627 -2.363337,1.688 -1.350477,0 -4.051433,0 0,1.4952 0.434082,2.5563 0.385851,1.1093 1.832792,1.1093 2.266873,0 6.80062,0 0.482313,-0.1447 0.868164,-0.627 0.337619,-0.5305 0.627007,-1.7363 0,2.0257 0,6.1254 -3.520888,0 -10.562665,0 -1.543403,0 -2.652724,-2.2187 -1.109321,-2.1704 -1.109321,-6.3183 0,-1.9775 0,-5.836 -0.385851,-1.3504 -1.881023,-2.1221 -1.495171,-0.7235 -3.569119,-1.2058 6.607694,0 19.774852,0 0,2.9421 0,8.7781 -1.205783,-2.701 -2.218642,-3.6656 -1.012858,-0.9646 -2.700955,-1.1093 -0.916396,-0.097 -2.170411,-0.097 -1.205783,0.048 -2.845649,0.048 -0.241157,0 -0.675239,0 z"
           id="path42762"
           style="fill:#000000;fill-opacity:1" />
        <path
           d="m 81.576869,1245.2891 q 0,5.8842 0,17.7009 0,3.0868 -0.144694,6.0771 -0.09646,3.0386 -0.337619,5.9325 -0.385851,-3.7138 -0.964627,-6.9936 -0.530545,-3.3279 -2.025717,-5.016 0,-2.9904 0,-8.9228 -0.241157,-1.3505 -0.72347,-2.2187 -0.482314,-0.8681 -1.06109,-1.3987 -1.109321,-1.0128 -2.411567,-1.1093 -1.350478,-0.097 -2.266874,-0.097 -0.482313,0 -1.44694,0 0,4.582 0,13.746 0,3.0868 -0.09646,6.0771 -0.144694,3.0386 -0.385851,5.9325 -0.38585,-3.7138 -0.916395,-6.9936 -0.578776,-3.3279 -2.025717,-5.016 0,-4.8232 0,-14.373 -0.385851,-1.3504 -1.881022,-2.1221 -1.495172,-0.7235 -3.56912,-1.2058 6.752389,0 20.257166,0 z"
           id="path42764"
           style="fill:#000000;fill-opacity:1" />
        <path
           d="m 104.19737,1249.0511 q 0,3.3762 0,10.1768 0,1.5434 -1.92925,2.6528 -1.92926,1.1093 -6.077152,1.1093 -4.196128,0 -6.125382,-1.1093 -1.929254,-1.1094 -1.929254,-2.6528 0,-3.3762 0,-10.1768 0,-1.5434 1.929254,-2.6527 1.929254,-1.1093 6.125382,-1.1093 4.147892,0 6.077152,1.1093 1.92925,1.1093 1.92925,2.6527 z m -3.76204,7.91 q 0,-1.8811 0,-5.6431 0,-1.6881 -1.254019,-1.9775 -1.205783,-0.2894 -2.990343,-0.2894 -1.832792,0 -3.038575,0.2894 -1.254015,0.2894 -1.254015,1.9775 0,1.881 0,5.6431 0,1.6881 1.254015,1.9774 1.205783,0.2894 3.038575,0.2894 1.78456,0 2.990343,-0.2894 1.254019,-0.2893 1.254019,-1.9774 z"
           id="path42766"
           style="fill:#000000;fill-opacity:1" />
        <path
           d="m 142.34837,1245.2891 q -2.02572,0.4823 -3.52089,1.2058 -1.5434,0.7717 -1.88102,2.1221 0,4.7749 0,14.373 -1.49517,1.6881 -2.02572,5.016 -0.57878,3.2798 -0.96463,6.9936 -0.24115,-2.8939 -0.33762,-5.9325 -0.14469,-2.9903 -0.14469,-6.0771 0,-4.582 0,-13.746 -0.48231,0 -1.39871,0 -0.53054,0 -1.15755,0 -0.62701,0 -1.30225,0.1447 -1.25401,0.2412 -2.41157,1.2058 -1.15755,0.9646 -1.63986,3.4727 0,2.9903 0,8.9228 -0.1447,0.627 -0.28939,1.1093 -0.0965,0.4823 -0.19292,0.8199 -0.53055,1.9775 -0.38586,1.3505 0.19293,-0.627 -0.28938,1.1576 -0.0965,0.3376 -0.24116,0.8681 -0.14469,0.5306 -0.33762,1.3023 -0.14469,-0.6753 -0.28939,-1.2058 -0.14469,-0.4823 -0.24115,-0.8199 -0.53055,-2.0258 -0.33762,-1.3023 0.19292,0.7717 -0.43409,-1.6881 -0.0482,-0.2894 -0.19292,-0.7235 -0.0965,-0.3858 -0.19293,-0.8681 0,-2.9904 0,-8.9228 -0.28939,-1.3505 -0.7717,-2.2187 -0.48231,-0.8681 -1.06109,-1.3987 -1.10932,-1.0128 -2.41157,-1.1093 -1.30224,-0.097 -2.26687,-0.097 -0.48231,0 -1.39871,0 0,4.582 0,13.746 0,3.0868 -0.14469,6.0771 -0.0965,3.0386 -0.33762,5.9325 -0.38585,-3.7138 -0.96463,-6.9936 -0.53054,-3.3279 -2.02572,-5.016 0,-4.8232 0,-14.373 -0.38585,-1.3504 -1.88102,-2.1221 -1.49517,-0.7235 -3.56912,-1.2058 3.95497,0 11.76845,0 1.15755,0.3858 3.47266,1.1575 0.7717,0.2894 1.59163,0.4341 0.81994,0.1447 1.6881,0.1447 0.86816,0 1.73633,-0.1447 0.81993,-0.1447 1.59163,-0.4341 1.15756,-0.3858 3.42443,-1.1575 3.95497,0 11.76845,0 z"
           id="path42768"
           style="fill:#000000;fill-opacity:1" />
      </g>
      <g
         aria-label="V"
         transform="matrix(1.2363173,0,0,0.80885384,-497.88086,123.48586)"
         id="text4270-3-5-2"
         style="font-size:78.5061px;line-height:1.25;font-family:Nosferotica;-inkscape-font-specification:'Nosferotica, Normal';font-variant-ligatures:none;text-align:center;text-anchor:middle;fill:#000000;fill-opacity:1;stroke-width:3.27108">
        <path
           d="m 431.64994,1360.6864 8.57428,-0.1022 c 0,0 -4.4079,1.0878 -5.59925,3.7285 -1.88083,4.1689 -3.64217,14.6628 -3.64217,14.6628 l -2.23339,11.5191 -1.83311,11.8311 -1.71824,21.3112 -1.69514,-21.3112 -1.92196,-11.5208 -2.5009,-11.8294 c 0,0 -1.52027,-10.287 -3.38278,-14.4832 -1.14458,-2.5787 -5.63367,-3.8059 -5.63367,-3.8059 h 8.4657 l 6.66875,29.1569 z"
           id="path30410"
           sodipodi:nodetypes="ccscccccccscccc"
           style="fill:#000000;fill-opacity:1" />
      </g>
    </g>
  </g>
  <g
     id="f45e0130-37b7-4f8b-95b3-6408baa23eb1"
     data-name="components"
     style="display:inline"
     inkscape:groupmode="layer"
     inkscape:label="Solid">
    <rect
       x="57.260078"
       y="320.77985"
       width="30.479843"
       height="40"
       rx="3.0260944"
       fill="#1f1f1f"
       id="rect56"
       style="fill:#000000;fill-opacity:1;stroke-width:1.04428"
       ry="3.0260944" />
    <g
       aria-label="IN"
       id="text38746-0-2"
       style="font-weight:bold;font-size:8px;line-height:1.25;font-family:Arial;-inkscape-font-specification:'Arial, Bold';font-variant-ligatures:none;text-align:center;text-anchor:middle;display:inline;fill:#000000;fill-opacity:1"
       transform="translate(-4.7458774,5.227452)">
      <path
         d="m 34.34375,325.90234 v -5.72656 H 35.5 v 5.72656 z"
         id="path97104"
         style="fill:#000000;fill-opacity:1" />
      <path
         d="m 36.613281,325.90234 v -5.72656 h 1.125 L 40.082031,324 v -3.82422 h 1.074219 v 5.72656 H 39.996094 L 37.6875,322.16797 v 3.73437 z"
         id="path97106"
         style="fill:#000000;fill-opacity:1" />
    </g>
    <g
       aria-label="OVER"
       id="text41157-3-6-2"
       style="font-weight:bold;font-size:8px;line-height:1.25;font-family:Arial;-inkscape-font-specification:'Arial, Bold';font-variant-ligatures:none;text-align:center;text-anchor:middle;display:inline;fill:#000000;fill-opacity:1"
       transform="translate(9.7411509,-259.02167)">
      <path
         d="m 9.6182251,282.01395 q 0,-0.875 0.2617187,-1.46875 0.1953122,-0.4375 0.5312502,-0.78516 0.339844,-0.34766 0.742187,-0.51562 0.535157,-0.22657 1.234375,-0.22657 1.265625,0 2.023438,0.78516 0.761719,0.78516 0.761719,2.18359 0,1.38672 -0.753907,2.17188 -0.753906,0.78125 -2.015625,0.78125 -1.277343,0 -2.03125,-0.77735 -0.7539059,-0.78125 -0.7539059,-2.14843 z m 1.1914059,-0.0391 q 0,0.97266 0.449219,1.47657 0.449219,0.5 1.140625,0.5 0.691406,0 1.132813,-0.4961 0.445312,-0.5 0.445312,-1.49609 0,-0.98438 -0.433594,-1.46875 -0.429687,-0.48438 -1.144531,-0.48438 -0.714844,0 -1.152344,0.49219 -0.4375,0.48828 -0.4375,1.47656 z"
         id="path55137"
         style="fill:#000000;fill-opacity:1" />
      <path
         d="m 17.536194,284.84207 -2.046875,-5.72656 h 1.253906 l 1.449219,4.23828 1.402344,-4.23828 h 1.226562 l -2.050781,5.72656 z"
         id="path55139"
         style="fill:#000000;fill-opacity:1" />
      <path
         d="m 21.411194,284.84207 v -5.72656 h 4.246094 v 0.96875 h -3.089844 v 1.26953 h 2.875 v 0.96484 h -2.875 v 1.5586 h 3.199219 v 0.96484 z"
         id="path55141"
         style="fill:#000000;fill-opacity:1" />
      <path
         d="m 26.751038,284.84207 v -5.72656 h 2.433593 q 0.917969,0 1.332032,0.15625 0.417968,0.15234 0.667968,0.54687 0.25,0.39454 0.25,0.90235 0,0.64453 -0.378906,1.0664 -0.378906,0.41797 -1.132812,0.52735 0.375,0.21875 0.617187,0.48047 0.246094,0.26172 0.660156,0.92968 l 0.699219,1.11719 h -1.382812 l -0.835938,-1.24609 q -0.445312,-0.66797 -0.609375,-0.83985 -0.164062,-0.17578 -0.347656,-0.23828 -0.183594,-0.0664 -0.582031,-0.0664 h -0.234375 v 2.39062 z m 1.15625,-3.30469 h 0.855468 q 0.832032,0 1.039063,-0.0703 0.207031,-0.0703 0.324219,-0.24219 0.117187,-0.17187 0.117187,-0.42968 0,-0.28907 -0.15625,-0.46485 -0.152344,-0.17968 -0.433594,-0.22656 -0.140625,-0.0195 -0.84375,-0.0195 h -0.902343 z"
         id="path55143"
         style="fill:#000000;fill-opacity:1" />
    </g>
    <path
       style="color:#000000;display:inline;fill:#000000;fill-opacity:1;-inkscape-stroke:none"
       d="m 22.172632,77.664918 v 1 h 32.492185 v -1 z"
       id="path78542-6" />
    <path
       style="color:#000000;display:inline;fill:#000000;fill-opacity:1;stroke-dasharray:2, 2;-inkscape-stroke:none"
       d="m 51.673,77.664918 v 1 h 0.49218 v -1 z m 2.49218,0 v 1 h 2.00001 v -1 z m 4.00001,0 v 1 h 2 v -1 z m 4,0 v 1 h 2 v -1 z m 4,0 v 1 h 2 v -1 z m 4,0 v 1 h 2 v -1 z m 4,0 v 1 h 2 v -1 z m 4,0 v 1 h 2 v -1 z m 4,0 v 1 h 2 v -1 z"
       id="path78542-3-2" />
    <path
       style="color:#000000;display:inline;fill:#000000;fill-opacity:1;-inkscape-stroke:none"
       d="m 21.818986,114.66492 v 1 h 32.492185 v -1 z"
       id="path78542-6-9" />
    <path
       style="color:#000000;display:inline;fill:#000000;fill-opacity:1;stroke-dasharray:2, 2;-inkscape-stroke:none"
       d="m 51.673,114.66492 v 1 h 0.49218 v -1 z m 2.49218,0 v 1 h 2.00001 v -1 z m 4.00001,0 v 1 h 2 v -1 z m 4,0 v 1 h 2 v -1 z m 4,0 v 1 h 2 v -1 z m 4,0 v 1 h 2 v -1 z m 4,0 v 1 h 2 v -1 z m 4,0 v 1 h 2 v -1 z m 4,0 v 1 h 2 v -1 z"
       id="path78542-3-2-1" />
    <path
       style="color:#000000;display:inline;fill:#000000;fill-opacity:1;stroke-width:1;-inkscape-stroke:none"
       d="m 23.161471,153.55589 v 1 h 32.491521 v -1 z"
       id="path78542-6-2" />
    <path
       style="color:#000000;display:inline;fill:#000000;fill-opacity:1;stroke-width:1;stroke-dasharray:2, 2;-inkscape-stroke:none"
       d="m 51.672146,153.55589 v 1 h 0.49217 v -1 z m 2.492129,0 v 1 h 1.999969 v -1 z m 3.999928,0 v 1 h 1.999959 v -1 z m 3.999918,0 v 1 h 1.999959 v -1 z m 3.999918,0 v 1 h 1.999959 v -1 z m 3.999918,0 v 1 h 1.999959 v -1 z m 3.999918,0 v 1 h 1.999959 v -1 z m 3.999918,0 v 1 h 1.99996 v -1 z m 3.999919,0 v 1 h 1.999959 v -1 z"
       id="path78542-3-2-12" />
    <path
       style="color:#000000;display:inline;fill:#000000;fill-opacity:1;stroke-width:1;-inkscape-stroke:none"
       d="m 22.713895,190.55589 v 1 h 32.491521 v -1 z"
       id="path78542-6-1" />
    <path
       style="color:#000000;display:inline;fill:#000000;fill-opacity:1;stroke-width:1;stroke-dasharray:2, 2;-inkscape-stroke:none"
       d="m 51.672147,190.55589 v 1 h 0.49217 v -1 z m 2.492129,0 v 1 h 1.999969 v -1 z m 3.999927,0 v 1 h 1.999959 v -1 z m 3.999918,0 v 1 h 1.999959 v -1 z m 3.999918,0 v 1 h 1.999959 v -1 z m 3.999918,0 v 1 h 1.999959 v -1 z m 3.999918,0 v 1 h 1.999959 v -1 z m 3.999918,0 v 1 h 1.99996 v -1 z m 3.999919,0 v 1 h 1.999959 v -1 z"
       id="path78542-3-2-5" />
    <path
       style="color:#000000;display:inline;fill:#000000;fill-opacity:1;stroke-width:1;-inkscape-stroke:none"
       d="m 20.923591,227.55589 v 1 H 53.41511 v -1 z"
       id="path78542-6-21" />
    <path
       style="color:#000000;display:inline;fill:#000000;fill-opacity:1;stroke-width:1;stroke-dasharray:2, 2;-inkscape-stroke:none"
       d="m 51.672146,227.55589 v 1 h 0.49217 v -1 z m 2.492129,0 v 1 h 1.999969 v -1 z m 3.999928,0 v 1 h 1.999959 v -1 z m 3.999918,0 v 1 h 1.999959 v -1 z m 3.999918,0 v 1 h 1.999959 v -1 z m 3.999918,0 v 1 h 1.999959 v -1 z m 3.999918,0 v 1 h 1.999959 v -1 z m 3.999918,0 v 1 h 1.99996 v -1 z m 3.999919,0 v 1 h 1.999959 v -1 z"
       id="path78542-3-2-3" />
    <path
       style="color:#000000;display:inline;fill:#000000;fill-opacity:1;stroke-width:1;-inkscape-stroke:none"
       d="m 20.923591,264.55589 v 1 H 53.41511 v -1 z"
       id="path78542-6-6" />
    <path
       style="color:#000000;display:inline;fill:#000000;fill-opacity:1;stroke-width:1;stroke-dasharray:2, 2;-inkscape-stroke:none"
       d="m 51.672146,264.55589 v 1 h 0.49217 v -1 z m 2.492129,0 v 1 h 1.999969 v -1 z m 3.999928,0 v 1 h 1.999959 v -1 z m 3.999918,0 v 1 h 1.999959 v -1 z m 3.999918,0 v 1 h 1.999959 v -1 z m 3.999918,0 v 1 h 1.999959 v -1 z m 3.999918,0 v 1 h 1.999959 v -1 z m 3.999918,0 v 1 h 1.99996 v -1 z m 3.999919,0 v 1 h 1.999959 v -1 z"
       id="path78542-3-2-50" />
    <path
       style="color:#000000;display:inline;fill:#000000;fill-opacity:1;stroke-width:1;-inkscape-stroke:none"
       d="m 21.818743,301.55589 v 1 h 32.49152 v -1 z"
       id="path78542-6-7" />
    <path
       style="color:#000000;display:inline;fill:#000000;fill-opacity:1;stroke-width:1;stroke-dasharray:2, 2;-inkscape-stroke:none"
       d="m 51.672146,301.55589 v 1 h 0.49217 v -1 z m 2.492129,0 v 1 h 1.999969 v -1 z m 3.999928,0 v 1 h 1.999959 v -1 z m 3.999918,0 v 1 h 1.999959 v -1 z m 3.999918,0 v 1 h 1.999959 v -1 z m 3.999918,0 v 1 h 1.999959 v -1 z m 3.999918,0 v 1 h 1.999959 v -1 z m 3.999918,0 v 1 h 1.99996 v -1 z m 3.999919,0 v 1 h 1.999959 v -1 z"
       id="path78542-3-2-58" />
    <g
       aria-label="MID AMPLITUDE"
       id="text4916-2"
       style="font-weight:bold;font-size:8px;line-height:1.25;font-family:Arial;-inkscape-font-specification:'Arial, Bold';font-variant-ligatures:none;text-align:center;text-anchor:middle;display:inline;fill:#000000;fill-opacity:1;stroke-width:0.999998"
       transform="matrix(1.0000034,0,0,1,145.17448,2.8360273)">
      <path
         d="m -123.81815,211.85339 v -5.72656 h 1.73047 l 1.03907,3.90625 1.02734,-3.90625 h 1.73437 v 5.72656 h -1.07421 v -4.50781 l -1.13672,4.50781 h -1.11328 l -1.13282,-4.50781 v 4.50781 z"
         id="path1399"
         style="fill:#000000;fill-opacity:1;stroke-width:0.999998" />
      <path
         d="m -117.17361,211.85339 v -5.72656 h 1.15625 v 5.72656 z"
         id="path1401"
         style="fill:#000000;fill-opacity:1;stroke-width:0.999998" />
      <path
         d="m -114.91971,206.12683 h 2.11328 q 0.71485,0 1.08985,0.10938 0.5039,0.14843 0.86328,0.52734 0.35937,0.37891 0.54687,0.92969 0.1875,0.54687 0.1875,1.35156 0,0.70703 -0.17578,1.21875 -0.21484,0.625 -0.61328,1.01172 -0.30078,0.29297 -0.8125,0.45703 -0.38281,0.12109 -1.02344,0.12109 h -2.17578 z m 1.15625,0.96875 v 3.79297 h 0.86328 q 0.48438,0 0.69922,-0.0547 0.28125,-0.0703 0.46485,-0.23828 0.1875,-0.16797 0.30468,-0.55078 0.11719,-0.38672 0.11719,-1.05078 0,-0.66406 -0.11719,-1.01953 -0.11718,-0.35547 -0.32812,-0.55469 -0.21094,-0.19922 -0.53516,-0.26953 -0.24219,-0.0547 -0.94922,-0.0547 z"
         id="path1403"
         style="fill:#000000;fill-opacity:1;stroke-width:0.999998" />
      <path
         d="m -102.04861,211.85339 h -1.25782 l -0.5,-1.30078 h -2.28906 l -0.47266,1.30078 h -1.22656 l 2.23047,-5.72656 h 1.22266 z m -2.12891,-2.26562 -0.78906,-2.125 -0.77344,2.125 z"
         id="path1405"
         style="fill:#000000;fill-opacity:1;stroke-width:0.999998" />
      <path
         d="m -101.45096,211.85339 v -5.72656 h 1.73047 l 1.039063,3.90625 1.027344,-3.90625 h 1.734375 v 5.72656 h -1.074219 v -4.50781 l -1.136719,4.50781 h -1.113281 l -1.132813,-4.50781 v 4.50781 z"
         id="path1407"
         style="fill:#000000;fill-opacity:1;stroke-width:0.999998" />
      <path
         d="m -94.771271,211.85339 v -5.72656 h 1.855469 q 1.054687,0 1.375,0.0859 0.492187,0.1289 0.824219,0.5625 0.332031,0.42969 0.332031,1.11328 0,0.52734 -0.191406,0.88672 -0.191407,0.35937 -0.488282,0.5664 -0.292968,0.20313 -0.597656,0.26954 -0.414062,0.082 -1.199219,0.082 h -0.753906 v 2.16015 z m 1.15625,-4.75781 v 1.625 h 0.632813 q 0.683593,0 0.914062,-0.0898 0.230469,-0.0899 0.359375,-0.28125 0.132813,-0.19141 0.132813,-0.44532 0,-0.3125 -0.183594,-0.51562 -0.183594,-0.20313 -0.464844,-0.25391 -0.207031,-0.0391 -0.832031,-0.0391 z"
         id="path1409"
         style="fill:#000000;fill-opacity:1;stroke-width:0.999998" />
      <path
         d="m -89.404083,211.85339 v -5.67968 h 1.15625 v 4.71484 h 2.875 v 0.96484 z"
         id="path1411"
         style="fill:#000000;fill-opacity:1;stroke-width:0.999998" />
      <path
         d="m -84.583771,211.85339 v -5.72656 h 1.15625 v 5.72656 z"
         id="path1413"
         style="fill:#000000;fill-opacity:1;stroke-width:0.999998" />
      <path
         d="m -81.036896,211.85339 v -4.75781 h -1.699219 v -0.96875 h 4.550782 v 0.96875 h -1.695313 v 4.75781 z"
         id="path1415"
         style="fill:#000000;fill-opacity:1;stroke-width:0.999998" />
      <path
         d="m -77.447052,206.12683 h 1.15625 v 3.10156 q 0,0.73828 0.04297,0.95703 0.07422,0.35157 0.351562,0.56641 0.28125,0.21094 0.765625,0.21094 0.492188,0 0.742188,-0.19922 0.25,-0.20313 0.300781,-0.49609 0.05078,-0.29297 0.05078,-0.97266 v -3.16797 h 1.15625 v 3.00781 q 0,1.03125 -0.09375,1.45703 -0.09375,0.42579 -0.347656,0.71875 -0.25,0.29297 -0.671875,0.46875 -0.421875,0.17188 -1.101563,0.17188 -0.820312,0 -1.246093,-0.1875 -0.421875,-0.19141 -0.667969,-0.49219 -0.246094,-0.30469 -0.324219,-0.63672 -0.113281,-0.49218 -0.113281,-1.45312 z"
         id="path1417"
         style="fill:#000000;fill-opacity:1;stroke-width:0.999998" />
      <path
         d="m -71.665802,206.12683 h 2.113281 q 0.714844,0 1.089844,0.10938 0.503906,0.14843 0.863281,0.52734 0.359375,0.37891 0.546875,0.92969 0.1875,0.54687 0.1875,1.35156 0,0.70703 -0.175781,1.21875 -0.214844,0.625 -0.613281,1.01172 -0.300782,0.29297 -0.8125,0.45703 -0.382813,0.12109 -1.023438,0.12109 h -2.175781 z m 1.15625,0.96875 v 3.79297 h 0.863281 q 0.484375,0 0.699219,-0.0547 0.28125,-0.0703 0.464844,-0.23828 0.1875,-0.16797 0.304687,-0.55078 0.117188,-0.38672 0.117188,-1.05078 0,-0.66406 -0.117188,-1.01953 -0.117187,-0.35547 -0.328125,-0.55469 -0.210937,-0.19922 -0.535156,-0.26953 -0.242188,-0.0547 -0.949219,-0.0547 z"
         id="path1419"
         style="fill:#000000;fill-opacity:1;stroke-width:0.999998" />
      <path
         d="m -65.884552,211.85339 v -5.72656 h 4.246094 v 0.96875 h -3.089844 v 1.26953 h 2.875 v 0.96485 h -2.875 v 1.55859 h 3.199219 v 0.96484 z"
         id="path1421"
         style="fill:#000000;fill-opacity:1;stroke-width:0.999998" />
    </g>
    <g
       aria-label="LOW AMPLITUDE"
       id="text4916"
       style="font-weight:bold;font-size:8px;line-height:1.25;font-family:Arial;-inkscape-font-specification:'Arial, Bold';font-variant-ligatures:none;text-align:center;text-anchor:middle;fill:#000000;fill-opacity:1;stroke-width:0.999998"
       transform="matrix(1.0000034,0,0,1,134.30153,2.8360273)">
      <path
         d="m -114.91985,285.90222 v -5.67969 h 1.15625 v 4.71485 h 2.875 v 0.96484 z"
         id="path1374"
         style="fill:#000000;fill-opacity:1;stroke-width:0.999998" />
      <path
         d="m -110.29876,283.0741 q 0,-0.875 0.26172,-1.46875 0.19531,-0.4375 0.53125,-0.78516 0.33984,-0.34766 0.74219,-0.51562 0.53515,-0.22657 1.23437,-0.22657 1.26563,0 2.02344,0.78516 0.76172,0.78516 0.76172,2.18359 0,1.38672 -0.75391,2.17188 -0.7539,0.78125 -2.01562,0.78125 -1.27735,0 -2.03125,-0.77735 -0.75391,-0.78125 -0.75391,-2.14843 z m 1.19141,-0.0391 q 0,0.97266 0.44922,1.47657 0.44921,0.5 1.14062,0.5 0.69141,0 1.13281,-0.4961 0.44532,-0.5 0.44532,-1.49609 0,-0.98438 -0.4336,-1.46875 -0.42969,-0.48438 -1.14453,-0.48438 -0.71484,0 -1.15234,0.49219 -0.4375,0.48828 -0.4375,1.47656 z"
         id="path1376"
         style="fill:#000000;fill-opacity:1;stroke-width:0.999998" />
      <path
         d="m -103.02923,285.90222 -1.36719,-5.72656 h 1.1836 l 0.86328,3.93359 1.04687,-3.93359 h 1.375004 l 1.003907,4 0.878906,-4 h 1.164062 l -1.390625,5.72656 h -1.226562 l -1.140622,-4.28125 -1.13672,4.28125 z"
         id="path1378"
         style="fill:#000000;fill-opacity:1;stroke-width:0.999998" />
      <path
         d="m -89.201103,285.90222 h -1.257813 l -0.5,-1.30078 h -2.289062 l -0.472656,1.30078 h -1.226563 l 2.230469,-5.72656 h 1.222656 z m -2.128906,-2.26562 -0.789063,-2.125 -0.773437,2.125 z"
         id="path1380"
         style="fill:#000000;fill-opacity:1;stroke-width:0.999998" />
      <path
         d="m -88.603447,285.90222 v -5.72656 h 1.730469 l 1.039062,3.90625 1.027344,-3.90625 h 1.734375 v 5.72656 h -1.074219 v -4.50781 l -1.136718,4.50781 h -1.113282 l -1.132812,-4.50781 v 4.50781 z"
         id="path1382"
         style="fill:#000000;fill-opacity:1;stroke-width:0.999998" />
      <path
         d="m -81.923759,285.90222 v -5.72656 h 1.855468 q 1.054688,0 1.375,0.0859 0.492188,0.1289 0.824219,0.5625 0.332031,0.42968 0.332031,1.11328 0,0.52734 -0.191406,0.88672 -0.191406,0.35937 -0.488281,0.5664 -0.292969,0.20313 -0.597656,0.26953 -0.414063,0.082 -1.199219,0.082 h -0.753906 v 2.16015 z m 1.15625,-4.75781 v 1.625 h 0.632812 q 0.683594,0 0.914063,-0.0898 0.230468,-0.0899 0.359375,-0.28125 0.132812,-0.19141 0.132812,-0.44532 0,-0.3125 -0.183594,-0.51562 -0.183593,-0.20313 -0.464843,-0.25391 -0.207032,-0.0391 -0.832032,-0.0391 z"
         id="path1384"
         style="fill:#000000;fill-opacity:1;stroke-width:0.999998" />
      <path
         d="m -76.556572,285.90222 v -5.67969 h 1.15625 v 4.71485 h 2.875 v 0.96484 z"
         id="path1386"
         style="fill:#000000;fill-opacity:1;stroke-width:0.999998" />
      <path
         d="m -71.736259,285.90222 v -5.72656 h 1.15625 v 5.72656 z"
         id="path1388"
         style="fill:#000000;fill-opacity:1;stroke-width:0.999998" />
      <path
         d="m -68.189384,285.90222 v -4.75781 h -1.699219 v -0.96875 h 4.550781 v 0.96875 h -1.695312 v 4.75781 z"
         id="path1390"
         style="fill:#000000;fill-opacity:1;stroke-width:0.999998" />
      <path
         d="m -64.599541,280.17566 h 1.15625 v 3.10156 q 0,0.73828 0.04297,0.95703 0.07422,0.35157 0.351563,0.56641 0.28125,0.21094 0.765625,0.21094 0.492187,0 0.742187,-0.19922 0.25,-0.20313 0.300781,-0.4961 0.05078,-0.29296 0.05078,-0.97265 v -3.16797 h 1.15625 v 3.00781 q 0,1.03125 -0.09375,1.45703 -0.09375,0.42578 -0.347657,0.71875 -0.25,0.29297 -0.671875,0.46875 -0.421875,0.17188 -1.101562,0.17188 -0.820313,0 -1.246094,-0.1875 -0.421875,-0.19141 -0.667969,-0.49219 -0.246093,-0.30469 -0.324218,-0.63672 -0.113282,-0.49219 -0.113282,-1.45312 z"
         id="path1392"
         style="fill:#000000;fill-opacity:1;stroke-width:0.999998" />
      <path
         d="m -58.818291,280.17566 h 2.113282 q 0.714843,0 1.089843,0.10937 0.503907,0.14844 0.863282,0.52735 0.359375,0.3789 0.546875,0.92969 0.1875,0.54687 0.1875,1.35156 0,0.70703 -0.175782,1.21875 -0.214843,0.625 -0.613281,1.01172 -0.300781,0.29297 -0.8125,0.45703 -0.382812,0.12109 -1.023437,0.12109 h -2.175782 z m 1.15625,0.96875 v 3.79297 h 0.863282 q 0.484375,0 0.699218,-0.0547 0.28125,-0.0703 0.464844,-0.23828 0.1875,-0.16797 0.304688,-0.55078 0.117187,-0.38672 0.117187,-1.05078 0,-0.66407 -0.117187,-1.01953 -0.117188,-0.35547 -0.328125,-0.55469 -0.210938,-0.19922 -0.535157,-0.26953 -0.242187,-0.0547 -0.949218,-0.0547 z"
         id="path1394"
         style="fill:#000000;fill-opacity:1;stroke-width:0.999998" />
      <path
         d="m -53.037041,285.90222 v -5.72656 h 4.246094 v 0.96875 h -3.089844 v 1.26953 h 2.875 v 0.96484 h -2.875 v 1.5586 h 3.199219 v 0.96484 z"
         id="path1396"
         style="fill:#000000;fill-opacity:1;stroke-width:0.999998" />
    </g>
    <g
       aria-label="HIGH AMPLITUDE"
       id="text4916-6"
       style="font-weight:bold;font-size:8px;line-height:1.25;font-family:Arial;-inkscape-font-specification:'Arial, Bold';font-variant-ligatures:none;text-align:center;text-anchor:middle;display:inline;fill:#000000;fill-opacity:1;stroke-width:0.999998"
       transform="matrix(1.0000034,0,0,1,141.13643,2.8360015)">
      <path
         d="m -122.43832,137.90222 v -5.72656 h 1.15625 v 2.25391 h 2.26563 v -2.25391 h 1.15625 v 5.72656 h -1.15625 v -2.5039 h -2.26563 v 2.5039 z"
         id="path1424"
         style="fill:#000000;fill-opacity:1;stroke-width:0.999998" />
      <path
         d="m -116.70004,137.90222 v -5.72656 h 1.15625 v 5.72656 z"
         id="path1426"
         style="fill:#000000;fill-opacity:1;stroke-width:0.999998" />
      <path
         d="m -111.77816,135.79675 v -0.96484 h 2.49219 v 2.28125 q -0.36328,0.35156 -1.05469,0.62109 -0.6875,0.26563 -1.39453,0.26563 -0.89844,0 -1.56641,-0.375 -0.66797,-0.37891 -1.0039,-1.07813 -0.33594,-0.70312 -0.33594,-1.52734 0,-0.89453 0.375,-1.58984 0.375,-0.69532 1.09765,-1.06641 0.55079,-0.28516 1.3711,-0.28516 1.0664,0 1.66406,0.44922 0.60156,0.44531 0.77344,1.23438 l -1.14844,0.21484 q -0.12109,-0.42187 -0.45703,-0.66406 -0.33203,-0.2461 -0.83203,-0.2461 -0.75781,0 -1.20703,0.48047 -0.44532,0.48047 -0.44532,1.42578 0,1.01954 0.45313,1.53125 0.45312,0.50782 1.1875,0.50782 0.36328,0 0.72656,-0.14063 0.36719,-0.14453 0.62891,-0.34765 v -0.72657 z"
         id="path1428"
         style="fill:#000000;fill-opacity:1;stroke-width:0.999998" />
      <path
         d="m -108.21566,137.90222 v -5.72656 h 1.15625 v 2.25391 h 2.26562 v -2.25391 h 1.15625 v 5.72656 h -1.15625 v -2.5039 h -2.26562 v 2.5039 z"
         id="path1430"
         style="fill:#000000;fill-opacity:1;stroke-width:0.999998" />
      <path
         d="m -95.352379,137.90222 h -1.257812 l -0.5,-1.30078 h -2.289063 l -0.472656,1.30078 h -1.22656 l 2.230466,-5.72656 h 1.222656 z m -2.128906,-2.26562 -0.789063,-2.125 -0.773437,2.125 z"
         id="path1432"
         style="fill:#000000;fill-opacity:1;stroke-width:0.999998" />
      <path
         d="m -94.754723,137.90222 v -5.72656 h 1.730469 l 1.039063,3.90625 1.027343,-3.90625 h 1.734375 v 5.72656 h -1.074218 v -4.50781 l -1.136719,4.50781 h -1.113281 l -1.132813,-4.50781 v 4.50781 z"
         id="path1434"
         style="fill:#000000;fill-opacity:1;stroke-width:0.999998" />
      <path
         d="m -88.075035,137.90222 v -5.72656 h 1.855469 q 1.054687,0 1.375,0.0859 0.492187,0.1289 0.824218,0.5625 0.332032,0.42968 0.332032,1.11328 0,0.52734 -0.191407,0.88672 -0.191406,0.35937 -0.488281,0.5664 -0.292969,0.20313 -0.597656,0.26953 -0.414063,0.082 -1.199219,0.082 h -0.753906 v 2.16015 z m 1.15625,-4.75781 v 1.625 h 0.632812 q 0.683594,0 0.914063,-0.0898 0.230469,-0.0899 0.359375,-0.28125 0.132812,-0.19141 0.132812,-0.44532 0,-0.3125 -0.183593,-0.51562 -0.183594,-0.20313 -0.464844,-0.25391 -0.207031,-0.0391 -0.832031,-0.0391 z"
         id="path1436"
         style="fill:#000000;fill-opacity:1;stroke-width:0.999998" />
      <path
         d="m -82.707848,137.90222 v -5.67969 h 1.15625 v 4.71485 h 2.875 v 0.96484 z"
         id="path1438"
         style="fill:#000000;fill-opacity:1;stroke-width:0.999998" />
      <path
         d="m -77.887535,137.90222 v -5.72656 h 1.15625 v 5.72656 z"
         id="path1440"
         style="fill:#000000;fill-opacity:1;stroke-width:0.999998" />
      <path
         d="m -74.34066,137.90222 v -4.75781 h -1.699219 v -0.96875 h 4.550781 v 0.96875 h -1.695312 v 4.75781 z"
         id="path1442"
         style="fill:#000000;fill-opacity:1;stroke-width:0.999998" />
      <path
         d="m -70.750816,132.17566 h 1.15625 v 3.10156 q 0,0.73828 0.04297,0.95703 0.07422,0.35157 0.351563,0.56641 0.28125,0.21094 0.765625,0.21094 0.492187,0 0.742187,-0.19922 0.25,-0.20313 0.300782,-0.4961 0.05078,-0.29296 0.05078,-0.97265 v -3.16797 h 1.15625 v 3.00781 q 0,1.03125 -0.09375,1.45703 -0.09375,0.42578 -0.347656,0.71875 -0.25,0.29297 -0.671875,0.46875 -0.421875,0.17188 -1.101563,0.17188 -0.820312,0 -1.246094,-0.1875 -0.421875,-0.19141 -0.667968,-0.49219 -0.246094,-0.30469 -0.324219,-0.63672 -0.113281,-0.49219 -0.113281,-1.45312 z"
         id="path1444"
         style="fill:#000000;fill-opacity:1;stroke-width:0.999998" />
      <path
         d="m -64.969566,132.17566 h 2.113281 q 0.714844,0 1.089844,0.10937 0.503906,0.14844 0.863281,0.52735 0.359375,0.3789 0.546875,0.92969 0.1875,0.54687 0.1875,1.35156 0,0.70703 -0.175781,1.21875 -0.214844,0.625 -0.613282,1.01172 -0.300781,0.29297 -0.8125,0.45703 -0.382812,0.12109 -1.023437,0.12109 h -2.175781 z m 1.15625,0.96875 v 3.79297 h 0.863281 q 0.484375,0 0.699219,-0.0547 0.28125,-0.0703 0.464843,-0.23828 0.1875,-0.16797 0.304688,-0.55078 0.117187,-0.38672 0.117187,-1.05078 0,-0.66407 -0.117187,-1.01953 -0.117188,-0.35547 -0.328125,-0.55469 -0.210938,-0.19922 -0.535156,-0.26953 -0.242188,-0.0547 -0.949219,-0.0547 z"
         id="path1446"
         style="fill:#000000;fill-opacity:1;stroke-width:0.999998" />
      <path
         d="m -59.188316,137.90222 v -5.72656 h 4.246093 v 0.96875 h -3.089843 v 1.26953 h 2.875 v 0.96484 h -2.875 v 1.5586 h 3.199218 v 0.96484 z"
         id="path1448"
         style="fill:#000000;fill-opacity:1;stroke-width:0.999998" />
    </g>
    <g
       aria-label="INPUT OFFSET"
       id="text4916-6-1"
       style="font-weight:bold;font-size:8px;line-height:1.25;font-family:Arial;-inkscape-font-specification:'Arial, Bold';font-variant-ligatures:none;text-align:center;text-anchor:middle;display:inline;fill:#000000;fill-opacity:1;stroke-width:0.999988"
       transform="matrix(1.0000239,0,0,1,147.29413,0.94505236)">
      <path
         d="m -123.32365,63.900269 v -5.726563 h 1.15625 v 5.726563 z"
         id="path1451"
         style="fill:#000000;fill-opacity:1;stroke-width:0.999988" />
      <path
         d="m -121.05412,63.900269 v -5.726563 h 1.125 l 2.34375,3.824219 v -3.824219 h 1.07422 v 5.726563 h -1.16016 l -2.30859,-3.734375 v 3.734375 z"
         id="path1453"
         style="fill:#000000;fill-opacity:1;stroke-width:0.999988" />
      <path
         d="m -115.2885,63.900269 v -5.726563 h 1.85547 q 1.05469,0 1.375,0.08594 0.49219,0.128906 0.82422,0.5625 0.33203,0.429687 0.33203,1.113281 0,0.527344 -0.19141,0.886719 -0.1914,0.359375 -0.48828,0.566406 -0.29297,0.203125 -0.59765,0.269531 -0.41407,0.08203 -1.19922,0.08203 h -0.75391 v 2.160157 z m 1.15625,-4.757813 v 1.625 h 0.63281 q 0.6836,0 0.91407,-0.08984 0.23047,-0.08984 0.35937,-0.28125 0.13281,-0.191406 0.13281,-0.445312 0,-0.3125 -0.18359,-0.515625 -0.18359,-0.203125 -0.46484,-0.253906 -0.20703,-0.03906 -0.83203,-0.03906 z"
         id="path1455"
         style="fill:#000000;fill-opacity:1;stroke-width:0.999988" />
      <path
         d="m -109.96037,58.173706 h 1.15625 v 3.101563 q 0,0.738281 0.043,0.957031 0.0742,0.351562 0.35156,0.566406 0.28125,0.210938 0.76562,0.210938 0.49219,0 0.74219,-0.199219 0.25,-0.203125 0.30078,-0.496094 0.0508,-0.292969 0.0508,-0.972656 v -3.167969 h 1.15625 v 3.007813 q 0,1.03125 -0.0937,1.457031 -0.0937,0.425781 -0.34765,0.71875 -0.25,0.292969 -0.67188,0.46875 -0.42187,0.171875 -1.10156,0.171875 -0.82031,0 -1.24609,-0.1875 -0.42188,-0.191406 -0.66797,-0.492188 -0.2461,-0.304687 -0.32422,-0.636718 -0.11328,-0.492188 -0.11328,-1.453125 z"
         id="path1457"
         style="fill:#000000;fill-opacity:1;stroke-width:0.999988" />
      <path
         d="m -102.88615,63.900269 v -4.757813 h -1.69922 v -0.96875 h 4.55078 v 0.96875 h -1.69531 v 4.757813 z"
         id="path1459"
         style="fill:#000000;fill-opacity:1;stroke-width:0.999988" />
      <path
         d="m -97.300217,61.072144 q 0,-0.875 0.261719,-1.46875 0.195313,-0.4375 0.53125,-0.785157 0.339844,-0.347656 0.742188,-0.515625 0.535156,-0.226562 1.234375,-0.226562 1.265625,0 2.023437,0.785156 0.761719,0.785156 0.761719,2.183594 0,1.386719 -0.753906,2.171875 -0.753907,0.78125 -2.015625,0.78125 -1.277344,0 -2.03125,-0.777344 -0.753907,-0.78125 -0.753907,-2.148437 z m 1.191407,-0.03906 q 0,0.972656 0.449218,1.476563 0.449219,0.5 1.140625,0.5 0.691407,0 1.132813,-0.496094 0.445312,-0.5 0.445312,-1.496094 0,-0.984375 -0.433593,-1.46875 -0.429688,-0.484375 -1.144532,-0.484375 -0.714843,0 -1.152343,0.492188 -0.4375,0.488281 -0.4375,1.476562 z"
         id="path1461"
         style="fill:#000000;fill-opacity:1;stroke-width:0.999988" />
      <path
         d="m -90.835373,63.900269 v -5.726563 h 3.925781 v 0.96875 h -2.769531 v 1.355469 h 2.390625 v 0.96875 h -2.390625 v 2.433594 z"
         id="path1463"
         style="fill:#000000;fill-opacity:1;stroke-width:0.999988" />
      <path
         d="m -85.948654,63.900269 v -5.726563 h 3.925781 v 0.96875 h -2.769531 v 1.355469 h 2.390625 v 0.96875 h -2.390625 v 2.433594 z"
         id="path1465"
         style="fill:#000000;fill-opacity:1;stroke-width:0.999988" />
      <path
         d="m -81.362717,62.036987 1.125,-0.109375 q 0.101563,0.566407 0.410157,0.832032 0.3125,0.265625 0.839843,0.265625 0.558594,0 0.839844,-0.234375 0.285156,-0.238282 0.285156,-0.554688 0,-0.203125 -0.121093,-0.34375 -0.117188,-0.144531 -0.414063,-0.25 -0.203125,-0.07031 -0.925781,-0.25 -0.929688,-0.230469 -1.304688,-0.566406 -0.527343,-0.472656 -0.527343,-1.152344 0,-0.4375 0.246093,-0.816406 0.25,-0.382813 0.714844,-0.582031 0.46875,-0.199219 1.128906,-0.199219 1.078125,0 1.621094,0.472656 0.546875,0.472656 0.574219,1.261719 l -1.15625,0.05078 q -0.07422,-0.441406 -0.320313,-0.632812 -0.242187,-0.195313 -0.730468,-0.195313 -0.503907,0 -0.789063,0.207031 -0.183594,0.132813 -0.183594,0.355469 0,0.203125 0.171875,0.347656 0.21875,0.183594 1.0625,0.382813 0.84375,0.199219 1.246094,0.414062 0.40625,0.210938 0.632813,0.582032 0.230468,0.367187 0.230468,0.910156 0,0.492187 -0.273437,0.921875 -0.273438,0.429687 -0.773438,0.640625 -0.5,0.207031 -1.246093,0.207031 -1.085938,0 -1.667969,-0.5 -0.582031,-0.503906 -0.695313,-1.464844 z"
         id="path1467"
         style="fill:#000000;fill-opacity:1;stroke-width:0.999988" />
      <path
         d="m -75.73381,63.900269 v -5.726563 h 4.246093 v 0.96875 h -3.089843 v 1.269531 h 2.875 v 0.964844 h -2.875 v 1.558594 h 3.199218 v 0.964844 z"
         id="path1469"
         style="fill:#000000;fill-opacity:1;stroke-width:0.999988" />
      <path
         d="m -69.10881,63.900269 v -4.757813 h -1.699219 v -0.96875 h 4.550781 v 0.96875 h -1.695312 v 4.757813 z"
         id="path1471"
         style="fill:#000000;fill-opacity:1;stroke-width:0.999988" />
    </g>
    <g
       aria-label="OUTPUT OFFSET"
       id="text4916-6-1-0"
       style="font-weight:bold;font-size:8px;line-height:1.25;font-family:Arial;-inkscape-font-specification:'Arial, Bold';font-variant-ligatures:none;text-align:center;text-anchor:middle;display:inline;fill:#000000;fill-opacity:1;stroke-width:0.999988"
       transform="matrix(1.0000239,0,0,1,155.54813,0.94505236)">
      <path
         d="m -136.12042,98.072144 q 0,-0.875 0.26172,-1.46875 0.19531,-0.4375 0.53125,-0.785157 0.33984,-0.347656 0.74218,-0.515625 0.53516,-0.226562 1.23438,-0.226562 1.26562,0 2.02344,0.785156 0.76172,0.785156 0.76172,2.183594 0,1.386719 -0.75391,2.17187 -0.75391,0.78125 -2.01563,0.78125 -1.27734,0 -2.03125,-0.77734 -0.7539,-0.781249 -0.7539,-2.148436 z m 1.1914,-0.03906 q 0,0.972656 0.44922,1.476563 0.44922,0.499993 1.14063,0.499993 0.6914,0 1.13281,-0.496087 0.44531,-0.5 0.44531,-1.496094 0,-0.984375 -0.43359,-1.46875 -0.42969,-0.484375 -1.14453,-0.484375 -0.71485,0 -1.15235,0.492188 -0.4375,0.488281 -0.4375,1.476562 z"
         id="path1474"
         style="fill:#000000;fill-opacity:1;stroke-width:0.999988" />
      <path
         d="m -129.6712,95.173706 h 1.15625 v 3.101563 q 0,0.738281 0.043,0.957031 0.0742,0.351562 0.35156,0.566406 0.28125,0.210934 0.76562,0.210934 0.49219,0 0.74219,-0.199215 0.25,-0.203125 0.30078,-0.496094 0.0508,-0.292969 0.0508,-0.972656 v -3.167969 h 1.15625 v 3.007813 q 0,1.03125 -0.0937,1.457031 -0.0937,0.42578 -0.34765,0.71875 -0.25,0.29297 -0.67188,0.46875 -0.42187,0.17187 -1.10156,0.17187 -0.82031,0 -1.24609,-0.1875 -0.42188,-0.1914 -0.66797,-0.49218 -0.2461,-0.30469 -0.32422,-0.636721 -0.11328,-0.492188 -0.11328,-1.453125 z"
         id="path1476"
         style="fill:#000000;fill-opacity:1;stroke-width:0.999988" />
      <path
         d="m -122.59698,100.90027 v -4.757814 h -1.69922 v -0.96875 h 4.55078 v 0.96875 h -1.69531 v 4.757814 z"
         id="path1478"
         style="fill:#000000;fill-opacity:1;stroke-width:0.999988" />
      <path
         d="m -118.99933,100.90027 v -5.726564 h 1.85547 q 1.05469,0 1.375,0.08594 0.49219,0.128906 0.82422,0.5625 0.33203,0.429687 0.33203,1.113281 0,0.527344 -0.19141,0.886719 -0.1914,0.359375 -0.48828,0.566406 -0.29297,0.203125 -0.59765,0.269531 -0.41407,0.08203 -1.19922,0.08203 h -0.75391 v 2.160157 z m 1.15625,-4.757814 v 1.625 h 0.63281 q 0.6836,0 0.91407,-0.08984 0.23047,-0.08984 0.35937,-0.28125 0.13281,-0.191406 0.13281,-0.445312 0,-0.3125 -0.18359,-0.515625 -0.18359,-0.203125 -0.46484,-0.253906 -0.20703,-0.03906 -0.83203,-0.03906 z"
         id="path1480"
         style="fill:#000000;fill-opacity:1;stroke-width:0.999988" />
      <path
         d="m -113.6712,95.173706 h 1.15625 v 3.101563 q 0,0.738281 0.043,0.957031 0.0742,0.351562 0.35156,0.566406 0.28125,0.210934 0.76562,0.210934 0.49219,0 0.74219,-0.199215 0.25,-0.203125 0.30078,-0.496094 0.0508,-0.292969 0.0508,-0.972656 v -3.167969 h 1.15625 v 3.007813 q 0,1.03125 -0.0937,1.457031 -0.0937,0.42578 -0.34765,0.71875 -0.25,0.29297 -0.67188,0.46875 -0.42187,0.17187 -1.10156,0.17187 -0.82031,0 -1.24609,-0.1875 -0.42188,-0.1914 -0.66797,-0.49218 -0.2461,-0.30469 -0.32422,-0.636721 -0.11328,-0.492188 -0.11328,-1.453125 z"
         id="path1482"
         style="fill:#000000;fill-opacity:1;stroke-width:0.999988" />
      <path
         d="m -106.59698,100.90027 v -4.757814 h -1.69922 v -0.96875 h 4.55078 v 0.96875 h -1.69531 v 4.757814 z"
         id="path1484"
         style="fill:#000000;fill-opacity:1;stroke-width:0.999988" />
      <path
         d="m -101.01105,98.072144 q 0,-0.875 0.26172,-1.46875 0.19531,-0.4375 0.53125,-0.785157 0.339845,-0.347656 0.742189,-0.515625 0.535156,-0.226562 1.234375,-0.226562 1.265625,0 2.023437,0.785156 0.761719,0.785156 0.761719,2.183594 0,1.386719 -0.753906,2.17187 -0.753906,0.78125 -2.015625,0.78125 -1.277344,0 -2.031249,-0.77734 -0.75391,-0.781249 -0.75391,-2.148436 z m 1.191409,-0.03906 q 0,0.972656 0.449219,1.476563 0.449218,0.499993 1.140625,0.499993 0.691406,0 1.132812,-0.496087 0.445313,-0.5 0.445313,-1.496094 0,-0.984375 -0.433594,-1.46875 -0.429688,-0.484375 -1.144531,-0.484375 -0.714844,0 -1.152344,0.492188 -0.4375,0.488281 -0.4375,1.476562 z"
         id="path1486"
         style="fill:#000000;fill-opacity:1;stroke-width:0.999988" />
      <path
         d="m -94.546204,100.90027 v -5.726564 h 3.925782 v 0.96875 h -2.769532 v 1.355469 h 2.390625 v 0.96875 h -2.390625 v 2.433595 z"
         id="path1488"
         style="fill:#000000;fill-opacity:1;stroke-width:0.999988" />
      <path
         d="m -89.659485,100.90027 v -5.726564 h 3.925781 v 0.96875 h -2.769531 v 1.355469 h 2.390625 v 0.96875 h -2.390625 v 2.433595 z"
         id="path1490"
         style="fill:#000000;fill-opacity:1;stroke-width:0.999988" />
      <path
         d="m -85.073547,99.036987 1.125,-0.109375 q 0.101562,0.566407 0.410156,0.832032 0.3125,0.265626 0.839844,0.265626 0.558593,0 0.839843,-0.234376 0.285157,-0.238282 0.285157,-0.554688 0,-0.203125 -0.121094,-0.34375 -0.117188,-0.144531 -0.414063,-0.25 -0.203125,-0.07031 -0.925781,-0.25 -0.929687,-0.230469 -1.304687,-0.566406 -0.527344,-0.472656 -0.527344,-1.152344 0,-0.4375 0.246094,-0.816406 0.25,-0.382813 0.714843,-0.582031 0.46875,-0.199219 1.128907,-0.199219 1.078125,0 1.621093,0.472656 0.546875,0.472656 0.574219,1.261719 l -1.15625,0.05078 q -0.07422,-0.441406 -0.320312,-0.632812 -0.242188,-0.195313 -0.730469,-0.195313 -0.503906,0 -0.789063,0.207031 -0.183593,0.132813 -0.183593,0.355469 0,0.203125 0.171875,0.347656 0.21875,0.183594 1.0625,0.382813 0.84375,0.199219 1.246093,0.414062 0.40625,0.210938 0.632813,0.582032 0.230469,0.367187 0.230469,0.910156 0,0.492187 -0.273438,0.921871 -0.273437,0.42969 -0.773437,0.64063 -0.5,0.20703 -1.246094,0.20703 -1.085938,0 -1.667969,-0.5 -0.582031,-0.503906 -0.695312,-1.464843 z"
         id="path1492"
         style="fill:#000000;fill-opacity:1;stroke-width:0.999988" />
      <path
         d="m -79.444641,100.90027 v -5.726564 h 4.246094 v 0.96875 h -3.089844 v 1.269531 h 2.875 v 0.964844 h -2.875 v 1.558594 h 3.199219 v 0.964845 z"
         id="path1494"
         style="fill:#000000;fill-opacity:1;stroke-width:0.999988" />
      <path
         d="m -72.819641,100.90027 v -4.757814 h -1.699219 v -0.96875 h 4.550781 v 0.96875 h -1.695312 v 4.757814 z"
         id="path1496"
         style="fill:#000000;fill-opacity:1;stroke-width:0.999988" />
    </g>
    <g
       aria-label="LOW THRESHOLD"
       id="text4916-1"
       style="font-weight:bold;font-size:8px;line-height:1.25;font-family:Arial;-inkscape-font-specification:'Arial, Bold';font-variant-ligatures:none;text-align:center;text-anchor:middle;display:inline;fill:#000000;fill-opacity:1;stroke-width:0.999998"
       transform="matrix(1.0000034,0,0,1,131.27584,2.8360273)">
      <path
         d="m -113.59924,248.90027 v -5.67969 h 1.15625 v 4.71484 h 2.875 v 0.96485 z"
         id="path1499"
         style="fill:#000000;fill-opacity:1;stroke-width:0.999998" />
      <path
         d="m -108.97815,246.07214 q 0,-0.875 0.26172,-1.46875 0.19531,-0.4375 0.53125,-0.78515 0.33984,-0.34766 0.74219,-0.51563 0.53515,-0.22656 1.23437,-0.22656 1.26563,0 2.02344,0.78516 0.76172,0.78515 0.76172,2.18359 0,1.38672 -0.75391,2.17187 -0.7539,0.78125 -2.01562,0.78125 -1.27735,0 -2.03125,-0.77734 -0.75391,-0.78125 -0.75391,-2.14844 z m 1.19141,-0.0391 q 0,0.97266 0.44922,1.47656 0.44921,0.5 1.14062,0.5 0.69141,0 1.13281,-0.49609 0.44532,-0.5 0.44532,-1.49609 0,-0.98438 -0.4336,-1.46875 -0.42969,-0.48438 -1.14453,-0.48438 -0.71484,0 -1.15234,0.49219 -0.4375,0.48828 -0.4375,1.47656 z"
         id="path1501"
         style="fill:#000000;fill-opacity:1;stroke-width:0.999998" />
      <path
         d="m -101.70862,248.90027 -1.36719,-5.72656 h 1.1836 l 0.86328,3.93359 1.046874,-3.93359 h 1.375 l 1.003907,4 0.878906,-4 h 1.164062 l -1.390625,5.72656 h -1.226562 l -1.140625,-4.28125 -1.136717,4.28125 z"
         id="path1503"
         style="fill:#000000;fill-opacity:1;stroke-width:0.999998" />
      <path
         d="m -91.458618,248.90027 v -4.75781 h -1.699219 v -0.96875 h 4.550781 v 0.96875 h -1.695312 v 4.75781 z"
         id="path1505"
         style="fill:#000000;fill-opacity:1;stroke-width:0.999998" />
      <path
         d="m -87.857056,248.90027 v -5.72656 h 1.15625 v 2.2539 h 2.265625 v -2.2539 h 1.15625 v 5.72656 h -1.15625 v -2.50391 h -2.265625 v 2.50391 z"
         id="path1507"
         style="fill:#000000;fill-opacity:1;stroke-width:0.999998" />
      <path
         d="m -82.079712,248.90027 v -5.72656 h 2.433594 q 0.917969,0 1.332031,0.15625 0.417969,0.15234 0.667969,0.54687 0.25,0.39453 0.25,0.90234 0,0.64454 -0.378906,1.06641 -0.378907,0.41797 -1.132813,0.52734 0.375,0.21875 0.617188,0.48047 0.246093,0.26172 0.660156,0.92969 l 0.699219,1.11719 h -1.382813 l -0.835937,-1.2461 q -0.445313,-0.66796 -0.609375,-0.83984 -0.164063,-0.17578 -0.347657,-0.23828 -0.183593,-0.0664 -0.582031,-0.0664 h -0.234375 v 2.39063 z m 1.15625,-3.30469 h 0.855469 q 0.832031,0 1.039062,-0.0703 0.207032,-0.0703 0.324219,-0.24219 0.117188,-0.17187 0.117188,-0.42969 0,-0.28906 -0.15625,-0.46484 -0.152344,-0.17969 -0.433594,-0.22656 -0.140625,-0.0195 -0.84375,-0.0195 h -0.902344 z"
         id="path1509"
         style="fill:#000000;fill-opacity:1;stroke-width:0.999998" />
      <path
         d="m -76.306274,248.90027 v -5.72656 h 4.246093 v 0.96875 h -3.089843 v 1.26953 h 2.875 v 0.96484 h -2.875 v 1.55859 h 3.199218 v 0.96485 z"
         id="path1511"
         style="fill:#000000;fill-opacity:1;stroke-width:0.999998" />
      <path
         d="m -71.263306,247.03699 1.125,-0.10938 q 0.101563,0.56641 0.410157,0.83203 0.3125,0.26563 0.839843,0.26563 0.558594,0 0.839844,-0.23438 0.285156,-0.23828 0.285156,-0.55468 0,-0.20313 -0.121093,-0.34375 -0.117188,-0.14454 -0.414063,-0.25 -0.203125,-0.0703 -0.925781,-0.25 -0.929688,-0.23047 -1.304688,-0.56641 -0.527343,-0.47266 -0.527343,-1.15234 0,-0.4375 0.246093,-0.81641 0.25,-0.38281 0.714844,-0.58203 0.46875,-0.19922 1.128906,-0.19922 1.078125,0 1.621094,0.47266 0.546875,0.47265 0.574219,1.26171 l -1.15625,0.0508 q -0.07422,-0.44141 -0.320313,-0.63282 -0.242187,-0.19531 -0.730468,-0.19531 -0.503907,0 -0.789063,0.20703 -0.183594,0.13281 -0.183594,0.35547 0,0.20313 0.171875,0.34766 0.21875,0.18359 1.0625,0.38281 0.84375,0.19922 1.246094,0.41406 0.40625,0.21094 0.632813,0.58203 0.230468,0.36719 0.230468,0.91016 0,0.49219 -0.273437,0.92187 -0.273438,0.42969 -0.773438,0.64063 -0.5,0.20703 -1.246093,0.20703 -1.085938,0 -1.667969,-0.5 -0.582031,-0.50391 -0.695313,-1.46484 z"
         id="path1513"
         style="fill:#000000;fill-opacity:1;stroke-width:0.999998" />
      <path
         d="m -65.630493,248.90027 v -5.72656 h 1.15625 v 2.2539 h 2.265625 v -2.2539 h 1.15625 v 5.72656 h -1.15625 v -2.50391 h -2.265625 v 2.50391 z"
         id="path1515"
         style="fill:#000000;fill-opacity:1;stroke-width:0.999998" />
      <path
         d="m -60.091431,246.07214 q 0,-0.875 0.261719,-1.46875 0.195313,-0.4375 0.53125,-0.78515 0.339844,-0.34766 0.742188,-0.51563 0.535156,-0.22656 1.234375,-0.22656 1.265625,0 2.023437,0.78516 0.761719,0.78515 0.761719,2.18359 0,1.38672 -0.753906,2.17187 -0.753907,0.78125 -2.015625,0.78125 -1.277344,0 -2.03125,-0.77734 -0.753907,-0.78125 -0.753907,-2.14844 z m 1.191407,-0.0391 q 0,0.97266 0.449218,1.47656 0.449219,0.5 1.140625,0.5 0.691407,0 1.132813,-0.49609 0.445312,-0.5 0.445312,-1.49609 0,-0.98438 -0.433593,-1.46875 -0.429688,-0.48438 -1.144532,-0.48438 -0.714843,0 -1.152343,0.49219 -0.4375,0.48828 -0.4375,1.47656 z"
         id="path1517"
         style="fill:#000000;fill-opacity:1;stroke-width:0.999998" />
      <path
         d="m -53.603149,248.90027 v -5.67969 h 1.15625 v 4.71484 h 2.875 v 0.96485 z"
         id="path1519"
         style="fill:#000000;fill-opacity:1;stroke-width:0.999998" />
      <path
         d="m -48.751587,243.17371 h 2.113281 q 0.714844,0 1.089844,0.10937 0.503906,0.14844 0.863281,0.52734 0.359375,0.37891 0.546875,0.92969 0.1875,0.54688 0.1875,1.35156 0,0.70704 -0.175781,1.21875 -0.214844,0.625 -0.613281,1.01172 -0.300781,0.29297 -0.8125,0.45703 -0.382813,0.1211 -1.023438,0.1211 h -2.175781 z m 1.15625,0.96875 v 3.79296 h 0.863281 q 0.484375,0 0.699219,-0.0547 0.28125,-0.0703 0.464844,-0.23828 0.1875,-0.16797 0.304687,-0.55079 0.117188,-0.38671 0.117188,-1.05078 0,-0.66406 -0.117188,-1.01953 -0.117187,-0.35547 -0.328125,-0.55469 -0.210937,-0.19921 -0.535156,-0.26953 -0.242187,-0.0547 -0.949219,-0.0547 z"
         id="path1521"
         style="fill:#000000;fill-opacity:1;stroke-width:0.999998" />
    </g>
    <g
       aria-label="HIGH THRESHOLD"
       id="text4916-1-4"
       style="font-weight:bold;font-size:8px;line-height:1.25;font-family:Arial;-inkscape-font-specification:'Arial, Bold';font-variant-ligatures:none;text-align:center;text-anchor:middle;display:inline;fill:#000000;fill-opacity:1;stroke-width:0.999998"
       transform="matrix(1.0000034,0,0,1,144.26954,2.8360273)">
      <path
         d="m -127.27649,174.90027 v -5.72656 h 1.15625 v 2.2539 h 2.26563 v -2.2539 h 1.15625 v 5.72656 h -1.15625 v -2.50391 h -2.26563 v 2.50391 z"
         id="path1524"
         style="fill:#000000;fill-opacity:1;stroke-width:0.999998" />
      <path
         d="m -121.53821,174.90027 v -5.72656 h 1.15625 v 5.72656 z"
         id="path1526"
         style="fill:#000000;fill-opacity:1;stroke-width:0.999998" />
      <path
         d="m -116.61633,172.7948 v -0.96484 h 2.49218 v 2.28125 q -0.36328,0.35156 -1.05468,0.62109 -0.6875,0.26562 -1.39453,0.26562 -0.89844,0 -1.56641,-0.375 -0.66797,-0.3789 -1.00391,-1.07812 -0.33593,-0.70313 -0.33593,-1.52734 0,-0.89454 0.375,-1.58985 0.375,-0.69531 1.09765,-1.0664 0.55078,-0.28516 1.3711,-0.28516 1.0664,0 1.66406,0.44922 0.60156,0.44531 0.77344,1.23437 l -1.14844,0.21485 q -0.1211,-0.42188 -0.45703,-0.66407 -0.33203,-0.24609 -0.83203,-0.24609 -0.75782,0 -1.20704,0.48047 -0.44531,0.48047 -0.44531,1.42578 0,1.01953 0.45313,1.53125 0.45312,0.50781 1.1875,0.50781 0.36328,0 0.72656,-0.14062 0.36719,-0.14453 0.62891,-0.34766 v -0.72656 z"
         id="path1528"
         style="fill:#000000;fill-opacity:1;stroke-width:0.999998" />
      <path
         d="m -113.05383,174.90027 v -5.72656 h 1.15625 v 2.2539 h 2.26562 v -2.2539 h 1.15625 v 5.72656 h -1.15625 v -2.50391 h -2.26562 v 2.50391 z"
         id="path1530"
         style="fill:#000000;fill-opacity:1;stroke-width:0.999998" />
      <path
         d="m -103.76868,174.90027 v -4.75781 h -1.69922 v -0.96875 h 4.55079 v 0.96875 h -1.69532 v 4.75781 z"
         id="path1532"
         style="fill:#000000;fill-opacity:1;stroke-width:0.999998" />
      <path
         d="m -100.16711,174.90027 v -5.72656 h 1.156246 v 2.2539 h 2.265625 v -2.2539 h 1.15625 v 5.72656 h -1.15625 v -2.50391 h -2.265625 v 2.50391 z"
         id="path1534"
         style="fill:#000000;fill-opacity:1;stroke-width:0.999998" />
      <path
         d="m -94.389771,174.90027 v -5.72656 h 2.433594 q 0.917969,0 1.332031,0.15625 0.417969,0.15234 0.667969,0.54687 0.25,0.39453 0.25,0.90234 0,0.64454 -0.378906,1.06641 -0.378906,0.41797 -1.132813,0.52734 0.375,0.21875 0.617188,0.48047 0.246094,0.26172 0.660156,0.92969 l 0.699219,1.11719 h -1.382813 l -0.835937,-1.2461 q -0.445313,-0.66796 -0.609375,-0.83984 -0.164063,-0.17578 -0.347656,-0.23828 -0.183594,-0.0664 -0.582032,-0.0664 h -0.234375 v 2.39063 z m 1.15625,-3.30469 h 0.855469 q 0.832031,0 1.039063,-0.0703 0.207031,-0.0703 0.324218,-0.24219 0.117188,-0.17187 0.117188,-0.42969 0,-0.28906 -0.15625,-0.46484 -0.152344,-0.17969 -0.433594,-0.22656 -0.140625,-0.0195 -0.84375,-0.0195 h -0.902344 z"
         id="path1536"
         style="fill:#000000;fill-opacity:1;stroke-width:0.999998" />
      <path
         d="m -88.616333,174.90027 v -5.72656 h 4.246094 v 0.96875 h -3.089844 v 1.26953 h 2.875 v 0.96484 h -2.875 v 1.55859 h 3.199219 v 0.96485 z"
         id="path1538"
         style="fill:#000000;fill-opacity:1;stroke-width:0.999998" />
      <path
         d="m -83.573364,173.03699 1.125,-0.10938 q 0.101562,0.56641 0.410156,0.83203 0.3125,0.26563 0.839844,0.26563 0.558593,0 0.839843,-0.23438 0.285157,-0.23828 0.285157,-0.55468 0,-0.20313 -0.121094,-0.34375 -0.117188,-0.14454 -0.414063,-0.25 -0.203125,-0.0703 -0.925781,-0.25 -0.929687,-0.23047 -1.304687,-0.56641 -0.527344,-0.47266 -0.527344,-1.15234 0,-0.4375 0.246094,-0.81641 0.25,-0.38281 0.714843,-0.58203 0.46875,-0.19922 1.128907,-0.19922 1.078125,0 1.621093,0.47266 0.546875,0.47265 0.574219,1.26171 l -1.15625,0.0508 q -0.07422,-0.44141 -0.320312,-0.63282 -0.242188,-0.19531 -0.730469,-0.19531 -0.503906,0 -0.789063,0.20703 -0.183593,0.13281 -0.183593,0.35547 0,0.20313 0.171875,0.34766 0.21875,0.18359 1.0625,0.38281 0.84375,0.19922 1.246093,0.41406 0.40625,0.21094 0.632813,0.58203 0.230469,0.36719 0.230469,0.91016 0,0.49219 -0.273438,0.92187 -0.273437,0.42969 -0.773437,0.64063 -0.5,0.20703 -1.246094,0.20703 -1.085938,0 -1.667969,-0.5 -0.582031,-0.50391 -0.695312,-1.46484 z"
         id="path1540"
         style="fill:#000000;fill-opacity:1;stroke-width:0.999998" />
      <path
         d="m -77.940552,174.90027 v -5.72656 h 1.15625 v 2.2539 h 2.265625 v -2.2539 h 1.15625 v 5.72656 h -1.15625 v -2.50391 h -2.265625 v 2.50391 z"
         id="path1542"
         style="fill:#000000;fill-opacity:1;stroke-width:0.999998" />
      <path
         d="m -72.401489,172.07214 q 0,-0.875 0.261718,-1.46875 0.195313,-0.4375 0.53125,-0.78515 0.339844,-0.34766 0.742188,-0.51563 0.535156,-0.22656 1.234375,-0.22656 1.265625,0 2.023437,0.78516 0.761719,0.78515 0.761719,2.18359 0,1.38672 -0.753906,2.17187 -0.753906,0.78125 -2.015625,0.78125 -1.277344,0 -2.03125,-0.77734 -0.753906,-0.78125 -0.753906,-2.14844 z m 1.191406,-0.0391 q 0,0.97266 0.449219,1.47656 0.449218,0.5 1.140625,0.5 0.691406,0 1.132812,-0.49609 0.445313,-0.5 0.445313,-1.49609 0,-0.98438 -0.433594,-1.46875 -0.429688,-0.48438 -1.144531,-0.48438 -0.714844,0 -1.152344,0.49219 -0.4375,0.48828 -0.4375,1.47656 z"
         id="path1544"
         style="fill:#000000;fill-opacity:1;stroke-width:0.999998" />
      <path
         d="m -65.913208,174.90027 v -5.67969 h 1.15625 v 4.71484 h 2.875 v 0.96485 z"
         id="path1546"
         style="fill:#000000;fill-opacity:1;stroke-width:0.999998" />
      <path
         d="m -61.061646,169.17371 h 2.113282 q 0.714843,0 1.089843,0.10937 0.503907,0.14844 0.863282,0.52734 0.359375,0.37891 0.546875,0.92969 0.1875,0.54688 0.1875,1.35156 0,0.70704 -0.175782,1.21875 -0.214843,0.625 -0.613281,1.01172 -0.300781,0.29297 -0.8125,0.45703 -0.382812,0.1211 -1.023437,0.1211 h -2.175782 z m 1.15625,0.96875 v 3.79296 h 0.863282 q 0.484375,0 0.699218,-0.0547 0.28125,-0.0703 0.464844,-0.23828 0.1875,-0.16797 0.304688,-0.55079 0.117187,-0.38671 0.117187,-1.05078 0,-0.66406 -0.117187,-1.01953 -0.117188,-0.35547 -0.328125,-0.55469 -0.210938,-0.19921 -0.535157,-0.26953 -0.242187,-0.0547 -0.949218,-0.0547 z"
         id="path1548"
         style="fill:#000000;fill-opacity:1;stroke-width:0.999998" />
    </g>
    <g
       aria-label="CLIP"
       id="text3300"
       style="font-weight:bold;font-size:8px;line-height:1.25;font-family:Arial;-inkscape-font-specification:'Arial, Bold';font-variant-ligatures:none;text-align:center;text-anchor:middle;fill:#000000;fill-opacity:1"
       transform="translate(176.54361)">
      <path
         d="m -106.9147,23.714933 1.12109,0.355469 q -0.25781,0.9375 -0.85937,1.394531 -0.59766,0.453125 -1.51954,0.453125 -1.14062,0 -1.875,-0.777343 -0.73437,-0.78125 -0.73437,-2.132813 0,-1.429687 0.73828,-2.21875 0.73828,-0.792969 1.94141,-0.792969 1.05078,0 1.70703,0.621094 0.39062,0.367188 0.58594,1.054688 l -1.14454,0.273437 q -0.10156,-0.445312 -0.42578,-0.703125 -0.32031,-0.257812 -0.78125,-0.257812 -0.63672,0 -1.03515,0.457031 -0.39453,0.457031 -0.39453,1.480469 0,1.085937 0.39062,1.546875 0.39063,0.460937 1.01563,0.460937 0.46093,0 0.79296,-0.292969 0.33204,-0.292968 0.47657,-0.921875 z"
         id="path1092"
         style="fill:#000000;fill-opacity:1" />
      <path
         d="m -104.77017,25.820402 v -5.679687 h 1.15625 v 4.714843 h 2.875 v 0.964844 z"
         id="path1094"
         style="fill:#000000;fill-opacity:1" />
      <path
         d="M -99.94986,25.820402 V 20.09384 h 1.15625 v 5.726562 z"
         id="path1096"
         style="fill:#000000;fill-opacity:1" />
      <path
         d="M -97.692047,25.820402 V 20.09384 h 1.855469 q 1.054687,0 1.375,0.08594 0.492187,0.128906 0.824218,0.5625 0.332032,0.429688 0.332032,1.113281 0,0.527344 -0.191407,0.886719 -0.191406,0.359375 -0.488281,0.566406 -0.292969,0.203125 -0.597656,0.269532 -0.414063,0.08203 -1.199219,0.08203 h -0.753906 v 2.160156 z m 1.15625,-4.757812 v 1.625 h 0.632812 q 0.683594,0 0.914063,-0.08984 0.230469,-0.08984 0.359375,-0.28125 0.132812,-0.191406 0.132812,-0.445313 0,-0.3125 -0.183593,-0.515625 -0.183594,-0.203125 -0.464844,-0.253906 -0.207031,-0.03906 -0.832031,-0.03906 z"
         id="path1098"
         style="fill:#000000;fill-opacity:1" />
    </g>
    <g
       aria-label="WAVE MANGLER"
       id="text3147"
       style="font-weight:bold;font-size:10.6667px;line-height:1.25;font-family:Arial;-inkscape-font-specification:'Arial, Bold';font-variant-ligatures:none;text-align:center;text-anchor:middle;display:inline;fill:#000000;fill-opacity:1"
       transform="translate(103.98274,-4.475854)">
      <path
         d="m -93.36569,18.351002 -1.822922,-7.635441 h 1.57813 l 1.151045,5.244808 1.395838,-5.244808 h 1.833339 l 1.338546,5.33335 1.171879,-5.33335 h 1.552088 l -1.854173,7.635441 h -1.635421 l -1.520839,-5.708352 -1.515629,5.708352 z"
         id="path6949"
         style="fill:#000000;fill-opacity:1" />
      <path
         d="m -78.084391,18.351002 h -1.677089 l -0.666669,-1.734381 h -3.052093 l -0.63021,1.734381 h -1.635422 l 2.973968,-7.635441 h 1.630213 z m -2.838551,-3.020843 -1.052087,-2.833342 -1.031253,2.833342 z"
         id="path6951"
         style="fill:#000000;fill-opacity:1" />
      <path
         d="m -76.110427,18.351002 -2.729175,-7.635441 h 1.67188 l 1.932298,5.651059 1.869797,-5.651059 h 1.635422 l -2.734384,7.635441 z"
         id="path6953"
         style="fill:#000000;fill-opacity:1" />
      <path
         d="m -70.943743,18.351002 v -7.635441 h 5.661476 v 1.291671 h -4.119805 v 1.692713 h 3.833346 v 1.286463 h -3.833346 v 2.078131 h 4.265639 v 1.286463 z"
         id="path6955"
         style="fill:#000000;fill-opacity:1" />
      <path
         d="m -60.886421,18.351002 v -7.635441 h 2.307299 l 1.385421,5.20835 1.369796,-5.20835 h 2.312507 v 7.635441 h -1.432296 v -6.010436 l -1.51563,6.010436 h -1.484379 l -1.510422,-6.010436 v 6.010436 z"
         id="path6957"
         style="fill:#000000;fill-opacity:1" />
      <path
         d="m -45.094705,18.351002 h -1.677088 l -0.666669,-1.734381 h -3.052093 l -0.63021,1.734381 h -1.635422 l 2.973968,-7.635441 h 1.630213 z m -2.83855,-3.020843 -1.052087,-2.833342 -1.031253,2.833342 z"
         id="path6959"
         style="fill:#000000;fill-opacity:1" />
      <path
         d="m -44.261366,18.351002 v -7.635441 h 1.500005 l 3.125009,5.098974 v -5.098974 h 1.432297 v 7.635441 h -1.54688 l -3.078135,-4.979183 v 4.979183 z"
         id="path6961"
         style="fill:#000000;fill-opacity:1" />
      <path
         d="m -33.021749,15.543701 v -1.286462 h 3.322927 v 3.041676 q -0.484376,0.468752 -1.406254,0.828128 -0.91667,0.354167 -1.859381,0.354167 -1.19792,0 -2.088548,-0.500001 -0.890628,-0.50521 -1.338546,-1.437505 -0.447918,-0.937503 -0.447918,-2.036464 0,-1.192713 0.500001,-2.119799 0.500002,-0.927086 1.463547,-1.421879 0.734377,-0.38021 1.82813,-0.38021 1.42188,0 2.218757,0.59896 0.802086,0.593752 1.031254,1.645839 l -1.531255,0.286459 q -0.161459,-0.562502 -0.609377,-0.885419 -0.44271,-0.328126 -1.109379,-0.328126 -1.010419,0 -1.60938,0.640627 -0.593751,0.640627 -0.593751,1.901047 0,1.35938 0.604168,2.041674 0.604169,0.677085 1.583338,0.677085 0.484377,0 0.968753,-0.187501 0.489585,-0.192709 0.838545,-0.463543 v -0.968753 z"
         id="path6963"
         style="fill:#000000;fill-opacity:1" />
      <path
         d="m -28.235279,18.351002 v -7.572941 h 1.541672 v 6.286478 h 3.833345 v 1.286463 z"
         id="path6965"
         style="fill:#000000;fill-opacity:1" />
      <path
         d="m -21.761298,18.351002 v -7.635441 h 5.661477 v 1.291671 h -4.119805 v 1.692713 h 3.833345 v 1.286463 h -3.833345 v 2.078131 h 4.265638 v 1.286463 z"
         id="path6967"
         style="fill:#000000;fill-opacity:1" />
      <path
         d="m -14.64148,18.351002 v -7.635441 h 3.244801 q 1.223963,0 1.7760477,0.208334 0.5572935,0.203126 0.8906279,0.729169 0.3333343,0.526043 0.3333343,1.203129 0,0.859377 -0.5052099,1.421879 -0.5052099,0.557294 -1.510421,0.703127 0.5000012,0.291668 0.8229188,0.640627 0.3281261,0.34896 0.8802112,1.239588 l 0.9322946,1.489588 h -1.8437559 l -1.1145867,-1.661464 q -0.593752,-0.890628 -0.812503,-1.119795 -0.21875,-0.234376 -0.463543,-0.317709 -0.244792,-0.08854 -0.776044,-0.08854 h -0.312501 v 3.18751 z m 1.541671,-4.406264 h 1.140629 q 1.109378,0 1.385421,-0.09375 0.276042,-0.09375 0.432293,-0.322918 0.1562503,-0.229168 0.1562503,-0.572919 0,-0.385418 -0.2083343,-0.619793 -0.203125,-0.239584 -0.578127,-0.302085 -0.1875,-0.02604 -1.125003,-0.02604 h -1.203129 z"
         id="path6969"
         style="fill:#000000;fill-opacity:1" />
    </g>
  </g>
  <g
     inkscape:groupmode="layer"
     id="layer5"
     inkscape:label="Alt Solid"
     style="display:inline">
    <path
       style="color:#000000;display:inline;fill:#f2f2f2;fill-opacity:1;stroke-width:1;-inkscape-stroke:none"
       d="m -1.25e-6,130.38194 v 0.65 H 105 v -0.65 z"
       id="path78542-6-1-7" />
    <path
       style="color:#000000;display:inline;fill:#f2f2f2;fill-opacity:1;stroke-width:1;-inkscape-stroke:none"
       d="m 0,191.06584 v 0.65 h 5 v -0.65 z"
       id="path78542-6-1-7-5" />
    <path
       style="color:#000000;display:inline;fill:#f2f2f2;fill-opacity:1;stroke-width:1;-inkscape-stroke:none"
       d="m 99.999999,191.06584 v 0.65 H 105 v -0.65 z"
       id="path78542-6-1-7-5-0" />
    <path
       style="color:#000000;display:inline;fill:#f2f2f2;fill-opacity:1;stroke-width:1;-inkscape-stroke:none"
       d="m 99.999994,265.06584 v 0.65 H 105 v -0.65 z"
       id="path78542-6-1-7-5-1" />
    <path
       style="color:#000000;display:inline;fill:#f2f2f2;fill-opacity:1;stroke-width:1;-inkscape-stroke:none"
       d="m 0,265.06584 v 0.65 h 5 v -0.65 z"
       id="path78542-6-1-7-5-7" />
    <path
       style="color:#000000;display:inline;fill:#f2f2f2;fill-opacity:1;stroke-width:1;-inkscape-stroke:none"
       d="m -1.2e-6,317.01035 v 0.65 H 105 v -0.65 z"
       id="path78542-6-1-7-2" />
  </g>
  <g
     inkscape:groupmode="layer"
     id="layer2"
     inkscape:label="Reverse Solid"
     style="display:inline">
    <g
       aria-label="OUT"
       id="text33436-1"
       style="font-weight:bold;font-size:8px;line-height:1.25;font-family:Arial;-inkscape-font-specification:'Arial, Bold';font-variant-ligatures:none;text-align:center;text-anchor:middle;fill:#f2f2f2;fill-opacity:1"
       transform="translate(-55.06445,4.779873)">
      <path
         d="m 119.37695,323.07422 q 0,-0.875 0.26172,-1.46875 0.19531,-0.4375 0.53125,-0.78516 0.33985,-0.34765 0.74219,-0.51562 0.53516,-0.22657 1.23437,-0.22657 1.26563,0 2.02344,0.78516 0.76172,0.78516 0.76172,2.18359 0,1.38672 -0.75391,2.17188 Q 123.42383,326 122.16211,326 q -1.27734,0 -2.03125,-0.77734 -0.75391,-0.78125 -0.75391,-2.14844 z m 1.19141,-0.0391 q 0,0.97265 0.44922,1.47656 0.44922,0.5 1.14062,0.5 0.69141,0 1.13282,-0.4961 0.44531,-0.5 0.44531,-1.49609 0,-0.98437 -0.4336,-1.46875 -0.42968,-0.48437 -1.14453,-0.48437 -0.71484,0 -1.15234,0.49218 -0.4375,0.48828 -0.4375,1.47657 z"
         id="path97131"
         style="fill:#f2f2f2;fill-opacity:1" />
      <path
         d="m 125.82617,320.17578 h 1.15625 v 3.10156 q 0,0.73828 0.043,0.95703 0.0742,0.35157 0.35156,0.56641 0.28125,0.21094 0.76563,0.21094 0.49219,0 0.74219,-0.19922 0.25,-0.20313 0.30078,-0.49609 0.0508,-0.29297 0.0508,-0.97266 v -3.16797 h 1.15625 v 3.00781 q 0,1.03125 -0.0937,1.45703 -0.0937,0.42579 -0.34766,0.71875 -0.25,0.29297 -0.67187,0.46875 Q 128.85742,326 128.17773,326 q -0.82031,0 -1.24609,-0.1875 -0.42187,-0.19141 -0.66797,-0.49219 -0.24609,-0.30469 -0.32422,-0.63672 -0.11328,-0.49218 -0.11328,-1.45312 z"
         id="path97133"
         style="fill:#f2f2f2;fill-opacity:1" />
      <path
         d="m 132.90039,325.90234 v -4.75781 h -1.69922 v -0.96875 h 4.55078 v 0.96875 h -1.69531 v 4.75781 z"
         id="path97135"
         style="fill:#f2f2f2;fill-opacity:1" />
    </g>
  </g>
  <text
     xml:space="preserve"
     id="text29904"
     style="font-weight:bold;font-size:8px;line-height:1.25;font-family:Arial;-inkscape-font-specification:'Arial, Bold';font-variant-ligatures:none;text-align:center;white-space:pre;shape-inside:url(#rect29906)" />
  <g
     inkscape:groupmode="layer"
     id="layer1"
     inkscape:label="Widgets"
     style="display:none">
    <circle
       style="display:inline;fill:#ff0000;stroke:#ff0000;stroke-width:1.94925;stroke-opacity:1"
       id="path1065-72"
       cx="72.5"
       cy="345.27988"
       r="10.525375" />
    <circle
       style="display:inline;fill:#ff0000;stroke:#ff0000;stroke-width:1.8645;stroke-opacity:1"
       id="path1065-7-2-5-5-9"
       cx="84.5"
       cy="78.499878"
       r="10.06775" />
    <circle
       style="display:inline;fill:#ff0000;stroke:#ff0000;stroke-width:1.94925;stroke-opacity:1"
       id="path1065-72-2"
       cx="52.5"
       cy="78.499878"
       r="7.5253749" />
    <circle
       style="display:inline;fill:#ff0000;stroke:#ff0000;stroke-width:1.94925;stroke-opacity:1"
       id="path1065-72-6"
       cx="20.5"
       cy="78.499878"
       r="10.525375" />
    <circle
       style="display:inline;fill:#ff0000;stroke:#ff0000;stroke-width:1.8645;stroke-opacity:1"
       id="path1065-7-2-5-5-9-4"
       cx="84.5"
       cy="115.49988"
       r="10.06775" />
    <circle
       style="display:inline;fill:#ff0000;stroke:#ff0000;stroke-width:1.94925;stroke-opacity:1"
       id="path1065-72-2-8"
       cx="52.5"
       cy="115.49988"
       r="7.5253749" />
    <circle
       style="display:inline;fill:#ff0000;stroke:#ff0000;stroke-width:1.94925;stroke-opacity:1"
       id="path1065-72-6-6"
       cx="20.5"
       cy="115.49988"
       r="10.525375" />
    <ellipse
       style="display:inline;fill:#ff0000;stroke:#ff0000;stroke-width:1.8645;stroke-opacity:1"
       id="path1065-7-2-5-5-9-42"
       cx="84.498474"
       cy="154.39085"
       rx="10.067544"
       ry="10.06775" />
    <ellipse
       style="display:inline;fill:#ff0000;stroke:#ff0000;stroke-width:1.94925;stroke-opacity:1"
       id="path1065-72-2-2"
       cx="52.49913"
       cy="154.39085"
       rx="7.5252209"
       ry="7.5253749" />
    <ellipse
       style="display:inline;fill:#ff0000;stroke:#ff0000;stroke-width:1.94925;stroke-opacity:1"
       id="path1065-72-6-61"
       cx="20.499784"
       cy="154.39085"
       rx="10.52516"
       ry="10.525375" />
    <ellipse
       style="display:inline;fill:#ff0000;stroke:#ff0000;stroke-width:1.8645;stroke-opacity:1"
       id="path1065-7-2-5-5-9-9"
       cx="84.498474"
       cy="191.39084"
       rx="10.067544"
       ry="10.06775" />
    <ellipse
       style="display:inline;fill:#ff0000;stroke:#ff0000;stroke-width:1.94925;stroke-opacity:1"
       id="path1065-72-2-1"
       cx="52.49913"
       cy="191.39084"
       rx="7.5252209"
       ry="7.5253749" />
    <ellipse
       style="display:inline;fill:#ff0000;stroke:#ff0000;stroke-width:1.94925;stroke-opacity:1"
       id="path1065-72-6-8"
       cx="20.499784"
       cy="191.39084"
       rx="10.52516"
       ry="10.525375" />
    <ellipse
       style="display:inline;fill:#ff0000;stroke:#ff0000;stroke-width:1.8645;stroke-opacity:1"
       id="path1065-7-2-5-5-9-8"
       cx="84.498474"
       cy="228.39084"
       rx="10.067544"
       ry="10.06775" />
    <ellipse
       style="display:inline;fill:#ff0000;stroke:#ff0000;stroke-width:1.94925;stroke-opacity:1"
       id="path1065-72-2-25"
       cx="52.49913"
       cy="228.39084"
       rx="7.5252209"
       ry="7.5253749" />
    <ellipse
       style="display:inline;fill:#ff0000;stroke:#ff0000;stroke-width:1.94925;stroke-opacity:1"
       id="path1065-72-6-0"
       cx="20.499784"
       cy="228.39084"
       rx="10.52516"
       ry="10.525375" />
    <ellipse
       style="display:inline;fill:#ff0000;stroke:#ff0000;stroke-width:1.8645;stroke-opacity:1"
       id="path1065-7-2-5-5-9-7"
       cx="84.498474"
       cy="265.39084"
       rx="10.067544"
       ry="10.06775" />
    <ellipse
       style="display:inline;fill:#ff0000;stroke:#ff0000;stroke-width:1.94925;stroke-opacity:1"
       id="path1065-72-2-3"
       cx="52.49913"
       cy="265.39084"
       rx="7.5252209"
       ry="7.5253749" />
    <ellipse
       style="display:inline;fill:#ff0000;stroke:#ff0000;stroke-width:1.94925;stroke-opacity:1"
       id="path1065-72-6-7"
       cx="20.499784"
       cy="265.39084"
       rx="10.52516"
       ry="10.525375" />
    <ellipse
       style="display:inline;fill:#ff0000;stroke:#ff0000;stroke-width:1.8645;stroke-opacity:1"
       id="path1065-7-2-5-5-9-3"
       cx="84.498474"
       cy="302.39084"
       rx="10.067544"
       ry="10.06775" />
    <ellipse
       style="display:inline;fill:#ff0000;stroke:#ff0000;stroke-width:1.94925;stroke-opacity:1"
       id="path1065-72-2-23"
       cx="52.49913"
       cy="302.39084"
       rx="7.5252209"
       ry="7.5253749" />
    <ellipse
       style="display:inline;fill:#ff0000;stroke:#ff0000;stroke-width:1.94925;stroke-opacity:1"
       id="path1065-72-6-2"
       cx="20.499784"
       cy="302.39084"
       rx="10.52516"
       ry="10.525375" />
    <circle
       style="display:inline;fill:#ff0000;stroke:#ff0000;stroke-width:1.94925;stroke-opacity:1"
       id="path1065-72-3"
       cx="32.5"
       cy="345.27988"
       r="10.525375" />
    <rect
       style="display:inline;opacity:0.995935;fill:#ff0000;stroke:none;stroke-width:0.999999"
       id="rect6025-8"
       width="24.000002"
       height="24"
       x="18.5"
       y="28.743237"
       ry="5.3710246"
       rx="5.3710246" />
    <rect
       style="display:inline;opacity:0.995935;fill:#ff0000;stroke:none;stroke-width:0.999999"
       id="rect6025-8-4"
       width="24.000002"
       height="24"
       x="62.5"
       y="28.743237"
       ry="5.3710246"
       rx="5.3710246" />
  </g>
</svg>
