<?xml version="1.0" encoding="UTF-8" standalone="no"?>
<svg
   width="75"
   height="380"
   viewBox="0 0 75 380"
   version="1.1"
   id="svg208"
   sodipodi:docname="BernoulliSwitch5.svg"
   inkscape:version="1.1.1 (3bf5ae0d25, 2021-09-20)"
   xmlns:inkscape="http://www.inkscape.org/namespaces/inkscape"
   xmlns:sodipodi="http://sodipodi.sourceforge.net/DTD/sodipodi-0.dtd"
   xmlns="http://www.w3.org/2000/svg"
   xmlns:svg="http://www.w3.org/2000/svg"
   xmlns:rdf="http://www.w3.org/1999/02/22-rdf-syntax-ns#"
   xmlns:cc="http://creativecommons.org/ns#"
   xmlns:dc="http://purl.org/dc/elements/1.1/">
  <rect
     style="fill:#ff0000;stroke-width:2.25131"
     id="rect65859"
     width="74.999054"
     height="380.12619"
     x="0.70721507"
     y="-0.43790576" />
  <metadata
     id="metadata212">
    <rdf:RDF>
      <cc:Work
         rdf:about="">
        <dc:format>image/svg+xml</dc:format>
        <dc:type
           rdf:resource="http://purl.org/dc/dcmitype/StillImage" />
      </cc:Work>
    </rdf:RDF>
  </metadata>
  <sodipodi:namedview
     pagecolor="#ffffff"
     bordercolor="#666666"
     borderopacity="1"
     objecttolerance="1"
     gridtolerance="4.1"
     guidetolerance="10"
     inkscape:pageopacity="0"
     inkscape:pageshadow="2"
     inkscape:window-width="1600"
     inkscape:window-height="837"
     id="namedview210"
     showgrid="true"
     inkscape:zoom="3.9951533"
     inkscape:cx="29.911243"
     inkscape:cy="245.92298"
     inkscape:window-x="-8"
     inkscape:window-y="-8"
     inkscape:window-maximized="1"
     inkscape:current-layer="svg208"
     inkscape:pagecheckerboard="true"
     showguides="false"
     units="mm"
     showborder="true">
    <inkscape:grid
       type="xygrid"
       id="grid971"
       units="mm"
       spacingx="0.4999937"
       spacingy="0.4999937"
       dotted="false"
       empspacing="5" />
  </sodipodi:namedview>
  <defs
     id="defs9">
    <marker
       style="overflow:visible;"
       id="Arrow1Send"
       refX="0.0"
       refY="0.0"
       orient="auto"
       inkscape:stockid="Arrow1Send"
       inkscape:isstock="true">
      <path
         transform="scale(0.2) rotate(180) translate(6,0)"
         style="fill-rule:evenodd;fill:context-stroke;stroke:context-stroke;stroke-width:1.0pt;"
         d="M 0.0,0.0 L 5.0,-5.0 L -12.5,0.0 L 5.0,5.0 L 0.0,0.0 z "
         id="path1635" />
    </marker>
    <marker
       style="overflow:visible;"
       id="Arrow1Mend"
       refX="0.0"
       refY="0.0"
       orient="auto"
       inkscape:stockid="Arrow1Mend"
       inkscape:isstock="true">
      <path
         transform="scale(0.4) rotate(180) translate(10,0)"
         style="fill-rule:evenodd;fill:context-stroke;stroke:context-stroke;stroke-width:1.0pt;"
         d="M 0.0,0.0 L 5.0,-5.0 L -12.5,0.0 L 5.0,5.0 L 0.0,0.0 z "
         id="path1629" />
    </marker>
    <marker
       style="overflow:visible;"
       id="Arrow2Lend"
       refX="0.0"
       refY="0.0"
       orient="auto"
       inkscape:stockid="Arrow2Lend"
       inkscape:isstock="true">
      <path
         transform="scale(1.1) rotate(180) translate(1,0)"
         d="M 8.7185878,4.0337352 L -2.2072895,0.016013256 L 8.7185884,-4.0017078 C 6.9730900,-1.6296469 6.9831476,1.6157441 8.7185878,4.0337352 z "
         style="stroke:context-stroke;fill-rule:evenodd;fill:context-stroke;stroke-width:0.62500000;stroke-linejoin:round;"
         id="path1641" />
    </marker>
    <marker
       style="overflow:visible"
       id="Arrow1Sstart"
       refX="0.0"
       refY="0.0"
       orient="auto"
       inkscape:stockid="Arrow1Sstart"
       inkscape:isstock="true">
      <path
         transform="scale(0.2) translate(6,0)"
         style="fill-rule:evenodd;fill:context-stroke;stroke:context-stroke;stroke-width:1.0pt"
         d="M 0.0,0.0 L 5.0,-5.0 L -12.5,0.0 L 5.0,5.0 L 0.0,0.0 z "
         id="path1632" />
    </marker>
    <style
       id="style2">
      .uuid-178fee04-66e3-402f-80f4-0493ef387430 {
        fill: #f0f0f0;
      }

      .uuid-a01b56f5-19ad-4419-9263-e2d8207a4173 {
        fill: blue;
      }

      .uuid-caa11d7b-45dc-472d-a21c-bfb45f09d39f {
        fill: lime;
      }

      .uuid-c66d0e1a-0300-47a3-9fe5-7579d5efc1b8 {
        isolation: isolate;
        opacity: .69;
      }

      .uuid-c66d0e1a-0300-47a3-9fe5-7579d5efc1b8, .uuid-89ffc17d-dc13-46b4-af84-0bc0d5772298, .uuid-f8e02bd3-ee8a-44eb-b2d4-43473dffabb0 {
        fill: none;
      }

      .uuid-e03bfb13-a98f-40ee-8a96-0d89c31eb30e {
        fill: #f0f;
      }

      .uuid-f8e02bd3-ee8a-44eb-b2d4-43473dffabb0 {
        stroke: #1f1f1f;
        stroke-linecap: round;
        stroke-miterlimit: 10;
        stroke-width: .8px;
      }

      .uuid-26fe0ef1-1280-43b0-a2a0-ad72b6a9fcb5 {
        fill: url(#uuid-ceb1f0ca-0ca2-46a9-982b-2ba7e59fdccb);
      }

      .uuid-328bb177-dd26-46ae-8d7a-80e84573d743 {
        fill: #1f1f1f;
      }

      .uuid-c1500944-1ed5-404f-b173-c3791985f437 {
        fill: red;
      }
    </style>
    <linearGradient
       id="uuid-ceb1f0ca-0ca2-46a9-982b-2ba7e59fdccb"
       x1="37.5"
       y1="0"
       x2="37.5"
       y2="380"
       gradientUnits="userSpaceOnUse">
      <stop
         offset="0"
         stop-color="#ebebeb"
         id="stop4" />
      <stop
         offset="1"
         stop-color="#e1e1e1"
         id="stop6" />
    </linearGradient>
    <clipPath
       id="_clipPath_sMzPIcrS2sD3lKhajQrdaiSEc399lqzM">
      <rect
         height="380"
         id="svg_1"
         width="120" />
    </clipPath>
  </defs>
  <g
     id="uuid-ef489e74-cdae-4216-a1a6-bec845a6effa"
     data-name="components"
     style="display:none"
     inkscape:groupmode="layer">
    <circle
       id="uuid-981841a2-ad68-40d8-a495-5fdd5d88aea2"
       data-name="Bknob#RoundLargeBlackKnob"
       cx="37.33955"
       cy="78.999962"
       r="5"
       style="fill:#ff0000" />
    <circle
       id="uuid-b82648ea-8a15-4535-8a3f-52e6648097b9"
       data-name="Clip#TinyLight"
       cx="32.5597"
       cy="278.24713"
       r="1.5"
       style="fill:#ff00ff" />
    <circle
       id="uuid-6bbe5da3-35c6-423e-9344-e1f31f07819e"
       data-name="Lim#TinyLight"
       cx="64.559898"
       cy="278.2471"
       r="1.5"
       style="fill:#ff00ff" />
    <circle
       id="uuid-97c91f19-76d1-4aa4-a1dc-7980909503b1"
       data-name="AhtB#TinyLight"
       cx="32.559719"
       cy="323.01172"
       r="1.5"
       style="fill:#ff00ff" />
    <circle
       id="uuid-ef15dd2c-7557-4d12-b87c-c134361f587b"
       data-name="AltB#TinyLight"
       cx="64.559853"
       cy="323.01172"
       r="1.5"
       style="fill:#ff00ff" />
    <circle
       id="uuid-d2822757-0981-4064-8cdd-2086d71b3762"
       data-name="A#PJ301MPort"
       cx="21.551001"
       cy="154.45821"
       r="5"
       style="fill:#00ff00" />
    <circle
       id="uuid-a43dc027-f33a-4903-b3a3-72985a7298fe"
       data-name="B#PJ301MPort"
       cx="53.551128"
       cy="154.45821"
       r="5"
       style="fill:#00ff00" />
    <circle
       id="uuid-4de03138-9751-4407-88c8-f841967b4948"
       data-name="Max#PJ301MPort"
       cx="21.545441"
       cy="199.39957"
       r="5"
       style="fill:#0000ff" />
    <circle
       id="uuid-5b0b8408-13f8-4d97-ae01-ef7f26cbf4dd"
       data-name="Min#PJ301MPort"
       cx="53.54557"
       cy="199.39957"
       r="5"
       style="fill:#0000ff" />
    <circle
       id="uuid-4a65039c-220c-4c0a-b1b0-ebcb164e5c97"
       data-name="ClipCV#PJ301MPort"
       cx="21.545441"
       cy="244.28706"
       r="5"
       style="fill:#0000ff" />
    <circle
       id="uuid-c76c2ebb-06a4-438b-a398-3304bd12c1dc"
       data-name="LimCV#PJ301MPort"
       cx="53.54557"
       cy="244.28706"
       r="5"
       style="fill:#0000ff" />
    <circle
       id="uuid-81e755ca-eddd-4cc4-bf87-f3eff7a7cf03"
       data-name="ClipGate#PJ301MPort"
       cx="21.545441"
       cy="289.2471"
       r="5"
       style="fill:#0000ff" />
    <circle
       id="uuid-ba08c6c7-32e4-4d52-b9bc-a4caa1a81b8c"
       data-name="LimGate#PJ301MPort"
       cx="53.54557"
       cy="289.2471"
       r="5"
       style="fill:#0000ff" />
    <circle
       id="uuid-30744413-ecf6-4065-ac6f-ee8a7e81f645"
       data-name="AhtB#PJ301MPort"
       cx="21.545441"
       cy="334"
       r="5"
       style="fill:#0000ff" />
    <circle
       id="uuid-dc8780c4-a0f9-4b90-beeb-66035a9048e6"
       data-name="AltB#PJ301MPort"
       cx="53.54557"
       cy="334"
       r="5"
       style="fill:#0000ff" />
  </g>
  <rect
     style="fill:#000000;fill-opacity:1;stroke-width:0.464989"
     id="rect67956"
     width="62.542862"
     height="42.499477"
     x="6.281498"
     y="274.99652"
     ry="2.4999659" />
  <text
     xml:space="preserve"
     style="font-size:8px;line-height:1.25;font-family:Arial;-inkscape-font-specification:'Arial, Normal';font-weight:normal;font-style:normal;font-stretch:normal;font-variant:normal;font-variant-ligatures:normal;font-variant-caps:normal;font-variant-numeric:normal;font-variant-east-asian:normal"
     x="43.271065"
     y="274.35214"
     id="text226237"><tspan
       sodipodi:role="line"
       id="tspan228439" /></text>
  <g
     aria-label="TRIG"
     id="text17893-4-5"
     style="font-weight:bold;font-size:8px;line-height:1.25;font-family:Arial;-inkscape-font-specification:'Arial, Bold'">
    <path
       d="m 13.83073,327.3028 v -4.75782 h -1.699218 v -0.96875 h 4.550781 v 0.96875 H 14.98698 v 4.75782 z"
       id="path62436" />
    <path
       d="m 17.432293,327.3028 v -5.72657 h 2.433594 q 0.917968,0 1.332031,0.15625 0.417969,0.15235 0.667969,0.54688 0.25,0.39453 0.25,0.90234 0,0.64453 -0.378907,1.06641 -0.378906,0.41797 -1.132812,0.52734 0.375,0.21875 0.617187,0.48047 0.246094,0.26172 0.660157,0.92969 l 0.699218,1.11719 h -1.382812 l -0.835938,-1.2461 q -0.445312,-0.66797 -0.609375,-0.83984 -0.164062,-0.17578 -0.347656,-0.23828 -0.183594,-0.0664 -0.582031,-0.0664 h -0.234375 v 2.39063 z m 1.15625,-3.30469 h 0.855469 q 0.832031,0 1.039062,-0.0703 0.207031,-0.0703 0.324219,-0.24219 0.117187,-0.17188 0.117187,-0.42969 0,-0.28906 -0.15625,-0.46484 -0.152343,-0.17969 -0.433593,-0.22657 -0.140625,-0.0195 -0.84375,-0.0195 h -0.902344 z"
       id="path62438" />
    <path
       d="m 23.170574,327.3028 v -5.72657 h 1.15625 v 5.72657 z"
       id="path62440" />
    <path
       d="m 28.092449,325.19733 v -0.96485 h 2.492188 v 2.28125 q -0.363282,0.35157 -1.054688,0.6211 -0.6875,0.26562 -1.394531,0.26562 -0.898438,0 -1.566406,-0.375 -0.667969,-0.3789 -1.003907,-1.07812 -0.335937,-0.70313 -0.335937,-1.52735 0,-0.89453 0.375,-1.58984 0.375,-0.69531 1.097656,-1.06641 0.550781,-0.28515 1.371094,-0.28515 1.066406,0 1.664062,0.44922 0.601563,0.44531 0.773438,1.23437 l -1.148438,0.21484 q -0.121093,-0.42187 -0.457031,-0.66406 -0.332031,-0.24609 -0.832031,-0.24609 -0.757813,0 -1.207031,0.48047 -0.445313,0.48047 -0.445313,1.42578 0,1.01953 0.453125,1.53125 0.453125,0.50781 1.1875,0.50781 0.363281,0 0.726563,-0.14062 0.367187,-0.14454 0.628906,-0.34766 v -0.72656 z"
       id="path62442" />
  </g>
  <g
     aria-label="TRIG"
     id="text17893-4-5-5"
     style="font-weight:bold;font-size:8px;line-height:1.25;font-family:Arial;-inkscape-font-specification:'Arial, Bold'"
     transform="translate(-2.8270949,-245.57719)">
    <path
       d="m 13.83073,327.3028 v -4.75782 h -1.699218 v -0.96875 h 4.550781 v 0.96875 H 14.98698 v 4.75782 z"
       id="path62436-8" />
    <path
       d="m 17.432293,327.3028 v -5.72657 h 2.433594 q 0.917968,0 1.332031,0.15625 0.417969,0.15235 0.667969,0.54688 0.25,0.39453 0.25,0.90234 0,0.64453 -0.378907,1.06641 -0.378906,0.41797 -1.132812,0.52734 0.375,0.21875 0.617187,0.48047 0.246094,0.26172 0.660157,0.92969 l 0.699218,1.11719 h -1.382812 l -0.835938,-1.2461 q -0.445312,-0.66797 -0.609375,-0.83984 -0.164062,-0.17578 -0.347656,-0.23828 -0.183594,-0.0664 -0.582031,-0.0664 h -0.234375 v 2.39063 z m 1.15625,-3.30469 h 0.855469 q 0.832031,0 1.039062,-0.0703 0.207031,-0.0703 0.324219,-0.24219 0.117187,-0.17188 0.117187,-0.42969 0,-0.28906 -0.15625,-0.46484 -0.152343,-0.17969 -0.433593,-0.22657 -0.140625,-0.0195 -0.84375,-0.0195 h -0.902344 z"
       id="path62438-3" />
    <path
       d="m 23.170574,327.3028 v -5.72657 h 1.15625 v 5.72657 z"
       id="path62440-5" />
    <path
       d="m 28.092449,325.19733 v -0.96485 h 2.492188 v 2.28125 q -0.363282,0.35157 -1.054688,0.6211 -0.6875,0.26562 -1.394531,0.26562 -0.898438,0 -1.566406,-0.375 -0.667969,-0.3789 -1.003907,-1.07812 -0.335937,-0.70313 -0.335937,-1.52735 0,-0.89453 0.375,-1.58984 0.375,-0.69531 1.097656,-1.06641 0.550781,-0.28515 1.371094,-0.28515 1.066406,0 1.664062,0.44922 0.601563,0.44531 0.773438,1.23437 l -1.148438,0.21484 q -0.121093,-0.42187 -0.457031,-0.66406 -0.332031,-0.24609 -0.832031,-0.24609 -0.757813,0 -1.207031,0.48047 -0.445313,0.48047 -0.445313,1.42578 0,1.01953 0.453125,1.53125 0.453125,0.50781 1.1875,0.50781 0.363281,0 0.726563,-0.14062 0.367187,-0.14454 0.628906,-0.34766 v -0.72656 z"
       id="path62442-3" />
  </g>
  <g
     aria-label="RISE"
     id="text17893-4-4"
     style="font-weight:bold;font-size:8px;line-height:1.25;font-family:Arial;-inkscape-font-specification:'Arial, Bold'">
    <path
       d="m 12.103404,115.01908 v -5.72656 h 2.433594 q 0.917969,0 1.332031,0.15625 0.417969,0.15234 0.667969,0.54687 0.25,0.39453 0.25,0.90235 0,0.64453 -0.378906,1.0664 -0.378907,0.41797 -1.132813,0.52735 0.375,0.21875 0.617188,0.48047 0.246093,0.26171 0.660156,0.92968 l 0.699219,1.11719 h -1.382813 l -0.835937,-1.24609 q -0.445313,-0.66797 -0.609375,-0.83985 -0.164063,-0.17578 -0.347657,-0.23828 -0.183593,-0.0664 -0.582031,-0.0664 h -0.234375 v 2.39062 z m 1.15625,-3.30469 h 0.855469 q 0.832031,0 1.039062,-0.0703 0.207032,-0.0703 0.324219,-0.24219 0.117188,-0.17187 0.117188,-0.42968 0,-0.28907 -0.15625,-0.46485 -0.152344,-0.17969 -0.433594,-0.22656 -0.140625,-0.0195 -0.84375,-0.0195 h -0.902344 z"
       id="path62502" />
    <path
       d="m 17.841685,115.01908 v -5.72656 h 1.15625 v 5.72656 z"
       id="path62504" />
    <path
       d="m 19.806529,113.1558 1.125,-0.10938 q 0.101563,0.56641 0.410156,0.83204 0.3125,0.26562 0.839844,0.26562 0.558594,0 0.839844,-0.23437 0.285156,-0.23829 0.285156,-0.55469 0,-0.20313 -0.121094,-0.34375 -0.117187,-0.14453 -0.414062,-0.25 -0.203125,-0.0703 -0.925781,-0.25 -0.929688,-0.23047 -1.304688,-0.56641 -0.527344,-0.47265 -0.527344,-1.15234 0,-0.4375 0.246094,-0.81641 0.25,-0.38281 0.714844,-0.58203 0.46875,-0.19922 1.128906,-0.19922 1.078125,0 1.621094,0.47266 0.546875,0.47265 0.574219,1.26172 l -1.15625,0.0508 q -0.07422,-0.44141 -0.320313,-0.63281 -0.242187,-0.19532 -0.730469,-0.19532 -0.503906,0 -0.789062,0.20703 -0.183594,0.13282 -0.183594,0.35547 0,0.20313 0.171875,0.34766 0.21875,0.18359 1.0625,0.38281 0.84375,0.19922 1.246094,0.41406 0.40625,0.21094 0.632812,0.58204 0.230469,0.36718 0.230469,0.91015 0,0.49219 -0.273437,0.92188 -0.273438,0.42968 -0.773438,0.64062 -0.5,0.20703 -1.246094,0.20703 -1.085937,0 -1.667968,-0.5 -0.582032,-0.5039 -0.695313,-1.46484 z"
       id="path62506" />
    <path
       d="m 25.435435,115.01908 v -5.72656 h 4.246094 v 0.96875 h -3.089844 v 1.26953 h 2.875 v 0.96484 h -2.875 v 1.5586 h 3.199219 v 0.96484 z"
       id="path62508" />
  </g>
  <g
     aria-label="B"
     id="text279033-7"
     style="font-weight:bold;font-size:8px;line-height:1.25;font-family:Arial;-inkscape-font-specification:'Arial, Bold';fill:#f2f2f2"
     transform="translate(44.703387,85.009915)">
    <path
       d="m 20.295794,69.261513 h 2.289062 q 0.679688,0 1.011719,0.05859 0.335937,0.05469 0.597656,0.234375 0.265625,0.179687 0.441406,0.480468 0.175782,0.296875 0.175782,0.667969 0,0.402344 -0.21875,0.738281 -0.214844,0.335938 -0.585938,0.503907 0.523438,0.152343 0.804688,0.519531 0.28125,0.367187 0.28125,0.863281 0,0.390625 -0.183594,0.761719 -0.179688,0.367187 -0.496094,0.589844 -0.3125,0.21875 -0.773437,0.269531 -0.289063,0.03125 -1.394532,0.03906 h -1.949218 z m 1.15625,0.953125 v 1.324219 h 0.757812 q 0.675781,0 0.839844,-0.01953 0.296875,-0.03516 0.464844,-0.203125 0.171875,-0.171875 0.171875,-0.449218 0,-0.265625 -0.148438,-0.429688 -0.144531,-0.167969 -0.433594,-0.203125 -0.171875,-0.01953 -0.988281,-0.01953 z m 0,2.277344 v 1.53125 h 1.070312 q 0.625,0 0.792969,-0.03516 0.257812,-0.04687 0.417969,-0.226562 0.164062,-0.183594 0.164062,-0.488281 0,-0.257813 -0.125,-0.4375 -0.125,-0.179688 -0.363281,-0.261719 -0.234375,-0.08203 -1.023438,-0.08203 z"
       id="path298118-3"
       style="fill:#f2f2f2" />
  </g>
  <g
     aria-label="A"
     id="text285625-7"
     style="font-weight:bold;font-size:8px;line-height:1.25;font-family:Arial;-inkscape-font-specification:'Arial, Bold';fill:#f2f2f2"
     transform="translate(-14.113604,127.36698)">
    <path
       d="m 25.304916,32.39666 h -1.257812 l -0.5,-1.300781 h -2.289063 l -0.472656,1.300781 h -1.226562 l 2.230468,-5.726563 h 1.222657 z m -2.128906,-2.265625 -0.789062,-2.125 -0.773438,2.125 z"
       id="path298115-8"
       style="fill:#f2f2f2" />
  </g>
  <g
     aria-label="PROB"
     id="text17893-4-5-6"
     style="font-weight:bold;font-size:8px;line-height:1.25;font-family:Arial;-inkscape-font-specification:'Arial, Bold'">
    <path
       d="m 43.513996,327.73892 v -5.72656 h 1.855469 q 1.054687,0 1.375,0.0859 0.492187,0.1289 0.824219,0.5625 0.332031,0.42968 0.332031,1.11328 0,0.52734 -0.191406,0.88672 -0.191407,0.35937 -0.488282,0.5664 -0.292968,0.20313 -0.597656,0.26953 -0.414062,0.082 -1.199219,0.082 h -0.753906 v 2.16015 z m 1.15625,-4.75781 v 1.625 h 0.632813 q 0.683593,0 0.914062,-0.0898 0.230469,-0.0899 0.359375,-0.28125 0.132813,-0.19141 0.132813,-0.44532 0,-0.3125 -0.183594,-0.51562 -0.183594,-0.20313 -0.464844,-0.25391 -0.207031,-0.0391 -0.832031,-0.0391 z"
       id="path62445" />
    <path
       d="m 48.85384,327.73892 v -5.72656 h 2.433594 q 0.917968,0 1.332031,0.15625 0.417969,0.15234 0.667969,0.54687 0.25,0.39454 0.25,0.90235 0,0.64453 -0.378907,1.0664 -0.378906,0.41797 -1.132812,0.52735 0.375,0.21875 0.617187,0.48047 0.246094,0.26172 0.660157,0.92968 l 0.699218,1.11719 h -1.382812 l -0.835938,-1.24609 q -0.445312,-0.66797 -0.609375,-0.83985 -0.164062,-0.17578 -0.347656,-0.23828 -0.183594,-0.0664 -0.582031,-0.0664 H 50.01009 v 2.39062 z m 1.15625,-3.30469 h 0.855469 q 0.832031,0 1.039062,-0.0703 0.207031,-0.0703 0.324219,-0.24219 0.117187,-0.17187 0.117187,-0.42968 0,-0.28907 -0.15625,-0.46485 -0.152343,-0.17968 -0.433593,-0.22656 -0.140625,-0.0195 -0.84375,-0.0195 H 50.01009 Z"
       id="path62447" />
    <path
       d="m 54.392902,324.9108 q 0,-0.875 0.261719,-1.46875 0.195313,-0.4375 0.53125,-0.78516 0.339844,-0.34766 0.742188,-0.51562 0.535156,-0.22657 1.234375,-0.22657 1.265625,0 2.023437,0.78516 0.761719,0.78516 0.761719,2.18359 0,1.38672 -0.753906,2.17188 -0.753907,0.78125 -2.015625,0.78125 -1.277344,0 -2.03125,-0.77735 -0.753907,-0.78125 -0.753907,-2.14843 z m 1.191407,-0.0391 q 0,0.97266 0.449218,1.47657 0.449219,0.5 1.140625,0.5 0.691407,0 1.132813,-0.4961 0.445312,-0.5 0.445312,-1.49609 0,-0.98438 -0.433593,-1.46875 -0.429688,-0.48438 -1.144532,-0.48438 -0.714843,0 -1.152343,0.49219 -0.4375,0.48828 -0.4375,1.47656 z"
       id="path62449" />
    <path
       d="m 60.85384,322.01236 h 2.289062 q 0.679688,0 1.011719,0.0586 0.335938,0.0547 0.597656,0.23438 0.265625,0.17969 0.441407,0.48047 0.175781,0.29687 0.175781,0.66797 0,0.40234 -0.21875,0.73828 -0.214844,0.33593 -0.585938,0.5039 0.523438,0.15235 0.804688,0.51953 0.28125,0.36719 0.28125,0.86329 0,0.39062 -0.183594,0.76171 -0.179687,0.36719 -0.496094,0.58985 -0.3125,0.21875 -0.773437,0.26953 -0.289063,0.0312 -1.394531,0.0391 H 60.85384 Z m 1.15625,0.95312 v 1.32422 h 0.757812 q 0.675782,0 0.839844,-0.0195 0.296875,-0.0351 0.464844,-0.20312 0.171875,-0.17188 0.171875,-0.44922 0,-0.26563 -0.148438,-0.42969 -0.144531,-0.16797 -0.433593,-0.20312 -0.171875,-0.0195 -0.988282,-0.0195 z m 0,2.27735 v 1.53125 h 1.070312 q 0.625,0 0.792969,-0.0352 0.257813,-0.0469 0.417969,-0.22656 0.164062,-0.18359 0.164062,-0.48828 0,-0.25781 -0.125,-0.4375 -0.125,-0.17969 -0.363281,-0.26172 -0.234375,-0.082 -1.023437,-0.082 z"
       id="path62451" />
  </g>
  <path
     style="opacity:1;fill:none;stroke:#ffffff;stroke-width:0.572;stroke-linecap:butt;stroke-linejoin:miter;stroke-miterlimit:4;stroke-dasharray:none;stroke-dashoffset:0;stroke-opacity:1"
     d="m 37.499528,144.99817 0,4.99994"
     id="path589"
     sodipodi:nodetypes="cc" />
  <path
     style="fill:none;stroke:#ffffff;stroke-width:0.572;stroke-linecap:butt;stroke-linejoin:miter;stroke-miterlimit:4;stroke-dasharray:none;stroke-dashoffset:0;stroke-opacity:1"
     d="m 37.499528,159.99798 0,32.49959"
     id="path589-8"
     sodipodi:nodetypes="cc" />
  <path
     style="fill:none;stroke:#ffffff;stroke-width:0.572;stroke-linecap:butt;stroke-linejoin:miter;stroke-miterlimit:4;stroke-dasharray:none;stroke-dashoffset:0;stroke-opacity:1"
     d="m 37.499528,202.49745 v 32.49959"
     id="path589-8-7"
     sodipodi:nodetypes="cc" />
  <path
     style="fill:none;stroke:#ffffff;stroke-width:0.572;stroke-linecap:butt;stroke-linejoin:miter;stroke-miterlimit:4;stroke-dasharray:none;stroke-dashoffset:0;stroke-opacity:1"
     d="m 37.499527,244.99691 v 29.99962"
     id="path589-8-9"
     sodipodi:nodetypes="cc" />
  <path
     style="fill:#f2f2f2;stroke:#ff0000;stroke-width:0.572;stroke-linecap:butt;stroke-linejoin:miter;stroke-miterlimit:4;stroke-dasharray:none;stroke-dashoffset:0;stroke-opacity:1"
     d="m 37.499528,287.49638 0,27.49965"
     id="path1950"
     sodipodi:nodetypes="cc" />
  <path
     style="fill:#f2f2f2;stroke:#ff0000;stroke-width:0.572;stroke-linecap:butt;stroke-linejoin:miter;stroke-miterlimit:4;stroke-dasharray:none;stroke-dashoffset:0;stroke-opacity:1"
     d="m 37.499527,274.99653 10e-7,2.49997"
     id="path1950-8"
     sodipodi:nodetypes="cc" />
  <g
     aria-label="OUTPUT"
     id="text17893"
     style="font-weight:bold;font-size:8px;line-height:1.25;font-family:Arial;-inkscape-font-specification:'Arial, Bold';fill:#f2f2f2">
    <path
       d="m 21.72752,282.2222 q 0,-0.875 0.261719,-1.46875 0.195312,-0.4375 0.53125,-0.78516 0.339843,-0.34765 0.742187,-0.51562 0.535156,-0.22657 1.234375,-0.22657 1.265625,0 2.023438,0.78516 0.761718,0.78516 0.761718,2.18359 0,1.38672 -0.753906,2.17188 -0.753906,0.78125 -2.015625,0.78125 -1.277344,0 -2.03125,-0.77734 -0.753906,-0.78125 -0.753906,-2.14844 z m 1.191406,-0.0391 q 0,0.97265 0.449219,1.47656 0.449219,0.5 1.140625,0.5 0.691406,0 1.132812,-0.4961 0.445313,-0.5 0.445313,-1.49609 0,-0.98437 -0.433594,-1.46875 -0.429687,-0.48437 -1.144531,-0.48437 -0.714844,0 -1.152344,0.49218 -0.4375,0.48828 -0.4375,1.47657 z"
       id="path62454" />
    <path
       d="m 28.176739,279.32376 h 1.15625 v 3.10156 q 0,0.73828 0.04297,0.95703 0.07422,0.35157 0.351563,0.56641 0.28125,0.21094 0.765625,0.21094 0.492187,0 0.742187,-0.19922 0.25,-0.20313 0.300782,-0.49609 0.05078,-0.29297 0.05078,-0.97266 v -3.16797 h 1.15625 v 3.00781 q 0,1.03125 -0.09375,1.45703 -0.09375,0.42579 -0.347656,0.71875 -0.25,0.29297 -0.671875,0.46875 -0.421875,0.17188 -1.101563,0.17188 -0.820312,0 -1.246094,-0.1875 -0.421875,-0.19141 -0.667968,-0.49219 -0.246094,-0.30469 -0.324219,-0.63672 -0.113281,-0.49218 -0.113281,-1.45312 z"
       id="path62456" />
    <path
       d="m 35.250957,285.05032 v -4.75781 h -1.699218 v -0.96875 h 4.550781 v 0.96875 h -1.695313 v 4.75781 z"
       id="path62458" />
    <path
       d="m 38.848614,285.05032 v -5.72656 h 1.855468 q 1.054688,0 1.375,0.0859 0.492188,0.1289 0.824219,0.5625 0.332031,0.42969 0.332031,1.11328 0,0.52734 -0.191406,0.88672 -0.191406,0.35937 -0.488281,0.5664 -0.292969,0.20313 -0.597656,0.26954 -0.414063,0.082 -1.199219,0.082 h -0.753906 v 2.16015 z m 1.15625,-4.75781 v 1.625 h 0.632812 q 0.683594,0 0.914063,-0.0898 0.230468,-0.0899 0.359375,-0.28125 0.132812,-0.19141 0.132812,-0.44532 0,-0.3125 -0.183594,-0.51562 -0.183593,-0.20313 -0.464843,-0.25391 -0.207032,-0.0391 -0.832032,-0.0391 z"
       id="path62460" />
    <path
       d="m 44.176739,279.32376 h 1.15625 v 3.10156 q 0,0.73828 0.04297,0.95703 0.07422,0.35157 0.351563,0.56641 0.28125,0.21094 0.765625,0.21094 0.492187,0 0.742187,-0.19922 0.25,-0.20313 0.300782,-0.49609 0.05078,-0.29297 0.05078,-0.97266 v -3.16797 h 1.15625 v 3.00781 q 0,1.03125 -0.09375,1.45703 -0.09375,0.42579 -0.347656,0.71875 -0.25,0.29297 -0.671875,0.46875 -0.421875,0.17188 -1.101563,0.17188 -0.820312,0 -1.246094,-0.1875 -0.421875,-0.19141 -0.667968,-0.49219 -0.246094,-0.30469 -0.324219,-0.63672 -0.113281,-0.49218 -0.113281,-1.45312 z"
       id="path62462" />
    <path
       d="m 51.250957,285.05032 v -4.75781 h -1.699218 v -0.96875 h 4.550781 v 0.96875 h -1.695313 v 4.75781 z"
       id="path62464" />
  </g>
  <g
     aria-label="INPUT"
     id="text17893-4"
     style="font-weight:bold;font-size:8px;line-height:1.25;font-family:Arial;-inkscape-font-specification:'Arial, Bold'">
    <path
       d="m 26.588795,242.51747 v -5.72656 h 1.15625 v 5.72656 z"
       id="path62467" />
    <path
       d="m 28.858326,242.51747 v -5.72656 h 1.125 l 2.34375,3.82422 v -3.82422 h 1.074219 v 5.72656 h -1.160157 l -2.308593,-3.73437 v 3.73437 z"
       id="path62469" />
    <path
       d="m 34.623951,242.51747 v -5.72656 h 1.855469 q 1.054687,0 1.375,0.0859 0.492187,0.1289 0.824218,0.5625 0.332032,0.42968 0.332032,1.11328 0,0.52734 -0.191407,0.88672 -0.191406,0.35937 -0.488281,0.5664 -0.292969,0.20313 -0.597656,0.26953 -0.414063,0.082 -1.199219,0.082 h -0.753906 v 2.16015 z m 1.15625,-4.75781 v 1.625 h 0.632812 q 0.683594,0 0.914063,-0.0898 0.230469,-0.0898 0.359375,-0.28125 0.132812,-0.19141 0.132812,-0.44532 0,-0.3125 -0.183593,-0.51562 -0.183594,-0.20313 -0.464844,-0.25391 -0.207031,-0.0391 -0.832031,-0.0391 z"
       id="path62471" />
    <path
       d="m 39.952076,236.79091 h 1.15625 v 3.10156 q 0,0.73828 0.04297,0.95703 0.07422,0.35157 0.351562,0.56641 0.28125,0.21094 0.765625,0.21094 0.492188,0 0.742188,-0.19922 0.25,-0.20313 0.300781,-0.4961 0.05078,-0.29296 0.05078,-0.97265 v -3.16797 h 1.15625 v 3.00781 q 0,1.03125 -0.09375,1.45703 -0.09375,0.42578 -0.347656,0.71875 -0.25,0.29297 -0.671875,0.46875 -0.421875,0.17188 -1.101563,0.17188 -0.820312,0 -1.246093,-0.1875 -0.421875,-0.19141 -0.667969,-0.49219 -0.246094,-0.30469 -0.324219,-0.63672 -0.113281,-0.49219 -0.113281,-1.45312 z"
       id="path62473" />
    <path
       d="m 47.026295,242.51747 v -4.75781 h -1.699219 v -0.96875 h 4.550781 v 0.96875 h -1.695312 v 4.75781 z"
       id="path62475" />
  </g>
  <g
     aria-label="SCALE"
     id="text17893-4-0"
     style="font-weight:bold;font-size:8px;line-height:1.25;font-family:Arial;-inkscape-font-specification:'Arial, Bold'">
    <path
       d="m 24.321352,198.36832 1.125,-0.10938 q 0.101563,0.56641 0.410156,0.83203 0.3125,0.26563 0.839844,0.26563 0.558594,0 0.839844,-0.23438 0.285156,-0.23828 0.285156,-0.55468 0,-0.20313 -0.121094,-0.34375 -0.117187,-0.14454 -0.414062,-0.25 -0.203125,-0.0703 -0.925781,-0.25 -0.929688,-0.23047 -1.304688,-0.56641 -0.527344,-0.47266 -0.527344,-1.15234 0,-0.4375 0.246094,-0.81641 0.25,-0.38281 0.714844,-0.58203 0.46875,-0.19922 1.128906,-0.19922 1.078125,0 1.621094,0.47266 0.546875,0.47265 0.574219,1.26171 l -1.15625,0.0508 q -0.07422,-0.44141 -0.320313,-0.63282 -0.242187,-0.19531 -0.730469,-0.19531 -0.503906,0 -0.789062,0.20703 -0.183594,0.13281 -0.183594,0.35547 0,0.20313 0.171875,0.34766 0.21875,0.18359 1.0625,0.38281 0.84375,0.19922 1.246094,0.41406 0.40625,0.21094 0.632812,0.58203 0.230469,0.36719 0.230469,0.91016 0,0.49219 -0.273437,0.92187 -0.273438,0.42969 -0.773438,0.64063 -0.5,0.20703 -1.246094,0.20703 -1.085937,0 -1.667968,-0.5 -0.582032,-0.50391 -0.695313,-1.46484 z"
       id="path62478" />
    <path
       d="m 33.614321,198.12613 1.121094,0.35547 q -0.257813,0.9375 -0.859375,1.39453 -0.597657,0.45312 -1.519532,0.45312 -1.140625,0 -1.875,-0.77734 -0.734375,-0.78125 -0.734375,-2.13281 0,-1.42969 0.738282,-2.21875 0.738281,-0.79297 1.941406,-0.79297 1.050781,0 1.707031,0.62109 0.390625,0.36719 0.585938,1.05469 l -1.144532,0.27344 q -0.101562,-0.44531 -0.425781,-0.70313 -0.320312,-0.25781 -0.78125,-0.25781 -0.636719,0 -1.035156,0.45703 -0.394531,0.45703 -0.394531,1.48047 0,1.08594 0.390625,1.54688 0.390625,0.46093 1.015625,0.46093 0.460937,0 0.792968,-0.29297 0.332032,-0.29296 0.476563,-0.92187 z"
       id="path62480" />
    <path
       d="m 40.891665,200.2316 h -1.257813 l -0.5,-1.30078 H 36.84479 l -0.472657,1.30078 h -1.226562 l 2.230469,-5.72656 h 1.222656 z m -2.128907,-2.26563 -0.789062,-2.125 -0.773438,2.125 z"
       id="path62482" />
    <path
       d="m 41.536196,200.2316 v -5.67969 h 1.15625 v 4.71484 h 2.875 v 0.96485 z"
       id="path62484" />
    <path
       d="m 46.391665,200.2316 v -5.72656 h 4.246093 v 0.96875 h -3.089843 v 1.26953 h 2.875 v 0.96484 h -2.875 v 1.55859 h 3.199218 v 0.96485 z"
       id="path62486" />
  </g>
  <g
     aria-label="OFFSET"
     id="text17893-4-8"
     style="font-weight:bold;font-size:8px;line-height:1.25;font-family:Arial;-inkscape-font-specification:'Arial, Bold'">
    <path
       d="m 22.75839,154.69041 q 0,-0.875 0.261719,-1.46875 0.195313,-0.4375 0.53125,-0.78515 0.339844,-0.34766 0.742188,-0.51563 0.535156,-0.22656 1.234375,-0.22656 1.265625,0 2.023437,0.78516 0.761719,0.78515 0.761719,2.18359 0,1.38672 -0.753906,2.17188 -0.753907,0.78125 -2.015625,0.78125 -1.277344,0 -2.03125,-0.77735 -0.753907,-0.78125 -0.753907,-2.14844 z m 1.191407,-0.0391 q 0,0.97266 0.449218,1.47656 0.449219,0.5 1.140625,0.5 0.691407,0 1.132813,-0.49609 0.445312,-0.5 0.445312,-1.49609 0,-0.98438 -0.433593,-1.46875 -0.429688,-0.48438 -1.144532,-0.48438 -0.714843,0 -1.152343,0.49219 -0.4375,0.48828 -0.4375,1.47656 z"
       id="path62489" />
    <path
       d="m 29.223234,157.51854 v -5.72656 h 3.925781 v 0.96875 h -2.769531 v 1.35547 h 2.390625 v 0.96875 h -2.390625 v 2.43359 z"
       id="path62491" />
    <path
       d="m 34.109953,157.51854 v -5.72656 h 3.925781 v 0.96875 h -2.769531 v 1.35547 h 2.390625 v 0.96875 h -2.390625 v 2.43359 z"
       id="path62493" />
    <path
       d="m 38.69589,155.65526 1.125,-0.10938 q 0.101563,0.56641 0.410157,0.83203 0.3125,0.26563 0.839843,0.26563 0.558594,0 0.839844,-0.23438 0.285156,-0.23828 0.285156,-0.55468 0,-0.20313 -0.121093,-0.34375 -0.117188,-0.14453 -0.414063,-0.25 -0.203125,-0.0703 -0.925781,-0.25 -0.929688,-0.23047 -1.304688,-0.56641 -0.527343,-0.47266 -0.527343,-1.15234 0,-0.4375 0.246093,-0.81641 0.25,-0.38281 0.714844,-0.58203 0.46875,-0.19922 1.128906,-0.19922 1.078125,0 1.621094,0.47266 0.546875,0.47265 0.574219,1.26172 l -1.15625,0.0508 q -0.07422,-0.44141 -0.320313,-0.63282 -0.242187,-0.19531 -0.730468,-0.19531 -0.503907,0 -0.789063,0.20703 -0.183594,0.13282 -0.183594,0.35547 0,0.20313 0.171875,0.34766 0.21875,0.18359 1.0625,0.38281 0.84375,0.19922 1.246094,0.41406 0.40625,0.21094 0.632813,0.58203 0.230468,0.36719 0.230468,0.91016 0,0.49219 -0.273437,0.92188 -0.273438,0.42968 -0.773438,0.64062 -0.5,0.20703 -1.246093,0.20703 -1.085938,0 -1.667969,-0.5 -0.582031,-0.5039 -0.695313,-1.46484 z"
       id="path62495" />
    <path
       d="m 44.324797,157.51854 v -5.72656 h 4.246093 v 0.96875 h -3.089843 v 1.26953 h 2.875 v 0.96484 h -2.875 v 1.5586 h 3.199218 v 0.96484 z"
       id="path62497" />
    <path
       d="m 50.949797,157.51854 v -4.75781 h -1.699219 v -0.96875 h 4.550781 v 0.96875 h -1.695312 v 4.75781 z"
       id="path62499" />
  </g>
  <g
     aria-label="PROB"
     id="text17893-4-8-5"
     style="font-weight:bold;font-size:8px;line-height:1.25;font-family:Arial;-inkscape-font-specification:'Arial, Bold'"
     transform="translate(-0.334109,-4.8624305)">
    <path
       d="m 26.837448,45.811176 v -5.726562 h 1.855469 q 1.054687,0 1.375,0.08594 0.492187,0.128907 0.824219,0.5625 0.332031,0.429688 0.332031,1.113282 0,0.527343 -0.191406,0.886718 -0.191407,0.359375 -0.488282,0.566407 -0.292968,0.203125 -0.597656,0.269531 -0.414062,0.08203 -1.199219,0.08203 h -0.753906 v 2.160156 z m 1.15625,-4.757812 v 1.625 h 0.632813 q 0.683593,0 0.914062,-0.08984 0.230469,-0.08984 0.359375,-0.28125 0.132813,-0.191406 0.132813,-0.445312 0,-0.3125 -0.183594,-0.515625 -0.183594,-0.203125 -0.464844,-0.253907 -0.207031,-0.03906 -0.832031,-0.03906 z"
       id="path62549" />
    <path
       d="m 32.177292,45.811176 v -5.726562 h 2.433594 q 0.917968,0 1.332031,0.15625 0.417969,0.152344 0.667969,0.546875 0.25,0.394531 0.25,0.902344 0,0.644531 -0.378907,1.066406 -0.378906,0.417969 -1.132812,0.527344 0.375,0.21875 0.617187,0.480468 0.246094,0.261719 0.660157,0.929688 l 0.699218,1.117187 h -1.382812 l -0.835938,-1.246093 q -0.445312,-0.667969 -0.609375,-0.839844 -0.164062,-0.175781 -0.347656,-0.238281 -0.183594,-0.06641 -0.582031,-0.06641 h -0.234375 v 2.390625 z m 1.15625,-3.304687 h 0.855469 q 0.832031,0 1.039062,-0.07031 0.207031,-0.07031 0.324219,-0.242187 0.117187,-0.171875 0.117187,-0.429688 0,-0.289062 -0.15625,-0.464843 -0.152343,-0.179688 -0.433593,-0.226563 -0.140625,-0.01953 -0.84375,-0.01953 h -0.902344 z"
       id="path62551" />
    <path
       d="m 37.716354,42.983051 q 0,-0.875 0.261719,-1.46875 0.195313,-0.4375 0.53125,-0.785156 0.339844,-0.347656 0.742188,-0.515625 0.535156,-0.226562 1.234375,-0.226562 1.265625,0 2.023437,0.785156 0.761719,0.785156 0.761719,2.183594 0,1.386718 -0.753906,2.171875 -0.753907,0.78125 -2.015625,0.78125 -1.277344,0 -2.03125,-0.777344 -0.753907,-0.78125 -0.753907,-2.148438 z m 1.191407,-0.03906 q 0,0.972656 0.449218,1.476562 0.449219,0.5 1.140625,0.5 0.691407,0 1.132813,-0.496093 0.445312,-0.5 0.445312,-1.496094 0,-0.984375 -0.433593,-1.46875 -0.429688,-0.484375 -1.144532,-0.484375 -0.714843,0 -1.152343,0.492187 -0.4375,0.488282 -0.4375,1.476563 z"
       id="path62553" />
    <path
       d="m 44.177292,40.084614 h 2.289062 q 0.679688,0 1.011719,0.05859 0.335938,0.05469 0.597656,0.234375 0.265625,0.179687 0.441407,0.480468 0.175781,0.296875 0.175781,0.667969 0,0.402344 -0.21875,0.738281 -0.214844,0.335938 -0.585938,0.503907 0.523438,0.152343 0.804688,0.519531 0.28125,0.367187 0.28125,0.863281 0,0.390625 -0.183594,0.761719 -0.179687,0.367187 -0.496094,0.589844 -0.3125,0.21875 -0.773437,0.269531 -0.289063,0.03125 -1.394531,0.03906 h -1.949219 z m 1.15625,0.953125 v 1.324219 h 0.757812 q 0.675782,0 0.839844,-0.01953 0.296875,-0.03516 0.464844,-0.203125 0.171875,-0.171875 0.171875,-0.449218 0,-0.265625 -0.148438,-0.429688 -0.144531,-0.167969 -0.433593,-0.203125 -0.171875,-0.01953 -0.988282,-0.01953 z m 0,2.277344 v 1.53125 h 1.070312 q 0.625,0 0.792969,-0.03516 0.257813,-0.04687 0.417969,-0.226562 0.164062,-0.183594 0.164062,-0.488281 0,-0.257813 -0.125,-0.4375 -0.125,-0.179688 -0.363281,-0.261719 -0.234375,-0.08203 -1.023437,-0.08203 z"
       id="path62555" />
  </g>
  <g
     aria-label="FALL"
     id="text17893-4-7"
     style="font-weight:bold;font-size:8px;line-height:1.25;font-family:Arial;-inkscape-font-specification:'Arial, Bold'">
    <path
       d="m 44.859615,115.19364 v -5.72656 h 3.925782 v 0.96875 h -2.769532 v 1.35547 h 2.390625 v 0.96875 h -2.390625 v 2.43359 z"
       id="path62511" />
    <path
       d="m 54.461178,115.19364 h -1.257813 l -0.5,-1.30078 h -2.289062 l -0.472656,1.30078 h -1.226563 l 2.230469,-5.72656 h 1.222656 z m -2.128906,-2.26562 -0.789063,-2.125 -0.773437,2.125 z"
       id="path62513" />
    <path
       d="m 55.105709,115.19364 v -5.67969 h 1.15625 v 4.71485 h 2.875 v 0.96484 z"
       id="path62515" />
    <path
       d="m 59.992428,115.19364 v -5.67969 h 1.15625 v 4.71485 h 2.875 v 0.96484 z"
       id="path62517" />
  </g>
  <g
     aria-label="BERNOULLI SWITCH"
     id="text38861"
     style="font-weight:bold;font-size:10.6667px;line-height:1.05;font-family:Arial;-inkscape-font-specification:'Arial, Bold';text-align:center;text-anchor:middle">
    <path
       d="m 7.6458431,8.1704741 h 3.0520929 q 0.906253,0 1.348963,0.078125 0.447918,0.072917 0.796877,0.312501 0.354168,0.2395841 0.588544,0.640627 0.234375,0.3958346 0.234375,0.8906277 0,0.53646 -0.291667,0.984378 -0.286459,0.447918 -0.781253,0.671877 0.697919,0.203126 1.07292,0.692711 0.375002,0.489585 0.375002,1.151045 0,0.520835 -0.244793,1.015628 -0.239584,0.489585 -0.66146,0.786461 -0.416668,0.291668 -1.031254,0.359376 -0.385417,0.04167 -1.85938,0.05208 H 7.6458431 Z m 1.5416715,1.2708373 v 1.7656306 h 1.0104194 q 0.901045,0 1.119796,-0.02604 0.395834,-0.04687 0.619793,-0.270834 0.229168,-0.229167 0.229168,-0.59896 0,-0.3541679 -0.197918,-0.5729186 -0.192709,-0.2239591 -0.578126,-0.2708342 -0.229168,-0.026042 -1.317713,-0.026042 z m 0,3.0364676 v 2.041673 h 1.4270874 q 0.833336,0 1.057295,-0.04687 0.343752,-0.0625 0.557294,-0.302084 0.218751,-0.244792 0.218751,-0.651044 0,-0.343751 -0.166668,-0.583335 -0.166667,-0.239584 -0.484376,-0.348959 -0.312501,-0.109376 -1.364588,-0.109376 z"
       id="path62558" />
    <path
       d="M 15.343784,15.805915 V 8.1704741 h 5.661476 v 1.2916707 h -4.119804 v 1.6927142 h 3.833345 v 1.286462 h -3.833345 v 2.078131 h 4.265638 v 1.286463 z"
       id="path62560" />
    <path
       d="M 22.463598,15.805915 V 8.1704741 H 25.7084 q 1.223962,0 1.776047,0.208334 0.557293,0.2031256 0.890628,0.729169 0.333334,0.5260433 0.333334,1.2031289 0,0.859378 -0.50521,1.421879 -0.50521,0.557294 -1.510421,0.703128 0.500001,0.291667 0.822919,0.640627 0.328126,0.348959 0.880211,1.239587 l 0.932295,1.489588 H 27.484447 L 26.36986,14.144451 q -0.593752,-0.890628 -0.812502,-1.119795 -0.218751,-0.234376 -0.463544,-0.317709 -0.244792,-0.08854 -0.776044,-0.08854 h -0.312501 v 3.18751 z m 1.541671,-4.406264 h 1.140629 q 1.109378,0 1.385421,-0.09375 0.276043,-0.09375 0.432293,-0.322918 0.156251,-0.229167 0.156251,-0.572919 0,-0.385417 -0.208334,-0.6197931 -0.203126,-0.2395841 -0.578127,-0.3020843 -0.187501,-0.026042 -1.125004,-0.026042 h -1.203129 z"
       id="path62562" />
    <path
       d="M 30.177164,15.805915 V 8.1704741 h 1.500005 l 3.12501,5.0989749 V 8.1704741 h 1.432296 v 7.6354409 h -1.54688 L 31.60946,10.826732 v 4.979183 z"
       id="path62564" />
    <path
       d="m 37.552188,12.03507 q 0,-1.166671 0.34896,-1.95834 0.260417,-0.5833351 0.708335,-1.0468782 0.453127,-0.4635431 0.989587,-0.6875022 0.713543,-0.3020843 1.645838,-0.3020843 1.687505,0 2.697925,1.0468784 1.015628,1.0468783 1.015628,2.9114673 0,1.848964 -1.005211,2.895843 -1.005212,1.04167 -2.687509,1.04167 -1.70313,0 -2.708341,-1.036462 -1.005212,-1.04167 -1.005212,-2.864592 z m 1.588547,-0.05208 q 0,1.296879 0.59896,1.968756 0.59896,0.666669 1.520838,0.666669 0.921878,0 1.510422,-0.66146 0.593751,-0.666669 0.593751,-1.994798 0,-1.312504 -0.578126,-1.95834 -0.572919,-0.6458352 -1.526047,-0.6458352 -0.953128,0 -1.536463,0.6562522 -0.583335,0.651044 -0.583335,1.968756 z"
       id="path62566" />
    <path
       d="m 46.151172,8.1704741 h 1.541672 v 4.1354299 q 0,0.984378 0.05729,1.276046 0.09896,0.468751 0.468751,0.75521 0.375001,0.281251 1.020837,0.281251 0.656252,0 0.989586,-0.265626 0.333334,-0.270834 0.401043,-0.66146 0.06771,-0.390626 0.06771,-1.296879 V 8.1704741 h 1.541671 v 4.0104289 q 0,1.375005 -0.125,1.942715 -0.125001,0.56771 -0.463543,0.958336 -0.333335,0.390626 -0.895837,0.625002 -0.562501,0.229168 -1.468754,0.229168 -1.093754,0 -1.661464,-0.250001 -0.562502,-0.255209 -0.890628,-0.656252 -0.328126,-0.406252 -0.432293,-0.848961 -0.151042,-0.656252 -0.151042,-1.937506 z"
       id="path62568" />
    <path
       d="M 53.906407,15.805915 V 8.2329743 h 1.541672 v 6.2864777 h 3.833345 v 1.286463 z"
       id="path62570" />
    <path
       d="M 60.422051,15.805915 V 8.2329743 h 1.541672 v 6.2864777 h 3.833345 v 1.286463 z"
       id="path62572" />
    <path
       d="M 66.849154,15.805915 V 8.1704741 h 1.541671 v 7.6354409 z"
       id="path62574" />
    <path
       d="m 17.325561,24.521567 1.500005,-0.145834 q 0.135417,0.755211 0.546877,1.109379 0.416668,0.354167 1.119795,0.354167 0.744794,0 1.119795,-0.312501 0.38021,-0.317709 0.38021,-0.739585 0,-0.270834 -0.161459,-0.458335 -0.156251,-0.192709 -0.552085,-0.333334 -0.270835,-0.09375 -1.234379,-0.333335 -1.239588,-0.307292 -1.739589,-0.755211 -0.703127,-0.63021 -0.703127,-1.536463 0,-0.583335 0.328126,-1.088545 0.333334,-0.510418 0.953128,-0.776044 0.625002,-0.265626 1.505213,-0.265626 1.437504,0 2.161465,0.630211 0.729169,0.63021 0.765627,1.682297 l -1.541671,0.06771 q -0.09896,-0.588543 -0.427085,-0.843753 -0.322918,-0.260417 -0.973961,-0.260417 -0.671877,0 -1.052087,0.276042 -0.244792,0.177084 -0.244792,0.47396 0,0.270834 0.229167,0.463543 0.291668,0.244793 1.416671,0.510419 1.125004,0.265626 1.661464,0.552085 0.541668,0.281251 0.843752,0.776044 0.307293,0.489585 0.307293,1.213545 0,0.656252 -0.364584,1.229171 -0.364585,0.572918 -1.031254,0.854169 -0.666668,0.276043 -1.661463,0.276043 -1.447921,0 -2.223966,-0.666669 -0.776044,-0.671877 -0.927086,-1.953131 z"
       id="path62576" />
    <path
       d="m 25.91413,27.00595 -1.822922,-7.635441 h 1.57813 l 1.151045,5.244808 1.395838,-5.244808 h 1.833339 l 1.338546,5.33335 1.171878,-5.33335 h 1.552089 L 32.2579,27.00595 H 30.622478 L 29.10164,21.297598 27.58601,27.00595 Z"
       id="path62578" />
    <path
       d="M 34.851659,27.00595 V 19.370509 H 36.39333 V 27.00595 Z"
       id="path62580" />
    <path
       d="m 39.58084,27.00595 v -6.34377 h -2.265632 v -1.291671 h 6.067727 v 1.291671 h -2.260424 v 6.34377 z"
       id="path62582" />
    <path
       d="m 49.263162,24.198649 1.494797,0.47396 q -0.343751,1.250004 -1.145837,1.859381 -0.796878,0.604168 -2.026048,0.604168 -1.520838,0 -2.500008,-1.036461 -0.97917,-1.04167 -0.97917,-2.843759 0,-1.906256 0.984378,-2.958343 0.984378,-1.057295 2.58855,-1.057295 1.401046,0 2.276049,0.828128 0.520835,0.489585 0.781252,1.406254 l -1.526046,0.364585 q -0.135417,-0.593752 -0.56771,-0.937503 -0.427085,-0.343751 -1.04167,-0.343751 -0.848961,0 -1.380213,0.609377 -0.526043,0.609377 -0.526043,1.973964 0,1.447921 0.520835,2.062507 0.520835,0.614585 1.354171,0.614585 0.614585,0 1.057295,-0.390626 0.442709,-0.390626 0.635418,-1.229171 z"
       id="path62584" />
    <path
       d="m 52.086088,27.00595 v -7.635441 h 1.541672 v 3.005218 h 3.020843 v -3.005218 h 1.541671 V 27.00595 H 56.648603 V 23.667398 H 53.62776 v 3.338552 z"
       id="path62586" />
  </g>
  <path
     style="fill:#f2f2f2;stroke:#ff0000;stroke-width:0.572;stroke-linecap:butt;stroke-linejoin:miter;stroke-miterlimit:4;stroke-dasharray:none;stroke-dashoffset:0;stroke-opacity:1"
     d="M 69.999118,314.99603 H 4.999937"
     id="path1950-3"
     sodipodi:nodetypes="cc" />
  <path
     style="fill:#f2f2f2;stroke:#ffffff;stroke-width:0.572;stroke-linecap:butt;stroke-linejoin:miter;stroke-miterlimit:4;stroke-dasharray:none;stroke-dashoffset:0;stroke-opacity:1"
     d="M 69.999118,144.99817 H 4.999937"
     id="path1950-3-7"
     sodipodi:nodetypes="cc" />
  <path
     style="fill:none;stroke:#000000;stroke-width:1px;stroke-linecap:round;stroke-linejoin:miter;stroke-opacity:1"
     d="M 11.499855,333.99579 3.4999559,324.99591"
     id="path62190"
     sodipodi:nodetypes="cc" />
  <path
     style="fill:none;stroke:#000000;stroke-width:1px;stroke-linecap:butt;stroke-linejoin:miter;stroke-opacity:1"
     d="m 3.4999559,324.99591 0,-54.99931 7.0845641,-6.99991"
     id="path62192"
     sodipodi:nodetypes="ccc" />
  <path
     style="fill:#000000;stroke:#000000;stroke-width:0.4;stroke-linecap:butt;stroke-linejoin:miter;stroke-miterlimit:4;stroke-dasharray:none;stroke-opacity:1"
     d="m 11.00947,262.60473 -3.9311633,0.89195 2.7037898,2.94773 z"
     id="path64781"
     sodipodi:nodetypes="cccc"
     inkscape:transform-center-x="1.6267422"
     inkscape:transform-center-y="-1.7750163" />
  <g
     id="g91944"
     transform="translate(12.095698,1.7348715)">
    <path
       d="M 25.704371,76.891407 V 76.44349 l 1.617186,-0.0026 v 1.416666 q -0.372395,0.296875 -0.768229,0.447916 -0.395833,0.148438 -0.812499,0.148438 -0.5625,0 -1.023437,-0.239583 -0.458333,-0.242188 -0.692708,-0.697917 -0.234375,-0.455729 -0.234375,-1.018228 0,-0.557292 0.231771,-1.039062 0.234375,-0.484375 0.671875,-0.71875 0.437499,-0.234375 1.007811,-0.234375 0.414063,0 0.747396,0.135417 0.335937,0.132812 0.526041,0.372396 0.190104,0.239583 0.289063,0.624999 l -0.455729,0.125 q -0.08594,-0.291666 -0.213542,-0.458333 -0.127604,-0.166666 -0.364583,-0.265625 -0.236979,-0.101562 -0.526041,-0.101562 -0.346354,0 -0.598958,0.106771 -0.252604,0.104166 -0.408854,0.276041 -0.153646,0.171875 -0.239583,0.377604 -0.145834,0.354166 -0.145834,0.768229 0,0.510416 0.174479,0.854166 0.177084,0.34375 0.513021,0.510416 0.335937,0.166667 0.713541,0.166667 0.328125,0 0.640625,-0.125 0.3125,-0.127604 0.473958,-0.270833 v -0.710937 z"
       id="path91311"
       style="font-size:5.33333px;font-family:Arial;-inkscape-font-specification:'Arial, Normal';text-align:end;text-anchor:end" />
    <path
       d="m 27.647078,78.388802 1.466145,-3.817706 h 0.54427 l 1.562499,3.817706 h -0.57552 l -0.445312,-1.15625 h -1.596354 l -0.41927,1.15625 z m 1.101562,-1.567708 h 1.29427 l -0.398437,-1.057291 q -0.182292,-0.48177 -0.270834,-0.791666 -0.07292,0.367187 -0.205729,0.729166 z"
       id="path91313"
       style="font-size:5.33333px;font-family:Arial;-inkscape-font-specification:'Arial, Normal';text-align:end;text-anchor:end" />
    <path
       d="m 32.199159,78.388802 v -3.367186 h -1.257812 v -0.45052 h 3.02604 v 0.45052 h -1.26302 v 3.367186 z"
       id="path91315"
       style="font-size:5.33333px;font-family:Arial;-inkscape-font-specification:'Arial, Normal';text-align:end;text-anchor:end" />
    <path
       d="m 34.496032,78.388802 v -3.817706 h 2.760415 v 0.45052 H 35.00124 v 1.16927 h 2.111978 v 0.447917 H 35.00124 v 1.299478 h 2.343749 v 0.450521 z"
       id="path91317"
       style="font-size:5.33333px;font-family:Arial;-inkscape-font-specification:'Arial, Normal';text-align:end;text-anchor:end" />
  </g>
  <g
     id="g91918"
     transform="translate(11.917602,0.676738)">
    <path
       d="m 22.363227,88.095566 0.476562,-0.04167 q 0.03385,0.286458 0.15625,0.471354 0.125,0.182291 0.385416,0.296874 0.260417,0.11198 0.585937,0.11198 0.289063,0 0.510417,-0.08594 0.221354,-0.08594 0.328125,-0.234375 0.109375,-0.151041 0.109375,-0.328125 0,-0.179687 -0.104167,-0.312499 -0.104167,-0.135417 -0.34375,-0.226563 -0.153646,-0.0599 -0.679687,-0.184895 -0.526041,-0.127605 -0.736979,-0.239584 -0.273437,-0.143229 -0.408854,-0.354166 -0.132812,-0.213542 -0.132812,-0.476562 0,-0.289063 0.164062,-0.539063 0.164063,-0.252604 0.479167,-0.382812 0.315104,-0.130208 0.70052,-0.130208 0.424479,0 0.747396,0.138021 0.32552,0.135416 0.499999,0.401041 0.174479,0.265625 0.1875,0.601562 l -0.484375,0.03646 q -0.03906,-0.361979 -0.265624,-0.546875 -0.223959,-0.184896 -0.664062,-0.184896 -0.458334,0 -0.669271,0.169271 -0.208333,0.166666 -0.208333,0.403646 0,0.205729 0.148437,0.338541 0.145834,0.132812 0.760417,0.273437 0.617187,0.138021 0.846353,0.242188 0.333333,0.153645 0.492187,0.390624 0.158854,0.234375 0.158854,0.541667 0,0.304687 -0.174479,0.57552 -0.174479,0.268229 -0.502603,0.419271 -0.325521,0.148437 -0.734375,0.148437 -0.518229,0 -0.869791,-0.151041 -0.348958,-0.151042 -0.549479,-0.453125 -0.197917,-0.304687 -0.208333,-0.6875 z"
       id="path91319"
       style="font-size:5.33333px;font-family:Arial;-inkscape-font-specification:'Arial, Normal';text-align:end;text-anchor:end" />
    <path
       d="m 26.759058,89.322128 -1.013021,-3.817706 h 0.518229 l 0.580729,2.502603 q 0.09375,0.393229 0.161458,0.781249 0.145833,-0.611979 0.171875,-0.705728 l 0.726562,-2.578124 h 0.609375 l 0.546875,1.932291 q 0.205729,0.718749 0.296874,1.351561 0.07292,-0.361979 0.190104,-0.830728 l 0.598958,-2.453124 h 0.507813 l -1.046875,3.817706 h -0.486979 l -0.804687,-2.908852 q -0.101562,-0.364583 -0.119791,-0.447917 -0.0599,0.263021 -0.111979,0.447917 l -0.809896,2.908852 z"
       id="path91321"
       style="font-size:5.33333px;font-family:Arial;-inkscape-font-specification:'Arial, Normal';text-align:end;text-anchor:end" />
    <path
       d="m 30.509056,89.322128 1.466145,-3.817706 h 0.54427 l 1.562499,3.817706 h -0.57552 l -0.445312,-1.156249 h -1.596354 l -0.41927,1.156249 z m 1.101562,-1.567707 h 1.29427 L 32.50645,86.69713 q -0.182291,-0.481771 -0.270833,-0.791666 -0.07292,0.367187 -0.205729,0.729166 z"
       id="path91323"
       style="font-size:5.33333px;font-family:Arial;-inkscape-font-specification:'Arial, Normal';text-align:end;text-anchor:end" />
    <path
       d="m 34.485616,89.322128 v -3.817706 h 1.440103 q 0.380208,0 0.580729,0.03646 0.281249,0.04687 0.471354,0.179688 0.190104,0.130208 0.304687,0.367187 0.117187,0.236979 0.117187,0.520833 0,0.486979 -0.309895,0.82552 -0.309896,0.335938 -1.119791,0.335938 h -0.979166 v 1.552082 z m 0.505208,-2.002603 h 0.986978 q 0.489583,0 0.695312,-0.182291 0.205729,-0.182292 0.205729,-0.513021 0,-0.239583 -0.122396,-0.408854 -0.119791,-0.171875 -0.317708,-0.226562 -0.127604,-0.03385 -0.471354,-0.03385 h -0.976561 z"
       id="path91325"
       style="font-size:5.33333px;font-family:Arial;-inkscape-font-specification:'Arial, Normal';text-align:end;text-anchor:end" />
  </g>
  <g
     id="g1182"
     transform="translate(22.707211,-0.3069276)">
    <path
       d="M 16.792291,99.672899 V 96.305718 H 15.53448 v -0.45052 h 3.026039 v 0.45052 h -1.26302 v 3.367181 z"
       id="path91327"
       style="font-size:5.33333px;font-family:Arial;-inkscape-font-specification:'Arial, Normal';text-align:end;text-anchor:end" />
    <path
       d="m 18.828748,97.81353 q 0,-0.950519 0.510417,-1.486977 0.510416,-0.539063 1.317707,-0.539063 0.528646,0 0.953125,0.252604 0.424479,0.252604 0.645833,0.705729 0.223958,0.450521 0.223958,1.023437 0,0.580729 -0.234375,1.039062 -0.234375,0.458333 -0.664062,0.695308 -0.429687,0.23438 -0.927083,0.23438 -0.539062,0 -0.963541,-0.26042 -0.424479,-0.260414 -0.643229,-0.710935 -0.21875,-0.45052 -0.21875,-0.953125 z m 0.520833,0.0078 q 0,0.690104 0.369792,1.088541 0.372395,0.395833 0.932291,0.395833 0.570312,0 0.937499,-0.401042 0.369792,-0.401041 0.369792,-1.13802 0,-0.466145 -0.158854,-0.8125 -0.15625,-0.348957 -0.460937,-0.539062 -0.302084,-0.192707 -0.679688,-0.192707 -0.536458,0 -0.924478,0.369791 -0.385417,0.367188 -0.385417,1.229166 z"
       id="path91329"
       style="font-size:5.33333px;font-family:Arial;-inkscape-font-specification:'Arial, Normal';text-align:end;text-anchor:end" />
    <path
       d="m 24.917287,98.17551 v -0.447918 l 1.617186,-0.0026 v 1.416667 q -0.372395,0.296871 -0.768228,0.447911 -0.395834,0.14844 -0.8125,0.14844 -0.5625,0 -1.023437,-0.239581 -0.458333,-0.242187 -0.692708,-0.697917 -0.234375,-0.455729 -0.234375,-1.018227 0,-0.557293 0.231771,-1.039062 0.234375,-0.484375 0.671875,-0.71875 0.437499,-0.234375 1.007812,-0.234375 0.414062,0 0.747395,0.135417 0.335937,0.132813 0.526041,0.372395 0.190104,0.239583 0.289063,0.625 l -0.455729,0.125 q -0.08594,-0.291667 -0.213542,-0.458333 -0.127604,-0.166667 -0.364583,-0.265625 -0.236979,-0.101562 -0.526041,-0.101562 -0.346354,0 -0.598958,0.10677 -0.252604,0.104167 -0.408854,0.276042 -0.153646,0.171875 -0.239583,0.377604 -0.145834,0.354167 -0.145834,0.768229 0,0.510416 0.174479,0.854166 0.177084,0.34375 0.513021,0.510416 0.335937,0.166667 0.713541,0.166667 0.328125,0 0.640625,-0.125 0.3125,-0.127604 0.473958,-0.270833 V 98.17551 Z"
       id="path91331"
       style="font-size:5.33333px;font-family:Arial;-inkscape-font-specification:'Arial, Normal';text-align:end;text-anchor:end" />
  </g>
  <g
     id="g2468">
    <g
       id="g2866"
       transform="matrix(1.1403853,0,-0.31300292,1.0508295,113.09596,-18.119006)">
      <path
         style="vector-effect:non-scaling-stroke;fill:#f2f2f2;stroke:#ffffff;stroke-width:0.00377953;stroke-linecap:butt;stroke-linejoin:miter;stroke-miterlimit:4;stroke-dasharray:none;stroke-opacity:1;-inkscape-stroke:hairline"
         d="m 16.19833,362.49543 c 2.301437,2.81657 4.301412,8.4999 4.301412,8.4999 0,0 0.116315,3.99994 -1.280744,2.49996 -1.397059,-1.49998 -0.719231,-2.70833 -0.719231,-2.70833 0,0 0.499994,-1.56132 0,-3.29159 -0.499994,-1.73027 -2.301437,-4.99994 -2.301437,-4.99994 z"
         id="path1106" />
      <path
         style="vector-effect:non-scaling-stroke;fill:#f2f2f2;stroke:#ffffff;stroke-width:0.00377953;stroke-linecap:butt;stroke-linejoin:miter;stroke-miterlimit:4;stroke-dasharray:none;stroke-opacity:1;-inkscape-stroke:hairline"
         d="m 24.801154,362.2038 c -2.301437,2.81657 -4.301412,8.4999 -4.301412,8.4999 0,0 -0.116315,3.99994 1.280744,2.49996 1.397059,-1.49998 0.719231,-2.70833 0.719231,-2.70833 0,0 -0.499994,-1.56132 0,-3.29159 0.499994,-1.73027 2.301437,-4.99994 2.301437,-4.99994 z"
         id="path1106-6" />
    </g>
    <g
       aria-label="enom"
       transform="matrix(1.0417408,0,-0.40091468,0.95993168,0,0)"
       id="text5323"
       style="font-size:13.1363px;font-family:Arial;-inkscape-font-specification:'Arial, Normal';fill:#f2f2f2;stroke-width:1.09469">
      <path
         d="m 177.40397,388.02356 1.19304,0.14753 q -0.28222,1.04552 -1.04551,1.6228 -0.76329,0.57728 -1.94992,0.57728 -1.49451,0 -2.37326,-0.91724 -0.87233,-0.92364 -0.87233,-2.58492 0,-1.71901 0.88516,-2.66831 0.88516,-0.94931 2.29629,-0.94931 1.36622,0 2.23214,0.93006 0.86592,0.93006 0.86592,2.617 0,0.10263 -0.006,0.30788 h -5.08006 q 0.0641,1.12249 0.63501,1.71901 0.57086,0.59652 1.42395,0.59652 0.63501,0 1.084,-0.33354 0.449,-0.33354 0.71198,-1.06476 z m -3.7908,-1.86653 h 3.80363 q -0.077,-0.8595 -0.43617,-1.28926 -0.55162,-0.66707 -1.43036,-0.66707 -0.79537,0 -1.34057,0.53238 -0.5388,0.53237 -0.59653,1.42395 z"
         id="path2443" />
      <path
         d="m 180.04663,390.21722 v -6.81189 h 1.0391 v 0.96855 q 0.75046,-1.12249 2.168,-1.12249 0.61576,0 1.1289,0.2245 0.51955,0.21808 0.77612,0.57728 0.25657,0.35919 0.3592,0.85309 0.0641,0.32071 0.0641,1.12249 v 4.18847 h -1.15456 v -4.14357 q 0,-0.70557 -0.1347,-1.05194 -0.1347,-0.35278 -0.48106,-0.55803 -0.33996,-0.21167 -0.80178,-0.21167 -0.73763,0 -1.27643,0.46824 -0.53238,0.46823 -0.53238,1.77673 v 3.72024 z"
         id="path2445" />
      <path
         d="m 186.92266,386.81128 q 0,-1.89219 1.05193,-2.80301 0.87875,-0.75688 2.14234,-0.75688 1.40472,0 2.29629,0.92365 0.89158,0.91723 0.89158,2.54003 0,1.31491 -0.39768,2.07179 -0.39127,0.75046 -1.14815,1.16738 -0.75046,0.41693 -1.64204,0.41693 -1.43036,0 -2.31552,-0.91724 -0.87875,-0.91723 -0.87875,-2.64265 z m 1.18663,0 q 0,1.3085 0.57086,1.96275 0.57087,0.64783 1.43678,0.64783 0.85951,0 1.43037,-0.65425 0.57087,-0.65425 0.57087,-1.99482 0,-1.2636 -0.57728,-1.91143 -0.57087,-0.65425 -1.42396,-0.65425 -0.86591,0 -1.43678,0.64784 -0.57086,0.64783 -0.57086,1.95633 z"
         id="path2447" />
      <path
         d="m 194.65819,390.21722 v -6.81189 h 1.03269 v 0.95572 q 0.32071,-0.50031 0.85309,-0.80177 0.53238,-0.30789 1.21229,-0.30789 0.75687,0 1.23794,0.3143 0.48748,0.3143 0.68632,0.87875 0.80819,-1.19305 2.10386,-1.19305 1.01345,0 1.55865,0.56445 0.54521,0.55804 0.54521,1.72543 v 4.67595 h -1.14814 v -4.2911 q 0,-0.69274 -0.11546,-0.9942 -0.10904,-0.30789 -0.40409,-0.4939 -0.29506,-0.18601 -0.69274,-0.18601 -0.71839,0 -1.19304,0.48107 -0.47465,0.47465 -0.47465,1.52658 v 3.95756 h -1.15456 v -4.4258 q 0,-0.76971 -0.28222,-1.15456 -0.28223,-0.38485 -0.92365,-0.38485 -0.48748,0 -0.9044,0.25657 -0.41051,0.25657 -0.59653,0.75046 -0.18601,0.49389 -0.18601,1.42395 v 3.53423 z"
         id="path2449" />
    </g>
  </g>
</svg>
