<?xml version="1.0" encoding="UTF-8" standalone="no"?>
<!-- Generator: Adobe Illustrator 25.2.3, SVG Export Plug-In . SVG Version: 6.00 Build 0)  -->

<svg
   version="1.0"
   id="svg7595"
   sodipodi:docname="clip_soft_pm6.svg"
   x="0px"
   y="0px"
   width="24"
   height="24"
   viewBox="0 0 24.000001 24"
   enable-background="new 0 0 17.9996 18"
   xml:space="preserve"
   inkscape:version="1.1.1 (3bf5ae0d25, 2021-09-20)"
   xmlns:inkscape="http://www.inkscape.org/namespaces/inkscape"
   xmlns:sodipodi="http://sodipodi.sourceforge.net/DTD/sodipodi-0.dtd"
   xmlns:xlink="http://www.w3.org/1999/xlink"
   xmlns="http://www.w3.org/2000/svg"
   xmlns:svg="http://www.w3.org/2000/svg"><defs
   id="defs67960" />
<sodipodi:namedview
   bordercolor="#666666"
   borderopacity="1.0"
   fit-margin-bottom="0"
   fit-margin-left="0"
   fit-margin-right="0"
   fit-margin-top="0"
   id="base"
   inkscape:current-layer="svg7595"
   inkscape:cx="1.375"
   inkscape:cy="6.46875"
   inkscape:document-units="mm"
   inkscape:pageopacity="0.0"
   inkscape:pageshadow="2"
   inkscape:window-height="1057"
   inkscape:window-maximized="1"
   inkscape:window-width="1920"
   inkscape:window-x="1592"
   inkscape:window-y="-8"
   inkscape:zoom="16"
   pagecolor="#ffffff"
   showgrid="true"
   units="px"
   inkscape:pagecheckerboard="0"
   showguides="true"
   objecttolerance="1"
   gridtolerance="10"
   guidetolerance="1"
   inkscape:showpageshadow="false">
	<inkscape:grid
   type="xygrid"
   id="grid68042" /><sodipodi:guide
   position="0,18"
   orientation="0,17.999599"
   id="guide68044" /><sodipodi:guide
   position="18,33.000001"
   orientation="18,0"
   id="guide68046" /><sodipodi:guide
   position="17.9996,0"
   orientation="0,-17.999599"
   id="guide68048" /><sodipodi:guide
   position="0,0"
   orientation="-18,0"
   id="guide68050" /></sodipodi:namedview>
<rect
   style="fill:#999999;stroke:#000000;stroke-width:0.372093;stroke-miterlimit:4;stroke-dasharray:none;stroke-opacity:1"
   id="rect109948"
   width="23.627907"
   height="23.627907"
   x="0.1860465"
   y="0.1860465"
   ry="2.9534883" /><g
   id="layer1"
   transform="translate(-46.755712,-67.833036)"
   inkscape:groupmode="layer"
   inkscape:label="Layer 1">
	<g
   id="g67940">
		<defs
   id="defs67935">
			<rect
   id="SVGID_1_"
   x="46.755322"
   y="67.833023"
   width="18"
   height="18" />
		</defs>
		<clipPath
   id="SVGID_2_">
			<use
   xlink:href="#SVGID_1_"
   overflow="visible"
   id="use67937"
   x="0"
   y="0"
   width="100%"
   height="100%" />
		</clipPath>
	</g>
</g>



<g
   aria-label="SOFT"
   transform="scale(1.0000101,0.99998985)"
   id="text11296"
   style="font-size:8.00008px;line-height:1.25;font-family:Arial;-inkscape-font-specification:'Arial, Normal';font-variant-ligatures:none;text-align:center;text-anchor:middle"><path
     d="M 1.5859306,8.5978066 2.3007815,8.535306 q 0.050782,0.4296918 0.2343774,0.7070383 0.1875018,0.2734403 0.5781308,0.445317 0.3906289,0.1679704 0.878915,0.1679704 0.4335981,0 0.7656327,-0.1289075 Q 5.089872,9.5978166 5.2500298,9.3751582 5.4140939,9.1485934 5.4140939,8.8829657 5.4140939,8.6134318 5.2578424,8.414211 5.1015908,8.211084 4.7422122,8.0743639 4.5117412,7.9845192 3.7226708,7.7970174 2.9336004,7.6056092 2.6171909,7.4376388 2.2070306,7.2227929 2.0039036,6.9063834 1.8046828,6.5860677 1.8046828,6.1915325 q 0,-0.4335981 0.2460962,-0.8086018 0.2460962,-0.3789101 0.7187572,-0.5742245 0.472661,-0.1953145 1.0507918,-0.1953145 0.6367251,0 1.121105,0.2070334 0.4882861,0.203127 0.7500075,0.6015685 0.2617213,0.3984415 0.2812528,0.9023528 L 5.2461235,6.3790344 Q 5.1875292,5.8360602 4.847682,5.5587137 4.5117412,5.2813672 3.8515783,5.2813672 q -0.6875069,0 -1.0039163,0.2539088 -0.3125031,0.2500025 -0.3125031,0.6054748 0,0.3085968 0.2226584,0.5078176 Q 2.9765695,6.8477891 3.8984538,7.0587287 4.8242443,7.265762 5.1679977,7.4220136 5.6680027,7.6524847 5.9062864,8.007957 6.14457,8.359523 6.14457,8.8204651 q 0,0.4570358 -0.2617214,0.8632899 -0.2617213,0.402348 -0.7539138,0.628913 -0.4882861,0.222658 -1.1015735,0.222658 -0.7773515,0 -1.3047006,-0.226565 Q 2.199218,10.082196 1.8984337,9.629067 1.6015558,9.1720311 1.5859306,8.5978066 Z"
     id="path40418" /><path
     d="m 6.9492655,7.6485784 q 0,-1.4257956 0.7656327,-2.2304911 0.7656327,-0.8086019 1.9765823,-0.8086019 0.7929765,0 1.4297015,0.3789101 0.636725,0.37891 0.96876,1.0586043 0.335941,0.6757881 0.335941,1.5351717 0,0.8711024 -0.351566,1.5586093 -0.351566,0.6875069 -0.996104,1.0429792 -0.644538,0.351566 -1.3906388,0.351566 -0.8086018,0 -1.445327,-0.390629 Q 7.6055221,9.7540682 7.2773938,9.0782802 6.9492655,8.4024922 6.9492655,7.6485784 Z m 0.7812579,0.011719 q 0,1.0351667 0.554693,1.6328289 0.5585994,0.5937559 1.3984515,0.5937559 0.8554771,0 1.4062641,-0.6015685 0.554693,-0.6015685 0.554693,-1.7070483 0,-0.6992258 -0.238284,-1.2187622 -0.234377,-0.523443 -0.691413,-0.8086021 -0.453129,-0.2890654 -1.0195412,-0.2890654 -0.8046956,0 -1.3867326,0.5546931 -0.5781308,0.5507867 -0.5781308,1.8437686 z"
     id="path40420" /><path
     d="m 13.441519,10.437669 v -5.72662 h 3.86332 v 0.675788 h -3.1055 v 1.7734552 h 2.687527 v 0.675788 h -2.687527 v 2.6015888 z"
     id="path40422" /><path
     d="M 19.746268,10.437669 V 5.386837 H 17.85953 V 4.711049 h 4.539108 v 0.675788 h -1.89455 v 5.050832 z"
     id="path40424" /></g><g
   aria-label="±6V"
   transform="scale(1.0000101,0.99998985)"
   id="text22134"
   style="font-size:8.00008px;line-height:1.25;font-family:Arial;-inkscape-font-specification:'Arial, Normal';font-variant-ligatures:none;text-align:center;text-anchor:middle"><path
     d="M 6.6543409,18.234622 V 16.660388 H 5.0957315 v -0.65235 h 1.5586094 v -1.55861 H 7.31841 v 1.55861 h 1.5586094 v 0.65235 H 7.31841 v 1.574234 z m 2.2226785,1.015635 H 5.0957315 v -0.656256 h 3.7812879 z"
     id="path40427" /><path
     d="m 13.162218,14.925995 -0.699225,0.05469 q -0.09375,-0.414066 -0.265628,-0.601568 -0.285159,-0.300784 -0.703132,-0.300784 -0.335941,0 -0.58985,0.187502 -0.332034,0.24219 -0.523442,0.707038 -0.191409,0.464848 -0.199221,1.324232 0.253909,-0.386723 0.6211,-0.574225 0.367191,-0.187501 0.769539,-0.187501 0.703132,0 1.195324,0.519536 0.496099,0.51563 0.496099,1.335951 0,0.539068 -0.234377,1.003916 -0.230471,0.460942 -0.636726,0.707039 -0.406254,0.246096 -0.921884,0.246096 -0.878915,0 -1.433608,-0.644538 -0.5546929,-0.648444 -0.5546929,-2.132834 0,-1.660173 0.6132869,-2.414087 0.535162,-0.656256 1.441421,-0.656256 0.675788,0 1.10548,0.37891 0.433598,0.37891 0.519536,1.046885 z m -2.871122,2.468775 q 0,0.363285 0.152345,0.69532 0.156252,0.332034 0.433598,0.507817 0.277347,0.171877 0.582037,0.171877 0.445317,0 0.765633,-0.359379 0.320316,-0.359378 0.320316,-0.976572 0,-0.593756 -0.31641,-0.933603 -0.316409,-0.343753 -0.796883,-0.343753 -0.476567,0 -0.808601,0.343753 -0.332035,0.339847 -0.332035,0.89454 z"
     id="path40429" /><path
     d="m 15.884901,19.250257 -2.218772,-5.726619 h 0.820321 l 1.488296,4.160198 q 0.179689,0.500005 0.300784,0.937509 0.132814,-0.468755 0.308597,-0.937509 l 1.546891,-4.160198 h 0.773445 l -2.24221,5.726619 z"
     id="path40431" /></g></svg>
