<?xml version="1.0" encoding="UTF-8" standalone="no"?>
<!-- Generator: Adobe Illustrator 25.2.3, SVG Export Plug-In . SVG Version: 6.00 Build 0)  -->

<svg
   version="1.0"
   id="svg7595"
   sodipodi:docname="clip_hard_pm5.svg"
   x="0px"
   y="0px"
   width="24"
   height="24"
   viewBox="0 0 24.000001 24"
   enable-background="new 0 0 17.9996 18"
   xml:space="preserve"
   inkscape:version="1.1.1 (3bf5ae0d25, 2021-09-20)"
   xmlns:inkscape="http://www.inkscape.org/namespaces/inkscape"
   xmlns:sodipodi="http://sodipodi.sourceforge.net/DTD/sodipodi-0.dtd"
   xmlns:xlink="http://www.w3.org/1999/xlink"
   xmlns="http://www.w3.org/2000/svg"
   xmlns:svg="http://www.w3.org/2000/svg"><defs
   id="defs67960" />
<sodipodi:namedview
   bordercolor="#666666"
   borderopacity="1.0"
   fit-margin-bottom="0"
   fit-margin-left="0"
   fit-margin-right="0"
   fit-margin-top="0"
   id="base"
   inkscape:current-layer="svg7595"
   inkscape:cx="1.375"
   inkscape:cy="6.46875"
   inkscape:document-units="mm"
   inkscape:pageopacity="0.0"
   inkscape:pageshadow="2"
   inkscape:window-height="1057"
   inkscape:window-maximized="1"
   inkscape:window-width="1920"
   inkscape:window-x="1592"
   inkscape:window-y="-8"
   inkscape:zoom="16"
   pagecolor="#ffffff"
   showgrid="true"
   units="px"
   inkscape:pagecheckerboard="0"
   showguides="true"
   objecttolerance="1"
   gridtolerance="10"
   guidetolerance="1"
   inkscape:showpageshadow="false">
	<inkscape:grid
   type="xygrid"
   id="grid68042" /><sodipodi:guide
   position="0,18"
   orientation="0,17.999599"
   id="guide68044" /><sodipodi:guide
   position="18,33.000001"
   orientation="18,0"
   id="guide68046" /><sodipodi:guide
   position="17.9996,0"
   orientation="0,-17.999599"
   id="guide68048" /><sodipodi:guide
   position="0,0"
   orientation="-18,0"
   id="guide68050" /></sodipodi:namedview>
<rect
   style="fill:#999999;stroke:#000000;stroke-width:0.372093;stroke-miterlimit:4;stroke-dasharray:none;stroke-opacity:1"
   id="rect109948"
   width="23.627907"
   height="23.627907"
   x="0.1860465"
   y="0.1860465"
   ry="2.9534883" /><g
   id="layer1"
   transform="translate(-46.755712,-67.833036)"
   inkscape:groupmode="layer"
   inkscape:label="Layer 1">
	<g
   id="g67940">
		<defs
   id="defs67935">
			<rect
   id="SVGID_1_"
   x="46.755322"
   y="67.833023"
   width="18"
   height="18" />
		</defs>
		<clipPath
   id="SVGID_2_">
			<use
   xlink:href="#SVGID_1_"
   overflow="visible"
   id="use67937"
   x="0"
   y="0"
   width="100%"
   height="100%" />
		</clipPath>
	</g>
</g>



<g
   aria-label="HARD"
   transform="scale(1.0000101,0.99998985)"
   id="text11296"
   style="font-size:8.00008px;line-height:1.25;font-family:Arial;-inkscape-font-specification:'Arial, Normal';font-variant-ligatures:none;text-align:center;text-anchor:middle"><path
     d="M 1.199208,10.437669 V 4.711049 H 1.9570281 V 7.062635 H 4.9336204 V 4.711049 h 0.7578201 v 5.72662 H 4.9336204 V 7.738423 H 1.9570281 v 2.699246 z"
     id="path40662" /><path
     d="m 6.3242592,10.437669 2.1992407,-5.72662 h 0.8164145 l 2.3437736,5.72662 h -0.86329 L 10.152422,8.7032764 H 7.7578673 L 7.1289547,10.437669 Z M 7.9766195,8.0860828 H 9.9180451 L 9.3203829,6.5001294 Q 9.0469427,5.7774659 8.9141288,5.3126175 8.8047527,5.8634042 8.605532,6.4063784 Z"
     id="path40664" /><path
     d="m 12.300881,10.437669 v -5.72662 h 2.539088 q 0.765633,0 1.164074,0.1562515 0.398442,0.1523453 0.636725,0.5429742 0.238284,0.3906289 0.238284,0.8632899 0,0.6093811 -0.394535,1.027354 -0.394536,0.417973 -1.218763,0.5312554 0.300785,0.1445327 0.457036,0.2851591 0.332035,0.3046905 0.628913,0.7617263 l 0.996104,1.5586096 H 16.394672 L 15.636852,9.2462506 Q 15.304817,8.7306205 15.089971,8.4571802 14.875126,8.18374 14.703249,8.0743639 14.535278,7.9649878 14.359495,7.9220186 14.230588,7.8946746 13.937616,7.8946746 h -0.878915 v 2.5429944 z m 0.75782,-3.199251 h 1.628923 q 0.519536,0 0.812508,-0.1054698 0.292971,-0.1093761 0.445317,-0.3437534 0.152345,-0.2382837 0.152345,-0.5156302 0,-0.4062541 -0.296878,-0.6679754 -0.292972,-0.2617214 -0.929697,-0.2617214 h -1.812518 z"
     id="path40666" /><path
     d="m 18.066563,10.437669 v -5.72662 h 1.972676 q 0.667976,0 1.019542,0.082032 0.492192,0.1132824 0.839852,0.4101604 0.453129,0.3828163 0.675788,0.9804786 0.226565,0.5937559 0.226565,1.3593886 0,0.6523502 -0.152346,1.1562615 -0.152345,0.5039113 -0.390629,0.8359459 -0.238283,0.3281283 -0.523442,0.519536 -0.281253,0.187502 -0.683601,0.28516 -0.398442,0.09766 -0.917978,0.09766 z m 0.75782,-0.6757882 h 1.222669 q 0.566412,0 0.886727,-0.1054698 0.324222,-0.1054698 0.51563,-0.296878 0.269534,-0.2695339 0.417973,-0.7226635 0.152346,-0.4570358 0.152346,-1.1054798 0,-0.8984465 -0.296878,-1.3789201 Q 21.429878,5.6680898 21.007999,5.5040256 20.703308,5.386837 20.02752,5.386837 h -1.203137 z"
     id="path40668" /></g><g
   aria-label="±5V"
   transform="scale(1.0000101,0.99998985)"
   id="text22134"
   style="font-size:13.3334px;line-height:1.25;font-family:Arial;-inkscape-font-specification:Arial;font-variant-ligatures:none;text-align:center;text-anchor:middle"><path
     d="M 6.6543409,18.234622 V 16.660388 H 5.0957315 v -0.65235 h 1.5586094 v -1.55861 H 7.31841 v 1.55861 h 1.5586094 v 0.65235 H 7.31841 v 1.574234 z m 2.2226785,1.015635 H 5.0957315 v -0.656256 h 3.7812879 z"
     style="font-size:8.00008px;-inkscape-font-specification:'Arial, Normal'"
     id="path40671" /><path
     d="m 9.5137444,17.750242 0.7382886,-0.0625 q 0.08203,0.539068 0.37891,0.812508 0.300784,0.269534 0.722664,0.269534 0.507817,0 0.859383,-0.382816 0.351566,-0.382817 0.351566,-1.015636 0,-0.601568 -0.339847,-0.949228 -0.335941,-0.34766 -0.882821,-0.34766 -0.339847,0 -0.613288,0.156252 -0.27344,0.152345 -0.429691,0.398441 l -0.6601633,-0.08594 0.5546933,-2.941436 h 2.847684 v 0.671882 h -2.285179 l -0.308596,1.539078 q 0.51563,-0.359379 1.082042,-0.359379 0.750007,0 1.265637,0.519537 0.51563,0.519536 0.51563,1.335951 0,0.777351 -0.453129,1.343763 -0.550787,0.69532 -1.503921,0.69532 -0.781258,0 -1.277357,-0.437505 Q 9.5840576,18.472904 9.5137444,17.75024 Z"
     style="font-size:8.00008px;-inkscape-font-specification:'Arial, Normal'"
     id="path40673" /><path
     d="m 15.884901,19.250257 -2.218772,-5.726619 h 0.820321 l 1.488296,4.160198 q 0.179689,0.500005 0.300784,0.937509 0.132814,-0.468755 0.308597,-0.937509 l 1.546891,-4.160198 h 0.773445 l -2.24221,5.726619 z"
     style="font-size:8.00008px;-inkscape-font-specification:'Arial, Normal'"
     id="path40675" /></g></svg>
