<?xml version="1.0" encoding="UTF-8" standalone="no"?>
<svg
   xmlns:dc="http://purl.org/dc/elements/1.1/"
   xmlns:cc="http://creativecommons.org/ns#"
   xmlns:rdf="http://www.w3.org/1999/02/22-rdf-syntax-ns#"
   xmlns:svg="http://www.w3.org/2000/svg"
   xmlns="http://www.w3.org/2000/svg"
   xmlns:sodipodi="http://sodipodi.sourceforge.net/DTD/sodipodi-0.dtd"
   xmlns:inkscape="http://www.inkscape.org/namespaces/inkscape"
   inkscape:version="1.0 (4035a4fb49, 2020-05-01)"
   sodipodi:docname="mode_2.svg"
   xml:space="preserve"
   enable-background="new 0 0 17.85552 17.85938"
   viewBox="0 0 19.993175 19.956924"
   height="19.956924"
   width="19.993176"
   y="0px"
   x="0px"
   id="svg111794"
   version="1.0"><metadata
   id="metadata15"><rdf:RDF><cc:Work
       rdf:about=""><dc:format>image/svg+xml</dc:format><dc:type
         rdf:resource="http://purl.org/dc/dcmitype/StillImage" /><dc:title></dc:title></cc:Work></rdf:RDF></metadata><defs
   id="defs13">
	
	
	
</defs><sodipodi:namedview
   units="px"
   inkscape:current-layer="svg111794"
   inkscape:window-maximized="1"
   inkscape:window-y="-8"
   inkscape:window-x="1912"
   inkscape:cy="5.4814736"
   inkscape:cx="25.810737"
   inkscape:zoom="17.18337"
   showgrid="false"
   id="namedview11"
   inkscape:window-height="1017"
   inkscape:window-width="1920"
   inkscape:pageshadow="2"
   inkscape:pageopacity="0"
   guidetolerance="10"
   gridtolerance="10"
   objecttolerance="10"
   borderopacity="1"
   bordercolor="#666666"
   pagecolor="#ffffff"
   inkscape:document-rotation="0"
   fit-margin-top="0"
   fit-margin-left="0"
   fit-margin-right="0"
   fit-margin-bottom="0" />

<g
   style="font-style:normal;font-variant:normal;font-weight:normal;font-stretch:normal;font-size:17.8739px;line-height:100%;font-family:Arial;-inkscape-font-specification:Arial;text-align:center;text-decoration:none;text-decoration-line:none;text-decoration-color:#000000;letter-spacing:0px;word-spacing:0px;text-anchor:middle;fill:#000000;stroke:none;stroke-width:0.703935px;stroke-linecap:butt;stroke-linejoin:miter;stroke-opacity:1;stop-color:#000000"
   id="text839"
   aria-label="O"><path
     id="path841"
     style="font-style:normal;font-variant:normal;font-weight:normal;font-stretch:normal;font-family:Arial;-inkscape-font-specification:Arial;stroke-width:0.703935px"
     d="M 3.878617,10.148648 Q 3.878617,6.9631138 5.5892051,5.1652508 7.2997931,3.3586604 10.005315,3.3586604 11.776995,3.3586604 13.199576,4.2052269 14.622157,5.0517935 15.363994,6.5703767 16.114558,8.0802325 16.114558,10.00028 16.114558,11.946511 15.329084,13.482549 14.54361,15.018587 13.103574,15.812789 11.663538,16.598263 9.9965875,16.598263 8.1899971,16.598263 6.7674162,15.725514 5.3448354,14.852765 4.6117262,13.342909 3.878617,11.833053 3.878617,10.148648 Z M 5.624115,10.17483 Q 5.624115,12.487615 6.8634186,13.822921 8.1114497,15.149499 9.98786,15.149499 11.89918,15.149499 13.129756,13.805466 14.36906,12.461432 14.36906,9.9915528 14.36906,8.4293321 13.836683,7.2685759 13.313034,6.0990923 12.291917,5.4619855 11.279529,4.8161512 10.014042,4.8161512 8.2161796,4.8161512 6.9157836,6.0554548 5.624115,7.2860309 5.624115,10.17483 Z" /></g></svg>
