<?xml version="1.0" encoding="UTF-8" standalone="no"?>
<!-- Generator: Adobe Illustrator 25.2.3, SVG Export Plug-In . SVG Version: 6.00 Build 0)  -->

<svg
   version="1.0"
   id="svg7595"
   sodipodi:docname="mode_2.svg"
   x="0px"
   y="0px"
   width="24"
   height="24"
   viewBox="0 0 24.000001 24"
   enable-background="new 0 0 17.9996 18"
   xml:space="preserve"
   inkscape:version="1.1.1 (3bf5ae0d25, 2021-09-20)"
   xmlns:inkscape="http://www.inkscape.org/namespaces/inkscape"
   xmlns:sodipodi="http://sodipodi.sourceforge.net/DTD/sodipodi-0.dtd"
   xmlns:xlink="http://www.w3.org/1999/xlink"
   xmlns="http://www.w3.org/2000/svg"
   xmlns:svg="http://www.w3.org/2000/svg"><defs
   id="defs67960" />
<sodipodi:namedview
   bordercolor="#666666"
   borderopacity="1.0"
   fit-margin-bottom="0"
   fit-margin-left="0"
   fit-margin-right="0"
   fit-margin-top="0"
   id="base"
   inkscape:current-layer="svg7595"
   inkscape:cx="4.84375"
   inkscape:cy="13.03125"
   inkscape:document-units="mm"
   inkscape:pageopacity="0.0"
   inkscape:pageshadow="2"
   inkscape:window-height="837"
   inkscape:window-maximized="1"
   inkscape:window-width="1600"
   inkscape:window-x="-8"
   inkscape:window-y="-8"
   inkscape:zoom="16"
   pagecolor="#ffffff"
   showgrid="true"
   units="px"
   inkscape:pagecheckerboard="0"
   showguides="true"
   objecttolerance="1"
   gridtolerance="10"
   guidetolerance="1">
	<inkscape:grid
   type="xygrid"
   id="grid68042" /><sodipodi:guide
   position="0,18"
   orientation="0,17.999599"
   id="guide68044" /><sodipodi:guide
   position="17.9996,18"
   orientation="18,0"
   id="guide68046" /><sodipodi:guide
   position="17.9996,0"
   orientation="0,-17.999599"
   id="guide68048" /><sodipodi:guide
   position="0,0"
   orientation="-18,0"
   id="guide68050" /></sodipodi:namedview>
<rect
   style="fill:#999999;stroke:#000000;stroke-width:0.377953;stroke-miterlimit:4;stroke-dasharray:none;stroke-opacity:1"
   id="rect109948"
   width="24"
   height="24"
   x="0"
   y="0"
   ry="3" /><g
   id="layer1"
   transform="translate(-46.755712,-67.833036)"
   inkscape:groupmode="layer"
   inkscape:label="Layer 1">
	<g
   id="g67940">
		<defs
   id="defs67935">
			<rect
   id="SVGID_1_"
   x="46.755322"
   y="67.833023"
   width="18"
   height="18" />
		</defs>
		<clipPath
   id="SVGID_2_">
			<use
   xlink:href="#SVGID_1_"
   overflow="visible"
   id="use67937"
   x="0"
   y="0"
   width="100%"
   height="100%" />
		</clipPath>
	</g>
</g>



<g
   aria-label="Off"
   id="text169233"
   style="font-size:10.6667px;line-height:0.95;font-family:'Yu Gothic';-inkscape-font-specification:'Yu Gothic, Normal';font-variant-ligatures:none;text-align:center;letter-spacing:0px;word-spacing:-1px;text-anchor:middle"><path
     d="m 8.0745301,7.8801826 q 1.489588,0 2.3645909,1.1927121 0.791669,1.0833363 0.791669,2.8281343 0,2.000006 -1.015628,3.114593 -0.8541695,0.932294 -2.1406319,0.932294 -1.4895881,0 -2.3645908,-1.19792 -0.7916692,-1.083337 -0.7916692,-2.822926 0,-2.000006 1.0260449,-3.1198012 0.8541694,-0.9270862 2.1302151,-0.9270862 z m 0,0.6093769 q -1.161462,0 -1.8177141,1.0000032 -0.5937519,0.9062533 -0.5937519,2.4218823 0,1.729172 0.7656275,2.656259 0.640627,0.770835 1.6458385,0.770835 1.1666703,0 1.8229224,-1.005211 0.5885435,-0.906253 0.5885435,-2.421883 0,-1.73438 -0.760419,-2.6510497 Q 9.0901583,8.4895595 8.0745301,8.4895595 Z"
     id="path234913" /><path
     d="m 15.444345,7.9270577 -0.09375,0.5416684 Q 15.121427,8.421851 14.86101,8.421851 q -0.463543,0 -0.661461,0.2395841 -0.171875,0.2083339 -0.171875,0.6510437 v 1.1510452 h 1.260421 v 0.531252 h -1.260421 v 4.802098 h -0.661461 v -4.802098 h -0.989586 v -0.531252 h 0.989586 V 9.2916454 q 0,-1.4114628 1.416672,-1.4114628 0.239584,0 0.66146,0.046875 z"
     id="path234915" /><path
     d="m 19.126648,7.9270577 -0.09375,0.5416684 Q 18.80373,8.421851 18.543313,8.421851 q -0.463543,0 -0.661461,0.2395841 -0.171875,0.2083339 -0.171875,0.6510437 v 1.1510452 h 1.26042 v 0.531252 h -1.26042 v 4.802098 H 17.048516 V 10.994776 H 16.05893 v -0.531252 h 0.989586 V 9.2916454 q 0,-1.4114628 1.416672,-1.4114628 0.239584,0 0.66146,0.046875 z"
     id="path234917" /></g></svg>
