<?xml version="1.0" encoding="UTF-8" standalone="no"?>
<!-- Generator: Adobe Illustrator 25.2.3, SVG Export Plug-In . SVG Version: 6.00 Build 0)  -->

<svg
   version="1.0"
   id="svg7595"
   sodipodi:docname="op_AND.svg"
   x="0px"
   y="0px"
   width="24"
   height="24"
   viewBox="0 0 24.000001 24"
   enable-background="new 0 0 17.9996 18"
   xml:space="preserve"
   inkscape:version="1.1.1 (3bf5ae0d25, 2021-09-20)"
   xmlns:inkscape="http://www.inkscape.org/namespaces/inkscape"
   xmlns:sodipodi="http://sodipodi.sourceforge.net/DTD/sodipodi-0.dtd"
   xmlns:xlink="http://www.w3.org/1999/xlink"
   xmlns="http://www.w3.org/2000/svg"
   xmlns:svg="http://www.w3.org/2000/svg"><defs
   id="defs67960" />
<sodipodi:namedview
   bordercolor="#666666"
   borderopacity="1.0"
   fit-margin-bottom="0"
   fit-margin-left="0"
   fit-margin-right="0"
   fit-margin-top="0"
   id="base"
   inkscape:current-layer="svg7595"
   inkscape:cx="11.375"
   inkscape:cy="8.78125"
   inkscape:document-units="mm"
   inkscape:pageopacity="0.0"
   inkscape:pageshadow="2"
   inkscape:window-height="1057"
   inkscape:window-maximized="1"
   inkscape:window-width="1920"
   inkscape:window-x="1592"
   inkscape:window-y="-8"
   inkscape:zoom="16"
   pagecolor="#ffffff"
   showgrid="true"
   units="px"
   inkscape:pagecheckerboard="0"
   showguides="true"
   objecttolerance="1"
   gridtolerance="10"
   guidetolerance="1"
   inkscape:showpageshadow="false">
	<inkscape:grid
   type="xygrid"
   id="grid68042" /><sodipodi:guide
   position="0,18"
   orientation="0,17.999599"
   id="guide68044" /><sodipodi:guide
   position="18,33.000001"
   orientation="18,0"
   id="guide68046" /><sodipodi:guide
   position="17.9996,0"
   orientation="0,-17.999599"
   id="guide68048" /><sodipodi:guide
   position="0,0"
   orientation="-18,0"
   id="guide68050" /></sodipodi:namedview>
<rect
   style="fill:#999999;stroke:#000000;stroke-width:0.372093;stroke-miterlimit:4;stroke-dasharray:none;stroke-opacity:1"
   id="rect109948"
   width="23.627907"
   height="23.627907"
   x="0.1860465"
   y="0.1860465"
   ry="2.9534883" /><g
   id="layer1"
   transform="translate(-46.755712,-67.833036)"
   inkscape:groupmode="layer"
   inkscape:label="Layer 1">
	<g
   id="g67940">
		<defs
   id="defs67935">
			<rect
   id="SVGID_1_"
   x="46.755322"
   y="67.833023"
   width="18"
   height="18" />
		</defs>
		<clipPath
   id="SVGID_2_">
			<use
   xlink:href="#SVGID_1_"
   overflow="visible"
   id="use67937"
   x="0"
   y="0"
   width="100%"
   height="100%" />
		</clipPath>
	</g>
</g>



<g
   aria-label="AND"
   id="text7286"
   style="font-stretch:condensed;font-size:9.33333px;line-height:1.25;font-family:Arial;-inkscape-font-specification:'Arial, Condensed';font-variant-ligatures:none;text-align:center;text-anchor:middle"><path
     d="M 3.949547,15.342772 6.0550151,8.6617842 H 6.8343117 L 9.0764984,15.342772 H 8.2470716 L 7.609051,13.319335 H 5.3212913 L 4.7197291,15.342772 Z M 5.5309267,12.599283 H 7.3857438 L 6.8160825,10.749023 Q 6.5517597,9.8968098 6.4287128,9.3636069 6.3238952,10.006185 6.132489,10.639648 Z"
     id="path3074" /><path
     d="M 9.6324879,15.342772 V 8.6617842 h 0.7428381 l 2.880208,5.2454408 V 8.6617842 h 0.692708 v 6.6809878 h -0.742839 l -2.87565,-5.249999 v 5.249999 z"
     id="path3076" /><path
     d="M 15.160481,15.342772 V 8.6617842 h 1.891275 q 0.701823,0 1.066406,0.1230469 0.478516,0.1595051 0.829427,0.5833331 0.350911,0.423828 0.546875,1.0709628 0.195963,0.642578 0.195963,1.526693 0,1.134765 -0.332682,1.927733 -0.332682,0.788411 -0.856771,1.121094 -0.519531,0.328125 -1.362629,0.328125 z M 15.88509,14.55436 h 1.166666 q 0.70638,0 1.070963,-0.227864 0.364584,-0.232422 0.560547,-0.742838 0.259766,-0.679037 0.259766,-1.626953 0,-1.016276 -0.277995,-1.595052 Q 18.3916,9.7783203 17.958657,9.5823568 17.66699,9.4501954 17.033527,9.4501954 H 15.88509 Z"
     id="path3078" /></g></svg>
