<?xml version="1.0" encoding="UTF-8" standalone="no"?>
<!-- Generator: Adobe Illustrator 25.2.3, SVG Export Plug-In . SVG Version: 6.00 Build 0)  -->

<svg
   version="1.0"
   id="svg7595"
   sodipodi:docname="op_NAND.svg"
   x="0px"
   y="0px"
   width="24"
   height="24"
   viewBox="0 0 24.000001 24"
   enable-background="new 0 0 17.9996 18"
   xml:space="preserve"
   inkscape:version="1.1.1 (3bf5ae0d25, 2021-09-20)"
   xmlns:inkscape="http://www.inkscape.org/namespaces/inkscape"
   xmlns:sodipodi="http://sodipodi.sourceforge.net/DTD/sodipodi-0.dtd"
   xmlns:xlink="http://www.w3.org/1999/xlink"
   xmlns="http://www.w3.org/2000/svg"
   xmlns:svg="http://www.w3.org/2000/svg"><defs
   id="defs67960" />
<sodipodi:namedview
   bordercolor="#666666"
   borderopacity="1.0"
   fit-margin-bottom="0"
   fit-margin-left="0"
   fit-margin-right="0"
   fit-margin-top="0"
   id="base"
   inkscape:current-layer="svg7595"
   inkscape:cx="11.375"
   inkscape:cy="8.78125"
   inkscape:document-units="mm"
   inkscape:pageopacity="0.0"
   inkscape:pageshadow="2"
   inkscape:window-height="1057"
   inkscape:window-maximized="1"
   inkscape:window-width="1920"
   inkscape:window-x="1592"
   inkscape:window-y="-8"
   inkscape:zoom="16"
   pagecolor="#ffffff"
   showgrid="true"
   units="px"
   inkscape:pagecheckerboard="0"
   showguides="true"
   objecttolerance="1"
   gridtolerance="10"
   guidetolerance="1"
   inkscape:showpageshadow="false">
	<inkscape:grid
   type="xygrid"
   id="grid68042" /><sodipodi:guide
   position="0,18"
   orientation="0,17.999599"
   id="guide68044" /><sodipodi:guide
   position="18,33.000001"
   orientation="18,0"
   id="guide68046" /><sodipodi:guide
   position="17.9996,0"
   orientation="0,-17.999599"
   id="guide68048" /><sodipodi:guide
   position="0,0"
   orientation="-18,0"
   id="guide68050" /></sodipodi:namedview>
<rect
   style="fill:#999999;stroke:#000000;stroke-width:0.372093;stroke-miterlimit:4;stroke-dasharray:none;stroke-opacity:1"
   id="rect109948"
   width="23.627907"
   height="23.627907"
   x="0.1860465"
   y="0.1860465"
   ry="2.9534883" /><g
   id="layer1"
   transform="translate(-46.755712,-67.833036)"
   inkscape:groupmode="layer"
   inkscape:label="Layer 1">
	<g
   id="g67940">
		<defs
   id="defs67935">
			<rect
   id="SVGID_1_"
   x="46.755322"
   y="67.833023"
   width="18"
   height="18" />
		</defs>
		<clipPath
   id="SVGID_2_">
			<use
   xlink:href="#SVGID_1_"
   overflow="visible"
   id="use67937"
   x="0"
   y="0"
   width="100%"
   height="100%" />
		</clipPath>
	</g>
</g>



<g
   aria-label="NAND"
   id="text7286"
   style="font-stretch:condensed;font-size:9.33333px;line-height:1.25;font-family:Arial;-inkscape-font-specification:'Arial, Condensed';font-variant-ligatures:none;text-align:center;text-anchor:middle"><path
     d="M 1.7666051,15.342772 V 8.6617842 H 2.5094433 L 5.3896507,13.907225 V 8.6617842 H 6.0823588 V 15.342772 H 5.3395205 L 2.4638704,10.092773 v 5.249999 z"
     id="path3335" /><path
     d="m 6.7112648,15.342772 2.105468,-6.6809878 h 0.7792967 l 2.2421865,6.6809878 h -0.829427 l -0.63802,-2.023437 H 8.0830091 L 7.4814468,15.342772 Z M 8.2926445,12.599283 H 10.147462 L 9.5778003,10.749023 Q 9.3134775,9.8968098 9.1904306,9.3636069 9.085613,10.006185 8.8942068,10.639648 Z"
     id="path3337" /><path
     d="M 12.394206,15.342772 V 8.6617842 h 0.742838 l 2.880207,5.2454408 V 8.6617842 h 0.692708 v 6.6809878 h -0.742838 l -2.87565,-5.249999 v 5.249999 z"
     id="path3339" /><path
     d="M 17.922198,15.342772 V 8.6617842 h 1.891275 q 0.701823,0 1.066406,0.1230469 0.478515,0.1595051 0.829427,0.5833331 0.350911,0.423828 0.546875,1.0709628 0.195963,0.642578 0.195963,1.526693 0,1.134765 -0.332682,1.927733 -0.332682,0.788411 -0.856771,1.121094 -0.519531,0.328125 -1.362629,0.328125 z m 0.724609,-0.788412 h 1.166666 q 0.70638,0 1.070963,-0.227864 0.364583,-0.232422 0.560547,-0.742838 0.259765,-0.679037 0.259765,-1.626953 0,-1.016276 -0.277994,-1.595052 -0.273438,-0.5833327 -0.70638,-0.7792962 -0.291667,-0.1321614 -0.92513,-0.1321614 h -1.148437 z"
     id="path3341" /></g></svg>
