<?xml version="1.0" encoding="UTF-8" standalone="no"?>
<!-- Generator: Adobe Illustrator 25.2.3, SVG Export Plug-In . SVG Version: 6.00 Build 0)  -->

<svg
   version="1.0"
   id="svg7595"
   sodipodi:docname="op_NOR.svg"
   x="0px"
   y="0px"
   width="24"
   height="24"
   viewBox="0 0 24.000001 24"
   enable-background="new 0 0 17.9996 18"
   xml:space="preserve"
   inkscape:version="1.1.1 (3bf5ae0d25, 2021-09-20)"
   xmlns:inkscape="http://www.inkscape.org/namespaces/inkscape"
   xmlns:sodipodi="http://sodipodi.sourceforge.net/DTD/sodipodi-0.dtd"
   xmlns:xlink="http://www.w3.org/1999/xlink"
   xmlns="http://www.w3.org/2000/svg"
   xmlns:svg="http://www.w3.org/2000/svg"><defs
   id="defs67960" />
<sodipodi:namedview
   bordercolor="#666666"
   borderopacity="1.0"
   fit-margin-bottom="0"
   fit-margin-left="0"
   fit-margin-right="0"
   fit-margin-top="0"
   id="base"
   inkscape:current-layer="svg7595"
   inkscape:cx="11.375"
   inkscape:cy="8.78125"
   inkscape:document-units="mm"
   inkscape:pageopacity="0.0"
   inkscape:pageshadow="2"
   inkscape:window-height="1057"
   inkscape:window-maximized="1"
   inkscape:window-width="1920"
   inkscape:window-x="1592"
   inkscape:window-y="-8"
   inkscape:zoom="16"
   pagecolor="#ffffff"
   showgrid="true"
   units="px"
   inkscape:pagecheckerboard="0"
   showguides="true"
   objecttolerance="1"
   gridtolerance="10"
   guidetolerance="1"
   inkscape:showpageshadow="false">
	<inkscape:grid
   type="xygrid"
   id="grid68042" /><sodipodi:guide
   position="0,18"
   orientation="0,17.999599"
   id="guide68044" /><sodipodi:guide
   position="18,33.000001"
   orientation="18,0"
   id="guide68046" /><sodipodi:guide
   position="17.9996,0"
   orientation="0,-17.999599"
   id="guide68048" /><sodipodi:guide
   position="0,0"
   orientation="-18,0"
   id="guide68050" /></sodipodi:namedview>
<rect
   style="fill:#999999;stroke:#000000;stroke-width:0.372093;stroke-miterlimit:4;stroke-dasharray:none;stroke-opacity:1"
   id="rect109948"
   width="23.627907"
   height="23.627907"
   x="0.1860465"
   y="0.1860465"
   ry="2.9534883" /><g
   id="layer1"
   transform="translate(-46.755712,-67.833036)"
   inkscape:groupmode="layer"
   inkscape:label="Layer 1">
	<g
   id="g67940">
		<defs
   id="defs67935">
			<rect
   id="SVGID_1_"
   x="46.755322"
   y="67.833023"
   width="18"
   height="18" />
		</defs>
		<clipPath
   id="SVGID_2_">
			<use
   xlink:href="#SVGID_1_"
   overflow="visible"
   id="use67937"
   x="0"
   y="0"
   width="100%"
   height="100%" />
		</clipPath>
	</g>
</g>



<g
   aria-label="NOR"
   id="text7286"
   style="font-stretch:condensed;font-size:9.33333px;line-height:1.25;font-family:Arial;-inkscape-font-specification:'Arial, Condensed';font-variant-ligatures:none;text-align:center;text-anchor:middle"><path
     d="M 4.1022162,15.342772 V 8.6617842 H 4.8450545 L 7.7252619,13.907225 V 8.6617842 H 8.41797 V 15.342772 H 7.6751317 L 4.7994816,10.092773 v 5.249999 z"
     id="path3583" /><path
     d="m 9.4433602,12.088866 q 0,-1.708983 0.7519528,-2.6249987 0.751953,-0.9205726 1.873046,-0.9205726 0.724609,0 1.321614,0.4101561 0.597005,0.4101561 0.94336,1.1940102 0.350911,0.779296 0.350911,1.859374 0,1.485677 -0.674479,2.419921 -0.742838,1.029948 -1.945963,1.029948 -1.212239,0 -1.95052,-1.057292 -0.6699218,-0.95703 -0.6699218,-2.310546 z m 0.7473958,0.01367 q 0,1.235026 0.542317,1.918619 0.546875,0.679037 1.326172,0.679037 0.797526,0 1.335286,-0.688151 0.542317,-0.688151 0.542317,-2.023437 0,-0.861328 -0.277994,-1.540364 -0.214193,-0.5195311 -0.647136,-0.8294269 -0.428385,-0.314453 -0.938801,-0.314453 -0.820313,0 -1.353516,0.6835935 -0.528645,0.6835934 -0.528645,2.1145824 z"
     id="path3585" /><path
     d="M 15.600259,15.342772 V 8.6617842 h 2.429036 q 0.761067,0 1.121093,0.1868489 0.364583,0.1868489 0.597005,0.6243488 0.232422,0.4329425 0.232422,1.0071611 0,0.75651 -0.396484,1.225911 -0.391927,0.469401 -1.14388,0.597005 0.305338,0.182292 0.464843,0.369141 0.323568,0.382812 0.569662,0.852213 l 0.957031,1.818359 h -0.911459 l -0.729166,-1.389974 q -0.423828,-0.815755 -0.642578,-1.098307 -0.214192,-0.282552 -0.419271,-0.378255 -0.20052,-0.10026 -0.565104,-0.10026 h -0.838541 v 2.966796 z m 0.724609,-3.732421 h 1.558593 q 0.510417,0 0.77474,-0.123047 0.264322,-0.123047 0.41927,-0.38737 0.154948,-0.264322 0.154948,-0.615234 0,-0.5058589 -0.296224,-0.7929682 -0.296224,-0.2916666 -0.879557,-0.2916666 h -1.73177 z"
     id="path3587" /></g></svg>
