<?xml version="1.0" encoding="UTF-8" standalone="no"?>
<!-- Generator: Adobe Illustrator 25.2.3, SVG Export Plug-In . SVG Version: 6.00 Build 0)  -->

<svg
   version="1.0"
   id="svg7595"
   sodipodi:docname="op_OR.svg"
   x="0px"
   y="0px"
   width="24"
   height="24"
   viewBox="0 0 24.000001 24"
   enable-background="new 0 0 17.9996 18"
   xml:space="preserve"
   inkscape:version="1.1.1 (3bf5ae0d25, 2021-09-20)"
   xmlns:inkscape="http://www.inkscape.org/namespaces/inkscape"
   xmlns:sodipodi="http://sodipodi.sourceforge.net/DTD/sodipodi-0.dtd"
   xmlns:xlink="http://www.w3.org/1999/xlink"
   xmlns="http://www.w3.org/2000/svg"
   xmlns:svg="http://www.w3.org/2000/svg"><defs
   id="defs67960" />
<sodipodi:namedview
   bordercolor="#666666"
   borderopacity="1.0"
   fit-margin-bottom="0"
   fit-margin-left="0"
   fit-margin-right="0"
   fit-margin-top="0"
   id="base"
   inkscape:current-layer="svg7595"
   inkscape:cx="11.375"
   inkscape:cy="8.78125"
   inkscape:document-units="mm"
   inkscape:pageopacity="0.0"
   inkscape:pageshadow="2"
   inkscape:window-height="1057"
   inkscape:window-maximized="1"
   inkscape:window-width="1920"
   inkscape:window-x="1592"
   inkscape:window-y="-8"
   inkscape:zoom="16"
   pagecolor="#ffffff"
   showgrid="true"
   units="px"
   inkscape:pagecheckerboard="0"
   showguides="true"
   objecttolerance="1"
   gridtolerance="10"
   guidetolerance="1"
   inkscape:showpageshadow="false">
	<inkscape:grid
   type="xygrid"
   id="grid68042" /><sodipodi:guide
   position="0,18"
   orientation="0,17.999599"
   id="guide68044" /><sodipodi:guide
   position="18,33.000001"
   orientation="18,0"
   id="guide68046" /><sodipodi:guide
   position="17.9996,0"
   orientation="0,-17.999599"
   id="guide68048" /><sodipodi:guide
   position="0,0"
   orientation="-18,0"
   id="guide68050" /></sodipodi:namedview>
<rect
   style="fill:#999999;stroke:#000000;stroke-width:0.372093;stroke-miterlimit:4;stroke-dasharray:none;stroke-opacity:1"
   id="rect109948"
   width="23.627907"
   height="23.627907"
   x="0.1860465"
   y="0.1860465"
   ry="2.9534883" /><g
   id="layer1"
   transform="translate(-46.755712,-67.833036)"
   inkscape:groupmode="layer"
   inkscape:label="Layer 1">
	<g
   id="g67940">
		<defs
   id="defs67935">
			<rect
   id="SVGID_1_"
   x="46.755322"
   y="67.833023"
   width="18"
   height="18" />
		</defs>
		<clipPath
   id="SVGID_2_">
			<use
   xlink:href="#SVGID_1_"
   overflow="visible"
   id="use67937"
   x="0"
   y="0"
   width="100%"
   height="100%" />
		</clipPath>
	</g>
</g>



<g
   aria-label="OR"
   id="text7286"
   style="font-stretch:condensed;font-size:9.33333px;line-height:1.25;font-family:Arial;-inkscape-font-specification:'Arial, Condensed';font-variant-ligatures:none;text-align:center;text-anchor:middle"><path
     d="m 6.6816424,12.088866 q 0,-1.708983 0.7519529,-2.6249987 0.7519529,-0.9205726 1.8730463,-0.9205726 0.7246094,0 1.3216144,0.4101561 0.597005,0.4101561 0.943359,1.1940102 0.350911,0.779296 0.350911,1.859374 0,1.485677 -0.674479,2.419921 -0.742838,1.029948 -1.9459627,1.029948 -1.2122392,0 -1.9505202,-1.057292 -0.6699217,-0.95703 -0.6699217,-2.310546 z m 0.7473956,0.01367 q 0,1.235026 0.5423176,1.918619 0.5468748,0.679037 1.3261714,0.679037 0.797526,0 1.335286,-0.688151 0.542318,-0.688151 0.542318,-2.023437 0,-0.861328 -0.277995,-1.540364 -0.214193,-0.5195311 -0.647135,-0.8294269 -0.4283857,-0.314453 -0.9388022,-0.314453 -0.8203122,0 -1.3535151,0.6835935 Q 7.429038,10.671549 7.429038,12.102538 Z"
     id="path4033" /><path
     d="M 12.838541,15.342772 V 8.6617842 h 2.429036 q 0.761067,0 1.121093,0.1868489 0.364583,0.1868489 0.597005,0.6243488 0.232422,0.4329425 0.232422,1.0071611 0,0.75651 -0.396484,1.225911 -0.391927,0.469401 -1.14388,0.597005 0.305338,0.182292 0.464844,0.369141 0.323567,0.382812 0.569661,0.852213 l 0.957031,1.818359 h -0.911458 l -0.729167,-1.389974 q -0.423828,-0.815755 -0.642578,-1.098307 -0.214192,-0.282552 -0.41927,-0.378255 -0.200521,-0.10026 -0.565104,-0.10026 H 13.56315 v 2.966796 z m 0.724609,-3.732421 h 1.558594 q 0.510416,0 0.774739,-0.123047 0.264323,-0.123047 0.419271,-0.38737 0.154947,-0.264322 0.154947,-0.615234 0,-0.5058589 -0.296223,-0.7929682 Q 15.878254,9.4000652 15.294921,9.4000652 H 13.56315 Z"
     id="path4035" /></g></svg>
