<?xml version="1.0" encoding="UTF-8" standalone="no"?>
<!-- Generator: Adobe Illustrator 25.2.3, SVG Export Plug-In . SVG Version: 6.00 Build 0)  -->

<svg
   version="1.0"
   id="svg7595"
   sodipodi:docname="op_XNOR_ODD.svg"
   x="0px"
   y="0px"
   width="24"
   height="24"
   viewBox="0 0 24.000001 24"
   enable-background="new 0 0 17.9996 18"
   xml:space="preserve"
   inkscape:version="1.1.1 (3bf5ae0d25, 2021-09-20)"
   xmlns:inkscape="http://www.inkscape.org/namespaces/inkscape"
   xmlns:sodipodi="http://sodipodi.sourceforge.net/DTD/sodipodi-0.dtd"
   xmlns:xlink="http://www.w3.org/1999/xlink"
   xmlns="http://www.w3.org/2000/svg"
   xmlns:svg="http://www.w3.org/2000/svg"><defs
   id="defs67960" />
<sodipodi:namedview
   bordercolor="#666666"
   borderopacity="1.0"
   fit-margin-bottom="0"
   fit-margin-left="0"
   fit-margin-right="0"
   fit-margin-top="0"
   id="base"
   inkscape:current-layer="svg7595"
   inkscape:cx="11.375"
   inkscape:cy="8.78125"
   inkscape:document-units="mm"
   inkscape:pageopacity="0.0"
   inkscape:pageshadow="2"
   inkscape:window-height="1057"
   inkscape:window-maximized="1"
   inkscape:window-width="1920"
   inkscape:window-x="1592"
   inkscape:window-y="-8"
   inkscape:zoom="16"
   pagecolor="#ffffff"
   showgrid="true"
   units="px"
   inkscape:pagecheckerboard="0"
   showguides="true"
   objecttolerance="1"
   gridtolerance="10"
   guidetolerance="1"
   inkscape:showpageshadow="false">
	<inkscape:grid
   type="xygrid"
   id="grid68042" /><sodipodi:guide
   position="0,18"
   orientation="0,17.999599"
   id="guide68044" /><sodipodi:guide
   position="18,33.000001"
   orientation="18,0"
   id="guide68046" /><sodipodi:guide
   position="17.9996,0"
   orientation="0,-17.999599"
   id="guide68048" /><sodipodi:guide
   position="0,0"
   orientation="-18,0"
   id="guide68050" /></sodipodi:namedview>
<rect
   style="fill:#999999;stroke:#000000;stroke-width:0.372093;stroke-miterlimit:4;stroke-dasharray:none;stroke-opacity:1"
   id="rect109948"
   width="23.627907"
   height="23.627907"
   x="0.1860465"
   y="0.1860465"
   ry="2.9534883" /><g
   id="layer1"
   transform="translate(-46.755712,-67.833036)"
   inkscape:groupmode="layer"
   inkscape:label="Layer 1">
	<g
   id="g67940">
		<defs
   id="defs67935">
			<rect
   id="SVGID_1_"
   x="46.755322"
   y="67.833023"
   width="18"
   height="18" />
		</defs>
		<clipPath
   id="SVGID_2_">
			<use
   xlink:href="#SVGID_1_"
   overflow="visible"
   id="use67937"
   x="0"
   y="0"
   width="100%"
   height="100%" />
		</clipPath>
	</g>
</g>



<g
   id="g1003"
   transform="translate(0.03417971,23.842769)"><g
     aria-label="XNOR"
     id="text7286"
     style="font-stretch:condensed;font-size:9.33333px;line-height:1.25;font-family:Arial;-inkscape-font-specification:'Arial, Condensed';font-variant-ligatures:none;text-align:center;text-anchor:middle"><path
       d="m 0.98275115,-14 2.11913995,-3.48177 -1.868489,-3.199217 h 0.8613278 l 0.9980466,1.713541 q 0.3053384,0.528645 0.4374998,0.820312 0.1777343,-0.355469 0.4329426,-0.761067 l 1.1074215,-1.772786 H 5.8544943 L 3.9313179,-17.5319 6.0048849,-14 H 5.111656 l -1.3808589,-2.383463 q -0.1139323,-0.20052 -0.2369791,-0.446614 -0.1868489,0.364583 -0.2643228,0.501302 L 1.8531936,-14 Z"
       id="path4786" /><path
       d="m 6.6201192,-14 v -6.680987 h 0.7428383 l 2.8802075,5.245441 v -5.245441 h 0.692708 V -14 H 10.193035 L 7.3173846,-19.249998 V -14 Z"
       id="path4788" /><path
       d="m 11.961263,-17.253905 q 0,-1.708984 0.751953,-2.624999 0.751953,-0.920573 1.873046,-0.920573 0.724609,0 1.321614,0.410156 0.597005,0.410156 0.943359,1.19401 0.350912,0.779297 0.350912,1.859375 0,1.485676 -0.674479,2.419921 -0.742838,1.029947 -1.945963,1.029947 -1.212239,0 -1.95052,-1.057291 -0.669922,-0.957031 -0.669922,-2.310546 z m 0.747396,0.01367 q 0,1.235025 0.542317,1.918619 0.546875,0.679036 1.326172,0.679036 0.797525,0 1.335286,-0.688151 0.542317,-0.688151 0.542317,-2.023437 0,-0.861327 -0.277994,-1.540364 -0.214193,-0.519531 -0.647136,-0.829426 -0.428385,-0.314453 -0.938801,-0.314453 -0.820313,0 -1.353516,0.683593 -0.528645,0.683594 -0.528645,2.114583 z"
       id="path4790" /><path
       d="m 18.118162,-14 v -6.680987 h 2.429036 q 0.761067,0 1.121093,0.186849 0.364583,0.186848 0.597005,0.624348 0.232422,0.432943 0.232422,1.007161 0,0.756511 -0.396485,1.225911 -0.391926,0.469401 -1.143879,0.597005 0.305338,0.182292 0.464843,0.369141 0.323568,0.382812 0.569662,0.852213 L 22.948889,-14 h -0.911458 l -0.729166,-1.389973 q -0.423828,-0.815755 -0.642578,-1.098307 -0.214193,-0.282552 -0.419271,-0.378255 -0.20052,-0.100261 -0.565104,-0.100261 H 18.842771 V -14 Z m 0.724609,-3.732421 h 1.558593 q 0.510417,0 0.77474,-0.123046 0.264322,-0.123047 0.41927,-0.38737 0.154948,-0.264323 0.154948,-0.615234 0,-0.505859 -0.296224,-0.792969 -0.296224,-0.291666 -0.879557,-0.291666 h -1.73177 z"
       id="path4792" /></g><g
     aria-label="ODD"
     id="text7286-8"
     style="font-stretch:condensed;font-size:9.33333px;line-height:1.25;font-family:Arial;-inkscape-font-specification:'Arial, Condensed';font-variant-ligatures:none;text-align:center;text-anchor:middle"><path
       d="m 3.8675164,-6.2538994 q 0,-1.7089838 0.7519529,-2.6249991 0.7519529,-0.9205726 1.8730462,-0.9205726 0.7246092,0 1.3216142,0.4101561 0.597005,0.4101561 0.943359,1.19401 0.3509114,0.7792966 0.3509114,1.8593744 0,1.4856765 -0.674479,2.419921 -0.7428383,1.0299476 -1.9459629,1.0299476 -1.2122391,0 -1.9505201,-1.0572913 -0.6699217,-0.957031 -0.6699217,-2.3105461 z m 0.7473956,0.013672 q 0,1.2350256 0.5423175,1.9186191 0.5468748,0.6790362 1.3261714,0.6790362 0.7975258,0 1.335286,-0.6881508 0.5423176,-0.6881508 0.5423176,-2.0234368 0,-0.8613278 -0.2779947,-1.5403641 -0.2141927,-0.519531 -0.6471352,-0.8294268 -0.4283853,-0.314453 -0.9388018,-0.314453 -0.8203122,0 -1.3535151,0.6835935 -0.5286457,0.6835936 -0.5286457,2.1145827 z"
       id="path4795" /><path
       d="m 10.010743,-2.9999943 v -6.6809873 h 1.891276 q 0.701822,0 1.066406,0.1230468 0.478515,0.1595052 0.829426,0.5833332 0.350912,0.423828 0.546875,1.0709632 0.195964,0.6425779 0.195964,1.5266921 0,1.1347653 -0.332683,1.9277338 -0.332682,0.7884112 -0.85677,1.1210933 -0.519531,0.3281249 -1.36263,0.3281249 z m 0.724609,-0.7884112 h 1.166667 q 0.70638,0 1.070963,-0.2278645 0.364583,-0.2324218 0.560547,-0.7428383 0.259765,-0.6790362 0.259765,-1.6269525 0,-1.0162757 -0.277995,-1.5950516 -0.273437,-0.5833331 -0.70638,-0.7792966 -0.291666,-0.1321614 -0.925129,-0.1321614 h -1.148438 z"
       id="path4797" /><path
       d="m 15.534179,-2.9999943 v -6.6809873 h 1.891275 q 0.701823,0 1.066406,0.1230468 0.478516,0.1595052 0.829427,0.5833332 0.350911,0.423828 0.546875,1.0709632 0.195963,0.6425779 0.195963,1.5266921 0,1.1347653 -0.332682,1.9277338 -0.332682,0.7884112 -0.85677,1.1210933 -0.519532,0.3281249 -1.36263,0.3281249 z m 0.724609,-0.7884112 h 1.166666 q 0.70638,0 1.070963,-0.2278645 0.364584,-0.2324218 0.560547,-0.7428383 0.259766,-0.6790362 0.259766,-1.6269525 0,-1.0162757 -0.277995,-1.5950516 -0.273437,-0.5833331 -0.70638,-0.7792966 -0.291667,-0.1321614 -0.92513,-0.1321614 h -1.148437 z"
       id="path4799" /></g></g></svg>
