<?xml version="1.0" encoding="UTF-8" standalone="no"?>
<!-- Generator: Adobe Illustrator 25.2.3, SVG Export Plug-In . SVG Version: 6.00 Build 0)  -->

<svg
   version="1.0"
   id="svg7595"
   sodipodi:docname="out_3.svg"
   x="0px"
   y="0px"
   width="24"
   height="24"
   viewBox="0 0 24.000001 24"
   enable-background="new 0 0 17.9996 18"
   xml:space="preserve"
   inkscape:version="1.1.1 (3bf5ae0d25, 2021-09-20)"
   xmlns:inkscape="http://www.inkscape.org/namespaces/inkscape"
   xmlns:sodipodi="http://sodipodi.sourceforge.net/DTD/sodipodi-0.dtd"
   xmlns:xlink="http://www.w3.org/1999/xlink"
   xmlns="http://www.w3.org/2000/svg"
   xmlns:svg="http://www.w3.org/2000/svg"><defs
   id="defs67960" />
<sodipodi:namedview
   bordercolor="#666666"
   borderopacity="1.0"
   fit-margin-bottom="0"
   fit-margin-left="0"
   fit-margin-right="0"
   fit-margin-top="0"
   id="base"
   inkscape:current-layer="svg7595"
   inkscape:cx="11.375"
   inkscape:cy="8.78125"
   inkscape:document-units="mm"
   inkscape:pageopacity="0.0"
   inkscape:pageshadow="2"
   inkscape:window-height="1057"
   inkscape:window-maximized="1"
   inkscape:window-width="1920"
   inkscape:window-x="1592"
   inkscape:window-y="-8"
   inkscape:zoom="16"
   pagecolor="#ffffff"
   showgrid="true"
   units="px"
   inkscape:pagecheckerboard="0"
   showguides="true"
   objecttolerance="1"
   gridtolerance="10"
   guidetolerance="1"
   inkscape:showpageshadow="false">
	<inkscape:grid
   type="xygrid"
   id="grid68042" /><sodipodi:guide
   position="0,18"
   orientation="0,17.999599"
   id="guide68044" /><sodipodi:guide
   position="18,33.000001"
   orientation="18,0"
   id="guide68046" /><sodipodi:guide
   position="17.9996,0"
   orientation="0,-17.999599"
   id="guide68048" /><sodipodi:guide
   position="0,0"
   orientation="-18,0"
   id="guide68050" /></sodipodi:namedview>
<rect
   style="fill:#999999;stroke:#000000;stroke-width:0.372093;stroke-miterlimit:4;stroke-dasharray:none;stroke-opacity:1"
   id="rect109948"
   width="23.627907"
   height="23.627907"
   x="0.18604663"
   y="0.18604663"
   ry="2.9534883" /><g
   id="layer1"
   transform="translate(-46.755712,-67.833036)"
   inkscape:groupmode="layer"
   inkscape:label="Layer 1">
	<g
   id="g67940">
		<defs
   id="defs67935">
			<rect
   id="SVGID_1_"
   x="46.755322"
   y="67.833023"
   width="18"
   height="18" />
		</defs>
		<clipPath
   id="SVGID_2_">
			<use
   xlink:href="#SVGID_1_"
   overflow="visible"
   id="use67937"
   x="0"
   y="0"
   width="100%"
   height="100%" />
		</clipPath>
	</g>
</g>



<g
   id="g1003"
   transform="translate(0.03417971,23.842769)"><g
     aria-label="OUT"
     id="text7286"
     style="font-stretch:condensed;font-size:9.33333px;line-height:1.25;font-family:Arial;-inkscape-font-specification:'Arial, Condensed';font-variant-ligatures:none;text-align:center;text-anchor:middle"><path
       d="m 4.3095729,-17.253905 q 0,-1.708984 0.7519529,-2.624999 0.7519529,-0.920573 1.8730462,-0.920573 0.7246092,0 1.3216142,0.410156 0.597005,0.410156 0.943359,1.19401 0.3509114,0.779297 0.3509114,1.859375 0,1.485676 -0.674479,2.419921 -0.7428383,1.029947 -1.9459629,1.029947 -1.2122391,0 -1.9505201,-1.057291 -0.6699217,-0.957031 -0.6699217,-2.310546 z m 0.7473956,0.01367 q 0,1.235025 0.5423175,1.918619 0.5468748,0.679036 1.3261715,0.679036 0.7975257,0 1.335286,-0.688151 0.5423175,-0.688151 0.5423175,-2.023437 0,-0.861327 -0.2779947,-1.540364 -0.2141926,-0.519531 -0.6471352,-0.829426 -0.4283853,-0.314453 -0.9388018,-0.314453 -0.8203122,0 -1.3535151,0.683593 -0.5286457,0.683594 -0.5286457,2.114583 z"
       id="path6303" /><path
       d="m 14.048502,-20.680987 h 0.729166 v 3.860024 q 0,0.970703 -0.191406,1.595052 -0.186849,0.619791 -0.688151,0.979817 -0.496744,0.360026 -1.266927,0.360026 -1.084635,0 -1.626952,-0.647135 -0.53776,-0.647135 -0.53776,-2.28776 v -3.860024 h 0.724609 v 3.855467 q 0,0.906901 0.141276,1.3125 0.141276,0.405599 0.460286,0.619791 0.323568,0.209635 0.783854,0.209635 0.774739,0 1.121093,-0.437499 0.350912,-0.4375 0.350912,-1.704427 z"
       id="path6305" /><path
       d="m 17.39811,-14 v -5.892576 h -1.804687 v -0.788411 h 4.343098 v 0.788411 H 18.122719 V -14 Z"
       id="path6307" /></g><g
     aria-label="3"
     id="text7286-8"
     style="font-stretch:condensed;font-size:9.33333px;line-height:1.25;font-family:Arial;-inkscape-font-specification:'Arial, Condensed';font-variant-ligatures:none;text-align:center;text-anchor:middle"><path
       d="m 10.163413,-4.7636656 0.674479,-0.1093749 q 0.209635,1.3124995 1.061848,1.3124995 0.460287,0 0.797526,-0.3873696 0.337239,-0.391927 0.337239,-1.0117184 0,-0.5833332 -0.309895,-0.9388018 -0.309896,-0.3554686 -0.761068,-0.3554686 -0.191406,0 -0.473958,0.091146 l 0.07747,-0.7200519 0.104818,0.00911 q 0.496744,0 0.80664,-0.3053384 0.309896,-0.3053385 0.309896,-0.8157549 0,-0.4694009 -0.259766,-0.7519529 -0.259765,-0.2871093 -0.633463,-0.2871093 -0.38737,0 -0.65625,0.3007812 -0.264323,0.2962238 -0.337239,0.9023434 l -0.669922,-0.1458333 q 0.127604,-0.8567705 0.574219,-1.2942704 0.446614,-0.4374998 1.080077,-0.4374998 0.665365,0 1.130208,0.4921873 0.464844,0.4921873 0.464844,1.2395829 0,0.455729 -0.200521,0.8066404 -0.195963,0.3509113 -0.551432,0.5514321 0.328125,0.091146 0.542318,0.3007811 0.214192,0.2096354 0.346354,0.5605467 0.132161,0.3509113 0.132161,0.7838539 0,0.9205726 -0.542317,1.508463 -0.542318,0.5833332 -1.298828,0.5833332 -0.701823,0 -1.189453,-0.5104165 -0.48763,-0.5104165 -0.555989,-1.3717444 z"
       id="path6310" /></g></g></svg>
