<?xml version="1.0" encoding="UTF-8" standalone="no"?>
<!-- Generator: Adobe Illustrator 25.2.3, SVG Export Plug-In . SVG Version: 6.00 Build 0)  -->

<svg
   version="1.0"
   id="svg7595"
   sodipodi:docname="over_16.svg"
   x="0px"
   y="0px"
   width="24"
   height="24"
   viewBox="0 0 24.000001 24"
   enable-background="new 0 0 17.9996 18"
   xml:space="preserve"
   inkscape:version="1.1.1 (3bf5ae0d25, 2021-09-20)"
   xmlns:inkscape="http://www.inkscape.org/namespaces/inkscape"
   xmlns:sodipodi="http://sodipodi.sourceforge.net/DTD/sodipodi-0.dtd"
   xmlns:xlink="http://www.w3.org/1999/xlink"
   xmlns="http://www.w3.org/2000/svg"
   xmlns:svg="http://www.w3.org/2000/svg"><defs
   id="defs67960" />
<sodipodi:namedview
   bordercolor="#666666"
   borderopacity="1.0"
   fit-margin-bottom="0"
   fit-margin-left="0"
   fit-margin-right="0"
   fit-margin-top="0"
   id="base"
   inkscape:current-layer="svg7595"
   inkscape:cx="2.875"
   inkscape:cy="8.78125"
   inkscape:document-units="mm"
   inkscape:pageopacity="0.0"
   inkscape:pageshadow="2"
   inkscape:window-height="1057"
   inkscape:window-maximized="1"
   inkscape:window-width="1920"
   inkscape:window-x="1592"
   inkscape:window-y="-8"
   inkscape:zoom="16"
   pagecolor="#ffffff"
   showgrid="true"
   units="px"
   inkscape:pagecheckerboard="0"
   showguides="true"
   objecttolerance="1"
   gridtolerance="10"
   guidetolerance="1"
   inkscape:showpageshadow="false">
	<inkscape:grid
   type="xygrid"
   id="grid68042" /><sodipodi:guide
   position="0,18"
   orientation="0,17.999599"
   id="guide68044" /><sodipodi:guide
   position="18,33.000001"
   orientation="18,0"
   id="guide68046" /><sodipodi:guide
   position="17.9996,0"
   orientation="0,-17.999599"
   id="guide68048" /><sodipodi:guide
   position="0,0"
   orientation="-18,0"
   id="guide68050" /></sodipodi:namedview>
<rect
   style="fill:#999999;stroke:#000000;stroke-width:0.372093;stroke-miterlimit:4;stroke-dasharray:none;stroke-opacity:1"
   id="rect109948"
   width="23.627907"
   height="23.627907"
   x="0.1860465"
   y="0.1860465"
   ry="2.9534883" /><g
   id="layer1"
   transform="translate(-46.755712,-67.833036)"
   inkscape:groupmode="layer"
   inkscape:label="Layer 1">
	<g
   id="g67940">
		<defs
   id="defs67935">
			<rect
   id="SVGID_1_"
   x="46.755322"
   y="67.833023"
   width="18"
   height="18" />
		</defs>
		<clipPath
   id="SVGID_2_">
			<use
   xlink:href="#SVGID_1_"
   overflow="visible"
   id="use67937"
   x="0"
   y="0"
   width="100%"
   height="100%" />
		</clipPath>
	</g>
</g>



<g
   aria-label="x16"
   id="text26115"
   style="font-size:10.6667px;line-height:1.25;font-family:Arial;-inkscape-font-specification:'Arial, Normal';font-variant-ligatures:none;text-align:center;text-anchor:middle"><path
     d="M 3.7213282,15.765636 5.7421679,12.890627 3.8723703,10.234369 H 5.044249 l 0.8489611,1.296879 q 0.2395841,0.369793 0.3854178,0.619794 0.2291674,-0.343751 0.4218764,-0.609377 l 0.9322946,-1.307296 h 1.1197952 l -1.9114644,2.604175 2.0572982,2.927092 H 7.7473826 L 6.6119623,14.046881 6.309878,13.583338 4.8567485,15.765636 Z"
     id="path42856" /><path
     d="M 12.950524,15.765636 H 12.013021 V 9.7916592 q -0.338543,0.3229178 -0.890628,0.6458358 -0.546876,0.322917 -0.984378,0.484376 v -0.906253 q 0.786461,-0.3697926 1.375004,-0.8958359 0.588544,-0.5260433 0.833336,-1.0208365 h 0.604169 z"
     id="path42858" /><path
     d="m 20.216173,9.9999932 -0.932295,0.072917 q -0.125,-0.5520846 -0.354168,-0.8020853 -0.380209,-0.401043 -0.937503,-0.401043 -0.447918,0 -0.786461,0.2500008 -0.442709,0.3229177 -0.697918,0.9427105 -0.25521,0.619794 -0.265626,1.765631 0.338542,-0.515627 0.828127,-0.765627 0.489585,-0.250001 1.026045,-0.250001 0.937503,0 1.593755,0.69271 0.661461,0.687502 0.661461,1.781256 0,0.718752 -0.312501,1.338546 -0.307293,0.614585 -0.848961,0.942711 -0.541669,0.328126 -1.229171,0.328126 -1.171879,0 -1.911464,-0.859378 -0.739586,-0.864586 -0.739586,-2.843759 0,-2.2135478 0.817711,-3.2187593 0.713544,-0.8750027 1.921881,-0.8750027 0.901045,0 1.473963,0.5052099 0.578127,0.5052099 0.692711,1.3958373 z M 16.388036,13.29167 q 0,0.484377 0.203125,0.927087 0.208334,0.442709 0.578127,0.677085 0.369793,0.229167 0.776044,0.229167 0.593752,0 1.020837,-0.479168 0.427084,-0.479168 0.427084,-1.302087 0,-0.791669 -0.421876,-1.244796 -0.421876,-0.458335 -1.062503,-0.458335 -0.635419,0 -1.078129,0.458335 -0.442709,0.453127 -0.442709,1.192712 z"
     id="path42860" /></g></svg>
