<?xml version="1.0" encoding="UTF-8" standalone="no"?>
<!-- Generator: Adobe Illustrator 25.2.3, SVG Export Plug-In . SVG Version: 6.00 Build 0)  -->

<svg
   version="1.0"
   id="svg7595"
   sodipodi:docname="over_8.svg"
   x="0px"
   y="0px"
   width="24"
   height="24"
   viewBox="0 0 24.000001 24"
   enable-background="new 0 0 17.9996 18"
   xml:space="preserve"
   inkscape:version="1.1.1 (3bf5ae0d25, 2021-09-20)"
   xmlns:inkscape="http://www.inkscape.org/namespaces/inkscape"
   xmlns:sodipodi="http://sodipodi.sourceforge.net/DTD/sodipodi-0.dtd"
   xmlns:xlink="http://www.w3.org/1999/xlink"
   xmlns="http://www.w3.org/2000/svg"
   xmlns:svg="http://www.w3.org/2000/svg"><defs
   id="defs67960" />
<sodipodi:namedview
   bordercolor="#666666"
   borderopacity="1.0"
   fit-margin-bottom="0"
   fit-margin-left="0"
   fit-margin-right="0"
   fit-margin-top="0"
   id="base"
   inkscape:current-layer="svg7595"
   inkscape:cx="2.875"
   inkscape:cy="8.78125"
   inkscape:document-units="mm"
   inkscape:pageopacity="0.0"
   inkscape:pageshadow="2"
   inkscape:window-height="1057"
   inkscape:window-maximized="1"
   inkscape:window-width="1920"
   inkscape:window-x="1592"
   inkscape:window-y="-8"
   inkscape:zoom="16"
   pagecolor="#ffffff"
   showgrid="true"
   units="px"
   inkscape:pagecheckerboard="0"
   showguides="true"
   objecttolerance="1"
   gridtolerance="10"
   guidetolerance="1"
   inkscape:showpageshadow="false">
	<inkscape:grid
   type="xygrid"
   id="grid68042" /><sodipodi:guide
   position="0,18"
   orientation="0,17.999599"
   id="guide68044" /><sodipodi:guide
   position="18,33.000001"
   orientation="18,0"
   id="guide68046" /><sodipodi:guide
   position="17.9996,0"
   orientation="0,-17.999599"
   id="guide68048" /><sodipodi:guide
   position="0,0"
   orientation="-18,0"
   id="guide68050" /></sodipodi:namedview>
<rect
   style="fill:#999999;stroke:#000000;stroke-width:0.372093;stroke-miterlimit:4;stroke-dasharray:none;stroke-opacity:1"
   id="rect109948"
   width="23.627907"
   height="23.627907"
   x="0.1860465"
   y="0.1860465"
   ry="2.9534883" /><g
   id="layer1"
   transform="translate(-46.755712,-67.833036)"
   inkscape:groupmode="layer"
   inkscape:label="Layer 1">
	<g
   id="g67940">
		<defs
   id="defs67935">
			<rect
   id="SVGID_1_"
   x="46.755322"
   y="67.833023"
   width="18"
   height="18" />
		</defs>
		<clipPath
   id="SVGID_2_">
			<use
   xlink:href="#SVGID_1_"
   overflow="visible"
   id="use67937"
   x="0"
   y="0"
   width="100%"
   height="100%" />
		</clipPath>
	</g>
</g>



<g
   aria-label="x8"
   id="text26115"
   style="font-size:10.6667px;line-height:1.25;font-family:Arial;-inkscape-font-specification:'Arial, Normal';font-variant-ligatures:none;text-align:center;text-anchor:middle"><path
     d="M 6.6874834,15.765636 8.7083231,12.890627 6.8385255,10.234369 h 1.1718788 l 0.848961,1.296879 q 0.2395841,0.369793 0.3854179,0.619794 0.2291673,-0.343751 0.4218763,-0.609377 l 0.9322945,-1.307296 h 1.119795 l -1.9114641,2.604175 2.0572981,2.927092 H 10.713538 L 9.5781175,14.046881 9.2760333,13.583338 7.8229037,15.765636 Z"
     id="path42631" /><path
     d="m 13.828131,11.624998 q -0.583335,-0.213542 -0.864586,-0.609377 -0.281251,-0.395834 -0.281251,-0.947919 0,-0.8333362 0.59896,-1.4010463 0.59896,-0.5677101 1.593755,-0.5677101 1.000003,0 1.60938,0.5833351 0.609377,0.5781269 0.609377,1.4114633 0,0.531251 -0.281251,0.927086 -0.276042,0.390626 -0.843752,0.604168 0.703127,0.229168 1.067711,0.739586 0.369793,0.510418 0.369793,1.218754 0,0.97917 -0.69271,1.645838 -0.692711,0.666669 -1.822923,0.666669 -1.130212,0 -1.822922,-0.666669 -0.692711,-0.671877 -0.692711,-1.67188 0,-0.744794 0.375002,-1.244795 0.380209,-0.50521 1.078128,-0.687503 z M 13.64063,10.036452 q 0,0.541668 0.34896,0.885419 0.348959,0.343751 0.906253,0.343751 0.541668,0 0.885419,-0.338543 0.34896,-0.343751 0.34896,-0.838544 0,-0.5156265 -0.359377,-0.8645859 -0.354167,-0.3541678 -0.885419,-0.3541678 -0.53646,0 -0.890628,0.3437511 -0.354168,0.3437511 -0.354168,0.8229196 z m -0.302084,3.526052 q 0,0.401043 0.187501,0.776045 0.192709,0.375001 0.56771,0.583335 0.375001,0.203125 0.807294,0.203125 0.671877,0 1.109379,-0.432293 0.437501,-0.432293 0.437501,-1.098961 0,-0.677086 -0.453127,-1.119796 -0.447918,-0.442709 -1.125003,-0.442709 -0.661461,0 -1.098962,0.437501 -0.432293,0.437501 -0.432293,1.093753 z"
     id="path42633" /></g></svg>
