<?xml version="1.0" encoding="UTF-8" standalone="no"?>
<!-- Generator: Adobe Illustrator 25.2.3, SVG Export Plug-In . SVG Version: 6.00 Build 0)  -->

<svg
   version="1.0"
   id="svg7595"
   sodipodi:docname="over_32.svg"
   x="0px"
   y="0px"
   width="24"
   height="24"
   viewBox="0 0 24.000001 24"
   enable-background="new 0 0 17.9996 18"
   xml:space="preserve"
   inkscape:version="1.1.1 (3bf5ae0d25, 2021-09-20)"
   xmlns:inkscape="http://www.inkscape.org/namespaces/inkscape"
   xmlns:sodipodi="http://sodipodi.sourceforge.net/DTD/sodipodi-0.dtd"
   xmlns:xlink="http://www.w3.org/1999/xlink"
   xmlns="http://www.w3.org/2000/svg"
   xmlns:svg="http://www.w3.org/2000/svg"><defs
   id="defs67960" />
<sodipodi:namedview
   bordercolor="#666666"
   borderopacity="1.0"
   fit-margin-bottom="0"
   fit-margin-left="0"
   fit-margin-right="0"
   fit-margin-top="0"
   id="base"
   inkscape:current-layer="svg7595"
   inkscape:cx="2.875"
   inkscape:cy="8.78125"
   inkscape:document-units="mm"
   inkscape:pageopacity="0.0"
   inkscape:pageshadow="2"
   inkscape:window-height="1057"
   inkscape:window-maximized="1"
   inkscape:window-width="1920"
   inkscape:window-x="1592"
   inkscape:window-y="-8"
   inkscape:zoom="16"
   pagecolor="#ffffff"
   showgrid="true"
   units="px"
   inkscape:pagecheckerboard="0"
   showguides="true"
   objecttolerance="1"
   gridtolerance="10"
   guidetolerance="1"
   inkscape:showpageshadow="false">
	<inkscape:grid
   type="xygrid"
   id="grid68042" /><sodipodi:guide
   position="0,18"
   orientation="0,17.999599"
   id="guide68044" /><sodipodi:guide
   position="18,33.000001"
   orientation="18,0"
   id="guide68046" /><sodipodi:guide
   position="17.9996,0"
   orientation="0,-17.999599"
   id="guide68048" /><sodipodi:guide
   position="0,0"
   orientation="-18,0"
   id="guide68050" /></sodipodi:namedview>
<rect
   style="fill:#999999;stroke:#000000;stroke-width:0.372093;stroke-miterlimit:4;stroke-dasharray:none;stroke-opacity:1"
   id="rect109948"
   width="23.627907"
   height="23.627907"
   x="0.1860465"
   y="0.1860465"
   ry="2.9534883" /><g
   id="layer1"
   transform="translate(-46.755712,-67.833036)"
   inkscape:groupmode="layer"
   inkscape:label="Layer 1">
	<g
   id="g67940">
		<defs
   id="defs67935">
			<rect
   id="SVGID_1_"
   x="46.755322"
   y="67.833023"
   width="18"
   height="18" />
		</defs>
		<clipPath
   id="SVGID_2_">
			<use
   xlink:href="#SVGID_1_"
   overflow="visible"
   id="use67937"
   x="0"
   y="0"
   width="100%"
   height="100%" />
		</clipPath>
	</g>
</g>



<g
   aria-label="x32"
   id="text26115"
   style="font-size:10.6667px;line-height:1.25;font-family:Arial;-inkscape-font-specification:'Arial, Normal';font-variant-ligatures:none;text-align:center;text-anchor:middle"><path
     d="M 3.7213282,15.765636 5.7421679,12.890627 3.8723703,10.234369 H 5.044249 l 0.8489611,1.296879 q 0.2395841,0.369793 0.3854178,0.619794 0.2291674,-0.343751 0.4218764,-0.609377 l 0.9322946,-1.307296 h 1.1197952 l -1.9114644,2.604175 2.0572982,2.927092 H 7.7473826 L 6.6119623,14.046881 6.309878,13.583338 4.8567485,15.765636 Z"
     id="path43084" /><path
     d="m 9.4244712,13.750005 0.9375028,-0.125 q 0.161459,0.796877 0.546877,1.151045 0.390626,0.348959 0.94792,0.348959 0.66146,0 1.114586,-0.458334 0.458335,-0.458335 0.458335,-1.135421 0,-0.645835 -0.421876,-1.062503 -0.421876,-0.421876 -1.07292,-0.421876 -0.265626,0 -0.661461,0.104167 l 0.104167,-0.82292 q 0.09375,0.01042 0.151043,0.01042 0.59896,0 1.078128,-0.312501 0.479168,-0.312501 0.479168,-0.963545 0,-0.5156262 -0.348959,-0.8541689 -0.34896,-0.3385428 -0.901045,-0.3385428 -0.546877,0 -0.911461,0.3437511 -0.364585,0.3437511 -0.468752,1.0312536 L 9.5182215,10.078118 q 0.1718756,-0.9427108 0.7812525,-1.4583375 0.609377,-0.5208349 1.51563,-0.5208349 0.625002,0 1.151045,0.2708341 0.526043,0.2656259 0.802086,0.729169 0.281251,0.4635431 0.281251,0.9843783 0,0.494793 -0.265626,0.901044 -0.265626,0.406252 -0.786461,0.645836 0.677086,0.15625 1.052087,0.651043 0.375001,0.489585 0.375001,1.229171 0,1.000003 -0.729169,1.697922 -0.729169,0.692711 -1.843756,0.692711 -1.005211,0 -1.67188,-0.598961 -0.6614605,-0.59896 -0.7552108,-1.552088 z"
     id="path43086" /><path
     d="m 20.278673,14.864592 v 0.901044 h -5.046891 q -0.01042,-0.338542 0.109375,-0.651043 0.192709,-0.515627 0.614586,-1.015628 0.427084,-0.500002 1.22917,-1.156254 1.244796,-1.020837 1.682297,-1.614589 0.437501,-0.59896 0.437501,-1.130211 0,-0.5572939 -0.401043,-0.9375034 -0.395834,-0.3854179 -1.036461,-0.3854179 -0.677086,0 -1.083337,0.4062513 -0.406251,0.4062512 -0.41146,1.125004 l -0.963544,-0.09896 q 0.09896,-1.0781285 0.744794,-1.6406303 0.645835,-0.5677101 1.73438,-0.5677101 1.098962,0 1.739589,0.6093769 0.640627,0.6093769 0.640627,1.5104215 0,0.458335 -0.1875,0.901044 -0.187501,0.44271 -0.625002,0.932295 -0.432293,0.489585 -1.442713,1.343754 -0.843753,0.708336 -1.083337,0.963545 -0.239584,0.250001 -0.395835,0.50521 z"
     id="path43088" /></g></svg>
