<?xml version="1.0" encoding="UTF-8" standalone="no"?>
<!-- Generator: Adobe Illustrator 27.5.0, SVG Export Plug-In . SVG Version: 6.00 Build 0)  -->

<svg
   version="1.0"
   id="svg15246"
   x="0px"
   y="0px"
   width="23.7px"
   height="23.7px"
   viewBox="0 0 23.7 23.7"
   enable-background="new 0 0 23.7 23.7"
   xml:space="preserve"
   sodipodi:docname="PJ301M-poly.svg"
   inkscape:version="1.1.1 (3bf5ae0d25, 2021-09-20)"
   xmlns:inkscape="http://www.inkscape.org/namespaces/inkscape"
   xmlns:sodipodi="http://sodipodi.sourceforge.net/DTD/sodipodi-0.dtd"
   xmlns:xlink="http://www.w3.org/1999/xlink"
   xmlns="http://www.w3.org/2000/svg"
   xmlns:svg="http://www.w3.org/2000/svg"><defs
   id="defs66957"><linearGradient
   id="SVGID_00000129173681066646684810000007828613576644480430_"
   gradientUnits="userSpaceOnUse"
   x1="-1894.8135"
   y1="14.4203"
   x2="-1894.8135"
   y2="29.682699"
   gradientTransform="matrix(-1,0,0,1,-1883.0134,-10.2203)">
					<stop
   offset="0.00559"
   style="stop-color:#707171"
   id="stop77862" />
					<stop
   offset="1"
   style="stop-color:#181717"
   id="stop77864" />
				</linearGradient>
	

		
	
			
		
				
				
					<linearGradient
   id="SVGID_00000133507252578815705350000014969287794782242715_"
   gradientUnits="userSpaceOnUse"
   x1="1061.9836"
   y1="4127.6396"
   x2="1084.1836"
   y2="4127.6396"
   gradientTransform="matrix(0,1,1,0,-4115.8398,-1061.2317)">
					<stop
   offset="0.00559"
   style="stop-color:#FFFFFF"
   id="stop66893" />
					<stop
   offset="1"
   style="stop-color:#7B7B7B"
   id="stop66895" />
				</linearGradient>
				
				
				
					<linearGradient
   id="SVGID_00000016783443767324647770000012896450620973326471_"
   gradientUnits="userSpaceOnUse"
   x1="58.8937"
   y1="90.555496"
   x2="58.8937"
   y2="87.782799"
   gradientTransform="translate(-47.0062,-77.3266)">
					<stop
   offset="0"
   style="stop-color:#FFFAFC"
   id="stop66902" />
					<stop
   offset="1"
   style="stop-color:#808080"
   id="stop66904" />
				</linearGradient>
				
				
					<linearGradient
   id="SVGID_00000142168628243639577640000009478606774827061173_"
   gradientUnits="userSpaceOnUse"
   x1="-1250.7072"
   y1="417.8472"
   x2="-1233.2302"
   y2="417.8472"
   gradientTransform="rotate(-90,-818.08665,-412.03944)">
					<stop
   offset="0"
   style="stop-color:#AFADAD"
   id="stop66909" />
					<stop
   offset="1"
   style="stop-color:#616262"
   id="stop66911" />
				</linearGradient>
				
				
				
				
					<linearGradient
   id="SVGID_00000129173681066646684810000007828613576644480430_-7"
   gradientUnits="userSpaceOnUse"
   x1="-1894.8135"
   y1="14.4203"
   x2="-1894.8135"
   y2="29.682699"
   gradientTransform="matrix(-1,0,0,1,-1883.0134,-10.2203)">
					<stop
   offset="0.00559"
   style="stop-color:#e9df9f;stop-opacity:1"
   id="stop66920" />
					<stop
   offset="1"
   style="stop-color:#5f5113;stop-opacity:1"
   id="stop66922" />
				</linearGradient>
				
				
				
				
					<linearGradient
   id="SVGID_00000158015276085111732840000007822288051635862172_"
   gradientUnits="userSpaceOnUse"
   x1="-1894.8135"
   y1="27.2339"
   x2="-1894.8135"
   y2="16.892099"
   gradientTransform="matrix(-1,0,0,1,-1883.0134,-10.2203)"
   spreadMethod="pad">
					<stop
   offset="0"
   style="stop-color:#d4c670;stop-opacity:1"
   id="stop66937" />
					<stop
   offset="1"
   style="stop-color:#645b1e;stop-opacity:1"
   id="stop66939" />
				</linearGradient>
				
				
				
			
					
					
					
				<linearGradient
   inkscape:collect="always"
   xlink:href="#SVGID_00000129173681066646684810000007828613576644480430_-7"
   id="linearGradient77867"
   gradientUnits="userSpaceOnUse"
   gradientTransform="matrix(-1,0,0,1,-1883.0134,-10.2203)"
   x1="-1894.8135"
   y1="14.4203"
   x2="-1894.8135"
   y2="29.682699" /></defs>
<sodipodi:namedview
   bordercolor="#666666"
   borderopacity="1.0"
   fit-margin-bottom="0"
   fit-margin-left="0"
   fit-margin-right="0"
   fit-margin-top="0"
   id="base"
   inkscape:current-layer="svg15246"
   inkscape:cx="-24.496199"
   inkscape:cy="23.359778"
   inkscape:document-rotation="0"
   inkscape:document-units="mm"
   inkscape:pageopacity="0.0"
   inkscape:pageshadow="2"
   inkscape:window-height="1057"
   inkscape:window-maximized="1"
   inkscape:window-width="1920"
   inkscape:window-x="1592"
   inkscape:window-y="-8"
   inkscape:zoom="3.959798"
   pagecolor="#ffffff"
   showgrid="false"
   units="px"
   inkscape:pagecheckerboard="0">
	</sodipodi:namedview>
<g
   id="g66891">
					
						<linearGradient
   id="SVGID_1_"
   gradientUnits="userSpaceOnUse"
   x1="-602.2439"
   y1="-1759.6412"
   x2="-578.86902"
   y2="-1759.6412"
   gradientTransform="rotate(90,-1175.1201,-572.7211)">
						<stop
   offset="0"
   style="stop-color:#818080"
   id="stop66884" />
						<stop
   offset="1"
   style="stop-color:#575757"
   id="stop66886" />
					</linearGradient>
					<path
   fill="url(#SVGID_1_)"
   d="M 11.8,23.5 C 5.4,23.5 0.1,18.3 0.1,11.8 0.1,5.4 5.3,0.1 11.8,0.1 c 6.5,0 11.7,5.2 11.7,11.7 0,6.5 -5.2,11.7 -11.7,11.7 z"
   id="path66889"
   style="fill:url(#SVGID_1_)" />
				</g><circle
   fill="url(#SVGID_00000133507252578815705350000014969287794782242715_)"
   cx="11.8"
   cy="11.9"
   r="11.1"
   id="circle66898"
   style="fill:url(#SVGID_00000133507252578815705350000014969287794782242715_)" /><circle
   fill="#dfdfdf"
   cx="11.8"
   cy="11.9"
   r="10.4"
   id="circle66900" /><path
   fill="url(#SVGID_00000016783443767324647770000012896450620973326471_)"
   d="m 1.5,10.5 -0.4,0.4 c -0.4,0.6 -0.4,1.4 0,2 l 0.4,0.4 h 20.7 l 0.4,-0.4 c 0.5,-0.6 0.5,-1.4 0,-2 l -0.4,-0.4 z"
   id="path66907"
   style="fill:url(#SVGID_00000016783443767324647770000012896450620973326471_)" /><circle
   fill="url(#SVGID_00000142168628243639577640000009478606774827061173_)"
   cx="11.8"
   cy="11.8"
   r="8.6999998"
   id="circle66914"
   style="fill:url(#SVGID_00000142168628243639577640000009478606774827061173_)" /><circle
   fill="#1f1f1f"
   cx="11.8"
   cy="11.8"
   r="8.1999998"
   id="circle66916" /><path
   opacity="0.28"
   fill="#414141"
   enable-background="new    "
   d="m 11.8,4.2 c 4.2,0 7.6,3.8 7.6,8.4 0,4.6 -3.4,9.3 -7.6,9.3 -4.2,0 -7.6,-4.6 -7.6,-9.3 0,-4.7 3.4,-8.4 7.6,-8.4 z"
   id="path66918" /><circle
   fill="url(#SVGID_00000129173681066646684810000007828613576644480430_)"
   cx="11.8"
   cy="11.8"
   r="7.5999999"
   id="circle66925"
   style="fill:url(#linearGradient77867);fill-opacity:1.0" /><circle
   fill="#333333"
   cx="11.8"
   cy="11.8"
   r="6.8000002"
   id="circle66927"
   style="fill:#eee19f;fill-opacity:1" /><path
   fill="#414141"
   d="M 11.8,4.7 C 16,4.7 19.4,8 19.4,12 V 11.9 C 19.4,7.7 16,4.3 11.8,4.3 7.6,4.3 4.2,7.7 4.2,11.9 V 12 C 4.3,7.9 7.7,4.7 11.8,4.7 Z"
   id="path66929"
   style="opacity:0.43;fill:#693700;fill-opacity:1" /><path
   opacity="0.1204"
   fill="#414141"
   enable-background="new    "
   d="m 4.2,12 v 0.1 c 0,4.1 3.4,7.4 7.6,7.4 -4.1,0 -7.5,-3.4 -7.6,-7.5 z"
   id="path66931"
   style="fill:#527300;fill-opacity:1" /><path
   opacity="0.1204"
   fill="#414141"
   enable-background="new    "
   d="m 11.8,19.5 c 4.2,0 7.6,-3.3 7.6,-7.4 V 12 c 0,4.1 -3.4,7.5 -7.6,7.5 z"
   id="path66933"
   style="fill:#497600;fill-opacity:1" /><circle
   fill="url(#SVGID_00000158015276085111732840000007822288051635862172_)"
   cx="11.8"
   cy="11.8"
   r="5.1999998"
   id="circle66942"
   style="fill:url(#SVGID_00000158015276085111732840000007822288051635862172_);fill-opacity:1.0" /><circle
   cx="11.8"
   cy="11.8"
   r="4.5999999"
   id="circle66944" /><path
   fill="#131313"
   d="M 11.8,11.8"
   id="path66946" />
</svg>
