<?xml version="1.0" encoding="UTF-8" standalone="no"?>
<!-- Generator: Adobe Illustrator 25.2.3, SVG Export Plug-In . SVG Version: 6.00 Build 0)  -->

<svg
   version="1.0"
   id="svg7595"
   sodipodi:docname="range_LowFreq.svg"
   x="0px"
   y="0px"
   width="24"
   height="24"
   viewBox="0 0 24.000001 24"
   enable-background="new 0 0 17.9996 18"
   xml:space="preserve"
   inkscape:version="1.1.1 (3bf5ae0d25, 2021-09-20)"
   xmlns:inkscape="http://www.inkscape.org/namespaces/inkscape"
   xmlns:sodipodi="http://sodipodi.sourceforge.net/DTD/sodipodi-0.dtd"
   xmlns:xlink="http://www.w3.org/1999/xlink"
   xmlns="http://www.w3.org/2000/svg"
   xmlns:svg="http://www.w3.org/2000/svg"><defs
   id="defs67960" />
<sodipodi:namedview
   bordercolor="#666666"
   borderopacity="1.0"
   fit-margin-bottom="0"
   fit-margin-left="0"
   fit-margin-right="0"
   fit-margin-top="0"
   id="base"
   inkscape:current-layer="svg7595"
   inkscape:cx="1.6793785"
   inkscape:cy="8.8830285"
   inkscape:document-units="px"
   inkscape:pageopacity="0.0"
   inkscape:pageshadow="2"
   inkscape:window-height="1057"
   inkscape:window-maximized="1"
   inkscape:window-width="1920"
   inkscape:window-x="1592"
   inkscape:window-y="-8"
   inkscape:zoom="11.313709"
   pagecolor="#ffffff"
   showgrid="false"
   units="px"
   inkscape:pagecheckerboard="0"
   showguides="false"
   objecttolerance="1"
   gridtolerance="10"
   guidetolerance="1"
   inkscape:showpageshadow="false">
	<inkscape:grid
   type="xygrid"
   id="grid68042" /><sodipodi:guide
   position="0,18"
   orientation="0,17.999599"
   id="guide68044" /><sodipodi:guide
   position="17.9996,18"
   orientation="18,0"
   id="guide68046" /><sodipodi:guide
   position="17.9996,0"
   orientation="0,-17.999599"
   id="guide68048" /><sodipodi:guide
   position="0,0"
   orientation="-18,0"
   id="guide68050" /></sodipodi:namedview>
<rect
   style="fill:#999999;stroke:#000000;stroke-width:0.377953;stroke-miterlimit:4;stroke-dasharray:none;stroke-opacity:1"
   id="rect109948"
   width="24"
   height="24"
   x="0"
   y="0"
   ry="3" /><g
   id="layer1"
   transform="translate(-46.755712,-67.833036)"
   inkscape:groupmode="layer"
   inkscape:label="Layer 1">
	<g
   id="g67940">
		<defs
   id="defs67935">
			<rect
   id="SVGID_1_"
   x="46.755322"
   y="67.833023"
   width="18"
   height="18" />
		</defs>
		<clipPath
   id="SVGID_2_">
			<use
   xlink:href="#SVGID_1_"
   overflow="visible"
   id="use67937"
   x="0"
   y="0"
   width="100%"
   height="100%" />
		</clipPath>
	</g>
</g>



<g
   aria-label="Low"
   id="text67258"
   style="font-size:8.66667px;line-height:1.25;font-family:Arial;-inkscape-font-specification:'Arial, Normal';font-variant-ligatures:none;text-align:center;text-anchor:middle"><path
     d="M 4.4018531,9.7813177 V 3.5775394 h 0.8209638 v 5.4716817 h 3.0553397 v 0.7320966 z"
     id="path80058" /><path
     d="m 8.8748365,7.5342466 q 0,-1.2483729 0.6940107,-1.8492846 0.5797528,-0.4993491 1.4134118,-0.4993491 0.926758,0 1.514975,0.6093752 0.588216,0.6051435 0.588216,1.6757819 0,0.8675133 -0.26237,1.3668625 -0.258138,0.4951173 -0.757487,0.7701825 -0.495117,0.2750652 -1.083334,0.2750652 -0.943685,0 -1.5276697,-0.6051434 Q 8.8748365,8.6725933 8.8748365,7.5342466 Z m 0.7828779,0 q 0,0.8632815 0.3766276,1.2949223 0.376628,0.427409 0.947917,0.427409 0.567058,0 0.943685,-0.4316407 0.376628,-0.4316408 0.376628,-1.3160813 0,-0.8336591 -0.380859,-1.2610681 -0.376628,-0.4316408 -0.939454,-0.4316408 -0.571289,0 -0.947917,0.427409 -0.3766276,0.427409 -0.3766276,1.2906906 z"
     id="path80060" /><path
     d="M 14.807781,9.7813177 13.432455,5.2871754 h 0.78711 l 0.71517,2.5940765 0.266601,0.9648441 q 0.01693,-0.07194 0.232748,-0.9267581 l 0.715169,-2.6321625 h 0.782878 l 0.672852,2.6067718 0.224284,0.8590498 0.258138,-0.8675133 0.770183,-2.5983083 h 0.74056 l -1.404949,4.4941423 h -0.791341 l -0.71517,-2.6914072 -0.173502,-0.7659508 -0.909831,3.457358 z"
     id="path80062" /></g><g
   aria-label="Freq"
   id="text67258-4"
   style="font-size:8.66667px;line-height:1.25;font-family:Arial;-inkscape-font-specification:'Arial, Normal';font-variant-ligatures:none;text-align:center;text-anchor:middle"><path
     d="m 3.7565074,19.238871 v -6.203779 h 4.1852229 v 0.732097 h -3.364259 v 1.921225 H 7.4889307 V 16.42051 H 4.5774713 v 2.818361 z"
     id="path80065" /><path
     d="m 8.9023426,19.238871 v -4.494143 h 0.6855471 v 0.681316 q 0.2623699,-0.478191 0.4824223,-0.630534 0.224284,-0.152344 0.490885,-0.152344 0.385092,0 0.782878,0.245443 l -0.26237,0.706706 q -0.279297,-0.16504 -0.558594,-0.16504 -0.249674,0 -0.448567,0.152344 -0.1988938,0.148112 -0.2835292,0.414714 -0.1269532,0.40625 -0.1269532,0.888672 v 2.352866 z"
     id="path80067" /><path
     d="m 14.873373,17.791604 0.78711,0.09733 q -0.186198,0.689779 -0.689779,1.070639 -0.503581,0.380859 -1.286459,0.380859 -0.986003,0 -1.565756,-0.605143 -0.575521,-0.609376 -0.575521,-1.705405 0,-1.134115 0.583985,-1.760417 0.583984,-0.626302 1.514974,-0.626302 0.901368,0 1.472657,0.613607 0.571289,0.613607 0.571289,1.726563 0,0.06771 -0.0042,0.203125 h -3.351564 q 0.04232,0.74056 0.418945,1.134115 0.376628,0.393555 0.939454,0.393555 0.418945,0 0.715169,-0.220052 0.296224,-0.220052 0.469727,-0.702475 z m -2.500977,-1.231445 h 2.509441 q -0.05078,-0.567058 -0.287761,-0.850587 -0.363932,-0.440104 -0.943685,-0.440104 -0.52474,0 -0.884441,0.351237 -0.355469,0.351237 -0.393554,0.939454 z"
     id="path80069" /><path
     d="M 19.481774,20.961202 V 18.76068 q -0.177735,0.249675 -0.49935,0.414714 -0.317382,0.165039 -0.677083,0.165039 -0.799805,0 -1.379558,-0.638997 -0.575521,-0.638998 -0.575521,-1.751954 0,-0.677084 0.232748,-1.214519 0.236979,-0.537435 0.681315,-0.8125 0.448568,-0.279297 0.981771,-0.279297 0.833659,0 1.311849,0.702474 v -0.600912 h 0.685548 v 6.216474 z M 17.13314,16.979104 q 0,0.867514 0.363932,1.303386 0.363933,0.431641 0.871745,0.431641 0.486654,0 0.837891,-0.410482 0.351237,-0.414714 0.351237,-1.256836 0,-0.897136 -0.372395,-1.349936 -0.368165,-0.4528 -0.867514,-0.4528 -0.495117,0 -0.842123,0.423178 -0.342773,0.418945 -0.342773,1.311849 z"
     id="path80071" /></g></svg>
