<?xml version="1.0" encoding="UTF-8" standalone="no"?>
<!-- Generator: Adobe Illustrator 25.2.3, SVG Export Plug-In . SVG Version: 6.00 Build 0)  -->

<svg
   version="1.0"
   id="svg7595"
   sodipodi:docname="range_pm5.svg"
   x="0px"
   y="0px"
   width="24"
   height="24"
   viewBox="0 0 24.000001 24"
   enable-background="new 0 0 17.9996 18"
   xml:space="preserve"
   inkscape:version="1.1.1 (3bf5ae0d25, 2021-09-20)"
   xmlns:inkscape="http://www.inkscape.org/namespaces/inkscape"
   xmlns:sodipodi="http://sodipodi.sourceforge.net/DTD/sodipodi-0.dtd"
   xmlns:xlink="http://www.w3.org/1999/xlink"
   xmlns="http://www.w3.org/2000/svg"
   xmlns:svg="http://www.w3.org/2000/svg"><defs
   id="defs67960" />
<sodipodi:namedview
   bordercolor="#666666"
   borderopacity="1.0"
   fit-margin-bottom="0"
   fit-margin-left="0"
   fit-margin-right="0"
   fit-margin-top="0"
   id="base"
   inkscape:current-layer="svg7595"
   inkscape:cx="10"
   inkscape:cy="7.46875"
   inkscape:document-units="mm"
   inkscape:pageopacity="0.0"
   inkscape:pageshadow="2"
   inkscape:window-height="1057"
   inkscape:window-maximized="1"
   inkscape:window-width="1920"
   inkscape:window-x="1592"
   inkscape:window-y="-8"
   inkscape:zoom="16"
   pagecolor="#ffffff"
   showgrid="true"
   units="px"
   inkscape:pagecheckerboard="0"
   showguides="true"
   objecttolerance="1"
   gridtolerance="10"
   guidetolerance="1"
   inkscape:showpageshadow="false">
	<inkscape:grid
   type="xygrid"
   id="grid68042" /><sodipodi:guide
   position="0,18"
   orientation="0,17.999599"
   id="guide68044" /><sodipodi:guide
   position="18,33.000001"
   orientation="18,0"
   id="guide68046" /><sodipodi:guide
   position="17.9996,0"
   orientation="0,-17.999599"
   id="guide68048" /><sodipodi:guide
   position="0,0"
   orientation="-18,0"
   id="guide68050" /></sodipodi:namedview>
<rect
   style="fill:#999999;stroke:#000000;stroke-width:0.372093;stroke-miterlimit:4;stroke-dasharray:none;stroke-opacity:1"
   id="rect109948"
   width="23.627907"
   height="23.627907"
   x="0.1860465"
   y="0.1860465"
   ry="2.9534883" /><g
   id="layer1"
   transform="translate(-46.755712,-67.833036)"
   inkscape:groupmode="layer"
   inkscape:label="Layer 1">
	<g
   id="g67940">
		<defs
   id="defs67935">
			<rect
   id="SVGID_1_"
   x="46.755322"
   y="67.833023"
   width="18"
   height="18" />
		</defs>
		<clipPath
   id="SVGID_2_">
			<use
   xlink:href="#SVGID_1_"
   overflow="visible"
   id="use67937"
   x="0"
   y="0"
   width="100%"
   height="100%" />
		</clipPath>
	</g>
</g>



<g
   aria-label="±5"
   id="text18928"
   style="font-size:10.6667px;line-height:1.25;font-family:Arial;-inkscape-font-specification:'Arial, Normal';font-variant-ligatures:none;text-align:center;text-anchor:middle;fill:#00000f"><path
     d="M 8.6249886,13.958329 V 11.859364 H 6.546857 V 10.98957 H 8.6249886 V 8.9114381 H 9.5104081 V 10.98957 H 11.58854 v 0.869794 H 9.5104081 v 2.098965 z M 11.58854,15.3125 H 6.546857 v -0.875003 h 5.041683 z"
     id="path60248" /><path
     d="m 12.437501,13.312494 0.984378,-0.08333 q 0.109375,0.718752 0.50521,1.083337 0.401043,0.359376 0.963544,0.359376 0.677086,0 1.145837,-0.510418 0.468752,-0.510419 0.468752,-1.354171 0,-0.802086 -0.453127,-1.265629 -0.447918,-0.463543 -1.177087,-0.463543 -0.453126,0 -0.817711,0.208334 -0.364584,0.203125 -0.572918,0.531251 l -0.880211,-0.114583 0.739585,-3.9218878 h 3.796887 v 0.8958362 h -3.046884 l -0.41146,2.0520896 q 0.687502,-0.479168 1.442713,-0.479168 1.000003,0 1.687505,0.692711 0.687503,0.69271 0.687503,1.781255 0,1.036462 -0.604169,1.791672 -0.734377,0.927087 -2.005215,0.927087 -1.04167,0 -1.70313,-0.583335 -0.656252,-0.583336 -0.750002,-1.54688 z"
     id="path60250" /></g></svg>
