<?xml version="1.0" encoding="UTF-8" standalone="no"?>
<!-- Generator: Adobe Illustrator 25.2.3, SVG Export Plug-In . SVG Version: 6.00 Build 0)  -->

<svg
   version="1.0"
   id="svg7595"
   sodipodi:docname="range_0-10.svg"
   x="0px"
   y="0px"
   width="24"
   height="24"
   viewBox="0 0 24.000001 24"
   enable-background="new 0 0 17.9996 18"
   xml:space="preserve"
   inkscape:version="1.1.1 (3bf5ae0d25, 2021-09-20)"
   xmlns:inkscape="http://www.inkscape.org/namespaces/inkscape"
   xmlns:sodipodi="http://sodipodi.sourceforge.net/DTD/sodipodi-0.dtd"
   xmlns:xlink="http://www.w3.org/1999/xlink"
   xmlns="http://www.w3.org/2000/svg"
   xmlns:svg="http://www.w3.org/2000/svg"><defs
   id="defs67960" />
<sodipodi:namedview
   bordercolor="#666666"
   borderopacity="1.0"
   fit-margin-bottom="0"
   fit-margin-left="0"
   fit-margin-right="0"
   fit-margin-top="0"
   id="base"
   inkscape:current-layer="svg7595"
   inkscape:cx="10"
   inkscape:cy="8.78125"
   inkscape:document-units="mm"
   inkscape:pageopacity="0.0"
   inkscape:pageshadow="2"
   inkscape:window-height="1057"
   inkscape:window-maximized="1"
   inkscape:window-width="1920"
   inkscape:window-x="1592"
   inkscape:window-y="-8"
   inkscape:zoom="16"
   pagecolor="#ffffff"
   showgrid="true"
   units="px"
   inkscape:pagecheckerboard="0"
   showguides="true"
   objecttolerance="1"
   gridtolerance="10"
   guidetolerance="1"
   inkscape:showpageshadow="false">
	<inkscape:grid
   type="xygrid"
   id="grid68042" /><sodipodi:guide
   position="0,18"
   orientation="0,17.999599"
   id="guide68044" /><sodipodi:guide
   position="18,33.000001"
   orientation="18,0"
   id="guide68046" /><sodipodi:guide
   position="17.9996,0"
   orientation="0,-17.999599"
   id="guide68048" /><sodipodi:guide
   position="0,0"
   orientation="-18,0"
   id="guide68050" /></sodipodi:namedview>
<rect
   style="fill:#999999;stroke:#000000;stroke-width:0.372093;stroke-miterlimit:4;stroke-dasharray:none;stroke-opacity:1"
   id="rect109948"
   width="23.627907"
   height="23.627907"
   x="0.1860465"
   y="0.1860465"
   ry="2.9534883" /><g
   id="layer1"
   transform="translate(-46.755712,-67.833036)"
   inkscape:groupmode="layer"
   inkscape:label="Layer 1">
	<g
   id="g67940">
		<defs
   id="defs67935">
			<rect
   id="SVGID_1_"
   x="46.755322"
   y="67.833023"
   width="18"
   height="18" />
		</defs>
		<clipPath
   id="SVGID_2_">
			<use
   xlink:href="#SVGID_1_"
   overflow="visible"
   id="use67937"
   x="0"
   y="0"
   width="100%"
   height="100%" />
		</clipPath>
	</g>
</g>



<g
   aria-label="0-10"
   id="text18928"
   style="font-size:10.6667px;line-height:1.25;font-family:Arial;-inkscape-font-specification:'Arial, Normal';font-variant-ligatures:none;text-align:center;text-anchor:middle"><path
     d="m 1.8020504,11.546863 q 0,-1.354171 0.2760425,-2.1770901 0.2812509,-0.8281276 0.8281276,-1.2760457 0.5520851,-0.4479181 1.3854211,-0.4479181 0.6145852,0 1.0781284,0.2500008 0.4635431,0.2447924 0.7656274,0.7135439 0.3020843,0.4635432 0.4739598,1.1354203 0.1718756,0.6666689 0.1718756,1.8020889 0,1.343754 -0.2760426,2.171882 -0.2760425,0.822919 -0.8281276,1.276046 -0.5468767,0.447918 -1.385421,0.447918 -1.1041702,0 -1.7343805,-0.791669 -0.7552107,-0.953128 -0.7552107,-3.104177 z m 0.9635447,0 q 0,1.880214 0.4375014,2.505216 0.4427097,0.619794 1.0885451,0.619794 0.6458353,0 1.0833367,-0.625002 0.4427098,-0.625002 0.4427098,-2.500008 0,-1.8854225 -0.4427098,-2.5052161 -0.4375014,-0.6197937 -1.0937534,-0.6197937 -0.6458354,0 -1.0312533,0.5468768 -0.4843765,0.6979188 -0.4843765,2.578133 z"
     id="path42081" /><path
     d="m 7.630194,13.020826 v -0.942711 h 2.880217 v 0.942711 z"
     id="path42083" /><path
     d="M 14.817717,15.3125 H 13.880214 V 9.3385228 Q 13.541671,9.6614405 12.989586,9.9843582 12.44271,10.307276 12.005208,10.468735 V 9.5624818 Q 12.791669,9.192689 13.380213,8.6666457 13.968756,8.1406023 14.213548,7.6458091 h 0.604169 z"
     id="path42085" /><path
     d="m 17.218766,11.546863 q 0,-1.354171 0.276043,-2.1770901 0.28125,-0.8281276 0.828127,-1.2760457 0.552085,-0.4479181 1.385421,-0.4479181 0.614585,0 1.078129,0.2500008 0.463543,0.2447924 0.765627,0.7135439 0.302084,0.4635432 0.47396,1.1354203 0.171875,0.6666689 0.171875,1.8020889 0,1.343754 -0.276042,2.171882 -0.276043,0.822919 -0.828128,1.276046 -0.546876,0.447918 -1.385421,0.447918 -1.10417,0 -1.73438,-0.791669 -0.755211,-0.953128 -0.755211,-3.104177 z m 0.963545,0 q 0,1.880214 0.437501,2.505216 0.44271,0.619794 1.088545,0.619794 0.645836,0 1.083337,-0.625002 0.44271,-0.625002 0.44271,-2.500008 0,-1.8854225 -0.44271,-2.5052161 -0.437501,-0.6197937 -1.093754,-0.6197937 -0.645835,0 -1.031253,0.5468768 -0.484376,0.6979188 -0.484376,2.578133 z"
     id="path42087" /></g></svg>
