<?xml version="1.0" encoding="UTF-8" standalone="no"?>
<!-- Generator: Adobe Illustrator 25.2.3, SVG Export Plug-In . SVG Version: 6.00 Build 0)  -->

<svg
   version="1.0"
   id="svg7595"
   sodipodi:docname="rate_2.svg"
   x="0px"
   y="0px"
   width="24"
   height="24"
   viewBox="0 0 24.000001 24"
   enable-background="new 0 0 17.9996 18"
   xml:space="preserve"
   inkscape:version="1.1.1 (3bf5ae0d25, 2021-09-20)"
   xmlns:inkscape="http://www.inkscape.org/namespaces/inkscape"
   xmlns:sodipodi="http://sodipodi.sourceforge.net/DTD/sodipodi-0.dtd"
   xmlns:xlink="http://www.w3.org/1999/xlink"
   xmlns="http://www.w3.org/2000/svg"
   xmlns:svg="http://www.w3.org/2000/svg"><defs
   id="defs67960" />
<sodipodi:namedview
   bordercolor="#666666"
   borderopacity="1.0"
   fit-margin-bottom="0"
   fit-margin-left="0"
   fit-margin-right="0"
   fit-margin-top="0"
   id="base"
   inkscape:current-layer="svg7595"
   inkscape:cx="11.247417"
   inkscape:cy="13.324543"
   inkscape:document-units="mm"
   inkscape:pageopacity="0.0"
   inkscape:pageshadow="2"
   inkscape:window-height="837"
   inkscape:window-maximized="1"
   inkscape:window-width="1600"
   inkscape:window-x="-8"
   inkscape:window-y="-8"
   inkscape:zoom="22.627417"
   pagecolor="#ffffff"
   showgrid="true"
   units="px"
   inkscape:pagecheckerboard="0"
   showguides="true"
   objecttolerance="1"
   gridtolerance="10"
   guidetolerance="1">
	<inkscape:grid
   type="xygrid"
   id="grid68042" /><sodipodi:guide
   position="0,18"
   orientation="0,17.999599"
   id="guide68044" /><sodipodi:guide
   position="17.9996,18"
   orientation="18,0"
   id="guide68046" /><sodipodi:guide
   position="17.9996,0"
   orientation="0,-17.999599"
   id="guide68048" /><sodipodi:guide
   position="0,0"
   orientation="-18,0"
   id="guide68050" /></sodipodi:namedview>
<rect
   style="fill:#999999;stroke:#000000;stroke-width:0.377953;stroke-miterlimit:4;stroke-dasharray:none;stroke-opacity:1"
   id="rect109948"
   width="24"
   height="24"
   x="0"
   y="0"
   ry="0.99999976" /><g
   id="layer1"
   transform="translate(-46.755712,-67.833036)"
   inkscape:groupmode="layer"
   inkscape:label="Layer 1">
	<g
   id="g67940">
		<defs
   id="defs67935">
			<rect
   id="SVGID_1_"
   x="46.755322"
   y="67.833023"
   width="18"
   height="18" />
		</defs>
		<clipPath
   id="SVGID_2_">
			<use
   xlink:href="#SVGID_1_"
   overflow="visible"
   id="use67937"
   x="0"
   y="0"
   width="100%"
   height="100%" />
		</clipPath>
	</g>
</g>



<g
   aria-label="1/16"
   id="text169233"
   style="font-size:10.6667px;line-height:0.95;font-family:'Yu Gothic';-inkscape-font-specification:'Yu Gothic, Normal';font-variant-ligatures:none;text-align:center;letter-spacing:-0.35px;word-spacing:-1px;text-anchor:middle"><path
     d="M 4.3364955,8.0416414 V 15.229164 H 5.774 v 0.56771 H 2.1385719 v -0.56771 H 3.6750351 V 8.765602 Q 2.9979496,9.2291452 2.1073218,9.5676879 L 1.9875297,8.9478943 Q 2.8729492,8.6510184 3.7896188,8.0416414 Z"
     id="path225423" /><path
     d="M 11.397977,7.1249719 7.2469227,16.895836 H 6.715671 l 4.151055,-9.7708641 z"
     id="path225425" /><path
     d="m 14.730281,8.0416414 v 7.1875226 h 1.437504 v 0.56771 h -3.635428 v -0.56771 h 1.536464 V 8.765602 Q 13.391735,9.2291452 12.501107,9.5676879 L 12.381315,8.9478943 q 0.88542,-0.2968759 1.802089,-0.9062529 z"
     id="path225427" /><path
     d="m 21.942805,9.0208112 -0.640627,0.312501 q -0.328126,-0.7343773 -1.119795,-0.7343773 -1.791672,0 -1.854173,3.4843861 0.723961,-1.161462 1.812506,-1.161462 0.927086,0 1.479171,0.739586 0.484377,0.651043 0.484377,1.661463 0,1.281254 -0.692711,2.005215 -0.578126,0.609377 -1.453129,0.609377 -1.109379,0 -1.718756,-0.994795 -0.572918,-0.927086 -0.572918,-2.578133 0,-2.343758 0.776044,-3.4427195 0.640627,-0.9010445 1.760422,-0.9010445 1.197921,0 1.739589,1.0000032 z m -3.593761,3.7343868 q 0.01042,1.380213 0.526043,2.057298 0.416668,0.546877 1.083337,0.546877 0.72396,0 1.109378,-0.593752 0.343751,-0.526043 0.343751,-1.432296 0,-0.911461 -0.421876,-1.401046 -0.364584,-0.421877 -0.953128,-0.421877 -1.000003,0 -1.687505,1.244796 z"
     id="path225429" /></g></svg>
