<?xml version="1.0" encoding="UTF-8" standalone="no"?>
<svg
   xmlns:dc="http://purl.org/dc/elements/1.1/"
   xmlns:cc="http://creativecommons.org/ns#"
   xmlns:rdf="http://www.w3.org/1999/02/22-rdf-syntax-ns#"
   xmlns:svg="http://www.w3.org/2000/svg"
   xmlns="http://www.w3.org/2000/svg"
   xmlns:sodipodi="http://sodipodi.sourceforge.net/DTD/sodipodi-0.dtd"
   xmlns:inkscape="http://www.inkscape.org/namespaces/inkscape"
   version="1.0"
   id="svg111794"
   x="0px"
   y="0px"
   width="19.993176"
   height="19.956924"
   viewBox="0 0 19.993175 19.956924"
   enable-background="new 0 0 17.85552 17.85938"
   xml:space="preserve"
   sodipodi:docname="rate_2.svg"
   inkscape:version="1.0 (4035a4fb49, 2020-05-01)"><metadata
   id="metadata15"><rdf:RDF><cc:Work
       rdf:about=""><dc:format>image/svg+xml</dc:format><dc:type
         rdf:resource="http://purl.org/dc/dcmitype/StillImage" /><dc:title /></cc:Work></rdf:RDF></metadata><defs
   id="defs13">
	
	
	
</defs><sodipodi:namedview
   fit-margin-bottom="0"
   fit-margin-right="0"
   fit-margin-left="0"
   fit-margin-top="0"
   inkscape:document-rotation="0"
   pagecolor="#ffffff"
   bordercolor="#666666"
   borderopacity="1"
   objecttolerance="10"
   gridtolerance="10"
   guidetolerance="10"
   inkscape:pageopacity="0"
   inkscape:pageshadow="2"
   inkscape:window-width="1920"
   inkscape:window-height="1017"
   id="namedview11"
   showgrid="false"
   inkscape:zoom="17.18337"
   inkscape:cx="25.810737"
   inkscape:cy="11.455517"
   inkscape:window-x="1912"
   inkscape:window-y="-8"
   inkscape:window-maximized="1"
   inkscape:current-layer="svg111794"
   units="px" />

<g
   aria-label="1/16"
   transform="matrix(0.40865176,0,0,0.40865176,5.2772908,8.0296181)"
   id="text833"
   style="font-style:normal;font-variant:normal;font-weight:normal;font-stretch:normal;font-size:25.3914px;line-height:100%;font-family:Arial;-inkscape-font-specification:Arial;font-variant-ligatures:normal;font-variant-position:normal;font-variant-caps:normal;font-variant-numeric:normal;font-variant-alternates:normal;font-variant-east-asian:normal;font-feature-settings:normal;font-variation-settings:normal;text-indent:0;text-align:center;text-decoration:none;text-decoration-line:none;text-decoration-style:solid;text-decoration-color:#000000;letter-spacing:0px;word-spacing:0px;text-transform:none;writing-mode:lr-tb;direction:ltr;text-orientation:mixed;dominant-baseline:auto;baseline-shift:baseline;text-anchor:middle;white-space:normal;shape-padding:0;shape-margin:0;inline-size:0;opacity:1;vector-effect:none;fill:#000000;fill-opacity:1;stroke:none;stroke-width:0.999999px;stroke-linecap:butt;stroke-linejoin:miter;stroke-miterlimit:4;stroke-dasharray:none;stroke-dashoffset:0;stroke-opacity:1;stop-color:#000000;stop-opacity:1"><path
     d="M -4.4376965,13.850601 H -6.6693625 V -0.37007024 Q -7.4752419,0.39861471 -8.7894452,1.1672996 -10.09125,1.9359846 -11.132694,2.3203271 V 0.16304997 Q -9.2605746,-0.71721827 -7.8595843,-1.9694308 -6.458594,-3.2216434 -5.8758813,-4.3994671 H -4.4376965 Z"
     id="path832" /><path
     d="M 0.23640386,14.160555 5.5056152,-4.6350319 H 7.2909479 L 2.0341348,14.160555 Z"
     id="path834" /><path
     d="M 16.738333,13.850601 H 14.506667 V -0.37007024 Q 13.700787,0.39861471 12.386584,1.1672996 11.084779,1.9359846 10.043335,2.3203271 V 0.16304997 Q 11.915455,-0.71721827 13.316445,-1.9694308 14.717435,-3.2216434 15.300148,-4.3994671 H 16.738333 Z"
     id="path836" /><path
     d="M 34.046142,0.12585553 31.826874,0.29942955 Q 31.529319,-1.0147737 30.9838,-1.6098847 30.078736,-2.5645418 28.752134,-2.5645418 27.685894,-2.5645418 26.880015,-1.9694308 25.826172,-1.2007459 25.218663,0.27463326 24.611154,1.7500124 24.586358,4.4776042 25.392237,3.2501879 26.557663,2.655077 27.723088,2.059966 29.000097,2.059966 31.231763,2.059966 32.793929,3.7089192 34.368494,5.3454743 34.368494,7.9490845 34.368494,9.6600284 33.624605,11.135408 32.893115,12.598389 31.603708,13.379472 30.314301,14.160555 28.677746,14.160555 25.888163,14.160555 24.127627,12.114861 22.36709,10.056769 22.36709,5.3454743 22.36709,0.07626296 24.313599,-2.3165789 26.012145,-4.3994671 28.888514,-4.3994671 31.033393,-4.3994671 32.397189,-3.1968471 33.773383,-1.9942271 34.046142,0.12585553 Z M 24.933506,7.9614827 Q 24.933506,9.1145101 25.417034,10.168352 25.912959,11.222195 26.793228,11.780111 27.673496,12.325629 28.640551,12.325629 30.05394,12.325629 31.070587,11.185 32.087235,10.044371 32.087235,8.0854641 32.087235,6.2009462 31.082986,5.1223077 30.078736,4.031271 28.553764,4.031271 27.041191,4.031271 25.987348,5.1223077 24.933506,6.2009462 24.933506,7.9614827 Z"
     id="path838" /></g></svg>
