<?xml version="1.0" encoding="UTF-8" standalone="no"?>
<!-- Generator: Adobe Illustrator 25.2.3, SVG Export Plug-In . SVG Version: 6.00 Build 0)  -->

<svg
   version="1.0"
   id="svg7595"
   sodipodi:docname="rate_12.svg"
   x="0px"
   y="0px"
   width="24"
   height="24"
   viewBox="0 0 24.000001 24"
   enable-background="new 0 0 17.9996 18"
   xml:space="preserve"
   inkscape:version="1.1.1 (3bf5ae0d25, 2021-09-20)"
   xmlns:inkscape="http://www.inkscape.org/namespaces/inkscape"
   xmlns:sodipodi="http://sodipodi.sourceforge.net/DTD/sodipodi-0.dtd"
   xmlns:xlink="http://www.w3.org/1999/xlink"
   xmlns="http://www.w3.org/2000/svg"
   xmlns:svg="http://www.w3.org/2000/svg"><defs
   id="defs67960" />
<sodipodi:namedview
   bordercolor="#666666"
   borderopacity="1.0"
   fit-margin-bottom="0"
   fit-margin-left="0"
   fit-margin-right="0"
   fit-margin-top="0"
   id="base"
   inkscape:current-layer="svg7595"
   inkscape:cx="6.6875"
   inkscape:cy="8.65625"
   inkscape:document-units="mm"
   inkscape:pageopacity="0.0"
   inkscape:pageshadow="2"
   inkscape:window-height="1057"
   inkscape:window-maximized="1"
   inkscape:window-width="1920"
   inkscape:window-x="1592"
   inkscape:window-y="-8"
   inkscape:zoom="16"
   pagecolor="#ffffff"
   showgrid="true"
   units="px"
   inkscape:pagecheckerboard="0"
   showguides="true"
   objecttolerance="1"
   gridtolerance="10"
   guidetolerance="1">
	<inkscape:grid
   type="xygrid"
   id="grid68042" /><sodipodi:guide
   position="0,18"
   orientation="0,17.999599"
   id="guide68044" /><sodipodi:guide
   position="17.9996,18"
   orientation="18,0"
   id="guide68046" /><sodipodi:guide
   position="17.9996,0"
   orientation="0,-17.999599"
   id="guide68048" /><sodipodi:guide
   position="0,0"
   orientation="-18,0"
   id="guide68050" /></sodipodi:namedview>
<rect
   style="fill:#999999;stroke:#000000;stroke-width:0.377953;stroke-miterlimit:4;stroke-dasharray:none;stroke-opacity:1"
   id="rect109948"
   width="24"
   height="24"
   x="0"
   y="0"
   ry="3" /><g
   id="layer1"
   transform="translate(-46.755712,-67.833036)"
   inkscape:groupmode="layer"
   inkscape:label="Layer 1">
	<g
   id="g67940">
		<defs
   id="defs67935">
			<rect
   id="SVGID_1_"
   x="46.755322"
   y="67.833023"
   width="18"
   height="18" />
		</defs>
		<clipPath
   id="SVGID_2_">
			<use
   xlink:href="#SVGID_1_"
   overflow="visible"
   id="use67937"
   x="0"
   y="0"
   width="100%"
   height="100%" />
		</clipPath>
	</g>
</g>



<g
   id="g39018"
   transform="translate(0,-2.562486)"><g
     aria-label="1/8"
     id="text169233"
     style="font-size:10.6667px;line-height:0.95;font-family:'Yu Gothic';-inkscape-font-specification:'Yu Gothic, Normal';font-variant-ligatures:none;text-align:center;letter-spacing:0px;word-spacing:-1px;text-anchor:middle"><path
       d="m 6.7151507,8.0416414 v 7.1875226 h 1.4375045 v 0.56771 H 4.5172271 v -0.56771 H 6.0536903 V 8.765602 Q 5.3766048,9.2291452 4.485977,9.5676879 L 4.3661849,8.9478943 Q 5.2516044,8.6510184 6.168274,8.0416414 Z"
       id="path234640" /><path
       d="M 14.126633,7.1249719 9.9755778,16.895836 H 9.4443262 L 13.595381,7.1249719 Z"
       id="path234642" /><path
       d="m 17.944353,11.734361 q 1.015628,0.447919 1.406255,1.000004 0.322917,0.453126 0.322917,1.119795 0,1.036461 -0.739585,1.604172 -0.625002,0.479168 -1.604172,0.479168 -1.119795,0 -1.760422,-0.614586 -0.578127,-0.552085 -0.578127,-1.442712 0,-0.729169 0.463543,-1.229171 0.401043,-0.432293 1.265629,-0.833336 -0.864586,-0.41146 -1.203129,-0.906253 -0.291668,-0.416668 -0.291668,-1.0260447 0,-0.8697945 0.656253,-1.4010461 0.578126,-0.4635432 1.442712,-0.4635432 1.01042,0 1.614589,0.5833352 0.520835,0.5052099 0.520835,1.250004 0,0.6979188 -0.38021,1.1406288 -0.348959,0.395834 -1.13542,0.739585 z m -0.520835,-0.244792 q 0.828128,-0.354168 1.130212,-0.776044 0.244792,-0.333335 0.244792,-0.8489611 0,-0.6197937 -0.458334,-0.9791698 -0.395835,-0.312501 -1.015629,-0.312501 -0.697918,0 -1.093753,0.4062513 -0.343751,0.3541678 -0.343751,0.9062529 0,0.5364597 0.322918,0.8802107 0.307292,0.322918 1.031253,0.635419 z m -0.161459,0.583335 q -0.927086,0.416668 -1.286462,0.859378 -0.312501,0.385418 -0.312501,0.921878 0,0.750002 0.50521,1.156253 0.437501,0.359377 1.161462,0.359377 0.843752,0 1.291671,-0.458335 0.380209,-0.390626 0.380209,-1.046879 0,-0.604168 -0.380209,-0.994794 -0.34896,-0.354168 -1.177088,-0.708336 z"
       id="path234644" /></g><circle
     style="fill:#000000;fill-opacity:1;stroke:none;stroke-width:0.999999;stroke-miterlimit:4;stroke-dasharray:1.99999, 3.99999;stroke-dashoffset:0;stroke-opacity:1"
     id="path37294"
     cx="12.019855"
     cy="20.5"
     r="1.5" /></g></svg>
