<?xml version="1.0" encoding="UTF-8" standalone="no"?>
<!-- Generator: Adobe Illustrator 25.2.3, SVG Export Plug-In . SVG Version: 6.00 Build 0)  -->

<svg
   version="1.0"
   id="svg7595"
   sodipodi:docname="rate_3.svg"
   x="0px"
   y="0px"
   width="24"
   height="24"
   viewBox="0 0 24.000001 24"
   enable-background="new 0 0 17.9996 18"
   xml:space="preserve"
   inkscape:version="1.1.1 (3bf5ae0d25, 2021-09-20)"
   xmlns:inkscape="http://www.inkscape.org/namespaces/inkscape"
   xmlns:sodipodi="http://sodipodi.sourceforge.net/DTD/sodipodi-0.dtd"
   xmlns:xlink="http://www.w3.org/1999/xlink"
   xmlns="http://www.w3.org/2000/svg"
   xmlns:svg="http://www.w3.org/2000/svg"><defs
   id="defs67960" />
<sodipodi:namedview
   bordercolor="#666666"
   borderopacity="1.0"
   fit-margin-bottom="0"
   fit-margin-left="0"
   fit-margin-right="0"
   fit-margin-top="0"
   id="base"
   inkscape:current-layer="svg7595"
   inkscape:cx="12.219689"
   inkscape:cy="12.131301"
   inkscape:document-units="mm"
   inkscape:pageopacity="0.0"
   inkscape:pageshadow="2"
   inkscape:window-height="837"
   inkscape:window-maximized="1"
   inkscape:window-width="1600"
   inkscape:window-x="-8"
   inkscape:window-y="-8"
   inkscape:zoom="22.627417"
   pagecolor="#ffffff"
   showgrid="true"
   units="px"
   inkscape:pagecheckerboard="0"
   showguides="true"
   objecttolerance="1"
   gridtolerance="10"
   guidetolerance="1">
	<inkscape:grid
   type="xygrid"
   id="grid68042" /><sodipodi:guide
   position="0,18"
   orientation="0,17.999599"
   id="guide68044" /><sodipodi:guide
   position="17.9996,18"
   orientation="18,0"
   id="guide68046" /><sodipodi:guide
   position="17.9996,0"
   orientation="0,-17.999599"
   id="guide68048" /><sodipodi:guide
   position="0,0"
   orientation="-18,0"
   id="guide68050" /></sodipodi:namedview>
<rect
   style="fill:#999999;stroke:#000000;stroke-width:0.377953;stroke-miterlimit:4;stroke-dasharray:none;stroke-opacity:1"
   id="rect109948"
   width="24"
   height="24"
   x="0"
   y="0"
   ry="0.99999976" /><g
   id="layer1"
   transform="translate(-46.755712,-67.833036)"
   inkscape:groupmode="layer"
   inkscape:label="Layer 1">
	<g
   id="g67940">
		<defs
   id="defs67935">
			<rect
   id="SVGID_1_"
   x="46.755322"
   y="67.833023"
   width="18"
   height="18" />
		</defs>
		<clipPath
   id="SVGID_2_">
			<use
   xlink:href="#SVGID_1_"
   overflow="visible"
   id="use67937"
   x="0"
   y="0"
   width="100%"
   height="100%" />
		</clipPath>
	</g>
</g>



<g
   aria-label="1/32"
   id="text169233"
   style="font-size:10.6667px;line-height:0.95;font-family:'Yu Gothic';-inkscape-font-specification:'Yu Gothic, Normal';font-variant-ligatures:none;text-align:center;letter-spacing:-0.35px;word-spacing:-1px;text-anchor:middle"><path
     d="M 4.3364955,8.0416414 V 15.229164 H 5.774 v 0.56771 H 2.1385719 v -0.56771 H 3.6750351 V 8.765602 Q 2.9979496,9.2291452 2.1073218,9.5676879 L 1.9875297,8.9478943 Q 2.8729492,8.6510184 3.7896188,8.0416414 Z"
     id="path225356" /><path
     d="M 11.397977,7.1249719 7.2469227,16.895836 H 6.715671 l 4.151055,-9.7708641 z"
     id="path225358" /><path
     d="m 12.063606,9.494771 q 0.296876,-0.7604191 0.916669,-1.1406286 0.531252,-0.3333344 1.239588,-0.3333344 0.958336,0 1.552088,0.5833352 0.526043,0.5104183 0.526043,1.2708374 0,0.7552104 -0.442709,1.2395874 -0.38021,0.411459 -1.020837,0.562502 v 0.06771 q 0.833336,0.187501 1.265629,0.760419 0.380209,0.50521 0.380209,1.213546 0,1.062503 -0.708335,1.682297 -0.609377,0.53646 -1.531255,0.53646 -1.682297,0 -2.328132,-1.45313 l 0.640627,-0.276042 q 0.276042,0.656252 0.72396,0.921877 0.38021,0.229168 0.963545,0.229168 0.744794,0 1.16667,-0.500002 0.369793,-0.437501 0.369793,-1.119795 0,-0.854169 -0.53646,-1.286462 -0.484376,-0.390627 -1.343754,-0.390627 h -0.59896 v -0.609376 h 0.53646 q 0.911461,0 1.375004,-0.463544 0.395835,-0.395834 0.395835,-1.0572946 0,-0.6666688 -0.447918,-1.0312533 -0.375002,-0.3020842 -0.953128,-0.3020842 -0.562502,0 -0.963545,0.3229176 -0.369793,0.296876 -0.53646,0.8281277 z"
     id="path225360" /><path
     d="M 17.640708,10.036439 Q 17.854251,8.9843527 18.520919,8.4635178 19.083421,8.020808 19.90634,8.020808 q 0.97917,0 1.552089,0.5885436 0.515626,0.5260433 0.515626,1.3750043 0,0.6822941 -0.369793,1.2552121 -0.348959,0.531252 -1.239587,1.333338 -1.505213,1.317712 -2.11459,2.635425 h 3.734387 v 0.588543 h -4.406264 v -0.526043 q 0.66146,-1.583338 2.307299,-3.088551 0.875003,-0.817711 1.151045,-1.29688 0.234376,-0.406251 0.234376,-0.9010441 0,-0.6822938 -0.432293,-1.057295 -0.369793,-0.3177093 -0.942711,-0.3177093 -1.312504,0 -1.583339,1.5989634 z"
     id="path225362" /></g></svg>
