<?xml version="1.0" encoding="UTF-8" standalone="no"?>
<svg
   xmlns:dc="http://purl.org/dc/elements/1.1/"
   xmlns:cc="http://creativecommons.org/ns#"
   xmlns:rdf="http://www.w3.org/1999/02/22-rdf-syntax-ns#"
   xmlns:svg="http://www.w3.org/2000/svg"
   xmlns="http://www.w3.org/2000/svg"
   xmlns:sodipodi="http://sodipodi.sourceforge.net/DTD/sodipodi-0.dtd"
   xmlns:inkscape="http://www.inkscape.org/namespaces/inkscape"
   version="1.0"
   id="svg111794"
   x="0px"
   y="0px"
   width="19.993176"
   height="19.956924"
   viewBox="0 0 19.993175 19.956924"
   enable-background="new 0 0 17.85552 17.85938"
   xml:space="preserve"
   sodipodi:docname="rate_3.svg"
   inkscape:version="1.0 (4035a4fb49, 2020-05-01)"><metadata
   id="metadata15"><rdf:RDF><cc:Work
       rdf:about=""><dc:format>image/svg+xml</dc:format><dc:type
         rdf:resource="http://purl.org/dc/dcmitype/StillImage" /><dc:title /></cc:Work></rdf:RDF></metadata><defs
   id="defs13">
	
	
	
</defs><sodipodi:namedview
   fit-margin-bottom="0"
   fit-margin-right="0"
   fit-margin-left="0"
   fit-margin-top="0"
   inkscape:document-rotation="0"
   pagecolor="#ffffff"
   bordercolor="#666666"
   borderopacity="1"
   objecttolerance="10"
   gridtolerance="10"
   guidetolerance="10"
   inkscape:pageopacity="0"
   inkscape:pageshadow="2"
   inkscape:window-width="1920"
   inkscape:window-height="1017"
   id="namedview11"
   showgrid="false"
   inkscape:zoom="17.18337"
   inkscape:cx="25.810737"
   inkscape:cy="11.455517"
   inkscape:window-x="1912"
   inkscape:window-y="-8"
   inkscape:window-maximized="1"
   inkscape:current-layer="svg111794"
   units="px" />

<g
   aria-label="1/32"
   transform="matrix(0.40865176,0,0,0.40865176,5.2772908,8.0296181)"
   id="text833"
   style="font-style:normal;font-variant:normal;font-weight:normal;font-stretch:normal;font-size:25.3914px;line-height:100%;font-family:Arial;-inkscape-font-specification:Arial;font-variant-ligatures:normal;font-variant-position:normal;font-variant-caps:normal;font-variant-numeric:normal;font-variant-alternates:normal;font-variant-east-asian:normal;font-feature-settings:normal;font-variation-settings:normal;text-indent:0;text-align:center;text-decoration:none;text-decoration-line:none;text-decoration-style:solid;text-decoration-color:#000000;letter-spacing:0px;word-spacing:0px;text-transform:none;writing-mode:lr-tb;direction:ltr;text-orientation:mixed;dominant-baseline:auto;baseline-shift:baseline;text-anchor:middle;white-space:normal;shape-padding:0;shape-margin:0;inline-size:0;opacity:1;vector-effect:none;fill:#000000;fill-opacity:1;stroke:none;stroke-width:0.999999px;stroke-linecap:butt;stroke-linejoin:miter;stroke-miterlimit:4;stroke-dasharray:none;stroke-dashoffset:0;stroke-opacity:1;stop-color:#000000;stop-opacity:1"><path
     d="M -4.4376965,13.850601 H -6.6693625 V -0.37007024 Q -7.4752419,0.39861471 -8.7894452,1.1672996 -10.09125,1.9359846 -11.132694,2.3203271 V 0.16304997 Q -9.2605746,-0.71721827 -7.8595843,-1.9694308 -6.458594,-3.2216434 -5.8758813,-4.3994671 H -4.4376965 Z"
     id="path832" /><path
     d="M 0.23640386,14.160555 5.5056152,-4.6350319 H 7.2909479 L 2.0341348,14.160555 Z"
     id="path834" /><path
     d="M 8.344789,9.0525194 10.576455,8.7549639 Q 10.960797,10.65188 11.87826,11.494954 12.808121,12.325629 14.134722,12.325629 15.709287,12.325629 16.787925,11.234593 17.878962,10.143556 17.878962,8.5317973 17.878962,6.9944274 16.874712,6.0025759 15.870463,4.9983262 14.320695,4.9983262 13.688389,4.9983262 12.74613,5.2462891 L 12.994093,3.2873823 Q 13.21726,3.3121786 13.353639,3.3121786 14.779426,3.3121786 15.920055,2.5682899 17.060684,1.8244013 17.060684,0.27463326 17.060684,-0.95278301 16.230009,-1.7586624 15.399333,-2.5645418 14.08513,-2.5645418 12.783325,-2.5645418 11.915455,-1.7462642 11.047584,-0.92798673 10.799622,0.70856831 L 8.5679556,0.3118277 Q 8.9770944,-1.9322364 10.427677,-3.1596527 11.87826,-4.3994671 14.035537,-4.3994671 15.523315,-4.3994671 16.775527,-3.7547636 18.02774,-3.1224583 18.684841,-2.0190234 19.354341,-0.91558858 19.354341,0.32422584 19.354341,1.5020495 18.722036,2.4691048 18.08973,3.43616 16.849916,4.0064747 18.461675,4.378419 19.354341,5.5562427 20.247007,6.7216683 20.247007,8.4822047 20.247007,10.862648 18.511267,12.524 16.775527,14.172953 14.122324,14.172953 11.729482,14.172953 10.14252,12.747166 8.5679556,11.32138 8.344789,9.0525194 Z"
     id="path836" /><path
     d="M 34.19492,11.705722 V 13.850601 H 22.181118 Q 22.156322,13.044722 22.441479,12.300833 22.90021,11.073417 23.90446,9.883195 24.921108,8.6929732 26.830422,7.130807 29.793579,4.7007708 30.835023,3.2873823 31.876467,1.8615957 31.876467,0.59698501 31.876467,-0.72961642 30.92181,-1.6346809 29.979551,-2.5521436 28.454579,-2.5521436 26.84282,-2.5521436 25.875765,-1.5850884 24.90871,-0.61803312 24.896312,1.0929108 L 22.602655,0.85734604 Q 22.83822,-1.7090698 24.37559,-3.0480694 25.912959,-4.3994671 28.504172,-4.3994671 31.12018,-4.3994671 32.645152,-2.9488842 34.170123,-1.4983014 34.170123,0.64657759 34.170123,1.7376143 33.72379,2.7914565 33.277457,3.8452988 32.236013,5.0107244 31.206967,6.1761499 28.801727,8.2094456 26.793228,9.8955932 26.222913,10.503102 25.652598,11.098213 25.280654,11.705722 Z"
     id="path838" /></g></svg>
