<?xml version="1.0" encoding="UTF-8" standalone="no"?>
<!-- Generator: Adobe Illustrator 25.2.3, SVG Export Plug-In . SVG Version: 6.00 Build 0)  -->

<svg
   version="1.0"
   id="svg7595"
   sodipodi:docname="rate_5.svg"
   x="0px"
   y="0px"
   width="24"
   height="24"
   viewBox="0 0 24.000001 24"
   enable-background="new 0 0 17.9996 18"
   xml:space="preserve"
   inkscape:version="1.1.1 (3bf5ae0d25, 2021-09-20)"
   xmlns:inkscape="http://www.inkscape.org/namespaces/inkscape"
   xmlns:sodipodi="http://sodipodi.sourceforge.net/DTD/sodipodi-0.dtd"
   xmlns:xlink="http://www.w3.org/1999/xlink"
   xmlns="http://www.w3.org/2000/svg"
   xmlns:svg="http://www.w3.org/2000/svg"><defs
   id="defs67960" />
<sodipodi:namedview
   bordercolor="#666666"
   borderopacity="1.0"
   fit-margin-bottom="0"
   fit-margin-left="0"
   fit-margin-right="0"
   fit-margin-top="0"
   id="base"
   inkscape:current-layer="svg7595"
   inkscape:cx="3.53125"
   inkscape:cy="10.71875"
   inkscape:document-units="mm"
   inkscape:pageopacity="0.0"
   inkscape:pageshadow="2"
   inkscape:window-height="837"
   inkscape:window-maximized="1"
   inkscape:window-width="1600"
   inkscape:window-x="-8"
   inkscape:window-y="-8"
   inkscape:zoom="16"
   pagecolor="#ffffff"
   showgrid="true"
   units="px"
   inkscape:pagecheckerboard="0"
   showguides="true"
   objecttolerance="1"
   gridtolerance="10"
   guidetolerance="1">
	<inkscape:grid
   type="xygrid"
   id="grid68042" /><sodipodi:guide
   position="0,18"
   orientation="0,17.999599"
   id="guide68044" /><sodipodi:guide
   position="17.9996,18"
   orientation="18,0"
   id="guide68046" /><sodipodi:guide
   position="17.9996,0"
   orientation="0,-17.999599"
   id="guide68048" /><sodipodi:guide
   position="0,0"
   orientation="-18,0"
   id="guide68050" /></sodipodi:namedview>
<rect
   style="fill:#999999;stroke:#000000;stroke-width:0.377953;stroke-miterlimit:4;stroke-dasharray:none;stroke-opacity:1"
   id="rect109948"
   width="24"
   height="24"
   x="0"
   y="0"
   ry="3" /><g
   id="layer1"
   transform="translate(-46.755712,-67.833036)"
   inkscape:groupmode="layer"
   inkscape:label="Layer 1">
	<g
   id="g67940">
		<defs
   id="defs67935">
			<rect
   id="SVGID_1_"
   x="46.755322"
   y="67.833023"
   width="18"
   height="18" />
		</defs>
		<clipPath
   id="SVGID_2_">
			<use
   xlink:href="#SVGID_1_"
   overflow="visible"
   id="use67937"
   x="0"
   y="0"
   width="100%"
   height="100%" />
		</clipPath>
	</g>
</g>



<g
   aria-label="1/2 T"
   id="text169233"
   style="font-size:10.6667px;line-height:0.95;font-family:'Yu Gothic';-inkscape-font-specification:'Yu Gothic, Normal';font-variant-ligatures:none;text-align:center;letter-spacing:0px;text-anchor:middle"><path
     d="m 6.5901507,3.6041414 v 7.1875226 h 1.4375045 v 0.56771 H 4.3922271 v -0.56771 H 5.9286903 V 4.328102 Q 5.2516048,4.7916452 4.360977,5.1301879 L 4.2411849,4.5103943 Q 5.1266044,4.2135184 6.043274,3.6041414 Z"
     id="path217237" /><path
     d="M 14.001633,2.6874719 9.8505778,12.458336 H 9.3193262 L 13.470381,2.6874719 Z"
     id="path217239" /><path
     d="m 15.012053,5.5989394 q 0.213542,-1.0520867 0.880211,-1.5729216 0.562501,-0.4427098 1.385421,-0.4427098 0.979169,0 1.552088,0.5885436 0.515627,0.5260433 0.515627,1.3750043 0,0.6822938 -0.369793,1.2552123 -0.34896,0.5312517 -1.239588,1.3333375 -1.505213,1.3177125 -2.11459,2.6354253 h 3.734387 v 0.588543 h -4.406264 v -0.526043 q 0.661461,-1.5833384 2.307299,-3.0885515 0.875003,-0.8177109 1.151046,-1.2968791 0.234375,-0.4062513 0.234375,-0.9010445 0,-0.6822938 -0.432293,-1.057295 -0.369793,-0.3177093 -0.942711,-0.3177093 -1.312504,0 -1.583338,1.5989633 z"
     id="path217241" /><path
     d="m 14.514655,13.716673 v 0.609377 h -2.505216 v 7.166689 H 11.306311 V 14.32605 H 8.8115119 v -0.609377 z"
     id="path217243" /></g></svg>
