<?xml version="1.0" encoding="UTF-8" standalone="no"?>
<!-- Generator: Adobe Illustrator 25.2.3, SVG Export Plug-In . SVG Version: 6.00 Build 0)  -->

<svg
   version="1.0"
   id="svg7595"
   sodipodi:docname="rate_7.svg"
   x="0px"
   y="0px"
   width="24"
   height="24"
   viewBox="0 0 24.000001 24"
   enable-background="new 0 0 17.9996 18"
   xml:space="preserve"
   inkscape:version="1.1.1 (3bf5ae0d25, 2021-09-20)"
   xmlns:inkscape="http://www.inkscape.org/namespaces/inkscape"
   xmlns:sodipodi="http://sodipodi.sourceforge.net/DTD/sodipodi-0.dtd"
   xmlns:xlink="http://www.w3.org/1999/xlink"
   xmlns="http://www.w3.org/2000/svg"
   xmlns:svg="http://www.w3.org/2000/svg"><defs
   id="defs67960" />
<sodipodi:namedview
   bordercolor="#666666"
   borderopacity="1.0"
   fit-margin-bottom="0"
   fit-margin-left="0"
   fit-margin-right="0"
   fit-margin-top="0"
   id="base"
   inkscape:current-layer="svg7595"
   inkscape:cx="10.91596"
   inkscape:cy="11.269514"
   inkscape:document-units="mm"
   inkscape:pageopacity="0.0"
   inkscape:pageshadow="2"
   inkscape:window-height="837"
   inkscape:window-maximized="1"
   inkscape:window-width="1600"
   inkscape:window-x="-8"
   inkscape:window-y="-8"
   inkscape:zoom="11.313709"
   pagecolor="#ffffff"
   showgrid="true"
   units="px"
   inkscape:pagecheckerboard="0"
   showguides="true"
   objecttolerance="1"
   gridtolerance="10"
   guidetolerance="1">
	<inkscape:grid
   type="xygrid"
   id="grid68042" /><sodipodi:guide
   position="0,18"
   orientation="0,17.999599"
   id="guide68044" /><sodipodi:guide
   position="17.9996,18"
   orientation="18,0"
   id="guide68046" /><sodipodi:guide
   position="17.9996,0"
   orientation="0,-17.999599"
   id="guide68048" /><sodipodi:guide
   position="0,0"
   orientation="-18,0"
   id="guide68050" /></sodipodi:namedview>
<rect
   style="fill:#999999;stroke:#000000;stroke-width:0.377953;stroke-miterlimit:4;stroke-dasharray:none;stroke-opacity:1"
   id="rect109948"
   width="24"
   height="24"
   x="0"
   y="0"
   ry="3" /><g
   id="layer1"
   transform="translate(-46.755712,-67.833036)"
   inkscape:groupmode="layer"
   inkscape:label="Layer 1">
	<g
   id="g67940">
		<defs
   id="defs67935">
			<rect
   id="SVGID_1_"
   x="46.755322"
   y="67.833023"
   width="18"
   height="18" />
		</defs>
		<clipPath
   id="SVGID_2_">
			<use
   xlink:href="#SVGID_1_"
   overflow="visible"
   id="use67937"
   x="0"
   y="0"
   width="100%"
   height="100%" />
		</clipPath>
	</g>
</g>



<g
   aria-label="1/8 T"
   id="text169233"
   style="font-size:10.6667px;line-height:0.95;font-family:'Yu Gothic';-inkscape-font-specification:'Yu Gothic, Normal';font-variant-ligatures:none;text-align:center;letter-spacing:0px;text-anchor:middle"><path
     d="m 6.5901507,3.6041414 v 7.1875226 h 1.4375045 v 0.56771 H 4.3922271 v -0.56771 H 5.9286903 V 4.328102 Q 5.2516048,4.7916452 4.360977,5.1301879 L 4.2411849,4.5103943 Q 5.1266044,4.2135184 6.043274,3.6041414 Z"
     id="path209095" /><path
     d="M 14.001633,2.6874719 9.8505778,12.458336 H 9.3193262 L 13.470381,2.6874719 Z"
     id="path209097" /><path
     d="m 17.819353,7.2968614 q 1.015628,0.4479181 1.406255,1.0000032 0.322917,0.4531264 0.322917,1.1197952 0,1.0364612 -0.739585,1.6041722 Q 18.183938,11.5 17.204768,11.5 q -1.119795,0 -1.760422,-0.614586 -0.578127,-0.552085 -0.578127,-1.4427125 0,-0.7291689 0.463543,-1.2291705 0.401043,-0.432293 1.265629,-0.833336 -0.864586,-0.4114596 -1.203129,-0.9062528 -0.291668,-0.416668 -0.291668,-1.0260449 0,-0.8697945 0.656253,-1.4010461 0.578126,-0.4635432 1.442712,-0.4635432 1.01042,0 1.614589,0.5833352 0.520835,0.5052099 0.520835,1.250004 0,0.6979188 -0.38021,1.1406286 -0.348959,0.3958345 -1.13542,0.7395856 z M 17.298518,7.052069 q 0.828128,-0.3541678 1.130212,-0.7760441 0.244792,-0.3333344 0.244792,-0.848961 0,-0.6197937 -0.458334,-0.9791698 -0.395835,-0.312501 -1.015629,-0.312501 -0.697918,0 -1.093753,0.4062513 -0.343751,0.3541678 -0.343751,0.9062529 0,0.53646 0.322918,0.8802111 0.307292,0.3229177 1.031253,0.6354186 z m -0.161459,0.5833352 q -0.927086,0.4166679 -1.286462,0.8593777 -0.312501,0.3854179 -0.312501,0.9218779 0,0.7500022 0.50521,1.1562532 0.437501,0.359377 1.161462,0.359377 0.843752,0 1.291671,-0.458335 0.380209,-0.390626 0.380209,-1.0468785 0,-0.6041686 -0.380209,-0.9947948 -0.34896,-0.3541678 -1.177088,-0.7083356 z"
     id="path209099" /><path
     d="m 14.514655,13.716673 v 0.609377 h -2.505216 v 7.166689 H 11.306311 V 14.32605 H 8.8115119 v -0.609377 z"
     id="path209101" /></g></svg>
