<?xml version="1.0" encoding="UTF-8" standalone="no"?>
<svg
   xmlns:dc="http://purl.org/dc/elements/1.1/"
   xmlns:cc="http://creativecommons.org/ns#"
   xmlns:rdf="http://www.w3.org/1999/02/22-rdf-syntax-ns#"
   xmlns:svg="http://www.w3.org/2000/svg"
   xmlns="http://www.w3.org/2000/svg"
   xmlns:sodipodi="http://sodipodi.sourceforge.net/DTD/sodipodi-0.dtd"
   xmlns:inkscape="http://www.inkscape.org/namespaces/inkscape"
   inkscape:version="1.0 (4035a4fb49, 2020-05-01)"
   sodipodi:docname="rate_7.svg"
   xml:space="preserve"
   enable-background="new 0 0 17.85552 17.85938"
   viewBox="0 0 19.993175 19.956924"
   height="19.956924"
   width="19.993176"
   y="0px"
   x="0px"
   id="svg111794"
   version="1.0"><g
   style="font-style:normal;font-variant:normal;font-weight:normal;font-stretch:normal;font-size:25.3914px;line-height:100%;font-family:Arial;-inkscape-font-specification:Arial;font-variant-ligatures:normal;font-variant-position:normal;font-variant-caps:normal;font-variant-numeric:normal;font-variant-alternates:normal;font-variant-east-asian:normal;font-feature-settings:normal;font-variation-settings:normal;text-indent:0;text-align:center;text-decoration:none;text-decoration-line:none;text-decoration-style:solid;text-decoration-color:#000000;letter-spacing:0px;word-spacing:0px;text-transform:none;writing-mode:lr-tb;direction:ltr;text-orientation:mixed;dominant-baseline:auto;baseline-shift:baseline;text-anchor:middle;white-space:normal;shape-padding:0;shape-margin:0;inline-size:0;opacity:1;vector-effect:none;fill:#000000;fill-opacity:1;stroke:none;stroke-width:0.999999px;stroke-linecap:butt;stroke-linejoin:miter;stroke-miterlimit:4;stroke-dasharray:none;stroke-dashoffset:0;stroke-opacity:1;stop-color:#000000;stop-opacity:1"
   id="text837"
   transform="matrix(0.37633567,0,0,0.37633567,5.6282957,13.794783)"
   aria-label="T"><path
     id="path841"
     d="M 9.6465953,13.850601 V -2.1801993 H 3.6582917 V -4.3250782 H 18.064935 V -2.1801993 H 12.051835 V 13.850601 Z" /></g><metadata
   id="metadata15"><rdf:RDF><cc:Work
       rdf:about=""><dc:format>image/svg+xml</dc:format><dc:type
         rdf:resource="http://purl.org/dc/dcmitype/StillImage" /><dc:title /></cc:Work></rdf:RDF></metadata><defs
   id="defs13">
	
	
	
</defs><sodipodi:namedview
   units="px"
   inkscape:current-layer="svg111794"
   inkscape:window-maximized="1"
   inkscape:window-y="-8"
   inkscape:window-x="1912"
   inkscape:cy="11.455517"
   inkscape:cx="25.810737"
   inkscape:zoom="17.18337"
   showgrid="false"
   id="namedview11"
   inkscape:window-height="1017"
   inkscape:window-width="1920"
   inkscape:pageshadow="2"
   inkscape:pageopacity="0"
   guidetolerance="10"
   gridtolerance="10"
   objecttolerance="10"
   borderopacity="1"
   bordercolor="#666666"
   pagecolor="#ffffff"
   inkscape:document-rotation="0"
   fit-margin-top="0"
   fit-margin-left="0"
   fit-margin-right="0"
   fit-margin-bottom="0" />

<g
   style="font-style:normal;font-variant:normal;font-weight:normal;font-stretch:normal;font-size:25.3914px;line-height:100%;font-family:Arial;-inkscape-font-specification:Arial;font-variant-ligatures:normal;font-variant-position:normal;font-variant-caps:normal;font-variant-numeric:normal;font-variant-alternates:normal;font-variant-east-asian:normal;font-feature-settings:normal;font-variation-settings:normal;text-indent:0;text-align:center;text-decoration:none;text-decoration-line:none;text-decoration-style:solid;text-decoration-color:#000000;letter-spacing:0px;word-spacing:0px;text-transform:none;writing-mode:lr-tb;direction:ltr;text-orientation:mixed;dominant-baseline:auto;baseline-shift:baseline;text-anchor:middle;white-space:normal;shape-padding:0;shape-margin:0;inline-size:0;opacity:1;vector-effect:none;fill:#000000;fill-opacity:1;stroke:none;stroke-width:0.999999px;stroke-linecap:butt;stroke-linejoin:miter;stroke-miterlimit:4;stroke-dasharray:none;stroke-dashoffset:0;stroke-opacity:1;stop-color:#000000;stop-opacity:1"
   id="text833"
   transform="matrix(0.40865176,0,0,0.40865176,4.9581001,3.8426322)"
   aria-label="1/8"><path
     id="path834"
     d="M 2.6292457,13.850601 H 0.39757972 V -0.37007024 Q -0.40829965,0.39861471 -1.7225029,1.1672996 -3.0243081,1.9359846 -4.0657522,2.3203271 V 0.16304997 Q -2.1936324,-0.71721827 -0.79264212,-1.9694308 0.60834818,-3.2216434 1.191061,-4.3994671 H 2.6292457 Z" /><path
     id="path836"
     d="M 7.3033461,14.160555 12.572557,-4.6350319 H 14.35789 L 9.101077,14.160555 Z" /><path
     id="path838"
     d="M 18.833619,3.9940765 Q 17.445027,3.4857526 16.775527,2.5434937 16.106027,1.6012347 16.106027,0.28703141 16.106027,-1.6966717 17.531814,-3.0480694 18.9576,-4.3994671 21.325646,-4.3994671 23.70609,-4.3994671 25.156673,-3.010875 26.607255,-1.6346809 26.607255,0.34902213 26.607255,1.6136328 25.937756,2.5558918 25.280654,3.4857526 23.929256,3.9940765 25.603006,4.5395949 26.470876,5.754613 27.351144,6.9696311 27.351144,8.6557788 27.351144,10.98663 25.702191,12.573592 24.053238,14.160555 21.36284,14.160555 18.672443,14.160555 17.02349,12.573592 15.374537,10.974232 15.374537,8.593788 15.374537,6.8208534 16.267203,5.6306316 17.172268,4.4280116 18.833619,3.9940765 Z M 18.387286,0.21264254 Q 18.387286,1.5020495 19.217962,2.3203271 20.048637,3.1386046 21.375239,3.1386046 22.664646,3.1386046 23.482923,2.3327252 24.313599,1.5144477 24.313599,0.33662399 24.313599,-0.89079229 23.458127,-1.721468 22.615053,-2.5645418 21.350442,-2.5645418 20.073433,-2.5645418 19.23036,-1.7462642 18.387286,-0.92798673 18.387286,0.21264254 Z M 17.668193,8.6061862 Q 17.668193,9.5608433 18.114527,10.45351 18.573258,11.346176 19.465924,11.842102 20.358591,12.325629 21.387637,12.325629 22.986997,12.325629 24.028441,11.296583 25.069886,10.267538 25.069886,8.6805751 25.069886,7.0688163 23.991247,6.014974 22.925007,4.9611318 21.313248,4.9611318 19.738684,4.9611318 18.697239,6.0025759 17.668193,7.04402 17.668193,8.6061862 Z" /></g></svg>
