<?xml version="1.0" encoding="UTF-8" standalone="no"?>
<!-- Generator: Adobe Illustrator 25.2.3, SVG Export Plug-In . SVG Version: 6.00 Build 0)  -->

<svg
   version="1.0"
   id="svg7595"
   sodipodi:docname="rate_9.svg"
   x="0px"
   y="0px"
   width="24"
   height="24"
   viewBox="0 0 24.000001 24"
   enable-background="new 0 0 17.9996 18"
   xml:space="preserve"
   inkscape:version="1.1.1 (3bf5ae0d25, 2021-09-20)"
   xmlns:inkscape="http://www.inkscape.org/namespaces/inkscape"
   xmlns:sodipodi="http://sodipodi.sourceforge.net/DTD/sodipodi-0.dtd"
   xmlns:xlink="http://www.w3.org/1999/xlink"
   xmlns="http://www.w3.org/2000/svg"
   xmlns:svg="http://www.w3.org/2000/svg"><defs
   id="defs67960" />
<sodipodi:namedview
   bordercolor="#666666"
   borderopacity="1.0"
   fit-margin-bottom="0"
   fit-margin-left="0"
   fit-margin-right="0"
   fit-margin-top="0"
   id="base"
   inkscape:current-layer="svg7595"
   inkscape:cx="10.84967"
   inkscape:cy="7.6676892"
   inkscape:document-units="mm"
   inkscape:pageopacity="0.0"
   inkscape:pageshadow="2"
   inkscape:window-height="837"
   inkscape:window-maximized="1"
   inkscape:window-width="1600"
   inkscape:window-x="-8"
   inkscape:window-y="-8"
   inkscape:zoom="22.627417"
   pagecolor="#ffffff"
   showgrid="true"
   units="px"
   inkscape:pagecheckerboard="0"
   showguides="true"
   objecttolerance="1"
   gridtolerance="10"
   guidetolerance="1">
	<inkscape:grid
   type="xygrid"
   id="grid68042" /></sodipodi:namedview>
<rect
   style="fill:#999999;stroke:#000000;stroke-width:0.377953;stroke-miterlimit:4;stroke-dasharray:none;stroke-opacity:1"
   id="rect109948"
   width="24"
   height="24"
   x="0"
   y="0"
   ry="3" /><g
   id="layer1"
   transform="translate(-46.755712,-67.833036)"
   inkscape:groupmode="layer"
   inkscape:label="Layer 1">
	<g
   id="g67940">
		<defs
   id="defs67935">
			<rect
   id="SVGID_1_"
   x="46.755322"
   y="67.833023"
   width="18"
   height="18" />
		</defs>
		<clipPath
   id="SVGID_2_">
			<use
   xlink:href="#SVGID_1_"
   overflow="visible"
   id="use67937"
   x="0"
   y="0"
   width="100%"
   height="100%" />
		</clipPath>
	</g>
</g>



<g
   aria-label="1/32 T"
   id="text147820"
   style="font-size:10.6667px;line-height:0.95;font-family:'Yu Gothic';-inkscape-font-specification:'Yu Gothic, Normal';font-variant-ligatures:none;text-align:center;text-anchor:middle"><path
     d="m 3.7543809,3.6040222 v 7.1875228 h 1.4375045 v 0.56771 H 1.5564573 v -0.56771 H 3.0929205 V 4.3279828 Q 2.415835,4.791526 1.5252072,5.1300687 L 1.4054151,4.5102751 Q 2.2908346,4.2133991 3.2075042,3.6040222 Z"
     id="path151270" /><path
     d="M 11.165863,2.6873527 7.014808,12.458217 H 6.4835564 L 10.634611,2.6873527 Z"
     id="path151272" /><path
     d="m 12.181491,5.0571518 q 0.296876,-0.7604191 0.91667,-1.1406286 0.531251,-0.3333344 1.239587,-0.3333344 0.958336,0 1.552088,0.5833352 0.526043,0.5104183 0.526043,1.2708373 0,0.7552108 -0.442709,1.2395873 -0.38021,0.4114596 -1.020837,0.5625018 v 0.067709 q 0.833336,0.1875006 1.265629,0.7604191 0.38021,0.5052099 0.38021,1.2135455 0,1.0625035 -0.708336,1.6822965 -0.609377,0.53646 -1.531255,0.53646 -1.682297,0 -2.328132,-1.453129 l 0.640627,-0.2760426 q 0.276043,0.6562516 0.723961,0.9218776 0.380209,0.229168 0.963544,0.229168 0.744794,0 1.166671,-0.500002 0.369792,-0.4375013 0.369792,-1.1197951 0,-0.8541694 -0.53646,-1.2864624 Q 14.874208,7.6248683 14.01483,7.6248683 h -0.59896 v -0.609377 h 0.53646 q 0.911461,0 1.375004,-0.4635431 0.395835,-0.3958346 0.395835,-1.057295 0,-0.6666688 -0.447918,-1.0312533 -0.375001,-0.3020843 -0.953128,-0.3020843 -0.562502,0 -0.963545,0.3229177 -0.369793,0.296876 -0.53646,0.8281276 z"
     id="path151274" /><path
     d="m 18.108594,5.5988202 q 0.213542,-1.0520867 0.880211,-1.5729216 0.562502,-0.4427098 1.385421,-0.4427098 0.97917,0 1.552088,0.5885435 0.515627,0.5260434 0.515627,1.3750044 0,0.6822938 -0.369793,1.2552123 -0.348959,0.5312517 -1.239587,1.3333375 -1.505213,1.3177125 -2.11459,2.6354255 h 3.734387 v 0.588543 h -4.406264 v -0.526043 q 0.66146,-1.5833386 2.307299,-3.0885517 0.875002,-0.8177109 1.151045,-1.2968791 0.234376,-0.4062513 0.234376,-0.9010445 0,-0.6822938 -0.432293,-1.057295 -0.369793,-0.3177094 -0.942712,-0.3177094 -1.312504,0 -1.583338,1.5989634 z"
     id="path151276" /><path
     d="m 14.64504,13.716554 v 0.609377 H 12.139824 V 21.49262 H 11.436697 V 14.325931 H 8.9418973 v -0.609377 z"
     id="path151278" /></g></svg>
