<?xml version="1.0" encoding="UTF-8" standalone="no"?>
<svg
   width="75"
   height="380"
   viewBox="0 0 75 380"
   version="1.1"
   id="svg208"
   sodipodi:docname="RecurseFont.svg"
   inkscape:version="1.1.1 (3bf5ae0d25, 2021-09-20)"
   xmlns:inkscape="http://www.inkscape.org/namespaces/inkscape"
   xmlns:sodipodi="http://sodipodi.sourceforge.net/DTD/sodipodi-0.dtd"
   xmlns="http://www.w3.org/2000/svg"
   xmlns:svg="http://www.w3.org/2000/svg"
   xmlns:rdf="http://www.w3.org/1999/02/22-rdf-syntax-ns#"
   xmlns:cc="http://creativecommons.org/ns#"
   xmlns:dc="http://purl.org/dc/elements/1.1/">
  <rect
     style="fill:#ff0000;stroke-width:2.25131"
     id="rect65859"
     width="74.999054"
     height="380.12619"
     x="3.6973286e-06"
     y="0" />
  <rect
     style="fill:#000000;fill-opacity:1;stroke-width:0.303023"
     id="rect67956-1-1"
     width="27.564095"
     height="42.562614"
     x="39.999496"
     y="317.43283"
     ry="4.9999509" />
  <rect
     style="fill:#000000;fill-opacity:1;stroke-width:0.303023"
     id="rect67956-1"
     width="27.564095"
     height="42.562614"
     x="7.4367528"
     y="274.99652"
     ry="4.9999509" />
  <metadata
     id="metadata212">
    <rdf:RDF>
      <cc:Work
         rdf:about="">
        <dc:format>image/svg+xml</dc:format>
        <dc:type
           rdf:resource="http://purl.org/dc/dcmitype/StillImage" />
      </cc:Work>
    </rdf:RDF>
  </metadata>
  <sodipodi:namedview
     pagecolor="#ffffff"
     bordercolor="#666666"
     borderopacity="1"
     objecttolerance="1"
     gridtolerance="4.1"
     guidetolerance="10"
     inkscape:pageopacity="0"
     inkscape:pageshadow="2"
     inkscape:window-width="1600"
     inkscape:window-height="837"
     id="namedview210"
     showgrid="true"
     inkscape:zoom="2.3408957"
     inkscape:cx="-1.7087477"
     inkscape:cy="113.41813"
     inkscape:window-x="-8"
     inkscape:window-y="-8"
     inkscape:window-maximized="1"
     inkscape:current-layer="svg208"
     inkscape:pagecheckerboard="true"
     showguides="false"
     units="mm"
     showborder="true">
    <inkscape:grid
       type="xygrid"
       id="grid971"
       units="mm"
       spacingx="0.4999937"
       spacingy="0.4999937"
       dotted="false"
       empspacing="5" />
  </sodipodi:namedview>
  <defs
     id="defs9">
    <style
       id="style2">
      .uuid-178fee04-66e3-402f-80f4-0493ef387430 {
        fill: #f0f0f0;
      }

      .uuid-a01b56f5-19ad-4419-9263-e2d8207a4173 {
        fill: blue;
      }

      .uuid-caa11d7b-45dc-472d-a21c-bfb45f09d39f {
        fill: lime;
      }

      .uuid-c66d0e1a-0300-47a3-9fe5-7579d5efc1b8 {
        isolation: isolate;
        opacity: .69;
      }

      .uuid-c66d0e1a-0300-47a3-9fe5-7579d5efc1b8, .uuid-89ffc17d-dc13-46b4-af84-0bc0d5772298, .uuid-f8e02bd3-ee8a-44eb-b2d4-43473dffabb0 {
        fill: none;
      }

      .uuid-e03bfb13-a98f-40ee-8a96-0d89c31eb30e {
        fill: #f0f;
      }

      .uuid-f8e02bd3-ee8a-44eb-b2d4-43473dffabb0 {
        stroke: #1f1f1f;
        stroke-linecap: round;
        stroke-miterlimit: 10;
        stroke-width: .8px;
      }

      .uuid-26fe0ef1-1280-43b0-a2a0-ad72b6a9fcb5 {
        fill: url(#uuid-ceb1f0ca-0ca2-46a9-982b-2ba7e59fdccb);
      }

      .uuid-328bb177-dd26-46ae-8d7a-80e84573d743 {
        fill: #1f1f1f;
      }

      .uuid-c1500944-1ed5-404f-b173-c3791985f437 {
        fill: red;
      }
    </style>
    <linearGradient
       id="uuid-ceb1f0ca-0ca2-46a9-982b-2ba7e59fdccb"
       x1="37.5"
       y1="0"
       x2="37.5"
       y2="380"
       gradientUnits="userSpaceOnUse">
      <stop
         offset="0"
         stop-color="#ebebeb"
         id="stop4" />
      <stop
         offset="1"
         stop-color="#e1e1e1"
         id="stop6" />
    </linearGradient>
    <clipPath
       id="_clipPath_sMzPIcrS2sD3lKhajQrdaiSEc399lqzM">
      <rect
         height="380"
         id="svg_1"
         width="120" />
    </clipPath>
  </defs>
  <g
     id="uuid-ef489e74-cdae-4216-a1a6-bec845a6effa"
     data-name="components"
     style="display:none"
     inkscape:groupmode="layer">
    <circle
       id="uuid-981841a2-ad68-40d8-a495-5fdd5d88aea2"
       data-name="Bknob#RoundLargeBlackKnob"
       cx="37.33955"
       cy="78.999962"
       r="5"
       style="fill:#ff0000" />
    <circle
       id="uuid-b82648ea-8a15-4535-8a3f-52e6648097b9"
       data-name="Clip#TinyLight"
       cx="32.5597"
       cy="278.24713"
       r="1.5"
       style="fill:#ff00ff" />
    <circle
       id="uuid-6bbe5da3-35c6-423e-9344-e1f31f07819e"
       data-name="Lim#TinyLight"
       cx="64.559898"
       cy="278.2471"
       r="1.5"
       style="fill:#ff00ff" />
    <circle
       id="uuid-97c91f19-76d1-4aa4-a1dc-7980909503b1"
       data-name="AhtB#TinyLight"
       cx="32.559719"
       cy="323.01172"
       r="1.5"
       style="fill:#ff00ff" />
    <circle
       id="uuid-ef15dd2c-7557-4d12-b87c-c134361f587b"
       data-name="AltB#TinyLight"
       cx="64.559853"
       cy="323.01172"
       r="1.5"
       style="fill:#ff00ff" />
    <circle
       id="uuid-d2822757-0981-4064-8cdd-2086d71b3762"
       data-name="A#PJ301MPort"
       cx="21.551001"
       cy="154.45821"
       r="5"
       style="fill:#00ff00" />
    <circle
       id="uuid-a43dc027-f33a-4903-b3a3-72985a7298fe"
       data-name="B#PJ301MPort"
       cx="53.551128"
       cy="154.45821"
       r="5"
       style="fill:#00ff00" />
    <circle
       id="uuid-4de03138-9751-4407-88c8-f841967b4948"
       data-name="Max#PJ301MPort"
       cx="21.545441"
       cy="199.39957"
       r="5"
       style="fill:#0000ff" />
    <circle
       id="uuid-5b0b8408-13f8-4d97-ae01-ef7f26cbf4dd"
       data-name="Min#PJ301MPort"
       cx="53.54557"
       cy="199.39957"
       r="5"
       style="fill:#0000ff" />
    <circle
       id="uuid-4a65039c-220c-4c0a-b1b0-ebcb164e5c97"
       data-name="ClipCV#PJ301MPort"
       cx="21.545441"
       cy="244.28706"
       r="5"
       style="fill:#0000ff" />
    <circle
       id="uuid-c76c2ebb-06a4-438b-a398-3304bd12c1dc"
       data-name="LimCV#PJ301MPort"
       cx="53.54557"
       cy="244.28706"
       r="5"
       style="fill:#0000ff" />
    <circle
       id="uuid-81e755ca-eddd-4cc4-bf87-f3eff7a7cf03"
       data-name="ClipGate#PJ301MPort"
       cx="21.545441"
       cy="289.2471"
       r="5"
       style="fill:#0000ff" />
    <circle
       id="uuid-ba08c6c7-32e4-4d52-b9bc-a4caa1a81b8c"
       data-name="LimGate#PJ301MPort"
       cx="53.54557"
       cy="289.2471"
       r="5"
       style="fill:#0000ff" />
    <circle
       id="uuid-30744413-ecf6-4065-ac6f-ee8a7e81f645"
       data-name="AhtB#PJ301MPort"
       cx="21.545441"
       cy="334"
       r="5"
       style="fill:#0000ff" />
    <circle
       id="uuid-dc8780c4-a0f9-4b90-beeb-66035a9048e6"
       data-name="AltB#PJ301MPort"
       cx="53.54557"
       cy="334"
       r="5"
       style="fill:#0000ff" />
  </g>
  <g
     aria-label="Venom"
     id="text8548"
     style="font-weight:bold;font-size:10.6667px;line-height:1.25;-inkscape-font-specification:'sans-serif Bold';letter-spacing:0.4px;fill:#000000">
    <path
       d="m 16.455686,365.07882 h 2.015631 l 2.062507,5.7396 2.057298,-5.7396 h 2.015632 l -2.880218,7.77607 h -2.390632 z"
       id="path68680"
       style="fill:#000000" />
    <path
       d="m 31.194273,369.92259 v 0.53125 h -4.359389 q 0.06771,0.65625 0.47396,0.98438 0.406252,0.32812 1.135421,0.32812 0.588543,0 1.203128,-0.17187 0.619794,-0.17709 1.270838,-0.53125 v 1.4375 q -0.661461,0.25 -1.322921,0.375 -0.661461,0.13021 -1.322921,0.13021 -1.583338,0 -2.463549,-0.80208 -0.875003,-0.8073 -0.875003,-2.26043 0,-1.42709 0.859378,-2.2448 0.864586,-0.81771 2.375007,-0.81771 1.375004,0 2.197924,0.82813 0.828127,0.82813 0.828127,2.21355 z m -1.916672,-0.6198 q 0,-0.53125 -0.312501,-0.85417 -0.307293,-0.32812 -0.807295,-0.32812 -0.541668,0 -0.880211,0.30729 -0.338543,0.30209 -0.421876,0.875 z"
       id="path68682"
       style="fill:#000000" />
    <path
       d="m 38.870338,369.30279 v 3.5521 h -1.875006 v -0.57813 -2.14063 q 0,-0.75521 -0.03646,-1.04167 -0.03125,-0.28646 -0.114584,-0.42188 -0.109375,-0.18229 -0.296875,-0.28125 -0.187501,-0.10416 -0.427085,-0.10416 -0.583335,0 -0.91667,0.45312 -0.333334,0.44792 -0.333334,1.2448 v 2.8698 h -1.864589 v -5.83335 h 1.864589 v 0.85417 q 0.421876,-0.51042 0.895836,-0.75001 0.47396,-0.24479 1.046878,-0.24479 1.01042,0 1.531255,0.6198 0.526044,0.61979 0.526044,1.80208 z"
       id="path68684"
       style="fill:#000000" />
    <path
       d="m 43.775561,368.21425 q -0.619794,0 -0.94792,0.44792 -0.322918,0.44271 -0.322918,1.28125 0,0.83855 0.322918,1.28646 0.328126,0.44271 0.94792,0.44271 0.609376,0 0.932294,-0.44271 0.322918,-0.44791 0.322918,-1.28646 0,-0.83854 -0.322918,-1.28125 -0.322918,-0.44792 -0.932294,-0.44792 z m 0,-1.33334 q 1.505213,0 2.348965,0.8125 0.848961,0.81251 0.848961,2.25001 0,1.43751 -0.848961,2.25001 -0.843752,0.8125 -2.348965,0.8125 -1.510422,0 -2.364591,-0.8125 -0.848961,-0.8125 -0.848961,-2.25001 0,-1.4375 0.848961,-2.25001 0.854169,-0.8125 2.364591,-0.8125 z"
       id="path68686"
       style="fill:#000000" />
    <path
       d="m 54.133925,367.99029 q 0.354167,-0.54167 0.838544,-0.82292 0.489585,-0.28646 1.07292,-0.28646 1.005212,0 1.531255,0.6198 0.526043,0.61979 0.526043,1.80208 v 3.5521 h -1.875006 v -3.04168 q 0.0052,-0.0677 0.0052,-0.14062 0.0052,-0.0729 0.0052,-0.20834 0,-0.61979 -0.182292,-0.89583 -0.182292,-0.28125 -0.588544,-0.28125 -0.531251,0 -0.822919,0.4375 -0.286459,0.4375 -0.296876,1.26563 v 2.86459 h -1.875006 v -3.04168 q 0,-0.96875 -0.166667,-1.24479 -0.166667,-0.28125 -0.593752,-0.28125 -0.53646,0 -0.828128,0.44271 -0.291667,0.4375 -0.291667,1.25521 v 2.8698 h -1.875006 v -5.83335 h 1.875006 v 0.85417 q 0.343751,-0.4948 0.786461,-0.7448 0.447918,-0.25 0.984378,-0.25 0.604168,0 1.067711,0.29167 0.463544,0.29167 0.703128,0.81771 z"
       id="path68688"
       style="fill:#000000" />
  </g>
  <text
     xml:space="preserve"
     style="font-size:8px;line-height:1.25;font-family:Arial;-inkscape-font-specification:'Arial, Normal';font-weight:normal;font-style:normal;font-stretch:normal;font-variant:normal;font-variant-ligatures:normal;font-variant-caps:normal;font-variant-numeric:normal;font-variant-east-asian:normal"
     x="43.271065"
     y="274.35214"
     id="text226237"><tspan
       sodipodi:role="line"
       id="tspan228439" /></text>
  <text
     xml:space="preserve"
     style="font-weight:bold;font-size:8px;line-height:1.25;font-family:Arial;-inkscape-font-specification:'Arial, Bold'"
     x="17.797047"
     y="327.53952"
     id="text5183"><tspan
       sodipodi:role="line"
       id="tspan5181"
       x="17.797047"
       y="327.53952">IN</tspan></text>
  <text
     xml:space="preserve"
     style="font-weight:bold;font-size:8px;line-height:1.25;font-family:Arial;-inkscape-font-specification:'Arial, Bold'"
     x="21.359346"
     y="199.81668"
     id="text24441"><tspan
       sodipodi:role="line"
       id="tspan24439"
       x="21.359346"
       y="199.81668">OFFSET</tspan></text>
  <text
     xml:space="preserve"
     style="font-weight:bold;font-size:8px;line-height:1.25;font-family:Arial;-inkscape-font-specification:'Arial, Bold'"
     x="23.922468"
     y="157.52518"
     id="text25819"><tspan
       sodipodi:role="line"
       id="tspan25817"
       x="23.922468"
       y="157.52518">SCALE</tspan></text>
  <text
     xml:space="preserve"
     style="font-weight:bold;font-size:8px;line-height:1;font-family:Arial;-inkscape-font-specification:'Arial, Bold';text-align:center;text-anchor:middle"
     x="37.589355"
     y="106.79672"
     id="text33361"><tspan
       sodipodi:role="line"
       id="tspan33359"
       x="37.589355"
       y="106.79672">RECURSION</tspan><tspan
       sodipodi:role="line"
       x="37.589355"
       y="114.79672"
       id="tspan46023">COUNT</tspan></text>
  <text
     xml:space="preserve"
     style="font-weight:bold;font-size:13.3333px;line-height:1.25;font-family:Arial;-inkscape-font-specification:'Arial, Bold'"
     x="4.9367843"
     y="23.970737"
     id="text55937"><tspan
       sodipodi:role="line"
       id="tspan55935"
       x="4.9367843"
       y="23.970737"> #@!</tspan><tspan
       sodipodi:role="line"
       x="4.9367843"
       y="40.637363"
       id="tspan55939">RECURSE</tspan><tspan
       sodipodi:role="line"
       x="4.9367843"
       y="57.303986"
       id="tspan55941">          #@!</tspan></text>
  <text
     xml:space="preserve"
     style="font-weight:bold;font-size:8px;line-height:1.25;font-family:Arial;-inkscape-font-specification:'Arial, Bold';fill:#f2f2f2"
     x="10.10768"
     y="284.82687"
     id="text14725"><tspan
       sodipodi:role="line"
       id="tspan14723"
       x="10.10768"
       y="284.82687">SEND</tspan></text>
  <text
     xml:space="preserve"
     style="font-weight:bold;font-size:8px;line-height:1.25;font-family:Arial;-inkscape-font-specification:'Arial, Bold'"
     x="38.025272"
     y="284.87473"
     id="text20243"><tspan
       sodipodi:role="line"
       id="tspan20241"
       x="38.025272"
       y="284.87473">RETURN</tspan></text>
  <text
     xml:space="preserve"
     style="font-weight:bold;font-size:8px;line-height:1.25;font-family:Arial;-inkscape-font-specification:'Arial, Bold';fill:#f2f2f2"
     x="45.956989"
     y="327.43878"
     id="text12687"><tspan
       sodipodi:role="line"
       id="tspan12685"
       x="45.956989"
       y="327.43878">OUT</tspan></text>
</svg>
