<?xml version="1.0" encoding="UTF-8" standalone="no"?>
<!-- Generator: Adobe Illustrator 25.2.3, SVG Export Plug-In . SVG Version: 6.00 Build 0)  -->

<svg
   version="1.0"
   id="svg7595"
   sodipodi:docname="slope_84dB.svg"
   x="0px"
   y="0px"
   width="24"
   height="24"
   viewBox="0 0 24.000001 24"
   enable-background="new 0 0 17.9996 18"
   xml:space="preserve"
   inkscape:version="1.1.1 (3bf5ae0d25, 2021-09-20)"
   xmlns:inkscape="http://www.inkscape.org/namespaces/inkscape"
   xmlns:sodipodi="http://sodipodi.sourceforge.net/DTD/sodipodi-0.dtd"
   xmlns:xlink="http://www.w3.org/1999/xlink"
   xmlns="http://www.w3.org/2000/svg"
   xmlns:svg="http://www.w3.org/2000/svg"><defs
   id="defs67960" />
<sodipodi:namedview
   bordercolor="#666666"
   borderopacity="1.0"
   fit-margin-bottom="0"
   fit-margin-left="0"
   fit-margin-right="0"
   fit-margin-top="0"
   id="base"
   inkscape:current-layer="svg7595"
   inkscape:cx="1.6793785"
   inkscape:cy="8.8830285"
   inkscape:document-units="px"
   inkscape:pageopacity="0.0"
   inkscape:pageshadow="2"
   inkscape:window-height="1057"
   inkscape:window-maximized="1"
   inkscape:window-width="1920"
   inkscape:window-x="1592"
   inkscape:window-y="-8"
   inkscape:zoom="11.313709"
   pagecolor="#ffffff"
   showgrid="false"
   units="px"
   inkscape:pagecheckerboard="0"
   showguides="false"
   objecttolerance="1"
   gridtolerance="10"
   guidetolerance="1"
   inkscape:showpageshadow="false">
	<inkscape:grid
   type="xygrid"
   id="grid68042" /><sodipodi:guide
   position="0,18"
   orientation="0,17.999599"
   id="guide68044" /><sodipodi:guide
   position="17.9996,18"
   orientation="18,0"
   id="guide68046" /><sodipodi:guide
   position="17.9996,0"
   orientation="0,-17.999599"
   id="guide68048" /><sodipodi:guide
   position="0,0"
   orientation="-18,0"
   id="guide68050" /></sodipodi:namedview>
<rect
   style="fill:#999999;stroke:#000000;stroke-width:0.377953;stroke-miterlimit:4;stroke-dasharray:none;stroke-opacity:1"
   id="rect109948"
   width="24"
   height="24"
   x="0"
   y="0"
   ry="3" /><g
   id="layer1"
   transform="translate(-46.755712,-67.833036)"
   inkscape:groupmode="layer"
   inkscape:label="Layer 1">
	<g
   id="g67940">
		<defs
   id="defs67935">
			<rect
   id="SVGID_1_"
   x="46.755322"
   y="67.833023"
   width="18"
   height="18" />
		</defs>
		<clipPath
   id="SVGID_2_">
			<use
   xlink:href="#SVGID_1_"
   overflow="visible"
   id="use67937"
   x="0"
   y="0"
   width="100%"
   height="100%" />
		</clipPath>
	</g>
</g>



<g
   aria-label="84dB"
   id="text90362"
   style="font-size:8.66667px;line-height:1.25;font-family:Arial;-inkscape-font-specification:'Arial, Normal';font-variant-ligatures:none;text-align:center;text-anchor:middle"><path
     d="M 3.4666306,11.697428 Q 2.9926721,11.523926 2.7641564,11.202311 2.5356407,10.880696 2.5356407,10.432128 q 0,-0.6770831 0.4866538,-1.1383463 0.4866539,-0.4612632 1.2949224,-0.4612632 0.8125003,0 1.3076177,0.4739585 0.4951173,0.4697268 0.4951173,1.14681 0,0.431641 -0.2285157,0.753256 -0.2242839,0.317383 -0.6855471,0.490885 0.5712893,0.186198 0.8675133,0.600912 0.3004559,0.414714 0.3004559,0.990235 0,0.795573 -0.5628258,1.33724 -0.5628257,0.541667 -1.4811203,0.541667 -0.9182946,0 -1.4811203,-0.541667 -0.5628257,-0.545899 -0.5628257,-1.358399 0,-0.605143 0.3046876,-1.011394 0.3089193,-0.410482 0.8759768,-0.558594 z m -0.1523438,-1.29069 q 0,0.440104 0.2835288,0.719401 0.2835287,0.279297 0.7363284,0.279297 0.4401043,0 0.7194013,-0.275065 0.2835287,-0.279297 0.2835287,-0.681315 0,-0.418946 -0.2919923,-0.7024746 -0.2877605,-0.2877606 -0.7194013,-0.2877606 -0.4358725,0 -0.723633,0.279297 -0.2877606,0.2792972 -0.2877606,0.6686202 z m -0.2454428,2.86491 q 0,0.325846 0.1523438,0.630534 0.1565756,0.304687 0.4612632,0.473958 0.3046876,0.165039 0.6559248,0.165039 0.5458986,0 0.9013675,-0.351237 0.3554689,-0.351237 0.3554689,-0.892904 0,-0.55013 -0.3681642,-0.909831 -0.3639325,-0.3597 -0.9140629,-0.3597 -0.5374351,0 -0.8929039,0.355469 -0.3512372,0.355468 -0.3512372,0.888672 z"
     id="path96265" /><path
     d="M 9.5561511,15.061687 V 13.576335 H 6.8647439 V 12.878093 L 9.6957996,8.8579092 H 10.31787 v 4.0201838 h 0.837891 v 0.698242 H 10.31787 v 1.485352 z m 0,-2.183594 v -2.797202 l -1.9423835,2.797202 z"
     id="path96267" /><path
     d="M 15.061687,15.061687 V 14.49463 q -0.427409,0.66862 -1.256836,0.66862 -0.537436,0 -0.990235,-0.296224 -0.448568,-0.296224 -0.698243,-0.825196 -0.245442,-0.533203 -0.245442,-1.222982 0,-0.672852 0.224284,-1.21875 0.224283,-0.550131 0.672851,-0.842123 0.448568,-0.291992 1.00293,-0.291992 0.406251,0 0.723633,0.173502 0.317383,0.169271 0.516277,0.444336 V 8.8579092 h 0.757487 v 6.2037778 z m -2.407879,-2.242839 q 0,0.863282 0.363933,1.290691 0.363932,0.427409 0.85905,0.427409 0.499349,0 0.846354,-0.40625 0.351237,-0.410482 0.351237,-1.248373 0,-0.922527 -0.355469,-1.354167 -0.355468,-0.431641 -0.875977,-0.431641 -0.507812,0 -0.850586,0.414713 -0.338542,0.414714 -0.338542,1.307618 z"
     id="path96269" /><path
     d="M 17.029462,15.061687 V 8.8579092 h 2.327474 q 0.710938,0 1.138347,0.1904297 0.431641,0.186198 0.672852,0.5797528 0.245443,0.3893233 0.245443,0.8167323 0,0.397786 -0.215821,0.749024 -0.21582,0.351237 -0.651693,0.567057 0.562826,0.165039 0.863282,0.562826 0.304688,0.397786 0.304688,0.939453 0,0.435873 -0.186198,0.812501 -0.181967,0.372395 -0.4528,0.575521 -0.270833,0.203125 -0.681315,0.308919 -0.406251,0.101562 -0.998699,0.101562 z m 0.820963,-3.597006 h 1.341472 q 0.545899,0 0.782878,-0.07194 0.313151,-0.0931 0.469727,-0.30892 0.160807,-0.21582 0.160807,-0.541666 0,-0.30892 -0.148112,-0.541667 Q 20.309085,9.7635084 20.03402,9.678873 19.758955,9.5900058 19.090335,9.5900058 h -1.23991 z m 0,2.86491 h 1.544597 q 0.397787,0 0.558594,-0.02962 0.283529,-0.05078 0.473959,-0.16927 0.19043,-0.11849 0.313151,-0.342774 0.122721,-0.228516 0.122721,-0.52474 0,-0.347005 -0.177734,-0.600911 -0.177735,-0.258139 -0.495117,-0.359701 -0.313152,-0.105794 -0.9056,-0.105794 h -1.434571 z"
     id="path96271" /></g></svg>
