<?xml version="1.0" encoding="UTF-8" standalone="no"?>
<!-- Generator: Adobe Illustrator 25.2.3, SVG Export Plug-In . SVG Version: 6.00 Build 0)  -->

<svg
   version="1.0"
   id="svg7595"
   sodipodi:docname="slope_60dB.svg"
   x="0px"
   y="0px"
   width="24"
   height="24"
   viewBox="0 0 24.000001 24"
   enable-background="new 0 0 17.9996 18"
   xml:space="preserve"
   inkscape:version="1.1.1 (3bf5ae0d25, 2021-09-20)"
   xmlns:inkscape="http://www.inkscape.org/namespaces/inkscape"
   xmlns:sodipodi="http://sodipodi.sourceforge.net/DTD/sodipodi-0.dtd"
   xmlns:xlink="http://www.w3.org/1999/xlink"
   xmlns="http://www.w3.org/2000/svg"
   xmlns:svg="http://www.w3.org/2000/svg"><defs
   id="defs67960" />
<sodipodi:namedview
   bordercolor="#666666"
   borderopacity="1.0"
   fit-margin-bottom="0"
   fit-margin-left="0"
   fit-margin-right="0"
   fit-margin-top="0"
   id="base"
   inkscape:current-layer="svg7595"
   inkscape:cx="1.6793785"
   inkscape:cy="8.8830285"
   inkscape:document-units="px"
   inkscape:pageopacity="0.0"
   inkscape:pageshadow="2"
   inkscape:window-height="1057"
   inkscape:window-maximized="1"
   inkscape:window-width="1920"
   inkscape:window-x="1592"
   inkscape:window-y="-8"
   inkscape:zoom="11.313709"
   pagecolor="#ffffff"
   showgrid="false"
   units="px"
   inkscape:pagecheckerboard="0"
   showguides="false"
   objecttolerance="1"
   gridtolerance="10"
   guidetolerance="1"
   inkscape:showpageshadow="false">
	<inkscape:grid
   type="xygrid"
   id="grid68042" /><sodipodi:guide
   position="0,18"
   orientation="0,17.999599"
   id="guide68044" /><sodipodi:guide
   position="17.9996,18"
   orientation="18,0"
   id="guide68046" /><sodipodi:guide
   position="17.9996,0"
   orientation="0,-17.999599"
   id="guide68048" /><sodipodi:guide
   position="0,0"
   orientation="-18,0"
   id="guide68050" /></sodipodi:namedview>
<rect
   style="fill:#999999;stroke:#000000;stroke-width:0.377953;stroke-miterlimit:4;stroke-dasharray:none;stroke-opacity:1"
   id="rect109948"
   width="24"
   height="24"
   x="0"
   y="0"
   ry="3" /><g
   id="layer1"
   transform="translate(-46.755712,-67.833036)"
   inkscape:groupmode="layer"
   inkscape:label="Layer 1">
	<g
   id="g67940">
		<defs
   id="defs67935">
			<rect
   id="SVGID_1_"
   x="46.755322"
   y="67.833023"
   width="18"
   height="18" />
		</defs>
		<clipPath
   id="SVGID_2_">
			<use
   xlink:href="#SVGID_1_"
   overflow="visible"
   id="use67937"
   x="0"
   y="0"
   width="100%"
   height="100%" />
		</clipPath>
	</g>
</g>



<g
   aria-label="60dB"
   id="text90362"
   style="font-size:8.66667px;line-height:1.25;font-family:Arial;-inkscape-font-specification:'Arial, Normal';font-variant-ligatures:none;text-align:center;text-anchor:middle"><path
     d="M 6.2596004,10.377115 5.5021132,10.43636 Q 5.4005506,9.9877924 5.2143526,9.7846673 4.9054333,9.4588208 4.4526336,9.4588208 q -0.3639324,0 -0.6389976,0.2031251 -0.3597007,0.2623699 -0.5670575,0.7659511 -0.2073569,0.503581 -0.2158204,1.434571 0.2750652,-0.418946 0.6728518,-0.622071 0.3977866,-0.203125 0.8336592,-0.203125 0.761719,0 1.2949223,0.562826 0.5374351,0.558594 0.5374351,1.447266 0,0.583984 -0.2539063,1.087565 -0.2496746,0.499349 -0.6897789,0.765951 -0.4401044,0.266602 -0.9986983,0.266602 -0.9521488,0 -1.5530605,-0.698243 -0.6009117,-0.702474 -0.6009117,-2.310547 0,-1.798504 0.6643883,-2.6152357 0.5797528,-0.7109378 1.561524,-0.7109378 0.7320966,0 1.1975916,0.4104819 0.4697267,0.410482 0.5628257,1.1341146 z m -3.1103527,2.674481 q 0,0.393554 0.1650391,0.753255 0.1692709,0.359701 0.4697268,0.55013 0.3004558,0.186198 0.6305341,0.186198 0.482422,0 0.8294273,-0.389323 0.3470054,-0.389323 0.3470054,-1.057943 0,-0.643229 -0.3427736,-1.011393 -0.3427735,-0.372396 -0.8632816,-0.372396 -0.5162762,0 -0.8759768,0.372396 -0.3597007,0.368164 -0.3597007,0.969076 z"
     id="path95937" /><path
     d="m 7.1271137,12.002116 q 0,-1.100261 0.224284,-1.768881 0.2285157,-0.6728516 0.6728518,-1.0367841 0.4485679,-0.3639324 1.1256514,-0.3639324 0.4993492,0 0.8759771,0.2031251 0.376628,0.1988933 0.62207,0.5797528 0.245443,0.3766278 0.385092,0.9225266 0.139648,0.541667 0.139648,1.464193 0,1.091797 -0.224284,1.764649 -0.224284,0.66862 -0.672852,1.036784 -0.4443357,0.363933 -1.1256511,0.363933 -0.8971357,0 -1.4091802,-0.64323 -0.613607,-0.774414 -0.613607,-2.522136 z m 0.7828779,0 q 0,1.52767 0.3554689,2.035483 0.3597007,0.50358 0.8844404,0.50358 0.5247398,0 0.8802091,-0.507812 0.3597,-0.507813 0.3597,-2.031251 0,-1.531902 -0.3597,-2.0354825 -0.3554693,-0.5035809 -0.8886726,-0.5035809 -0.5247398,0 -0.8378909,0.4443361 -0.3935549,0.5670573 -0.3935549,2.0947273 z"
     id="path95939" /><path
     d="M 15.074382,15.061687 V 14.49463 q -0.427409,0.66862 -1.256836,0.66862 -0.537435,0 -0.990235,-0.296224 -0.448568,-0.296224 -0.698242,-0.825196 -0.245443,-0.533203 -0.245443,-1.222982 0,-0.672852 0.224284,-1.21875 0.224284,-0.550131 0.672852,-0.842123 0.448567,-0.291992 1.00293,-0.291992 0.40625,0 0.723633,0.173502 0.317383,0.169271 0.516276,0.444336 V 8.8579092 h 0.757487 v 6.2037778 z m -2.407878,-2.242839 q 0,0.863282 0.363932,1.290691 0.363933,0.427409 0.85905,0.427409 0.499349,0 0.846354,-0.40625 0.351238,-0.410482 0.351238,-1.248373 0,-0.922527 -0.355469,-1.354167 -0.355469,-0.431641 -0.875977,-0.431641 -0.507813,0 -0.850586,0.414713 -0.338542,0.414714 -0.338542,1.307618 z"
     id="path95941" /><path
     d="M 17.042157,15.061687 V 8.8579092 h 2.327475 q 0.710937,0 1.138346,0.1904297 0.431641,0.186198 0.672852,0.5797528 0.245443,0.3893233 0.245443,0.8167323 0,0.397786 -0.21582,0.749024 -0.215821,0.351237 -0.651693,0.567057 0.562825,0.165039 0.863281,0.562826 0.304688,0.397786 0.304688,0.939453 0,0.435873 -0.186198,0.812501 -0.181966,0.372395 -0.4528,0.575521 -0.270833,0.203125 -0.681315,0.308919 -0.40625,0.101562 -0.998698,0.101562 z m 0.820964,-3.597006 h 1.341472 q 0.545898,0 0.782877,-0.07194 0.313152,-0.0931 0.469727,-0.30892 0.160808,-0.21582 0.160808,-0.541666 0,-0.30892 -0.148112,-0.541667 Q 20.32178,9.7635084 20.046715,9.678873 19.77165,9.5900058 19.10303,9.5900058 h -1.239909 z m 0,2.86491 h 1.544597 q 0.397786,0 0.558594,-0.02962 0.283528,-0.05078 0.473958,-0.16927 0.19043,-0.11849 0.313151,-0.342774 0.122722,-0.228516 0.122722,-0.52474 0,-0.347005 -0.177735,-0.600911 -0.177734,-0.258139 -0.495117,-0.359701 -0.313151,-0.105794 -0.905599,-0.105794 h -1.434571 z"
     id="path95943" /></g></svg>
