<?xml version="1.0" encoding="UTF-8" standalone="no"?>
<!-- Generator: Adobe Illustrator 25.2.3, SVG Export Plug-In . SVG Version: 6.00 Build 0)  -->

<svg
   version="1.0"
   id="svg7595"
   sodipodi:docname="slope_36dB.svg"
   x="0px"
   y="0px"
   width="24"
   height="24"
   viewBox="0 0 24.000001 24"
   enable-background="new 0 0 17.9996 18"
   xml:space="preserve"
   inkscape:version="1.1.1 (3bf5ae0d25, 2021-09-20)"
   xmlns:inkscape="http://www.inkscape.org/namespaces/inkscape"
   xmlns:sodipodi="http://sodipodi.sourceforge.net/DTD/sodipodi-0.dtd"
   xmlns:xlink="http://www.w3.org/1999/xlink"
   xmlns="http://www.w3.org/2000/svg"
   xmlns:svg="http://www.w3.org/2000/svg"><defs
   id="defs67960" />
<sodipodi:namedview
   bordercolor="#666666"
   borderopacity="1.0"
   fit-margin-bottom="0"
   fit-margin-left="0"
   fit-margin-right="0"
   fit-margin-top="0"
   id="base"
   inkscape:current-layer="svg7595"
   inkscape:cx="1.6793785"
   inkscape:cy="8.8830285"
   inkscape:document-units="px"
   inkscape:pageopacity="0.0"
   inkscape:pageshadow="2"
   inkscape:window-height="1057"
   inkscape:window-maximized="1"
   inkscape:window-width="1920"
   inkscape:window-x="1592"
   inkscape:window-y="-8"
   inkscape:zoom="11.313709"
   pagecolor="#ffffff"
   showgrid="false"
   units="px"
   inkscape:pagecheckerboard="0"
   showguides="false"
   objecttolerance="1"
   gridtolerance="10"
   guidetolerance="1"
   inkscape:showpageshadow="false">
	<inkscape:grid
   type="xygrid"
   id="grid68042" /><sodipodi:guide
   position="0,18"
   orientation="0,17.999599"
   id="guide68044" /><sodipodi:guide
   position="17.9996,18"
   orientation="18,0"
   id="guide68046" /><sodipodi:guide
   position="17.9996,0"
   orientation="0,-17.999599"
   id="guide68048" /><sodipodi:guide
   position="0,0"
   orientation="-18,0"
   id="guide68050" /></sodipodi:namedview>
<rect
   style="fill:#999999;stroke:#000000;stroke-width:0.377953;stroke-miterlimit:4;stroke-dasharray:none;stroke-opacity:1"
   id="rect109948"
   width="24"
   height="24"
   x="0"
   y="0"
   ry="3" /><g
   id="layer1"
   transform="translate(-46.755712,-67.833036)"
   inkscape:groupmode="layer"
   inkscape:label="Layer 1">
	<g
   id="g67940">
		<defs
   id="defs67935">
			<rect
   id="SVGID_1_"
   x="46.755322"
   y="67.833023"
   width="18"
   height="18" />
		</defs>
		<clipPath
   id="SVGID_2_">
			<use
   xlink:href="#SVGID_1_"
   overflow="visible"
   id="use67937"
   x="0"
   y="0"
   width="100%"
   height="100%" />
		</clipPath>
	</g>
</g>



<g
   aria-label="36dB"
   id="text67258"
   style="font-size:8.66667px;line-height:1.25;font-family:Arial;-inkscape-font-specification:'Arial, Normal';font-variant-ligatures:none;text-align:center;text-anchor:middle"><path
     d="m 2.2923138,13.421875 0.761719,-0.101562 q 0.131185,0.647461 0.4443361,0.935222 0.317383,0.283528 0.7701826,0.283528 0.5374351,0 0.9055993,-0.372396 0.372396,-0.372396 0.372396,-0.922526 0,-0.52474 -0.3427736,-0.863282 -0.3427736,-0.342773 -0.8717451,-0.342773 -0.2158204,0 -0.5374351,0.08464 l 0.084636,-0.66862 q 0.076172,0.0085 0.1227214,0.0085 0.4866538,0 0.8759768,-0.253907 0.3893231,-0.253906 0.3893231,-0.782877 0,-0.418946 -0.2835288,-0.6940112 -0.2835287,-0.2750652 -0.7320966,-0.2750652 -0.4443361,0 -0.7405601,0.279297 Q 3.2148402,10.015299 3.1302047,10.573893 L 2.3684857,10.438476 Q 2.5081342,9.672525 3.0032516,9.2535796 3.4983689,8.8304023 4.2346973,8.8304023 q 0.5078127,0 0.9352217,0.2200522 0.427409,0.2158204 0.651693,0.5924481 0.2285157,0.3766274 0.2285157,0.7998054 0,0.402018 -0.2158204,0.732096 -0.2158204,0.330078 -0.6389976,0.52474 0.5501304,0.126953 0.854818,0.528972 0.3046876,0.397786 0.3046876,0.998698 0,0.8125 -0.5924481,1.379558 -0.5924482,0.562825 -1.4980475,0.562825 -0.816732,0 -1.3583989,-0.486653 -0.5374351,-0.486654 -0.613607,-1.261069 z"
     id="path79537" /><path
     d="m 11.060546,10.374999 -0.757487,0.05924 Q 10.201496,9.9856762 10.015298,9.7825511 9.706379,9.4567046 9.2535794,9.4567046 q -0.3639325,0 -0.6389977,0.2031251 -0.3597006,0.2623699 -0.5670575,0.7659513 -0.2073568,0.50358 -0.2158204,1.43457 0.2750653,-0.418945 0.6728519,-0.62207 0.3977866,-0.203125 0.8336591,-0.203125 0.7617192,0 1.2949222,0.562825 0.537435,0.558594 0.537435,1.447267 0,0.583984 -0.253906,1.087565 -0.249675,0.499349 -0.689779,0.765951 -0.4401043,0.266602 -0.9986983,0.266602 -0.9521488,0 -1.5530604,-0.698243 -0.6009117,-0.702474 -0.6009117,-2.310548 0,-1.798503 0.6643883,-2.6152349 0.5797528,-0.7109378 1.561524,-0.7109378 0.7320961,0 1.1975911,0.4104819 0.469727,0.410482 0.562826,1.1341148 z m -3.1103525,2.67448 q 0,0.393555 0.1650391,0.753256 0.1692709,0.359701 0.4697267,0.55013 0.3004559,0.186198 0.6305341,0.186198 0.4824221,0 0.8294276,-0.389323 0.347005,-0.389323 0.347005,-1.057943 0,-0.643229 -0.342773,-1.011393 -0.342774,-0.372396 -0.863282,-0.372396 -0.5162762,0 -0.8759769,0.372396 -0.3597006,0.368164 -0.3597006,0.969075 z"
     id="path79539" /><path
     d="m 15.055339,15.059571 v -0.567057 q -0.427409,0.66862 -1.256836,0.66862 -0.537435,0 -0.990235,-0.296224 -0.448568,-0.296224 -0.698242,-0.825196 -0.245443,-0.533203 -0.245443,-1.222982 0,-0.672852 0.224284,-1.218751 0.224284,-0.55013 0.672852,-0.842122 0.448568,-0.291993 1.00293,-0.291993 0.40625,0 0.723633,0.173503 0.317383,0.169271 0.516276,0.444336 V 8.8557929 h 0.757487 v 6.2037781 z m -2.407878,-2.242839 q 0,0.863281 0.363932,1.29069 0.363933,0.427409 0.85905,0.427409 0.499349,0 0.846354,-0.40625 0.351238,-0.410482 0.351238,-1.248373 0,-0.922526 -0.355469,-1.354167 -0.355469,-0.43164 -0.875977,-0.43164 -0.507813,0 -0.850586,0.414713 -0.338542,0.414714 -0.338542,1.307618 z"
     id="path79541" /><path
     d="M 17.023114,15.059571 V 8.8557929 h 2.327475 q 0.710937,0 1.138346,0.1904298 0.431641,0.186198 0.672852,0.5797528 0.245443,0.3893235 0.245443,0.8167325 0,0.397786 -0.21582,0.749023 -0.215821,0.351237 -0.651693,0.567058 0.562825,0.165039 0.863281,0.562826 0.304688,0.397786 0.304688,0.939453 0,0.435873 -0.186198,0.8125 -0.181966,0.372396 -0.4528,0.575521 -0.270833,0.203125 -0.681315,0.30892 -0.40625,0.101562 -0.998698,0.101562 z m 0.820964,-3.597006 h 1.341472 q 0.545898,0 0.782877,-0.07194 0.313152,-0.0931 0.469727,-0.30892 0.160808,-0.21582 0.160808,-0.541667 0,-0.308919 -0.148112,-0.5416665 -0.148112,-0.2369793 -0.423178,-0.3216147 -0.275065,-0.088867 -0.943685,-0.088867 h -1.239909 z m 0,2.86491 h 1.544597 q 0.397786,0 0.558594,-0.02962 0.283528,-0.05078 0.473958,-0.169271 0.19043,-0.118489 0.313151,-0.342773 0.122722,-0.228516 0.122722,-0.52474 0,-0.347005 -0.177735,-0.600912 -0.177734,-0.258138 -0.495117,-0.3597 -0.313151,-0.105795 -0.905599,-0.105795 h -1.434571 z"
     id="path79543" /></g></svg>
