<?xml version="1.0" encoding="UTF-8" standalone="no"?>
<!-- Generator: Adobe Illustrator 25.2.3, SVG Export Plug-In . SVG Version: 6.00 Build 0)  -->

<svg
   version="1.0"
   id="svg7595"
   sodipodi:docname="slope_72dB.svg"
   x="0px"
   y="0px"
   width="24"
   height="24"
   viewBox="0 0 24.000001 24"
   enable-background="new 0 0 17.9996 18"
   xml:space="preserve"
   inkscape:version="1.1.1 (3bf5ae0d25, 2021-09-20)"
   xmlns:inkscape="http://www.inkscape.org/namespaces/inkscape"
   xmlns:sodipodi="http://sodipodi.sourceforge.net/DTD/sodipodi-0.dtd"
   xmlns:xlink="http://www.w3.org/1999/xlink"
   xmlns="http://www.w3.org/2000/svg"
   xmlns:svg="http://www.w3.org/2000/svg"><defs
   id="defs67960" />
<sodipodi:namedview
   bordercolor="#666666"
   borderopacity="1.0"
   fit-margin-bottom="0"
   fit-margin-left="0"
   fit-margin-right="0"
   fit-margin-top="0"
   id="base"
   inkscape:current-layer="svg7595"
   inkscape:cx="1.6793785"
   inkscape:cy="8.8830285"
   inkscape:document-units="px"
   inkscape:pageopacity="0.0"
   inkscape:pageshadow="2"
   inkscape:window-height="1057"
   inkscape:window-maximized="1"
   inkscape:window-width="1920"
   inkscape:window-x="1592"
   inkscape:window-y="-8"
   inkscape:zoom="11.313709"
   pagecolor="#ffffff"
   showgrid="false"
   units="px"
   inkscape:pagecheckerboard="0"
   showguides="false"
   objecttolerance="1"
   gridtolerance="10"
   guidetolerance="1"
   inkscape:showpageshadow="false">
	<inkscape:grid
   type="xygrid"
   id="grid68042" /><sodipodi:guide
   position="0,18"
   orientation="0,17.999599"
   id="guide68044" /><sodipodi:guide
   position="17.9996,18"
   orientation="18,0"
   id="guide68046" /><sodipodi:guide
   position="17.9996,0"
   orientation="0,-17.999599"
   id="guide68048" /><sodipodi:guide
   position="0,0"
   orientation="-18,0"
   id="guide68050" /></sodipodi:namedview>
<rect
   style="fill:#999999;stroke:#000000;stroke-width:0.377953;stroke-miterlimit:4;stroke-dasharray:none;stroke-opacity:1"
   id="rect109948"
   width="24"
   height="24"
   x="0"
   y="0"
   ry="3" /><g
   id="layer1"
   transform="translate(-46.755712,-67.833036)"
   inkscape:groupmode="layer"
   inkscape:label="Layer 1">
	<g
   id="g67940">
		<defs
   id="defs67935">
			<rect
   id="SVGID_1_"
   x="46.755322"
   y="67.833023"
   width="18"
   height="18" />
		</defs>
		<clipPath
   id="SVGID_2_">
			<use
   xlink:href="#SVGID_1_"
   overflow="visible"
   id="use67937"
   x="0"
   y="0"
   width="100%"
   height="100%" />
		</clipPath>
	</g>
</g>



<g
   aria-label="72dB"
   id="text90362"
   style="font-size:8.66667px;line-height:1.25;font-family:Arial;-inkscape-font-specification:'Arial, Normal';font-variant-ligatures:none;text-align:center;text-anchor:middle"><path
     d="M 2.3155889,9.6725257 V 8.940429 h 4.015952 V 9.5328772 Q 5.7390927,10.163411 5.1551082,11.208659 4.5753553,12.253907 4.2579724,13.358399 4.0294567,14.137046 3.9659801,15.063804 H 3.1831022 Q 3.1957975,14.331707 3.4708627,13.294923 3.745928,12.258139 4.2579724,11.297526 4.7742486,10.332682 5.3540015,9.6725257 Z"
     id="path96101" /><path
     d="m 11.088053,14.331707 v 0.732097 H 6.9874656 q -0.00846,-0.275066 0.088867,-0.528972 0.1565756,-0.418945 0.4993491,-0.825195 0.3470054,-0.406251 0.9986983,-0.939454 1.0113936,-0.829427 1.3668625,-1.311849 0.3554695,-0.486654 0.3554695,-0.918295 0,-0.4528 -0.3258471,-0.761719 -0.3216147,-0.3131512 -0.8421227,-0.3131512 -0.5501304,0 -0.8802086,0.3300783 Q 7.9184555,10.125325 7.9142237,10.70931 L 7.1313458,10.62891 Q 7.2117495,9.7529293 7.7364893,9.2958979 8.2612291,8.8346347 9.1456695,8.8346347 q 0.8929035,0 1.4134115,0.4951174 0.520508,0.4951174 0.520508,1.2272139 0,0.372396 -0.152343,0.732097 -0.152344,0.3597 -0.507813,0.757487 -0.351237,0.397787 -1.172201,1.091797 -0.6855471,0.575521 -0.8802086,0.782878 -0.1946616,0.203125 -0.3216147,0.410482 z"
     id="path96103" /><path
     d="m 15.032065,15.063804 v -0.567058 q -0.427409,0.66862 -1.256837,0.66862 -0.537435,0 -0.990234,-0.296224 -0.448568,-0.296224 -0.698243,-0.825195 -0.245443,-0.533204 -0.245443,-1.222983 0,-0.672852 0.224284,-1.21875 0.224284,-0.550131 0.672852,-0.842123 0.448568,-0.291992 1.00293,-0.291992 0.40625,0 0.723633,0.173503 0.317383,0.16927 0.516277,0.444336 V 8.8600254 h 0.757487 v 6.2037786 z m -2.407879,-2.24284 q 0,0.863282 0.363933,1.290691 0.363932,0.427409 0.85905,0.427409 0.499349,0 0.846354,-0.40625 0.351237,-0.410482 0.351237,-1.248373 0,-0.922526 -0.355469,-1.354167 -0.355469,-0.431641 -0.875977,-0.431641 -0.507812,0 -0.850586,0.414714 -0.338542,0.414713 -0.338542,1.307617 z"
     id="path96105" /><path
     d="M 16.999839,15.063804 V 8.8600254 h 2.327475 q 0.710938,0 1.138347,0.1904297 0.431641,0.186198 0.672852,0.5797528 0.245443,0.3893231 0.245443,0.8167321 0,0.397787 -0.215821,0.749024 -0.21582,0.351237 -0.651693,0.567057 0.562826,0.165039 0.863282,0.562826 0.304688,0.397787 0.304688,0.939453 0,0.435873 -0.186198,0.812501 -0.181967,0.372396 -0.4528,0.575521 -0.270834,0.203125 -0.681315,0.308919 -0.406251,0.101563 -0.998699,0.101563 z m 0.820964,-3.597007 h 1.341472 q 0.545899,0 0.782878,-0.07194 0.313151,-0.0931 0.469727,-0.308919 0.160807,-0.215821 0.160807,-0.541667 0,-0.30892 -0.148112,-0.541667 Q 20.279463,9.7656246 20.004398,9.6809892 19.729333,9.592122 19.060713,9.592122 h -1.23991 z m 0,2.86491 H 19.3654 q 0.397787,0 0.558594,-0.02962 0.283529,-0.05078 0.473959,-0.169271 0.190429,-0.11849 0.313151,-0.342774 0.122721,-0.228516 0.122721,-0.52474 0,-0.347005 -0.177734,-0.600911 -0.177735,-0.258138 -0.495118,-0.359701 -0.313151,-0.105794 -0.905599,-0.105794 h -1.434571 z"
     id="path96107" /></g></svg>
