<?xml version="1.0" encoding="UTF-8" standalone="no"?>
<!-- Generator: Adobe Illustrator 25.2.3, SVG Export Plug-In . SVG Version: 6.00 Build 0)  -->

<svg
   version="1.0"
   id="svg7595"
   sodipodi:docname="slope_96dB.svg"
   x="0px"
   y="0px"
   width="24"
   height="24"
   viewBox="0 0 24.000001 24"
   enable-background="new 0 0 17.9996 18"
   xml:space="preserve"
   inkscape:version="1.1.1 (3bf5ae0d25, 2021-09-20)"
   xmlns:inkscape="http://www.inkscape.org/namespaces/inkscape"
   xmlns:sodipodi="http://sodipodi.sourceforge.net/DTD/sodipodi-0.dtd"
   xmlns:xlink="http://www.w3.org/1999/xlink"
   xmlns="http://www.w3.org/2000/svg"
   xmlns:svg="http://www.w3.org/2000/svg"><defs
   id="defs67960" />
<sodipodi:namedview
   bordercolor="#666666"
   borderopacity="1.0"
   fit-margin-bottom="0"
   fit-margin-left="0"
   fit-margin-right="0"
   fit-margin-top="0"
   id="base"
   inkscape:current-layer="svg7595"
   inkscape:cx="1.6793785"
   inkscape:cy="8.8830285"
   inkscape:document-units="px"
   inkscape:pageopacity="0.0"
   inkscape:pageshadow="2"
   inkscape:window-height="1057"
   inkscape:window-maximized="1"
   inkscape:window-width="1920"
   inkscape:window-x="1592"
   inkscape:window-y="-8"
   inkscape:zoom="11.313709"
   pagecolor="#ffffff"
   showgrid="false"
   units="px"
   inkscape:pagecheckerboard="0"
   showguides="false"
   objecttolerance="1"
   gridtolerance="10"
   guidetolerance="1"
   inkscape:showpageshadow="false">
	<inkscape:grid
   type="xygrid"
   id="grid68042" /><sodipodi:guide
   position="0,18"
   orientation="0,17.999599"
   id="guide68044" /><sodipodi:guide
   position="17.9996,18"
   orientation="18,0"
   id="guide68046" /><sodipodi:guide
   position="17.9996,0"
   orientation="0,-17.999599"
   id="guide68048" /><sodipodi:guide
   position="0,0"
   orientation="-18,0"
   id="guide68050" /></sodipodi:namedview>
<rect
   style="fill:#999999;stroke:#000000;stroke-width:0.377953;stroke-miterlimit:4;stroke-dasharray:none;stroke-opacity:1"
   id="rect109948"
   width="24"
   height="24"
   x="0"
   y="0"
   ry="3" /><g
   id="layer1"
   transform="translate(-46.755712,-67.833036)"
   inkscape:groupmode="layer"
   inkscape:label="Layer 1">
	<g
   id="g67940">
		<defs
   id="defs67935">
			<rect
   id="SVGID_1_"
   x="46.755322"
   y="67.833023"
   width="18"
   height="18" />
		</defs>
		<clipPath
   id="SVGID_2_">
			<use
   xlink:href="#SVGID_1_"
   overflow="visible"
   id="use67937"
   x="0"
   y="0"
   width="100%"
   height="100%" />
		</clipPath>
	</g>
</g>



<g
   aria-label="96dB"
   id="text90362"
   style="font-size:8.66667px;line-height:1.25;font-family:Arial;-inkscape-font-specification:'Arial, Normal';font-variant-ligatures:none;text-align:center;text-anchor:middle"
   transform="translate(0.492587,0.1559632)"><path
     d="m 1.9118681,13.471154 0.7320966,-0.06771 q 0.093099,0.516277 0.3554689,0.749024 0.2623698,0.232748 0.6728518,0.232748 0.3512371,0 0.613607,-0.160808 0.2666016,-0.160807 0.4358725,-0.427409 0.1692709,-0.270833 0.2835288,-0.727865 0.1142578,-0.457031 0.1142578,-0.93099 0,-0.05078 -0.00423,-0.152343 -0.2285157,0.363932 -0.6263023,0.592448 -0.3935548,0.224284 -0.854818,0.224284 -0.7701826,0 -1.3033859,-0.558594 -0.5332033,-0.558594 -0.5332033,-1.472657 0,-0.9436853 0.5543622,-1.5192064 0.5585939,-0.575521 1.3964849,-0.575521 0.6051434,0 1.1044926,0.3258464 0.5035809,0.3258465 0.761719,0.93099 0.2623699,0.600912 0.2623699,1.74349 0,1.189128 -0.2581381,1.895834 -0.2581382,0.702474 -0.7701826,1.070639 -0.5078127,0.368164 -1.1933598,0.368164 -0.7278649,0 -1.1891281,-0.402019 Q 2.004967,14.20325 1.9118681,13.471154 Z m 3.1188162,-2.737957 q 0,-0.655925 -0.3512371,-1.0410161 -0.3470053,-0.3850912 -0.8378909,-0.3850912 -0.5078127,0 -0.8844405,0.4147137 -0.3766277,0.4147136 -0.3766277,1.0748706 0,0.592448 0.3554689,0.964844 0.3597006,0.368164 0.8844404,0.368164 0.5289715,0 0.8675133,-0.368164 0.3427736,-0.372396 0.3427736,-1.028321 z"
     id="path96429" /><path
     d="m 10.570074,10.221152 -0.7574869,0.05925 Q 9.7110245,9.8318294 9.5248266,9.6287044 9.2159072,9.3028579 8.7631075,9.3028579 q -0.3639324,0 -0.6389976,0.2031251 -0.3597007,0.2623698 -0.5670575,0.765951 -0.2073569,0.503581 -0.2158204,1.434571 0.2750652,-0.418946 0.6728518,-0.622071 0.3977866,-0.203125 0.8336592,-0.203125 0.761719,0 1.294922,0.562826 0.537435,0.558594 0.537435,1.447266 0,0.583984 -0.253906,1.087565 -0.249674,0.49935 -0.6897788,0.765951 -0.4401044,0.266602 -0.9986983,0.266602 -0.9521488,0 -1.5530605,-0.698243 -0.6009117,-0.702474 -0.6009117,-2.310547 0,-1.798504 0.6643883,-2.6152357 0.5797528,-0.7109377 1.561524,-0.7109377 0.7320966,0 1.197592,0.4104819 0.469726,0.4104819 0.562825,1.1341145 z m -3.1103524,2.674481 q 0,0.393554 0.1650392,0.753255 0.1692709,0.359701 0.4697267,0.550131 0.3004558,0.186198 0.6305341,0.186198 0.482422,0 0.8294274,-0.389324 0.3470053,-0.389323 0.3470053,-1.057943 0,-0.643229 -0.3427736,-1.011393 -0.3427735,-0.372396 -0.8632815,-0.372396 -0.5162763,0 -0.8759769,0.372396 -0.3597007,0.368164 -0.3597007,0.969076 z"
     id="path96431" /><path
     d="m 14.564867,14.905725 v -0.567058 q -0.427409,0.66862 -1.256836,0.66862 -0.537435,0 -0.990235,-0.296224 -0.448568,-0.296224 -0.698242,-0.825196 -0.245443,-0.533203 -0.245443,-1.222982 0,-0.672852 0.224284,-1.21875 0.224284,-0.550131 0.672852,-0.842123 0.448568,-0.291992 1.00293,-0.291992 0.40625,0 0.723633,0.173502 0.317383,0.169271 0.516276,0.444336 V 8.7019462 h 0.757487 v 6.2037788 z m -2.407878,-2.24284 q 0,0.863282 0.363932,1.290691 0.363933,0.427409 0.85905,0.427409 0.499349,0 0.846355,-0.40625 0.351237,-0.410482 0.351237,-1.248373 0,-0.922527 -0.355469,-1.354167 -0.355469,-0.431641 -0.875977,-0.431641 -0.507813,0 -0.850586,0.414713 -0.338542,0.414714 -0.338542,1.307618 z"
     id="path96433" /><path
     d="M 16.532642,14.905725 V 8.7019462 h 2.327475 q 0.710938,0 1.138347,0.1904298 0.43164,0.186198 0.672851,0.5797528 0.245443,0.389323 0.245443,0.8167322 0,0.397786 -0.21582,0.749024 -0.215821,0.351237 -0.651693,0.567057 0.562826,0.165039 0.863281,0.562826 0.304688,0.397786 0.304688,0.939453 0,0.435873 -0.186198,0.812501 -0.181966,0.372396 -0.4528,0.575521 -0.270833,0.203125 -0.681315,0.308919 -0.40625,0.101563 -0.998698,0.101563 z m 0.820964,-3.597007 h 1.341472 q 0.545898,0 0.782878,-0.07194 0.313151,-0.0931 0.469726,-0.30892 0.160808,-0.21582 0.160808,-0.541666 0,-0.30892 -0.148112,-0.5416672 Q 19.812266,9.6075455 19.5372,9.5229101 19.262135,9.4340428 18.593515,9.4340428 h -1.239909 z m 0,2.86491 h 1.544597 q 0.397786,0 0.558594,-0.02962 0.283529,-0.05078 0.473958,-0.16927 0.19043,-0.11849 0.313151,-0.342774 0.122722,-0.228516 0.122722,-0.52474 0,-0.347005 -0.177735,-0.600911 -0.177734,-0.258139 -0.495117,-0.359701 -0.313151,-0.105794 -0.905599,-0.105794 h -1.434571 z"
     id="path96435" /></g></svg>
