<?xml version="1.0" encoding="UTF-8" standalone="no"?>
<!-- Generator: Adobe Illustrator 25.2.3, SVG Export Plug-In . SVG Version: 6.00 Build 0)  -->

<svg
   version="1.0"
   id="svg7595"
   sodipodi:docname="sort_midDesc.svg"
   x="0px"
   y="0px"
   width="24"
   height="24"
   viewBox="0 0 24.000001 24"
   enable-background="new 0 0 17.9996 18"
   xml:space="preserve"
   inkscape:version="1.1.1 (3bf5ae0d25, 2021-09-20)"
   xmlns:inkscape="http://www.inkscape.org/namespaces/inkscape"
   xmlns:sodipodi="http://sodipodi.sourceforge.net/DTD/sodipodi-0.dtd"
   xmlns:xlink="http://www.w3.org/1999/xlink"
   xmlns="http://www.w3.org/2000/svg"
   xmlns:svg="http://www.w3.org/2000/svg"><rect
   style="fill:#999999;stroke:#000000;stroke-width:0.372093;stroke-miterlimit:4;stroke-dasharray:none;stroke-opacity:1"
   id="rect109948"
   width="23.627907"
   height="23.627907"
   x="0.1860465"
   y="0.1860465"
   ry="2.9534883"
   rx="2.9534883" /><defs
   id="defs67960" />
<sodipodi:namedview
   bordercolor="#666666"
   borderopacity="1.0"
   fit-margin-bottom="0"
   fit-margin-left="0"
   fit-margin-right="0"
   fit-margin-top="0"
   id="base"
   inkscape:current-layer="svg7595"
   inkscape:cx="5.0381358"
   inkscape:cy="13.479223"
   inkscape:document-units="mm"
   inkscape:pageopacity="0.0"
   inkscape:pageshadow="2"
   inkscape:window-height="1057"
   inkscape:window-maximized="1"
   inkscape:window-width="1920"
   inkscape:window-x="1592"
   inkscape:window-y="-8"
   inkscape:zoom="11.313709"
   pagecolor="#ffffff"
   showgrid="true"
   units="px"
   inkscape:pagecheckerboard="0"
   showguides="true"
   objecttolerance="1"
   gridtolerance="10"
   guidetolerance="1"
   inkscape:showpageshadow="false">
	<inkscape:grid
   type="xygrid"
   id="grid68042" /></sodipodi:namedview>
<g
   id="layer1"
   transform="translate(-46.755712,-67.833036)"
   inkscape:groupmode="layer"
   inkscape:label="Layer 1">
	<g
   id="g67940">
		<defs
   id="defs67935">
			<rect
   id="SVGID_1_"
   x="46.755322"
   y="67.833023"
   width="18"
   height="18" />
		</defs>
		<clipPath
   id="SVGID_2_">
			<use
   xlink:href="#SVGID_1_"
   overflow="visible"
   id="use67937"
   x="0"
   y="0"
   width="100%"
   height="100%" />
		</clipPath>
	</g>
</g>



<text
   xml:space="preserve"
   style="font-size:10.6667px;line-height:1.25;font-family:'Yu Gothic';-inkscape-font-specification:'Yu Gothic, Normal';font-variant-ligatures:none"
   x="1"
   y="-8"
   id="text160055"><tspan
     sodipodi:role="line"
     id="tspan160053"
     x="1"
     y="-8" /></text><g
   aria-label="MID"
   id="text53462"
   style="font-size:7.33333px;line-height:1.25;font-family:Arial;-inkscape-font-specification:'Arial, Normal';font-variant-ligatures:none;text-align:center;text-anchor:middle"><path
     d="M 5.6137722,8.25 V 3.0006533 H 6.6593447 L 7.9018572,6.7174486 Q 8.0737321,7.2366541 8.1525081,7.4944665 8.2420263,7.2080083 8.4318048,6.6529955 L 9.6886402,3.0006533 H 10.62321 V 8.25 H 9.9536141 V 3.8564472 L 8.4282241,8.25 H 7.8015968 L 6.2833683,3.7812519 V 8.25 Z"
     id="path58242" /><path
     d="M 11.862142,8.25 V 3.0006533 h 0.694661 V 8.25 Z"
     id="path58244" /><path
     d="M 13.781412,8.25 V 3.0006533 h 1.808267 q 0.612305,0 0.93457,0.075195 0.451172,0.1038411 0.769857,0.3759764 0.415364,0.3509113 0.619466,0.8987626 0.207682,0.5442706 0.207682,1.2460932 0,0.5979815 -0.139649,1.0598954 -0.139648,0.4619142 -0.358072,0.766276 Q 17.405108,7.723633 17.143715,7.8990887 16.885903,8.0709636 16.517088,8.1604818 16.151854,8.25 15.675617,8.25 Z m 0.694661,-0.6194659 h 1.120768 q 0.519205,0 0.812825,-0.09668 0.2972,-0.09668 0.472656,-0.2721353 0.24707,-0.2470702 0.383138,-0.6624346 0.139648,-0.4189452 0.139648,-1.0133459 0,-0.8235674 -0.272135,-1.2639969 Q 16.864418,3.8779316 16.4777,3.727541 16.198403,3.6201192 15.578937,3.6201192 h -1.102864 z"
     id="path58246" /></g><g
   id="g58092"
   transform="translate(0.0751053,-1.3149899)"><path
     style="color:#000000;fill:#000000;stroke-linecap:round;-inkscape-stroke:none"
     d="M 11.925781,12.6875 A 0.311811,0.311811 0 0 0 11.613281,13 v 9 a 0.311811,0.311811 0 0 0 0.3125,0.3125 A 0.311811,0.311811 0 0 0 12.236328,22 v -9 a 0.311811,0.311811 0 0 0 -0.310547,-0.3125 z"
     id="path2689" /><g
     id="g58086"><path
       style="color:#000000;fill:#000000;stroke-linecap:round;-inkscape-stroke:none"
       d="m 15.125,17.75 a 0.31200001,0.31200001 0 0 0 -0.4375,0.0625 l -3,4 A 0.31200001,0.31200001 0 0 0 11.75,22.25 0.31200001,0.31200001 0 0 0 12.1875,22.1875 l 3,-4 A 0.31200001,0.31200001 0 0 0 15.125,17.75 Z"
       id="path57828" /><path
       style="color:#000000;fill:#000000;stroke-linecap:round;-inkscape-stroke:none"
       d="M 8.9570313,17.691406 A 0.31200001,0.31200001 0 0 0 8.7246094,17.75 a 0.31200001,0.31200001 0 0 0 -0.0625,0.4375 l 2.9999996,4 a 0.31200001,0.31200001 0 0 0 0.4375,0.0625 0.31200001,0.31200001 0 0 0 0.0625,-0.4375 l -2.9999996,-4 A 0.31200001,0.31200001 0 0 0 8.9570313,17.691406 Z"
       id="path57828-1" /></g></g></svg>
