<?xml version="1.0" encoding="UTF-8" standalone="no"?>
<!-- Generator: Adobe Illustrator 25.2.3, SVG Export Plug-In . SVG Version: 6.00 Build 0)  -->

<svg
   version="1.0"
   id="svg7595"
   sodipodi:docname="sort_preDesc.svg"
   x="0px"
   y="0px"
   width="24"
   height="24"
   viewBox="0 0 24.000001 24"
   enable-background="new 0 0 17.9996 18"
   xml:space="preserve"
   inkscape:version="1.1.1 (3bf5ae0d25, 2021-09-20)"
   xmlns:inkscape="http://www.inkscape.org/namespaces/inkscape"
   xmlns:sodipodi="http://sodipodi.sourceforge.net/DTD/sodipodi-0.dtd"
   xmlns:xlink="http://www.w3.org/1999/xlink"
   xmlns="http://www.w3.org/2000/svg"
   xmlns:svg="http://www.w3.org/2000/svg"><rect
   style="fill:#999999;stroke:#000000;stroke-width:0.372093;stroke-miterlimit:4;stroke-dasharray:none;stroke-opacity:1"
   id="rect109948"
   width="23.627907"
   height="23.627907"
   x="0.1860465"
   y="0.1860465"
   ry="2.9534883"
   rx="2.9534883" /><defs
   id="defs67960" />
<sodipodi:namedview
   bordercolor="#666666"
   borderopacity="1.0"
   fit-margin-bottom="0"
   fit-margin-left="0"
   fit-margin-right="0"
   fit-margin-top="0"
   id="base"
   inkscape:current-layer="svg7595"
   inkscape:cx="5.0381356"
   inkscape:cy="13.479222"
   inkscape:document-units="mm"
   inkscape:pageopacity="0.0"
   inkscape:pageshadow="2"
   inkscape:window-height="1057"
   inkscape:window-maximized="1"
   inkscape:window-width="1920"
   inkscape:window-x="1592"
   inkscape:window-y="-8"
   inkscape:zoom="11.313709"
   pagecolor="#ffffff"
   showgrid="true"
   units="px"
   inkscape:pagecheckerboard="0"
   showguides="true"
   objecttolerance="1"
   gridtolerance="10"
   guidetolerance="1"
   inkscape:showpageshadow="false">
	<inkscape:grid
   type="xygrid"
   id="grid68042" /></sodipodi:namedview>
<g
   id="layer1"
   transform="translate(-46.755712,-67.833036)"
   inkscape:groupmode="layer"
   inkscape:label="Layer 1">
	<g
   id="g67940">
		<defs
   id="defs67935">
			<rect
   id="SVGID_1_"
   x="46.755322"
   y="67.833023"
   width="18"
   height="18" />
		</defs>
		<clipPath
   id="SVGID_2_">
			<use
   xlink:href="#SVGID_1_"
   overflow="visible"
   id="use67937"
   x="0"
   y="0"
   width="100%"
   height="100%" />
		</clipPath>
	</g>
</g>



<text
   xml:space="preserve"
   style="font-size:10.6667px;line-height:1.25;font-family:'Yu Gothic';-inkscape-font-specification:'Yu Gothic, Normal';font-variant-ligatures:none"
   x="1"
   y="-8"
   id="text160055"><tspan
     sodipodi:role="line"
     id="tspan160053"
     x="1"
     y="-8" /></text><g
   aria-label="PRE"
   id="text53462"
   style="font-size:7.33333px;line-height:1.25;font-family:Arial;-inkscape-font-specification:'Arial, Normal';font-variant-ligatures:none;text-align:center;text-anchor:middle"><path
     d="M 4.8170603,8.25 V 3.0006533 h 1.9801424 q 0.5227862,0 0.7985022,0.05013 0.3867186,0.064453 0.6481117,0.2470702 0.2613932,0.1790364 0.4189452,0.5048826 0.1611327,0.3258462 0.1611327,0.7161455 0,0.6695961 -0.4261066,1.1350907 -0.4261066,0.461914 -1.5397128,0.461914 H 5.5117215 V 8.25 Z M 5.5117215,5.4964205 h 1.3570957 q 0.6731768,0 0.9560543,-0.250651 Q 8.107749,4.9951186 8.107749,4.5403662 8.107749,4.2109393 7.9394548,3.978192 7.7747413,3.7418639 7.502606,3.6666687 7.3271504,3.6201192 6.8544943,3.6201192 H 5.5117215 Z"
     id="path58847" /><path
     d="M 9.7190765,8.25 V 3.0006533 h 2.3274725 q 0.701823,0 1.067057,0.1432291 0.365234,0.1396484 0.583659,0.4977212 0.218424,0.3580727 0.218424,0.7913408 0,0.5585935 -0.361653,0.9417313 -0.361654,0.3831379 -1.117187,0.486979 0.275716,0.1324869 0.418945,0.2613931 0.304362,0.2792968 0.576497,0.6982419 L 14.345377,8.25 H 13.471679 L 12.777018,7.1578781 Q 12.472656,6.685222 12.275716,6.4345711 12.078776,6.1839202 11.921224,6.0836598 11.767253,5.9833994 11.60612,5.9440114 11.487956,5.9189463 11.219401,5.9189463 H 10.413738 V 8.25 Z M 10.413738,5.3173841 h 1.493163 q 0.476237,0 0.744791,-0.09668 0.268555,-0.1002603 0.408203,-0.315104 0.139649,-0.2184244 0.139649,-0.472656 0,-0.3723957 -0.272136,-0.6123045 -0.268554,-0.2399087 -0.852213,-0.2399087 h -1.661457 z"
     id="path58849" /><path
     d="M 15.018553,8.25 V 3.0006533 h 3.795572 v 0.6194659 h -3.100911 v 1.6077467 h 2.903971 V 5.843751 h -2.903971 v 1.7867831 h 3.222655 V 8.25 Z"
     id="path58851" /></g><g
   id="g58092"
   transform="translate(0.0751053,-1.3149899)"><path
     style="color:#000000;fill:#000000;stroke-linecap:round;-inkscape-stroke:none"
     d="M 11.925781,12.6875 A 0.311811,0.311811 0 0 0 11.613281,13 v 9 a 0.311811,0.311811 0 0 0 0.3125,0.3125 A 0.311811,0.311811 0 0 0 12.236328,22 v -9 a 0.311811,0.311811 0 0 0 -0.310547,-0.3125 z"
     id="path2689" /><g
     id="g58086"><path
       style="color:#000000;fill:#000000;stroke-linecap:round;-inkscape-stroke:none"
       d="m 15.125,17.75 a 0.31200001,0.31200001 0 0 0 -0.4375,0.0625 l -3,4 A 0.31200001,0.31200001 0 0 0 11.75,22.25 0.31200001,0.31200001 0 0 0 12.1875,22.1875 l 3,-4 A 0.31200001,0.31200001 0 0 0 15.125,17.75 Z"
       id="path57828" /><path
       style="color:#000000;fill:#000000;stroke-linecap:round;-inkscape-stroke:none"
       d="M 8.9570313,17.691406 A 0.31200001,0.31200001 0 0 0 8.7246094,17.75 a 0.31200001,0.31200001 0 0 0 -0.0625,0.4375 l 2.9999996,4 a 0.31200001,0.31200001 0 0 0 0.4375,0.0625 0.31200001,0.31200001 0 0 0 0.0625,-0.4375 l -2.9999996,-4 A 0.31200001,0.31200001 0 0 0 8.9570313,17.691406 Z"
       id="path57828-1" /></g></g></svg>
