<?xml version="1.0" encoding="UTF-8" standalone="no"?>
<!-- Generator: Adobe Illustrator 25.2.3, SVG Export Plug-In . SVG Version: 6.00 Build 0)  -->

<svg
   version="1.0"
   id="svg7595"
   sodipodi:docname="sort_postDesc.svg"
   x="0px"
   y="0px"
   width="24"
   height="24"
   viewBox="0 0 24.000001 24"
   enable-background="new 0 0 17.9996 18"
   xml:space="preserve"
   inkscape:version="1.1.1 (3bf5ae0d25, 2021-09-20)"
   xmlns:inkscape="http://www.inkscape.org/namespaces/inkscape"
   xmlns:sodipodi="http://sodipodi.sourceforge.net/DTD/sodipodi-0.dtd"
   xmlns:xlink="http://www.w3.org/1999/xlink"
   xmlns="http://www.w3.org/2000/svg"
   xmlns:svg="http://www.w3.org/2000/svg"><rect
   style="fill:#999999;stroke:#000000;stroke-width:0.372093;stroke-miterlimit:4;stroke-dasharray:none;stroke-opacity:1"
   id="rect109948"
   width="23.627907"
   height="23.627907"
   x="0.1860465"
   y="0.1860465"
   ry="2.9534883"
   rx="2.9534883" /><defs
   id="defs67960" />
<sodipodi:namedview
   bordercolor="#666666"
   borderopacity="1.0"
   fit-margin-bottom="0"
   fit-margin-left="0"
   fit-margin-right="0"
   fit-margin-top="0"
   id="base"
   inkscape:current-layer="svg7595"
   inkscape:cx="5.0381356"
   inkscape:cy="13.479222"
   inkscape:document-units="mm"
   inkscape:pageopacity="0.0"
   inkscape:pageshadow="2"
   inkscape:window-height="1057"
   inkscape:window-maximized="1"
   inkscape:window-width="1920"
   inkscape:window-x="1592"
   inkscape:window-y="-8"
   inkscape:zoom="11.313709"
   pagecolor="#ffffff"
   showgrid="true"
   units="px"
   inkscape:pagecheckerboard="0"
   showguides="true"
   objecttolerance="1"
   gridtolerance="10"
   guidetolerance="1"
   inkscape:showpageshadow="false">
	<inkscape:grid
   type="xygrid"
   id="grid68042" /></sodipodi:namedview>
<g
   id="layer1"
   transform="translate(-46.755712,-67.833036)"
   inkscape:groupmode="layer"
   inkscape:label="Layer 1">
	<g
   id="g67940">
		<defs
   id="defs67935">
			<rect
   id="SVGID_1_"
   x="46.755322"
   y="67.833023"
   width="18"
   height="18" />
		</defs>
		<clipPath
   id="SVGID_2_">
			<use
   xlink:href="#SVGID_1_"
   overflow="visible"
   id="use67937"
   x="0"
   y="0"
   width="100%"
   height="100%" />
		</clipPath>
	</g>
</g>



<text
   xml:space="preserve"
   style="font-size:10.6667px;line-height:1.25;font-family:'Yu Gothic';-inkscape-font-specification:'Yu Gothic, Normal';font-variant-ligatures:none"
   x="1"
   y="-8"
   id="text160055"><tspan
     sodipodi:role="line"
     id="tspan160053"
     x="1"
     y="-8" /></text><g
   id="g58092"
   transform="translate(0.0751053,-1.3149899)"><path
     style="color:#000000;fill:#000000;stroke-linecap:round;-inkscape-stroke:none"
     d="M 11.925781,12.6875 A 0.311811,0.311811 0 0 0 11.613281,13 v 9 a 0.311811,0.311811 0 0 0 0.3125,0.3125 A 0.311811,0.311811 0 0 0 12.236328,22 v -9 a 0.311811,0.311811 0 0 0 -0.310547,-0.3125 z"
     id="path2689" /><g
     id="g58086"><path
       style="color:#000000;fill:#000000;stroke-linecap:round;-inkscape-stroke:none"
       d="m 15.125,17.75 a 0.31200001,0.31200001 0 0 0 -0.4375,0.0625 l -3,4 A 0.31200001,0.31200001 0 0 0 11.75,22.25 0.31200001,0.31200001 0 0 0 12.1875,22.1875 l 3,-4 A 0.31200001,0.31200001 0 0 0 15.125,17.75 Z"
       id="path57828" /><path
       style="color:#000000;fill:#000000;stroke-linecap:round;-inkscape-stroke:none"
       d="M 8.9570313,17.691406 A 0.31200001,0.31200001 0 0 0 8.7246094,17.75 a 0.31200001,0.31200001 0 0 0 -0.0625,0.4375 l 2.9999996,4 a 0.31200001,0.31200001 0 0 0 0.4375,0.0625 0.31200001,0.31200001 0 0 0 0.0625,-0.4375 l -2.9999996,-4 A 0.31200001,0.31200001 0 0 0 8.9570313,17.691406 Z"
       id="path57828-1" /></g></g><g
   aria-label="OUT"
   id="text123902"
   style="font-size:7.33333px;line-height:1.25;font-family:Arial;-inkscape-font-specification:'Arial, Normal';font-variant-ligatures:none;text-align:center;text-anchor:middle"
   transform="translate(42.896159,3.25)"><path
     d="m -38.385251,2.4433605 q 0,-1.3069656 0.701823,-2.04459548 0.701823,-0.74121062 1.811848,-0.74121062 0.726888,0 1.310546,0.34733058 0.583659,0.34733058 0.888021,0.97037718 0.307942,0.61946584 0.307942,1.40722594 0,0.7985023 -0.322265,1.4287103 -0.322266,0.6302081 -0.913086,0.9560543 -0.59082,0.3222655 -1.274739,0.3222655 -0.74121,0 -1.324869,-0.3580728 -0.583658,-0.3580727 -0.88444,-0.9775386 -0.300781,-0.6194659 -0.300781,-1.3105463 z m 0.716146,0.010742 q 0,0.9488928 0.508463,1.4967441 0.512044,0.5442706 1.281901,0.5442706 0.784179,0 1.289062,-0.551432 0.508463,-0.5514321 0.508463,-1.564778 0,-0.6409503 -0.218424,-1.117187 -0.214844,-0.47981753 -0.633789,-0.74121065 -0.415365,-0.26497384 -0.93457,-0.26497384 -0.73763,0 -1.271158,0.50846332 -0.529948,0.50488257 -0.529948,1.69010347 z"
     id="path126620" /><path
     d="m -29.025229,-0.24934668 h 0.694662 V 2.7835296 q 0,0.7913408 -0.179037,1.2568354 -0.179036,0.4654946 -0.648112,0.7591143 -0.465494,0.2900389 -1.224608,0.2900389 -0.73763,0 -1.206706,-0.2542317 -0.469075,-0.2542316 -0.669596,-0.7340491 -0.20052,-0.4833983 -0.20052,-1.3177078 v -3.03287628 h 0.694661 V 2.7799489 q 0,0.683919 0.125325,1.0097652 0.128906,0.3222655 0.436849,0.4977211 0.311523,0.1754557 0.759114,0.1754557 0.766276,0 1.092122,-0.3473306 0.325846,-0.3473306 0.325846,-1.3356114 z"
     id="path126622" /><path
     d="M -25.838381,5 V 0.37011919 h -1.729492 v -0.61946587 h 4.160806 V 0.37011919 H -25.14372 V 5 Z"
     id="path126624" /></g></svg>
