<?xml version="1.0" encoding="UTF-8" standalone="no"?>
<!-- Generator: Adobe Illustrator 25.2.3, SVG Export Plug-In . SVG Version: 6.00 Build 0)  -->

<svg
   version="1.0"
   id="svg7595"
   sodipodi:docname="sort_midAsc.svg"
   x="0px"
   y="0px"
   width="24"
   height="24"
   viewBox="0 0 24.000001 24"
   enable-background="new 0 0 17.9996 18"
   xml:space="preserve"
   inkscape:version="1.1.1 (3bf5ae0d25, 2021-09-20)"
   xmlns:inkscape="http://www.inkscape.org/namespaces/inkscape"
   xmlns:sodipodi="http://sodipodi.sourceforge.net/DTD/sodipodi-0.dtd"
   xmlns:xlink="http://www.w3.org/1999/xlink"
   xmlns="http://www.w3.org/2000/svg"
   xmlns:svg="http://www.w3.org/2000/svg"><rect
   style="fill:#999999;stroke:#000000;stroke-width:0.372093;stroke-miterlimit:4;stroke-dasharray:none;stroke-opacity:1"
   id="rect109948"
   width="23.627907"
   height="23.627907"
   x="0.1860465"
   y="0.1860465"
   ry="2.9534883"
   rx="2.9534883" /><defs
   id="defs67960" />
<sodipodi:namedview
   bordercolor="#666666"
   borderopacity="1.0"
   fit-margin-bottom="0"
   fit-margin-left="0"
   fit-margin-right="0"
   fit-margin-top="0"
   id="base"
   inkscape:current-layer="svg7595"
   inkscape:cx="5.0381356"
   inkscape:cy="13.479222"
   inkscape:document-units="mm"
   inkscape:pageopacity="0.0"
   inkscape:pageshadow="2"
   inkscape:window-height="1057"
   inkscape:window-maximized="1"
   inkscape:window-width="1920"
   inkscape:window-x="1592"
   inkscape:window-y="-8"
   inkscape:zoom="11.313709"
   pagecolor="#ffffff"
   showgrid="true"
   units="px"
   inkscape:pagecheckerboard="0"
   showguides="true"
   objecttolerance="1"
   gridtolerance="10"
   guidetolerance="1"
   inkscape:showpageshadow="false">
	<inkscape:grid
   type="xygrid"
   id="grid68042" /></sodipodi:namedview>
<g
   id="layer1"
   transform="translate(-46.755712,-67.833036)"
   inkscape:groupmode="layer"
   inkscape:label="Layer 1">
	<g
   id="g67940">
		<defs
   id="defs67935">
			<rect
   id="SVGID_1_"
   x="46.755322"
   y="67.833023"
   width="18"
   height="18" />
		</defs>
		<clipPath
   id="SVGID_2_">
			<use
   xlink:href="#SVGID_1_"
   overflow="visible"
   id="use67937"
   x="0"
   y="0"
   width="100%"
   height="100%" />
		</clipPath>
	</g>
</g>



<text
   xml:space="preserve"
   style="font-size:10.6667px;line-height:1.25;font-family:'Yu Gothic';-inkscape-font-specification:'Yu Gothic, Normal';font-variant-ligatures:none"
   x="1"
   y="-8"
   id="text160055"><tspan
     sodipodi:role="line"
     id="tspan160053"
     x="1"
     y="-8" /></text><g
   id="g58092"
   transform="matrix(1,0,0,-1,0.0751053,33.68521)"><path
     style="color:#000000;fill:#000000;stroke-linecap:round;-inkscape-stroke:none"
     d="M 11.925781,12.6875 A 0.311811,0.311811 0 0 0 11.613281,13 v 9 a 0.311811,0.311811 0 0 0 0.3125,0.3125 A 0.311811,0.311811 0 0 0 12.236328,22 v -9 a 0.311811,0.311811 0 0 0 -0.310547,-0.3125 z"
     id="path2689" /><g
     id="g58086"><path
       style="color:#000000;fill:#000000;stroke-linecap:round;-inkscape-stroke:none"
       d="m 15.125,17.75 a 0.31200001,0.31200001 0 0 0 -0.4375,0.0625 l -3,4 A 0.31200001,0.31200001 0 0 0 11.75,22.25 0.31200001,0.31200001 0 0 0 12.1875,22.1875 l 3,-4 A 0.31200001,0.31200001 0 0 0 15.125,17.75 Z"
       id="path57828" /><path
       style="color:#000000;fill:#000000;stroke-linecap:round;-inkscape-stroke:none"
       d="M 8.9570313,17.691406 A 0.31200001,0.31200001 0 0 0 8.7246094,17.75 a 0.31200001,0.31200001 0 0 0 -0.0625,0.4375 l 2.9999996,4 a 0.31200001,0.31200001 0 0 0 0.4375,0.0625 0.31200001,0.31200001 0 0 0 0.0625,-0.4375 l -2.9999996,-4 A 0.31200001,0.31200001 0 0 0 8.9570313,17.691406 Z"
       id="path57828-1" /></g></g><g
   aria-label="SEL"
   id="text115028"
   style="font-size:7.33333px;line-height:1.25;font-family:Arial;-inkscape-font-specification:'Arial, Normal';font-variant-ligatures:none;text-align:center;text-anchor:middle"
   transform="translate(42.965983,5.2500004)"><path
     d="m -37.601071,1.3134773 0.655273,-0.057292 q 0.04655,0.39388 0.214843,0.6481116 0.171875,0.250651 0.529948,0.408203 0.358073,0.1539713 0.805664,0.1539713 0.397461,0 0.701822,-0.118164 0.304362,-0.118164 0.451172,-0.3222655 0.150391,-0.2076822 0.150391,-0.4511717 0,-0.2470702 -0.143229,-0.4296873 -0.14323,-0.18619784 -0.472656,-0.31152331 -0.211263,-0.0823567 -0.93457,-0.25423166 -0.723307,-0.17545565 -1.013346,-0.32942694 -0.375977,-0.19694002 -0.562175,-0.48697895 -0.182617,-0.29361967 -0.182617,-0.65527316 0,-0.39746078 0.225586,-0.74121058 0.225586,-0.3473306 0.658854,-0.526367 0.433268,-0.1790364 0.963216,-0.1790364 0.583658,0 1.027669,0.1897786 0.447591,0.1861978 0.687499,0.551432 0.239909,0.3652343 0.257813,0.82714812 l -0.666016,0.0501302 q -0.05371,-0.49772112 -0.365234,-0.75195282 -0.307942,-0.2542317 -0.913085,-0.2542317 -0.630208,0 -0.920247,0.2327473 -0.286459,0.2291666 -0.286459,0.55501283 0,0.28287749 0.204102,0.46549459 0.200521,0.18261711 1.045572,0.3759764 0.848633,0.18977857 1.163737,0.33300767 0.458333,0.21126293 0.676757,0.53710914 0.218425,0.32226547 0.218425,0.74479137 0,0.4189451 -0.239909,0.7913408 -0.239909,0.3688149 -0.69108,0.5764971 -0.447591,0.2041015 -1.009766,0.2041015 -0.712564,0 -1.195963,-0.2076822 -0.479817,-0.2076822 -0.755533,-0.6230466 -0.272135,-0.4189451 -0.286458,-0.9453117 z"
     id="path118604" /><path
     d="m -32.459146,3 v -5.2493467 h 3.795571 v 0.6194659 h -3.10091 v 1.60774669 h 2.90397 v 0.61588515 h -2.90397 V 2.3805341 h 3.222655 V 3 Z"
     id="path118606" /><path
     d="m -27.610841,3 v -5.2493467 h 0.694661 v 4.6298808 h 2.585285 V 3 Z"
     id="path118608" /></g></svg>
