<?xml version="1.0" encoding="UTF-8" standalone="no"?>
<!-- Generator: Adobe Illustrator 25.2.3, SVG Export Plug-In . SVG Version: 6.00 Build 0)  -->

<svg
   version="1.0"
   id="svg7595"
   sodipodi:docname="sort_postAsc.svg"
   x="0px"
   y="0px"
   width="24"
   height="24"
   viewBox="0 0 24.000001 24"
   enable-background="new 0 0 17.9996 18"
   xml:space="preserve"
   inkscape:version="1.1.1 (3bf5ae0d25, 2021-09-20)"
   xmlns:inkscape="http://www.inkscape.org/namespaces/inkscape"
   xmlns:sodipodi="http://sodipodi.sourceforge.net/DTD/sodipodi-0.dtd"
   xmlns:xlink="http://www.w3.org/1999/xlink"
   xmlns="http://www.w3.org/2000/svg"
   xmlns:svg="http://www.w3.org/2000/svg"><rect
   style="fill:#999999;stroke:#000000;stroke-width:0.372093;stroke-miterlimit:4;stroke-dasharray:none;stroke-opacity:1"
   id="rect109948"
   width="23.627907"
   height="23.627907"
   x="0.1860465"
   y="0.1860465"
   ry="2.9534883"
   rx="2.9534883" /><defs
   id="defs67960" />
<sodipodi:namedview
   bordercolor="#666666"
   borderopacity="1.0"
   fit-margin-bottom="0"
   fit-margin-left="0"
   fit-margin-right="0"
   fit-margin-top="0"
   id="base"
   inkscape:current-layer="svg7595"
   inkscape:cx="5.0381356"
   inkscape:cy="13.479222"
   inkscape:document-units="mm"
   inkscape:pageopacity="0.0"
   inkscape:pageshadow="2"
   inkscape:window-height="1057"
   inkscape:window-maximized="1"
   inkscape:window-width="1920"
   inkscape:window-x="1592"
   inkscape:window-y="-8"
   inkscape:zoom="11.313709"
   pagecolor="#ffffff"
   showgrid="true"
   units="px"
   inkscape:pagecheckerboard="0"
   showguides="true"
   objecttolerance="1"
   gridtolerance="10"
   guidetolerance="1"
   inkscape:showpageshadow="false">
	<inkscape:grid
   type="xygrid"
   id="grid68042" /></sodipodi:namedview>
<g
   id="layer1"
   transform="translate(-46.755712,-67.833036)"
   inkscape:groupmode="layer"
   inkscape:label="Layer 1">
	<g
   id="g67940">
		<defs
   id="defs67935">
			<rect
   id="SVGID_1_"
   x="46.755322"
   y="67.833023"
   width="18"
   height="18" />
		</defs>
		<clipPath
   id="SVGID_2_">
			<use
   xlink:href="#SVGID_1_"
   overflow="visible"
   id="use67937"
   x="0"
   y="0"
   width="100%"
   height="100%" />
		</clipPath>
	</g>
</g>



<text
   xml:space="preserve"
   style="font-size:10.6667px;line-height:1.25;font-family:'Yu Gothic';-inkscape-font-specification:'Yu Gothic, Normal';font-variant-ligatures:none"
   x="1"
   y="-8"
   id="text160055"><tspan
     sodipodi:role="line"
     id="tspan160053"
     x="1"
     y="-8" /></text><g
   aria-label="POST"
   id="text53462"
   style="font-size:7.33333px;line-height:1.25;font-family:Arial;-inkscape-font-specification:'Arial, Normal';font-variant-ligatures:none;text-align:center;text-anchor:middle"><path
     d="M 2.3732137,8.25 V 3.0006533 h 1.9801424 q 0.5227862,0 0.7985022,0.05013 0.3867186,0.064453 0.6481117,0.2470702 0.2613932,0.1790364 0.4189452,0.5048826 0.1611327,0.3258462 0.1611327,0.7161455 0,0.6695961 -0.4261066,1.1350907 -0.4261066,0.461914 -1.5397128,0.461914 H 3.0678749 V 8.25 Z M 3.0678749,5.4964205 h 1.3570957 q 0.6731768,0 0.9560543,-0.250651 0.2828775,-0.2506509 0.2828775,-0.7054033 0,-0.3294269 -0.1682942,-0.5621742 Q 5.3308947,3.7418639 5.0587594,3.6666687 4.8833038,3.6201192 4.4106477,3.6201192 H 3.0678749 Z"
     id="path59103" /><path
     d="m 7.0532248,5.6933605 q 0,-1.3069656 0.7018226,-2.0445955 0.7018226,-0.7412106 1.8118481,-0.7412106 0.7268875,0 1.3105465,0.3473306 0.583658,0.3473306 0.88802,0.9703772 0.307943,0.6194658 0.307943,1.4072259 0,0.7985023 -0.322266,1.4287103 -0.322265,0.6302081 -0.913085,0.9560543 -0.59082,0.3222655 -1.2747392,0.3222655 -0.7412106,0 -1.3248692,-0.3580728 Q 7.654787,7.6233727 7.3540059,7.0039068 7.0532248,6.3844409 7.0532248,5.6933605 Z m 0.7161455,0.010742 q 0,0.9488928 0.5084633,1.4967441 0.5120441,0.5442706 1.2819005,0.5442706 0.7841789,0 1.2890619,-0.551432 0.508463,-0.5514321 0.508463,-1.564778 0,-0.6409503 -0.218424,-1.117187 Q 10.923991,4.0319029 10.505046,3.7705098 10.089682,3.5055359 9.5704763,3.5055359 q -0.7376299,0 -1.2711583,0.5084633 -0.5299477,0.5048826 -0.5299477,1.6901033 z"
     id="path59105" /><path
     d="m 12.732259,6.5634773 0.655273,-0.057292 q 0.04655,0.39388 0.214844,0.6481116 0.171875,0.250651 0.529947,0.408203 0.358073,0.1539713 0.805664,0.1539713 0.397461,0 0.701823,-0.118164 0.304362,-0.118164 0.451171,-0.3222655 0.150391,-0.2076822 0.150391,-0.4511717 0,-0.2470702 -0.143229,-0.4296873 Q 15.954914,6.2089853 15.625487,6.0836598 15.414224,6.0013031 14.690917,5.8294281 13.96761,5.6539725 13.677571,5.5000012 13.301595,5.3030612 13.115397,5.0130222 12.93278,4.7194026 12.93278,4.3577491 q 0,-0.3974608 0.225585,-0.7412106 0.225586,-0.3473306 0.658854,-0.526367 0.433268,-0.1790364 0.963216,-0.1790364 0.583659,0 1.027669,0.1897786 0.447591,0.1861978 0.6875,0.551432 0.239908,0.3652343 0.257812,0.8271481 l -0.666015,0.05013 Q 16.03369,4.0319029 15.722166,3.7776712 15.414224,3.5234395 14.809081,3.5234395 q -0.630208,0 -0.920247,0.2327473 -0.286458,0.2291666 -0.286458,0.5550128 0,0.2828775 0.204101,0.4654946 0.200521,0.1826171 1.045573,0.3759764 0.848632,0.1897786 1.163736,0.3330077 0.458333,0.2112629 0.676758,0.5371091 0.218424,0.3222655 0.218424,0.7447914 0,0.4189451 -0.239909,0.7913408 -0.239909,0.3688149 -0.69108,0.5764971 -0.447591,0.2041015 -1.009765,0.2041015 -0.712565,0 -1.195963,-0.2076822 Q 13.294433,7.9241538 13.018717,7.5087894 12.746582,7.0898443 12.732259,6.5634773 Z"
     id="path59107" /><path
     d="M 19.195472,8.25 V 3.6201192 H 17.46598 V 3.0006533 h 4.160806 V 3.6201192 H 19.890133 V 8.25 Z"
     id="path59109" /></g><g
   id="g58092"
   transform="matrix(1,0,0,-1,0.0751053,33.68521)"><path
     style="color:#000000;fill:#000000;stroke-linecap:round;-inkscape-stroke:none"
     d="M 11.925781,12.6875 A 0.311811,0.311811 0 0 0 11.613281,13 v 9 a 0.311811,0.311811 0 0 0 0.3125,0.3125 A 0.311811,0.311811 0 0 0 12.236328,22 v -9 a 0.311811,0.311811 0 0 0 -0.310547,-0.3125 z"
     id="path2689" /><g
     id="g58086"><path
       style="color:#000000;fill:#000000;stroke-linecap:round;-inkscape-stroke:none"
       d="m 15.125,17.75 a 0.31200001,0.31200001 0 0 0 -0.4375,0.0625 l -3,4 A 0.31200001,0.31200001 0 0 0 11.75,22.25 0.31200001,0.31200001 0 0 0 12.1875,22.1875 l 3,-4 A 0.31200001,0.31200001 0 0 0 15.125,17.75 Z"
       id="path57828" /><path
       style="color:#000000;fill:#000000;stroke-linecap:round;-inkscape-stroke:none"
       d="M 8.9570313,17.691406 A 0.31200001,0.31200001 0 0 0 8.7246094,17.75 a 0.31200001,0.31200001 0 0 0 -0.0625,0.4375 l 2.9999996,4 a 0.31200001,0.31200001 0 0 0 0.4375,0.0625 0.31200001,0.31200001 0 0 0 0.0625,-0.4375 l -2.9999996,-4 A 0.31200001,0.31200001 0 0 0 8.9570313,17.691406 Z"
       id="path57828-1" /></g></g></svg>
