<?xml version="1.0" encoding="UTF-8" standalone="no"?>
<svg
   width="120"
   height="380"
   version="1.1"
   id="svg131"
   sodipodi:docname="VCO5.svg"
   inkscape:version="1.1.1 (3bf5ae0d25, 2021-09-20)"
   xmlns:inkscape="http://www.inkscape.org/namespaces/inkscape"
   xmlns:sodipodi="http://sodipodi.sourceforge.net/DTD/sodipodi-0.dtd"
   xmlns="http://www.w3.org/2000/svg"
   xmlns:svg="http://www.w3.org/2000/svg">
  <sodipodi:namedview
     id="namedview133"
     pagecolor="#ffffff"
     bordercolor="#666666"
     borderopacity="1.0"
     inkscape:pageshadow="2"
     inkscape:pageopacity="0.0"
     inkscape:pagecheckerboard="0"
     showgrid="true"
     inkscape:zoom="1.7157895"
     inkscape:cx="153.28221"
     inkscape:cy="284.12576"
     inkscape:window-width="1920"
     inkscape:window-height="1057"
     inkscape:window-x="1592"
     inkscape:window-y="-8"
     inkscape:window-maximized="1"
     inkscape:current-layer="svg131">
    <inkscape:grid
       type="xygrid"
       id="grid5695" />
  </sodipodi:namedview>
  <defs
     id="defs74">
    <clipPath
       id="_clipPath_sMzPIcrS2sD3lKhajQrdaiSEc399lqzM">
      <rect
         height="380"
         id="svg_1"
         width="120" />
    </clipPath>
  </defs>
  <rect
     fill="#ff0000"
     height="380"
     id="svg_3"
     stroke="#000000"
     stroke-width="5"
     width="120"
     x="-1"
     y="-1"
     style="fill:#ff0000;stroke:#ff0000;stroke-opacity:1">PITC</rect>
  <path
     d="m 12,306 h 96 c 3.31,0 6,2.69 6,6 v 32 c 0,3.31 -2.69,6 -6,6 H 12 c -3.31,0 -6,-2.69 -6,-6 v -32 c 0,-3.31 2.69,-6 6,-6 z"
     fill="#4d9a4d"
     id="svg_4"
     stroke-miterlimit="10"
     style="fill:#000000" />
  <g
     aria-label="SIN"
     id="text27263"
     style="font-weight:bold;font-size:8px;line-height:1.25;font-family:Arial;-inkscape-font-specification:'Arial, Bold';fill:#f2f2f2">
    <path
       d="m 90.62648,313.44348 1.125,-0.10937 q 0.101563,0.5664 0.410156,0.83203 0.3125,0.26562 0.839844,0.26562 0.558594,0 0.839844,-0.23437 0.285156,-0.23828 0.285156,-0.55469 0,-0.20312 -0.121094,-0.34375 -0.117187,-0.14453 -0.414062,-0.25 -0.203125,-0.0703 -0.925781,-0.25 -0.929688,-0.23047 -1.304688,-0.56641 -0.527344,-0.47265 -0.527344,-1.15234 0,-0.4375 0.246094,-0.81641 0.25,-0.38281 0.714844,-0.58203 0.46875,-0.19922 1.128906,-0.19922 1.078125,0 1.621094,0.47266 0.546875,0.47266 0.574219,1.26172 l -1.15625,0.0508 q -0.07422,-0.44141 -0.320313,-0.63281 -0.242187,-0.19531 -0.730469,-0.19531 -0.503906,0 -0.789062,0.20703 -0.183594,0.13281 -0.183594,0.35547 0,0.20312 0.171875,0.34765 0.21875,0.1836 1.0625,0.38281 0.84375,0.19922 1.246094,0.41407 0.40625,0.21093 0.632812,0.58203 0.230469,0.36719 0.230469,0.91015 0,0.49219 -0.273437,0.92188 -0.273438,0.42969 -0.773438,0.64062 -0.5,0.20704 -1.246094,0.20704 -1.085937,0 -1.667968,-0.5 -0.582032,-0.50391 -0.695313,-1.46485 z"
       id="path32179" />
    <path
       d="m 96.22023,315.30676 v -5.72656 h 1.15625 v 5.72656 z"
       id="path32181" />
    <path
       d="m 98.489761,315.30676 v -5.72656 h 1.125 l 2.343749,3.82422 v -3.82422 h 1.07422 v 5.72656 h -1.16016 l -2.30859,-3.73437 v 3.73437 z"
       id="path32183" />
  </g>
  <g
     aria-label="SQR"
     id="text20237"
     style="font-weight:bold;font-size:8px;line-height:1.25;font-family:Arial;-inkscape-font-specification:'Arial, Bold';fill:#f2f2f2">
    <path
       d="m 14.859613,313.44345 1.125,-0.10937 q 0.101563,0.5664 0.410157,0.83203 0.3125,0.26562 0.839843,0.26562 0.558594,0 0.839844,-0.23437 0.285156,-0.23828 0.285156,-0.55469 0,-0.20313 -0.121093,-0.34375 -0.117188,-0.14453 -0.414063,-0.25 -0.203125,-0.0703 -0.925781,-0.25 -0.929688,-0.23047 -1.304688,-0.56641 -0.527343,-0.47265 -0.527343,-1.15234 0,-0.4375 0.246093,-0.81641 0.25,-0.38281 0.714844,-0.58203 0.46875,-0.19922 1.128906,-0.19922 1.078125,0 1.621094,0.47266 0.546875,0.47266 0.574219,1.26172 l -1.15625,0.0508 q -0.07422,-0.44141 -0.320313,-0.63281 -0.242187,-0.19532 -0.730468,-0.19532 -0.503907,0 -0.789063,0.20704 -0.183594,0.13281 -0.183594,0.35546 0,0.20313 0.171875,0.34766 0.21875,0.18359 1.0625,0.38281 0.84375,0.19922 1.246094,0.41407 0.40625,0.21093 0.632813,0.58203 0.230468,0.36718 0.230468,0.91015 0,0.49219 -0.273437,0.92188 -0.273438,0.42969 -0.773438,0.64062 -0.5,0.20703 -1.246093,0.20703 -1.085938,0 -1.667969,-0.5 -0.582031,-0.5039 -0.695313,-1.46484 z"
       id="path32165" />
    <path
       d="m 25.097895,314.58017 q 0.425781,0.30469 0.925781,0.48437 l -0.425781,0.81641 q -0.261719,-0.0781 -0.511719,-0.21484 -0.05469,-0.0274 -0.769531,-0.50782 -0.5625,0.2461 -1.246094,0.2461 -1.320313,0 -2.070313,-0.77735 -0.746093,-0.77734 -0.746093,-2.18359 0,-1.40234 0.75,-2.17969 0.75,-0.78125 2.035156,-0.78125 1.273437,0 2.019531,0.78125 0.746094,0.77735 0.746094,2.17969 0,0.74219 -0.207031,1.30469 -0.15625,0.42969 -0.5,0.83203 z m -0.929688,-0.65234 q 0.222656,-0.26172 0.332031,-0.63282 0.113282,-0.37109 0.113282,-0.85156 0,-0.99219 -0.4375,-1.48047 -0.4375,-0.49219 -1.144532,-0.49219 -0.707031,0 -1.148437,0.49219 -0.4375,0.49219 -0.4375,1.48047 0,1.00391 0.4375,1.50391 0.441406,0.49609 1.113281,0.49609 0.25,0 0.472656,-0.082 -0.351562,-0.23047 -0.714843,-0.35938 l 0.324218,-0.66015 q 0.570313,0.19531 1.089844,0.58594 z"
       id="path32167" />
    <path
       d="m 26.715082,315.30673 v -5.72656 h 2.433594 q 0.917969,0 1.332031,0.15625 0.417969,0.15234 0.667969,0.54687 0.25,0.39454 0.25,0.90235 0,0.64453 -0.378906,1.0664 -0.378907,0.41797 -1.132813,0.52735 0.375,0.21875 0.617188,0.48047 0.246093,0.26172 0.660156,0.92968 l 0.699219,1.11719 h -1.382813 l -0.835937,-1.24609 q -0.445313,-0.66797 -0.609375,-0.83985 -0.164063,-0.17578 -0.347657,-0.23828 -0.183593,-0.0664 -0.582031,-0.0664 h -0.234375 v 2.39062 z m 1.15625,-3.30469 h 0.855469 q 0.832031,0 1.039062,-0.0703 0.207032,-0.0703 0.324219,-0.24219 0.117188,-0.17187 0.117188,-0.42968 0,-0.28907 -0.15625,-0.46485 -0.152344,-0.17968 -0.433594,-0.22656 -0.140625,-0.0195 -0.84375,-0.0195 h -0.902344 z"
       id="path32169" />
  </g>
  <path
     d="m 45.87,263.97 h 28.25 c 1.59,0 2.87,2.69 2.87,6 v 47.35 c 0,3.32 -1.29,6 -2.87,6 H 45.87 c -1.59,0 -2.87,-2.68 -2.87,-6 v -47.35 c 0,-3.31 1.29,-6 2.87,-6 z"
     fill="#4d9a4d"
     id="svg_5"
     stroke-miterlimit="10"
     style="fill:#000000" />
  <g
     aria-label="TRI"
     id="text25081"
     style="font-weight:bold;font-size:8px;line-height:1.25;font-family:Arial;-inkscape-font-specification:'Arial, Bold';fill:#f2f2f2">
    <path
       d="m 54.907913,314.72391 v -4.75782 h -1.699219 v -0.96875 h 4.550782 v 0.96875 h -1.695313 v 4.75782 z"
       id="path32172" />
    <path
       d="m 58.509476,314.72391 v -5.72657 h 2.433593 q 0.917969,0 1.332032,0.15625 0.417968,0.15235 0.667968,0.54688 0.25,0.39453 0.25,0.90234 0,0.64453 -0.378906,1.06641 -0.378906,0.41797 -1.132812,0.52734 0.375,0.21875 0.617187,0.48047 0.246094,0.26172 0.660156,0.92969 l 0.699219,1.11719 h -1.382812 l -0.835938,-1.2461 q -0.445312,-0.66797 -0.609375,-0.83984 -0.164062,-0.17578 -0.347656,-0.23828 -0.183594,-0.0664 -0.582031,-0.0664 h -0.234375 v 2.39063 z m 1.15625,-3.30469 h 0.855468 q 0.832032,0 1.039063,-0.0703 0.207031,-0.0703 0.324219,-0.24219 0.117187,-0.17188 0.117187,-0.42969 0,-0.28906 -0.15625,-0.46484 -0.152344,-0.17969 -0.433594,-0.22656 -0.140625,-0.0195 -0.84375,-0.0195 h -0.902343 z"
       id="path32174" />
    <path
       d="m 64.247757,314.72391 v -5.72657 h 1.15625 v 5.72657 z"
       id="path32176" />
  </g>
  <g
     aria-label="SAW"
     id="text10435"
     style="font-weight:bold;font-size:8px;line-height:1.25;font-family:Arial;-inkscape-font-specification:'Arial, Bold';fill:#f2f2f2">
    <path
       d="m 50.411758,271.48029 1.125,-0.10938 q 0.101563,0.56641 0.410157,0.83203 0.3125,0.26563 0.839843,0.26563 0.558594,0 0.839844,-0.23438 0.285156,-0.23828 0.285156,-0.55469 0,-0.20312 -0.121093,-0.34375 -0.117188,-0.14453 -0.414063,-0.25 -0.203125,-0.0703 -0.925781,-0.25 -0.929688,-0.23046 -1.304688,-0.5664 -0.527343,-0.47266 -0.527343,-1.15235 0,-0.4375 0.246093,-0.8164 0.25,-0.38281 0.714844,-0.58203 0.46875,-0.19922 1.128906,-0.19922 1.078125,0 1.621094,0.47265 0.546875,0.47266 0.574219,1.26172 l -1.15625,0.0508 q -0.07422,-0.4414 -0.320313,-0.63281 -0.242187,-0.19531 -0.730468,-0.19531 -0.503907,0 -0.789063,0.20703 -0.183594,0.13281 -0.183594,0.35547 0,0.20312 0.171875,0.34766 0.21875,0.18359 1.0625,0.38281 0.84375,0.19922 1.246094,0.41406 0.40625,0.21094 0.632813,0.58203 0.230468,0.36719 0.230468,0.91016 0,0.49219 -0.273437,0.92187 -0.273438,0.42969 -0.773438,0.64063 -0.5,0.20703 -1.246093,0.20703 -1.085938,0 -1.667969,-0.5 -0.582031,-0.50391 -0.695313,-1.46484 z"
       id="path32158" />
    <path
       d="m 61.204727,273.34357 h -1.257812 l -0.5,-1.30078 h -2.289063 l -0.472656,1.30078 h -1.226563 l 2.230469,-5.72657 h 1.222656 z m -2.128906,-2.26563 -0.789063,-2.125 -0.773437,2.125 z"
       id="path32160" />
    <path
       d="M 62.189102,273.34357 60.821915,267.617 h 1.183593 l 0.863282,3.9336 1.046875,-3.9336 h 1.375 l 1.003906,4 0.878906,-4 h 1.164063 l -1.390625,5.72657 h -1.226563 l -1.140625,-4.28125 -1.136719,4.28125 z"
       id="path32162" />
  </g>
  <path
     d="m 52.55,226.19 h 1.12 l -2.12,4.9 h -1.12 l -2.11,-4.9 h 1.22 l 1.49,3.5 z m 0.82,5.6 2.31,-6.59 h 0.97 l -2.31,6.59 z m 5.93,-0.61 v 0 q -0.76,0 -1.38,-0.33 v 0 0 q -0.61,-0.33 -0.95,-0.91 v 0 0 q -0.35,-0.57 -0.35,-1.3 v 0 0 q 0,-0.72 0.35,-1.29 v 0 0 q 0.34,-0.58 0.95,-0.91 v 0 0 q 0.62,-0.33 1.38,-0.33 v 0 0 q 0.76,0 1.37,0.33 v 0 0 q 0.61,0.33 0.96,0.91 v 0 0 q 0.35,0.57 0.35,1.29 v 0 0 q 0,0.73 -0.35,1.3 v 0 0 q -0.35,0.58 -0.96,0.91 v 0 0 q -0.61,0.33 -1.37,0.33 z m 0,-0.97 v 0 q 0.43,0 0.78,-0.2 v 0 0 q 0.35,-0.2 0.55,-0.55 v 0 0 q 0.2,-0.36 0.2,-0.82 v 0 0 q 0,-0.45 -0.2,-0.81 v 0 0 q -0.2,-0.36 -0.55,-0.55 v 0 0 q -0.35,-0.2 -0.78,-0.2 v 0 0 q -0.43,0 -0.78,0.2 v 0 0 q -0.35,0.19 -0.55,0.55 v 0 0 q -0.2,0.36 -0.2,0.81 v 0 0 q 0,0.46 0.2,0.82 v 0 0 q 0.2,0.35 0.55,0.55 v 0 0 q 0.35,0.2 0.78,0.2 z m 5.88,0.97 v 0 q -0.75,0 -1.35,-0.33 v 0 0 q -0.61,-0.32 -0.96,-0.9 v 0 0 q -0.34,-0.58 -0.34,-1.31 v 0 0 q 0,-0.72 0.34,-1.3 v 0 0 q 0.35,-0.58 0.96,-0.9 v 0 0 q 0.6,-0.33 1.36,-0.33 v 0 0 q 0.63,0 1.15,0.22 v 0 0 q 0.51,0.23 0.86,0.65 v 0 l -0.73,0.67 v 0 q -0.49,-0.57 -1.23,-0.57 v 0 0 q -0.45,0 -0.81,0.2 v 0 0 q -0.36,0.19 -0.56,0.55 v 0 0 q -0.2,0.36 -0.2,0.81 v 0 0 q 0,0.46 0.2,0.82 v 0 0 q 0.2,0.35 0.56,0.55 v 0 0 q 0.36,0.2 0.81,0.2 v 0 0 q 0.74,0 1.23,-0.58 v 0 l 0.73,0.67 v 0 q -0.35,0.43 -0.87,0.65 v 0 0 q -0.51,0.23 -1.15,0.23 z m 3.8,-0.09 v -3.97 h -1.57 v -0.93 h 4.27 v 0.93 h -1.57 v 3.97 z"
     fill="#202020"
     fill-rule="evenodd"
     id="svg_19" />
  <path
     d="M 22.98,222.7 23,216.9 c 0,-0.55 0.32,-1.32 0.7,-1.71 l 7.6,-7.68 c 0.38,-0.39 0.7,-1.16 0.7,-1.71 V 200"
     fill="none"
     id="svg_21"
     stroke="#202020"
     stroke-dasharray="none"
     stroke-linecap="square"
     stroke-miterlimit="3"
     stroke-width="0.8" />
  <path
     d="m 96.88,222.7 0.02,-5.8 c 0,-0.55 -0.32,-1.32 -0.7,-1.71 l -7.59,-7.68 c -0.39,-0.39 -0.7,-1.16 -0.71,-1.71 L 87.85,200"
     fill="none"
     id="svg_22"
     stroke="#202020"
     stroke-dasharray="none"
     stroke-linecap="square"
     stroke-miterlimit="3"
     stroke-width="0.8" />
  <path
     d="m 45.89,96.97 v 0 q -0.87,0 -1.57,-0.37 v 0 0 q -0.7,-0.38 -1.1,-1.04 v 0 0 Q 42.83,94.9 42.83,94.08 v 0 0 q 0,-0.83 0.39,-1.49 v 0 0 q 0.4,-0.66 1.1,-1.03 v 0 0 q 0.7,-0.38 1.57,-0.38 v 0 0 q 0.87,0 1.57,0.38 v 0 0 q 0.7,0.37 1.1,1.03 v 0 0 q 0.4,0.66 0.4,1.49 v 0 0 q 0,0.82 -0.4,1.48 v 0 0 q -0.4,0.66 -1.1,1.04 v 0 0 q -0.7,0.37 -1.57,0.37 z m 0,-1.1 v 0 q 0.5,0 0.9,-0.23 v 0 0 q 0.4,-0.23 0.63,-0.64 v 0 0 q 0.22,-0.4 0.22,-0.92 v 0 0 q 0,-0.52 -0.22,-0.93 v 0 0 q -0.23,-0.41 -0.63,-0.64 v 0 0 q -0.4,-0.23 -0.9,-0.23 v 0 0 q -0.49,0 -0.89,0.23 v 0 0 q -0.4,0.23 -0.63,0.64 v 0 0 q -0.23,0.41 -0.23,0.93 v 0 0 q 0,0.52 0.23,0.92 v 0 0 q 0.23,0.41 0.63,0.64 v 0 0 q 0.4,0.23 0.89,0.23 z m 6.72,1.1 v 0 q -0.85,0 -1.55,-0.37 v 0 0 q -0.69,-0.37 -1.08,-1.03 v 0 0 q -0.4,-0.66 -0.4,-1.49 v 0 0 q 0,-0.84 0.4,-1.5 v 0 0 q 0.39,-0.66 1.08,-1.03 v 0 0 q 0.7,-0.37 1.56,-0.37 v 0 0 q 0.73,0 1.32,0.26 v 0 0 q 0.58,0.25 0.98,0.73 v 0 l -0.83,0.77 v 0 q -0.57,-0.66 -1.41,-0.66 v 0 0 q -0.52,0 -0.92,0.23 v 0 0 q -0.41,0.23 -0.64,0.64 v 0 0 q -0.23,0.41 -0.23,0.93 v 0 0 q 0,0.52 0.23,0.92 v 0 0 q 0.23,0.41 0.64,0.64 v 0 0 q 0.4,0.23 0.92,0.23 v 0 0 q 0.84,0 1.41,-0.67 v 0 l 0.83,0.77 v 0 q -0.4,0.49 -0.99,0.75 v 0 0 q -0.59,0.25 -1.32,0.25 z m 4.35,-0.09 v -4.55 h -1.8 v -1.05 h 4.88 v 1.05 h -1.79 v 4.55 z m 7.96,0 -0.49,-1.2 h -2.6 l -0.5,1.2 H 60 l 2.5,-5.6 h 1.28 l 2.5,5.6 z m -2.68,-2.19 h 1.78 l -0.89,-2.14 z m 8.72,-3.41 h 1.29 l -2.42,5.6 h -1.28 l -2.42,-5.6 h 1.4 l 1.71,4 z m 3.16,4.56 h 3.05 v 1.04 h -4.33 v -5.6 h 4.23 v 1.04 h -2.95 v 1.21 h 2.6 v 1.01 h -2.6 z"
     fill="#202020"
     fill-rule="evenodd"
     id="svg_33" />
  <path
     d="m 30.11,226.96 v -0.91 H 26.4 v 4.9 h 1.14 v -1.79 h 2.26 v -0.91 h -2.26 v -1.29 z m 6.29,3.99 -0.02,-4.9 h -0.93 l -1.8,3.04 -1.84,-3.04 h -0.93 v 4.9 h 1.06 v -2.88 l 1.43,2.36 h 0.51 l 1.45,-2.42 v 2.94 z M 10.73,230.04 V 228.9 H 13 v -0.88 h -2.27 v -1.06 h 2.57 v -0.91 H 9.6 v 4.9 h 3.8 v -0.91 z m 7.97,0.91 -1.83,-2.54 1.71,-2.36 h -1.23 l -1.1,1.59 -1.13,-1.59 h -1.29 l 1.72,2.41 -1.81,2.49 h 1.3 l 1.16,-1.7 1.19,1.7 z m 2.72,-4.9 H 19.3 v 4.9 h 1.13 v -1.35 h 0.99 c 1.31,0 2.13,-0.68 2.13,-1.78 0,-1.09 -0.82,-1.77 -2.13,-1.77 z m -0.06,2.62 h -0.93 v -1.7 h 0.93 c 0.69,0 1.04,0.32 1.04,0.85 0,0.54 -0.35,0.85 -1.04,0.85 z"
     fill="#000000"
     fill-rule="evenodd"
     id="svg_55" />
  <path
     d="m 102.79,226.96 v -0.91 h -3.71 v 4.9 h 1.14 v -1.79 h 2.26 v -0.91 h -2.26 v -1.29 z m 6.29,3.99 -0.02,-4.9 h -0.93 l -1.8,3.04 -1.84,-3.04 h -0.93 v 4.9 h 1.06 v -2.88 l 1.43,2.36 h 0.51 l 1.45,-2.42 v 2.94 z m -24.16,0 h 3.59 v -0.93 h -2.45 v -3.97 h -1.14 z m 4.23,0 h 1.13 v -4.9 h -1.13 z m 5.67,-4.9 v 2.97 l -2.44,-2.97 h -0.94 v 4.9 h 1.12 v -2.98 l 2.45,2.98 h 0.93 v -4.9 z"
     fill="#000000"
     fill-rule="evenodd"
     id="svg_56" />
  <g
     aria-label="PWM"
     id="svg_57"
     style="font-weight:bold;font-size:8px;font-family:Helvetica;text-anchor:middle;stroke:#000000;stroke-width:0">
    <path
       d="m 88.826637,273.14001 v -5.72656 h 1.855469 q 1.054688,0 1.375,0.0859 0.492188,0.12891 0.824219,0.5625 0.332031,0.42969 0.332031,1.11328 0,0.52734 -0.191406,0.88672 -0.191406,0.35937 -0.488281,0.56641 -0.292969,0.20312 -0.597657,0.26953 -0.414062,0.082 -1.199218,0.082 h -0.753907 v 2.16015 z m 1.15625,-4.75781 v 1.625 H 90.6157 q 0.683594,0 0.914062,-0.0898 0.230469,-0.0898 0.359375,-0.28125 0.132813,-0.19141 0.132813,-0.44531 0,-0.3125 -0.183594,-0.51563 -0.183594,-0.20312 -0.464844,-0.25391 -0.207031,-0.0391 -0.832031,-0.0391 z"
       style="font-weight:bold;font-size:8px;font-family:Helvetica;text-anchor:middle;stroke:#000000;stroke-width:0"
       id="path423" />
    <path
       d="m 94.975075,273.14001 -1.367188,-5.72656 h 1.183594 l 0.863281,3.9336 1.046875,-3.9336 h 1.375 l 1.003907,4 0.878906,-4 h 1.16406 l -1.390623,5.72656 h -1.226562 l -1.140625,-4.28125 -1.136719,4.28125 z"
       style="font-weight:bold;font-size:8px;font-family:Helvetica;text-anchor:middle;stroke:#000000;stroke-width:0"
       id="path425" />
    <path
       d="m 101.69773,273.14001 v -5.72656 h 1.73047 l 1.03906,3.90625 1.02735,-3.90625 h 1.73437 v 5.72656 h -1.07422 v -4.50781 l -1.13672,4.50781 h -1.11328 l -1.13281,-4.50781 v 4.50781 z"
       style="font-weight:bold;font-size:8px;font-family:Helvetica;text-anchor:middle;stroke:#000000;stroke-width:0"
       id="path427" />
  </g>
  <text
     fill="#000000"
     font-family="Helvetica"
     font-size="8px"
     font-weight="bold"
     id="svg_58"
     stroke="#000000"
     stroke-width="0"
     text-anchor="middle"
     x="1032.76"
     xml:space="preserve"
     y="216.64">PWM</text>
  <g
     aria-label="PW"
     id="svg_59"
     style="font-weight:bold;font-size:8px;font-family:Helvetica;text-anchor:middle;stroke:#000000;stroke-width:0">
    <path
       d="m 82.158669,155.14 v -5.72656 h 1.855468 q 1.054688,0 1.375,0.0859 0.492188,0.12891 0.824219,0.5625 0.332031,0.42969 0.332031,1.11329 0,0.52734 -0.191406,0.88671 -0.191406,0.35938 -0.488281,0.56641 -0.292969,0.20313 -0.597656,0.26953 -0.414063,0.082 -1.199219,0.082 H 83.314919 V 155.14 Z m 1.15625,-4.75781 v 1.625 h 0.632812 q 0.683594,0 0.914063,-0.0899 0.230468,-0.0898 0.359375,-0.28125 0.132812,-0.1914 0.132812,-0.44531 0,-0.3125 -0.183594,-0.51562 -0.183593,-0.20313 -0.464843,-0.25391 -0.207032,-0.0391 -0.832032,-0.0391 z"
       style="font-weight:bold;font-size:8px;font-family:Helvetica;text-anchor:middle;stroke:#000000;stroke-width:0"
       id="path346" />
    <path
       d="m 88.307106,155.14 -1.367187,-5.72656 h 1.183593 l 0.863282,3.93359 1.046875,-3.93359 h 1.375 l 1.003906,4 0.878906,-4 h 1.164063 L 93.064919,155.14 h -1.226563 l -1.140625,-4.28125 -1.136719,4.28125 z"
       style="font-weight:bold;font-size:8px;font-family:Helvetica;text-anchor:middle;stroke:#000000;stroke-width:0"
       id="path348" />
  </g>
  <g
     aria-label="PITCH"
     id="svg_60"
     style="font-weight:bold;font-size:8px;font-family:Helvetica;text-anchor:middle;stroke:#000000;stroke-width:0">
    <path
       d="m 21.502029,156 v -5.72656 h 1.855469 q 1.054688,0 1.375,0.0859 0.492188,0.12891 0.824219,0.5625 0.332031,0.42969 0.332031,1.11329 0,0.52734 -0.191406,0.88671 -0.191406,0.35938 -0.488281,0.56641 -0.292969,0.20313 -0.597657,0.26953 -0.414062,0.082 -1.199218,0.082 H 22.658279 V 156 Z m 1.15625,-4.75781 v 1.625 h 0.632813 q 0.683594,0 0.914062,-0.0898 0.230469,-0.0898 0.359375,-0.28125 0.132813,-0.1914 0.132813,-0.44531 0,-0.3125 -0.183594,-0.51562 -0.183594,-0.20313 -0.464844,-0.25391 -0.207031,-0.0391 -0.832031,-0.0391 z"
       style="font-weight:bold;font-size:8px;font-family:Helvetica;text-anchor:middle;stroke:#000000;stroke-width:0"
       id="path369" />
    <path
       d="m 26.802811,156 v -5.72656 h 1.15625 V 156 Z"
       style="font-weight:bold;font-size:8px;font-family:Helvetica;text-anchor:middle;stroke:#000000;stroke-width:0"
       id="path371" />
    <path
       d="m 30.349686,156 v -4.75781 h -1.699219 v -0.96875 h 4.550781 v 0.96875 H 31.505936 V 156 Z"
       style="font-weight:bold;font-size:8px;font-family:Helvetica;text-anchor:middle;stroke:#000000;stroke-width:0"
       id="path373" />
    <path
       d="m 37.611404,153.89453 1.121094,0.35547 q -0.257812,0.9375 -0.859375,1.39453 -0.597656,0.45313 -1.519531,0.45313 -1.140625,0 -1.875,-0.77735 -0.734375,-0.78125 -0.734375,-2.13281 0,-1.42969 0.738281,-2.21875 0.738281,-0.79297 1.941406,-0.79297 1.050782,0 1.707032,0.62109 0.390625,0.36719 0.585937,1.05469 l -1.144531,0.27344 q -0.101563,-0.44531 -0.425781,-0.70313 -0.320313,-0.25781 -0.78125,-0.25781 -0.636719,0 -1.035157,0.45703 -0.394531,0.45703 -0.394531,1.48047 0,1.08594 0.390625,1.54688 0.390625,0.46093 1.015625,0.46093 0.460938,0 0.792969,-0.29296 0.332031,-0.29297 0.476562,-0.92188 z"
       style="font-weight:bold;font-size:8px;font-family:Helvetica;text-anchor:middle;stroke:#000000;stroke-width:0"
       id="path375" />
    <path
       d="m 39.728592,156 v -5.72656 h 1.15625 v 2.2539 h 2.265625 v -2.2539 h 1.15625 V 156 h -1.15625 v -2.50391 H 40.884842 V 156 Z"
       style="font-weight:bold;font-size:8px;font-family:Helvetica;text-anchor:middle;stroke:#000000;stroke-width:0"
       id="path377" />
  </g>
  <g
     aria-label="VCO"
     id="svg_61"
     style="font-weight:bold;font-size:13px;font-family:Helvetica;text-anchor:middle;stroke-width:0"
     transform="translate(0.58282208,-5.2453987)">
    <path
       d="m 48.254375,28 -3.326171,-9.305664 h 2.037597 l 2.354981,6.887207 2.278808,-6.887207 h 1.993164 L 50.260235,28 Z"
       style="font-weight:bold;font-size:13px;font-family:Helvetica;text-anchor:middle;stroke-width:0"
       id="path398" />
    <path
       d="m 60.505352,24.578613 1.821777,0.577637 q -0.418945,1.523437 -1.396484,2.266113 -0.971191,0.736328 -2.469238,0.736328 -1.853516,0 -3.046875,-1.263183 -1.19336,-1.269531 -1.19336,-3.465821 0,-2.323242 1.199707,-3.605468 1.199707,-1.288574 3.154786,-1.288574 1.707519,0 2.773925,1.009277 0.634766,0.59668 0.952149,1.713867 l -1.859864,0.444336 q -0.165039,-0.723633 -0.691894,-1.142578 -0.520508,-0.418945 -1.269531,-0.418945 -1.034668,0 -1.682129,0.742675 -0.641114,0.742676 -0.641114,2.405762 0,1.764648 0.634766,2.513672 0.634766,0.749023 1.650391,0.749023 0.749023,0 1.288574,-0.476074 0.539551,-0.476074 0.774414,-1.498047 z"
       style="font-weight:bold;font-size:13px;font-family:Helvetica;text-anchor:middle;stroke-width:0"
       id="path400" />
    <path
       d="m 63.558575,23.404297 q 0,-1.421875 0.425293,-2.386719 0.317382,-0.710937 0.863281,-1.275879 0.552246,-0.564941 1.206055,-0.83789 0.869628,-0.368164 2.005859,-0.368164 2.056641,0 3.288086,1.275878 1.237793,1.275879 1.237793,3.54834 0,2.253418 -1.225098,3.529297 -1.225097,1.269531 -3.27539,1.269531 -2.075684,0 -3.300782,-1.263183 -1.225097,-1.269531 -1.225097,-3.491211 z m 1.936035,-0.06348 q 0,1.580567 0.72998,2.399414 0.729981,0.8125 1.853516,0.8125 1.123535,0 1.84082,-0.806152 0.723633,-0.8125 0.723633,-2.431152 0,-1.59961 -0.70459,-2.386719 -0.698242,-0.787109 -1.859863,-0.787109 -1.161621,0 -1.872559,0.799804 -0.710937,0.793457 -0.710937,2.399414 z"
       style="font-weight:bold;font-size:13px;font-family:Helvetica;text-anchor:middle;stroke-width:0"
       id="path402" />
  </g>
  <g
     aria-label="RESET"
     id="text31127"
     style="font-weight:bold;font-size:8px;line-height:1.25;font-family:Arial;-inkscape-font-specification:'Arial, Bold'">
    <path
       d="m 9.9111013,272.76074 v -5.72656 h 2.4335937 q 0.917969,0 1.332031,0.15625 0.417969,0.15234 0.667969,0.54687 0.25,0.39454 0.25,0.90235 0,0.64453 -0.378906,1.0664 -0.378906,0.41797 -1.132813,0.52735 0.375,0.21875 0.617188,0.48047 0.246094,0.26172 0.660156,0.92968 l 0.699219,1.11719 h -1.382813 l -0.835937,-1.24609 q -0.445313,-0.66797 -0.609375,-0.83985 -0.164063,-0.17578 -0.347656,-0.23828 -0.183594,-0.0664 -0.582032,-0.0664 h -0.234375 v 2.39062 z m 1.1562497,-3.30469 h 0.855469 q 0.832031,0 1.039063,-0.0703 0.207031,-0.0703 0.324218,-0.24219 0.117188,-0.17187 0.117188,-0.42968 0,-0.28907 -0.15625,-0.46485 -0.152344,-0.17968 -0.433594,-0.22656 -0.140625,-0.0195 -0.84375,-0.0195 h -0.902344 z"
       id="path32147" />
    <path
       d="m 15.684539,272.76074 v -5.72656 h 4.246094 v 0.96875 h -3.089844 v 1.26953 h 2.875 v 0.96484 h -2.875 v 1.5586 h 3.199219 v 0.96484 z"
       id="path32149" />
    <path
       d="m 20.727508,270.89746 1.125,-0.10937 q 0.101562,0.5664 0.410156,0.83203 0.3125,0.26562 0.839844,0.26562 0.558593,0 0.839843,-0.23437 0.285157,-0.23828 0.285157,-0.55469 0,-0.20313 -0.121094,-0.34375 -0.117188,-0.14453 -0.414063,-0.25 -0.203125,-0.0703 -0.925781,-0.25 -0.929687,-0.23047 -1.304687,-0.56641 -0.527344,-0.47265 -0.527344,-1.15234 0,-0.4375 0.246094,-0.81641 0.25,-0.38281 0.714843,-0.58203 0.46875,-0.19922 1.128907,-0.19922 1.078125,0 1.621093,0.47266 0.546875,0.47266 0.574219,1.26172 l -1.15625,0.0508 q -0.07422,-0.44141 -0.320312,-0.63281 -0.242188,-0.19532 -0.730469,-0.19532 -0.503906,0 -0.789063,0.20704 -0.183593,0.13281 -0.183593,0.35546 0,0.20313 0.171875,0.34766 0.21875,0.18359 1.0625,0.38281 0.84375,0.19922 1.246093,0.41407 0.40625,0.21093 0.632813,0.58203 0.230469,0.36718 0.230469,0.91015 0,0.49219 -0.273438,0.92188 -0.273437,0.42969 -0.773437,0.64062 -0.5,0.20703 -1.246094,0.20703 -1.085938,0 -1.667969,-0.5 -0.582031,-0.5039 -0.695312,-1.46484 z"
       id="path32151" />
    <path
       d="m 26.356414,272.76074 v -5.72656 h 4.246094 v 0.96875 h -3.089844 v 1.26953 h 2.875 v 0.96484 h -2.875 v 1.5586 h 3.199219 v 0.96484 z"
       id="path32153" />
    <path
       d="m 32.981414,272.76074 v -4.75781 h -1.699219 v -0.96875 h 4.550781 v 0.96875 h -1.695312 v 4.75781 z"
       id="path32155" />
  </g>
  <g
     id="g3150">
    <g
       id="g2866"
       transform="matrix(1.1403853,0,-0.31300292,1.0508295,134.08798,-21.614438)">
      <path
         style="vector-effect:non-scaling-stroke;fill:#f2f2f2;stroke:#ffffff;stroke-width:0.00377953;stroke-linecap:butt;stroke-linejoin:miter;stroke-miterlimit:4;stroke-dasharray:none;stroke-opacity:1;-inkscape-stroke:hairline"
         d="m 16.19833,362.49543 c 2.301437,2.81657 4.301412,8.4999 4.301412,8.4999 0,0 0.116315,3.99994 -1.280744,2.49996 -1.397059,-1.49998 -0.719231,-2.70833 -0.719231,-2.70833 0,0 0.499994,-1.56132 0,-3.29159 -0.499994,-1.73027 -2.301437,-4.99994 -2.301437,-4.99994 z"
         id="path1106" />
      <path
         style="vector-effect:non-scaling-stroke;fill:#f2f2f2;stroke:#ffffff;stroke-width:0.00377953;stroke-linecap:butt;stroke-linejoin:miter;stroke-miterlimit:4;stroke-dasharray:none;stroke-opacity:1;-inkscape-stroke:hairline"
         d="m 24.801154,362.2038 c -2.301437,2.81657 -4.301412,8.4999 -4.301412,8.4999 0,0 -0.116315,3.99994 1.280744,2.49996 1.397059,-1.49998 0.719231,-2.70833 0.719231,-2.70833 0,0 -0.499994,-1.56132 0,-3.29159 0.499994,-1.73027 2.301437,-4.99994 2.301437,-4.99994 z"
         id="path1106-6" />
    </g>
    <g
       aria-label="enom"
       transform="matrix(1.0417408,0,-0.40091468,0.95993168,0,0)"
       id="text5323"
       style="font-size:13.1363px;font-family:Arial;-inkscape-font-specification:'Arial, Normal';fill:#f2f2f2;stroke-width:1.09469">
      <path
         d="m 196.1535,384.38224 1.19304,0.14752 q -0.28222,1.04552 -1.04551,1.6228 -0.7633,0.57728 -1.94992,0.57728 -1.49451,0 -2.37326,-0.91723 -0.87233,-0.92365 -0.87233,-2.58493 0,-1.71901 0.88516,-2.66831 0.88516,-0.9493 2.29628,-0.9493 1.36623,0 2.23215,0.93006 0.86592,0.93006 0.86592,2.61699 0,0.10263 -0.006,0.30789 h -5.08005 q 0.0641,1.12248 0.63501,1.719 0.57086,0.59653 1.42395,0.59653 0.63501,0 1.084,-0.33354 0.449,-0.33354 0.71198,-1.06476 z m -3.7908,-1.86654 h 3.80363 q -0.077,-0.8595 -0.43617,-1.28925 -0.55162,-0.66708 -1.43037,-0.66708 -0.79536,0 -1.34057,0.53238 -0.53879,0.53238 -0.59652,1.42395 z"
         id="path3125" />
      <path
         d="m 198.79615,386.5759 v -6.81189 h 1.0391 v 0.96854 q 0.75047,-1.12248 2.16801,-1.12248 0.61576,0 1.1289,0.22449 0.51955,0.21809 0.77612,0.57728 0.25657,0.3592 0.35919,0.85309 0.0641,0.32071 0.0641,1.12249 v 4.18848 h -1.15456 v -4.14358 q 0,-0.70556 -0.1347,-1.05193 -0.1347,-0.35278 -0.48107,-0.55804 -0.33995,-0.21167 -0.80177,-0.21167 -0.73764,0 -1.27643,0.46824 -0.53238,0.46824 -0.53238,1.77674 v 3.72024 z"
         id="path3127" />
      <path
         d="m 205.67219,383.16995 q 0,-1.89219 1.05193,-2.80301 0.87874,-0.75687 2.14234,-0.75687 1.40471,0 2.29629,0.92364 0.89157,0.91723 0.89157,2.54003 0,1.31491 -0.39768,2.07179 -0.39126,0.75046 -1.14814,1.16738 -0.75046,0.41693 -1.64204,0.41693 -1.43037,0 -2.31553,-0.91723 -0.87874,-0.91724 -0.87874,-2.64266 z m 1.18662,0 q 0,1.3085 0.57087,1.96275 0.57086,0.64784 1.43678,0.64784 0.85951,0 1.43037,-0.65425 0.57086,-0.65425 0.57086,-1.99482 0,-1.2636 -0.57727,-1.91144 -0.57087,-0.65425 -1.42396,-0.65425 -0.86592,0 -1.43678,0.64784 -0.57087,0.64783 -0.57087,1.95633 z"
         id="path3129" />
      <path
         d="m 213.40772,386.5759 v -6.81189 h 1.03269 v 0.95571 q 0.32071,-0.5003 0.85309,-0.80177 0.53238,-0.30788 1.21228,-0.30788 0.75688,0 1.23795,0.31429 0.48748,0.3143 0.68632,0.87875 0.80819,-1.19304 2.10386,-1.19304 1.01344,0 1.55865,0.56445 0.54521,0.55803 0.54521,1.72542 v 4.67596 h -1.14815 v -4.29111 q 0,-0.69273 -0.11545,-0.9942 -0.10904,-0.30788 -0.4041,-0.4939 -0.29505,-0.18601 -0.69273,-0.18601 -0.71839,0 -1.19304,0.48107 -0.47465,0.47465 -0.47465,1.52658 v 3.95757 h -1.15456 v -4.42581 q 0,-0.7697 -0.28223,-1.15455 -0.28222,-0.38486 -0.92364,-0.38486 -0.48748,0 -0.90441,0.25657 -0.41051,0.25657 -0.59652,0.75046 -0.18601,0.4939 -0.18601,1.42396 v 3.53423 z"
         id="path3131" />
    </g>
  </g>
</svg>
