<?xml version="1.0" encoding="UTF-8" standalone="no"?>
<!-- Generator: Adobe Illustrator 25.2.3, SVG Export Plug-In . SVG Version: 6.00 Build 0)  -->

<svg
   version="1.0"
   id="svg7595"
   sodipodi:docname="wav_sqr.svg"
   x="0px"
   y="0px"
   width="24"
   height="24"
   viewBox="0 0 24.000001 24"
   enable-background="new 0 0 17.9996 18"
   xml:space="preserve"
   inkscape:version="1.1.1 (3bf5ae0d25, 2021-09-20)"
   xmlns:inkscape="http://www.inkscape.org/namespaces/inkscape"
   xmlns:sodipodi="http://sodipodi.sourceforge.net/DTD/sodipodi-0.dtd"
   xmlns:xlink="http://www.w3.org/1999/xlink"
   xmlns="http://www.w3.org/2000/svg"
   xmlns:svg="http://www.w3.org/2000/svg"><defs
   id="defs67960" />
<sodipodi:namedview
   bordercolor="#666666"
   borderopacity="1.0"
   fit-margin-bottom="0"
   fit-margin-left="0"
   fit-margin-right="0"
   fit-margin-top="0"
   id="base"
   inkscape:current-layer="svg7595"
   inkscape:cx="2.875"
   inkscape:cy="8.78125"
   inkscape:document-units="mm"
   inkscape:pageopacity="0.0"
   inkscape:pageshadow="2"
   inkscape:window-height="1057"
   inkscape:window-maximized="1"
   inkscape:window-width="1920"
   inkscape:window-x="1592"
   inkscape:window-y="-8"
   inkscape:zoom="16"
   pagecolor="#ffffff"
   showgrid="true"
   units="px"
   inkscape:pagecheckerboard="0"
   showguides="true"
   objecttolerance="1"
   gridtolerance="10"
   guidetolerance="1"
   inkscape:showpageshadow="false">
	<inkscape:grid
   type="xygrid"
   id="grid68042" /><sodipodi:guide
   position="0,18"
   orientation="0,17.999599"
   id="guide68044" /><sodipodi:guide
   position="18,33.000001"
   orientation="18,0"
   id="guide68046" /><sodipodi:guide
   position="17.9996,0"
   orientation="0,-17.999599"
   id="guide68048" /><sodipodi:guide
   position="0,0"
   orientation="-18,0"
   id="guide68050" /></sodipodi:namedview>
<rect
   style="fill:#999999;stroke:#000000;stroke-width:0.372093;stroke-miterlimit:4;stroke-dasharray:none;stroke-opacity:1"
   id="rect109948"
   width="23.627907"
   height="23.627907"
   x="0.1860465"
   y="0.1860465"
   ry="2.9534883" /><g
   id="layer1"
   transform="translate(-46.755712,-67.833036)"
   inkscape:groupmode="layer"
   inkscape:label="Layer 1">
	<g
   id="g67940">
		<defs
   id="defs67935">
			<rect
   id="SVGID_1_"
   x="46.755322"
   y="67.833023"
   width="18"
   height="18" />
		</defs>
		<clipPath
   id="SVGID_2_">
			<use
   xlink:href="#SVGID_1_"
   overflow="visible"
   id="use67937"
   x="0"
   y="0"
   width="100%"
   height="100%" />
		</clipPath>
	</g>
</g>



<g
   aria-label="SQR"
   id="text5685"
   style="font-size:9.33333px;line-height:1.25;font-family:Arial;-inkscape-font-specification:'Arial, Normal';font-variant-ligatures:none;text-align:center;text-anchor:middle"><path
     d="m 2.4798207,13.19401 0.8339841,-0.07292 q 0.059245,0.501302 0.2734374,0.824869 0.2187499,0.319011 0.6744789,0.519532 0.455729,0.195963 1.0253903,0.195963 0.5058592,0 0.8932289,-0.150391 0.3873696,-0.15039 0.5742185,-0.410156 0.1914062,-0.264323 0.1914062,-0.574218 0,-0.314453 -0.1822916,-0.546875 Q 6.5813818,12.742838 6.1621111,12.583333 5.893231,12.478515 4.9726584,12.259765 4.0520858,12.036458 3.6829453,11.840494 3.2044298,11.589843 2.9674507,11.220703 2.7350289,10.847005 2.7350289,10.386719 q 0,-0.5058594 0.2871093,-0.9433592 0.2871093,-0.4420571 0.8385414,-0.6699217 0.5514321,-0.2278645 1.225911,-0.2278645 0.7428383,0 1.3079423,0.2415364 0.5696613,0.2369791 0.8749997,0.7018227 0.3053384,0.4648436 0.3281249,1.0527343 l -0.847656,0.0638 Q 6.6816422,9.9720054 6.2851579,9.6484378 5.893231,9.3248703 5.123049,9.3248703 q -0.8020831,0 -1.1712236,0.2962238 -0.3645832,0.2916666 -0.3645832,0.7063799 0,0.360026 0.2597655,0.592448 0.2552083,0.232422 1.3307287,0.478515 1.0800778,0.241537 1.4811193,0.423828 0.5833332,0.26888 0.8613279,0.683594 0.2779947,0.410156 0.2779947,0.947916 0,0.533203 -0.3053385,1.007161 -0.3053384,0.469401 -0.879557,0.733724 -0.5696612,0.259765 -1.2851558,0.259765 -0.9069007,0 -1.5221349,-0.264322 Q 3.1953152,14.92578 2.8444039,14.397134 2.4980499,13.863931 2.4798207,13.19401 Z"
     id="path13822" /><path
     d="m 14.06901,14.624999 q 0.615234,0.423828 1.134765,0.619791 l -0.259766,0.615234 q -0.720052,-0.259765 -1.435546,-0.820312 -0.742838,0.414713 -1.640625,0.414713 -0.9069,0 -1.645181,-0.437499 Q 9.4843757,14.579426 9.0833341,13.786457 8.6868499,12.993489 8.6868499,12 q 0,-0.988932 0.4010415,-1.80013 0.4010415,-0.8111977 1.1393226,-1.2350257 0.742838,-0.4238279 1.658854,-0.4238279 0.925129,0 1.667968,0.4420571 0.742838,0.4374998 1.130208,1.2304685 0.391927,0.788411 0.391927,1.7819 0,0.82487 -0.250651,1.485677 -0.250651,0.65625 -0.75651,1.14388 z m -1.945963,-1.130208 q 0.765624,0.214192 1.262369,0.63802 0.779297,-0.710937 0.779297,-2.137369 0,-0.811197 -0.277995,-1.417317 Q 13.61328,9.9720054 13.080078,9.6393233 12.551432,9.3020838 11.890625,9.3020838 10.901693,9.3020838 10.25,9.98112 9.5983079,10.655599 9.5983079,12 q 0,1.303385 0.6425781,2.00065 0.647135,0.697265 1.649739,0.697265 0.473958,0 0.893229,-0.177734 -0.414714,-0.26888 -0.875,-0.382812 z"
     id="path13824" /><path
     d="M 16.279295,15.340493 V 8.6595059 h 2.962239 q 0.893229,0 1.358072,0.1822916 0.464844,0.1777343 0.742839,0.6334633 0.277994,0.455729 0.277994,1.0071612 0,0.710937 -0.460286,1.198567 -0.460286,0.48763 -1.421875,0.619792 0.350912,0.168619 0.533203,0.332682 0.38737,0.355469 0.733724,0.888671 l 1.162109,1.818359 H 21.055335 L 20.171221,13.95052 q -0.38737,-0.601563 -0.638021,-0.920573 -0.250651,-0.31901 -0.451171,-0.446614 -0.195964,-0.127604 -0.401042,-0.177735 -0.15039,-0.0319 -0.492187,-0.0319 h -1.02539 v 2.966796 z m 0.884115,-3.73242 h 1.90039 q 0.606119,0 0.947916,-0.123047 0.341797,-0.127604 0.519531,-0.401042 0.177734,-0.277994 0.177734,-0.601562 0,-0.473958 -0.346354,-0.7792967 Q 20.02083,9.3977869 19.277992,9.3977869 H 17.16341 Z"
     id="path13826" /></g></svg>
