<?xml version="1.0" encoding="UTF-8" standalone="no"?>
<svg
   width="75"
   height="380"
   viewBox="0 0 75 380"
   version="1.1"
   id="svg208"
   sodipodi:docname="WinComp.svg"
   inkscape:version="1.1.1 (3bf5ae0d25, 2021-09-20)"
   xmlns:inkscape="http://www.inkscape.org/namespaces/inkscape"
   xmlns:sodipodi="http://sodipodi.sourceforge.net/DTD/sodipodi-0.dtd"
   xmlns="http://www.w3.org/2000/svg"
   xmlns:svg="http://www.w3.org/2000/svg"
   xmlns:rdf="http://www.w3.org/1999/02/22-rdf-syntax-ns#"
   xmlns:cc="http://creativecommons.org/ns#"
   xmlns:dc="http://purl.org/dc/elements/1.1/">
  <rect
     style="fill:#ff0000;stroke-width:2.25131"
     id="rect65859"
     width="74.999054"
     height="380.12619"
     x="3.6973286e-06"
     y="0" />
  <g
     aria-label="WINCOMP"
     transform="scale(1.0339707,0.96714539)"
     id="text3335"
     style="font-weight:bold;font-size:12.4076px;line-height:1.25;font-family:Arial;-inkscape-font-specification:'Arial, Bold';letter-spacing:0px;stroke-width:1.03397;fill:#000000">
    <path
       d="M 8.1508096,17.070698 6.0303701,8.1890854 H 7.8660649 L 9.204971,14.289893 10.828622,8.1890854 h 2.132556 l 1.557009,6.2038006 1.363139,-6.2038006 h 1.805403 l -2.15679,8.8816126 h -1.902337 l -1.769052,-6.640005 -1.762994,6.640005 z"
       id="path33749"
       style="fill:#000000" />
    <path
       d="M 18.547021,17.070698 V 8.1890854 h 1.793286 v 8.8816126 z"
       id="path33751"
       style="fill:#000000" />
    <path
       d="M 22.066951,17.070698 V 8.1890854 h 1.744819 l 3.635039,5.9311726 V 8.1890854 h 1.66606 v 8.8816126 h -1.799344 l -3.580514,-5.791829 v 5.791829 z"
       id="path33753"
       style="fill:#000000" />
    <path
       d="m 36.691925,13.805221 1.738761,0.551314 q -0.399855,1.454016 -1.332848,2.162849 -0.926935,0.702774 -2.356717,0.702774 -1.769053,0 -2.908032,-1.205622 -1.138979,-1.211679 -1.138979,-3.307885 0,-2.217374 1.145038,-3.4411707 1.145037,-1.2298549 3.011024,-1.2298549 1.629709,0 2.64752,0.9632854 0.60584,0.5694895 0.90876,1.6357672 l -1.775111,0.424088 q -0.157518,-0.690657 -0.660365,-1.0905114 -0.496789,-0.3998543 -1.21168,-0.3998543 -0.987519,0 -1.605476,0.7088327 -0.611898,0.708833 -0.611898,2.296133 0,1.684235 0.60584,2.399126 0.60584,0.714891 1.575184,0.714891 0.714891,0 1.229854,-0.45438 0.514964,-0.45438 0.739125,-1.429782 z"
       id="path33755"
       style="fill:#000000" />
    <path
       d="m 39.606016,12.684417 q 0,-1.357081 0.405913,-2.277958 0.30292,-0.6785404 0.823942,-1.2177378 0.527081,-0.5391975 1.151096,-0.7997087 0.83,-0.3513871 1.914454,-0.3513871 1.962921,0 3.13825,1.2177381 1.181388,1.2177385 1.181388,3.3866445 0,2.150732 -1.169271,3.36847 -1.169271,1.21168 -3.126134,1.21168 -1.981096,0 -3.150367,-1.205622 -1.169271,-1.211679 -1.169271,-3.332119 z m 1.847812,-0.06058 q 0,1.508541 0.696716,2.290075 0.696715,0.775475 1.769052,0.775475 1.072337,0 1.756936,-0.769417 0.690657,-0.775475 0.690657,-2.320366 0,-1.526717 -0.672482,-2.277958 -0.666424,-0.7512417 -1.775111,-0.7512417 -1.108687,0 -1.787228,0.7633587 -0.67854,0.757299 -0.67854,2.290074 z"
       id="path33757"
       style="fill:#000000" />
    <path
       d="M 49.596314,17.070698 V 8.1890854 h 2.683871 l 1.611534,6.0583986 1.593359,-6.0583986 h 2.689929 v 8.8816126 h -1.66606 v -6.991392 l -1.762994,6.991392 h -1.726644 l -1.756935,-6.991392 v 6.991392 z"
       id="path33759"
       style="fill:#000000" />
    <path
       d="M 59.956176,17.070698 V 8.1890854 h 2.87774 q 1.635767,0 2.132556,0.1332848 0.763358,0.1999271 1.278322,0.8724094 0.514964,0.6664238 0.514964,1.7266434 0,0.817884 -0.296862,1.375257 -0.296861,0.557372 -0.757299,0.878467 -0.45438,0.315037 -0.926935,0.41803 -0.642191,0.127226 -1.859929,0.127226 h -1.169271 v 3.350295 z m 1.793286,-7.3791298 v 2.5202938 h 0.981461 q 1.06022,0 1.417665,-0.139343 0.357446,-0.139343 0.557373,-0.436205 0.205985,-0.296861 0.205985,-0.690657 0,-0.484672 -0.284744,-0.799709 -0.284745,-0.3150366 -0.72095,-0.3937958 -0.321095,-0.060584 -1.290439,-0.060584 z"
       id="path33761"
       style="fill:#000000" />
  </g>
  <metadata
     id="metadata212">
    <rdf:RDF>
      <cc:Work
         rdf:about="">
        <dc:format>image/svg+xml</dc:format>
        <dc:type
           rdf:resource="http://purl.org/dc/dcmitype/StillImage" />
      </cc:Work>
    </rdf:RDF>
  </metadata>
  <sodipodi:namedview
     pagecolor="#ffffff"
     bordercolor="#666666"
     borderopacity="1"
     objecttolerance="1"
     gridtolerance="4.1"
     guidetolerance="10"
     inkscape:pageopacity="0"
     inkscape:pageshadow="2"
     inkscape:window-width="1600"
     inkscape:window-height="837"
     id="namedview210"
     showgrid="true"
     inkscape:zoom="1.6552632"
     inkscape:cx="13.290938"
     inkscape:cy="159.79332"
     inkscape:window-x="-8"
     inkscape:window-y="-8"
     inkscape:window-maximized="1"
     inkscape:current-layer="svg208"
     inkscape:pagecheckerboard="true"
     showguides="false"
     units="mm"
     showborder="true">
    <inkscape:grid
       type="xygrid"
       id="grid971"
       units="mm"
       spacingx="0.4999937"
       spacingy="0.4999937"
       dotted="false"
       empspacing="5" />
  </sodipodi:namedview>
  <defs
     id="defs9">
    <style
       id="style2">
      .uuid-178fee04-66e3-402f-80f4-0493ef387430 {
        fill: #f0f0f0;
      }

      .uuid-a01b56f5-19ad-4419-9263-e2d8207a4173 {
        fill: blue;
      }

      .uuid-caa11d7b-45dc-472d-a21c-bfb45f09d39f {
        fill: lime;
      }

      .uuid-c66d0e1a-0300-47a3-9fe5-7579d5efc1b8 {
        isolation: isolate;
        opacity: .69;
      }

      .uuid-c66d0e1a-0300-47a3-9fe5-7579d5efc1b8, .uuid-89ffc17d-dc13-46b4-af84-0bc0d5772298, .uuid-f8e02bd3-ee8a-44eb-b2d4-43473dffabb0 {
        fill: none;
      }

      .uuid-e03bfb13-a98f-40ee-8a96-0d89c31eb30e {
        fill: #f0f;
      }

      .uuid-f8e02bd3-ee8a-44eb-b2d4-43473dffabb0 {
        stroke: #1f1f1f;
        stroke-linecap: round;
        stroke-miterlimit: 10;
        stroke-width: .8px;
      }

      .uuid-26fe0ef1-1280-43b0-a2a0-ad72b6a9fcb5 {
        fill: url(#uuid-ceb1f0ca-0ca2-46a9-982b-2ba7e59fdccb);
      }

      .uuid-328bb177-dd26-46ae-8d7a-80e84573d743 {
        fill: #1f1f1f;
      }

      .uuid-c1500944-1ed5-404f-b173-c3791985f437 {
        fill: red;
      }
    </style>
    <linearGradient
       id="uuid-ceb1f0ca-0ca2-46a9-982b-2ba7e59fdccb"
       x1="37.5"
       y1="0"
       x2="37.5"
       y2="380"
       gradientUnits="userSpaceOnUse">
      <stop
         offset="0"
         stop-color="#ebebeb"
         id="stop4" />
      <stop
         offset="1"
         stop-color="#e1e1e1"
         id="stop6" />
    </linearGradient>
    <clipPath
       id="_clipPath_sMzPIcrS2sD3lKhajQrdaiSEc399lqzM">
      <rect
         height="380"
         id="svg_1"
         width="120" />
    </clipPath>
  </defs>
  <g
     id="uuid-ef489e74-cdae-4216-a1a6-bec845a6effa"
     data-name="components"
     style="display:none"
     inkscape:groupmode="layer">
    <circle
       id="uuid-981841a2-ad68-40d8-a495-5fdd5d88aea2"
       data-name="Bknob#RoundLargeBlackKnob"
       cx="37.33955"
       cy="78.999962"
       r="5"
       style="fill:#ff0000" />
    <circle
       id="uuid-b82648ea-8a15-4535-8a3f-52e6648097b9"
       data-name="Clip#TinyLight"
       cx="32.5597"
       cy="278.24713"
       r="1.5"
       style="fill:#ff00ff" />
    <circle
       id="uuid-6bbe5da3-35c6-423e-9344-e1f31f07819e"
       data-name="Lim#TinyLight"
       cx="64.559898"
       cy="278.2471"
       r="1.5"
       style="fill:#ff00ff" />
    <circle
       id="uuid-97c91f19-76d1-4aa4-a1dc-7980909503b1"
       data-name="AhtB#TinyLight"
       cx="32.559719"
       cy="323.01172"
       r="1.5"
       style="fill:#ff00ff" />
    <circle
       id="uuid-ef15dd2c-7557-4d12-b87c-c134361f587b"
       data-name="AltB#TinyLight"
       cx="64.559853"
       cy="323.01172"
       r="1.5"
       style="fill:#ff00ff" />
    <circle
       id="uuid-d2822757-0981-4064-8cdd-2086d71b3762"
       data-name="A#PJ301MPort"
       cx="21.551001"
       cy="154.45821"
       r="5"
       style="fill:#00ff00" />
    <circle
       id="uuid-a43dc027-f33a-4903-b3a3-72985a7298fe"
       data-name="B#PJ301MPort"
       cx="53.551128"
       cy="154.45821"
       r="5"
       style="fill:#00ff00" />
    <circle
       id="uuid-4de03138-9751-4407-88c8-f841967b4948"
       data-name="Max#PJ301MPort"
       cx="21.545441"
       cy="199.39957"
       r="5"
       style="fill:#0000ff" />
    <circle
       id="uuid-5b0b8408-13f8-4d97-ae01-ef7f26cbf4dd"
       data-name="Min#PJ301MPort"
       cx="53.54557"
       cy="199.39957"
       r="5"
       style="fill:#0000ff" />
    <circle
       id="uuid-4a65039c-220c-4c0a-b1b0-ebcb164e5c97"
       data-name="ClipCV#PJ301MPort"
       cx="21.545441"
       cy="244.28706"
       r="5"
       style="fill:#0000ff" />
    <circle
       id="uuid-c76c2ebb-06a4-438b-a398-3304bd12c1dc"
       data-name="LimCV#PJ301MPort"
       cx="53.54557"
       cy="244.28706"
       r="5"
       style="fill:#0000ff" />
    <circle
       id="uuid-81e755ca-eddd-4cc4-bf87-f3eff7a7cf03"
       data-name="ClipGate#PJ301MPort"
       cx="21.545441"
       cy="289.2471"
       r="5"
       style="fill:#0000ff" />
    <circle
       id="uuid-ba08c6c7-32e4-4d52-b9bc-a4caa1a81b8c"
       data-name="LimGate#PJ301MPort"
       cx="53.54557"
       cy="289.2471"
       r="5"
       style="fill:#0000ff" />
    <circle
       id="uuid-30744413-ecf6-4065-ac6f-ee8a7e81f645"
       data-name="AhtB#PJ301MPort"
       cx="21.545441"
       cy="334"
       r="5"
       style="fill:#0000ff" />
    <circle
       id="uuid-dc8780c4-a0f9-4b90-beeb-66035a9048e6"
       data-name="AltB#PJ301MPort"
       cx="53.54557"
       cy="334"
       r="5"
       style="fill:#0000ff" />
  </g>
  <g
     aria-label="Venom"
     id="text8548"
     style="font-weight:bold;font-size:10.6667px;line-height:1.25;-inkscape-font-specification:'sans-serif Bold';letter-spacing:0.4px;fill:#000000">
    <path
       d="m 16.455686,365.07882 h 2.015631 l 2.062507,5.7396 2.057298,-5.7396 h 2.015632 l -2.880218,7.77607 h -2.390632 z"
       id="path68680"
       style="fill:#000000" />
    <path
       d="m 31.194273,369.92259 v 0.53125 h -4.359389 q 0.06771,0.65625 0.47396,0.98438 0.406252,0.32812 1.135421,0.32812 0.588543,0 1.203128,-0.17187 0.619794,-0.17709 1.270838,-0.53125 v 1.4375 q -0.661461,0.25 -1.322921,0.375 -0.661461,0.13021 -1.322921,0.13021 -1.583338,0 -2.463549,-0.80208 -0.875003,-0.8073 -0.875003,-2.26043 0,-1.42709 0.859378,-2.2448 0.864586,-0.81771 2.375007,-0.81771 1.375004,0 2.197924,0.82813 0.828127,0.82813 0.828127,2.21355 z m -1.916672,-0.6198 q 0,-0.53125 -0.312501,-0.85417 -0.307293,-0.32812 -0.807295,-0.32812 -0.541668,0 -0.880211,0.30729 -0.338543,0.30209 -0.421876,0.875 z"
       id="path68682"
       style="fill:#000000" />
    <path
       d="m 38.870338,369.30279 v 3.5521 h -1.875006 v -0.57813 -2.14063 q 0,-0.75521 -0.03646,-1.04167 -0.03125,-0.28646 -0.114584,-0.42188 -0.109375,-0.18229 -0.296875,-0.28125 -0.187501,-0.10416 -0.427085,-0.10416 -0.583335,0 -0.91667,0.45312 -0.333334,0.44792 -0.333334,1.2448 v 2.8698 h -1.864589 v -5.83335 h 1.864589 v 0.85417 q 0.421876,-0.51042 0.895836,-0.75001 0.47396,-0.24479 1.046878,-0.24479 1.01042,0 1.531255,0.6198 0.526044,0.61979 0.526044,1.80208 z"
       id="path68684"
       style="fill:#000000" />
    <path
       d="m 43.775561,368.21425 q -0.619794,0 -0.94792,0.44792 -0.322918,0.44271 -0.322918,1.28125 0,0.83855 0.322918,1.28646 0.328126,0.44271 0.94792,0.44271 0.609376,0 0.932294,-0.44271 0.322918,-0.44791 0.322918,-1.28646 0,-0.83854 -0.322918,-1.28125 -0.322918,-0.44792 -0.932294,-0.44792 z m 0,-1.33334 q 1.505213,0 2.348965,0.8125 0.848961,0.81251 0.848961,2.25001 0,1.43751 -0.848961,2.25001 -0.843752,0.8125 -2.348965,0.8125 -1.510422,0 -2.364591,-0.8125 -0.848961,-0.8125 -0.848961,-2.25001 0,-1.4375 0.848961,-2.25001 0.854169,-0.8125 2.364591,-0.8125 z"
       id="path68686"
       style="fill:#000000" />
    <path
       d="m 54.133925,367.99029 q 0.354167,-0.54167 0.838544,-0.82292 0.489585,-0.28646 1.07292,-0.28646 1.005212,0 1.531255,0.6198 0.526043,0.61979 0.526043,1.80208 v 3.5521 h -1.875006 v -3.04168 q 0.0052,-0.0677 0.0052,-0.14062 0.0052,-0.0729 0.0052,-0.20834 0,-0.61979 -0.182292,-0.89583 -0.182292,-0.28125 -0.588544,-0.28125 -0.531251,0 -0.822919,0.4375 -0.286459,0.4375 -0.296876,1.26563 v 2.86459 h -1.875006 v -3.04168 q 0,-0.96875 -0.166667,-1.24479 -0.166667,-0.28125 -0.593752,-0.28125 -0.53646,0 -0.828128,0.44271 -0.291667,0.4375 -0.291667,1.25521 v 2.8698 h -1.875006 v -5.83335 h 1.875006 v 0.85417 q 0.343751,-0.4948 0.786461,-0.7448 0.447918,-0.25 0.984378,-0.25 0.604168,0 1.067711,0.29167 0.463544,0.29167 0.703128,0.81771 z"
       id="path68688"
       style="fill:#000000" />
  </g>
  <rect
     style="fill:#000000;fill-opacity:1;stroke-width:1.03772"
     id="rect67956"
     width="64.678734"
     height="212.71632"
     x="5.0624385"
     y="147.27914"
     ry="4.2289348" />
  <g
     aria-label="A=B"
     id="text167659"
     style="font-weight:bold;font-size:8px;line-height:1.25;font-family:Arial;-inkscape-font-specification:'Arial, Bold';fill:#f2f2f2">
    <path
       d="m 19.386604,242.46706 h -1.257812 l -0.5,-1.30078 h -2.289063 l -0.472656,1.30078 h -1.226562 l 2.230468,-5.72657 h 1.222657 z m -2.128906,-2.26563 -0.789062,-2.125 -0.773438,2.125 z"
       id="path298021" />
    <path
       d="m 19.749886,239.27956 v -1.00782 h 4.003906 v 1.00782 z m 0,1.73437 v -1.01172 h 4.003906 v 1.01172 z"
       id="path298023" />
    <path
       d="m 24.675667,236.74049 h 2.289062 q 0.679688,0 1.011719,0.0586 0.335938,0.0547 0.597656,0.23437 0.265625,0.17969 0.441407,0.48047 0.175781,0.29688 0.175781,0.66797 0,0.40234 -0.21875,0.73828 -0.214844,0.33594 -0.585938,0.50391 0.523438,0.15234 0.804688,0.51953 0.28125,0.36719 0.28125,0.86328 0,0.39063 -0.183594,0.76172 -0.179687,0.36719 -0.496094,0.58984 -0.3125,0.21875 -0.773437,0.26953 -0.289063,0.0312 -1.394531,0.0391 h -1.949219 z m 1.15625,0.95313 v 1.32422 h 0.757812 q 0.675782,0 0.839844,-0.0195 0.296875,-0.0352 0.464844,-0.20313 0.171875,-0.17187 0.171875,-0.44922 0,-0.26562 -0.148438,-0.42968 -0.144531,-0.16797 -0.433593,-0.20313 -0.171875,-0.0195 -0.988282,-0.0195 z m 0,2.27734 v 1.53125 h 1.070312 q 0.625,0 0.792969,-0.0351 0.257813,-0.0469 0.417969,-0.22657 0.164062,-0.18359 0.164062,-0.48828 0,-0.25781 -0.125,-0.4375 -0.125,-0.17968 -0.363281,-0.26172 -0.234375,-0.082 -1.023437,-0.082 z"
       id="path298025" />
  </g>
  <g
     aria-label="A&lt;&gt;B"
     id="text187549"
     style="font-weight:bold;font-size:8px;line-height:1.25;font-family:Arial;-inkscape-font-specification:'Arial Bold';fill:#f2f2f2">
    <path
       d="m 49.092678,242.41351 h -1.257812 l -0.5,-1.30078 h -2.289063 l -0.472656,1.30078 h -1.226563 l 2.230469,-5.72656 h 1.222656 z m -2.128906,-2.26562 -0.789063,-2.125 -0.773437,2.125 z"
       id="path298028" />
    <path
       d="m 53.420803,241.76117 -3.925781,-1.70703 v -0.94531 l 3.925781,-1.69922 v 1.11328 l -2.738281,1.04687 2.738281,1.08594 z"
       id="path298030" />
    <path
       d="m 54.166897,241.76508 v -1.10547 l 2.742187,-1.07813 -2.742187,-1.0664 v -1.09766 l 3.929687,1.69922 v 0.9375 z"
       id="path298032" />
    <path
       d="m 59.053616,236.68695 h 2.289062 q 0.679688,0 1.011719,0.0586 0.335937,0.0547 0.597656,0.23438 0.265625,0.17969 0.441406,0.48047 0.175782,0.29687 0.175782,0.66797 0,0.40234 -0.21875,0.73828 -0.214844,0.33594 -0.585938,0.5039 0.523438,0.15235 0.804688,0.51954 0.28125,0.36718 0.28125,0.86328 0,0.39062 -0.183594,0.76172 -0.179688,0.36718 -0.496094,0.58984 -0.3125,0.21875 -0.773437,0.26953 -0.289063,0.0312 -1.394532,0.0391 h -1.949218 z m 1.15625,0.95313 v 1.32421 h 0.757812 q 0.675781,0 0.839844,-0.0195 0.296875,-0.0352 0.464844,-0.20312 0.171875,-0.17188 0.171875,-0.44922 0,-0.26563 -0.148438,-0.42969 -0.144531,-0.16797 -0.433594,-0.20312 -0.171875,-0.0195 -0.988281,-0.0195 z m 0,2.27734 v 1.53125 h 1.070312 q 0.625,0 0.792969,-0.0352 0.257812,-0.0469 0.417969,-0.22656 0.164062,-0.18359 0.164062,-0.48828 0,-0.25781 -0.125,-0.4375 -0.125,-0.17969 -0.363281,-0.26172 -0.234375,-0.082 -1.023438,-0.082 z"
       id="path298034" />
  </g>
  <g
     aria-label="A&lt;=B"
     id="text197461"
     style="font-weight:bold;font-size:8px;line-height:1.25;font-family:Arial;-inkscape-font-specification:'Arial, Bold';fill:#f2f2f2">
    <path
       d="m 16.393947,284.98846 h -1.257813 l -0.5,-1.30078 h -2.289062 l -0.472657,1.30078 h -1.226562 l 2.230469,-5.72656 h 1.222656 z m -2.128907,-2.26562 -0.789062,-2.125 -0.773438,2.125 z"
       id="path298037" />
    <path
       d="m 20.722072,284.33612 -3.925782,-1.70703 v -0.94531 l 3.925782,-1.69922 v 1.11328 l -2.738282,1.04687 2.738282,1.08594 z"
       id="path298039" />
    <path
       d="m 21.429103,281.80096 v -1.00781 h 4.003906 v 1.00781 z m 0,1.73438 v -1.01172 h 4.003906 v 1.01172 z"
       id="path298041" />
    <path
       d="m 26.354884,279.2619 h 2.289063 q 0.679687,0 1.011718,0.0586 0.335938,0.0547 0.597657,0.23437 0.265625,0.17969 0.441406,0.48047 0.175781,0.29687 0.175781,0.66797 0,0.40234 -0.21875,0.73828 -0.214844,0.33594 -0.585937,0.50391 0.523437,0.15234 0.804687,0.51953 0.28125,0.36718 0.28125,0.86328 0,0.39062 -0.183594,0.76172 -0.179687,0.36718 -0.496093,0.58984 -0.3125,0.21875 -0.773438,0.26953 -0.289062,0.0312 -1.394531,0.0391 h -1.949219 z m 1.15625,0.95313 v 1.32422 h 0.757813 q 0.675781,0 0.839843,-0.0195 0.296875,-0.0351 0.464844,-0.20312 0.171875,-0.17188 0.171875,-0.44922 0,-0.26562 -0.148437,-0.42969 -0.144532,-0.16797 -0.433594,-0.20312 -0.171875,-0.0195 -0.988281,-0.0195 z m 0,2.27734 v 1.53125 h 1.070313 q 0.625,0 0.792968,-0.0352 0.257813,-0.0469 0.417969,-0.22656 0.164063,-0.18359 0.164063,-0.48828 0,-0.25781 -0.125,-0.4375 -0.125,-0.17969 -0.363282,-0.26172 -0.234375,-0.082 -1.023437,-0.082 z"
       id="path298043" />
  </g>
  <text
     xml:space="preserve"
     style="font-size:8px;line-height:1.25;font-family:Arial;-inkscape-font-specification:'Arial, Normal';font-weight:normal;font-style:normal;font-stretch:normal;font-variant:normal;font-variant-ligatures:normal;font-variant-caps:normal;font-variant-numeric:normal;font-variant-east-asian:normal"
     x="43.271065"
     y="274.35214"
     id="text226237"><tspan
       sodipodi:role="line"
       id="tspan228439" /></text>
  <g
     aria-label="A&gt;=B"
     id="text233539"
     style="font-size:8px;line-height:1.25;font-family:Elephant;-inkscape-font-specification:Elephant;fill:#f2f2f2">
    <path
       d="m 49.394741,284.92447 h -1.257812 l -0.5,-1.30078 h -2.289063 l -0.472656,1.30078 h -1.226563 l 2.230469,-5.72656 h 1.222656 z m -2.128906,-2.26563 -0.789063,-2.125 -0.773437,2.125 z"
       style="font-weight:bold;font-family:Arial;-inkscape-font-specification:'Arial, Bold'"
       id="path298046" />
    <path
       d="m 49.797085,284.27603 v -1.10547 l 2.742187,-1.07812 -2.742187,-1.06641 v -1.09765 l 3.929687,1.69921 v 0.9375 z"
       style="font-weight:bold;font-family:Arial;-inkscape-font-specification:'Arial, Bold'"
       id="path298048" />
    <path
       d="m 54.429897,281.73697 v -1.00781 h 4.003907 v 1.00781 z m 0,1.73437 v -1.01171 h 4.003907 v 1.01171 z"
       style="font-weight:bold;font-family:Arial;-inkscape-font-specification:'Arial, Bold'"
       id="path298050" />
    <path
       d="m 59.355679,279.19791 h 2.289062 q 0.679688,0 1.011719,0.0586 0.335937,0.0547 0.597656,0.23438 0.265625,0.17968 0.441406,0.48046 0.175782,0.29688 0.175782,0.66797 0,0.40235 -0.21875,0.73828 -0.214844,0.33594 -0.585938,0.50391 0.523438,0.15234 0.804688,0.51953 0.28125,0.36719 0.28125,0.86328 0,0.39063 -0.183594,0.76172 -0.179688,0.36719 -0.496094,0.58985 -0.3125,0.21875 -0.773437,0.26953 -0.289063,0.0312 -1.394532,0.0391 h -1.949218 z m 1.15625,0.95312 v 1.32422 h 0.757812 q 0.675781,0 0.839844,-0.0195 0.296875,-0.0352 0.464844,-0.20313 0.171875,-0.17187 0.171875,-0.44921 0,-0.26563 -0.148438,-0.42969 -0.144531,-0.16797 -0.433594,-0.20313 -0.171875,-0.0195 -0.988281,-0.0195 z m 0,2.27735 v 1.53125 h 1.070312 q 0.625,0 0.792969,-0.0352 0.257812,-0.0469 0.417969,-0.22656 0.164062,-0.1836 0.164062,-0.48828 0,-0.25782 -0.125,-0.4375 -0.125,-0.17969 -0.363281,-0.26172 -0.234375,-0.082 -1.023438,-0.082 z"
       style="font-weight:bold;font-family:Arial;-inkscape-font-specification:'Arial, Bold'"
       id="path298052" />
  </g>
  <g
     aria-label="A&lt;B"
     id="text243221"
     style="font-weight:bold;font-size:8px;line-height:1.25;font-family:Arial;-inkscape-font-specification:'Arial, Bold';fill:#f2f2f2">
    <path
       d="m 19.263581,327.41245 h -1.257812 l -0.5,-1.30079 h -2.289063 l -0.472656,1.30079 h -1.226562 l 2.230468,-5.72657 h 1.222657 z m -2.128906,-2.26563 -0.789062,-2.125 -0.773438,2.125 z"
       id="path298055" />
    <path
       d="m 23.591706,326.7601 -3.925781,-1.70703 v -0.94531 l 3.925781,-1.69922 v 1.11328 l -2.738281,1.04688 2.738281,1.08593 z"
       id="path298057" />
    <path
       d="m 24.552644,321.68588 h 2.289062 q 0.679688,0 1.011719,0.0586 0.335938,0.0547 0.597656,0.23437 0.265625,0.17969 0.441407,0.48047 0.175781,0.29688 0.175781,0.66797 0,0.40234 -0.21875,0.73828 -0.214844,0.33594 -0.585938,0.50391 0.523438,0.15234 0.804688,0.51953 0.28125,0.36719 0.28125,0.86328 0,0.39062 -0.183594,0.76172 -0.179687,0.36719 -0.496094,0.58984 -0.3125,0.21875 -0.773437,0.26953 -0.289063,0.0312 -1.394531,0.0391 h -1.949219 z m 1.15625,0.95313 v 1.32422 h 0.757812 q 0.675782,0 0.839844,-0.0195 0.296875,-0.0352 0.464844,-0.20313 0.171875,-0.17187 0.171875,-0.44922 0,-0.26562 -0.148438,-0.42969 -0.144531,-0.16796 -0.433593,-0.20312 -0.171875,-0.0195 -0.988282,-0.0195 z m 0,2.27734 v 1.53125 h 1.070312 q 0.625,0 0.792969,-0.0352 0.257813,-0.0469 0.417969,-0.22657 0.164062,-0.18359 0.164062,-0.48828 0,-0.25781 -0.125,-0.4375 -0.125,-0.17969 -0.363281,-0.26172 -0.234375,-0.082 -1.023437,-0.082 z"
       id="path298059" />
  </g>
  <g
     aria-label="OVER"
     id="text254861"
     style="font-weight:bold;font-size:8px;line-height:1.25;font-family:Arial;-inkscape-font-specification:'Arial, Bold';fill:#f2f2f2">
    <path
       d="m 42.711922,197.06456 q 0,-0.875 0.261718,-1.46875 0.195313,-0.4375 0.53125,-0.78516 0.339844,-0.34765 0.742188,-0.51562 0.535156,-0.22656 1.234375,-0.22656 1.265625,0 2.023437,0.78515 0.761719,0.78516 0.761719,2.1836 0,1.38671 -0.753906,2.17187 -0.753906,0.78125 -2.015625,0.78125 -1.277344,0 -2.03125,-0.77734 -0.753906,-0.78125 -0.753906,-2.14844 z m 1.191406,-0.0391 q 0,0.97265 0.449219,1.47656 0.449218,0.5 1.140625,0.5 0.691406,0 1.132812,-0.49609 0.445313,-0.5 0.445313,-1.4961 0,-0.98437 -0.433594,-1.46875 -0.429688,-0.48437 -1.144531,-0.48437 -0.714844,0 -1.152344,0.49218 -0.4375,0.48829 -0.4375,1.47657 z"
       id="path298012" />
    <path
       d="m 50.62989,199.89268 -2.046875,-5.72656 h 1.253907 l 1.449218,4.23828 1.402344,-4.23828 h 1.226563 l -2.050782,5.72656 z"
       id="path298014" />
    <path
       d="m 54.50489,199.89268 v -5.72656 h 4.246094 v 0.96875 H 55.66114 v 1.26953 h 2.875 v 0.96485 h -2.875 v 1.55859 h 3.199219 v 0.96484 z"
       id="path298016" />
    <path
       d="m 59.844734,199.89268 v -5.72656 h 2.433594 q 0.917969,0 1.332031,0.15625 0.417969,0.15235 0.667969,0.54688 0.25,0.39453 0.25,0.90234 0,0.64453 -0.378906,1.06641 -0.378907,0.41797 -1.132813,0.52734 0.375,0.21875 0.617188,0.48047 0.246093,0.26172 0.660156,0.92969 l 0.699219,1.11718 h -1.382813 l -0.835937,-1.24609 q -0.445313,-0.66797 -0.609375,-0.83984 -0.164063,-0.17578 -0.347657,-0.23828 -0.183593,-0.0664 -0.582031,-0.0664 h -0.234375 v 2.39062 z m 1.15625,-3.30468 h 0.855469 q 0.832031,0 1.039062,-0.0703 0.207032,-0.0703 0.324219,-0.24218 0.117188,-0.17188 0.117188,-0.42969 0,-0.28906 -0.15625,-0.46484 -0.152344,-0.17969 -0.433594,-0.22657 -0.140625,-0.0195 -0.84375,-0.0195 h -0.902344 z"
       id="path298018" />
  </g>
  <g
     aria-label="MIN"
     id="text258363"
     style="font-weight:bold;font-size:8px;line-height:1.25;font-family:Arial;-inkscape-font-specification:'Arial, Bold';fill:#f2f2f2"
     transform="translate(-0.733858,-0.0298045)">
    <path
       d="m 15.745262,157.52782 v -5.72657 h 1.730469 l 1.039062,3.90625 1.027344,-3.90625 h 1.734375 v 5.72657 H 20.202293 V 153.02 l -1.136718,4.50782 H 17.952293 L 16.819481,153.02 v 4.50782 z"
       id="path297987" />
    <path
       d="m 22.389793,157.52782 v -5.72657 h 1.15625 v 5.72657 z"
       id="path297989" />
    <path
       d="m 24.659325,157.52782 v -5.72657 h 1.125 l 2.34375,3.82422 v -3.82422 h 1.074218 v 5.72657 h -1.160156 l -2.308594,-3.73438 v 3.73438 z"
       id="path297991" />
  </g>
  <g
     aria-label="TOL"
     id="text267575"
     style="font-weight:bold;font-size:8px;line-height:1.25;font-family:Arial;-inkscape-font-specification:'Arial, Bold'"
     transform="translate(-0.47864,0.062151)">
    <path
       d="m 16.068232,114.9364 v -4.75781 h -1.699219 v -0.96875 h 4.550781 v 0.96875 h -1.695312 v 4.75781 z"
       id="path298134" />
    <path
       d="m 19.286982,112.10828 q 0,-0.875 0.261718,-1.46875 0.195313,-0.4375 0.53125,-0.78516 0.339844,-0.34766 0.742188,-0.51562 0.535156,-0.22657 1.234375,-0.22657 1.265625,0 2.023437,0.78516 0.761719,0.78516 0.761719,2.18359 0,1.38672 -0.753906,2.17188 -0.753906,0.78125 -2.015625,0.78125 -1.277344,0 -2.03125,-0.77735 -0.753906,-0.78125 -0.753906,-2.14843 z m 1.191406,-0.0391 q 0,0.97266 0.449219,1.47657 0.449218,0.5 1.140625,0.5 0.691406,0 1.132812,-0.4961 0.445313,-0.5 0.445313,-1.49609 0,-0.98438 -0.433594,-1.46875 -0.429688,-0.48438 -1.144531,-0.48438 -0.714844,0 -1.152344,0.49219 -0.4375,0.48828 -0.4375,1.47656 z"
       id="path298136" />
    <path
       d="m 25.775263,114.9364 v -5.67969 h 1.15625 v 4.71485 h 2.875 v 0.96484 z"
       id="path298138" />
  </g>
  <g
     aria-label="B"
     id="text279033"
     style="font-weight:bold;font-size:8px;line-height:1.25;font-family:Arial;-inkscape-font-specification:'Arial, Bold'"
     transform="translate(-0.8306836,0.0071045)">
    <path
       d="m 20.295794,69.261513 h 2.289062 q 0.679688,0 1.011719,0.05859 0.335937,0.05469 0.597656,0.234375 0.265625,0.179687 0.441406,0.480468 0.175782,0.296875 0.175782,0.667969 0,0.402344 -0.21875,0.738281 -0.214844,0.335938 -0.585938,0.503907 0.523438,0.152343 0.804688,0.519531 0.28125,0.367187 0.28125,0.863281 0,0.390625 -0.183594,0.761719 -0.179688,0.367187 -0.496094,0.589844 -0.3125,0.21875 -0.773437,0.269531 -0.289063,0.03125 -1.394532,0.03906 h -1.949218 z m 1.15625,0.953125 v 1.324219 h 0.757812 q 0.675781,0 0.839844,-0.01953 0.296875,-0.03516 0.464844,-0.203125 0.171875,-0.171875 0.171875,-0.449218 0,-0.265625 -0.148438,-0.429688 -0.144531,-0.167969 -0.433594,-0.203125 -0.171875,-0.01953 -0.988281,-0.01953 z m 0,2.277344 v 1.53125 h 1.070312 q 0.625,0 0.792969,-0.03516 0.257812,-0.04687 0.417969,-0.226562 0.164062,-0.183594 0.164062,-0.488281 0,-0.257813 -0.125,-0.4375 -0.125,-0.179688 -0.363281,-0.261719 -0.234375,-0.08203 -1.023438,-0.08203 z"
       id="path298118" />
  </g>
  <g
     aria-label="A"
     id="text285625"
     style="font-weight:bold;font-size:8px;line-height:1.25;font-family:Arial;-inkscape-font-specification:'Arial, Bold'"
     transform="translate(-0.6762935,-0.131413)">
    <path
       d="m 25.304916,32.39666 h -1.257812 l -0.5,-1.300781 h -2.289063 l -0.472656,1.300781 h -1.226562 l 2.230468,-5.726563 h 1.222657 z m -2.128906,-2.265625 -0.789062,-2.125 -0.773438,2.125 z"
       id="path298115" />
  </g>
  <g
     aria-label="A&gt;B"
     id="text246555"
     style="font-weight:bold;font-size:8px;line-height:1.25;font-family:Arial;-inkscape-font-specification:'Arial, Bold';fill:#f2f2f2">
    <path
       d="m 52.415409,327.48004 h -1.257812 l -0.5,-1.30078 h -2.289063 l -0.472656,1.30078 h -1.226563 l 2.230469,-5.72656 h 1.222656 z m -2.128906,-2.26562 -0.789063,-2.125 -0.773437,2.125 z"
       id="path298062" />
    <path
       d="m 52.817753,326.8316 v -1.10546 l 2.742187,-1.07813 -2.742187,-1.06641 v -1.09765 l 3.929687,1.69922 v 0.9375 z"
       id="path298064" />
    <path
       d="m 57.704472,321.75348 h 2.289062 q 0.679688,0 1.011719,0.0586 0.335937,0.0547 0.597656,0.23438 0.265625,0.17969 0.441406,0.48047 0.175782,0.29687 0.175782,0.66797 0,0.40234 -0.21875,0.73828 -0.214844,0.33593 -0.585938,0.5039 0.523438,0.15235 0.804688,0.51953 0.28125,0.36719 0.28125,0.86329 0,0.39062 -0.183594,0.76171 -0.179688,0.36719 -0.496094,0.58985 -0.3125,0.21875 -0.773437,0.26953 -0.289063,0.0312 -1.394532,0.0391 h -1.949218 z m 1.15625,0.95312 v 1.32422 h 0.757812 q 0.675781,0 0.839844,-0.0195 0.296875,-0.0351 0.464844,-0.20312 0.171875,-0.17188 0.171875,-0.44922 0,-0.26563 -0.148438,-0.42969 -0.144531,-0.16797 -0.433594,-0.20312 -0.171875,-0.0195 -0.988281,-0.0195 z m 0,2.27735 v 1.53125 h 1.070312 q 0.625,0 0.792969,-0.0352 0.257812,-0.0469 0.417969,-0.22656 0.164062,-0.18359 0.164062,-0.48828 0,-0.25781 -0.125,-0.4375 -0.125,-0.17969 -0.363281,-0.26172 -0.234375,-0.082 -1.023438,-0.082 z"
       id="path298066" />
  </g>
  <g
     aria-label="CLAMP"
     id="text249751"
     style="font-weight:bold;font-size:8px;line-height:1.25;font-family:Arial;-inkscape-font-specification:'Arial, Bold';fill:#f2f2f2">
    <path
       d="m 11.495696,197.86273 1.121093,0.35547 q -0.257812,0.9375 -0.859375,1.39453 -0.597656,0.45313 -1.519531,0.45313 -1.1406249,0 -1.8749999,-0.77735 -0.734375,-0.78125 -0.734375,-2.13281 0,-1.42969 0.7382812,-2.21875 0.7382813,-0.79297 1.9414067,-0.79297 1.050781,0 1.707031,0.6211 0.390625,0.36718 0.585937,1.05468 l -1.144531,0.27344 q -0.101562,-0.44531 -0.425781,-0.70312 -0.320313,-0.25782 -0.78125,-0.25782 -0.6367189,0 -1.0351564,0.45703 -0.3945313,0.45704 -0.3945313,1.48047 0,1.08594 0.390625,1.54688 0.390625,0.46094 1.0156247,0.46094 0.460938,0 0.792969,-0.29297 0.332031,-0.29297 0.476563,-0.92188 z"
       id="path298001" />
    <path
       d="m 13.640227,199.9682 v -5.67969 h 1.15625 v 4.71485 h 2.875 v 0.96484 z"
       id="path298003" />
    <path
       d="m 23.659758,199.9682 h -1.257812 l -0.5,-1.30078 h -2.289063 l -0.472656,1.30078 h -1.226563 l 2.230469,-5.72656 h 1.222656 z m -2.128906,-2.26562 -0.789063,-2.125 -0.773437,2.125 z"
       id="path298005" />
    <path
       d="m 24.257414,199.9682 v -5.72656 h 1.730469 l 1.039063,3.90625 1.027343,-3.90625 h 1.734375 v 5.72656 h -1.074218 v -4.50781 l -1.136719,4.50781 h -1.113281 l -1.132813,-4.50781 v 4.50781 z"
       id="path298007" />
    <path
       d="m 30.937102,199.9682 v -5.72656 h 1.855469 q 1.054687,0 1.375,0.0859 0.492187,0.1289 0.824218,0.5625 0.332032,0.42968 0.332032,1.11328 0,0.52734 -0.191407,0.88672 -0.191406,0.35937 -0.488281,0.5664 -0.292969,0.20313 -0.597656,0.26953 -0.414063,0.082 -1.199219,0.082 h -0.753906 v 2.16016 z m 1.15625,-4.75781 v 1.625 h 0.632812 q 0.683594,0 0.914063,-0.0898 0.230469,-0.0898 0.359375,-0.28125 0.132812,-0.1914 0.132812,-0.44531 0,-0.3125 -0.183593,-0.51562 -0.183594,-0.20313 -0.464844,-0.25391 -0.207031,-0.0391 -0.832031,-0.0391 z"
       id="path298009" />
  </g>
  <g
     aria-label="MAX"
     id="text262579"
     style="font-weight:bold;font-size:8px;line-height:1.25;font-family:Arial;-inkscape-font-specification:'Arial, Bold';fill:#f2f2f2">
    <path
       d="m 45.490322,157.60333 v -5.72656 h 1.730469 l 1.039062,3.90625 1.027344,-3.90625 h 1.734375 v 5.72656 h -1.074219 v -4.50781 l -1.136718,4.50781 h -1.113282 l -1.132812,-4.50781 v 4.50781 z"
       id="path297994" />
    <path
       d="M 57.334072,157.60333 H 56.07626 l -0.5,-1.30078 h -2.289063 l -0.472656,1.30078 h -1.226563 l 2.230469,-5.72656 h 1.222656 z m -2.128906,-2.26562 -0.789063,-2.125 -0.773437,2.125 z"
       id="path297996" />
    <path
       d="m 57.365322,157.60333 1.957031,-2.98828 -1.773437,-2.73828 h 1.351562 l 1.148438,1.83984 1.125,-1.83984 h 1.339844 l -1.78125,2.78125 1.957031,2.94531 H 61.29501 l -1.269532,-1.98047 -1.273437,1.98047 z"
       id="path297998" />
  </g>
  <g
     aria-label="OFFSET"
     id="text272331"
     style="font-weight:bold;font-size:8px;line-height:1.25;font-family:Arial;-inkscape-font-specification:'Arial, Bold'">
    <path
       d="m 38.257034,112.10828 q 0,-0.875 0.261719,-1.46875 0.195313,-0.4375 0.53125,-0.78516 0.339844,-0.34766 0.742188,-0.51562 0.535156,-0.22657 1.234375,-0.22657 1.265625,0 2.023437,0.78516 0.761719,0.78516 0.761719,2.18359 0,1.38672 -0.753906,2.17188 -0.753907,0.78125 -2.015625,0.78125 -1.277344,0 -2.03125,-0.77735 -0.753907,-0.78125 -0.753907,-2.14843 z m 1.191407,-0.0391 q 0,0.97266 0.449218,1.47657 0.449219,0.5 1.140625,0.5 0.691407,0 1.132813,-0.4961 0.445312,-0.5 0.445312,-1.49609 0,-0.98438 -0.433593,-1.46875 -0.429688,-0.48438 -1.144532,-0.48438 -0.714843,0 -1.152343,0.49219 -0.4375,0.48828 -0.4375,1.47656 z"
       id="path298141" />
    <path
       d="m 44.721878,114.9364 v -5.72656 h 3.925781 v 0.96875 h -2.769531 v 1.35547 h 2.390625 v 0.96875 h -2.390625 v 2.43359 z"
       id="path298143" />
    <path
       d="m 49.608597,114.9364 v -5.72656 h 3.925781 v 0.96875 h -2.769531 v 1.35547 h 2.390625 v 0.96875 h -2.390625 v 2.43359 z"
       id="path298145" />
    <path
       d="m 54.194534,113.07312 1.125,-0.10937 q 0.101563,0.5664 0.410157,0.83203 0.3125,0.26562 0.839843,0.26562 0.558594,0 0.839844,-0.23437 0.285156,-0.23828 0.285156,-0.55469 0,-0.20313 -0.121093,-0.34375 -0.117188,-0.14453 -0.414063,-0.25 -0.203125,-0.0703 -0.925781,-0.25 -0.929688,-0.23047 -1.304688,-0.56641 -0.527343,-0.47265 -0.527343,-1.15234 0,-0.4375 0.246093,-0.81641 0.25,-0.38281 0.714844,-0.58203 0.46875,-0.19922 1.128906,-0.19922 1.078125,0 1.621094,0.47266 0.546875,0.47266 0.574219,1.26172 l -1.15625,0.0508 q -0.07422,-0.44141 -0.320313,-0.63281 -0.242187,-0.19532 -0.730468,-0.19532 -0.503907,0 -0.789063,0.20704 -0.183594,0.13281 -0.183594,0.35546 0,0.20313 0.171875,0.34766 0.21875,0.18359 1.0625,0.38281 0.84375,0.19922 1.246094,0.41407 0.40625,0.21093 0.632813,0.58203 0.230468,0.36718 0.230468,0.91015 0,0.49219 -0.273437,0.92188 -0.273438,0.42969 -0.773438,0.64062 -0.5,0.20703 -1.246093,0.20703 -1.085938,0 -1.667969,-0.5 -0.582031,-0.5039 -0.695313,-1.46484 z"
       id="path298147" />
    <path
       d="m 59.823441,114.9364 v -5.72656 h 4.246093 v 0.96875 h -3.089843 v 1.26953 h 2.875 v 0.96484 h -2.875 v 1.5586 h 3.199218 v 0.96484 z"
       id="path298149" />
    <path
       d="m 66.448441,114.9364 v -4.75781 h -1.699219 v -0.96875 h 4.550781 v 0.96875 h -1.695312 v 4.75781 z"
       id="path298151" />
  </g>
  <g
     aria-label="OFFSET"
     id="text282487"
     style="font-weight:bold;font-size:8px;line-height:1.25;font-family:Arial;-inkscape-font-specification:'Arial, Bold'">
    <path
       d="m 38.181519,72.008919 q 0,-0.875 0.261718,-1.46875 0.195313,-0.4375 0.53125,-0.785156 0.339844,-0.347657 0.742188,-0.515625 0.535156,-0.226563 1.234375,-0.226563 1.265625,0 2.023437,0.785156 0.761719,0.785157 0.761719,2.183594 0,1.386719 -0.753906,2.171875 -0.753906,0.78125 -2.015625,0.78125 -1.277344,0 -2.03125,-0.777344 -0.753906,-0.78125 -0.753906,-2.148437 z m 1.191406,-0.03906 q 0,0.972657 0.449219,1.476563 0.449218,0.5 1.140625,0.5 0.691406,0 1.132812,-0.496094 0.445313,-0.5 0.445313,-1.496094 0,-0.984375 -0.433594,-1.46875 -0.429688,-0.484375 -1.144531,-0.484375 -0.714844,0 -1.152344,0.492188 -0.4375,0.488281 -0.4375,1.476562 z"
       id="path298121" />
    <path
       d="m 44.646362,74.837044 v -5.726563 h 3.925782 v 0.96875 H 45.802612 V 71.4347 h 2.390625 v 0.96875 h -2.390625 v 2.433594 z"
       id="path298123" />
    <path
       d="m 49.533081,74.837044 v -5.726563 h 3.925781 v 0.96875 H 50.689331 V 71.4347 h 2.390625 v 0.96875 h -2.390625 v 2.433594 z"
       id="path298125" />
    <path
       d="m 54.119019,72.973763 1.125,-0.109375 q 0.101562,0.566406 0.410156,0.832031 0.3125,0.265625 0.839844,0.265625 0.558593,0 0.839843,-0.234375 0.285157,-0.238281 0.285157,-0.554688 0,-0.203125 -0.121094,-0.34375 -0.117188,-0.144531 -0.414063,-0.25 -0.203125,-0.07031 -0.925781,-0.25 -0.929687,-0.230468 -1.304687,-0.566406 -0.527344,-0.472656 -0.527344,-1.152344 0,-0.4375 0.246094,-0.816406 0.25,-0.382812 0.714843,-0.582031 0.46875,-0.199219 1.128907,-0.199219 1.078125,0 1.621093,0.472656 0.546875,0.472657 0.574219,1.261719 l -1.15625,0.05078 q -0.07422,-0.441406 -0.320312,-0.632812 -0.242188,-0.195313 -0.730469,-0.195313 -0.503906,0 -0.789063,0.207032 -0.183593,0.132812 -0.183593,0.355468 0,0.203125 0.171875,0.347657 0.21875,0.183593 1.0625,0.382812 0.84375,0.199219 1.246093,0.414063 0.40625,0.210937 0.632813,0.582031 0.230469,0.367187 0.230469,0.910156 0,0.492188 -0.273438,0.921875 -0.273437,0.429688 -0.773437,0.640625 -0.5,0.207031 -1.246094,0.207031 -1.085938,0 -1.667969,-0.5 Q 54.2323,73.9347 54.119019,72.973763 Z"
       id="path298127" />
    <path
       d="m 59.747925,74.837044 v -5.726563 h 4.246094 v 0.96875 h -3.089844 v 1.269532 h 2.875 v 0.964843 h -2.875 V 73.8722 h 3.199219 v 0.964844 z"
       id="path298129" />
    <path
       d="m 66.372925,74.837044 v -4.757813 h -1.699219 v -0.96875 h 4.550781 v 0.96875 h -1.695312 v 4.757813 z"
       id="path298131" />
  </g>
  <g
     aria-label="OFFSET"
     id="text286685"
     style="font-weight:bold;font-size:8px;line-height:1.25;font-family:Arial;-inkscape-font-specification:'Arial, Bold'">
    <path
       d="m 38.332554,29.568535 q 0,-0.875 0.261719,-1.46875 0.195312,-0.4375 0.53125,-0.785156 0.339843,-0.347657 0.742187,-0.515625 0.535156,-0.226563 1.234375,-0.226563 1.265625,0 2.023438,0.785156 0.761718,0.785157 0.761718,2.183594 0,1.386719 -0.753906,2.171875 -0.753906,0.78125 -2.015625,0.78125 -1.277344,0 -2.03125,-0.777344 -0.753906,-0.78125 -0.753906,-2.148437 z m 1.191406,-0.03906 q 0,0.972657 0.449219,1.476563 0.449219,0.5 1.140625,0.5 0.691406,0 1.132812,-0.496094 0.445313,-0.5 0.445313,-1.496094 0,-0.984375 -0.433594,-1.46875 -0.429687,-0.484375 -1.144531,-0.484375 -0.714844,0 -1.152344,0.492188 -0.4375,0.488281 -0.4375,1.476562 z"
       id="path298102" />
    <path
       d="m 44.797398,32.39666 v -5.726563 h 3.925781 v 0.96875 h -2.769531 v 1.355469 h 2.390625 v 0.96875 h -2.390625 v 2.433594 z"
       id="path298104" />
    <path
       d="m 49.684116,32.39666 v -5.726563 h 3.925782 v 0.96875 h -2.769532 v 1.355469 h 2.390625 v 0.96875 h -2.390625 v 2.433594 z"
       id="path298106" />
    <path
       d="m 54.270054,30.533379 1.125,-0.109375 q 0.101562,0.566406 0.410156,0.832031 0.3125,0.265625 0.839844,0.265625 0.558594,0 0.839844,-0.234375 0.285156,-0.238281 0.285156,-0.554688 0,-0.203125 -0.121094,-0.34375 -0.117187,-0.144531 -0.414062,-0.25 -0.203125,-0.07031 -0.925782,-0.25 -0.929687,-0.230468 -1.304687,-0.566406 -0.527344,-0.472656 -0.527344,-1.152344 0,-0.4375 0.246094,-0.816406 0.25,-0.382812 0.714844,-0.582031 0.46875,-0.199219 1.128906,-0.199219 1.078125,0 1.621094,0.472656 0.546875,0.472657 0.574218,1.261719 l -1.15625,0.05078 q -0.07422,-0.441406 -0.320312,-0.632812 -0.242188,-0.195313 -0.730469,-0.195313 -0.503906,0 -0.789062,0.207032 -0.183594,0.132812 -0.183594,0.355468 0,0.203125 0.171875,0.347657 0.21875,0.183593 1.0625,0.382812 0.84375,0.199219 1.246094,0.414063 0.40625,0.210937 0.632812,0.582031 0.230469,0.367187 0.230469,0.910156 0,0.492188 -0.273438,0.921875 -0.273437,0.429688 -0.773437,0.640625 -0.5,0.207031 -1.246094,0.207031 -1.085937,0 -1.667969,-0.5 -0.582031,-0.503906 -0.695312,-1.464843 z"
       id="path298108" />
    <path
       d="m 59.89896,32.39666 v -5.726563 h 4.246094 v 0.96875 H 61.05521 v 1.269532 h 2.875 v 0.964843 h -2.875 v 1.558594 h 3.199219 v 0.964844 z"
       id="path298110" />
    <path
       d="m 66.52396,32.39666 v -4.757813 h -1.699219 v -0.96875 h 4.550782 v 0.96875 H 67.68021 v 4.757813 z"
       id="path298112" />
  </g>
</svg>
