<?xml version="1.0" encoding="UTF-8" standalone="no"?>
<!-- Generator: Adobe Illustrator 25.2.3, SVG Export Plug-In . SVG Version: 6.00 Build 0)  -->

<svg
   version="1.0"
   id="svg7595"
   sodipodi:docname="xm_FM_DC.svg"
   x="0px"
   y="0px"
   width="24"
   height="24"
   viewBox="0 0 24.000001 24"
   enable-background="new 0 0 17.9996 18"
   xml:space="preserve"
   inkscape:version="1.1.1 (3bf5ae0d25, 2021-09-20)"
   xmlns:inkscape="http://www.inkscape.org/namespaces/inkscape"
   xmlns:sodipodi="http://sodipodi.sourceforge.net/DTD/sodipodi-0.dtd"
   xmlns:xlink="http://www.w3.org/1999/xlink"
   xmlns="http://www.w3.org/2000/svg"
   xmlns:svg="http://www.w3.org/2000/svg"><defs
   id="defs67960" />
<sodipodi:namedview
   bordercolor="#666666"
   borderopacity="1.0"
   fit-margin-bottom="0"
   fit-margin-left="0"
   fit-margin-right="0"
   fit-margin-top="0"
   id="base"
   inkscape:current-layer="svg7595"
   inkscape:cx="1.25"
   inkscape:cy="8.78125"
   inkscape:document-units="mm"
   inkscape:pageopacity="0.0"
   inkscape:pageshadow="2"
   inkscape:window-height="1057"
   inkscape:window-maximized="1"
   inkscape:window-width="1920"
   inkscape:window-x="1592"
   inkscape:window-y="-8"
   inkscape:zoom="16"
   pagecolor="#ffffff"
   showgrid="true"
   units="px"
   inkscape:pagecheckerboard="0"
   showguides="true"
   objecttolerance="1"
   gridtolerance="10"
   guidetolerance="1"
   inkscape:showpageshadow="false">
	<inkscape:grid
   type="xygrid"
   id="grid68042" /><sodipodi:guide
   position="0,18"
   orientation="0,17.999599"
   id="guide68044" /><sodipodi:guide
   position="18,33.000001"
   orientation="18,0"
   id="guide68046" /><sodipodi:guide
   position="17.9996,0"
   orientation="0,-17.999599"
   id="guide68048" /><sodipodi:guide
   position="0,0"
   orientation="-18,0"
   id="guide68050" /></sodipodi:namedview>
<rect
   style="fill:#999999;stroke:#000000;stroke-width:0.372093;stroke-miterlimit:4;stroke-dasharray:none;stroke-opacity:1"
   id="rect109948"
   width="23.627907"
   height="23.627907"
   x="0.1860465"
   y="0.1860465"
   ry="2.9534883" /><g
   id="layer1"
   transform="translate(-46.755712,-67.833036)"
   inkscape:groupmode="layer"
   inkscape:label="Layer 1">
	<g
   id="g67940">
		<defs
   id="defs67935">
			<rect
   id="SVGID_1_"
   x="46.755322"
   y="67.833023"
   width="18"
   height="18" />
		</defs>
		<clipPath
   id="SVGID_2_">
			<use
   xlink:href="#SVGID_1_"
   overflow="visible"
   id="use67937"
   x="0"
   y="0"
   width="100%"
   height="100%" />
		</clipPath>
	</g>
</g>



<g
   id="g13151"
   transform="translate(0,-3.3079431)"><path
     d="M 5.9980492,15.340493 V 8.6595059 H 10.505209 V 9.4479171 H 6.8821635 v 2.0690099 h 3.1354155 v 0.788411 H 6.8821635 v 3.035155 z"
     id="path12689"
     style="font-size:9.33333px;line-height:1.25;font-family:Arial;-inkscape-font-specification:'Arial, Normal';font-variant-ligatures:none;text-align:center;text-anchor:middle;fill:#000000;fill-opacity:1" /><path
     d="M 11.626303,15.340493 V 8.6595059 h 1.330728 l 1.58138,4.7304671 q 0.21875,0.660807 0.31901,0.988932 0.113932,-0.364583 0.355469,-1.070963 l 1.599609,-4.6484361 h 1.189452 V 15.340493 H 17.149738 V 9.7486982 L 15.208333,15.340493 H 14.410807 L 12.478516,9.6529951 v 5.6874979 z"
     id="path12691"
     style="font-size:9.33333px;line-height:1.25;font-family:Arial;-inkscape-font-specification:'Arial, Normal';font-variant-ligatures:none;text-align:center;text-anchor:middle;fill:#000000;fill-opacity:1" /></g><g
   aria-label="DC"
   id="text15253"
   style="font-size:6.66667px;line-height:1.25;font-family:Arial;-inkscape-font-specification:'Arial, Normal';font-variant-ligatures:none;text-align:center;text-anchor:middle"><path
     d="m 7.5745425,18.567057 v -4.772138 h 1.643881 q 0.5566409,0 0.8496095,0.06836 0.410157,0.0944 0.69987,0.341797 0.377605,0.319011 0.563152,0.817058 0.188802,0.494792 0.188802,1.132813 0,0.54362 -0.126953,0.963542 -0.126953,0.419922 -0.325521,0.696615 -0.198568,0.273438 -0.436198,0.432943 -0.234375,0.15625 -0.569662,0.23763 -0.3320315,0.08138 -0.7649744,0.08138 z M 8.2060533,18.003905 H 9.224934 q 0.4720054,0 0.7389326,-0.08789 0.2701824,-0.08789 0.4296874,-0.247396 0.22461,-0.22461 0.348308,-0.602214 0.126953,-0.38086 0.126953,-0.921224 0,-0.748699 -0.247396,-1.14909 Q 10.377278,14.592445 10.025716,14.455727 9.7718092,14.35807 9.2086579,14.35807 H 8.2060533 Z"
     id="path19205" /><path
     d="m 15.793948,16.893879 0.63151,0.159505 q -0.198567,0.777995 -0.716146,1.188152 -0.514323,0.406901 -1.259766,0.406901 -0.771485,0 -1.256511,-0.3125 -0.481771,-0.315756 -0.735678,-0.911459 -0.250651,-0.595703 -0.250651,-1.279297 0,-0.745444 0.283204,-1.298829 0.286458,-0.556641 0.810547,-0.8431 0.527344,-0.289713 1.158855,-0.289713 0.716146,0 1.204427,0.364583 0.488282,0.364584 0.680339,1.025391 l -0.621745,0.146485 q -0.166016,-0.520834 -0.481771,-0.758464 -0.315755,-0.23763 -0.794271,-0.23763 -0.550131,0 -0.921225,0.263672 -0.367838,0.263672 -0.517578,0.709635 -0.14974,0.442709 -0.14974,0.914714 0,0.608725 0.175782,1.064454 0.179036,0.452474 0.553385,0.677084 0.374349,0.224609 0.810548,0.224609 0.530599,0 0.898437,-0.30599 0.367839,-0.305989 0.498048,-0.908203 z"
     id="path19207" /></g></svg>
