<?xml version="1.0" encoding="UTF-8" standalone="no"?>
<!-- Generator: Adobe Illustrator 25.2.3, SVG Export Plug-In . SVG Version: 6.00 Build 0)  -->

<svg
   version="1.0"
   id="svg7595"
   sodipodi:docname="xm_RM.svg"
   x="0px"
   y="0px"
   width="24"
   height="24"
   viewBox="0 0 24.000001 24"
   enable-background="new 0 0 17.9996 18"
   xml:space="preserve"
   inkscape:version="1.1.1 (3bf5ae0d25, 2021-09-20)"
   xmlns:inkscape="http://www.inkscape.org/namespaces/inkscape"
   xmlns:sodipodi="http://sodipodi.sourceforge.net/DTD/sodipodi-0.dtd"
   xmlns:xlink="http://www.w3.org/1999/xlink"
   xmlns="http://www.w3.org/2000/svg"
   xmlns:svg="http://www.w3.org/2000/svg"><defs
   id="defs67960" />
<sodipodi:namedview
   bordercolor="#666666"
   borderopacity="1.0"
   fit-margin-bottom="0"
   fit-margin-left="0"
   fit-margin-right="0"
   fit-margin-top="0"
   id="base"
   inkscape:current-layer="svg7595"
   inkscape:cx="2.875"
   inkscape:cy="8.78125"
   inkscape:document-units="mm"
   inkscape:pageopacity="0.0"
   inkscape:pageshadow="2"
   inkscape:window-height="1057"
   inkscape:window-maximized="1"
   inkscape:window-width="1920"
   inkscape:window-x="1592"
   inkscape:window-y="-8"
   inkscape:zoom="16"
   pagecolor="#ffffff"
   showgrid="true"
   units="px"
   inkscape:pagecheckerboard="0"
   showguides="true"
   objecttolerance="1"
   gridtolerance="10"
   guidetolerance="1"
   inkscape:showpageshadow="false">
	<inkscape:grid
   type="xygrid"
   id="grid68042" /><sodipodi:guide
   position="0,18"
   orientation="0,17.999599"
   id="guide68044" /><sodipodi:guide
   position="18,33.000001"
   orientation="18,0"
   id="guide68046" /><sodipodi:guide
   position="17.9996,0"
   orientation="0,-17.999599"
   id="guide68048" /><sodipodi:guide
   position="0,0"
   orientation="-18,0"
   id="guide68050" /></sodipodi:namedview>
<rect
   style="fill:#999999;stroke:#000000;stroke-width:0.372093;stroke-miterlimit:4;stroke-dasharray:none;stroke-opacity:1"
   id="rect109948"
   width="23.627907"
   height="23.627907"
   x="0.1860465"
   y="0.1860465"
   ry="2.9534883" /><g
   id="layer1"
   transform="translate(-46.755712,-67.833036)"
   inkscape:groupmode="layer"
   inkscape:label="Layer 1">
	<g
   id="g67940">
		<defs
   id="defs67935">
			<rect
   id="SVGID_1_"
   x="46.755322"
   y="67.833023"
   width="18"
   height="18" />
		</defs>
		<clipPath
   id="SVGID_2_">
			<use
   xlink:href="#SVGID_1_"
   overflow="visible"
   id="use67937"
   x="0"
   y="0"
   width="100%"
   height="100%" />
		</clipPath>
	</g>
</g>



<g
   aria-label="RM"
   id="text6671"
   style="font-size:9.33333px;line-height:1.25;font-family:Arial;-inkscape-font-specification:'Arial, Normal';font-variant-ligatures:none;text-align:center;text-anchor:middle"><path
     d="M 5.4625673,15.340493 V 8.6595059 h 2.9622386 q 0.8932289,0 1.3580725,0.1822916 0.4648436,0.1777343 0.7428386,0.6334633 0.277994,0.455729 0.277994,1.0071612 0,0.710937 -0.460286,1.198567 -0.4602863,0.48763 -1.4218745,0.619792 0.3509114,0.168619 0.533203,0.332682 0.3873696,0.355469 0.7337235,0.888671 l 1.162109,1.818359 H 10.238607 L 9.3544931,13.95052 Q 8.9671234,13.348957 8.7164725,13.029947 8.4658215,12.710937 8.2653007,12.583333 8.0693373,12.455729 7.8642592,12.405598 7.7138686,12.373697 7.3720719,12.373697 H 6.3466816 v 2.966796 z m 0.8841143,-3.73242 h 1.90039 q 0.6061196,0 0.9479163,-0.123047 0.3417968,-0.127604 0.5195311,-0.401042 0.1777343,-0.277994 0.1777343,-0.601562 0,-0.473958 -0.346354,-0.7792967 Q 9.2041025,9.3977869 8.4612642,9.3977869 H 6.3466816 Z"
     id="path13382" /><path
     d="M 12.161784,15.340493 V 8.6595059 h 1.330728 l 1.58138,4.7304671 q 0.21875,0.660807 0.31901,0.988932 0.113933,-0.364583 0.355469,-1.070963 L 17.34798,8.6595059 h 1.189453 V 15.340493 H 17.685219 V 9.7486982 L 15.743814,15.340493 H 14.946288 L 13.013997,9.6529951 v 5.6874979 z"
     id="path13384" /></g></svg>
