<?xml version="1.0"?>
<svg width="120" height="380" xmlns="http://www.w3.org/2000/svg" xmlns:svg="http://www.w3.org/2000/svg">
 <defs>
  <clipPath id="_clipPath_sMzPIcrS2sD3lKhajQrdaiSEc399lqzM">
   <rect height="380" id="svg_1" width="120"/>
  </clipPath>
 </defs>
 <g class="layer">
  <title>Layer 1</title>
  <g clip-path="url(#_clipPath_sMzPIcrS2sD3lKhajQrdaiSEc399lqzM)" id="svg_2">
   <rect fill="red" height="380" id="svg_3" stroke="black" stroke-width="5" transform="matrix(1,0,0,1,0,0)" width="120" x="0" y="0"/>
   <path d="m12,306l96,0c3.31,0 6,2.69 6,6l0,32c0,3.31 -2.69,6 -6,6l-96,0c-3.31,0 -6,-2.69 -6,-6l0,-32c0,-3.31 2.69,-6 6,-6z" fill="#4D9A4D" id="svg_4" stroke-miterlimit="10"/>
   <path d="m49,263.97l59,0c3.31,0 6,2.69 6,6l0,47.35c0,3.32 -2.69,6 -6,6l-59,0c-3.31,0 -6,-2.68 -6,-6l0,-47.35c0,-3.31 2.69,-6 6,-6z" fill="#4D9A4D" id="svg_5" stroke-miterlimit="10"/>
   <g id="svg_6">
    <path d="m90.88,270.45c0,-1.41 0.67,-2.55 1.49,-2.55c0.83,0 1.5,1.14 1.5,2.55" fill="none" id="svg_7" stroke="rgb(226,226,226)" stroke-linecap="square" stroke-miterlimit="3"/>
    <path d="m102.88,270.45c0,1.41 -0.68,2.55 -1.5,2.55c-0.83,0 -1.5,-1.14 -1.5,-2.55" fill="none" id="svg_8" stroke="rgb(226,226,226)" stroke-linecap="square" stroke-miterlimit="3"/>
    <path d="m96.87,270.45c0,-1.41 0.67,-2.55 1.5,-2.55c0.82,0 1.49,1.14 1.49,2.55" fill="none" id="svg_9" stroke="rgb(226,226,226)" stroke-linecap="square" stroke-miterlimit="3"/>
    <path d="m96.88,270.45c0,1.41 -0.67,2.55 -1.5,2.55c-0.82,0 -1.49,-1.14 -1.49,-2.55" fill="none" id="svg_10" stroke="rgb(226,226,226)" stroke-linecap="square" stroke-miterlimit="3"/>
   </g>
   <g id="svg_11">
    <path d="m91,312.48c0,-1.41 1.34,-2.55 2.99,-2.55c1.65,0 3,1.14 3,2.55" fill="none" id="svg_12" stroke="rgb(226,226,226)" stroke-linecap="square" stroke-miterlimit="3"/>
    <path d="m103,312.48c0,1.41 -1.34,2.55 -2.99,2.55c-1.65,0 -3,-1.14 -3,-2.55" fill="none" id="svg_13" stroke="rgb(226,226,226)" stroke-linecap="square" stroke-miterlimit="3"/>
   </g>
   <path d="m21.73,201.16c-5.83,-3.49 -9.73,-9.88 -9.73,-17.16c0,-11.04 8.96,-20 20,-20c11.04,0 20,8.96 20,20c0,7.28 -3.9,13.67 -9.73,17.16" fill="none" id="svg_14" stroke="rgb(32,32,32)" stroke-linecap="square" stroke-miterlimit="3" stroke-width="0.8"/>
   <path d="m77.73,201.16c-5.83,-3.49 -9.73,-9.88 -9.73,-17.16c0,-11.04 8.96,-20 20,-20c11.04,0 20,8.96 20,20c0,7.28 -3.9,13.67 -9.73,17.16" fill="none" id="svg_15" stroke="rgb(32,32,32)" stroke-linecap="square" stroke-miterlimit="3" stroke-width="0.8"/>
   <path d="m77.73,145.16c-5.83,-3.49 -9.73,-9.88 -9.73,-17.16c0,-11.04 8.96,-20 20,-20c11.04,0 20,8.96 20,20c0,7.28 -3.9,13.67 -9.73,17.16" fill="none" id="svg_16" stroke="rgb(32,32,32)" stroke-linecap="square" stroke-miterlimit="3" stroke-width="0.8"/>
   <path d="m17.82,155.69l0,0q-0.85,0 -1.54,-0.37l0,0l0,0q-0.7,-0.37 -1.09,-1.03l0,0l0,0q-0.4,-0.66 -0.4,-1.49l0,0l0,0q0,-0.84 0.4,-1.5l0,0l0,0q0.39,-0.66 1.09,-1.03l0,0l0,0q0.69,-0.37 1.55,-0.37l0,0l0,0q0.73,0 1.32,0.26l0,0l0,0q0.59,0.25 0.99,0.73l0,0l-0.84,0.77l0,0q-0.56,-0.66 -1.4,-0.66l0,0l0,0q-0.52,0 -0.93,0.23l0,0l0,0q-0.41,0.23 -0.64,0.64l0,0l0,0q-0.23,0.41 -0.23,0.93l0,0l0,0q0,0.52 0.23,0.92l0,0l0,0q0.23,0.41 0.64,0.64l0,0l0,0q0.41,0.23 0.93,0.23l0,0l0,0q0.84,0 1.4,-0.67l0,0l0.84,0.77l0,0q-0.4,0.49 -1,0.75l0,0l0,0q-0.59,0.25 -1.32,0.25l0,0zm5.9,0l0,0q-0.87,0 -1.57,-0.37l0,0l0,0q-0.7,-0.38 -1.1,-1.04l0,0l0,0q-0.39,-0.66 -0.39,-1.48l0,0l0,0q0,-0.83 0.39,-1.49l0,0l0,0q0.4,-0.66 1.1,-1.03l0,0l0,0q0.7,-0.38 1.57,-0.38l0,0l0,0q0.87,0 1.57,0.38l0,0l0,0q0.69,0.37 1.09,1.03l0,0l0,0q0.4,0.66 0.4,1.49l0,0l0,0q0,0.82 -0.4,1.48l0,0l0,0q-0.4,0.66 -1.09,1.04l0,0l0,0q-0.7,0.37 -1.57,0.37l0,0zm0,-1.1l0,0q0.5,0 0.9,-0.23l0,0l0,0q0.4,-0.23 0.62,-0.64l0,0l0,0q0.23,-0.4 0.23,-0.92l0,0l0,0q0,-0.52 -0.23,-0.93l0,0l0,0q-0.22,-0.41 -0.62,-0.64l0,0l0,0q-0.4,-0.23 -0.9,-0.23l0,0l0,0q-0.5,0 -0.9,0.23l0,0l0,0q-0.4,0.23 -0.62,0.64l0,0l0,0q-0.23,0.41 -0.23,0.93l0,0l0,0q0,0.52 0.23,0.92l0,0l0,0q0.22,0.41 0.62,0.64l0,0l0,0q0.4,0.23 0.9,0.23l0,0zm8.22,1.01l-0.49,-1.2l-2.6,0l-0.5,1.2l-1.33,0l2.5,-5.6l1.28,0l2.5,5.6l-1.36,0zm-2.68,-2.19l1.78,0l-0.89,-2.14l-0.89,2.14zm9.59,2.19l-1.39,0l-1.08,-1.56l-0.07,0l-1.13,0l0,1.56l-1.29,0l0,-5.6l2.42,0l0,0q0.75,0 1.29,0.24l0,0l0,0q0.55,0.25 0.85,0.71l0,0l0,0q0.29,0.45 0.29,1.08l0,0l0,0q0,0.62 -0.3,1.07l0,0l0,0q-0.3,0.46 -0.85,0.7l0,0l1.26,1.8zm-1.42,-3.57l0,0q0,-0.47 -0.3,-0.73l0,0l0,0q-0.31,-0.25 -0.89,-0.25l0,0l-1.06,0l0,1.95l1.06,0l0,0q0.58,0 0.89,-0.25l0,0l0,0q0.3,-0.26 0.3,-0.72l0,0zm4.18,3.66l0,0q-0.67,0 -1.29,-0.18l0,0l0,0q-0.62,-0.18 -0.99,-0.47l0,0l0.44,-0.97l0,0q0.36,0.26 0.85,0.42l0,0l0,0q0.5,0.16 1,0.16l0,0l0,0q0.55,0 0.81,-0.16l0,0l0,0q0.27,-0.17 0.27,-0.44l0,0l0,0q0,-0.2 -0.16,-0.33l0,0l0,0q-0.16,-0.13 -0.4,-0.21l0,0l0,0q-0.24,-0.08 -0.66,-0.18l0,0l0,0q-0.64,-0.15 -1.05,-0.3l0,0l0,0q-0.41,-0.15 -0.7,-0.49l0,0l0,0q-0.29,-0.34 -0.29,-0.9l0,0l0,0q0,-0.48 0.26,-0.88l0,0l0,0q0.27,-0.4 0.8,-0.63l0,0l0,0q0.53,-0.23 1.3,-0.23l0,0l0,0q0.54,0 1.05,0.13l0,0l0,0q0.51,0.13 0.89,0.37l0,0l-0.4,0.98l0,0q-0.77,-0.44 -1.55,-0.44l0,0l0,0q-0.54,0 -0.8,0.18l0,0l0,0q-0.26,0.17 -0.26,0.46l0,0l0,0q0,0.29 0.3,0.43l0,0l0,0q0.3,0.14 0.91,0.27l0,0l0,0q0.64,0.16 1.05,0.31l0,0l0,0q0.41,0.15 0.7,0.48l0,0l0,0q0.29,0.33 0.29,0.89l0,0l0,0q0,0.48 -0.26,0.87l0,0l0,0q-0.27,0.4 -0.81,0.63l0,0l0,0q-0.53,0.23 -1.3,0.23l0,0zm4.55,-1.13l3.05,0l0,1.04l-4.34,0l0,-5.6l4.23,0l0,1.04l-2.94,0l0,1.21l2.6,0l0,1.01l-2.6,0l0,1.3z" fill="rgb(32,32,32)" fill-rule="evenodd" id="svg_17"/>
   <path d="m82.96,151.04l-2.93,0l0,1.48l2.59,0l0,1.04l-2.59,0l0,2.04l-1.3,0l0,-5.6l4.23,0l0,1.04zm0.88,4.56l0,-5.6l1.3,0l0,5.6l-1.3,0zm6.48,-5.6l1.28,0l0,5.6l-1.06,0l-2.79,-3.4l0,3.4l-1.28,0l0,-5.6l1.07,0l2.78,3.4l0,-3.4zm3.9,4.56l3.05,0l0,1.04l-4.34,0l0,-5.6l4.23,0l0,1.04l-2.94,0l0,1.22l2.6,0l0,1l-2.6,0l0,1.3z" fill="rgb(32,32,32)" fill-rule="evenodd" id="svg_18"/>
   <path d="m52.55,226.19l1.12,0l-2.12,4.9l-1.12,0l-2.11,-4.9l1.22,0l1.49,3.5l1.52,-3.5zm0.82,5.6l2.31,-6.59l0.97,0l-2.31,6.59l-0.97,0zm5.93,-0.61l0,0q-0.76,0 -1.38,-0.33l0,0l0,0q-0.61,-0.33 -0.95,-0.91l0,0l0,0q-0.35,-0.57 -0.35,-1.3l0,0l0,0q0,-0.72 0.35,-1.29l0,0l0,0q0.34,-0.58 0.95,-0.91l0,0l0,0q0.62,-0.33 1.38,-0.33l0,0l0,0q0.76,0 1.37,0.33l0,0l0,0q0.61,0.33 0.96,0.91l0,0l0,0q0.35,0.57 0.35,1.29l0,0l0,0q0,0.73 -0.35,1.3l0,0l0,0q-0.35,0.58 -0.96,0.91l0,0l0,0q-0.61,0.33 -1.37,0.33l0,0zm0,-0.97l0,0q0.43,0 0.78,-0.2l0,0l0,0q0.35,-0.2 0.55,-0.55l0,0l0,0q0.2,-0.36 0.2,-0.82l0,0l0,0q0,-0.45 -0.2,-0.81l0,0l0,0q-0.2,-0.36 -0.55,-0.55l0,0l0,0q-0.35,-0.2 -0.78,-0.2l0,0l0,0q-0.43,0 -0.78,0.2l0,0l0,0q-0.35,0.19 -0.55,0.55l0,0l0,0q-0.2,0.36 -0.2,0.81l0,0l0,0q0,0.46 0.2,0.82l0,0l0,0q0.2,0.35 0.55,0.55l0,0l0,0q0.35,0.2 0.78,0.2l0,0zm5.88,0.97l0,0q-0.75,0 -1.35,-0.33l0,0l0,0q-0.61,-0.32 -0.96,-0.9l0,0l0,0q-0.34,-0.58 -0.34,-1.31l0,0l0,0q0,-0.72 0.34,-1.3l0,0l0,0q0.35,-0.58 0.96,-0.9l0,0l0,0q0.6,-0.33 1.36,-0.33l0,0l0,0q0.63,0 1.15,0.22l0,0l0,0q0.51,0.23 0.86,0.65l0,0l-0.73,0.67l0,0q-0.49,-0.57 -1.23,-0.57l0,0l0,0q-0.45,0 -0.81,0.2l0,0l0,0q-0.36,0.19 -0.56,0.55l0,0l0,0q-0.2,0.36 -0.2,0.81l0,0l0,0q0,0.46 0.2,0.82l0,0l0,0q0.2,0.35 0.56,0.55l0,0l0,0q0.36,0.2 0.81,0.2l0,0l0,0q0.74,0 1.23,-0.58l0,0l0.73,0.67l0,0q-0.35,0.43 -0.87,0.65l0,0l0,0q-0.51,0.23 -1.15,0.23l0,0zm3.8,-0.09l0,-3.97l-1.57,0l0,-0.93l4.27,0l0,0.93l-1.57,0l0,3.97l-1.13,0z" fill="rgb(32,32,32)" fill-rule="evenodd" id="svg_19"/>
   <path d="m15.98,272.88l-1.22,0l-0.94,-1.36l-0.06,0l-0.99,0l0,1.36l-1.13,0l0,-4.9l2.12,0l0,0q0.65,0 1.13,0.22l0,0l0,0q0.48,0.22 0.74,0.62l0,0l0,0q0.26,0.4 0.26,0.94l0,0l0,0q0,0.55 -0.26,0.94l0,0l0,0q-0.27,0.4 -0.75,0.61l0,0l1.1,1.57zm-1.24,-3.12l0,0q0,-0.41 -0.27,-0.63l0,0l0,0q-0.26,-0.22 -0.77,-0.22l0,0l-0.93,0l0,1.71l0.93,0l0,0q0.51,0 0.77,-0.23l0,0l0,0q0.27,-0.22 0.27,-0.63l0,0zm3.17,2.21l2.67,0l0,0.91l-3.8,0l0,-4.9l3.71,0l0,0.91l-2.58,0l0,1.07l2.28,0l0,0.88l-2.28,0l0,1.13zm5.18,1l0,0q-0.58,0 -1.12,-0.16l0,0l0,0q-0.54,-0.16 -0.87,-0.41l0,0l0.38,-0.85l0,0q0.32,0.23 0.75,0.37l0,0l0,0q0.43,0.14 0.87,0.14l0,0l0,0q0.48,0 0.71,-0.14l0,0l0,0q0.23,-0.15 0.23,-0.39l0,0l0,0q0,-0.17 -0.13,-0.29l0,0l0,0q-0.14,-0.11 -0.35,-0.18l0,0l0,0q-0.22,-0.07 -0.58,-0.16l0,0l0,0q-0.56,-0.13 -0.92,-0.26l0,0l0,0q-0.36,-0.14 -0.61,-0.43l0,0l0,0q-0.26,-0.29 -0.26,-0.78l0,0l0,0q0,-0.43 0.24,-0.78l0,0l0,0q0.23,-0.34 0.69,-0.55l0,0l0,0q0.47,-0.2 1.14,-0.2l0,0l0,0q0.47,0 0.92,0.11l0,0l0,0q0.44,0.11 0.78,0.32l0,0l-0.35,0.86l0,0q-0.68,-0.38 -1.36,-0.38l0,0l0,0q-0.47,0 -0.7,0.15l0,0l0,0q-0.23,0.16 -0.23,0.41l0,0l0,0q0,0.25 0.26,0.38l0,0l0,0q0.27,0.12 0.81,0.24l0,0l0,0q0.56,0.13 0.91,0.26l0,0l0,0q0.36,0.13 0.61,0.42l0,0l0,0q0.26,0.29 0.26,0.78l0,0l0,0q0,0.42 -0.24,0.77l0,0l0,0q-0.23,0.34 -0.7,0.54l0,0l0,0q-0.47,0.21 -1.14,0.21l0,0zm3.98,-1l2.67,0l0,0.91l-3.79,0l0,-4.9l3.7,0l0,0.91l-2.58,0l0,1.07l2.28,0l0,0.88l-2.28,0l0,1.13zm4.59,0.91l0,-3.97l-1.57,0l0,-0.93l4.27,0l0,0.93l-1.57,0l0,3.97l-1.13,0z" fill="rgb(32,32,32)" fill-rule="evenodd" id="svg_20"/>
   <path d="m22.98,222.7l0.02,-5.8c0,-0.55 0.32,-1.32 0.7,-1.71l7.6,-7.68c0.38,-0.39 0.7,-1.16 0.7,-1.71l0,-5.8" fill="none" id="svg_21" stroke="rgb(32,32,32)" stroke-dasharray="0,0,0,0" stroke-linecap="square" stroke-miterlimit="3" stroke-width="0.8"/>
   <path d="m96.88,222.7l0.02,-5.8c0,-0.55 -0.32,-1.32 -0.7,-1.71l-7.59,-7.68c-0.39,-0.39 -0.7,-1.16 -0.71,-1.71l-0.05,-5.8" fill="none" id="svg_22" stroke="rgb(32,32,32)" stroke-dasharray="0,0,0,0" stroke-linecap="square" stroke-miterlimit="3" stroke-width="0.8"/>
   <g id="svg_23">
    <line id="svg_24" stroke="rgb(32,32,32)" stroke-linecap="square" stroke-miterlimit="3" stroke-width="0.8" x1="44.56" x2="43.8" y1="89.7" y2="90.99"/>
    <line id="svg_25" stroke="rgb(32,32,32)" stroke-linecap="square" stroke-miterlimit="3" stroke-width="0.8" x1="75.44" x2="76.2" y1="89.7" y2="90.99"/>
    <line id="svg_26" stroke="rgb(32,32,32)" stroke-linecap="square" stroke-miterlimit="3" stroke-width="0.8" x1="30.8" x2="32.19" y1="75.96" y2="75.4"/>
    <line id="svg_27" stroke="rgb(32,32,32)" stroke-linecap="square" stroke-miterlimit="3" stroke-width="0.8" x1="89.2" x2="87.81" y1="75.96" y2="75.4"/>
    <line id="svg_28" stroke="rgb(32,32,32)" stroke-linecap="square" stroke-miterlimit="3" stroke-width="0.8" x1="29.67" x2="31.11" y1="55.4" y2="55.8"/>
    <line id="svg_29" stroke="rgb(32,32,32)" stroke-linecap="square" stroke-miterlimit="3" stroke-width="0.8" x1="90.32" x2="88.88" y1="55.4" y2="55.8"/>
    <line id="svg_30" stroke="rgb(32,32,32)" stroke-linecap="square" stroke-miterlimit="3" stroke-width="0.8" x1="60" x2="60" y1="32.51" y2="34"/>
    <line id="svg_31" stroke="rgb(32,32,32)" stroke-linecap="square" stroke-miterlimit="3" stroke-width="0.8" x1="40.83" x2="41.73" y1="39.01" y2="40.2"/>
    <line id="svg_32" stroke="rgb(32,32,32)" stroke-linecap="square" stroke-miterlimit="3" stroke-width="0.8" x1="79.17" x2="78.26" y1="39.01" y2="40.2"/>
   </g>
   <path d="m45.89,101.69l0,0q-0.87,0 -1.57,-0.37l0,0l0,0q-0.7,-0.38 -1.1,-1.04l0,0l0,0q-0.39,-0.66 -0.39,-1.48l0,0l0,0q0,-0.83 0.39,-1.49l0,0l0,0q0.4,-0.66 1.1,-1.03l0,0l0,0q0.7,-0.38 1.57,-0.38l0,0l0,0q0.87,0 1.57,0.38l0,0l0,0q0.7,0.37 1.1,1.03l0,0l0,0q0.4,0.66 0.4,1.49l0,0l0,0q0,0.82 -0.4,1.48l0,0l0,0q-0.4,0.66 -1.1,1.04l0,0l0,0q-0.7,0.37 -1.57,0.37l0,0zm0,-1.1l0,0q0.5,0 0.9,-0.23l0,0l0,0q0.4,-0.23 0.63,-0.64l0,0l0,0q0.22,-0.4 0.22,-0.92l0,0l0,0q0,-0.52 -0.22,-0.93l0,0l0,0q-0.23,-0.41 -0.63,-0.64l0,0l0,0q-0.4,-0.23 -0.9,-0.23l0,0l0,0q-0.49,0 -0.89,0.23l0,0l0,0q-0.4,0.23 -0.63,0.64l0,0l0,0q-0.23,0.41 -0.23,0.93l0,0l0,0q0,0.52 0.23,0.92l0,0l0,0q0.23,0.41 0.63,0.64l0,0l0,0q0.4,0.23 0.89,0.23l0,0zm6.72,1.1l0,0q-0.85,0 -1.55,-0.37l0,0l0,0q-0.69,-0.37 -1.08,-1.03l0,0l0,0q-0.4,-0.66 -0.4,-1.49l0,0l0,0q0,-0.84 0.4,-1.5l0,0l0,0q0.39,-0.66 1.08,-1.03l0,0l0,0q0.7,-0.37 1.56,-0.37l0,0l0,0q0.73,0 1.32,0.26l0,0l0,0q0.58,0.25 0.98,0.73l0,0l-0.83,0.77l0,0q-0.57,-0.66 -1.41,-0.66l0,0l0,0q-0.52,0 -0.92,0.23l0,0l0,0q-0.41,0.23 -0.64,0.64l0,0l0,0q-0.23,0.41 -0.23,0.93l0,0l0,0q0,0.52 0.23,0.92l0,0l0,0q0.23,0.41 0.64,0.64l0,0l0,0q0.4,0.23 0.92,0.23l0,0l0,0q0.84,0 1.41,-0.67l0,0l0.83,0.77l0,0q-0.4,0.49 -0.99,0.75l0,0l0,0q-0.59,0.25 -1.32,0.25l0,0zm4.35,-0.09l0,-4.55l-1.8,0l0,-1.05l4.88,0l0,1.05l-1.79,0l0,4.55l-1.29,0zm7.96,0l-0.49,-1.2l-2.6,0l-0.5,1.2l-1.33,0l2.5,-5.6l1.28,0l2.5,5.6l-1.36,0zm-2.68,-2.19l1.78,0l-0.89,-2.14l-0.89,2.14zm8.72,-3.41l1.29,0l-2.42,5.6l-1.28,0l-2.42,-5.6l1.4,0l1.71,4l1.72,-4zm3.16,4.56l3.05,0l0,1.04l-4.33,0l0,-5.6l4.23,0l0,1.04l-2.95,0l0,1.21l2.6,0l0,1.01l-2.6,0l0,1.3z" fill="rgb(32,32,32)" fill-rule="evenodd" id="svg_33"/>
   <path d="m50.22,366.88l1.29,-1.22c0.79,-0.72 0.94,-1.22 0.94,-1.76c0,-1.02 -0.83,-1.66 -2.08,-1.66c-1.01,0 -1.79,0.41 -2.23,1.04l0.95,0.61c0.27,-0.38 0.68,-0.56 1.16,-0.56c0.59,0 0.89,0.25 0.89,0.69c0,0.28 -0.08,0.56 -0.58,1.04l-2.16,2.04l0,0.84l4.23,0l0,-1.06l-2.41,0zm2.69,-4.54l0,1.04l1.12,0l0,4.56l1.3,0l0,-5.6l-2.42,0zm6.87,5.6l1.51,0l-1.95,-2.48l1.79,-1.83l-1.49,0l-1.82,1.73l0,-3.36l-1.25,0l0,5.94l1.25,0l0,-1.1l0.6,-0.59l1.36,1.69zm6,-5.6l0,2.2l-2.55,0l0,-2.2l-1.29,0l0,5.6l1.29,0l0,-2.3l2.55,0l0,2.3l1.29,0l0,-5.6l-1.29,0zm3.81,4.64l2.19,-2.6l0,-0.75l-3.71,0l0,0.96l2.14,0l-2.19,2.59l0,0.76l3.84,0l0,-0.96l-2.27,0z" fill="rgb(32,32,32)" fill-rule="evenodd" id="svg_34"/>
   <path d="m64.86,27.08l4.78,0l0,-0.87l-3.78,0l0,-6.13l-1,0l0,7zm9.09,0.08c2.13,0 3.72,-1.52 3.72,-3.58c0,-2.06 -1.59,-3.58 -3.72,-3.58c-2.14,0 -3.73,1.53 -3.73,3.58c0,2.05 1.59,3.58 3.73,3.58zm0,-0.89c-1.56,0 -2.73,-1.14 -2.73,-2.69c0,-1.55 1.17,-2.69 2.73,-2.69c1.55,0 2.72,1.14 2.72,2.69c0,1.55 -1.17,2.69 -2.72,2.69zm8.41,0.89c2.12,0 3.7,-1.52 3.7,-3.58c0,-2.06 -1.58,-3.58 -3.7,-3.58c-2.16,0 -3.73,1.53 -3.73,3.58c0,2.05 1.57,3.58 3.73,3.58zm0,-0.89c-1.58,0 -2.73,-1.14 -2.73,-2.69c0,-1.55 1.15,-2.69 2.73,-2.69c1.55,0 2.7,1.14 2.7,2.69c0,1.55 -1.15,2.69 -2.7,2.69zm7.97,-6.19l-2.74,0l0,7l1,0l0,-2.12l1.74,0c1.81,0 2.92,-0.92 2.92,-2.44c0,-1.52 -1.11,-2.44 -2.92,-2.44zm-0.03,4.01l-1.71,0l0,-3.14l1.71,0c1.28,0 1.95,0.57 1.95,1.57c0,1 -0.67,1.57 -1.95,1.57zm-60.82,-4.01l-2.73,0l0,7l1,0l0,-2.12l1.73,0c1.82,0 2.93,-0.92 2.93,-2.44c0,-1.52 -1.11,-2.44 -2.93,-2.44zm-0.03,4.01l-1.7,0l0,-3.14l1.7,0c1.28,0 1.96,0.57 1.96,1.57c0,1 -0.68,1.57 -1.96,1.57zm9.75,2.99l1.06,0l-3.18,-7l-0.99,0l-3.18,7l1.04,0l0.77,-1.75l3.72,0l0.76,1.75zm-4.14,-2.55l1.52,-3.43l1.51,3.43l-3.03,0zm6.24,2.55l4.79,0l0,-0.87l-3.79,0l0,-6.13l-1,0l0,7zm13.39,0l-0.02,-7l-0.82,0l-2.87,4.92l-2.93,-4.92l-0.82,0l0,7l0.97,0l0,-5.07l2.53,4.22l0.46,0l2.53,-4.25l0.01,5.1l0.96,0z" fill="rgb(0,0,0)" fill-rule="evenodd" id="svg_35"/>
   <path d="m54,270.2l2.3,-1.97c0.39,-0.33 0.7,-0.19 0.7,0.32l0,3.98c0,0.52 0.29,0.64 0.66,0.27l4.68,-4.69c0.37,-0.36 0.66,-0.24 0.66,0.27l0,4.04c0,0.57 0.35,0.74 0.79,0.36l2.21,-1.9" fill="none" id="svg_36" stroke="rgb(226,226,226)" stroke-linecap="square" stroke-miterlimit="3"/>
   <path d="m28.98,313.12l-0.02,1.04c-0.01,0.48 -0.41,0.87 -0.88,0.87l-4.26,0c-0.47,0 -0.86,-0.38 -0.86,-0.86l0,-3.37c0,-0.48 -0.39,-0.87 -0.87,-0.87l-4.11,0.01c-0.56,0 -1,0.45 -1,1l0.01,1.1" fill="none" id="svg_37" stroke="rgb(226,226,226)" stroke-linecap="square" stroke-miterlimit="3"/>
   <path d="m54,312.18l2.3,-2.01c0.39,-0.33 1,-0.31 1.36,0.04l4.6,4.48c0.4,0.4 1.08,0.41 1.51,0.03l2.23,-1.98" fill="none" id="svg_38" stroke="rgb(226,226,226)" stroke-linecap="square" stroke-miterlimit="3"/>
   <g id="svg_39">
    <line id="svg_40" stroke="rgb(32,32,32)" stroke-linecap="square" stroke-miterlimit="3" stroke-width="0.8" x1="20.91" x2="21.68" y1="146.44" y2="145.16"/>
    <line id="svg_41" stroke="rgb(32,32,32)" stroke-linecap="square" stroke-miterlimit="3" stroke-width="0.8" x1="43.09" x2="42.32" y1="146.44" y2="145.16"/>
    <line id="svg_42" stroke="rgb(32,32,32)" stroke-linecap="square" stroke-miterlimit="3" stroke-width="0.8" x1="15.1" x2="16.28" y1="141.3" y2="140.38"/>
    <line id="svg_43" stroke="rgb(32,32,32)" stroke-linecap="square" stroke-miterlimit="3" stroke-width="0.8" x1="48.9" x2="47.72" y1="141.3" y2="140.38"/>
    <line id="svg_44" stroke="rgb(32,32,32)" stroke-linecap="square" stroke-miterlimit="3" stroke-width="0.8" x1="11.44" x2="12.87" y1="134.33" y2="133.9"/>
    <line id="svg_45" stroke="rgb(32,32,32)" stroke-linecap="square" stroke-miterlimit="3" stroke-width="0.8" x1="52.56" x2="51.13" y1="134.33" y2="133.9"/>
    <line id="svg_46" stroke="rgb(32,32,32)" stroke-linecap="square" stroke-miterlimit="3" stroke-width="0.8" x1="10.6" x2="12.09" y1="126.17" y2="126.3"/>
    <line id="svg_47" stroke="rgb(32,32,32)" stroke-linecap="square" stroke-miterlimit="3" stroke-width="0.8" x1="53.4" x2="51.91" y1="126.17" y2="126.3"/>
    <line id="svg_48" stroke="rgb(32,32,32)" stroke-linecap="square" stroke-miterlimit="3" stroke-width="0.8" x1="12.75" x2="14.09" y1="118.45" y2="119.11"/>
    <line id="svg_49" stroke="rgb(32,32,32)" stroke-linecap="square" stroke-miterlimit="3" stroke-width="0.8" x1="51.25" x2="49.91" y1="118.45" y2="119.11"/>
    <line id="svg_50" stroke="rgb(32,32,32)" stroke-linecap="square" stroke-miterlimit="3" stroke-width="0.8" x1="17.43" x2="18.45" y1="112.18" y2="113.28"/>
    <line id="svg_51" stroke="rgb(32,32,32)" stroke-linecap="square" stroke-miterlimit="3" stroke-width="0.8" x1="46.57" x2="45.55" y1="112.18" y2="113.28"/>
    <line id="svg_52" stroke="rgb(32,32,32)" stroke-linecap="square" stroke-miterlimit="3" stroke-width="0.8" x1="24.06" x2="24.61" y1="108" y2="109.39"/>
    <line id="svg_53" stroke="rgb(32,32,32)" stroke-linecap="square" stroke-miterlimit="3" stroke-width="0.8" x1="39.94" x2="39.39" y1="108" y2="109.39"/>
    <line id="svg_54" stroke="rgb(32,32,32)" stroke-linecap="square" stroke-miterlimit="3" stroke-width="0.8" x1="31.86" x2="31.86" y1="108" y2="106.5"/>
   </g>
   <path d="m30.11,226.96l0,-0.91l-3.71,0l0,4.9l1.14,0l0,-1.79l2.26,0l0,-0.91l-2.26,0l0,-1.29l2.57,0zm6.29,3.99l-0.02,-4.9l-0.93,0l-1.8,3.04l-1.84,-3.04l-0.93,0l0,4.9l1.06,0l0,-2.88l1.43,2.36l0.51,0l1.45,-2.42l0,2.94l1.07,0zm-25.67,-0.91l0,-1.14l2.27,0l0,-0.88l-2.27,0l0,-1.06l2.57,0l0,-0.91l-3.7,0l0,4.9l3.8,0l0,-0.91l-2.67,0zm7.97,0.91l-1.83,-2.54l1.71,-2.36l-1.23,0l-1.1,1.59l-1.13,-1.59l-1.29,0l1.72,2.41l-1.81,2.49l1.3,0l1.16,-1.7l1.19,1.7l1.31,0zm2.72,-4.9l-2.12,0l0,4.9l1.13,0l0,-1.35l0.99,0c1.31,0 2.13,-0.68 2.13,-1.78c0,-1.09 -0.82,-1.77 -2.13,-1.77zm-0.06,2.62l-0.93,0l0,-1.7l0.93,0c0.69,0 1.04,0.32 1.04,0.85c0,0.54 -0.35,0.85 -1.04,0.85z" fill="rgb(0,0,0)" fill-rule="evenodd" id="svg_55"/>
   <path d="m102.79,226.96l0,-0.91l-3.71,0l0,4.9l1.14,0l0,-1.79l2.26,0l0,-0.91l-2.26,0l0,-1.29l2.57,0zm6.29,3.99l-0.02,-4.9l-0.93,0l-1.8,3.04l-1.84,-3.04l-0.93,0l0,4.9l1.06,0l0,-2.88l1.43,2.36l0.51,0l1.45,-2.42l0,2.94l1.07,0zm-24.16,0l3.59,0l0,-0.93l-2.45,0l0,-3.97l-1.14,0l0,4.9zm4.23,0l1.13,0l0,-4.9l-1.13,0l0,4.9zm5.67,-4.9l0,2.97l-2.44,-2.97l-0.94,0l0,4.9l1.12,0l0,-2.98l2.45,2.98l0.93,0l0,-4.9l-1.12,0z" fill="rgb(0,0,0)" fill-rule="evenodd" id="svg_56"/>
  </g>
 </g>
</svg>