<?xml version="1.0" encoding="UTF-8" standalone="no"?>
<svg
   width="120"
   height="380"
   version="1.1"
   id="svg131"
   sodipodi:docname="VCO.svg"
   inkscape:version="1.1.1 (3bf5ae0d25, 2021-09-20)"
   xmlns:inkscape="http://www.inkscape.org/namespaces/inkscape"
   xmlns:sodipodi="http://sodipodi.sourceforge.net/DTD/sodipodi-0.dtd"
   xmlns="http://www.w3.org/2000/svg"
   xmlns:svg="http://www.w3.org/2000/svg">
  <sodipodi:namedview
     id="namedview133"
     pagecolor="#ffffff"
     bordercolor="#666666"
     borderopacity="1.0"
     inkscape:pageshadow="2"
     inkscape:pageopacity="0.0"
     inkscape:pagecheckerboard="0"
     showgrid="false"
     inkscape:zoom="1.7157895"
     inkscape:cx="59.739264"
     inkscape:cy="189.70859"
     inkscape:window-width="1920"
     inkscape:window-height="1057"
     inkscape:window-x="1592"
     inkscape:window-y="-8"
     inkscape:window-maximized="1"
     inkscape:current-layer="svg131" />
  <defs
     id="defs74">
    <clipPath
       id="_clipPath_sMzPIcrS2sD3lKhajQrdaiSEc399lqzM">
      <rect
         height="380"
         id="svg_1"
         width="120" />
    </clipPath>
  </defs>
  <rect
     fill="#ff0000"
     height="380"
     id="svg_3"
     stroke="#000000"
     stroke-width="5"
     width="120"
     x="-1"
     y="-1">PITC</rect>
  <path
     d="m 12,306 h 96 c 3.31,0 6,2.69 6,6 v 32 c 0,3.31 -2.69,6 -6,6 H 12 c -3.31,0 -6,-2.69 -6,-6 v -32 c 0,-3.31 2.69,-6 6,-6 z"
     fill="#4d9a4d"
     id="svg_4"
     stroke-miterlimit="10" />
  <path
     d="m 45.87,263.97 h 28.25 c 1.59,0 2.87,2.69 2.87,6 v 47.35 c 0,3.32 -1.29,6 -2.87,6 H 45.87 c -1.59,0 -2.87,-2.68 -2.87,-6 v -47.35 c 0,-3.31 1.29,-6 2.87,-6 z"
     fill="#4d9a4d"
     id="svg_5"
     stroke-miterlimit="10" />
  <g
     id="svg_11">
    <path
       d="m 91,312.48 c 0,-1.41 1.34,-2.55 2.99,-2.55 1.65,0 3,1.14 3,2.55"
       fill="none"
       id="svg_12"
       stroke="#e2e2e2"
       stroke-linecap="square"
       stroke-miterlimit="3" />
    <path
       d="m 103,312.48 c 0,1.41 -1.34,2.55 -2.99,2.55 -1.65,0 -3,-1.14 -3,-2.55"
       fill="none"
       id="svg_13"
       stroke="#e2e2e2"
       stroke-linecap="square"
       stroke-miterlimit="3" />
  </g>
  <path
     d="M 21.73,201.16 C 15.9,197.67 12,191.28 12,184 c 0,-11.04 8.96,-20 20,-20 11.04,0 20,8.96 20,20 0,7.28 -3.9,13.67 -9.73,17.16"
     fill="none"
     id="svg_14"
     stroke="#202020"
     stroke-linecap="square"
     stroke-miterlimit="3"
     stroke-width="0.8" />
  <path
     d="M 77.73,201.16 C 71.9,197.67 68,191.28 68,184 c 0,-11.04 8.96,-20 20,-20 11.04,0 20,8.96 20,20 0,7.28 -3.9,13.67 -9.73,17.16"
     fill="none"
     id="svg_15"
     stroke="#202020"
     stroke-linecap="square"
     stroke-miterlimit="3"
     stroke-width="0.8" />
  <path
     d="M 77.73,145.16 C 71.9,141.67 68,135.28 68,128 c 0,-11.04 8.96,-20 20,-20 11.04,0 20,8.96 20,20 0,7.28 -3.9,13.67 -9.73,17.16"
     fill="none"
     id="svg_16"
     stroke="#202020"
     stroke-linecap="square"
     stroke-miterlimit="3"
     stroke-width="0.8" />
  <path
     d="m 52.55,226.19 h 1.12 l -2.12,4.9 h -1.12 l -2.11,-4.9 h 1.22 l 1.49,3.5 z m 0.82,5.6 2.31,-6.59 h 0.97 l -2.31,6.59 z m 5.93,-0.61 v 0 q -0.76,0 -1.38,-0.33 v 0 0 q -0.61,-0.33 -0.95,-0.91 v 0 0 q -0.35,-0.57 -0.35,-1.3 v 0 0 q 0,-0.72 0.35,-1.29 v 0 0 q 0.34,-0.58 0.95,-0.91 v 0 0 q 0.62,-0.33 1.38,-0.33 v 0 0 q 0.76,0 1.37,0.33 v 0 0 q 0.61,0.33 0.96,0.91 v 0 0 q 0.35,0.57 0.35,1.29 v 0 0 q 0,0.73 -0.35,1.3 v 0 0 q -0.35,0.58 -0.96,0.91 v 0 0 q -0.61,0.33 -1.37,0.33 z m 0,-0.97 v 0 q 0.43,0 0.78,-0.2 v 0 0 q 0.35,-0.2 0.55,-0.55 v 0 0 q 0.2,-0.36 0.2,-0.82 v 0 0 q 0,-0.45 -0.2,-0.81 v 0 0 q -0.2,-0.36 -0.55,-0.55 v 0 0 q -0.35,-0.2 -0.78,-0.2 v 0 0 q -0.43,0 -0.78,0.2 v 0 0 q -0.35,0.19 -0.55,0.55 v 0 0 q -0.2,0.36 -0.2,0.81 v 0 0 q 0,0.46 0.2,0.82 v 0 0 q 0.2,0.35 0.55,0.55 v 0 0 q 0.35,0.2 0.78,0.2 z m 5.88,0.97 v 0 q -0.75,0 -1.35,-0.33 v 0 0 q -0.61,-0.32 -0.96,-0.9 v 0 0 q -0.34,-0.58 -0.34,-1.31 v 0 0 q 0,-0.72 0.34,-1.3 v 0 0 q 0.35,-0.58 0.96,-0.9 v 0 0 q 0.6,-0.33 1.36,-0.33 v 0 0 q 0.63,0 1.15,0.22 v 0 0 q 0.51,0.23 0.86,0.65 v 0 l -0.73,0.67 v 0 q -0.49,-0.57 -1.23,-0.57 v 0 0 q -0.45,0 -0.81,0.2 v 0 0 q -0.36,0.19 -0.56,0.55 v 0 0 q -0.2,0.36 -0.2,0.81 v 0 0 q 0,0.46 0.2,0.82 v 0 0 q 0.2,0.35 0.56,0.55 v 0 0 q 0.36,0.2 0.81,0.2 v 0 0 q 0.74,0 1.23,-0.58 v 0 l 0.73,0.67 v 0 q -0.35,0.43 -0.87,0.65 v 0 0 q -0.51,0.23 -1.15,0.23 z m 3.8,-0.09 v -3.97 h -1.57 v -0.93 h 4.27 v 0.93 h -1.57 v 3.97 z"
     fill="#202020"
     fill-rule="evenodd"
     id="svg_19" />
  <path
     d="m 15.98,272.88 h -1.22 l -0.94,-1.36 h -0.06 -0.99 v 1.36 h -1.13 v -4.9 h 2.12 v 0 q 0.65,0 1.13,0.22 v 0 0 q 0.48,0.22 0.74,0.62 v 0 0 q 0.26,0.4 0.26,0.94 v 0 0 q 0,0.55 -0.26,0.94 v 0 0 q -0.27,0.4 -0.75,0.61 v 0 z m -1.24,-3.12 v 0 q 0,-0.41 -0.27,-0.63 v 0 0 q -0.26,-0.22 -0.77,-0.22 v 0 h -0.93 v 1.71 h 0.93 v 0 q 0.51,0 0.77,-0.23 v 0 0 q 0.27,-0.22 0.27,-0.63 z m 3.17,2.21 h 2.67 v 0.91 h -3.8 v -4.9 h 3.71 v 0.91 h -2.58 v 1.07 h 2.28 v 0.88 h -2.28 z m 5.18,1 v 0 q -0.58,0 -1.12,-0.16 v 0 0 q -0.54,-0.16 -0.87,-0.41 v 0 l 0.38,-0.85 v 0 q 0.32,0.23 0.75,0.37 v 0 0 q 0.43,0.14 0.87,0.14 v 0 0 q 0.48,0 0.71,-0.14 v 0 0 q 0.23,-0.15 0.23,-0.39 v 0 0 q 0,-0.17 -0.13,-0.29 v 0 0 q -0.14,-0.11 -0.35,-0.18 v 0 0 q -0.22,-0.07 -0.58,-0.16 v 0 0 q -0.56,-0.13 -0.92,-0.26 v 0 0 q -0.36,-0.14 -0.61,-0.43 v 0 0 q -0.26,-0.29 -0.26,-0.78 v 0 0 q 0,-0.43 0.24,-0.78 v 0 0 q 0.23,-0.34 0.69,-0.55 v 0 0 q 0.47,-0.2 1.14,-0.2 v 0 0 q 0.47,0 0.92,0.11 v 0 0 q 0.44,0.11 0.78,0.32 v 0 l -0.35,0.86 v 0 q -0.68,-0.38 -1.36,-0.38 v 0 0 q -0.47,0 -0.7,0.15 v 0 0 q -0.23,0.16 -0.23,0.41 v 0 0 q 0,0.25 0.26,0.38 v 0 0 q 0.27,0.12 0.81,0.24 v 0 0 q 0.56,0.13 0.91,0.26 v 0 0 q 0.36,0.13 0.61,0.42 v 0 0 q 0.26,0.29 0.26,0.78 v 0 0 q 0,0.42 -0.24,0.77 v 0 0 q -0.23,0.34 -0.7,0.54 v 0 0 q -0.47,0.21 -1.14,0.21 z m 3.98,-1 h 2.67 v 0.91 h -3.79 v -4.9 h 3.7 v 0.91 h -2.58 v 1.07 h 2.28 v 0.88 h -2.28 z m 4.59,0.91 v -3.97 h -1.57 v -0.93 h 4.27 v 0.93 h -1.57 v 3.97 z"
     fill="#202020"
     fill-rule="evenodd"
     id="svg_20" />
  <path
     d="M 22.98,222.7 23,216.9 c 0,-0.55 0.32,-1.32 0.7,-1.71 l 7.6,-7.68 c 0.38,-0.39 0.7,-1.16 0.7,-1.71 V 200"
     fill="none"
     id="svg_21"
     stroke="#202020"
     stroke-dasharray="none"
     stroke-linecap="square"
     stroke-miterlimit="3"
     stroke-width="0.8" />
  <path
     d="m 96.88,222.7 0.02,-5.8 c 0,-0.55 -0.32,-1.32 -0.7,-1.71 l -7.59,-7.68 c -0.39,-0.39 -0.7,-1.16 -0.71,-1.71 L 87.85,200"
     fill="none"
     id="svg_22"
     stroke="#202020"
     stroke-dasharray="none"
     stroke-linecap="square"
     stroke-miterlimit="3"
     stroke-width="0.8" />
  <g
     id="svg_23">
    <line
       id="svg_24"
       stroke="#202020"
       stroke-linecap="square"
       stroke-miterlimit="3"
       stroke-width="0.8"
       x1="44.560001"
       x2="43.799999"
       y1="89.699997"
       y2="90.989998" />
    <line
       id="svg_25"
       stroke="#202020"
       stroke-linecap="square"
       stroke-miterlimit="3"
       stroke-width="0.8"
       x1="75.440002"
       x2="76.199997"
       y1="89.699997"
       y2="90.989998" />
    <line
       id="svg_26"
       stroke="#202020"
       stroke-linecap="square"
       stroke-miterlimit="3"
       stroke-width="0.8"
       x1="30.799999"
       x2="32.189999"
       y1="75.959999"
       y2="75.400002" />
    <line
       id="svg_27"
       stroke="#202020"
       stroke-linecap="square"
       stroke-miterlimit="3"
       stroke-width="0.8"
       x1="89.199997"
       x2="87.809998"
       y1="75.959999"
       y2="75.400002" />
    <line
       id="svg_28"
       stroke="#202020"
       stroke-linecap="square"
       stroke-miterlimit="3"
       stroke-width="0.8"
       x1="29.67"
       x2="31.110001"
       y1="55.400002"
       y2="55.799999" />
    <line
       id="svg_29"
       stroke="#202020"
       stroke-linecap="square"
       stroke-miterlimit="3"
       stroke-width="0.8"
       x1="90.32"
       x2="88.879997"
       y1="55.400002"
       y2="55.799999" />
    <line
       id="svg_30"
       stroke="#202020"
       stroke-linecap="square"
       stroke-miterlimit="3"
       stroke-width="0.8"
       x1="60"
       x2="60"
       y1="32.509998"
       y2="34" />
    <line
       id="svg_31"
       stroke="#202020"
       stroke-linecap="square"
       stroke-miterlimit="3"
       stroke-width="0.8"
       x1="40.830002"
       x2="41.73"
       y1="39.009998"
       y2="40.200001" />
    <line
       id="svg_32"
       stroke="#202020"
       stroke-linecap="square"
       stroke-miterlimit="3"
       stroke-width="0.8"
       x1="79.169998"
       x2="78.260002"
       y1="39.009998"
       y2="40.200001" />
  </g>
  <path
     d="m 45.89,101.69 v 0 q -0.87,0 -1.57,-0.37 v 0 0 q -0.7,-0.38 -1.1,-1.04 v 0 0 Q 42.83,99.62 42.83,98.8 v 0 0 q 0,-0.83 0.39,-1.49 v 0 0 q 0.4,-0.66 1.1,-1.03 v 0 0 q 0.7,-0.38 1.57,-0.38 v 0 0 q 0.87,0 1.57,0.38 v 0 0 q 0.7,0.37 1.1,1.03 v 0 0 q 0.4,0.66 0.4,1.49 v 0 0 q 0,0.82 -0.4,1.48 v 0 0 q -0.4,0.66 -1.1,1.04 v 0 0 q -0.7,0.37 -1.57,0.37 z m 0,-1.1 v 0 q 0.5,0 0.9,-0.23 v 0 0 q 0.4,-0.23 0.63,-0.64 v 0 0 q 0.22,-0.4 0.22,-0.92 v 0 0 q 0,-0.52 -0.22,-0.93 v 0 0 q -0.23,-0.41 -0.63,-0.64 v 0 0 Q 46.39,97 45.89,97 v 0 0 Q 45.4,97 45,97.23 v 0 0 q -0.4,0.23 -0.63,0.64 v 0 0 q -0.23,0.41 -0.23,0.93 v 0 0 q 0,0.52 0.23,0.92 v 0 0 q 0.23,0.41 0.63,0.64 v 0 0 q 0.4,0.23 0.89,0.23 z m 6.72,1.1 v 0 q -0.85,0 -1.55,-0.37 v 0 0 q -0.69,-0.37 -1.08,-1.03 v 0 0 q -0.4,-0.66 -0.4,-1.49 v 0 0 q 0,-0.84 0.4,-1.5 v 0 0 q 0.39,-0.66 1.08,-1.03 v 0 0 q 0.7,-0.37 1.56,-0.37 v 0 0 q 0.73,0 1.32,0.26 v 0 0 q 0.58,0.25 0.98,0.73 v 0 l -0.83,0.77 v 0 Q 53.52,97 52.68,97 v 0 0 q -0.52,0 -0.92,0.23 v 0 0 q -0.41,0.23 -0.64,0.64 v 0 0 q -0.23,0.41 -0.23,0.93 v 0 0 q 0,0.52 0.23,0.92 v 0 0 q 0.23,0.41 0.64,0.64 v 0 0 q 0.4,0.23 0.92,0.23 v 0 0 q 0.84,0 1.41,-0.67 v 0 l 0.83,0.77 v 0 q -0.4,0.49 -0.99,0.75 v 0 0 q -0.59,0.25 -1.32,0.25 z m 4.35,-0.09 v -4.55 h -1.8 V 96 h 4.88 v 1.05 h -1.79 v 4.55 z m 7.96,0 -0.49,-1.2 h -2.6 l -0.5,1.2 H 60 L 62.5,96 h 1.28 l 2.5,5.6 z m -2.68,-2.19 h 1.78 L 63.13,97.27 Z M 70.96,96 h 1.29 l -2.42,5.6 H 68.55 L 66.13,96 h 1.4 l 1.71,4 z m 3.16,4.56 h 3.05 v 1.04 H 72.84 V 96 h 4.23 v 1.04 h -2.95 v 1.21 h 2.6 v 1.01 h -2.6 z"
     fill="#202020"
     fill-rule="evenodd"
     id="svg_33" />
  <path
     d="m 54,270.2 2.3,-1.97 c 0.39,-0.33 0.7,-0.19 0.7,0.32 v 3.98 c 0,0.52 0.29,0.64 0.66,0.27 l 4.68,-4.69 c 0.37,-0.36 0.66,-0.24 0.66,0.27 v 4.04 c 0,0.57 0.35,0.74 0.79,0.36 l 2.21,-1.9"
     fill="none"
     id="svg_36"
     stroke="#e2e2e2"
     stroke-linecap="square"
     stroke-miterlimit="3" />
  <path
     d="m 28.98,313.12 -0.02,1.04 c -0.01,0.48 -0.41,0.87 -0.88,0.87 h -4.26 c -0.47,0 -0.86,-0.38 -0.86,-0.86 v -3.37 c 0,-0.48 -0.39,-0.87 -0.87,-0.87 l -4.11,0.01 c -0.56,0 -1,0.45 -1,1 l 0.01,1.1"
     fill="none"
     id="svg_37"
     stroke="#e2e2e2"
     stroke-linecap="square"
     stroke-miterlimit="3" />
  <path
     d="m 54,312.18 2.3,-2.01 c 0.39,-0.33 1,-0.31 1.36,0.04 l 4.6,4.48 c 0.4,0.4 1.08,0.41 1.51,0.03 L 66,312.74"
     fill="none"
     id="svg_38"
     stroke="#e2e2e2"
     stroke-linecap="square"
     stroke-miterlimit="3" />
  <g
     id="svg_39">
    <line
       id="svg_40"
       stroke="#202020"
       stroke-linecap="square"
       stroke-miterlimit="3"
       stroke-width="0.8"
       x1="20.91"
       x2="21.68"
       y1="146.44"
       y2="145.16" />
    <line
       id="svg_41"
       stroke="#202020"
       stroke-linecap="square"
       stroke-miterlimit="3"
       stroke-width="0.8"
       x1="43.09"
       x2="42.32"
       y1="146.44"
       y2="145.16" />
    <line
       id="svg_42"
       stroke="#202020"
       stroke-linecap="square"
       stroke-miterlimit="3"
       stroke-width="0.8"
       x1="15.1"
       x2="16.280001"
       y1="141.3"
       y2="140.38" />
    <line
       id="svg_43"
       stroke="#202020"
       stroke-linecap="square"
       stroke-miterlimit="3"
       stroke-width="0.8"
       x1="48.900002"
       x2="47.720001"
       y1="141.3"
       y2="140.38" />
    <line
       id="svg_44"
       stroke="#202020"
       stroke-linecap="square"
       stroke-miterlimit="3"
       stroke-width="0.8"
       x1="11.44"
       x2="12.87"
       y1="134.33"
       y2="133.89999" />
    <line
       id="svg_45"
       stroke="#202020"
       stroke-linecap="square"
       stroke-miterlimit="3"
       stroke-width="0.8"
       x1="52.560001"
       x2="51.130001"
       y1="134.33"
       y2="133.89999" />
    <line
       id="svg_46"
       stroke="#202020"
       stroke-linecap="square"
       stroke-miterlimit="3"
       stroke-width="0.8"
       x1="10.6"
       x2="12.09"
       y1="126.17"
       y2="126.3" />
    <line
       id="svg_47"
       stroke="#202020"
       stroke-linecap="square"
       stroke-miterlimit="3"
       stroke-width="0.8"
       x1="53.400002"
       x2="51.91"
       y1="126.17"
       y2="126.3" />
    <line
       id="svg_48"
       stroke="#202020"
       stroke-linecap="square"
       stroke-miterlimit="3"
       stroke-width="0.8"
       x1="12.75"
       x2="14.09"
       y1="118.45"
       y2="119.11" />
    <line
       id="svg_49"
       stroke="#202020"
       stroke-linecap="square"
       stroke-miterlimit="3"
       stroke-width="0.8"
       x1="51.25"
       x2="49.91"
       y1="118.45"
       y2="119.11" />
    <line
       id="svg_50"
       stroke="#202020"
       stroke-linecap="square"
       stroke-miterlimit="3"
       stroke-width="0.8"
       x1="17.43"
       x2="18.450001"
       y1="112.18"
       y2="113.28" />
    <line
       id="svg_51"
       stroke="#202020"
       stroke-linecap="square"
       stroke-miterlimit="3"
       stroke-width="0.8"
       x1="46.57"
       x2="45.549999"
       y1="112.18"
       y2="113.28" />
    <line
       id="svg_52"
       stroke="#202020"
       stroke-linecap="square"
       stroke-miterlimit="3"
       stroke-width="0.8"
       x1="24.059999"
       x2="24.610001"
       y1="108"
       y2="109.39" />
    <line
       id="svg_53"
       stroke="#202020"
       stroke-linecap="square"
       stroke-miterlimit="3"
       stroke-width="0.8"
       x1="39.939999"
       x2="39.389999"
       y1="108"
       y2="109.39" />
    <line
       id="svg_54"
       stroke="#202020"
       stroke-linecap="square"
       stroke-miterlimit="3"
       stroke-width="0.8"
       x1="31.860001"
       x2="31.860001"
       y1="108"
       y2="106.5" />
  </g>
  <path
     d="m 30.11,226.96 v -0.91 H 26.4 v 4.9 h 1.14 v -1.79 h 2.26 v -0.91 h -2.26 v -1.29 z m 6.29,3.99 -0.02,-4.9 h -0.93 l -1.8,3.04 -1.84,-3.04 h -0.93 v 4.9 h 1.06 v -2.88 l 1.43,2.36 h 0.51 l 1.45,-2.42 v 2.94 z M 10.73,230.04 V 228.9 H 13 v -0.88 h -2.27 v -1.06 h 2.57 v -0.91 H 9.6 v 4.9 h 3.8 v -0.91 z m 7.97,0.91 -1.83,-2.54 1.71,-2.36 h -1.23 l -1.1,1.59 -1.13,-1.59 h -1.29 l 1.72,2.41 -1.81,2.49 h 1.3 l 1.16,-1.7 1.19,1.7 z m 2.72,-4.9 H 19.3 v 4.9 h 1.13 v -1.35 h 0.99 c 1.31,0 2.13,-0.68 2.13,-1.78 0,-1.09 -0.82,-1.77 -2.13,-1.77 z m -0.06,2.62 h -0.93 v -1.7 h 0.93 c 0.69,0 1.04,0.32 1.04,0.85 0,0.54 -0.35,0.85 -1.04,0.85 z"
     fill="#000000"
     fill-rule="evenodd"
     id="svg_55" />
  <path
     d="m 102.79,226.96 v -0.91 h -3.71 v 4.9 h 1.14 v -1.79 h 2.26 v -0.91 h -2.26 v -1.29 z m 6.29,3.99 -0.02,-4.9 h -0.93 l -1.8,3.04 -1.84,-3.04 h -0.93 v 4.9 h 1.06 v -2.88 l 1.43,2.36 h 0.51 l 1.45,-2.42 v 2.94 z m -24.16,0 h 3.59 v -0.93 h -2.45 v -3.97 h -1.14 z m 4.23,0 h 1.13 v -4.9 h -1.13 z m 5.67,-4.9 v 2.97 l -2.44,-2.97 h -0.94 v 4.9 h 1.12 v -2.98 l 2.45,2.98 h 0.93 v -4.9 z"
     fill="#000000"
     fill-rule="evenodd"
     id="svg_56" />
  <g
     aria-label="PWM"
     id="svg_57"
     style="font-weight:bold;font-size:8px;font-family:Helvetica;text-anchor:middle;stroke:#000000;stroke-width:0">
    <path
       d="m 88.826637,273.14001 v -5.72656 h 1.855469 q 1.054688,0 1.375,0.0859 0.492188,0.12891 0.824219,0.5625 0.332031,0.42969 0.332031,1.11328 0,0.52734 -0.191406,0.88672 -0.191406,0.35937 -0.488281,0.56641 -0.292969,0.20312 -0.597657,0.26953 -0.414062,0.082 -1.199218,0.082 h -0.753907 v 2.16015 z m 1.15625,-4.75781 v 1.625 H 90.6157 q 0.683594,0 0.914062,-0.0898 0.230469,-0.0898 0.359375,-0.28125 0.132813,-0.19141 0.132813,-0.44531 0,-0.3125 -0.183594,-0.51563 -0.183594,-0.20312 -0.464844,-0.25391 -0.207031,-0.0391 -0.832031,-0.0391 z"
       style="font-weight:bold;font-size:8px;font-family:Helvetica;text-anchor:middle;stroke:#000000;stroke-width:0"
       id="path423" />
    <path
       d="m 94.975075,273.14001 -1.367188,-5.72656 h 1.183594 l 0.863281,3.9336 1.046875,-3.9336 h 1.375 l 1.003907,4 0.878906,-4 h 1.16406 l -1.390623,5.72656 h -1.226562 l -1.140625,-4.28125 -1.136719,4.28125 z"
       style="font-weight:bold;font-size:8px;font-family:Helvetica;text-anchor:middle;stroke:#000000;stroke-width:0"
       id="path425" />
    <path
       d="m 101.69773,273.14001 v -5.72656 h 1.73047 l 1.03906,3.90625 1.02735,-3.90625 h 1.73437 v 5.72656 h -1.07422 v -4.50781 l -1.13672,4.50781 h -1.11328 l -1.13281,-4.50781 v 4.50781 z"
       style="font-weight:bold;font-size:8px;font-family:Helvetica;text-anchor:middle;stroke:#000000;stroke-width:0"
       id="path427" />
  </g>
  <text
     fill="#000000"
     font-family="Helvetica"
     font-size="8px"
     font-weight="bold"
     id="svg_58"
     stroke="#000000"
     stroke-width="0"
     text-anchor="middle"
     x="1032.76"
     xml:space="preserve"
     y="216.64">PWM</text>
  <g
     aria-label="PW"
     id="svg_59"
     style="font-weight:bold;font-size:8px;font-family:Helvetica;text-anchor:middle;stroke:#000000;stroke-width:0">
    <path
       d="m 82.158669,155.14 v -5.72656 h 1.855468 q 1.054688,0 1.375,0.0859 0.492188,0.12891 0.824219,0.5625 0.332031,0.42969 0.332031,1.11329 0,0.52734 -0.191406,0.88671 -0.191406,0.35938 -0.488281,0.56641 -0.292969,0.20313 -0.597656,0.26953 -0.414063,0.082 -1.199219,0.082 H 83.314919 V 155.14 Z m 1.15625,-4.75781 v 1.625 h 0.632812 q 0.683594,0 0.914063,-0.0899 0.230468,-0.0898 0.359375,-0.28125 0.132812,-0.1914 0.132812,-0.44531 0,-0.3125 -0.183594,-0.51562 -0.183593,-0.20313 -0.464843,-0.25391 -0.207032,-0.0391 -0.832032,-0.0391 z"
       style="font-weight:bold;font-size:8px;font-family:Helvetica;text-anchor:middle;stroke:#000000;stroke-width:0"
       id="path346" />
    <path
       d="m 88.307106,155.14 -1.367187,-5.72656 h 1.183593 l 0.863282,3.93359 1.046875,-3.93359 h 1.375 l 1.003906,4 0.878906,-4 h 1.164063 L 93.064919,155.14 h -1.226563 l -1.140625,-4.28125 -1.136719,4.28125 z"
       style="font-weight:bold;font-size:8px;font-family:Helvetica;text-anchor:middle;stroke:#000000;stroke-width:0"
       id="path348" />
  </g>
  <g
     aria-label="PITCH"
     id="svg_60"
     style="font-weight:bold;font-size:8px;font-family:Helvetica;text-anchor:middle;stroke:#000000;stroke-width:0">
    <path
       d="m 21.502029,156 v -5.72656 h 1.855469 q 1.054688,0 1.375,0.0859 0.492188,0.12891 0.824219,0.5625 0.332031,0.42969 0.332031,1.11329 0,0.52734 -0.191406,0.88671 -0.191406,0.35938 -0.488281,0.56641 -0.292969,0.20313 -0.597657,0.26953 -0.414062,0.082 -1.199218,0.082 H 22.658279 V 156 Z m 1.15625,-4.75781 v 1.625 h 0.632813 q 0.683594,0 0.914062,-0.0898 0.230469,-0.0898 0.359375,-0.28125 0.132813,-0.1914 0.132813,-0.44531 0,-0.3125 -0.183594,-0.51562 -0.183594,-0.20313 -0.464844,-0.25391 -0.207031,-0.0391 -0.832031,-0.0391 z"
       style="font-weight:bold;font-size:8px;font-family:Helvetica;text-anchor:middle;stroke:#000000;stroke-width:0"
       id="path369" />
    <path
       d="m 26.802811,156 v -5.72656 h 1.15625 V 156 Z"
       style="font-weight:bold;font-size:8px;font-family:Helvetica;text-anchor:middle;stroke:#000000;stroke-width:0"
       id="path371" />
    <path
       d="m 30.349686,156 v -4.75781 h -1.699219 v -0.96875 h 4.550781 v 0.96875 H 31.505936 V 156 Z"
       style="font-weight:bold;font-size:8px;font-family:Helvetica;text-anchor:middle;stroke:#000000;stroke-width:0"
       id="path373" />
    <path
       d="m 37.611404,153.89453 1.121094,0.35547 q -0.257812,0.9375 -0.859375,1.39453 -0.597656,0.45313 -1.519531,0.45313 -1.140625,0 -1.875,-0.77735 -0.734375,-0.78125 -0.734375,-2.13281 0,-1.42969 0.738281,-2.21875 0.738281,-0.79297 1.941406,-0.79297 1.050782,0 1.707032,0.62109 0.390625,0.36719 0.585937,1.05469 l -1.144531,0.27344 q -0.101563,-0.44531 -0.425781,-0.70313 -0.320313,-0.25781 -0.78125,-0.25781 -0.636719,0 -1.035157,0.45703 -0.394531,0.45703 -0.394531,1.48047 0,1.08594 0.390625,1.54688 0.390625,0.46093 1.015625,0.46093 0.460938,0 0.792969,-0.29296 0.332031,-0.29297 0.476562,-0.92188 z"
       style="font-weight:bold;font-size:8px;font-family:Helvetica;text-anchor:middle;stroke:#000000;stroke-width:0"
       id="path375" />
    <path
       d="m 39.728592,156 v -5.72656 h 1.15625 v 2.2539 h 2.265625 v -2.2539 h 1.15625 V 156 h -1.15625 v -2.50391 H 40.884842 V 156 Z"
       style="font-weight:bold;font-size:8px;font-family:Helvetica;text-anchor:middle;stroke:#000000;stroke-width:0"
       id="path377" />
  </g>
  <g
     aria-label="VCO"
     id="svg_61"
     style="font-weight:bold;font-size:13px;font-family:Helvetica;text-anchor:middle;stroke-width:0">
    <path
       d="m 48.254375,28 -3.326171,-9.305664 h 2.037597 l 2.354981,6.887207 2.278808,-6.887207 h 1.993164 L 50.260235,28 Z"
       style="font-weight:bold;font-size:13px;font-family:Helvetica;text-anchor:middle;stroke-width:0"
       id="path398" />
    <path
       d="m 60.505352,24.578613 1.821777,0.577637 q -0.418945,1.523437 -1.396484,2.266113 -0.971191,0.736328 -2.469238,0.736328 -1.853516,0 -3.046875,-1.263183 -1.19336,-1.269531 -1.19336,-3.465821 0,-2.323242 1.199707,-3.605468 1.199707,-1.288574 3.154786,-1.288574 1.707519,0 2.773925,1.009277 0.634766,0.59668 0.952149,1.713867 l -1.859864,0.444336 q -0.165039,-0.723633 -0.691894,-1.142578 -0.520508,-0.418945 -1.269531,-0.418945 -1.034668,0 -1.682129,0.742675 -0.641114,0.742676 -0.641114,2.405762 0,1.764648 0.634766,2.513672 0.634766,0.749023 1.650391,0.749023 0.749023,0 1.288574,-0.476074 0.539551,-0.476074 0.774414,-1.498047 z"
       style="font-weight:bold;font-size:13px;font-family:Helvetica;text-anchor:middle;stroke-width:0"
       id="path400" />
    <path
       d="m 63.558575,23.404297 q 0,-1.421875 0.425293,-2.386719 0.317382,-0.710937 0.863281,-1.275879 0.552246,-0.564941 1.206055,-0.83789 0.869628,-0.368164 2.005859,-0.368164 2.056641,0 3.288086,1.275878 1.237793,1.275879 1.237793,3.54834 0,2.253418 -1.225098,3.529297 -1.225097,1.269531 -3.27539,1.269531 -2.075684,0 -3.300782,-1.263183 -1.225097,-1.269531 -1.225097,-3.491211 z m 1.936035,-0.06348 q 0,1.580567 0.72998,2.399414 0.729981,0.8125 1.853516,0.8125 1.123535,0 1.84082,-0.806152 0.723633,-0.8125 0.723633,-2.431152 0,-1.59961 -0.70459,-2.386719 -0.698242,-0.787109 -1.859863,-0.787109 -1.161621,0 -1.872559,0.799804 -0.710937,0.793457 -0.710937,2.399414 z"
       style="font-weight:bold;font-size:13px;font-family:Helvetica;text-anchor:middle;stroke-width:0"
       id="path402" />
  </g>
  <g
     aria-label="Venom"
     id="svg_62"
     style="font-size:10px;font-family:Fantasy;text-anchor:middle;stroke-width:0">
    <path
       d="m 50.11375,359.23474 -1.044921,7.90527 h -3.120118 l -1.186523,-7.90527 h 2.167969 q 0.375976,3.2666 0.537109,5.52246 0.161133,-2.28027 0.336914,-4.05273 l 0.141602,-1.46973 z"
       style="font-size:10px;font-family:Fantasy;text-anchor:middle;stroke-width:0"
       id="path448" />
    <path
       d="m 54.874493,364.01501 h -2.553711 v 1.40137 q 0,0.43945 0.06348,0.56641 0.06348,0.12695 0.244141,0.12695 0.224609,0 0.297851,-0.16601 0.07813,-0.1709 0.07813,-0.6543 v -0.85449 h 1.870118 v 0.47851 q 0,0.60059 -0.07813,0.92285 -0.07324,0.32227 -0.351563,0.68848 -0.27832,0.36621 -0.708008,0.55176 -0.424804,0.18066 -1.069336,0.18066 -0.625,0 -1.103515,-0.18066 -0.478516,-0.18067 -0.747071,-0.49317 -0.263671,-0.31738 -0.36621,-0.69336 -0.10254,-0.38085 -0.10254,-1.10351 v -1.88965 q 0,-0.84961 0.229493,-1.33789 0.229492,-0.49316 0.751953,-0.75195 0.522461,-0.26368 1.201172,-0.26368 0.830078,0 1.367187,0.31739 0.541992,0.3125 0.756836,0.83496 0.219727,0.51758 0.219727,1.45996 z m -1.977539,-1.05468 v -0.47364 q 0,-0.50293 -0.05371,-0.64941 -0.05371,-0.14648 -0.219727,-0.14648 -0.205078,0 -0.253906,0.12695 -0.04883,0.12207 -0.04883,0.66894 v 0.47364 z"
       style="font-size:10px;font-family:Fantasy;text-anchor:middle;stroke-width:0"
       id="path450" />
    <path
       d="m 57.52586,360.66052 -0.03418,0.59571 q 0.214844,-0.35645 0.522461,-0.53223 0.3125,-0.18067 0.717774,-0.18067 0.507812,0 0.830078,0.23926 0.322265,0.23926 0.415039,0.60547 0.09277,0.36133 0.09277,1.21094 v 4.54101 h -1.972656 v -4.4873 q 0,-0.66895 -0.04395,-0.81543 -0.04395,-0.14648 -0.244141,-0.14648 -0.209961,0 -0.263672,0.17089 -0.05371,0.16602 -0.05371,0.89844 v 4.37988 h -1.972656 v -6.47949 z"
       style="font-size:10px;font-family:Fantasy;text-anchor:middle;stroke-width:0"
       id="path452" />
    <path
       d="m 65.211407,362.93591 v 1.58692 q 0,0.87402 -0.08789,1.28418 -0.08789,0.40527 -0.375976,0.76172 -0.288086,0.35156 -0.742188,0.52246 -0.449219,0.16601 -1.035156,0.16601 -0.654297,0 -1.108399,-0.1416 -0.454101,-0.14648 -0.708007,-0.43457 -0.249024,-0.29297 -0.356446,-0.70312 -0.107422,-0.41504 -0.107422,-1.24024 v -1.66016 q 0,-0.90332 0.195313,-1.41113 0.195312,-0.50781 0.703125,-0.81543 0.507812,-0.30762 1.298828,-0.30762 0.664062,0 1.137695,0.2002 0.478516,0.19531 0.737305,0.5127 0.258789,0.31738 0.351562,0.65429 0.09766,0.33692 0.09766,1.02539 z m -1.972657,-0.48828 q 0,-0.49805 -0.05371,-0.625 -0.05371,-0.13183 -0.229493,-0.13183 -0.175781,0 -0.234375,0.13183 -0.05859,0.12695 -0.05859,0.625 v 2.92481 q 0,0.45898 0.05859,0.60058 0.05859,0.13672 0.229493,0.13672 0.175781,0 0.229492,-0.12695 0.05859,-0.12696 0.05859,-0.54688 z"
       style="font-size:10px;font-family:Fantasy;text-anchor:middle;stroke-width:0"
       id="path454" />
    <path
       d="m 67.809063,360.66052 -0.03418,0.61524 q 0.229492,-0.36621 0.546875,-0.54688 0.317383,-0.18555 0.722657,-0.18555 0.791015,0 1.245117,0.73243 0.249023,-0.36621 0.561523,-0.54688 0.3125,-0.18555 0.69336,-0.18555 0.502929,0 0.830078,0.24415 0.332031,0.24414 0.424804,0.60058 0.09277,0.35156 0.09277,1.14746 v 4.60449 h -1.914063 v -4.22363 q 0,-0.83008 -0.05859,-1.02539 -0.05371,-0.20019 -0.25879,-0.20019 -0.20996,0 -0.273437,0.19531 -0.05859,0.19531 -0.05859,1.03027 v 4.22363 h -1.914062 v -4.11621 q 0,-0.95214 -0.04883,-1.14257 -0.04395,-0.19043 -0.253907,-0.19043 -0.131836,0 -0.224609,0.10253 -0.09277,0.0977 -0.102539,0.24415 -0.0098,0.1416 -0.0098,0.61035 v 4.49218 h -1.914062 v -6.47949 z"
       style="font-size:10px;font-family:Fantasy;text-anchor:middle;stroke-width:0"
       id="path456" />
  </g>
</svg>
